<svg xmlns="http://www.w3.org/2000/svg" xmlns:xlink="http://www.w3.org/1999/xlink" version="1.1" width="0.4766000000" height="0.8403000000" viewBox="0 0 34.3147 60.4995">
  <title><![CDATA[Active Directory]]></title>
  <g transform=" scale(1.000000) ">
    <path xmlns="http://www.w3.org/2000/svg" d="  M34.0995,13.0612 L11.1487,0.0607 C11.1030,0.0353 11.0655,0.0353 11.0303,0.0480 C11.0145,0.0510 10.9965,0.0525 10.9792,0.0630 L0.2287,6.3623 C0.1132,6.4290 0.0180,6.6090 0.0180,6.7642 L0.0195,45.1155 C0.0195,45.2430 0.0472,45.4613 0.1237,45.4950 C5.3782,48.3218 11.2800,53.3205 16.5330,60.4935 L16.5330,56.9145 C17.6730,57.9075 18.4913,58.7542 18.7815,59.3362 L18.7755,56.5590 L22.9253,59.1105 L22.9253,58.6830 L23.2710,58.8855 L23.6077,58.6875 L23.6168,58.6927 L23.6168,58.6830 L23.9288,58.4985 L23.9655,58.5187 L23.9655,58.4768 L24.2700,58.2975 L24.3022,58.3148 L24.3022,58.2780 L24.5835,58.1122 L24.6480,58.1505 L24.6480,58.0740 L24.9337,57.9053 L24.9938,57.9405 L24.9938,57.8700 L25.2780,57.7020 L25.2968,57.7133 L25.2968,57.6915 L25.6193,57.5010 L25.6343,57.5100 L25.6343,57.4927 L26.3212,57.0885 L26.3257,57.0915 L26.3257,57.0870 L26.6513,56.8950 L26.6573,56.8980 L26.6573,56.8927 L28.0170,56.0918 L28.0328,56.1022 L28.0328,56.0820 L28.3583,55.8907 L28.3703,55.8983 L28.3703,55.8840 L28.6972,55.6905 L28.7047,55.6965 L28.7047,55.6860 L29.0137,55.5045 L29.0617,55.5330 L29.0617,55.4760 L29.3888,55.2832 L29.3993,55.2892 L29.3993,55.2773 L30.7305,54.4935 L30.7425,54.5010 L30.7425,54.4853 L31.0718,54.2918 L31.0808,54.2970 L31.0808,54.2865 L31.3838,54.1080 L31.4265,54.1327 L31.4265,54.0833 L31.7475,53.8943 L31.7475,53.8935 L33.4507,52.8900 L33.4552,52.8938 L33.4552,52.8878 L33.7920,52.6882 L33.7920,52.4903 L34.1025,52.6545 C34.2195,52.7220 34.3147,52.6485 34.3147,52.4947 L34.3147,13.4625 C34.3117,13.3073 34.2165,13.1280 34.0995,13.0612 Z" style="stroke-width: 1.5000; stroke: #8d98b5; stroke-dasharray: none; stroke-linecap: butt; stroke-linejoin: miter; fill: none; "/>
    <defs xmlns="http://www.w3.org/2000/svg" xmlns:xlink="http://www.w3.org/1999/xlink">
      <linearGradient id="grad1">
        <stop offset="0%" stop-color="#d1b23d" stop-opacity="1.0000"/>
        <stop offset="100%" stop-color="#eedf80" stop-opacity="1.0000"/>
      </linearGradient>
      <linearGradient xlink:href="#grad1" id="grad2" x1="0" y1="0" x2="0" y2="1" gradientTransform="rotate(90 .5 .5)" gradientUnits="objectBoundingBox">
  </linearGradient>
    </defs>
    <path xmlns="http://www.w3.org/2000/svg" d="  M34.2945,52.5015 C34.2945,52.6553 34.1977,52.7288 34.0822,52.6620 L11.1307,40.4865 C11.0137,40.4205 10.9200,40.2405 10.9200,40.0853 L10.9200,0.2265 C10.9200,0.0720 11.0137,0.0000 11.1307,0.0660 L34.0822,13.0665 C34.1977,13.1332 34.2945,13.3133 34.2945,13.4678 L34.2945,52.5015 Z" style="fill-rule: evenodd; fill: url(#grad2); "/>
    <defs xmlns="http://www.w3.org/2000/svg" xmlns:xlink="http://www.w3.org/1999/xlink">
      <linearGradient id="grad3">
        <stop offset="0%" stop-color="#d1b23d" stop-opacity="1.0000"/>
        <stop offset="100%" stop-color="#eedf80" stop-opacity="1.0000"/>
      </linearGradient>
      <linearGradient xlink:href="#grad3" id="grad4" x1="0" y1="0" x2="0" y2="1" gradientTransform="rotate(90 .5 .5)" gradientUnits="objectBoundingBox">
  </linearGradient>
    </defs>
    <path xmlns="http://www.w3.org/2000/svg" d="  M11.1720,0.2295 C11.1720,0.0750 11.0768,0.0030 10.9613,0.0690 L0.2108,6.3683 C0.0953,6.4343 0.0000,6.6143 0.0000,6.7703 L0.0000,45.1215 C0.0000,45.2753 0.0413,45.5640 0.1583,45.4980 L10.9613,40.4895 C11.0768,40.4227 11.1720,40.2435 11.1720,40.0883 L11.1720,0.2295 Z" style="fill-rule: evenodd; fill: url(#grad4); "/>
    <defs xmlns="http://www.w3.org/2000/svg">
      <linearGradient id="grad5">
        <stop offset="0%" stop-color="#8b530a" stop-opacity="1.0000"/>
        <stop offset="100%" stop-color="#eec984" stop-opacity="1.0000"/>
      </linearGradient>
    </defs>
    <path xmlns="http://www.w3.org/2000/svg" d="  M11.4195,39.3788 L11.4195,0.2933 L34.1175,13.4460 L34.1175,52.5307 L11.4195,39.3788 Z" style="fill-rule: evenodd; fill: url(#grad5); "/>
    <g xmlns="http://www.w3.org/2000/svg" xmlns:xlink="http://www.w3.org/1999/xlink" id="Layer1000">
      <defs>
        <linearGradient id="grad6">
          <stop offset="0%" stop-color="#e0d794" stop-opacity="1.0000"/>
          <stop offset="100%" stop-color="#ffffff" stop-opacity="1.0000"/>
        </linearGradient>
        <linearGradient xlink:href="#grad6" id="grad7" x1="0" y1="0" x2="0" y2="1" gradientTransform="rotate(90 .5 .5)" gradientUnits="objectBoundingBox">
  </linearGradient>
      </defs>
      <path d="  M11.0722,39.5415 L11.0722,0.4568 L33.7717,13.6103 L33.7717,52.6950 L11.0722,39.5415 Z" style="stroke-width: 0.3750; stroke-linecap: butt; stroke-linejoin: miter; fill-rule: evenodd; fill: url(#grad7); "/>
      <path d="  M11.0722,39.5415 L11.0722,0.4568 L33.7717,13.6103 L33.7717,52.6950 L11.0722,39.5415 Z" style="stroke-width: 0.3750; stroke: #fdf8c0; stroke-dasharray: none; stroke-linecap: butt; stroke-linejoin: miter; fill: none; "/>
    </g>
    <g xmlns="http://www.w3.org/2000/svg" xmlns:xlink="http://www.w3.org/1999/xlink" id="Layer1001">
      <defs>
        <linearGradient id="grad8">
          <stop offset="0%" stop-color="#e0d794" stop-opacity="1.0000"/>
          <stop offset="100%" stop-color="#ffffff" stop-opacity="1.0000"/>
        </linearGradient>
        <linearGradient xlink:href="#grad8" id="grad9" x1="0" y1="0" x2="0" y2="1" gradientTransform="rotate(90 .5 .5)" gradientUnits="objectBoundingBox">
  </linearGradient>
      </defs>
      <path d="  M10.7355,39.7462 L10.7355,0.6615 L33.4342,13.8135 L33.4342,52.8990 L10.7355,39.7462 Z" style="stroke-width: 0.3750; stroke-linecap: butt; stroke-linejoin: miter; fill-rule: evenodd; fill: url(#grad9); "/>
      <path d="  M10.7355,39.7462 L10.7355,0.6615 L33.4342,13.8135 L33.4342,52.8990 L10.7355,39.7462 Z" style="stroke-width: 0.3750; stroke: #fdf8c0; stroke-dasharray: none; stroke-linecap: butt; stroke-linejoin: miter; fill: none; "/>
    </g>
    <g xmlns="http://www.w3.org/2000/svg" xmlns:xlink="http://www.w3.org/1999/xlink" id="Layer1002">
      <defs>
        <linearGradient id="grad10">
          <stop offset="0%" stop-color="#e0d794" stop-opacity="1.0000"/>
          <stop offset="100%" stop-color="#ffffff" stop-opacity="1.0000"/>
        </linearGradient>
        <linearGradient xlink:href="#grad10" id="grad11" x1="0" y1="0" x2="0" y2="1" gradientTransform="rotate(90 .5 .5)" gradientUnits="objectBoundingBox">
  </linearGradient>
      </defs>
      <path d="  M10.3853,39.9195 L10.3853,0.8355 L33.0862,13.9882 L33.0862,53.0722 L10.3853,39.9195 Z" style="stroke-width: 0.3750; stroke-linecap: butt; stroke-linejoin: miter; fill-rule: evenodd; fill: url(#grad11); "/>
      <path d="  M10.3853,39.9195 L10.3853,0.8355 L33.0862,13.9882 L33.0862,53.0722 L10.3853,39.9195 Z" style="stroke-width: 0.3750; stroke: #fdf8c0; stroke-dasharray: none; stroke-linecap: butt; stroke-linejoin: miter; fill: none; "/>
    </g>
    <g xmlns="http://www.w3.org/2000/svg" xmlns:xlink="http://www.w3.org/1999/xlink" id="Layer1003">
      <defs>
        <linearGradient id="grad12">
          <stop offset="0%" stop-color="#e0d794" stop-opacity="1.0000"/>
          <stop offset="100%" stop-color="#ffffff" stop-opacity="1.0000"/>
        </linearGradient>
        <linearGradient xlink:href="#grad12" id="grad13" x1="0" y1="0" x2="0" y2="1" gradientTransform="rotate(90 .5 .5)" gradientUnits="objectBoundingBox">
  </linearGradient>
      </defs>
      <path d="  M10.0425,40.1130 L10.0425,1.0275 L32.7405,14.1810 L32.7405,53.2657 L10.0425,40.1130 Z" style="stroke-width: 0.3750; stroke-linecap: butt; stroke-linejoin: miter; fill-rule: evenodd; fill: url(#grad13); "/>
      <path d="  M10.0425,40.1130 L10.0425,1.0275 L32.7405,14.1810 L32.7405,53.2657 L10.0425,40.1130 Z" style="stroke-width: 0.3750; stroke: #fdf8c0; stroke-dasharray: none; stroke-linecap: butt; stroke-linejoin: miter; fill: none; "/>
    </g>
    <g xmlns="http://www.w3.org/2000/svg" xmlns:xlink="http://www.w3.org/1999/xlink" id="Layer1004">
      <defs>
        <linearGradient id="grad14">
          <stop offset="0%" stop-color="#e0d794" stop-opacity="1.0000"/>
          <stop offset="100%" stop-color="#ffffff" stop-opacity="1.0000"/>
        </linearGradient>
        <linearGradient xlink:href="#grad14" id="grad15" x1="0" y1="0" x2="0" y2="1" gradientTransform="rotate(90 .5 .5)" gradientUnits="objectBoundingBox">
  </linearGradient>
      </defs>
      <path d="  M9.6952,40.3387 L9.6952,1.2532 L32.3947,14.4060 L32.3947,53.4915 L9.6952,40.3387 Z" style="stroke-width: 0.3750; stroke-linecap: butt; stroke-linejoin: miter; fill-rule: evenodd; fill: url(#grad15); "/>
      <path d="  M9.6952,40.3387 L9.6952,1.2532 L32.3947,14.4060 L32.3947,53.4915 L9.6952,40.3387 Z" style="stroke-width: 0.3750; stroke: #fdf8c0; stroke-dasharray: none; stroke-linecap: butt; stroke-linejoin: miter; fill: none; "/>
    </g>
    <g xmlns="http://www.w3.org/2000/svg" xmlns:xlink="http://www.w3.org/1999/xlink" id="Layer1005">
      <defs>
        <linearGradient id="grad16">
          <stop offset="0%" stop-color="#e0d794" stop-opacity="1.0000"/>
          <stop offset="100%" stop-color="#ffffff" stop-opacity="1.0000"/>
        </linearGradient>
        <linearGradient xlink:href="#grad16" id="grad17" x1="0" y1="0" x2="0" y2="1" gradientTransform="rotate(90 .5 .5)" gradientUnits="objectBoundingBox">
  </linearGradient>
      </defs>
      <path d="  M9.3585,40.5427 L9.3585,1.4580 L32.0573,14.6108 L32.0573,53.6955 L9.3585,40.5427 Z" style="stroke-width: 0.3750; stroke-linecap: butt; stroke-linejoin: miter; fill-rule: evenodd; fill: url(#grad17); "/>
      <path d="  M9.3585,40.5427 L9.3585,1.4580 L32.0573,14.6108 L32.0573,53.6955 L9.3585,40.5427 Z" style="stroke-width: 0.3750; stroke: #fdf8c0; stroke-dasharray: none; stroke-linecap: butt; stroke-linejoin: miter; fill: none; "/>
    </g>
    <g xmlns="http://www.w3.org/2000/svg" xmlns:xlink="http://www.w3.org/1999/xlink" id="Layer1006">
      <defs>
        <linearGradient id="grad18">
          <stop offset="0%" stop-color="#e0d794" stop-opacity="1.0000"/>
          <stop offset="100%" stop-color="#ffffff" stop-opacity="1.0000"/>
        </linearGradient>
        <linearGradient xlink:href="#grad18" id="grad19" x1="0" y1="0" x2="0" y2="1" gradientTransform="rotate(90 .5 .5)" gradientUnits="objectBoundingBox">
  </linearGradient>
      </defs>
      <path d="  M9.0270,40.7468 L9.0270,1.6620 L31.7265,14.8148 L31.7265,53.8995 L9.0270,40.7468 Z" style="stroke-width: 0.3750; stroke-linecap: butt; stroke-linejoin: miter; fill-rule: evenodd; fill: url(#grad19); "/>
      <path d="  M9.0270,40.7468 L9.0270,1.6620 L31.7265,14.8148 L31.7265,53.8995 L9.0270,40.7468 Z" style="stroke-width: 0.3750; stroke: #fdf8c0; stroke-dasharray: none; stroke-linecap: butt; stroke-linejoin: miter; fill: none; "/>
    </g>
    <g xmlns="http://www.w3.org/2000/svg" xmlns:xlink="http://www.w3.org/1999/xlink" id="Layer1007">
      <defs>
        <linearGradient id="grad20">
          <stop offset="0%" stop-color="#e0d794" stop-opacity="1.0000"/>
          <stop offset="100%" stop-color="#ffffff" stop-opacity="1.0000"/>
        </linearGradient>
        <linearGradient xlink:href="#grad20" id="grad21" x1="0" y1="0" x2="0" y2="1" gradientTransform="rotate(90 .5 .5)" gradientUnits="objectBoundingBox">
  </linearGradient>
      </defs>
      <path d="  M8.7068,40.9860 L8.7068,1.8570 L31.4055,15.0098 L31.4055,54.1388 L8.7068,40.9860 Z" style="stroke-width: 0.3750; stroke-linecap: butt; stroke-linejoin: miter; fill-rule: evenodd; fill: url(#grad21); "/>
      <path d="  M8.7068,40.9860 L8.7068,1.8570 L31.4055,15.0098 L31.4055,54.1388 L8.7068,40.9860 Z" style="stroke-width: 0.3750; stroke: #fdf8c0; stroke-dasharray: none; stroke-linecap: butt; stroke-linejoin: miter; fill: none; "/>
    </g>
    <g xmlns="http://www.w3.org/2000/svg" xmlns:xlink="http://www.w3.org/1999/xlink" id="Layer1008">
      <defs>
        <linearGradient id="grad22">
          <stop offset="0%" stop-color="#e0d794" stop-opacity="1.0000"/>
          <stop offset="100%" stop-color="#ffffff" stop-opacity="1.0000"/>
        </linearGradient>
        <linearGradient xlink:href="#grad22" id="grad23" x1="0" y1="0" x2="0" y2="1" gradientTransform="rotate(90 .5 .5)" gradientUnits="objectBoundingBox">
  </linearGradient>
      </defs>
      <path d="  M8.3595,41.1495 L8.3595,2.0648 L31.0583,15.2175 L31.0583,54.3030 L8.3595,41.1495 Z" style="stroke-width: 0.3750; stroke-linecap: butt; stroke-linejoin: miter; fill-rule: evenodd; fill: url(#grad23); "/>
      <path d="  M8.3595,41.1495 L8.3595,2.0648 L31.0583,15.2175 L31.0583,54.3030 L8.3595,41.1495 Z" style="stroke-width: 0.3750; stroke: #fdf8c0; stroke-dasharray: none; stroke-linecap: butt; stroke-linejoin: miter; fill: none; "/>
    </g>
    <g xmlns="http://www.w3.org/2000/svg" xmlns:xlink="http://www.w3.org/1999/xlink" id="Layer1009">
      <defs>
        <linearGradient id="grad24">
          <stop offset="0%" stop-color="#e0d794" stop-opacity="1.0000"/>
          <stop offset="100%" stop-color="#ffffff" stop-opacity="1.0000"/>
        </linearGradient>
        <linearGradient xlink:href="#grad24" id="grad25" x1="0" y1="0" x2="0" y2="1" gradientTransform="rotate(90 .5 .5)" gradientUnits="objectBoundingBox">
  </linearGradient>
      </defs>
      <path d="  M8.0228,41.3535 L8.0228,2.2680 L30.7215,15.4215 L30.7215,54.5070 L8.0228,41.3535 Z" style="stroke-width: 0.3750; stroke-linecap: butt; stroke-linejoin: miter; fill-rule: evenodd; fill: url(#grad25); "/>
      <path d="  M8.0228,41.3535 L8.0228,2.2680 L30.7215,15.4215 L30.7215,54.5070 L8.0228,41.3535 Z" style="stroke-width: 0.3750; stroke: #fdf8c0; stroke-dasharray: none; stroke-linecap: butt; stroke-linejoin: miter; fill: none; "/>
    </g>
    <g xmlns="http://www.w3.org/2000/svg" xmlns:xlink="http://www.w3.org/1999/xlink" id="Layer1010">
      <defs>
        <linearGradient id="grad26">
          <stop offset="0%" stop-color="#e0d794" stop-opacity="1.0000"/>
          <stop offset="100%" stop-color="#ffffff" stop-opacity="1.0000"/>
        </linearGradient>
        <linearGradient xlink:href="#grad26" id="grad27" x1="0" y1="0" x2="0" y2="1" gradientTransform="rotate(90 .5 .5)" gradientUnits="objectBoundingBox">
  </linearGradient>
      </defs>
      <path d="  M7.6755,41.5282 L7.6755,2.4427 L30.3742,15.5955 L30.3742,54.6802 L7.6755,41.5282 Z" style="stroke-width: 0.3750; stroke-linecap: butt; stroke-linejoin: miter; fill-rule: evenodd; fill: url(#grad27); "/>
      <path d="  M7.6755,41.5282 L7.6755,2.4427 L30.3742,15.5955 L30.3742,54.6802 L7.6755,41.5282 Z" style="stroke-width: 0.3750; stroke: #fdf8c0; stroke-dasharray: none; stroke-linecap: butt; stroke-linejoin: miter; fill: none; "/>
    </g>
    <g xmlns="http://www.w3.org/2000/svg" xmlns:xlink="http://www.w3.org/1999/xlink" id="Layer1011">
      <defs>
        <linearGradient id="grad28">
          <stop offset="0%" stop-color="#e0d794" stop-opacity="1.0000"/>
          <stop offset="100%" stop-color="#ffffff" stop-opacity="1.0000"/>
        </linearGradient>
        <linearGradient xlink:href="#grad28" id="grad29" x1="0" y1="0" x2="0" y2="1" gradientTransform="rotate(90 .5 .5)" gradientUnits="objectBoundingBox">
  </linearGradient>
      </defs>
      <path d="  M7.3298,41.7202 L7.3298,2.6355 L30.0285,15.7890 L30.0285,54.8730 L7.3298,41.7202 Z" style="stroke-width: 0.3750; stroke-linecap: butt; stroke-linejoin: miter; fill-rule: evenodd; fill: url(#grad29); "/>
      <path d="  M7.3298,41.7202 L7.3298,2.6355 L30.0285,15.7890 L30.0285,54.8730 L7.3298,41.7202 Z" style="stroke-width: 0.3750; stroke: #fdf8c0; stroke-dasharray: none; stroke-linecap: butt; stroke-linejoin: miter; fill: none; "/>
    </g>
    <g xmlns="http://www.w3.org/2000/svg" xmlns:xlink="http://www.w3.org/1999/xlink" id="Layer1012">
      <defs>
        <linearGradient id="grad30">
          <stop offset="0%" stop-color="#e0d794" stop-opacity="1.0000"/>
          <stop offset="100%" stop-color="#ffffff" stop-opacity="1.0000"/>
        </linearGradient>
        <linearGradient xlink:href="#grad30" id="grad31" x1="0" y1="0" x2="0" y2="1" gradientTransform="rotate(90 .5 .5)" gradientUnits="objectBoundingBox">
  </linearGradient>
      </defs>
      <path d="  M7.0088,41.9205 L7.0088,2.8358 L29.7068,15.9885 L29.7068,55.0732 L7.0088,41.9205 Z" style="stroke-width: 0.3750; stroke-linecap: butt; stroke-linejoin: miter; fill-rule: evenodd; fill: url(#grad31); "/>
      <path d="  M7.0088,41.9205 L7.0088,2.8358 L29.7068,15.9885 L29.7068,55.0732 L7.0088,41.9205 Z" style="stroke-width: 0.3750; stroke: #fdf8c0; stroke-dasharray: none; stroke-linecap: butt; stroke-linejoin: miter; fill: none; "/>
    </g>
    <g xmlns="http://www.w3.org/2000/svg" xmlns:xlink="http://www.w3.org/1999/xlink" id="Layer1013">
      <defs>
        <linearGradient id="grad32">
          <stop offset="0%" stop-color="#e0d794" stop-opacity="1.0000"/>
          <stop offset="100%" stop-color="#ffffff" stop-opacity="1.0000"/>
        </linearGradient>
        <linearGradient xlink:href="#grad32" id="grad33" x1="0" y1="0" x2="0" y2="1" gradientTransform="rotate(90 .5 .5)" gradientUnits="objectBoundingBox">
  </linearGradient>
      </defs>
      <path d="  M6.6810,42.1417 L6.6810,3.0570 L29.3783,16.2097 L29.3783,55.2945 L6.6810,42.1417 Z" style="stroke-width: 0.3750; stroke-linecap: butt; stroke-linejoin: miter; fill-rule: evenodd; fill: url(#grad33); "/>
      <path d="  M6.6810,42.1417 L6.6810,3.0570 L29.3783,16.2097 L29.3783,55.2945 L6.6810,42.1417 Z" style="stroke-width: 0.3750; stroke: #fdf8c0; stroke-dasharray: none; stroke-linecap: butt; stroke-linejoin: miter; fill: none; "/>
    </g>
    <g xmlns="http://www.w3.org/2000/svg" xmlns:xlink="http://www.w3.org/1999/xlink" id="Layer1014">
      <defs>
        <linearGradient id="grad34">
          <stop offset="0%" stop-color="#e0d794" stop-opacity="1.0000"/>
          <stop offset="100%" stop-color="#ffffff" stop-opacity="1.0000"/>
        </linearGradient>
        <linearGradient xlink:href="#grad34" id="grad35" x1="0" y1="0" x2="0" y2="1" gradientTransform="rotate(90 .5 .5)" gradientUnits="objectBoundingBox">
  </linearGradient>
      </defs>
      <path d="  M6.3420,42.3855 L6.3367,3.2505 L29.0355,16.4032 L29.0415,55.5382 L6.3420,42.3855 Z" style="stroke-width: 0.3750; stroke-linecap: butt; stroke-linejoin: miter; fill-rule: evenodd; fill: url(#grad35); "/>
      <path d="  M6.3420,42.3855 L6.3367,3.2505 L29.0355,16.4032 L29.0415,55.5382 L6.3420,42.3855 Z" style="stroke-width: 0.3750; stroke: #fdf8c0; stroke-dasharray: none; stroke-linecap: butt; stroke-linejoin: miter; fill: none; "/>
    </g>
    <g xmlns="http://www.w3.org/2000/svg" xmlns:xlink="http://www.w3.org/1999/xlink" id="Layer1015">
      <defs>
        <linearGradient id="grad36">
          <stop offset="0%" stop-color="#e0d794" stop-opacity="1.0000"/>
          <stop offset="100%" stop-color="#ffffff" stop-opacity="1.0000"/>
        </linearGradient>
        <linearGradient xlink:href="#grad36" id="grad37" x1="0" y1="0" x2="0" y2="1" gradientTransform="rotate(90 .5 .5)" gradientUnits="objectBoundingBox">
  </linearGradient>
      </defs>
      <path d="  M5.9850,42.5490 L5.9850,3.4635 L28.6852,16.6170 L28.6852,55.7017 L5.9850,42.5490 Z" style="stroke-width: 0.3750; stroke-linecap: butt; stroke-linejoin: miter; fill-rule: evenodd; fill: url(#grad37); "/>
      <path d="  M5.9850,42.5490 L5.9850,3.4635 L28.6852,16.6170 L28.6852,55.7017 L5.9850,42.5490 Z" style="stroke-width: 0.3750; stroke: #fdf8c0; stroke-dasharray: none; stroke-linecap: butt; stroke-linejoin: miter; fill: none; "/>
    </g>
    <g xmlns="http://www.w3.org/2000/svg" xmlns:xlink="http://www.w3.org/1999/xlink" id="Layer1016">
      <defs>
        <linearGradient id="grad38">
          <stop offset="0%" stop-color="#e0d794" stop-opacity="1.0000"/>
          <stop offset="100%" stop-color="#ffffff" stop-opacity="1.0000"/>
        </linearGradient>
        <linearGradient xlink:href="#grad38" id="grad39" x1="0" y1="0" x2="0" y2="1" gradientTransform="rotate(90 .5 .5)" gradientUnits="objectBoundingBox">
  </linearGradient>
      </defs>
      <path d="  M5.6505,42.7500 L5.6505,3.6645 L28.3500,16.8180 L28.3500,55.9027 L5.6505,42.7500 Z" style="stroke-width: 0.3750; stroke-linecap: butt; stroke-linejoin: miter; fill-rule: evenodd; fill: url(#grad39); "/>
      <path d="  M5.6505,42.7500 L5.6505,3.6645 L28.3500,16.8180 L28.3500,55.9027 L5.6505,42.7500 Z" style="stroke-width: 0.3750; stroke: #fdf8c0; stroke-dasharray: none; stroke-linecap: butt; stroke-linejoin: miter; fill: none; "/>
    </g>
    <g xmlns="http://www.w3.org/2000/svg" xmlns:xlink="http://www.w3.org/1999/xlink" id="Layer1017">
      <defs>
        <linearGradient id="grad40">
          <stop offset="0%" stop-color="#e0d794" stop-opacity="1.0000"/>
          <stop offset="100%" stop-color="#ffffff" stop-opacity="1.0000"/>
        </linearGradient>
        <linearGradient xlink:href="#grad40" id="grad41" x1="0" y1="0" x2="0" y2="1" gradientTransform="rotate(90 .5 .5)" gradientUnits="objectBoundingBox">
  </linearGradient>
      </defs>
      <path d="  M5.3137,42.9547 L5.3137,3.8685 L28.0132,17.0220 L28.0132,56.1060 L5.3137,42.9547 Z" style="stroke-width: 0.3750; stroke-linecap: butt; stroke-linejoin: miter; fill-rule: evenodd; fill: url(#grad41); "/>
      <path d="  M5.3137,42.9547 L5.3137,3.8685 L28.0132,17.0220 L28.0132,56.1060 L5.3137,42.9547 Z" style="stroke-width: 0.3750; stroke: #fdf8c0; stroke-dasharray: none; stroke-linecap: butt; stroke-linejoin: miter; fill: none; "/>
    </g>
    <g xmlns="http://www.w3.org/2000/svg" xmlns:xlink="http://www.w3.org/1999/xlink" id="Layer1018">
      <defs>
        <linearGradient id="grad42">
          <stop offset="0%" stop-color="#e0d794" stop-opacity="1.0000"/>
          <stop offset="100%" stop-color="#ffffff" stop-opacity="1.0000"/>
        </linearGradient>
        <linearGradient xlink:href="#grad42" id="grad43" x1="0" y1="0" x2="0" y2="1" gradientTransform="rotate(90 .5 .5)" gradientUnits="objectBoundingBox">
  </linearGradient>
      </defs>
      <path d="  M4.9650,43.1280 L4.9650,4.0425 L27.6645,17.1960 L27.6645,56.2807 L4.9650,43.1280 Z" style="stroke-width: 0.3750; stroke-linecap: butt; stroke-linejoin: miter; fill-rule: evenodd; fill: url(#grad43); "/>
      <path d="  M4.9650,43.1280 L4.9650,4.0425 L27.6645,17.1960 L27.6645,56.2807 L4.9650,43.1280 Z" style="stroke-width: 0.3750; stroke: #fdf8c0; stroke-dasharray: none; stroke-linecap: butt; stroke-linejoin: miter; fill: none; "/>
    </g>
    <g xmlns="http://www.w3.org/2000/svg" xmlns:xlink="http://www.w3.org/1999/xlink" id="Layer1019">
      <defs>
        <linearGradient id="grad44">
          <stop offset="0%" stop-color="#e0d794" stop-opacity="1.0000"/>
          <stop offset="100%" stop-color="#ffffff" stop-opacity="1.0000"/>
        </linearGradient>
        <linearGradient xlink:href="#grad44" id="grad45" x1="0" y1="0" x2="0" y2="1" gradientTransform="rotate(90 .5 .5)" gradientUnits="objectBoundingBox">
  </linearGradient>
      </defs>
      <path d="  M4.6207,43.3208 L4.6207,4.2360 L27.3202,17.3888 L27.3202,56.4743 L4.6207,43.3208 Z" style="stroke-width: 0.3750; stroke-linecap: butt; stroke-linejoin: miter; fill-rule: evenodd; fill: url(#grad45); "/>
      <path d="  M4.6207,43.3208 L4.6207,4.2360 L27.3202,17.3888 L27.3202,56.4743 L4.6207,43.3208 Z" style="stroke-width: 0.3750; stroke: #fdf8c0; stroke-dasharray: none; stroke-linecap: butt; stroke-linejoin: miter; fill: none; "/>
    </g>
    <g xmlns="http://www.w3.org/2000/svg" xmlns:xlink="http://www.w3.org/1999/xlink" id="Layer1020">
      <defs>
        <linearGradient id="grad46">
          <stop offset="0%" stop-color="#e0d794" stop-opacity="1.0000"/>
          <stop offset="100%" stop-color="#ffffff" stop-opacity="1.0000"/>
        </linearGradient>
        <linearGradient xlink:href="#grad46" id="grad47" x1="0" y1="0" x2="0" y2="1" gradientTransform="rotate(90 .5 .5)" gradientUnits="objectBoundingBox">
  </linearGradient>
      </defs>
      <path d="  M4.2742,43.5465 L4.2742,4.4610 L26.9730,17.6145 L26.9730,56.6992 L4.2742,43.5465 Z" style="stroke-width: 0.3750; stroke-linecap: butt; stroke-linejoin: miter; fill-rule: evenodd; fill: url(#grad47); "/>
      <path d="  M4.2742,43.5465 L4.2742,4.4610 L26.9730,17.6145 L26.9730,56.6992 L4.2742,43.5465 Z" style="stroke-width: 0.3750; stroke: #fdf8c0; stroke-dasharray: none; stroke-linecap: butt; stroke-linejoin: miter; fill: none; "/>
    </g>
    <g xmlns="http://www.w3.org/2000/svg" xmlns:xlink="http://www.w3.org/1999/xlink" id="Layer1021">
      <defs>
        <linearGradient id="grad48">
          <stop offset="0%" stop-color="#e0d794" stop-opacity="1.0000"/>
          <stop offset="100%" stop-color="#ffffff" stop-opacity="1.0000"/>
        </linearGradient>
        <linearGradient xlink:href="#grad48" id="grad49" x1="0" y1="0" x2="0" y2="1" gradientTransform="rotate(90 .5 .5)" gradientUnits="objectBoundingBox">
  </linearGradient>
      </defs>
      <path d="  M3.9367,43.7505 L3.9367,4.6657 L26.6363,17.8192 L26.6363,56.9040 L3.9367,43.7505 Z" style="stroke-width: 0.3750; stroke-linecap: butt; stroke-linejoin: miter; fill-rule: evenodd; fill: url(#grad49); "/>
      <path d="  M3.9367,43.7505 L3.9367,4.6657 L26.6363,17.8192 L26.6363,56.9040 L3.9367,43.7505 Z" style="stroke-width: 0.3750; stroke: #fdf8c0; stroke-dasharray: none; stroke-linecap: butt; stroke-linejoin: miter; fill: none; "/>
    </g>
    <g xmlns="http://www.w3.org/2000/svg" xmlns:xlink="http://www.w3.org/1999/xlink" id="Layer1022">
      <defs>
        <linearGradient id="grad50">
          <stop offset="0%" stop-color="#e0d794" stop-opacity="1.0000"/>
          <stop offset="100%" stop-color="#ffffff" stop-opacity="1.0000"/>
        </linearGradient>
        <linearGradient xlink:href="#grad50" id="grad51" x1="0" y1="0" x2="0" y2="1" gradientTransform="rotate(90 .5 .5)" gradientUnits="objectBoundingBox">
  </linearGradient>
      </defs>
      <path d="  M3.6075,43.9455 L3.6075,4.8600 L26.3063,18.0128 L26.3063,57.0983 L3.6075,43.9455 Z" style="stroke-width: 0.3750; stroke-linecap: butt; stroke-linejoin: miter; fill-rule: evenodd; fill: url(#grad51); "/>
      <path d="  M3.6075,43.9455 L3.6075,4.8600 L26.3063,18.0128 L26.3063,57.0983 L3.6075,43.9455 Z" style="stroke-width: 0.3750; stroke: #fdf8c0; stroke-dasharray: none; stroke-linecap: butt; stroke-linejoin: miter; fill: none; "/>
    </g>
    <g xmlns="http://www.w3.org/2000/svg" xmlns:xlink="http://www.w3.org/1999/xlink" id="Layer1023">
      <defs>
        <linearGradient id="grad52">
          <stop offset="0%" stop-color="#e0d794" stop-opacity="1.0000"/>
          <stop offset="100%" stop-color="#ffffff" stop-opacity="1.0000"/>
        </linearGradient>
        <linearGradient xlink:href="#grad52" id="grad53" x1="0" y1="0" x2="0" y2="1" gradientTransform="rotate(90 .5 .5)" gradientUnits="objectBoundingBox">
  </linearGradient>
      </defs>
      <path d="  M3.2633,44.1383 L3.2633,5.0528 L25.9620,18.2063 L25.9620,57.2910 L3.2633,44.1383 Z" style="stroke-width: 0.3750; stroke-linecap: butt; stroke-linejoin: miter; fill-rule: evenodd; fill: url(#grad53); "/>
      <path d="  M3.2633,44.1383 L3.2633,5.0528 L25.9620,18.2063 L25.9620,57.2910 L3.2633,44.1383 Z" style="stroke-width: 0.3750; stroke: #fdf8c0; stroke-dasharray: none; stroke-linecap: butt; stroke-linejoin: miter; fill: none; "/>
    </g>
    <g xmlns="http://www.w3.org/2000/svg" xmlns:xlink="http://www.w3.org/1999/xlink" id="Layer1024">
      <defs>
        <linearGradient id="grad54">
          <stop offset="0%" stop-color="#e0d794" stop-opacity="1.0000"/>
          <stop offset="100%" stop-color="#ffffff" stop-opacity="1.0000"/>
        </linearGradient>
        <linearGradient xlink:href="#grad54" id="grad55" x1="0" y1="0" x2="0" y2="1" gradientTransform="rotate(90 .5 .5)" gradientUnits="objectBoundingBox">
  </linearGradient>
      </defs>
      <path d="  M2.9160,44.3633 L2.9160,5.2785 L25.6155,18.4313 L25.6155,57.5168 L2.9160,44.3633 Z" style="stroke-width: 0.3750; stroke-linecap: butt; stroke-linejoin: miter; fill-rule: evenodd; fill: url(#grad55); "/>
      <path d="  M2.9160,44.3633 L2.9160,5.2785 L25.6155,18.4313 L25.6155,57.5168 L2.9160,44.3633 Z" style="stroke-width: 0.3750; stroke: #fdf8c0; stroke-dasharray: none; stroke-linecap: butt; stroke-linejoin: miter; fill: none; "/>
    </g>
    <g xmlns="http://www.w3.org/2000/svg" xmlns:xlink="http://www.w3.org/1999/xlink" id="Layer1025">
      <defs>
        <linearGradient id="grad56">
          <stop offset="0%" stop-color="#e0d794" stop-opacity="1.0000"/>
          <stop offset="100%" stop-color="#ffffff" stop-opacity="1.0000"/>
        </linearGradient>
        <linearGradient xlink:href="#grad56" id="grad57" x1="0" y1="0" x2="0" y2="1" gradientTransform="rotate(90 .5 .5)" gradientUnits="objectBoundingBox">
  </linearGradient>
      </defs>
      <path d="  M2.5792,44.5680 L2.5792,5.4825 L25.2780,18.6352 L25.2780,57.7207 L2.5792,44.5680 Z" style="stroke-width: 0.3750; stroke-linecap: butt; stroke-linejoin: miter; fill-rule: evenodd; fill: url(#grad57); "/>
      <path d="  M2.5792,44.5680 L2.5792,5.4825 L25.2780,18.6352 L25.2780,57.7207 L2.5792,44.5680 Z" style="stroke-width: 0.3750; stroke: #fdf8c0; stroke-dasharray: none; stroke-linecap: butt; stroke-linejoin: miter; fill: none; "/>
    </g>
    <g xmlns="http://www.w3.org/2000/svg" xmlns:xlink="http://www.w3.org/1999/xlink" id="Layer1026">
      <defs>
        <linearGradient id="grad58">
          <stop offset="0%" stop-color="#e0d794" stop-opacity="1.0000"/>
          <stop offset="100%" stop-color="#ffffff" stop-opacity="1.0000"/>
        </linearGradient>
        <linearGradient xlink:href="#grad58" id="grad59" x1="0" y1="0" x2="0" y2="1" gradientTransform="rotate(90 .5 .5)" gradientUnits="objectBoundingBox">
  </linearGradient>
      </defs>
      <path d="  M2.2747,44.7945 L2.2747,5.7097 L24.9750,18.8632 L24.9750,57.9472 L2.2747,44.7945 Z" style="stroke-width: 0.3750; stroke-linecap: butt; stroke-linejoin: miter; fill-rule: evenodd; fill: url(#grad59); "/>
      <path d="  M2.2747,44.7945 L2.2747,5.7097 L24.9750,18.8632 L24.9750,57.9472 L2.2747,44.7945 Z" style="stroke-width: 0.3750; stroke: #fdf8c0; stroke-dasharray: none; stroke-linecap: butt; stroke-linejoin: miter; fill: none; "/>
    </g>
    <g xmlns="http://www.w3.org/2000/svg" xmlns:xlink="http://www.w3.org/1999/xlink" id="Layer1027">
      <defs>
        <linearGradient id="grad60">
          <stop offset="0%" stop-color="#e0d794" stop-opacity="1.0000"/>
          <stop offset="100%" stop-color="#ffffff" stop-opacity="1.0000"/>
        </linearGradient>
        <linearGradient xlink:href="#grad60" id="grad61" x1="0" y1="0" x2="0" y2="1" gradientTransform="rotate(90 .5 .5)" gradientUnits="objectBoundingBox">
  </linearGradient>
      </defs>
      <path d="  M1.9313,45.0045 L1.9313,5.9190 L24.6293,19.0718 L24.6293,58.1573 L1.9313,45.0045 Z" style="stroke-width: 0.3750; stroke-linecap: butt; stroke-linejoin: miter; fill-rule: evenodd; fill: url(#grad61); "/>
      <path d="  M1.9313,45.0045 L1.9313,5.9190 L24.6293,19.0718 L24.6293,58.1573 L1.9313,45.0045 Z" style="stroke-width: 0.3750; stroke: #fdf8c0; stroke-dasharray: none; stroke-linecap: butt; stroke-linejoin: miter; fill: none; "/>
    </g>
    <g xmlns="http://www.w3.org/2000/svg" xmlns:xlink="http://www.w3.org/1999/xlink" id="Layer1028">
      <defs>
        <linearGradient id="grad62">
          <stop offset="0%" stop-color="#e0d794" stop-opacity="1.0000"/>
          <stop offset="100%" stop-color="#ffffff" stop-opacity="1.0000"/>
        </linearGradient>
        <linearGradient xlink:href="#grad62" id="grad63" x1="0" y1="0" x2="0" y2="1" gradientTransform="rotate(90 .5 .5)" gradientUnits="objectBoundingBox">
  </linearGradient>
      </defs>
      <path d="  M1.5848,45.1673 L1.5848,6.0833 L24.2820,19.2360 L24.2820,58.3207 L1.5848,45.1673 Z" style="stroke-width: 0.3750; stroke-linecap: butt; stroke-linejoin: miter; fill-rule: evenodd; fill: url(#grad63); "/>
      <path d="  M1.5848,45.1673 L1.5848,6.0833 L24.2820,19.2360 L24.2820,58.3207 L1.5848,45.1673 Z" style="stroke-width: 0.3750; stroke: #fdf8c0; stroke-dasharray: none; stroke-linecap: butt; stroke-linejoin: miter; fill: none; "/>
    </g>
    <g xmlns="http://www.w3.org/2000/svg" xmlns:xlink="http://www.w3.org/1999/xlink" id="Layer1029">
      <defs>
        <linearGradient id="grad64">
          <stop offset="0%" stop-color="#e0d794" stop-opacity="1.0000"/>
          <stop offset="100%" stop-color="#ffffff" stop-opacity="1.0000"/>
        </linearGradient>
        <linearGradient xlink:href="#grad64" id="grad65" x1="0" y1="0" x2="0" y2="1" gradientTransform="rotate(90 .5 .5)" gradientUnits="objectBoundingBox">
  </linearGradient>
      </defs>
      <path d="  M1.2472,45.3720 L1.2472,6.2865 L23.9452,19.4392 L23.9452,58.5247 L1.2472,45.3720 Z" style="stroke-width: 0.3750; stroke-linecap: butt; stroke-linejoin: miter; fill-rule: evenodd; fill: url(#grad65); "/>
      <path d="  M1.2472,45.3720 L1.2472,6.2865 L23.9452,19.4392 L23.9452,58.5247 L1.2472,45.3720 Z" style="stroke-width: 0.3750; stroke: #fdf8c0; stroke-dasharray: none; stroke-linecap: butt; stroke-linejoin: miter; fill: none; "/>
    </g>
    <g xmlns="http://www.w3.org/2000/svg" xmlns:xlink="http://www.w3.org/1999/xlink" id="Layer1030">
      <defs>
        <linearGradient id="grad66">
          <stop offset="0%" stop-color="#e0d794" stop-opacity="1.0000"/>
          <stop offset="100%" stop-color="#ffffff" stop-opacity="1.0000"/>
        </linearGradient>
        <linearGradient xlink:href="#grad66" id="grad67" x1="0" y1="0" x2="0" y2="1" gradientTransform="rotate(90 .5 .5)" gradientUnits="objectBoundingBox">
  </linearGradient>
      </defs>
      <path d="  M0.8993,45.5452 L0.8993,6.4605 L23.5980,19.6140 L23.5980,58.6980 L0.8993,45.5452 Z" style="stroke-width: 0.3750; stroke-linecap: butt; stroke-linejoin: miter; fill-rule: evenodd; fill: url(#grad67); "/>
      <path d="  M0.8993,45.5452 L0.8993,6.4605 L23.5980,19.6140 L23.5980,58.6980 L0.8993,45.5452 Z" style="stroke-width: 0.3750; stroke: #fdf8c0; stroke-dasharray: none; stroke-linecap: butt; stroke-linejoin: miter; fill: none; "/>
    </g>
    <g xmlns="http://www.w3.org/2000/svg" xmlns:xlink="http://www.w3.org/1999/xlink" id="Layer1031">
      <defs>
        <linearGradient id="grad68">
          <stop offset="0%" stop-color="#e0d794" stop-opacity="1.0000"/>
          <stop offset="100%" stop-color="#ffffff" stop-opacity="1.0000"/>
        </linearGradient>
        <linearGradient xlink:href="#grad68" id="grad69" x1="0" y1="0" x2="0" y2="1" gradientTransform="rotate(90 .5 .5)" gradientUnits="objectBoundingBox">
  </linearGradient>
      </defs>
      <path d="  M0.5707,45.6075 L0.5535,6.6532 L23.2522,19.8060 L23.2522,58.8907 L0.5707,45.6075 Z" style="stroke-width: 0.3750; stroke-linecap: butt; stroke-linejoin: miter; fill-rule: evenodd; fill: url(#grad69); "/>
      <path d="  M0.5707,45.6075 L0.5535,6.6532 L23.2522,19.8060 L23.2522,58.8907 L0.5707,45.6075 Z" style="stroke-width: 0.3750; stroke: #fdf8c0; stroke-dasharray: none; stroke-linecap: butt; stroke-linejoin: miter; fill: none; "/>
    </g>
    <path xmlns="http://www.w3.org/2000/svg" d="  M24.4508,22.7092 L22.9665,23.5665 L22.9665,20.5965 L24.4508,19.7400 L24.4508,22.7092 Z" style="fill-rule: evenodd; fill: #7f7f7f; fill-opacity: 0.4980; "/>
    <path xmlns="http://www.w3.org/2000/svg" d="  M25.9185,27.5918 L24.4342,28.4490 L24.4342,25.4798 L25.9185,24.6225 L25.9185,27.5918 Z" style="fill-rule: evenodd; fill: #7f7f7f; fill-opacity: 0.4980; "/>
    <path xmlns="http://www.w3.org/2000/svg" d="  M27.4553,32.5282 L25.9710,33.3847 L25.9710,30.4162 L27.4553,29.5590 L27.4553,32.5282 Z" style="fill-rule: evenodd; fill: #7f7f7f; fill-opacity: 0.4980; "/>
    <path xmlns="http://www.w3.org/2000/svg" d="  M29.0062,37.4827 L27.5227,38.3407 L27.5227,35.3707 L29.0062,34.5142 L29.0062,37.4827 Z" style="fill-rule: evenodd; fill: #7f7f7f; fill-opacity: 0.4980; "/>
    <path xmlns="http://www.w3.org/2000/svg" d="  M30.5843,42.4650 L29.0985,43.3222 L29.0985,40.3530 L30.5843,39.4965 L30.5843,42.4650 Z" style="fill-rule: evenodd; fill: #7f7f7f; fill-opacity: 0.4980; "/>
    <path xmlns="http://www.w3.org/2000/svg" d="  M32.1075,47.2807 L30.6218,48.1372 L30.6218,45.1680 L32.1075,44.3115 L32.1075,47.2807 Z" style="fill-rule: evenodd; fill: #7f7f7f; fill-opacity: 0.4980; "/>
    <path xmlns="http://www.w3.org/2000/svg" d="  M33.5970,52.0230 L32.1120,52.8810 L32.1120,49.9118 L33.5970,49.0538 L33.5970,52.0230 Z" style="fill-rule: evenodd; fill: #7f7f7f; fill-opacity: 0.4980; "/>
    <g xmlns="http://www.w3.org/2000/svg" id="Layer1032">
      <defs>
        <linearGradient id="grad70">
          <stop offset="0%" stop-color="#e0d794" stop-opacity="1.0000"/>
          <stop offset="100%" stop-color="#fdf8c0" stop-opacity="1.0000"/>
        </linearGradient>
      </defs>
      <path d="  M0.4065,45.2782 L0.2077,6.8790 L22.9065,20.0317 L22.9065,59.1165 L0.4065,45.2782 Z" style="stroke-width: 0.3750; stroke-linecap: butt; stroke-linejoin: miter; fill-rule: evenodd; fill: url(#grad70); "/>
      <path d="  M0.4065,45.2782 L0.2077,6.8790 L22.9065,20.0317 L22.9065,59.1165 L0.4065,45.2782 Z" style="stroke-width: 0.3750; stroke: #fdf8c0; stroke-dasharray: none; stroke-linecap: butt; stroke-linejoin: miter; fill: none; "/>
    </g>
    <g xmlns="http://www.w3.org/2000/svg" id="Layer1033">
      <path d="  M0.5895,45.5520 L0.4620,7.2728 C0.4620,7.2728 15.2010,15.1418 18.6712,21.3510 L18.7620,59.3415 C17.2117,56.2365 0.5895,45.5520 0.5895,45.5520 Z" style="stroke-width: 0.3750; stroke-linecap: butt; stroke-linejoin: miter; fill-rule: evenodd; fill: #fdf8c0; "/>
      <path d="  M0.5895,45.5520 L0.4620,7.2728 C0.4620,7.2728 15.2010,15.1418 18.6712,21.3510 L18.7620,59.3415 C17.2117,56.2365 0.5895,45.5520 0.5895,45.5520 Z" style="stroke-width: 0.3750; stroke: #fdf8c0; stroke-dasharray: none; stroke-linecap: butt; stroke-linejoin: miter; fill: none; "/>
    </g>
    <defs xmlns="http://www.w3.org/2000/svg" xmlns:xlink="http://www.w3.org/1999/xlink">
      <linearGradient id="grad71">
        <stop offset="0%" stop-color="#ffffff" stop-opacity="0.2314"/>
        <stop offset="100%" stop-color="#fdf8c0" stop-opacity="0.2314"/>
      </linearGradient>
      <linearGradient xlink:href="#grad71" id="grad72" x1="0" y1="0" x2="0" y2="1" gradientTransform="rotate(180 .5 .5)" gradientUnits="objectBoundingBox">
  </linearGradient>
    </defs>
    <path xmlns="http://www.w3.org/2000/svg" d="  M0.7013,6.7192 L23.3565,19.6013 L33.7642,13.4453 L11.1720,0.4365 L0.4373,6.8183 L0.7013,6.7192 Z" style="fill-rule: evenodd; fill: url(#grad72); "/>
    <defs xmlns="http://www.w3.org/2000/svg" xmlns:xlink="http://www.w3.org/1999/xlink">
      <linearGradient id="grad73">
        <stop offset="0%" stop-color="#cabe81" stop-opacity="0.3490"/>
        <stop offset="100%" stop-color="#fdf8c0" stop-opacity="0.3490"/>
      </linearGradient>
      <linearGradient xlink:href="#grad73" id="grad74" x1="0" y1="0" x2="0" y2="1" gradientTransform="rotate(315 .5 .5)" gradientUnits="objectBoundingBox">
  </linearGradient>
    </defs>
    <path xmlns="http://www.w3.org/2000/svg" d="  M33.7643,13.4452 L22.9065,20.0317 L23.2523,58.8907 L33.7718,52.6950 L33.7643,13.4452 Z" style="fill-rule: evenodd; fill: url(#grad74); "/>
    <defs xmlns="http://www.w3.org/2000/svg" xmlns:xlink="http://www.w3.org/1999/xlink">
      <linearGradient id="grad75">
        <stop offset="0%" stop-color="#d1b23d" stop-opacity="1.0000"/>
        <stop offset="100%" stop-color="#eedf80" stop-opacity="1.0000"/>
      </linearGradient>
      <linearGradient xlink:href="#grad75" id="grad76" x1="0" y1="0" x2="0" y2="1" gradientTransform="rotate(90 .5 .5)" gradientUnits="objectBoundingBox">
  </linearGradient>
    </defs>
    <path xmlns="http://www.w3.org/2000/svg" d="  M16.3170,59.9573 C16.3620,59.9258 16.4063,59.8950 16.4513,59.8635 C16.4063,59.8950 16.3620,59.9258 16.3170,59.9573 Z M0.4793,45.1560 C5.5065,47.9430 11.0910,52.6965 16.1190,59.4165 C16.1190,46.2045 16.1190,32.9925 16.1190,19.7797 C11.0910,13.7685 5.5065,9.7245 0.4793,7.6470 C0.4793,20.1495 0.4793,32.6527 0.4793,45.1560 Z M0.0848,45.4890 C0.0848,32.6025 0.0848,19.7160 0.0848,6.8303 C5.3445,8.9655 11.2553,13.2802 16.5143,19.7730 C16.5143,33.1950 16.5143,46.6170 16.5143,60.0383 C16.5143,60.1920 16.5143,60.3457 16.5143,60.4995 C11.2545,53.3175 5.3445,48.3143 0.0848,45.4890 Z" style="fill-rule: evenodd; fill: url(#grad76); "/>
    <defs xmlns="http://www.w3.org/2000/svg" xmlns:xlink="http://www.w3.org/1999/xlink">
      <linearGradient id="grad77">
        <stop offset="0%" stop-color="#d1b23d" stop-opacity="1.0000"/>
        <stop offset="100%" stop-color="#eedf80" stop-opacity="1.0000"/>
      </linearGradient>
      <linearGradient xlink:href="#grad77" id="grad78" x1="0" y1="0" x2="0" y2="1" gradientTransform="rotate(90 .5 .5)" gradientUnits="objectBoundingBox">
  </linearGradient>
    </defs>
    <path xmlns="http://www.w3.org/2000/svg" d="  M16.3418,60.0990 C11.1923,53.0700 5.4083,48.1710 0.2603,45.4005 C0.2678,32.6423 0.2753,19.8848 0.2828,7.1280 C5.4323,9.1988 11.2163,13.3988 16.3643,19.7280 C16.3575,33.1845 16.3500,46.6418 16.3418,60.0990 Z" style="fill-rule: evenodd; fill: url(#grad78); "/>
    <defs xmlns="http://www.w3.org/2000/svg" xmlns:xlink="http://www.w3.org/1999/xlink">
      <linearGradient id="grad79">
        <stop offset="0%" stop-color="#fdf8c0" stop-opacity="1.0000"/>
        <stop offset="100%" stop-color="#ffffff" stop-opacity="1.0000"/>
      </linearGradient>
      <linearGradient xlink:href="#grad79" id="grad80" x1="0" y1="0" x2="0" y2="1" gradientTransform="rotate(90 .5 .5)" gradientUnits="objectBoundingBox">
  </linearGradient>
    </defs>
    <path xmlns="http://www.w3.org/2000/svg" d="  M0.2985,12.4357 C0.2985,12.4357 10.9493,17.6550 16.1760,26.1765 L16.1760,32.3497 C16.1760,32.3497 9.9405,22.6095 0.2985,17.1975 C0.2708,17.1817 0.2985,12.4357 0.2985,12.4357 Z" style="fill-rule: evenodd; fill: url(#grad80); "/>
    <defs xmlns="http://www.w3.org/2000/svg" xmlns:xlink="http://www.w3.org/1999/xlink">
      <linearGradient id="grad81">
        <stop offset="0%" stop-color="#615a30" stop-opacity="1.0000"/>
        <stop offset="100%" stop-color="#cabe81" stop-opacity="1.0000"/>
      </linearGradient>
      <linearGradient xlink:href="#grad81" id="grad82" x1="0" y1="0" x2="0" y2="1" gradientTransform="rotate(90 .5 .5)" gradientUnits="objectBoundingBox">
  </linearGradient>
    </defs>
    <path xmlns="http://www.w3.org/2000/svg" d="  M16.2007,59.7390 L16.2300,52.4955 C16.2300,52.4955 12.2062,46.1648 0.2295,39.6285 C0.2077,39.6150 0.2767,45.3420 0.2767,45.3420 C0.2767,45.3420 9.1545,49.8278 16.2007,59.7390 Z" style="fill-rule: evenodd; fill: url(#grad82); "/>
    <defs xmlns="http://www.w3.org/2000/svg" xmlns:xlink="http://www.w3.org/1999/xlink">
      <linearGradient id="grad83">
        <stop offset="0%" stop-color="#615a30" stop-opacity="1.0000"/>
        <stop offset="100%" stop-color="#cabe81" stop-opacity="1.0000"/>
      </linearGradient>
      <linearGradient xlink:href="#grad83" id="grad84" x1="0" y1="0" x2="0" y2="1" gradientTransform="rotate(90 .5 .5)" gradientUnits="objectBoundingBox">
  </linearGradient>
    </defs>
    <path xmlns="http://www.w3.org/2000/svg" d="  M0.3585,7.5098 C0.3585,7.5098 7.7385,9.6375 16.1917,20.1698 L16.1917,26.3453 C16.1917,26.3453 10.2562,17.2980 0.3600,12.4613 C0.3540,12.4590 0.3585,7.5098 0.3585,7.5098 Z" style="fill-rule: evenodd; fill: url(#grad84); "/>
    <!--converted by libvisio2svg-->
  </g>
</svg>
