<svg xmlns="http://www.w3.org/2000/svg" xmlns:xlink="http://www.w3.org/1999/xlink" version="1.1" width="0.7964000000" height="0.8389000000" viewBox="0 0 57.3375 60.4035">
  <title><![CDATA[Application Sharing Server]]></title>
  <g transform=" scale(1.000000) ">
    <path xmlns="http://www.w3.org/2000/svg" d="  M38.0497,54.0937 C38.1712,52.6440 38.3520,50.9565 38.7735,49.8720 C39.4852,48.0435 41.3010,46.8765 43.2067,46.2427 C41.5972,45.0975 40.4902,42.7102 40.4902,39.9495 C40.4902,38.4502 40.6065,37.0942 40.9860,35.9813 C40.6702,35.5905 40.4925,35.1555 40.4925,34.6980 C40.4925,33.0142 42.8715,31.6492 45.8040,31.6492 C46.2217,31.6492 46.6275,31.6770 47.0167,31.7295 C49.0050,31.9057 50.0205,32.5905 50.4720,32.9100 C51.9900,33.9780 52.8727,37.3072 51.6990,40.4678 C51.7110,40.3290 51.6315,40.9927 51.3105,41.5605 C50.8575,42.3585 50.1682,42.8437 49.6485,42.7725 C49.6988,43.1145 50.1480,45.5820 50.3213,46.4940 C52.3605,47.3385 54.1965,48.5670 54.7440,48.9675 C57.3360,50.8590 57.3330,55.5518 57.3330,55.6897 C57.3330,58.2930 53.6573,60.4020 49.1227,60.4020 C46.8547,60.4020 44.8395,60.0675 43.3530,59.2125 C42.7380,58.8585 42.0187,58.4407 41.3363,58.0365 L41.3303,58.0327 C40.9643,57.8152 40.6065,57.6015 40.2832,57.4050 C38.8973,56.5613 38.0475,55.4243 38.0475,54.1732 C38.0483,54.1485 38.0497,54.1208 38.0497,54.0937 Z" style="stroke-width: 1.5000; stroke: #8d98b5; stroke-dasharray: none; stroke-linecap: butt; stroke-linejoin: miter; fill: none; "/>
    <path xmlns="http://www.w3.org/2000/svg" d="  M22.7857,49.0065 C22.9065,47.5560 23.0873,45.8685 23.5095,44.7840 C24.2212,42.9555 26.0362,41.7885 27.9435,41.1547 C26.3332,40.0095 25.2255,37.6222 25.2255,34.8615 C25.2255,33.3630 25.3425,32.0062 25.7220,30.8933 C25.4063,30.5025 25.2285,30.0675 25.2285,29.6100 C25.2285,27.9262 27.6068,26.5612 30.5400,26.5612 C30.9578,26.5612 31.3627,26.5890 31.7528,26.6415 C33.7410,26.8185 34.7558,27.5025 35.2080,27.8220 C36.7260,28.8900 37.6088,32.2192 36.4343,35.3798 C36.4463,35.2410 36.3675,35.9047 36.0457,36.4725 C35.5935,37.2713 34.9043,37.7557 34.3845,37.6852 C34.4332,38.0265 34.8840,40.4940 35.0572,41.4060 C37.0965,42.2505 38.9325,43.4798 39.4793,43.8795 C42.0727,45.7710 42.0690,50.4638 42.0690,50.6017 C42.0690,53.2050 38.3925,55.3140 33.8580,55.3140 C31.5900,55.3140 29.5740,54.9795 28.0890,54.1245 C27.4740,53.7712 26.7555,53.3528 26.0723,52.9485 L26.0670,52.9455 L26.0670,52.9447 C25.6995,52.7272 25.3425,52.5135 25.0193,52.3170 C23.6340,51.4733 22.7842,50.3363 22.7842,49.0852 C22.7842,49.0605 22.7857,49.0320 22.7857,49.0065 Z" style="stroke-width: 1.5000; stroke: #8d98b5; stroke-dasharray: none; stroke-linecap: butt; stroke-linejoin: miter; fill: none; "/>
    <path xmlns="http://www.w3.org/2000/svg" d="  M37.1610,7.0215 L25.4798,0.0000 L0.0000,14.6468 L0.0000,51.3232 L0.5640,51.6548 C2.0790,53.5905 5.2178,55.4377 8.6805,56.4202 L13.1940,59.0700 L37.1610,45.3045 L37.1610,42.5947 L37.1595,42.5610 L36.6397,42.3142 L37.1610,42.0150 L37.1610,39.8115 L37.1595,39.7762 L36.6397,39.5303 L37.1610,39.2303 L37.1610,37.0268 L37.1595,36.9930 L36.6757,36.7635 L37.1603,36.4860 L37.1603,7.0560 L37.1603,7.0215 L37.1610,7.0215 Z" style="stroke-width: 1.5000; stroke: #8d98b5; stroke-dasharray: none; stroke-linecap: butt; stroke-linejoin: miter; fill: none; "/>
    <path xmlns="http://www.w3.org/2000/svg" d="  M22.5848,45.4043 L37.1595,36.9945 L36.6765,36.7650 L22.5848,44.8110 L22.5848,45.4043 Z" style="fill-rule: evenodd; fill: #3f3f3f; "/>
    <path xmlns="http://www.w3.org/2000/svg" d="  M22.5848,48.1867 L37.1595,39.7777 L36.6398,39.5310 L22.5848,47.5942 L22.5848,48.1867 Z" style="fill-rule: evenodd; fill: #3f3f3f; "/>
    <path xmlns="http://www.w3.org/2000/svg" d="  M22.5848,50.9707 L37.1595,42.5617 L36.6398,42.3150 L22.5848,50.3782 L22.5848,50.9707 Z" style="fill-rule: evenodd; fill: #3f3f3f; "/>
    <defs xmlns="http://www.w3.org/2000/svg" xmlns:xlink="http://www.w3.org/1999/xlink">
      <linearGradient id="grad187">
        <stop offset="0%" stop-color="#646c6b" stop-opacity="1.0000"/>
        <stop offset="100%" stop-color="#dae1e1" stop-opacity="1.0000"/>
      </linearGradient>
      <linearGradient xlink:href="#grad187" id="grad188" x1="0" y1="0" x2="0" y2="1" gradientTransform="rotate(90 .5 .5)" gradientUnits="objectBoundingBox">
  </linearGradient>
    </defs>
    <path xmlns="http://www.w3.org/2000/svg" d="  M13.1940,21.0622 L0.0000,14.6467 L0.0000,51.3233 L0.5640,51.6548 C0.4425,51.4988 0.3300,51.3420 0.2295,51.1853 L0.2295,35.2290 L0.2295,31.6702 L0.2295,24.0555 L0.2295,16.3762 L12.1567,22.2728 C12.1567,22.2728 12.2025,22.2772 12.2250,22.2802 L12.2250,30.0112 L12.2250,37.5727 L12.2250,41.3550 L12.2250,57.0892 C11.0407,56.9835 9.8422,56.7502 8.6805,56.4210 L13.1940,59.0707 L13.1940,21.0622 Z" style="fill-rule: evenodd; fill: url(#grad188); "/>
    <defs xmlns="http://www.w3.org/2000/svg" xmlns:xlink="http://www.w3.org/1999/xlink">
      <linearGradient id="grad189">
        <stop offset="0%" stop-color="#85919c" stop-opacity="0.9882"/>
        <stop offset="100%" stop-color="#dadfe1" stop-opacity="0.9882"/>
      </linearGradient>
      <linearGradient xlink:href="#grad189" id="grad190" x1="0" y1="0" x2="0" y2="1" gradientTransform="rotate(90 .5 .5)" gradientUnits="objectBoundingBox">
  </linearGradient>
    </defs>
    <path xmlns="http://www.w3.org/2000/svg" d="  M11.7210,41.3483 C11.7210,41.4075 11.6512,41.4570 11.5605,41.4570 C11.5530,41.4570 11.5365,41.4577 11.5365,41.4577 C7.9762,41.5102 3.3323,39.8918 0.7088,35.8793 C0.5303,35.6618 0.3683,35.4450 0.2295,35.2290 L0.2295,51.1852 C0.3308,51.3420 0.4425,51.4987 0.5640,51.6547 C2.0790,53.5905 5.2177,55.4377 8.6805,56.4202 C9.8422,56.7487 11.0400,56.9827 12.2250,57.0885 L12.2250,41.3550 C12.0525,41.3392 11.8778,41.3198 11.7037,41.2988 C11.7142,41.3137 11.7210,41.3310 11.7210,41.3483 Z M11.3655,55.1085 C11.1720,55.7190 10.1625,55.9447 9.1110,55.6125 C8.0595,55.2787 7.3643,54.5130 7.5570,53.9025 C7.7513,53.2920 8.7600,53.0655 9.8123,53.3992 C10.8630,53.7315 11.5582,54.4980 11.3655,55.1085 Z M11.5605,52.6612 C11.5530,52.6612 11.5365,52.6620 11.5365,52.6620 C7.8443,52.7175 2.9843,50.9745 0.4230,46.6253 C0.2370,46.3193 0.4583,46.3470 0.4583,46.3470 C2.0798,49.0897 6.8595,51.9682 11.4727,52.4325 C11.4938,52.4347 11.5598,52.4392 11.5688,52.4392 C11.6588,52.4392 11.7218,52.4940 11.7218,52.5525 C11.7210,52.6125 11.6520,52.6612 11.5605,52.6612 Z M11.5605,48.9270 C11.5530,48.9270 11.5365,48.9270 11.5365,48.9270 C7.8443,48.9825 2.9843,47.2395 0.4230,42.8902 C0.2370,42.5843 0.4583,42.6128 0.4583,42.6128 C2.0798,45.3547 6.8595,48.2340 11.4727,48.6975 C11.4938,48.6997 11.5598,48.7043 11.5688,48.7043 C11.6588,48.7043 11.7218,48.7590 11.7218,48.8182 C11.7210,48.8767 11.6520,48.9270 11.5605,48.9270 Z M11.5605,45.1913 C11.5530,45.1913 11.5365,45.1928 11.5365,45.1928 C7.8443,45.2468 2.9843,43.5053 0.4230,39.1560 C0.2370,38.8492 0.4583,38.8778 0.4583,38.8778 C2.0798,41.6198 6.8595,44.4983 11.4727,44.9625 C11.4938,44.9647 11.5598,44.9685 11.5688,44.9685 C11.6588,44.9685 11.7218,45.0240 11.7218,45.0825 C11.7218,45.1410 11.6520,45.1913 11.5605,45.1913 Z" style="fill-rule: evenodd; fill: url(#grad190); "/>
    <defs xmlns="http://www.w3.org/2000/svg" xmlns:xlink="http://www.w3.org/1999/xlink">
      <linearGradient id="grad191">
        <stop offset="0%" stop-color="#85919c" stop-opacity="0.9882"/>
        <stop offset="100%" stop-color="#dadfe1" stop-opacity="0.9882"/>
      </linearGradient>
      <linearGradient xlink:href="#grad191" id="grad192" x1="0" y1="0" x2="0" y2="1" gradientTransform="rotate(90 .5 .5)" gradientUnits="objectBoundingBox">
  </linearGradient>
    </defs>
    <path xmlns="http://www.w3.org/2000/svg" d="  M11.4720,30.0232 C11.4930,30.0255 11.5590,30.0307 11.5680,30.0307 C11.6580,30.0307 11.7210,30.0847 11.7210,30.1440 C11.7210,30.2032 11.6512,30.2520 11.5605,30.2520 C11.5530,30.2520 11.5365,30.2520 11.5365,30.2520 C8.0265,30.3060 3.4643,28.7332 0.8228,24.8430 C0.5955,24.5820 0.3975,24.3195 0.2295,24.0555 L0.2295,31.6702 C0.4950,32.0857 0.8408,32.5005 1.2533,32.9062 C0.9563,32.5245 0.6780,32.1180 0.4230,31.6860 C0.2370,31.3792 0.4583,31.4077 0.4583,31.4077 C1.5675,33.2820 4.1513,35.2200 7.1490,36.4072 C8.5612,36.9247 10.0650,37.3087 11.5627,37.4992 C11.5642,37.4992 11.5672,37.4992 11.5687,37.4992 C11.5755,37.4992 11.5822,37.5015 11.5890,37.5030 C11.7780,37.5262 11.9685,37.5480 12.1575,37.5660 C12.1800,37.5682 12.2032,37.5712 12.2257,37.5727 L12.2257,30.0112 C9.5625,29.7712 6.8348,28.8862 4.5997,27.6922 C6.6225,28.8840 9.0697,29.7810 11.4720,30.0232 Z M11.5605,33.9870 C11.5530,33.9870 11.5365,33.9885 11.5365,33.9885 C7.8443,34.0425 2.9843,32.3010 0.4230,27.9517 C0.2370,27.6450 0.4583,27.6735 0.4583,27.6735 C2.0798,30.4147 6.8595,33.2940 11.4727,33.7575 C11.4937,33.7605 11.5597,33.7642 11.5687,33.7642 C11.6587,33.7642 11.7217,33.8197 11.7217,33.8782 C11.7217,33.9367 11.6520,33.9870 11.5605,33.9870 Z" style="fill-rule: evenodd; fill: url(#grad192); "/>
    <defs xmlns="http://www.w3.org/2000/svg" xmlns:xlink="http://www.w3.org/1999/xlink">
      <linearGradient id="grad193">
        <stop offset="0%" stop-color="#c8d8dd" stop-opacity="0.9882"/>
        <stop offset="100%" stop-color="#f3f9f7" stop-opacity="0.9882"/>
      </linearGradient>
      <linearGradient xlink:href="#grad193" id="grad194" x1="0" y1="0" x2="0" y2="1" gradientTransform="rotate(90 .5 .5)" gradientUnits="objectBoundingBox">
  </linearGradient>
    </defs>
    <path xmlns="http://www.w3.org/2000/svg" d="  M12.1567,37.5660 C11.9677,37.5480 11.7772,37.5262 11.5882,37.5030 C11.6662,37.5105 11.7210,37.5592 11.7210,37.6132 C11.7210,37.6717 11.6512,37.7220 11.5605,37.7220 C11.5530,37.7220 11.5365,37.7220 11.5365,37.7220 C8.2110,37.7715 3.9398,36.3622 1.2533,32.9062 C0.8408,32.5005 0.4950,32.0850 0.2295,31.6702 L0.2295,35.2290 C0.3683,35.4450 0.5295,35.6617 0.7088,35.8792 C0.6113,35.7285 0.5145,35.5777 0.4230,35.4210 C0.2370,35.1142 0.4583,35.1427 0.4583,35.1427 C1.4273,36.7822 3.5273,38.4705 6.0435,39.6615 C7.2473,40.2330 8.5485,40.6882 9.8662,40.9717 C10.4010,41.0865 10.9380,41.1742 11.4727,41.2275 C11.4937,41.2290 11.5597,41.2350 11.5687,41.2350 C11.6317,41.2350 11.6797,41.2627 11.7045,41.2987 C11.8785,41.3197 12.0532,41.3392 12.2257,41.3550 L12.2257,37.5727 C12.2025,37.5712 12.1800,37.5682 12.1567,37.5660 Z" style="fill-rule: evenodd; fill: url(#grad194); "/>
    <defs xmlns="http://www.w3.org/2000/svg" xmlns:xlink="http://www.w3.org/1999/xlink">
      <linearGradient id="grad195">
        <stop offset="0%" stop-color="#bdd1dd" stop-opacity="0.9882"/>
        <stop offset="100%" stop-color="#f3f9f7" stop-opacity="0.9882"/>
      </linearGradient>
      <linearGradient xlink:href="#grad195" id="grad196" x1="0" y1="0" x2="0" y2="1" gradientTransform="rotate(90 .5 .5)" gradientUnits="objectBoundingBox">
  </linearGradient>
    </defs>
    <path xmlns="http://www.w3.org/2000/svg" d="  M12.1568,22.2735 L0.2295,16.3762 L0.2295,24.0547 C0.3975,24.3187 0.5955,24.5813 0.8228,24.8423 C0.6840,24.6390 0.5498,24.4328 0.4230,24.2167 C0.2370,23.9092 0.4583,23.9377 0.4583,23.9377 C1.2353,25.2518 2.7383,26.5965 4.5990,27.6923 C6.8333,28.8863 9.5618,29.7705 12.2250,30.0113 L12.2250,22.2802 C12.2025,22.2780 12.1568,22.2735 12.1568,22.2735 Z M0.6345,17.3978 L11.8627,22.9477 C6.2940,26.0258 0.8468,21.0622 0.6345,17.3978 Z" style="fill-rule: evenodd; fill: url(#grad196); "/>
    <path xmlns="http://www.w3.org/2000/svg" d="  M11.5680,52.4392 C11.5590,52.4392 11.4930,52.4347 11.4720,52.4325 C6.8595,51.9682 2.0797,49.0897 0.4575,46.3470 C0.4575,46.3470 0.2362,46.3192 0.4222,46.6252 C2.9835,50.9745 7.8443,52.7175 11.5358,52.6620 C11.5358,52.6620 11.5523,52.6612 11.5598,52.6612 C11.6505,52.6612 11.7203,52.6125 11.7203,52.5525 C11.7210,52.4947 11.6580,52.4392 11.5680,52.4392 Z" style="fill-rule: evenodd; fill: #000000; "/>
    <path xmlns="http://www.w3.org/2000/svg" d="  M11.5680,48.7042 C11.5590,48.7042 11.4930,48.6997 11.4720,48.6975 C6.8595,48.2340 2.0797,45.3547 0.4575,42.6127 C0.4575,42.6127 0.2362,42.5842 0.4222,42.8902 C2.9835,47.2395 7.8443,48.9825 11.5358,48.9270 C11.5358,48.9270 11.5523,48.9270 11.5598,48.9270 C11.6505,48.9270 11.7203,48.8775 11.7203,48.8182 C11.7210,48.7590 11.6580,48.7042 11.5680,48.7042 Z" style="fill-rule: evenodd; fill: #000000; "/>
    <path xmlns="http://www.w3.org/2000/svg" d="  M11.5680,44.9685 C11.5590,44.9685 11.4930,44.9647 11.4720,44.9625 C6.8595,44.4982 2.0797,41.6197 0.4575,38.8777 C0.4575,38.8777 0.2362,38.8492 0.4222,39.1560 C2.9835,43.5052 7.8443,45.2467 11.5358,45.1927 C11.5358,45.1927 11.5523,45.1912 11.5598,45.1912 C11.6505,45.1912 11.7203,45.1417 11.7203,45.0825 C11.7203,45.0232 11.6580,44.9685 11.5680,44.9685 Z" style="fill-rule: evenodd; fill: #000000; "/>
    <path xmlns="http://www.w3.org/2000/svg" d="  M11.7038,41.2987 C11.0903,41.2237 10.4760,41.1135 9.8662,40.9717 C8.5485,40.6882 7.2480,40.2330 6.0435,39.6615 C3.5272,38.4697 1.4272,36.7815 0.4582,35.1427 C0.4582,35.1427 0.2370,35.1142 0.4230,35.4210 C0.5145,35.5777 0.6112,35.7285 0.7087,35.8792 C3.3323,39.8917 7.9763,41.5102 11.5373,41.4577 C11.5373,41.4577 11.5538,41.4570 11.5613,41.4570 C11.6520,41.4570 11.7218,41.4082 11.7218,41.3482 C11.7210,41.3310 11.7143,41.3137 11.7038,41.2987 Z" style="fill-rule: evenodd; fill: #000000; "/>
    <path xmlns="http://www.w3.org/2000/svg" d="  M11.5890,37.5030 C11.5800,37.5015 11.5710,37.5000 11.5628,37.4992 C11.5485,37.4992 11.4923,37.4947 11.4728,37.4925 C10.0140,37.3462 8.5373,36.9562 7.1490,36.4072 C4.1513,35.2200 1.5675,33.2820 0.4582,31.4077 C0.4582,31.4077 0.2370,31.3792 0.4230,31.6860 C0.6787,32.1180 0.9562,32.5245 1.2532,32.9062 C3.9397,36.3622 8.2110,37.7715 11.5365,37.7220 C11.5365,37.7220 11.5530,37.7220 11.5605,37.7220 C11.6513,37.7220 11.7210,37.6725 11.7210,37.6132 C11.7210,37.5600 11.6663,37.5105 11.5890,37.5030 Z" style="fill-rule: evenodd; fill: #000000; "/>
    <path xmlns="http://www.w3.org/2000/svg" d="  M11.5680,30.0300 C11.5590,30.0300 11.4930,30.0247 11.4720,30.0225 C9.0698,29.7810 6.6225,28.8832 4.5990,27.6922 C2.7382,26.5965 1.2352,25.2517 0.4582,23.9377 C0.4582,23.9377 0.2370,23.9092 0.4230,24.2167 C0.5497,24.4327 0.6847,24.6390 0.8227,24.8422 C3.4642,28.7325 8.0265,30.3052 11.5365,30.2512 C11.5365,30.2512 11.5530,30.2512 11.5605,30.2512 C11.6513,30.2512 11.7210,30.2032 11.7210,30.1432 C11.7210,30.0832 11.6580,30.0300 11.5680,30.0300 Z" style="fill-rule: evenodd; fill: #000000; "/>
    <path xmlns="http://www.w3.org/2000/svg" d="  M11.5680,33.7642 C11.5590,33.7642 11.4930,33.7605 11.4720,33.7575 C6.8595,33.2940 2.0797,30.4147 0.4575,27.6735 C0.4575,27.6735 0.2362,27.6450 0.4222,27.9517 C2.9835,32.3010 7.8443,34.0425 11.5358,33.9885 C11.5358,33.9885 11.5523,33.9870 11.5598,33.9870 C11.6505,33.9870 11.7203,33.9375 11.7203,33.8782 C11.7203,33.8190 11.6580,33.7642 11.5680,33.7642 Z" style="fill-rule: evenodd; fill: #000000; "/>
    <defs xmlns="http://www.w3.org/2000/svg">
      <linearGradient id="grad197">
        <stop offset="0%" stop-color="#646c6b" stop-opacity="1.0000"/>
        <stop offset="100%" stop-color="#dae1e1" stop-opacity="1.0000"/>
      </linearGradient>
    </defs>
    <path xmlns="http://www.w3.org/2000/svg" d="  M9.8115,53.3993 C8.7600,53.0655 7.7505,53.2913 7.5563,53.9025 C7.3635,54.5130 8.0588,55.2788 9.1103,55.6125 C10.1610,55.9447 11.1713,55.7198 11.3648,55.1085 C11.5583,54.4973 10.8630,53.7315 9.8115,53.3993 Z M10.6058,55.4437 C10.2150,55.8113 9.5400,55.7280 9.0975,55.2570 C8.9550,55.1055 8.8545,54.9315 8.7960,54.7538 C8.7578,54.6375 8.7398,54.5205 8.7383,54.4057 C8.7345,54.1515 8.8223,53.9115 9.0038,53.7398 C9.3945,53.3730 10.0695,53.4555 10.5120,53.9258 C10.9545,54.3960 10.9958,55.0762 10.6058,55.4437 Z" style="fill-rule: evenodd; fill: url(#grad197); "/>
    <path xmlns="http://www.w3.org/2000/svg" d="  M9.0037,53.7405 C8.8222,53.9123 8.7345,54.1523 8.7382,54.4065 C8.7457,54.2258 8.8132,54.0570 8.9437,53.9340 C9.0487,53.8343 9.1807,53.7788 9.3232,53.7623 C9.6052,53.6918 9.9390,53.7900 10.1782,54.0435 C10.5037,54.3878 10.5300,54.8918 10.2442,55.1813 C10.2247,55.2060 10.2045,55.2285 10.1820,55.2503 C9.8797,55.5353 9.3577,55.4708 9.0165,55.1063 C8.9152,54.9990 8.8432,54.8790 8.7960,54.7545 C8.8545,54.9323 8.9550,55.1063 9.0975,55.2578 C9.5400,55.7288 10.2142,55.8120 10.6057,55.4445 C10.9965,55.0770 10.9545,54.3975 10.5120,53.9273 C10.0695,53.4570 9.3945,53.3738 9.0037,53.7405 Z" style="fill-rule: evenodd; fill: #000000; "/>
    <defs xmlns="http://www.w3.org/2000/svg">
      <radialGradient id="grad198" cx="50.0000%" cy="50.0000%" r="100.0000%">
        <stop offset="0%" stop-color="#ccff66" stop-opacity="1.0000"/>
        <stop offset="100%" stop-color="#7ab04a" stop-opacity="1.0000"/>
      </radialGradient>
    </defs>
    <path xmlns="http://www.w3.org/2000/svg" d="  M10.1820,55.2495 C10.2045,55.2285 10.2247,55.2052 10.2442,55.1805 C10.5300,54.8910 10.5037,54.3870 10.1782,54.0428 C9.9397,53.7893 9.6052,53.6910 9.3232,53.7615 C9.1815,53.7773 9.0487,53.8335 8.9437,53.9333 C8.8125,54.0563 8.7450,54.2250 8.7382,54.4057 C8.7397,54.5205 8.7577,54.6375 8.7960,54.7538 C8.8432,54.8782 8.9152,54.9982 9.0165,55.1055 C9.3577,55.4700 9.8790,55.5345 10.1820,55.2495 Z" style="fill-rule: evenodd; fill: url(#grad198); "/>
    <defs xmlns="http://www.w3.org/2000/svg" xmlns:xlink="http://www.w3.org/1999/xlink">
      <linearGradient id="grad199">
        <stop offset="0%" stop-color="#7f8787" stop-opacity="1.0000"/>
        <stop offset="100%" stop-color="#f3f9f7" stop-opacity="1.0000"/>
      </linearGradient>
      <linearGradient xlink:href="#grad199" id="grad200" x1="0" y1="0" x2="0" y2="1" gradientTransform="rotate(315 .5 .5)" gradientUnits="objectBoundingBox">
  </linearGradient>
    </defs>
    <path xmlns="http://www.w3.org/2000/svg" d="  M0.6345,17.3977 C0.8468,21.0630 6.2940,26.0257 11.8628,22.9477 L0.6345,17.3977 Z M2.7863,18.6022 L9.9645,22.1197 C6.3353,23.9212 2.8793,20.8342 2.7863,18.6022 Z" style="fill-rule: evenodd; fill: url(#grad200); "/>
    <defs xmlns="http://www.w3.org/2000/svg">
      <radialGradient id="grad201" cx="50.0000%" cy="50.0000%" r="100.0000%">
        <stop offset="0%" stop-color="#a7e968" stop-opacity="1.0000"/>
        <stop offset="100%" stop-color="#000000" stop-opacity="1.0000"/>
      </radialGradient>
    </defs>
    <path xmlns="http://www.w3.org/2000/svg" d="  M2.7862,18.6022 C2.8792,20.8343 6.3345,23.9213 9.9645,22.1198 L2.7862,18.6022 Z" style="fill-rule: evenodd; fill: url(#grad201); "/>
    <defs xmlns="http://www.w3.org/2000/svg" xmlns:xlink="http://www.w3.org/1999/xlink">
      <linearGradient id="grad202">
        <stop offset="0%" stop-color="#7f8787" stop-opacity="1.0000"/>
        <stop offset="100%" stop-color="#dae1e1" stop-opacity="1.0000"/>
      </linearGradient>
      <linearGradient xlink:href="#grad202" id="grad203" x1="0" y1="0" x2="0" y2="1" gradientTransform="rotate(45 .5 .5)" gradientUnits="objectBoundingBox">
  </linearGradient>
    </defs>
    <path xmlns="http://www.w3.org/2000/svg" d="  M13.2247,21.0315 L13.2037,21.0225 L13.2037,58.8278 L37.1610,45.3060 L37.1610,42.5955 L22.5847,50.9708 L22.5847,50.3783 L36.6397,42.3150 L37.1610,42.0157 L37.1610,39.8123 L22.5847,48.1867 L22.5847,47.5943 L36.6397,39.5310 L37.1610,39.2310 L37.1610,37.0283 L22.5847,45.4042 L22.5847,44.8110 L36.6765,36.7650 L37.1610,36.4875 L37.1610,7.0560 L33.9457,8.9040 L13.2247,21.0315 Z" style="fill-rule: evenodd; fill: url(#grad203); "/>
    <defs xmlns="http://www.w3.org/2000/svg" xmlns:xlink="http://www.w3.org/1999/xlink">
      <linearGradient id="grad204">
        <stop offset="0%" stop-color="#7f8787" stop-opacity="1.0000"/>
        <stop offset="100%" stop-color="#f3f9f7" stop-opacity="1.0000"/>
      </linearGradient>
      <linearGradient xlink:href="#grad204" id="grad205" x1="0" y1="0" x2="0" y2="1" gradientTransform="rotate(90 .5 .5)" gradientUnits="objectBoundingBox">
  </linearGradient>
    </defs>
    <path xmlns="http://www.w3.org/2000/svg" d="  M25.4798,0.0000 L0.1230,14.6378 L13.2037,21.0225 L37.1610,7.0215 L25.4798,0.0000 Z" style="fill-rule: evenodd; fill: url(#grad205); "/>
    <defs xmlns="http://www.w3.org/2000/svg">
      <radialGradient id="grad206" cx="50.0000%" cy="50.0000%" r="100.0000%">
        <stop offset="0%" stop-color="#a6d6f5" stop-opacity="1.0000"/>
        <stop offset="100%" stop-color="#6c90b4" stop-opacity="1.0000"/>
      </radialGradient>
    </defs>
    <path xmlns="http://www.w3.org/2000/svg" d="  M42.0705,50.6025 C42.0705,50.4645 42.0743,45.7725 39.4808,43.8802 C38.6340,43.2622 34.7010,40.6560 31.7063,40.5652 C29.0888,40.4857 24.7155,41.6857 23.5095,44.7840 C23.0873,45.8685 22.9065,47.5560 22.7857,49.0065 C22.7857,49.0320 22.7842,49.0597 22.7842,49.0860 C22.7842,50.3370 23.6347,51.4740 25.0193,52.3177 C25.9470,52.8825 27.1417,53.5815 28.0897,54.1252 C29.5748,54.9802 31.5907,55.3147 33.8588,55.3147 C38.3940,55.3148 42.0705,53.2057 42.0705,50.6025 Z" style="fill-rule: evenodd; fill: url(#grad206); "/>
    <path xmlns="http://www.w3.org/2000/svg" d="  M26.9932,53.5583 C28.7175,49.9553 29.0550,48.7815 29.8447,47.5740 C31.6897,44.7593 33.8812,44.0130 34.5600,43.1393 C35.5335,41.8883 35.1810,41.2238 34.3230,40.8968 C33.5640,40.6080 32.3603,40.4438 31.0665,40.7025 C29.6655,40.9830 27.7455,42.4050 27.2047,43.7325 C26.7330,44.8875 26.3400,52.7408 26.2792,52.0845 C26.3745,53.1120 26.3745,53.1945 26.3745,53.1945 L26.9932,53.5583 Z" style="fill-rule: evenodd; fill: #dae3f9; "/>
    <path xmlns="http://www.w3.org/2000/svg" d="  M28.3935,42.2168 C28.3935,42.2168 27.2565,42.9375 26.6737,47.4983 C26.4405,49.3267 26.3700,53.1870 26.3700,53.1870 L26.2740,53.1367 C26.2740,53.1367 26.0122,49.0582 26.1517,47.4473 C26.3407,45.2392 26.6265,43.7182 28.5337,41.3310 L28.3935,42.2168 Z" style="fill-rule: evenodd; fill: #dae3f9; "/>
    <path xmlns="http://www.w3.org/2000/svg" d="  M28.6463,42.2280 C28.6463,42.2280 27.3135,44.2380 26.9520,47.4195 C26.7443,49.2518 26.3738,53.1938 26.3738,53.1938 C26.3738,53.1938 26.2350,49.4145 26.4030,47.4593 C26.5920,45.2513 27.0293,43.2570 28.9373,40.8705 L28.6463,42.2280 Z" style="fill-rule: evenodd; fill: #727376; "/>
    <defs xmlns="http://www.w3.org/2000/svg">
      <radialGradient id="grad207" cx="50.0000%" cy="50.0000%" r="100.0000%">
        <stop offset="0%" stop-color="#6f4923" stop-opacity="1.0000"/>
        <stop offset="100%" stop-color="#e5c2a0" stop-opacity="1.0000"/>
      </radialGradient>
    </defs>
    <path xmlns="http://www.w3.org/2000/svg" d="  M35.1675,41.7300 C35.1390,41.4398 35.0580,41.4068 35.0580,41.4068 C35.0580,41.4068 34.3980,37.8262 34.3815,37.6545 C34.2690,36.5588 33.4132,36.2040 31.6035,36.2040 C29.7945,36.2040 28.3267,37.0463 28.3267,38.0850 C28.3267,38.2913 28.2892,42.5820 28.2817,42.9300 C28.2367,44.9235 30.2017,46.0943 32.9107,44.4360 C34.3950,43.5293 35.1255,42.6645 35.1675,41.7300 Z" style="fill-rule: evenodd; fill: url(#grad207); "/>
    <path xmlns="http://www.w3.org/2000/svg" d="  M36.0525,33.7095 C35.5275,33.4005 34.6732,33.9068 34.1445,34.8398 C33.6165,35.7735 33.6135,36.7815 34.1392,37.0913 C34.6650,37.4003 35.5185,36.8940 36.0465,35.9603 C36.5752,35.0273 36.5782,34.0185 36.0525,33.7095 Z" style="fill-rule: evenodd; fill: #c6a27e; "/>
    <defs xmlns="http://www.w3.org/2000/svg">
      <radialGradient id="grad208" cx="50.0000%" cy="50.0000%" r="100.0000%">
        <stop offset="0%" stop-color="#6f4923" stop-opacity="1.0000"/>
        <stop offset="100%" stop-color="#e5c2a0" stop-opacity="1.0000"/>
      </radialGradient>
    </defs>
    <path xmlns="http://www.w3.org/2000/svg" d="  M36.0525,34.2218 C35.5275,33.9128 34.6732,34.4190 34.1445,35.3528 C33.6165,36.2865 33.6135,37.2938 34.1392,37.6035 C34.6650,37.9125 35.5185,37.4070 36.0465,36.4733 C36.5752,35.5395 36.5782,34.5315 36.0525,34.2218 Z" style="fill-rule: evenodd; fill: url(#grad208); "/>
    <defs xmlns="http://www.w3.org/2000/svg">
      <radialGradient id="grad209" cx="50.0000%" cy="50.0000%" r="100.0000%">
        <stop offset="0%" stop-color="#ebc8a7" stop-opacity="1.0000"/>
        <stop offset="100%" stop-color="#805a34" stop-opacity="1.0000"/>
      </radialGradient>
    </defs>
    <path xmlns="http://www.w3.org/2000/svg" d="  M34.6672,34.9980 C34.6672,38.8748 32.7922,41.8815 30.0997,41.8815 C27.4080,41.8815 25.2255,38.7397 25.2255,34.8630 C25.2255,30.9863 26.0010,28.0567 30.0997,27.8438 C32.7877,27.7035 34.6672,31.1212 34.6672,34.9980 Z" style="fill-rule: evenodd; fill: url(#grad209); "/>
    <path xmlns="http://www.w3.org/2000/svg" d="  M29.8770,41.5792 C29.8972,41.5800 29.9182,41.5815 29.9385,41.5815 C32.4772,41.5815 34.2502,38.7652 34.2750,35.1202 C33.9255,37.9492 32.0197,41.1345 29.8770,41.5792 Z" style="fill-rule: evenodd; fill: #a17c57; "/>
    <path xmlns="http://www.w3.org/2000/svg" d="  M36.0442,33.7463 C36.6247,33.9465 36.4492,35.2133 36.4350,35.3813 C37.6095,32.2208 36.7275,28.8915 35.2087,27.8235 C34.7115,27.4733 33.5407,26.6805 31.1407,26.6048 C33.5220,27.8235 34.0335,31.8383 33.5002,32.1390 C34.4572,31.9710 34.6125,34.2375 34.6125,34.2375 C34.6125,34.2375 35.1547,33.4403 36.0442,33.7463 Z" style="fill-rule: evenodd; fill: #3d3d3d; "/>
    <defs xmlns="http://www.w3.org/2000/svg">
      <radialGradient id="grad210" cx="50.0000%" cy="50.0000%" r="100.0000%">
        <stop offset="0%" stop-color="#8e8e8e" stop-opacity="1.0000"/>
        <stop offset="100%" stop-color="#4f4f4f" stop-opacity="1.0000"/>
      </radialGradient>
    </defs>
    <path xmlns="http://www.w3.org/2000/svg" d="  M35.8530,29.6108 A5.3123,3.0488 180.0000 1,1 30.5407,26.5620 A5.3123,3.0488 180.0000 0,1 35.8530,29.6108 Z" style="fill-rule: evenodd; fill: url(#grad210); "/>
    <defs xmlns="http://www.w3.org/2000/svg" xmlns:xlink="http://www.w3.org/1999/xlink">
      <linearGradient id="grad211">
        <stop offset="0%" stop-color="#7f8787" stop-opacity="1.0000"/>
        <stop offset="100%" stop-color="#dae1e1" stop-opacity="1.0000"/>
      </linearGradient>
      <linearGradient xlink:href="#grad211" id="grad212" x1="0" y1="0" x2="0" y2="1" gradientTransform="rotate(135 .5 .5)" gradientUnits="objectBoundingBox">
  </linearGradient>
    </defs>
    <path xmlns="http://www.w3.org/2000/svg" d="  M34.2427,32.6287 C34.2397,32.6287 33.9675,32.0835 33.3997,32.1262 C32.8312,32.1697 32.0295,32.4120 30.4102,32.3490 C27.9157,32.3475 25.9912,31.4415 25.4497,30.1095 C25.4385,30.0832 25.4512,30.0532 25.4782,30.0427 C25.5037,30.0322 25.5337,30.0450 25.5450,30.0712 C26.0535,31.3387 28.4445,31.9222 30.1297,32.0175 C31.4175,32.0902 32.6767,31.9170 33.3435,31.9477 C34.0117,31.9800 34.2427,32.6287 34.2427,32.6287 Z" style="fill-rule: evenodd; fill: url(#grad212); "/>
    <defs xmlns="http://www.w3.org/2000/svg">
      <radialGradient id="grad213" cx="50.0000%" cy="50.0000%" r="100.0000%">
        <stop offset="0%" stop-color="#a6d6f5" stop-opacity="1.0000"/>
        <stop offset="100%" stop-color="#6c90b4" stop-opacity="1.0000"/>
      </radialGradient>
    </defs>
    <path xmlns="http://www.w3.org/2000/svg" d="  M57.3345,55.6905 C57.3345,55.5525 57.3375,50.8605 54.7455,48.9683 C53.8988,48.3495 49.9657,45.7440 46.9710,45.6525 C44.3535,45.5738 39.9795,46.7738 38.7735,49.8720 C38.3520,50.9565 38.1713,52.6440 38.0497,54.0938 C38.0497,54.1200 38.0482,54.1478 38.0482,54.1740 C38.0482,55.4250 38.8987,56.5620 40.2840,57.4058 C41.2110,57.9697 42.4065,58.6695 43.3537,59.2133 C44.8403,60.0683 46.8555,60.4027 49.1235,60.4027 C53.6580,60.4035 57.3345,58.2938 57.3345,55.6905 Z" style="fill-rule: evenodd; fill: url(#grad213); "/>
    <path xmlns="http://www.w3.org/2000/svg" d="  M42.2572,58.6463 C43.9807,55.0433 44.3182,53.8688 45.1087,52.6613 C46.9537,49.8473 49.1445,49.1010 49.8240,48.2273 C50.7967,46.9763 50.4442,46.3110 49.5870,45.9840 C48.8272,45.6953 47.6242,45.5310 46.3297,45.7898 C44.9295,46.0703 43.0095,47.4930 42.4680,48.8198 C41.9970,49.9755 41.6032,57.8288 41.5425,57.1725 C41.6377,58.2000 41.6377,58.2825 41.6377,58.2825 L42.2572,58.6463 Z" style="fill-rule: evenodd; fill: #dae3f9; "/>
    <path xmlns="http://www.w3.org/2000/svg" d="  M43.6568,47.3048 C43.6568,47.3048 42.5205,48.0248 41.9378,52.5863 C41.7038,54.4148 41.6340,58.2750 41.6340,58.2750 L41.5373,58.2240 C41.5373,58.2240 41.2763,54.1455 41.4150,52.5345 C41.6048,50.3265 41.8898,48.8063 43.7970,46.4190 L43.6568,47.3048 Z" style="fill-rule: evenodd; fill: #dae3f9; "/>
    <path xmlns="http://www.w3.org/2000/svg" d="  M43.9095,47.3160 C43.9095,47.3160 42.5775,49.3252 42.2160,52.5075 C42.0083,54.3390 41.6370,58.2817 41.6370,58.2817 C41.6370,58.2817 41.4983,54.5025 41.6663,52.5472 C41.8560,50.3392 42.2933,48.3450 44.2005,45.9585 L43.9095,47.3160 Z" style="fill-rule: evenodd; fill: #727376; "/>
    <defs xmlns="http://www.w3.org/2000/svg">
      <radialGradient id="grad214" cx="50.0000%" cy="50.0000%" r="100.0000%">
        <stop offset="0%" stop-color="#6f4923" stop-opacity="1.0000"/>
        <stop offset="100%" stop-color="#e5c2a0" stop-opacity="1.0000"/>
      </radialGradient>
    </defs>
    <path xmlns="http://www.w3.org/2000/svg" d="  M50.4323,46.8180 C50.4030,46.5277 50.3227,46.4947 50.3227,46.4947 C50.3227,46.4947 49.6628,42.9142 49.6463,42.7425 C49.5345,41.6460 48.6780,41.2920 46.8690,41.2920 C45.0592,41.2920 43.5915,42.1335 43.5915,43.1722 C43.5915,43.3785 43.5547,47.6700 43.5465,48.0173 C43.5022,50.0108 45.4665,51.1815 48.1762,49.5240 C49.6590,48.6165 50.3902,47.7525 50.4323,46.8180 Z" style="fill-rule: evenodd; fill: url(#grad214); "/>
    <path xmlns="http://www.w3.org/2000/svg" d="  M51.3158,38.7967 C50.7908,38.4885 49.9365,38.9948 49.4078,39.9278 C48.8798,40.8615 48.8768,41.8695 49.4025,42.1792 C49.9275,42.4882 50.7818,41.9820 51.3105,41.0482 C51.8393,40.1145 51.8415,39.1065 51.3158,38.7967 Z" style="fill-rule: evenodd; fill: #c6a27e; "/>
    <defs xmlns="http://www.w3.org/2000/svg">
      <radialGradient id="grad215" cx="50.0000%" cy="50.0000%" r="100.0000%">
        <stop offset="0%" stop-color="#6f4923" stop-opacity="1.0000"/>
        <stop offset="100%" stop-color="#e5c2a0" stop-opacity="1.0000"/>
      </radialGradient>
    </defs>
    <path xmlns="http://www.w3.org/2000/svg" d="  M51.3158,39.3112 C50.7908,39.0015 49.9365,39.5077 49.4078,40.4415 C48.8798,41.3745 48.8768,42.3825 49.4025,42.6922 C49.9275,43.0012 50.7818,42.4957 51.3105,41.5620 C51.8393,40.6282 51.8415,39.6202 51.3158,39.3112 Z" style="fill-rule: evenodd; fill: url(#grad215); "/>
    <defs xmlns="http://www.w3.org/2000/svg">
      <radialGradient id="grad216" cx="50.0000%" cy="50.0000%" r="100.0000%">
        <stop offset="0%" stop-color="#ebc8a7" stop-opacity="1.0000"/>
        <stop offset="100%" stop-color="#805a34" stop-opacity="1.0000"/>
      </radialGradient>
    </defs>
    <path xmlns="http://www.w3.org/2000/svg" d="  M49.9313,40.0860 C49.9313,43.9628 48.0563,46.9695 45.3645,46.9695 C42.6720,46.9695 40.4902,43.8270 40.4902,39.9510 C40.4902,36.0743 41.2657,33.1447 45.3645,32.9317 C48.0533,32.7908 49.9313,36.2093 49.9313,40.0860 Z" style="fill-rule: evenodd; fill: url(#grad216); "/>
    <path xmlns="http://www.w3.org/2000/svg" d="  M45.1410,46.6672 C45.1612,46.6672 45.1830,46.6695 45.2025,46.6695 C47.7413,46.6695 49.5150,43.8532 49.5398,40.2082 C49.1888,43.0372 47.2823,46.2225 45.1410,46.6672 Z" style="fill-rule: evenodd; fill: #a17c57; "/>
    <path xmlns="http://www.w3.org/2000/svg" d="  M51.3083,38.8343 C51.8888,39.0338 51.7133,40.3012 51.6990,40.4693 C52.8728,37.3088 51.9908,33.9795 50.4720,32.9115 C49.9748,32.5613 48.8040,31.7678 46.4040,31.6928 C48.7853,32.9115 49.2967,36.9263 48.7635,37.2263 C49.7205,37.0590 49.8765,39.3255 49.8765,39.3255 C49.8765,39.3255 50.4195,38.5290 51.3083,38.8343 Z" style="fill-rule: evenodd; fill: #3d3d3d; "/>
    <defs xmlns="http://www.w3.org/2000/svg">
      <radialGradient id="grad217" cx="50.0000%" cy="50.0000%" r="100.0000%">
        <stop offset="0%" stop-color="#8e8e8e" stop-opacity="1.0000"/>
        <stop offset="100%" stop-color="#4f4f4f" stop-opacity="1.0000"/>
      </radialGradient>
    </defs>
    <path xmlns="http://www.w3.org/2000/svg" d="  M51.1170,34.6987 A5.3123,3.0488 180.0000 1,1 45.8047,31.6500 A5.3123,3.0488 180.0000 0,1 51.1170,34.6987 Z" style="fill-rule: evenodd; fill: url(#grad217); "/>
    <defs xmlns="http://www.w3.org/2000/svg" xmlns:xlink="http://www.w3.org/1999/xlink">
      <linearGradient id="grad218">
        <stop offset="0%" stop-color="#7f8787" stop-opacity="1.0000"/>
        <stop offset="100%" stop-color="#dae1e1" stop-opacity="1.0000"/>
      </linearGradient>
      <linearGradient xlink:href="#grad218" id="grad219" x1="0" y1="0" x2="0" y2="1" gradientTransform="rotate(135 .5 .5)" gradientUnits="objectBoundingBox">
  </linearGradient>
    </defs>
    <path xmlns="http://www.w3.org/2000/svg" d="  M49.5060,37.7167 C49.5037,37.7167 49.2315,37.1715 48.6630,37.2150 C48.0952,37.2585 47.2935,37.5000 45.6735,37.4377 C43.1790,37.4362 41.2545,36.5302 40.7137,35.1975 C40.7025,35.1720 40.7152,35.1420 40.7415,35.1308 C40.7670,35.1202 40.7970,35.1330 40.8082,35.1592 C41.3167,36.4275 43.7077,37.0110 45.3930,37.1062 C46.6808,37.1782 47.9400,37.0057 48.6075,37.0373 C49.2765,37.0680 49.5060,37.7167 49.5060,37.7167 Z" style="fill-rule: evenodd; fill: url(#grad219); "/>
    <!--converted by libvisio2svg-->
  </g>
</svg>
