<svg xmlns="http://www.w3.org/2000/svg" xmlns:xlink="http://www.w3.org/1999/xlink" version="1.1" width="0.6901000000" height="0.8279000000" viewBox="0 0 49.6853 59.6100">
  <title><![CDATA[AV Conferencing Server Role]]></title>
  <g transform=" scale(1.000000) ">
    <path xmlns="http://www.w3.org/2000/svg" d="  M22.8727,27.6390 L22.8727,56.9265 L49.6852,56.9265 L49.6852,27.6390 L22.8727,27.6390 Z" style="stroke-width: 1.5000; stroke: #8d98b5; stroke-dasharray: none; stroke-linecap: butt; stroke-linejoin: miter; fill: none; "/>
    <path xmlns="http://www.w3.org/2000/svg" d="  M37.5000,7.0852 L25.7123,0.0000 L0.0000,14.7802 L0.0000,51.7920 L0.5700,52.1257 C2.0977,54.0802 5.2658,55.9440 8.7600,56.9355 L13.3148,59.6093 L37.5000,45.7185 L37.5000,42.9847 L37.4985,42.9502 L36.9743,42.7012 L37.5000,42.3990 L37.5000,40.1753 L37.4985,40.1408 L36.9743,39.8918 L37.5000,39.5895 L37.5000,37.3658 L37.4985,37.3313 L37.0110,37.1002 L37.5000,36.8198 L37.5000,7.1190 L37.5000,7.0852 Z" style="stroke-width: 1.5000; stroke: #8d98b5; stroke-dasharray: none; stroke-linecap: butt; stroke-linejoin: miter; fill: none; "/>
    <path xmlns="http://www.w3.org/2000/svg" d="  M22.7903,45.8167 L37.4985,37.3312 L37.0110,37.1002 L22.7903,45.2197 L22.7903,45.8167 Z" style="fill-rule: evenodd; fill: #3f3f3f; "/>
    <path xmlns="http://www.w3.org/2000/svg" d="  M22.7903,48.6270 L37.4985,40.1408 L36.9743,39.8918 L22.7903,48.0293 L22.7903,48.6270 Z" style="fill-rule: evenodd; fill: #3f3f3f; "/>
    <path xmlns="http://www.w3.org/2000/svg" d="  M22.7903,51.4365 L37.4985,42.9503 L36.9743,42.7013 L22.7903,50.8380 L22.7903,51.4365 Z" style="fill-rule: evenodd; fill: #3f3f3f; "/>
    <defs xmlns="http://www.w3.org/2000/svg" xmlns:xlink="http://www.w3.org/1999/xlink">
      <linearGradient id="grad521">
        <stop offset="0%" stop-color="#646c6b" stop-opacity="1.0000"/>
        <stop offset="100%" stop-color="#dae1e1" stop-opacity="1.0000"/>
      </linearGradient>
      <linearGradient xlink:href="#grad521" id="grad522" x1="0" y1="0" x2="0" y2="1" gradientTransform="rotate(90 .5 .5)" gradientUnits="objectBoundingBox">
  </linearGradient>
    </defs>
    <path xmlns="http://www.w3.org/2000/svg" d="  M13.3148,21.2535 L0.0000,14.7795 L0.0000,51.7913 L0.5700,52.1250 C0.4462,51.9682 0.3337,51.8108 0.2317,51.6518 L0.2317,35.5500 L0.2317,31.9583 L0.2317,24.2738 L0.2317,16.5263 L12.2677,22.4768 C12.2677,22.4768 12.3143,22.4813 12.3375,22.4843 L12.3375,30.2850 L12.3375,37.9163 L12.3375,41.7330 L12.3375,57.6098 C11.1413,57.5033 9.9322,57.2685 8.7600,56.9363 L13.3148,59.6100 L13.3148,21.2535 Z" style="fill-rule: evenodd; fill: url(#grad522); "/>
    <defs xmlns="http://www.w3.org/2000/svg" xmlns:xlink="http://www.w3.org/1999/xlink">
      <linearGradient id="grad523">
        <stop offset="0%" stop-color="#85919c" stop-opacity="0.9882"/>
        <stop offset="100%" stop-color="#dadfe1" stop-opacity="0.9882"/>
      </linearGradient>
      <linearGradient xlink:href="#grad523" id="grad524" x1="0" y1="0" x2="0" y2="1" gradientTransform="rotate(90 .5 .5)" gradientUnits="objectBoundingBox">
  </linearGradient>
    </defs>
    <path xmlns="http://www.w3.org/2000/svg" d="  M11.8282,41.7248 C11.8282,41.7848 11.7577,41.8343 11.6670,41.8343 C11.6587,41.8343 11.6415,41.8350 11.6415,41.8350 C8.0497,41.8890 3.3630,40.2563 0.7155,36.2063 C0.5355,35.9873 0.3712,35.7683 0.2317,35.5508 L0.2317,51.6525 C0.3338,51.8115 0.4462,51.9690 0.5700,52.1258 C2.0977,54.0803 5.2658,55.9440 8.7600,56.9355 C9.9322,57.2678 11.1413,57.5033 12.3375,57.6090 L12.3375,41.7323 C12.1628,41.7158 11.9865,41.6970 11.8103,41.6753 C11.8207,41.6903 11.8282,41.7075 11.8282,41.7248 Z M11.4682,55.6118 C11.2740,56.2268 10.2547,56.4555 9.1943,56.1188 C8.1330,55.7828 7.4302,55.0095 7.6252,54.3937 C7.8217,53.7773 8.8395,53.5493 9.9008,53.8853 C10.9612,54.2213 11.6647,54.9945 11.4682,55.6118 Z M11.6670,53.1413 C11.6587,53.1413 11.6415,53.1420 11.6415,53.1420 C7.9155,53.1983 3.0112,51.4395 0.4267,47.0513 C0.2392,46.7415 0.4627,46.7700 0.4627,46.7700 C2.0993,49.5375 6.9225,52.4423 11.5770,52.9110 C11.5980,52.9125 11.6648,52.9178 11.6737,52.9178 C11.7645,52.9178 11.8282,52.9733 11.8282,53.0318 C11.8282,53.0925 11.7577,53.1413 11.6670,53.1413 Z M11.6670,49.3733 C11.6587,49.3733 11.6415,49.3733 11.6415,49.3733 C7.9155,49.4295 3.0112,47.6708 0.4267,43.2818 C0.2392,42.9720 0.4627,43.0013 0.4627,43.0013 C2.0993,45.7688 6.9225,48.6735 11.5770,49.1422 C11.5980,49.1445 11.6648,49.1497 11.6737,49.1497 C11.7645,49.1497 11.8282,49.2053 11.8282,49.2638 C11.8282,49.3230 11.7577,49.3733 11.6670,49.3733 Z M11.6670,45.6038 C11.6587,45.6038 11.6415,45.6045 11.6415,45.6045 C7.9155,45.6600 3.0112,43.9020 0.4267,39.5130 C0.2392,39.2033 0.4627,39.2325 0.4627,39.2325 C2.0993,41.9985 6.9225,44.9048 11.5770,45.3728 C11.5980,45.3758 11.6648,45.3795 11.6737,45.3795 C11.7645,45.3795 11.8282,45.4350 11.8282,45.4943 C11.8282,45.5535 11.7577,45.6038 11.6670,45.6038 Z" style="fill-rule: evenodd; fill: url(#grad524); "/>
    <defs xmlns="http://www.w3.org/2000/svg" xmlns:xlink="http://www.w3.org/1999/xlink">
      <linearGradient id="grad525">
        <stop offset="0%" stop-color="#85919c" stop-opacity="0.9882"/>
        <stop offset="100%" stop-color="#dadfe1" stop-opacity="0.9882"/>
      </linearGradient>
      <linearGradient xlink:href="#grad525" id="grad526" x1="0" y1="0" x2="0" y2="1" gradientTransform="rotate(90 .5 .5)" gradientUnits="objectBoundingBox">
  </linearGradient>
    </defs>
    <path xmlns="http://www.w3.org/2000/svg" d="  M11.5770,30.2970 C11.5980,30.2993 11.6647,30.3045 11.6737,30.3045 C11.7645,30.3045 11.8282,30.3593 11.8282,30.4185 C11.8282,30.4778 11.7577,30.5280 11.6670,30.5280 C11.6588,30.5280 11.6415,30.5280 11.6415,30.5280 C8.1000,30.5813 3.4965,28.9935 0.8303,25.0695 C0.6007,24.8055 0.4013,24.5400 0.2317,24.2738 L0.2317,31.9583 C0.4995,32.3775 0.8483,32.7968 1.2645,33.2063 C0.9653,32.8200 0.6847,32.4105 0.4267,31.9740 C0.2392,31.6643 0.4627,31.6928 0.4627,31.6928 C1.5810,33.5843 4.1888,35.5403 7.2142,36.7388 C8.6385,37.2615 10.1565,37.6485 11.6685,37.8405 C11.6692,37.8413 11.6722,37.8413 11.6737,37.8413 C11.6805,37.8413 11.6880,37.8428 11.6940,37.8443 C11.8845,37.8683 12.0773,37.8908 12.2677,37.9080 C12.2918,37.9103 12.3143,37.9140 12.3375,37.9155 L12.3375,30.2843 C9.6488,30.0420 6.8963,29.1495 4.6417,27.9450 C6.6825,29.1473 9.1522,30.0533 11.5770,30.2970 Z M11.6670,34.2975 C11.6587,34.2975 11.6415,34.2983 11.6415,34.2983 C7.9155,34.3530 3.0112,32.5950 0.4267,28.2060 C0.2392,27.8970 0.4627,27.9263 0.4627,27.9263 C2.0993,30.6923 6.9225,33.5978 11.5770,34.0658 C11.5980,34.0688 11.6648,34.0725 11.6737,34.0725 C11.7645,34.0725 11.8282,34.1280 11.8282,34.1880 C11.8282,34.2465 11.7577,34.2975 11.6670,34.2975 Z" style="fill-rule: evenodd; fill: url(#grad526); "/>
    <defs xmlns="http://www.w3.org/2000/svg" xmlns:xlink="http://www.w3.org/1999/xlink">
      <linearGradient id="grad527">
        <stop offset="0%" stop-color="#c8d8dd" stop-opacity="0.9882"/>
        <stop offset="100%" stop-color="#f3f9f7" stop-opacity="0.9882"/>
      </linearGradient>
      <linearGradient xlink:href="#grad527" id="grad528" x1="0" y1="0" x2="0" y2="1" gradientTransform="rotate(90 .5 .5)" gradientUnits="objectBoundingBox">
  </linearGradient>
    </defs>
    <path xmlns="http://www.w3.org/2000/svg" d="  M12.2670,37.9080 C12.0765,37.8907 11.8837,37.8682 11.6932,37.8442 C11.7713,37.8525 11.8275,37.9012 11.8275,37.9552 C11.8275,38.0152 11.7570,38.0647 11.6662,38.0647 C11.6580,38.0647 11.6407,38.0647 11.6407,38.0647 C8.2853,38.1157 3.9758,36.6937 1.2638,33.2055 C0.8475,32.7960 0.4988,32.3767 0.2310,31.9575 L0.2310,35.5493 C0.3705,35.7668 0.5340,35.9857 0.7147,36.2048 C0.6165,36.0540 0.5182,35.9003 0.4260,35.7428 C0.2385,35.4337 0.4620,35.4615 0.4620,35.4615 C1.4400,37.1167 3.5580,38.8200 6.0982,40.0222 C7.3133,40.5982 8.6265,41.0580 9.9563,41.3445 C10.4963,41.4600 11.0370,41.5485 11.5770,41.6032 C11.5980,41.6047 11.6648,41.6100 11.6738,41.6100 C11.7368,41.6100 11.7863,41.6377 11.8103,41.6745 C11.9865,41.6962 12.1628,41.7150 12.3375,41.7315 L12.3375,37.9148 C12.3135,37.9140 12.2918,37.9102 12.2670,37.9080 Z" style="fill-rule: evenodd; fill: url(#grad528); "/>
    <defs xmlns="http://www.w3.org/2000/svg" xmlns:xlink="http://www.w3.org/1999/xlink">
      <linearGradient id="grad529">
        <stop offset="0%" stop-color="#bdd1dd" stop-opacity="0.9882"/>
        <stop offset="100%" stop-color="#f3f9f7" stop-opacity="0.9882"/>
      </linearGradient>
      <linearGradient xlink:href="#grad529" id="grad530" x1="0" y1="0" x2="0" y2="1" gradientTransform="rotate(90 .5 .5)" gradientUnits="objectBoundingBox">
  </linearGradient>
    </defs>
    <path xmlns="http://www.w3.org/2000/svg" d="  M12.2670,22.4760 L0.2310,16.5255 L0.2310,24.2738 C0.4005,24.5392 0.6000,24.8055 0.8295,25.0695 C0.6900,24.8648 0.5542,24.6548 0.4260,24.4373 C0.2385,24.1275 0.4620,24.1560 0.4620,24.1560 C1.2458,25.4828 2.7615,26.8388 4.6410,27.9450 C6.8955,29.1495 9.6480,30.0420 12.3368,30.2843 L12.3368,22.4835 C12.3135,22.4805 12.2670,22.4760 12.2670,22.4760 Z M0.6397,17.5560 L11.9707,23.1570 C6.3510,26.2620 0.8550,21.2535 0.6397,17.5560 Z" style="fill-rule: evenodd; fill: url(#grad530); "/>
    <path xmlns="http://www.w3.org/2000/svg" d="  M11.6730,52.9177 C11.6640,52.9177 11.5972,52.9125 11.5762,52.9110 C6.9217,52.4422 2.0977,49.5375 0.4620,46.7700 C0.4620,46.7700 0.2385,46.7415 0.4260,47.0513 C3.0105,51.4402 7.9147,53.1983 11.6407,53.1420 C11.6407,53.1420 11.6580,53.1412 11.6662,53.1412 C11.7570,53.1412 11.8275,53.0925 11.8275,53.0317 C11.8282,52.9732 11.7645,52.9177 11.6730,52.9177 Z" style="fill-rule: evenodd; fill: #000000; "/>
    <path xmlns="http://www.w3.org/2000/svg" d="  M11.6730,49.1490 C11.6640,49.1490 11.5972,49.1438 11.5762,49.1415 C6.9217,48.6735 2.0977,45.7688 0.4620,43.0005 C0.4620,43.0005 0.2385,42.9713 0.4260,43.2810 C3.0105,47.6708 7.9147,49.4288 11.6407,49.3725 C11.6407,49.3725 11.6580,49.3725 11.6662,49.3725 C11.7570,49.3725 11.8275,49.3230 11.8275,49.2630 C11.8282,49.2045 11.7645,49.1490 11.6730,49.1490 Z" style="fill-rule: evenodd; fill: #000000; "/>
    <path xmlns="http://www.w3.org/2000/svg" d="  M11.6730,45.3788 C11.6640,45.3788 11.5972,45.3750 11.5762,45.3720 C6.9217,44.9040 2.0977,41.9985 0.4620,39.2318 C0.4620,39.2318 0.2385,39.2025 0.4260,39.5123 C3.0105,43.9020 7.9147,45.6593 11.6407,45.6038 C11.6407,45.6038 11.6580,45.6030 11.6662,45.6030 C11.7570,45.6030 11.8275,45.5528 11.8275,45.4935 C11.8275,45.4343 11.7645,45.3788 11.6730,45.3788 Z" style="fill-rule: evenodd; fill: #000000; "/>
    <path xmlns="http://www.w3.org/2000/svg" d="  M11.8095,41.6753 C11.1915,41.5995 10.5712,41.4878 9.9555,41.3460 C8.6265,41.0595 7.3133,40.5997 6.0975,40.0238 C3.5573,38.8208 1.4392,37.1183 0.4613,35.4630 C0.4613,35.4630 0.2377,35.4353 0.4253,35.7443 C0.5175,35.9018 0.6158,36.0555 0.7140,36.2063 C3.3615,40.2555 8.0483,41.8890 11.6400,41.8350 C11.6400,41.8350 11.6573,41.8343 11.6655,41.8343 C11.7563,41.8343 11.8268,41.7855 11.8268,41.7247 C11.8283,41.7075 11.8208,41.6903 11.8095,41.6753 Z" style="fill-rule: evenodd; fill: #000000; "/>
    <path xmlns="http://www.w3.org/2000/svg" d="  M11.6940,37.8443 C11.6858,37.8428 11.6768,37.8420 11.6685,37.8405 C11.6527,37.8405 11.5965,37.8360 11.5770,37.8338 C10.1040,37.6868 8.6145,37.2923 7.2142,36.7388 C4.1887,35.5403 1.5810,33.5850 0.4627,31.6928 C0.4627,31.6928 0.2392,31.6643 0.4267,31.9740 C0.6847,32.4105 0.9652,32.8200 1.2645,33.2063 C3.9765,36.6938 8.2860,38.1165 11.6415,38.0655 C11.6415,38.0655 11.6588,38.0655 11.6670,38.0655 C11.7578,38.0655 11.8283,38.0160 11.8283,37.9560 C11.8283,37.9020 11.7720,37.8525 11.6940,37.8443 Z" style="fill-rule: evenodd; fill: #000000; "/>
    <path xmlns="http://www.w3.org/2000/svg" d="  M11.6730,30.3045 C11.6640,30.3045 11.5973,30.2993 11.5762,30.2970 C9.1522,30.0533 6.6825,29.1473 4.6410,27.9450 C2.7615,26.8388 1.2457,25.4828 0.4620,24.1560 C0.4620,24.1560 0.2385,24.1275 0.4260,24.4373 C0.5542,24.6548 0.6907,24.8640 0.8295,25.0695 C3.4958,28.9935 8.0992,30.5820 11.6407,30.5280 C11.6407,30.5280 11.6580,30.5280 11.6663,30.5280 C11.7570,30.5280 11.8275,30.4778 11.8275,30.4185 C11.8275,30.3593 11.7645,30.3045 11.6730,30.3045 Z" style="fill-rule: evenodd; fill: #000000; "/>
    <path xmlns="http://www.w3.org/2000/svg" d="  M11.6730,34.0718 C11.6640,34.0718 11.5972,34.0680 11.5762,34.0650 C6.9217,33.5970 2.0977,30.6923 0.4620,27.9255 C0.4620,27.9255 0.2385,27.8963 0.4260,28.2053 C3.0105,32.5950 7.9147,34.3523 11.6407,34.2975 C11.6407,34.2975 11.6580,34.2968 11.6662,34.2968 C11.7570,34.2968 11.8275,34.2458 11.8275,34.1873 C11.8282,34.1273 11.7645,34.0718 11.6730,34.0718 Z" style="fill-rule: evenodd; fill: #000000; "/>
    <defs xmlns="http://www.w3.org/2000/svg">
      <linearGradient id="grad531">
        <stop offset="0%" stop-color="#646c6b" stop-opacity="1.0000"/>
        <stop offset="100%" stop-color="#dae1e1" stop-opacity="1.0000"/>
      </linearGradient>
    </defs>
    <path xmlns="http://www.w3.org/2000/svg" d="  M9.9007,53.8853 C8.8395,53.5493 7.8218,53.7765 7.6253,54.3938 C7.4303,55.0095 8.1330,55.7828 9.1942,56.1188 C10.2547,56.4555 11.2740,56.2275 11.4682,55.6118 C11.6648,54.9945 10.9613,54.2213 9.9007,53.8853 Z M10.7025,55.9493 C10.3080,56.3198 9.6270,56.2365 9.1807,55.7610 C9.0375,55.6073 8.9355,55.4325 8.8763,55.2533 C8.8380,55.1363 8.8200,55.0178 8.8185,54.9015 C8.8148,54.6450 8.9033,54.4035 9.0870,54.2295 C9.4808,53.8598 10.1617,53.9430 10.6080,54.4178 C11.0543,54.8925 11.0962,55.5780 10.7025,55.9493 Z" style="fill-rule: evenodd; fill: url(#grad531); "/>
    <path xmlns="http://www.w3.org/2000/svg" d="  M9.0862,54.2303 C8.9025,54.4035 8.8140,54.6458 8.8178,54.9023 C8.8252,54.7200 8.8935,54.5505 9.0248,54.4253 C9.1313,54.3248 9.2640,54.2693 9.4080,54.2528 C9.6930,54.1823 10.0298,54.2805 10.2698,54.5363 C10.5983,54.8850 10.6253,55.3935 10.3365,55.6853 C10.3178,55.7092 10.2968,55.7325 10.2750,55.7535 C9.9690,56.0415 9.4433,55.9770 9.0983,55.6088 C8.9963,55.5015 8.9235,55.3793 8.8755,55.2540 C8.9348,55.4333 9.0367,55.6080 9.1800,55.7618 C9.6270,56.2373 10.3072,56.3205 10.7018,55.9500 C11.0955,55.5788 11.0543,54.8933 10.6073,54.4193 C10.1610,53.9438 9.4808,53.8605 9.0862,54.2303 Z" style="fill-rule: evenodd; fill: #000000; "/>
    <defs xmlns="http://www.w3.org/2000/svg">
      <radialGradient id="grad532" cx="50.0000%" cy="50.0000%" r="100.0000%">
        <stop offset="0%" stop-color="#ccff66" stop-opacity="1.0000"/>
        <stop offset="100%" stop-color="#7ab04a" stop-opacity="1.0000"/>
      </radialGradient>
    </defs>
    <path xmlns="http://www.w3.org/2000/svg" d="  M10.2750,55.7528 C10.2968,55.7325 10.3178,55.7085 10.3365,55.6845 C10.6253,55.3920 10.5983,54.8843 10.2698,54.5355 C10.0298,54.2798 9.6923,54.1815 9.4080,54.2520 C9.2648,54.2685 9.1313,54.3248 9.0248,54.4245 C8.8928,54.5498 8.8245,54.7193 8.8178,54.9015 C8.8193,55.0170 8.8373,55.1363 8.8755,55.2533 C8.9228,55.3785 8.9963,55.5008 9.0983,55.6080 C9.4433,55.9763 9.9690,56.0408 10.2750,55.7528 Z" style="fill-rule: evenodd; fill: url(#grad532); "/>
    <defs xmlns="http://www.w3.org/2000/svg" xmlns:xlink="http://www.w3.org/1999/xlink">
      <linearGradient id="grad533">
        <stop offset="0%" stop-color="#7f8787" stop-opacity="1.0000"/>
        <stop offset="100%" stop-color="#f3f9f7" stop-opacity="1.0000"/>
      </linearGradient>
      <linearGradient xlink:href="#grad533" id="grad534" x1="0" y1="0" x2="0" y2="1" gradientTransform="rotate(315 .5 .5)" gradientUnits="objectBoundingBox">
  </linearGradient>
    </defs>
    <path xmlns="http://www.w3.org/2000/svg" d="  M0.6398,17.5560 C0.8550,21.2543 6.3510,26.2620 11.9708,23.1570 L0.6398,17.5560 Z M2.8118,18.7725 L10.0560,22.3223 C6.3930,24.1388 2.9055,21.0240 2.8118,18.7725 Z" style="fill-rule: evenodd; fill: url(#grad534); "/>
    <defs xmlns="http://www.w3.org/2000/svg">
      <radialGradient id="grad535" cx="50.0000%" cy="50.0000%" r="100.0000%">
        <stop offset="0%" stop-color="#a7e968" stop-opacity="1.0000"/>
        <stop offset="100%" stop-color="#000000" stop-opacity="1.0000"/>
      </radialGradient>
    </defs>
    <path xmlns="http://www.w3.org/2000/svg" d="  M2.8118,18.7725 C2.9055,21.0240 6.3930,24.1387 10.0560,22.3222 L2.8118,18.7725 Z" style="fill-rule: evenodd; fill: url(#grad535); "/>
    <defs xmlns="http://www.w3.org/2000/svg" xmlns:xlink="http://www.w3.org/1999/xlink">
      <linearGradient id="grad536">
        <stop offset="0%" stop-color="#7f8787" stop-opacity="1.0000"/>
        <stop offset="100%" stop-color="#dae1e1" stop-opacity="1.0000"/>
      </linearGradient>
      <linearGradient xlink:href="#grad536" id="grad537" x1="0" y1="0" x2="0" y2="1" gradientTransform="rotate(45 .5 .5)" gradientUnits="objectBoundingBox">
  </linearGradient>
    </defs>
    <path xmlns="http://www.w3.org/2000/svg" d="  M13.3448,21.2235 L13.3245,21.2138 L13.3245,59.3648 L37.5000,45.7185 L37.5000,42.9848 L22.7902,51.4365 L22.7902,50.8380 L36.9742,42.7013 L37.5000,42.3990 L37.5000,40.1753 L22.7902,48.6270 L22.7902,48.0293 L36.9742,39.8918 L37.5000,39.5895 L37.5000,37.3658 L22.7902,45.8168 L22.7902,45.2198 L37.0110,37.1003 L37.5000,36.8198 L37.5000,7.1198 L34.2547,8.9843 L13.3448,21.2235 Z" style="fill-rule: evenodd; fill: url(#grad537); "/>
    <defs xmlns="http://www.w3.org/2000/svg" xmlns:xlink="http://www.w3.org/1999/xlink">
      <linearGradient id="grad538">
        <stop offset="0%" stop-color="#7f8787" stop-opacity="1.0000"/>
        <stop offset="100%" stop-color="#f3f9f7" stop-opacity="1.0000"/>
      </linearGradient>
      <linearGradient xlink:href="#grad538" id="grad539" x1="0" y1="0" x2="0" y2="1" gradientTransform="rotate(90 .5 .5)" gradientUnits="objectBoundingBox">
  </linearGradient>
    </defs>
    <path xmlns="http://www.w3.org/2000/svg" d="  M25.7122,0.0000 L0.1237,14.7712 L13.3245,21.2137 L37.5000,7.0852 L25.7122,0.0000 Z" style="fill-rule: evenodd; fill: url(#grad539); "/>
    <defs xmlns="http://www.w3.org/2000/svg" xmlns:xlink="http://www.w3.org/1999/xlink">
      <linearGradient id="grad540">
        <stop offset="0%" stop-color="#080808" stop-opacity="1.0000"/>
        <stop offset="100%" stop-color="#7f8787" stop-opacity="1.0000"/>
      </linearGradient>
      <linearGradient xlink:href="#grad540" id="grad541" x1="0" y1="0" x2="0" y2="1" gradientTransform="rotate(90 .5 .5)" gradientUnits="objectBoundingBox">
  </linearGradient>
    </defs>
    <path xmlns="http://www.w3.org/2000/svg" d="  M45.8258,27.6142 L45.8258,56.9010 L49.5375,56.9010 L49.5375,27.6142 L45.8258,27.6142 Z M48.8160,54.8168 C48.8160,55.0440 48.6300,55.2278 48.4005,55.2278 L46.9620,55.2278 C46.7325,55.2278 46.5473,55.0440 46.5473,54.8168 L46.5473,53.7818 C46.5473,53.5553 46.7325,53.3708 46.9620,53.3708 L48.4005,53.3708 C48.6300,53.3708 48.8160,53.5553 48.8160,53.7818 L48.8160,54.8168 Z M48.8160,51.2820 C48.8160,51.5085 48.6300,51.6930 48.4005,51.6930 L46.9620,51.6930 C46.7325,51.6930 46.5473,51.5085 46.5473,51.2820 L46.5473,50.2470 C46.5473,50.0198 46.7325,49.8360 46.9620,49.8360 L48.4005,49.8360 C48.6300,49.8360 48.8160,50.0198 48.8160,50.2470 L48.8160,51.2820 Z M48.8160,47.7465 C48.8160,47.9730 48.6300,48.1567 48.4005,48.1567 L46.9620,48.1567 C46.7325,48.1567 46.5473,47.9730 46.5473,47.7465 L46.5473,46.7108 C46.5473,46.4835 46.7325,46.3005 46.9620,46.3005 L48.4005,46.3005 C48.6300,46.3005 48.8160,46.4835 48.8160,46.7108 L48.8160,47.7465 Z M48.8160,44.2103 C48.8160,44.4375 48.6300,44.6213 48.4005,44.6213 L46.9620,44.6213 C46.7325,44.6213 46.5473,44.4375 46.5473,44.2103 L46.5473,43.1753 C46.5473,42.9480 46.7325,42.7643 46.9620,42.7643 L48.4005,42.7643 C48.6300,42.7643 48.8160,42.9480 48.8160,43.1753 L48.8160,44.2103 Z M48.8160,40.6740 C48.8160,40.9012 48.6300,41.0850 48.4005,41.0850 L46.9620,41.0850 C46.7325,41.0850 46.5473,40.9012 46.5473,40.6740 L46.5473,39.6390 C46.5473,39.4125 46.7325,39.2280 46.9620,39.2280 L48.4005,39.2280 C48.6300,39.2280 48.8160,39.4125 48.8160,39.6390 L48.8160,40.6740 Z M48.8160,37.1385 C48.8160,37.3650 48.6300,37.5495 48.4005,37.5495 L46.9620,37.5495 C46.7325,37.5495 46.5473,37.3650 46.5473,37.1385 L46.5473,36.1035 C46.5473,35.8762 46.7325,35.6925 46.9620,35.6925 L48.4005,35.6925 C48.6300,35.6925 48.8160,35.8762 48.8160,36.1035 L48.8160,37.1385 Z M48.8160,33.6030 C48.8160,33.8295 48.6300,34.0133 48.4005,34.0133 L46.9620,34.0133 C46.7325,34.0133 46.5473,33.8295 46.5473,33.6030 L46.5473,32.5673 C46.5473,32.3400 46.7325,32.1570 46.9620,32.1570 L48.4005,32.1570 C48.6300,32.1570 48.8160,32.3400 48.8160,32.5673 L48.8160,33.6030 Z M48.8160,30.0675 C48.8160,30.2940 48.6300,30.4778 48.4005,30.4778 L46.9620,30.4778 C46.7325,30.4778 46.5473,30.2940 46.5473,30.0675 L46.5473,29.0317 C46.5473,28.8052 46.7325,28.6215 46.9620,28.6215 L48.4005,28.6215 C48.6300,28.6215 48.8160,28.8052 48.8160,29.0317 L48.8160,30.0675 Z" style="fill-rule: evenodd; fill: url(#grad541); "/>
    <defs xmlns="http://www.w3.org/2000/svg" xmlns:xlink="http://www.w3.org/1999/xlink">
      <linearGradient id="grad542">
        <stop offset="0%" stop-color="#080808" stop-opacity="1.0000"/>
        <stop offset="100%" stop-color="#7f8787" stop-opacity="1.0000"/>
      </linearGradient>
      <linearGradient xlink:href="#grad542" id="grad543" x1="0" y1="0" x2="0" y2="1" gradientTransform="rotate(90 .5 .5)" gradientUnits="objectBoundingBox">
  </linearGradient>
    </defs>
    <path xmlns="http://www.w3.org/2000/svg" d="  M22.7250,27.6142 L22.7250,56.9010 L26.4368,56.9010 L26.4368,27.6142 L22.7250,27.6142 Z M25.7160,54.8168 C25.7160,55.0440 25.5300,55.2278 25.2998,55.2278 L23.8620,55.2278 C23.6325,55.2278 23.4465,55.0440 23.4465,54.8168 L23.4465,53.7818 C23.4465,53.5553 23.6325,53.3708 23.8620,53.3708 L25.2998,53.3708 C25.5300,53.3708 25.7160,53.5553 25.7160,53.7818 L25.7160,54.8168 Z M25.7160,51.2820 C25.7160,51.5085 25.5300,51.6930 25.2998,51.6930 L23.8620,51.6930 C23.6325,51.6930 23.4465,51.5085 23.4465,51.2820 L23.4465,50.2470 C23.4465,50.0198 23.6325,49.8360 23.8620,49.8360 L25.2998,49.8360 C25.5300,49.8360 25.7160,50.0198 25.7160,50.2470 L25.7160,51.2820 Z M25.7160,47.7465 C25.7160,47.9730 25.5300,48.1567 25.2998,48.1567 L23.8620,48.1567 C23.6325,48.1567 23.4465,47.9730 23.4465,47.7465 L23.4465,46.7108 C23.4465,46.4835 23.6325,46.3005 23.8620,46.3005 L25.2998,46.3005 C25.5300,46.3005 25.7160,46.4835 25.7160,46.7108 L25.7160,47.7465 Z M25.7160,44.2103 C25.7160,44.4375 25.5300,44.6213 25.2998,44.6213 L23.8620,44.6213 C23.6325,44.6213 23.4465,44.4375 23.4465,44.2103 L23.4465,43.1753 C23.4465,42.9480 23.6325,42.7643 23.8620,42.7643 L25.2998,42.7643 C25.5300,42.7643 25.7160,42.9480 25.7160,43.1753 L25.7160,44.2103 Z M25.7160,40.6740 C25.7160,40.9012 25.5300,41.0850 25.2998,41.0850 L23.8620,41.0850 C23.6325,41.0850 23.4465,40.9012 23.4465,40.6740 L23.4465,39.6390 C23.4465,39.4125 23.6325,39.2280 23.8620,39.2280 L25.2998,39.2280 C25.5300,39.2280 25.7160,39.4125 25.7160,39.6390 L25.7160,40.6740 Z M25.7160,37.1385 C25.7160,37.3650 25.5300,37.5495 25.2998,37.5495 L23.8620,37.5495 C23.6325,37.5495 23.4465,37.3650 23.4465,37.1385 L23.4465,36.1035 C23.4465,35.8762 23.6325,35.6925 23.8620,35.6925 L25.2998,35.6925 C25.5300,35.6925 25.7160,35.8762 25.7160,36.1035 L25.7160,37.1385 Z M25.7160,33.6030 C25.7160,33.8295 25.5300,34.0133 25.2998,34.0133 L23.8620,34.0133 C23.6325,34.0133 23.4465,33.8295 23.4465,33.6030 L23.4465,32.5673 C23.4465,32.3400 23.6325,32.1570 23.8620,32.1570 L25.2998,32.1570 C25.5300,32.1570 25.7160,32.3400 25.7160,32.5673 L25.7160,33.6030 Z M25.7160,30.0675 C25.7160,30.2940 25.5300,30.4778 25.2998,30.4778 L23.8620,30.4778 C23.6325,30.4778 23.4465,30.2940 23.4465,30.0675 L23.4465,29.0317 C23.4465,28.8052 23.6325,28.6215 23.8620,28.6215 L25.2998,28.6215 C25.5300,28.6215 25.7160,28.8052 25.7160,29.0317 L25.7160,30.0675 Z" style="fill-rule: evenodd; fill: url(#grad543); "/>
    <defs xmlns="http://www.w3.org/2000/svg" xmlns:xlink="http://www.w3.org/1999/xlink">
      <linearGradient id="grad544">
        <stop offset="0%" stop-color="#2e4495" stop-opacity="1.0000"/>
        <stop offset="100%" stop-color="#66ffff" stop-opacity="1.0000"/>
      </linearGradient>
      <linearGradient xlink:href="#grad544" id="grad545" x1="0" y1="0" x2="0" y2="1" gradientTransform="rotate(-0 .5 .5)" gradientUnits="objectBoundingBox">
  </linearGradient>
    </defs>
    <path xmlns="http://www.w3.org/2000/svg" d="  M30.2985,32.7990 L30.2978,32.7900 C30.2978,32.7900 30.3053,32.7892 30.3128,32.7885 L30.3143,32.7885 C30.3158,32.7885 30.3158,32.7885 30.3173,32.7885 C30.3233,32.7885 30.3278,32.7892 30.3330,32.7900 C30.3600,32.7900 30.3848,32.7930 30.4110,32.7930 C30.4358,32.7930 30.4583,32.7900 30.4830,32.7900 C30.4875,32.7900 30.4920,32.7885 30.4980,32.7885 C30.5010,32.7885 30.5010,32.7885 30.5025,32.7885 L30.5032,32.7885 C30.5085,32.7892 30.5153,32.7900 30.5153,32.7900 L30.5160,32.7990 C31.3080,32.8253 32.0025,33.0075 32.5958,33.3232 C33.0420,33.4972 33.4635,33.7200 33.8543,33.9862 L33.8618,33.9885 C33.8700,33.9945 33.8768,34.0005 33.8842,34.0058 C34.0147,34.0950 34.1415,34.1895 34.2630,34.2885 C34.3462,34.3560 34.4250,34.4280 34.5045,34.4993 C34.5525,34.5435 34.6035,34.5870 34.6508,34.6327 C34.7408,34.7190 34.8278,34.8067 34.9133,34.8982 C34.9395,34.9275 34.9665,34.9583 34.9935,34.9875 C35.0865,35.0918 35.1780,35.1983 35.2643,35.3085 L35.2613,35.3077 C35.8635,36.0720 36.2925,36.9758 36.4875,37.9665 C36.4897,37.9755 36.4905,37.9845 36.4920,37.9935 C36.5288,38.1825 36.5580,38.3730 36.5768,38.5680 C36.5970,38.7720 36.6082,38.9798 36.6082,39.1890 C36.6082,39.7770 36.4275,40.5045 36.1320,41.3025 L36.1328,41.3025 C36.1290,41.3130 36.1245,41.3227 36.1207,41.3325 C36.0765,41.4488 36.0330,41.5657 35.9843,41.6850 L44.9992,41.6850 L44.9992,28.8968 L28.4992,28.8968 L28.4992,33.1650 C28.5637,33.1463 28.6260,33.1260 28.6905,33.1088 C29.1720,32.9250 29.7083,32.8185 30.2985,32.7990 Z" style="fill-rule: evenodd; fill: url(#grad545); "/>
    <path xmlns="http://www.w3.org/2000/svg" d="  M28.4992,34.4340 L28.4992,34.4205 C28.4970,34.4265 28.4948,34.4325 28.4917,34.4370 L28.4992,34.4340 Z" style="fill-rule: evenodd; fill: #f1df4d; "/>
    <path xmlns="http://www.w3.org/2000/svg" d="  M28.6905,33.1088 C28.6260,33.1260 28.5638,33.1463 28.4993,33.1650 L28.4993,33.1845 C28.5623,33.1575 28.6260,33.1335 28.6905,33.1088 Z" style="fill-rule: evenodd; fill: #f1df4d; "/>
    <path xmlns="http://www.w3.org/2000/svg" d="  M29.2140,33.1590 C28.9628,33.2235 28.7220,33.3022 28.4993,33.4065 L28.4993,33.9555 C28.6867,33.6255 28.9223,33.3555 29.2140,33.1590 Z" style="fill-rule: evenodd; fill: #f1df4d; "/>
    <path xmlns="http://www.w3.org/2000/svg" d="  M32.6130,34.6447 L32.7173,34.7092 L33.1252,33.9112 C32.6947,33.5617 32.1832,33.3105 31.6005,33.1597 C32.0768,33.4800 32.3985,33.9952 32.6130,34.6447 Z" style="fill-rule: evenodd; fill: #f1df4d; "/>
    <path xmlns="http://www.w3.org/2000/svg" d="  M33.8535,33.9862 C33.4628,33.7207 33.0413,33.4980 32.5950,33.3232 C32.8613,33.4642 33.1095,33.6307 33.3330,33.8227 L33.8535,33.9862 Z" style="fill-rule: evenodd; fill: #f1df4d; "/>
    <path xmlns="http://www.w3.org/2000/svg" d="  M32.3385,34.4745 C31.9868,33.5970 31.4295,33.0675 30.4823,33.0067 L30.4823,33.3262 L32.3385,34.4745 Z" style="fill-rule: evenodd; fill: #f1df4d; "/>
    <path xmlns="http://www.w3.org/2000/svg" d="  M30.2760,33.4072 L30.2760,33.0120 C29.3828,33.0885 28.8450,33.5947 28.4992,34.4212 L28.4992,34.4347 L30.2760,33.4072 Z" style="fill-rule: evenodd; fill: #f1df4d; "/>
    <path xmlns="http://www.w3.org/2000/svg" d="  M30.4830,41.6850 L30.5558,41.6850 L30.4830,41.6085 L30.4830,41.6850 Z" style="fill-rule: evenodd; fill: #606aa3; "/>
    <path xmlns="http://www.w3.org/2000/svg" d="  M30.1808,41.6850 L30.2760,41.6850 L30.2760,41.5822 L30.1808,41.6850 Z" style="fill-rule: evenodd; fill: #606aa3; "/>
    <path xmlns="http://www.w3.org/2000/svg" d="  M34.4100,41.7210 L34.4205,41.7210 L34.4130,41.7142 L34.4100,41.7210 Z" style="fill-rule: evenodd; fill: #606aa3; "/>
    <path xmlns="http://www.w3.org/2000/svg" d="  M36.2993,39.7177 L35.1300,38.2492 C35.1345,38.3790 35.1420,38.5080 35.1420,38.6407 C35.1420,39.0157 35.1233,39.4042 35.0835,39.8025 C35.0783,39.8527 35.0693,39.9067 35.0633,39.9592 L36.1320,41.3025 C36.4275,40.5045 36.6083,39.7770 36.6083,39.1890 C36.6083,39.3180 36.5970,39.4545 36.5813,39.5962 L36.2993,39.7177 Z" style="fill-rule: evenodd; fill: #d8123d; "/>
    <path xmlns="http://www.w3.org/2000/svg" d="  M32.9873,39.7207 C32.9625,40.3440 32.8988,41.0055 32.8065,41.6842 L33.0210,41.6842 L34.8803,39.7522 C34.9170,39.3697 34.9358,38.9985 34.9358,38.6407 C34.9350,38.4127 34.9253,38.1907 34.9110,37.9725 L34.8023,37.8360 L32.9873,39.7207 Z" style="fill-rule: evenodd; fill: #d8123d; "/>
    <path xmlns="http://www.w3.org/2000/svg" d="  M30.2760,37.7812 L28.4992,39.3007 L28.4992,41.4532 L30.2760,39.9337 L30.2760,37.7812 Z" style="fill-rule: evenodd; fill: #d8123d; "/>
    <path xmlns="http://www.w3.org/2000/svg" d="  M30.4830,37.8037 L30.4830,39.9832 L32.5493,41.6850 L32.5980,41.6850 C32.6933,40.9965 32.7585,40.3267 32.7825,39.6990 L30.4830,37.8037 Z" style="fill-rule: evenodd; fill: #d8123d; "/>
    <path xmlns="http://www.w3.org/2000/svg" d="  M34.5510,36.0832 C34.3853,35.5868 34.1663,35.1398 33.8933,34.7490 L32.9070,36.0382 C32.9775,36.6142 33.0075,37.2367 33.0150,37.8840 L34.5510,36.0832 Z" style="fill-rule: evenodd; fill: #5d6aac; "/>
    <path xmlns="http://www.w3.org/2000/svg" d="  M34.8038,36.1875 L36.4868,37.9665 C36.2918,36.9757 35.8628,36.0720 35.2605,35.3077 L34.1640,34.7812 C34.4333,35.1975 34.6463,35.6700 34.8038,36.1875 Z" style="fill-rule: evenodd; fill: #5d6aac; "/>
    <path xmlns="http://www.w3.org/2000/svg" d="  M30.2760,34.7415 L28.4992,35.8837 L28.4992,37.6725 L30.2760,36.1522 L30.2760,34.7415 Z" style="fill-rule: evenodd; fill: #5d6aac; "/>
    <path xmlns="http://www.w3.org/2000/svg" d="  M32.8102,38.1180 C32.8095,37.4025 32.7817,36.7200 32.7090,36.1005 L30.4823,34.6507 L30.4823,36.2017 L32.8102,38.1180 Z" style="fill-rule: evenodd; fill: #5d6aac; "/>
    <path xmlns="http://www.w3.org/2000/svg" d="  M30.4830,41.6085 L30.5558,41.6850 L32.5485,41.6850 L30.4830,39.9832 L30.4830,41.6085 Z" style="fill-rule: evenodd; fill: #e57132; "/>
    <path xmlns="http://www.w3.org/2000/svg" d="  M34.4625,41.6850 C34.6748,40.9815 34.8240,40.3327 34.8780,39.7830 C34.8787,39.7725 34.8803,39.7635 34.8803,39.7530 L33.0210,41.6850 L34.4625,41.6850 Z" style="fill-rule: evenodd; fill: #e57132; "/>
    <path xmlns="http://www.w3.org/2000/svg" d="  M36.1320,41.3025 L35.0633,39.9592 C34.9980,40.4707 34.8638,41.0520 34.6793,41.6760 L34.6868,41.6850 L35.9813,41.6850 C36.0285,41.5665 36.0780,41.4480 36.1215,41.3325 C36.1245,41.3227 36.1283,41.3122 36.1320,41.3025 Z" style="fill-rule: evenodd; fill: #e57132; "/>
    <path xmlns="http://www.w3.org/2000/svg" d="  M30.2760,39.9337 L28.4992,41.4532 L28.4992,41.6850 L30.1808,41.6850 L30.2760,41.5822 L30.2760,39.9337 Z" style="fill-rule: evenodd; fill: #e57132; "/>
    <path xmlns="http://www.w3.org/2000/svg" d="  M33.0150,37.8832 C33.0158,37.9845 33.0173,38.0857 33.0180,38.1885 C33.0180,38.6347 33.0083,39.0930 32.9955,39.5572 C32.9940,39.6105 32.9910,39.6667 32.9880,39.7207 L34.8030,37.8360 L34.9118,37.9725 C34.8645,37.2855 34.7415,36.6540 34.5525,36.0825 L33.0150,37.8832 Z" style="fill-rule: evenodd; fill: #55007f; "/>
    <path xmlns="http://www.w3.org/2000/svg" d="  M28.4992,37.6725 L28.4992,39.3007 L30.2760,37.7812 L30.2760,36.1522 L28.4992,37.6725 Z" style="fill-rule: evenodd; fill: #55007f; "/>
    <path xmlns="http://www.w3.org/2000/svg" d="  M35.1308,38.2492 L36.3000,39.7177 L36.5813,39.5962 C36.5970,39.4545 36.6083,39.3180 36.6083,39.1890 C36.6083,38.9797 36.5970,38.7720 36.5768,38.5680 C36.5580,38.3730 36.5288,38.1825 36.4920,37.9935 C36.4898,37.9845 36.4890,37.9755 36.4875,37.9665 L34.8045,36.1875 C34.9943,36.8137 35.1023,37.5067 35.1308,38.2492 Z" style="fill-rule: evenodd; fill: #55007f; "/>
    <path xmlns="http://www.w3.org/2000/svg" d="  M30.4830,37.8037 L32.7825,39.6982 C32.7855,39.6487 32.7878,39.5985 32.7893,39.5512 C32.8020,39.0892 32.8118,38.6325 32.8118,38.1892 C32.8118,38.1652 32.8103,38.1420 32.8103,38.1180 L30.4823,36.2017 L30.4823,37.8037 L30.4830,37.8037 Z" style="fill-rule: evenodd; fill: #55007f; "/>
    <path xmlns="http://www.w3.org/2000/svg" d="  M30.2760,34.7415 L30.2760,33.4072 L28.4992,34.4340 L28.4992,35.8837 L30.2760,34.7415 Z" style="fill-rule: evenodd; fill: #00a0c6; "/>
    <path xmlns="http://www.w3.org/2000/svg" d="  M30.4830,34.6508 L32.7097,36.1005 C32.6377,35.4937 32.5238,34.9470 32.3452,34.4910 C32.3437,34.4857 32.3408,34.4805 32.3393,34.4752 L30.4830,33.3270 L30.4830,34.6508 Z" style="fill-rule: evenodd; fill: #00a0c6; "/>
    <path xmlns="http://www.w3.org/2000/svg" d="  M33.9308,34.4437 C34.0132,34.5510 34.0905,34.6650 34.1648,34.7805 L35.2613,35.3070 C35.1758,35.1975 35.0865,35.0910 34.9935,34.9867 C34.9665,34.9575 34.9395,34.9267 34.9132,34.8975 C34.8285,34.8067 34.7415,34.7190 34.6507,34.6320 C34.6035,34.5862 34.5525,34.5427 34.5045,34.4985 C34.4250,34.4265 34.3462,34.3552 34.2630,34.2877 C34.1415,34.1887 34.0147,34.0942 33.8842,34.0050 C33.8745,33.9975 33.8640,33.9915 33.8542,33.9855 L33.3345,33.8220 C33.5513,34.0087 33.7523,34.2142 33.9308,34.4437 Z" style="fill-rule: evenodd; fill: #00a0c6; "/>
    <path xmlns="http://www.w3.org/2000/svg" d="  M32.6130,34.6447 C32.7503,35.0610 32.8455,35.5297 32.9070,36.0375 L33.8933,34.7482 C33.6713,34.4310 33.4178,34.1475 33.1253,33.9105 L32.7173,34.7085 L32.6130,34.6447 Z" style="fill-rule: evenodd; fill: #00a0c6; "/>
    <path xmlns="http://www.w3.org/2000/svg" d="  M35.1308,38.2492 C35.1023,37.5075 34.9943,36.8145 34.8038,36.1875 C34.6463,35.6707 34.4333,35.1982 34.1640,34.7812 C34.0898,34.6657 34.0133,34.5510 33.9300,34.4445 C33.7515,34.2142 33.5505,34.0095 33.3323,33.8235 C33.1080,33.6315 32.8605,33.4642 32.5943,33.3240 C32.0010,33.0082 31.3058,32.8260 30.5145,32.7997 L30.5145,32.7907 C30.5145,32.7907 30.5070,32.7900 30.5017,32.7892 L30.5010,32.7892 C30.4995,32.7892 30.4995,32.7892 30.4965,32.7892 C30.4905,32.7892 30.4860,32.7907 30.4815,32.7907 C30.4567,32.7907 30.4343,32.7938 30.4095,32.7938 C30.3833,32.7938 30.3585,32.7907 30.3315,32.7907 C30.3263,32.7900 30.3218,32.7892 30.3158,32.7892 C30.3143,32.7892 30.3143,32.7892 30.3128,32.7892 L30.3113,32.7892 C30.3038,32.7900 30.2970,32.7907 30.2970,32.7907 L30.2970,32.7997 C29.7068,32.8192 29.1698,32.9257 28.6882,33.1095 C28.6238,33.1342 28.5600,33.1582 28.4970,33.1860 L28.4970,33.4080 C28.7198,33.3037 28.9605,33.2250 29.2118,33.1605 C28.9192,33.3570 28.6845,33.6270 28.4970,33.9577 L28.4970,34.4220 C28.8428,33.5955 29.3805,33.0892 30.2738,33.0127 L30.2738,41.6857 L30.4800,41.6857 L30.4800,33.0082 C31.4273,33.0690 31.9845,33.5985 32.3363,34.4760 C32.3378,34.4812 32.3408,34.4865 32.3423,34.4917 C32.5208,34.9477 32.6355,35.4952 32.7068,36.1012 C32.7795,36.7207 32.8073,37.4032 32.8080,38.1187 C32.8080,38.1420 32.8095,38.1660 32.8095,38.1900 C32.8095,38.6340 32.7990,39.0900 32.7870,39.5520 C32.7855,39.5992 32.7833,39.6495 32.7803,39.6990 C32.7563,40.3275 32.6910,40.9965 32.5958,41.6850 L32.8043,41.6850 C32.8965,41.0062 32.9603,40.3447 32.9850,39.7215 C32.9880,39.6675 32.9910,39.6120 32.9925,39.5580 C33.0060,39.0937 33.0150,38.6355 33.0150,38.1892 C33.0143,38.0858 33.0128,37.9852 33.0120,37.8840 C33.0045,37.2368 32.9745,36.6142 32.9040,36.0382 C32.8425,35.5297 32.7473,35.0610 32.6100,34.6455 C32.3955,33.9960 32.0730,33.4807 31.5968,33.1605 C32.1795,33.3113 32.6910,33.5625 33.1215,33.9120 C33.4148,34.1490 33.6683,34.4325 33.8895,34.7497 C34.1625,35.1405 34.3815,35.5875 34.5473,36.0840 C34.7370,36.6555 34.8600,37.2870 34.9065,37.9740 C34.9215,38.1922 34.9305,38.4142 34.9313,38.6422 C34.9313,39.0007 34.9125,39.3720 34.8758,39.7537 C34.8758,39.7643 34.8743,39.7733 34.8735,39.7837 C34.8203,40.3335 34.6703,40.9830 34.4580,41.6857 L34.6718,41.6857 C34.6725,41.6827 34.6733,41.6797 34.6748,41.6767 C34.8593,41.0527 34.9935,40.4715 35.0588,39.9600 C35.0655,39.9075 35.0745,39.8535 35.0790,39.8032 C35.1188,39.4050 35.1375,39.0165 35.1375,38.6415 C35.1420,38.5072 35.1353,38.3782 35.1308,38.2492 Z" style="fill-rule: evenodd; fill: #333333; "/>
    <defs xmlns="http://www.w3.org/2000/svg">
      <radialGradient id="grad546" cx="100.0000%" cy="0.0000%" r="100.0000%">
        <stop offset="0%" stop-color="#d8123d" stop-opacity="1.0000"/>
        <stop offset="100%" stop-color="#993333" stop-opacity="1.0000"/>
      </radialGradient>
    </defs>
    <path xmlns="http://www.w3.org/2000/svg" d="  M40.7895,37.7475 L42.9705,39.3412 L44.1840,38.2912 C44.5545,37.6133 44.8425,36.9630 44.9670,36.4207 L44.7195,36.2332 L43.2270,37.8713 L40.8923,36.1658 L38.8620,37.9283 L37.3530,36.2738 L36.8063,36.7440 C36.9480,37.1790 37.1768,37.6650 37.4558,38.1698 L39.0150,39.2865 L40.7895,37.7475 Z" style="fill-rule: evenodd; fill: url(#grad546); "/>
    <defs xmlns="http://www.w3.org/2000/svg">
      <radialGradient id="grad547" cx="50.0000%" cy="50.0000%" r="100.0000%">
        <stop offset="0%" stop-color="#d8123d" stop-opacity="1.0000"/>
        <stop offset="100%" stop-color="#993333" stop-opacity="1.0000"/>
      </radialGradient>
    </defs>
    <path xmlns="http://www.w3.org/2000/svg" d="  M39.0158,35.5132 L40.7895,33.9750 L42.9705,35.5687 L44.4443,33.9532 C43.7115,32.8327 42.3743,32.0790 40.8390,32.0790 C39.1673,32.0790 37.7280,32.9722 37.0538,34.2622 L37.5135,33.8685 L39.0158,35.5132 Z" style="fill-rule: evenodd; fill: url(#grad547); "/>
    <defs xmlns="http://www.w3.org/2000/svg">
      <radialGradient id="grad548" cx="50.0000%" cy="50.0000%" r="100.0000%">
        <stop offset="0%" stop-color="#f1df4d" stop-opacity="1.0000"/>
        <stop offset="100%" stop-color="#ca9747" stop-opacity="1.0000"/>
      </radialGradient>
    </defs>
    <path xmlns="http://www.w3.org/2000/svg" d="  M38.8613,37.9267 L40.8915,36.1642 L43.2263,37.8697 L44.7188,36.2317 L44.9663,36.4192 C45.0075,36.2332 45.0338,36.0585 45.0338,35.9010 C45.0338,35.1885 44.8155,34.5232 44.4435,33.9525 L42.9698,35.5680 L40.7888,33.9742 L39.0150,35.5125 L37.5135,33.8677 L37.0538,34.2615 C36.7943,34.7595 36.6450,35.3130 36.6450,35.9010 C36.6450,36.1455 36.7043,36.4312 36.8063,36.7417 L37.3530,36.2715 L38.8613,37.9267 Z" style="fill-rule: evenodd; fill: url(#grad548); "/>
    <defs xmlns="http://www.w3.org/2000/svg">
      <radialGradient id="grad549" cx="50.0000%" cy="50.0000%" r="100.0000%">
        <stop offset="0%" stop-color="#f1df4d" stop-opacity="1.0000"/>
        <stop offset="100%" stop-color="#ca9747" stop-opacity="1.0000"/>
      </radialGradient>
    </defs>
    <path xmlns="http://www.w3.org/2000/svg" d="  M42.9705,39.3412 L40.7895,37.7475 L39.0158,39.2858 L37.4565,38.1690 C37.9350,39.0338 38.5598,39.9510 39.1463,40.7513 L40.8998,39.4290 L42.6510,40.7085 C43.1820,39.9548 43.7407,39.1035 44.1848,38.2905 L42.9705,39.3412 Z" style="fill-rule: evenodd; fill: url(#grad549); "/>
    <defs xmlns="http://www.w3.org/2000/svg">
      <radialGradient id="grad550" cx="100.0000%" cy="0.0000%" r="100.0000%">
        <stop offset="0%" stop-color="#d8123d" stop-opacity="1.0000"/>
        <stop offset="100%" stop-color="#993333" stop-opacity="1.0000"/>
      </radialGradient>
    </defs>
    <path xmlns="http://www.w3.org/2000/svg" d="  M41.9115,41.6843 L42.6503,40.7085 L40.8990,39.4290 L39.1455,40.7505 L39.8798,41.6843 L41.9115,41.6843 Z" style="fill-rule: evenodd; fill: url(#grad550); "/>
    <defs xmlns="http://www.w3.org/2000/svg">
      <radialGradient id="grad551" cx="0.0000%" cy="0.0000%" r="100.0000%">
        <stop offset="0%" stop-color="#8d98b5" stop-opacity="1.0000"/>
        <stop offset="100%" stop-color="#080808" stop-opacity="1.0000"/>
      </radialGradient>
    </defs>
    <path xmlns="http://www.w3.org/2000/svg" d="  M39.4560,41.1570 C39.4560,41.1570 39.6345,41.3865 39.8670,41.6843 L41.9393,41.6843 L42.3420,41.1570 L41.9040,41.1570 C42.8745,39.2040 43.8420,36.8948 43.8420,35.4413 C43.8420,32.5230 41.8395,32.1930 41.8395,32.1930 C41.8395,32.1930 42.4433,32.4480 42.4433,35.3655 C42.4433,36.8288 41.8155,39.1770 41.1893,41.1570 L40.6140,41.1570 C40.0988,39.2445 39.5633,36.8865 39.5633,35.3655 C39.5633,32.4473 40.1993,32.1225 40.1993,32.1225 C40.1993,32.1225 38.1645,32.5230 38.1645,35.4413 C38.1645,36.9525 39.0698,39.2700 39.9428,41.1570 L39.4560,41.1570 Z" style="fill-rule: evenodd; fill: url(#grad551); "/>
    <defs xmlns="http://www.w3.org/2000/svg" xmlns:xlink="http://www.w3.org/1999/xlink">
      <linearGradient id="grad552">
        <stop offset="0%" stop-color="#2e4495" stop-opacity="1.0000"/>
        <stop offset="100%" stop-color="#66ffff" stop-opacity="1.0000"/>
      </linearGradient>
      <linearGradient xlink:href="#grad552" id="grad553" x1="0" y1="0" x2="0" y2="1" gradientTransform="rotate(-0 .5 .5)" gradientUnits="objectBoundingBox">
  </linearGradient>
    </defs>
    <path xmlns="http://www.w3.org/2000/svg" d="  M28.4992,55.6815 L44.9993,55.6815 L44.9993,42.8933 L28.4992,42.8933 L28.4992,55.6815 Z" style="fill-rule: evenodd; fill: url(#grad553); "/>
    <path xmlns="http://www.w3.org/2000/svg" d="  M35.4907,47.5335 L35.8875,47.5335 L35.8875,47.2508 L35.4907,47.2508 L35.4907,47.5335 Z" style="fill-rule: evenodd; fill: #ffffff; "/>
    <defs xmlns="http://www.w3.org/2000/svg">
      <radialGradient id="grad554" cx="50.0000%" cy="50.0000%" r="100.0000%">
        <stop offset="0%" stop-color="#d8123d" stop-opacity="1.0000"/>
        <stop offset="100%" stop-color="#993333" stop-opacity="1.0000"/>
      </radialGradient>
    </defs>
    <path xmlns="http://www.w3.org/2000/svg" d="  M36.8032,44.8680 C36.5715,44.4773 36.1470,44.2163 35.6610,44.2163 C35.1307,44.2163 34.6740,44.5267 34.4595,44.9760 C34.3777,45.1493 34.3297,45.3420 34.3297,45.5468 C34.3297,46.1378 35.4997,47.1285 35.4997,47.1285 L35.8575,47.1285 C35.8575,47.1285 36.9915,46.0508 36.9915,45.5468 C36.9907,45.2985 36.9225,45.0660 36.8032,44.8680 Z" style="fill-rule: evenodd; fill: url(#grad554); "/>
    <path xmlns="http://www.w3.org/2000/svg" d="  M44.5710,55.6118 L44.5140,55.6815 L44.6550,55.6815 L44.5710,55.6118 Z" style="fill-rule: evenodd; fill: #d8123d; "/>
    <path xmlns="http://www.w3.org/2000/svg" d="  M40.5128,55.5323 L40.3575,55.6815 L40.6988,55.6815 L40.5128,55.5323 Z" style="fill-rule: evenodd; fill: #d8123d; "/>
    <path xmlns="http://www.w3.org/2000/svg" d="  M36.7613,55.6575 L36.7365,55.6815 L36.7800,55.6815 L36.7613,55.6575 Z" style="fill-rule: evenodd; fill: #d8123d; "/>
    <defs xmlns="http://www.w3.org/2000/svg">
      <radialGradient id="grad555" cx="50.0000%" cy="50.0000%" r="100.0000%">
        <stop offset="0%" stop-color="#d8123d" stop-opacity="1.0000"/>
        <stop offset="100%" stop-color="#993333" stop-opacity="1.0000"/>
      </radialGradient>
    </defs>
    <path xmlns="http://www.w3.org/2000/svg" d="  M39.1088,54.2183 L40.4048,52.9853 L42.1568,54.3893 C42.1305,51.3555 41.5785,50.9453 41.5245,50.9138 C41.1825,50.8298 40.8263,50.7780 40.4573,50.7780 C40.2240,50.7780 39.9960,50.7968 39.7733,50.8320 C39.7125,50.8740 39.1560,51.3480 39.1088,54.2183 Z" style="fill-rule: evenodd; fill: url(#grad555); "/>
    <defs xmlns="http://www.w3.org/2000/svg">
      <radialGradient id="grad556" cx="50.0000%" cy="50.0000%" r="100.0000%">
        <stop offset="0%" stop-color="#d8123d" stop-opacity="1.0000"/>
        <stop offset="100%" stop-color="#993333" stop-opacity="1.0000"/>
      </radialGradient>
    </defs>
    <path xmlns="http://www.w3.org/2000/svg" d="  M43.5810,53.7990 L44.2785,52.9598 C43.6868,51.9638 42.7185,51.2213 41.5703,50.9235 C41.8485,50.9955 43.2795,51.4830 43.5810,53.7990 Z" style="fill-rule: evenodd; fill: url(#grad556); "/>
    <defs xmlns="http://www.w3.org/2000/svg">
      <radialGradient id="grad557" cx="50.0000%" cy="50.0000%" r="100.0000%">
        <stop offset="0%" stop-color="#d8123d" stop-opacity="1.0000"/>
        <stop offset="100%" stop-color="#993333" stop-opacity="1.0000"/>
      </radialGradient>
    </defs>
    <path xmlns="http://www.w3.org/2000/svg" d="  M37.6868,53.7675 C38.0063,51.4230 39.4988,50.9063 39.7418,50.8380 C38.2808,51.0750 37.0605,52.0253 36.4448,53.3198 L36.9315,52.8608 L37.6868,53.7675 Z" style="fill-rule: evenodd; fill: url(#grad557); "/>
    <defs xmlns="http://www.w3.org/2000/svg">
      <radialGradient id="grad558" cx="50.0000%" cy="50.0000%" r="100.0000%">
        <stop offset="0%" stop-color="#f1df4d" stop-opacity="1.0000"/>
        <stop offset="100%" stop-color="#ca9747" stop-opacity="1.0000"/>
      </radialGradient>
    </defs>
    <path xmlns="http://www.w3.org/2000/svg" d="  M43.6410,54.6893 C43.6410,54.9908 43.6073,55.3253 43.5480,55.6808 L44.5140,55.6808 L44.5710,55.6110 L44.6550,55.6808 L44.8583,55.6808 C44.8845,55.5195 44.9048,55.3658 44.9048,55.2255 C44.9048,54.3975 44.6738,53.6228 44.2785,52.9598 L43.5810,53.7990 C43.6163,54.0728 43.6410,54.3630 43.6410,54.6893 Z" style="fill-rule: evenodd; fill: url(#grad558); "/>
    <defs xmlns="http://www.w3.org/2000/svg">
      <radialGradient id="grad559" cx="50.0000%" cy="50.0000%" r="100.0000%">
        <stop offset="0%" stop-color="#f1df4d" stop-opacity="1.0000"/>
        <stop offset="100%" stop-color="#ca9747" stop-opacity="1.0000"/>
      </radialGradient>
    </defs>
    <path xmlns="http://www.w3.org/2000/svg" d="  M39.1635,55.6815 L40.3575,55.6815 L40.5128,55.5323 L40.6988,55.6815 L42.0893,55.6815 C42.1343,55.2908 42.1575,54.9285 42.1575,54.6030 C42.1575,54.5273 42.1560,54.4620 42.1560,54.3893 L40.4040,52.9853 L39.1080,54.2183 C39.1065,54.3443 39.1027,54.4673 39.1027,54.6038 C39.1035,54.9300 39.1283,55.2975 39.1635,55.6815 Z" style="fill-rule: evenodd; fill: url(#grad559); "/>
    <defs xmlns="http://www.w3.org/2000/svg">
      <radialGradient id="grad560" cx="50.0000%" cy="50.0000%" r="100.0000%">
        <stop offset="0%" stop-color="#f1df4d" stop-opacity="1.0000"/>
        <stop offset="100%" stop-color="#ca9747" stop-opacity="1.0000"/>
      </radialGradient>
    </defs>
    <path xmlns="http://www.w3.org/2000/svg" d="  M36.7613,55.6575 L36.7800,55.6808 L37.7100,55.6808 C37.6583,55.3290 37.6208,54.9923 37.6208,54.6893 C37.6208,54.3510 37.6478,54.0488 37.6868,53.7675 L36.9315,52.8600 L36.4448,53.3190 C36.1695,53.8980 36.0098,54.5430 36.0098,55.2255 C36.0098,55.3665 36.0255,55.5195 36.0548,55.6808 L36.7373,55.6808 L36.7613,55.6575 Z" style="fill-rule: evenodd; fill: url(#grad560); "/>
    <defs xmlns="http://www.w3.org/2000/svg">
      <radialGradient id="grad561" cx="0.0000%" cy="100.0000%" r="100.0000%">
        <stop offset="0%" stop-color="#8d98b5" stop-opacity="1.0000"/>
        <stop offset="100%" stop-color="#080808" stop-opacity="1.0000"/>
      </radialGradient>
    </defs>
    <path xmlns="http://www.w3.org/2000/svg" d="  M41.5185,50.9100 C41.5185,50.9100 41.5200,50.9115 41.5238,50.9138 C41.5395,50.9175 41.5545,50.9190 41.5703,50.9235 C41.5395,50.9153 41.5185,50.9100 41.5185,50.9100 Z" style="fill-rule: evenodd; fill: url(#grad561); "/>
    <defs xmlns="http://www.w3.org/2000/svg">
      <radialGradient id="grad562" cx="100.0000%" cy="100.0000%" r="100.0000%">
        <stop offset="0%" stop-color="#8d98b5" stop-opacity="1.0000"/>
        <stop offset="100%" stop-color="#080808" stop-opacity="1.0000"/>
      </radialGradient>
    </defs>
    <path xmlns="http://www.w3.org/2000/svg" d="  M39.7785,50.8283 C39.7785,50.8283 39.7635,50.8313 39.7418,50.8380 C39.7523,50.8365 39.7620,50.8343 39.7725,50.8328 C39.7755,50.8298 39.7785,50.8283 39.7785,50.8283 Z" style="fill-rule: evenodd; fill: url(#grad562); "/>
    <path xmlns="http://www.w3.org/2000/svg" d="  M37.6867,53.7675 L38.5237,54.7748 L39.1080,54.2183 C39.1552,51.3488 39.7125,50.8740 39.7725,50.8328 C39.7620,50.8343 39.7522,50.8365 39.7417,50.8380 C39.4987,50.9063 38.0062,51.4230 37.6867,53.7675 Z" style="fill-rule: evenodd; fill: #d8123d; "/>
    <path xmlns="http://www.w3.org/2000/svg" d="  M42.1560,54.3893 L42.7163,54.8393 L43.5810,53.7990 C43.2795,51.4830 41.8478,50.9955 41.5695,50.9235 C41.5538,50.9190 41.5388,50.9175 41.5230,50.9138 C41.5778,50.9453 42.1298,51.3555 42.1560,54.3893 Z" style="fill-rule: evenodd; fill: #d8123d; "/>
    <path xmlns="http://www.w3.org/2000/svg" d="  M39.1035,54.6030 C39.1035,54.4665 39.1073,54.3435 39.1088,54.2175 L38.5245,54.7740 L37.6875,53.7668 C37.6485,54.0488 37.6215,54.3503 37.6215,54.6885 C37.6215,54.9915 37.6590,55.3290 37.7108,55.6800 L39.1643,55.6800 C39.1283,55.2975 39.1035,54.9300 39.1035,54.6030 Z" style="fill-rule: evenodd; fill: #f1df4d; "/>
    <defs xmlns="http://www.w3.org/2000/svg">
      <radialGradient id="grad563" cx="100.0000%" cy="0.0000%" r="100.0000%">
        <stop offset="0%" stop-color="#8d98b5" stop-opacity="1.0000"/>
        <stop offset="100%" stop-color="#080808" stop-opacity="1.0000"/>
      </radialGradient>
    </defs>
    <path xmlns="http://www.w3.org/2000/svg" d="  M39.7725,50.8328 C39.7620,50.8343 39.7523,50.8365 39.7418,50.8380 C39.4988,50.9063 38.0063,51.4230 37.6868,53.7675 C37.6478,54.0495 37.6208,54.3510 37.6208,54.6893 C37.6208,54.9923 37.6583,55.3298 37.7100,55.6808 L39.1635,55.6808 C39.1283,55.2968 39.1035,54.9293 39.1035,54.6023 C39.1035,54.4658 39.1073,54.3428 39.1088,54.2168 C39.1560,51.3480 39.7125,50.8740 39.7725,50.8328 Z" style="fill-rule: evenodd; fill: url(#grad563); "/>
    <path xmlns="http://www.w3.org/2000/svg" d="  M42.0893,55.6815 L43.5473,55.6815 C43.6065,55.3253 43.6403,54.9915 43.6403,54.6900 C43.6403,54.3630 43.6163,54.0735 43.5810,53.7990 L42.7163,54.8393 L42.1560,54.3893 C42.1560,54.4620 42.1575,54.5280 42.1575,54.6030 C42.1575,54.9285 42.1343,55.2908 42.0893,55.6815 Z" style="fill-rule: evenodd; fill: #f1df4d; "/>
    <defs xmlns="http://www.w3.org/2000/svg">
      <radialGradient id="grad564" cx="0.0000%" cy="0.0000%" r="100.0000%">
        <stop offset="0%" stop-color="#8d98b5" stop-opacity="1.0000"/>
        <stop offset="100%" stop-color="#080808" stop-opacity="1.0000"/>
      </radialGradient>
    </defs>
    <path xmlns="http://www.w3.org/2000/svg" d="  M43.5810,53.7990 C43.2795,51.4830 41.8478,50.9955 41.5695,50.9235 C41.5537,50.9190 41.5388,50.9175 41.5230,50.9138 C41.5762,50.9453 42.1290,51.3555 42.1553,54.3893 C42.1553,54.4620 42.1568,54.5280 42.1568,54.6030 C42.1568,54.9285 42.1335,55.2908 42.0885,55.6815 L43.5465,55.6815 C43.6058,55.3253 43.6395,54.9915 43.6395,54.6900 C43.6410,54.3630 43.6163,54.0728 43.5810,53.7990 Z" style="fill-rule: evenodd; fill: url(#grad564); "/>
    <path xmlns="http://www.w3.org/2000/svg" d="  M29.2598,52.0658 L29.2598,51.6705 C28.9695,51.6953 28.7205,51.7703 28.4993,51.8813 L28.4993,52.5053 L29.2598,52.0658 Z" style="fill-rule: evenodd; fill: #f1df4d; "/>
    <path xmlns="http://www.w3.org/2000/svg" d="  M32.8365,52.6455 C32.4443,52.3785 32.0198,52.1543 31.5705,51.9795 C31.8398,52.1213 32.0903,52.2885 32.3175,52.4828 L32.8365,52.6455 Z" style="fill-rule: evenodd; fill: #f1df4d; "/>
    <path xmlns="http://www.w3.org/2000/svg" d="  M32.1045,52.5780 C31.6740,52.2293 31.1678,51.9690 30.5843,51.8183 C31.0590,52.1385 31.3785,52.6545 31.5938,53.3018 L31.7010,53.3685 L32.1045,52.5780 Z" style="fill-rule: evenodd; fill: #f1df4d; "/>
    <path xmlns="http://www.w3.org/2000/svg" d="  M29.4660,51.6660 L29.4660,51.9855 L31.3215,53.1338 C30.9698,52.2563 30.4133,51.7268 29.4660,51.6660 Z" style="fill-rule: evenodd; fill: #f1df4d; "/>
    <path xmlns="http://www.w3.org/2000/svg" d="  M29.2598,54.8115 L29.2598,53.4008 L28.4993,53.8890 L28.4993,55.4618 L29.2598,54.8115 Z" style="fill-rule: evenodd; fill: #5d6aac; "/>
    <path xmlns="http://www.w3.org/2000/svg" d="  M31.4640,56.5057 L31.7918,56.5057 C31.7843,55.8892 31.7558,55.3005 31.6928,54.7590 L29.4660,53.3093 L29.4660,54.8603 L31.4640,56.5057 Z" style="fill-rule: evenodd; fill: #5d6aac; "/>
    <path xmlns="http://www.w3.org/2000/svg" d="  M33.1478,53.4398 C33.4163,53.8568 33.6293,54.3293 33.7875,54.8460 L35.3580,56.5057 L35.4428,56.5057 C35.2380,55.5623 34.8218,54.6998 34.2443,53.9663 L33.1478,53.4398 Z" style="fill-rule: evenodd; fill: #5d6aac; "/>
    <path xmlns="http://www.w3.org/2000/svg" d="  M31.9980,56.5057 L32.0280,56.5057 L33.5355,54.7418 C33.3690,54.2453 33.1500,53.7968 32.8770,53.4075 L31.8900,54.6983 C31.9590,55.2623 31.9898,55.8720 31.9980,56.5057 Z" style="fill-rule: evenodd; fill: #5d6aac; "/>
    <path xmlns="http://www.w3.org/2000/svg" d="  M28.4993,55.4617 L28.4993,56.5057 L29.2598,56.5057 L29.2598,54.8115 L28.4993,55.4617 Z" style="fill-rule: evenodd; fill: #55007f; "/>
    <path xmlns="http://www.w3.org/2000/svg" d="  M33.8828,56.5057 C33.8303,55.8675 33.7140,55.2765 33.5355,54.7418 L32.0280,56.5057 L33.8828,56.5057 Z" style="fill-rule: evenodd; fill: #55007f; "/>
    <path xmlns="http://www.w3.org/2000/svg" d="  M35.3580,56.5057 L33.7875,54.8460 C33.9428,55.3582 34.0440,55.9140 34.0905,56.5057 L35.3580,56.5057 Z" style="fill-rule: evenodd; fill: #55007f; "/>
    <path xmlns="http://www.w3.org/2000/svg" d="  M29.4660,54.8610 L29.4660,56.5057 L31.4640,56.5057 L29.4660,54.8610 Z" style="fill-rule: evenodd; fill: #55007f; "/>
    <path xmlns="http://www.w3.org/2000/svg" d="  M28.4993,53.8890 L29.2598,53.4008 L29.2598,52.0658 L28.4993,52.5053 L28.4993,53.8890 Z" style="fill-rule: evenodd; fill: #00a0c6; "/>
    <path xmlns="http://www.w3.org/2000/svg" d="  M32.8770,53.4075 C32.6550,53.0910 32.3963,52.8143 32.1045,52.5780 L31.7003,53.3685 L31.5930,53.3018 C31.7325,53.7188 31.8278,54.1890 31.8900,54.6983 L32.8770,53.4075 Z" style="fill-rule: evenodd; fill: #00a0c6; "/>
    <path xmlns="http://www.w3.org/2000/svg" d="  M31.6928,54.7590 C31.6208,54.1523 31.5068,53.6055 31.3283,53.1495 C31.3268,53.1435 31.3238,53.1383 31.3215,53.1338 L29.4660,51.9855 L29.4660,53.3100 L31.6928,54.7590 Z" style="fill-rule: evenodd; fill: #00a0c6; "/>
    <path xmlns="http://www.w3.org/2000/svg" d="  M32.9145,53.1030 C32.9963,53.2103 33.0735,53.3243 33.1485,53.4398 L34.2450,53.9663 C34.1595,53.8568 34.0695,53.7503 33.9765,53.6460 C33.9503,53.6168 33.9233,53.5860 33.8963,53.5568 C33.8123,53.4660 33.7245,53.3783 33.6345,53.2913 C33.5865,53.2455 33.5363,53.2020 33.4883,53.1578 C33.4088,53.0858 33.3300,53.0145 33.2468,52.9470 C33.1253,52.8480 32.9978,52.7535 32.8680,52.6635 C32.8583,52.6568 32.8485,52.6508 32.8380,52.6448 L32.3198,52.4820 C32.5365,52.6680 32.7360,52.8735 32.9145,53.1030 Z" style="fill-rule: evenodd; fill: #00a0c6; "/>
    <path xmlns="http://www.w3.org/2000/svg" d="  M33.7875,54.8460 C33.6293,54.3293 33.4170,53.8568 33.1478,53.4398 C33.0728,53.3243 32.9963,53.2095 32.9138,53.1030 C32.7353,52.8728 32.5358,52.6680 32.3175,52.4828 C32.0903,52.2885 31.8398,52.1220 31.5705,51.9795 C30.9773,51.6675 30.2858,51.4845 29.4960,51.4583 L29.4975,51.4493 C29.4960,51.4493 29.2973,51.4478 29.2950,51.4478 C29.2950,51.4478 28.7483,51.5003 28.4978,51.5460 L28.4978,51.8813 C28.7190,51.7703 28.9680,51.6953 29.2583,51.6705 L29.2583,56.5057 L29.4645,56.5057 L29.4645,51.6660 C30.4118,51.7268 30.9683,52.2563 31.3200,53.1338 C31.3223,53.1383 31.3253,53.1435 31.3268,53.1495 C31.5053,53.6055 31.6200,54.1530 31.6913,54.7590 C31.7543,55.3005 31.7828,55.8893 31.7903,56.5057 L31.9965,56.5057 C31.9883,55.8713 31.9575,55.2623 31.8878,54.6983 C31.8255,54.1883 31.7303,53.7180 31.5908,53.3018 C31.3755,52.6553 31.0560,52.1385 30.5813,51.8183 C31.1648,51.9690 31.6710,52.2293 32.1015,52.5780 C32.3940,52.8143 32.6520,53.0918 32.8740,53.4075 C33.1470,53.7975 33.3660,54.2453 33.5325,54.7418 C33.7110,55.2765 33.8273,55.8675 33.8798,56.5057 L34.0875,56.5057 C34.0440,55.9140 33.9428,55.3582 33.7875,54.8460 Z" style="fill-rule: evenodd; fill: #333333; "/>
    <path xmlns="http://www.w3.org/2000/svg" d="  M41.1412,42.0668 L41.8868,45.9428 L42.1807,45.9428 L41.8072,42.0668 L41.1412,42.0668 Z" style="fill-rule: evenodd; fill: #5d6aac; "/>
    <path xmlns="http://www.w3.org/2000/svg" d="  M38.0805,42.0668 L41.0610,45.9428 L41.3558,45.9428 L38.7473,42.0668 L38.0805,42.0668 Z" style="fill-rule: evenodd; fill: #ba052d; "/>
    <path xmlns="http://www.w3.org/2000/svg" d="  M39.6105,42.0668 L41.4735,45.9428 L41.7675,45.9428 L40.2780,42.0668 L39.6105,42.0668 Z" style="fill-rule: evenodd; fill: #b28e3b; "/>
    <path xmlns="http://www.w3.org/2000/svg" d="  M42.6720,42.0668 L42.2985,45.9428 L42.5925,45.9428 L43.3380,42.0668 L42.6720,42.0668 Z" style="fill-rule: evenodd; fill: #367c3c; "/>
    <path xmlns="http://www.w3.org/2000/svg" d="  M43.3380,42.0668 L42.5925,45.9428 L42.7110,45.9428 L44.2013,42.0668 L43.3380,42.0668 Z" style="fill-rule: evenodd; fill: #333333; "/>
    <path xmlns="http://www.w3.org/2000/svg" d="  M41.8072,42.0668 L42.1807,45.9428 L42.2985,45.9428 L42.6720,42.0668 L41.8072,42.0668 Z" style="fill-rule: evenodd; fill: #333333; "/>
    <path xmlns="http://www.w3.org/2000/svg" d="  M40.2780,42.0668 L41.7675,45.9428 L41.8868,45.9428 L41.1413,42.0668 L40.2780,42.0668 Z" style="fill-rule: evenodd; fill: #333333; "/>
    <path xmlns="http://www.w3.org/2000/svg" d="  M38.7473,42.0668 L41.3558,45.9428 L41.4735,45.9428 L39.6105,42.0668 L38.7473,42.0668 Z" style="fill-rule: evenodd; fill: #333333; "/>
    <path xmlns="http://www.w3.org/2000/svg" d="  M37.2180,42.0668 L40.9432,45.9428 L41.0610,45.9428 L38.0805,42.0668 L37.2180,42.0668 Z" style="fill-rule: evenodd; fill: #333333; "/>
    <path xmlns="http://www.w3.org/2000/svg" d="  M41.6738,47.7525 L42.1455,47.7525 L42.1455,47.1825 L42.3292,47.1825 L42.3292,47.7525 L42.8160,47.7525 L42.8160,47.1803 L41.6738,47.1803 L41.6738,47.7525 Z" style="fill-rule: evenodd; fill: #ffffff; "/>
    <path xmlns="http://www.w3.org/2000/svg" d="  M42.1455,47.7533 L42.3285,47.7533 L42.3285,47.1825 L42.1455,47.1825 L42.1455,47.7533 Z" style="fill-rule: evenodd; fill: #ac562d; "/>
    <path xmlns="http://www.w3.org/2000/svg" d="  M41.6738,47.8403 L42.1455,47.8403 L42.1455,47.7525 L41.6738,47.7525 L41.6738,47.8403 Z" style="fill-rule: evenodd; fill: #ffffff; "/>
    <path xmlns="http://www.w3.org/2000/svg" d="  M42.3293,47.8403 L42.8160,47.8403 L42.8160,47.7525 L42.3293,47.7525 L42.3293,47.8403 Z" style="fill-rule: evenodd; fill: #ffffff; "/>
    <defs xmlns="http://www.w3.org/2000/svg" xmlns:xlink="http://www.w3.org/1999/xlink">
      <linearGradient id="grad565">
        <stop offset="0%" stop-color="#080808" stop-opacity="1.0000"/>
        <stop offset="100%" stop-color="#ac562d" stop-opacity="1.0000"/>
      </linearGradient>
      <linearGradient xlink:href="#grad565" id="grad566" x1="0" y1="0" x2="0" y2="1" gradientTransform="rotate(90 .5 .5)" gradientUnits="objectBoundingBox">
  </linearGradient>
    </defs>
    <path xmlns="http://www.w3.org/2000/svg" d="  M41.6738,48.6660 L42.8153,48.6660 L42.8153,47.7525 L41.6738,47.7525 L41.6738,48.6660 Z" style="fill-rule: evenodd; fill: url(#grad566); "/>
    <path xmlns="http://www.w3.org/2000/svg" d="  M40.9433,45.9473 L41.6445,47.1803 L42.8310,47.1803 L43.5337,45.9473 L40.9433,45.9473 Z" style="fill-rule: evenodd; fill: #333333; "/>
    <path xmlns="http://www.w3.org/2000/svg" d="  M45.0052,43.1453 L43.1235,45.9428 L43.4183,45.9428 L45.0052,43.8780 L45.0052,43.1453 Z" style="fill-rule: evenodd; fill: #e57132; "/>
    <path xmlns="http://www.w3.org/2000/svg" d="  M44.2013,42.0668 L42.7110,45.9428 L43.0058,45.9428 L44.8680,42.0668 L44.2013,42.0668 Z" style="fill-rule: evenodd; fill: #fede12; "/>
    <path xmlns="http://www.w3.org/2000/svg" d="  M45.0053,42.0668 L44.8680,42.0668 L43.0058,45.9428 L43.1235,45.9428 L45.0053,43.1453 L45.0053,42.0668 Z" style="fill-rule: evenodd; fill: #333333; "/>
    <path xmlns="http://www.w3.org/2000/svg" d="  M43.4182,45.9428 L43.5360,45.9428 L45.0052,44.4135 L45.0052,43.8780 L43.4182,45.9428 Z" style="fill-rule: evenodd; fill: #333333; "/>
    <path xmlns="http://www.w3.org/2000/svg" d="  M26.4368,27.6142 L26.4368,56.9010 L45.8250,56.9010 L45.8250,27.6142 L26.4368,27.6142 Z M44.5868,55.6815 L28.9125,55.6815 L28.9125,42.8932 L44.5868,42.8932 L44.5868,55.6815 Z M44.5868,41.6850 L28.9125,41.6850 L28.9125,28.8968 L44.5868,28.8968 L44.5868,41.6850 Z" style="fill-rule: evenodd; fill: #333333; "/>
    <path xmlns="http://www.w3.org/2000/svg" d="  M27.4200,56.9003 C27.4200,56.9003 27.5738,56.7728 27.6225,56.7390 C27.6945,56.6918 27.7238,56.6678 27.7350,56.6468 C27.7335,56.6453 27.7320,56.6430 27.7305,56.6408 C27.7013,56.6070 27.6525,56.5620 27.6000,56.5118 C27.5018,56.4008 27.3525,56.3303 27.3278,56.0295 C27.3555,55.7520 27.4770,55.7145 27.5610,55.6118 C27.6120,55.5660 27.6638,55.5150 27.6990,55.4768 C27.6810,55.4655 27.6600,55.4550 27.6390,55.4430 C27.5535,55.3770 27.3803,55.3710 27.3450,55.0433 C27.3698,54.7695 27.4920,54.7208 27.5775,54.6202 C27.6390,54.5648 27.7005,54.5033 27.7358,54.4620 C27.7080,54.4298 27.6638,54.3870 27.6173,54.3427 C27.5220,54.2287 27.3773,54.1838 27.3458,53.8785 C27.3638,53.6318 27.4650,53.5455 27.5490,53.4045 C27.6233,53.3010 27.6998,53.1892 27.7305,53.1285 C27.7290,53.1263 27.7275,53.1255 27.7275,53.1240 C27.7005,53.0895 27.6525,53.0437 27.6015,52.9958 C27.5055,52.8802 27.3630,52.8427 27.3293,52.5360 C27.3510,52.2645 27.4755,52.2053 27.5618,52.1055 C27.6225,52.0507 27.6855,51.9900 27.7208,51.9503 C27.6945,51.9165 27.6488,51.8723 27.6023,51.8288 C27.5070,51.7118 27.3667,51.6840 27.3300,51.3750 C27.3488,51.1087 27.4748,51.0315 27.5618,50.9310 C27.6353,50.8635 27.7103,50.7900 27.7410,50.7555 C27.7283,50.6925 27.6803,50.6092 27.6008,50.5080 C27.5153,50.3865 27.3735,50.2590 27.3638,49.9718 C27.3713,49.6950 27.5250,49.5878 27.6105,49.5232 C27.6960,49.4693 27.7613,49.4115 27.7755,49.3905 C27.7740,49.3867 27.7710,49.3823 27.7658,49.3763 C27.7463,49.3538 27.7028,49.3200 27.6518,49.2840 C27.5618,49.2135 27.3780,49.1273 27.3638,48.8085 C27.3555,48.5693 27.5310,48.4478 27.6053,48.4462 C27.6420,48.4402 27.6773,48.4350 27.7050,48.4312 C27.6825,48.4118 27.6525,48.3885 27.6180,48.3653 C27.5280,48.2947 27.3450,48.2085 27.3300,47.8890 C27.3375,47.6138 27.4913,47.5065 27.5775,47.4428 C27.6083,47.4232 27.6360,47.4030 27.6593,47.3843 C27.6503,47.3850 27.6405,47.3850 27.6293,47.3850 C27.5828,47.3835 27.5295,47.3843 27.4643,47.3370 C27.3938,47.2920 27.3413,47.1532 27.3472,47.0437 C27.3532,46.7722 27.5025,46.6613 27.5888,46.5922 C27.6653,46.5412 27.7298,46.4865 27.7530,46.4603 C27.7530,46.4587 27.7515,46.4580 27.7508,46.4573 C27.7305,46.4325 27.6855,46.4003 27.6330,46.3620 C27.5408,46.2885 27.3608,46.1993 27.3473,45.8828 C27.3585,45.6000 27.4898,45.4515 27.5843,45.2940 C27.6810,45.1590 27.7418,45.0225 27.7440,44.9932 C27.7425,44.9910 27.7395,44.9850 27.7320,44.9768 C27.7125,44.9535 27.6690,44.9197 27.6173,44.8845 C27.5273,44.8140 27.3443,44.7277 27.3293,44.4090 C27.3368,44.1330 27.4905,44.0257 27.5768,43.9620 C27.6615,43.9073 27.7275,43.8487 27.7418,43.8285 C27.7403,43.8255 27.7365,43.8202 27.7320,43.8150 C27.7125,43.7910 27.6683,43.7580 27.6173,43.7227 C27.5273,43.6515 27.3443,43.5653 27.3293,43.2472 C27.3427,42.9585 27.4785,42.7980 27.5843,42.6112 C27.6900,42.4560 27.7635,42.2843 27.7665,42.2535 C27.7650,42.2505 27.7612,42.2445 27.7538,42.2362 C27.7350,42.2137 27.6915,42.1800 27.6397,42.1440 C27.5490,42.0735 27.3660,41.9887 27.3525,41.6708 C27.3503,41.5942 27.3690,41.4930 27.4245,41.4270 C27.4673,41.3767 27.5123,41.3603 27.5483,41.3565 C27.4552,41.2883 27.3413,41.1817 27.3293,40.9320 C27.3368,40.6560 27.4913,40.5487 27.5768,40.4858 C27.6615,40.4310 27.7275,40.3733 27.7418,40.3530 C27.7395,40.3493 27.7365,40.3447 27.7320,40.3387 C27.7125,40.3162 27.6683,40.2825 27.6173,40.2465 C27.5273,40.1760 27.3443,40.0897 27.3293,39.7710 C27.3368,39.4950 27.4913,39.3877 27.5768,39.3248 C27.6615,39.2700 27.7275,39.2122 27.7410,39.1920 C27.7395,39.1883 27.7365,39.1837 27.7320,39.1793 C27.7133,39.1560 27.6690,39.1222 27.6173,39.0870 C27.5273,39.0165 27.3443,38.9302 27.3293,38.6122 C27.3293,38.3430 27.5183,38.2485 27.5955,38.2477 C27.6428,38.2387 27.6893,38.2328 27.7253,38.2275 C27.7035,38.2088 27.6735,38.1863 27.6398,38.1630 C27.5490,38.0933 27.3660,38.0077 27.3525,37.6897 C27.3638,37.4025 27.5018,37.2675 27.5933,37.1340 C27.6878,37.0192 27.7395,36.9105 27.7433,36.8857 C27.7410,36.8827 27.7373,36.8767 27.7313,36.8685 C27.7125,36.8460 27.6683,36.8130 27.6165,36.7777 C27.5265,36.7065 27.3435,36.6225 27.3285,36.3038 C27.3360,36.0270 27.4898,35.9205 27.5760,35.8560 C27.6600,35.8020 27.7253,35.7450 27.7403,35.7240 C27.7388,35.7203 27.7358,35.7157 27.7313,35.7105 C27.7118,35.6873 27.6683,35.6542 27.6165,35.6183 C27.5265,35.5478 27.3435,35.4622 27.3285,35.1435 C27.3240,35.0325 27.3757,34.9013 27.4395,34.8548 C27.5025,34.8053 27.5550,34.7977 27.6038,34.7917 C27.6360,34.7903 27.6690,34.7887 27.6975,34.7873 C27.6788,34.7723 27.6563,34.7565 27.6330,34.7400 C27.5423,34.6695 27.3593,34.5833 27.3450,34.2645 C27.3518,33.9885 27.5062,33.8813 27.5917,33.8182 C27.6765,33.7628 27.7425,33.7058 27.7568,33.6847 C27.7552,33.6817 27.7515,33.6773 27.7470,33.6713 C27.7283,33.6480 27.6840,33.6150 27.6330,33.5790 C27.5423,33.5085 27.3593,33.4230 27.3450,33.1043 C27.3570,32.8192 27.4913,32.6760 27.5858,32.5283 C27.6900,32.3903 27.7493,32.2545 27.7425,32.2440 C27.7470,32.2350 27.7043,32.1397 27.6023,32.0273 C27.5145,31.9103 27.3720,31.7828 27.3615,31.4948 C27.3698,31.2187 27.5228,31.1123 27.6098,31.0485 C27.6938,30.9945 27.7590,30.9368 27.7748,30.9165 C27.7718,30.9120 27.7688,30.9075 27.7635,30.9030 C27.7448,30.8798 27.7013,30.8460 27.6503,30.8108 C27.5595,30.7395 27.3765,30.6540 27.3615,30.3360 C27.3570,30.1035 27.5093,29.9753 27.5858,29.9580 C27.6420,29.9363 27.6945,29.9205 27.7268,29.9093 C27.7050,29.8860 27.6638,29.8545 27.6165,29.8215 C27.5265,29.7518 27.3435,29.6655 27.3285,29.3468 C27.3360,29.0700 27.4905,28.9643 27.5760,28.9005 C27.6608,28.8450 27.7268,28.7880 27.7410,28.7685 C27.7388,28.7655 27.7358,28.7603 27.7313,28.7550 C27.7118,28.7318 27.6683,28.6988 27.6165,28.6628 C27.5265,28.5930 27.3435,28.5075 27.3285,28.1880 C27.3360,27.9120 27.4905,27.8055 27.5760,27.7425 C27.6667,27.6840 27.7515,27.6098 27.7515,27.6098 L28.0305,27.6098 C28.0223,27.8865 27.8693,27.9923 27.7838,28.0560 C27.6990,28.1100 27.6345,28.1670 27.6187,28.1880 C27.6210,28.1910 27.6240,28.1955 27.6285,28.2008 C27.6472,28.2248 27.6915,28.2578 27.7425,28.2930 C27.8332,28.3635 28.0162,28.4498 28.0305,28.7685 C28.0230,29.0453 27.8693,29.1510 27.7837,29.2148 C27.6990,29.2688 27.6337,29.3265 27.6180,29.3468 C27.6202,29.3498 27.6240,29.3550 27.6285,29.3610 C27.6472,29.3835 27.6915,29.4173 27.7425,29.4533 C27.8332,29.5230 28.0162,29.6093 28.0305,29.9280 C28.0357,30.1605 27.8835,30.2888 27.8070,30.3068 C27.7507,30.3278 27.6983,30.3428 27.6667,30.3548 C27.6877,30.3773 27.7290,30.4088 27.7762,30.4410 C27.8670,30.5115 28.0500,30.5970 28.0650,30.9158 C28.0575,31.1925 27.9038,31.2983 27.8175,31.3628 C27.7268,31.4205 27.6593,31.4820 27.6502,31.4985 C27.6518,31.5165 27.6945,31.6080 27.7897,31.7123 C27.8775,31.8285 28.0215,31.9575 28.0305,32.2448 C28.0193,32.5290 27.8835,32.6723 27.7897,32.8200 C27.6930,32.9483 27.6352,33.0743 27.6330,33.1005 C27.6345,33.1035 27.6382,33.1095 27.6465,33.1163 C27.6645,33.1403 27.7080,33.1733 27.7597,33.2085 C27.8497,33.2798 28.0327,33.3653 28.0477,33.6848 C28.0395,33.9608 27.8865,34.0673 27.8002,34.1310 C27.7155,34.1858 27.6502,34.2428 27.6352,34.2638 C27.6375,34.2668 27.6405,34.2713 27.6465,34.2773 C27.6645,34.3005 27.7080,34.3343 27.7597,34.3695 C27.8497,34.4400 28.0327,34.5263 28.0477,34.8443 C28.0530,34.9553 27.9997,35.0865 27.9367,35.1345 C27.8737,35.1840 27.8205,35.1900 27.7725,35.1960 C27.7402,35.1975 27.7072,35.1990 27.6787,35.2005 C27.6975,35.2155 27.7200,35.2313 27.7432,35.2478 C27.8340,35.3190 28.0170,35.4045 28.0312,35.7240 C28.0230,35.9993 27.8700,36.1065 27.7845,36.1703 C27.6997,36.2243 27.6352,36.2805 27.6195,36.3015 C27.6210,36.3045 27.6247,36.3090 27.6285,36.3135 C27.6480,36.3383 27.6922,36.3705 27.7432,36.4073 C27.8332,36.4778 28.0170,36.5625 28.0312,36.8813 C28.0200,37.1670 27.8812,37.3028 27.7905,37.4370 C27.6937,37.5533 27.6435,37.6628 27.6412,37.6860 C27.6427,37.6890 27.6457,37.6950 27.6525,37.7018 C27.6720,37.7250 27.7155,37.7588 27.7672,37.7933 C27.8572,37.8638 28.0402,37.9493 28.0545,38.2680 C28.0545,38.5358 27.8670,38.6325 27.7882,38.6325 C27.7410,38.6415 27.6945,38.6475 27.6577,38.6528 C27.6810,38.6723 27.7102,38.6940 27.7440,38.7173 C27.8340,38.7878 28.0177,38.8740 28.0320,39.1920 C28.0245,39.4673 27.8707,39.5753 27.7852,39.6383 C27.6997,39.6938 27.6345,39.7508 27.6195,39.7710 C27.6217,39.7748 27.6255,39.7793 27.6300,39.7853 C27.6487,39.8093 27.6930,39.8415 27.7440,39.8775 C27.8347,39.9480 28.0177,40.0335 28.0320,40.3530 C28.0245,40.6290 27.8707,40.7363 27.7852,40.7993 C27.7005,40.8540 27.6352,40.9118 27.6195,40.9320 C27.6217,40.9350 27.6255,40.9403 27.6300,40.9463 C27.6487,40.9688 27.6930,41.0025 27.7440,41.0378 C27.8347,41.1083 28.0177,41.1930 28.0320,41.5118 C28.0342,41.5883 28.0140,41.6895 27.9592,41.7540 C27.9150,41.8050 27.8700,41.8200 27.8340,41.8245 C27.9270,41.8928 28.0440,41.9985 28.0545,42.2505 C28.0402,42.5378 27.9052,42.6990 27.8010,42.8850 C27.6952,43.0418 27.6210,43.2128 27.6172,43.2443 C27.6195,43.2473 27.6225,43.2533 27.6300,43.2615 C27.6487,43.2840 27.6930,43.3185 27.7440,43.3530 C27.8347,43.4243 28.0177,43.5105 28.0320,43.8285 C28.0245,44.1045 27.8707,44.2110 27.7852,44.2755 C27.7005,44.3310 27.6352,44.3880 27.6195,44.4090 C27.6217,44.4120 27.6255,44.4165 27.6300,44.4233 C27.6487,44.4458 27.6930,44.4788 27.7440,44.5148 C27.8347,44.5860 28.0177,44.6715 28.0320,44.9895 C28.0207,45.2723 27.8895,45.4215 27.7950,45.5783 C27.6975,45.7148 27.6360,45.8520 27.6352,45.8798 C27.6360,45.8828 27.6405,45.8895 27.6495,45.8993 C27.6682,45.9233 27.7125,45.9585 27.7635,45.9938 C27.8497,46.0680 28.0237,46.1355 28.0477,46.4393 L28.0485,46.4393 L28.0507,46.4543 L28.0492,46.4723 C28.0387,46.7018 27.9187,46.8083 27.8422,46.8705 C27.7950,46.9080 27.7492,46.9403 27.7125,46.9680 C27.7245,46.9680 27.7365,46.9673 27.7492,46.9673 C27.7965,46.9695 27.8505,46.9680 27.9165,47.0168 C27.9870,47.0618 28.0395,47.1998 28.0327,47.3100 C28.0252,47.5860 27.8715,47.6918 27.7860,47.7563 C27.7012,47.8118 27.6360,47.8688 27.6202,47.8898 C27.6225,47.8928 27.6262,47.8973 27.6307,47.9033 C27.6495,47.9265 27.6937,47.9595 27.7447,47.9955 C27.8355,48.0668 28.0185,48.1523 28.0327,48.4710 C28.0410,48.7103 27.8655,48.8318 27.7912,48.8333 C27.7545,48.8393 27.7192,48.8453 27.6907,48.8490 C27.7140,48.8685 27.7447,48.8918 27.7785,48.9143 C27.8692,48.9855 28.0522,49.0710 28.0657,49.3905 C28.0597,49.6665 27.9045,49.7738 27.8197,49.8375 C27.7267,49.8968 27.6570,49.9605 27.6517,49.9755 C27.6540,49.9965 27.6990,50.0880 27.7950,50.2058 C27.8880,50.3310 28.0290,50.5005 28.0320,50.7960 C27.9997,51.0788 27.8820,51.0990 27.7980,51.2033 C27.7350,51.2588 27.6720,51.3233 27.6390,51.3660 C27.6675,51.3983 27.7125,51.4410 27.7597,51.4845 C27.8565,51.5970 28.0027,51.6548 28.0312,51.9578 C28.0057,52.2330 27.8827,52.2773 27.7980,52.3785 C27.7372,52.4325 27.6757,52.4948 27.6405,52.5353 C27.6682,52.5675 27.7125,52.6103 27.7590,52.6530 C27.8542,52.7678 27.9990,52.8135 28.0305,53.1195 C28.0125,53.3655 27.9112,53.4503 27.8272,53.5898 C27.7537,53.6948 27.6765,53.8065 27.6457,53.8680 C27.6465,53.8695 27.6472,53.8703 27.6487,53.8725 C27.6757,53.9063 27.7237,53.9520 27.7747,54.0015 C27.8700,54.1155 28.0147,54.1575 28.0470,54.4635 C28.0237,54.7350 27.9007,54.7913 27.8137,54.8918 C27.7642,54.9375 27.7125,54.9870 27.6757,55.0260 C27.6945,55.0373 27.7155,55.0478 27.7372,55.0590 C27.8197,55.1288 27.9885,55.1145 28.0297,55.4490 C28.0087,55.7183 27.8842,55.7828 27.7980,55.8840 C27.7357,55.9410 27.6720,56.0040 27.6360,56.0438 C27.6495,56.0595 27.6667,56.0805 27.6870,56.1008 C27.7515,56.1683 27.8377,56.2388 27.9112,56.3235 C27.9562,56.3828 28.0207,56.4420 28.0290,56.6138 C28.0312,56.7270 27.9607,56.9025 27.9607,56.9025 L27.4200,56.9025 L27.4200,56.9003 Z M27.7425,53.1015 C27.7418,53.1008 27.7418,53.1000 27.7418,53.1000 L27.7425,53.1015 Z" style="fill-rule: evenodd; fill: #737373; "/>
    <path xmlns="http://www.w3.org/2000/svg" d="  M22.7250,27.6143 L22.7250,38.6460 C23.3288,38.2868 23.9483,37.9500 24.5828,37.6395 L24.7793,37.5488 L23.8628,37.5488 C23.6333,37.5488 23.4473,37.3643 23.4473,37.1378 L23.4473,36.1028 C23.4473,35.8755 23.6333,35.6918 23.8628,35.6918 L25.3005,35.6918 C25.5308,35.6918 25.7167,35.8755 25.7167,36.1028 L25.7167,37.1190 C28.8398,35.7743 32.2792,35.0243 35.8957,35.0243 C39.7275,35.0243 43.3605,35.8680 46.6298,37.3695 C46.5825,37.3020 46.5487,37.2255 46.5487,37.1370 L46.5487,36.1020 C46.5487,35.8748 46.7340,35.6910 46.9635,35.6910 L48.4020,35.6910 C48.6315,35.6910 48.8175,35.8748 48.8175,36.1020 L48.8175,37.1370 C48.8175,37.3635 48.6315,37.5480 48.4020,37.5480 L47.0205,37.5480 C47.6370,37.8615 48.9735,38.5823 49.5383,38.9363 L49.5383,27.6135 L22.7250,27.6135 L22.7250,27.6143 Z M25.7160,33.6030 C25.7160,33.8295 25.5300,34.0132 25.2998,34.0132 L23.8620,34.0132 C23.6325,34.0132 23.4465,33.8295 23.4465,33.6030 L23.4465,32.5673 C23.4465,32.3400 23.6325,32.1570 23.8620,32.1570 L25.2998,32.1570 C25.5300,32.1570 25.7160,32.3400 25.7160,32.5673 L25.7160,33.6030 Z M25.7160,30.0675 C25.7160,30.2940 25.5300,30.4777 25.2998,30.4777 L23.8620,30.4777 C23.6325,30.4777 23.4465,30.2940 23.4465,30.0675 L23.4465,29.0318 C23.4465,28.8053 23.6325,28.6215 23.8620,28.6215 L25.2998,28.6215 C25.5300,28.6215 25.7160,28.8053 25.7160,29.0318 L25.7160,30.0675 Z M48.8160,33.6030 C48.8160,33.8295 48.6300,34.0132 48.4005,34.0132 L46.9620,34.0132 C46.7325,34.0132 46.5473,33.8295 46.5473,33.6030 L46.5473,32.5673 C46.5473,32.3400 46.7325,32.1570 46.9620,32.1570 L48.4005,32.1570 C48.6300,32.1570 48.8160,32.3400 48.8160,32.5673 L48.8160,33.6030 Z M48.8160,30.0675 C48.8160,30.2940 48.6300,30.4777 48.4005,30.4777 L46.9620,30.4777 C46.7325,30.4777 46.5473,30.2940 46.5473,30.0675 L46.5473,29.0318 C46.5473,28.8053 46.7325,28.6215 46.9620,28.6215 L48.4005,28.6215 C48.6300,28.6215 48.8160,28.8053 48.8160,29.0318 L48.8160,30.0675 Z" style="fill-rule: evenodd; fill: #ffffff; fill-opacity: 0.2510; "/>
    <path xmlns="http://www.w3.org/2000/svg" d="  M22.7250,27.6142 L22.7250,56.9010 L49.5375,56.9010 L49.5375,27.6142 L22.7250,27.6142 Z M49.3305,56.6955 L22.9313,56.6955 L22.9313,27.8205 L49.3305,27.8205 L49.3305,56.6955 Z" style="fill-rule: evenodd; fill: #333333; fill-opacity: 0.8000; "/>
    <!--converted by libvisio2svg-->
  </g>
</svg>
