<svg xmlns="http://www.w3.org/2000/svg" xmlns:xlink="http://www.w3.org/1999/xlink" version="1.1" width="0.7731000000" height="0.9444000000" viewBox="0 0 55.6627 67.9942">
  <title><![CDATA[Bluetooth]]></title>
  <g transform=" scale(1.000000) ">
    <path xmlns="http://www.w3.org/2000/svg" d="  M47.9250,9.0330 C46.8540,7.8668 45.2100,7.0433 43.1910,6.6660 C39.2400,5.9258 33.7627,6.5190 26.3392,10.1130 C17.5718,14.3580 12.0810,18.2348 4.2000,26.4840 C2.0280,28.7580 2.0940,29.9978 2.9408,30.6885 C3.9345,31.4992 4.5668,32.0475 5.3925,32.5755 C6.1298,33.1050 7.3530,33.8355 8.5110,34.1790 C9.4522,34.4573 10.4715,33.5760 11.1930,32.7990 C11.5950,32.3903 11.9400,31.9755 12.1785,31.6867 C12.2167,31.6417 12.2490,31.6028 12.2820,31.5638 C13.1985,30.5603 14.7353,28.9065 16.5600,27.1313 C17.4533,26.2688 18.4260,25.3680 19.4362,24.4920 C18.8723,29.3993 18.4320,35.4705 18.7095,40.0905 C19.2277,48.7342 22.4078,61.6358 24.2340,63.8753 C24.7620,64.5210 25.1925,64.7085 25.7092,64.9973 L29.3572,67.1603 L29.3647,67.1535 C29.5913,67.2645 29.8140,67.3200 30.0367,67.3200 C31.1003,67.3200 32.0273,66.1373 33.2378,63.2355 C34.7618,59.5793 37.2292,49.5803 38.4870,37.5893 C38.4892,37.5847 38.4915,37.5810 38.4945,37.5773 C39.1140,36.5213 39.4245,35.1802 39.5025,34.2060 C39.5798,33.2310 40.1992,32.0985 40.7415,31.0883 C41.2837,30.0773 41.9040,29.6430 44.6160,25.2105 C47.3280,20.7773 48.8032,17.0190 49.2097,14.5267 C49.5637,12.3540 49.2772,10.3650 47.9250,9.0330 Z M30.7575,53.7653 C30.1545,56.0805 29.4450,57.8730 28.3275,59.0273 C28.0755,58.6755 27.8310,58.1993 27.5805,57.5790 C26.8463,55.7617 26.6565,54.4140 26.9640,53.2088 C27.3285,51.7860 28.6425,51.1163 28.6710,51.1005 L30.8280,49.8248 C30.9127,49.7805 31.1265,49.6658 31.4070,49.5113 C31.4437,50.7285 31.0718,52.5547 30.7575,53.7653 Z M38.6610,23.3310 C38.3835,19.9035 37.9597,16.6043 37.5623,14.3377 C40.2705,13.5653 42.2332,13.3733 43.2728,13.3358 C43.5682,13.3245 43.8382,13.3320 44.0865,13.3575 C46.0605,13.9200 44.4607,16.2075 43.6207,17.5897 C42.7357,19.0440 40.3365,21.6120 38.6610,23.3310 Z" style="stroke-width: 1.5000; stroke: #8d98b5; stroke-dasharray: none; stroke-linecap: butt; stroke-linejoin: miter; fill: none; "/>
    <path xmlns="http://www.w3.org/2000/svg" d="  M53.2688,35.9145 C50.8755,40.8195 44.5447,43.2285 36.2445,43.1580 C27.9450,43.0875 17.6745,40.5383 7.4018,35.5253 C4.8338,34.2728 2.3873,32.9250 0.0810,31.5067 L1.2795,31.5067 L1.2795,5.1757 L24.7365,5.1757 L24.7365,0.0000 C35.0085,5.0122 43.3387,11.5387 48.5025,18.0375 C53.6662,24.5370 55.6627,31.0095 53.2688,35.9145 Z" style="fill-rule: evenodd; fill: #75777a; "/>
    <path xmlns="http://www.w3.org/2000/svg" d="  M2.9798,39.6623 L50.5028,39.6623 L50.5028,6.0420 L2.9798,6.0420 L2.9798,39.6623 Z" style="fill-rule: evenodd; fill: #a3a5a5; "/>
    <defs xmlns="http://www.w3.org/2000/svg" xmlns:xlink="http://www.w3.org/1999/xlink">
      <linearGradient id="grad567">
        <stop offset="0%" stop-color="#a9acac" stop-opacity="1.0000"/>
        <stop offset="100%" stop-color="#383b3c" stop-opacity="1.0000"/>
      </linearGradient>
      <linearGradient xlink:href="#grad567" id="grad568" x1="0" y1="0" x2="0" y2="1" gradientTransform="rotate(180 .5 .5)" gradientUnits="objectBoundingBox">
  </linearGradient>
    </defs>
    <path xmlns="http://www.w3.org/2000/svg" d="  M38.4712,29.4630 C37.6898,29.4368 37.5210,28.8743 37.5233,28.4768 C37.5278,27.7755 37.9583,26.9422 38.8515,25.8735 C39.0278,25.6650 39.3412,25.3335 39.7762,24.8753 C41.2538,23.3160 44.0033,20.4173 45.2955,18.0405 C45.6195,17.4458 46.3433,15.9368 46.0740,14.7840 C45.8362,13.7633 44.8935,13.2750 43.2720,13.3358 C41.2245,13.4108 35.6100,14.0760 27.7582,18.6090 C26.0723,19.5833 24.3667,20.6880 22.6935,21.8940 C18.4200,24.9720 14.0850,29.5680 12.4215,31.4010 C12.3615,31.4678 12.2798,31.5668 12.1793,31.6868 C11.7060,32.2583 10.8233,33.3218 9.8910,33.8595 C9.2835,34.2098 8.7510,34.2878 8.3063,34.0913 C7.6388,33.7958 7.3350,33.6383 7.0403,33.4860 C6.8963,33.4125 6.7560,33.3398 6.5768,33.2535 C5.8530,32.9048 5.5455,32.3618 5.6618,31.6410 C5.7720,30.9675 6.2415,30.1815 7.0590,29.3033 C14.0153,21.8453 19.2045,17.4435 24.9720,14.1150 C26.3813,13.3005 27.8123,12.5572 29.3453,11.8425 C35.6213,8.9168 40.3275,8.0063 45.0795,8.7990 C46.8128,9.0878 47.9633,10.4445 48.2378,12.5213 C48.4793,14.3558 47.9963,16.5255 46.9110,18.4740 C45.9698,20.1638 45.3187,21.0315 44.4173,22.2345 C44.2357,22.4768 44.0422,22.7348 43.8322,23.0175 L43.6020,23.3273 C42.9690,24.1785 42.3135,25.0598 41.6205,26.2170 L41.5245,26.3760 C40.7235,27.7185 40.0868,28.8188 39.2475,29.3025 C39.2490,29.3025 38.9527,29.4795 38.4712,29.4630 Z" style="fill-rule: evenodd; fill: url(#grad568); "/>
    <path xmlns="http://www.w3.org/2000/svg" d="  M46.5877,26.7188 C43.7955,33.3173 31.4152,34.3853 18.9352,29.1038 C12.6960,26.4630 7.6125,22.7355 4.4385,18.8423 C1.2652,14.9498 0.0000,10.8923 1.3957,7.5930 L4.3065,7.7445 L29.0482,7.7445 L29.0482,5.2088 C41.5275,10.4895 49.3807,20.1203 46.5877,26.7188 Z" style="fill-rule: evenodd; fill: #474c4f; fill-opacity: 0.6314; "/>
    <path xmlns="http://www.w3.org/2000/svg" d="  M41.0333,9.1688 C36.5655,9.5415 29.7413,11.1780 20.9985,17.4990 C15.5663,21.4282 7.3500,29.7120 6.5498,31.5547 C6.1418,32.4930 7.1288,33.0502 7.1288,33.0502 L6.1463,32.3985 C6.1463,32.3985 5.4720,31.3245 7.1993,29.5042 C15.0990,21.1823 21.0428,15.9773 29.3100,12.1748 C39.5948,7.4445 44.8905,9.1590 44.8905,9.1590 C44.8905,9.1590 42.5108,9.0458 41.0333,9.1688 Z" style="fill-rule: evenodd; fill: #ffffff; fill-opacity: 0.2118; "/>
    <defs xmlns="http://www.w3.org/2000/svg">
      <radialGradient id="grad569" cx="50.0000%" cy="50.0000%" r="100.0000%">
        <stop offset="0%" stop-color="#b5b9b8" stop-opacity="1.0000"/>
        <stop offset="100%" stop-color="#252527" stop-opacity="1.0000"/>
      </radialGradient>
    </defs>
    <path xmlns="http://www.w3.org/2000/svg" d="  M28.3433,65.9295 C26.5155,63.6900 23.3363,50.7885 22.8188,42.1455 C22.2983,33.4545 24.3128,19.6230 24.9165,18.0773 C25.3492,16.9695 27.3120,15.9803 27.3120,15.9803 C27.3120,15.9803 32.5815,12.9990 33.9600,12.2258 C35.0070,11.6378 36.5318,11.1397 36.5318,11.1397 L32.3505,9.3323 C31.7618,9.1035 30.9975,9.5303 29.8522,10.1722 C28.4737,10.9455 23.2058,13.9268 23.2058,13.9268 C23.2058,13.9268 21.2415,14.9160 20.8103,16.0230 C20.2065,17.5688 18.1898,31.4003 18.7117,40.0905 C19.2300,48.7342 22.4100,61.6358 24.2362,63.8753 C24.7642,64.5210 25.1947,64.7085 25.7115,64.9973 L29.3595,67.1603 L29.5740,66.9750 C29.1840,66.8175 28.7798,66.4635 28.3433,65.9295 Z" style="fill-rule: evenodd; fill: url(#grad569); "/>
    <defs xmlns="http://www.w3.org/2000/svg" xmlns:xlink="http://www.w3.org/1999/xlink">
      <linearGradient id="grad570">
        <stop offset="0%" stop-color="#91949b" stop-opacity="1.0000"/>
        <stop offset="100%" stop-color="#ffffff" stop-opacity="1.0000"/>
      </linearGradient>
      <linearGradient xlink:href="#grad570" id="grad571" x1="0" y1="0" x2="0" y2="1" gradientTransform="rotate(135 .5 .5)" gradientUnits="objectBoundingBox">
  </linearGradient>
    </defs>
    <path xmlns="http://www.w3.org/2000/svg" d="  M36.6330,11.5582 C36.2002,10.9328 35.2590,11.4975 33.9608,12.2257 C32.5822,12.9990 30.7207,13.9890 30.7207,13.9890 L27.3127,15.9803 C27.3127,15.9803 25.3500,16.9695 24.9173,18.0773 C24.3135,19.6230 22.2990,33.4545 22.8195,42.1455 C23.3370,50.7885 26.5170,63.6900 28.3440,65.9295 C30.0285,67.9942 31.2428,67.3815 33.0120,63.1402 C34.5788,59.3857 37.5277,47.6543 38.6235,33.3893 C39.1920,25.9732 37.3642,12.6143 36.6330,11.5582 Z M34.2052,53.6018 C33.4418,56.5328 32.5110,58.6320 30.7927,59.6497 C29.0745,60.6690 28.1528,59.6528 27.3525,57.6712 C26.5515,55.6898 26.4225,54.3353 26.7255,53.1480 C27.1230,51.5918 28.5458,50.8883 28.5458,50.8883 L30.7155,49.6065 C30.9030,49.5083 31.7985,49.0208 32.6468,48.5325 C34.0673,47.7180 34.1310,47.9707 34.4273,48.1185 C35.2845,48.5460 34.6792,51.7755 34.2052,53.6018 Z" style="fill-rule: evenodd; fill: url(#grad571); "/>
    <defs xmlns="http://www.w3.org/2000/svg" xmlns:xlink="http://www.w3.org/1999/xlink">
      <linearGradient id="grad572">
        <stop offset="0%" stop-color="#91949b" stop-opacity="1.0000"/>
        <stop offset="100%" stop-color="#e7e7e5" stop-opacity="1.0000"/>
      </linearGradient>
      <linearGradient xlink:href="#grad572" id="grad573" x1="0" y1="0" x2="0" y2="1" gradientTransform="rotate(135 .5 .5)" gradientUnits="objectBoundingBox">
  </linearGradient>
    </defs>
    <path xmlns="http://www.w3.org/2000/svg" d="  M36.8347,11.4180 C36.6630,11.1690 36.4163,11.0423 36.1050,11.0423 C35.5620,11.0423 34.8690,11.4330 33.9907,11.9257 L33.8392,12.0113 C32.4795,12.7733 30.6233,13.7610 30.5970,13.7768 L27.2017,15.7605 C27.1185,15.8025 25.1498,16.8060 24.6877,17.9880 C24.1013,19.4910 22.0485,33.4043 22.5728,42.1598 C23.1075,51.0630 26.3047,63.8190 28.1527,66.0855 C28.8405,66.9270 29.4398,67.3200 30.0382,67.3200 C31.1017,67.3200 32.0288,66.1373 33.2393,63.2355 C34.9387,59.1607 37.8090,47.2133 38.8695,33.4080 C39.4380,25.9913 37.5893,12.5062 36.8347,11.4180 Z M34.2053,53.6018 C33.4418,56.5327 32.5110,58.6320 30.7928,59.6497 C29.0745,60.6690 28.1527,59.6528 27.3525,57.6712 C26.5515,55.6897 26.4225,54.3352 26.7255,53.1480 C27.1230,51.5918 28.5457,50.8882 28.5457,50.8882 L30.7155,49.6065 C30.9030,49.5083 31.7985,49.0207 32.6468,48.5325 C34.0673,47.7180 34.1310,47.9707 34.4273,48.1185 C35.2845,48.5460 34.6793,51.7755 34.2053,53.6018 Z" style="fill-rule: evenodd; fill: url(#grad573); "/>
    <defs xmlns="http://www.w3.org/2000/svg" xmlns:xlink="http://www.w3.org/1999/xlink">
      <linearGradient id="grad574">
        <stop offset="0%" stop-color="#252527" stop-opacity="1.0000"/>
        <stop offset="100%" stop-color="#b5b9b8" stop-opacity="1.0000"/>
      </linearGradient>
      <linearGradient xlink:href="#grad574" id="grad575" x1="0" y1="0" x2="0" y2="1" gradientTransform="rotate(45 .5 .5)" gradientUnits="objectBoundingBox">
  </linearGradient>
    </defs>
    <path xmlns="http://www.w3.org/2000/svg" d="  M34.4265,48.1193 C34.1295,47.9715 34.0665,47.7188 32.6460,48.5332 C32.2050,48.7868 31.7535,49.0403 31.3920,49.2383 C31.5015,50.4412 31.0957,52.4617 30.7567,53.7652 C30.1230,56.2005 29.3715,58.0582 28.1505,59.2020 C28.8000,60.0863 29.6055,60.3533 30.7912,59.6498 C32.5095,58.6320 33.4403,56.5328 34.2037,53.6018 C34.6793,51.7755 35.2845,48.5460 34.4265,48.1193 Z" style="fill-rule: evenodd; fill: url(#grad575); "/>
    <defs xmlns="http://www.w3.org/2000/svg">
      <radialGradient id="grad576" cx="50.0000%" cy="50.0000%" r="100.0000%">
        <stop offset="0%" stop-color="#252626" stop-opacity="0.6196"/>
        <stop offset="100%" stop-color="#676969" stop-opacity="0.6196"/>
      </radialGradient>
    </defs>
    <path xmlns="http://www.w3.org/2000/svg" d="  M30.0382,67.3208 C29.4398,67.3208 28.8405,66.9278 28.1528,66.0863 C26.3040,63.8198 23.1068,51.0638 22.5728,42.1605 C22.0493,33.4050 24.1013,19.4918 24.6878,17.9888 C25.1490,16.8068 27.1178,15.8033 27.2018,15.7612 L30.5970,13.7775 C30.6233,13.7625 32.4795,12.7747 33.8393,12.0120 L33.9908,11.9265 C34.8690,11.4330 35.5628,11.0430 36.1050,11.0430 C36.4163,11.0430 36.6622,11.1698 36.8347,11.4188 C37.5893,12.5070 39.4380,25.9913 38.8687,33.4088 C37.8082,47.2132 34.9380,59.1615 33.2385,63.2363 C32.0288,66.1373 31.1018,67.3208 30.0382,67.3208 Z M34.0155,48.2085 C33.8085,48.2085 33.4005,48.3840 32.7698,48.7470 C31.9230,49.2338 31.0268,49.7228 30.8280,49.8255 L28.6710,51.1013 C28.6425,51.1170 27.3285,51.7860 26.9640,53.2095 C26.6565,54.4148 26.8463,55.7625 27.5805,57.5798 C28.2113,59.1405 28.8060,59.8058 29.5650,59.8058 C29.8868,59.8058 30.2573,59.6828 30.6675,59.4398 C32.1488,58.5608 33.1050,56.8515 33.9668,53.5395 C34.6733,50.8283 34.8240,48.5925 34.3185,48.3405 C34.2788,48.3210 34.2413,48.2992 34.2075,48.2783 C34.1228,48.2280 34.0860,48.2085 34.0155,48.2085 Z" style="fill-rule: evenodd; fill: url(#grad576); "/>
    <defs xmlns="http://www.w3.org/2000/svg">
      <radialGradient id="grad577" cx="50.0000%" cy="50.0000%" r="100.0000%">
        <stop offset="0%" stop-color="#797b7a" stop-opacity="1.0000"/>
        <stop offset="100%" stop-color="#0e0f14" stop-opacity="1.0000"/>
      </radialGradient>
    </defs>
    <path xmlns="http://www.w3.org/2000/svg" d="  M36.6330,11.5582 C36.2002,10.9328 35.2590,11.4975 33.9608,12.2257 C32.5822,12.9990 30.7207,13.9890 30.7207,13.9890 L27.3127,15.9803 C27.3127,15.9803 25.3500,16.9695 24.9173,18.0773 C24.3135,19.6230 22.2990,33.4545 22.8195,42.1455 C23.3370,50.7885 26.5170,63.6900 28.3440,65.9295 C30.0285,67.9942 31.2428,67.3815 33.0120,63.1402 C34.5788,59.3857 37.5277,47.6543 38.6235,33.3893 C39.1920,25.9732 37.3642,12.6143 36.6330,11.5582 Z M34.2052,53.6018 C33.4418,56.5328 32.5110,58.6320 30.7927,59.6497 C29.0745,60.6690 28.1528,59.6528 27.3525,57.6712 C26.5515,55.6898 26.4225,54.3353 26.7255,53.1480 C27.1230,51.5918 28.5458,50.8883 28.5458,50.8883 L30.7155,49.6065 C30.9030,49.5083 31.7985,49.0208 32.6468,48.5325 C34.0673,47.7180 34.1310,47.9707 34.4273,48.1185 C35.2845,48.5460 34.6792,51.7755 34.2052,53.6018 Z" style="fill-rule: evenodd; fill: url(#grad577); "/>
    <defs xmlns="http://www.w3.org/2000/svg" xmlns:xlink="http://www.w3.org/1999/xlink">
      <linearGradient id="grad578">
        <stop offset="0%" stop-color="#ffffff" stop-opacity="1.0000"/>
        <stop offset="100%" stop-color="#38363d" stop-opacity="1.0000"/>
      </linearGradient>
      <linearGradient xlink:href="#grad578" id="grad579" x1="0" y1="0" x2="0" y2="1" gradientTransform="rotate(180 .5 .5)" gradientUnits="objectBoundingBox">
  </linearGradient>
    </defs>
    <path xmlns="http://www.w3.org/2000/svg" d="  M35.2545,14.1195 C34.9425,13.7820 34.2668,14.1855 33.3330,14.7127 C32.3415,15.2715 31.0043,15.9938 31.0043,15.9938 L28.5533,17.4225 C28.5533,17.4225 27.1455,18.0968 26.8313,18.8378 C26.4195,19.8090 25.0320,28.9530 25.3223,33.2025 C25.6140,37.4918 26.3355,39.6705 27.2295,42.4853 C27.9233,44.6678 28.8758,46.2323 29.4300,46.7903 C30.6923,48.0638 31.2360,47.6573 32.6505,44.8410 C33.2423,43.6643 34.0658,41.2537 34.8368,38.0610 C35.5905,34.9372 36.3113,31.5128 36.6848,26.8598 C37.0388,22.4663 35.7803,14.6895 35.2545,14.1195 Z" style="fill-rule: evenodd; fill: url(#grad579); "/>
    <defs xmlns="http://www.w3.org/2000/svg" xmlns:xlink="http://www.w3.org/1999/xlink">
      <linearGradient id="grad580">
        <stop offset="0%" stop-color="#7f8385" stop-opacity="0.7216"/>
        <stop offset="100%" stop-color="#c4c7c8" stop-opacity="0.7216"/>
      </linearGradient>
      <linearGradient xlink:href="#grad580" id="grad581" x1="0" y1="0" x2="0" y2="1" gradientTransform="rotate(315 .5 .5)" gradientUnits="objectBoundingBox">
  </linearGradient>
    </defs>
    <path xmlns="http://www.w3.org/2000/svg" d="  M34.5907,15.2685 C34.2968,14.9505 33.6690,15.3255 32.7983,15.8168 C31.8742,16.3373 30.6277,17.0092 30.6277,17.0092 L28.3455,18.3405 C28.3455,18.3405 26.8920,19.3470 26.6010,20.0415 C26.2200,20.9513 25.0245,29.2725 25.3125,33.2632 C25.6035,37.2908 26.1825,39.2880 27.0307,41.9347 C27.6877,43.9860 28.4850,45.5295 29.0040,46.0560 C30.1875,47.2567 30.9765,46.7362 32.2852,44.0993 C32.8335,42.9960 33.5932,40.7385 34.2990,37.7430 C34.9920,34.8143 35.6505,31.6020 35.9797,27.2347 C36.2925,23.1113 35.0842,15.8048 34.5907,15.2685 Z" style="fill-rule: evenodd; fill: url(#grad581); "/>
    <defs xmlns="http://www.w3.org/2000/svg" xmlns:xlink="http://www.w3.org/1999/xlink">
      <linearGradient id="grad582">
        <stop offset="0%" stop-color="#67696e" stop-opacity="1.0000"/>
        <stop offset="100%" stop-color="#e7e7e5" stop-opacity="1.0000"/>
      </linearGradient>
      <linearGradient xlink:href="#grad582" id="grad583" x1="0" y1="0" x2="0" y2="1" gradientTransform="rotate(-0 .5 .5)" gradientUnits="objectBoundingBox">
  </linearGradient>
    </defs>
    <path xmlns="http://www.w3.org/2000/svg" d="  M34.4520,27.8295 C34.4513,32.3032 32.8530,36.4830 30.8805,37.1625 C28.9095,37.8443 27.3113,34.7693 27.3113,30.2948 C27.3105,25.8210 28.9095,21.6420 30.8805,20.9610 C32.8530,20.2808 34.4520,23.3550 34.4520,27.8295 Z" style="fill-rule: evenodd; fill: url(#grad583); "/>
    <defs xmlns="http://www.w3.org/2000/svg">
      <radialGradient id="grad584" cx="0.0000%" cy="100.0000%" r="100.0000%">
        <stop offset="0%" stop-color="#303548" stop-opacity="1.0000"/>
        <stop offset="100%" stop-color="#0a0f2b" stop-opacity="1.0000"/>
      </radialGradient>
    </defs>
    <path xmlns="http://www.w3.org/2000/svg" d="  M33.7163,28.0305 C33.7163,32.1585 32.4330,35.9490 30.8505,36.4950 C29.2688,37.0418 27.9847,34.1385 27.9847,30.0105 C27.9847,25.8825 29.2687,22.0920 30.8505,21.5460 C32.4330,20.9985 33.7163,23.9018 33.7163,28.0305 Z" style="fill-rule: evenodd; fill: url(#grad584); "/>
    <defs xmlns="http://www.w3.org/2000/svg" xmlns:xlink="http://www.w3.org/1999/xlink">
      <linearGradient id="grad585">
        <stop offset="0%" stop-color="#1c2d81" stop-opacity="0.6118"/>
        <stop offset="100%" stop-color="#3e445d" stop-opacity="0.6118"/>
      </linearGradient>
      <linearGradient xlink:href="#grad585" id="grad586" x1="0" y1="0" x2="0" y2="1" gradientTransform="rotate(180 .5 .5)" gradientUnits="objectBoundingBox">
  </linearGradient>
    </defs>
    <path xmlns="http://www.w3.org/2000/svg" d="  M33.6795,28.1992 C33.6795,32.2312 32.3790,35.9190 31.0237,36.4538 C29.6663,36.9870 28.7670,34.1647 28.7670,30.1327 C28.7670,26.1008 29.8672,22.3995 31.2225,21.8655 C32.5800,21.3315 33.6795,24.1673 33.6795,28.1992 Z" style="fill-rule: evenodd; fill: url(#grad586); "/>
    <defs xmlns="http://www.w3.org/2000/svg" xmlns:xlink="http://www.w3.org/1999/xlink">
      <linearGradient id="grad587">
        <stop offset="0%" stop-color="#2e4495" stop-opacity="0.7294"/>
        <stop offset="100%" stop-color="#4695c3" stop-opacity="0.7294"/>
      </linearGradient>
      <linearGradient xlink:href="#grad587" id="grad588" x1="0" y1="0" x2="0" y2="1" gradientTransform="rotate(180 .5 .5)" gradientUnits="objectBoundingBox">
  </linearGradient>
    </defs>
    <path xmlns="http://www.w3.org/2000/svg" d="  M30.6300,36.3750 C28.5952,36.3750 28.3762,31.9110 28.3762,29.9917 C28.3762,26.5223 29.2703,22.4828 30.9270,21.8332 C31.0958,21.7680 31.2713,21.7343 31.4520,21.7343 C33.2550,21.7343 33.8955,25.1790 33.8955,28.1295 C33.8955,32.0288 32.6647,35.6828 31.1498,36.2753 C30.9817,36.3413 30.8055,36.3750 30.6300,36.3750 Z" style="fill-rule: evenodd; fill: url(#grad588); "/>
    <defs xmlns="http://www.w3.org/2000/svg">
      <radialGradient id="grad589" cx="0.0000%" cy="100.0000%" r="100.0000%">
        <stop offset="0%" stop-color="#5ad7e8" stop-opacity="0.6118"/>
        <stop offset="100%" stop-color="#2e4495" stop-opacity="0.6118"/>
      </radialGradient>
    </defs>
    <path xmlns="http://www.w3.org/2000/svg" d="  M33.9180,28.1978 C33.9180,32.1278 32.5598,35.7225 31.1415,36.2430 C29.7262,36.7628 28.7850,34.0118 28.7850,30.0825 C28.7850,26.1533 29.9333,22.5450 31.3515,22.0245 C32.7690,21.5040 33.9180,24.2685 33.9180,28.1978 Z" style="fill-rule: evenodd; fill: url(#grad589); "/>
    <path xmlns="http://www.w3.org/2000/svg" d="  M31.9890,28.6822 L33.5985,25.6335 L31.1978,24.7087 L31.1798,28.2622 L29.8987,27.5820 L29.5620,28.2345 L31.0943,29.0940 L29.3340,32.4578 L30.0428,32.8740 L31.2360,30.3975 L31.2188,34.5743 L33.7035,29.5102 L31.9890,28.6822 Z M31.8225,25.6500 L32.6910,25.9905 L31.8188,27.4950 L31.8225,25.6500 Z M31.8855,29.4683 L32.8320,29.9160 L31.8600,31.8975 L31.8855,29.4683 Z" style="fill-rule: evenodd; fill: #1f39a4; fill-opacity: 0.6706; "/>
    <path xmlns="http://www.w3.org/2000/svg" d="  M31.4970,28.1895 L33.1065,25.1408 L30.7057,24.2160 L30.6877,27.7703 L29.4067,27.0908 L29.0692,27.7418 L30.6030,28.6020 L28.8412,31.9658 L29.5492,32.3828 L30.7440,29.9055 L30.7252,34.0823 L33.2100,29.0190 L31.4970,28.1895 Z M31.3297,25.1573 L32.1990,25.4978 L31.3267,27.0023 L31.3297,25.1573 Z M31.3935,28.9763 L32.3377,29.4240 L31.3672,31.4063 L31.3935,28.9763 Z" style="fill-rule: evenodd; fill: #ffffff; fill-opacity: 0.8510; "/>
    <!--converted by libvisio2svg-->
  </g>
</svg>
