<svg xmlns="http://www.w3.org/2000/svg" xmlns:xlink="http://www.w3.org/1999/xlink" version="1.1" width="0.3364000000" height="0.8567000000" viewBox="0 0 24.2228 61.6815">
  <title><![CDATA[Cell Phone]]></title>
  <g transform=" scale(1.000000) ">
    <path xmlns="http://www.w3.org/2000/svg" d="  M24.2220,24.7268 C24.2220,22.9860 24.0577,21.4552 23.8095,20.5620 L23.8095,18.6293 C23.8087,13.3215 20.5823,7.1565 16.6020,4.8585 L10.1160,1.1137 C8.2283,0.0240 6.5122,0.0000 5.2267,0.8408 L2.7682,2.2627 C1.0830,3.0488 0.0015,5.1600 0.0000,8.2342 L0.0000,41.8688 C0.0000,47.1757 3.2273,53.3415 7.2075,55.6395 L13.6935,59.3843 C15.4905,60.4215 17.1330,60.4935 18.3960,59.7720 L21.3758,58.0583 C22.8690,57.1590 23.8103,55.1303 23.8095,52.2638 L23.8103,28.8930 C24.0585,27.9990 24.2220,26.4675 24.2220,24.7268 Z" style="stroke-width: 1.5000; stroke: #8d98b5; stroke-dasharray: none; stroke-linecap: butt; stroke-linejoin: miter; fill: none; "/>
    <defs xmlns="http://www.w3.org/2000/svg" xmlns:xlink="http://www.w3.org/1999/xlink">
      <linearGradient id="grad648">
        <stop offset="0%" stop-color="#f3f9f7" stop-opacity="1.0000"/>
        <stop offset="100%" stop-color="#656d6d" stop-opacity="1.0000"/>
      </linearGradient>
      <linearGradient xlink:href="#grad648" id="grad649" x1="0" y1="0" x2="0" y2="1" gradientTransform="rotate(-0 .5 .5)" gradientUnits="objectBoundingBox">
  </linearGradient>
    </defs>
    <path xmlns="http://www.w3.org/2000/svg" d="  M16.6020,4.8585 L10.1160,1.1137 C8.2283,0.0240 6.5123,0.0000 5.2268,0.8408 L2.7682,2.2627 C1.0830,3.0488 0.0015,5.1600 0.0000,8.2342 L0.0000,41.8688 C0.0000,47.1757 3.2273,53.3415 7.2075,55.6395 L13.6935,59.3843 C15.4905,60.4215 17.1330,60.4935 18.3960,59.7720 L21.3758,58.0583 C22.8690,57.1590 23.8103,55.1303 23.8095,52.2638 L23.8103,18.6293 C23.8095,13.3215 20.5830,7.1565 16.6020,4.8585 Z" style="fill-rule: evenodd; fill: url(#grad649); "/>
    <defs xmlns="http://www.w3.org/2000/svg" xmlns:xlink="http://www.w3.org/1999/xlink">
      <linearGradient id="grad650">
        <stop offset="0%" stop-color="#ededed" stop-opacity="1.0000"/>
        <stop offset="100%" stop-color="#7f8787" stop-opacity="1.0000"/>
      </linearGradient>
      <linearGradient xlink:href="#grad650" id="grad651" x1="0" y1="0" x2="0" y2="1" gradientTransform="rotate(135 .5 .5)" gradientUnits="objectBoundingBox">
  </linearGradient>
    </defs>
    <path xmlns="http://www.w3.org/2000/svg" d="  M20.9018,53.9355 C20.9018,59.2425 17.6745,61.6815 13.6943,59.3843 L7.2083,55.6395 C3.2273,53.3415 0.0008,47.1758 0.0008,41.8687 L0.0008,8.2342 C0.0008,2.9273 3.2280,0.4875 7.2083,2.7855 L13.6943,6.5310 C17.6753,8.8290 20.9018,14.9947 20.9018,20.3018 L20.9018,53.9355 Z" style="fill-rule: evenodd; fill: url(#grad651); "/>
    <path xmlns="http://www.w3.org/2000/svg" d="  M6.3938,32.4203 C6.3938,33.2160 5.6670,33.4425 4.7715,32.9250 C3.8768,32.4090 3.1508,31.3433 3.1508,30.5475 C3.1508,29.7518 3.8768,29.5253 4.7715,30.0420 C5.6670,30.5588 6.3938,31.6230 6.3938,32.4203 Z" style="fill-rule: evenodd; fill: #333333; "/>
    <defs xmlns="http://www.w3.org/2000/svg">
      <radialGradient id="grad652" cx="0.0000%" cy="0.0000%" r="100.0000%">
        <stop offset="0%" stop-color="#669999" stop-opacity="1.0000"/>
        <stop offset="100%" stop-color="#ffffff" stop-opacity="1.0000"/>
      </radialGradient>
    </defs>
    <path xmlns="http://www.w3.org/2000/svg" d="  M4.7715,32.5388 C4.1175,32.1608 3.5850,31.3800 3.5850,30.7980 C3.5850,30.2168 4.1175,30.0510 4.7715,30.4283 C5.4270,30.8063 5.9595,31.5885 5.9595,32.1683 C5.9595,32.7510 5.4270,32.9168 4.7715,32.5388 Z" style="fill-rule: evenodd; fill: url(#grad652); "/>
    <path xmlns="http://www.w3.org/2000/svg" d="  M17.7518,38.9768 C17.7503,39.7740 17.0250,39.9990 16.1295,39.4823 C15.2340,38.9655 14.5080,37.9005 14.5080,37.1048 C14.5080,36.3083 15.2340,36.0825 16.1295,36.5993 C17.0250,37.1160 17.7518,38.1810 17.7518,38.9768 Z" style="fill-rule: evenodd; fill: #333333; "/>
    <defs xmlns="http://www.w3.org/2000/svg">
      <radialGradient id="grad653" cx="0.0000%" cy="0.0000%" r="100.0000%">
        <stop offset="0%" stop-color="#669999" stop-opacity="1.0000"/>
        <stop offset="100%" stop-color="#ffffff" stop-opacity="1.0000"/>
      </radialGradient>
    </defs>
    <path xmlns="http://www.w3.org/2000/svg" d="  M16.1303,39.0953 C15.4755,38.7173 14.9430,37.9380 14.9430,37.3560 C14.9430,36.7748 15.4755,36.6090 16.1303,36.9863 C16.7843,37.3643 17.3160,38.1443 17.3160,38.7263 C17.3160,39.3075 16.7843,39.4733 16.1303,39.0953 Z" style="fill-rule: evenodd; fill: url(#grad653); "/>
    <path xmlns="http://www.w3.org/2000/svg" d="  M7.1145,36.1995 C7.1145,36.9953 6.3878,37.2218 5.4930,36.7050 C4.5975,36.1875 3.8715,35.1233 3.8715,34.3268 C3.8715,33.5303 4.5975,33.3045 5.4930,33.8213 C6.3878,34.3387 7.1145,35.4030 7.1145,36.1995 Z" style="fill-rule: evenodd; fill: #333333; "/>
    <defs xmlns="http://www.w3.org/2000/svg">
      <radialGradient id="grad654" cx="0.0000%" cy="0.0000%" r="100.0000%">
        <stop offset="0%" stop-color="#669999" stop-opacity="1.0000"/>
        <stop offset="100%" stop-color="#ffffff" stop-opacity="1.0000"/>
      </radialGradient>
    </defs>
    <path xmlns="http://www.w3.org/2000/svg" d="  M5.4930,36.3180 C4.8383,35.9408 4.3050,35.1593 4.3050,34.5780 C4.3050,33.9968 4.8383,33.8303 5.4923,34.2075 C6.1478,34.5863 6.6803,35.3678 6.6803,35.9483 C6.6803,36.5303 6.1478,36.6960 5.4930,36.3180 Z" style="fill-rule: evenodd; fill: url(#grad654); "/>
    <path xmlns="http://www.w3.org/2000/svg" d="  M17.0310,41.9235 C17.0310,42.7208 16.3050,42.9458 15.4103,42.4290 C14.5148,41.9123 13.7880,40.8480 13.7880,40.0515 C13.7880,39.2542 14.5148,39.0293 15.4088,39.5460 C16.3050,40.0635 17.0310,41.1278 17.0310,41.9235 Z" style="fill-rule: evenodd; fill: #333333; "/>
    <defs xmlns="http://www.w3.org/2000/svg">
      <radialGradient id="grad655" cx="0.0000%" cy="0.0000%" r="100.0000%">
        <stop offset="0%" stop-color="#669999" stop-opacity="1.0000"/>
        <stop offset="100%" stop-color="#ffffff" stop-opacity="1.0000"/>
      </radialGradient>
    </defs>
    <path xmlns="http://www.w3.org/2000/svg" d="  M15.4095,42.0428 C14.7548,41.6648 14.2223,40.8848 14.2223,40.3028 C14.2223,39.7215 14.7548,39.5565 15.4095,39.9338 C16.0635,40.3118 16.5953,41.0925 16.5953,41.6738 C16.5953,42.2550 16.0643,42.4208 15.4095,42.0428 Z" style="fill-rule: evenodd; fill: url(#grad655); "/>
    <path xmlns="http://www.w3.org/2000/svg" d="  M12.9728,38.2703 C12.9735,40.1280 11.8433,40.9808 10.4513,40.1775 C9.0578,39.3720 7.9283,37.2150 7.9283,35.3565 C7.9283,33.4988 9.0578,32.6460 10.4513,33.4493 C11.8440,34.2555 12.9735,36.4133 12.9728,38.2703 Z" style="fill-rule: evenodd; fill: #333333; "/>
    <defs xmlns="http://www.w3.org/2000/svg">
      <radialGradient id="grad656" cx="100.0000%" cy="0.0000%" r="100.0000%">
        <stop offset="0%" stop-color="#669999" stop-opacity="1.0000"/>
        <stop offset="100%" stop-color="#ffffff" stop-opacity="1.0000"/>
      </radialGradient>
    </defs>
    <path xmlns="http://www.w3.org/2000/svg" d="  M10.4498,39.6960 C9.2580,39.0083 8.2890,37.1543 8.2875,35.5658 C8.2890,33.9765 9.2580,33.2423 10.4498,33.9315 C11.6430,34.6193 12.6135,36.4733 12.6135,38.0625 C12.6135,39.6518 11.6430,40.3845 10.4498,39.6960 Z" style="fill-rule: evenodd; fill: url(#grad656); "/>
    <path xmlns="http://www.w3.org/2000/svg" d="  M10.4513,37.8488 C10.0230,37.6013 9.6750,36.9360 9.6750,36.3660 C9.6750,35.7953 10.0230,35.5328 10.4513,35.7795 C10.8788,36.0263 11.2268,36.6915 11.2268,37.2623 C11.2268,37.8330 10.8788,38.0955 10.4513,37.8488 Z" style="fill-rule: evenodd; fill: #ffffff; "/>
    <path xmlns="http://www.w3.org/2000/svg" d="  M10.9793,35.5380 L9.9210,34.9260 L10.4483,34.2983 L10.9793,35.5380 Z" style="fill-rule: evenodd; fill: #333333; "/>
    <path xmlns="http://www.w3.org/2000/svg" d="  M11.0348,38.5545 L9.9758,37.9440 L10.5038,39.1808 L11.0348,38.5545 Z" style="fill-rule: evenodd; fill: #333333; "/>
    <path xmlns="http://www.w3.org/2000/svg" d="  M9.3593,35.4255 L9.3585,36.8370 L8.6588,35.7300 L9.3593,35.4255 Z" style="fill-rule: evenodd; fill: #333333; "/>
    <path xmlns="http://www.w3.org/2000/svg" d="  M11.5973,36.6443 L11.5980,38.0565 L12.2970,37.7565 L11.5973,36.6443 Z" style="fill-rule: evenodd; fill: #333333; "/>
    <path xmlns="http://www.w3.org/2000/svg" d="  M18.0180,34.1130 C18.0180,35.7052 17.0513,36.4365 15.8558,35.7480 L5.0460,29.5065 C3.8505,28.8165 2.8830,26.9670 2.8830,25.3747 L2.8830,8.0775 C2.8830,6.4853 3.8505,5.7533 5.0453,6.4432 L15.8558,12.6847 C17.0505,13.3740 18.0180,15.2243 18.0180,16.8165 L18.0180,34.1130 Z" style="fill-rule: evenodd; fill: #ffffff; "/>
    <path xmlns="http://www.w3.org/2000/svg" d="  M17.9902,44.8065 L2.9123,36.1012 C2.7135,35.9873 2.5523,36.1088 2.5523,36.3735 L2.5523,43.7092 C2.5523,47.0303 4.8157,51.0375 7.3057,52.4752 L13.5975,56.1083 C16.0875,57.5468 18.3510,56.1525 18.3510,52.8315 L18.3510,45.4958 C18.3495,45.2303 18.1890,44.9213 17.9902,44.8065 Z" style="fill-rule: evenodd; fill: #7f8787; "/>
    <path xmlns="http://www.w3.org/2000/svg" d="  M12.8985,48.1785 C12.8978,48.4140 12.7410,48.5153 12.5490,48.4043 L8.3528,45.9825 C8.1600,45.8723 8.0040,45.5902 8.0040,45.3533 L8.0040,43.2157 C8.0040,42.9788 8.1600,42.8775 8.3528,42.9892 L12.5483,45.4110 C12.7410,45.5220 12.8985,45.8032 12.8985,46.0402 L12.8985,48.1785 Z" style="fill-rule: evenodd; fill: #ffffff; "/>
    <path xmlns="http://www.w3.org/2000/svg" d="  M7.6553,45.1508 C7.6545,45.3870 7.4993,45.4890 7.3050,45.3765 L3.1103,42.9548 C2.9168,42.8438 2.7608,42.5625 2.7608,42.3248 L2.7608,40.1873 C2.7608,39.9518 2.9168,39.8505 3.1103,39.9615 L7.3050,42.3833 C7.4985,42.4943 7.6553,42.7770 7.6553,43.0133 L7.6553,45.1508 Z" style="fill-rule: evenodd; fill: #ffffff; "/>
    <path xmlns="http://www.w3.org/2000/svg" d="  M18.1410,51.2055 C18.1403,51.4418 17.9843,51.5430 17.7915,51.4313 L13.5960,49.0095 C13.4033,48.8985 13.2465,48.6173 13.2465,48.3803 L13.2465,46.2428 C13.2465,46.0065 13.4033,45.9053 13.5960,46.0162 L17.7915,48.4380 C17.9843,48.5490 18.1402,48.8317 18.1410,49.0680 L18.1410,51.2055 Z" style="fill-rule: evenodd; fill: #ffffff; "/>
    <path xmlns="http://www.w3.org/2000/svg" d="  M12.8985,51.5318 C12.8978,51.7665 12.7410,51.8685 12.5490,51.7575 L8.3528,49.3357 C8.1600,49.2240 8.0040,48.9427 8.0040,48.7065 L8.0040,46.5675 C8.0040,46.3327 8.1600,46.2307 8.3528,46.3425 L12.5490,48.7642 C12.7410,48.8753 12.8978,49.1565 12.8978,49.3928 L12.8985,51.5318 Z" style="fill-rule: evenodd; fill: #ffffff; "/>
    <path xmlns="http://www.w3.org/2000/svg" d="  M7.3050,45.7365 L3.1103,43.3148 C2.9655,43.2315 2.8425,43.2668 2.7878,43.3890 L2.7878,43.4618 C2.7878,44.4165 2.9603,45.4170 3.2595,46.3942 L7.3050,48.7290 C7.4985,48.8400 7.6553,48.7395 7.6553,48.5033 L7.6553,46.3658 C7.6553,46.1303 7.4993,45.8483 7.3050,45.7365 Z" style="fill-rule: evenodd; fill: #ffffff; "/>
    <path xmlns="http://www.w3.org/2000/svg" d="  M17.6423,54.6983 C17.9400,54.0660 18.1133,53.2650 18.1133,52.3088 L18.1133,52.2360 C18.0593,52.0530 17.9363,51.8745 17.7915,51.7905 L13.5968,49.3688 C13.4033,49.2578 13.2465,49.3583 13.2465,49.5945 L13.2465,51.7328 C13.2465,51.9683 13.4033,52.2503 13.5960,52.3620 L17.6423,54.6983 Z" style="fill-rule: evenodd; fill: #ffffff; "/>
    <path xmlns="http://www.w3.org/2000/svg" d="  M12.8985,54.8835 C12.8978,55.1190 12.7410,55.2203 12.5490,55.1093 L8.3528,52.6875 C8.1600,52.5765 8.0040,52.2938 8.0040,52.0583 L8.0040,49.9200 C8.0040,49.6845 8.1600,49.5833 8.3528,49.6943 L12.5483,52.1160 C12.7410,52.2270 12.8978,52.5090 12.8985,52.7460 L12.8985,54.8835 Z" style="fill-rule: evenodd; fill: #ffffff; "/>
    <path xmlns="http://www.w3.org/2000/svg" d="  M18.1403,47.8538 C18.1403,48.0893 17.9843,48.1905 17.7915,48.0795 L13.5968,45.6578 C13.4033,45.5468 13.2465,45.2648 13.2465,45.0285 L13.2465,42.8910 C13.2465,42.6548 13.4033,42.5528 13.5968,42.6653 L17.7915,45.0870 C17.9843,45.1980 18.1403,45.4793 18.1403,45.7170 L18.1403,47.8538 Z" style="fill-rule: evenodd; fill: #ffffff; "/>
    <path xmlns="http://www.w3.org/2000/svg" d="  M7.6553,41.7990 C7.6553,42.0345 7.4993,42.1358 7.3050,42.0248 L3.1103,39.6030 C2.9168,39.4912 2.7608,39.2100 2.7608,38.9737 L2.7608,36.8355 C2.7608,36.5992 2.9168,36.4980 3.1103,36.6097 L7.3050,39.0315 C7.4993,39.1425 7.6553,39.4238 7.6545,39.6608 L7.6553,41.7990 Z" style="fill-rule: evenodd; fill: #ffffff; "/>
    <path xmlns="http://www.w3.org/2000/svg" d="  M12.8985,44.8260 C12.8978,45.0623 12.7410,45.1628 12.5490,45.0525 L8.3528,42.6308 C8.1600,42.5198 8.0040,42.2385 8.0040,42.0015 L8.0040,39.8633 C8.0040,39.6278 8.1600,39.5265 8.3528,39.6375 L12.5490,42.0593 C12.7410,42.1695 12.8978,42.4515 12.8978,42.6885 L12.8985,44.8260 Z" style="fill-rule: evenodd; fill: #ffffff; "/>
    <path xmlns="http://www.w3.org/2000/svg" d="  M17.4938,54.9713 L13.5968,52.7228 C13.4040,52.6103 13.2473,52.7115 13.2473,52.9485 L13.2473,55.0860 C13.2473,55.3215 13.4040,55.6028 13.5968,55.7153 C15.2588,56.6730 16.7100,56.3055 17.4938,54.9713 Z" style="fill-rule: evenodd; fill: #ffffff; "/>
    <path xmlns="http://www.w3.org/2000/svg" d="  M7.3050,49.0890 L3.4043,46.8368 C4.1670,49.0208 5.5650,51.0143 7.1738,52.0065 L7.3050,52.0815 C7.4985,52.1940 7.6553,52.0935 7.6553,51.8565 L7.6553,49.7190 C7.6553,49.4828 7.4985,49.2015 7.3050,49.0890 Z" style="fill-rule: evenodd; fill: #ffffff; "/>
    <defs xmlns="http://www.w3.org/2000/svg" xmlns:xlink="http://www.w3.org/1999/xlink">
      <linearGradient id="grad657">
        <stop offset="0%" stop-color="#ededed" stop-opacity="1.0000"/>
        <stop offset="100%" stop-color="#7f8787" stop-opacity="1.0000"/>
      </linearGradient>
      <linearGradient xlink:href="#grad657" id="grad658" x1="0" y1="0" x2="0" y2="1" gradientTransform="rotate(225 .5 .5)" gradientUnits="objectBoundingBox">
  </linearGradient>
    </defs>
    <path xmlns="http://www.w3.org/2000/svg" d="  M12.5370,47.9183 L8.3640,45.5085 L8.3640,43.4775 L12.5370,45.8857 L12.5370,47.9183 Z" style="fill-rule: evenodd; fill: url(#grad658); "/>
    <defs xmlns="http://www.w3.org/2000/svg" xmlns:xlink="http://www.w3.org/1999/xlink">
      <linearGradient id="grad659">
        <stop offset="0%" stop-color="#ededed" stop-opacity="1.0000"/>
        <stop offset="100%" stop-color="#7f8787" stop-opacity="1.0000"/>
      </linearGradient>
      <linearGradient xlink:href="#grad659" id="grad660" x1="0" y1="0" x2="0" y2="1" gradientTransform="rotate(225 .5 .5)" gradientUnits="objectBoundingBox">
  </linearGradient>
    </defs>
    <path xmlns="http://www.w3.org/2000/svg" d="  M7.2930,44.8897 L3.1215,42.4807 L3.1215,40.4505 L7.2930,42.8587 L7.2930,44.8897 Z" style="fill-rule: evenodd; fill: url(#grad660); "/>
    <defs xmlns="http://www.w3.org/2000/svg" xmlns:xlink="http://www.w3.org/1999/xlink">
      <linearGradient id="grad661">
        <stop offset="0%" stop-color="#ededed" stop-opacity="1.0000"/>
        <stop offset="100%" stop-color="#7f8787" stop-opacity="1.0000"/>
      </linearGradient>
      <linearGradient xlink:href="#grad661" id="grad662" x1="0" y1="0" x2="0" y2="1" gradientTransform="rotate(225 .5 .5)" gradientUnits="objectBoundingBox">
  </linearGradient>
    </defs>
    <path xmlns="http://www.w3.org/2000/svg" d="  M17.7803,50.9460 L13.6065,48.5362 L13.6065,46.5045 L17.7803,48.9120 L17.7803,50.9460 Z" style="fill-rule: evenodd; fill: url(#grad662); "/>
    <defs xmlns="http://www.w3.org/2000/svg" xmlns:xlink="http://www.w3.org/1999/xlink">
      <linearGradient id="grad663">
        <stop offset="0%" stop-color="#ededed" stop-opacity="1.0000"/>
        <stop offset="100%" stop-color="#7f8787" stop-opacity="1.0000"/>
      </linearGradient>
      <linearGradient xlink:href="#grad663" id="grad664" x1="0" y1="0" x2="0" y2="1" gradientTransform="rotate(225 .5 .5)" gradientUnits="objectBoundingBox">
  </linearGradient>
    </defs>
    <path xmlns="http://www.w3.org/2000/svg" d="  M12.5370,51.2707 L8.3640,48.8602 L8.3640,46.8293 L12.5370,49.2382 L12.5370,51.2707 Z" style="fill-rule: evenodd; fill: url(#grad664); "/>
    <defs xmlns="http://www.w3.org/2000/svg" xmlns:xlink="http://www.w3.org/1999/xlink">
      <linearGradient id="grad665">
        <stop offset="0%" stop-color="#ededed" stop-opacity="1.0000"/>
        <stop offset="100%" stop-color="#7f8787" stop-opacity="1.0000"/>
      </linearGradient>
      <linearGradient xlink:href="#grad665" id="grad666" x1="0" y1="0" x2="0" y2="1" gradientTransform="rotate(225 .5 .5)" gradientUnits="objectBoundingBox">
  </linearGradient>
    </defs>
    <path xmlns="http://www.w3.org/2000/svg" d="  M7.2930,48.2430 L3.4898,46.0462 C3.2775,45.2678 3.1620,44.5148 3.1508,43.8015 L7.2930,46.2105 L7.2930,48.2430 Z" style="fill-rule: evenodd; fill: url(#grad666); "/>
    <defs xmlns="http://www.w3.org/2000/svg" xmlns:xlink="http://www.w3.org/1999/xlink">
      <linearGradient id="grad667">
        <stop offset="0%" stop-color="#ededed" stop-opacity="1.0000"/>
        <stop offset="100%" stop-color="#7f8787" stop-opacity="1.0000"/>
      </linearGradient>
      <linearGradient xlink:href="#grad667" id="grad668" x1="0" y1="0" x2="0" y2="1" gradientTransform="rotate(225 .5 .5)" gradientUnits="objectBoundingBox">
  </linearGradient>
    </defs>
    <path xmlns="http://www.w3.org/2000/svg" d="  M17.4112,54.0847 L13.6080,51.8880 L13.6080,49.8577 L17.7502,52.2480 C17.7367,52.9410 17.6235,53.5575 17.4112,54.0847 Z" style="fill-rule: evenodd; fill: url(#grad668); "/>
    <defs xmlns="http://www.w3.org/2000/svg" xmlns:xlink="http://www.w3.org/1999/xlink">
      <linearGradient id="grad669">
        <stop offset="0%" stop-color="#ededed" stop-opacity="1.0000"/>
        <stop offset="100%" stop-color="#7f8787" stop-opacity="1.0000"/>
      </linearGradient>
      <linearGradient xlink:href="#grad669" id="grad670" x1="0" y1="0" x2="0" y2="1" gradientTransform="rotate(225 .5 .5)" gradientUnits="objectBoundingBox">
  </linearGradient>
    </defs>
    <path xmlns="http://www.w3.org/2000/svg" d="  M12.5370,54.6225 L8.3640,52.2135 L8.3640,50.1810 L12.5370,52.5900 L12.5370,54.6225 Z" style="fill-rule: evenodd; fill: url(#grad670); "/>
    <defs xmlns="http://www.w3.org/2000/svg" xmlns:xlink="http://www.w3.org/1999/xlink">
      <linearGradient id="grad671">
        <stop offset="0%" stop-color="#ededed" stop-opacity="1.0000"/>
        <stop offset="100%" stop-color="#7f8787" stop-opacity="1.0000"/>
      </linearGradient>
      <linearGradient xlink:href="#grad671" id="grad672" x1="0" y1="0" x2="0" y2="1" gradientTransform="rotate(225 .5 .5)" gradientUnits="objectBoundingBox">
  </linearGradient>
    </defs>
    <path xmlns="http://www.w3.org/2000/svg" d="  M17.7810,47.5927 L13.6065,45.1830 L13.6080,43.1527 L17.7802,45.5595 L17.7810,47.5927 Z" style="fill-rule: evenodd; fill: url(#grad672); "/>
    <defs xmlns="http://www.w3.org/2000/svg" xmlns:xlink="http://www.w3.org/1999/xlink">
      <linearGradient id="grad673">
        <stop offset="0%" stop-color="#ededed" stop-opacity="1.0000"/>
        <stop offset="100%" stop-color="#7f8787" stop-opacity="1.0000"/>
      </linearGradient>
      <linearGradient xlink:href="#grad673" id="grad674" x1="0" y1="0" x2="0" y2="1" gradientTransform="rotate(225 .5 .5)" gradientUnits="objectBoundingBox">
  </linearGradient>
    </defs>
    <path xmlns="http://www.w3.org/2000/svg" d="  M7.2930,41.5373 L3.1215,39.1275 L3.1215,37.0973 L7.2930,39.5063 L7.2930,41.5373 Z" style="fill-rule: evenodd; fill: url(#grad674); "/>
    <defs xmlns="http://www.w3.org/2000/svg" xmlns:xlink="http://www.w3.org/1999/xlink">
      <linearGradient id="grad675">
        <stop offset="0%" stop-color="#ededed" stop-opacity="1.0000"/>
        <stop offset="100%" stop-color="#7f8787" stop-opacity="1.0000"/>
      </linearGradient>
      <linearGradient xlink:href="#grad675" id="grad676" x1="0" y1="0" x2="0" y2="1" gradientTransform="rotate(225 .5 .5)" gradientUnits="objectBoundingBox">
  </linearGradient>
    </defs>
    <path xmlns="http://www.w3.org/2000/svg" d="  M12.5370,44.5650 L8.3640,42.1560 L8.3640,40.1250 L12.5370,42.5333 L12.5370,44.5650 Z" style="fill-rule: evenodd; fill: url(#grad676); "/>
    <defs xmlns="http://www.w3.org/2000/svg" xmlns:xlink="http://www.w3.org/1999/xlink">
      <linearGradient id="grad677">
        <stop offset="0%" stop-color="#ededed" stop-opacity="1.0000"/>
        <stop offset="100%" stop-color="#7f8787" stop-opacity="1.0000"/>
      </linearGradient>
      <linearGradient xlink:href="#grad677" id="grad678" x1="0" y1="0" x2="0" y2="1" gradientTransform="rotate(225 .5 .5)" gradientUnits="objectBoundingBox">
  </linearGradient>
    </defs>
    <path xmlns="http://www.w3.org/2000/svg" d="  M13.6065,55.2405 L13.6080,53.2102 L16.8045,55.0537 C16.0222,55.8697 14.8477,55.9530 13.6065,55.2405 Z" style="fill-rule: evenodd; fill: url(#grad678); "/>
    <defs xmlns="http://www.w3.org/2000/svg" xmlns:xlink="http://www.w3.org/1999/xlink">
      <linearGradient id="grad679">
        <stop offset="0%" stop-color="#ededed" stop-opacity="1.0000"/>
        <stop offset="100%" stop-color="#7f8787" stop-opacity="1.0000"/>
      </linearGradient>
      <linearGradient xlink:href="#grad679" id="grad680" x1="0" y1="0" x2="0" y2="1" gradientTransform="rotate(225 .5 .5)" gradientUnits="objectBoundingBox">
  </linearGradient>
    </defs>
    <path xmlns="http://www.w3.org/2000/svg" d="  M7.2930,51.5947 L7.1730,51.5257 C5.9618,50.7787 4.8450,49.3897 4.0898,47.7128 L7.2930,49.5630 L7.2930,51.5947 Z" style="fill-rule: evenodd; fill: url(#grad680); "/>
    <path xmlns="http://www.w3.org/2000/svg" d="  M23.3048,19.7333 C23.1953,19.7333 22.7903,19.7333 22.6808,19.7333 C22.1738,19.7333 21.7628,21.9690 21.7628,24.7268 C21.7628,27.4845 22.1738,29.7203 22.6808,29.7203 C22.7903,29.7203 23.1960,29.7203 23.3048,29.7203 C23.8125,29.7203 24.2228,27.4845 24.2228,24.7268 C24.2220,21.9690 23.8125,19.7333 23.3048,19.7333 Z" style="fill-rule: evenodd; fill: #4d4d4d; "/>
    <defs xmlns="http://www.w3.org/2000/svg">
      <linearGradient id="grad681">
        <stop offset="0%" stop-color="#ededed" stop-opacity="1.0000"/>
        <stop offset="100%" stop-color="#7f8787" stop-opacity="1.0000"/>
      </linearGradient>
    </defs>
    <path xmlns="http://www.w3.org/2000/svg" d="  M24.2220,24.7268 A0.9173,4.9935 180.0000 1,1 23.3048,19.7333 A0.9173,4.9935 180.0000 0,1 24.2220,24.7268 Z" style="fill-rule: evenodd; fill: url(#grad681); "/>
    <defs xmlns="http://www.w3.org/2000/svg" xmlns:xlink="http://www.w3.org/1999/xlink">
      <linearGradient id="grad682">
        <stop offset="0%" stop-color="#66ccff" stop-opacity="1.0000"/>
        <stop offset="100%" stop-color="#1e729f" stop-opacity="1.0000"/>
      </linearGradient>
      <linearGradient xlink:href="#grad682" id="grad683" x1="0" y1="0" x2="0" y2="1" gradientTransform="rotate(-0 .5 .5)" gradientUnits="objectBoundingBox">
  </linearGradient>
    </defs>
    <path xmlns="http://www.w3.org/2000/svg" d="  M15.8558,34.7873 L5.0452,28.5465 C4.2495,28.0868 3.6030,26.8507 3.6030,25.7903 L3.6030,8.4938 C3.6030,7.4332 4.2495,6.9443 5.0460,7.4032 L15.8558,13.6448 C16.6515,14.1038 17.2973,15.3405 17.2973,16.4010 L17.2980,33.6975 C17.2973,34.7580 16.6515,35.2470 15.8558,34.7873 Z" style="fill-rule: evenodd; fill: url(#grad683); "/>
    <defs xmlns="http://www.w3.org/2000/svg" xmlns:xlink="http://www.w3.org/1999/xlink">
      <linearGradient id="grad684">
        <stop offset="0%" stop-color="#66ccff" stop-opacity="0.8980"/>
        <stop offset="100%" stop-color="#1e729f" stop-opacity="0.8980"/>
      </linearGradient>
      <linearGradient xlink:href="#grad684" id="grad685" x1="0" y1="0" x2="0" y2="1" gradientTransform="rotate(225 .5 .5)" gradientUnits="objectBoundingBox">
  </linearGradient>
    </defs>
    <path xmlns="http://www.w3.org/2000/svg" d="  M5.0452,28.5465 L15.8558,34.7873 C16.6515,35.2470 17.2973,34.7580 17.2980,33.6975 L17.2973,16.4010 C17.2973,15.3405 16.6515,14.1038 15.8558,13.6447 L14.4038,12.8063 C10.0523,13.8038 6.3638,16.2030 3.6030,19.8600 L3.6030,25.7903 C3.6030,26.8507 4.2503,28.0867 5.0452,28.5465 Z" style="fill-rule: evenodd; fill: url(#grad685); "/>
    <!--converted by libvisio2svg-->
  </g>
</svg>
