<svg xmlns="http://www.w3.org/2000/svg" xmlns:xlink="http://www.w3.org/1999/xlink" version="1.1" width="0.8370000000" height="0.4834000000" viewBox="0 0 60.2655 34.8075">
  <title><![CDATA[Cloud Light]]></title>
  <g transform=" scale(1.000000) ">
    <path xmlns="http://www.w3.org/2000/svg" d="  M56.2665,17.9378 C56.8657,17.3760 57.2078,16.7303 57.2078,16.0440 C57.2078,14.5763 55.6492,13.2982 53.3445,12.6240 C53.3963,12.3255 53.4270,12.0210 53.4270,11.7112 C53.4270,7.9073 49.3657,4.8233 44.3565,4.8233 C43.8405,4.8233 43.3357,4.8600 42.8430,4.9230 C41.9513,3.5685 40.6372,2.7075 39.1658,2.7075 C38.2755,2.7075 37.4445,3.0263 36.7282,3.5730 C35.9123,3.2482 35.0318,2.9955 34.1010,2.8290 C33.1260,1.1408 31.2870,0.0000 29.1735,0.0000 C27.4717,0.0000 25.9515,0.7410 24.9143,1.9103 C23.0828,2.1413 21.5400,2.9753 20.7090,4.1235 C20.4593,4.2195 20.2335,4.3335 20.0288,4.4603 C18.9877,3.7777 17.6453,3.3660 16.1775,3.3660 C12.8737,3.3660 10.1948,5.4495 10.1948,8.0198 C10.1948,8.0798 10.2037,8.1383 10.2068,8.1983 C9.9067,8.5418 9.7342,8.9355 9.7342,9.3548 C9.7342,9.4230 9.7418,9.4912 9.7508,9.5580 C7.1468,10.1235 5.3153,11.4577 5.3078,13.0162 C3.3675,13.7408 2.0738,15.0158 2.0693,16.4715 C0.8250,17.1120 0.0300,18.0810 0.0300,19.1663 C0.0300,20.2582 0.8363,21.2333 2.0963,21.8738 C1.4355,22.3305 1.0493,22.8615 1.0493,23.4308 C1.0493,25.1190 4.3800,26.4870 8.4900,26.4870 C8.6078,26.4870 8.7233,26.4818 8.8403,26.4795 C8.8125,26.6152 8.7952,26.7518 8.7952,26.8897 C8.7952,27.4890 9.0637,28.0605 9.5482,28.5833 C9.4913,28.7693 9.4605,28.9620 9.4628,29.1615 C9.4800,30.5723 11.0505,31.6943 12.9705,31.6680 L14.3768,31.6485 C14.5905,32.2560 15.3788,32.6993 16.3148,32.6865 C16.4970,32.6843 16.6725,32.6625 16.8398,32.6280 C17.3340,33.8588 19.7775,34.7670 22.7130,34.7265 C24.5722,34.7003 26.2260,34.2998 27.3075,33.6930 C28.4348,33.9353 29.6678,34.0628 30.9623,34.0448 C33.1230,34.0148 35.1083,33.5895 36.6998,32.8988 C37.5083,33.6945 38.9827,34.2180 40.6688,34.1948 C43.1400,34.1603 45.1365,32.9678 45.2153,31.5083 C45.5122,31.3973 45.7935,31.2705 46.0545,31.1273 C47.8950,30.7238 49.1640,29.8853 49.1527,28.9320 C49.1490,28.6005 48.9900,28.2878 48.7073,28.0058 C49.6155,27.5093 50.3820,26.8913 50.9497,26.1833 C51.6623,25.7722 52.2645,25.2765 52.7153,24.7170 C52.9703,24.7320 53.2268,24.7418 53.4877,24.7418 C57.2310,24.7418 60.2655,23.1480 60.2655,21.1823 C60.2655,19.7362 58.6238,18.4950 56.2665,17.9378 Z" style="stroke-width: 1.5000; stroke: #8d98b5; stroke-dasharray: none; stroke-linecap: butt; stroke-linejoin: miter; fill: none; "/>
    <defs xmlns="http://www.w3.org/2000/svg" xmlns:xlink="http://www.w3.org/1999/xlink">
      <linearGradient id="grad831">
        <stop offset="0%" stop-color="#8cb3db" stop-opacity="1.0000"/>
        <stop offset="100%" stop-color="#fffef9" stop-opacity="1.0000"/>
      </linearGradient>
      <linearGradient xlink:href="#grad831" id="grad832" x1="0" y1="0" x2="0" y2="1" gradientTransform="rotate(180 .5 .5)" gradientUnits="objectBoundingBox">
  </linearGradient>
    </defs>
    <path xmlns="http://www.w3.org/2000/svg" d="  M56.2357,17.9782 C56.8350,17.4165 57.1770,16.7715 57.1770,16.0845 C57.1770,13.9147 53.7780,12.1560 49.5847,12.1560 C47.8545,12.1560 46.2645,12.4583 44.9880,12.9622 C45.0945,12.7125 45.1515,12.4545 45.1515,12.1898 C45.1515,10.0568 41.5230,8.3280 37.0477,8.3280 C36.7433,8.3280 36.4425,8.3363 36.1470,8.3520 C35.2808,6.9495 32.1338,5.9100 28.3837,5.9100 C25.6852,5.9100 23.3010,6.4493 21.8513,7.2735 C21.6368,7.2608 21.4193,7.2533 21.1995,7.2533 C18.5490,7.2533 16.2480,8.1833 15.0825,9.5498 C12.8970,9.6570 11.0887,10.7318 10.5000,12.1785 C10.2997,12.2685 10.1130,12.3653 9.9450,12.4703 C9.6255,12.4433 9.3015,12.4245 8.9692,12.4245 C5.1457,12.4245 2.0475,14.2545 2.0392,16.5135 C0.7950,17.1540 0.0000,18.1238 0.0000,19.2083 C0.0000,20.3010 0.8062,21.2753 2.0662,21.9158 C1.4055,22.3718 1.0192,22.9028 1.0192,23.4728 C1.0192,25.1610 4.3500,26.5290 8.4600,26.5290 C8.5777,26.5290 8.6932,26.5238 8.8102,26.5215 C8.7825,26.6565 8.7653,26.7938 8.7653,26.9318 C8.7653,29.4165 13.3515,31.4318 19.0088,31.4318 C21.4687,31.4318 23.7255,31.0508 25.4917,30.4155 C26.7675,31.1138 28.7723,31.5660 31.0350,31.5660 C33.7860,31.5660 36.1575,30.8993 37.2960,29.9325 C38.2305,31.1783 40.1625,32.0370 42.4005,32.0370 C45.5025,32.0370 48.0218,30.3900 48.1005,28.3403 C49.2653,27.8055 50.2357,27.0795 50.9212,26.2253 C51.6338,25.8143 52.2360,25.3185 52.6867,24.7590 C52.9417,24.7740 53.1983,24.7838 53.4593,24.7838 C57.2025,24.7838 60.2370,23.1900 60.2370,21.2235 C60.2348,19.7775 58.5930,18.5355 56.2357,17.9782 Z" style="fill-rule: evenodd; fill: url(#grad832); "/>
    <defs xmlns="http://www.w3.org/2000/svg" xmlns:xlink="http://www.w3.org/1999/xlink">
      <linearGradient id="grad833">
        <stop offset="0%" stop-color="#8cb3db" stop-opacity="1.0000"/>
        <stop offset="100%" stop-color="#fffef9" stop-opacity="1.0000"/>
      </linearGradient>
      <linearGradient xlink:href="#grad833" id="grad834" x1="0" y1="0" x2="0" y2="1" gradientTransform="rotate(180 .5 .5)" gradientUnits="objectBoundingBox">
  </linearGradient>
    </defs>
    <path xmlns="http://www.w3.org/2000/svg" d="  M49.1220,28.9725 C49.1115,28.1108 48.0585,27.3712 46.4918,26.9767 C46.9747,26.7060 47.2575,26.3888 47.2530,26.0527 C47.2448,25.4483 46.3275,24.9315 44.9527,24.6487 C44.9400,24.6285 44.9258,24.6075 44.9137,24.5872 C45.1567,24.3165 45.2970,24.0022 45.2925,23.6663 C45.2805,22.6868 44.0595,21.9090 42.5677,21.9300 C42.5302,21.9300 42.4927,21.9337 42.4560,21.9352 C42.6480,21.6360 42.7530,21.3097 42.7493,20.9685 C42.7328,19.5780 40.9252,18.4747 38.7127,18.5055 C38.5605,18.5077 38.4120,18.5160 38.2650,18.5280 C37.1580,14.3055 32.7593,15.4245 32.7765,15.1582 C32.8418,14.0752 28.7835,13.1992 27.7673,14.4758 C27.1980,14.8740 27.2985,14.9812 27.0840,15.1012 C24.1252,13.3365 22.0185,16.4670 21.8340,16.3957 C18.5985,15.1530 15.5805,18.4208 15.6098,20.8117 C15.6105,20.8680 15.6210,20.9220 15.6240,20.9775 C15.3128,21.3015 15.1373,21.6705 15.1418,22.0605 C15.1425,22.1242 15.1508,22.1872 15.1613,22.2502 C12.4305,22.8142 10.5203,24.0862 10.5390,25.5397 C10.5405,25.7152 10.5735,25.8870 10.6313,26.0550 C10.0125,26.3422 9.5978,26.8823 9.6053,27.4957 C9.6075,27.7117 9.6638,27.9157 9.7598,28.1033 C9.5498,28.4385 9.4283,28.8090 9.4320,29.2013 C9.4493,30.6120 11.0198,31.7340 12.9398,31.7077 L14.3460,31.6882 C14.5598,32.2957 15.3480,32.7390 16.2840,32.7262 C16.4663,32.7240 16.6418,32.7022 16.8090,32.6677 C17.3033,33.8985 19.7468,34.8075 22.6823,34.7662 C24.5415,34.7407 26.1953,34.3395 27.2767,33.7327 C28.4040,33.9757 29.6370,34.1025 30.9315,34.0845 C33.0923,34.0537 35.0775,33.6285 36.6690,32.9377 C37.4775,33.7342 38.9520,34.2570 40.6380,34.2338 C43.1715,34.1985 45.2115,32.9467 45.1920,31.4377 C45.1913,31.3957 45.1838,31.3560 45.1800,31.3147 C47.4653,31.0080 49.1355,30.0667 49.1220,28.9725 Z" style="fill-rule: evenodd; fill: url(#grad834); "/>
    <defs xmlns="http://www.w3.org/2000/svg" xmlns:xlink="http://www.w3.org/1999/xlink">
      <linearGradient id="grad835">
        <stop offset="0%" stop-color="#8cb3db" stop-opacity="1.0000"/>
        <stop offset="100%" stop-color="#fffef9" stop-opacity="1.0000"/>
      </linearGradient>
      <linearGradient xlink:href="#grad835" id="grad836" x1="0" y1="0" x2="0" y2="1" gradientTransform="rotate(135 .5 .5)" gradientUnits="objectBoundingBox">
  </linearGradient>
    </defs>
    <path xmlns="http://www.w3.org/2000/svg" d="  M53.9753,18.9803 C53.9753,17.4082 53.4510,15.9375 52.5398,14.6745 C53.0872,13.7873 53.3970,12.7972 53.3970,11.7518 C53.3970,7.9478 49.3357,4.8645 44.3265,4.8645 C43.8105,4.8645 43.3058,4.9013 42.8130,4.9635 C41.9212,3.6090 40.6073,2.7480 39.1358,2.7480 C38.2455,2.7480 37.4145,3.0667 36.6982,3.6135 C35.8822,3.2888 35.0017,3.0360 34.0710,2.8695 C33.0960,1.1813 31.2570,0.0405 29.1435,0.0405 C26.5035,0.0405 24.2918,1.8195 23.6595,4.2255 C23.5665,4.2525 23.4750,4.2810 23.3850,4.3110 C23.0310,4.2510 22.6635,4.2165 22.2840,4.2165 C19.9515,4.2165 18.0150,5.4150 17.6123,6.9938 C14.3993,7.3462 11.8793,9.1297 11.4473,11.3768 C11.0512,12.1042 10.8105,12.8888 10.7580,13.7077 C9.5333,14.7855 8.7825,16.2008 8.7825,17.7562 C8.7825,20.4435 11.0062,22.7205 14.0880,23.5298 C14.0843,23.5987 14.0745,23.6670 14.0745,23.7368 C14.0745,26.6032 17.0723,28.9275 20.7720,28.9275 C20.7915,28.9275 20.8125,28.9253 20.8328,28.9253 C23.2823,30.4500 26.6760,31.3943 30.4313,31.3943 C33.0840,31.3943 35.5537,30.9195 37.6410,30.1050 C38.7878,30.7140 40.1520,31.0710 41.6190,31.0710 C45.1342,31.0710 48.0675,29.0408 48.7912,26.3310 C51.8895,24.8572 53.9753,22.1183 53.9753,18.9803 Z" style="fill-rule: evenodd; fill: url(#grad836); "/>
    <defs xmlns="http://www.w3.org/2000/svg" xmlns:xlink="http://www.w3.org/1999/xlink">
      <linearGradient id="grad837">
        <stop offset="0%" stop-color="#8cb3db" stop-opacity="1.0000"/>
        <stop offset="100%" stop-color="#fffef9" stop-opacity="1.0000"/>
      </linearGradient>
      <linearGradient xlink:href="#grad837" id="grad838" x1="0" y1="0" x2="0" y2="1" gradientTransform="rotate(180 .5 .5)" gradientUnits="objectBoundingBox">
  </linearGradient>
    </defs>
    <path xmlns="http://www.w3.org/2000/svg" d="  M42.0105,17.3295 C42.0105,16.4033 41.0145,15.5933 39.5257,15.1447 C39.9893,14.8613 40.2615,14.5245 40.2615,14.1630 C40.2615,13.5135 39.3923,12.9442 38.0850,12.6195 C38.0738,12.5970 38.0595,12.5752 38.0483,12.5528 C38.2830,12.2655 38.4210,11.9295 38.4210,11.5688 C38.4210,10.5150 37.2660,9.6615 35.8432,9.6615 C35.8072,9.6615 35.7713,9.6645 35.7368,9.6653 C35.9220,9.3465 36.0270,8.9978 36.0270,8.6318 C36.0270,7.1363 34.3178,5.9235 32.2080,5.9235 C32.0633,5.9235 31.9207,5.9303 31.7813,5.9408 C31.6537,3.6833 29.0745,1.8795 25.9020,1.8795 C23.6280,1.8795 21.6593,2.8073 20.6767,4.1633 C20.4270,4.2593 20.2013,4.3740 19.9965,4.5000 C18.9555,3.8183 17.6130,3.4058 16.1453,3.4058 C12.8415,3.4058 10.1625,5.4893 10.1625,8.0603 C10.1625,8.1203 10.1715,8.1788 10.1745,8.2380 C9.8745,8.5815 9.7020,8.9753 9.7020,9.3945 C9.7020,9.4635 9.7095,9.5310 9.7185,9.5978 C7.1100,10.1640 5.2748,11.5027 5.2748,13.0657 C5.2748,13.2548 5.3048,13.4400 5.3573,13.6215 C4.7640,13.9207 4.3635,14.4945 4.3635,15.1537 C4.3635,15.3855 4.4138,15.6067 4.5045,15.8092 C4.2998,16.1662 4.1798,16.5630 4.1798,16.9853 C4.1798,18.5018 5.6640,19.7318 7.4933,19.7318 L8.8343,19.7318 C9.0308,20.3880 9.7763,20.8763 10.6687,20.8763 C10.8420,20.8763 11.0100,20.8560 11.1698,20.8215 C11.6273,22.1513 13.9448,23.1653 16.7430,23.1653 C18.5153,23.1653 20.0963,22.7588 21.1335,22.1228 C22.2060,22.3995 23.3790,22.5548 24.6128,22.5548 C26.6723,22.5548 28.5698,22.1273 30.0953,21.4080 C30.8557,22.2758 32.2560,22.8608 33.8633,22.8608 C36.2782,22.8608 38.2358,21.5453 38.2358,19.9230 C38.2358,19.8780 38.2283,19.8345 38.2245,19.7903 C40.4085,19.4933 42.0105,18.5055 42.0105,17.3295 Z" style="fill-rule: evenodd; fill: url(#grad838); "/>
    <defs xmlns="http://www.w3.org/2000/svg" xmlns:xlink="http://www.w3.org/1999/xlink">
      <linearGradient id="grad839">
        <stop offset="0%" stop-color="#8cb3db" stop-opacity="1.0000"/>
        <stop offset="100%" stop-color="#fffef9" stop-opacity="1.0000"/>
      </linearGradient>
      <linearGradient xlink:href="#grad839" id="grad840" x1="0" y1="0" x2="0" y2="1" gradientTransform="rotate(180 .5 .5)" gradientUnits="objectBoundingBox">
  </linearGradient>
    </defs>
    <path xmlns="http://www.w3.org/2000/svg" d="  M26.5208,15.4170 C26.4390,15.4170 26.3595,15.4245 26.2807,15.4283 C24.8430,14.0130 22.0508,13.0493 18.8393,13.0433 C14.6850,13.0350 11.2312,14.6318 10.4978,16.7453 C6.8708,16.8510 3.9855,18.5303 3.9818,20.5980 C3.9787,22.4378 6.2557,23.9783 9.3105,24.3810 C9.6645,25.9470 13.5398,27.1883 18.2812,27.1973 C21.4530,27.2033 24.2385,26.6558 25.8465,25.8248 C26.0617,25.8488 26.2792,25.8645 26.5005,25.8653 C29.5748,25.8713 32.0708,23.5372 32.0768,20.6520 C32.0812,17.7668 29.5942,15.4230 26.5208,15.4170 Z" style="fill-rule: evenodd; fill: url(#grad840); "/>
    <defs xmlns="http://www.w3.org/2000/svg" xmlns:xlink="http://www.w3.org/1999/xlink">
      <linearGradient id="grad841">
        <stop offset="0%" stop-color="#8cb3db" stop-opacity="1.0000"/>
        <stop offset="100%" stop-color="#fffef9" stop-opacity="1.0000"/>
      </linearGradient>
      <linearGradient xlink:href="#grad841" id="grad842" x1="0" y1="0" x2="0" y2="1" gradientTransform="rotate(180 .5 .5)" gradientUnits="objectBoundingBox">
  </linearGradient>
    </defs>
    <path xmlns="http://www.w3.org/2000/svg" d="  M56.1518,21.2295 C56.1773,20.4765 55.2518,19.7850 53.8462,19.3725 C54.2955,19.1565 54.5648,18.8917 54.5745,18.5978 C54.5918,18.0697 53.7788,17.5793 52.5443,17.2725 C52.5330,17.2545 52.5210,17.2357 52.5105,17.2170 C52.7415,16.9913 52.8825,16.7227 52.8922,16.4295 C52.9230,15.5730 51.8452,14.8410 50.4908,14.7953 C50.4570,14.7937 50.4233,14.7953 50.3903,14.7953 C50.5755,14.5418 50.6850,14.2620 50.6940,13.9642 C50.7360,12.7478 49.1400,11.7068 47.1315,11.6378 C46.9935,11.6333 46.8577,11.6340 46.7243,11.6378 C46.6658,9.7988 44.2582,8.2478 41.2373,8.1450 C39.0712,8.0715 37.1700,8.7630 36.1980,9.8332 C35.9580,9.9030 35.7398,9.9885 35.5388,10.0845 C34.5675,9.4958 33.3000,9.1170 31.9020,9.0698 C28.7542,8.9633 26.1457,10.5705 26.0745,12.6607 C26.0730,12.7095 26.0797,12.7567 26.0805,12.8062 C25.7850,13.0755 25.6110,13.3897 25.5990,13.7310 C25.5967,13.7873 25.6020,13.8420 25.6095,13.8975 C23.1097,14.2740 21.3248,15.3030 21.2812,16.5735 C21.2760,16.7272 21.2992,16.8788 21.3435,17.0280 C20.7713,17.2515 20.3738,17.7053 20.3557,18.2415 C20.3490,18.4297 20.3910,18.6112 20.4712,18.7793 C20.2665,19.0620 20.1412,19.3823 20.1292,19.7250 C20.0880,20.9588 21.4665,22.0058 23.2095,22.0650 L24.4868,22.1085 C24.6562,22.6477 25.3522,23.0700 26.2020,23.0985 C26.3685,23.1045 26.5282,23.0932 26.6820,23.0708 C27.0803,24.1665 29.2605,25.0658 31.9252,25.1565 C33.6128,25.2135 35.1292,24.9345 36.1350,24.4515 C37.1497,24.7110 38.2620,24.8745 39.4373,24.9150 C41.3993,24.9810 43.2180,24.6953 44.6910,24.1598 C45.3907,24.8903 46.7085,25.4108 48.2392,25.4625 C50.5380,25.5405 52.4415,24.5348 52.4843,23.2163 C52.4865,23.1795 52.4798,23.1443 52.4775,23.1083 C54.5655,22.9372 56.1195,22.1857 56.1518,21.2295 Z" style="fill-rule: evenodd; fill: url(#grad842); "/>
    <!--converted by libvisio2svg-->
  </g>
</svg>
