<svg xmlns="http://www.w3.org/2000/svg" xmlns:xlink="http://www.w3.org/1999/xlink" version="1.1" width="0.8530000000" height="0.5433000000" viewBox="0 0 61.4138 39.1178">
  <title><![CDATA[Cloud Dark]]></title>
  <g transform=" scale(1.000000) ">
    <path xmlns="http://www.w3.org/2000/svg" d="  M61.3650,26.1210 C61.3650,24.3840 59.6925,22.8908 57.2910,22.2217 C57.9008,21.5467 58.2488,20.7712 58.2488,19.9455 C58.2488,18.0945 56.4990,16.4963 53.9580,15.7223 C54.4522,14.8035 54.7320,13.7887 54.7320,12.7215 C54.7320,8.5897 50.6235,5.2402 45.5587,5.2402 C45.0360,5.2402 44.5260,5.2800 44.0280,5.3483 C43.1250,3.8775 41.7952,2.9423 40.3073,2.9423 C39.6690,2.9423 39.0630,3.1185 38.5058,3.4305 C37.5345,2.6198 36.2648,2.0977 34.8555,2.0392 C34.7288,2.0340 34.6035,2.0332 34.4790,2.0355 C33.4305,0.7890 31.9043,0.0007 30.2025,0.0007 C29.1158,0.0007 28.1040,0.3247 27.2392,0.8797 C26.8582,0.8152 26.4638,0.7815 26.0602,0.7815 C23.7435,0.7815 21.7373,1.8967 20.7367,3.5265 C20.4825,3.6420 20.2523,3.7800 20.0437,3.9315 C18.9833,3.1110 17.6160,2.6160 16.1212,2.6160 C12.7545,2.6160 10.0260,5.1202 10.0260,8.2095 C10.0260,8.2815 10.0342,8.3520 10.0380,8.4233 C9.7320,8.8365 9.5565,9.3097 9.5565,9.8137 C9.5565,9.8963 9.5640,9.9780 9.5730,10.0582 C6.9165,10.7392 5.0468,12.3480 5.0468,14.2268 C5.0468,14.4540 5.0768,14.6767 5.1308,14.8950 C4.5262,15.2550 4.1175,15.9443 4.1175,16.7377 C4.1175,16.8240 4.1325,16.9080 4.1415,16.9913 C2.8695,17.8807 2.0820,19.1063 2.0775,20.4607 C0.8100,21.2295 0.0000,22.3957 0.0000,23.6993 C0.0000,25.0117 0.8205,26.1840 2.1045,26.9527 C1.4318,27.5017 1.0380,28.1407 1.0380,28.8248 C1.0380,30.8535 4.4302,32.4982 8.6175,32.4982 C8.7375,32.4982 8.8545,32.4907 8.9738,32.4893 C8.9460,32.6520 8.9280,32.8163 8.9280,32.9813 C8.9280,35.9692 13.6005,38.3895 19.3643,38.3895 C21.8708,38.3895 24.1703,37.9328 25.9688,37.1693 C27.2678,38.0070 29.3100,38.5507 31.6148,38.5507 C34.4168,38.5507 36.8325,37.7513 37.9927,36.5880 C38.9460,38.0865 40.9140,39.1178 43.1940,39.1178 C45.8558,39.1178 48.0892,37.7100 48.7770,35.7952 C51.1485,35.5988 52.9920,34.1663 52.9747,32.4585 C52.9725,32.4090 52.9658,32.3603 52.9620,32.3107 C54.9008,32.0018 56.4015,31.1625 56.8417,30.1312 C59.4803,29.5305 61.3650,27.9637 61.3650,26.1210 Z" style="stroke-width: 1.5000; stroke: #8d98b5; stroke-dasharray: none; stroke-linecap: butt; stroke-linejoin: miter; fill: none; "/>
    <defs xmlns="http://www.w3.org/2000/svg" xmlns:xlink="http://www.w3.org/1999/xlink">
      <linearGradient id="grad819">
        <stop offset="0%" stop-color="#002041" stop-opacity="1.0000"/>
        <stop offset="100%" stop-color="#a6d6f5" stop-opacity="1.0000"/>
      </linearGradient>
      <linearGradient xlink:href="#grad819" id="grad820" x1="0" y1="0" x2="0" y2="1" gradientTransform="rotate(135 .5 .5)" gradientUnits="objectBoundingBox">
  </linearGradient>
    </defs>
    <path xmlns="http://www.w3.org/2000/svg" d="  M57.3398,22.2210 C57.9502,21.5460 58.2982,20.7690 58.2982,19.9447 C58.2982,17.3362 54.8363,15.2227 50.5635,15.2227 C48.8010,15.2227 47.1818,15.5857 45.8812,16.1917 C45.9900,15.8917 46.0477,15.5813 46.0477,15.2625 C46.0477,12.6990 42.3510,10.6215 37.7925,10.6215 C37.4813,10.6215 37.1768,10.6312 36.8745,10.6500 C35.9910,8.9640 32.7863,7.7145 28.9658,7.7145 C26.2170,7.7145 23.7878,8.3632 22.3110,9.3540 C22.0920,9.3390 21.8707,9.3300 21.6465,9.3300 C18.9465,9.3300 16.6028,10.4482 15.4148,12.0900 C13.1880,12.2190 11.3445,13.5120 10.7452,15.2497 C10.5420,15.3585 10.3522,15.4747 10.1798,15.6007 C9.8543,15.5685 9.5243,15.5460 9.1860,15.5460 C5.2912,15.5460 2.1345,17.7465 2.1263,20.4607 C0.8588,21.2310 0.0488,22.3957 0.0488,23.6992 C0.0488,25.0117 0.8700,26.1840 2.1540,26.9542 C1.4805,27.5017 1.0868,28.1407 1.0868,28.8247 C1.0868,30.8550 4.4798,32.4982 8.6662,32.4982 C8.7870,32.4982 8.9033,32.4922 9.0232,32.4892 C8.9947,32.6520 8.9775,32.8177 8.9775,32.9827 C8.9775,35.9692 13.6493,38.3910 19.4130,38.3910 C21.9188,38.3910 24.2190,37.9327 26.0182,37.1692 C27.3165,38.0085 29.3595,38.5522 31.6643,38.5522 C34.4662,38.5522 36.8820,37.7512 38.0423,36.5895 C38.9947,38.0865 40.9635,39.1177 43.2420,39.1177 C46.4032,39.1177 48.9690,37.1385 49.0485,34.6747 C50.2358,34.0320 51.2242,33.1590 51.9225,32.1315 C52.6485,31.6380 53.2620,31.0417 53.7203,30.3690 C53.9798,30.3862 54.2407,30.3982 54.5070,30.3982 C58.3207,30.3982 61.4122,28.4835 61.4122,26.1195 C61.4138,24.3832 59.7405,22.8907 57.3398,22.2210 Z" style="fill-rule: evenodd; fill: url(#grad820); "/>
    <defs xmlns="http://www.w3.org/2000/svg" xmlns:xlink="http://www.w3.org/1999/xlink">
      <linearGradient id="grad821">
        <stop offset="0%" stop-color="#002041" stop-opacity="1.0000"/>
        <stop offset="100%" stop-color="#a6d6f5" stop-opacity="1.0000"/>
      </linearGradient>
      <linearGradient xlink:href="#grad821" id="grad822" x1="0" y1="0" x2="0" y2="1" gradientTransform="rotate(135 .5 .5)" gradientUnits="objectBoundingBox">
  </linearGradient>
    </defs>
    <path xmlns="http://www.w3.org/2000/svg" d="  M57.0270,29.4930 C57.0165,28.4557 55.9440,27.5685 54.3472,27.0937 C54.8392,26.7682 55.1272,26.3880 55.1227,25.9837 C55.1145,25.2570 54.1800,24.6360 52.7790,24.2962 C52.7662,24.2715 52.7512,24.2467 52.7392,24.2227 C52.9860,23.8957 53.1300,23.5185 53.1255,23.1150 C53.1127,21.9375 51.8700,21.0030 50.3490,21.0277 C50.3122,21.0292 50.2732,21.0322 50.2357,21.0352 C50.4322,20.6752 50.5380,20.2822 50.5342,19.8735 C50.5170,18.2017 48.6750,16.8757 46.4220,16.9125 C46.2675,16.9155 46.1160,16.9260 45.9660,16.9402 C44.8387,11.8635 40.3575,13.2097 40.3747,12.8902 C40.4415,11.5882 36.3067,10.5352 35.2725,12.0690 C34.6927,12.5482 34.7940,12.6772 34.5757,12.8212 C31.5607,10.7010 29.4157,14.4630 29.2275,14.3775 C25.9305,12.8842 22.8570,16.8120 22.8870,19.6845 C22.8877,19.7520 22.8975,19.8180 22.9012,19.8840 C22.5840,20.2740 22.4055,20.7157 22.4100,21.1860 C22.4115,21.2625 22.4198,21.3382 22.4302,21.4132 C19.6477,22.0912 17.7030,23.6205 17.7210,25.3680 C17.7225,25.5787 17.7570,25.7857 17.8155,25.9860 C17.1847,26.3317 16.7625,26.9805 16.7700,27.7177 C16.7722,27.9772 16.8292,28.2232 16.9275,28.4490 C16.7130,28.8517 16.5892,29.2972 16.5945,29.7690 C16.6110,31.4655 18.2107,32.8147 20.1675,32.7825 L21.6000,32.7592 C21.8182,33.4890 22.6207,34.0222 23.5747,34.0072 C23.7600,34.0042 23.9377,33.9780 24.1095,33.9367 C24.6135,35.4165 27.1020,36.5077 30.0930,36.4590 C31.9867,36.4282 33.6712,35.9460 34.7737,35.2170 C35.9220,35.5087 37.1782,35.6610 38.4967,35.6400 C40.6980,35.6032 42.7207,35.0925 44.3430,34.2615 C45.1665,35.2177 46.6687,35.8477 48.3862,35.8185 C50.9662,35.7757 53.0445,34.2712 53.0265,32.4592 C53.0250,32.4082 53.0182,32.3595 53.0137,32.3115 C55.3387,31.9387 57.0397,30.8070 57.0270,29.4930 Z" style="fill-rule: evenodd; fill: url(#grad822); "/>
    <defs xmlns="http://www.w3.org/2000/svg" xmlns:xlink="http://www.w3.org/1999/xlink">
      <linearGradient id="grad823">
        <stop offset="0%" stop-color="#002041" stop-opacity="1.0000"/>
        <stop offset="100%" stop-color="#a6d6f5" stop-opacity="1.0000"/>
      </linearGradient>
      <linearGradient xlink:href="#grad823" id="grad824" x1="0" y1="0" x2="0" y2="1" gradientTransform="rotate(135 .5 .5)" gradientUnits="objectBoundingBox">
  </linearGradient>
    </defs>
    <path xmlns="http://www.w3.org/2000/svg" d="  M55.3665,20.5702 C55.3665,18.8640 54.8362,17.2657 53.9138,15.8947 C54.4680,14.9317 54.7808,13.8547 54.7808,12.7207 C54.7808,8.5890 50.6715,5.2395 45.6075,5.2395 C45.0847,5.2395 44.5740,5.2800 44.0767,5.3482 C43.1737,3.8767 41.8447,2.9415 40.3567,2.9415 C39.4560,2.9415 38.6160,3.2880 37.8915,3.8820 C37.0657,3.5287 36.1763,3.2542 35.2342,3.0735 C34.2487,1.2397 32.3880,0.0000 30.2505,0.0000 C27.5790,0.0000 25.3425,1.9327 24.7035,4.5457 C24.6098,4.5757 24.5175,4.6065 24.4260,4.6387 C24.0682,4.5735 23.6963,4.5352 23.3130,4.5352 C20.9535,4.5352 18.9945,5.8365 18.5873,7.5510 C15.3375,7.9342 12.7890,9.8715 12.3525,12.3120 C11.9520,13.1025 11.7082,13.9545 11.6550,14.8447 C10.4160,16.0147 9.6570,17.5515 9.6570,19.2428 C9.6570,22.1617 11.9055,24.6330 15.0232,25.5135 C15.0195,25.5885 15.0098,25.6613 15.0098,25.7377 C15.0098,28.8502 18.0420,31.3762 21.7830,31.3762 C21.8032,31.3762 21.8243,31.3732 21.8437,31.3732 C24.3217,33.0285 27.7552,34.0552 31.5525,34.0552 C34.2353,34.0552 36.7335,33.5392 38.8455,32.6550 C40.0057,33.3157 41.3850,33.7035 42.8685,33.7035 C46.4235,33.7035 49.3905,31.4992 50.1225,28.5547 C53.2575,26.9542 55.3665,23.9790 55.3665,20.5702 Z" style="fill-rule: evenodd; fill: url(#grad824); "/>
    <defs xmlns="http://www.w3.org/2000/svg" xmlns:xlink="http://www.w3.org/1999/xlink">
      <linearGradient id="grad825">
        <stop offset="0%" stop-color="#002041" stop-opacity="1.0000"/>
        <stop offset="100%" stop-color="#a6d6f5" stop-opacity="1.0000"/>
      </linearGradient>
      <linearGradient xlink:href="#grad825" id="grad826" x1="0" y1="0" x2="0" y2="1" gradientTransform="rotate(135 .5 .5)" gradientUnits="objectBoundingBox">
  </linearGradient>
    </defs>
    <path xmlns="http://www.w3.org/2000/svg" d="  M42.5175,19.3500 C42.5175,18.2370 41.5027,17.2635 39.9870,16.7250 C40.4588,16.3837 40.7370,15.9788 40.7370,15.5445 C40.7370,14.7645 39.8498,14.0805 38.5192,13.6898 C38.5072,13.6620 38.4930,13.6365 38.4818,13.6095 C38.7203,13.2637 38.8612,12.8603 38.8612,12.4275 C38.8612,11.1615 37.6852,10.1340 36.2355,10.1340 C36.1995,10.1340 36.1628,10.1377 36.1275,10.1385 C36.3165,9.7560 36.4230,9.3368 36.4230,8.8965 C36.4230,7.0995 34.6822,5.6415 32.5320,5.6415 C32.3850,5.6415 32.2402,5.6490 32.0977,5.6618 C31.9680,2.9490 29.3400,0.7800 26.1090,0.7800 C23.7922,0.7800 21.7860,1.8953 20.7855,3.5257 C20.5312,3.6412 20.3010,3.7785 20.0917,3.9307 C19.0327,3.1095 17.6647,2.6145 16.1700,2.6145 C12.8040,2.6145 10.0755,5.1188 10.0755,8.2080 C10.0755,8.2800 10.0837,8.3505 10.0875,8.4218 C9.7815,8.8350 9.6060,9.3082 9.6060,9.8123 C9.6060,9.8948 9.6135,9.9765 9.6217,10.0568 C6.9652,10.7378 5.0955,12.3473 5.0955,14.2253 C5.0955,14.4525 5.1262,14.6753 5.1795,14.8935 C4.5750,15.2535 4.1670,15.9428 4.1670,16.7363 C4.1670,17.0145 4.2180,17.2800 4.3102,17.5238 C4.1017,17.9528 3.9795,18.4305 3.9795,18.9368 C3.9795,20.7600 5.4915,22.2383 7.3552,22.2383 L8.7210,22.2383 C8.9220,23.0265 9.6802,23.6138 10.5900,23.6138 C10.7662,23.6138 10.9380,23.5890 11.1007,23.5478 C11.5665,25.1460 13.9283,26.3648 16.7775,26.3648 C18.5835,26.3648 20.1937,25.8758 21.2513,25.1123 C22.3440,25.4445 23.5387,25.6305 24.7957,25.6305 C26.8935,25.6305 28.8278,25.1160 30.3803,24.2520 C31.1550,25.2953 32.5822,25.9980 34.2187,25.9980 C36.6787,25.9980 38.6738,24.4163 38.6738,22.4663 C38.6738,22.4138 38.6663,22.3605 38.6617,22.3080 C40.8847,21.9503 42.5175,20.7638 42.5175,19.3500 Z" style="fill-rule: evenodd; fill: url(#grad826); "/>
    <defs xmlns="http://www.w3.org/2000/svg" xmlns:xlink="http://www.w3.org/1999/xlink">
      <linearGradient id="grad827">
        <stop offset="0%" stop-color="#002041" stop-opacity="1.0000"/>
        <stop offset="100%" stop-color="#a6d6f5" stop-opacity="1.0000"/>
      </linearGradient>
      <linearGradient xlink:href="#grad827" id="grad828" x1="0" y1="0" x2="0" y2="1" gradientTransform="rotate(180 .5 .5)" gradientUnits="objectBoundingBox">
  </linearGradient>
    </defs>
    <path xmlns="http://www.w3.org/2000/svg" d="  M30.4792,21.3435 C30.3960,21.3420 30.3150,21.3525 30.2340,21.3570 C28.7700,19.6545 25.9260,18.4973 22.6537,18.4905 C18.4215,18.4800 14.9040,20.3992 14.1570,22.9395 C10.4618,23.0670 7.5225,25.0852 7.5180,27.5715 C7.5150,29.7817 9.8347,31.6350 12.9458,32.1187 C13.3065,34.0027 17.2537,35.4937 22.0852,35.5042 C25.3170,35.5132 28.1550,34.8540 29.7930,33.8550 C30.0112,33.8842 30.2325,33.9030 30.4590,33.9030 C33.5902,33.9105 36.1327,31.1055 36.1387,27.6368 C36.1447,24.1680 33.6105,21.3495 30.4792,21.3435 Z" style="fill-rule: evenodd; fill: url(#grad828); "/>
    <defs xmlns="http://www.w3.org/2000/svg" xmlns:xlink="http://www.w3.org/1999/xlink">
      <linearGradient id="grad829">
        <stop offset="0%" stop-color="#002041" stop-opacity="1.0000"/>
        <stop offset="100%" stop-color="#a6d6f5" stop-opacity="1.0000"/>
      </linearGradient>
      <linearGradient xlink:href="#grad829" id="grad830" x1="0" y1="0" x2="0" y2="1" gradientTransform="rotate(180 .5 .5)" gradientUnits="objectBoundingBox">
  </linearGradient>
    </defs>
    <path xmlns="http://www.w3.org/2000/svg" d="  M49.9665,21.6983 C50.0003,20.5575 49.0635,19.5203 47.6363,18.9098 C48.0960,18.5790 48.3735,18.1763 48.3863,17.7315 C48.4102,16.9335 47.5875,16.1978 46.3313,15.7448 C46.3208,15.7170 46.3080,15.6900 46.2990,15.6608 C46.5360,15.3173 46.6830,14.9100 46.6950,14.4668 C46.7347,13.1700 45.6450,12.0735 44.2650,12.0150 C44.2298,12.0128 44.1960,12.0158 44.1623,12.0150 C44.3543,11.6303 44.4675,11.2058 44.4803,10.7550 C44.5365,8.9153 42.9218,7.3538 40.8750,7.2690 C40.7348,7.2630 40.5968,7.2645 40.4603,7.2728 C40.4190,4.4910 37.9830,2.1668 34.9050,2.0385 C32.6985,1.9470 30.7538,3.0098 29.7525,4.6380 C29.5065,4.7468 29.2830,4.8773 29.0783,5.0250 C28.0943,4.1438 26.8065,3.5820 25.3830,3.5220 C22.1760,3.3893 19.5015,5.8440 19.4070,9.0068 C19.4048,9.0803 19.4115,9.1515 19.4115,9.2258 C19.1078,9.6360 18.9270,10.1138 18.9113,10.6298 C18.9083,10.7153 18.9128,10.7993 18.9195,10.8818 C16.3688,11.4735 14.5388,13.0463 14.4818,14.9685 C14.4750,15.2010 14.4968,15.4298 14.5403,15.6555 C13.9545,15.9998 13.5443,16.6898 13.5203,17.5005 C13.5120,17.7863 13.5525,18.0600 13.6328,18.3135 C13.4205,18.7448 13.2900,19.2278 13.2743,19.7475 C13.2188,21.6120 14.6130,23.1855 16.3875,23.2590 L17.6888,23.3130 C17.8560,24.1290 18.5610,24.7605 19.4265,24.7973 C19.5960,24.8033 19.7580,24.7853 19.9148,24.7500 C20.3085,26.4038 22.5218,27.7440 25.2368,27.8588 C26.9558,27.9308 28.5045,27.4928 29.5343,26.7525 C30.5648,27.1365 31.6973,27.3750 32.8943,27.4245 C34.8930,27.5063 36.7500,27.0585 38.2553,26.2350 C38.9595,27.3338 40.2983,28.1085 41.8582,28.1745 C44.1998,28.2713 46.1498,26.7330 46.2075,24.7380 C46.2105,24.6825 46.2045,24.6285 46.2023,24.5738 C48.3315,24.2940 49.9230,23.1443 49.9665,21.6983 Z" style="fill-rule: evenodd; fill: url(#grad830); "/>
    <!--converted by libvisio2svg-->
  </g>
</svg>
