<svg xmlns="http://www.w3.org/2000/svg" xmlns:xlink="http://www.w3.org/1999/xlink" version="1.1" width="0.5609000000" height="0.8316000000" viewBox="0 0 40.3837 59.8777">
  <title><![CDATA[Conference Attendant]]></title>
  <g transform=" scale(1.000000) ">
    <path xmlns="http://www.w3.org/2000/svg" d="  M0.2197,46.7385 C0.2190,46.7925 0.2167,46.8510 0.2167,46.9042 C0.2167,49.5105 1.9867,51.8775 4.8712,53.6348 C6.8025,54.8100 9.2918,56.2650 11.2642,57.3998 C14.3580,59.1788 18.5550,59.8778 23.2800,59.8778 C32.7210,59.8778 40.3763,55.4850 40.3763,50.0632 C40.3763,49.7760 40.3830,40.0057 34.9853,36.0653 C33.8445,35.2335 30.0210,32.6738 25.7753,30.9157 C25.5338,29.6460 25.0358,26.9303 24.7005,25.0545 C26.0610,25.1213 27.8010,23.8508 28.9568,21.8085 C30.2355,19.5488 30.3533,17.1322 29.3168,16.0897 C30.6450,10.2525 28.8870,4.5968 26.0880,2.6272 C25.1452,1.9635 23.0317,0.5377 18.8925,0.1695 C18.0802,0.0600 17.2350,0.0015 16.3665,0.0015 C10.2570,0.0015 5.3055,2.8440 5.3055,6.3503 C5.3055,7.3043 5.6737,8.2095 6.3330,9.0225 C5.5425,11.3415 5.3002,14.1652 5.3002,17.2860 C5.3002,20.7982 6.1627,24.0150 7.5968,26.5343 L6.1365,25.7010 C6.2408,25.3335 6.1883,25.0035 5.9782,24.8805 C5.9782,24.8805 5.3070,24.0900 4.8795,23.7803 C4.4640,23.4795 2.4967,22.1963 2.4967,22.1963 C2.4967,22.1963 1.8022,22.0493 1.7243,22.0410 C1.3095,22.0020 0.7717,22.3875 0.4170,23.0153 C0.0300,23.6985 0.0000,24.4252 0.3165,24.7343 L0.7215,25.0875 C0.7658,25.1415 0.8167,25.1873 0.8760,25.2218 C0.8760,25.2218 2.9243,26.3085 3.3967,26.5058 C3.8190,26.6820 4.9568,26.6835 4.9568,26.6835 C5.1510,26.7975 5.4277,26.6993 5.6737,26.4653 C6.3330,26.8395 7.5713,27.5423 7.5713,27.5423 C7.8900,27.7298 8.2260,27.8873 8.5733,28.0245 C9.2820,28.9672 10.0822,29.7682 10.9575,30.3908 C6.9870,31.7100 3.2062,34.1393 1.7250,37.9470 C0.8482,40.2052 0.4717,43.7197 0.2197,46.7385 Z" style="stroke-width: 1.5000; stroke: #8d98b5; stroke-dasharray: none; stroke-linecap: butt; stroke-linejoin: miter; fill: none; "/>
    <defs xmlns="http://www.w3.org/2000/svg">
      <radialGradient id="grad902" cx="50.0000%" cy="50.0000%" r="100.0000%">
        <stop offset="0%" stop-color="#a6d6f5" stop-opacity="1.0000"/>
        <stop offset="100%" stop-color="#6c90b4" stop-opacity="1.0000"/>
      </radialGradient>
    </defs>
    <path xmlns="http://www.w3.org/2000/svg" d="  M40.3770,50.0625 C40.3770,49.7752 40.3837,40.0050 34.9860,36.0645 C33.2212,34.7767 25.0327,29.3505 18.7965,29.1615 C13.3447,28.9957 4.2360,31.4955 1.7265,37.9462 C0.8482,40.2052 0.4717,43.7190 0.2197,46.7385 C0.2190,46.7925 0.2167,46.8510 0.2167,46.9042 C0.2167,49.5105 1.9867,51.8775 4.8713,53.6347 C6.8025,54.8100 9.2917,56.2650 11.2642,57.3997 C14.3580,59.1787 18.5550,59.8777 23.2800,59.8777 C32.7217,59.8770 40.3770,55.4842 40.3770,50.0625 Z" style="fill-rule: evenodd; fill: url(#grad902); "/>
    <path xmlns="http://www.w3.org/2000/svg" d="  M8.9805,56.2162 C12.5708,48.7147 13.2728,46.2683 14.9198,43.7550 C18.7598,37.8945 23.3235,36.3383 24.7380,34.5203 C26.7653,31.9140 26.0318,30.5310 24.2438,29.8485 C22.6643,29.2455 20.1563,28.9050 17.4630,29.4435 C14.5440,30.0278 10.5480,32.9895 9.4200,35.7532 C8.4375,38.1600 7.6178,54.5122 7.4918,53.1450 C7.6898,55.2840 7.6898,55.4580 7.6898,55.4580 L8.9805,56.2162 Z" style="fill-rule: evenodd; fill: #dae3f9; "/>
    <path xmlns="http://www.w3.org/2000/svg" d="  M11.8972,32.5987 C11.8972,32.5987 9.5287,34.1002 8.3168,43.5990 C7.8300,47.4067 7.6845,55.4445 7.6845,55.4445 L7.4820,55.3372 C7.4820,55.3372 6.9383,46.8457 7.2263,43.4902 C7.6200,38.8912 8.2148,35.7255 12.1867,30.7545 L11.8972,32.5987 Z" style="fill-rule: evenodd; fill: #dae3f9; "/>
    <path xmlns="http://www.w3.org/2000/svg" d="  M12.4215,32.6250 C12.4215,32.6250 9.6473,36.8085 8.8958,43.4347 C8.4630,47.2500 7.6898,55.4587 7.6898,55.4587 C7.6898,55.4587 7.4033,47.5890 7.7520,43.5157 C8.1473,38.9175 9.0555,34.7677 13.0290,29.7952 L12.4215,32.6250 Z" style="fill-rule: evenodd; fill: #727376; "/>
    <defs xmlns="http://www.w3.org/2000/svg">
      <radialGradient id="grad903" cx="50.0000%" cy="50.0000%" r="100.0000%">
        <stop offset="0%" stop-color="#6f4923" stop-opacity="1.0000"/>
        <stop offset="100%" stop-color="#e5c2a0" stop-opacity="1.0000"/>
      </radialGradient>
    </defs>
    <path xmlns="http://www.w3.org/2000/svg" d="  M26.0032,31.5848 C25.9425,30.9825 25.7752,30.9143 25.7752,30.9143 C25.7752,30.9143 24.4020,23.4570 24.3645,23.1015 C24.1312,20.8185 22.3485,20.0805 18.5812,20.0805 C14.8132,20.0805 11.7570,21.8333 11.7570,23.9970 C11.7570,24.4268 11.6797,33.3630 11.6632,34.0853 C11.5710,38.2365 15.6622,40.6740 21.3030,37.2233 C24.3937,35.3310 25.9162,33.5333 26.0032,31.5848 Z" style="fill-rule: evenodd; fill: url(#grad903); "/>
    <path xmlns="http://www.w3.org/2000/svg" d="  M27.8467,14.8853 C26.7525,14.2410 24.9720,15.2940 23.8718,17.2380 C22.7723,19.1835 22.7655,21.2813 23.8590,21.9255 C24.9540,22.5698 26.7330,21.5168 27.8340,19.5728 C28.9342,17.6280 28.9402,15.5295 27.8467,14.8853 Z" style="fill-rule: evenodd; fill: #c6a27e; "/>
    <defs xmlns="http://www.w3.org/2000/svg">
      <radialGradient id="grad904" cx="50.0000%" cy="50.0000%" r="100.0000%">
        <stop offset="0%" stop-color="#6f4923" stop-opacity="1.0000"/>
        <stop offset="100%" stop-color="#e5c2a0" stop-opacity="1.0000"/>
      </radialGradient>
    </defs>
    <path xmlns="http://www.w3.org/2000/svg" d="  M27.8467,15.9533 C26.7525,15.3090 24.9720,16.3628 23.8718,18.3075 C22.7723,20.2515 22.7655,22.3500 23.8590,22.9943 C24.9540,23.6385 26.7330,22.5855 27.8340,20.6408 C28.9342,18.6960 28.9402,16.5975 27.8467,15.9533 Z" style="fill-rule: evenodd; fill: url(#grad904); "/>
    <defs xmlns="http://www.w3.org/2000/svg">
      <radialGradient id="grad905" cx="50.0000%" cy="50.0000%" r="100.0000%">
        <stop offset="0%" stop-color="#ebc8a7" stop-opacity="1.0000"/>
        <stop offset="100%" stop-color="#805a34" stop-opacity="1.0000"/>
      </radialGradient>
    </defs>
    <path xmlns="http://www.w3.org/2000/svg" d="  M24.9600,17.5688 C24.9600,25.6403 21.0578,31.9005 15.4515,31.9005 C9.8437,31.9005 5.3010,25.3568 5.3010,17.2853 C5.3010,9.2130 6.9150,3.1110 15.4515,2.6685 C21.0495,2.3783 24.9600,9.4950 24.9600,17.5688 Z" style="fill-rule: evenodd; fill: url(#grad905); "/>
    <path xmlns="http://www.w3.org/2000/svg" d="  M14.9865,31.2713 C15.0300,31.2728 15.0720,31.2773 15.1155,31.2773 C20.4037,31.2773 24.0945,25.4123 24.1462,17.8230 C23.4142,23.7143 19.4468,30.3473 14.9865,31.2713 Z" style="fill-rule: evenodd; fill: #a17c57; "/>
    <path xmlns="http://www.w3.org/2000/svg" d="  M27.8280,14.9603 C29.0385,15.3773 28.6725,18.0158 28.6410,18.3653 C31.0890,11.7833 29.2500,4.8510 26.0895,2.6265 C25.0538,1.8975 22.6155,0.2453 17.6190,0.0893 C22.5757,2.6265 23.6415,10.9875 22.5293,11.6130 C24.5227,11.2650 24.8483,15.9833 24.8483,15.9833 C24.8483,15.9833 25.9770,14.3243 27.8280,14.9603 Z" style="fill-rule: evenodd; fill: #3d3d3d; "/>
    <defs xmlns="http://www.w3.org/2000/svg">
      <radialGradient id="grad906" cx="50.0000%" cy="50.0000%" r="100.0000%">
        <stop offset="0%" stop-color="#8e8e8e" stop-opacity="1.0000"/>
        <stop offset="100%" stop-color="#4f4f4f" stop-opacity="1.0000"/>
      </radialGradient>
    </defs>
    <path xmlns="http://www.w3.org/2000/svg" d="  M27.4297,6.3495 A11.0618,6.3495 180.0000 1,1 16.3680,0.0000 A11.0618,6.3495 180.0000 0,1 27.4297,6.3495 Z" style="fill-rule: evenodd; fill: url(#grad906); "/>
    <defs xmlns="http://www.w3.org/2000/svg" xmlns:xlink="http://www.w3.org/1999/xlink">
      <linearGradient id="grad907">
        <stop offset="0%" stop-color="#7f8787" stop-opacity="1.0000"/>
        <stop offset="100%" stop-color="#dae1e1" stop-opacity="1.0000"/>
      </linearGradient>
      <linearGradient xlink:href="#grad907" id="grad908" x1="0" y1="0" x2="0" y2="1" gradientTransform="rotate(135 .5 .5)" gradientUnits="objectBoundingBox">
  </linearGradient>
    </defs>
    <path xmlns="http://www.w3.org/2000/svg" d="  M24.0757,12.6345 C24.0712,12.6345 23.5035,11.4990 22.3207,11.5898 C21.1380,11.6798 19.4685,12.1838 16.0942,12.0525 C10.9005,12.0495 6.8932,10.1633 5.7660,7.3875 C5.7435,7.3328 5.7690,7.2713 5.8245,7.2495 C5.8785,7.2270 5.9407,7.2540 5.9640,7.3088 C7.0215,9.9488 12.0030,11.1623 15.5122,11.3610 C18.1927,11.5125 20.8132,11.1518 22.2037,11.2178 C23.5950,11.2838 24.0757,12.6345 24.0757,12.6345 Z" style="fill-rule: evenodd; fill: url(#grad908); "/>
    <defs xmlns="http://www.w3.org/2000/svg" xmlns:xlink="http://www.w3.org/1999/xlink">
      <linearGradient id="grad909">
        <stop offset="0%" stop-color="#080808" stop-opacity="1.0000"/>
        <stop offset="100%" stop-color="#c4c5c6" stop-opacity="1.0000"/>
      </linearGradient>
      <linearGradient xlink:href="#grad909" id="grad910" x1="0" y1="0" x2="0" y2="1" gradientTransform="rotate(315 .5 .5)" gradientUnits="objectBoundingBox">
  </linearGradient>
    </defs>
    <path xmlns="http://www.w3.org/2000/svg" d="  M4.8802,23.7787 C4.4647,23.4780 2.4975,22.1947 2.4975,22.1947 C2.4975,22.1947 1.8030,22.0477 1.7250,22.0395 C1.3102,22.0005 0.7725,22.3860 0.4177,23.0137 C0.0307,23.6970 0.0007,24.4237 0.3172,24.7327 L0.8767,25.2202 C0.8767,25.2202 2.9250,26.3070 3.3975,26.5042 C3.8197,26.6805 4.9575,26.6820 4.9575,26.6820 L5.9782,24.8782 C5.9790,24.8790 5.3077,24.0892 4.8802,23.7787 Z" style="fill-rule: evenodd; fill: url(#grad910); "/>
    <g xmlns="http://www.w3.org/2000/svg" id="Layer1064">
      <path d="  M1.2360,23.4262 C1.6560,22.6845 2.3100,22.2547 2.7735,22.3792 C2.7457,22.3545 2.5942,22.2637 2.5627,22.2450 C2.1000,21.9727 1.3470,22.4167 0.8827,23.2395 C0.4185,24.0607 0.4147,24.9480 0.8775,25.2202 C0.9225,25.2472 1.0995,25.3230 1.1482,25.3365 C0.7740,25.0080 0.8025,24.1920 1.2360,23.4262 Z" style="stroke-width: 0.0196; stroke-linecap: butt; stroke-linejoin: miter; fill-rule: evenodd; fill: #cdcfcf; "/>
      <path d="  M1.2360,23.4262 C1.6560,22.6845 2.3100,22.2547 2.7735,22.3792 C2.7457,22.3545 2.5942,22.2637 2.5627,22.2450 C2.1000,21.9727 1.3470,22.4167 0.8827,23.2395 C0.4185,24.0607 0.4147,24.9480 0.8775,25.2202 C0.9225,25.2472 1.0995,25.3230 1.1482,25.3365 C0.7740,25.0080 0.8025,24.1920 1.2360,23.4262 Z" style="stroke-width: 0.0196; stroke: #000000; stroke-dasharray: none; stroke-linecap: butt; stroke-linejoin: miter; fill: none; "/>
    </g>
    <path xmlns="http://www.w3.org/2000/svg" d="  M5.9790,24.8790 C5.6985,24.7140 5.2432,24.9840 4.9635,25.4827 C4.6800,25.9807 4.6785,26.5177 4.9582,26.6827 C5.2387,26.8477 5.6932,26.5785 5.9767,26.0797 C6.2580,25.5810 6.2602,25.0447 5.9790,24.8790 Z" style="fill-rule: evenodd; fill: #333333; "/>
    <defs xmlns="http://www.w3.org/2000/svg" xmlns:xlink="http://www.w3.org/1999/xlink">
      <linearGradient id="grad911">
        <stop offset="0%" stop-color="#080808" stop-opacity="1.0000"/>
        <stop offset="100%" stop-color="#c4c5c6" stop-opacity="1.0000"/>
      </linearGradient>
      <linearGradient xlink:href="#grad911" id="grad912" x1="0" y1="0" x2="0" y2="1" gradientTransform="rotate(90 .5 .5)" gradientUnits="objectBoundingBox">
  </linearGradient>
    </defs>
    <path xmlns="http://www.w3.org/2000/svg" d="  M28.9717,15.8130 C27.5730,14.9887 25.2975,16.3365 23.8897,18.8227 C22.4820,21.3090 22.4760,23.9932 23.8747,24.8175 C25.2750,25.6417 27.5490,24.2932 28.9567,21.8077 C30.3637,19.3207 30.3712,16.6365 28.9717,15.8130 Z" style="fill-rule: evenodd; fill: url(#grad912); "/>
    <defs xmlns="http://www.w3.org/2000/svg">
      <radialGradient id="grad913" cx="50.0000%" cy="50.0000%" r="100.0000%">
        <stop offset="0%" stop-color="#ffffff" stop-opacity="1.0000"/>
        <stop offset="100%" stop-color="#669999" stop-opacity="1.0000"/>
      </radialGradient>
    </defs>
    <path xmlns="http://www.w3.org/2000/svg" d="  M28.4055,16.8135 C27.3180,16.1730 25.5472,17.2200 24.4522,19.1542 C23.3572,21.0885 23.3520,23.1750 24.4417,23.8170 C25.5285,24.4575 27.2985,23.4097 28.3927,21.4747 C29.4892,19.5412 29.4937,17.4547 28.4055,16.8135 Z" style="fill-rule: evenodd; fill: url(#grad913); "/>
    <defs xmlns="http://www.w3.org/2000/svg">
      <linearGradient id="grad914">
        <stop offset="0%" stop-color="#080808" stop-opacity="1.0000"/>
        <stop offset="100%" stop-color="#c4c5c6" stop-opacity="1.0000"/>
      </linearGradient>
    </defs>
    <path xmlns="http://www.w3.org/2000/svg" d="  M27.2535,19.6455 C27.1830,19.6027 27.0900,19.6147 26.9962,19.6665 L26.9962,19.6657 L26.9902,19.6695 C26.9850,19.6717 26.9782,19.6755 26.9730,19.6792 L26.1367,20.1645 L26.1367,20.1705 C26.0265,20.2230 25.9110,20.3325 25.8270,20.4832 C25.6762,20.7510 25.6740,21.0397 25.8255,21.1282 C25.8982,21.1717 25.9927,21.1590 26.0887,21.1050 L26.0887,21.1065 L26.9775,20.5882 L26.9775,20.5867 C27.0780,20.5275 27.1777,20.4247 27.2527,20.2897 C27.4035,20.0227 27.4042,19.7340 27.2535,19.6455 Z" style="fill-rule: evenodd; fill: url(#grad914); "/>
    <defs xmlns="http://www.w3.org/2000/svg" xmlns:xlink="http://www.w3.org/1999/xlink">
      <linearGradient id="grad915">
        <stop offset="0%" stop-color="#ffffff" stop-opacity="1.0000"/>
        <stop offset="100%" stop-color="#669999" stop-opacity="1.0000"/>
      </linearGradient>
      <linearGradient xlink:href="#grad915" id="grad916" x1="0" y1="0" x2="0" y2="1" gradientTransform="rotate(90 .5 .5)" gradientUnits="objectBoundingBox">
  </linearGradient>
    </defs>
    <path xmlns="http://www.w3.org/2000/svg" d="  M24.8017,22.4835 C24.5685,22.3470 24.1890,22.5712 23.9535,22.9867 C23.9197,23.0467 23.8927,23.1067 23.8680,23.1667 C24.0037,23.4450 24.1920,23.6692 24.4425,23.8177 C24.4612,23.8297 24.4860,23.8365 24.5062,23.8477 C24.6150,23.7555 24.7170,23.6325 24.8002,23.4855 C25.0357,23.0700 25.0357,22.6215 24.8017,22.4835 Z" style="fill-rule: evenodd; fill: url(#grad916); "/>
    <path xmlns="http://www.w3.org/2000/svg" d="  M24.5490,22.6012 C24.4395,22.5375 24.2880,22.5795 24.1477,22.6950 L17.0227,26.8185 C16.0672,27.3750 14.2815,27.8182 12.4320,27.8152 C10.8720,27.8160 9.2632,27.5077 8.0190,26.7727 L5.7217,25.4632 C5.7195,25.4625 5.7187,25.4580 5.7165,25.4572 C5.5957,25.3852 5.3970,25.5022 5.2762,25.7175 C5.1547,25.9335 5.1547,26.1660 5.2732,26.2372 C5.2815,26.2425 7.5720,27.5422 7.5720,27.5422 C9.0060,28.3845 10.7572,28.7025 12.4312,28.7040 C14.4217,28.7002 16.2967,28.2577 17.4667,27.5880 L23.9602,23.8342 C24.2497,23.6445 24.4650,23.4877 24.5467,23.3430 C24.7200,23.0355 24.7222,22.7040 24.5490,22.6012 Z" style="fill-rule: evenodd; fill: #333333; "/>
    <!--converted by libvisio2svg-->
  </g>
</svg>
