<svg xmlns="http://www.w3.org/2000/svg" xmlns:xlink="http://www.w3.org/1999/xlink" version="1.1" width="0.7703000000" height="0.8149000000" viewBox="0 0 55.4647 58.6702">
  <title><![CDATA[Conference Attendant Application]]></title>
  <g transform=" scale(1.000000) ">
    <path xmlns="http://www.w3.org/2000/svg" d="  M0.0390,45.0202 L55.4647,45.0202 L55.4647,0.0240 L0.0390,0.0240 L0.0390,45.0202 Z" style="stroke-width: 1.5000; stroke: #8d99b5; stroke-dasharray: none; stroke-linecap: butt; stroke-linejoin: miter; fill: none; "/>
    <path xmlns="http://www.w3.org/2000/svg" d="  M12.5565,47.5717 C12.5558,47.6182 12.5542,47.6678 12.5542,47.7128 C12.5542,49.9140 14.0490,51.9135 16.4858,53.3970 C18.1170,54.3900 20.2193,55.6192 21.8857,56.5770 C24.4987,58.0800 28.0440,58.6695 32.0355,58.6695 C40.0103,58.6695 46.4767,54.9592 46.4767,50.3797 C46.4767,50.1375 46.4827,41.8837 41.9228,38.5553 C40.9597,37.8517 37.7295,35.6903 34.1430,34.2052 C33.9398,33.1320 33.5182,30.8385 33.2355,29.2538 C34.3845,29.3100 35.8545,28.2367 36.8310,26.5118 C37.9110,24.6030 38.0108,22.5615 37.1347,21.6818 C38.2568,16.7513 36.7718,11.9738 34.4078,10.3103 C33.6112,9.7500 31.8262,8.5455 28.3298,8.2342 C27.6442,8.1420 26.9303,8.0925 26.1960,8.0925 C21.0360,8.0925 16.8525,10.4933 16.8525,13.4550 C16.8525,14.2612 17.1645,15.0262 17.7210,15.7125 C17.0528,17.6708 16.8480,20.0565 16.8480,22.6927 C16.8480,25.6590 17.5777,28.3763 18.7882,30.5048 L17.5538,29.8012 C17.6415,29.4907 17.5980,29.2118 17.4203,29.1075 C17.4203,29.1075 16.8533,28.4400 16.4925,28.1782 C16.1415,27.9240 14.4795,26.8403 14.4795,26.8403 C14.4795,26.8403 13.8930,26.7157 13.8270,26.7090 C13.4768,26.6760 13.0230,27.0022 12.7222,27.5317 C12.3952,28.1093 12.3705,28.7227 12.6375,28.9845 L12.9802,29.2830 C13.0170,29.3288 13.0597,29.3670 13.1107,29.3962 C13.1107,29.3962 14.8410,30.3142 15.2408,30.4808 C15.5970,30.6292 16.5585,30.6307 16.5585,30.6307 C16.7220,30.7275 16.9560,30.6450 17.1645,30.4470 C17.7210,30.7627 18.7673,31.3568 18.7673,31.3568 C19.0365,31.5150 19.3208,31.6485 19.6133,31.7640 C20.2132,32.5605 20.8882,33.2370 21.6278,33.7628 C18.2738,34.8765 15.0810,36.9293 13.8300,40.1460 C13.0875,42.0540 12.7687,45.0225 12.5565,47.5717 Z" style="stroke-width: 1.5000; stroke: #8d99b5; stroke-dasharray: none; stroke-linecap: butt; stroke-linejoin: miter; fill: none; "/>
    <defs xmlns="http://www.w3.org/2000/svg" xmlns:xlink="http://www.w3.org/1999/xlink">
      <linearGradient id="grad917">
        <stop offset="0%" stop-color="#808788" stop-opacity="1.0000"/>
        <stop offset="100%" stop-color="#f3faf8" stop-opacity="1.0000"/>
      </linearGradient>
      <linearGradient xlink:href="#grad917" id="grad918" x1="0" y1="0" x2="0" y2="1" gradientTransform="rotate(135 .5 .5)" gradientUnits="objectBoundingBox">
  </linearGradient>
    </defs>
    <path xmlns="http://www.w3.org/2000/svg" d="  M0.0000,44.9963 L55.4257,44.9963 L55.4257,0.0000 L0.0000,0.0000 L0.0000,44.9963 Z" style="fill-rule: evenodd; fill: url(#grad918); "/>
    <g xmlns="http://www.w3.org/2000/svg" id="Layer1065">
      <path d="  M1.0748,43.8862 L54.3495,43.8862 L54.3495,3.4125 L1.0748,3.4125 L1.0748,43.8862 Z" style="stroke-width: 0.5625; stroke-linecap: butt; stroke-linejoin: miter; fill-rule: evenodd; fill: #ffffff; "/>
      <path d="  M1.0748,43.8862 L54.3495,43.8862 L54.3495,3.4125 L1.0748,3.4125 L1.0748,43.8862 Z" style="stroke-width: 0.5625; stroke: #767677; stroke-dasharray: none; stroke-linecap: butt; stroke-linejoin: miter; fill: none; "/>
    </g>
    <path xmlns="http://www.w3.org/2000/svg" d="  M47.2170,2.5890 L49.2637,2.5890 L49.2637,0.5887 L47.2170,0.5887 L47.2170,2.5890 Z" style="fill-rule: evenodd; fill: #b3b3b3; "/>
    <path xmlns="http://www.w3.org/2000/svg" d="  M43.5998,2.5890 L45.6473,2.5890 L45.6473,0.5887 L43.5998,0.5887 L43.5998,2.5890 Z" style="fill-rule: evenodd; fill: #b3b3b3; "/>
    <path xmlns="http://www.w3.org/2000/svg" d="  M50.8470,2.5823 L52.8937,2.5823 L52.8937,0.5820 L50.8470,0.5820 L50.8470,2.5823 Z" style="fill-rule: evenodd; fill: #b3b3b3; "/>
    <defs xmlns="http://www.w3.org/2000/svg" xmlns:xlink="http://www.w3.org/1999/xlink">
      <linearGradient id="grad919">
        <stop offset="0%" stop-color="#808788" stop-opacity="1.0000"/>
        <stop offset="100%" stop-color="#dae1e1" stop-opacity="1.0000"/>
      </linearGradient>
      <linearGradient xlink:href="#grad919" id="grad920" x1="0" y1="0" x2="0" y2="1" gradientTransform="rotate(180 .5 .5)" gradientUnits="objectBoundingBox">
  </linearGradient>
    </defs>
    <path xmlns="http://www.w3.org/2000/svg" d="  M1.5675,5.4607 L53.9085,5.4607 L53.9085,3.9233 L1.5675,3.9233 L1.5675,5.4607 Z" style="fill-rule: evenodd; fill: url(#grad920); "/>
    <defs xmlns="http://www.w3.org/2000/svg">
      <radialGradient id="grad921" cx="50.0000%" cy="50.0000%" r="100.0000%">
        <stop offset="0%" stop-color="#a8d6f3" stop-opacity="1.0000"/>
        <stop offset="100%" stop-color="#6d91b4" stop-opacity="1.0000"/>
      </radialGradient>
    </defs>
    <path xmlns="http://www.w3.org/2000/svg" d="  M46.4775,50.3805 C46.4775,50.1382 46.4835,41.8845 41.9235,38.5560 C40.4333,37.4685 33.5160,32.8845 28.2488,32.7255 C23.6438,32.5852 15.9503,34.6972 13.8300,40.1467 C13.0883,42.0547 12.7695,45.0233 12.5573,47.5725 C12.5565,47.6190 12.5550,47.6685 12.5550,47.7135 C12.5550,49.9147 14.0498,51.9142 16.4865,53.3977 C18.1178,54.3907 20.2200,55.6200 21.8865,56.5777 C24.4995,58.0807 28.0448,58.6702 32.0363,58.6702 C40.0110,58.6695 46.4775,54.9593 46.4775,50.3805 Z" style="fill-rule: evenodd; fill: url(#grad921); "/>
    <path xmlns="http://www.w3.org/2000/svg" d="  M19.9567,55.5780 C22.9890,49.2412 23.5823,47.1750 24.9728,45.0517 C28.2165,40.1010 32.0715,38.7870 33.2662,37.2517 C34.9785,35.0505 34.3590,33.8820 32.8485,33.3060 C31.5142,32.7967 29.3955,32.5087 27.1208,32.9640 C24.6555,33.4575 21.2797,35.9587 20.3265,38.2935 C19.4978,40.3260 18.8047,54.1387 18.6975,52.9845 C18.8648,54.7912 18.8648,54.9375 18.8648,54.9375 L19.9567,55.5780 Z" style="fill-rule: evenodd; fill: #dbe3f3; "/>
    <path xmlns="http://www.w3.org/2000/svg" d="  M22.4205,35.6288 C22.4205,35.6288 20.4195,36.8963 19.3957,44.9205 C18.9847,48.1373 18.8617,54.9270 18.8617,54.9270 L18.6907,54.8363 C18.6907,54.8363 18.2325,47.6640 18.4755,44.8290 C18.8077,40.9448 19.3102,38.2710 22.6650,34.0710 L22.4205,35.6288 Z" style="fill-rule: evenodd; fill: #dbe3f3; "/>
    <path xmlns="http://www.w3.org/2000/svg" d="  M22.8630,35.6505 C22.8630,35.6505 20.5192,39.1845 19.8840,44.7818 C19.5187,48.0045 18.8655,54.9383 18.8655,54.9383 C18.8655,54.9383 18.6240,48.2910 18.9180,44.8508 C19.2517,40.9665 20.0197,37.4610 23.3752,33.2610 L22.8630,35.6505 Z" style="fill-rule: evenodd; fill: #737477; "/>
    <defs xmlns="http://www.w3.org/2000/svg">
      <radialGradient id="grad922" cx="50.0000%" cy="50.0000%" r="100.0000%">
        <stop offset="0%" stop-color="#6f4a24" stop-opacity="1.0000"/>
        <stop offset="100%" stop-color="#e4c2a0" stop-opacity="1.0000"/>
      </radialGradient>
    </defs>
    <path xmlns="http://www.w3.org/2000/svg" d="  M34.3358,34.7723 C34.2848,34.2630 34.1430,34.2060 34.1430,34.2060 C34.1430,34.2060 32.9828,27.9068 32.9520,27.6060 C32.7548,25.6778 31.2488,25.0545 28.0665,25.0545 C24.8835,25.0545 22.3020,26.5358 22.3020,28.3628 C22.3020,28.7258 22.2368,36.2738 22.2233,36.8842 C22.1453,40.3905 25.6013,42.4500 30.3653,39.5340 C32.9768,37.9365 34.2623,36.4177 34.3358,34.7723 Z" style="fill-rule: evenodd; fill: url(#grad922); "/>
    <path xmlns="http://www.w3.org/2000/svg" d="  M35.8928,20.6655 C34.9688,20.1210 33.4650,21.0112 32.5350,22.6530 C31.6065,24.2955 31.6005,26.0685 32.5245,26.6122 C33.4485,27.1560 34.9515,26.2665 35.8823,24.6247 C36.8115,22.9822 36.8168,21.2100 35.8928,20.6655 Z" style="fill-rule: evenodd; fill: #c5a27f; "/>
    <defs xmlns="http://www.w3.org/2000/svg">
      <radialGradient id="grad923" cx="50.0000%" cy="50.0000%" r="100.0000%">
        <stop offset="0%" stop-color="#6f4a24" stop-opacity="1.0000"/>
        <stop offset="100%" stop-color="#e4c2a0" stop-opacity="1.0000"/>
      </radialGradient>
    </defs>
    <path xmlns="http://www.w3.org/2000/svg" d="  M35.8928,21.5685 C34.9688,21.0240 33.4650,21.9143 32.5350,23.5568 C31.6065,25.1985 31.6005,26.9715 32.5245,27.5153 C33.4485,28.0590 34.9515,27.1695 35.8823,25.5278 C36.8115,23.8845 36.8168,22.1123 35.8928,21.5685 Z" style="fill-rule: evenodd; fill: url(#grad923); "/>
    <defs xmlns="http://www.w3.org/2000/svg">
      <radialGradient id="grad924" cx="50.0000%" cy="50.0000%" r="100.0000%">
        <stop offset="0%" stop-color="#ebc8a8" stop-opacity="1.0000"/>
        <stop offset="100%" stop-color="#805b35" stop-opacity="1.0000"/>
      </radialGradient>
    </defs>
    <path xmlns="http://www.w3.org/2000/svg" d="  M33.4545,22.9327 C33.4545,29.7510 30.1575,35.0392 25.4228,35.0392 C20.6865,35.0392 16.8480,29.5118 16.8480,22.6935 C16.8480,15.8745 18.2115,10.7205 25.4228,10.3470 C30.1508,10.1010 33.4545,16.1130 33.4545,22.9327 Z" style="fill-rule: evenodd; fill: url(#grad924); "/>
    <path xmlns="http://www.w3.org/2000/svg" d="  M25.0298,34.5075 C25.0665,34.5082 25.1025,34.5120 25.1385,34.5120 C29.6055,34.5120 32.7233,29.5582 32.7675,23.1472 C32.1488,28.1235 28.7970,33.7260 25.0298,34.5075 Z" style="fill-rule: evenodd; fill: #a17d58; "/>
    <path xmlns="http://www.w3.org/2000/svg" d="  M35.8770,20.7292 C36.8993,21.0817 36.5903,23.3100 36.5640,23.6055 C38.6310,18.0457 37.0785,12.1897 34.4085,10.3102 C33.5333,9.6952 31.4738,8.2987 27.2535,8.1675 C31.4408,10.3102 32.3408,17.3730 31.4010,17.9017 C33.0848,17.6077 33.3593,21.5932 33.3593,21.5932 C33.3593,21.5932 34.3140,20.1922 35.8770,20.7292 Z" style="fill-rule: evenodd; fill: #3e3e3e; "/>
    <defs xmlns="http://www.w3.org/2000/svg">
      <radialGradient id="grad925" cx="50.0000%" cy="50.0000%" r="100.0000%">
        <stop offset="0%" stop-color="#8f8f8e" stop-opacity="1.0000"/>
        <stop offset="100%" stop-color="#505050" stop-opacity="1.0000"/>
      </radialGradient>
    </defs>
    <path xmlns="http://www.w3.org/2000/svg" d="  M35.5403,13.4557 A9.3435,5.3633 180.0000 1,1 26.1968,8.0925 A9.3435,5.3633 180.0000 0,1 35.5403,13.4557 Z" style="fill-rule: evenodd; fill: url(#grad925); "/>
    <defs xmlns="http://www.w3.org/2000/svg" xmlns:xlink="http://www.w3.org/1999/xlink">
      <linearGradient id="grad926">
        <stop offset="0%" stop-color="#808788" stop-opacity="1.0000"/>
        <stop offset="100%" stop-color="#dae1e1" stop-opacity="1.0000"/>
      </linearGradient>
      <linearGradient xlink:href="#grad926" id="grad927" x1="0" y1="0" x2="0" y2="1" gradientTransform="rotate(135 .5 .5)" gradientUnits="objectBoundingBox">
  </linearGradient>
    </defs>
    <path xmlns="http://www.w3.org/2000/svg" d="  M32.7075,18.7643 C32.7038,18.7643 32.2238,17.8057 31.2240,17.8815 C30.2258,17.9580 28.8158,18.3833 25.9650,18.2723 C21.5775,18.2693 18.1935,16.6762 17.2403,14.3317 C17.2215,14.2852 17.2433,14.2335 17.2898,14.2155 C17.3355,14.1967 17.3880,14.2192 17.4068,14.2650 C18.3000,16.4955 22.5075,17.5207 25.4723,17.6880 C27.7373,17.8163 29.9513,17.5117 31.1250,17.5672 C32.3018,17.6242 32.7075,18.7643 32.7075,18.7643 Z" style="fill-rule: evenodd; fill: url(#grad927); "/>
    <defs xmlns="http://www.w3.org/2000/svg" xmlns:xlink="http://www.w3.org/1999/xlink">
      <linearGradient id="grad928">
        <stop offset="0%" stop-color="#080808" stop-opacity="1.0000"/>
        <stop offset="100%" stop-color="#c5c5c6" stop-opacity="1.0000"/>
      </linearGradient>
      <linearGradient xlink:href="#grad928" id="grad929" x1="0" y1="0" x2="0" y2="1" gradientTransform="rotate(315 .5 .5)" gradientUnits="objectBoundingBox">
  </linearGradient>
    </defs>
    <path xmlns="http://www.w3.org/2000/svg" d="  M16.4933,28.1783 C16.1423,27.9240 14.4803,26.8403 14.4803,26.8403 C14.4803,26.8403 13.8938,26.7158 13.8278,26.7090 C13.4775,26.6760 13.0238,27.0023 12.7230,27.5318 C12.3960,28.1093 12.3713,28.7228 12.6383,28.9845 L13.1115,29.3970 C13.1115,29.3970 14.8418,30.3150 15.2415,30.4815 C15.5978,30.6300 16.5592,30.6315 16.5592,30.6315 L17.4210,29.1083 C17.4210,29.1075 16.8547,28.4408 16.4933,28.1783 Z" style="fill-rule: evenodd; fill: url(#grad929); "/>
    <g xmlns="http://www.w3.org/2000/svg" id="Layer1066">
      <path d="  M13.4153,27.8813 C13.7700,27.2543 14.3220,26.8920 14.7135,26.9963 C14.6895,26.9760 14.5620,26.8988 14.5358,26.8830 C14.1450,26.6528 13.5090,27.0285 13.1160,27.7230 C12.7230,28.4175 12.7208,29.1668 13.1115,29.3963 C13.1490,29.4188 13.2990,29.4825 13.3403,29.4945 C13.0253,29.2163 13.0485,28.5278 13.4153,27.8813 Z" style="stroke-width: 0.0196; stroke-linecap: butt; stroke-linejoin: miter; fill-rule: evenodd; fill: #ced0cf; "/>
      <path d="  M13.4153,27.8813 C13.7700,27.2543 14.3220,26.8920 14.7135,26.9963 C14.6895,26.9760 14.5620,26.8988 14.5358,26.8830 C14.1450,26.6528 13.5090,27.0285 13.1160,27.7230 C12.7230,28.4175 12.7208,29.1668 13.1115,29.3963 C13.1490,29.4188 13.2990,29.4825 13.3403,29.4945 C13.0253,29.2163 13.0485,28.5278 13.4153,27.8813 Z" style="stroke-width: 0.0196; stroke: #010101; stroke-dasharray: none; stroke-linecap: butt; stroke-linejoin: miter; fill: none; "/>
    </g>
    <path xmlns="http://www.w3.org/2000/svg" d="  M17.4210,29.1075 C17.1840,28.9680 16.7993,29.1960 16.5623,29.6175 C16.3230,30.0383 16.3223,30.4920 16.5585,30.6315 C16.7948,30.7710 17.1788,30.5438 17.4180,30.1223 C17.6573,29.7008 17.6588,29.2478 17.4210,29.1075 Z" style="fill-rule: evenodd; fill: #333333; "/>
    <defs xmlns="http://www.w3.org/2000/svg" xmlns:xlink="http://www.w3.org/1999/xlink">
      <linearGradient id="grad930">
        <stop offset="0%" stop-color="#080808" stop-opacity="1.0000"/>
        <stop offset="100%" stop-color="#c5c5c6" stop-opacity="1.0000"/>
      </linearGradient>
      <linearGradient xlink:href="#grad930" id="grad931" x1="0" y1="0" x2="0" y2="1" gradientTransform="rotate(90 .5 .5)" gradientUnits="objectBoundingBox">
  </linearGradient>
    </defs>
    <path xmlns="http://www.w3.org/2000/svg" d="  M36.8438,21.4493 C35.6617,20.7533 33.7395,21.8918 32.5500,23.9918 C31.3612,26.0925 31.3560,28.3590 32.5380,29.0550 C33.7200,29.7518 35.6415,28.6125 36.8310,26.5125 C38.0198,24.4125 38.0250,22.1453 36.8438,21.4493 Z" style="fill-rule: evenodd; fill: url(#grad931); "/>
    <defs xmlns="http://www.w3.org/2000/svg">
      <radialGradient id="grad932" cx="50.0000%" cy="50.0000%" r="100.0000%">
        <stop offset="0%" stop-color="#ffffff" stop-opacity="1.0000"/>
        <stop offset="100%" stop-color="#669a9a" stop-opacity="1.0000"/>
      </radialGradient>
    </defs>
    <path xmlns="http://www.w3.org/2000/svg" d="  M36.3652,22.2945 C35.4457,21.7530 33.9502,22.6380 33.0262,24.2723 C32.1015,25.9058 32.0970,27.6683 33.0172,28.2105 C33.9360,28.7520 35.4300,27.8663 36.3540,26.2320 C37.2802,24.5993 37.2847,22.8360 36.3652,22.2945 Z" style="fill-rule: evenodd; fill: url(#grad932); "/>
    <defs xmlns="http://www.w3.org/2000/svg">
      <linearGradient id="grad933">
        <stop offset="0%" stop-color="#080808" stop-opacity="1.0000"/>
        <stop offset="100%" stop-color="#c5c5c6" stop-opacity="1.0000"/>
      </linearGradient>
    </defs>
    <path xmlns="http://www.w3.org/2000/svg" d="  M35.3918,24.6870 C35.3325,24.6510 35.2537,24.6615 35.1743,24.7043 L35.1743,24.7035 L35.1690,24.7073 C35.1645,24.7095 35.1592,24.7125 35.1547,24.7155 L34.4483,25.1258 L34.4483,25.1310 C34.3545,25.1760 34.2578,25.2683 34.1858,25.3958 C34.0583,25.6223 34.0568,25.8660 34.1843,25.9410 C34.2458,25.9778 34.3253,25.9665 34.4070,25.9215 L34.4070,25.9230 L35.1578,25.4850 L35.1578,25.4835 C35.2418,25.4340 35.3265,25.3463 35.3902,25.2330 C35.5185,25.0058 35.5192,24.7613 35.3918,24.6870 Z" style="fill-rule: evenodd; fill: url(#grad933); "/>
    <defs xmlns="http://www.w3.org/2000/svg" xmlns:xlink="http://www.w3.org/1999/xlink">
      <linearGradient id="grad934">
        <stop offset="0%" stop-color="#ffffff" stop-opacity="1.0000"/>
        <stop offset="100%" stop-color="#669a9a" stop-opacity="1.0000"/>
      </linearGradient>
      <linearGradient xlink:href="#grad934" id="grad935" x1="0" y1="0" x2="0" y2="1" gradientTransform="rotate(90 .5 .5)" gradientUnits="objectBoundingBox">
  </linearGradient>
    </defs>
    <path xmlns="http://www.w3.org/2000/svg" d="  M33.3217,27.0840 C33.1245,26.9685 32.8042,27.1583 32.6047,27.5085 C32.5770,27.5588 32.5537,27.6098 32.5327,27.6608 C32.6467,27.8955 32.8057,28.0853 33.0172,28.2098 C33.0330,28.2203 33.0532,28.2255 33.0705,28.2353 C33.1620,28.1573 33.2482,28.0538 33.3187,27.9293 C33.5182,27.5790 33.5182,27.2003 33.3217,27.0840 Z" style="fill-rule: evenodd; fill: url(#grad935); "/>
    <path xmlns="http://www.w3.org/2000/svg" d="  M33.1065,27.1838 C33.0142,27.1298 32.8867,27.1658 32.7682,27.2633 L26.7495,30.7462 C25.9425,31.2165 24.4335,31.5907 22.8720,31.5877 C21.5543,31.5885 20.1960,31.3275 19.1438,30.7072 L17.2043,29.6010 C17.2020,29.6003 17.2013,29.5965 17.1998,29.5958 C17.0970,29.5350 16.9305,29.6340 16.8278,29.8155 C16.7250,29.9978 16.7250,30.1943 16.8255,30.2543 C16.8323,30.2588 18.7673,31.3567 18.7673,31.3567 C19.9785,32.0677 21.4582,32.3370 22.8720,32.3385 C24.5535,32.3355 26.1375,31.9612 27.1252,31.3957 L32.6100,28.2248 C32.8545,28.0643 33.0360,27.9315 33.1050,27.8093 C33.2520,27.5505 33.2535,27.2700 33.1065,27.1838 Z" style="fill-rule: evenodd; fill: #333333; "/>
    <!--converted by libvisio2svg-->
  </g>
</svg>
