<svg xmlns="http://www.w3.org/2000/svg" xmlns:xlink="http://www.w3.org/1999/xlink" version="1.1" width="0.8119000000" height="0.8349000000" viewBox="0 0 58.4543 60.1110">
  <title><![CDATA[Conference Announcement Server Role]]></title>
  <g transform=" scale(1.000000) ">
    <path xmlns="http://www.w3.org/2000/svg" d="  M33.0000,9.2873 L22.6267,3.0525 L0.0000,16.0590 L0.0000,48.6293 L0.5017,48.9240 C1.8457,50.6430 4.6335,52.2833 7.7085,53.1555 L11.7172,55.5097 L33.0000,43.2847 L33.0000,40.8795 L33.0000,40.8487 L32.5372,40.6297 L33.0000,40.3642 L33.0000,38.4075 L33.0000,38.3775 L32.5372,38.1585 L33.0000,37.8922 L33.0000,35.9370 L33.0000,35.9062 L32.5695,35.7022 L33.0000,35.4570 L33.0000,9.3180 L33.0000,9.2873 Z" style="stroke-width: 1.8750; stroke: #8d99b5; stroke-dasharray: none; stroke-linecap: butt; stroke-linejoin: miter; fill: none; "/>
    <path xmlns="http://www.w3.org/2000/svg" d="  M17.5440,51.2977 C17.5425,51.3352 17.5418,51.3743 17.5418,51.4095 C17.5418,53.1570 18.7282,54.7448 20.6640,55.9245 C21.9600,56.7127 23.6288,57.6892 24.9533,58.4497 C27.0278,59.6422 29.8433,60.1110 33.0120,60.1110 C39.3450,60.1110 44.4795,57.1642 44.4795,53.5282 C44.4795,53.3355 44.4848,46.7813 40.8630,44.1383 C40.0980,43.5803 37.5338,41.8635 34.6860,40.6838 C34.5232,39.8318 34.1910,38.0108 33.9653,36.7530 C34.8780,36.7980 36.0450,35.9445 36.8205,34.5750 C37.6785,33.0600 37.7580,31.4385 37.0620,30.7403 C37.9530,26.8245 36.7733,23.0303 34.8960,21.7095 C34.2637,21.2647 32.8462,20.3077 30.0683,20.0610 C29.5237,19.9875 28.9583,19.9477 28.3748,19.9477 C24.2767,19.9477 20.9550,21.8542 20.9550,24.2062 C20.9550,24.8468 21.2025,25.4542 21.6443,25.9987 C21.1147,27.5542 20.9505,29.4480 20.9505,31.5420 C20.9505,33.8985 21.5303,36.0562 22.4917,37.7452 L21.5115,37.1865 C21.5820,36.9405 21.5467,36.7185 21.4057,36.6360 C21.4057,36.6360 20.9542,36.1058 20.6692,35.8980 C20.3895,35.6963 19.0710,34.8352 19.0710,34.8352 C19.0710,34.8352 18.6053,34.7362 18.5528,34.7318 C18.2752,34.7048 17.9138,34.9642 17.6753,35.3850 C17.4158,35.8425 17.3963,36.3308 17.6085,36.5378 L17.8800,36.7748 C17.9093,36.8108 17.9438,36.8415 17.9843,36.8648 C17.9843,36.8648 19.3583,37.5938 19.6748,37.7257 C19.9575,37.8435 20.7217,37.8450 20.7217,37.8450 C20.8515,37.9215 21.0368,37.8570 21.2025,37.6987 C21.6443,37.9500 22.4753,38.4218 22.4753,38.4218 C22.6890,38.5470 22.9147,38.6527 23.1465,38.7450 C23.6227,39.3773 24.1605,39.9157 24.7463,40.3320 C22.0830,41.2170 19.5473,42.8467 18.5543,45.4012 C17.9662,46.9162 17.7128,49.2728 17.5440,51.2977 Z" style="stroke-width: 1.8750; stroke: #8d99b5; stroke-dasharray: none; stroke-linecap: butt; stroke-linejoin: miter; fill: none; "/>
    <path xmlns="http://www.w3.org/2000/svg" d="  M58.1430,6.0847 C58.3403,5.7967 58.4543,5.3993 58.4543,4.9050 C58.4543,3.3795 57.3832,1.5255 56.0625,0.7628 C55.5690,0.4778 55.1092,0.3862 54.7283,0.4620 C54.4267,0.3435 54.1320,0.2775 53.8507,0.2775 C53.6603,0.2775 53.4780,0.3060 53.2838,0.3720 C53.2425,0.3945 48.7650,2.8132 45.3945,4.5495 C45.3495,4.5728 45.2880,4.6043 45.2385,4.6590 C45.1897,4.7130 45.1312,4.8113 45.2138,4.8127 C44.1503,5.3550 43.1865,5.8320 42.4800,6.1530 C40.1790,7.5135 37.4760,7.9778 35.2785,8.0970 C35.0707,7.9560 34.8607,7.8218 34.6477,7.6988 C30.7095,5.4248 27.5160,7.2683 27.5160,11.8162 C27.5160,16.3643 30.7095,21.8947 34.6477,24.1695 C38.5867,26.4435 41.7803,24.6000 41.7803,20.0520 C41.7803,19.8750 41.7735,19.6957 41.7645,19.5165 C42.6307,18.1800 43.3748,17.3130 45.2355,15.5790 C46.1655,14.7128 47.8200,13.5360 49.6155,12.3495 C49.6110,12.3885 49.6005,12.4245 49.6005,12.4687 C50.3078,15.4957 51.2310,15.6608 51.2265,17.5567 C51.2213,19.6275 50.6843,21.1988 50.5823,21.7080 C50.4803,22.2173 51.0098,22.7145 51.7770,22.9027 L52.9747,23.2508 C52.9747,23.2508 52.9800,23.2432 52.9830,23.2387 C53.1173,23.2725 53.2665,23.2672 53.4270,23.2020 C53.4270,23.2020 56.0220,21.9142 55.8810,20.2335 L55.8810,11.4870 C55.8810,10.9178 55.9282,9.7965 55.8818,9.5805 C56.0070,9.4988 55.9920,9.3885 55.9777,9.1838 L55.8952,8.6063 C56.8538,8.0340 57.4747,7.6740 57.4897,7.6650 L57.6188,7.5907 L57.5775,7.5187 C57.9037,7.1790 58.0965,6.6892 58.1430,6.0847 Z" style="stroke-width: 1.8750; stroke: #8d99b5; stroke-dasharray: none; stroke-linecap: butt; stroke-linejoin: miter; fill: none; "/>
    <path xmlns="http://www.w3.org/2000/svg" d="  M20.0558,43.3718 L33.0000,35.9040 L32.5687,35.7000 L20.0558,42.8453 L20.0558,43.3718 Z" style="fill-rule: evenodd; fill: #404040; "/>
    <path xmlns="http://www.w3.org/2000/svg" d="  M20.0558,45.8430 L33.0000,38.3760 L32.5365,38.1570 L20.0558,45.3180 L20.0558,45.8430 Z" style="fill-rule: evenodd; fill: #404040; "/>
    <path xmlns="http://www.w3.org/2000/svg" d="  M20.0558,48.3158 L33.0000,40.8480 L32.5365,40.6290 L20.0558,47.7900 L20.0558,48.3158 Z" style="fill-rule: evenodd; fill: #404040; "/>
    <defs xmlns="http://www.w3.org/2000/svg" xmlns:xlink="http://www.w3.org/1999/xlink">
      <linearGradient id="grad843">
        <stop offset="0%" stop-color="#656d6b" stop-opacity="1.0000"/>
        <stop offset="100%" stop-color="#dae1e1" stop-opacity="1.0000"/>
      </linearGradient>
      <linearGradient xlink:href="#grad843" id="grad844" x1="0" y1="0" x2="0" y2="1" gradientTransform="rotate(90 .5 .5)" gradientUnits="objectBoundingBox">
  </linearGradient>
    </defs>
    <path xmlns="http://www.w3.org/2000/svg" d="  M11.7172,21.7560 L0.0000,16.0590 L0.0000,48.6293 L0.5017,48.9240 C0.3930,48.7852 0.2932,48.6458 0.2047,48.5070 L0.2047,34.3365 L0.2047,31.1768 L0.2047,24.4140 L0.2047,17.5958 L10.7962,22.8315 C10.7962,22.8315 10.8360,22.8360 10.8570,22.8375 L10.8570,29.7030 L10.8570,36.4185 L10.8570,39.7763 L10.8570,53.7495 C9.8047,53.6557 8.7412,53.4480 7.7092,53.1555 L11.7180,55.5097 L11.7180,21.7560 L11.7172,21.7560 Z" style="fill-rule: evenodd; fill: url(#grad844); "/>
    <defs xmlns="http://www.w3.org/2000/svg" xmlns:xlink="http://www.w3.org/1999/xlink">
      <linearGradient id="grad845">
        <stop offset="0%" stop-color="#85929d" stop-opacity="0.9882"/>
        <stop offset="100%" stop-color="#dadfe1" stop-opacity="0.9882"/>
      </linearGradient>
      <linearGradient xlink:href="#grad845" id="grad846" x1="0" y1="0" x2="0" y2="1" gradientTransform="rotate(90 .5 .5)" gradientUnits="objectBoundingBox">
  </linearGradient>
    </defs>
    <path xmlns="http://www.w3.org/2000/svg" d="  M10.4085,39.7710 C10.4085,39.8227 10.3463,39.8685 10.2660,39.8685 C10.2593,39.8685 10.2443,39.8685 10.2443,39.8685 C7.0830,39.9157 2.9588,38.4780 0.6292,34.9140 C0.4702,34.7212 0.3262,34.5285 0.2047,34.3372 L0.2047,48.5077 C0.2932,48.6465 0.3937,48.7860 0.5017,48.9247 C1.8457,50.6437 4.6335,52.2840 7.7085,53.1562 C8.7405,53.4487 9.8040,53.6565 10.8563,53.7502 L10.8563,39.7755 C10.7018,39.7620 10.5480,39.7447 10.3928,39.7267 C10.4018,39.7410 10.4085,39.7552 10.4085,39.7710 Z M10.0920,51.9900 C9.9210,52.5337 9.0240,52.7325 8.0903,52.4377 C7.1573,52.1422 6.5393,51.4620 6.7103,50.9197 C6.8820,50.3767 7.7790,50.1772 8.7128,50.4727 C9.6473,50.7675 10.2638,51.4477 10.0920,51.9900 Z M10.2660,49.8172 C10.2593,49.8172 10.2443,49.8172 10.2443,49.8172 C6.9653,49.8667 2.6498,48.3202 0.3750,44.4577 C0.2107,44.1855 0.4065,44.2102 0.4065,44.2102 C1.8465,46.6455 6.0923,49.2022 10.1873,49.6140 C10.2053,49.6162 10.2653,49.6200 10.2728,49.6200 C10.3515,49.6200 10.4093,49.6687 10.4093,49.7212 C10.4085,49.7730 10.3463,49.8172 10.2660,49.8172 Z M10.2660,46.5007 C10.2593,46.5007 10.2443,46.5007 10.2443,46.5007 C6.9653,46.5502 2.6498,45.0030 0.3750,41.1405 C0.2107,40.8682 0.4065,40.8937 0.4065,40.8937 C1.8465,43.3290 6.0923,45.8857 10.1873,46.2975 C10.2053,46.2990 10.2653,46.3035 10.2728,46.3035 C10.3515,46.3035 10.4093,46.3515 10.4093,46.4047 C10.4093,46.4580 10.3463,46.5007 10.2660,46.5007 Z M10.2660,43.1835 C10.2593,43.1835 10.2443,43.1842 10.2443,43.1842 C6.9653,43.2322 2.6498,41.6857 0.3750,37.8240 C0.2107,37.5510 0.4065,37.5772 0.4065,37.5772 C1.8465,40.0117 6.0923,42.5685 10.1873,42.9810 C10.2053,42.9825 10.2653,42.9870 10.2728,42.9870 C10.3515,42.9870 10.4093,43.0350 10.4093,43.0875 C10.4093,43.1400 10.3463,43.1835 10.2660,43.1835 Z" style="fill-rule: evenodd; fill: url(#grad846); "/>
    <defs xmlns="http://www.w3.org/2000/svg" xmlns:xlink="http://www.w3.org/1999/xlink">
      <linearGradient id="grad847">
        <stop offset="0%" stop-color="#85929d" stop-opacity="0.9882"/>
        <stop offset="100%" stop-color="#dadfe1" stop-opacity="0.9882"/>
      </linearGradient>
      <linearGradient xlink:href="#grad847" id="grad848" x1="0" y1="0" x2="0" y2="1" gradientTransform="rotate(90 .5 .5)" gradientUnits="objectBoundingBox">
  </linearGradient>
    </defs>
    <path xmlns="http://www.w3.org/2000/svg" d="  M10.1872,29.7135 C10.2052,29.7150 10.2652,29.7195 10.2727,29.7195 C10.3515,29.7195 10.4092,29.7675 10.4092,29.8207 C10.4092,29.8740 10.3470,29.9167 10.2667,29.9167 C10.2600,29.9167 10.2450,29.9175 10.2450,29.9175 C7.1287,29.9640 3.0772,28.5675 0.7305,25.1137 C0.5295,24.8820 0.3525,24.6480 0.2047,24.4140 L0.2047,31.1767 C0.4402,31.5457 0.7477,31.9140 1.1130,32.2747 C0.8490,31.9357 0.6015,31.5742 0.3757,31.1910 C0.2107,30.9180 0.4065,30.9442 0.4065,30.9442 C1.3912,32.6085 3.6862,34.3297 6.3487,35.3835 C7.6020,35.8425 8.9370,36.1822 10.2682,36.3525 C10.2690,36.3525 10.2720,36.3525 10.2735,36.3525 C10.2795,36.3525 10.2847,36.3555 10.2907,36.3555 C10.4595,36.3765 10.6275,36.3967 10.7962,36.4125 C10.8157,36.4140 10.8360,36.4162 10.8570,36.4185 L10.8570,29.7030 C8.4922,29.4907 6.0682,28.7047 4.0852,27.6435 C5.8807,28.7025 8.0535,29.4990 10.1872,29.7135 Z M10.2660,33.2340 C10.2592,33.2340 10.2442,33.2340 10.2442,33.2340 C6.9652,33.2827 2.6498,31.7355 0.3750,27.8745 C0.2107,27.6015 0.4065,27.6270 0.4065,27.6270 C1.8465,30.0622 6.0922,32.6190 10.1872,33.0307 C10.2052,33.0322 10.2652,33.0367 10.2727,33.0367 C10.3515,33.0367 10.4092,33.0847 10.4092,33.1380 C10.4085,33.1890 10.3462,33.2340 10.2660,33.2340 Z" style="fill-rule: evenodd; fill: url(#grad848); "/>
    <defs xmlns="http://www.w3.org/2000/svg" xmlns:xlink="http://www.w3.org/1999/xlink">
      <linearGradient id="grad849">
        <stop offset="0%" stop-color="#c9d8dd" stop-opacity="0.9882"/>
        <stop offset="100%" stop-color="#f3faf8" stop-opacity="0.9882"/>
      </linearGradient>
      <linearGradient xlink:href="#grad849" id="grad850" x1="0" y1="0" x2="0" y2="1" gradientTransform="rotate(90 .5 .5)" gradientUnits="objectBoundingBox">
  </linearGradient>
    </defs>
    <path xmlns="http://www.w3.org/2000/svg" d="  M10.7955,36.4125 C10.6268,36.3967 10.4588,36.3765 10.2900,36.3555 C10.3605,36.3630 10.4085,36.4065 10.4085,36.4545 C10.4085,36.5062 10.3463,36.5512 10.2660,36.5512 C10.2593,36.5512 10.2443,36.5512 10.2443,36.5512 C7.2915,36.5962 3.4995,35.3437 1.1123,32.2747 C0.7470,31.9147 0.4403,31.5457 0.2040,31.1767 L0.2040,34.3372 C0.3255,34.5285 0.4695,34.7212 0.6285,34.9140 C0.5415,34.7812 0.4560,34.6470 0.3743,34.5075 C0.2100,34.2352 0.4058,34.2615 0.4058,34.2615 C1.2668,35.7165 3.1305,37.2150 5.3655,38.2740 C6.4350,38.7810 7.5900,39.1860 8.7600,39.4372 C9.2348,39.5400 9.7118,39.6165 10.1858,39.6645 C10.2038,39.6667 10.2638,39.6720 10.2713,39.6720 C10.3268,39.6720 10.3703,39.6960 10.3913,39.7282 C10.5465,39.7462 10.7003,39.7642 10.8548,39.7770 L10.8548,36.4192 C10.8353,36.4162 10.8150,36.4140 10.7955,36.4125 Z" style="fill-rule: evenodd; fill: url(#grad850); "/>
    <defs xmlns="http://www.w3.org/2000/svg" xmlns:xlink="http://www.w3.org/1999/xlink">
      <linearGradient id="grad851">
        <stop offset="0%" stop-color="#bed2dd" stop-opacity="0.9882"/>
        <stop offset="100%" stop-color="#f3faf8" stop-opacity="0.9882"/>
      </linearGradient>
      <linearGradient xlink:href="#grad851" id="grad852" x1="0" y1="0" x2="0" y2="1" gradientTransform="rotate(90 .5 .5)" gradientUnits="objectBoundingBox">
  </linearGradient>
    </defs>
    <path xmlns="http://www.w3.org/2000/svg" d="  M10.7955,22.8315 L0.2040,17.5957 L0.2040,24.4140 C0.3517,24.6480 0.5295,24.8820 0.7297,25.1137 C0.6067,24.9337 0.4882,24.7492 0.3742,24.5572 C0.2100,24.2850 0.4057,24.3105 0.4057,24.3105 C1.0957,25.4767 2.4307,26.6707 4.0837,27.6435 C6.0675,28.7047 8.4907,29.4900 10.8555,29.7030 L10.8555,22.8375 C10.8352,22.8360 10.7955,22.8315 10.7955,22.8315 Z M0.5632,18.5017 L10.5337,23.4307 C5.5897,26.1630 0.7515,21.7560 0.5632,18.5017 Z" style="fill-rule: evenodd; fill: url(#grad852); "/>
    <path xmlns="http://www.w3.org/2000/svg" d="  M10.2727,49.6193 C10.2652,49.6193 10.2052,49.6155 10.1872,49.6133 C6.0922,49.2015 1.8465,46.6448 0.4065,44.2095 C0.4065,44.2095 0.2108,44.1848 0.3750,44.4570 C2.6498,48.3195 6.9652,49.8668 10.2442,49.8165 C10.2442,49.8165 10.2600,49.8165 10.2660,49.8165 C10.3462,49.8165 10.4085,49.7723 10.4085,49.7198 C10.4085,49.6688 10.3515,49.6193 10.2727,49.6193 Z" style="fill-rule: evenodd; fill: #010101; "/>
    <path xmlns="http://www.w3.org/2000/svg" d="  M10.2727,46.3035 C10.2652,46.3035 10.2052,46.2990 10.1872,46.2975 C6.0922,45.8858 1.8465,43.3290 0.4065,40.8938 C0.4065,40.8938 0.2108,40.8683 0.3750,41.1405 C2.6498,45.0030 6.9652,46.5510 10.2442,46.5008 C10.2442,46.5008 10.2600,46.5008 10.2660,46.5008 C10.3462,46.5008 10.4085,46.4565 10.4085,46.4040 C10.4085,46.3515 10.3515,46.3035 10.2727,46.3035 Z" style="fill-rule: evenodd; fill: #010101; "/>
    <path xmlns="http://www.w3.org/2000/svg" d="  M10.2727,42.9870 C10.2652,42.9870 10.2052,42.9825 10.1872,42.9810 C6.0922,42.5685 1.8465,40.0118 0.4065,37.5773 C0.4065,37.5773 0.2108,37.5510 0.3750,37.8240 C2.6498,41.6858 6.9652,43.2330 10.2442,43.1843 C10.2442,43.1843 10.2600,43.1835 10.2660,43.1835 C10.3462,43.1835 10.4085,43.1385 10.4085,43.0868 C10.4085,43.0350 10.3515,42.9870 10.2727,42.9870 Z" style="fill-rule: evenodd; fill: #010101; "/>
    <path xmlns="http://www.w3.org/2000/svg" d="  M10.3927,39.7267 C9.8475,39.6600 9.3022,39.5617 8.7607,39.4357 C7.5900,39.1845 6.4350,38.7795 5.3663,38.2725 C3.1313,37.2142 1.2675,35.7157 0.4065,34.2600 C0.4065,34.2600 0.2108,34.2337 0.3750,34.5060 C0.4560,34.6455 0.5423,34.7797 0.6293,34.9125 C2.9588,38.4772 7.0830,39.9142 10.2442,39.8670 C10.2442,39.8670 10.2600,39.8670 10.2660,39.8670 C10.3462,39.8670 10.4085,39.8212 10.4085,39.7695 C10.4085,39.7552 10.4017,39.7410 10.3927,39.7267 Z" style="fill-rule: evenodd; fill: #010101; "/>
    <path xmlns="http://www.w3.org/2000/svg" d="  M10.2900,36.3555 C10.2825,36.3555 10.2750,36.3540 10.2675,36.3525 C10.2540,36.3525 10.2037,36.3480 10.1872,36.3465 C8.8912,36.2160 7.5803,35.8710 6.3488,35.3835 C3.6862,34.3297 1.3912,32.6085 0.4065,30.9442 C0.4065,30.9442 0.2108,30.9180 0.3750,31.1902 C0.6015,31.5742 0.8490,31.9350 1.1123,32.2740 C3.4995,35.3430 7.2915,36.5955 10.2442,36.5505 C10.2442,36.5505 10.2600,36.5505 10.2660,36.5505 C10.3462,36.5505 10.4085,36.5055 10.4085,36.4537 C10.4085,36.4065 10.3605,36.3630 10.2900,36.3555 Z" style="fill-rule: evenodd; fill: #010101; "/>
    <path xmlns="http://www.w3.org/2000/svg" d="  M10.2727,29.7195 C10.2652,29.7195 10.2052,29.7150 10.1872,29.7135 C8.0535,29.4990 5.8815,28.7018 4.0845,27.6435 C2.4315,26.6707 1.0965,25.4760 0.4065,24.3105 C0.4065,24.3105 0.2108,24.2850 0.3750,24.5572 C0.4883,24.7492 0.6075,24.9337 0.7305,25.1137 C3.0773,28.5675 7.1280,29.9640 10.2450,29.9175 C10.2450,29.9175 10.2607,29.9168 10.2667,29.9168 C10.3470,29.9168 10.4092,29.8733 10.4092,29.8208 C10.4092,29.7683 10.3515,29.7195 10.2727,29.7195 Z" style="fill-rule: evenodd; fill: #010101; "/>
    <path xmlns="http://www.w3.org/2000/svg" d="  M10.2727,33.0360 C10.2652,33.0360 10.2052,33.0315 10.1872,33.0300 C6.0922,32.6183 1.8465,30.0615 0.4065,27.6263 C0.4065,27.6263 0.2108,27.6007 0.3750,27.8737 C2.6498,31.7348 6.9652,33.2828 10.2442,33.2333 C10.2442,33.2333 10.2600,33.2333 10.2660,33.2333 C10.3462,33.2333 10.4085,33.1883 10.4085,33.1365 C10.4085,33.0848 10.3515,33.0360 10.2727,33.0360 Z" style="fill-rule: evenodd; fill: #010101; "/>
    <defs xmlns="http://www.w3.org/2000/svg">
      <linearGradient id="grad853">
        <stop offset="0%" stop-color="#656d6b" stop-opacity="1.0000"/>
        <stop offset="100%" stop-color="#dae1e1" stop-opacity="1.0000"/>
      </linearGradient>
    </defs>
    <path xmlns="http://www.w3.org/2000/svg" d="  M8.7128,50.4720 C7.7790,50.1757 6.8828,50.3760 6.7103,50.9190 C6.5385,51.4620 7.1573,52.1422 8.0903,52.4370 C9.0240,52.7325 9.9210,52.5330 10.0920,51.9892 C10.2638,51.4477 9.6473,50.7675 8.7128,50.4720 Z M9.4170,52.2870 C9.0713,52.6140 8.4705,52.5397 8.0783,52.1220 C7.9523,51.9870 7.8630,51.8325 7.8113,51.6742 C7.7783,51.5715 7.7610,51.4680 7.7595,51.3667 C7.7565,51.1402 7.8345,50.9272 7.9958,50.7750 C8.3423,50.4487 8.9430,50.5230 9.3345,50.9407 C9.7275,51.3585 9.7643,51.9600 9.4170,52.2870 Z" style="fill-rule: evenodd; fill: url(#grad853); "/>
    <path xmlns="http://www.w3.org/2000/svg" d="  M7.9958,50.7750 C7.8338,50.9273 7.7565,51.1402 7.7595,51.3668 C7.7655,51.2055 7.8263,51.0555 7.9425,50.9460 C8.0363,50.8583 8.1533,50.8080 8.2793,50.7945 C8.5298,50.7315 8.8260,50.8178 9.0383,51.0427 C9.3270,51.3495 9.3503,51.7972 9.0968,52.0545 C9.0810,52.0755 9.0615,52.0965 9.0420,52.1160 C8.7735,52.3672 8.3100,52.3110 8.0070,51.9877 C7.9170,51.8932 7.8518,51.7852 7.8113,51.6742 C7.8630,51.8325 7.9523,51.9870 8.0783,52.1220 C8.4705,52.5397 9.0713,52.6132 9.4170,52.2870 C9.7643,51.9600 9.7275,51.3585 9.3345,50.9407 C8.9423,50.5230 8.3423,50.4495 7.9958,50.7750 Z" style="fill-rule: evenodd; fill: #010101; "/>
    <defs xmlns="http://www.w3.org/2000/svg">
      <radialGradient id="grad854" cx="0.0000%" cy="100.0000%" r="100.0000%">
        <stop offset="0%" stop-color="#cdde61" stop-opacity="1.0000"/>
        <stop offset="100%" stop-color="#7ab049" stop-opacity="1.0000"/>
      </radialGradient>
    </defs>
    <path xmlns="http://www.w3.org/2000/svg" d="  M9.0413,52.1160 C9.0608,52.0965 9.0803,52.0755 9.0960,52.0545 C9.3495,51.7972 9.3263,51.3502 9.0375,51.0427 C8.8260,50.8177 8.5290,50.7315 8.2785,50.7945 C8.1525,50.8087 8.0355,50.8582 7.9418,50.9460 C7.8255,51.0555 7.7648,51.2055 7.7588,51.3667 C7.7603,51.4680 7.7775,51.5715 7.8105,51.6742 C7.8510,51.7852 7.9163,51.8932 8.0063,51.9877 C8.3100,52.3110 8.7728,52.3672 9.0413,52.1160 Z" style="fill-rule: evenodd; fill: url(#grad854); "/>
    <defs xmlns="http://www.w3.org/2000/svg" xmlns:xlink="http://www.w3.org/1999/xlink">
      <linearGradient id="grad855">
        <stop offset="0%" stop-color="#808788" stop-opacity="1.0000"/>
        <stop offset="100%" stop-color="#f3faf8" stop-opacity="1.0000"/>
      </linearGradient>
      <linearGradient xlink:href="#grad855" id="grad856" x1="0" y1="0" x2="0" y2="1" gradientTransform="rotate(315 .5 .5)" gradientUnits="objectBoundingBox">
  </linearGradient>
    </defs>
    <path xmlns="http://www.w3.org/2000/svg" d="  M0.5632,18.5017 C0.7522,21.7560 5.5897,26.1637 10.5337,23.4307 L0.5632,18.5017 Z M2.4735,19.5712 L8.8485,22.6950 C5.6257,24.2947 2.5575,21.5527 2.4735,19.5712 Z" style="fill-rule: evenodd; fill: url(#grad856); "/>
    <defs xmlns="http://www.w3.org/2000/svg">
      <radialGradient id="grad857" cx="0.0000%" cy="100.0000%" r="100.0000%">
        <stop offset="0%" stop-color="#acd36a" stop-opacity="1.0000"/>
        <stop offset="100%" stop-color="#000000" stop-opacity="1.0000"/>
      </radialGradient>
    </defs>
    <path xmlns="http://www.w3.org/2000/svg" d="  M2.4735,19.5713 C2.5567,21.5528 5.6250,24.2940 8.8485,22.6950 L2.4735,19.5713 Z" style="fill-rule: evenodd; fill: url(#grad857); "/>
    <defs xmlns="http://www.w3.org/2000/svg" xmlns:xlink="http://www.w3.org/1999/xlink">
      <linearGradient id="grad858">
        <stop offset="0%" stop-color="#808788" stop-opacity="1.0000"/>
        <stop offset="100%" stop-color="#dae1e1" stop-opacity="1.0000"/>
      </linearGradient>
      <linearGradient xlink:href="#grad858" id="grad859" x1="0" y1="0" x2="0" y2="1" gradientTransform="rotate(45 .5 .5)" gradientUnits="objectBoundingBox">
  </linearGradient>
    </defs>
    <path xmlns="http://www.w3.org/2000/svg" d="  M11.7435,21.7290 L11.7248,21.7200 L11.7248,55.2930 L33.0000,43.2840 L33.0000,40.8787 L20.0558,48.3158 L20.0558,47.7900 L32.5365,40.6290 L33.0000,40.3635 L33.0000,38.4060 L20.0558,45.8430 L20.0558,45.3180 L32.5365,38.1570 L33.0000,37.8907 L33.0000,35.9347 L20.0558,43.3717 L20.0558,42.8452 L32.5688,35.7000 L33.0000,35.4547 L33.0000,9.3180 L30.1448,10.9582 L11.7435,21.7290 Z" style="fill-rule: evenodd; fill: url(#grad859); "/>
    <defs xmlns="http://www.w3.org/2000/svg" xmlns:xlink="http://www.w3.org/1999/xlink">
      <linearGradient id="grad860">
        <stop offset="0%" stop-color="#808788" stop-opacity="1.0000"/>
        <stop offset="100%" stop-color="#f3faf8" stop-opacity="1.0000"/>
      </linearGradient>
      <linearGradient xlink:href="#grad860" id="grad861" x1="0" y1="0" x2="0" y2="1" gradientTransform="rotate(90 .5 .5)" gradientUnits="objectBoundingBox">
  </linearGradient>
    </defs>
    <path xmlns="http://www.w3.org/2000/svg" d="  M22.6268,3.0525 L0.1088,16.0507 L11.7248,21.7200 L33.0000,9.2872 L22.6268,3.0525 Z" style="fill-rule: evenodd; fill: url(#grad861); "/>
    <defs xmlns="http://www.w3.org/2000/svg">
      <radialGradient id="grad862" cx="50.0000%" cy="50.0000%" r="100.0000%">
        <stop offset="0%" stop-color="#a8d6f3" stop-opacity="1.0000"/>
        <stop offset="100%" stop-color="#6d91b4" stop-opacity="1.0000"/>
      </radialGradient>
    </defs>
    <path xmlns="http://www.w3.org/2000/svg" d="  M44.4795,53.5275 C44.4795,53.3348 44.4847,46.7805 40.8630,44.1375 C39.6810,43.2742 34.1880,39.6338 30.0038,39.5070 C26.3467,39.3960 20.2380,41.0730 18.5542,45.3997 C17.9655,46.9155 17.7120,49.2720 17.5432,51.2962 C17.5417,51.3338 17.5410,51.3728 17.5410,51.4080 C17.5410,53.1555 18.7275,54.7432 20.6632,55.9230 C21.9593,56.7112 23.6280,57.6877 24.9525,58.4482 C27.0270,59.6408 29.8425,60.1095 33.0113,60.1095 C39.3450,60.1110 44.4795,57.1643 44.4795,53.5275 Z" style="fill-rule: evenodd; fill: url(#grad862); "/>
    <path xmlns="http://www.w3.org/2000/svg" d="  M23.4195,57.6555 C25.8277,52.6237 26.2995,50.9827 27.4042,49.2960 C29.9798,45.3653 33.0412,44.3220 33.9900,43.1018 C35.3497,41.3542 34.8570,40.4257 33.6577,39.9683 C32.5987,39.5640 30.9172,39.3353 29.1097,39.6975 C27.1523,40.0883 24.4718,42.0750 23.7157,43.9298 C23.0572,45.5438 22.5067,56.5125 22.4213,55.5960 C22.5547,57.0315 22.5547,57.1470 22.5547,57.1470 L23.4195,57.6555 Z" style="fill-rule: evenodd; fill: #dbe3f3; "/>
    <path xmlns="http://www.w3.org/2000/svg" d="  M25.3763,41.8132 C25.3763,41.8132 23.7878,42.8197 22.9748,49.1917 C22.6485,51.7462 22.5510,57.1380 22.5510,57.1380 L22.4153,57.0660 C22.4153,57.0660 22.0515,51.3697 22.2435,49.1190 C22.5090,46.0350 22.9080,43.9110 25.5720,40.5757 L25.3763,41.8132 Z" style="fill-rule: evenodd; fill: #dbe3f3; "/>
    <path xmlns="http://www.w3.org/2000/svg" d="  M25.7280,41.8312 C25.7280,41.8312 23.8680,44.6377 23.3625,49.0822 C23.0723,51.6412 22.5540,57.1477 22.5540,57.1477 C22.5540,57.1477 22.3613,51.8685 22.5960,49.1370 C22.8608,46.0522 23.4713,43.2682 26.1360,39.9330 L25.7280,41.8312 Z" style="fill-rule: evenodd; fill: #737477; "/>
    <defs xmlns="http://www.w3.org/2000/svg">
      <radialGradient id="grad863" cx="50.0000%" cy="50.0000%" r="100.0000%">
        <stop offset="0%" stop-color="#6f4a24" stop-opacity="1.0000"/>
        <stop offset="100%" stop-color="#e4c2a0" stop-opacity="1.0000"/>
      </radialGradient>
    </defs>
    <path xmlns="http://www.w3.org/2000/svg" d="  M34.8390,41.1338 C34.7970,40.7295 34.6860,40.6838 34.6860,40.6838 C34.6860,40.6838 33.7643,35.6813 33.7395,35.4428 C33.5835,33.9113 32.3873,33.4163 29.8605,33.4163 C27.3330,33.4163 25.2832,34.5923 25.2832,36.0435 C25.2832,36.3323 25.2315,42.3263 25.2202,42.8107 C25.1580,45.5955 27.9023,47.2305 31.6860,44.9153 C33.7590,43.6463 34.7798,42.4403 34.8390,41.1338 Z" style="fill-rule: evenodd; fill: url(#grad863); "/>
    <path xmlns="http://www.w3.org/2000/svg" d="  M36.0743,29.9303 C35.3400,29.4983 34.1467,30.2055 33.4095,31.5090 C32.6715,32.8133 32.6670,34.2203 33.4005,34.6538 C34.1347,35.0858 35.3280,34.3785 36.0668,33.0750 C36.8055,31.7715 36.8085,30.3638 36.0743,29.9303 Z" style="fill-rule: evenodd; fill: #c5a27f; "/>
    <defs xmlns="http://www.w3.org/2000/svg">
      <radialGradient id="grad864" cx="50.0000%" cy="50.0000%" r="100.0000%">
        <stop offset="0%" stop-color="#6f4a24" stop-opacity="1.0000"/>
        <stop offset="100%" stop-color="#e4c2a0" stop-opacity="1.0000"/>
      </radialGradient>
    </defs>
    <path xmlns="http://www.w3.org/2000/svg" d="  M36.0743,30.6473 C35.3400,30.2153 34.1467,30.9218 33.4095,32.2260 C32.6715,33.5303 32.6670,34.9380 33.4005,35.3700 C34.1340,35.8020 35.3280,35.0948 36.0668,33.7913 C36.8055,32.4878 36.8085,31.0808 36.0743,30.6473 Z" style="fill-rule: evenodd; fill: url(#grad864); "/>
    <defs xmlns="http://www.w3.org/2000/svg">
      <radialGradient id="grad865" cx="50.0000%" cy="50.0000%" r="100.0000%">
        <stop offset="0%" stop-color="#ebc8a8" stop-opacity="1.0000"/>
        <stop offset="100%" stop-color="#805b35" stop-opacity="1.0000"/>
      </radialGradient>
    </defs>
    <path xmlns="http://www.w3.org/2000/svg" d="  M34.1392,31.7310 C34.1392,37.1460 31.5210,41.3453 27.7605,41.3453 C23.9992,41.3453 20.9512,36.9555 20.9512,31.5413 C20.9512,26.1270 22.0350,22.0335 27.7605,21.7365 C31.5157,21.5415 34.1392,26.3168 34.1392,31.7310 Z" style="fill-rule: evenodd; fill: url(#grad865); "/>
    <path xmlns="http://www.w3.org/2000/svg" d="  M27.4485,40.9238 C27.4770,40.9245 27.5055,40.9275 27.5348,40.9275 C31.0815,40.9275 33.5573,36.9930 33.5918,31.9020 C33.1020,35.8530 30.4403,40.3035 27.4485,40.9238 Z" style="fill-rule: evenodd; fill: #a17d58; "/>
    <path xmlns="http://www.w3.org/2000/svg" d="  M36.0630,29.9820 C36.8745,30.2618 36.6292,32.0318 36.6082,32.2658 C38.2492,27.8513 37.0170,23.2005 34.8967,21.7088 C34.2015,21.2198 32.5672,20.1120 29.2147,20.0063 C32.5410,21.7088 33.2557,27.3173 32.5095,27.7365 C33.8460,27.5033 34.0642,30.6683 34.0642,30.6683 C34.0642,30.6683 34.8210,29.5553 36.0630,29.9820 Z" style="fill-rule: evenodd; fill: #3e3e3e; "/>
    <defs xmlns="http://www.w3.org/2000/svg">
      <radialGradient id="grad866" cx="50.0000%" cy="50.0000%" r="100.0000%">
        <stop offset="0%" stop-color="#8f8f8e" stop-opacity="1.0000"/>
        <stop offset="100%" stop-color="#505050" stop-opacity="1.0000"/>
      </radialGradient>
    </defs>
    <path xmlns="http://www.w3.org/2000/svg" d="  M35.7952,24.2055 A7.4198,4.2593 180.0000 1,1 28.3755,19.9463 A7.4198,4.2593 180.0000 0,1 35.7952,24.2055 Z" style="fill-rule: evenodd; fill: url(#grad866); "/>
    <defs xmlns="http://www.w3.org/2000/svg" xmlns:xlink="http://www.w3.org/1999/xlink">
      <linearGradient id="grad867">
        <stop offset="0%" stop-color="#808788" stop-opacity="1.0000"/>
        <stop offset="100%" stop-color="#dae1e1" stop-opacity="1.0000"/>
      </linearGradient>
      <linearGradient xlink:href="#grad867" id="grad868" x1="0" y1="0" x2="0" y2="1" gradientTransform="rotate(135 .5 .5)" gradientUnits="objectBoundingBox">
  </linearGradient>
    </defs>
    <path xmlns="http://www.w3.org/2000/svg" d="  M33.5460,28.4220 C33.5422,28.4220 33.1612,27.6608 32.3685,27.7208 C31.5742,27.7808 30.4560,28.1183 28.1925,28.0313 C24.7087,28.0290 22.0207,26.7638 21.2640,24.9023 C21.2490,24.8655 21.2670,24.8243 21.3037,24.8093 C21.3397,24.7943 21.3825,24.8123 21.3960,24.8490 C22.1077,26.6198 25.4467,27.4350 27.8017,27.5678 C29.6002,27.6690 31.3582,27.4275 32.2912,27.4718 C33.2235,27.5160 33.5460,28.4220 33.5460,28.4220 Z" style="fill-rule: evenodd; fill: url(#grad868); "/>
    <defs xmlns="http://www.w3.org/2000/svg" xmlns:xlink="http://www.w3.org/1999/xlink">
      <linearGradient id="grad869">
        <stop offset="0%" stop-color="#080808" stop-opacity="1.0000"/>
        <stop offset="100%" stop-color="#c5c5c6" stop-opacity="1.0000"/>
      </linearGradient>
      <linearGradient xlink:href="#grad869" id="grad870" x1="0" y1="0" x2="0" y2="1" gradientTransform="rotate(315 .5 .5)" gradientUnits="objectBoundingBox">
  </linearGradient>
    </defs>
    <path xmlns="http://www.w3.org/2000/svg" d="  M20.6700,35.8973 C20.3903,35.6955 19.0718,34.8345 19.0718,34.8345 C19.0718,34.8345 18.6060,34.7355 18.5535,34.7310 C18.2760,34.7040 17.9145,34.9635 17.6760,35.3843 C17.4165,35.8418 17.3970,36.3300 17.6093,36.5370 L17.9850,36.8648 C17.9850,36.8648 19.3590,37.5938 19.6755,37.7258 C19.9583,37.8435 20.7225,37.8450 20.7225,37.8450 L21.4065,36.6353 C21.4073,36.6353 20.9558,36.1050 20.6700,35.8973 Z" style="fill-rule: evenodd; fill: url(#grad870); "/>
    <g xmlns="http://www.w3.org/2000/svg" id="Layer1062">
      <path d="  M18.2250,35.6610 C18.5063,35.1630 18.9450,34.8750 19.2563,34.9575 C19.2375,34.9418 19.1363,34.8795 19.1153,34.8675 C18.8040,34.6853 18.3000,34.9838 17.9880,35.5358 C17.6760,36.0878 17.6745,36.6818 17.9850,36.8640 C18.0143,36.8820 18.1320,36.9323 18.1650,36.9420 C17.9160,36.7215 17.9340,36.1748 18.2250,35.6610 Z" style="stroke-width: 0.0196; stroke-linecap: butt; stroke-linejoin: miter; fill-rule: evenodd; fill: #ced0cf; "/>
      <path d="  M18.2250,35.6610 C18.5063,35.1630 18.9450,34.8750 19.2563,34.9575 C19.2375,34.9418 19.1363,34.8795 19.1153,34.8675 C18.8040,34.6853 18.3000,34.9838 17.9880,35.5358 C17.6760,36.0878 17.6745,36.6818 17.9850,36.8640 C18.0143,36.8820 18.1320,36.9323 18.1650,36.9420 C17.9160,36.7215 17.9340,36.1748 18.2250,35.6610 Z" style="stroke-width: 0.0196; stroke: #010101; stroke-dasharray: none; stroke-linecap: butt; stroke-linejoin: miter; fill: none; "/>
    </g>
    <path xmlns="http://www.w3.org/2000/svg" d="  M21.4073,36.6353 C21.2198,36.5250 20.9138,36.7058 20.7255,37.0395 C20.5358,37.3740 20.5343,37.7340 20.7233,37.8450 C20.9108,37.9553 21.2153,37.7745 21.4058,37.4408 C21.5948,37.1070 21.5948,36.7463 21.4073,36.6353 Z" style="fill-rule: evenodd; fill: #333333; "/>
    <defs xmlns="http://www.w3.org/2000/svg" xmlns:xlink="http://www.w3.org/1999/xlink">
      <linearGradient id="grad871">
        <stop offset="0%" stop-color="#080808" stop-opacity="1.0000"/>
        <stop offset="100%" stop-color="#c5c5c6" stop-opacity="1.0000"/>
      </linearGradient>
      <linearGradient xlink:href="#grad871" id="grad872" x1="0" y1="0" x2="0" y2="1" gradientTransform="rotate(90 .5 .5)" gradientUnits="objectBoundingBox">
  </linearGradient>
    </defs>
    <path xmlns="http://www.w3.org/2000/svg" d="  M36.8303,30.5535 C35.8913,30.0007 34.3650,30.9045 33.4208,32.5725 C32.4765,34.2405 32.4720,36.0397 33.4110,36.5925 C34.3493,37.1453 35.8763,36.2415 36.8198,34.5735 C37.7640,32.9062 37.7693,31.1062 36.8303,30.5535 Z" style="fill-rule: evenodd; fill: url(#grad872); "/>
    <defs xmlns="http://www.w3.org/2000/svg">
      <radialGradient id="grad873" cx="50.0000%" cy="50.0000%" r="100.0000%">
        <stop offset="0%" stop-color="#ffffff" stop-opacity="1.0000"/>
        <stop offset="100%" stop-color="#669a9a" stop-opacity="1.0000"/>
      </radialGradient>
    </defs>
    <path xmlns="http://www.w3.org/2000/svg" d="  M36.4508,31.2247 C35.7195,30.7950 34.5330,31.4977 33.7980,32.7952 C33.0638,34.0920 33.0615,35.4930 33.7913,35.9228 C34.5210,36.3525 35.7083,35.6497 36.4418,34.3522 C37.1768,33.0547 37.1805,31.6545 36.4508,31.2247 Z" style="fill-rule: evenodd; fill: url(#grad873); "/>
    <defs xmlns="http://www.w3.org/2000/svg">
      <linearGradient id="grad874">
        <stop offset="0%" stop-color="#080808" stop-opacity="1.0000"/>
        <stop offset="100%" stop-color="#c5c5c6" stop-opacity="1.0000"/>
      </linearGradient>
    </defs>
    <path xmlns="http://www.w3.org/2000/svg" d="  M35.6775,33.1237 C35.6302,33.0960 35.5680,33.1042 35.5050,33.1387 L35.5050,33.1380 L35.5005,33.1402 C35.4975,33.1432 35.4930,33.1447 35.4892,33.1477 L34.9282,33.4740 L34.9282,33.4777 C34.8540,33.5130 34.7775,33.5872 34.7205,33.6877 C34.6185,33.8670 34.6185,34.0605 34.7190,34.1205 C34.7677,34.1490 34.8315,34.1408 34.8952,34.1048 L34.8952,34.1063 L35.4922,33.7575 L35.4922,33.7567 C35.5590,33.7170 35.6265,33.6472 35.6767,33.5572 C35.7787,33.3772 35.7787,33.1837 35.6775,33.1237 Z" style="fill-rule: evenodd; fill: url(#grad874); "/>
    <defs xmlns="http://www.w3.org/2000/svg" xmlns:xlink="http://www.w3.org/1999/xlink">
      <linearGradient id="grad875">
        <stop offset="0%" stop-color="#ffffff" stop-opacity="1.0000"/>
        <stop offset="100%" stop-color="#669a9a" stop-opacity="1.0000"/>
      </linearGradient>
      <linearGradient xlink:href="#grad875" id="grad876" x1="0" y1="0" x2="0" y2="1" gradientTransform="rotate(90 .5 .5)" gradientUnits="objectBoundingBox">
  </linearGradient>
    </defs>
    <path xmlns="http://www.w3.org/2000/svg" d="  M34.0328,35.0280 C33.8768,34.9357 33.6218,35.0865 33.4635,35.3647 C33.4418,35.4052 33.4223,35.4450 33.4065,35.4855 C33.4973,35.6723 33.6233,35.8230 33.7913,35.9220 C33.8055,35.9303 33.8198,35.9355 33.8340,35.9423 C33.9068,35.8808 33.9750,35.7983 34.0320,35.6985 C34.1888,35.4210 34.1903,35.1202 34.0328,35.0280 Z" style="fill-rule: evenodd; fill: url(#grad876); "/>
    <path xmlns="http://www.w3.org/2000/svg" d="  M33.8625,35.1075 C33.7890,35.0648 33.6885,35.0925 33.5948,35.1705 L28.8143,37.9365 C28.1738,38.3100 26.9760,38.6078 25.7355,38.6048 C24.6893,38.6055 23.6108,38.3985 22.7760,37.9058 L21.2355,37.0283 C21.2333,37.0268 21.2333,37.0245 21.2318,37.0238 C21.1500,36.9758 21.0180,37.0530 20.9355,37.1978 C20.8545,37.3425 20.8545,37.4978 20.9340,37.5465 C20.9400,37.5495 22.4768,38.4218 22.4768,38.4218 C23.4375,38.9865 24.6135,39.2003 25.7355,39.2010 C27.0705,39.1988 28.3290,38.9018 29.1135,38.4525 L33.4695,35.9340 C33.6645,35.8080 33.8078,35.7023 33.8625,35.6055 C33.9780,35.3978 33.9788,35.1758 33.8625,35.1075 Z" style="fill-rule: evenodd; fill: #333333; "/>
    <defs xmlns="http://www.w3.org/2000/svg" xmlns:xlink="http://www.w3.org/1999/xlink">
      <linearGradient id="grad877">
        <stop offset="0%" stop-color="#a53723" stop-opacity="1.0000"/>
        <stop offset="100%" stop-color="#eb8123" stop-opacity="1.0000"/>
      </linearGradient>
      <linearGradient xlink:href="#grad877" id="grad878" x1="0" y1="0" x2="0" y2="1" gradientTransform="rotate(90 .5 .5)" gradientUnits="objectBoundingBox">
  </linearGradient>
    </defs>
    <path xmlns="http://www.w3.org/2000/svg" d="  M58.4543,4.9050 C58.4543,6.4305 57.3832,7.0485 56.0625,6.2857 C54.7410,5.5230 53.6715,3.6682 53.6715,2.1435 C53.6715,0.6180 54.7418,0.0000 56.0625,0.7627 C57.3832,1.5255 58.4543,3.3802 58.4543,4.9050 Z" style="fill-rule: evenodd; fill: url(#grad878); "/>
    <defs xmlns="http://www.w3.org/2000/svg">
      <radialGradient id="grad879" cx="50.0000%" cy="50.0000%" r="100.0000%">
        <stop offset="0%" stop-color="#ffffff" stop-opacity="1.0000"/>
        <stop offset="100%" stop-color="#080808" stop-opacity="1.0000"/>
      </radialGradient>
    </defs>
    <path xmlns="http://www.w3.org/2000/svg" d="  M37.8337,24.5453 C36.9592,24.5453 35.9602,24.2363 34.9470,23.6513 C31.1790,21.4755 28.1145,16.1663 28.1145,11.8163 C28.1145,9.0443 29.3977,7.3223 31.4632,7.3223 C32.3385,7.3223 33.3367,7.6320 34.3500,8.2163 C38.1180,10.3920 41.1832,15.7013 41.1832,20.0520 C41.1832,22.8233 39.9000,24.5453 37.8337,24.5453 Z" style="fill-rule: evenodd; fill: url(#grad879); "/>
    <defs xmlns="http://www.w3.org/2000/svg" xmlns:xlink="http://www.w3.org/1999/xlink">
      <linearGradient id="grad880">
        <stop offset="0%" stop-color="#000000" stop-opacity="1.0000"/>
        <stop offset="100%" stop-color="#ffffff" stop-opacity="1.0000"/>
      </linearGradient>
      <linearGradient xlink:href="#grad880" id="grad881" x1="0" y1="0" x2="0" y2="1" gradientTransform="rotate(135 .5 .5)" gradientUnits="objectBoundingBox">
  </linearGradient>
    </defs>
    <path xmlns="http://www.w3.org/2000/svg" d="  M42.0352,14.8230 L39.3082,10.1677 L34.9650,13.0417 C34.5112,13.2735 34.1617,13.7625 34.1617,14.4945 C34.1617,15.4470 34.7820,16.5217 35.6070,16.9965 C35.9017,17.1675 36.2017,17.2530 36.4995,17.2530 C36.7282,17.2530 36.9570,17.1967 37.1640,17.0865 L37.1805,17.1165 L42.0352,14.8230 Z" style="fill-rule: evenodd; fill: url(#grad881); "/>
    <defs xmlns="http://www.w3.org/2000/svg" xmlns:xlink="http://www.w3.org/1999/xlink">
      <linearGradient id="grad882">
        <stop offset="0%" stop-color="#ffffff" stop-opacity="1.0000"/>
        <stop offset="100%" stop-color="#669a9a" stop-opacity="1.0000"/>
      </linearGradient>
      <linearGradient xlink:href="#grad882" id="grad883" x1="0" y1="0" x2="0" y2="1" gradientTransform="rotate(315 .5 .5)" gradientUnits="objectBoundingBox">
  </linearGradient>
    </defs>
    <path xmlns="http://www.w3.org/2000/svg" d="  M36.5002,17.2537 C36.2025,17.2537 35.9017,17.1675 35.6077,16.9972 C34.7827,16.5225 34.1625,15.4477 34.1625,14.4952 C34.1625,13.4392 34.8907,12.8872 35.6107,12.8872 C35.9077,12.8872 36.2092,12.9735 36.5032,13.1437 C37.3267,13.6192 37.9485,14.6947 37.9485,15.6465 C37.9477,16.7010 37.2202,17.2537 36.5002,17.2537 Z" style="fill-rule: evenodd; fill: url(#grad883); "/>
    <path xmlns="http://www.w3.org/2000/svg" d="  M37.0515,15.6457 C37.0515,16.2817 36.6045,16.5390 36.0555,16.2210 C35.5042,15.9030 35.0580,15.1305 35.0580,14.4945 C35.0580,13.8585 35.5042,13.6012 36.0555,13.9185 C36.6045,14.2372 37.0515,15.0097 37.0515,15.6457 Z" style="fill-rule: evenodd; fill: #808788; "/>
    <path xmlns="http://www.w3.org/2000/svg" d="  M54.2310,20.2327 C54.3097,21.1778 52.9740,23.2500 52.9740,23.2500 L51.7762,22.9020 C51.0097,22.7138 50.4795,22.2165 50.5815,21.7073 C50.6835,21.1980 51.2212,19.6268 51.2257,17.5560 C51.2302,15.6600 50.3070,15.4950 49.5998,12.4680 C49.5998,11.8080 50.1750,11.7495 51.1785,11.2425 L53.7435,9.7500 C54.3060,9.4118 54.2295,10.8278 54.2295,11.4870 L54.2295,20.2327 L54.2310,20.2327 Z" style="fill-rule: evenodd; fill: #808788; "/>
    <defs xmlns="http://www.w3.org/2000/svg" xmlns:xlink="http://www.w3.org/1999/xlink">
      <linearGradient id="grad884">
        <stop offset="0%" stop-color="#656d6b" stop-opacity="1.0000"/>
        <stop offset="100%" stop-color="#dae1e1" stop-opacity="1.0000"/>
      </linearGradient>
      <linearGradient xlink:href="#grad884" id="grad885" x1="0" y1="0" x2="0" y2="1" gradientTransform="rotate(315 .5 .5)" gradientUnits="objectBoundingBox">
  </linearGradient>
    </defs>
    <path xmlns="http://www.w3.org/2000/svg" d="  M54.4500,20.2327 C54.5287,21.1778 53.1930,23.2500 53.1930,23.2500 L51.9952,22.9020 C51.2280,22.7138 50.7015,22.2968 50.7997,21.7073 C50.8995,21.1170 51.4402,19.6268 51.4440,17.5560 C51.4485,15.6600 50.5260,15.4950 49.8195,12.4680 C49.8195,11.8080 50.3940,11.7495 51.3975,11.2425 L53.9625,9.7500 C54.5257,9.4118 54.4492,10.8278 54.4492,11.4870 L54.4492,20.2327 L54.4500,20.2327 Z" style="fill-rule: evenodd; fill: url(#grad885); "/>
    <defs xmlns="http://www.w3.org/2000/svg">
      <linearGradient id="grad886">
        <stop offset="0%" stop-color="#080808" stop-opacity="1.0000"/>
        <stop offset="100%" stop-color="#c5c5c6" stop-opacity="1.0000"/>
      </linearGradient>
    </defs>
    <path xmlns="http://www.w3.org/2000/svg" d="  M55.8803,20.2328 C56.0213,21.9135 53.4263,23.2013 53.4263,23.2013 C52.7183,23.4885 52.2315,22.6665 52.2315,22.0065 C52.2315,22.0065 52.8705,19.6268 52.8758,17.5560 C52.8803,15.6600 51.9570,15.4950 51.2505,12.4680 C51.2505,11.8080 51.8250,11.7495 52.8285,11.2425 L55.8510,9.5505 C55.9425,9.4223 55.8795,10.8278 55.8795,11.4878 L55.8795,20.2328 L55.8803,20.2328 Z" style="fill-rule: evenodd; fill: url(#grad886); "/>
    <path xmlns="http://www.w3.org/2000/svg" d="  M55.9770,9.1830 C55.9928,9.3968 56.0115,9.5085 55.8683,9.5910 L51.2235,12.2873 L50.7345,11.5215 L55.4580,8.6040 C55.6005,8.5215 55.8030,8.4030 55.8855,8.5455 L55.9770,9.1830 Z" style="fill-rule: evenodd; fill: #333333; "/>
    <path xmlns="http://www.w3.org/2000/svg" d="  M50.6160,11.3205 C50.6160,11.3205 48.3105,11.0123 48.3923,11.1548 C48.3923,11.1548 48.6885,11.9355 48.5453,12.0173 L51.2235,12.2865 L50.6160,11.3205 Z" style="fill-rule: evenodd; fill: #333333; "/>
    <defs xmlns="http://www.w3.org/2000/svg" xmlns:xlink="http://www.w3.org/1999/xlink">
      <linearGradient id="grad887">
        <stop offset="0%" stop-color="#656d6b" stop-opacity="1.0000"/>
        <stop offset="100%" stop-color="#dae1e1" stop-opacity="1.0000"/>
      </linearGradient>
      <linearGradient xlink:href="#grad887" id="grad888" x1="0" y1="0" x2="0" y2="1" gradientTransform="rotate(135 .5 .5)" gradientUnits="objectBoundingBox">
  </linearGradient>
    </defs>
    <path xmlns="http://www.w3.org/2000/svg" d="  M47.3348,5.0482 C46.6035,4.6260 45.9360,4.5345 45.4050,4.7152 C44.2658,5.2973 43.2285,5.8117 42.4808,6.1523 C39.7838,7.7467 36.5333,8.1113 34.1947,8.1315 C34.2465,8.1600 34.2982,8.1863 34.3500,8.2162 C38.1180,10.3920 41.1833,15.7012 41.1833,20.0520 C41.1833,20.1930 41.1772,20.3303 41.1705,20.4653 C42.3615,18.5138 42.9705,17.6880 45.2355,15.5782 C46.2173,14.6647 48.0038,13.4047 49.9125,12.1537 C50.2508,11.7742 50.4518,11.1968 50.4518,10.4482 C50.4518,8.4600 49.0560,6.0420 47.3348,5.0482 Z" style="fill-rule: evenodd; fill: url(#grad888); "/>
    <defs xmlns="http://www.w3.org/2000/svg" xmlns:xlink="http://www.w3.org/1999/xlink">
      <linearGradient id="grad889">
        <stop offset="0%" stop-color="#656d6b" stop-opacity="1.0000"/>
        <stop offset="100%" stop-color="#dae1e1" stop-opacity="1.0000"/>
      </linearGradient>
      <linearGradient xlink:href="#grad889" id="grad890" x1="0" y1="0" x2="0" y2="1" gradientTransform="rotate(-0 .5 .5)" gradientUnits="objectBoundingBox">
  </linearGradient>
    </defs>
    <path xmlns="http://www.w3.org/2000/svg" d="  M47.3347,5.0483 C46.6035,4.6260 45.9360,4.5345 45.4050,4.7153 C44.2657,5.2973 43.2285,5.8118 42.4807,6.1523 C39.7837,7.7467 36.5332,8.1113 34.1947,8.1315 C34.2465,8.1600 34.2982,8.1863 34.3500,8.2163 C35.0250,8.6063 35.6783,9.0968 36.2947,9.6645 C41.1015,8.5793 45.1890,6.6263 47.3347,5.0483 Z" style="fill-rule: evenodd; fill: url(#grad890); "/>
    <defs xmlns="http://www.w3.org/2000/svg" xmlns:xlink="http://www.w3.org/1999/xlink">
      <linearGradient id="grad891">
        <stop offset="0%" stop-color="#eb8123" stop-opacity="1.0000"/>
        <stop offset="100%" stop-color="#f9ceaa" stop-opacity="1.0000"/>
      </linearGradient>
      <linearGradient xlink:href="#grad891" id="grad892" x1="0" y1="0" x2="0" y2="1" gradientTransform="rotate(135 .5 .5)" gradientUnits="objectBoundingBox">
  </linearGradient>
    </defs>
    <path xmlns="http://www.w3.org/2000/svg" d="  M39.3908,24.1552 C39.3908,24.1552 39.3930,24.1477 39.3975,24.1350 C39.3923,24.1372 39.3885,24.1402 39.3833,24.1425 L39.3908,24.1552 Z" style="fill-rule: evenodd; fill: url(#grad892); "/>
    <defs xmlns="http://www.w3.org/2000/svg" xmlns:xlink="http://www.w3.org/1999/xlink">
      <linearGradient id="grad893">
        <stop offset="0%" stop-color="#a53723" stop-opacity="1.0000"/>
        <stop offset="100%" stop-color="#eb8123" stop-opacity="1.0000"/>
      </linearGradient>
      <linearGradient xlink:href="#grad893" id="grad894" x1="0" y1="0" x2="0" y2="1" gradientTransform="rotate(135 .5 .5)" gradientUnits="objectBoundingBox">
  </linearGradient>
    </defs>
    <path xmlns="http://www.w3.org/2000/svg" d="  M50.2845,12.0877 C50.2845,12.0877 49.9875,12.2175 49.8922,12.2430 C49.7512,12.2812 49.7407,12.2812 49.7407,12.2812 C50.2672,11.8740 50.5800,10.9485 50.5800,10.2787 C50.5800,8.3407 49.2157,5.9775 47.5380,5.0092 C47.0782,4.7430 46.6387,4.6080 46.2322,4.6080 C46.0965,4.6080 45.7335,4.6237 45.6105,4.6545 C45.6105,4.6545 45.3337,4.7385 45.2145,4.8127 C45.1312,4.8127 45.1897,4.7137 45.2385,4.6590 C45.2880,4.6050 45.3495,4.5735 45.3945,4.5495 C48.7642,2.8140 53.2425,0.3945 53.2837,0.3720 C53.4780,0.3060 53.6602,0.2775 53.8507,0.2775 C54.2767,0.2775 54.7327,0.4155 55.2045,0.6877 C56.8305,1.6267 58.1542,3.9187 58.1542,5.7975 C58.1542,6.5347 57.9547,7.1265 57.5767,7.5180 L57.6180,7.5900 L57.4890,7.6642 C57.4507,7.6860 53.7060,9.8595 50.2845,12.0877 Z" style="fill-rule: evenodd; fill: url(#grad894); "/>
    <defs xmlns="http://www.w3.org/2000/svg" xmlns:xlink="http://www.w3.org/1999/xlink">
      <linearGradient id="grad895">
        <stop offset="0%" stop-color="#eb8123" stop-opacity="1.0000"/>
        <stop offset="100%" stop-color="#f9ceaa" stop-opacity="1.0000"/>
      </linearGradient>
      <linearGradient xlink:href="#grad895" id="grad896" x1="0" y1="0" x2="0" y2="1" gradientTransform="rotate(135 .5 .5)" gradientUnits="objectBoundingBox">
  </linearGradient>
    </defs>
    <path xmlns="http://www.w3.org/2000/svg" d="  M58.0042,5.7975 C58.0042,3.9638 56.7165,1.7340 55.1287,0.8168 C54.4575,0.4298 53.8425,0.3420 53.3542,0.5040 C53.3542,0.5040 49.2315,2.7480 45.8070,4.5090 C46.3170,4.3823 46.9380,4.4895 47.6130,4.8787 C49.3342,5.8725 50.7300,8.2905 50.7300,10.2788 C50.7300,11.0160 50.5335,11.5838 50.2035,11.9633 C53.6685,9.7073 57.4140,7.5368 57.4140,7.5368 L57.3878,7.4925 C57.7732,7.1483 58.0042,6.5715 58.0042,5.7975 Z" style="fill-rule: evenodd; fill: url(#grad896); "/>
    <defs xmlns="http://www.w3.org/2000/svg" xmlns:xlink="http://www.w3.org/1999/xlink">
      <linearGradient id="grad897">
        <stop offset="0%" stop-color="#eb8123" stop-opacity="1.0000"/>
        <stop offset="100%" stop-color="#f9ceaa" stop-opacity="1.0000"/>
      </linearGradient>
      <linearGradient xlink:href="#grad897" id="grad898" x1="0" y1="0" x2="0" y2="1" gradientTransform="rotate(315 .5 .5)" gradientUnits="objectBoundingBox">
  </linearGradient>
    </defs>
    <path xmlns="http://www.w3.org/2000/svg" d="  M58.0043,5.7975 C58.0043,5.1825 57.8595,4.5225 57.6075,3.8827 C57.6015,3.8130 50.1840,7.9245 50.1840,7.9245 C50.5283,8.7030 50.7308,9.5212 50.7308,10.2780 C50.7308,11.0153 50.5343,11.5830 50.2043,11.9625 C53.6693,9.7065 57.4148,7.5360 57.4148,7.5360 L57.3885,7.4917 C57.7733,7.1483 58.0043,6.5715 58.0043,5.7975 Z" style="fill-rule: evenodd; fill: url(#grad898); "/>
    <path xmlns="http://www.w3.org/2000/svg" d="  M34.6485,7.6980 C30.7102,5.4240 27.5167,7.2675 27.5167,11.8155 C27.5167,16.3635 30.7102,21.8940 34.6485,24.1687 C38.5875,26.4427 41.7810,24.5992 41.7810,20.0512 C41.7810,15.5032 38.5875,9.9727 34.6485,7.6980 Z M37.8337,24.5452 C36.9592,24.5452 35.9602,24.2362 34.9470,23.6512 C31.1790,21.4755 28.1145,16.1662 28.1145,11.8162 C28.1145,9.0442 29.3977,7.3222 31.4632,7.3222 C32.3385,7.3222 33.3367,7.6320 34.3500,8.2162 C38.1180,10.3920 41.1833,15.7012 41.1833,20.0520 C41.1833,22.8232 39.9000,24.5452 37.8337,24.5452 Z" style="fill-rule: evenodd; fill: #808788; "/>
    <defs xmlns="http://www.w3.org/2000/svg" xmlns:xlink="http://www.w3.org/1999/xlink">
      <linearGradient id="grad899">
        <stop offset="0%" stop-color="#a53723" stop-opacity="1.0000"/>
        <stop offset="100%" stop-color="#eb8123" stop-opacity="1.0000"/>
      </linearGradient>
      <linearGradient xlink:href="#grad899" id="grad900" x1="0" y1="0" x2="0" y2="1" gradientTransform="rotate(90 .5 .5)" gradientUnits="objectBoundingBox">
  </linearGradient>
    </defs>
    <path xmlns="http://www.w3.org/2000/svg" d="  M47.6130,4.8787 C46.6597,4.3290 45.8085,4.3320 45.2362,4.7805 C45.7905,4.5165 46.5255,4.5810 47.3347,5.0490 C49.0560,6.0427 50.4517,8.4600 50.4517,10.4482 C50.4517,11.3355 50.1510,11.9482 49.6897,12.3090 C50.3137,12.0112 50.7300,11.3317 50.7300,10.2787 C50.7300,8.2897 49.3342,5.8725 47.6130,4.8787 Z" style="fill-rule: evenodd; fill: url(#grad900); "/>
    <g xmlns="http://www.w3.org/2000/svg" id="Layer1063">
      <defs>
        <linearGradient id="grad901">
          <stop offset="0%" stop-color="#000000" stop-opacity="1.0000"/>
          <stop offset="100%" stop-color="#ffffff" stop-opacity="1.0000"/>
        </linearGradient>
      </defs>
      <path d="  M53.6550,13.5457 C53.3325,13.5457 53.1082,13.2907 53.1082,12.9270 C53.1082,12.5333 53.3647,12.0885 53.7060,11.8927 C53.8215,11.8260 53.9400,11.7915 54.0555,11.7915 C54.3772,11.7915 54.6022,12.0457 54.6022,12.4095 C54.6022,12.8025 54.3442,13.2480 54.0037,13.4445 C53.8867,13.5112 53.7697,13.5457 53.6550,13.5457 Z" style="stroke-width: 0.0937; stroke-linecap: butt; stroke-linejoin: miter; fill-rule: evenodd; fill: url(#grad901); "/>
      <path d="  M53.6550,13.5457 C53.3325,13.5457 53.1082,13.2907 53.1082,12.9270 C53.1082,12.5333 53.3647,12.0885 53.7060,11.8927 C53.8215,11.8260 53.9400,11.7915 54.0555,11.7915 C54.3772,11.7915 54.6022,12.0457 54.6022,12.4095 C54.6022,12.8025 54.3442,13.2480 54.0037,13.4445 C53.8867,13.5112 53.7697,13.5457 53.6550,13.5457 Z" style="stroke-width: 0.0937; stroke: #2f4ca0; stroke-dasharray: none; stroke-linecap: butt; stroke-linejoin: miter; fill: none; "/>
    </g>
    <path xmlns="http://www.w3.org/2000/svg" d="  M54.3022,12.4095 C54.3022,12.6953 54.1020,13.0425 53.8545,13.1858 C53.6070,13.3290 53.4060,13.2128 53.4060,12.9270 C53.4060,12.6413 53.6070,12.2940 53.8545,12.1508 C54.1020,12.0075 54.3022,12.1238 54.3022,12.4095 Z" style="fill-rule: evenodd; fill: #333333; "/>
    <!--converted by libvisio2svg-->
  </g>
</svg>
