<svg xmlns="http://www.w3.org/2000/svg" xmlns:xlink="http://www.w3.org/1999/xlink" version="1.1" width="0.7518000000" height="0.8484000000" viewBox="0 0 54.1305 61.0868">
  <title><![CDATA[Database Server]]></title>
  <g transform=" scale(1.000000) ">
    <path xmlns="http://www.w3.org/2000/svg" d="  M38.1510,7.2082 L26.1592,0.0008 L0.0000,15.0375 L0.0000,52.6912 L0.5798,53.0310 C2.1338,55.0193 5.3565,56.9153 8.9122,57.9225 L13.5458,60.6428 L38.1510,46.5120 L38.1510,43.7303 L38.1495,43.6950 L37.6147,43.4423 L38.1510,43.1340 L38.1510,40.8720 L38.1495,40.8367 L37.6147,40.5840 L38.1510,40.2757 L38.1510,38.0138 L38.1495,37.9785 L37.6530,37.7438 L38.1510,37.4588 L38.1510,7.2443 L38.1510,7.2082 Z" style="stroke-width: 1.5000; stroke: #8d98b5; stroke-dasharray: none; stroke-linecap: butt; stroke-linejoin: miter; fill: none; "/>
    <path xmlns="http://www.w3.org/2000/svg" d="  M54.1290,27.6240 C54.1230,23.3385 48.0577,19.8630 40.5877,19.8630 C33.1170,19.8630 27.0577,23.3408 27.0577,27.6285 C27.0577,27.6743 27.0592,27.7282 27.0607,27.7732 L27.0645,53.2927 C27.0645,53.3032 27.0622,53.3122 27.0622,53.3220 C27.0622,53.3325 27.0645,53.3407 27.0645,53.3512 L27.0645,53.3723 C27.1125,57.6383 33.1507,61.0868 40.5938,61.0868 C48.0375,61.0868 54.0735,57.6375 54.1215,53.3723 L54.1305,53.3723 L54.1305,27.6225 L54.1200,27.6225" style="stroke-width: 1.5000; stroke: #8d98b5; stroke-dasharray: none; stroke-linecap: butt; stroke-linejoin: miter; fill: none; "/>
    <path xmlns="http://www.w3.org/2000/svg" d="  M23.1855,46.6140 L38.1495,37.9800 L37.6530,37.7452 L23.1855,46.0042 L23.1855,46.6140 Z" style="fill-rule: evenodd; fill: #3f3f3f; "/>
    <path xmlns="http://www.w3.org/2000/svg" d="  M23.1855,49.4707 L38.1495,40.8382 L37.6148,40.5855 L23.1855,48.8625 L23.1855,49.4707 Z" style="fill-rule: evenodd; fill: #3f3f3f; "/>
    <path xmlns="http://www.w3.org/2000/svg" d="  M23.1855,52.3290 L38.1495,43.6957 L37.6148,43.4430 L23.1855,51.7200 L23.1855,52.3290 Z" style="fill-rule: evenodd; fill: #3f3f3f; "/>
    <defs xmlns="http://www.w3.org/2000/svg" xmlns:xlink="http://www.w3.org/1999/xlink">
      <linearGradient id="grad948">
        <stop offset="0%" stop-color="#646c6b" stop-opacity="1.0000"/>
        <stop offset="100%" stop-color="#dae1e1" stop-opacity="1.0000"/>
      </linearGradient>
      <linearGradient xlink:href="#grad948" id="grad949" x1="0" y1="0" x2="0" y2="1" gradientTransform="rotate(90 .5 .5)" gradientUnits="objectBoundingBox">
  </linearGradient>
    </defs>
    <path xmlns="http://www.w3.org/2000/svg" d="  M13.5465,21.6240 L0.0000,15.0375 L0.0000,52.6913 L0.5798,53.0310 C0.4538,52.8705 0.3390,52.7108 0.2355,52.5488 L0.2355,36.1680 L0.2355,32.5133 L0.2355,24.6968 L0.2355,16.8135 L12.4808,22.8668 C12.4808,22.8668 12.5280,22.8720 12.5498,22.8743 L12.5498,30.8108 L12.5498,38.5748 L12.5498,42.4575 L12.5498,58.6103 C11.3348,58.5023 10.1040,58.2630 8.9123,57.9240 L13.5458,60.6443 L13.5458,21.6240 L13.5465,21.6240 Z" style="fill-rule: evenodd; fill: url(#grad949); "/>
    <defs xmlns="http://www.w3.org/2000/svg" xmlns:xlink="http://www.w3.org/1999/xlink">
      <linearGradient id="grad950">
        <stop offset="0%" stop-color="#85919c" stop-opacity="0.9882"/>
        <stop offset="100%" stop-color="#dadfe1" stop-opacity="0.9882"/>
      </linearGradient>
      <linearGradient xlink:href="#grad950" id="grad951" x1="0" y1="0" x2="0" y2="1" gradientTransform="rotate(90 .5 .5)" gradientUnits="objectBoundingBox">
  </linearGradient>
    </defs>
    <path xmlns="http://www.w3.org/2000/svg" d="  M12.0337,42.4507 C12.0337,42.5100 11.9625,42.5610 11.8687,42.5610 C11.8612,42.5610 11.8432,42.5625 11.8432,42.5625 C8.1892,42.6157 3.4200,40.9545 0.7260,36.8348 C0.5437,36.6120 0.3772,36.3885 0.2347,36.1673 L0.2347,52.5487 C0.3382,52.7107 0.4537,52.8705 0.5790,53.0310 C2.1330,55.0192 5.3557,56.9152 8.9115,57.9225 C10.1025,58.2615 11.3332,58.5007 12.5490,58.6087 L12.5490,42.4568 C12.3712,42.4410 12.1935,42.4207 12.0135,42.3997 C12.0255,42.4155 12.0337,42.4328 12.0337,42.4507 Z M11.6677,56.5770 C11.4697,57.2040 10.4332,57.4357 9.3547,57.0930 C8.2732,56.7510 7.5592,55.9642 7.7580,55.3372 C7.9575,54.7102 8.9925,54.4785 10.0717,54.8212 C11.1525,55.1625 11.8672,55.9492 11.6677,56.5770 Z M11.8687,54.0645 C11.8612,54.0645 11.8432,54.0652 11.8432,54.0652 C8.0535,54.1222 3.0630,52.3320 0.4335,47.8672 C0.2445,47.5523 0.4695,47.5815 0.4695,47.5815 C2.1352,50.3970 7.0432,53.3527 11.7780,53.8290 C11.7990,53.8312 11.8672,53.8365 11.8755,53.8365 C11.9692,53.8365 12.0337,53.8927 12.0337,53.9528 C12.0337,54.0127 11.9625,54.0645 11.8687,54.0645 Z M11.8687,50.2305 C11.8612,50.2305 11.8432,50.2305 11.8432,50.2305 C8.0535,50.2875 3.0630,48.4980 0.4335,44.0333 C0.2445,43.7182 0.4695,43.7483 0.4695,43.7483 C2.1352,46.5623 7.0432,49.5188 11.7780,49.9950 C11.7990,49.9965 11.8672,50.0010 11.8755,50.0010 C11.9692,50.0010 12.0337,50.0580 12.0337,50.1188 C12.0337,50.1795 11.9625,50.2305 11.8687,50.2305 Z M11.8687,46.3965 C11.8612,46.3965 11.8432,46.3965 11.8432,46.3965 C8.0535,46.4535 3.0630,44.6648 0.4335,40.2000 C0.2445,39.8842 0.4695,39.9142 0.4695,39.9142 C2.1352,42.7283 7.0432,45.6840 11.7780,46.1603 C11.7990,46.1632 11.8672,46.1678 11.8755,46.1678 C11.9692,46.1678 12.0337,46.2240 12.0337,46.2840 C12.0337,46.3448 11.9625,46.3965 11.8687,46.3965 Z" style="fill-rule: evenodd; fill: url(#grad951); "/>
    <defs xmlns="http://www.w3.org/2000/svg" xmlns:xlink="http://www.w3.org/1999/xlink">
      <linearGradient id="grad952">
        <stop offset="0%" stop-color="#85919c" stop-opacity="0.9882"/>
        <stop offset="100%" stop-color="#dadfe1" stop-opacity="0.9882"/>
      </linearGradient>
      <linearGradient xlink:href="#grad952" id="grad953" x1="0" y1="0" x2="0" y2="1" gradientTransform="rotate(90 .5 .5)" gradientUnits="objectBoundingBox">
  </linearGradient>
    </defs>
    <path xmlns="http://www.w3.org/2000/svg" d="  M11.7780,30.8235 C11.7990,30.8257 11.8673,30.8310 11.8755,30.8310 C11.9692,30.8310 12.0337,30.8865 12.0337,30.9472 C12.0337,31.0080 11.9625,31.0583 11.8687,31.0583 C11.8612,31.0583 11.8432,31.0583 11.8432,31.0583 C8.2402,31.1122 3.5572,29.4967 0.8445,25.5045 C0.6105,25.2367 0.4072,24.9667 0.2347,24.6960 L0.2347,32.5125 C0.5077,32.9400 0.8625,33.3668 1.2855,33.7823 C0.9802,33.3907 0.6945,32.9738 0.4327,32.5297 C0.2437,32.2132 0.4687,32.2432 0.4687,32.2432 C1.6080,34.1677 4.2607,36.1583 7.3380,37.3778 C8.7877,37.9080 10.3312,38.3025 11.8695,38.4975 C11.8702,38.4983 11.8740,38.4983 11.8747,38.4983 C11.8822,38.4983 11.8897,38.5005 11.8965,38.5020 C12.0900,38.5253 12.2857,38.5478 12.4800,38.5658 C12.5040,38.5680 12.5272,38.5718 12.5490,38.5733 L12.5490,30.8100 C9.8152,30.5640 7.0147,29.6557 4.7205,28.4302 C6.7987,29.6535 9.3112,30.5753 11.7780,30.8235 Z M11.8687,34.8930 C11.8612,34.8930 11.8432,34.8938 11.8432,34.8938 C8.0535,34.9500 3.0630,33.1612 0.4335,28.6965 C0.2445,28.3822 0.4695,28.4107 0.4695,28.4107 C2.1352,31.2255 7.0432,34.1813 11.7780,34.6583 C11.7990,34.6612 11.8673,34.6658 11.8755,34.6658 C11.9692,34.6658 12.0337,34.7213 12.0337,34.7820 C12.0337,34.8405 11.9625,34.8930 11.8687,34.8930 Z" style="fill-rule: evenodd; fill: url(#grad953); "/>
    <defs xmlns="http://www.w3.org/2000/svg" xmlns:xlink="http://www.w3.org/1999/xlink">
      <linearGradient id="grad954">
        <stop offset="0%" stop-color="#c8d8dd" stop-opacity="0.9882"/>
        <stop offset="100%" stop-color="#f3f9f7" stop-opacity="0.9882"/>
      </linearGradient>
      <linearGradient xlink:href="#grad954" id="grad955" x1="0" y1="0" x2="0" y2="1" gradientTransform="rotate(90 .5 .5)" gradientUnits="objectBoundingBox">
  </linearGradient>
    </defs>
    <path xmlns="http://www.w3.org/2000/svg" d="  M12.4808,38.5665 C12.2865,38.5485 12.0908,38.5260 11.8973,38.5028 C11.9760,38.5103 12.0338,38.5598 12.0338,38.6145 C12.0338,38.6760 11.9625,38.7263 11.8688,38.7263 C11.8613,38.7263 11.8433,38.7263 11.8433,38.7263 C8.4293,38.7773 4.0455,37.3313 1.2863,33.7823 C0.8633,33.3660 0.5085,32.9400 0.2355,32.5125 L0.2355,36.1673 C0.3773,36.3885 0.5445,36.6120 0.7268,36.8348 C0.6278,36.6803 0.5288,36.5250 0.4335,36.3638 C0.2445,36.0495 0.4695,36.0788 0.4695,36.0788 C1.4648,37.7618 3.6210,39.4943 6.2040,40.7183 C7.4400,41.3033 8.7758,41.7720 10.1288,42.0638 C10.6770,42.1823 11.2275,42.2708 11.7780,42.3270 C11.7990,42.3285 11.8673,42.3330 11.8755,42.3330 C11.9408,42.3330 11.9903,42.3615 12.0150,42.3998 C12.1950,42.4208 12.3728,42.4410 12.5505,42.4568 L12.5505,38.5740 C12.5280,38.5725 12.5048,38.5688 12.4808,38.5665 Z" style="fill-rule: evenodd; fill: url(#grad955); "/>
    <defs xmlns="http://www.w3.org/2000/svg" xmlns:xlink="http://www.w3.org/1999/xlink">
      <linearGradient id="grad956">
        <stop offset="0%" stop-color="#bdd1dd" stop-opacity="0.9882"/>
        <stop offset="100%" stop-color="#f3f9f7" stop-opacity="0.9882"/>
      </linearGradient>
      <linearGradient xlink:href="#grad956" id="grad957" x1="0" y1="0" x2="0" y2="1" gradientTransform="rotate(90 .5 .5)" gradientUnits="objectBoundingBox">
  </linearGradient>
    </defs>
    <path xmlns="http://www.w3.org/2000/svg" d="  M12.4808,22.8668 L0.2355,16.8135 L0.2355,24.6967 C0.4080,24.9675 0.6113,25.2375 0.8453,25.5053 C0.7035,25.2968 0.5640,25.0838 0.4335,24.8625 C0.2445,24.5475 0.4695,24.5768 0.4695,24.5768 C1.2683,25.9260 2.8110,27.3060 4.7220,28.4310 C7.0155,29.6565 9.8168,30.5647 12.5505,30.8107 L12.5505,22.8743 C12.5280,22.8720 12.4808,22.8668 12.4808,22.8668 Z M0.6525,17.8605 L12.1785,23.5590 C6.4613,26.7187 0.8693,21.6240 0.6525,17.8605 Z" style="fill-rule: evenodd; fill: url(#grad957); "/>
    <path xmlns="http://www.w3.org/2000/svg" d="  M11.8755,53.8373 C11.8672,53.8373 11.7990,53.8320 11.7780,53.8298 C7.0432,53.3535 2.1353,50.3978 0.4695,47.5823 C0.4695,47.5823 0.2445,47.5530 0.4335,47.8680 C3.0638,52.3328 8.0543,54.1230 11.8432,54.0660 C11.8432,54.0660 11.8613,54.0653 11.8688,54.0653 C11.9625,54.0653 12.0338,54.0143 12.0338,53.9543 C12.0338,53.8943 11.9693,53.8373 11.8755,53.8373 Z" style="fill-rule: evenodd; fill: #000000; "/>
    <path xmlns="http://www.w3.org/2000/svg" d="  M11.8755,50.0010 C11.8672,50.0010 11.7990,49.9965 11.7780,49.9950 C7.0432,49.5187 2.1353,46.5622 0.4695,43.7482 C0.4695,43.7482 0.2445,43.7182 0.4335,44.0332 C3.0638,48.4980 8.0543,50.2875 11.8432,50.2305 C11.8432,50.2305 11.8613,50.2305 11.8688,50.2305 C11.9625,50.2305 12.0338,50.1795 12.0338,50.1195 C12.0338,50.0587 11.9693,50.0010 11.8755,50.0010 Z" style="fill-rule: evenodd; fill: #000000; "/>
    <path xmlns="http://www.w3.org/2000/svg" d="  M11.8755,46.1678 C11.8672,46.1678 11.7990,46.1633 11.7780,46.1603 C7.0432,45.6840 2.1353,42.7283 0.4695,39.9143 C0.4695,39.9143 0.2445,39.8843 0.4335,40.2000 C3.0638,44.6648 8.0543,46.4535 11.8432,46.3965 C11.8432,46.3965 11.8613,46.3965 11.8688,46.3965 C11.9625,46.3965 12.0338,46.3455 12.0338,46.2848 C12.0338,46.2240 11.9693,46.1678 11.8755,46.1678 Z" style="fill-rule: evenodd; fill: #000000; "/>
    <path xmlns="http://www.w3.org/2000/svg" d="  M12.0150,42.3998 C11.3865,42.3225 10.7557,42.2085 10.1295,42.0645 C8.7765,41.7728 7.4408,41.3040 6.2048,40.7190 C3.6218,39.4950 1.4655,37.7633 0.4703,36.0795 C0.4703,36.0795 0.2453,36.0503 0.4343,36.3645 C0.5288,36.5258 0.6278,36.6810 0.7275,36.8355 C3.4215,40.9553 8.1907,42.6165 11.8447,42.5633 C11.8447,42.5633 11.8627,42.5618 11.8702,42.5618 C11.9640,42.5618 12.0352,42.5108 12.0352,42.4515 C12.0338,42.4328 12.0255,42.4155 12.0150,42.3998 Z" style="fill-rule: evenodd; fill: #000000; "/>
    <path xmlns="http://www.w3.org/2000/svg" d="  M11.8973,38.5028 C11.8890,38.5013 11.8785,38.4998 11.8702,38.4983 C11.8553,38.4983 11.7982,38.4938 11.7780,38.4915 C10.2803,38.3408 8.7630,37.9410 7.3388,37.3785 C4.2615,36.1590 1.6080,34.1693 0.4695,32.2440 C0.4695,32.2440 0.2445,32.2140 0.4335,32.5305 C0.6960,32.9745 0.9810,33.3908 1.2863,33.7830 C4.0455,37.3313 8.4293,38.7780 11.8432,38.7270 C11.8432,38.7270 11.8613,38.7270 11.8688,38.7270 C11.9625,38.7270 12.0338,38.6768 12.0338,38.6153 C12.0338,38.5598 11.9767,38.5103 11.8973,38.5028 Z" style="fill-rule: evenodd; fill: #000000; "/>
    <path xmlns="http://www.w3.org/2000/svg" d="  M11.8755,30.8310 C11.8673,30.8310 11.7990,30.8258 11.7780,30.8235 C9.3113,30.5760 6.7988,29.6543 4.7220,28.4310 C2.8110,27.3060 1.2683,25.9260 0.4695,24.5768 C0.4695,24.5768 0.2445,24.5475 0.4335,24.8625 C0.5640,25.0838 0.7028,25.2968 0.8453,25.5053 C3.5573,29.4975 8.2403,31.1130 11.8440,31.0590 C11.8440,31.0590 11.8620,31.0590 11.8695,31.0590 C11.9632,31.0590 12.0345,31.0088 12.0345,30.9480 C12.0345,30.8873 11.9693,30.8310 11.8755,30.8310 Z" style="fill-rule: evenodd; fill: #000000; "/>
    <path xmlns="http://www.w3.org/2000/svg" d="  M11.8755,34.6650 C11.8672,34.6650 11.7990,34.6605 11.7780,34.6575 C7.0432,34.1805 2.1353,31.2255 0.4695,28.4100 C0.4695,28.4100 0.2445,28.3808 0.4335,28.6958 C3.0638,33.1613 8.0543,34.9493 11.8432,34.8930 C11.8432,34.8930 11.8613,34.8923 11.8688,34.8923 C11.9625,34.8923 12.0338,34.8405 12.0338,34.7813 C12.0338,34.7205 11.9693,34.6650 11.8755,34.6650 Z" style="fill-rule: evenodd; fill: #000000; "/>
    <defs xmlns="http://www.w3.org/2000/svg">
      <linearGradient id="grad958">
        <stop offset="0%" stop-color="#646c6b" stop-opacity="1.0000"/>
        <stop offset="100%" stop-color="#dae1e1" stop-opacity="1.0000"/>
      </linearGradient>
    </defs>
    <path xmlns="http://www.w3.org/2000/svg" d="  M10.0725,54.8213 C8.9933,54.4793 7.9583,54.7110 7.7588,55.3373 C7.5600,55.9643 8.2740,56.7510 9.3555,57.0930 C10.4340,57.4350 11.4705,57.2033 11.6685,56.5770 C11.8673,55.9493 11.1525,55.1625 10.0725,54.8213 Z M10.8885,56.9205 C10.4865,57.2985 9.7943,57.2123 9.3405,56.7300 C9.1943,56.5740 9.0908,56.3963 9.0308,56.2133 C8.9903,56.0933 8.9723,55.9740 8.9715,55.8555 C8.9663,55.5945 9.0570,55.3470 9.2445,55.1730 C9.6443,54.7950 10.3373,54.8805 10.7918,55.3635 C11.2455,55.8450 11.2883,56.5433 10.8885,56.9205 Z" style="fill-rule: evenodd; fill: url(#grad958); "/>
    <path xmlns="http://www.w3.org/2000/svg" d="  M9.2453,55.1730 C9.0578,55.3470 8.9670,55.5952 8.9723,55.8555 C8.9790,55.6702 9.0480,55.4962 9.1823,55.3710 C9.2910,55.2690 9.4260,55.2120 9.5730,55.1947 C9.8633,55.1227 10.2053,55.2232 10.4505,55.4835 C10.7835,55.8375 10.8105,56.3543 10.5173,56.6520 C10.4978,56.6775 10.4775,56.7008 10.4550,56.7225 C10.1430,57.0150 9.6083,56.9498 9.2580,56.5755 C9.1538,56.4660 9.0788,56.3422 9.0315,56.2147 C9.0915,56.3978 9.1943,56.5755 9.3413,56.7315 C9.7950,57.2138 10.4873,57.3000 10.8893,56.9220 C11.2890,56.5448 11.2463,55.8465 10.7925,55.3650 C10.3373,54.8805 9.6443,54.7950 9.2453,55.1730 Z" style="fill-rule: evenodd; fill: #000000; "/>
    <defs xmlns="http://www.w3.org/2000/svg">
      <radialGradient id="grad959" cx="50.0000%" cy="50.0000%" r="100.0000%">
        <stop offset="0%" stop-color="#ccff66" stop-opacity="1.0000"/>
        <stop offset="100%" stop-color="#7ab04a" stop-opacity="1.0000"/>
      </radialGradient>
    </defs>
    <path xmlns="http://www.w3.org/2000/svg" d="  M10.4535,56.7210 C10.4760,56.7000 10.4963,56.6760 10.5158,56.6505 C10.8090,56.3535 10.7813,55.8360 10.4490,55.4820 C10.2038,55.2218 9.8618,55.1220 9.5715,55.1933 C9.4253,55.2105 9.2895,55.2683 9.1808,55.3695 C9.0465,55.4955 8.9775,55.6688 8.9708,55.8540 C8.9715,55.9718 8.9895,56.0910 9.0300,56.2118 C9.0773,56.3400 9.1523,56.4638 9.2565,56.5725 C9.6068,56.9483 10.1423,57.0135 10.4535,56.7210 Z" style="fill-rule: evenodd; fill: url(#grad959); "/>
    <defs xmlns="http://www.w3.org/2000/svg" xmlns:xlink="http://www.w3.org/1999/xlink">
      <linearGradient id="grad960">
        <stop offset="0%" stop-color="#7f8787" stop-opacity="1.0000"/>
        <stop offset="100%" stop-color="#f3f9f7" stop-opacity="1.0000"/>
      </linearGradient>
      <linearGradient xlink:href="#grad960" id="grad961" x1="0" y1="0" x2="0" y2="1" gradientTransform="rotate(315 .5 .5)" gradientUnits="objectBoundingBox">
  </linearGradient>
    </defs>
    <path xmlns="http://www.w3.org/2000/svg" d="  M0.6525,17.8605 C0.8700,21.6240 6.4612,26.7188 12.1785,23.5590 L0.6525,17.8605 Z M2.8605,19.0980 L10.2307,22.7093 C6.5047,24.5588 2.9557,21.3893 2.8605,19.0980 Z" style="fill-rule: evenodd; fill: url(#grad961); "/>
    <defs xmlns="http://www.w3.org/2000/svg">
      <radialGradient id="grad962" cx="50.0000%" cy="50.0000%" r="100.0000%">
        <stop offset="0%" stop-color="#a7e968" stop-opacity="1.0000"/>
        <stop offset="100%" stop-color="#000000" stop-opacity="1.0000"/>
      </radialGradient>
    </defs>
    <path xmlns="http://www.w3.org/2000/svg" d="  M2.8605,19.0980 C2.9557,21.3892 6.5047,24.5587 10.2307,22.7092 L2.8605,19.0980 Z" style="fill-rule: evenodd; fill: url(#grad962); "/>
    <defs xmlns="http://www.w3.org/2000/svg" xmlns:xlink="http://www.w3.org/1999/xlink">
      <linearGradient id="grad963">
        <stop offset="0%" stop-color="#7f8787" stop-opacity="1.0000"/>
        <stop offset="100%" stop-color="#dae1e1" stop-opacity="1.0000"/>
      </linearGradient>
      <linearGradient xlink:href="#grad963" id="grad964" x1="0" y1="0" x2="0" y2="1" gradientTransform="rotate(45 .5 .5)" gradientUnits="objectBoundingBox">
  </linearGradient>
    </defs>
    <path xmlns="http://www.w3.org/2000/svg" d="  M13.5773,21.5925 L13.5555,21.5820 L13.5555,60.3953 L38.1510,46.5128 L38.1510,43.7310 L23.1855,52.3290 L23.1855,51.7200 L37.6148,43.4430 L38.1510,43.1348 L38.1510,40.8728 L23.1855,49.4708 L23.1855,48.8625 L37.6148,40.5855 L38.1510,40.2773 L38.1510,38.0153 L23.1855,46.6140 L23.1855,46.0043 L37.6530,37.7453 L38.1510,37.4603 L38.1510,7.2443 L34.8510,9.1403 L13.5773,21.5925 Z" style="fill-rule: evenodd; fill: url(#grad964); "/>
    <defs xmlns="http://www.w3.org/2000/svg" xmlns:xlink="http://www.w3.org/1999/xlink">
      <linearGradient id="grad965">
        <stop offset="0%" stop-color="#7f8787" stop-opacity="1.0000"/>
        <stop offset="100%" stop-color="#f3f9f7" stop-opacity="1.0000"/>
      </linearGradient>
      <linearGradient xlink:href="#grad965" id="grad966" x1="0" y1="0" x2="0" y2="1" gradientTransform="rotate(90 .5 .5)" gradientUnits="objectBoundingBox">
  </linearGradient>
    </defs>
    <path xmlns="http://www.w3.org/2000/svg" d="  M26.1592,0.0000 L0.1267,15.0285 L13.5555,21.5820 L38.1510,7.2083 L26.1592,0.0000 Z" style="fill-rule: evenodd; fill: url(#grad966); "/>
    <defs xmlns="http://www.w3.org/2000/svg" xmlns:xlink="http://www.w3.org/1999/xlink">
      <linearGradient id="grad967">
        <stop offset="0%" stop-color="#f9c33c" stop-opacity="1.0000"/>
        <stop offset="100%" stop-color="#f9c33c" stop-opacity="1.0000"/>
      </linearGradient>
      <linearGradient xlink:href="#grad967" id="grad968" x1="0" y1="0" x2="0" y2="1" gradientTransform="rotate(90 .5 .5)" gradientUnits="objectBoundingBox">
  </linearGradient>
    </defs>
    <path xmlns="http://www.w3.org/2000/svg" d="  M54.1140,27.6060 C54.1140,27.6082 54.1140,27.6105 54.1140,27.6127 C54.1140,31.9020 48.0563,35.3790 40.5832,35.3790 C33.1897,35.3790 27.1860,31.9732 27.0593,27.7477 L27.0593,53.2770 C27.0593,53.2868 27.0578,53.2965 27.0578,53.3070 C27.0578,53.3160 27.0593,53.3257 27.0593,53.3355 L27.0593,53.3580 L27.0608,53.3580 C27.1080,57.6233 33.1448,61.0718 40.5878,61.0718 C48.0315,61.0718 54.0675,57.6225 54.1155,53.3580 L54.1245,53.3580 L54.1245,27.6060 L54.1140,27.6060 Z" style="fill-rule: evenodd; fill: url(#grad968); "/>
    <defs xmlns="http://www.w3.org/2000/svg" xmlns:xlink="http://www.w3.org/1999/xlink">
      <linearGradient id="grad969">
        <stop offset="0%" stop-color="#f9c33c" stop-opacity="1.0000"/>
        <stop offset="100%" stop-color="#fffce3" stop-opacity="1.0000"/>
      </linearGradient>
      <linearGradient xlink:href="#grad969" id="grad970" x1="0" y1="0" x2="0" y2="1" gradientTransform="rotate(-0 .5 .5)" gradientUnits="objectBoundingBox">
  </linearGradient>
    </defs>
    <path xmlns="http://www.w3.org/2000/svg" d="  M40.5832,35.3782 C48.0562,35.3782 54.1140,31.9012 54.1140,27.6120 C54.1140,27.6097 54.1140,27.6075 54.1140,27.6052 C54.1065,23.3197 48.0517,19.8465 40.5832,19.8465 C33.1110,19.8465 27.0532,23.3235 27.0532,27.6120 C27.0532,27.6570 27.0577,27.7020 27.0592,27.7470 C27.1860,31.9725 33.1897,35.3782 40.5832,35.3782 Z" style="fill-rule: evenodd; fill: url(#grad970); "/>
    <!--converted by libvisio2svg-->
  </g>
</svg>
