<svg xmlns="http://www.w3.org/2000/svg" xmlns:xlink="http://www.w3.org/1999/xlink" version="1.1" width="0.7003000000" height="0.8536000000" viewBox="0 0 50.4202 61.4602">
  <title><![CDATA[Device Update Service]]></title>
  <g transform=" scale(1.000000) ">
    <path xmlns="http://www.w3.org/2000/svg" d="  M43.3935,52.4280 L35.8087,52.4280 C35.3310,52.4280 34.9432,52.8090 34.9432,53.2777 L34.9432,54.6930 C34.9432,55.1617 35.3317,55.5420 35.8087,55.5420 L43.3935,55.5420 C43.8727,55.5420 44.2605,55.1617 44.2605,54.6930 L44.2605,53.2777 C44.2605,52.8082 43.8720,52.4280 43.3935,52.4280 Z" style="stroke-width: 1.5000; stroke: #8d98b5; stroke-dasharray: none; stroke-linecap: butt; stroke-linejoin: miter; fill: none; "/>
    <path xmlns="http://www.w3.org/2000/svg" d="  M50.1488,37.9770 L40.4415,25.7310 C40.1880,25.4325 39.9300,25.3703 39.7590,25.3703 C39.5820,25.3703 39.3180,25.4378 39.0780,25.7520 L38.3400,26.6708 L38.3400,10.9020 C38.3400,9.3255 37.8038,8.1202 36.8663,7.5840 C36.8573,7.5780 36.8490,7.5735 36.8400,7.5682 L36.5910,7.4265 C36.5865,7.4235 36.5805,7.4220 36.5752,7.4190 L24.3878,0.4260 C23.7173,0.0015 22.8270,0.0187 21.8520,0.5827 L5.3062,9.6165 C3.2265,10.8188 1.5330,14.0550 1.5330,16.8315 L1.5330,45.0293 C1.5330,45.9727 1.7295,46.7415 2.0693,47.3010 L0.4658,48.2490 C0.3630,48.3135 0.2775,48.3825 0.2093,48.4523 C0.1860,48.4710 0.1485,48.5092 0.1088,48.5767 C0.0735,48.6345 0.0503,48.6923 0.0383,48.7515 C0.0338,48.7680 0.0315,48.7830 0.0300,48.7980 L0.0270,48.7987 L0.0270,48.8010 L0.0270,48.8227 C0.0263,48.8438 0.0263,48.8625 0.0270,48.8753 L0.0300,51.0502 C0.0285,51.0698 0.0278,51.0900 0.0300,51.1102 L0.0308,51.6645 C0.0270,51.6885 0.0270,51.7132 0.0285,51.7388 C0.0383,51.9113 0.1538,52.0875 0.3938,52.2548 L1.6680,53.0138 L15.6975,61.0147 C16.0493,61.2450 16.5210,61.4602 17.2628,60.9075 L35.7105,50.6272 C35.7442,50.6317 35.7750,50.6377 35.8087,50.6377 L43.3950,50.6377 C43.8713,50.6377 44.2605,50.2567 44.2605,49.7880 L44.2605,48.3728 C44.2605,47.9040 43.8705,47.5230 43.3950,47.5230 L39.5970,47.5230 L39.5940,45.4050 C39.5940,45.4050 39.5970,45.3870 39.5940,45.3600 L39.5940,45.3113 C39.5940,45.3097 39.5940,45.3097 39.5940,45.3090 C39.5940,45.3060 39.5925,45.3030 39.5910,45.3008 L42.8505,45.3008 C43.6447,45.3008 44.2673,45.2685 44.2673,44.1450 L44.2673,39.0015 C44.2762,39.0023 44.2845,39.0023 44.2935,39.0023 L49.8098,39.0023 C50.1480,39.0023 50.2785,38.8065 50.3183,38.7225 C50.4203,38.5073 50.3557,38.2290 50.1488,37.9770 Z" style="stroke-width: 1.5000; stroke: #8d98b5; stroke-dasharray: none; stroke-linecap: butt; stroke-linejoin: miter; fill: none; "/>
    <defs xmlns="http://www.w3.org/2000/svg">
      <radialGradient id="grad971" cx="50.0000%" cy="50.0000%" r="100.0000%">
        <stop offset="0%" stop-color="#727576" stop-opacity="1.0000"/>
        <stop offset="100%" stop-color="#343737" stop-opacity="1.0000"/>
      </radialGradient>
    </defs>
    <path xmlns="http://www.w3.org/2000/svg" d="  M39.5948,45.3098 C39.5948,45.3083 39.5948,45.3083 39.5948,45.3075 C39.5730,45.1980 39.4823,45.0863 39.3120,44.9625 L23.6205,35.8890 C23.2133,35.6543 22.9710,35.6940 22.4573,35.9918 L2.6618,46.9470 L0.4650,48.2460 C0.1995,48.4118 0.0458,48.6015 0.0300,48.7980 C0.0135,48.9885 0.1260,49.1865 0.3938,49.3733 L1.6680,50.1330 L1.9110,50.2710 L3.3660,51.0975 L15.6968,58.1347 C16.0485,58.3642 16.5203,58.5795 17.2620,58.0260 L31.3913,50.3033 L37.4910,46.7895 L39.3510,45.7178 C39.4905,45.6128 39.5738,45.5115 39.5925,45.4058 L39.5925,45.3098 L39.5948,45.3098 Z" style="fill-rule: evenodd; fill: url(#grad971); "/>
    <defs xmlns="http://www.w3.org/2000/svg" xmlns:xlink="http://www.w3.org/1999/xlink">
      <linearGradient id="grad972">
        <stop offset="0%" stop-color="#575b5c" stop-opacity="1.0000"/>
        <stop offset="100%" stop-color="#cececf" stop-opacity="1.0000"/>
      </linearGradient>
      <linearGradient xlink:href="#grad972" id="grad973" x1="0" y1="0" x2="0" y2="1" gradientTransform="rotate(45 .5 .5)" gradientUnits="objectBoundingBox">
  </linearGradient>
    </defs>
    <path xmlns="http://www.w3.org/2000/svg" d="  M39.5978,47.6655 L39.5947,45.4035 C39.5947,45.4035 39.6120,45.2985 39.5332,45.1732 C39.4545,45.0473 39.2722,44.9415 39.2722,44.9415 C39.4643,45.1230 38.9737,45.2925 38.8358,45.3968 L37.4925,46.1498 L31.3928,49.6628 L17.2635,57.3863 C16.5218,57.9382 16.0500,57.7230 15.6983,57.4942 L3.3675,50.4570 L1.9125,49.6305 L1.6860,49.4925 L0.5933,48.8858 C0.1515,48.6015 0.2018,48.5018 0.2348,48.4305 C0.2348,48.4305 0.1523,48.4718 0.0758,48.6390 C0.0000,48.8077 0.0338,48.9105 0.0338,48.9105 L0.0308,51.0240 C0.0083,51.2190 0.1200,51.4208 0.3938,51.6120 L1.6680,52.3710 L15.6975,60.3720 C16.0493,60.6015 16.5210,60.8168 17.2627,60.2640 L39.3525,47.9565 C39.5243,47.8298 39.6128,47.7037 39.5978,47.6655 Z" style="fill-rule: evenodd; fill: url(#grad973); "/>
    <defs xmlns="http://www.w3.org/2000/svg" xmlns:xlink="http://www.w3.org/1999/xlink">
      <linearGradient id="grad974">
        <stop offset="0%" stop-color="#454849" stop-opacity="1.0000"/>
        <stop offset="100%" stop-color="#5a5c5d" stop-opacity="1.0000"/>
      </linearGradient>
      <linearGradient xlink:href="#grad974" id="grad975" x1="0" y1="0" x2="0" y2="1" gradientTransform="rotate(90 .5 .5)" gradientUnits="objectBoundingBox">
  </linearGradient>
    </defs>
    <path xmlns="http://www.w3.org/2000/svg" d="  M39.5978,48.2122 L39.5947,45.4072 C39.5760,45.5130 39.4920,45.6142 39.3532,45.7192 L37.4932,46.7910 L31.3935,50.3047 L17.2643,58.0275 C16.5225,58.5802 16.0508,58.3650 15.6990,58.1362 L3.3683,51.0990 L1.9133,50.2725 L1.6703,50.1345 L0.3960,49.3747 C0.1283,49.1880 0.0150,48.9900 0.0323,48.7995 L0.0293,48.7995 L0.0330,51.6660 C0.0105,51.8610 0.1223,52.0627 0.3960,52.2532 L1.6703,53.0122 L15.6998,61.0132 C16.0515,61.2435 16.5233,61.4587 17.2650,60.9060 L39.3548,48.5970 C39.5242,48.4680 39.6128,48.3435 39.5978,48.2122 Z" style="fill-rule: evenodd; fill: url(#grad975); "/>
    <defs xmlns="http://www.w3.org/2000/svg" xmlns:xlink="http://www.w3.org/1999/xlink">
      <linearGradient id="grad976">
        <stop offset="0%" stop-color="#5a5c5d" stop-opacity="1.0000"/>
        <stop offset="100%" stop-color="#737677" stop-opacity="1.0000"/>
      </linearGradient>
      <linearGradient xlink:href="#grad976" id="grad977" x1="0" y1="0" x2="0" y2="1" gradientTransform="rotate(90 .5 .5)" gradientUnits="objectBoundingBox">
  </linearGradient>
    </defs>
    <path xmlns="http://www.w3.org/2000/svg" d="  M17.2635,58.0252 C16.5217,58.5780 16.0500,58.3620 15.6982,58.1340 L3.3675,51.0960 L1.9125,50.2688 L1.6695,50.1315 L0.3952,49.3725 C0.1275,49.1850 0.0142,48.9878 0.0315,48.7958 L0.0285,48.7965 L0.0322,51.6630 C0.0097,51.8580 0.1215,52.0590 0.3952,52.2510 L1.6695,53.0100 L15.6990,61.0110 C16.0507,61.2412 16.5225,61.4565 17.2642,60.9022 L17.2642,58.0252 L17.2635,58.0252 Z" style="fill-rule: evenodd; fill: url(#grad977); "/>
    <defs xmlns="http://www.w3.org/2000/svg" xmlns:xlink="http://www.w3.org/1999/xlink">
      <linearGradient id="grad978">
        <stop offset="0%" stop-color="#ffffff" stop-opacity="1.0000"/>
        <stop offset="100%" stop-color="#75777a" stop-opacity="1.0000"/>
      </linearGradient>
      <linearGradient xlink:href="#grad978" id="grad979" x1="0" y1="0" x2="0" y2="1" gradientTransform="rotate(45 .5 .5)" gradientUnits="objectBoundingBox">
  </linearGradient>
    </defs>
    <path xmlns="http://www.w3.org/2000/svg" d="  M14.2260,52.2623 L14.2260,24.0653 C14.2905,20.6783 14.3790,19.0463 17.9985,16.8495 L34.5435,7.8158 C35.3183,7.3672 36.0390,7.2652 36.6383,7.4543 L24.3870,0.4245 C23.7165,0.0000 22.8262,0.0172 21.8512,0.5813 L5.3055,9.6150 C3.2258,10.8172 1.5323,14.0535 1.5323,16.8300 L1.5323,45.0277 C1.5323,46.4340 1.9673,47.4563 2.6663,47.9663 L2.6648,47.9797 L2.8530,48.0870 C2.8718,48.0990 15.3503,55.2630 15.3503,55.2630 L15.3525,55.2577 C15.6735,55.4677 16.0463,55.5750 16.4558,55.5675 C15.1433,55.5368 14.2260,54.3060 14.2260,52.2623 Z" style="fill-rule: evenodd; fill: url(#grad979); "/>
    <defs xmlns="http://www.w3.org/2000/svg" xmlns:xlink="http://www.w3.org/1999/xlink">
      <linearGradient id="grad980">
        <stop offset="0%" stop-color="#a2a4a6" stop-opacity="1.0000"/>
        <stop offset="100%" stop-color="#ffffff" stop-opacity="1.0000"/>
      </linearGradient>
      <linearGradient xlink:href="#grad980" id="grad981" x1="0" y1="0" x2="0" y2="1" gradientTransform="rotate(-0 .5 .5)" gradientUnits="objectBoundingBox">
  </linearGradient>
    </defs>
    <path xmlns="http://www.w3.org/2000/svg" d="  M14.2260,24.0652 C14.2905,20.6783 14.3790,19.0463 17.9985,16.8495 L34.5435,7.8157 C35.3183,7.3673 36.0390,7.2653 36.6383,7.4542 L24.3870,0.4245 C23.7165,0.0000 22.8262,0.0173 21.8512,0.5812 L5.3055,9.6150 C3.2258,10.8173 1.5323,14.0535 1.5323,16.8300 L14.2260,24.0652 Z" style="fill-rule: evenodd; fill: url(#grad981); "/>
    <defs xmlns="http://www.w3.org/2000/svg" xmlns:xlink="http://www.w3.org/1999/xlink">
      <linearGradient id="grad982">
        <stop offset="0%" stop-color="#8d9092" stop-opacity="1.0000"/>
        <stop offset="100%" stop-color="#ebebec" stop-opacity="1.0000"/>
      </linearGradient>
      <linearGradient xlink:href="#grad982" id="grad983" x1="0" y1="0" x2="0" y2="1" gradientTransform="rotate(90 .5 .5)" gradientUnits="objectBoundingBox">
  </linearGradient>
    </defs>
    <path xmlns="http://www.w3.org/2000/svg" d="  M16.4775,55.5495 C14.9333,55.5127 13.9358,54.0960 13.9358,51.9397 L13.9358,24.1170 C13.9988,20.8162 14.0325,19.0012 17.8290,16.6988 L34.1828,7.7768 C34.7422,7.4543 35.2958,7.2892 35.8245,7.2892 C36.0660,7.2892 36.3008,7.3245 36.5220,7.3943 C36.5453,7.4025 36.5692,7.4123 36.5895,7.4243 L36.8385,7.5660 C36.8475,7.5720 36.8558,7.5765 36.8647,7.5818 C37.8023,8.1180 38.3385,9.3232 38.3385,10.8998 L38.3385,38.7233 C38.2463,42.4058 37.0275,44.6692 34.4378,46.1445 L18.0900,55.0627 C17.5485,55.3747 17.0085,55.5405 16.4917,55.5487 C16.4895,55.5487 16.4873,55.5487 16.4857,55.5487 C16.4865,55.5495 16.4805,55.5495 16.4775,55.5495 Z" style="fill-rule: evenodd; fill: url(#grad983); "/>
    <path xmlns="http://www.w3.org/2000/svg" d="  M34.2645,45.8430 C36.3195,44.6565 37.9913,41.4630 37.9913,38.7240 L37.9913,10.9005 C37.9913,9.3803 37.4753,8.3160 36.6668,7.8705 L36.6668,7.8698 L36.4178,7.7265 C35.8260,7.5405 35.1157,7.6417 34.3508,8.0843 L18.0105,16.9973 C14.4345,19.1655 14.3483,20.7750 14.2838,24.1170 L14.2838,51.9398 C14.2838,53.9558 15.1898,55.1708 16.4865,55.2008 C16.9290,55.1933 17.4143,55.0515 17.9228,54.7568 L34.2645,45.8430 Z" style="fill-rule: evenodd; fill: #9a9b9e; "/>
    <defs xmlns="http://www.w3.org/2000/svg" xmlns:xlink="http://www.w3.org/1999/xlink">
      <linearGradient id="grad984">
        <stop offset="0%" stop-color="#c3c4c5" stop-opacity="1.0000"/>
        <stop offset="100%" stop-color="#c6c7c8" stop-opacity="1.0000"/>
      </linearGradient>
      <linearGradient xlink:href="#grad984" id="grad985" x1="0" y1="0" x2="0" y2="1" gradientTransform="rotate(90 .5 .5)" gradientUnits="objectBoundingBox">
  </linearGradient>
    </defs>
    <path xmlns="http://www.w3.org/2000/svg" d="  M18.0105,54.4260 C16.0928,55.5337 14.5328,54.3540 14.5328,51.7972 L14.5328,23.9737 C14.5958,20.9820 14.9340,19.1362 18.0105,17.3287 L34.3508,8.4150 C36.2700,7.3072 37.8300,8.4870 37.8285,11.0445 L37.8300,38.8680 C37.8210,41.8215 36.5895,44.2117 34.3508,45.5122 L18.0105,54.4260 Z" style="fill-rule: evenodd; fill: url(#grad985); "/>
    <defs xmlns="http://www.w3.org/2000/svg" xmlns:xlink="http://www.w3.org/1999/xlink">
      <linearGradient id="grad986">
        <stop offset="0%" stop-color="#000000" stop-opacity="1.0000"/>
        <stop offset="100%" stop-color="#606363" stop-opacity="1.0000"/>
      </linearGradient>
      <linearGradient xlink:href="#grad986" id="grad987" x1="0" y1="0" x2="0" y2="1" gradientTransform="rotate(135 .5 .5)" gradientUnits="objectBoundingBox">
  </linearGradient>
    </defs>
    <path xmlns="http://www.w3.org/2000/svg" d="  M16.9290,53.9332 C15.8198,53.9332 15.1043,52.9252 15.1035,51.3667 L15.1043,23.5432 C15.1035,21.1995 16.1025,19.2930 17.9190,18.1732 L34.2668,9.2550 C34.6650,9.0248 35.0595,8.9062 35.4330,8.9062 C35.9678,8.9062 36.4410,9.1582 36.7643,9.6150 C37.0867,10.0702 37.2577,10.7130 37.2577,11.4735 L37.2577,39.2962 C37.2577,41.3617 35.9918,43.7715 34.4377,44.6692 L18.0930,53.5845 C17.6947,53.8155 17.3018,53.9332 16.9290,53.9332 Z" style="fill-rule: evenodd; fill: url(#grad987); "/>
    <defs xmlns="http://www.w3.org/2000/svg" xmlns:xlink="http://www.w3.org/1999/xlink">
      <linearGradient id="grad988">
        <stop offset="0%" stop-color="#3e4343" stop-opacity="1.0000"/>
        <stop offset="100%" stop-color="#7e7f7f" stop-opacity="1.0000"/>
      </linearGradient>
      <linearGradient xlink:href="#grad988" id="grad989" x1="0" y1="0" x2="0" y2="1" gradientTransform="rotate(90 .5 .5)" gradientUnits="objectBoundingBox">
  </linearGradient>
    </defs>
    <path xmlns="http://www.w3.org/2000/svg" d="  M18.0105,53.4322 C16.5030,54.3015 15.2775,53.3752 15.2775,51.3667 L15.2775,23.5433 C15.2775,21.5332 16.0410,19.5353 18.0105,18.3217 L34.3508,9.4073 C35.8583,8.5373 37.0845,9.4643 37.0845,11.4735 L37.0845,39.2962 C37.0845,41.3063 35.8583,43.6485 34.3508,44.5185 L18.0105,53.4322 Z" style="fill-rule: evenodd; fill: url(#grad989); "/>
    <defs xmlns="http://www.w3.org/2000/svg" xmlns:xlink="http://www.w3.org/1999/xlink">
      <linearGradient id="grad990">
        <stop offset="0%" stop-color="#b1b2b2" stop-opacity="1.0000"/>
        <stop offset="100%" stop-color="#ffffff" stop-opacity="1.0000"/>
      </linearGradient>
      <linearGradient xlink:href="#grad990" id="grad991" x1="0" y1="0" x2="0" y2="1" gradientTransform="rotate(90 .5 .5)" gradientUnits="objectBoundingBox">
  </linearGradient>
    </defs>
    <path xmlns="http://www.w3.org/2000/svg" d="  M18.0105,53.1007 C16.6410,53.8927 15.5257,53.0497 15.5257,51.2235 L15.5257,23.4000 C15.5092,21.3172 16.8120,19.2930 18.0105,18.6525 L34.3507,9.7387 C35.7202,8.9482 36.8355,9.7905 36.8355,11.6167 L36.8355,39.4402 C36.8355,41.2672 35.7210,43.3965 34.3507,44.1870 L18.0105,53.1007 Z" style="fill-rule: evenodd; fill: url(#grad991); "/>
    <defs xmlns="http://www.w3.org/2000/svg" xmlns:xlink="http://www.w3.org/1999/xlink">
      <linearGradient id="grad992">
        <stop offset="0%" stop-color="#a7a6a7" stop-opacity="1.0000"/>
        <stop offset="100%" stop-color="#efefef" stop-opacity="1.0000"/>
      </linearGradient>
      <linearGradient xlink:href="#grad992" id="grad993" x1="0" y1="0" x2="0" y2="1" gradientTransform="rotate(45 .5 .5)" gradientUnits="objectBoundingBox">
  </linearGradient>
    </defs>
    <path xmlns="http://www.w3.org/2000/svg" d="  M36.3383,39.7275 C36.3383,41.1907 35.4473,42.8917 34.3507,43.5248 L18.0105,52.4385 C16.9125,53.0730 16.0230,52.4003 16.0230,50.9370 L16.0448,23.9692 C16.0448,21.7837 16.8817,19.8990 18.7192,18.8985 L34.3500,10.4025 C35.4473,9.7687 36.3375,10.4415 36.3375,11.9047 L36.3375,39.7275 L36.3383,39.7275 Z" style="fill-rule: evenodd; fill: url(#grad993); "/>
    <defs xmlns="http://www.w3.org/2000/svg" xmlns:xlink="http://www.w3.org/1999/xlink">
      <linearGradient id="grad994">
        <stop offset="0%" stop-color="#616363" stop-opacity="1.0000"/>
        <stop offset="100%" stop-color="#9d9fa1" stop-opacity="1.0000"/>
      </linearGradient>
      <linearGradient xlink:href="#grad994" id="grad995" x1="0" y1="0" x2="0" y2="1" gradientTransform="rotate(135 .5 .5)" gradientUnits="objectBoundingBox">
  </linearGradient>
    </defs>
    <path xmlns="http://www.w3.org/2000/svg" d="  M13.5263,54.2347 C13.1775,54.1620 12.9518,54.0863 12.7020,53.9340 C12.6915,53.9295 4.5008,49.1858 4.5008,49.1858 C4.4670,49.1662 4.4370,49.1408 4.4123,49.1130 C3.8828,48.6900 3.5213,48.2970 3.5213,47.3362 L3.5213,21.4110 C3.5213,21.4013 3.5213,21.3930 3.5220,21.3840 C3.5535,20.9648 3.8078,20.5140 4.2915,20.5140 C4.4490,20.5140 4.6178,20.5650 4.7933,20.6647 C4.9702,20.7668 5.4525,21.0383 6.0855,21.3960 C7.9140,22.4273 10.9740,24.1545 11.6903,24.5895 C12.4650,25.0597 12.4455,26.0963 12.4395,26.2320 L12.4395,52.0222 C12.5978,53.8575 13.5263,54.2347 13.5263,54.2347 Z" style="fill-rule: evenodd; fill: url(#grad995); "/>
    <defs xmlns="http://www.w3.org/2000/svg" xmlns:xlink="http://www.w3.org/1999/xlink">
      <linearGradient id="grad996">
        <stop offset="0%" stop-color="#76797a" stop-opacity="1.0000"/>
        <stop offset="100%" stop-color="#fbfcfc" stop-opacity="1.0000"/>
      </linearGradient>
      <linearGradient xlink:href="#grad996" id="grad997" x1="0" y1="0" x2="0" y2="1" gradientTransform="rotate(225 .5 .5)" gradientUnits="objectBoundingBox">
  </linearGradient>
    </defs>
    <path xmlns="http://www.w3.org/2000/svg" d="  M12.0915,52.0223 L12.0915,26.2222 C12.0915,26.2222 12.1515,25.2742 11.5102,24.8858 C10.5495,24.3037 5.3093,21.3600 4.6215,20.9663 C3.9338,20.5725 3.8693,21.4102 3.8693,21.4102 L3.8693,47.3355 C3.8693,48.2460 4.1505,48.9075 4.6035,49.2383 L4.6028,49.2465 L4.7235,49.3162 C4.7378,49.3238 12.8198,53.9640 12.8198,53.9640 L12.8213,53.9610 C13.0290,54.0990 13.2893,54.2378 13.5540,54.2340 C12.7043,54.2145 12.0915,53.3453 12.0915,52.0223 Z" style="fill-rule: evenodd; fill: url(#grad997); "/>
    <defs xmlns="http://www.w3.org/2000/svg" xmlns:xlink="http://www.w3.org/1999/xlink">
      <linearGradient id="grad998">
        <stop offset="0%" stop-color="#adafb3" stop-opacity="1.0000"/>
        <stop offset="100%" stop-color="#293335" stop-opacity="1.0000"/>
      </linearGradient>
      <linearGradient xlink:href="#grad998" id="grad999" x1="0" y1="0" x2="0" y2="1" gradientTransform="rotate(135 .5 .5)" gradientUnits="objectBoundingBox">
  </linearGradient>
    </defs>
    <path xmlns="http://www.w3.org/2000/svg" d="  M8.6295,26.3182 C7.7865,26.4135 6.8175,25.7925 6.1028,24.6960 C5.1420,23.2215 5.0768,21.5557 5.9497,20.8215 C6.1620,20.6437 6.4103,20.5365 6.6863,20.5057 C7.5278,20.4105 8.4953,21.0330 9.2130,22.1287 C10.1738,23.6017 10.2405,25.2667 9.3675,26.0017 C9.1538,26.1817 8.9063,26.2875 8.6295,26.3182 Z" style="fill-rule: evenodd; fill: url(#grad999); "/>
    <defs xmlns="http://www.w3.org/2000/svg">
      <radialGradient id="grad1000" cx="50.0000%" cy="50.0000%" r="100.0000%">
        <stop offset="0%" stop-color="#70c35d" stop-opacity="1.0000"/>
        <stop offset="100%" stop-color="#2c792d" stop-opacity="1.0000"/>
      </radialGradient>
    </defs>
    <path xmlns="http://www.w3.org/2000/svg" d="  M8.4923,25.7130 C7.7580,25.7130 6.9323,25.0905 6.3870,24.1268 C5.6753,22.8668 5.7278,21.5175 6.5070,21.0578 C6.6795,20.9557 6.8738,20.9048 7.0853,20.9048 C7.8173,20.9048 8.6423,21.5273 9.1890,22.4902 C9.9015,23.7502 9.8490,25.0980 9.0705,25.5593 C8.8973,25.6620 8.7023,25.7130 8.4923,25.7130 Z" style="fill-rule: evenodd; fill: url(#grad1000); "/>
    <defs xmlns="http://www.w3.org/2000/svg">
      <radialGradient id="grad1001" cx="50.0000%" cy="50.0000%" r="100.0000%">
        <stop offset="0%" stop-color="#ccff66" stop-opacity="1.0000"/>
        <stop offset="100%" stop-color="#7ab04a" stop-opacity="1.0000"/>
      </radialGradient>
    </defs>
    <path xmlns="http://www.w3.org/2000/svg" d="  M6.6840,21.3585 C7.2908,21.0007 8.2747,21.5850 8.8868,22.6627 C9.4965,23.7405 9.4973,24.9015 8.8935,25.2607 C8.2860,25.6170 7.2990,25.0320 6.6915,23.9557 C6.0818,22.8772 6.0795,21.7155 6.6840,21.3585 Z" style="fill-rule: evenodd; fill: url(#grad1001); "/>
    <defs xmlns="http://www.w3.org/2000/svg">
      <radialGradient id="grad1002" cx="50.0000%" cy="50.0000%" r="100.0000%">
        <stop offset="0%" stop-color="#ffffff" stop-opacity="0.5608"/>
        <stop offset="100%" stop-color="#ffffff" stop-opacity="0.5608"/>
      </radialGradient>
    </defs>
    <path xmlns="http://www.w3.org/2000/svg" d="  M7.4198,23.1263 C6.2857,22.0575 5.5223,22.1618 5.5223,22.1618 C5.5223,22.1618 5.7555,21.2790 6.0758,21.0090 C6.2745,20.8433 6.5025,20.7450 6.7590,20.7165 C7.5368,20.6288 8.4322,21.2040 9.0960,22.2180 C10.5338,24.4680 9.2393,25.8023 9.2393,25.8023 C9.2393,25.8023 8.5545,24.1942 7.4198,23.1263 Z" style="fill-rule: evenodd; fill: url(#grad1002); "/>
    <defs xmlns="http://www.w3.org/2000/svg" xmlns:xlink="http://www.w3.org/1999/xlink">
      <linearGradient id="grad1003">
        <stop offset="0%" stop-color="#3cbf11" stop-opacity="1.0000"/>
        <stop offset="100%" stop-color="#108703" stop-opacity="1.0000"/>
      </linearGradient>
      <linearGradient xlink:href="#grad1003" id="grad1004" x1="0" y1="0" x2="0" y2="1" gradientTransform="rotate(180 .5 .5)" gradientUnits="objectBoundingBox">
  </linearGradient>
    </defs>
    <path xmlns="http://www.w3.org/2000/svg" d="  M35.8095,50.6362 C35.3317,50.6362 34.9425,50.2552 34.9425,49.7865 L34.9425,48.3712 C34.9425,47.9025 35.3325,47.5215 35.8095,47.5215 L43.3957,47.5215 C43.8720,47.5215 44.2612,47.9025 44.2612,48.3712 L44.2612,49.7865 C44.2612,50.2552 43.8712,50.6362 43.3957,50.6362 L35.8095,50.6362 Z" style="fill-rule: evenodd; fill: url(#grad1004); "/>
    <defs xmlns="http://www.w3.org/2000/svg" xmlns:xlink="http://www.w3.org/1999/xlink">
      <linearGradient id="grad1005">
        <stop offset="0%" stop-color="#74ee5b" stop-opacity="1.0000"/>
        <stop offset="100%" stop-color="#43bc30" stop-opacity="1.0000"/>
      </linearGradient>
      <linearGradient xlink:href="#grad1005" id="grad1006" x1="0" y1="0" x2="0" y2="1" gradientTransform="rotate(90 .5 .5)" gradientUnits="objectBoundingBox">
  </linearGradient>
    </defs>
    <path xmlns="http://www.w3.org/2000/svg" d="  M43.9792,49.7865 C43.9792,50.0992 43.7167,50.3528 43.3965,50.3528 L35.8102,50.3528 C35.4877,50.3528 35.2260,50.0992 35.2260,49.7865 L35.2260,48.3713 C35.2260,48.0585 35.4885,47.8043 35.8102,47.8043 L43.3965,47.8043 C43.7175,47.8043 43.9792,48.0585 43.9792,48.3713 L43.9792,49.7865 Z" style="fill-rule: evenodd; fill: url(#grad1006); "/>
    <defs xmlns="http://www.w3.org/2000/svg" xmlns:xlink="http://www.w3.org/1999/xlink">
      <linearGradient id="grad1007">
        <stop offset="0%" stop-color="#3cbf11" stop-opacity="1.0000"/>
        <stop offset="100%" stop-color="#108703" stop-opacity="1.0000"/>
      </linearGradient>
      <linearGradient xlink:href="#grad1007" id="grad1008" x1="0" y1="0" x2="0" y2="1" gradientTransform="rotate(180 .5 .5)" gradientUnits="objectBoundingBox">
  </linearGradient>
    </defs>
    <path xmlns="http://www.w3.org/2000/svg" d="  M35.8080,55.5413 C35.3302,55.5413 34.9425,55.1610 34.9425,54.6922 L34.9425,53.2770 C34.9425,52.8082 35.3310,52.4272 35.8080,52.4272 L43.3928,52.4272 C43.8720,52.4272 44.2598,52.8082 44.2598,53.2770 L44.2598,54.6922 C44.2598,55.1610 43.8713,55.5413 43.3928,55.5413 L35.8080,55.5413 Z" style="fill-rule: evenodd; fill: url(#grad1008); "/>
    <defs xmlns="http://www.w3.org/2000/svg" xmlns:xlink="http://www.w3.org/1999/xlink">
      <linearGradient id="grad1009">
        <stop offset="0%" stop-color="#75ec5b" stop-opacity="1.0000"/>
        <stop offset="100%" stop-color="#3abb19" stop-opacity="1.0000"/>
      </linearGradient>
      <linearGradient xlink:href="#grad1009" id="grad1010" x1="0" y1="0" x2="0" y2="1" gradientTransform="rotate(90 .5 .5)" gradientUnits="objectBoundingBox">
  </linearGradient>
    </defs>
    <path xmlns="http://www.w3.org/2000/svg" d="  M43.9778,54.6922 C43.9778,55.0050 43.7153,55.2578 43.3935,55.2578 L35.8087,55.2578 C35.4862,55.2578 35.2260,55.0050 35.2260,54.6922 L35.2260,53.2770 C35.2260,52.9643 35.4870,52.7100 35.8087,52.7100 L43.3935,52.7100 C43.7160,52.7100 43.9778,52.9643 43.9778,53.2770 L43.9778,54.6922 Z" style="fill-rule: evenodd; fill: url(#grad1010); "/>
    <defs xmlns="http://www.w3.org/2000/svg" xmlns:xlink="http://www.w3.org/1999/xlink">
      <linearGradient id="grad1011">
        <stop offset="0%" stop-color="#36b80f" stop-opacity="1.0000"/>
        <stop offset="100%" stop-color="#108703" stop-opacity="1.0000"/>
      </linearGradient>
      <linearGradient xlink:href="#grad1011" id="grad1012" x1="0" y1="0" x2="0" y2="1" gradientTransform="rotate(135 .5 .5)" gradientUnits="objectBoundingBox">
  </linearGradient>
    </defs>
    <path xmlns="http://www.w3.org/2000/svg" d="  M36.4132,45.3000 C35.6190,45.3000 34.9980,45.2678 34.9980,44.1443 C34.9980,44.1443 34.9980,39.0037 34.9980,39.0015 L29.7143,39.0015 C29.4592,38.9970 29.2328,38.8553 29.1315,38.6400 C29.0325,38.4292 29.0692,38.1840 29.2297,37.9830 L39.0780,25.7520 C39.3180,25.4377 39.5820,25.3702 39.7590,25.3702 C39.9308,25.3702 40.1880,25.4325 40.4415,25.7310 L50.1487,37.9770 C50.3550,38.2290 50.4195,38.5073 50.3190,38.7210 C50.2793,38.8050 50.1487,39.0008 49.8105,39.0008 L44.2943,39.0008 C44.2852,39.0008 44.2770,39.0008 44.2680,39.0000 L44.2680,44.1435 C44.2680,45.2670 43.6455,45.2993 42.8512,45.2993 L36.4132,45.2993 L36.4132,45.3000 Z" style="fill-rule: evenodd; fill: url(#grad1012); "/>
    <defs xmlns="http://www.w3.org/2000/svg" xmlns:xlink="http://www.w3.org/1999/xlink">
      <linearGradient id="grad1013">
        <stop offset="0%" stop-color="#74ee5b" stop-opacity="1.0000"/>
        <stop offset="100%" stop-color="#43bc30" stop-opacity="1.0000"/>
      </linearGradient>
      <linearGradient xlink:href="#grad1013" id="grad1014" x1="0" y1="0" x2="0" y2="1" gradientTransform="rotate(135 .5 .5)" gradientUnits="objectBoundingBox">
  </linearGradient>
    </defs>
    <path xmlns="http://www.w3.org/2000/svg" d="  M49.9283,38.1525 L40.2263,25.9147 C39.9278,25.5630 39.5760,25.5638 39.2993,25.9290 L29.4510,38.1600 C29.2328,38.4330 29.4428,38.7135 29.7150,38.7187 L34.9815,38.7187 C34.9815,38.7187 35.1705,38.7052 35.2305,38.7930 C35.3070,38.9048 35.2815,39.0060 35.2815,39.0060 L35.2815,44.1450 C35.2815,45.0960 35.7885,45.0172 36.4140,45.0172 L42.8520,45.0172 C43.4775,45.0172 43.9860,45.0952 43.9860,44.1450 L43.9860,39.0022 C43.9860,39.0022 43.9800,38.8305 44.0520,38.7600 C44.1105,38.7007 44.2950,38.7195 44.2950,38.7195 L49.8113,38.7195 C50.1638,38.7180 50.1405,38.4120 49.9283,38.1525 Z" style="fill-rule: evenodd; fill: url(#grad1014); "/>
    <!--converted by libvisio2svg-->
  </g>
</svg>
