<svg xmlns="http://www.w3.org/2000/svg" xmlns:xlink="http://www.w3.org/1999/xlink" version="1.1" width="0.5765000000" height="0.8542000000" viewBox="0 0 41.5050 61.4993">
  <title><![CDATA[Director]]></title>
  <g transform=" scale(1.000000) ">
    <path xmlns="http://www.w3.org/2000/svg" d="  M38.1443,26.9303 C34.9943,21.7852 30.6765,19.2465 27.2093,20.8613 C26.7293,21.0840 25.9185,21.4988 25.5765,21.7110 C25.5443,21.7305 25.5143,21.7538 25.4820,21.7747 C25.7393,21.6202 26.0123,21.5032 26.2973,21.4178 C26.0085,21.5063 25.7333,21.6285 25.4745,21.7875 C22.5750,23.5755 22.8053,29.2110 25.9890,34.3770 C26.7930,35.6782 27.7065,36.8257 28.6703,37.7858 L28.6808,39.3660 L28.6822,39.3675 L29.0415,56.0273 L29.8897,57.7545 C29.8897,57.7545 30.8018,58.6073 30.8055,58.6148 C30.9097,58.8368 30.9172,59.1210 30.9172,59.1210 L30.9330,59.1435 C30.9293,59.1735 32.0753,60.2430 32.0753,60.2430 L33.4793,59.2995 L33.8422,58.9433 L35.3130,57.7313 L35.2133,55.4288 L35.2125,55.4175 L34.0103,53.5462 L35.1705,52.8105 L35.1435,51.0495 L34.3748,49.6972 L35.1450,49.1625 L35.0115,41.8005 L35.8553,41.2972 C35.8568,41.2965 35.8590,41.2957 35.8605,41.2950 C36.0503,41.2103 36.1590,41.0565 36.1658,40.8803 C36.1463,40.8870 36.1253,40.8893 36.1050,40.8953 C36.1050,40.8915 36.1073,40.8878 36.1073,40.8847 C36.4230,40.7955 36.7238,40.6650 37.0043,40.4910 C37.0230,40.4798 37.0395,40.4640 37.0583,40.4512 C37.6005,40.1347 38.3723,39.6450 38.6145,39.4950 C41.5050,37.7003 41.2928,32.0752 38.1443,26.9303 Z M33.5505,52.0838 Z M26.3655,21.3960 C26.3595,21.3982 26.3528,21.3997 26.3475,21.4013 C26.3543,21.3997 26.3595,21.3982 26.3655,21.3960 Z M35.5628,40.9965 C35.6295,40.9875 35.6963,40.9777 35.7623,40.9657 C35.6963,40.9777 35.6295,40.9868 35.5628,40.9965 Z" style="stroke-width: 1.5000; stroke: #8d98b5; stroke-dasharray: none; stroke-linecap: butt; stroke-linejoin: miter; fill: none; "/>
    <g xmlns="http://www.w3.org/2000/svg" id="Layer1067">
      <path d="  M38.6887,7.3103 L26.5275,0.0000 L0.0000,15.2483 L0.0000,53.4330 L0.5880,53.7788 C2.1645,55.7948 5.4315,57.7163 9.0368,58.7400 L13.7363,61.4993 L38.6895,47.1675 L38.6895,44.3475 L38.6880,44.3115 L38.1458,44.0535 L38.6895,43.7430 L38.6895,41.4487 L38.6880,41.4135 L38.1458,41.1555 L38.6895,40.8435 L38.6895,38.5492 L38.6880,38.5140 L38.1840,38.2755 L38.6895,37.9868 L38.6895,7.3455 L38.6895,7.3103 L38.6887,7.3103 Z" style="stroke-width: 1.5000; stroke-linecap: butt; stroke-linejoin: miter; fill-rule: evenodd; fill: #8d98b5; "/>
      <path d="  M38.6887,7.3103 L26.5275,0.0000 L0.0000,15.2483 L0.0000,53.4330 L0.5880,53.7788 C2.1645,55.7948 5.4315,57.7163 9.0368,58.7400 L13.7363,61.4993 L38.6895,47.1675 L38.6895,44.3475 L38.6880,44.3115 L38.1458,44.0535 L38.6895,43.7430 L38.6895,41.4487 L38.6880,41.4135 L38.1458,41.1555 L38.6895,40.8435 L38.6895,38.5492 L38.6880,38.5140 L38.1840,38.2755 L38.6895,37.9868 L38.6895,7.3455 L38.6895,7.3103 L38.6887,7.3103 Z" style="stroke-width: 1.5000; stroke: #8d98b5; stroke-dasharray: none; stroke-linecap: butt; stroke-linejoin: miter; fill: none; "/>
    </g>
    <path xmlns="http://www.w3.org/2000/svg" d="  M23.5133,47.2695 L38.6873,38.5148 L38.1833,38.2762 L23.5133,46.6523 L23.5133,47.2695 Z" style="fill-rule: evenodd; fill: #3f3f3f; "/>
    <path xmlns="http://www.w3.org/2000/svg" d="  M23.5133,50.1675 L38.6873,41.4135 L38.1450,41.1562 L23.5133,49.5510 L23.5133,50.1675 Z" style="fill-rule: evenodd; fill: #3f3f3f; "/>
    <path xmlns="http://www.w3.org/2000/svg" d="  M23.5133,53.0655 L38.6873,44.3115 L38.1450,44.0535 L23.5133,52.4490 L23.5133,53.0655 Z" style="fill-rule: evenodd; fill: #3f3f3f; "/>
    <defs xmlns="http://www.w3.org/2000/svg" xmlns:xlink="http://www.w3.org/1999/xlink">
      <linearGradient id="grad1015">
        <stop offset="0%" stop-color="#646c6b" stop-opacity="1.0000"/>
        <stop offset="100%" stop-color="#dae1e1" stop-opacity="1.0000"/>
      </linearGradient>
      <linearGradient xlink:href="#grad1015" id="grad1016" x1="0" y1="0" x2="0" y2="1" gradientTransform="rotate(90 .5 .5)" gradientUnits="objectBoundingBox">
  </linearGradient>
    </defs>
    <path xmlns="http://www.w3.org/2000/svg" d="  M13.7355,21.9278 L0.0000,15.2483 L0.0000,53.4330 L0.5880,53.7788 C0.4605,53.6160 0.3435,53.4525 0.2393,53.2905 L0.2393,36.6780 L0.2393,32.9730 L0.2393,25.0432 L0.2393,17.0505 L12.6570,23.1885 C12.6570,23.1885 12.7043,23.1938 12.7283,23.1960 L12.7283,31.2443 L12.7283,39.1177 L12.7283,43.0545 L12.7283,59.4360 C11.4938,59.3265 10.2473,59.0820 9.0368,58.7400 L13.7363,61.4993 L13.7363,21.9278 L13.7355,21.9278 Z" style="fill-rule: evenodd; fill: url(#grad1016); "/>
    <defs xmlns="http://www.w3.org/2000/svg" xmlns:xlink="http://www.w3.org/1999/xlink">
      <linearGradient id="grad1017">
        <stop offset="0%" stop-color="#85919c" stop-opacity="1.0000"/>
        <stop offset="100%" stop-color="#dadfe1" stop-opacity="1.0000"/>
      </linearGradient>
      <linearGradient xlink:href="#grad1017" id="grad1018" x1="0" y1="0" x2="0" y2="1" gradientTransform="rotate(90 .5 .5)" gradientUnits="objectBoundingBox">
  </linearGradient>
    </defs>
    <path xmlns="http://www.w3.org/2000/svg" d="  M12.2018,43.0477 C12.2018,43.1092 12.1298,43.1610 12.0353,43.1610 C12.0278,43.1610 12.0098,43.1610 12.0098,43.1610 C8.3033,43.2165 3.4680,41.5320 0.7373,37.3530 C0.5513,37.1272 0.3825,36.9015 0.2393,36.6773 L0.2393,53.2897 C0.3435,53.4525 0.4605,53.6160 0.5880,53.7780 C2.1645,55.7940 5.4315,57.7155 9.0368,58.7393 C10.2473,59.0813 11.4930,59.3250 12.7283,59.4353 L12.7283,43.0538 C12.5483,43.0380 12.3668,43.0170 12.1838,42.9953 C12.1958,43.0117 12.2018,43.0305 12.2018,43.0477 Z M11.8320,57.3735 C11.6303,58.0110 10.5795,58.2443 9.4845,57.8978 C8.3903,57.5505 7.6658,56.7540 7.8683,56.1172 C8.0685,55.4812 9.1193,55.2472 10.2158,55.5937 C11.3100,55.9403 12.0338,56.7375 11.8320,57.3735 Z M12.0360,54.8258 C12.0285,54.8258 12.0105,54.8258 12.0105,54.8258 C8.1653,54.8843 3.1073,53.0700 0.4403,48.5415 C0.2475,48.2220 0.4770,48.2513 0.4770,48.2513 C2.1660,51.1080 7.1423,54.1050 11.9438,54.5872 C11.9648,54.5895 12.0345,54.5940 12.0428,54.5940 C12.1373,54.5940 12.2025,54.6510 12.2025,54.7125 C12.2025,54.7740 12.1305,54.8258 12.0360,54.8258 Z M12.0360,50.9385 C12.0285,50.9385 12.0105,50.9385 12.0105,50.9385 C8.1653,50.9962 3.1073,49.1820 0.4403,44.6542 C0.2475,44.3340 0.4770,44.3648 0.4770,44.3648 C2.1660,47.2192 7.1423,50.2177 11.9438,50.6992 C11.9648,50.7015 12.0345,50.7060 12.0428,50.7060 C12.1373,50.7060 12.2025,50.7630 12.2025,50.8252 C12.2018,50.8860 12.1305,50.9385 12.0360,50.9385 Z M12.0360,47.0490 C12.0285,47.0490 12.0105,47.0505 12.0105,47.0505 C8.1653,47.1075 3.1073,45.2932 0.4403,40.7648 C0.2475,40.4453 0.4770,40.4752 0.4770,40.4752 C2.1660,43.3312 7.1423,46.3283 11.9438,46.8098 C11.9648,46.8127 12.0345,46.8173 12.0428,46.8173 C12.1373,46.8173 12.2025,46.8757 12.2025,46.9357 C12.2018,46.9972 12.1305,47.0490 12.0360,47.0490 Z" style="fill-rule: evenodd; fill: url(#grad1018); "/>
    <defs xmlns="http://www.w3.org/2000/svg" xmlns:xlink="http://www.w3.org/1999/xlink">
      <linearGradient id="grad1019">
        <stop offset="0%" stop-color="#85919c" stop-opacity="1.0000"/>
        <stop offset="100%" stop-color="#dadfe1" stop-opacity="1.0000"/>
      </linearGradient>
      <linearGradient xlink:href="#grad1019" id="grad1020" x1="0" y1="0" x2="0" y2="1" gradientTransform="rotate(90 .5 .5)" gradientUnits="objectBoundingBox">
  </linearGradient>
    </defs>
    <path xmlns="http://www.w3.org/2000/svg" d="  M11.9437,31.2570 C11.9648,31.2593 12.0345,31.2638 12.0427,31.2638 C12.1372,31.2638 12.2025,31.3208 12.2025,31.3830 C12.2025,31.4437 12.1305,31.4948 12.0360,31.4948 C12.0285,31.4948 12.0105,31.4955 12.0105,31.4955 C8.3580,31.5503 3.6083,29.9130 0.8573,25.8638 C0.6210,25.5923 0.4125,25.3177 0.2400,25.0425 L0.2400,32.9708 C0.5168,33.4043 0.8775,33.8347 1.3050,34.2577 C0.9968,33.8603 0.7050,33.4373 0.4410,32.9872 C0.2483,32.6685 0.4778,32.6985 0.4778,32.6985 C1.6320,34.6500 4.3230,36.6668 7.4438,37.9028 C8.9123,38.4420 10.4783,38.8403 12.0382,39.0398 C12.0398,39.0398 12.0427,39.0398 12.0435,39.0398 C12.0518,39.0398 12.0578,39.0420 12.0660,39.0428 C12.2625,39.0675 12.4598,39.0908 12.6578,39.1103 C12.6810,39.1118 12.7050,39.1148 12.7290,39.1170 L12.7290,31.2435 C9.9555,30.9945 7.1160,30.0743 4.7895,28.8293 C6.8947,30.0713 9.4432,31.0057 11.9437,31.2570 Z M12.0360,35.3835 C12.0285,35.3835 12.0105,35.3843 12.0105,35.3843 C8.1652,35.4413 3.1072,33.6277 0.4402,29.1000 C0.2475,28.7805 0.4770,28.8105 0.4770,28.8105 C2.1660,31.6650 7.1422,34.6620 11.9437,35.1458 C11.9648,35.1473 12.0345,35.1525 12.0427,35.1525 C12.1372,35.1525 12.2025,35.2095 12.2025,35.2703 C12.2017,35.3317 12.1305,35.3835 12.0360,35.3835 Z" style="fill-rule: evenodd; fill: url(#grad1020); "/>
    <defs xmlns="http://www.w3.org/2000/svg" xmlns:xlink="http://www.w3.org/1999/xlink">
      <linearGradient id="grad1021">
        <stop offset="0%" stop-color="#c8d8dd" stop-opacity="1.0000"/>
        <stop offset="100%" stop-color="#f3f9f7" stop-opacity="1.0000"/>
      </linearGradient>
      <linearGradient xlink:href="#grad1021" id="grad1022" x1="0" y1="0" x2="0" y2="1" gradientTransform="rotate(90 .5 .5)" gradientUnits="objectBoundingBox">
  </linearGradient>
    </defs>
    <path xmlns="http://www.w3.org/2000/svg" d="  M12.6570,39.1110 C12.4590,39.0922 12.2618,39.0682 12.0653,39.0435 C12.1463,39.0532 12.2025,39.1035 12.2025,39.1590 C12.2025,39.2205 12.1305,39.2715 12.0360,39.2715 C12.0285,39.2715 12.0105,39.2715 12.0105,39.2715 C8.5493,39.3240 4.1025,37.8570 1.3050,34.2577 C0.8775,33.8355 0.5168,33.4042 0.2400,32.9707 L0.2400,36.6757 C0.3833,36.9008 0.5520,37.1265 0.7380,37.3515 C0.6360,37.1962 0.5355,37.0380 0.4410,36.8752 C0.2483,36.5550 0.4778,36.5858 0.4778,36.5858 C1.4880,38.2920 3.6720,40.0492 6.2925,41.2897 C7.5465,41.8830 8.9003,42.3585 10.2728,42.6525 C10.8285,42.7725 11.3888,42.8632 11.9445,42.9195 C11.9655,42.9210 12.0353,42.9270 12.0435,42.9270 C12.1095,42.9270 12.1605,42.9547 12.1845,42.9930 C12.3668,43.0147 12.5483,43.0365 12.7290,43.0515 L12.7290,39.1147 C12.7035,39.1155 12.6803,39.1125 12.6570,39.1110 Z" style="fill-rule: evenodd; fill: url(#grad1022); "/>
    <defs xmlns="http://www.w3.org/2000/svg" xmlns:xlink="http://www.w3.org/1999/xlink">
      <linearGradient id="grad1023">
        <stop offset="0%" stop-color="#bdd1dd" stop-opacity="1.0000"/>
        <stop offset="100%" stop-color="#f3f9f7" stop-opacity="1.0000"/>
      </linearGradient>
      <linearGradient xlink:href="#grad1023" id="grad1024" x1="0" y1="0" x2="0" y2="1" gradientTransform="rotate(90 .5 .5)" gradientUnits="objectBoundingBox">
  </linearGradient>
    </defs>
    <path xmlns="http://www.w3.org/2000/svg" d="  M12.6570,23.1885 L0.2393,17.0505 L0.2393,25.0433 C0.4118,25.3185 0.6203,25.5923 0.8565,25.8645 C0.7125,25.6530 0.5723,25.4370 0.4395,25.2113 C0.2468,24.8917 0.4763,24.9225 0.4763,24.9225 C1.2848,26.2898 2.8508,27.6900 4.7880,28.8300 C7.1145,30.0750 9.9540,30.9952 12.7275,31.2442 L12.7275,23.1960 C12.7035,23.1938 12.6570,23.1885 12.6570,23.1885 Z M0.6608,18.1125 L12.3510,23.8913 C6.5528,27.0952 0.8828,21.9277 0.6608,18.1125 Z" style="fill-rule: evenodd; fill: url(#grad1024); "/>
    <path xmlns="http://www.w3.org/2000/svg" d="  M12.0427,54.5948 C12.0345,54.5948 11.9648,54.5903 11.9437,54.5880 C7.1422,54.1050 2.1660,51.1080 0.4770,48.2520 C0.4770,48.2520 0.2475,48.2227 0.4403,48.5422 C3.1072,53.0708 8.1652,54.8850 12.0105,54.8265 C12.0105,54.8265 12.0285,54.8265 12.0360,54.8265 C12.1305,54.8265 12.2025,54.7755 12.2025,54.7140 C12.2025,54.6525 12.1372,54.5948 12.0427,54.5948 Z" style="fill-rule: evenodd; fill: #000000; "/>
    <path xmlns="http://www.w3.org/2000/svg" d="  M12.0427,50.7060 C12.0345,50.7060 11.9648,50.7015 11.9437,50.6992 C7.1422,50.2170 2.1660,47.2185 0.4770,44.3647 C0.4770,44.3647 0.2475,44.3340 0.4403,44.6542 C3.1072,49.1820 8.1652,50.9962 12.0105,50.9385 C12.0105,50.9385 12.0285,50.9385 12.0360,50.9385 C12.1305,50.9385 12.2025,50.8867 12.2025,50.8260 C12.2017,50.7630 12.1372,50.7060 12.0427,50.7060 Z" style="fill-rule: evenodd; fill: #000000; "/>
    <path xmlns="http://www.w3.org/2000/svg" d="  M12.0427,46.8172 C12.0345,46.8172 11.9648,46.8127 11.9437,46.8097 C7.1422,46.3275 2.1660,43.3305 0.4770,40.4752 C0.4770,40.4752 0.2475,40.4452 0.4403,40.7647 C3.1072,45.2932 8.1652,47.1075 12.0105,47.0505 C12.0105,47.0505 12.0285,47.0490 12.0360,47.0490 C12.1305,47.0490 12.2025,46.9972 12.2025,46.9365 C12.2017,46.8765 12.1372,46.8172 12.0427,46.8172 Z" style="fill-rule: evenodd; fill: #000000; "/>
    <path xmlns="http://www.w3.org/2000/svg" d="  M12.1837,42.9960 C11.5455,42.9180 10.9065,42.8040 10.2712,42.6555 C8.8987,42.3608 7.5450,41.8860 6.2910,41.2928 C3.6705,40.0523 1.4865,38.2950 0.4762,36.5888 C0.4762,36.5888 0.2467,36.5580 0.4395,36.8783 C0.5347,37.0410 0.6353,37.1993 0.7365,37.3545 C3.4680,41.5335 8.3025,43.2180 12.0090,43.1625 C12.0090,43.1625 12.0270,43.1625 12.0345,43.1625 C12.1290,43.1625 12.2010,43.1108 12.2010,43.0493 C12.2017,43.0305 12.1957,43.0118 12.1837,42.9960 Z" style="fill-rule: evenodd; fill: #000000; "/>
    <path xmlns="http://www.w3.org/2000/svg" d="  M12.0652,39.0435 C12.0555,39.0428 12.0480,39.0420 12.0375,39.0405 C12.0225,39.0398 11.9632,39.0360 11.9438,39.0330 C10.4265,38.8808 8.8882,38.4765 7.4430,37.9035 C4.3223,36.6675 1.6312,34.6500 0.4770,32.6993 C0.4770,32.6993 0.2475,32.6693 0.4403,32.9880 C0.7050,33.4388 0.9960,33.8610 1.3043,34.2585 C4.1018,37.8577 8.5485,39.3248 12.0098,39.2722 C12.0098,39.2722 12.0278,39.2722 12.0353,39.2722 C12.1298,39.2722 12.2018,39.2213 12.2018,39.1598 C12.2018,39.1035 12.1462,39.0532 12.0652,39.0435 Z" style="fill-rule: evenodd; fill: #000000; "/>
    <path xmlns="http://www.w3.org/2000/svg" d="  M12.0428,31.2645 C12.0345,31.2645 11.9648,31.2600 11.9438,31.2577 C9.4433,31.0065 6.8955,30.0720 4.7888,28.8307 C2.8515,27.6907 1.2855,26.2905 0.4770,24.9232 C0.4770,24.9232 0.2475,24.8925 0.4403,25.2120 C0.5730,25.4370 0.7125,25.6530 0.8573,25.8652 C3.6083,29.9145 8.3580,31.5517 12.0105,31.4970 C12.0105,31.4970 12.0285,31.4963 12.0360,31.4963 C12.1305,31.4963 12.2025,31.4453 12.2025,31.3845 C12.2018,31.3207 12.1373,31.2645 12.0428,31.2645 Z" style="fill-rule: evenodd; fill: #000000; "/>
    <path xmlns="http://www.w3.org/2000/svg" d="  M12.0427,35.1525 C12.0345,35.1525 11.9648,35.1472 11.9437,35.1457 C7.1422,34.6620 2.1660,31.6650 0.4770,28.8105 C0.4770,28.8105 0.2475,28.7805 0.4403,29.1000 C3.1072,33.6277 8.1652,35.4412 12.0105,35.3842 C12.0105,35.3842 12.0285,35.3835 12.0360,35.3835 C12.1305,35.3835 12.2025,35.3317 12.2025,35.2703 C12.2017,35.2095 12.1372,35.1525 12.0427,35.1525 Z" style="fill-rule: evenodd; fill: #000000; "/>
    <defs xmlns="http://www.w3.org/2000/svg">
      <linearGradient id="grad1025">
        <stop offset="0%" stop-color="#646c6b" stop-opacity="1.0000"/>
        <stop offset="100%" stop-color="#dae1e1" stop-opacity="1.0000"/>
      </linearGradient>
    </defs>
    <path xmlns="http://www.w3.org/2000/svg" d="  M10.2158,55.5938 C9.1193,55.2473 8.0685,55.4820 7.8683,56.1172 C7.6658,56.7540 8.3903,57.5505 9.4845,57.8978 C10.5795,58.2443 11.6303,58.0103 11.8320,57.3735 C12.0338,56.7375 11.3100,55.9403 10.2158,55.5938 Z M11.0415,57.7215 C10.6350,58.1040 9.9323,58.0178 9.4718,57.5273 C9.3233,57.3698 9.2190,57.1890 9.1583,57.0045 C9.1185,56.8837 9.0975,56.7623 9.0968,56.6430 C9.0930,56.3775 9.1845,56.1277 9.3735,55.9492 C9.7815,55.5667 10.4843,55.6530 10.9448,56.1427 C11.4053,56.6317 11.4480,57.3398 11.0415,57.7215 Z" style="fill-rule: evenodd; fill: url(#grad1025); "/>
    <path xmlns="http://www.w3.org/2000/svg" d="  M9.3735,55.9493 C9.1845,56.1278 9.0930,56.3768 9.0968,56.6430 C9.1050,56.4548 9.1755,56.2792 9.3105,56.1503 C9.4208,56.0460 9.5595,55.9890 9.7058,55.9725 C9.9990,55.8983 10.3470,56.0010 10.5960,56.2650 C10.9350,56.6242 10.9620,57.1485 10.6658,57.4508 C10.6455,57.4748 10.6238,57.4988 10.6005,57.5220 C10.2863,57.8175 9.7425,57.7508 9.3878,57.3720 C9.2813,57.2618 9.2063,57.1350 9.1583,57.0060 C9.2190,57.1905 9.3233,57.3713 9.4718,57.5288 C9.9315,58.0185 10.6350,58.1055 11.0415,57.7230 C11.4480,57.3405 11.4053,56.6333 10.9448,56.1443 C10.4843,55.6537 9.7815,55.5668 9.3735,55.9493 Z" style="fill-rule: evenodd; fill: #000000; "/>
    <defs xmlns="http://www.w3.org/2000/svg">
      <radialGradient id="grad1026" cx="50.0000%" cy="50.0000%" r="100.0000%">
        <stop offset="0%" stop-color="#ccff66" stop-opacity="1.0000"/>
        <stop offset="100%" stop-color="#7ab04a" stop-opacity="1.0000"/>
      </radialGradient>
    </defs>
    <path xmlns="http://www.w3.org/2000/svg" d="  M10.6005,57.5213 C10.6238,57.4988 10.6455,57.4740 10.6658,57.4500 C10.9628,57.1477 10.9350,56.6227 10.5960,56.2642 C10.3478,56.0002 9.9990,55.8982 9.7058,55.9717 C9.5595,55.9882 9.4208,56.0460 9.3105,56.1495 C9.1755,56.2785 9.1050,56.4540 9.0968,56.6422 C9.0975,56.7615 9.1185,56.8830 9.1583,57.0038 C9.2055,57.1328 9.2813,57.2595 9.3878,57.3698 C9.7425,57.7500 10.2863,57.8160 10.6005,57.5213 Z" style="fill-rule: evenodd; fill: url(#grad1026); "/>
    <defs xmlns="http://www.w3.org/2000/svg" xmlns:xlink="http://www.w3.org/1999/xlink">
      <linearGradient id="grad1027">
        <stop offset="0%" stop-color="#7f8787" stop-opacity="1.0000"/>
        <stop offset="100%" stop-color="#f3f9f7" stop-opacity="1.0000"/>
      </linearGradient>
      <linearGradient xlink:href="#grad1027" id="grad1028" x1="0" y1="0" x2="0" y2="1" gradientTransform="rotate(315 .5 .5)" gradientUnits="objectBoundingBox">
  </linearGradient>
    </defs>
    <path xmlns="http://www.w3.org/2000/svg" d="  M0.6608,18.1125 C0.8828,21.9278 6.5528,27.0953 12.3510,23.8912 L0.6608,18.1125 Z M2.9010,19.3672 L10.3747,23.0295 C6.5948,24.9045 2.9985,21.6900 2.9010,19.3672 Z" style="fill-rule: evenodd; fill: url(#grad1028); "/>
    <defs xmlns="http://www.w3.org/2000/svg">
      <radialGradient id="grad1029" cx="50.0000%" cy="50.0000%" r="100.0000%">
        <stop offset="0%" stop-color="#a7e968" stop-opacity="1.0000"/>
        <stop offset="100%" stop-color="#000000" stop-opacity="1.0000"/>
      </radialGradient>
    </defs>
    <path xmlns="http://www.w3.org/2000/svg" d="  M2.9010,19.3673 C2.9985,21.6900 6.5947,24.9045 10.3747,23.0295 L2.9010,19.3673 Z" style="fill-rule: evenodd; fill: url(#grad1029); "/>
    <defs xmlns="http://www.w3.org/2000/svg" xmlns:xlink="http://www.w3.org/1999/xlink">
      <linearGradient id="grad1030">
        <stop offset="0%" stop-color="#7f8787" stop-opacity="1.0000"/>
        <stop offset="100%" stop-color="#dae1e1" stop-opacity="1.0000"/>
      </linearGradient>
      <linearGradient xlink:href="#grad1030" id="grad1031" x1="0" y1="0" x2="0" y2="1" gradientTransform="rotate(45 .5 .5)" gradientUnits="objectBoundingBox">
  </linearGradient>
    </defs>
    <path xmlns="http://www.w3.org/2000/svg" d="  M13.7685,21.8963 L13.7468,21.8858 L13.7468,61.2465 L38.6888,47.1667 L38.6888,44.3468 L23.5132,53.0655 L23.5132,52.4490 L38.1450,44.0535 L38.6888,43.7430 L38.6888,41.4488 L23.5132,50.1675 L23.5132,49.5510 L38.1450,41.1563 L38.6888,40.8442 L38.6888,38.5500 L23.5132,47.2695 L23.5132,46.6522 L38.1833,38.2763 L38.6888,37.9875 L38.6888,7.3463 L35.3423,9.2685 L13.7685,21.8963 Z" style="fill-rule: evenodd; fill: url(#grad1031); "/>
    <defs xmlns="http://www.w3.org/2000/svg" xmlns:xlink="http://www.w3.org/1999/xlink">
      <linearGradient id="grad1032">
        <stop offset="0%" stop-color="#7f8787" stop-opacity="1.0000"/>
        <stop offset="100%" stop-color="#f3f9f7" stop-opacity="1.0000"/>
      </linearGradient>
      <linearGradient xlink:href="#grad1032" id="grad1033" x1="0" y1="0" x2="0" y2="1" gradientTransform="rotate(90 .5 .5)" gradientUnits="objectBoundingBox">
  </linearGradient>
    </defs>
    <path xmlns="http://www.w3.org/2000/svg" d="  M26.5275,0.0000 L0.1283,15.2392 L13.7468,21.8858 L38.6888,7.3102 L26.5275,0.0000 Z" style="fill-rule: evenodd; fill: url(#grad1033); "/>
    <defs xmlns="http://www.w3.org/2000/svg" xmlns:xlink="http://www.w3.org/1999/xlink">
      <linearGradient id="grad1034">
        <stop offset="0%" stop-color="#f6c150" stop-opacity="1.0000"/>
        <stop offset="100%" stop-color="#dc7626" stop-opacity="1.0000"/>
      </linearGradient>
      <linearGradient xlink:href="#grad1034" id="grad1035" x1="0" y1="0" x2="0" y2="1" gradientTransform="rotate(135 .5 .5)" gradientUnits="objectBoundingBox">
  </linearGradient>
    </defs>
    <path xmlns="http://www.w3.org/2000/svg" d="  M25.7903,28.3793 L36.5985,34.4933 C36.5985,34.4933 36.4253,33.5400 35.9498,32.2095 L27.5288,27.4328 C27.5288,27.4328 27.4860,27.3443 27.4770,27.2940 C27.1995,25.8075 27.3045,24.5423 27.8093,23.7315 C27.3945,23.7308 27.0173,23.8230 26.6933,24.0225 C25.6560,24.6623 25.3605,26.2568 25.7378,28.2398 C25.7468,28.2915 25.7903,28.3793 25.7903,28.3793 Z" style="fill-rule: evenodd; fill: url(#grad1035); "/>
    <defs xmlns="http://www.w3.org/2000/svg" xmlns:xlink="http://www.w3.org/1999/xlink">
      <linearGradient id="grad1036">
        <stop offset="0%" stop-color="#de8d3c" stop-opacity="1.0000"/>
        <stop offset="100%" stop-color="#f8db5f" stop-opacity="1.0000"/>
      </linearGradient>
      <linearGradient xlink:href="#grad1036" id="grad1037" x1="0" y1="0" x2="0" y2="1" gradientTransform="rotate(135 .5 .5)" gradientUnits="objectBoundingBox">
  </linearGradient>
    </defs>
    <path xmlns="http://www.w3.org/2000/svg" d="  M36.4628,27.9090 C39.6473,33.0743 39.8783,38.7098 36.9795,40.4978 C36.8903,40.5510 36.8025,40.6005 36.7125,40.6448 C37.1925,40.3958 38.3153,39.6803 38.6160,39.4943 C41.5050,37.6995 41.2920,32.0745 38.1443,26.9295 C34.9943,21.7845 30.6765,19.2458 27.2093,20.8605 C26.7293,21.0833 25.9185,21.4980 25.5765,21.7103 C25.5443,21.7298 25.5143,21.7530 25.4820,21.7740 C28.3883,20.0310 33.2918,22.7655 36.4628,27.9090 Z" style="fill-rule: evenodd; fill: url(#grad1037); "/>
    <path xmlns="http://www.w3.org/2000/svg" d="  M36.5535,40.7205 C36.5843,40.7085 36.6300,40.6882 36.6795,40.6627 C36.6278,40.6875 36.5753,40.7092 36.5235,40.7317 L36.5535,40.7205 Z" style="fill-rule: evenodd; fill: #cd4f9d; "/>
    <defs xmlns="http://www.w3.org/2000/svg">
      <linearGradient id="grad1038">
        <stop offset="0%" stop-color="#da802d" stop-opacity="1.0000"/>
        <stop offset="100%" stop-color="#ffde62" stop-opacity="1.0000"/>
      </linearGradient>
    </defs>
    <path xmlns="http://www.w3.org/2000/svg" d="  M34.4303,41.0168 L34.4738,41.8343 C34.4873,42.0990 34.1513,42.4680 33.7485,42.2940 L33.3038,42.0390 L33.4103,50.1623 L32.6400,50.6828 L33.5513,52.0823 L33.5858,53.8200 L32.4015,54.4350 L33.6323,56.4330 L33.6900,58.7355 C33.7065,58.8105 32.6460,59.7188 32.6460,59.7188 L32.4015,59.4420 L32.2148,59.5635 L32.2703,60.0428 L31.7933,60.4065 L33.4800,59.2980 L33.8483,59.0183 L33.8393,58.9028 L34.2188,58.6995 C34.2188,58.6995 35.2703,57.7987 35.2695,57.7148 L35.2133,55.4168 L34.0103,53.5433 L35.1720,52.8090 L35.1450,51.0480 L34.3763,49.6958 L35.1060,49.1475 L34.9695,41.7435 L35.7975,41.2980 C35.7998,41.2980 35.8020,41.2980 35.8043,41.2965 C35.9933,41.2117 36.1020,41.0588 36.1095,40.8818 C35.5868,41.0355 35.0213,41.0783 34.4303,41.0168 Z" style="fill-rule: evenodd; fill: url(#grad1038); "/>
    <path xmlns="http://www.w3.org/2000/svg" d="  M36.1080,40.8832 C36.2498,40.8420 36.3893,40.7895 36.5235,40.7310 L36.1088,40.8802 C36.1080,40.8817 36.1080,40.8817 36.1080,40.8832 Z" style="fill-rule: evenodd; fill: #69bd45; "/>
    <path xmlns="http://www.w3.org/2000/svg" d="  M36.7125,40.6455 C36.6998,40.6523 36.6908,40.6568 36.6795,40.6620 C36.6908,40.6575 36.7013,40.6515 36.7125,40.6455 Z" style="fill-rule: evenodd; fill: #69bd45; "/>
    <defs xmlns="http://www.w3.org/2000/svg" xmlns:xlink="http://www.w3.org/1999/xlink">
      <linearGradient id="grad1039">
        <stop offset="0%" stop-color="#f8d16c" stop-opacity="1.0000"/>
        <stop offset="100%" stop-color="#fae9cf" stop-opacity="1.0000"/>
      </linearGradient>
      <linearGradient xlink:href="#grad1039" id="grad1040" x1="0" y1="0" x2="0" y2="1" gradientTransform="rotate(-0 .5 .5)" gradientUnits="objectBoundingBox">
  </linearGradient>
    </defs>
    <path xmlns="http://www.w3.org/2000/svg" d="  M34.3845,42.1755 L35.8568,41.2972 C35.8583,41.2965 35.8605,41.2957 35.8620,41.2950 C36.0518,41.2102 36.1605,41.0565 36.1673,40.8802 C35.6453,41.0340 35.0820,41.0752 34.4963,41.0197 C34.4963,41.0197 34.4865,41.4420 34.4805,41.6790 C34.4730,41.9160 34.3845,42.1755 34.3845,42.1755 Z" style="fill-rule: evenodd; fill: url(#grad1040); "/>
    <defs xmlns="http://www.w3.org/2000/svg" xmlns:xlink="http://www.w3.org/1999/xlink">
      <linearGradient id="grad1041">
        <stop offset="0%" stop-color="#da802d" stop-opacity="1.0000"/>
        <stop offset="100%" stop-color="#ffde62" stop-opacity="1.0000"/>
      </linearGradient>
      <linearGradient xlink:href="#grad1041" id="grad1042" x1="0" y1="0" x2="0" y2="1" gradientTransform="rotate(90 .5 .5)" gradientUnits="objectBoundingBox">
  </linearGradient>
    </defs>
    <path xmlns="http://www.w3.org/2000/svg" d="  M32.2740,60.0375 L32.2163,59.5597 L32.4083,59.4457 L32.6460,59.7173 C32.6460,59.7173 33.6990,58.8195 33.6990,58.7348 L33.6338,56.4315 L32.4008,54.4328 L33.5843,53.8200 L33.5520,52.0860 L32.6378,50.6835 L33.5048,50.1510 L33.3300,42.0315 L33.7755,42.2865 C34.1775,42.4605 34.5135,42.0915 34.5015,41.8275 L34.4580,41.0100 C35.3970,41.1075 36.2670,40.9462 37.0050,40.4910 C39.9045,38.7038 39.6743,33.0683 36.4898,27.9030 C33.3053,22.7378 28.3740,20.0003 25.4738,21.7875 C22.5743,23.5755 22.8045,29.2110 25.9883,34.3770 C26.7923,35.6783 27.7058,36.8258 28.6695,37.7858 L28.6800,39.3660 L28.6815,39.3675 L29.0408,56.0273 L29.1240,56.2252 L29.8890,57.7545 L30.6728,58.4505 C30.6728,58.4505 30.8378,58.6305 30.8828,58.7310 C30.9863,58.9530 30.9232,59.1923 30.9232,59.1923 L31.7543,60.3773 L32.2740,60.0375 Z M26.9573,33.8063 C24.1643,29.2763 23.8065,24.4305 26.1578,22.9800 C28.5083,21.5310 32.6775,24.0278 35.4713,28.5570 C38.2643,33.0877 38.6213,37.9343 36.2708,39.3840 C33.9195,40.8330 29.7495,38.3363 26.9573,33.8063 Z" style="fill-rule: evenodd; fill: url(#grad1042); "/>
    <defs xmlns="http://www.w3.org/2000/svg">
      <linearGradient id="grad1043">
        <stop offset="0%" stop-color="#bd6b23" stop-opacity="1.0000"/>
        <stop offset="100%" stop-color="#fcad35" stop-opacity="1.0000"/>
      </linearGradient>
    </defs>
    <path xmlns="http://www.w3.org/2000/svg" d="  M28.9230,39.6413 L29.1083,55.5345 L29.1263,56.2290 L29.9040,57.7230 L30.5865,58.3530 C30.5865,58.3530 30.7598,58.5135 30.8048,58.6148 C30.9090,58.8368 30.9165,59.1210 30.9165,59.1210 L31.7925,60.4103 L32.1083,60.1995 L32.2778,59.5215 L32.3978,59.4458 L32.6445,59.7203 C32.6445,59.7203 33.6915,58.8338 33.6908,58.7490 L33.6308,56.4345 L32.4000,54.4365 L33.5828,53.8208 L33.5505,52.0860 L32.6378,50.6843 L33.4493,50.1885 L33.3908,42.2273 L28.9230,39.6413 Z" style="fill-rule: evenodd; fill: url(#grad1043); "/>
    <defs xmlns="http://www.w3.org/2000/svg">
      <linearGradient id="grad1044">
        <stop offset="0%" stop-color="#f8d16c" stop-opacity="1.0000"/>
        <stop offset="100%" stop-color="#fae9cf" stop-opacity="1.0000"/>
      </linearGradient>
    </defs>
    <path xmlns="http://www.w3.org/2000/svg" d="  M35.1458,49.1625 L33.4515,50.1772 L33.3308,42.0322 C33.3308,42.0322 34.0478,42.4665 34.2773,42.2797 C34.5060,42.0937 35.0115,41.7600 35.0115,41.7600 L35.1458,49.1625 Z" style="fill-rule: evenodd; fill: url(#grad1044); "/>
    <defs xmlns="http://www.w3.org/2000/svg" xmlns:xlink="http://www.w3.org/1999/xlink">
      <linearGradient id="grad1045">
        <stop offset="0%" stop-color="#f8d16c" stop-opacity="1.0000"/>
        <stop offset="100%" stop-color="#dd7927" stop-opacity="1.0000"/>
      </linearGradient>
      <linearGradient xlink:href="#grad1045" id="grad1046" x1="0" y1="0" x2="0" y2="1" gradientTransform="rotate(180 .5 .5)" gradientUnits="objectBoundingBox">
  </linearGradient>
    </defs>
    <path xmlns="http://www.w3.org/2000/svg" d="  M25.9425,28.0987 C25.5503,26.1427 25.7700,24.7200 26.8073,24.0795 C27.1305,23.8807 27.3525,23.8597 27.7665,23.8605 C27.2618,24.6720 27.2160,25.9507 27.5070,27.4095 L25.9425,28.0987 Z" style="fill-rule: evenodd; fill: url(#grad1046); "/>
    <defs xmlns="http://www.w3.org/2000/svg" xmlns:xlink="http://www.w3.org/1999/xlink">
      <linearGradient id="grad1047">
        <stop offset="0%" stop-color="#f8d16c" stop-opacity="1.0000"/>
        <stop offset="100%" stop-color="#fae9cf" stop-opacity="1.0000"/>
      </linearGradient>
      <linearGradient xlink:href="#grad1047" id="grad1048" x1="0" y1="0" x2="0" y2="1" gradientTransform="rotate(315 .5 .5)" gradientUnits="objectBoundingBox">
  </linearGradient>
    </defs>
    <path xmlns="http://www.w3.org/2000/svg" d="  M35.1390,51.0750 L33.5505,52.0830 L33.5843,53.8177 L35.1683,52.8097 L35.1390,51.0750 Z" style="fill-rule: evenodd; fill: url(#grad1048); "/>
    <defs xmlns="http://www.w3.org/2000/svg">
      <linearGradient id="grad1049">
        <stop offset="0%" stop-color="#f8d16c" stop-opacity="1.0000"/>
        <stop offset="100%" stop-color="#fae9cf" stop-opacity="1.0000"/>
      </linearGradient>
    </defs>
    <path xmlns="http://www.w3.org/2000/svg" d="  M33.6315,56.4345 L35.2140,55.4280 L35.3138,57.7312 L33.6893,58.7543 L33.6315,56.4345 Z" style="fill-rule: evenodd; fill: url(#grad1049); "/>
    <defs xmlns="http://www.w3.org/2000/svg" xmlns:xlink="http://www.w3.org/1999/xlink">
      <linearGradient id="grad1050">
        <stop offset="0%" stop-color="#da802d" stop-opacity="1.0000"/>
        <stop offset="100%" stop-color="#ffefb4" stop-opacity="1.0000"/>
      </linearGradient>
      <linearGradient xlink:href="#grad1050" id="grad1051" x1="0" y1="0" x2="0" y2="1" gradientTransform="rotate(315 .5 .5)" gradientUnits="objectBoundingBox">
  </linearGradient>
    </defs>
    <path xmlns="http://www.w3.org/2000/svg" d="  M34.4033,40.7558 C35.2568,40.9275 36.1770,40.7063 36.8978,40.2698 C39.7275,38.5500 39.4635,33.0698 36.3075,28.0260 C33.1493,22.9830 28.2960,20.2875 25.4655,22.0065 C22.6350,23.7248 22.8983,29.2065 26.0558,34.2488 C26.8515,35.5193 26.6625,35.4173 28.7063,37.5803 C30.4118,39.4928 33.0458,40.6860 34.4033,40.7558 Z M27.0000,33.7005 C24.2318,29.2778 23.8485,24.5640 26.1428,23.1698 C28.4378,21.7770 32.5440,24.2325 35.3115,28.6545 C38.0790,33.0773 38.4630,37.7933 36.1688,39.1868 C33.8738,40.5795 29.7675,38.1240 27.0000,33.7005 Z" style="fill-rule: evenodd; fill: url(#grad1051); "/>
    <path xmlns="http://www.w3.org/2000/svg" d="  M36.3945,34.1730 C36.2085,33.3712 35.6408,31.2855 34.4145,29.2410 C32.7788,26.5102 30.4838,24.4440 28.5668,23.9775 C27.8633,23.8058 27.2708,23.8650 26.8043,24.1523 C26.5470,24.3097 26.3340,24.5377 26.1690,24.8280 C25.7393,25.5885 25.6508,26.7870 25.9200,28.2030 C25.9230,28.2135 25.9305,28.2353 25.9395,28.2585 L36.3945,34.1730 Z M25.0403,23.9400 C25.3050,23.4727 25.6515,23.1045 26.0738,22.8442 C28.4970,21.3518 32.7735,23.8763 35.6078,28.4723 C37.8818,32.1630 38.6145,36.2542 37.3883,38.4240 C37.1235,38.8905 36.7755,39.2588 36.3548,39.5197 C35.8755,39.8160 35.3168,39.9608 34.6913,39.9533 L34.6305,41.8020 C34.6343,41.8545 34.6395,42.0525 34.5428,42.2265 C34.4963,42.3053 34.4355,42.3690 34.3605,42.4155 C34.0193,42.6263 33.4875,42.3315 33.4283,42.2970 L31.9335,41.4487 L32.1420,59.6970 C32.1480,60.0847 32.1270,60.1192 32.1083,60.1545 C32.0798,60.2040 32.0258,60.2377 31.9680,60.2385 C31.8998,60.2393 31.8158,60.2198 31.6538,59.9610 C31.4918,59.7428 31.0943,59.1878 31.0725,58.9613 C31.0470,58.7115 30.6203,42.1808 30.5813,40.6395 L30.0495,40.3403 L30.2423,56.8950 C30.2423,56.9025 30.2415,56.9100 30.2408,56.9168 C30.2393,56.9325 30.2378,57.0090 30.2415,57.3308 C30.2423,57.3750 30.2348,57.4118 30.2160,57.4440 C30.1875,57.4950 30.1215,57.5325 30.0638,57.5318 C29.9835,57.5303 29.9010,57.5288 29.6070,56.9580 L29.1810,56.1382 C29.1698,56.1165 29.1645,56.0925 29.1630,56.0678 L28.7475,36.4710 C28.0448,35.6910 27.3990,34.8218 26.8230,33.8887 C24.5468,30.2003 23.8140,26.1097 25.0403,23.9400 Z" style="fill-rule: evenodd; fill: #f9ecb9; "/>
    <defs xmlns="http://www.w3.org/2000/svg" xmlns:xlink="http://www.w3.org/1999/xlink">
      <linearGradient id="grad1052">
        <stop offset="0%" stop-color="#eb9131" stop-opacity="1.0000"/>
        <stop offset="100%" stop-color="#fdd561" stop-opacity="1.0000"/>
      </linearGradient>
      <linearGradient xlink:href="#grad1052" id="grad1053" x1="0" y1="0" x2="0" y2="1" gradientTransform="rotate(90 .5 .5)" gradientUnits="objectBoundingBox">
  </linearGradient>
    </defs>
    <path xmlns="http://www.w3.org/2000/svg" d="  M31.9650,60.0787 C31.9875,60.0787 31.9822,59.6992 31.9822,59.6992 L31.7708,41.1735 L33.5070,42.1590 C33.5070,42.1590 34.0057,42.4462 34.2765,42.2790 C34.5023,42.1395 34.4693,41.8058 34.4693,41.8058 L34.5367,39.7890 C35.1773,39.8227 35.7653,39.6937 36.2707,39.3833 C38.6212,37.9335 38.2635,33.0870 35.4713,28.5562 C32.6775,24.0277 28.5083,21.5302 26.1578,22.9792 C23.8065,24.4290 24.1650,29.2755 26.9573,33.8055 C27.5535,34.7730 28.2120,35.6460 28.9050,36.4102 L29.3212,56.0662 L29.7480,56.8852 C29.7480,56.8852 30.0840,57.5385 30.0810,57.3322 C30.0758,56.8972 30.0825,56.8972 30.0825,56.8972 L29.8868,40.0657 L30.7372,40.5465 C30.7372,40.5465 31.2045,58.6935 31.2293,58.9462 C31.2503,59.1532 31.7902,59.8777 31.7902,59.8777 C31.7902,59.8777 31.9155,60.0802 31.9650,60.0787 Z M25.8180,28.3732 C25.8180,28.3732 25.7745,28.2847 25.7648,28.2338 C25.3882,26.2500 25.6845,24.6555 26.7210,24.0157 C28.5652,22.8787 32.0145,25.2435 34.4235,29.2620 C36.0112,31.9102 36.3195,34.2922 36.3195,34.2922 L25.8180,28.3732 Z" style="fill-rule: evenodd; fill: url(#grad1053); "/>
    <path xmlns="http://www.w3.org/2000/svg" d="  M25.9650,24.6517 C26.1428,24.3383 26.3738,24.0908 26.6543,23.9182 C27.1583,23.6077 27.7927,23.5418 28.5390,23.7240 C30.4943,24.2002 32.8298,26.2957 34.4865,29.0602 C35.7225,31.1227 36.2955,33.2280 36.4853,34.0372 L36.5670,34.3927 L25.7498,28.2727 L25.7280,28.2232 C25.7078,28.1730 25.7018,28.1505 25.6980,28.1347 C25.4220,26.6820 25.5173,25.4453 25.9650,24.6517 Z M36.0848,33.7530 C35.8350,32.7975 35.2725,30.9945 34.2128,29.2252 C32.5958,26.5297 30.3405,24.4920 28.4633,24.0345 C27.8033,23.8740 27.2505,23.9265 26.8223,24.1905 C26.5883,24.3345 26.3933,24.5423 26.2433,24.8092 C25.8345,25.5323 25.7505,26.6843 26.0078,28.0522 L36.0848,33.7530 Z" style="fill-rule: evenodd; fill: #ba6426; "/>
    <defs xmlns="http://www.w3.org/2000/svg" xmlns:xlink="http://www.w3.org/1999/xlink">
      <linearGradient id="grad1054">
        <stop offset="0%" stop-color="#da802d" stop-opacity="1.0000"/>
        <stop offset="100%" stop-color="#ffefb4" stop-opacity="1.0000"/>
      </linearGradient>
      <linearGradient xlink:href="#grad1054" id="grad1055" x1="0" y1="0" x2="0" y2="1" gradientTransform="rotate(45 .5 .5)" gradientUnits="objectBoundingBox">
  </linearGradient>
    </defs>
    <path xmlns="http://www.w3.org/2000/svg" d="  M25.8525,28.3920 L31.1580,31.3785 L36.2543,39.3765 C38.6573,37.9545 38.2988,33.1065 35.5065,28.5773 C32.7150,24.0480 28.5443,21.5505 26.1923,22.9995 C25.1445,23.6460 24.6458,24.9660 24.6390,26.6333 C24.6383,26.8875 25.8120,28.3860 25.8120,28.3860 Z M25.9028,28.4055 C25.9028,28.4055 25.8098,28.3035 25.7985,28.2532 C25.4220,26.2695 25.7190,24.6750 26.7555,24.0345 C28.5990,22.8983 32.0483,25.2623 34.4580,29.2815 C36.0443,31.9290 36.3533,34.3118 36.3533,34.3118 L25.9028,28.4055 Z" style="fill-rule: evenodd; fill: url(#grad1055); "/>
    <defs xmlns="http://www.w3.org/2000/svg" xmlns:xlink="http://www.w3.org/1999/xlink">
      <linearGradient id="grad1056">
        <stop offset="0%" stop-color="#f8d16c" stop-opacity="1.0000"/>
        <stop offset="100%" stop-color="#ffffff" stop-opacity="1.0000"/>
      </linearGradient>
      <linearGradient xlink:href="#grad1056" id="grad1057" x1="0" y1="0" x2="0" y2="1" gradientTransform="rotate(90 .5 .5)" gradientUnits="objectBoundingBox">
  </linearGradient>
    </defs>
    <path xmlns="http://www.w3.org/2000/svg" d="  M36.4883,34.1738 L35.0745,35.1488 L27.1185,30.5963 L25.7115,28.0973 L36.4883,34.1738 Z" style="fill-rule: evenodd; fill: url(#grad1057); "/>
    <path xmlns="http://www.w3.org/2000/svg" d="  M33.3008,42.2318 L33.3015,42.4493 L32.1578,41.8080 L32.2770,59.5620 L32.1473,60.0772 L31.9388,41.4622 L33.3008,42.2318 Z" style="fill-rule: evenodd; fill: #99501f; "/>
    <path xmlns="http://www.w3.org/2000/svg" d="  M30.0075,40.1812 L30.1628,40.2832 L30.1643,40.2817 L30.5820,40.5577 L30.4935,40.6912 L30.1703,40.4790 L30.3375,56.8972 L30.2415,57.3555 L30.0075,40.1812 Z" style="fill-rule: evenodd; fill: #99501f; "/>
    <defs xmlns="http://www.w3.org/2000/svg" xmlns:xlink="http://www.w3.org/1999/xlink">
      <linearGradient id="grad1058">
        <stop offset="0%" stop-color="#eb9131" stop-opacity="1.0000"/>
        <stop offset="100%" stop-color="#fdd561" stop-opacity="1.0000"/>
      </linearGradient>
      <linearGradient xlink:href="#grad1058" id="grad1059" x1="0" y1="0" x2="0" y2="1" gradientTransform="rotate(225 .5 .5)" gradientUnits="objectBoundingBox">
  </linearGradient>
    </defs>
    <path xmlns="http://www.w3.org/2000/svg" d="  M35.3138,57.7313 L33.6893,58.7543 L32.6453,59.7202 L34.2188,58.7003 L35.3138,57.7313 Z" style="fill-rule: evenodd; fill: url(#grad1059); "/>
    <!--converted by libvisio2svg-->
  </g>
</svg>
