<svg xmlns="http://www.w3.org/2000/svg" xmlns:xlink="http://www.w3.org/1999/xlink" version="1.1" width="0.6350000000" height="0.8364000000" viewBox="0 0 45.7170 60.2220">
  <title><![CDATA[Director Array]]></title>
  <g transform=" scale(1.000000) ">
    <path xmlns="http://www.w3.org/2000/svg" d="  M42.8078,31.2397 C40.0800,26.7848 36.3435,24.5880 33.3420,25.9853 C32.9273,26.1787 32.2260,26.5372 31.9282,26.7210 C31.9020,26.7382 31.8758,26.7585 31.8480,26.7765 C32.0707,26.6430 32.3062,26.5418 32.5522,26.4675 C32.3033,26.5440 32.0647,26.6498 31.8405,26.7877 C29.3295,28.3357 29.5305,33.2145 32.2875,37.6853 C32.9820,38.8118 33.7725,39.8048 34.6080,40.6357 L34.6155,42.0053 L34.6185,42.0053 L34.9290,56.4277 L35.6640,57.9217 C35.6640,57.9217 36.4522,58.6598 36.4552,58.6658 C36.5460,58.8592 36.5520,59.1037 36.5520,59.1037 L36.5670,59.1240 C36.5625,59.1487 37.5540,60.0765 37.5540,60.0765 L38.7712,59.2590 L39.0847,58.9515 L40.3575,57.9030 L40.2713,55.9095 L40.2713,55.8990 L39.2310,54.2790 L40.2360,53.6415 L40.2112,52.1183 L39.5460,50.9475 L40.2127,50.4847 L40.0987,44.1112 L40.8285,43.6762 C40.8300,43.6762 40.8315,43.6748 40.8330,43.6748 C40.9987,43.5998 41.0925,43.4670 41.0985,43.3155 C41.0812,43.3200 41.0633,43.3230 41.0445,43.3275 C41.0460,43.3245 41.0475,43.3215 41.0475,43.3185 C41.3213,43.2405 41.5808,43.1280 41.8253,42.9787 C41.8410,42.9682 41.8545,42.9540 41.8710,42.9435 C42.3413,42.6697 43.0095,42.2445 43.2188,42.1155 C45.7170,40.5637 45.5332,35.6925 42.8078,31.2397 Z M38.8320,53.0130 L38.8320,53.0115 M32.6122,26.4488 C32.6078,26.4503 32.6018,26.4517 32.5965,26.4533 C32.6018,26.4517 32.6078,26.4503 32.6122,26.4488 Z M40.5720,43.4153 C40.6305,43.4077 40.6875,43.3995 40.7460,43.3875 C40.6875,43.3995 40.6305,43.4070 40.5720,43.4153 Z" style="stroke-width: 1.5000; stroke: #8d98b5; stroke-dasharray: none; stroke-linecap: butt; stroke-linejoin: miter; fill: none; "/>
    <path xmlns="http://www.w3.org/2000/svg" d="  M41.5958,13.8300 L32.4885,8.3557 L12.6225,19.7753 L12.6225,48.3720 L13.0620,48.6300 C14.2433,50.1405 16.6905,51.5790 19.3905,52.3462 L22.9088,54.4117 L41.5958,43.6800 L41.5958,41.5665 L41.5942,41.5403 L41.1885,41.3482 L41.5958,41.1135 L41.5958,39.3953 L41.5942,39.3690 L41.1885,39.1770 L41.5958,38.9422 L41.5958,37.2255 L41.5942,37.1992 L41.2177,37.0207 L41.5958,36.8040 L41.5958,13.8563 L41.5958,13.8300 Z" style="stroke-width: 1.5000; stroke: #8d98b5; stroke-dasharray: none; stroke-linecap: butt; stroke-linejoin: miter; fill: none; "/>
    <path xmlns="http://www.w3.org/2000/svg" d="  M28.9733,5.4742 L19.8668,0.0000 L0.0000,11.4203 L0.0000,40.0170 L0.4387,40.2750 C1.6200,41.7855 4.0680,43.2240 6.7680,43.9912 L10.2855,46.0568 L28.9725,35.3250 L28.9725,33.2130 L28.9710,33.1852 L28.5653,32.9932 L28.9725,32.7585 L28.9725,31.0402 L28.9710,31.0140 L28.5653,30.8220 L28.9725,30.5873 L28.9725,28.8697 L28.9710,28.8435 L28.5945,28.6650 L28.9725,28.4482 L28.9725,5.5012 L28.9725,5.4742 L28.9733,5.4742 Z" style="stroke-width: 1.5000; stroke: #8d98b5; stroke-dasharray: none; stroke-linecap: butt; stroke-linejoin: miter; fill: none; "/>
    <path xmlns="http://www.w3.org/2000/svg" d="  M17.6085,35.4000 L28.9717,28.8443 L28.5953,28.6650 L17.6085,34.9388 L17.6085,35.4000 Z" style="fill-rule: evenodd; fill: #3f3f3f; "/>
    <path xmlns="http://www.w3.org/2000/svg" d="  M17.6085,37.5705 L28.9717,31.0140 L28.5660,30.8220 L17.6085,37.1093 L17.6085,37.5705 Z" style="fill-rule: evenodd; fill: #3f3f3f; "/>
    <path xmlns="http://www.w3.org/2000/svg" d="  M17.6085,39.7418 L28.9717,33.1853 L28.5660,32.9932 L17.6085,39.2790 L17.6085,39.7418 Z" style="fill-rule: evenodd; fill: #3f3f3f; "/>
    <defs xmlns="http://www.w3.org/2000/svg" xmlns:xlink="http://www.w3.org/1999/xlink">
      <linearGradient id="grad1060">
        <stop offset="0%" stop-color="#646c6b" stop-opacity="1.0000"/>
        <stop offset="100%" stop-color="#dae1e1" stop-opacity="1.0000"/>
      </linearGradient>
      <linearGradient xlink:href="#grad1060" id="grad1061" x1="0" y1="0" x2="0" y2="1" gradientTransform="rotate(90 .5 .5)" gradientUnits="objectBoundingBox">
  </linearGradient>
    </defs>
    <path xmlns="http://www.w3.org/2000/svg" d="  M10.2862,16.4220 L0.0000,11.4202 L0.0000,40.0170 L0.4387,40.2750 C0.3450,40.1535 0.2572,40.0320 0.1785,39.9090 L0.1785,27.4680 L0.1785,24.6923 L0.1785,18.7552 L0.1785,12.7688 L9.4770,17.3655 C9.4770,17.3655 9.5130,17.3692 9.5310,17.3715 L9.5310,23.3985 L9.5310,29.2950 L9.5310,32.2432 L9.5310,44.5110 C8.6070,44.4292 7.6725,44.2470 6.7672,43.9912 L10.2847,46.0567 L10.2847,16.4220 L10.2862,16.4220 Z" style="fill-rule: evenodd; fill: url(#grad1061); "/>
    <defs xmlns="http://www.w3.org/2000/svg" xmlns:xlink="http://www.w3.org/1999/xlink">
      <linearGradient id="grad1062">
        <stop offset="0%" stop-color="#85919c" stop-opacity="0.9882"/>
        <stop offset="100%" stop-color="#dadfe1" stop-opacity="0.9882"/>
      </linearGradient>
      <linearGradient xlink:href="#grad1062" id="grad1063" x1="0" y1="0" x2="0" y2="1" gradientTransform="rotate(90 .5 .5)" gradientUnits="objectBoundingBox">
  </linearGradient>
    </defs>
    <path xmlns="http://www.w3.org/2000/svg" d="  M9.1387,32.2388 C9.1387,32.2860 9.0847,32.3235 9.0135,32.3235 C9.0082,32.3235 8.9947,32.3235 8.9947,32.3235 C6.2197,32.3648 2.5980,31.1033 0.5527,27.9743 C0.4125,27.8048 0.2865,27.6353 0.1792,27.4680 L0.1792,39.9090 C0.2572,40.0320 0.3457,40.1535 0.4395,40.2750 C1.6207,41.7855 4.0687,43.2240 6.7687,43.9913 C7.6740,44.2478 8.6077,44.4293 9.5325,44.5110 L9.5325,32.2433 C9.3967,32.2313 9.2610,32.2170 9.1252,32.2005 C9.1327,32.2125 9.1387,32.2253 9.1387,32.2388 Z M8.8612,42.9675 C8.7112,43.4438 7.9230,43.6193 7.1032,43.3598 C6.2827,43.0988 5.7412,42.5025 5.8920,42.0270 C6.0427,41.5515 6.8295,41.3753 7.6500,41.6348 C8.4690,41.8935 9.0120,42.4913 8.8612,42.9675 Z M9.0135,41.0603 C9.0082,41.0603 8.9947,41.0603 8.9947,41.0603 C6.1162,41.1045 2.3257,39.7448 0.3292,36.3540 C0.1852,36.1155 0.3570,36.1373 0.3570,36.1373 C1.6207,38.2763 5.3482,40.5203 8.9445,40.8818 C8.9610,40.8833 9.0127,40.8878 9.0195,40.8878 C9.0892,40.8878 9.1387,40.9305 9.1387,40.9755 C9.1387,41.0220 9.0847,41.0603 9.0135,41.0603 Z M9.0135,38.1480 C9.0082,38.1480 8.9947,38.1480 8.9947,38.1480 C6.1162,38.1908 2.3257,36.8325 0.3292,33.4418 C0.1852,33.2033 0.3570,33.2250 0.3570,33.2250 C1.6207,35.3640 5.3482,37.6080 8.9445,37.9695 C8.9610,37.9710 9.0127,37.9755 9.0195,37.9755 C9.0892,37.9755 9.1387,38.0183 9.1387,38.0633 C9.1387,38.1083 9.0847,38.1480 9.0135,38.1480 Z M9.0135,35.2358 C9.0082,35.2358 8.9947,35.2358 8.9947,35.2358 C6.1162,35.2785 2.3257,33.9203 0.3292,30.5295 C0.1852,30.2903 0.3570,30.3120 0.3570,30.3120 C1.6207,32.4495 5.3482,34.6950 8.9445,35.0573 C8.9610,35.0588 9.0127,35.0633 9.0195,35.0633 C9.0892,35.0633 9.1387,35.1060 9.1387,35.1510 C9.1387,35.1960 9.0847,35.2358 9.0135,35.2358 Z" style="fill-rule: evenodd; fill: url(#grad1063); "/>
    <defs xmlns="http://www.w3.org/2000/svg" xmlns:xlink="http://www.w3.org/1999/xlink">
      <linearGradient id="grad1064">
        <stop offset="0%" stop-color="#85919c" stop-opacity="0.9882"/>
        <stop offset="100%" stop-color="#dadfe1" stop-opacity="0.9882"/>
      </linearGradient>
      <linearGradient xlink:href="#grad1064" id="grad1065" x1="0" y1="0" x2="0" y2="1" gradientTransform="rotate(90 .5 .5)" gradientUnits="objectBoundingBox">
  </linearGradient>
    </defs>
    <path xmlns="http://www.w3.org/2000/svg" d="  M8.9445,23.4090 C8.9610,23.4105 9.0127,23.4143 9.0195,23.4143 C9.0892,23.4143 9.1387,23.4570 9.1387,23.5027 C9.1387,23.5485 9.0847,23.5867 9.0135,23.5867 C9.0082,23.5867 8.9947,23.5867 8.9947,23.5867 C6.2595,23.6287 2.7007,22.4017 0.6412,19.3687 C0.4650,19.1655 0.3105,18.9607 0.1792,18.7552 L0.1792,24.6923 C0.3855,25.0163 0.6562,25.3402 0.9765,25.6567 C0.7447,25.3590 0.5280,25.0425 0.3292,24.7050 C0.1852,24.4657 0.3570,24.4875 0.3570,24.4875 C1.2210,25.9492 3.2370,27.4598 5.5732,28.3860 C6.6735,28.7895 7.8465,29.0887 9.0150,29.2372 C9.0157,29.2380 9.0180,29.2380 9.0195,29.2380 C9.0247,29.2380 9.0292,29.2387 9.0352,29.2402 C9.1830,29.2582 9.3315,29.2747 9.4785,29.2890 C9.4965,29.2897 9.5145,29.2927 9.5325,29.2942 L9.5325,23.3977 C7.4542,23.2110 5.3280,22.5217 3.5857,21.5910 C5.1630,22.5202 7.0717,23.2200 8.9445,23.4090 Z M9.0135,26.4997 C9.0082,26.4997 8.9947,26.4997 8.9947,26.4997 C6.1162,26.5425 2.3257,25.1842 0.3292,21.7935 C0.1852,21.5550 0.3570,21.5767 0.3570,21.5767 C1.6207,23.7150 5.3482,25.9590 8.9445,26.3205 C8.9610,26.3227 9.0127,26.3257 9.0195,26.3257 C9.0892,26.3257 9.1387,26.3685 9.1387,26.4142 C9.1387,26.4600 9.0847,26.4997 9.0135,26.4997 Z" style="fill-rule: evenodd; fill: url(#grad1065); "/>
    <defs xmlns="http://www.w3.org/2000/svg" xmlns:xlink="http://www.w3.org/1999/xlink">
      <linearGradient id="grad1066">
        <stop offset="0%" stop-color="#c8d8dd" stop-opacity="0.9882"/>
        <stop offset="100%" stop-color="#f3f9f7" stop-opacity="0.9882"/>
      </linearGradient>
      <linearGradient xlink:href="#grad1066" id="grad1067" x1="0" y1="0" x2="0" y2="1" gradientTransform="rotate(90 .5 .5)" gradientUnits="objectBoundingBox">
  </linearGradient>
    </defs>
    <path xmlns="http://www.w3.org/2000/svg" d="  M9.4777,29.2898 C9.3307,29.2755 9.1822,29.2583 9.0345,29.2410 C9.0952,29.2463 9.1387,29.2845 9.1387,29.3273 C9.1387,29.3730 9.0847,29.4120 9.0135,29.4120 C9.0082,29.4120 8.9947,29.4120 8.9947,29.4120 C6.4027,29.4510 3.0727,28.3523 0.9772,25.6575 C0.6562,25.3410 0.3862,25.0170 0.1800,24.6930 L0.1800,27.4688 C0.2872,27.6368 0.4140,27.8055 0.5535,27.9750 C0.4770,27.8580 0.4020,27.7403 0.3300,27.6180 C0.1860,27.3788 0.3577,27.4005 0.3577,27.4005 C1.1130,28.6785 2.7495,29.9940 4.7130,30.9248 C5.6520,31.3688 6.6660,31.7243 7.6935,31.9455 C8.1105,32.0348 8.5282,32.1023 8.9460,32.1450 C8.9625,32.1465 9.0142,32.1510 9.0210,32.1510 C9.0697,32.1510 9.1072,32.1713 9.1267,32.2005 C9.2625,32.2163 9.3982,32.2313 9.5340,32.2433 L9.5340,29.2950 C9.5137,29.2943 9.4965,29.2913 9.4777,29.2898 Z" style="fill-rule: evenodd; fill: url(#grad1067); "/>
    <defs xmlns="http://www.w3.org/2000/svg" xmlns:xlink="http://www.w3.org/1999/xlink">
      <linearGradient id="grad1068">
        <stop offset="0%" stop-color="#bdd1dd" stop-opacity="0.9882"/>
        <stop offset="100%" stop-color="#f3f9f7" stop-opacity="0.9882"/>
      </linearGradient>
      <linearGradient xlink:href="#grad1068" id="grad1069" x1="0" y1="0" x2="0" y2="1" gradientTransform="rotate(90 .5 .5)" gradientUnits="objectBoundingBox">
  </linearGradient>
    </defs>
    <path xmlns="http://www.w3.org/2000/svg" d="  M9.4777,17.3655 L0.1792,12.7687 L0.1792,18.7552 C0.3105,18.9607 0.4650,19.1655 0.6412,19.3687 C0.5332,19.2113 0.4282,19.0493 0.3292,18.8812 C0.1852,18.6420 0.3570,18.6637 0.3570,18.6637 C0.9630,19.6890 2.1345,20.7375 3.5857,21.5917 C5.3272,22.5225 7.4542,23.2125 9.5325,23.3985 L9.5325,17.3715 C9.5137,17.3700 9.4777,17.3655 9.4777,17.3655 Z M0.4950,13.5645 L9.2497,17.8927 C4.9072,20.2912 0.6607,16.4220 0.4950,13.5645 Z" style="fill-rule: evenodd; fill: url(#grad1069); "/>
    <path xmlns="http://www.w3.org/2000/svg" d="  M9.0195,40.8870 C9.0128,40.8870 8.9618,40.8825 8.9445,40.8810 C5.3483,40.5195 1.6200,38.2747 0.3570,36.1365 C0.3570,36.1365 0.1852,36.1147 0.3292,36.3532 C2.3257,39.7440 6.1163,41.1037 8.9948,41.0595 C8.9948,41.0595 9.0090,41.0595 9.0135,41.0595 C9.0848,41.0595 9.1388,41.0212 9.1388,40.9747 C9.1388,40.9297 9.0893,40.8870 9.0195,40.8870 Z" style="fill-rule: evenodd; fill: #000000; "/>
    <path xmlns="http://www.w3.org/2000/svg" d="  M9.0195,37.9747 C9.0128,37.9747 8.9618,37.9702 8.9445,37.9687 C5.3483,37.6072 1.6200,35.3625 0.3570,33.2242 C0.3570,33.2242 0.1852,33.2025 0.3292,33.4410 C2.3257,36.8317 6.1163,38.1900 8.9948,38.1472 C8.9948,38.1472 9.0090,38.1472 9.0135,38.1472 C9.0848,38.1472 9.1388,38.1075 9.1388,38.0625 C9.1388,38.0175 9.0893,37.9747 9.0195,37.9747 Z" style="fill-rule: evenodd; fill: #000000; "/>
    <path xmlns="http://www.w3.org/2000/svg" d="  M9.0195,35.0632 C9.0128,35.0632 8.9618,35.0587 8.9445,35.0572 C5.3483,34.6957 1.6200,32.4495 0.3570,30.3120 C0.3570,30.3120 0.1852,30.2902 0.3292,30.5295 C2.3257,33.9202 6.1163,35.2785 8.9948,35.2357 C8.9948,35.2357 9.0090,35.2357 9.0135,35.2357 C9.0848,35.2357 9.1388,35.1960 9.1388,35.1510 C9.1388,35.1060 9.0893,35.0632 9.0195,35.0632 Z" style="fill-rule: evenodd; fill: #000000; "/>
    <path xmlns="http://www.w3.org/2000/svg" d="  M9.1253,32.2005 C8.6468,32.1420 8.1683,32.0558 7.6928,31.9455 C6.6653,31.7243 5.6513,31.3680 4.7123,30.9247 C2.7495,29.9940 1.1123,28.6785 0.3570,27.4005 C0.3570,27.4005 0.1852,27.3788 0.3292,27.6180 C0.4012,27.7403 0.4762,27.8580 0.5527,27.9750 C2.5980,31.1040 6.2198,32.3655 8.9948,32.3243 C8.9948,32.3243 9.0090,32.3243 9.0135,32.3243 C9.0848,32.3243 9.1388,32.2860 9.1388,32.2395 C9.1388,32.2253 9.1328,32.2125 9.1253,32.2005 Z" style="fill-rule: evenodd; fill: #000000; "/>
    <path xmlns="http://www.w3.org/2000/svg" d="  M9.0345,29.2410 C9.0278,29.2395 9.0210,29.2388 9.0150,29.2380 C9.0030,29.2380 8.9603,29.2350 8.9445,29.2328 C7.8060,29.1188 6.6555,28.8150 5.5733,28.3868 C3.2370,27.4613 1.2210,25.9500 0.3570,24.4883 C0.3570,24.4883 0.1852,24.4658 0.3292,24.7058 C0.5287,25.0425 0.7455,25.3598 0.9765,25.6575 C3.0720,28.3530 6.4020,29.4518 8.9940,29.4120 C8.9940,29.4120 9.0083,29.4120 9.0128,29.4120 C9.0840,29.4120 9.1380,29.3730 9.1380,29.3273 C9.1388,29.2845 9.0953,29.2463 9.0345,29.2410 Z" style="fill-rule: evenodd; fill: #000000; "/>
    <path xmlns="http://www.w3.org/2000/svg" d="  M9.0195,23.4142 C9.0128,23.4142 8.9618,23.4105 8.9445,23.4090 C7.0718,23.2208 5.1630,22.5210 3.5850,21.5925 C2.1338,20.7382 0.9623,19.6897 0.3562,18.6645 C0.3562,18.6645 0.1845,18.6427 0.3285,18.8820 C0.4275,19.0507 0.5325,19.2120 0.6405,19.3695 C2.7000,22.4017 6.2580,23.6287 8.9940,23.5875 C8.9940,23.5875 9.0083,23.5875 9.0128,23.5875 C9.0840,23.5875 9.1380,23.5492 9.1380,23.5035 C9.1380,23.4577 9.0893,23.4142 9.0195,23.4142 Z" style="fill-rule: evenodd; fill: #000000; "/>
    <path xmlns="http://www.w3.org/2000/svg" d="  M9.0195,26.3257 C9.0128,26.3257 8.9618,26.3227 8.9445,26.3205 C5.3483,25.9590 1.6200,23.7143 0.3570,21.5768 C0.3570,21.5768 0.1852,21.5550 0.3292,21.7935 C2.3257,25.1842 6.1163,26.5425 8.9948,26.4997 C8.9948,26.4997 9.0090,26.4997 9.0135,26.4997 C9.0848,26.4997 9.1388,26.4607 9.1388,26.4150 C9.1388,26.3685 9.0893,26.3257 9.0195,26.3257 Z" style="fill-rule: evenodd; fill: #000000; "/>
    <defs xmlns="http://www.w3.org/2000/svg">
      <linearGradient id="grad1070">
        <stop offset="0%" stop-color="#646c6b" stop-opacity="1.0000"/>
        <stop offset="100%" stop-color="#dae1e1" stop-opacity="1.0000"/>
      </linearGradient>
    </defs>
    <path xmlns="http://www.w3.org/2000/svg" d="  M7.6500,41.6340 C6.8295,41.3745 6.0428,41.5508 5.8920,42.0263 C5.7413,42.5018 6.2828,43.0988 7.1033,43.3590 C7.9230,43.6185 8.7113,43.4423 8.8613,42.9668 C9.0120,42.4913 8.4690,41.8935 7.6500,41.6340 Z M8.2688,43.2278 C7.9643,43.5150 7.4385,43.4505 7.0928,43.0830 C6.9825,42.9645 6.9038,42.8295 6.8580,42.6908 C6.8280,42.6000 6.8130,42.5093 6.8123,42.4200 C6.8093,42.2220 6.8783,42.0345 7.0200,41.9018 C7.3238,41.6160 7.8503,41.6805 8.1953,42.0465 C8.5403,42.4125 8.5733,42.9420 8.2688,43.2278 Z" style="fill-rule: evenodd; fill: url(#grad1070); "/>
    <path xmlns="http://www.w3.org/2000/svg" d="  M7.0207,41.9010 C6.8790,42.0345 6.8100,42.2220 6.8130,42.4193 C6.8190,42.2782 6.8707,42.1470 6.9735,42.0517 C7.0552,41.9738 7.1580,41.9303 7.2697,41.9182 C7.4902,41.8627 7.7505,41.9385 7.9365,42.1365 C8.1900,42.4058 8.2102,42.7988 7.9875,43.0245 C7.9717,43.0433 7.9575,43.0612 7.9395,43.0770 C7.7040,43.2998 7.2975,43.2495 7.0312,42.9660 C6.9525,42.8827 6.8955,42.7890 6.8595,42.6908 C6.9052,42.8302 6.9832,42.9645 7.0942,43.0830 C7.4400,43.4505 7.9657,43.5150 8.2702,43.2278 C8.5747,42.9420 8.5425,42.4117 8.1975,42.0457 C7.8525,41.6797 7.3245,41.6152 7.0207,41.9010 Z" style="fill-rule: evenodd; fill: #000000; "/>
    <defs xmlns="http://www.w3.org/2000/svg">
      <radialGradient id="grad1071" cx="50.0000%" cy="50.0000%" r="100.0000%">
        <stop offset="0%" stop-color="#ccff66" stop-opacity="1.0000"/>
        <stop offset="100%" stop-color="#7ab04a" stop-opacity="1.0000"/>
      </radialGradient>
    </defs>
    <path xmlns="http://www.w3.org/2000/svg" d="  M7.9380,43.0770 C7.9560,43.0612 7.9710,43.0432 7.9860,43.0245 C8.2088,42.7987 8.1885,42.4065 7.9350,42.1365 C7.7490,41.9385 7.4888,41.8627 7.2682,41.9182 C7.1572,41.9302 7.0545,41.9737 6.9720,42.0517 C6.8693,42.1470 6.8175,42.2790 6.8115,42.4192 C6.8123,42.5085 6.8273,42.5992 6.8573,42.6900 C6.8940,42.7882 6.9503,42.8820 7.0290,42.9652 C7.2960,43.2502 7.7025,43.2997 7.9380,43.0770 Z" style="fill-rule: evenodd; fill: url(#grad1071); "/>
    <defs xmlns="http://www.w3.org/2000/svg" xmlns:xlink="http://www.w3.org/1999/xlink">
      <linearGradient id="grad1072">
        <stop offset="0%" stop-color="#7f8787" stop-opacity="1.0000"/>
        <stop offset="100%" stop-color="#f3f9f7" stop-opacity="1.0000"/>
      </linearGradient>
      <linearGradient xlink:href="#grad1072" id="grad1073" x1="0" y1="0" x2="0" y2="1" gradientTransform="rotate(315 .5 .5)" gradientUnits="objectBoundingBox">
  </linearGradient>
    </defs>
    <path xmlns="http://www.w3.org/2000/svg" d="  M0.4950,13.5645 C0.6615,16.4228 4.9080,20.2920 9.2498,17.8928 L0.4950,13.5645 Z M2.1728,14.5043 L7.7693,17.2470 C4.9388,18.6510 2.2455,16.2442 2.1728,14.5043 Z" style="fill-rule: evenodd; fill: url(#grad1073); "/>
    <defs xmlns="http://www.w3.org/2000/svg">
      <radialGradient id="grad1074" cx="50.0000%" cy="50.0000%" r="100.0000%">
        <stop offset="0%" stop-color="#a7e968" stop-opacity="1.0000"/>
        <stop offset="100%" stop-color="#000000" stop-opacity="1.0000"/>
      </radialGradient>
    </defs>
    <path xmlns="http://www.w3.org/2000/svg" d="  M2.1728,14.5042 C2.2455,16.2442 4.9388,18.6510 7.7693,17.2470 L2.1728,14.5042 Z" style="fill-rule: evenodd; fill: url(#grad1074); "/>
    <defs xmlns="http://www.w3.org/2000/svg" xmlns:xlink="http://www.w3.org/1999/xlink">
      <linearGradient id="grad1075">
        <stop offset="0%" stop-color="#7f8787" stop-opacity="1.0000"/>
        <stop offset="100%" stop-color="#dae1e1" stop-opacity="1.0000"/>
      </linearGradient>
      <linearGradient xlink:href="#grad1075" id="grad1076" x1="0" y1="0" x2="0" y2="1" gradientTransform="rotate(45 .5 .5)" gradientUnits="objectBoundingBox">
  </linearGradient>
    </defs>
    <path xmlns="http://www.w3.org/2000/svg" d="  M10.3117,16.3980 L10.2945,16.3905 L10.2945,45.8678 L28.9733,35.3250 L28.9733,33.2130 L17.6085,39.7418 L17.6085,39.2790 L28.5660,32.9932 L28.9733,32.7585 L28.9733,31.0403 L17.6085,37.5705 L17.6085,37.1092 L28.5660,30.8220 L28.9733,30.5880 L28.9733,28.8705 L17.6085,35.4000 L17.6085,34.9388 L28.5952,28.6650 L28.9733,28.4490 L28.9733,5.5013 L26.4675,6.9420 L10.3117,16.3980 Z" style="fill-rule: evenodd; fill: url(#grad1076); "/>
    <defs xmlns="http://www.w3.org/2000/svg" xmlns:xlink="http://www.w3.org/1999/xlink">
      <linearGradient id="grad1077">
        <stop offset="0%" stop-color="#7f8787" stop-opacity="1.0000"/>
        <stop offset="100%" stop-color="#f3f9f7" stop-opacity="1.0000"/>
      </linearGradient>
      <linearGradient xlink:href="#grad1077" id="grad1078" x1="0" y1="0" x2="0" y2="1" gradientTransform="rotate(90 .5 .5)" gradientUnits="objectBoundingBox">
  </linearGradient>
    </defs>
    <path xmlns="http://www.w3.org/2000/svg" d="  M19.8668,0.0000 L0.0953,11.4127 L10.2945,16.3905 L28.9733,5.4742 L19.8668,0.0000 Z" style="fill-rule: evenodd; fill: url(#grad1078); "/>
    <path xmlns="http://www.w3.org/2000/svg" d="  M30.2303,43.7550 L41.5943,37.2000 L41.2185,37.0215 L30.2303,43.2938 L30.2303,43.7550 Z" style="fill-rule: evenodd; fill: #3f3f3f; "/>
    <path xmlns="http://www.w3.org/2000/svg" d="  M30.2303,45.9263 L41.5943,39.3698 L41.1885,39.1778 L30.2303,45.4650 L30.2303,45.9263 Z" style="fill-rule: evenodd; fill: #3f3f3f; "/>
    <path xmlns="http://www.w3.org/2000/svg" d="  M30.2303,48.0975 L41.5943,41.5402 L41.1885,41.3482 L30.2303,47.6340 L30.2303,48.0975 Z" style="fill-rule: evenodd; fill: #3f3f3f; "/>
    <defs xmlns="http://www.w3.org/2000/svg" xmlns:xlink="http://www.w3.org/1999/xlink">
      <linearGradient id="grad1079">
        <stop offset="0%" stop-color="#646c6b" stop-opacity="1.0000"/>
        <stop offset="100%" stop-color="#dae1e1" stop-opacity="1.0000"/>
      </linearGradient>
      <linearGradient xlink:href="#grad1079" id="grad1080" x1="0" y1="0" x2="0" y2="1" gradientTransform="rotate(90 .5 .5)" gradientUnits="objectBoundingBox">
  </linearGradient>
    </defs>
    <path xmlns="http://www.w3.org/2000/svg" d="  M22.9087,24.7770 L12.6217,19.7752 L12.6217,48.3720 L13.0612,48.6300 C12.9675,48.5085 12.8790,48.3870 12.8002,48.2640 L12.8002,35.8230 L12.8002,33.0487 L12.8002,27.1110 L12.8002,21.1245 L22.0995,25.7212 C22.0995,25.7212 22.1362,25.7250 22.1535,25.7272 L22.1535,31.7535 L22.1535,37.6507 L22.1535,40.5982 L22.1535,52.8660 C21.2295,52.7842 20.2957,52.6020 19.3890,52.3462 L22.9073,54.4117 L22.9073,24.7770 L22.9087,24.7770 Z" style="fill-rule: evenodd; fill: url(#grad1080); "/>
    <defs xmlns="http://www.w3.org/2000/svg" xmlns:xlink="http://www.w3.org/1999/xlink">
      <linearGradient id="grad1081">
        <stop offset="0%" stop-color="#85919c" stop-opacity="0.9882"/>
        <stop offset="100%" stop-color="#dadfe1" stop-opacity="0.9882"/>
      </linearGradient>
      <linearGradient xlink:href="#grad1081" id="grad1082" x1="0" y1="0" x2="0" y2="1" gradientTransform="rotate(90 .5 .5)" gradientUnits="objectBoundingBox">
  </linearGradient>
    </defs>
    <path xmlns="http://www.w3.org/2000/svg" d="  M21.7605,40.5945 C21.7605,40.6417 21.7065,40.6792 21.6360,40.6792 C21.6300,40.6792 21.6172,40.6792 21.6172,40.6792 C18.8422,40.7205 15.2197,39.4590 13.1745,36.3300 C13.0342,36.1597 12.9082,35.9917 12.8010,35.8230 L12.8010,48.2640 C12.8790,48.3870 12.9682,48.5085 13.0620,48.6300 C14.2432,50.1405 16.6905,51.5790 19.3905,52.3463 C20.2972,52.6028 21.2302,52.7843 22.1550,52.8660 L22.1550,40.5982 C22.0200,40.5862 21.8842,40.5720 21.7477,40.5555 C21.7545,40.5675 21.7605,40.5810 21.7605,40.5945 Z M21.4837,51.3225 C21.3330,51.7988 20.5462,51.9743 19.7257,51.7148 C18.9045,51.4538 18.3637,50.8575 18.5137,50.3820 C18.6652,49.9057 19.4512,49.7302 20.2725,49.9897 C21.0915,50.2492 21.6345,50.8470 21.4837,51.3225 Z M21.6360,49.4153 C21.6300,49.4153 21.6172,49.4153 21.6172,49.4153 C18.7380,49.4595 14.9482,48.0997 12.9517,44.7090 C12.8070,44.4705 12.9787,44.4922 12.9787,44.4922 C14.2432,46.6312 17.9700,48.8753 21.5670,49.2368 C21.5827,49.2382 21.6345,49.2428 21.6420,49.2428 C21.7125,49.2428 21.7605,49.2855 21.7605,49.3305 C21.7605,49.3777 21.7065,49.4153 21.6360,49.4153 Z M21.6360,46.5037 C21.6300,46.5037 21.6172,46.5037 21.6172,46.5037 C18.7380,46.5465 14.9482,45.1882 12.9517,41.7975 C12.8070,41.5590 12.9787,41.5807 12.9787,41.5807 C14.2432,43.7197 17.9700,45.9637 21.5670,46.3252 C21.5827,46.3267 21.6345,46.3297 21.6420,46.3297 C21.7125,46.3297 21.7605,46.3740 21.7605,46.4190 C21.7605,46.4640 21.7065,46.5037 21.6360,46.5037 Z M21.6360,43.5915 C21.6300,43.5915 21.6172,43.5915 21.6172,43.5915 C18.7380,43.6342 14.9482,42.2760 12.9517,38.8852 C12.8070,38.6467 12.9787,38.6685 12.9787,38.6685 C14.2432,40.8060 17.9700,43.0515 21.5670,43.4130 C21.5827,43.4145 21.6345,43.4175 21.6420,43.4175 C21.7125,43.4175 21.7605,43.4617 21.7605,43.5067 C21.7605,43.5517 21.7065,43.5915 21.6360,43.5915 Z" style="fill-rule: evenodd; fill: url(#grad1082); "/>
    <defs xmlns="http://www.w3.org/2000/svg" xmlns:xlink="http://www.w3.org/1999/xlink">
      <linearGradient id="grad1083">
        <stop offset="0%" stop-color="#85919c" stop-opacity="0.9882"/>
        <stop offset="100%" stop-color="#dadfe1" stop-opacity="0.9882"/>
      </linearGradient>
      <linearGradient xlink:href="#grad1083" id="grad1084" x1="0" y1="0" x2="0" y2="1" gradientTransform="rotate(90 .5 .5)" gradientUnits="objectBoundingBox">
  </linearGradient>
    </defs>
    <path xmlns="http://www.w3.org/2000/svg" d="  M21.5670,31.7640 C21.5828,31.7655 21.6345,31.7700 21.6420,31.7700 C21.7125,31.7700 21.7605,31.8127 21.7605,31.8578 C21.7605,31.9050 21.7065,31.9425 21.6360,31.9425 C21.6300,31.9425 21.6173,31.9425 21.6173,31.9425 C18.8813,31.9838 15.3225,30.7575 13.2630,27.7245 C13.0868,27.5213 12.9323,27.3165 12.8010,27.1110 L12.8010,33.0488 C13.0080,33.3727 13.2780,33.6960 13.5990,34.0125 C13.3673,33.7140 13.1498,33.3975 12.9518,33.0600 C12.8070,32.8215 12.9788,32.8432 12.9788,32.8432 C13.8435,34.3050 15.8588,35.8155 18.1958,36.7410 C19.2960,37.1453 20.4683,37.4445 21.6375,37.5923 C21.6375,37.5938 21.6405,37.5938 21.6420,37.5938 C21.6480,37.5938 21.6525,37.5938 21.6578,37.5953 C21.8040,37.6140 21.9540,37.6305 22.1003,37.6448 C22.1175,37.6463 22.1370,37.6493 22.1543,37.6508 L22.1543,31.7535 C20.0768,31.5675 17.9498,30.8775 16.2068,29.9468 C17.7855,30.8767 19.6935,31.5750 21.5670,31.7640 Z M21.6360,34.8548 C21.6300,34.8548 21.6173,34.8548 21.6173,34.8548 C18.7380,34.8975 14.9483,33.5393 12.9518,30.1485 C12.8070,29.9100 12.9788,29.9318 12.9788,29.9318 C14.2433,32.0700 17.9700,34.3140 21.5670,34.6763 C21.5828,34.6793 21.6345,34.6823 21.6420,34.6823 C21.7125,34.6823 21.7605,34.7250 21.7605,34.7700 C21.7605,34.8150 21.7065,34.8548 21.6360,34.8548 Z" style="fill-rule: evenodd; fill: url(#grad1084); "/>
    <defs xmlns="http://www.w3.org/2000/svg" xmlns:xlink="http://www.w3.org/1999/xlink">
      <linearGradient id="grad1085">
        <stop offset="0%" stop-color="#c8d8dd" stop-opacity="0.9882"/>
        <stop offset="100%" stop-color="#f3f9f7" stop-opacity="0.9882"/>
      </linearGradient>
      <linearGradient xlink:href="#grad1085" id="grad1086" x1="0" y1="0" x2="0" y2="1" gradientTransform="rotate(90 .5 .5)" gradientUnits="objectBoundingBox">
  </linearGradient>
    </defs>
    <path xmlns="http://www.w3.org/2000/svg" d="  M22.1002,37.6455 C21.9540,37.6305 21.8040,37.6147 21.6577,37.5960 C21.7177,37.6020 21.7605,37.6402 21.7605,37.6822 C21.7605,37.7295 21.7065,37.7670 21.6360,37.7670 C21.6300,37.7670 21.6172,37.7670 21.6172,37.7670 C19.0252,37.8067 15.6945,36.7080 13.5997,34.0125 C13.2780,33.6960 13.0087,33.3720 12.8017,33.0487 L12.8017,35.8230 C12.9090,35.9917 13.0357,36.1597 13.1752,36.3300 C13.0987,36.2130 13.0245,36.0945 12.9525,35.9722 C12.8077,35.7337 12.9795,35.7555 12.9795,35.7555 C13.7347,37.0342 15.3720,38.3497 17.3347,39.2797 C18.2737,39.7237 19.2877,40.0792 20.3160,40.3005 C20.7322,40.3897 21.1507,40.4572 21.5685,40.5000 C21.5842,40.5015 21.6360,40.5060 21.6435,40.5060 C21.6915,40.5060 21.7297,40.5262 21.7492,40.5555 C21.8857,40.5712 22.0215,40.5862 22.1565,40.5982 L22.1565,37.6507 C22.1370,37.6500 22.1182,37.6470 22.1002,37.6455 Z" style="fill-rule: evenodd; fill: url(#grad1086); "/>
    <defs xmlns="http://www.w3.org/2000/svg" xmlns:xlink="http://www.w3.org/1999/xlink">
      <linearGradient id="grad1087">
        <stop offset="0%" stop-color="#bdd1dd" stop-opacity="0.9882"/>
        <stop offset="100%" stop-color="#f3f9f7" stop-opacity="0.9882"/>
      </linearGradient>
      <linearGradient xlink:href="#grad1087" id="grad1088" x1="0" y1="0" x2="0" y2="1" gradientTransform="rotate(90 .5 .5)" gradientUnits="objectBoundingBox">
  </linearGradient>
    </defs>
    <path xmlns="http://www.w3.org/2000/svg" d="  M22.1002,25.7213 L12.8010,21.1245 L12.8010,27.1110 C12.9322,27.3165 13.0867,27.5213 13.2630,27.7245 C13.1550,27.5670 13.0500,27.4050 12.9517,27.2370 C12.8070,26.9978 12.9787,27.0195 12.9787,27.0195 C13.5847,28.0440 14.7562,29.0933 16.2075,29.9475 C17.9497,30.8783 20.0775,31.5683 22.1550,31.7543 L22.1550,25.7280 C22.1370,25.7250 22.1002,25.7213 22.1002,25.7213 Z M13.1167,21.9195 L21.8722,26.2470 C17.5297,28.6470 13.2825,24.7770 13.1167,21.9195 Z" style="fill-rule: evenodd; fill: url(#grad1088); "/>
    <path xmlns="http://www.w3.org/2000/svg" d="  M21.6420,49.2428 C21.6345,49.2428 21.5835,49.2383 21.5670,49.2368 C17.9700,48.8753 14.2425,46.6305 12.9787,44.4923 C12.9787,44.4923 12.8070,44.4705 12.9517,44.7090 C14.9482,48.0998 18.7380,49.4595 21.6173,49.4153 C21.6173,49.4153 21.6307,49.4153 21.6360,49.4153 C21.7065,49.4153 21.7605,49.3770 21.7605,49.3305 C21.7605,49.2848 21.7125,49.2428 21.6420,49.2428 Z" style="fill-rule: evenodd; fill: #000000; "/>
    <path xmlns="http://www.w3.org/2000/svg" d="  M21.6420,46.3290 C21.6345,46.3290 21.5835,46.3260 21.5670,46.3245 C17.9700,45.9630 14.2425,43.7183 12.9787,41.5800 C12.9787,41.5800 12.8070,41.5583 12.9517,41.7968 C14.9482,45.1875 18.7380,46.5458 21.6173,46.5030 C21.6173,46.5030 21.6307,46.5030 21.6360,46.5030 C21.7065,46.5030 21.7605,46.4633 21.7605,46.4183 C21.7605,46.3733 21.7125,46.3290 21.6420,46.3290 Z" style="fill-rule: evenodd; fill: #000000; "/>
    <path xmlns="http://www.w3.org/2000/svg" d="  M21.6420,43.4168 C21.6345,43.4168 21.5835,43.4138 21.5670,43.4123 C17.9700,43.0508 14.2425,40.8045 12.9787,38.6678 C12.9787,38.6678 12.8070,38.6460 12.9517,38.8845 C14.9482,42.2753 18.7380,43.6335 21.6173,43.5908 C21.6173,43.5908 21.6307,43.5908 21.6360,43.5908 C21.7065,43.5908 21.7605,43.5510 21.7605,43.5060 C21.7605,43.4610 21.7125,43.4168 21.6420,43.4168 Z" style="fill-rule: evenodd; fill: #000000; "/>
    <path xmlns="http://www.w3.org/2000/svg" d="  M21.7478,40.5562 C21.2685,40.4977 20.7915,40.4115 20.3152,40.3012 C19.2870,40.0800 18.2730,39.7237 17.3340,39.2805 C15.3720,38.3505 13.7340,37.0350 12.9787,35.7563 C12.9787,35.7563 12.8070,35.7345 12.9517,35.9730 C13.0237,36.0945 13.0980,36.2130 13.1745,36.3308 C15.2197,39.4598 18.8422,40.7212 21.6173,40.6800 C21.6173,40.6800 21.6307,40.6800 21.6360,40.6800 C21.7065,40.6800 21.7605,40.6417 21.7605,40.5952 C21.7605,40.5810 21.7545,40.5675 21.7478,40.5562 Z" style="fill-rule: evenodd; fill: #000000; "/>
    <path xmlns="http://www.w3.org/2000/svg" d="  M21.6578,37.5960 C21.6503,37.5945 21.6428,37.5945 21.6375,37.5930 C21.6255,37.5930 21.5820,37.5900 21.5670,37.5885 C20.4285,37.4745 19.2772,37.1708 18.1958,36.7418 C15.8587,35.8163 13.8435,34.3058 12.9787,32.8440 C12.9787,32.8440 12.8070,32.8223 12.9517,33.0608 C13.1505,33.3975 13.3680,33.7140 13.5990,34.0133 C15.6937,36.7088 19.0245,37.8075 21.6165,37.7678 C21.6165,37.7678 21.6300,37.7678 21.6353,37.7678 C21.7058,37.7678 21.7597,37.7295 21.7597,37.6830 C21.7605,37.6395 21.7185,37.6013 21.6578,37.5960 Z" style="fill-rule: evenodd; fill: #000000; "/>
    <path xmlns="http://www.w3.org/2000/svg" d="  M21.6420,31.7700 C21.6345,31.7700 21.5835,31.7655 21.5670,31.7640 C19.6935,31.5750 17.7855,30.8760 16.2075,29.9475 C14.7562,29.0933 13.5847,28.0440 12.9787,27.0195 C12.9787,27.0195 12.8070,26.9978 12.9517,27.2370 C13.0500,27.4058 13.1550,27.5670 13.2630,27.7245 C15.3225,30.7575 18.8805,31.9838 21.6173,31.9425 C21.6173,31.9425 21.6307,31.9425 21.6360,31.9425 C21.7065,31.9425 21.7605,31.9043 21.7605,31.8578 C21.7605,31.8128 21.7125,31.7700 21.6420,31.7700 Z" style="fill-rule: evenodd; fill: #000000; "/>
    <path xmlns="http://www.w3.org/2000/svg" d="  M21.6420,34.6823 C21.6345,34.6823 21.5835,34.6793 21.5670,34.6763 C17.9700,34.3148 14.2425,32.0700 12.9787,29.9318 C12.9787,29.9318 12.8070,29.9100 12.9517,30.1485 C14.9482,33.5393 18.7380,34.8975 21.6173,34.8548 C21.6173,34.8548 21.6307,34.8548 21.6360,34.8548 C21.7065,34.8548 21.7605,34.8150 21.7605,34.7700 C21.7605,34.7250 21.7125,34.6823 21.6420,34.6823 Z" style="fill-rule: evenodd; fill: #000000; "/>
    <defs xmlns="http://www.w3.org/2000/svg">
      <linearGradient id="grad1089">
        <stop offset="0%" stop-color="#646c6b" stop-opacity="1.0000"/>
        <stop offset="100%" stop-color="#dae1e1" stop-opacity="1.0000"/>
      </linearGradient>
    </defs>
    <path xmlns="http://www.w3.org/2000/svg" d="  M20.2725,49.9898 C19.4520,49.7302 18.6652,49.9065 18.5137,50.3820 C18.3637,50.8583 18.9045,51.4545 19.7257,51.7147 C20.5462,51.9743 21.3330,51.7980 21.4837,51.3225 C21.6345,50.8470 21.0915,50.2493 20.2725,49.9898 Z M20.8920,51.5835 C20.5860,51.8708 20.0602,51.8063 19.7160,51.4388 C19.6050,51.3203 19.5255,51.1853 19.4812,51.0465 C19.4505,50.9558 19.4355,50.8650 19.4355,50.7758 C19.4325,50.5778 19.5000,50.3903 19.6425,50.2575 C19.9470,49.9718 20.4727,50.0363 20.8185,50.4022 C21.1627,50.7675 21.1965,51.2978 20.8920,51.5835 Z" style="fill-rule: evenodd; fill: url(#grad1089); "/>
    <path xmlns="http://www.w3.org/2000/svg" d="  M19.6425,50.2560 C19.5000,50.3895 19.4325,50.5770 19.4355,50.7742 C19.4408,50.6332 19.4933,50.5020 19.5953,50.4067 C19.6778,50.3287 19.7805,50.2852 19.8915,50.2732 C20.1113,50.2177 20.3723,50.2935 20.5583,50.4915 C20.8118,50.7607 20.8320,51.1537 20.6093,51.3795 C20.5943,51.3982 20.5785,51.4162 20.5613,51.4320 C20.3258,51.6547 19.9185,51.6045 19.6530,51.3210 C19.5735,51.2377 19.5165,51.1440 19.4813,51.0457 C19.5255,51.1852 19.6050,51.3195 19.7160,51.4380 C20.0603,51.8055 20.5860,51.8700 20.8920,51.5827 C21.1965,51.2970 21.1628,50.7667 20.8185,50.4007 C20.4728,50.0347 19.9470,49.9710 19.6425,50.2560 Z" style="fill-rule: evenodd; fill: #000000; "/>
    <defs xmlns="http://www.w3.org/2000/svg">
      <radialGradient id="grad1090" cx="50.0000%" cy="50.0000%" r="100.0000%">
        <stop offset="0%" stop-color="#ccff66" stop-opacity="1.0000"/>
        <stop offset="100%" stop-color="#7ab04a" stop-opacity="1.0000"/>
      </radialGradient>
    </defs>
    <path xmlns="http://www.w3.org/2000/svg" d="  M20.5612,51.4327 C20.5785,51.4170 20.5950,51.3990 20.6092,51.3802 C20.8320,51.1545 20.8117,50.7623 20.5582,50.4923 C20.3722,50.2942 20.1112,50.2185 19.8915,50.2740 C19.7805,50.2860 19.6777,50.3295 19.5952,50.4075 C19.4925,50.5027 19.4400,50.6347 19.4355,50.7750 C19.4355,50.8642 19.4505,50.9550 19.4812,51.0457 C19.5165,51.1440 19.5735,51.2377 19.6530,51.3210 C19.9177,51.6052 20.3250,51.6555 20.5612,51.4327 Z" style="fill-rule: evenodd; fill: url(#grad1090); "/>
    <defs xmlns="http://www.w3.org/2000/svg" xmlns:xlink="http://www.w3.org/1999/xlink">
      <linearGradient id="grad1091">
        <stop offset="0%" stop-color="#7f8787" stop-opacity="1.0000"/>
        <stop offset="100%" stop-color="#f3f9f7" stop-opacity="1.0000"/>
      </linearGradient>
      <linearGradient xlink:href="#grad1091" id="grad1092" x1="0" y1="0" x2="0" y2="1" gradientTransform="rotate(315 .5 .5)" gradientUnits="objectBoundingBox">
  </linearGradient>
    </defs>
    <path xmlns="http://www.w3.org/2000/svg" d="  M13.1168,21.9195 C13.2833,24.7770 17.5298,28.6470 21.8723,26.2470 L13.1168,21.9195 Z M14.7945,22.8600 L20.3910,25.6027 C17.5613,27.0067 14.8673,24.5992 14.7945,22.8600 Z" style="fill-rule: evenodd; fill: url(#grad1092); "/>
    <defs xmlns="http://www.w3.org/2000/svg">
      <radialGradient id="grad1093" cx="50.0000%" cy="50.0000%" r="100.0000%">
        <stop offset="0%" stop-color="#a7e968" stop-opacity="1.0000"/>
        <stop offset="100%" stop-color="#000000" stop-opacity="1.0000"/>
      </radialGradient>
    </defs>
    <path xmlns="http://www.w3.org/2000/svg" d="  M14.7945,22.8600 C14.8673,24.5992 17.5605,27.0067 20.3910,25.6027 L14.7945,22.8600 Z" style="fill-rule: evenodd; fill: url(#grad1093); "/>
    <defs xmlns="http://www.w3.org/2000/svg" xmlns:xlink="http://www.w3.org/1999/xlink">
      <linearGradient id="grad1094">
        <stop offset="0%" stop-color="#7f8787" stop-opacity="1.0000"/>
        <stop offset="100%" stop-color="#dae1e1" stop-opacity="1.0000"/>
      </linearGradient>
      <linearGradient xlink:href="#grad1094" id="grad1095" x1="0" y1="0" x2="0" y2="1" gradientTransform="rotate(45 .5 .5)" gradientUnits="objectBoundingBox">
  </linearGradient>
    </defs>
    <path xmlns="http://www.w3.org/2000/svg" d="  M22.9343,24.7538 L22.9163,24.7455 L22.9163,54.2227 L41.5958,43.6807 L41.5958,41.5665 L30.2303,48.0975 L30.2303,47.6340 L41.1885,41.3482 L41.5958,41.1143 L41.5958,39.3960 L30.2303,45.9263 L30.2303,45.4650 L41.1885,39.1777 L41.5958,38.9430 L41.5958,37.2262 L30.2303,43.7550 L30.2303,43.2938 L41.2185,37.0215 L41.5958,36.8047 L41.5958,13.8563 L39.0885,15.2978 L22.9343,24.7538 Z" style="fill-rule: evenodd; fill: url(#grad1095); "/>
    <defs xmlns="http://www.w3.org/2000/svg" xmlns:xlink="http://www.w3.org/1999/xlink">
      <linearGradient id="grad1096">
        <stop offset="0%" stop-color="#7f8787" stop-opacity="1.0000"/>
        <stop offset="100%" stop-color="#f3f9f7" stop-opacity="1.0000"/>
      </linearGradient>
      <linearGradient xlink:href="#grad1096" id="grad1097" x1="0" y1="0" x2="0" y2="1" gradientTransform="rotate(90 .5 .5)" gradientUnits="objectBoundingBox">
  </linearGradient>
    </defs>
    <path xmlns="http://www.w3.org/2000/svg" d="  M32.4893,8.3557 L12.7185,19.7685 L22.9162,24.7455 L41.5957,13.8300 L32.4893,8.3557 Z" style="fill-rule: evenodd; fill: url(#grad1097); "/>
    <defs xmlns="http://www.w3.org/2000/svg" xmlns:xlink="http://www.w3.org/1999/xlink">
      <linearGradient id="grad1098">
        <stop offset="0%" stop-color="#f6c150" stop-opacity="1.0000"/>
        <stop offset="100%" stop-color="#dc7626" stop-opacity="1.0000"/>
      </linearGradient>
      <linearGradient xlink:href="#grad1098" id="grad1099" x1="0" y1="0" x2="0" y2="1" gradientTransform="rotate(135 .5 .5)" gradientUnits="objectBoundingBox">
  </linearGradient>
    </defs>
    <path xmlns="http://www.w3.org/2000/svg" d="  M32.1143,32.4937 L41.4705,37.7865 C41.4705,37.7865 41.3198,36.9615 40.9080,35.8102 L33.6188,31.6747 C33.6188,31.6747 33.5820,31.5983 33.5745,31.5547 C33.3330,30.2685 33.4238,29.1728 33.8618,28.4708 C33.5018,28.4700 33.1763,28.5495 32.8950,28.7220 C31.9973,29.2755 31.7408,30.6562 32.0670,32.3730 C32.0760,32.4172 32.1143,32.4937 32.1143,32.4937 Z" style="fill-rule: evenodd; fill: url(#grad1099); "/>
    <defs xmlns="http://www.w3.org/2000/svg" xmlns:xlink="http://www.w3.org/1999/xlink">
      <linearGradient id="grad1100">
        <stop offset="0%" stop-color="#de8d3c" stop-opacity="1.0000"/>
        <stop offset="100%" stop-color="#f8db5f" stop-opacity="1.0000"/>
      </linearGradient>
      <linearGradient xlink:href="#grad1100" id="grad1101" x1="0" y1="0" x2="0" y2="1" gradientTransform="rotate(135 .5 .5)" gradientUnits="objectBoundingBox">
  </linearGradient>
    </defs>
    <path xmlns="http://www.w3.org/2000/svg" d="  M41.3528,32.0865 C44.1098,36.5588 44.3085,41.4368 41.7998,42.9848 C41.7218,43.0305 41.6460,43.0725 41.5680,43.1123 C41.9827,42.8970 42.9570,42.2775 43.2157,42.1163 C45.7163,40.5638 45.5332,35.6933 42.8070,31.2398 C40.0792,26.7848 36.3428,24.5880 33.3413,25.9853 C32.9265,26.1788 32.2253,26.5373 31.9275,26.7210 C31.9013,26.7383 31.8750,26.7585 31.8473,26.7765 C34.3627,25.2668 38.6078,27.6338 41.3528,32.0865 Z" style="fill-rule: evenodd; fill: url(#grad1101); "/>
    <path xmlns="http://www.w3.org/2000/svg" d="  M41.4308,43.1767 C41.4585,43.1662 41.4968,43.1490 41.5403,43.1272 C41.4945,43.1475 41.4495,43.1670 41.4038,43.1857 L41.4308,43.1767 Z" style="fill-rule: evenodd; fill: #cd4f9d; "/>
    <defs xmlns="http://www.w3.org/2000/svg">
      <linearGradient id="grad1102">
        <stop offset="0%" stop-color="#da802d" stop-opacity="1.0000"/>
        <stop offset="100%" stop-color="#ffde62" stop-opacity="1.0000"/>
      </linearGradient>
    </defs>
    <path xmlns="http://www.w3.org/2000/svg" d="  M39.5940,43.4332 L39.6308,44.1405 C39.6428,44.3692 39.3510,44.6880 39.0038,44.5387 L38.6183,44.3175 L38.7105,51.3503 L38.0438,51.8003 L38.8320,53.0115 L38.8613,54.5175 L37.8360,55.0493 L38.9025,56.7795 L38.9505,58.7730 C38.9655,58.8375 38.0483,59.6228 38.0483,59.6228 L37.8360,59.3843 L37.6733,59.4900 L37.7228,59.9048 L37.3095,60.2198 L38.7698,59.2605 L39.0893,59.0190 L39.0803,58.9193 L39.4088,58.7423 C39.4088,58.7423 40.3200,57.9630 40.3185,57.8895 L40.2705,55.8990 L39.2288,54.2775 L40.2353,53.6415 L40.2105,52.1183 L39.5453,50.9475 L40.1768,50.4728 L40.0598,44.0625 L40.7760,43.6770 C40.7790,43.6770 40.7790,43.6770 40.7805,43.6755 C40.9448,43.6020 41.0400,43.4707 41.0460,43.3162 C40.5938,43.4505 40.1048,43.4858 39.5940,43.4332 Z" style="fill-rule: evenodd; fill: url(#grad1102); "/>
    <path xmlns="http://www.w3.org/2000/svg" d="  M41.0453,43.3170 C41.1683,43.2817 41.2883,43.2367 41.4045,43.1850 L41.0453,43.3155 C41.0453,43.3170 41.0453,43.3170 41.0453,43.3170 Z" style="fill-rule: evenodd; fill: #69bd45; "/>
    <path xmlns="http://www.w3.org/2000/svg" d="  M41.5680,43.1122 C41.5575,43.1182 41.5507,43.1212 41.5402,43.1272 C41.5507,43.1212 41.5582,43.1167 41.5680,43.1122 Z" style="fill-rule: evenodd; fill: #69bd45; "/>
    <defs xmlns="http://www.w3.org/2000/svg" xmlns:xlink="http://www.w3.org/1999/xlink">
      <linearGradient id="grad1103">
        <stop offset="0%" stop-color="#f8d16c" stop-opacity="1.0000"/>
        <stop offset="100%" stop-color="#fae9cf" stop-opacity="1.0000"/>
      </linearGradient>
      <linearGradient xlink:href="#grad1103" id="grad1104" x1="0" y1="0" x2="0" y2="1" gradientTransform="rotate(-0 .5 .5)" gradientUnits="objectBoundingBox">
  </linearGradient>
    </defs>
    <path xmlns="http://www.w3.org/2000/svg" d="  M39.5528,44.4367 L40.8270,43.6762 C40.8285,43.6762 40.8300,43.6747 40.8315,43.6747 C40.9973,43.5997 41.0910,43.4670 41.0970,43.3155 C40.6440,43.4475 40.1580,43.4827 39.6495,43.4355 C39.6495,43.4355 39.6420,43.8000 39.6360,44.0055 C39.6300,44.2110 39.5528,44.4367 39.5528,44.4367 Z" style="fill-rule: evenodd; fill: url(#grad1104); "/>
    <defs xmlns="http://www.w3.org/2000/svg" xmlns:xlink="http://www.w3.org/1999/xlink">
      <linearGradient id="grad1105">
        <stop offset="0%" stop-color="#da802d" stop-opacity="1.0000"/>
        <stop offset="100%" stop-color="#ffde62" stop-opacity="1.0000"/>
      </linearGradient>
      <linearGradient xlink:href="#grad1105" id="grad1106" x1="0" y1="0" x2="0" y2="1" gradientTransform="rotate(90 .5 .5)" gradientUnits="objectBoundingBox">
  </linearGradient>
    </defs>
    <path xmlns="http://www.w3.org/2000/svg" d="  M37.7258,59.8980 L37.6763,59.4847 L37.8420,59.3850 L38.0482,59.6205 C38.0482,59.6205 38.9610,58.8442 38.9610,58.7707 L38.9040,56.7772 L37.8375,55.0470 L38.8612,54.5152 L38.8335,53.0152 L38.0423,51.8010 L38.7922,51.3397 L38.6400,44.3115 L39.0270,44.5327 C39.3758,44.6820 39.6660,44.3625 39.6555,44.1345 L39.6173,43.4272 C40.4302,43.5105 41.1832,43.3732 41.8230,42.9788 C44.3325,41.4307 44.1330,36.5527 41.3760,32.0805 C38.6190,27.6097 34.3507,25.2397 31.8397,26.7870 C29.3287,28.3350 29.5297,33.2137 32.2867,37.6845 C32.9812,38.8110 33.7717,39.8040 34.6072,40.6350 L34.6147,42.0045 L34.6177,42.0045 L34.9282,56.4270 L35.0017,56.5972 L35.6640,57.9217 L36.3420,58.5240 C36.3420,58.5240 36.4837,58.6792 36.5235,58.7670 C36.6113,58.9590 36.5572,59.1667 36.5572,59.1667 L37.2780,60.1920 L37.7258,59.8980 Z M33.1237,37.1910 C30.7065,33.2692 30.3960,29.0745 32.4337,27.8190 C34.4670,26.5650 38.0760,28.7257 40.4932,32.6467 C42.9105,36.5685 43.2210,40.7632 41.1862,42.0187 C39.1515,43.2735 35.5417,41.1127 33.1237,37.1910 Z" style="fill-rule: evenodd; fill: url(#grad1106); "/>
    <defs xmlns="http://www.w3.org/2000/svg">
      <linearGradient id="grad1107">
        <stop offset="0%" stop-color="#bd6b23" stop-opacity="1.0000"/>
        <stop offset="100%" stop-color="#fcad35" stop-opacity="1.0000"/>
      </linearGradient>
    </defs>
    <path xmlns="http://www.w3.org/2000/svg" d="  M34.8255,42.2423 L34.9853,56.0017 L35.0010,56.6025 L35.6745,57.8947 L36.2655,58.4408 C36.2655,58.4408 36.4162,58.5803 36.4545,58.6665 C36.5452,58.8600 36.5513,59.1045 36.5513,59.1045 L37.3102,60.2220 L37.5840,60.0390 L37.7287,59.4518 L37.8345,59.3858 L38.0482,59.6228 C38.0482,59.6228 38.9535,58.8570 38.9535,58.7835 L38.9025,56.7795 L37.8360,55.0492 L38.8597,54.5160 L38.8335,53.0145 L38.0422,51.8018 L38.7442,51.3728 L38.6947,44.4810 L34.8255,42.2423 Z" style="fill-rule: evenodd; fill: url(#grad1107); "/>
    <defs xmlns="http://www.w3.org/2000/svg">
      <linearGradient id="grad1108">
        <stop offset="0%" stop-color="#f8d16c" stop-opacity="1.0000"/>
        <stop offset="100%" stop-color="#fae9cf" stop-opacity="1.0000"/>
      </linearGradient>
    </defs>
    <path xmlns="http://www.w3.org/2000/svg" d="  M40.2120,50.4847 L38.7457,51.3623 L38.6400,44.3122 C38.6400,44.3122 39.2625,44.6887 39.4605,44.5275 C39.6600,44.3647 40.0965,44.0760 40.0965,44.0760 L40.2120,50.4847 Z" style="fill-rule: evenodd; fill: url(#grad1108); "/>
    <defs xmlns="http://www.w3.org/2000/svg" xmlns:xlink="http://www.w3.org/1999/xlink">
      <linearGradient id="grad1109">
        <stop offset="0%" stop-color="#f8d16c" stop-opacity="1.0000"/>
        <stop offset="100%" stop-color="#dd7927" stop-opacity="1.0000"/>
      </linearGradient>
      <linearGradient xlink:href="#grad1109" id="grad1110" x1="0" y1="0" x2="0" y2="1" gradientTransform="rotate(180 .5 .5)" gradientUnits="objectBoundingBox">
  </linearGradient>
    </defs>
    <path xmlns="http://www.w3.org/2000/svg" d="  M32.2447,32.2507 C31.9050,30.5587 32.0970,29.3265 32.9947,28.7722 C33.2745,28.5997 33.4665,28.5817 33.8250,28.5825 C33.3870,29.2852 33.3472,30.3922 33.6007,31.6545 L32.2447,32.2507 Z" style="fill-rule: evenodd; fill: url(#grad1110); "/>
    <defs xmlns="http://www.w3.org/2000/svg" xmlns:xlink="http://www.w3.org/1999/xlink">
      <linearGradient id="grad1111">
        <stop offset="0%" stop-color="#f8d16c" stop-opacity="1.0000"/>
        <stop offset="100%" stop-color="#fae9cf" stop-opacity="1.0000"/>
      </linearGradient>
      <linearGradient xlink:href="#grad1111" id="grad1112" x1="0" y1="0" x2="0" y2="1" gradientTransform="rotate(315 .5 .5)" gradientUnits="objectBoundingBox">
  </linearGradient>
    </defs>
    <path xmlns="http://www.w3.org/2000/svg" d="  M40.2060,52.1400 L38.8320,53.0115 L38.8613,54.5145 L40.2308,53.6415 L40.2060,52.1400 Z" style="fill-rule: evenodd; fill: url(#grad1112); "/>
    <defs xmlns="http://www.w3.org/2000/svg">
      <linearGradient id="grad1113">
        <stop offset="0%" stop-color="#f8d16c" stop-opacity="1.0000"/>
        <stop offset="100%" stop-color="#fae9cf" stop-opacity="1.0000"/>
      </linearGradient>
    </defs>
    <path xmlns="http://www.w3.org/2000/svg" d="  M38.9025,56.7795 L40.2705,55.9095 L40.3567,57.9030 L38.9505,58.7873 L38.9025,56.7795 Z" style="fill-rule: evenodd; fill: url(#grad1113); "/>
    <defs xmlns="http://www.w3.org/2000/svg" xmlns:xlink="http://www.w3.org/1999/xlink">
      <linearGradient id="grad1114">
        <stop offset="0%" stop-color="#da802d" stop-opacity="1.0000"/>
        <stop offset="100%" stop-color="#ffefb4" stop-opacity="1.0000"/>
      </linearGradient>
      <linearGradient xlink:href="#grad1114" id="grad1115" x1="0" y1="0" x2="0" y2="1" gradientTransform="rotate(315 .5 .5)" gradientUnits="objectBoundingBox">
  </linearGradient>
    </defs>
    <path xmlns="http://www.w3.org/2000/svg" d="  M39.5685,43.2075 C40.3080,43.3568 41.1052,43.1648 41.7278,42.7853 C44.1802,41.2988 43.9500,36.5535 41.2177,32.1870 C38.4840,27.8220 34.2832,25.4880 31.8323,26.9760 C29.3812,28.4633 29.6100,33.2078 32.3422,37.5728 C33.0322,38.6730 32.8680,38.5853 34.6380,40.4573 C36.1133,42.1133 38.3940,43.1475 39.5685,43.2075 Z M33.1612,37.1003 C30.7650,33.2715 30.4320,29.1900 32.4187,27.9833 C34.4047,26.7773 37.9605,28.9035 40.3552,32.7323 C42.7515,36.5610 43.0845,40.6425 41.0962,41.8493 C39.1102,43.0553 35.5567,40.9283 33.1612,37.1003 Z" style="fill-rule: evenodd; fill: url(#grad1115); "/>
    <path xmlns="http://www.w3.org/2000/svg" d="  M41.2928,37.5090 C41.1315,36.8145 40.6410,35.0100 39.5805,33.2408 C38.1638,30.8768 36.1778,29.0872 34.5180,28.6838 C33.9083,28.5353 33.3960,28.5862 32.9918,28.8352 C32.7705,28.9725 32.5860,29.1690 32.4428,29.4202 C32.0723,30.0780 31.9943,31.1168 32.2275,32.3415 C32.2305,32.3520 32.2365,32.3692 32.2448,32.3895 L41.2928,37.5090 Z M31.4640,28.6508 C31.6943,28.2465 31.9943,27.9277 32.3588,27.7020 C34.4565,26.4098 38.1578,28.5960 40.6118,32.5740 C42.5805,35.7690 43.2150,39.3105 42.1530,41.1885 C41.9243,41.5928 41.6228,41.9123 41.2583,42.1365 C40.8450,42.3930 40.3605,42.5190 39.8198,42.5130 L39.7658,44.1128 C39.7703,44.1585 39.7748,44.3295 39.6893,44.4803 C39.6495,44.5493 39.5985,44.6033 39.5325,44.6445 C39.2363,44.8260 38.7765,44.5710 38.7255,44.5402 L37.4318,43.8075 L37.6118,59.6033 C37.6163,59.9400 37.5983,59.9693 37.5825,60.0000 C37.5578,60.0428 37.5105,60.0720 37.4625,60.0735 C37.4025,60.0735 37.3305,60.0563 37.1903,59.8335 C37.0493,59.6445 36.7058,59.1623 36.6848,58.9680 C36.6645,58.7513 36.2948,44.4413 36.2603,43.1070 L35.8005,42.8490 L35.9678,57.1778 C35.9678,57.1853 35.9678,57.1913 35.9663,57.1980 C35.9663,57.2115 35.9648,57.2768 35.9678,57.5558 C35.9678,57.5940 35.9618,57.6263 35.9460,57.6540 C35.9213,57.6983 35.8643,57.7320 35.8125,57.7305 C35.7435,57.7290 35.6715,57.7275 35.4173,57.2340 L35.0498,56.5253 C35.0392,56.5065 35.0340,56.4855 35.0340,56.4638 L34.6740,39.5010 C34.0673,38.8260 33.5078,38.0730 33.0083,37.2660 C31.0373,34.0695 30.4035,30.5295 31.4640,28.6508 Z" style="fill-rule: evenodd; fill: #f9ecb9; "/>
    <defs xmlns="http://www.w3.org/2000/svg" xmlns:xlink="http://www.w3.org/1999/xlink">
      <linearGradient id="grad1116">
        <stop offset="0%" stop-color="#eb9131" stop-opacity="1.0000"/>
        <stop offset="100%" stop-color="#fdd561" stop-opacity="1.0000"/>
      </linearGradient>
      <linearGradient xlink:href="#grad1116" id="grad1117" x1="0" y1="0" x2="0" y2="1" gradientTransform="rotate(90 .5 .5)" gradientUnits="objectBoundingBox">
  </linearGradient>
    </defs>
    <path xmlns="http://www.w3.org/2000/svg" d="  M37.4595,59.9347 C37.4783,59.9347 37.4745,59.6062 37.4745,59.6062 L37.2900,43.5675 L38.7945,44.4218 C38.7945,44.4218 39.2265,44.6708 39.4612,44.5275 C39.6563,44.4060 39.6285,44.1157 39.6285,44.1157 L39.6870,42.3712 C40.2405,42.3990 40.7505,42.2895 41.1870,42.0195 C43.2218,40.7640 42.9113,36.5685 40.4940,32.6475 C38.0768,28.7265 34.4678,26.5657 32.4345,27.8197 C30.3968,29.0745 30.7073,33.2700 33.1245,37.1918 C33.6413,38.0295 34.2113,38.7855 34.8105,39.4463 L35.1705,56.4622 L35.5395,57.1710 C35.5395,57.1710 35.8313,57.7365 35.8298,57.5580 C35.8238,57.1800 35.8298,57.1800 35.8298,57.1800 L35.6610,42.6105 L36.3975,43.0267 C36.3975,43.0267 36.8003,58.7355 36.8220,58.9537 C36.8408,59.1322 37.3065,59.7592 37.3065,59.7592 C37.3065,59.7592 37.4153,59.9362 37.4595,59.9347 Z M32.1375,32.4878 C32.1375,32.4878 32.0993,32.4112 32.0903,32.3677 C31.7648,30.6510 32.0213,29.2710 32.9183,28.7175 C34.5150,27.7327 37.5015,29.7795 39.5865,33.2587 C40.9620,35.5515 41.2275,37.6140 41.2275,37.6140 L32.1375,32.4878 Z" style="fill-rule: evenodd; fill: url(#grad1117); "/>
    <path xmlns="http://www.w3.org/2000/svg" d="  M32.2650,29.2665 C32.4188,28.9943 32.6198,28.7813 32.8613,28.6320 C33.2978,28.3635 33.8468,28.3058 34.4933,28.4640 C36.1868,28.8765 38.2065,30.6908 39.6405,33.0840 C40.7115,34.8698 41.2080,36.6923 41.3723,37.3920 L41.4428,37.6980 L32.0790,32.4015 L32.0603,32.3588 C32.0415,32.3145 32.0370,32.2958 32.0340,32.2823 C31.7948,31.0245 31.8765,29.9535 32.2650,29.2665 Z M41.0250,37.1460 C40.8098,36.3173 40.3215,34.7565 39.4050,33.2258 C38.0048,30.8925 36.0533,29.1285 34.4273,28.7318 C33.8558,28.5923 33.3788,28.6380 33.0075,28.8668 C32.8050,28.9913 32.6355,29.1720 32.5050,29.4023 C32.1503,30.0285 32.0805,31.0253 32.3018,32.2103 L41.0250,37.1460 Z" style="fill-rule: evenodd; fill: #ba6426; "/>
    <defs xmlns="http://www.w3.org/2000/svg" xmlns:xlink="http://www.w3.org/1999/xlink">
      <linearGradient id="grad1118">
        <stop offset="0%" stop-color="#da802d" stop-opacity="1.0000"/>
        <stop offset="100%" stop-color="#ffefb4" stop-opacity="1.0000"/>
      </linearGradient>
      <linearGradient xlink:href="#grad1118" id="grad1119" x1="0" y1="0" x2="0" y2="1" gradientTransform="rotate(45 .5 .5)" gradientUnits="objectBoundingBox">
  </linearGradient>
    </defs>
    <path xmlns="http://www.w3.org/2000/svg" d="  M32.1668,32.5050 L36.7605,35.0888 L41.1713,42.0113 C43.2510,40.7805 42.9405,36.5843 40.5240,32.6640 C38.1067,28.7423 34.4977,26.5815 32.4615,27.8355 C31.5548,28.3950 31.1243,29.5380 31.1168,30.9810 C31.1168,31.2023 32.1323,32.4983 32.1323,32.4983 Z M32.2110,32.5155 C32.2110,32.5155 32.1308,32.4278 32.1218,32.3850 C31.7948,30.6668 32.0513,29.2875 32.9505,28.7333 C34.5458,27.7485 37.5307,29.7960 39.6173,33.2745 C40.9898,35.5673 41.2582,37.6298 41.2582,37.6298 L32.2110,32.5155 Z" style="fill-rule: evenodd; fill: url(#grad1119); "/>
    <defs xmlns="http://www.w3.org/2000/svg" xmlns:xlink="http://www.w3.org/1999/xlink">
      <linearGradient id="grad1120">
        <stop offset="0%" stop-color="#f8d16c" stop-opacity="1.0000"/>
        <stop offset="100%" stop-color="#ffffff" stop-opacity="1.0000"/>
      </linearGradient>
      <linearGradient xlink:href="#grad1120" id="grad1121" x1="0" y1="0" x2="0" y2="1" gradientTransform="rotate(90 .5 .5)" gradientUnits="objectBoundingBox">
  </linearGradient>
    </defs>
    <path xmlns="http://www.w3.org/2000/svg" d="  M41.3753,37.5090 L40.1505,38.3542 L33.2625,34.4123 L32.0453,32.2493 L41.3753,37.5090 Z" style="fill-rule: evenodd; fill: url(#grad1121); "/>
    <path xmlns="http://www.w3.org/2000/svg" d="  M38.6152,44.4847 L38.6152,44.6737 L37.6252,44.1187 L37.7287,59.4862 L37.6163,59.9332 L37.4347,43.8180 L38.6152,44.4847 Z" style="fill-rule: evenodd; fill: #99501f; "/>
    <path xmlns="http://www.w3.org/2000/svg" d="  M35.7645,42.7095 L35.8995,42.7988 L35.8995,42.7973 L36.2610,43.0358 L36.1867,43.1520 L35.9040,42.9675 L36.0502,57.1793 L35.9670,57.5760 L35.7645,42.7095 Z" style="fill-rule: evenodd; fill: #99501f; "/>
    <defs xmlns="http://www.w3.org/2000/svg" xmlns:xlink="http://www.w3.org/1999/xlink">
      <linearGradient id="grad1122">
        <stop offset="0%" stop-color="#eb9131" stop-opacity="1.0000"/>
        <stop offset="100%" stop-color="#fdd561" stop-opacity="1.0000"/>
      </linearGradient>
      <linearGradient xlink:href="#grad1122" id="grad1123" x1="0" y1="0" x2="0" y2="1" gradientTransform="rotate(225 .5 .5)" gradientUnits="objectBoundingBox">
  </linearGradient>
    </defs>
    <path xmlns="http://www.w3.org/2000/svg" d="  M40.3568,57.9030 L38.9505,58.7873 L38.0483,59.6228 L39.4088,58.7408 L40.3568,57.9030 Z" style="fill-rule: evenodd; fill: url(#grad1123); "/>
    <!--converted by libvisio2svg-->
  </g>
</svg>
