<svg xmlns="http://www.w3.org/2000/svg" xmlns:xlink="http://www.w3.org/1999/xlink" version="1.1" width="0.7569000000" height="0.7753000000" viewBox="0 0 54.4957 55.8225">
  <title><![CDATA[Edge Array Server]]></title>
  <g transform=" scale(1.000000) ">
    <path xmlns="http://www.w3.org/2000/svg" d="  M54.4957,50.2147 L51.5542,44.6527 L48.5700,39.0630 L47.6325,39.6638 C47.6220,39.6622 47.6137,39.6585 47.6033,39.6607 C47.5650,39.6712 47.5388,39.7050 47.5388,39.7440 L47.5388,41.9595 L35.6190,35.1097 L35.6190,31.4572 L34.2682,31.8053 C34.2405,31.7947 34.2112,31.7963 34.1880,31.8142 L31.1062,34.0320 L28.0230,36.2505 C27.9877,36.2752 27.9772,36.3233 27.9982,36.3600 L31.0800,42.1373 L34.1617,47.9145 C34.1805,47.9497 34.2202,47.9670 34.2585,47.9580 C34.2847,47.9513 34.3028,47.9310 34.3125,47.9062 L35.6190,46.9298 L35.6310,45.1395 L37.5645,46.2555 L40.9335,48.2018 C40.9410,48.2063 40.9485,48.2092 40.9568,48.2107 L44.2568,50.1165 L47.5365,52.0103 L47.5365,53.8485 L47.5380,55.7362 C47.5380,55.7685 47.5553,55.7977 47.5852,55.8127 C47.5973,55.8195 47.6100,55.8225 47.6235,55.8225 C47.6422,55.8225 47.6603,55.8165 47.6745,55.8067 L50.7562,53.5883 L53.8380,51.3697 C53.8515,51.3607 54.4725,50.2807 54.4785,50.2680 L54.4957,50.2147 Z" style="stroke-width: 1.5000; stroke: #8d98b5; stroke-dasharray: none; stroke-linecap: butt; stroke-linejoin: miter; fill: none; "/>
    <path xmlns="http://www.w3.org/2000/svg" d="  M29.3340,5.5425 L20.1128,0.0000 L0.0000,11.5620 L0.0000,40.5150 L0.4448,40.7760 C1.6410,42.3053 4.1182,43.7625 6.8527,44.5395 L10.4145,46.6305 L29.3347,35.7653 L29.3347,33.6262 L29.3333,33.5985 L28.9215,33.4042 L29.3347,33.1680 L29.3347,31.4288 L29.3333,31.4018 L28.9215,31.2068 L29.3347,30.9705 L29.3347,29.2313 L29.3333,29.2050 L28.9507,29.0242 L29.3347,28.8053 L29.3347,5.5688 L29.3347,5.5425 L29.3340,5.5425 Z" style="stroke-width: 1.5000; stroke: #8d98b5; stroke-dasharray: none; stroke-linecap: butt; stroke-linejoin: miter; fill: none; "/>
    <path xmlns="http://www.w3.org/2000/svg" d="  M17.8267,35.8410 L29.3325,29.2028 L28.9507,29.0220 L17.8267,35.3730 L17.8267,35.8410 Z" style="fill-rule: evenodd; fill: #3f3f3f; "/>
    <path xmlns="http://www.w3.org/2000/svg" d="  M17.8267,38.0385 L29.3325,31.4002 L28.9215,31.2052 L17.8267,37.5705 L17.8267,38.0385 Z" style="fill-rule: evenodd; fill: #3f3f3f; "/>
    <path xmlns="http://www.w3.org/2000/svg" d="  M17.8267,40.2360 L29.3325,33.5977 L28.9215,33.4035 L17.8267,39.7680 L17.8267,40.2360 Z" style="fill-rule: evenodd; fill: #3f3f3f; "/>
    <defs xmlns="http://www.w3.org/2000/svg" xmlns:xlink="http://www.w3.org/1999/xlink">
      <linearGradient id="grad1227">
        <stop offset="0%" stop-color="#646c6b" stop-opacity="1.0000"/>
        <stop offset="100%" stop-color="#dae1e1" stop-opacity="1.0000"/>
      </linearGradient>
      <linearGradient xlink:href="#grad1227" id="grad1228" x1="0" y1="0" x2="0" y2="1" gradientTransform="rotate(90 .5 .5)" gradientUnits="objectBoundingBox">
  </linearGradient>
    </defs>
    <path xmlns="http://www.w3.org/2000/svg" d="  M10.4137,16.6260 L0.0000,11.5620 L0.0000,40.5150 L0.4447,40.7760 C0.3495,40.6538 0.2603,40.5300 0.1807,40.4070 L0.1807,27.8100 L0.1807,24.9997 L0.1807,18.9885 L0.1807,12.9270 L9.5955,17.5815 C9.5955,17.5815 9.6322,17.5852 9.6502,17.5875 L9.6502,23.6895 L9.6502,29.6595 L9.6502,32.6445 L9.6502,45.0653 C8.7142,44.9820 7.7692,44.7975 6.8527,44.5380 L10.4145,46.6290 L10.4145,16.6260 L10.4137,16.6260 Z" style="fill-rule: evenodd; fill: url(#grad1228); "/>
    <defs xmlns="http://www.w3.org/2000/svg" xmlns:xlink="http://www.w3.org/1999/xlink">
      <linearGradient id="grad1229">
        <stop offset="0%" stop-color="#85919c" stop-opacity="0.9882"/>
        <stop offset="100%" stop-color="#dadfe1" stop-opacity="0.9882"/>
      </linearGradient>
      <linearGradient xlink:href="#grad1229" id="grad1230" x1="0" y1="0" x2="0" y2="1" gradientTransform="rotate(90 .5 .5)" gradientUnits="objectBoundingBox">
  </linearGradient>
    </defs>
    <path xmlns="http://www.w3.org/2000/svg" d="  M9.2520,32.6392 C9.2520,32.6865 9.1972,32.7255 9.1252,32.7255 C9.1200,32.7255 9.1065,32.7255 9.1065,32.7255 C6.2970,32.7675 2.6295,31.4910 0.5595,28.3222 C0.4185,28.1505 0.2902,27.9795 0.1815,27.8092 L0.1815,40.4055 C0.2602,40.5285 0.3502,40.6522 0.4455,40.7745 C1.6417,42.3037 4.1190,43.7610 6.8535,44.5380 C7.7707,44.7975 8.7150,44.9820 9.6510,45.0652 L9.6510,32.6452 C9.5137,32.6317 9.3765,32.6175 9.2385,32.6002 C9.2460,32.6130 9.2520,32.6265 9.2520,32.6392 Z M8.9715,43.5022 C8.8192,43.9845 8.0212,44.1622 7.1917,43.8997 C6.3615,43.6357 5.8125,43.0320 5.9647,42.5497 C6.1177,42.0667 6.9142,41.8890 7.7445,42.1522 C8.5740,42.4147 9.1237,43.0192 8.9715,43.5022 Z M9.1252,41.5702 C9.1200,41.5702 9.1065,41.5702 9.1065,41.5702 C6.1920,41.6145 2.3550,40.2390 0.3337,36.8047 C0.1875,36.5632 0.3615,36.5850 0.3615,36.5850 C1.6410,38.7502 5.4150,41.0227 9.0562,41.3887 C9.0727,41.3910 9.1252,41.3947 9.1320,41.3947 C9.2032,41.3947 9.2527,41.4382 9.2527,41.4840 C9.2520,41.5320 9.1965,41.5702 9.1252,41.5702 Z M9.1252,38.6220 C9.1200,38.6220 9.1065,38.6220 9.1065,38.6220 C6.1920,38.6662 2.3550,37.2907 0.3337,33.8572 C0.1875,33.6150 0.3615,33.6375 0.3615,33.6375 C1.6410,35.8027 5.4150,38.0752 9.0562,38.4412 C9.0727,38.4427 9.1252,38.4465 9.1320,38.4465 C9.2032,38.4465 9.2527,38.4900 9.2527,38.5357 C9.2520,38.5830 9.1965,38.6220 9.1252,38.6220 Z M9.1252,35.6737 C9.1200,35.6737 9.1065,35.6745 9.1065,35.6745 C6.1920,35.7180 2.3550,34.3432 0.3337,30.9090 C0.1875,30.6667 0.3615,30.6892 0.3615,30.6892 C1.6410,32.8537 5.4150,35.1262 9.0562,35.4922 C9.0727,35.4945 9.1252,35.4982 9.1320,35.4982 C9.2032,35.4982 9.2527,35.5410 9.2527,35.5875 C9.2527,35.6340 9.1965,35.6737 9.1252,35.6737 Z" style="fill-rule: evenodd; fill: url(#grad1230); "/>
    <defs xmlns="http://www.w3.org/2000/svg" xmlns:xlink="http://www.w3.org/1999/xlink">
      <linearGradient id="grad1231">
        <stop offset="0%" stop-color="#85919c" stop-opacity="0.9882"/>
        <stop offset="100%" stop-color="#dadfe1" stop-opacity="0.9882"/>
      </linearGradient>
      <linearGradient xlink:href="#grad1231" id="grad1232" x1="0" y1="0" x2="0" y2="1" gradientTransform="rotate(90 .5 .5)" gradientUnits="objectBoundingBox">
  </linearGradient>
    </defs>
    <path xmlns="http://www.w3.org/2000/svg" d="  M9.0555,23.7000 C9.0720,23.7015 9.1245,23.7053 9.1312,23.7053 C9.2025,23.7053 9.2520,23.7488 9.2520,23.7953 C9.2520,23.8418 9.1972,23.8808 9.1252,23.8808 C9.1200,23.8808 9.1065,23.8808 9.1065,23.8808 C6.3367,23.9235 2.7345,22.6808 0.6495,19.6110 C0.4710,19.4055 0.3142,19.1978 0.1815,18.9892 L0.1815,25.0005 C0.3907,25.3290 0.6645,25.6568 0.9892,25.9770 C0.7545,25.6755 0.5355,25.3545 0.3337,25.0133 C0.1875,24.7710 0.3615,24.7935 0.3615,24.7935 C1.2367,26.2733 3.2775,27.8033 5.6430,28.7400 C6.7567,29.1488 7.9440,29.4518 9.1275,29.6018 C9.1282,29.6025 9.1305,29.6025 9.1320,29.6025 C9.1380,29.6025 9.1425,29.6033 9.1477,29.6048 C9.2970,29.6235 9.4470,29.6408 9.5962,29.6543 C9.6142,29.6558 9.6330,29.6588 9.6510,29.6603 L9.6510,23.6903 C7.5472,23.5013 5.3940,22.8030 3.6307,21.8610 C5.2267,22.8008 7.1587,23.5088 9.0555,23.7000 Z M9.1252,26.8290 C9.1200,26.8290 9.1065,26.8290 9.1065,26.8290 C6.1920,26.8725 2.3550,25.4970 0.3337,22.0635 C0.1875,21.8220 0.3615,21.8445 0.3615,21.8445 C1.6410,24.0090 5.4150,26.2815 9.0562,26.6475 C9.0727,26.6498 9.1252,26.6528 9.1320,26.6528 C9.2032,26.6528 9.2527,26.6963 9.2527,26.7428 C9.2527,26.7893 9.1965,26.8290 9.1252,26.8290 Z" style="fill-rule: evenodd; fill: url(#grad1232); "/>
    <defs xmlns="http://www.w3.org/2000/svg" xmlns:xlink="http://www.w3.org/1999/xlink">
      <linearGradient id="grad1233">
        <stop offset="0%" stop-color="#c8d8dd" stop-opacity="0.9882"/>
        <stop offset="100%" stop-color="#f3f9f7" stop-opacity="0.9882"/>
      </linearGradient>
      <linearGradient xlink:href="#grad1233" id="grad1234" x1="0" y1="0" x2="0" y2="1" gradientTransform="rotate(90 .5 .5)" gradientUnits="objectBoundingBox">
  </linearGradient>
    </defs>
    <path xmlns="http://www.w3.org/2000/svg" d="  M9.5955,29.6542 C9.4470,29.6400 9.2970,29.6235 9.1470,29.6047 C9.2085,29.6107 9.2520,29.6490 9.2520,29.6925 C9.2520,29.7390 9.1972,29.7772 9.1252,29.7772 C9.1200,29.7772 9.1065,29.7772 9.1065,29.7772 C6.4822,29.8170 3.1102,28.7047 0.9892,25.9762 C0.6637,25.6560 0.3907,25.3282 0.1815,24.9997 L0.1815,27.8100 C0.2902,27.9802 0.4177,28.1512 0.5595,28.3230 C0.4822,28.2045 0.4065,28.0852 0.3337,27.9615 C0.1875,27.7192 0.3615,27.7417 0.3615,27.7417 C1.1265,29.0355 2.7832,30.3675 4.7707,31.3095 C5.7217,31.7595 6.7477,32.1195 7.7880,32.3430 C8.2102,32.4337 8.6332,32.5020 9.0555,32.5455 C9.0720,32.5462 9.1245,32.5507 9.1312,32.5507 C9.1807,32.5507 9.2190,32.5725 9.2385,32.6010 C9.3765,32.6175 9.5137,32.6325 9.6510,32.6460 L9.6510,29.6610 C9.6315,29.6587 9.6135,29.6557 9.5955,29.6542 Z" style="fill-rule: evenodd; fill: url(#grad1234); "/>
    <defs xmlns="http://www.w3.org/2000/svg" xmlns:xlink="http://www.w3.org/1999/xlink">
      <linearGradient id="grad1235">
        <stop offset="0%" stop-color="#bdd1dd" stop-opacity="0.9882"/>
        <stop offset="100%" stop-color="#f3f9f7" stop-opacity="0.9882"/>
      </linearGradient>
      <linearGradient xlink:href="#grad1235" id="grad1236" x1="0" y1="0" x2="0" y2="1" gradientTransform="rotate(90 .5 .5)" gradientUnits="objectBoundingBox">
  </linearGradient>
    </defs>
    <path xmlns="http://www.w3.org/2000/svg" d="  M9.5955,17.5822 L0.1807,12.9277 L0.1807,18.9892 C0.3135,19.1977 0.4702,19.4047 0.6487,19.6110 C0.5392,19.4512 0.4327,19.2877 0.3330,19.1167 C0.1867,18.8745 0.3607,18.8970 0.3607,18.8970 C0.9735,19.9342 2.1600,20.9962 3.6292,21.8610 C5.3932,22.8030 7.5465,23.5020 9.6495,23.6902 L9.6495,17.5882 C9.6315,17.5860 9.5955,17.5822 9.5955,17.5822 Z M0.5002,13.7325 L9.3637,18.1140 C4.9680,20.5440 0.6682,16.6260 0.5002,13.7325 Z" style="fill-rule: evenodd; fill: url(#grad1236); "/>
    <path xmlns="http://www.w3.org/2000/svg" d="  M9.1305,41.3955 C9.1237,41.3955 9.0720,41.3917 9.0547,41.3895 C5.4142,41.0235 1.6395,38.7502 0.3600,36.5857 C0.3600,36.5857 0.1860,36.5640 0.3322,36.8055 C2.3535,40.2390 6.1912,41.6145 9.1050,41.5710 C9.1050,41.5710 9.1192,41.5710 9.1237,41.5710 C9.1957,41.5710 9.2505,41.5320 9.2505,41.4855 C9.2520,41.4390 9.2017,41.3955 9.1305,41.3955 Z" style="fill-rule: evenodd; fill: #000000; "/>
    <path xmlns="http://www.w3.org/2000/svg" d="  M9.1305,38.4465 C9.1237,38.4465 9.0720,38.4427 9.0547,38.4412 C5.4142,38.0752 1.6395,35.8020 0.3600,33.6375 C0.3600,33.6375 0.1860,33.6150 0.3322,33.8572 C2.3535,37.2900 6.1912,38.6655 9.1050,38.6220 C9.1050,38.6220 9.1192,38.6220 9.1237,38.6220 C9.1957,38.6220 9.2505,38.5830 9.2505,38.5365 C9.2520,38.4900 9.2017,38.4465 9.1305,38.4465 Z" style="fill-rule: evenodd; fill: #000000; "/>
    <path xmlns="http://www.w3.org/2000/svg" d="  M9.1305,35.4990 C9.1237,35.4990 9.0720,35.4952 9.0547,35.4930 C5.4142,35.1270 1.6395,32.8537 0.3600,30.6900 C0.3600,30.6900 0.1860,30.6675 0.3322,30.9097 C2.3535,34.3432 6.1912,35.7180 9.1050,35.6752 C9.1050,35.6752 9.1192,35.6745 9.1237,35.6745 C9.1957,35.6745 9.2505,35.6355 9.2505,35.5890 C9.2505,35.5425 9.2017,35.4990 9.1305,35.4990 Z" style="fill-rule: evenodd; fill: #000000; "/>
    <path xmlns="http://www.w3.org/2000/svg" d="  M9.2377,32.6002 C8.7532,32.5410 8.2687,32.4540 7.7872,32.3422 C6.7462,32.1187 5.7202,31.7587 4.7700,31.3087 C2.7832,30.3667 1.1257,29.0347 0.3607,27.7410 C0.3607,27.7410 0.1867,27.7185 0.3330,27.9607 C0.4057,28.0845 0.4815,28.2037 0.5587,28.3222 C2.6295,31.4910 6.2962,32.7675 9.1057,32.7255 C9.1057,32.7255 9.1200,32.7255 9.1245,32.7255 C9.1965,32.7255 9.2512,32.6857 9.2512,32.6392 C9.2520,32.6265 9.2460,32.6130 9.2377,32.6002 Z" style="fill-rule: evenodd; fill: #000000; "/>
    <path xmlns="http://www.w3.org/2000/svg" d="  M9.1470,29.6040 C9.1402,29.6025 9.1327,29.6017 9.1267,29.6010 C9.1147,29.6010 9.0712,29.5980 9.0555,29.5957 C7.9035,29.4802 6.7380,29.1735 5.6422,28.7392 C3.2767,27.8017 1.2360,26.2725 0.3607,24.7928 C0.3607,24.7928 0.1867,24.7703 0.3330,25.0125 C0.5347,25.3538 0.7545,25.6740 0.9885,25.9763 C3.1095,28.7047 6.4815,29.8170 9.1057,29.7772 C9.1057,29.7772 9.1200,29.7772 9.1245,29.7772 C9.1965,29.7772 9.2512,29.7382 9.2512,29.6925 C9.2520,29.6482 9.2085,29.6100 9.1470,29.6040 Z" style="fill-rule: evenodd; fill: #000000; "/>
    <path xmlns="http://www.w3.org/2000/svg" d="  M9.1305,23.7053 C9.1237,23.7053 9.0720,23.7015 9.0547,23.7000 C7.1587,23.5095 5.2267,22.8008 3.6292,21.8603 C2.1600,20.9955 0.9735,19.9335 0.3607,18.8963 C0.3607,18.8963 0.1867,18.8738 0.3330,19.1160 C0.4327,19.2870 0.5392,19.4498 0.6487,19.6103 C2.7337,22.6808 6.3360,23.9228 9.1057,23.8800 C9.1057,23.8800 9.1200,23.8800 9.1245,23.8800 C9.1965,23.8800 9.2512,23.8410 9.2512,23.7945 C9.2520,23.7488 9.2017,23.7053 9.1305,23.7053 Z" style="fill-rule: evenodd; fill: #000000; "/>
    <path xmlns="http://www.w3.org/2000/svg" d="  M9.1305,26.6535 C9.1237,26.6535 9.0720,26.6505 9.0547,26.6482 C5.4142,26.2822 1.6395,24.0097 0.3600,21.8452 C0.3600,21.8452 0.1860,21.8227 0.3322,22.0642 C2.3535,25.4977 6.1912,26.8725 9.1050,26.8297 C9.1050,26.8297 9.1192,26.8297 9.1237,26.8297 C9.1957,26.8297 9.2505,26.7900 9.2505,26.7435 C9.2505,26.6970 9.2017,26.6535 9.1305,26.6535 Z" style="fill-rule: evenodd; fill: #000000; "/>
    <defs xmlns="http://www.w3.org/2000/svg">
      <linearGradient id="grad1237">
        <stop offset="0%" stop-color="#646c6b" stop-opacity="1.0000"/>
        <stop offset="100%" stop-color="#dae1e1" stop-opacity="1.0000"/>
      </linearGradient>
    </defs>
    <path xmlns="http://www.w3.org/2000/svg" d="  M7.7445,42.1522 C6.9142,41.8890 6.1177,42.0675 5.9647,42.5497 C5.8125,43.0320 6.3607,43.6357 7.1917,43.8997 C8.0212,44.1622 8.8192,43.9837 8.9715,43.5022 C9.1237,43.0192 8.5740,42.4147 7.7445,42.1522 Z M8.3715,43.7662 C8.0625,44.0565 7.5300,43.9905 7.1805,43.6200 C7.0687,43.5000 6.9885,43.3620 6.9435,43.2225 C6.9127,43.1310 6.8977,43.0387 6.8970,42.9480 C6.8940,42.7470 6.9637,42.5572 7.1070,42.4222 C7.4152,42.1327 7.9477,42.1980 8.2972,42.5700 C8.6467,42.9405 8.6797,43.4760 8.3715,43.7662 Z" style="fill-rule: evenodd; fill: url(#grad1237); "/>
    <path xmlns="http://www.w3.org/2000/svg" d="  M7.1070,42.4215 C6.9637,42.5572 6.8940,42.7470 6.8970,42.9472 C6.9030,42.8047 6.9555,42.6720 7.0597,42.5745 C7.1422,42.4965 7.2465,42.4522 7.3590,42.4387 C7.5817,42.3832 7.8450,42.4605 8.0332,42.6607 C8.2897,42.9330 8.3107,43.3312 8.0850,43.5585 C8.0692,43.5780 8.0542,43.5960 8.0362,43.6125 C7.7977,43.8375 7.3860,43.7865 7.1167,43.4992 C7.0365,43.4152 6.9787,43.3200 6.9427,43.2217 C6.9885,43.3620 7.0680,43.4992 7.1797,43.6192 C7.5292,43.9897 8.0617,44.0557 8.3707,43.7655 C8.6790,43.4752 8.6460,42.9390 8.2965,42.5685 C7.9477,42.1972 7.4152,42.1320 7.1070,42.4215 Z" style="fill-rule: evenodd; fill: #000000; "/>
    <defs xmlns="http://www.w3.org/2000/svg">
      <radialGradient id="grad1238" cx="50.0000%" cy="50.0000%" r="100.0000%">
        <stop offset="0%" stop-color="#ccff66" stop-opacity="1.0000"/>
        <stop offset="100%" stop-color="#7ab04a" stop-opacity="1.0000"/>
      </radialGradient>
    </defs>
    <path xmlns="http://www.w3.org/2000/svg" d="  M8.0362,43.6132 C8.0542,43.5967 8.0700,43.5787 8.0850,43.5592 C8.3107,43.3312 8.2890,42.9337 8.0332,42.6615 C7.8450,42.4612 7.5810,42.3840 7.3590,42.4395 C7.2465,42.4530 7.1422,42.4965 7.0597,42.5752 C6.9555,42.6727 6.9030,42.8055 6.8970,42.9480 C6.8977,43.0387 6.9127,43.1310 6.9435,43.2225 C6.9802,43.3207 7.0372,43.4160 7.1175,43.5000 C7.3860,43.7872 7.7977,43.8382 8.0362,43.6132 Z" style="fill-rule: evenodd; fill: url(#grad1238); "/>
    <defs xmlns="http://www.w3.org/2000/svg" xmlns:xlink="http://www.w3.org/1999/xlink">
      <linearGradient id="grad1239">
        <stop offset="0%" stop-color="#7f8787" stop-opacity="1.0000"/>
        <stop offset="100%" stop-color="#f3f9f7" stop-opacity="1.0000"/>
      </linearGradient>
      <linearGradient xlink:href="#grad1239" id="grad1240" x1="0" y1="0" x2="0" y2="1" gradientTransform="rotate(315 .5 .5)" gradientUnits="objectBoundingBox">
  </linearGradient>
    </defs>
    <path xmlns="http://www.w3.org/2000/svg" d="  M0.5002,13.7325 C0.6690,16.6260 4.9680,20.5440 9.3637,18.1140 L0.5002,13.7325 Z M2.1990,14.6843 L7.8652,17.4615 C5.0002,18.8827 2.2725,16.4460 2.1990,14.6843 Z" style="fill-rule: evenodd; fill: url(#grad1240); "/>
    <defs xmlns="http://www.w3.org/2000/svg">
      <radialGradient id="grad1241" cx="50.0000%" cy="50.0000%" r="100.0000%">
        <stop offset="0%" stop-color="#a7e968" stop-opacity="1.0000"/>
        <stop offset="100%" stop-color="#000000" stop-opacity="1.0000"/>
      </radialGradient>
    </defs>
    <path xmlns="http://www.w3.org/2000/svg" d="  M2.1990,14.6842 C2.2725,16.4460 4.9995,18.8827 7.8652,17.4615 L2.1990,14.6842 Z" style="fill-rule: evenodd; fill: url(#grad1241); "/>
    <defs xmlns="http://www.w3.org/2000/svg" xmlns:xlink="http://www.w3.org/1999/xlink">
      <linearGradient id="grad1242">
        <stop offset="0%" stop-color="#7f8787" stop-opacity="1.0000"/>
        <stop offset="100%" stop-color="#dae1e1" stop-opacity="1.0000"/>
      </linearGradient>
      <linearGradient xlink:href="#grad1242" id="grad1243" x1="0" y1="0" x2="0" y2="1" gradientTransform="rotate(45 .5 .5)" gradientUnits="objectBoundingBox">
  </linearGradient>
    </defs>
    <path xmlns="http://www.w3.org/2000/svg" d="  M10.4392,16.6020 L10.4220,16.5945 L10.4220,46.4385 L29.3340,35.7637 L29.3340,33.6255 L17.8267,40.2360 L17.8267,39.7680 L28.9215,33.4035 L29.3340,33.1665 L29.3340,31.4272 L17.8267,38.0385 L17.8267,37.5705 L28.9215,31.2052 L29.3340,30.9690 L29.3340,29.2290 L17.8267,35.8410 L17.8267,35.3730 L28.9507,29.0220 L29.3340,28.8030 L29.3340,5.5687 L26.7952,7.0282 L10.4392,16.6020 Z" style="fill-rule: evenodd; fill: url(#grad1243); "/>
    <defs xmlns="http://www.w3.org/2000/svg" xmlns:xlink="http://www.w3.org/1999/xlink">
      <linearGradient id="grad1244">
        <stop offset="0%" stop-color="#7f8787" stop-opacity="1.0000"/>
        <stop offset="100%" stop-color="#f3f9f7" stop-opacity="1.0000"/>
      </linearGradient>
      <linearGradient xlink:href="#grad1244" id="grad1245" x1="0" y1="0" x2="0" y2="1" gradientTransform="rotate(90 .5 .5)" gradientUnits="objectBoundingBox">
  </linearGradient>
    </defs>
    <path xmlns="http://www.w3.org/2000/svg" d="  M20.1127,0.0000 L0.0967,11.5545 L10.4220,16.5945 L29.3340,5.5425 L20.1127,0.0000 Z" style="fill-rule: evenodd; fill: url(#grad1245); "/>
    <path xmlns="http://www.w3.org/2000/svg" d="  M42.1133,14.0017 L32.8920,8.4593 L12.7793,20.0213 L12.7793,48.9742 L13.2240,49.2353 C14.4203,50.7645 16.8975,52.2218 19.6320,52.9988 L23.1938,55.0897 L42.1140,44.2245 L42.1140,42.0855 L42.1125,42.0577 L41.7007,41.8635 L42.1140,41.6273 L42.1140,39.8880 L42.1125,39.8610 L41.7007,39.6660 L42.1140,39.4297 L42.1140,37.6905 L42.1125,37.6642 L41.7300,37.4835 L42.1140,37.2645 L42.1140,14.0288 L42.1140,14.0017 L42.1133,14.0017 Z" style="stroke-width: 1.5000; stroke: #8d98b5; stroke-dasharray: none; stroke-linecap: butt; stroke-linejoin: miter; fill: none; "/>
    <path xmlns="http://www.w3.org/2000/svg" d="  M30.6060,44.3003 L42.1125,37.6620 L41.7300,37.4813 L30.6060,43.8323 L30.6060,44.3003 Z" style="fill-rule: evenodd; fill: #3f3f3f; "/>
    <path xmlns="http://www.w3.org/2000/svg" d="  M30.6060,46.4985 L42.1125,39.8595 L41.7007,39.6645 L30.6060,46.0305 L30.6060,46.4985 Z" style="fill-rule: evenodd; fill: #3f3f3f; "/>
    <path xmlns="http://www.w3.org/2000/svg" d="  M30.6060,48.6953 L42.1125,42.0570 L41.7007,41.8628 L30.6060,48.2273 L30.6060,48.6953 Z" style="fill-rule: evenodd; fill: #3f3f3f; "/>
    <defs xmlns="http://www.w3.org/2000/svg" xmlns:xlink="http://www.w3.org/1999/xlink">
      <linearGradient id="grad1246">
        <stop offset="0%" stop-color="#646c6b" stop-opacity="1.0000"/>
        <stop offset="100%" stop-color="#dae1e1" stop-opacity="1.0000"/>
      </linearGradient>
      <linearGradient xlink:href="#grad1246" id="grad1247" x1="0" y1="0" x2="0" y2="1" gradientTransform="rotate(90 .5 .5)" gradientUnits="objectBoundingBox">
  </linearGradient>
    </defs>
    <path xmlns="http://www.w3.org/2000/svg" d="  M23.1930,25.0853 L12.7785,20.0213 L12.7785,48.9742 L13.2232,49.2352 C13.1280,49.1130 13.0387,48.9893 12.9592,48.8663 L12.9592,36.2693 L12.9592,33.4598 L12.9592,27.4485 L12.9592,21.3870 L22.3740,26.0415 C22.3740,26.0415 22.4107,26.0453 22.4288,26.0475 L22.4288,32.1495 L22.4288,38.1195 L22.4288,41.1045 L22.4288,53.5252 C21.4928,53.4420 20.5477,53.2575 19.6312,52.9980 L23.1930,55.0890 L23.1930,25.0853 Z" style="fill-rule: evenodd; fill: url(#grad1247); "/>
    <defs xmlns="http://www.w3.org/2000/svg" xmlns:xlink="http://www.w3.org/1999/xlink">
      <linearGradient id="grad1248">
        <stop offset="0%" stop-color="#85919c" stop-opacity="0.9882"/>
        <stop offset="100%" stop-color="#dadfe1" stop-opacity="0.9882"/>
      </linearGradient>
      <linearGradient xlink:href="#grad1248" id="grad1249" x1="0" y1="0" x2="0" y2="1" gradientTransform="rotate(90 .5 .5)" gradientUnits="objectBoundingBox">
  </linearGradient>
    </defs>
    <path xmlns="http://www.w3.org/2000/svg" d="  M22.0313,41.0993 C22.0313,41.1465 21.9765,41.1855 21.9045,41.1855 C21.8993,41.1855 21.8858,41.1855 21.8858,41.1855 C19.0762,41.2275 15.4087,39.9510 13.3387,36.7823 C13.1977,36.6105 13.0695,36.4395 12.9607,36.2693 L12.9607,48.8655 C13.0395,48.9885 13.1295,49.1123 13.2247,49.2345 C14.4210,50.7638 16.8983,52.2210 19.6328,52.9980 C20.5500,53.2575 21.4943,53.4420 22.4303,53.5253 L22.4303,41.1045 C22.2930,41.0910 22.1558,41.0768 22.0178,41.0595 C22.0253,41.0723 22.0313,41.0858 22.0313,41.0993 Z M21.7508,51.9615 C21.5985,52.4438 20.8005,52.6215 19.9710,52.3590 C19.1408,52.0950 18.5918,51.4913 18.7440,51.0090 C18.8970,50.5260 19.6935,50.3483 20.5238,50.6115 C21.3532,50.8748 21.9030,51.4785 21.7508,51.9615 Z M21.9045,50.0303 C21.8993,50.0303 21.8858,50.0303 21.8858,50.0303 C18.9713,50.0745 15.1342,48.6990 13.1130,45.2648 C12.9667,45.0233 13.1407,45.0450 13.1407,45.0450 C14.4202,47.2103 18.1943,49.4828 21.8355,49.8488 C21.8520,49.8510 21.9045,49.8548 21.9113,49.8548 C21.9825,49.8548 22.0320,49.8983 22.0320,49.9440 C22.0313,49.9913 21.9757,50.0303 21.9045,50.0303 Z M21.9045,47.0813 C21.8993,47.0813 21.8858,47.0813 21.8858,47.0813 C18.9713,47.1255 15.1342,45.7500 13.1130,42.3165 C12.9667,42.0743 13.1407,42.0968 13.1407,42.0968 C14.4202,44.2620 18.1943,46.5345 21.8355,46.9005 C21.8520,46.9020 21.9045,46.9058 21.9113,46.9058 C21.9825,46.9058 22.0320,46.9493 22.0320,46.9950 C22.0313,47.0423 21.9757,47.0813 21.9045,47.0813 Z M21.9045,44.1330 C21.8993,44.1330 21.8858,44.1338 21.8858,44.1338 C18.9713,44.1773 15.1342,42.8025 13.1130,39.3683 C12.9667,39.1260 13.1407,39.1485 13.1407,39.1485 C14.4202,41.3130 18.1943,43.5855 21.8355,43.9515 C21.8520,43.9538 21.9045,43.9575 21.9113,43.9575 C21.9825,43.9575 22.0320,44.0003 22.0320,44.0468 C22.0320,44.0933 21.9757,44.1330 21.9045,44.1330 Z" style="fill-rule: evenodd; fill: url(#grad1249); "/>
    <defs xmlns="http://www.w3.org/2000/svg" xmlns:xlink="http://www.w3.org/1999/xlink">
      <linearGradient id="grad1250">
        <stop offset="0%" stop-color="#85919c" stop-opacity="0.9882"/>
        <stop offset="100%" stop-color="#dadfe1" stop-opacity="0.9882"/>
      </linearGradient>
      <linearGradient xlink:href="#grad1250" id="grad1251" x1="0" y1="0" x2="0" y2="1" gradientTransform="rotate(90 .5 .5)" gradientUnits="objectBoundingBox">
  </linearGradient>
    </defs>
    <path xmlns="http://www.w3.org/2000/svg" d="  M21.8348,32.1593 C21.8513,32.1615 21.9037,32.1653 21.9105,32.1653 C21.9818,32.1653 22.0313,32.2095 22.0313,32.2545 C22.0313,32.3018 21.9765,32.3400 21.9045,32.3400 C21.8993,32.3400 21.8858,32.3400 21.8858,32.3400 C19.1160,32.3828 15.5137,31.1400 13.4287,28.0703 C13.2502,27.8648 13.0935,27.6570 12.9607,27.4485 L12.9607,33.4598 C13.1700,33.7883 13.4437,34.1153 13.7685,34.4355 C13.5337,34.1340 13.3147,33.8138 13.1130,33.4725 C12.9667,33.2303 13.1407,33.2528 13.1407,33.2528 C14.0160,34.7333 16.0567,36.2625 18.4222,37.2000 C19.5360,37.6088 20.7233,37.9110 21.9068,38.0610 C21.9075,38.0618 21.9098,38.0618 21.9113,38.0618 C21.9173,38.0618 21.9218,38.0625 21.9270,38.0640 C22.0763,38.0828 22.2263,38.1000 22.3755,38.1135 C22.3935,38.1150 22.4123,38.1180 22.4303,38.1195 L22.4303,32.1495 C20.3265,31.9605 18.1733,31.2623 16.4100,30.3203 C18.0060,31.2600 19.9388,31.9688 21.8348,32.1593 Z M21.9045,35.2883 C21.8993,35.2883 21.8858,35.2890 21.8858,35.2890 C18.9713,35.3318 15.1342,33.9570 13.1130,30.5235 C12.9667,30.2820 13.1407,30.3038 13.1407,30.3038 C14.4202,32.4683 18.1943,34.7408 21.8355,35.1068 C21.8520,35.1090 21.9045,35.1120 21.9113,35.1120 C21.9825,35.1120 22.0320,35.1555 22.0320,35.2020 C22.0313,35.2493 21.9757,35.2883 21.9045,35.2883 Z" style="fill-rule: evenodd; fill: url(#grad1251); "/>
    <defs xmlns="http://www.w3.org/2000/svg" xmlns:xlink="http://www.w3.org/1999/xlink">
      <linearGradient id="grad1252">
        <stop offset="0%" stop-color="#c8d8dd" stop-opacity="0.9882"/>
        <stop offset="100%" stop-color="#f3f9f7" stop-opacity="0.9882"/>
      </linearGradient>
      <linearGradient xlink:href="#grad1252" id="grad1253" x1="0" y1="0" x2="0" y2="1" gradientTransform="rotate(90 .5 .5)" gradientUnits="objectBoundingBox">
  </linearGradient>
    </defs>
    <path xmlns="http://www.w3.org/2000/svg" d="  M22.3748,38.1135 C22.2263,38.0993 22.0763,38.0828 21.9263,38.0640 C21.9878,38.0700 22.0313,38.1083 22.0313,38.1518 C22.0313,38.1983 21.9765,38.2365 21.9045,38.2365 C21.8993,38.2365 21.8858,38.2365 21.8858,38.2365 C19.2615,38.2763 15.8895,37.1640 13.7685,34.4355 C13.4430,34.1153 13.1700,33.7883 12.9607,33.4598 L12.9607,36.2693 C13.0695,36.4395 13.1970,36.6105 13.3387,36.7823 C13.2615,36.6638 13.1857,36.5445 13.1130,36.4208 C12.9667,36.1793 13.1407,36.2010 13.1407,36.2010 C13.9057,37.4955 15.5625,38.8275 17.5500,39.7695 C18.5010,40.2195 19.5270,40.5795 20.5672,40.8030 C20.9895,40.8938 21.4125,40.9620 21.8348,41.0055 C21.8513,41.0063 21.9038,41.0108 21.9105,41.0108 C21.9600,41.0108 21.9983,41.0325 22.0178,41.0610 C22.1558,41.0775 22.2930,41.0925 22.4303,41.1060 L22.4303,38.1210 C22.4108,38.1180 22.3928,38.1150 22.3748,38.1135 Z" style="fill-rule: evenodd; fill: url(#grad1253); "/>
    <defs xmlns="http://www.w3.org/2000/svg" xmlns:xlink="http://www.w3.org/1999/xlink">
      <linearGradient id="grad1254">
        <stop offset="0%" stop-color="#bdd1dd" stop-opacity="0.9882"/>
        <stop offset="100%" stop-color="#f3f9f7" stop-opacity="0.9882"/>
      </linearGradient>
      <linearGradient xlink:href="#grad1254" id="grad1255" x1="0" y1="0" x2="0" y2="1" gradientTransform="rotate(90 .5 .5)" gradientUnits="objectBoundingBox">
  </linearGradient>
    </defs>
    <path xmlns="http://www.w3.org/2000/svg" d="  M22.3747,26.0415 L12.9600,21.3870 L12.9600,27.4485 C13.0927,27.6570 13.2495,27.8640 13.4280,28.0703 C13.3185,27.9105 13.2120,27.7470 13.1122,27.5760 C12.9660,27.3338 13.1400,27.3563 13.1400,27.3563 C13.7527,28.3935 14.9392,29.4555 16.4085,30.3203 C18.1725,31.2630 20.3257,31.9613 22.4287,32.1495 L22.4287,26.0475 C22.4107,26.0453 22.3747,26.0415 22.3747,26.0415 Z M13.2795,22.1925 L22.1430,26.5740 C17.7472,29.0040 13.4475,25.0853 13.2795,22.1925 Z" style="fill-rule: evenodd; fill: url(#grad1255); "/>
    <path xmlns="http://www.w3.org/2000/svg" d="  M21.9098,49.8548 C21.9030,49.8548 21.8513,49.8510 21.8340,49.8488 C18.1935,49.4828 14.4188,47.2095 13.1393,45.0450 C13.1393,45.0450 12.9653,45.0233 13.1115,45.2648 C15.1328,48.6983 18.9705,50.0738 21.8843,50.0303 C21.8843,50.0303 21.8985,50.0303 21.9030,50.0303 C21.9750,50.0303 22.0298,49.9913 22.0298,49.9448 C22.0313,49.8983 21.9810,49.8548 21.9098,49.8548 Z" style="fill-rule: evenodd; fill: #000000; "/>
    <path xmlns="http://www.w3.org/2000/svg" d="  M21.9098,46.9065 C21.9030,46.9065 21.8513,46.9028 21.8340,46.9012 C18.1935,46.5352 14.4188,44.2620 13.1393,42.0975 C13.1393,42.0975 12.9653,42.0750 13.1115,42.3173 C15.1328,45.7500 18.9705,47.1255 21.8843,47.0820 C21.8843,47.0820 21.8985,47.0820 21.9030,47.0820 C21.9750,47.0820 22.0298,47.0430 22.0298,46.9965 C22.0313,46.9493 21.9810,46.9065 21.9098,46.9065 Z" style="fill-rule: evenodd; fill: #000000; "/>
    <path xmlns="http://www.w3.org/2000/svg" d="  M21.9098,43.9583 C21.9030,43.9583 21.8513,43.9545 21.8340,43.9523 C18.1935,43.5863 14.4188,41.3130 13.1393,39.1493 C13.1393,39.1493 12.9653,39.1268 13.1115,39.3690 C15.1328,42.8025 18.9705,44.1773 21.8843,44.1345 C21.8843,44.1345 21.8985,44.1338 21.9030,44.1338 C21.9750,44.1338 22.0298,44.0948 22.0298,44.0483 C22.0298,44.0018 21.9810,43.9583 21.9098,43.9583 Z" style="fill-rule: evenodd; fill: #000000; "/>
    <path xmlns="http://www.w3.org/2000/svg" d="  M22.0170,41.0603 C21.5325,41.0010 21.0480,40.9140 20.5665,40.8023 C19.5255,40.5788 18.4995,40.2188 17.5493,39.7688 C15.5625,38.8268 13.9050,37.4948 13.1400,36.2003 C13.1400,36.2003 12.9660,36.1785 13.1123,36.4200 C13.1850,36.5438 13.2608,36.6630 13.3380,36.7815 C15.4088,39.9503 19.0755,41.2268 21.8850,41.1848 C21.8850,41.1848 21.8993,41.1848 21.9038,41.1848 C21.9758,41.1848 22.0305,41.1450 22.0305,41.0985 C22.0313,41.0858 22.0253,41.0723 22.0170,41.0603 Z" style="fill-rule: evenodd; fill: #000000; "/>
    <path xmlns="http://www.w3.org/2000/svg" d="  M21.9263,38.0640 C21.9195,38.0625 21.9120,38.0618 21.9060,38.0610 C21.8940,38.0610 21.8505,38.0580 21.8348,38.0558 C20.6828,37.9403 19.5173,37.6335 18.4215,37.1993 C16.0560,36.2618 14.0153,34.7325 13.1400,33.2520 C13.1400,33.2520 12.9660,33.2295 13.1123,33.4718 C13.3140,33.8130 13.5338,34.1333 13.7678,34.4348 C15.8888,37.1640 19.2608,38.2755 21.8850,38.2358 C21.8850,38.2358 21.8993,38.2358 21.9038,38.2358 C21.9758,38.2358 22.0305,38.1968 22.0305,38.1510 C22.0313,38.1075 21.9878,38.0693 21.9263,38.0640 Z" style="fill-rule: evenodd; fill: #000000; "/>
    <path xmlns="http://www.w3.org/2000/svg" d="  M21.9098,32.1645 C21.9030,32.1645 21.8513,32.1608 21.8340,32.1585 C19.9380,31.9680 18.0060,31.2600 16.4085,30.3195 C14.9393,29.4548 13.7528,28.3928 13.1400,27.3555 C13.1400,27.3555 12.9660,27.3330 13.1123,27.5753 C13.2120,27.7463 13.3185,27.9090 13.4280,28.0695 C15.5130,31.1400 19.1153,32.3820 21.8850,32.3393 C21.8850,32.3393 21.8993,32.3393 21.9038,32.3393 C21.9758,32.3393 22.0305,32.3003 22.0305,32.2538 C22.0313,32.2088 21.9810,32.1645 21.9098,32.1645 Z" style="fill-rule: evenodd; fill: #000000; "/>
    <path xmlns="http://www.w3.org/2000/svg" d="  M21.9098,35.1128 C21.9030,35.1128 21.8513,35.1098 21.8340,35.1075 C18.1935,34.7415 14.4188,32.4683 13.1393,30.3045 C13.1393,30.3045 12.9653,30.2828 13.1115,30.5243 C15.1328,33.9570 18.9705,35.3318 21.8843,35.2898 C21.8843,35.2898 21.8985,35.2890 21.9030,35.2890 C21.9750,35.2890 22.0298,35.2493 22.0298,35.2035 C22.0313,35.1563 21.9810,35.1128 21.9098,35.1128 Z" style="fill-rule: evenodd; fill: #000000; "/>
    <defs xmlns="http://www.w3.org/2000/svg">
      <linearGradient id="grad1256">
        <stop offset="0%" stop-color="#646c6b" stop-opacity="1.0000"/>
        <stop offset="100%" stop-color="#dae1e1" stop-opacity="1.0000"/>
      </linearGradient>
    </defs>
    <path xmlns="http://www.w3.org/2000/svg" d="  M20.5238,50.6115 C19.6935,50.3483 18.8970,50.5268 18.7440,51.0090 C18.5918,51.4913 19.1400,52.0950 19.9710,52.3590 C20.8005,52.6215 21.5985,52.4430 21.7508,51.9615 C21.9030,51.4785 21.3533,50.8748 20.5238,50.6115 Z M21.1508,52.2255 C20.8418,52.5158 20.3093,52.4498 19.9598,52.0793 C19.8480,51.9593 19.7678,51.8213 19.7228,51.6818 C19.6920,51.5903 19.6770,51.4980 19.6763,51.4073 C19.6733,51.2063 19.7430,51.0165 19.8863,50.8815 C20.1945,50.5920 20.7270,50.6573 21.0765,51.0293 C21.4260,51.3998 21.4590,51.9360 21.1508,52.2255 Z" style="fill-rule: evenodd; fill: url(#grad1256); "/>
    <path xmlns="http://www.w3.org/2000/svg" d="  M19.8862,50.8808 C19.7430,51.0165 19.6732,51.2063 19.6762,51.4065 C19.6822,51.2640 19.7347,51.1313 19.8390,51.0338 C19.9215,50.9558 20.0257,50.9115 20.1382,50.8980 C20.3610,50.8425 20.6242,50.9198 20.8125,51.1200 C21.0690,51.3923 21.0900,51.7905 20.8642,52.0178 C20.8485,52.0373 20.8335,52.0553 20.8155,52.0718 C20.5770,52.2968 20.1652,52.2458 19.8960,51.9585 C19.8157,51.8745 19.7580,51.7793 19.7220,51.6810 C19.7677,51.8213 19.8472,51.9585 19.9590,52.0785 C20.3085,52.4490 20.8410,52.5150 21.1500,52.2248 C21.4582,51.9345 21.4252,51.3983 21.0757,51.0278 C20.7270,50.6573 20.1945,50.5920 19.8862,50.8808 Z" style="fill-rule: evenodd; fill: #000000; "/>
    <defs xmlns="http://www.w3.org/2000/svg">
      <radialGradient id="grad1257" cx="50.0000%" cy="50.0000%" r="100.0000%">
        <stop offset="0%" stop-color="#ccff66" stop-opacity="1.0000"/>
        <stop offset="100%" stop-color="#7ab04a" stop-opacity="1.0000"/>
      </radialGradient>
    </defs>
    <path xmlns="http://www.w3.org/2000/svg" d="  M20.8155,52.0725 C20.8335,52.0560 20.8492,52.0380 20.8642,52.0185 C21.0900,51.7905 21.0682,51.3930 20.8125,51.1208 C20.6242,50.9205 20.3602,50.8433 20.1382,50.8988 C20.0257,50.9123 19.9215,50.9558 19.8390,51.0345 C19.7347,51.1320 19.6822,51.2648 19.6762,51.4073 C19.6770,51.4980 19.6920,51.5903 19.7227,51.6818 C19.7595,51.7800 19.8165,51.8753 19.8967,51.9593 C20.1652,52.2473 20.5770,52.2975 20.8155,52.0725 Z" style="fill-rule: evenodd; fill: url(#grad1257); "/>
    <defs xmlns="http://www.w3.org/2000/svg" xmlns:xlink="http://www.w3.org/1999/xlink">
      <linearGradient id="grad1258">
        <stop offset="0%" stop-color="#7f8787" stop-opacity="1.0000"/>
        <stop offset="100%" stop-color="#f3f9f7" stop-opacity="1.0000"/>
      </linearGradient>
      <linearGradient xlink:href="#grad1258" id="grad1259" x1="0" y1="0" x2="0" y2="1" gradientTransform="rotate(315 .5 .5)" gradientUnits="objectBoundingBox">
  </linearGradient>
    </defs>
    <path xmlns="http://www.w3.org/2000/svg" d="  M13.2795,22.1925 C13.4483,25.0860 17.7473,29.0040 22.1430,26.5740 L13.2795,22.1925 Z M14.9783,23.1443 L20.6445,25.9215 C17.7795,27.3427 15.0517,24.9053 14.9783,23.1443 Z" style="fill-rule: evenodd; fill: url(#grad1259); "/>
    <defs xmlns="http://www.w3.org/2000/svg">
      <radialGradient id="grad1260" cx="50.0000%" cy="50.0000%" r="100.0000%">
        <stop offset="0%" stop-color="#a7e968" stop-opacity="1.0000"/>
        <stop offset="100%" stop-color="#000000" stop-opacity="1.0000"/>
      </radialGradient>
    </defs>
    <path xmlns="http://www.w3.org/2000/svg" d="  M14.9783,23.1443 C15.0518,24.9060 17.7788,27.3428 20.6445,25.9215 L14.9783,23.1443 Z" style="fill-rule: evenodd; fill: url(#grad1260); "/>
    <defs xmlns="http://www.w3.org/2000/svg" xmlns:xlink="http://www.w3.org/1999/xlink">
      <linearGradient id="grad1261">
        <stop offset="0%" stop-color="#7f8787" stop-opacity="1.0000"/>
        <stop offset="100%" stop-color="#dae1e1" stop-opacity="1.0000"/>
      </linearGradient>
      <linearGradient xlink:href="#grad1261" id="grad1262" x1="0" y1="0" x2="0" y2="1" gradientTransform="rotate(45 .5 .5)" gradientUnits="objectBoundingBox">
  </linearGradient>
    </defs>
    <path xmlns="http://www.w3.org/2000/svg" d="  M23.2185,25.0613 L23.2012,25.0537 L23.2012,54.8978 L42.1132,44.2238 L42.1132,42.0847 L30.6060,48.6952 L30.6060,48.2273 L41.7007,41.8628 L42.1132,41.6265 L42.1132,39.8865 L30.6060,46.4985 L30.6060,46.0305 L41.7007,39.6645 L42.1132,39.4283 L42.1132,37.6890 L30.6060,44.3003 L30.6060,43.8322 L41.7300,37.4812 L42.1132,37.2623 L42.1132,14.0287 L39.5753,15.4875 L23.2185,25.0613 Z" style="fill-rule: evenodd; fill: url(#grad1262); "/>
    <defs xmlns="http://www.w3.org/2000/svg" xmlns:xlink="http://www.w3.org/1999/xlink">
      <linearGradient id="grad1263">
        <stop offset="0%" stop-color="#7f8787" stop-opacity="1.0000"/>
        <stop offset="100%" stop-color="#f3f9f7" stop-opacity="1.0000"/>
      </linearGradient>
      <linearGradient xlink:href="#grad1263" id="grad1264" x1="0" y1="0" x2="0" y2="1" gradientTransform="rotate(90 .5 .5)" gradientUnits="objectBoundingBox">
  </linearGradient>
    </defs>
    <path xmlns="http://www.w3.org/2000/svg" d="  M32.8928,8.4593 L12.8760,20.0138 L23.2013,25.0538 L42.1133,14.0018 L32.8928,8.4593 Z" style="fill-rule: evenodd; fill: url(#grad1264); "/>
    <path xmlns="http://www.w3.org/2000/svg" d="  M54.4830,50.1908 L51.5003,44.6010 L48.5183,39.0113 L48.5183,40.7723 L48.5183,42.5325 L45.2588,40.6500 L41.9978,38.7675 L41.9978,38.7698 L41.9978,38.7712 L38.7825,36.9150 L35.5672,35.0580 L35.5672,33.2325 L35.5672,31.4062 L32.5845,33.5527 L29.6025,35.6985 L32.5845,41.2883 L35.5672,46.8787 L35.5672,45.1177 L35.5672,43.3575 L38.8267,45.2400 L42.0870,47.1225 L42.0870,47.1202 L42.0870,47.1180 L45.3022,48.9750 L48.5183,50.8313 L48.5183,52.6575 L48.5183,54.4830 L51.5003,52.3373 L54.4830,50.1908 Z" style="fill-rule: evenodd; fill: #16a501; "/>
    <defs xmlns="http://www.w3.org/2000/svg" xmlns:xlink="http://www.w3.org/1999/xlink">
      <linearGradient id="grad1265">
        <stop offset="0%" stop-color="#16a501" stop-opacity="1.0000"/>
        <stop offset="100%" stop-color="#79ef60" stop-opacity="1.0000"/>
      </linearGradient>
      <linearGradient xlink:href="#grad1265" id="grad1266" x1="0" y1="0" x2="0" y2="1" gradientTransform="rotate(180 .5 .5)" gradientUnits="objectBoundingBox">
  </linearGradient>
    </defs>
    <path xmlns="http://www.w3.org/2000/svg" d="  M53.7960,51.2243 L50.7135,45.4462 L47.6302,39.6690 L47.6302,41.4885 L47.6317,43.3080 L44.2613,41.3625 L40.8907,39.4170 L40.8907,39.4185 L40.8907,39.4207 L37.5683,37.5023 L34.2442,35.5830 L34.2442,33.6953 L34.2442,31.8090 L31.1610,34.0267 L28.0792,36.2453 L31.1610,42.0225 L34.2442,47.8005 L34.2442,45.9802 L34.2442,44.1615 L37.6133,46.1070 L40.9830,48.0525 L40.9830,48.0502 L40.9830,48.0480 L44.3063,49.9673 L47.6302,51.8857 L47.6302,53.7742 L47.6317,55.6613 L50.7135,53.4428 L53.7960,51.2243 Z" style="fill-rule: evenodd; fill: url(#grad1266); "/>
    <defs xmlns="http://www.w3.org/2000/svg" xmlns:xlink="http://www.w3.org/1999/xlink">
      <linearGradient id="grad1267">
        <stop offset="0%" stop-color="#16a501" stop-opacity="1.0000"/>
        <stop offset="100%" stop-color="#79ef60" stop-opacity="1.0000"/>
      </linearGradient>
      <linearGradient xlink:href="#grad1267" id="grad1268" x1="0" y1="0" x2="0" y2="1" gradientTransform="rotate(90 .5 .5)" gradientUnits="objectBoundingBox">
  </linearGradient>
    </defs>
    <path xmlns="http://www.w3.org/2000/svg" d="  M34.1797,31.7632 L35.5672,31.4062 L35.5672,35.0580 L34.2442,35.5830 L34.1797,31.7632 Z" style="fill-rule: evenodd; fill: url(#grad1268); "/>
    <defs xmlns="http://www.w3.org/2000/svg" xmlns:xlink="http://www.w3.org/1999/xlink">
      <linearGradient id="grad1269">
        <stop offset="0%" stop-color="#79ef60" stop-opacity="1.0000"/>
        <stop offset="100%" stop-color="#b8efa1" stop-opacity="1.0000"/>
      </linearGradient>
      <linearGradient xlink:href="#grad1269" id="grad1270" x1="0" y1="0" x2="0" y2="1" gradientTransform="rotate(180 .5 .5)" gradientUnits="objectBoundingBox">
  </linearGradient>
    </defs>
    <path xmlns="http://www.w3.org/2000/svg" d="  M35.5672,35.0580 L47.6168,41.9835 L47.6317,43.3080 L34.2442,35.5830 L35.5672,35.0580 Z" style="fill-rule: evenodd; fill: url(#grad1270); "/>
    <defs xmlns="http://www.w3.org/2000/svg" xmlns:xlink="http://www.w3.org/1999/xlink">
      <linearGradient id="grad1271">
        <stop offset="0%" stop-color="#16a501" stop-opacity="1.0000"/>
        <stop offset="100%" stop-color="#b8efa1" stop-opacity="1.0000"/>
      </linearGradient>
      <linearGradient xlink:href="#grad1271" id="grad1272" x1="0" y1="0" x2="0" y2="1" gradientTransform="rotate(180 .5 .5)" gradientUnits="objectBoundingBox">
  </linearGradient>
    </defs>
    <path xmlns="http://www.w3.org/2000/svg" d="  M47.5567,39.6277 L48.5182,39.0112 L54.4830,50.1907 L53.8102,51.2843 L47.5567,39.6277 Z" style="fill-rule: evenodd; fill: url(#grad1272); "/>
    <defs xmlns="http://www.w3.org/2000/svg" xmlns:xlink="http://www.w3.org/1999/xlink">
      <linearGradient id="grad1273">
        <stop offset="0%" stop-color="#16a501" stop-opacity="1.0000"/>
        <stop offset="100%" stop-color="#79ef60" stop-opacity="1.0000"/>
      </linearGradient>
      <linearGradient xlink:href="#grad1273" id="grad1274" x1="0" y1="0" x2="0" y2="1" gradientTransform="rotate(225 .5 .5)" gradientUnits="objectBoundingBox">
  </linearGradient>
    </defs>
    <path xmlns="http://www.w3.org/2000/svg" d="  M35.5672,46.8787 L35.5807,44.8912 L34.2442,44.1615 L34.2315,47.8785 L35.5672,46.8787 Z" style="fill-rule: evenodd; fill: url(#grad1274); "/>
    <defs xmlns="http://www.w3.org/2000/svg" xmlns:xlink="http://www.w3.org/1999/xlink">
      <linearGradient id="grad1275">
        <stop offset="0%" stop-color="#16a501" stop-opacity="1.0000"/>
        <stop offset="100%" stop-color="#79ef60" stop-opacity="1.0000"/>
      </linearGradient>
      <linearGradient xlink:href="#grad1275" id="grad1276" x1="0" y1="0" x2="0" y2="1" gradientTransform="rotate(315 .5 .5)" gradientUnits="objectBoundingBox">
  </linearGradient>
    </defs>
    <path xmlns="http://www.w3.org/2000/svg" d="  M47.5335,55.7610 C47.5042,55.7452 47.4862,55.7160 47.4862,55.6845 L47.4848,53.7968 L47.4848,51.9585 L44.2050,50.0647 L40.9050,48.1590 C40.8960,48.1567 40.8893,48.1537 40.8817,48.1493 L37.5113,46.2037 L34.2712,44.3325 L34.2712,46.0042 L34.2712,47.8238 C34.2712,47.8635 34.2450,47.8972 34.2068,47.9063 C34.1670,47.9160 34.1288,47.8980 34.1100,47.8627 L31.0267,42.0855 L27.9465,36.3082 C27.9262,36.2700 27.9360,36.2235 27.9712,36.1987 L31.0530,33.9803 L34.1362,31.7617 C34.1625,31.7430 34.1962,31.7407 34.2240,31.7550 C34.2532,31.7700 34.2712,31.7993 34.2712,31.8322 L34.2712,33.7192 L34.2712,35.5567 L37.5525,37.4512 L40.8540,39.3570 C40.8630,39.3592 40.8690,39.3622 40.8757,39.3660 L44.2447,41.3122 L47.4862,43.1835 L47.4862,41.5118 L47.4862,39.6922 C47.4862,39.6525 47.5125,39.6180 47.5508,39.6090 C47.5890,39.6000 47.6288,39.6180 47.6475,39.6518 L50.7293,45.4297 L53.8125,51.2077 L53.7360,51.2483 L53.8125,51.2077 C53.8327,51.2452 53.8215,51.2917 53.7878,51.3173 L50.7045,53.5357 L47.6227,55.7542 C47.6070,55.7647 47.5890,55.7707 47.5718,55.7707 C47.5582,55.7707 47.5455,55.7670 47.5335,55.7610 Z M40.9665,47.9977 L44.2920,49.9170 L47.6145,51.8355 C47.6408,51.8512 47.6587,51.8805 47.6587,51.9105 L47.6587,53.7990 L47.6587,55.5187 L50.6063,53.3977 L53.6280,51.2235 L50.5800,45.5122 L47.6587,40.0372 L47.6587,41.5140 L47.6587,43.3335 C47.6587,43.3643 47.6430,43.3927 47.6160,43.4085 C47.5897,43.4235 47.5560,43.4235 47.5297,43.4085 L44.1607,41.4630 L40.8120,39.5295 C40.8045,39.5280 40.7970,39.5250 40.7902,39.5205 L37.4662,37.6013 L34.1423,35.6820 C34.1160,35.6663 34.0995,35.6385 34.0995,35.6078 L34.0995,33.7200 L34.0995,32.0003 L31.1535,34.1205 L28.1317,36.2947 L31.1790,42.0060 L34.1002,47.4817 L34.1002,46.0050 L34.1002,44.1855 C34.1002,44.1547 34.1160,44.1270 34.1430,44.1105 C34.1707,44.0955 34.2030,44.0955 34.2293,44.1105 L37.5983,46.0560 L40.9470,47.9887 C40.9537,47.9910 40.9605,47.9940 40.9665,47.9977 Z" style="fill-rule: evenodd; fill: url(#grad1276); "/>
    <!--converted by libvisio2svg-->
  </g>
</svg>
