<svg xmlns="http://www.w3.org/2000/svg" xmlns:xlink="http://www.w3.org/1999/xlink" version="1.1" width="0.7965000000" height="0.8003000000" viewBox="0 0 57.3495 57.6225">
  <title><![CDATA[Exchange UM Auto Attendant]]></title>
  <g transform=" scale(1.000000) ">
    <path xmlns="http://www.w3.org/2000/svg" d="  M53.5830,40.9928 C52.7873,40.4130 50.1233,38.6333 47.1653,37.4070 C47.1623,37.4055 47.1563,37.4010 47.1563,37.4010 C47.1563,37.4010 46.6980,34.9110 46.4077,33.2962 C47.3572,33.3443 48.5685,32.4712 49.3770,31.0447 C50.2680,29.4697 50.3452,27.7913 49.6230,27.0630 C50.5530,22.9875 49.3282,19.0357 47.3745,17.6610 C46.7227,17.2020 45.2550,16.2233 42.4088,15.9577 C41.8245,15.8767 41.2193,15.8295 40.5923,15.8295 C40.5787,15.8295 40.5660,15.8302 40.5510,15.8302 C40.5510,13.2232 40.5510,11.5800 40.5465,11.5275 C40.4032,10.8038 40.1070,10.2855 39.7410,9.9083 C39.5107,9.6540 39.2535,9.4552 38.9835,9.3037 C37.2945,7.6417 33.3510,3.7823 31.2255,1.7100 C31.1318,1.5383 31.0245,1.3732 30.9105,1.2165 C30.4875,0.5940 29.8942,0.1125 29.0497,0.0120 C28.9222,0.0007 25.7265,0.0000 21.4463,0.0000 C12.9075,0.0000 0.2130,0.0113 0.2130,0.0113 L0.0075,0.0113 L0.0075,51.8272 L0.0180,51.8272 L0.0180,51.8400 L30.7950,51.8400 C31.2855,52.3545 31.8788,52.8300 32.5733,53.2522 C33.1282,53.5890 33.7538,53.9625 34.3882,54.3360 C34.3912,54.3990 34.3942,54.4402 34.3942,54.4402 L34.5353,54.5152 C34.5353,54.5152 34.5368,54.4920 34.5368,54.4725 C34.5383,54.4942 34.5383,54.5092 34.5397,54.5167 C34.5397,54.5182 34.5397,54.5257 34.5397,54.5257 L35.4405,55.0545 C35.4540,55.0267 35.4638,55.0035 35.4772,54.9765 C36.0180,55.2915 36.5513,55.6005 37.0342,55.8787 C39.1920,57.1192 42.1200,57.6075 45.4177,57.6075 C52.0050,57.6075 57.3457,54.5430 57.3457,50.7608 C57.3450,50.5598 57.3495,43.7422 53.5830,40.9928 Z" style="stroke-width: 1.5000; stroke: #8d98b5; stroke-dasharray: none; stroke-linecap: butt; stroke-linejoin: miter; fill: none; "/>
    <path xmlns="http://www.w3.org/2000/svg" d="  M49.0110,26.7218 C49.0095,26.7218 49.0080,26.7203 49.0065,26.7203 C48.9848,26.6708 48.9667,26.6182 48.9390,26.5740 C48.9690,26.6182 48.9877,26.6715 49.0110,26.7218 Z" style="stroke-width: 1.5000; stroke: #8d98b5; stroke-dasharray: none; stroke-linecap: butt; stroke-linejoin: miter; fill: none; "/>
    <defs xmlns="http://www.w3.org/2000/svg" xmlns:xlink="http://www.w3.org/1999/xlink">
      <linearGradient id="grad1811">
        <stop offset="0%" stop-color="#fffce1" stop-opacity="1.0000"/>
        <stop offset="100%" stop-color="#ffffff" stop-opacity="1.0000"/>
      </linearGradient>
      <linearGradient xlink:href="#grad1811" id="grad1812" x1="0" y1="0" x2="0" y2="1" gradientTransform="rotate(45 .5 .5)" gradientUnits="objectBoundingBox">
  </linearGradient>
    </defs>
    <path xmlns="http://www.w3.org/2000/svg" d="  M29.8057,0.3562 C29.6107,0.1380 39.8558,10.1633 39.7830,10.1145 C37.1070,8.3325 31.3350,9.4838 31.3350,9.4838 C31.3350,9.4838 32.3182,3.1770 29.8057,0.3562 Z" style="fill-rule: evenodd; fill: url(#grad1812); "/>
    <defs xmlns="http://www.w3.org/2000/svg" xmlns:xlink="http://www.w3.org/1999/xlink">
      <linearGradient id="grad1813">
        <stop offset="0%" stop-color="#fffce1" stop-opacity="1.0000"/>
        <stop offset="100%" stop-color="#ffffff" stop-opacity="1.0000"/>
      </linearGradient>
      <linearGradient xlink:href="#grad1813" id="grad1814" x1="0" y1="0" x2="0" y2="1" gradientTransform="rotate(135 .5 .5)" gradientUnits="objectBoundingBox">
  </linearGradient>
    </defs>
    <path xmlns="http://www.w3.org/2000/svg" d="  M37.0027,8.8290 C37.9432,8.8290 40.0260,9.1560 40.4917,11.5050 C40.4992,11.5455 40.4917,51.8543 40.4917,51.8543 L0.0105,51.8543 L0.0105,0.0788 C0.0105,0.0788 28.8247,0.0533 29.0805,0.0788 C31.3012,0.2948 31.9988,3.5782 32.0377,4.5383 C32.0790,5.4990 32.0377,8.8290 32.0377,8.8290 C32.0377,8.8290 36.0637,8.8290 37.0027,8.8290 Z" style="fill-rule: evenodd; fill: url(#grad1814); "/>
    <defs xmlns="http://www.w3.org/2000/svg" xmlns:xlink="http://www.w3.org/1999/xlink">
      <linearGradient id="grad1815">
        <stop offset="0%" stop-color="#000000" stop-opacity="0.6706"/>
        <stop offset="100%" stop-color="#748487" stop-opacity="0.6706"/>
      </linearGradient>
      <linearGradient xlink:href="#grad1815" id="grad1816" x1="0" y1="0" x2="0" y2="1" gradientTransform="rotate(135 .5 .5)" gradientUnits="objectBoundingBox">
  </linearGradient>
    </defs>
    <path xmlns="http://www.w3.org/2000/svg" d="  M5.4870,16.4655 L5.4870,11.4338 L10.5188,11.4338 L10.5188,16.2570 L10.5188,16.4655 L5.4870,16.4655 Z M10.3103,16.2563 L10.3103,16.0485 L10.3103,16.2563 Z M5.9032,16.0485 L10.1025,16.0485 L10.1025,11.8493 L5.9032,11.8493 L5.9032,16.0485 Z" style="fill-rule: evenodd; fill: url(#grad1816); "/>
    <defs xmlns="http://www.w3.org/2000/svg" xmlns:xlink="http://www.w3.org/1999/xlink">
      <linearGradient id="grad1817">
        <stop offset="0%" stop-color="#000000" stop-opacity="0.6706"/>
        <stop offset="100%" stop-color="#748487" stop-opacity="0.6706"/>
      </linearGradient>
      <linearGradient xlink:href="#grad1817" id="grad1818" x1="0" y1="0" x2="0" y2="1" gradientTransform="rotate(90 .5 .5)" gradientUnits="objectBoundingBox">
  </linearGradient>
    </defs>
    <path xmlns="http://www.w3.org/2000/svg" d="  M5.5005,25.8998 L5.5005,20.8688 L10.5323,20.8688 L10.5323,25.6920 L10.5323,25.8998 L5.5005,25.8998 Z M10.3230,25.6920 L10.3230,25.4835 L10.3230,25.6920 Z M5.9175,25.4835 L10.1160,25.4835 L10.1160,21.2850 L5.9175,21.2843 L5.9175,25.4835 Z" style="fill-rule: evenodd; fill: url(#grad1818); "/>
    <defs xmlns="http://www.w3.org/2000/svg" xmlns:xlink="http://www.w3.org/1999/xlink">
      <linearGradient id="grad1819">
        <stop offset="0%" stop-color="#000000" stop-opacity="0.6706"/>
        <stop offset="100%" stop-color="#748487" stop-opacity="0.6706"/>
      </linearGradient>
      <linearGradient xlink:href="#grad1819" id="grad1820" x1="0" y1="0" x2="0" y2="1" gradientTransform="rotate(90 .5 .5)" gradientUnits="objectBoundingBox">
  </linearGradient>
    </defs>
    <path xmlns="http://www.w3.org/2000/svg" d="  M5.4960,35.5155 L5.4960,30.4838 L10.5263,30.4838 L10.5263,35.3078 L10.5263,35.5155 L5.4960,35.5155 Z M10.3185,35.3078 L10.3185,35.1000 L10.3185,35.3078 Z M5.9115,35.0993 L10.1108,35.0993 L10.1108,30.9008 L5.9115,30.9008 L5.9115,35.0993 Z" style="fill-rule: evenodd; fill: url(#grad1820); "/>
    <defs xmlns="http://www.w3.org/2000/svg" xmlns:xlink="http://www.w3.org/1999/xlink">
      <linearGradient id="grad1821">
        <stop offset="0%" stop-color="#000000" stop-opacity="0.6706"/>
        <stop offset="100%" stop-color="#748487" stop-opacity="0.6706"/>
      </linearGradient>
      <linearGradient xlink:href="#grad1821" id="grad1822" x1="0" y1="0" x2="0" y2="1" gradientTransform="rotate(90 .5 .5)" gradientUnits="objectBoundingBox">
  </linearGradient>
    </defs>
    <path xmlns="http://www.w3.org/2000/svg" d="  M5.5125,45.0383 L5.5125,40.0065 L10.5435,40.0065 L10.5435,44.8305 L10.5435,45.0383 L5.5125,45.0383 Z M10.3350,44.8305 L10.3350,44.6228 L10.3350,44.8305 Z M5.9280,44.6228 L10.1273,44.6228 L10.1273,40.4243 L5.9280,40.4243 L5.9280,44.6228 Z" style="fill-rule: evenodd; fill: url(#grad1822); "/>
    <defs xmlns="http://www.w3.org/2000/svg" xmlns:xlink="http://www.w3.org/1999/xlink">
      <linearGradient id="grad1823">
        <stop offset="0%" stop-color="#000000" stop-opacity="0.6706"/>
        <stop offset="100%" stop-color="#848484" stop-opacity="0.6706"/>
      </linearGradient>
      <linearGradient xlink:href="#grad1823" id="grad1824" x1="0" y1="0" x2="0" y2="1" gradientTransform="rotate(135 .5 .5)" gradientUnits="objectBoundingBox">
  </linearGradient>
    </defs>
    <path xmlns="http://www.w3.org/2000/svg" d="  M13.9027,14.5950 L33.3855,14.5950 L33.3855,13.4903 L13.9027,13.4903 L13.9027,14.5950 Z" style="fill-rule: evenodd; fill: url(#grad1824); "/>
    <defs xmlns="http://www.w3.org/2000/svg" xmlns:xlink="http://www.w3.org/1999/xlink">
      <linearGradient id="grad1825">
        <stop offset="0%" stop-color="#000000" stop-opacity="0.6706"/>
        <stop offset="100%" stop-color="#848484" stop-opacity="0.6706"/>
      </linearGradient>
      <linearGradient xlink:href="#grad1825" id="grad1826" x1="0" y1="0" x2="0" y2="1" gradientTransform="rotate(135 .5 .5)" gradientUnits="objectBoundingBox">
  </linearGradient>
    </defs>
    <path xmlns="http://www.w3.org/2000/svg" d="  M13.9410,23.7713 L33.4238,23.7713 L33.4238,22.6665 L13.9410,22.6665 L13.9410,23.7713 Z" style="fill-rule: evenodd; fill: url(#grad1826); "/>
    <defs xmlns="http://www.w3.org/2000/svg" xmlns:xlink="http://www.w3.org/1999/xlink">
      <linearGradient id="grad1827">
        <stop offset="0%" stop-color="#000000" stop-opacity="0.6706"/>
        <stop offset="100%" stop-color="#848484" stop-opacity="0.6706"/>
      </linearGradient>
      <linearGradient xlink:href="#grad1827" id="grad1828" x1="0" y1="0" x2="0" y2="1" gradientTransform="rotate(135 .5 .5)" gradientUnits="objectBoundingBox">
  </linearGradient>
    </defs>
    <path xmlns="http://www.w3.org/2000/svg" d="  M13.8922,33.4725 L33.3742,33.4725 L33.3742,32.3677 L13.8922,32.3677 L13.8922,33.4725 Z" style="fill-rule: evenodd; fill: url(#grad1828); "/>
    <defs xmlns="http://www.w3.org/2000/svg" xmlns:xlink="http://www.w3.org/1999/xlink">
      <linearGradient id="grad1829">
        <stop offset="0%" stop-color="#fffce1" stop-opacity="1.0000"/>
        <stop offset="100%" stop-color="#ffffff" stop-opacity="1.0000"/>
      </linearGradient>
      <linearGradient xlink:href="#grad1829" id="grad1830" x1="0" y1="0" x2="0" y2="1" gradientTransform="rotate(135 .5 .5)" gradientUnits="objectBoundingBox">
  </linearGradient>
    </defs>
    <path xmlns="http://www.w3.org/2000/svg" d="  M5.9227,25.5000 L10.1385,25.5000 L10.1385,21.3008 L5.9227,21.3008 L5.9227,25.5000 Z" style="fill-rule: evenodd; fill: url(#grad1830); "/>
    <defs xmlns="http://www.w3.org/2000/svg" xmlns:xlink="http://www.w3.org/1999/xlink">
      <linearGradient id="grad1831">
        <stop offset="0%" stop-color="#fffce1" stop-opacity="1.0000"/>
        <stop offset="100%" stop-color="#ffffff" stop-opacity="1.0000"/>
      </linearGradient>
      <linearGradient xlink:href="#grad1831" id="grad1832" x1="0" y1="0" x2="0" y2="1" gradientTransform="rotate(135 .5 .5)" gradientUnits="objectBoundingBox">
  </linearGradient>
    </defs>
    <path xmlns="http://www.w3.org/2000/svg" d="  M5.9227,35.1353 L10.1385,35.1353 L10.1385,30.9353 L5.9227,30.9353 L5.9227,35.1353 Z" style="fill-rule: evenodd; fill: url(#grad1832); "/>
    <defs xmlns="http://www.w3.org/2000/svg" xmlns:xlink="http://www.w3.org/1999/xlink">
      <linearGradient id="grad1833">
        <stop offset="0%" stop-color="#fffce1" stop-opacity="1.0000"/>
        <stop offset="100%" stop-color="#ffffff" stop-opacity="1.0000"/>
      </linearGradient>
      <linearGradient xlink:href="#grad1833" id="grad1834" x1="0" y1="0" x2="0" y2="1" gradientTransform="rotate(135 .5 .5)" gradientUnits="objectBoundingBox">
  </linearGradient>
    </defs>
    <path xmlns="http://www.w3.org/2000/svg" d="  M5.9227,44.6445 L10.1385,44.6445 L10.1385,40.4460 L5.9227,40.4460 L5.9227,44.6445 Z" style="fill-rule: evenodd; fill: url(#grad1834); "/>
    <defs xmlns="http://www.w3.org/2000/svg" xmlns:xlink="http://www.w3.org/1999/xlink">
      <linearGradient id="grad1835">
        <stop offset="0%" stop-color="#fffce1" stop-opacity="1.0000"/>
        <stop offset="100%" stop-color="#ffffff" stop-opacity="1.0000"/>
      </linearGradient>
      <linearGradient xlink:href="#grad1835" id="grad1836" x1="0" y1="0" x2="0" y2="1" gradientTransform="rotate(135 .5 .5)" gradientUnits="objectBoundingBox">
  </linearGradient>
    </defs>
    <path xmlns="http://www.w3.org/2000/svg" d="  M5.8695,16.0477 L10.0867,16.0477 L10.0867,11.8485 L5.8695,11.8485 L5.8695,16.0477 Z" style="fill-rule: evenodd; fill: url(#grad1836); "/>
    <defs xmlns="http://www.w3.org/2000/svg">
      <radialGradient id="grad1837" cx="50.0000%" cy="50.0000%" r="100.0000%">
        <stop offset="0%" stop-color="#848484" stop-opacity="0.6314"/>
        <stop offset="100%" stop-color="#f4e3ab" stop-opacity="0.6314"/>
      </radialGradient>
    </defs>
    <path xmlns="http://www.w3.org/2000/svg" d="  M40.3455,11.6408 C40.3455,11.5103 40.2840,11.3070 40.2473,11.1900 C39.6495,9.3285 37.7940,9.0863 36.8565,9.0863 C35.8957,9.0863 31.7693,9.0930 31.7693,9.0930 C31.7693,9.0930 31.8135,5.7398 31.7693,4.7730 C31.7280,3.8055 31.3463,0.2693 28.7423,0.3053 C28.7423,0.3053 29.1300,0.3683 29.4855,0.5468 C30.0833,0.8475 31.6710,1.7445 31.1700,9.8438 C31.1700,9.8438 31.2810,9.8415 31.3005,9.8438 C32.9678,10.0470 38.6775,8.8800 40.1588,11.2170 L40.3455,11.6408 Z" style="fill-rule: evenodd; fill: url(#grad1837); "/>
    <defs xmlns="http://www.w3.org/2000/svg" xmlns:xlink="http://www.w3.org/1999/xlink">
      <linearGradient id="grad1838">
        <stop offset="0%" stop-color="#e3e7e6" stop-opacity="1.0000"/>
        <stop offset="100%" stop-color="#fafafa" stop-opacity="1.0000"/>
      </linearGradient>
      <linearGradient xlink:href="#grad1838" id="grad1839" x1="0" y1="0" x2="0" y2="1" gradientTransform="rotate(315 .5 .5)" gradientUnits="objectBoundingBox">
  </linearGradient>
    </defs>
    <path xmlns="http://www.w3.org/2000/svg" d="  M0.0000,51.8415 L0.0000,0.0255 L0.2063,0.0255 C0.2063,0.0255 12.9007,0.0142 21.4395,0.0142 C25.7198,0.0142 28.9155,0.0150 29.0430,0.0262 C31.4640,0.3150 31.8638,3.7125 31.9207,4.7025 C31.9358,5.0280 31.9395,5.6070 31.9395,6.2392 C31.9395,7.2150 31.8938,8.5538 31.8900,9.0045 C32.7218,9.0045 36.0382,8.9520 36.8438,8.9520 L36.8775,8.9190 L36.8775,9.1252 C35.9460,9.1252 31.9553,9.1252 31.9553,9.1252 L31.7475,9.1252 L31.7505,8.9167 C31.7505,8.9137 31.7677,7.4475 31.7677,6.1875 C31.7677,5.5575 31.7617,4.9785 31.7505,4.6687 C31.7288,3.7522 30.9855,0.5790 29.0017,0.4380 C28.9605,0.4312 25.6965,0.4267 21.4395,0.4282 C13.5337,0.4282 2.0813,0.4372 0.4125,0.4387 L0.4125,51.4290 L40.1303,51.4290 C40.1303,49.4145 40.1333,33.1005 40.1333,21.9787 C40.1333,16.2397 40.1333,11.8732 40.1303,11.5957 C39.6908,9.4215 37.7790,9.1357 36.8782,9.1252 L36.8782,8.9190 L36.8445,8.9520 C37.8038,8.9430 40.0477,9.0630 40.5405,11.5418 C40.5480,11.6295 40.5435,16.0252 40.5450,21.9787 C40.5450,33.8490 40.5420,51.6337 40.5435,51.6337 L40.5435,51.8415 L0.0000,51.8415 Z" style="fill-rule: evenodd; fill: url(#grad1839); "/>
    <defs xmlns="http://www.w3.org/2000/svg">
      <radialGradient id="grad1840" cx="50.0000%" cy="50.0000%" r="100.0000%">
        <stop offset="0%" stop-color="#000000" stop-opacity="0.3686"/>
        <stop offset="100%" stop-color="#ffffff" stop-opacity="0.3686"/>
      </radialGradient>
    </defs>
    <path xmlns="http://www.w3.org/2000/svg" d="  M40.1610,11.7765 C40.1640,11.6738 40.1055,11.4713 40.0673,11.3573 C39.4958,9.5633 37.7048,9.3270 36.7755,9.3255 C35.8148,9.3255 31.6943,9.3323 31.6883,9.3323 L31.5825,9.3323 L31.5840,9.2273 C31.5840,9.2243 31.6028,7.7370 31.6028,6.4583 C31.6028,5.8185 31.5983,5.2313 31.5840,4.9133 C31.5488,3.9495 31.1460,0.5183 28.7003,0.5445 C28.6853,0.5445 28.6733,0.5445 28.6673,0.5453 C28.6088,0.5475 28.5593,0.5040 28.5570,0.4463 C28.5548,0.3885 28.5990,0.3398 28.6560,0.3368 C28.6733,0.3360 28.6890,0.3368 28.7010,0.3368 C31.3913,0.3630 31.7475,3.9428 31.7925,4.9043 C31.8075,5.2298 31.8113,5.8170 31.8113,6.4583 C31.8113,7.5368 31.7978,8.7638 31.7955,9.1253 C32.4443,9.1238 35.9055,9.1185 36.7763,9.1185 C37.7243,9.1163 39.6428,9.3645 40.2668,11.2943 C40.3035,11.4150 40.3680,11.6168 40.3710,11.7773 C40.3710,11.8343 40.3238,11.8815 40.2668,11.8815 C40.2075,11.8800 40.1610,11.8328 40.1610,11.7765 Z" style="fill-rule: evenodd; fill: url(#grad1840); "/>
    <defs xmlns="http://www.w3.org/2000/svg" xmlns:xlink="http://www.w3.org/1999/xlink">
      <linearGradient id="grad1841">
        <stop offset="0%" stop-color="#ffda85" stop-opacity="0.3882"/>
        <stop offset="100%" stop-color="#f2ebce" stop-opacity="0.3882"/>
      </linearGradient>
      <linearGradient xlink:href="#grad1841" id="grad1842" x1="0" y1="0" x2="0" y2="1" gradientTransform="rotate(135 .5 .5)" gradientUnits="objectBoundingBox">
  </linearGradient>
    </defs>
    <path xmlns="http://www.w3.org/2000/svg" d="  M13.8975,15.0750 L33.3810,15.0750 L33.3810,13.9703 L13.8975,13.9703 L13.8975,15.0750 Z" style="fill-rule: evenodd; fill: url(#grad1842); "/>
    <defs xmlns="http://www.w3.org/2000/svg" xmlns:xlink="http://www.w3.org/1999/xlink">
      <linearGradient id="grad1843">
        <stop offset="0%" stop-color="#ffda85" stop-opacity="0.3882"/>
        <stop offset="100%" stop-color="#f2ebce" stop-opacity="0.3882"/>
      </linearGradient>
      <linearGradient xlink:href="#grad1843" id="grad1844" x1="0" y1="0" x2="0" y2="1" gradientTransform="rotate(135 .5 .5)" gradientUnits="objectBoundingBox">
  </linearGradient>
    </defs>
    <path xmlns="http://www.w3.org/2000/svg" d="  M13.9358,24.2505 L33.4192,24.2505 L33.4192,23.1465 L13.9358,23.1465 L13.9358,24.2505 Z" style="fill-rule: evenodd; fill: url(#grad1844); "/>
    <defs xmlns="http://www.w3.org/2000/svg" xmlns:xlink="http://www.w3.org/1999/xlink">
      <linearGradient id="grad1845">
        <stop offset="0%" stop-color="#ffda85" stop-opacity="0.3882"/>
        <stop offset="100%" stop-color="#f2ebce" stop-opacity="0.3882"/>
      </linearGradient>
      <linearGradient xlink:href="#grad1845" id="grad1846" x1="0" y1="0" x2="0" y2="1" gradientTransform="rotate(135 .5 .5)" gradientUnits="objectBoundingBox">
  </linearGradient>
    </defs>
    <path xmlns="http://www.w3.org/2000/svg" d="  M13.8870,33.9525 L33.3697,33.9525 L33.3697,32.8477 L13.8870,32.8477 L13.8870,33.9525 Z" style="fill-rule: evenodd; fill: url(#grad1846); "/>
    <defs xmlns="http://www.w3.org/2000/svg">
      <linearGradient id="grad1847">
        <stop offset="0%" stop-color="#ededed" stop-opacity="0.4118"/>
        <stop offset="100%" stop-color="#7f8787" stop-opacity="0.4118"/>
      </linearGradient>
    </defs>
    <path xmlns="http://www.w3.org/2000/svg" d="  M6.2100,25.2510 L9.8250,25.2510 L9.8250,21.6510 L6.2100,21.6510 L6.2100,25.2510 Z" style="fill-rule: evenodd; fill: url(#grad1847); "/>
    <defs xmlns="http://www.w3.org/2000/svg">
      <linearGradient id="grad1848">
        <stop offset="0%" stop-color="#ededed" stop-opacity="0.4118"/>
        <stop offset="100%" stop-color="#7f8787" stop-opacity="0.4118"/>
      </linearGradient>
    </defs>
    <path xmlns="http://www.w3.org/2000/svg" d="  M6.2100,34.8578 L9.8250,34.8578 L9.8250,31.2570 L6.2100,31.2570 L6.2100,34.8578 Z" style="fill-rule: evenodd; fill: url(#grad1848); "/>
    <defs xmlns="http://www.w3.org/2000/svg">
      <linearGradient id="grad1849">
        <stop offset="0%" stop-color="#ededed" stop-opacity="0.4118"/>
        <stop offset="100%" stop-color="#7f8787" stop-opacity="0.4118"/>
      </linearGradient>
    </defs>
    <path xmlns="http://www.w3.org/2000/svg" d="  M6.2550,44.3587 L9.8700,44.3587 L9.8700,40.7580 L6.2550,40.7580 L6.2550,44.3587 Z" style="fill-rule: evenodd; fill: url(#grad1849); "/>
    <defs xmlns="http://www.w3.org/2000/svg">
      <linearGradient id="grad1850">
        <stop offset="0%" stop-color="#ededed" stop-opacity="0.4118"/>
        <stop offset="100%" stop-color="#7f8787" stop-opacity="0.4118"/>
      </linearGradient>
    </defs>
    <path xmlns="http://www.w3.org/2000/svg" d="  M6.1657,15.7530 L9.7807,15.7530 L9.7807,12.1530 L6.1657,12.1530 L6.1657,15.7530 Z" style="fill-rule: evenodd; fill: url(#grad1850); "/>
    <defs xmlns="http://www.w3.org/2000/svg" xmlns:xlink="http://www.w3.org/1999/xlink">
      <linearGradient id="grad1851">
        <stop offset="0%" stop-color="#000000" stop-opacity="0.6706"/>
        <stop offset="100%" stop-color="#848484" stop-opacity="0.6706"/>
      </linearGradient>
      <linearGradient xlink:href="#grad1851" id="grad1852" x1="0" y1="0" x2="0" y2="1" gradientTransform="rotate(135 .5 .5)" gradientUnits="objectBoundingBox">
  </linearGradient>
    </defs>
    <path xmlns="http://www.w3.org/2000/svg" d="  M13.8938,42.9292 L33.3758,42.9292 L33.3758,41.8245 L13.8938,41.8245 L13.8938,42.9292 Z" style="fill-rule: evenodd; fill: url(#grad1852); "/>
    <defs xmlns="http://www.w3.org/2000/svg" xmlns:xlink="http://www.w3.org/1999/xlink">
      <linearGradient id="grad1853">
        <stop offset="0%" stop-color="#ffda85" stop-opacity="0.3882"/>
        <stop offset="100%" stop-color="#f2ebce" stop-opacity="0.3882"/>
      </linearGradient>
      <linearGradient xlink:href="#grad1853" id="grad1854" x1="0" y1="0" x2="0" y2="1" gradientTransform="rotate(135 .5 .5)" gradientUnits="objectBoundingBox">
  </linearGradient>
    </defs>
    <path xmlns="http://www.w3.org/2000/svg" d="  M13.8885,43.4085 L33.3712,43.4085 L33.3712,42.3052 L13.8885,42.3052 L13.8885,43.4085 Z" style="fill-rule: evenodd; fill: url(#grad1854); "/>
    <defs xmlns="http://www.w3.org/2000/svg">
      <radialGradient id="grad1855" cx="50.0000%" cy="50.0000%" r="100.0000%">
        <stop offset="0%" stop-color="#85919c" stop-opacity="1.0000"/>
        <stop offset="100%" stop-color="#dadfe1" stop-opacity="1.0000"/>
      </radialGradient>
    </defs>
    <path xmlns="http://www.w3.org/2000/svg" d="  M40.2810,11.4772 C40.2810,11.3467 40.2180,11.1435 40.1813,11.0265 C39.5835,9.1650 37.7280,8.9228 36.7905,8.9228 C35.8297,8.9228 31.7033,8.9295 31.7033,8.9295 C31.7033,8.9295 31.7475,5.5762 31.7033,4.6095 C31.6620,3.6427 31.2803,0.1057 28.6763,0.1425 C28.6763,0.1425 29.0633,0.2055 29.4195,0.3840 C30.0173,0.6847 31.6050,1.5817 31.1040,9.6810 C31.1040,9.6810 31.2150,9.6787 31.2345,9.6810 C32.9033,9.8842 38.6115,8.7172 40.0928,11.0542 L40.2810,11.4772 Z" style="fill-rule: evenodd; fill: url(#grad1855); "/>
    <defs xmlns="http://www.w3.org/2000/svg">
      <radialGradient id="grad1856" cx="50.0000%" cy="50.0000%" r="100.0000%">
        <stop offset="0%" stop-color="#000000" stop-opacity="0.3686"/>
        <stop offset="100%" stop-color="#ffffff" stop-opacity="0.3686"/>
      </radialGradient>
    </defs>
    <path xmlns="http://www.w3.org/2000/svg" d="  M40.0965,11.6122 C40.0980,11.5095 40.0395,11.3062 40.0012,11.1930 C39.4297,9.3990 37.6387,9.1627 36.7095,9.1612 C35.7502,9.1612 31.6282,9.1680 31.6237,9.1680 L31.5165,9.1680 L31.5180,9.0630 C31.5180,9.0607 31.5367,7.5727 31.5367,6.2940 C31.5367,5.6550 31.5322,5.0677 31.5180,4.7490 C31.4828,3.7852 31.0800,0.3540 28.6357,0.3802 C28.6200,0.3802 28.6080,0.3802 28.6005,0.3810 C28.5435,0.3832 28.4932,0.3397 28.4910,0.2820 C28.4880,0.2242 28.5322,0.1755 28.5900,0.1725 C28.6065,0.1717 28.6230,0.1725 28.6357,0.1725 C31.3245,0.1987 31.6807,3.7785 31.7280,4.7400 C31.7415,5.0655 31.7452,5.6527 31.7452,6.2932 C31.7452,7.3717 31.7317,8.5987 31.7280,8.9602 C32.3782,8.9595 35.8395,8.9535 36.7102,8.9535 C37.6582,8.9512 39.5767,9.1987 40.2007,11.1292 C40.2375,11.2492 40.3035,11.4517 40.3035,11.6122 C40.3035,11.6692 40.2577,11.7165 40.2007,11.7165 C40.1415,11.7165 40.0965,11.6692 40.0965,11.6122 Z" style="fill-rule: evenodd; fill: url(#grad1856); "/>
    <defs xmlns="http://www.w3.org/2000/svg">
      <radialGradient id="grad1857" cx="50.0000%" cy="50.0000%" r="100.0000%">
        <stop offset="0%" stop-color="#a6d6f5" stop-opacity="1.0000"/>
        <stop offset="100%" stop-color="#6c90b4" stop-opacity="1.0000"/>
      </radialGradient>
    </defs>
    <path xmlns="http://www.w3.org/2000/svg" d="  M57.3375,50.7735 C57.3375,50.5725 57.3420,43.7558 53.5755,41.0078 C52.3448,40.1085 46.6305,36.3233 42.2797,36.1913 C38.4758,36.0758 32.1210,37.8188 30.3705,42.3202 C29.7570,43.8967 29.4945,46.3485 29.3190,48.4553 C29.3190,48.4935 29.3175,48.5340 29.3175,48.5707 C29.3175,50.3888 30.5512,52.0410 32.5650,53.2658 C33.9128,54.0863 35.6482,55.1010 37.0252,55.8923 C39.1830,57.1343 42.1110,57.6225 45.4088,57.6225 C51.9967,57.6218 57.3375,54.5557 57.3375,50.7735 Z" style="fill-rule: evenodd; fill: url(#grad1857); "/>
    <path xmlns="http://www.w3.org/2000/svg" d="  M35.4322,55.0665 C37.9372,49.8323 38.4262,48.1260 39.5745,46.3710 C42.2550,42.2828 45.4380,41.1975 46.4257,39.9285 C47.8395,38.1105 47.3280,37.1453 46.0800,36.6690 C44.9782,36.2483 43.2292,36.0113 41.3497,36.3863 C39.3120,36.7950 36.5242,38.8605 35.7382,40.7895 C35.0527,42.4680 34.4812,53.8778 34.3920,52.9245 C34.5315,54.4170 34.5315,54.5370 34.5315,54.5370 L35.4322,55.0665 Z" style="fill-rule: evenodd; fill: #dae3f9; "/>
    <path xmlns="http://www.w3.org/2000/svg" d="  M37.4670,38.5890 C37.4670,38.5890 35.8147,39.6360 34.9695,46.2630 C34.6297,48.9203 34.5270,54.5280 34.5270,54.5280 L34.3860,54.4545 C34.3860,54.4545 34.0065,48.5295 34.2090,46.1888 C34.4827,42.9795 34.8990,40.7700 37.6687,37.3013 L37.4670,38.5890 Z" style="fill-rule: evenodd; fill: #dae3f9; "/>
    <path xmlns="http://www.w3.org/2000/svg" d="  M37.8330,38.6063 C37.8330,38.6063 35.8965,41.5260 35.3722,46.1490 C35.0707,48.8108 34.5315,54.5385 34.5315,54.5385 C34.5315,54.5385 34.3305,49.0470 34.5742,46.2068 C34.8495,42.9990 35.4855,40.1025 38.2553,36.6338 L37.8330,38.6063 Z" style="fill-rule: evenodd; fill: #727376; "/>
    <defs xmlns="http://www.w3.org/2000/svg">
      <radialGradient id="grad1858" cx="50.0000%" cy="50.0000%" r="100.0000%">
        <stop offset="0%" stop-color="#6f4923" stop-opacity="1.0000"/>
        <stop offset="100%" stop-color="#e5c2a0" stop-opacity="1.0000"/>
      </radialGradient>
    </defs>
    <path xmlns="http://www.w3.org/2000/svg" d="  M47.3092,37.8810 C47.2665,37.4603 47.1495,37.4138 47.1495,37.4138 C47.1495,37.4138 46.1917,32.2103 46.1647,31.9613 C46.0020,30.3690 44.7600,29.8530 42.1305,29.8530 C39.5010,29.8530 37.3695,31.0763 37.3695,32.5868 C37.3695,32.8853 37.3155,39.1215 37.3035,39.6255 C37.2390,42.5213 40.0942,44.2223 44.0288,41.8140 C46.1857,40.4948 47.2478,39.2408 47.3092,37.8810 Z" style="fill-rule: evenodd; fill: url(#grad1858); "/>
    <path xmlns="http://www.w3.org/2000/svg" d="  M48.5955,26.2283 C47.8305,25.7783 46.5900,26.5140 45.8227,27.8700 C45.0555,29.2268 45.0510,30.6915 45.8137,31.1415 C46.5765,31.5915 47.8177,30.8558 48.5865,29.4998 C49.3537,28.1423 49.3567,26.6775 48.5955,26.2283 Z" style="fill-rule: evenodd; fill: #c6a27e; "/>
    <defs xmlns="http://www.w3.org/2000/svg">
      <radialGradient id="grad1859" cx="50.0000%" cy="50.0000%" r="100.0000%">
        <stop offset="0%" stop-color="#6f4923" stop-opacity="1.0000"/>
        <stop offset="100%" stop-color="#e5c2a0" stop-opacity="1.0000"/>
      </radialGradient>
    </defs>
    <path xmlns="http://www.w3.org/2000/svg" d="  M48.5955,26.9730 C47.8305,26.5238 46.5900,27.2588 45.8227,28.6155 C45.0555,29.9738 45.0510,31.4370 45.8137,31.8870 C46.5765,32.3370 47.8177,31.6013 48.5865,30.2453 C49.3537,28.8870 49.3567,27.4230 48.5955,26.9730 Z" style="fill-rule: evenodd; fill: url(#grad1859); "/>
    <defs xmlns="http://www.w3.org/2000/svg">
      <radialGradient id="grad1860" cx="50.0000%" cy="50.0000%" r="100.0000%">
        <stop offset="0%" stop-color="#ebc8a7" stop-opacity="1.0000"/>
        <stop offset="100%" stop-color="#805a34" stop-opacity="1.0000"/>
      </radialGradient>
    </defs>
    <path xmlns="http://www.w3.org/2000/svg" d="  M46.5810,28.1003 C46.5810,33.7328 43.8577,38.1023 39.9465,38.1023 C36.0337,38.1023 32.8642,33.5363 32.8642,27.9023 C32.8642,22.2698 33.9907,18.0128 39.9465,17.7038 C43.8517,17.5020 46.5810,22.4678 46.5810,28.1003 Z" style="fill-rule: evenodd; fill: url(#grad1860); "/>
    <path xmlns="http://www.w3.org/2000/svg" d="  M39.6217,37.6628 C39.6525,37.6628 39.6817,37.6658 39.7110,37.6658 C43.4010,37.6658 45.9765,33.5745 46.0125,28.2773 C45.5032,32.3895 42.7342,37.0170 39.6217,37.6628 Z" style="fill-rule: evenodd; fill: #a17c57; "/>
    <path xmlns="http://www.w3.org/2000/svg" d="  M48.5820,26.2808 C49.4257,26.5710 49.1707,28.4130 49.1490,28.6560 C50.8567,24.0638 49.5735,19.2270 47.3677,17.6738 C46.6455,17.1660 44.9452,16.0125 41.4585,15.9038 C44.9167,17.6738 45.6615,23.5080 44.8845,23.9438 C46.2757,23.7008 46.5015,26.9925 46.5015,26.9925 C46.5015,26.9925 47.2897,25.8368 48.5820,26.2808 Z" style="fill-rule: evenodd; fill: #3d3d3d; "/>
    <defs xmlns="http://www.w3.org/2000/svg">
      <radialGradient id="grad1861" cx="50.0000%" cy="50.0000%" r="100.0000%">
        <stop offset="0%" stop-color="#8e8e8e" stop-opacity="1.0000"/>
        <stop offset="100%" stop-color="#4f4f4f" stop-opacity="1.0000"/>
      </radialGradient>
    </defs>
    <path xmlns="http://www.w3.org/2000/svg" d="  M48.3037,20.2725 A7.7175,4.4302 180.0000 1,1 40.5862,15.8423 A7.7175,4.4302 180.0000 0,1 48.3037,20.2725 Z" style="fill-rule: evenodd; fill: url(#grad1861); "/>
    <defs xmlns="http://www.w3.org/2000/svg" xmlns:xlink="http://www.w3.org/1999/xlink">
      <linearGradient id="grad1862">
        <stop offset="0%" stop-color="#7f8787" stop-opacity="1.0000"/>
        <stop offset="100%" stop-color="#dae1e1" stop-opacity="1.0000"/>
      </linearGradient>
      <linearGradient xlink:href="#grad1862" id="grad1863" x1="0" y1="0" x2="0" y2="1" gradientTransform="rotate(135 .5 .5)" gradientUnits="objectBoundingBox">
  </linearGradient>
    </defs>
    <path xmlns="http://www.w3.org/2000/svg" d="  M45.9645,24.6578 C45.9600,24.6578 45.5647,23.8658 44.7382,23.9280 C43.9132,23.9910 42.7492,24.3428 40.3950,24.2513 C36.7710,24.2490 33.9757,22.9328 33.1882,20.9963 C33.1732,20.9580 33.1912,20.9153 33.2295,20.8995 C33.2677,20.8838 33.3112,20.9025 33.3262,20.9408 C34.0657,22.7835 37.5390,23.6303 39.9885,23.7690 C41.8605,23.8748 43.6890,23.6235 44.6587,23.6693 C45.6292,23.7158 45.9645,24.6578 45.9645,24.6578 Z" style="fill-rule: evenodd; fill: url(#grad1863); "/>
    <defs xmlns="http://www.w3.org/2000/svg" xmlns:xlink="http://www.w3.org/1999/xlink">
      <linearGradient id="grad1864">
        <stop offset="0%" stop-color="#080808" stop-opacity="1.0000"/>
        <stop offset="100%" stop-color="#c4c5c6" stop-opacity="1.0000"/>
      </linearGradient>
      <linearGradient xlink:href="#grad1864" id="grad1865" x1="0" y1="0" x2="0" y2="1" gradientTransform="rotate(315 .5 .5)" gradientUnits="objectBoundingBox">
  </linearGradient>
    </defs>
    <path xmlns="http://www.w3.org/2000/svg" d="  M32.5710,32.4353 C32.2808,32.2260 30.9083,31.3290 30.9083,31.3290 C30.9083,31.3290 30.4238,31.2263 30.3690,31.2203 C30.0803,31.1925 29.7053,31.4618 29.4563,31.8998 C29.1870,32.3760 29.1660,32.8845 29.3858,33.0998 L29.7765,33.4410 C29.7765,33.4410 31.2060,34.1985 31.5360,34.3358 C31.8293,34.4588 32.6243,34.4603 32.6243,34.4603 L33.3360,33.2018 C33.3375,33.2025 32.8688,32.6520 32.5710,32.4353 Z" style="fill-rule: evenodd; fill: url(#grad1865); "/>
    <g xmlns="http://www.w3.org/2000/svg" id="Layer1102">
      <path d="  M30.0285,32.1885 C30.3218,31.6703 30.7770,31.3710 31.1010,31.4573 C31.0823,31.4400 30.9765,31.3770 30.9548,31.3635 C30.6308,31.1730 30.1065,31.4835 29.7818,32.0580 C29.4578,32.6325 29.4563,33.2505 29.7788,33.4410 C29.8095,33.4583 29.9325,33.5115 29.9663,33.5213 C29.7075,33.2918 29.7255,32.7233 30.0285,32.1885 Z" style="stroke-width: 0.0196; stroke-linecap: butt; stroke-linejoin: miter; fill-rule: evenodd; fill: #cdcfcf; "/>
      <path d="  M30.0285,32.1885 C30.3218,31.6703 30.7770,31.3710 31.1010,31.4573 C31.0823,31.4400 30.9765,31.3770 30.9548,31.3635 C30.6308,31.1730 30.1065,31.4835 29.7818,32.0580 C29.4578,32.6325 29.4563,33.2505 29.7788,33.4410 C29.8095,33.4583 29.9325,33.5115 29.9663,33.5213 C29.7075,33.2918 29.7255,32.7233 30.0285,32.1885 Z" style="stroke-width: 0.0196; stroke: #000000; stroke-dasharray: none; stroke-linecap: butt; stroke-linejoin: miter; fill: none; "/>
    </g>
    <path xmlns="http://www.w3.org/2000/svg" d="  M33.3375,33.2025 C33.1425,33.0870 32.8230,33.2760 32.6288,33.6233 C32.4308,33.9720 32.4308,34.3455 32.6258,34.4610 C32.8208,34.5750 33.1388,34.3875 33.3360,34.0403 C33.5325,33.6915 33.5340,33.3180 33.3375,33.2025 Z" style="fill-rule: evenodd; fill: #333333; "/>
    <defs xmlns="http://www.w3.org/2000/svg" xmlns:xlink="http://www.w3.org/1999/xlink">
      <linearGradient id="grad1866">
        <stop offset="0%" stop-color="#080808" stop-opacity="1.0000"/>
        <stop offset="100%" stop-color="#c4c5c6" stop-opacity="1.0000"/>
      </linearGradient>
      <linearGradient xlink:href="#grad1866" id="grad1867" x1="0" y1="0" x2="0" y2="1" gradientTransform="rotate(90 .5 .5)" gradientUnits="objectBoundingBox">
  </linearGradient>
    </defs>
    <path xmlns="http://www.w3.org/2000/svg" d="  M49.3807,26.8755 C48.4035,26.3002 46.8173,27.2407 45.8340,28.9762 C44.8523,30.7117 44.8470,32.5845 45.8235,33.1582 C46.8008,33.7342 48.3870,32.7937 49.3702,31.0590 C50.3513,29.3220 50.3558,27.4507 49.3807,26.8755 Z" style="fill-rule: evenodd; fill: url(#grad1867); "/>
    <defs xmlns="http://www.w3.org/2000/svg">
      <radialGradient id="grad1868" cx="50.0000%" cy="50.0000%" r="100.0000%">
        <stop offset="0%" stop-color="#ffffff" stop-opacity="1.0000"/>
        <stop offset="100%" stop-color="#669999" stop-opacity="1.0000"/>
      </radialGradient>
    </defs>
    <path xmlns="http://www.w3.org/2000/svg" d="  M48.9847,27.5737 C48.2257,27.1260 46.9912,27.8572 46.2262,29.2065 C45.4627,30.5572 45.4605,32.0130 46.2187,32.4615 C46.9777,32.9085 48.2122,32.1772 48.9757,30.8280 C49.7407,29.4772 49.7437,28.0207 48.9847,27.5737 Z" style="fill-rule: evenodd; fill: url(#grad1868); "/>
    <defs xmlns="http://www.w3.org/2000/svg">
      <linearGradient id="grad1869">
        <stop offset="0%" stop-color="#080808" stop-opacity="1.0000"/>
        <stop offset="100%" stop-color="#c4c5c6" stop-opacity="1.0000"/>
      </linearGradient>
    </defs>
    <path xmlns="http://www.w3.org/2000/svg" d="  M48.1823,29.5508 C48.1328,29.5215 48.0668,29.5290 48.0023,29.5658 L48.0023,29.5643 L47.9978,29.5673 C47.9933,29.5703 47.9888,29.5718 47.9858,29.5748 L47.4015,29.9130 L47.4015,29.9175 C47.3235,29.9558 47.2448,30.0315 47.1863,30.1358 C47.0790,30.3233 47.0790,30.5243 47.1833,30.5873 C47.2343,30.6165 47.3003,30.6075 47.3678,30.5700 L47.3678,30.5730 L47.9888,30.2100 L47.9888,30.2085 C48.0578,30.1673 48.1268,30.0960 48.1808,30.0023 C48.2865,29.8140 48.2865,29.6123 48.1823,29.5508 Z" style="fill-rule: evenodd; fill: url(#grad1869); "/>
    <defs xmlns="http://www.w3.org/2000/svg" xmlns:xlink="http://www.w3.org/1999/xlink">
      <linearGradient id="grad1870">
        <stop offset="0%" stop-color="#ffffff" stop-opacity="1.0000"/>
        <stop offset="100%" stop-color="#669999" stop-opacity="1.0000"/>
      </linearGradient>
      <linearGradient xlink:href="#grad1870" id="grad1871" x1="0" y1="0" x2="0" y2="1" gradientTransform="rotate(90 .5 .5)" gradientUnits="objectBoundingBox">
  </linearGradient>
    </defs>
    <path xmlns="http://www.w3.org/2000/svg" d="  M46.4715,31.5308 C46.3088,31.4340 46.0440,31.5908 45.8798,31.8810 C45.8565,31.9238 45.8370,31.9643 45.8198,32.0070 C45.9135,32.2020 46.0455,32.3588 46.2195,32.4608 C46.2330,32.4698 46.2503,32.4743 46.2653,32.4810 C46.3403,32.4180 46.4115,32.3318 46.4700,32.2275 C46.6335,31.9395 46.6335,31.6260 46.4715,31.5308 Z" style="fill-rule: evenodd; fill: url(#grad1871); "/>
    <path xmlns="http://www.w3.org/2000/svg" d="  M46.2938,31.6132 C46.2173,31.5675 46.1123,31.5975 46.0140,31.6792 L41.0423,34.5562 C40.3755,34.9447 39.1290,35.2537 37.8390,35.2507 C36.7523,35.2522 35.6303,35.0355 34.7610,34.5240 L33.1583,33.6097 C33.1553,33.6097 33.1553,33.6067 33.1538,33.6052 C33.0705,33.5557 32.9325,33.6375 32.8463,33.7867 C32.7615,33.9375 32.7615,34.1002 32.8448,34.1497 C32.8508,34.1527 34.4490,35.0595 34.4490,35.0595 C35.4495,35.6467 36.6728,35.8695 37.8390,35.8710 C39.2280,35.8680 40.5375,35.5590 41.3535,35.0917 L45.8843,32.4727 C46.0868,32.3407 46.2360,32.2312 46.2930,32.1300 C46.4138,31.9162 46.4138,31.6852 46.2938,31.6132 Z" style="fill-rule: evenodd; fill: #333333; "/>
    <!--converted by libvisio2svg-->
  </g>
</svg>
