<svg xmlns="http://www.w3.org/2000/svg" xmlns:xlink="http://www.w3.org/1999/xlink" version="1.1" width="0.6411000000" height="0.8786000000" viewBox="0 0 46.1610 63.2625">
  <title><![CDATA[Exchange UM Dial Plan]]></title>
  <g transform=" scale(1.000000) ">
    <path xmlns="http://www.w3.org/2000/svg" d="  M46.1520,17.3790 C45.8955,16.0875 45.2070,15.3375 44.4443,14.9025 L35.5567,6.2093 C35.0310,5.2747 34.2547,4.4940 33.1410,4.3852 C32.8492,4.3575 0.0000,4.3852 0.0000,4.3852 L0.0000,63.2625 L46.1520,63.2625 C46.1520,63.2625 46.1610,17.4255 46.1520,17.3790 Z" style="stroke-width: 1.5000; stroke: #8d98b5; stroke-dasharray: none; stroke-linecap: butt; stroke-linejoin: miter; fill: none; "/>
    <defs xmlns="http://www.w3.org/2000/svg">
      <linearGradient id="grad1872">
        <stop offset="0%" stop-color="#2d2a2b" stop-opacity="1.0000"/>
        <stop offset="100%" stop-color="#c4c5c6" stop-opacity="1.0000"/>
      </linearGradient>
    </defs>
    <path xmlns="http://www.w3.org/2000/svg" d="  M22.3455,0.0473 L22.3200,0.0360 L22.3365,0.0000 L22.3613,0.0113 L22.3455,0.0473 Z" style="fill-rule: evenodd; fill: url(#grad1872); "/>
    <path xmlns="http://www.w3.org/2000/svg" d="  M22.3470,0.0435 C22.3515,0.0585 22.3545,0.0682 22.3545,0.0682 C22.3545,0.0682 22.3508,0.0577 22.3470,0.0435 Z" style="fill-rule: evenodd; fill: #a7e968; "/>
    <g xmlns="http://www.w3.org/2000/svg" xmlns:xlink="http://www.w3.org/1999/xlink" id="Layer1103">
      <defs>
        <linearGradient id="grad1873">
          <stop offset="0%" stop-color="#fffce1" stop-opacity="1.0000"/>
          <stop offset="100%" stop-color="#ffffff" stop-opacity="1.0000"/>
        </linearGradient>
        <linearGradient xlink:href="#grad1873" id="grad1874" x1="0" y1="0" x2="0" y2="1" gradientTransform="rotate(45 .5 .5)" gradientUnits="objectBoundingBox">
  </linearGradient>
      </defs>
      <path d="  M34.0260,5.4532 L44.9317,16.1475 L33.1770,16.2323 L34.0260,5.4532 Z" style="stroke-width: 0.3750; stroke-linecap: butt; stroke-linejoin: miter; fill-rule: evenodd; fill: url(#grad1874); "/>
      <path d="  M34.0260,5.4532 L44.9317,16.1475 L33.1770,16.2323 L34.0260,5.4532 Z" style="stroke-width: 0.3750; stroke: #bcbcbc; stroke-dasharray: none; stroke-linecap: butt; stroke-linejoin: miter; fill: none; "/>
    </g>
    <defs xmlns="http://www.w3.org/2000/svg" xmlns:xlink="http://www.w3.org/1999/xlink">
      <linearGradient id="grad1875">
        <stop offset="0%" stop-color="#fffce1" stop-opacity="1.0000"/>
        <stop offset="100%" stop-color="#ffffff" stop-opacity="1.0000"/>
      </linearGradient>
      <linearGradient xlink:href="#grad1875" id="grad1876" x1="0" y1="0" x2="0" y2="1" gradientTransform="rotate(135 .5 .5)" gradientUnits="objectBoundingBox">
  </linearGradient>
    </defs>
    <path xmlns="http://www.w3.org/2000/svg" d="  M41.9348,14.6745 C42.9937,14.6745 45.3375,15.0420 45.8617,17.6858 C45.8693,17.7315 45.8617,63.0945 45.8617,63.0945 L0.3023,63.0945 L0.3023,4.8262 C0.3023,4.8262 32.7315,4.7978 33.0202,4.8262 C35.5192,5.0692 36.3030,8.7645 36.3488,9.8452 C36.3945,10.9260 36.3488,14.6737 36.3488,14.6737 C36.3488,14.6737 40.8787,14.6745 41.9348,14.6745 Z" style="fill-rule: evenodd; fill: url(#grad1876); "/>
    <defs xmlns="http://www.w3.org/2000/svg" xmlns:xlink="http://www.w3.org/1999/xlink">
      <linearGradient id="grad1877">
        <stop offset="0%" stop-color="#000000" stop-opacity="0.6706"/>
        <stop offset="100%" stop-color="#748487" stop-opacity="0.6706"/>
      </linearGradient>
      <linearGradient xlink:href="#grad1877" id="grad1878" x1="0" y1="0" x2="0" y2="1" gradientTransform="rotate(135 .5 .5)" gradientUnits="objectBoundingBox">
  </linearGradient>
    </defs>
    <path xmlns="http://www.w3.org/2000/svg" d="  M6.4657,23.2680 L6.4657,17.6055 L12.1282,17.6055 L12.1282,23.0340 L12.1282,23.2688 L6.4657,23.2688 L6.4657,23.2680 Z M11.8942,23.0333 L11.8942,22.7992 L11.8942,23.0333 Z M6.9353,22.7992 L11.6602,22.7992 L11.6602,18.0735 L6.9353,18.0735 L6.9353,22.7992 Z" style="fill-rule: evenodd; fill: url(#grad1878); "/>
    <defs xmlns="http://www.w3.org/2000/svg" xmlns:xlink="http://www.w3.org/1999/xlink">
      <linearGradient id="grad1879">
        <stop offset="0%" stop-color="#000000" stop-opacity="0.6706"/>
        <stop offset="100%" stop-color="#748487" stop-opacity="0.6706"/>
      </linearGradient>
      <linearGradient xlink:href="#grad1879" id="grad1880" x1="0" y1="0" x2="0" y2="1" gradientTransform="rotate(90 .5 .5)" gradientUnits="objectBoundingBox">
  </linearGradient>
    </defs>
    <path xmlns="http://www.w3.org/2000/svg" d="  M6.4808,33.8865 L6.4808,28.2248 L12.1440,28.2248 L12.1440,33.6532 L12.1440,33.8873 L6.4808,33.8873 L6.4808,33.8865 Z M11.9085,33.6525 L11.9085,33.4177 L11.9085,33.6525 Z M6.9510,33.4185 L11.6752,33.4185 L11.6752,28.6928 L6.9510,28.6912 L6.9510,33.4185 Z" style="fill-rule: evenodd; fill: url(#grad1880); "/>
    <defs xmlns="http://www.w3.org/2000/svg" xmlns:xlink="http://www.w3.org/1999/xlink">
      <linearGradient id="grad1881">
        <stop offset="0%" stop-color="#000000" stop-opacity="0.6706"/>
        <stop offset="100%" stop-color="#748487" stop-opacity="0.6706"/>
      </linearGradient>
      <linearGradient xlink:href="#grad1881" id="grad1882" x1="0" y1="0" x2="0" y2="1" gradientTransform="rotate(90 .5 .5)" gradientUnits="objectBoundingBox">
  </linearGradient>
    </defs>
    <path xmlns="http://www.w3.org/2000/svg" d="  M6.4755,44.7060 L6.4755,39.0443 L12.1380,39.0443 L12.1380,44.4727 L12.1380,44.7060 L6.4755,44.7060 Z M11.9033,44.4735 L11.9033,44.2380 L11.9033,44.4735 Z M6.9428,44.2372 L11.6693,44.2372 L11.6693,39.5130 L6.9428,39.5130 L6.9428,44.2372 Z" style="fill-rule: evenodd; fill: url(#grad1882); "/>
    <defs xmlns="http://www.w3.org/2000/svg" xmlns:xlink="http://www.w3.org/1999/xlink">
      <linearGradient id="grad1883">
        <stop offset="0%" stop-color="#000000" stop-opacity="0.6706"/>
        <stop offset="100%" stop-color="#748487" stop-opacity="0.6706"/>
      </linearGradient>
      <linearGradient xlink:href="#grad1883" id="grad1884" x1="0" y1="0" x2="0" y2="1" gradientTransform="rotate(90 .5 .5)" gradientUnits="objectBoundingBox">
  </linearGradient>
    </defs>
    <path xmlns="http://www.w3.org/2000/svg" d="  M6.4935,55.4243 L6.4935,49.7610 L12.1568,49.7610 L12.1568,55.1895 L12.1568,55.4243 L6.4935,55.4243 Z M11.9213,55.1902 L11.9213,54.9555 L11.9213,55.1902 Z M6.9615,54.9555 L11.6872,54.9555 L11.6872,50.2298 L6.9615,50.2298 L6.9615,54.9555 Z" style="fill-rule: evenodd; fill: url(#grad1884); "/>
    <defs xmlns="http://www.w3.org/2000/svg" xmlns:xlink="http://www.w3.org/1999/xlink">
      <linearGradient id="grad1885">
        <stop offset="0%" stop-color="#000000" stop-opacity="0.6706"/>
        <stop offset="100%" stop-color="#848484" stop-opacity="0.6706"/>
      </linearGradient>
      <linearGradient xlink:href="#grad1885" id="grad1886" x1="0" y1="0" x2="0" y2="1" gradientTransform="rotate(135 .5 .5)" gradientUnits="objectBoundingBox">
  </linearGradient>
    </defs>
    <path xmlns="http://www.w3.org/2000/svg" d="  M15.9367,21.1635 L37.8637,21.1635 L37.8637,19.9200 L15.9367,19.9200 L15.9367,21.1635 Z" style="fill-rule: evenodd; fill: url(#grad1886); "/>
    <defs xmlns="http://www.w3.org/2000/svg" xmlns:xlink="http://www.w3.org/1999/xlink">
      <linearGradient id="grad1887">
        <stop offset="0%" stop-color="#000000" stop-opacity="0.6706"/>
        <stop offset="100%" stop-color="#848484" stop-opacity="0.6706"/>
      </linearGradient>
      <linearGradient xlink:href="#grad1887" id="grad1888" x1="0" y1="0" x2="0" y2="1" gradientTransform="rotate(135 .5 .5)" gradientUnits="objectBoundingBox">
  </linearGradient>
    </defs>
    <path xmlns="http://www.w3.org/2000/svg" d="  M15.9803,31.4895 L37.9080,31.4895 L37.9080,30.2467 L15.9803,30.2467 L15.9803,31.4895 Z" style="fill-rule: evenodd; fill: url(#grad1888); "/>
    <defs xmlns="http://www.w3.org/2000/svg" xmlns:xlink="http://www.w3.org/1999/xlink">
      <linearGradient id="grad1889">
        <stop offset="0%" stop-color="#000000" stop-opacity="0.6706"/>
        <stop offset="100%" stop-color="#848484" stop-opacity="0.6706"/>
      </linearGradient>
      <linearGradient xlink:href="#grad1889" id="grad1890" x1="0" y1="0" x2="0" y2="1" gradientTransform="rotate(135 .5 .5)" gradientUnits="objectBoundingBox">
  </linearGradient>
    </defs>
    <path xmlns="http://www.w3.org/2000/svg" d="  M15.9263,42.4065 L37.8525,42.4065 L37.8525,41.1645 L15.9263,41.1645 L15.9263,42.4065 Z" style="fill-rule: evenodd; fill: url(#grad1890); "/>
    <defs xmlns="http://www.w3.org/2000/svg" xmlns:xlink="http://www.w3.org/1999/xlink">
      <linearGradient id="grad1891">
        <stop offset="0%" stop-color="#fffce1" stop-opacity="1.0000"/>
        <stop offset="100%" stop-color="#ffffff" stop-opacity="1.0000"/>
      </linearGradient>
      <linearGradient xlink:href="#grad1891" id="grad1892" x1="0" y1="0" x2="0" y2="1" gradientTransform="rotate(135 .5 .5)" gradientUnits="objectBoundingBox">
  </linearGradient>
    </defs>
    <path xmlns="http://www.w3.org/2000/svg" d="  M6.9563,33.4357 L11.7015,33.4357 L11.7015,28.7100 L6.9563,28.7100 L6.9563,33.4357 Z" style="fill-rule: evenodd; fill: url(#grad1892); "/>
    <defs xmlns="http://www.w3.org/2000/svg" xmlns:xlink="http://www.w3.org/1999/xlink">
      <linearGradient id="grad1893">
        <stop offset="0%" stop-color="#fffce1" stop-opacity="1.0000"/>
        <stop offset="100%" stop-color="#ffffff" stop-opacity="1.0000"/>
      </linearGradient>
      <linearGradient xlink:href="#grad1893" id="grad1894" x1="0" y1="0" x2="0" y2="1" gradientTransform="rotate(135 .5 .5)" gradientUnits="objectBoundingBox">
  </linearGradient>
    </defs>
    <path xmlns="http://www.w3.org/2000/svg" d="  M6.9563,44.2770 L11.7015,44.2770 L11.7015,39.5512 L6.9563,39.5512 L6.9563,44.2770 Z" style="fill-rule: evenodd; fill: url(#grad1894); "/>
    <defs xmlns="http://www.w3.org/2000/svg" xmlns:xlink="http://www.w3.org/1999/xlink">
      <linearGradient id="grad1895">
        <stop offset="0%" stop-color="#fffce1" stop-opacity="1.0000"/>
        <stop offset="100%" stop-color="#ffffff" stop-opacity="1.0000"/>
      </linearGradient>
      <linearGradient xlink:href="#grad1895" id="grad1896" x1="0" y1="0" x2="0" y2="1" gradientTransform="rotate(135 .5 .5)" gradientUnits="objectBoundingBox">
  </linearGradient>
    </defs>
    <path xmlns="http://www.w3.org/2000/svg" d="  M6.9563,54.9810 L11.7015,54.9810 L11.7015,50.2552 L6.9563,50.2552 L6.9563,54.9810 Z" style="fill-rule: evenodd; fill: url(#grad1896); "/>
    <defs xmlns="http://www.w3.org/2000/svg" xmlns:xlink="http://www.w3.org/1999/xlink">
      <linearGradient id="grad1897">
        <stop offset="0%" stop-color="#fffce1" stop-opacity="1.0000"/>
        <stop offset="100%" stop-color="#ffffff" stop-opacity="1.0000"/>
      </linearGradient>
      <linearGradient xlink:href="#grad1897" id="grad1898" x1="0" y1="0" x2="0" y2="1" gradientTransform="rotate(135 .5 .5)" gradientUnits="objectBoundingBox">
  </linearGradient>
    </defs>
    <path xmlns="http://www.w3.org/2000/svg" d="  M6.8978,22.7985 L11.6430,22.7985 L11.6430,18.0727 L6.8978,18.0727 L6.8978,22.7985 Z" style="fill-rule: evenodd; fill: url(#grad1898); "/>
    <defs xmlns="http://www.w3.org/2000/svg">
      <radialGradient id="grad1899" cx="50.0000%" cy="50.0000%" r="100.0000%">
        <stop offset="0%" stop-color="#848484" stop-opacity="0.6314"/>
        <stop offset="100%" stop-color="#f4e3ab" stop-opacity="0.6314"/>
      </radialGradient>
    </defs>
    <path xmlns="http://www.w3.org/2000/svg" d="  M45.6968,17.8388 C45.6968,17.6917 45.6277,17.4638 45.5857,17.3318 C44.9138,15.2363 42.8242,14.9640 41.7697,14.9640 C40.6890,14.9640 36.0450,14.9722 36.0450,14.9722 C36.0450,14.9722 36.0930,11.1983 36.0450,10.1100 C35.9978,9.0217 35.5672,5.0415 32.6377,5.0828 C32.6377,5.0828 33.0743,5.1532 33.4740,5.3542 C34.1460,5.6925 35.9333,6.7020 35.3692,15.8175 C35.3692,15.8175 35.4937,15.8152 35.5155,15.8175 C37.3935,16.0470 43.8165,14.7330 45.4852,17.3633 L45.6968,17.8388 Z" style="fill-rule: evenodd; fill: url(#grad1899); "/>
    <defs xmlns="http://www.w3.org/2000/svg" xmlns:xlink="http://www.w3.org/1999/xlink">
      <linearGradient id="grad1900">
        <stop offset="0%" stop-color="#e3e7e6" stop-opacity="1.0000"/>
        <stop offset="100%" stop-color="#fafafa" stop-opacity="1.0000"/>
      </linearGradient>
      <linearGradient xlink:href="#grad1900" id="grad1901" x1="0" y1="0" x2="0" y2="1" gradientTransform="rotate(315 .5 .5)" gradientUnits="objectBoundingBox">
  </linearGradient>
    </defs>
    <path xmlns="http://www.w3.org/2000/svg" d="  M0.2910,63.0795 L0.2910,4.7662 L0.5235,4.7662 C0.5235,4.7662 14.8103,4.7542 24.4200,4.7542 C29.2380,4.7542 32.8327,4.7550 32.9775,4.7670 C35.7022,5.0925 36.1515,8.9160 36.2160,10.0305 C36.2317,10.3958 36.2363,11.0483 36.2363,11.7600 C36.2363,12.8580 36.1853,14.3655 36.1807,14.8710 C37.1167,14.8710 40.8510,14.8125 41.7563,14.8125 L41.7945,14.7757 L41.7945,15.0075 C40.7460,15.0075 36.2557,15.0075 36.2557,15.0075 L36.0202,15.0075 L36.0247,14.7727 C36.0247,14.7705 36.0435,13.1198 36.0435,11.7015 C36.0435,10.9928 36.0390,10.3410 36.0247,9.9922 C36.0000,8.9602 35.1638,5.3887 32.9310,5.2305 C32.8853,5.2230 29.2118,5.2177 24.4200,5.2185 C15.5228,5.2185 2.6340,5.2297 0.7545,5.2312 L0.7545,62.6145 L45.4538,62.6145 C45.4538,60.3487 45.4568,41.9880 45.4568,29.4735 C45.4582,23.0145 45.4568,18.1005 45.4538,17.7877 C44.9602,15.3412 42.8085,15.0195 41.7945,15.0075 L41.7945,14.7757 L41.7563,14.8125 C42.8355,14.8020 45.3615,14.9377 45.9150,17.7270 C45.9240,17.8260 45.9195,22.7730 45.9210,29.4727 C45.9210,42.8302 45.9180,62.8470 45.9180,62.8470 L45.9180,63.0802 L0.2910,63.0802 L0.2910,63.0795 Z" style="fill-rule: evenodd; fill: url(#grad1901); "/>
    <defs xmlns="http://www.w3.org/2000/svg">
      <radialGradient id="grad1902" cx="50.0000%" cy="50.0000%" r="100.0000%">
        <stop offset="0%" stop-color="#000000" stop-opacity="0.3686"/>
        <stop offset="100%" stop-color="#ffffff" stop-opacity="0.3686"/>
      </radialGradient>
    </defs>
    <path xmlns="http://www.w3.org/2000/svg" d="  M45.4905,17.9910 C45.4920,17.8762 45.4260,17.6475 45.3833,17.5200 C44.7405,15.5010 42.7245,15.2355 41.6790,15.2332 C40.5982,15.2332 35.9603,15.2400 35.9543,15.2400 L35.8357,15.2400 L35.8372,15.1230 C35.8372,15.1192 35.8590,13.4453 35.8590,12.0060 C35.8590,11.2868 35.8515,10.6252 35.8372,10.2667 C35.7975,9.1830 35.3437,5.3213 32.5928,5.3505 C32.5755,5.3505 32.5620,5.3505 32.5545,5.3513 C32.4885,5.3535 32.4330,5.3048 32.4300,5.2395 C32.4270,5.1750 32.4773,5.1195 32.5410,5.1165 C32.5598,5.1158 32.5778,5.1165 32.5920,5.1165 C35.6183,5.1465 36.0180,9.1748 36.0712,10.2570 C36.0870,10.6230 36.0915,11.2845 36.0915,12.0060 C36.0915,13.2195 36.0780,14.6003 36.0728,15.0067 C36.8040,15.0052 40.7003,14.9993 41.6790,14.9993 C42.7455,14.9970 44.9063,15.2760 45.6075,17.4480 C45.6487,17.5838 45.7215,17.8110 45.7230,17.9910 C45.7230,18.0548 45.6720,18.1080 45.6075,18.1080 C45.5415,18.1080 45.4905,18.0548 45.4905,17.9910 Z" style="fill-rule: evenodd; fill: url(#grad1902); "/>
    <defs xmlns="http://www.w3.org/2000/svg" xmlns:xlink="http://www.w3.org/1999/xlink">
      <linearGradient id="grad1903">
        <stop offset="0%" stop-color="#ffda85" stop-opacity="0.3882"/>
        <stop offset="100%" stop-color="#f2ebce" stop-opacity="0.3882"/>
      </linearGradient>
      <linearGradient xlink:href="#grad1903" id="grad1904" x1="0" y1="0" x2="0" y2="1" gradientTransform="rotate(135 .5 .5)" gradientUnits="objectBoundingBox">
  </linearGradient>
    </defs>
    <path xmlns="http://www.w3.org/2000/svg" d="  M15.9315,21.7043 L37.8592,21.7043 L37.8592,20.4608 L15.9315,20.4608 L15.9315,21.7043 Z" style="fill-rule: evenodd; fill: url(#grad1904); "/>
    <defs xmlns="http://www.w3.org/2000/svg" xmlns:xlink="http://www.w3.org/1999/xlink">
      <linearGradient id="grad1905">
        <stop offset="0%" stop-color="#ffda85" stop-opacity="0.3882"/>
        <stop offset="100%" stop-color="#f2ebce" stop-opacity="0.3882"/>
      </linearGradient>
      <linearGradient xlink:href="#grad1905" id="grad1906" x1="0" y1="0" x2="0" y2="1" gradientTransform="rotate(135 .5 .5)" gradientUnits="objectBoundingBox">
  </linearGradient>
    </defs>
    <path xmlns="http://www.w3.org/2000/svg" d="  M15.9742,32.0303 L37.9020,32.0303 L37.9020,30.7875 L15.9742,30.7875 L15.9742,32.0303 Z" style="fill-rule: evenodd; fill: url(#grad1906); "/>
    <defs xmlns="http://www.w3.org/2000/svg" xmlns:xlink="http://www.w3.org/1999/xlink">
      <linearGradient id="grad1907">
        <stop offset="0%" stop-color="#ffda85" stop-opacity="0.3882"/>
        <stop offset="100%" stop-color="#f2ebce" stop-opacity="0.3882"/>
      </linearGradient>
      <linearGradient xlink:href="#grad1907" id="grad1908" x1="0" y1="0" x2="0" y2="1" gradientTransform="rotate(135 .5 .5)" gradientUnits="objectBoundingBox">
  </linearGradient>
    </defs>
    <path xmlns="http://www.w3.org/2000/svg" d="  M15.9203,42.9465 L37.8465,42.9465 L37.8465,41.7045 L15.9203,41.7045 L15.9203,42.9465 Z" style="fill-rule: evenodd; fill: url(#grad1908); "/>
    <defs xmlns="http://www.w3.org/2000/svg">
      <linearGradient id="grad1909">
        <stop offset="0%" stop-color="#ededed" stop-opacity="0.4118"/>
        <stop offset="100%" stop-color="#7f8787" stop-opacity="0.4118"/>
      </linearGradient>
    </defs>
    <path xmlns="http://www.w3.org/2000/svg" d="  M7.2788,33.1560 L11.3468,33.1560 L11.3468,29.1052 L7.2788,29.1052 L7.2788,33.1560 Z" style="fill-rule: evenodd; fill: url(#grad1909); "/>
    <defs xmlns="http://www.w3.org/2000/svg">
      <linearGradient id="grad1910">
        <stop offset="0%" stop-color="#ededed" stop-opacity="0.4118"/>
        <stop offset="100%" stop-color="#7f8787" stop-opacity="0.4118"/>
      </linearGradient>
    </defs>
    <path xmlns="http://www.w3.org/2000/svg" d="  M7.2788,43.9665 L11.3475,43.9665 L11.3475,39.9150 L7.2788,39.9150 L7.2788,43.9665 Z" style="fill-rule: evenodd; fill: url(#grad1910); "/>
    <defs xmlns="http://www.w3.org/2000/svg">
      <linearGradient id="grad1911">
        <stop offset="0%" stop-color="#ededed" stop-opacity="0.4118"/>
        <stop offset="100%" stop-color="#7f8787" stop-opacity="0.4118"/>
      </linearGradient>
    </defs>
    <path xmlns="http://www.w3.org/2000/svg" d="  M7.3305,54.6577 L11.3993,54.6577 L11.3993,50.6063 L7.3305,50.6063 L7.3305,54.6577 Z" style="fill-rule: evenodd; fill: url(#grad1911); "/>
    <defs xmlns="http://www.w3.org/2000/svg">
      <linearGradient id="grad1912">
        <stop offset="0%" stop-color="#ededed" stop-opacity="0.4118"/>
        <stop offset="100%" stop-color="#7f8787" stop-opacity="0.4118"/>
      </linearGradient>
    </defs>
    <path xmlns="http://www.w3.org/2000/svg" d="  M7.2293,22.4662 L11.2988,22.4662 L11.2988,18.4148 L7.2293,18.4148 L7.2293,22.4662 Z" style="fill-rule: evenodd; fill: url(#grad1912); "/>
    <defs xmlns="http://www.w3.org/2000/svg" xmlns:xlink="http://www.w3.org/1999/xlink">
      <linearGradient id="grad1913">
        <stop offset="0%" stop-color="#000000" stop-opacity="0.6706"/>
        <stop offset="100%" stop-color="#848484" stop-opacity="0.6706"/>
      </linearGradient>
      <linearGradient xlink:href="#grad1913" id="grad1914" x1="0" y1="0" x2="0" y2="1" gradientTransform="rotate(135 .5 .5)" gradientUnits="objectBoundingBox">
  </linearGradient>
    </defs>
    <path xmlns="http://www.w3.org/2000/svg" d="  M15.9263,53.0482 L37.8525,53.0482 L37.8525,51.8062 L15.9263,51.8062 L15.9263,53.0482 Z" style="fill-rule: evenodd; fill: url(#grad1914); "/>
    <defs xmlns="http://www.w3.org/2000/svg" xmlns:xlink="http://www.w3.org/1999/xlink">
      <linearGradient id="grad1915">
        <stop offset="0%" stop-color="#ffda85" stop-opacity="0.3882"/>
        <stop offset="100%" stop-color="#f2ebce" stop-opacity="0.3882"/>
      </linearGradient>
      <linearGradient xlink:href="#grad1915" id="grad1916" x1="0" y1="0" x2="0" y2="1" gradientTransform="rotate(135 .5 .5)" gradientUnits="objectBoundingBox">
  </linearGradient>
    </defs>
    <path xmlns="http://www.w3.org/2000/svg" d="  M15.9210,53.5890 L37.8465,53.5890 L37.8465,52.3470 L15.9210,52.3470 L15.9210,53.5890 Z" style="fill-rule: evenodd; fill: url(#grad1916); "/>
    <defs xmlns="http://www.w3.org/2000/svg">
      <radialGradient id="grad1917" cx="50.0000%" cy="50.0000%" r="100.0000%">
        <stop offset="0%" stop-color="#85919c" stop-opacity="1.0000"/>
        <stop offset="100%" stop-color="#dadfe1" stop-opacity="1.0000"/>
      </radialGradient>
    </defs>
    <path xmlns="http://www.w3.org/2000/svg" d="  M45.6232,17.6543 C45.6232,17.5072 45.5528,17.2792 45.5123,17.1472 C44.8403,15.0518 42.7507,14.7795 41.6962,14.7795 C40.6140,14.7795 35.9715,14.7878 35.9715,14.7878 C35.9715,14.7878 36.0187,11.0138 35.9715,9.9263 C35.9243,8.8380 35.4937,4.8577 32.5628,4.8990 C32.5628,4.8990 32.9993,4.9695 33.3990,5.1705 C34.0710,5.5088 35.8582,6.5182 35.2958,15.6337 C35.2958,15.6337 35.4202,15.6307 35.4405,15.6337 C37.3185,15.8633 43.7415,14.5493 45.4117,17.1788 L45.6232,17.6543 Z" style="fill-rule: evenodd; fill: url(#grad1917); "/>
    <defs xmlns="http://www.w3.org/2000/svg">
      <radialGradient id="grad1918" cx="50.0000%" cy="50.0000%" r="100.0000%">
        <stop offset="0%" stop-color="#000000" stop-opacity="0.3686"/>
        <stop offset="100%" stop-color="#ffffff" stop-opacity="0.3686"/>
      </radialGradient>
    </defs>
    <path xmlns="http://www.w3.org/2000/svg" d="  M45.4155,17.8073 C45.4170,17.6917 45.3510,17.4630 45.3097,17.3355 C44.6655,15.3172 42.6495,15.0503 41.6055,15.0487 C40.5247,15.0487 35.8852,15.0563 35.8807,15.0563 L35.7622,15.0563 L35.7637,14.9377 C35.7637,14.9347 35.7840,13.2608 35.7840,11.8208 C35.7840,11.1022 35.7780,10.4400 35.7637,10.0823 C35.7240,8.9978 35.2687,5.1360 32.5177,5.1660 C32.5020,5.1660 32.4870,5.1660 32.4795,5.1667 C32.4135,5.1690 32.3595,5.1195 32.3565,5.0557 C32.3535,4.9905 32.4038,4.9358 32.4675,4.9320 C32.4862,4.9312 32.5027,4.9320 32.5170,4.9320 C35.5448,4.9620 35.9445,8.9903 35.9962,10.0725 C36.0120,10.4378 36.0180,11.0992 36.0180,11.8208 C36.0180,13.0342 36.0030,14.4157 35.9993,14.8223 C36.7290,14.8215 40.6253,14.8148 41.6055,14.8148 C42.6720,14.8118 44.8312,15.0915 45.5325,17.2635 C45.5738,17.3993 45.6465,17.6265 45.6495,17.8073 C45.6495,17.8710 45.5985,17.9243 45.5325,17.9243 C45.4680,17.9243 45.4155,17.8710 45.4155,17.8073 Z" style="fill-rule: evenodd; fill: url(#grad1918); "/>
    <!--converted by libvisio2svg-->
  </g>
</svg>
