<svg xmlns="http://www.w3.org/2000/svg" xmlns:xlink="http://www.w3.org/1999/xlink" version="1.1" width="0.8459000000" height="0.7283000000" viewBox="0 0 60.9075 52.4385">
  <title><![CDATA[Fax]]></title>
  <g transform=" scale(1.000000) ">
    <path xmlns="http://www.w3.org/2000/svg" d="  M54.1230,24.2903 L51.5265,22.7460 L54.1822,19.7617 L60.8827,7.8533 L46.6357,0.0000 L46.4700,0.2858 L46.4483,0.2730 L44.6602,3.4080 L40.0800,11.3122 L36.5955,13.8698 L35.4383,13.1820 C34.3740,12.5498 32.6295,12.5423 31.5600,13.1655 L27.3068,15.6450 L27.1635,13.9515 C27.1702,13.9245 27.1792,13.8975 27.1822,13.8712 C27.1822,13.8690 27.1815,13.8668 27.1815,13.8645 C27.1860,13.8375 27.1882,13.8097 27.1890,13.7820 L27.1890,13.7467 C27.1890,13.7317 27.1882,13.7167 27.1875,13.7010 C27.1852,13.6777 27.1815,13.6537 27.1770,13.6290 C27.1770,13.6260 27.1770,13.6237 27.1755,13.6207 C27.1702,13.5938 27.1635,13.5667 27.1560,13.5398 C27.1552,13.5360 27.1537,13.5315 27.1522,13.5270 C27.1417,13.4917 27.1282,13.4565 27.1125,13.4220 C27.1095,13.4183 27.1073,13.4137 27.1050,13.4092 C27.0908,13.3777 27.0735,13.3470 27.0555,13.3162 C27.0540,13.3140 27.0533,13.3125 27.0518,13.3095 C27.0510,13.3095 27.0510,13.3095 27.0510,13.3095 C26.9482,13.1197 26.8350,12.9795 26.8350,12.9795 L24.7845,11.1638 C23.8530,10.6530 22.9687,10.8577 22.9687,10.8577 C14.9572,13.5427 9.1553,19.2345 8.6813,19.8068 C8.6340,19.8645 8.5927,19.9155 8.5545,19.9627 C8.4278,20.1210 8.3573,20.2215 8.3205,20.2740 C8.3167,20.2860 8.3115,20.2965 8.3070,20.3078 C8.3017,20.3213 8.2972,20.3355 8.2935,20.3475 C8.2897,20.3618 8.2852,20.3745 8.2807,20.3872 C8.2740,20.4135 8.2687,20.4398 8.2650,20.4667 C8.2635,20.4788 8.2680,20.4922 8.2665,20.5043 C8.2627,20.4975 8.2537,20.4877 8.2537,20.4833 C8.2537,20.4833 8.2020,22.9852 8.4165,23.6025 C8.3918,23.7555 8.3768,24.0255 8.5207,24.2108 L9.0622,26.2822 L7.4205,27.2393 C7.0762,27.4403 6.8542,27.6847 6.7305,27.9427 C6.6157,27.9900 6.4478,28.2548 6.4223,28.3852 C6.3938,28.5375 6.4868,29.0573 6.5197,29.2522 C6.5535,29.4352 6.7912,30.4230 6.7912,30.4230 C6.8760,30.6937 7.1400,30.8318 7.3290,30.9360 L7.3950,30.9832 L7.8322,31.2443 L7.1408,30.8430 L8.5057,36.3697 L9.4950,36.9690 L9.0262,37.2518 L8.5912,38.2740 L0.0000,42.8760 L16.5907,52.3987 L23.7180,48.3878 L26.6033,47.9543 L27.1365,47.6580 L32.7210,51.0435 L53.0122,39.4537 C53.0122,39.4537 53.4810,39.2738 53.6985,38.6595 C53.9145,38.0475 53.8425,37.5053 53.8425,37.5053 L53.9055,32.4533 C54.0705,32.3490 54.1627,32.2890 54.1680,32.2845 C54.2588,32.1907 54.3225,32.0880 54.3518,31.9815 C54.3608,31.9448 54.7372,27.7073 54.8453,26.0280 C55.1048,25.4108 54.8678,24.7335 54.1230,24.2903 Z M56.6962,13.9658 L59.9543,8.0812 L59.9978,8.1053 L56.6962,13.9658 Z" style="stroke-width: 1.5000; stroke: #8d98b5; stroke-dasharray: none; stroke-linecap: butt; stroke-linejoin: miter; fill: none; "/>
    <defs xmlns="http://www.w3.org/2000/svg" xmlns:xlink="http://www.w3.org/1999/xlink">
      <linearGradient id="grad2123">
        <stop offset="0%" stop-color="#f3f9f7" stop-opacity="1.0000"/>
        <stop offset="100%" stop-color="#000000" stop-opacity="1.0000"/>
      </linearGradient>
      <linearGradient xlink:href="#grad2123" id="grad2124" x1="0" y1="0" x2="0" y2="1" gradientTransform="rotate(135 .5 .5)" gradientUnits="objectBoundingBox">
  </linearGradient>
    </defs>
    <path xmlns="http://www.w3.org/2000/svg" d="  M8.5005,24.0660 L9.2677,27.0030 L11.4007,26.2920 L8.5005,24.0660 Z" style="fill-rule: evenodd; fill: url(#grad2124); "/>
    <defs xmlns="http://www.w3.org/2000/svg" xmlns:xlink="http://www.w3.org/1999/xlink">
      <linearGradient id="grad2125">
        <stop offset="0%" stop-color="#f3f9f7" stop-opacity="1.0000"/>
        <stop offset="100%" stop-color="#000000" stop-opacity="1.0000"/>
      </linearGradient>
      <linearGradient xlink:href="#grad2125" id="grad2126" x1="0" y1="0" x2="0" y2="1" gradientTransform="rotate(135 .5 .5)" gradientUnits="objectBoundingBox">
  </linearGradient>
    </defs>
    <path xmlns="http://www.w3.org/2000/svg" d="  M10.0012,22.3132 L8.4675,23.5245 C8.4675,23.5245 8.3047,24.0907 8.6287,24.3330 C8.9520,24.5752 10.6477,26.0287 10.6477,26.0287 L12.9900,24.8175 C12.9900,24.8175 9.8392,22.8787 10.0012,22.3132 Z" style="fill-rule: evenodd; fill: url(#grad2126); "/>
    <defs xmlns="http://www.w3.org/2000/svg">
      <radialGradient id="grad2127" cx="0.0000%" cy="0.0000%" r="100.0000%">
        <stop offset="0%" stop-color="#f3f9f7" stop-opacity="1.0000"/>
        <stop offset="100%" stop-color="#5b5b5b" stop-opacity="1.0000"/>
      </radialGradient>
    </defs>
    <path xmlns="http://www.w3.org/2000/svg" d="  M8.2815,20.5215 C8.2815,20.5215 8.2192,23.4637 8.5027,23.7570 C8.8395,24.1080 10.8630,25.9267 11.6302,26.0220 C12.2310,26.0970 16.6297,22.8322 16.6297,22.8322 C16.6297,22.8322 16.1707,22.0987 16.2315,21.8430 C16.2922,21.5872 16.9005,21.2805 17.2342,21.0427 C17.3925,20.9295 23.0370,17.5507 23.1525,17.5057 C23.4510,17.3850 23.4833,17.3940 23.6370,17.6175 C23.7893,17.8402 24.0173,18.1597 23.9865,18.3832 C23.9558,18.6060 27.3953,16.4197 27.3953,16.4197 L27.1613,13.6605 C27.1613,13.6605 27.3008,14.0925 26.9040,14.2822 C17.1157,18.9832 22.2487,15.7957 12.4275,22.9597 C12.0022,23.2702 11.2620,22.8322 11.0782,22.6725 C10.8945,22.5135 8.2755,20.6655 8.2815,20.5215 Z" style="fill-rule: evenodd; fill: url(#grad2127); "/>
    <path xmlns="http://www.w3.org/2000/svg" d="  M23.6587,17.3595 C23.3347,17.1555 22.8660,17.2305 22.4130,17.5110 C20.6722,18.3802 19.0492,19.3830 17.0325,20.6760 C16.3665,21.1020 16.2615,21.2340 16.0935,21.5678 C15.9660,21.8228 16.0800,22.3620 16.2982,22.6920 L24.0360,17.9662 C23.9700,17.7037 23.8140,17.4577 23.6587,17.3595 Z" style="fill-rule: evenodd; fill: #3f3f3f; "/>
    <defs xmlns="http://www.w3.org/2000/svg" xmlns:xlink="http://www.w3.org/1999/xlink">
      <linearGradient id="grad2128">
        <stop offset="0%" stop-color="#7f8787" stop-opacity="1.0000"/>
        <stop offset="100%" stop-color="#f3f9f7" stop-opacity="1.0000"/>
      </linearGradient>
      <linearGradient xlink:href="#grad2128" id="grad2129" x1="0" y1="0" x2="0" y2="1" gradientTransform="rotate(315 .5 .5)" gradientUnits="objectBoundingBox">
  </linearGradient>
    </defs>
    <path xmlns="http://www.w3.org/2000/svg" d="  M27.2070,13.9035 C27.2115,13.8765 27.2137,13.8488 27.2145,13.8210 C27.2145,13.8098 27.2145,13.7978 27.2145,13.7858 C27.2145,13.7708 27.2137,13.7557 27.2130,13.7400 C27.2107,13.7168 27.2070,13.6927 27.2025,13.6680 C27.2025,13.6650 27.2025,13.6628 27.2010,13.6597 C27.1957,13.6328 27.1890,13.6058 27.1815,13.5787 C27.1807,13.5750 27.1792,13.5705 27.1777,13.5660 C27.1672,13.5308 27.1537,13.4955 27.1380,13.4610 C27.1350,13.4573 27.1327,13.4528 27.1305,13.4483 C27.1162,13.4168 27.0990,13.3860 27.0810,13.3552 C27.0795,13.3530 27.0787,13.3515 27.0772,13.3485 C27.0765,13.3485 27.0765,13.3485 27.0765,13.3485 C26.9737,13.1588 26.8605,13.0185 26.8605,13.0185 L24.8100,11.2028 C23.8785,10.6920 22.9942,10.8968 22.9942,10.8968 C14.9827,13.5818 9.1807,19.2735 8.7067,19.8458 C8.6595,19.9035 8.6182,19.9545 8.5800,20.0018 C8.4532,20.1600 8.3827,20.2605 8.3460,20.3130 C8.3422,20.3250 8.3370,20.3355 8.3325,20.3467 C8.3272,20.3603 8.3227,20.3745 8.3190,20.3865 C8.3152,20.4008 8.3107,20.4135 8.3062,20.4263 C8.2995,20.4525 8.2942,20.4788 8.2905,20.5058 C8.2552,20.7345 8.4255,21.0233 8.5822,21.2258 C8.5822,21.2258 8.5852,21.2273 8.5875,21.2302 C8.5890,21.2302 8.5890,21.2318 8.5897,21.2318 C8.5935,21.2355 8.5980,21.2400 8.6047,21.2460 C8.6055,21.2475 8.6077,21.2483 8.6077,21.2498 C8.6160,21.2558 8.6235,21.2633 8.6310,21.2715 C8.6325,21.2745 8.6355,21.2767 8.6385,21.2790 C8.6467,21.2873 8.6557,21.2963 8.6647,21.3053 C8.6692,21.3083 8.6715,21.3120 8.6760,21.3165 C8.6880,21.3293 8.7022,21.3420 8.7172,21.3570 C8.7180,21.3585 8.7195,21.3585 8.7210,21.3600 C8.7532,21.3930 8.7930,21.4298 8.8357,21.4710 C8.8432,21.4785 8.8515,21.4868 8.8590,21.4943 C8.8732,21.5085 8.8875,21.5228 8.9025,21.5370 C8.9137,21.5475 8.9250,21.5588 8.9377,21.5693 C8.9467,21.5783 8.9550,21.5865 8.9640,21.5948 C8.9827,21.6135 9.0030,21.6315 9.0202,21.6503 C9.0240,21.6525 9.0262,21.6555 9.0285,21.6578 C9.0525,21.6803 9.0757,21.7035 9.0997,21.7267 C9.1012,21.7275 9.1027,21.7275 9.1035,21.7283 C9.6172,22.2203 10.4062,22.9553 10.9620,23.3790 C10.9867,23.4000 11.0122,23.4188 11.0377,23.4375 C11.0400,23.4383 11.0422,23.4405 11.0445,23.4420 C11.0497,23.4458 11.0535,23.4495 11.0595,23.4533 C11.0820,23.4690 11.1037,23.4848 11.1255,23.5005 C11.1570,23.5230 11.1900,23.5448 11.2192,23.5643 C11.2200,23.5643 11.2207,23.5650 11.2215,23.5665 C11.2222,23.5665 11.2222,23.5673 11.2237,23.5673 C11.2590,23.5898 11.2912,23.6108 11.3212,23.6288 L11.3220,23.6288 C11.3242,23.6310 11.3250,23.6310 11.3257,23.6318 C11.3587,23.6505 11.3910,23.6663 11.4187,23.6790 C11.4525,23.6940 11.4825,23.7068 11.5072,23.7105 C11.5072,23.7113 11.5095,23.7113 11.5095,23.7113 C11.5185,23.7135 11.5267,23.7128 11.5365,23.7143 C11.5545,23.7165 11.5740,23.7188 11.5927,23.7218 C11.5935,23.7218 11.5935,23.7218 11.5935,23.7218 C11.6197,23.7225 11.6467,23.7233 11.6752,23.7225 C11.6752,23.7225 11.6752,23.7225 11.6760,23.7225 L11.6767,23.7225 C11.7030,23.7218 11.7285,23.7218 11.7570,23.7195 C11.7607,23.7188 11.7660,23.7173 11.7697,23.7173 C11.7900,23.7150 11.8125,23.7120 11.8357,23.7083 C11.8605,23.7030 11.8852,23.6985 11.9130,23.6933 C11.9130,23.6933 11.9130,23.6933 11.9137,23.6933 C11.9295,23.6910 11.9467,23.6843 11.9647,23.6805 C11.9730,23.6783 11.9797,23.6775 11.9872,23.6745 C12.0112,23.6685 12.0360,23.6603 12.0615,23.6520 C12.0862,23.6438 12.1095,23.6363 12.1350,23.6258 C12.1590,23.6168 12.1822,23.6078 12.2062,23.5958 C12.2265,23.5875 12.2475,23.5763 12.2677,23.5673 C12.2707,23.5650 12.2730,23.5643 12.2760,23.5628 C12.2977,23.5515 12.3217,23.5403 12.3435,23.5268 C12.3667,23.5140 12.3900,23.4998 12.4110,23.4863 C12.4335,23.4728 12.4552,23.4593 12.4770,23.4435 C12.4980,23.4285 12.5197,23.4113 12.5407,23.3955 C12.5602,23.3790 12.5827,23.3640 12.6007,23.3468 C12.6015,23.3468 12.6030,23.3460 12.6037,23.3453 C12.6052,23.3438 12.6075,23.3415 12.6090,23.3408 C12.6277,23.3250 12.6457,23.3085 12.6630,23.2920 C12.6847,23.2740 12.7050,23.2560 12.7245,23.2388 C12.7455,23.2200 12.7650,23.2020 12.7860,23.1840 C12.8062,23.1660 12.8280,23.1480 12.8467,23.1308 C12.8677,23.1120 12.8895,23.0940 12.9090,23.0768 C12.9300,23.0595 12.9495,23.0408 12.9705,23.0235 C12.9862,23.0100 13.0012,22.9965 13.0170,22.9845 C13.0222,22.9800 13.0275,22.9748 13.0320,22.9703 C13.0432,22.9613 13.0530,22.9538 13.0642,22.9433 C13.0747,22.9335 13.0837,22.9238 13.0957,22.9140 C13.1145,22.8975 13.1362,22.8803 13.1557,22.8630 C13.1767,22.8465 13.1977,22.8278 13.2180,22.8113 C13.2375,22.7940 13.2592,22.7768 13.2780,22.7580 C13.2997,22.7415 13.3207,22.7243 13.3410,22.7063 C13.3612,22.6883 13.3815,22.6695 13.4025,22.6538 C13.4227,22.6365 13.4445,22.6185 13.4640,22.6020 C13.4760,22.5923 13.4857,22.5840 13.4955,22.5758 C13.5202,22.5548 13.5442,22.5338 13.5697,22.5128 C13.5757,22.5083 13.5825,22.5030 13.5885,22.4970 C13.6095,22.4805 13.6312,22.4633 13.6507,22.4453 C13.6717,22.4280 13.6920,22.4115 13.7122,22.3935 C13.7325,22.3763 13.7550,22.3583 13.7745,22.3425 C13.7955,22.3260 13.8165,22.3080 13.8360,22.2900 C13.8570,22.2735 13.8780,22.2562 13.8982,22.2397 C13.9200,22.2217 13.9425,22.2045 13.9612,22.1880 C13.9657,22.1850 13.9695,22.1813 13.9732,22.1783 C13.9875,22.1670 14.0010,22.1558 14.0145,22.1437 C14.0190,22.1415 14.0220,22.1393 14.0257,22.1363 C14.0452,22.1205 14.0670,22.1033 14.0872,22.0860 C14.1082,22.0703 14.1292,22.0523 14.1495,22.0358 C14.1697,22.0193 14.1907,22.0013 14.2125,21.9848 C14.2335,21.9683 14.2537,21.9502 14.2747,21.9337 C14.2950,21.9180 14.3167,21.9008 14.3377,21.8843 C14.3580,21.8670 14.3797,21.8505 14.3992,21.8348 C14.4045,21.8303 14.4097,21.8265 14.4150,21.8227 C14.4307,21.8100 14.4465,21.7958 14.4630,21.7838 C14.4720,21.7770 14.4802,21.7695 14.4900,21.7620 C14.5020,21.7523 14.5125,21.7432 14.5260,21.7335 C14.5462,21.7163 14.5680,21.6998 14.5875,21.6840 C14.6092,21.6668 14.6302,21.6503 14.6512,21.6338 C14.6715,21.6165 14.6940,21.6015 14.7135,21.5843 C14.7337,21.5685 14.7555,21.5512 14.7772,21.5355 C14.7982,21.5182 14.8185,21.5017 14.8395,21.4852 C14.8567,21.4725 14.8747,21.4598 14.8905,21.4455 C14.8950,21.4425 14.8980,21.4395 14.9025,21.4365 C14.9242,21.4200 14.9445,21.4035 14.9655,21.3885 C14.9707,21.3848 14.9730,21.3825 14.9775,21.3795 C14.9947,21.3645 15.0120,21.3510 15.0292,21.3383 C15.0510,21.3218 15.0727,21.3053 15.0922,21.2895 C15.1132,21.2723 15.1342,21.2573 15.1567,21.2415 C15.1770,21.2250 15.1980,21.2085 15.2190,21.1928 C15.2400,21.1763 15.2617,21.1605 15.2827,21.1440 C15.3037,21.1283 15.3262,21.1125 15.3465,21.0960 C15.3540,21.0908 15.3607,21.0847 15.3675,21.0788 C15.3817,21.0697 15.3937,21.0600 15.4050,21.0495 C15.4072,21.0495 15.4080,21.0480 15.4087,21.0473 C15.4305,21.0315 15.4522,21.0158 15.4732,21.0000 C15.4935,20.9843 15.5152,20.9685 15.5362,20.9513 C15.5572,20.9363 15.5797,20.9198 15.6000,20.9040 C15.6217,20.8883 15.6427,20.8718 15.6645,20.8560 C15.6855,20.8403 15.7065,20.8245 15.7282,20.8088 C15.7485,20.7930 15.7702,20.7773 15.7920,20.7615 C15.7965,20.7570 15.8002,20.7540 15.8047,20.7510 C15.8325,20.7293 15.8587,20.7105 15.8857,20.6910 C15.8977,20.6827 15.9067,20.6745 15.9195,20.6648 C15.9405,20.6490 15.9630,20.6333 15.9832,20.6190 C16.0042,20.6032 16.0267,20.5875 16.0477,20.5717 C16.0680,20.5560 16.0905,20.5402 16.1115,20.5245 C16.1325,20.5087 16.1542,20.4930 16.1752,20.4765 C16.1970,20.4615 16.2187,20.4458 16.2405,20.4293 C16.2555,20.4195 16.2697,20.4083 16.2840,20.3978 C16.3117,20.3775 16.3402,20.3565 16.3695,20.3363 C16.3912,20.3205 16.4122,20.3048 16.4340,20.2898 C16.4535,20.2740 16.4760,20.2575 16.4970,20.2425 C16.5187,20.2275 16.5405,20.2118 16.5622,20.1968 C16.5840,20.1818 16.6065,20.1660 16.6275,20.1495 C16.6477,20.1338 16.6702,20.1188 16.6905,20.1037 C16.7130,20.0887 16.7355,20.0722 16.7565,20.0572 C16.7595,20.0565 16.7625,20.0550 16.7647,20.0528 C16.7790,20.0415 16.7940,20.0310 16.8090,20.0205 C16.8135,20.0183 16.8165,20.0145 16.8217,20.0115 C16.8435,19.9965 16.8660,19.9815 16.8870,19.9650 C16.9087,19.9500 16.9312,19.9343 16.9530,19.9200 C16.9732,19.9043 16.9965,19.8885 17.0182,19.8735 C17.0392,19.8585 17.0625,19.8435 17.0835,19.8278 C17.1052,19.8120 17.1270,19.7970 17.1487,19.7827 C17.1622,19.7723 17.1780,19.7625 17.1930,19.7512 C17.1997,19.7475 17.2065,19.7415 17.2132,19.7362 C17.2320,19.7243 17.2500,19.7108 17.2687,19.6988 C17.2717,19.6965 17.2755,19.6935 17.2785,19.6905 C17.3010,19.6755 17.3220,19.6605 17.3445,19.6455 C17.3662,19.6305 17.3880,19.6148 17.4097,19.6005 C17.4322,19.5855 17.4540,19.5705 17.4742,19.5563 C17.4967,19.5405 17.5192,19.5255 17.5410,19.5105 C17.5627,19.4962 17.5845,19.4805 17.6070,19.4647 C17.6227,19.4543 17.6400,19.4423 17.6572,19.4310 C17.6625,19.4273 17.6685,19.4228 17.6730,19.4190 C17.6955,19.4040 17.7172,19.3905 17.7375,19.3763 C17.7382,19.3748 17.7390,19.3755 17.7397,19.3740 C17.7622,19.3590 17.7847,19.3440 17.8080,19.3275 C17.8290,19.3133 17.8522,19.2975 17.8747,19.2833 C17.8965,19.2683 17.9197,19.2532 17.9407,19.2382 C17.9640,19.2232 17.9880,19.2082 18.0097,19.1925 C18.0330,19.1775 18.0562,19.1610 18.0795,19.1460 C18.0937,19.1363 18.1087,19.1272 18.1237,19.1168 C18.1387,19.1063 18.1552,19.0957 18.1710,19.0853 C18.1867,19.0733 18.2032,19.0635 18.2205,19.0515 C18.2437,19.0350 18.2685,19.0200 18.2940,19.0035 C18.3187,18.9870 18.3442,18.9698 18.3697,18.9525 C18.3967,18.9352 18.4252,18.9172 18.4522,18.8993 C18.4822,18.8790 18.5137,18.8588 18.5452,18.8385 L18.5460,18.8385 C18.5782,18.8168 18.6097,18.7965 18.6397,18.7762 C18.6585,18.7658 18.6750,18.7538 18.6930,18.7425 C18.7297,18.7193 18.7657,18.6952 18.8010,18.6728 C18.8505,18.6413 18.9015,18.6090 18.9502,18.5775 C18.9660,18.5670 18.9802,18.5588 18.9967,18.5482 C19.0117,18.5385 19.0267,18.5288 19.0440,18.5175 C19.0575,18.5093 19.0702,18.5010 19.0852,18.4920 C19.0987,18.4830 19.1130,18.4740 19.1257,18.4658 C19.1512,18.4485 19.1767,18.4320 19.2045,18.4148 C19.2277,18.3990 19.2532,18.3848 19.2780,18.3683 C19.3012,18.3540 19.3252,18.3383 19.3500,18.3240 C19.3732,18.3090 19.3972,18.2940 19.4197,18.2798 C19.4310,18.2730 19.4415,18.2670 19.4505,18.2602 C19.4677,18.2490 19.4865,18.2385 19.5052,18.2272 C19.5225,18.2160 19.5405,18.2048 19.5592,18.1943 C19.5817,18.1800 19.6050,18.1657 19.6275,18.1515 C19.6500,18.1365 19.6740,18.1223 19.6950,18.1080 C19.7182,18.0938 19.7422,18.0795 19.7632,18.0660 C19.7865,18.0517 19.8082,18.0382 19.8315,18.0255 C19.8435,18.0173 19.8540,18.0105 19.8652,18.0037 C19.8840,17.9918 19.9050,17.9790 19.9245,17.9670 C19.9395,17.9588 19.9507,17.9505 19.9642,17.9422 C19.9882,17.9288 20.0100,17.9153 20.0325,17.9018 C20.0550,17.8883 20.0775,17.8740 20.0992,17.8612 C20.1210,17.8470 20.1450,17.8343 20.1667,17.8200 C20.1885,17.8065 20.2117,17.7938 20.2335,17.7795 C20.2537,17.7683 20.2732,17.7570 20.2935,17.7443 C20.2965,17.7428 20.2987,17.7405 20.3010,17.7390 C20.3235,17.7263 20.3452,17.7120 20.3677,17.7000 C20.3895,17.6857 20.4127,17.6723 20.4352,17.6595 C20.4570,17.6460 20.4802,17.6318 20.5020,17.6190 C20.5237,17.6063 20.5462,17.5928 20.5687,17.5808 C20.5905,17.5673 20.6137,17.5530 20.6362,17.5402 C20.6572,17.5275 20.6805,17.5140 20.7015,17.5005 C20.7135,17.4953 20.7225,17.4878 20.7322,17.4825 C20.7450,17.4765 20.7555,17.4698 20.7667,17.4630 C20.7682,17.4630 20.7682,17.4623 20.7697,17.4623 C20.7915,17.4503 20.8132,17.4360 20.8350,17.4225 C20.8575,17.4098 20.8800,17.3970 20.9017,17.3843 C20.9250,17.3708 20.9475,17.3580 20.9692,17.3445 C20.9910,17.3325 21.0127,17.3198 21.0352,17.3078 C21.0585,17.2943 21.0802,17.2808 21.1035,17.2680 C21.1102,17.2643 21.1170,17.2605 21.1230,17.2575 C21.1425,17.2455 21.1620,17.2342 21.1800,17.2238 C21.1980,17.2133 21.2167,17.2027 21.2355,17.1923 C21.2572,17.1803 21.2797,17.1660 21.3022,17.1540 C21.3232,17.1413 21.3465,17.1285 21.3690,17.1165 C21.3907,17.1045 21.4132,17.0902 21.4350,17.0775 C21.4575,17.0648 21.4800,17.0528 21.5017,17.0400 C21.5107,17.0355 21.5190,17.0303 21.5287,17.0250 C21.5430,17.0175 21.5557,17.0100 21.5692,17.0025 C21.5767,16.9988 21.5850,16.9942 21.5910,16.9898 C21.6067,16.9815 21.6210,16.9725 21.6360,16.9650 C21.6577,16.9523 21.6817,16.9388 21.7027,16.9275 C21.7252,16.9155 21.7462,16.9028 21.7695,16.8900 C21.7912,16.8780 21.8137,16.8652 21.8355,16.8525 C21.8587,16.8405 21.8805,16.8278 21.9022,16.8150 C21.9180,16.8075 21.9337,16.7985 21.9495,16.7910 C21.9525,16.7888 21.9570,16.7857 21.9600,16.7850 C21.9645,16.7828 21.9667,16.7813 21.9712,16.7790 C21.9930,16.7670 22.0162,16.7550 22.0372,16.7423 C22.0590,16.7295 22.0815,16.7168 22.1032,16.7062 C22.1257,16.6935 22.1475,16.6808 22.1707,16.6695 C22.1932,16.6567 22.2157,16.6448 22.2375,16.6328 C22.2585,16.6200 22.2817,16.6073 22.3042,16.5960 C22.3102,16.5945 22.3147,16.5922 22.3185,16.5893 C22.3290,16.5825 22.3387,16.5765 22.3500,16.5720 C22.3567,16.5683 22.3650,16.5638 22.3717,16.5600 C22.3942,16.5472 22.4160,16.5353 22.4385,16.5240 C22.4610,16.5120 22.4835,16.5008 22.5052,16.4880 C22.5270,16.4768 22.5502,16.4647 22.5720,16.4528 C22.5945,16.4400 22.6185,16.4288 22.6387,16.4175 C22.6597,16.4055 22.6807,16.3958 22.7010,16.3838 C22.7025,16.3838 22.7047,16.3815 22.7062,16.3800 C22.7145,16.3770 22.7235,16.3710 22.7325,16.3673 C22.7467,16.3598 22.7587,16.3522 22.7737,16.3448 C22.7947,16.3335 22.8187,16.3215 22.8405,16.3103 C22.8622,16.2975 22.8840,16.2870 22.9065,16.2750 C22.9290,16.2638 22.9522,16.2518 22.9747,16.2412 C22.9957,16.2293 23.0190,16.2173 23.0400,16.2053 C23.0542,16.1993 23.0655,16.1925 23.0790,16.1865 C23.0805,16.1858 23.0835,16.1858 23.0850,16.1843 C23.0932,16.1790 23.1007,16.1760 23.1090,16.1708 C23.1307,16.1588 23.1525,16.1483 23.1757,16.1370 C23.1967,16.1258 23.2200,16.1137 23.2432,16.1018 C23.2650,16.0913 23.2882,16.0785 23.3092,16.0680 C23.3317,16.0553 23.3535,16.0448 23.3760,16.0335 C23.3970,16.0230 23.4165,16.0125 23.4352,16.0028 C23.4360,16.0028 23.4360,16.0028 23.4360,16.0028 C23.4397,16.0012 23.4412,15.9997 23.4435,15.9990 C23.4652,15.9878 23.4885,15.9750 23.5110,15.9645 C23.5327,15.9532 23.5567,15.9428 23.5785,15.9308 C23.6002,15.9187 23.6227,15.9075 23.6452,15.8963 C23.6685,15.8850 23.6895,15.8737 23.7127,15.8633 C23.7322,15.8528 23.7517,15.8438 23.7697,15.8340 C23.7735,15.8333 23.7765,15.8310 23.7795,15.8288 C23.7825,15.8273 23.7862,15.8257 23.7892,15.8250 C23.8080,15.8153 23.8282,15.8062 23.8470,15.7958 C23.8710,15.7845 23.8935,15.7725 23.9152,15.7620 C23.9370,15.7508 23.9602,15.7403 23.9827,15.7297 C24.0037,15.7185 24.0277,15.7073 24.0495,15.6967 C24.0727,15.6855 24.0952,15.6743 24.1170,15.6630 C24.1395,15.6518 24.1612,15.6413 24.1852,15.6307 C24.2070,15.6203 24.2295,15.6090 24.2512,15.5985 C24.2737,15.5873 24.2970,15.5760 24.3187,15.5662 C24.3427,15.5550 24.3645,15.5438 24.3870,15.5325 C24.4095,15.5220 24.4312,15.5115 24.4537,15.5010 C24.4755,15.4898 24.5002,15.4793 24.5212,15.4695 C24.5437,15.4583 24.5670,15.4478 24.5887,15.4380 C24.6112,15.4268 24.6330,15.4163 24.6570,15.4050 C24.6787,15.3945 24.7012,15.3848 24.7245,15.3735 C24.7462,15.3630 24.7687,15.3533 24.7897,15.3420 C24.8130,15.3323 24.8370,15.3218 24.8580,15.3112 C24.8805,15.3000 24.9030,15.2910 24.9247,15.2797 C24.9480,15.2693 24.9720,15.2580 24.9937,15.2483 C25.0162,15.2385 25.0395,15.2280 25.0612,15.2168 C25.0837,15.2070 25.1070,15.1965 25.1295,15.1860 C25.1527,15.1770 25.1745,15.1657 25.1970,15.1553 C25.2195,15.1440 25.2420,15.1342 25.2637,15.1238 C25.2870,15.1140 25.3102,15.1027 25.3320,15.0938 C25.3545,15.0825 25.3770,15.0735 25.3987,15.0630 C25.4227,15.0525 25.4460,15.0435 25.4677,15.0323 C25.4902,15.0225 25.5127,15.0128 25.5337,15.0030 C25.5547,14.9925 25.5787,14.9843 25.5982,14.9745 C25.5982,14.9745 25.5990,14.9737 25.5997,14.9737 C25.6005,14.9737 25.6012,14.9730 25.6020,14.9730 C25.6252,14.9640 25.6477,14.9535 25.6702,14.9430 C25.6927,14.9325 25.7167,14.9242 25.7385,14.9138 C25.7602,14.9040 25.7835,14.8942 25.8052,14.8838 C25.8285,14.8740 25.8525,14.8658 25.8735,14.8560 C25.8967,14.8462 25.9192,14.8365 25.9417,14.8267 C25.9642,14.8163 25.9867,14.8088 26.0085,14.7990 C26.0310,14.7900 26.0557,14.7795 26.0775,14.7705 C26.1000,14.7600 26.1225,14.7518 26.1442,14.7420 C26.1450,14.7420 26.1465,14.7413 26.1472,14.7405 C26.1480,14.7405 26.1495,14.7405 26.1502,14.7405 C26.1712,14.7322 26.1930,14.7233 26.2132,14.7150 C26.2357,14.7053 26.2590,14.6970 26.2807,14.6873 C26.2875,14.6850 26.2950,14.6827 26.3002,14.6790 C26.3085,14.6760 26.3167,14.6723 26.3250,14.6692 C26.3325,14.6670 26.3407,14.6625 26.3475,14.6603 C26.3722,14.6520 26.3947,14.6423 26.4172,14.6332 C26.4262,14.6295 26.4360,14.6250 26.4465,14.6212 C26.4570,14.6182 26.4660,14.6123 26.4772,14.6078 C26.4795,14.6070 26.4810,14.6062 26.4847,14.6055 C26.5027,14.5988 26.5237,14.5913 26.5402,14.5838 C26.5590,14.5770 26.5755,14.5702 26.5927,14.5635 C26.6302,14.5500 26.6662,14.5365 26.7022,14.5237 C26.7142,14.5193 26.7262,14.5140 26.7382,14.5095 C26.7840,14.4930 26.8275,14.4780 26.8680,14.4630 C27.0840,14.3850 27.1920,14.1308 27.2250,13.9132 C27.2077,13.9088 27.2070,13.9065 27.2070,13.9035 Z" style="fill-rule: evenodd; fill: url(#grad2129); "/>
    <defs xmlns="http://www.w3.org/2000/svg" xmlns:xlink="http://www.w3.org/1999/xlink">
      <linearGradient id="grad2130">
        <stop offset="0%" stop-color="#ededed" stop-opacity="1.0000"/>
        <stop offset="100%" stop-color="#7f8787" stop-opacity="1.0000"/>
      </linearGradient>
      <linearGradient xlink:href="#grad2130" id="grad2131" x1="0" y1="0" x2="0" y2="1" gradientTransform="rotate(-0 .5 .5)" gradientUnits="objectBoundingBox">
  </linearGradient>
    </defs>
    <path xmlns="http://www.w3.org/2000/svg" d="  M36.1005,14.8448 L36.2692,14.5680 L36.4650,14.8275 L36.2692,14.5680 L36.1005,14.8448 L35.6842,14.5965 L40.1055,11.3528 L46.6613,0.0405 L60.9075,7.8945 L54.2077,19.8030 L50.8178,23.6115 L36.1005,14.8448 Z M50.6895,22.7805 L53.6677,19.4310 L60.0240,8.1458 L46.9140,0.9165 L40.6065,11.7863 L36.8542,14.5410 L50.6895,22.7805 Z" style="fill-rule: evenodd; fill: url(#grad2131); "/>
    <defs xmlns="http://www.w3.org/2000/svg" xmlns:xlink="http://www.w3.org/1999/xlink">
      <linearGradient id="grad2132">
        <stop offset="0%" stop-color="#ededed" stop-opacity="1.0000"/>
        <stop offset="100%" stop-color="#7f8787" stop-opacity="1.0000"/>
      </linearGradient>
      <linearGradient xlink:href="#grad2132" id="grad2133" x1="0" y1="0" x2="0" y2="1" gradientTransform="rotate(90 .5 .5)" gradientUnits="objectBoundingBox">
  </linearGradient>
    </defs>
    <path xmlns="http://www.w3.org/2000/svg" d="  M36.0075,14.5575 L40.0770,11.5313 L46.4738,0.3135 L60.0900,7.9223 L53.5980,19.6500 L50.4277,23.2620 L36.0075,14.5575 Z" style="fill-rule: evenodd; fill: url(#grad2133); "/>
    <defs xmlns="http://www.w3.org/2000/svg" xmlns:xlink="http://www.w3.org/1999/xlink">
      <linearGradient id="grad2134">
        <stop offset="0%" stop-color="#ededed" stop-opacity="1.0000"/>
        <stop offset="100%" stop-color="#7f8787" stop-opacity="1.0000"/>
      </linearGradient>
      <linearGradient xlink:href="#grad2134" id="grad2135" x1="0" y1="0" x2="0" y2="1" gradientTransform="rotate(45 .5 .5)" gradientUnits="objectBoundingBox">
  </linearGradient>
    </defs>
    <path xmlns="http://www.w3.org/2000/svg" d="  M40.1115,11.4540 L53.5388,19.3185 L50.5635,23.0040 L35.9310,14.4300 L40.1115,11.4540 Z" style="fill-rule: evenodd; fill: url(#grad2135); "/>
    <defs xmlns="http://www.w3.org/2000/svg" xmlns:xlink="http://www.w3.org/1999/xlink">
      <linearGradient id="grad2136">
        <stop offset="0%" stop-color="#f3f9f7" stop-opacity="1.0000"/>
        <stop offset="100%" stop-color="#000000" stop-opacity="1.0000"/>
      </linearGradient>
      <linearGradient xlink:href="#grad2136" id="grad2137" x1="0" y1="0" x2="0" y2="1" gradientTransform="rotate(-0 .5 .5)" gradientUnits="objectBoundingBox">
  </linearGradient>
    </defs>
    <path xmlns="http://www.w3.org/2000/svg" d="  M53.6025,32.3070 C49.4827,34.8487 32.7172,44.7600 32.6985,44.7712 C32.0452,45.1522 31.5352,45.1170 31.2578,44.8372 L7.1670,30.8805 L8.5320,36.4072 L32.7457,51.0832 C32.7457,51.0832 52.5667,39.6660 52.7865,39.4950 C53.2230,39.1492 53.5155,38.7022 53.5920,38.2072 C53.6055,38.1225 53.6122,38.0355 53.6122,37.9477 C53.6130,37.9087 53.6077,33.5242 53.6025,32.3070 Z" style="fill-rule: evenodd; fill: url(#grad2137); "/>
    <defs xmlns="http://www.w3.org/2000/svg" xmlns:xlink="http://www.w3.org/1999/xlink">
      <linearGradient id="grad2138">
        <stop offset="0%" stop-color="#f3f9f7" stop-opacity="1.0000"/>
        <stop offset="100%" stop-color="#000000" stop-opacity="1.0000"/>
      </linearGradient>
      <linearGradient xlink:href="#grad2138" id="grad2139" x1="0" y1="0" x2="0" y2="1" gradientTransform="rotate(135 .5 .5)" gradientUnits="objectBoundingBox">
  </linearGradient>
    </defs>
    <path xmlns="http://www.w3.org/2000/svg" d="  M32.7465,51.0832 L53.0377,39.4935 C53.0377,39.4935 53.5065,39.3135 53.7240,38.7007 C53.9400,38.0873 53.8680,37.5450 53.8680,37.5450 L53.9407,31.7587 L32.3310,45.5535 L32.7465,51.0832 Z" style="fill-rule: evenodd; fill: url(#grad2139); "/>
    <defs xmlns="http://www.w3.org/2000/svg" xmlns:xlink="http://www.w3.org/1999/xlink">
      <linearGradient id="grad2140">
        <stop offset="0%" stop-color="#ededed" stop-opacity="1.0000"/>
        <stop offset="100%" stop-color="#7f8787" stop-opacity="1.0000"/>
      </linearGradient>
      <linearGradient xlink:href="#grad2140" id="grad2141" x1="0" y1="0" x2="0" y2="1" gradientTransform="rotate(-0 .5 .5)" gradientUnits="objectBoundingBox">
  </linearGradient>
    </defs>
    <path xmlns="http://www.w3.org/2000/svg" d="  M31.5855,13.2053 C32.6550,12.5820 34.3995,12.5895 35.4638,13.2218 L54.1485,24.3307 C55.2127,24.9630 55.2645,26.0775 54.2648,26.8065 L32.9235,42.3817 C31.9237,43.1115 30.2363,43.1887 29.1743,42.5535 L7.4348,29.5650 C6.3728,28.9305 6.3780,27.9007 7.4475,27.2782 L31.5855,13.2053 Z" style="fill-rule: evenodd; fill: url(#grad2141); "/>
    <defs xmlns="http://www.w3.org/2000/svg" xmlns:xlink="http://www.w3.org/1999/xlink">
      <linearGradient id="grad2142">
        <stop offset="0%" stop-color="#000000" stop-opacity="1.0000"/>
        <stop offset="100%" stop-color="#ffffff" stop-opacity="1.0000"/>
      </linearGradient>
      <linearGradient xlink:href="#grad2142" id="grad2143" x1="0" y1="0" x2="0" y2="1" gradientTransform="rotate(-0 .5 .5)" gradientUnits="objectBoundingBox">
  </linearGradient>
    </defs>
    <path xmlns="http://www.w3.org/2000/svg" d="  M32.6100,20.3490 C32.4795,20.2583 28.8135,18.0608 28.6928,18.0015 C28.5983,17.9633 28.4850,17.9430 28.3673,17.9430 C28.2225,17.9430 28.0823,17.9745 27.9773,18.0315 C27.9180,18.0683 26.4990,19.1400 26.4293,19.2015 C26.3873,19.2420 26.3663,19.2870 26.3663,19.3313 C26.3663,19.3898 26.4038,19.4385 26.4368,19.4693 C26.5710,19.5638 30.2108,21.7695 30.3263,21.8250 C30.4178,21.8618 30.5280,21.8813 30.6405,21.8813 C30.7800,21.8813 30.9098,21.8520 31.0133,21.7995 C31.0823,21.7598 32.5605,20.6678 32.6258,20.6085 C32.6603,20.5703 32.6783,20.5298 32.6783,20.4870 C32.6790,20.4278 32.6415,20.3805 32.6100,20.3490 Z" style="fill-rule: evenodd; fill: url(#grad2143); "/>
    <defs xmlns="http://www.w3.org/2000/svg">
      <linearGradient id="grad2144">
        <stop offset="0%" stop-color="#080808" stop-opacity="1.0000"/>
        <stop offset="100%" stop-color="#c4c5c6" stop-opacity="1.0000"/>
      </linearGradient>
    </defs>
    <path xmlns="http://www.w3.org/2000/svg" d="  M31.8758,47.1413 C31.8810,47.1563 31.8840,47.1690 31.8878,47.1795 C31.8833,47.1690 31.8803,47.1563 31.8758,47.1413 Z" style="fill-rule: evenodd; fill: url(#grad2144); "/>
    <path xmlns="http://www.w3.org/2000/svg" d="  M31.8870,47.1795 C31.8908,47.1930 31.8953,47.2028 31.8953,47.2028 C31.8953,47.2028 31.8908,47.1930 31.8870,47.1795 Z" style="fill-rule: evenodd; fill: #a7e968; "/>
    <defs xmlns="http://www.w3.org/2000/svg" xmlns:xlink="http://www.w3.org/1999/xlink">
      <linearGradient id="grad2145">
        <stop offset="0%" stop-color="#7ab04a" stop-opacity="1.0000"/>
        <stop offset="100%" stop-color="#ccff66" stop-opacity="1.0000"/>
      </linearGradient>
      <linearGradient xlink:href="#grad2145" id="grad2146" x1="0" y1="0" x2="0" y2="1" gradientTransform="rotate(-0 .5 .5)" gradientUnits="objectBoundingBox">
  </linearGradient>
    </defs>
    <path xmlns="http://www.w3.org/2000/svg" d="  M30.7650,38.8140 L28.8772,37.7565 C28.7745,37.6995 28.6582,37.6688 28.5427,37.6688 C28.2945,37.6688 28.0657,37.8038 27.9435,38.0205 C27.7590,38.3498 27.8760,38.7690 28.2082,38.9535 L30.0960,40.0110 C30.1980,40.0680 30.3142,40.0988 30.4312,40.0988 C30.6780,40.0988 30.9082,39.9638 31.0297,39.7470 C31.2142,39.4170 31.0957,38.9985 30.7650,38.8140 Z" style="fill-rule: evenodd; fill: url(#grad2146); "/>
    <defs xmlns="http://www.w3.org/2000/svg" xmlns:xlink="http://www.w3.org/1999/xlink">
      <linearGradient id="grad2147">
        <stop offset="0%" stop-color="#ffffff" stop-opacity="1.0000"/>
        <stop offset="100%" stop-color="#669999" stop-opacity="1.0000"/>
      </linearGradient>
      <linearGradient xlink:href="#grad2147" id="grad2148" x1="0" y1="0" x2="0" y2="1" gradientTransform="rotate(225 .5 .5)" gradientUnits="objectBoundingBox">
  </linearGradient>
    </defs>
    <path xmlns="http://www.w3.org/2000/svg" d="  M26.0250,26.6333 L27.9120,27.6923 C28.0155,27.7493 28.1302,27.7785 28.2472,27.7785 C28.4947,27.7785 28.7242,27.6450 28.8465,27.4283 C29.0302,27.0975 28.9117,26.6783 28.5817,26.4945 L26.6940,25.4370 C26.5905,25.3793 26.4750,25.3493 26.3595,25.3493 C26.1112,25.3493 25.8817,25.4835 25.7610,25.6995 C25.5765,26.0310 25.6935,26.4495 26.0250,26.6333 Z" style="fill-rule: evenodd; fill: url(#grad2148); "/>
    <defs xmlns="http://www.w3.org/2000/svg" xmlns:xlink="http://www.w3.org/1999/xlink">
      <linearGradient id="grad2149">
        <stop offset="0%" stop-color="#ffffff" stop-opacity="1.0000"/>
        <stop offset="100%" stop-color="#669999" stop-opacity="1.0000"/>
      </linearGradient>
      <linearGradient xlink:href="#grad2149" id="grad2150" x1="0" y1="0" x2="0" y2="1" gradientTransform="rotate(225 .5 .5)" gradientUnits="objectBoundingBox">
  </linearGradient>
    </defs>
    <path xmlns="http://www.w3.org/2000/svg" d="  M32.4038,28.6770 L30.5138,27.6195 C30.4118,27.5625 30.2963,27.5332 30.1800,27.5332 C29.9325,27.5332 29.7023,27.6667 29.5800,27.8835 C29.3955,28.2127 29.5140,28.6320 29.8455,28.8165 L31.7333,29.8740 C31.8360,29.9310 31.9508,29.9617 32.0670,29.9617 C32.3153,29.9617 32.5455,29.8267 32.6655,29.6115 C32.8508,29.2807 32.7323,28.8615 32.4038,28.6770 Z" style="fill-rule: evenodd; fill: url(#grad2150); "/>
    <defs xmlns="http://www.w3.org/2000/svg" xmlns:xlink="http://www.w3.org/1999/xlink">
      <linearGradient id="grad2151">
        <stop offset="0%" stop-color="#ffffff" stop-opacity="1.0000"/>
        <stop offset="100%" stop-color="#669999" stop-opacity="1.0000"/>
      </linearGradient>
      <linearGradient xlink:href="#grad2151" id="grad2152" x1="0" y1="0" x2="0" y2="1" gradientTransform="rotate(225 .5 .5)" gradientUnits="objectBoundingBox">
  </linearGradient>
    </defs>
    <path xmlns="http://www.w3.org/2000/svg" d="  M33.7553,31.1175 L35.6438,32.1735 C35.7465,32.2305 35.8620,32.2613 35.9790,32.2613 C36.2258,32.2613 36.4560,32.1263 36.5768,31.9110 C36.7620,31.5803 36.6435,31.1610 36.3135,30.9765 L34.4250,29.9205 C34.3223,29.8620 34.2068,29.8313 34.0905,29.8313 C33.8430,29.8313 33.6128,29.9678 33.4928,30.1830 C33.3083,30.5123 33.4245,30.9330 33.7553,31.1175 Z" style="fill-rule: evenodd; fill: url(#grad2152); "/>
    <defs xmlns="http://www.w3.org/2000/svg" xmlns:xlink="http://www.w3.org/1999/xlink">
      <linearGradient id="grad2153">
        <stop offset="0%" stop-color="#646c6b" stop-opacity="1.0000"/>
        <stop offset="100%" stop-color="#dae1e1" stop-opacity="1.0000"/>
      </linearGradient>
      <linearGradient xlink:href="#grad2153" id="grad2154" x1="0" y1="0" x2="0" y2="1" gradientTransform="rotate(135 .5 .5)" gradientUnits="objectBoundingBox">
  </linearGradient>
    </defs>
    <path xmlns="http://www.w3.org/2000/svg" d="  M39.4815,33.1920 L38.6700,32.6895 C38.5672,32.6325 38.4525,32.6032 38.3355,32.6032 C38.0880,32.6032 37.8577,32.7367 37.7362,32.9535 C37.5525,33.2827 37.6687,33.7020 38.0010,33.8865 L38.8110,34.3890 C38.9145,34.4460 39.0292,34.4767 39.1462,34.4767 C39.3945,34.4767 39.6240,34.3417 39.7462,34.1250 C39.9292,33.7950 39.8107,33.3765 39.4815,33.1920 Z" style="fill-rule: evenodd; fill: url(#grad2154); "/>
    <defs xmlns="http://www.w3.org/2000/svg" xmlns:xlink="http://www.w3.org/1999/xlink">
      <linearGradient id="grad2155">
        <stop offset="0%" stop-color="#ffffff" stop-opacity="1.0000"/>
        <stop offset="100%" stop-color="#669999" stop-opacity="1.0000"/>
      </linearGradient>
      <linearGradient xlink:href="#grad2155" id="grad2156" x1="0" y1="0" x2="0" y2="1" gradientTransform="rotate(225 .5 .5)" gradientUnits="objectBoundingBox">
  </linearGradient>
    </defs>
    <path xmlns="http://www.w3.org/2000/svg" d="  M22.9755,28.5322 L24.8640,29.5897 C24.9660,29.6482 25.0807,29.6775 25.1977,29.6775 C25.4467,29.6775 25.6755,29.5425 25.7970,29.3257 C25.9807,28.9965 25.8622,28.5772 25.5330,28.3927 L23.6445,27.3352 C23.5425,27.2782 23.4270,27.2475 23.3107,27.2475 C23.0617,27.2475 22.8322,27.3825 22.7115,27.5992 C22.5277,27.9285 22.6462,28.3477 22.9755,28.5322 Z" style="fill-rule: evenodd; fill: url(#grad2156); "/>
    <defs xmlns="http://www.w3.org/2000/svg" xmlns:xlink="http://www.w3.org/1999/xlink">
      <linearGradient id="grad2157">
        <stop offset="0%" stop-color="#ffffff" stop-opacity="1.0000"/>
        <stop offset="100%" stop-color="#669999" stop-opacity="1.0000"/>
      </linearGradient>
      <linearGradient xlink:href="#grad2157" id="grad2158" x1="0" y1="0" x2="0" y2="1" gradientTransform="rotate(225 .5 .5)" gradientUnits="objectBoundingBox">
  </linearGradient>
    </defs>
    <path xmlns="http://www.w3.org/2000/svg" d="  M27.1770,29.4300 C26.9288,29.4300 26.6993,29.5650 26.5785,29.7818 C26.3933,30.1110 26.5118,30.5303 26.8418,30.7148 L28.7303,31.7723 C28.8338,31.8293 28.9478,31.8585 29.0640,31.8585 C29.3130,31.8585 29.5418,31.7250 29.6633,31.5083 C29.8478,31.1790 29.7308,30.7598 29.3993,30.5753 L27.5108,29.5178 C27.4088,29.4608 27.2940,29.4300 27.1770,29.4300 Z" style="fill-rule: evenodd; fill: url(#grad2158); "/>
    <defs xmlns="http://www.w3.org/2000/svg" xmlns:xlink="http://www.w3.org/1999/xlink">
      <linearGradient id="grad2159">
        <stop offset="0%" stop-color="#ffffff" stop-opacity="1.0000"/>
        <stop offset="100%" stop-color="#669999" stop-opacity="1.0000"/>
      </linearGradient>
      <linearGradient xlink:href="#grad2159" id="grad2160" x1="0" y1="0" x2="0" y2="1" gradientTransform="rotate(225 .5 .5)" gradientUnits="objectBoundingBox">
  </linearGradient>
    </defs>
    <path xmlns="http://www.w3.org/2000/svg" d="  M31.0425,31.5495 C30.7942,31.5495 30.5640,31.6845 30.4425,31.9012 C30.2595,32.2305 30.3750,32.6497 30.7072,32.8342 L32.5950,33.8917 C32.6977,33.9487 32.8132,33.9795 32.9302,33.9795 C33.1777,33.9795 33.4080,33.8445 33.5295,33.6277 C33.7125,33.2985 33.5947,32.8792 33.2647,32.6947 L31.3762,31.6372 C31.2750,31.5802 31.1595,31.5495 31.0425,31.5495 Z" style="fill-rule: evenodd; fill: url(#grad2160); "/>
    <defs xmlns="http://www.w3.org/2000/svg" xmlns:xlink="http://www.w3.org/1999/xlink">
      <linearGradient id="grad2161">
        <stop offset="0%" stop-color="#8a2225" stop-opacity="1.0000"/>
        <stop offset="100%" stop-color="#f05a2b" stop-opacity="1.0000"/>
      </linearGradient>
      <linearGradient xlink:href="#grad2161" id="grad2162" x1="0" y1="0" x2="0" y2="1" gradientTransform="rotate(90 .5 .5)" gradientUnits="objectBoundingBox">
  </linearGradient>
    </defs>
    <path xmlns="http://www.w3.org/2000/svg" d="  M36.8445,34.9537 L36.0330,34.4527 C35.9295,34.3957 35.8147,34.3650 35.6992,34.3650 C35.4510,34.3650 35.2207,34.5000 35.1000,34.7167 C34.9155,35.0460 35.0325,35.4652 35.3640,35.6497 L36.1755,36.1522 C36.2782,36.2092 36.3937,36.2400 36.5092,36.2400 C36.7590,36.2400 36.9885,36.1035 37.1092,35.8867 C37.2922,35.5590 37.1745,35.1397 36.8445,34.9537 Z" style="fill-rule: evenodd; fill: url(#grad2162); "/>
    <defs xmlns="http://www.w3.org/2000/svg" xmlns:xlink="http://www.w3.org/1999/xlink">
      <linearGradient id="grad2163">
        <stop offset="0%" stop-color="#ffffff" stop-opacity="1.0000"/>
        <stop offset="100%" stop-color="#669999" stop-opacity="1.0000"/>
      </linearGradient>
      <linearGradient xlink:href="#grad2163" id="grad2164" x1="0" y1="0" x2="0" y2="1" gradientTransform="rotate(225 .5 .5)" gradientUnits="objectBoundingBox">
  </linearGradient>
    </defs>
    <path xmlns="http://www.w3.org/2000/svg" d="  M22.5795,31.7355 C22.8278,31.7355 23.0573,31.6005 23.1780,31.3837 C23.3633,31.0545 23.2455,30.6352 22.9148,30.4507 L21.0263,29.3932 C20.9243,29.3362 20.8088,29.3055 20.6918,29.3055 C20.4450,29.3055 20.2148,29.4405 20.0925,29.6557 C19.9073,29.9865 20.0258,30.4057 20.3573,30.5902 L22.2450,31.6477 C22.3478,31.7047 22.4633,31.7355 22.5795,31.7355 Z" style="fill-rule: evenodd; fill: url(#grad2164); "/>
    <defs xmlns="http://www.w3.org/2000/svg" xmlns:xlink="http://www.w3.org/1999/xlink">
      <linearGradient id="grad2165">
        <stop offset="0%" stop-color="#ffffff" stop-opacity="1.0000"/>
        <stop offset="100%" stop-color="#669999" stop-opacity="1.0000"/>
      </linearGradient>
      <linearGradient xlink:href="#grad2165" id="grad2166" x1="0" y1="0" x2="0" y2="1" gradientTransform="rotate(225 .5 .5)" gradientUnits="objectBoundingBox">
  </linearGradient>
    </defs>
    <path xmlns="http://www.w3.org/2000/svg" d="  M26.4908,34.0072 C26.7383,34.0072 26.9685,33.8722 27.0893,33.6555 C27.2745,33.3262 27.1568,32.9070 26.8260,32.7225 L24.9375,31.6650 C24.8348,31.6080 24.7193,31.5787 24.6030,31.5787 C24.3555,31.5787 24.1260,31.7122 24.0030,31.9290 C23.8200,32.2582 23.9370,32.6775 24.2678,32.8620 L26.1563,33.9195 C26.2583,33.9765 26.3753,34.0072 26.4908,34.0072 Z" style="fill-rule: evenodd; fill: url(#grad2166); "/>
    <defs xmlns="http://www.w3.org/2000/svg" xmlns:xlink="http://www.w3.org/1999/xlink">
      <linearGradient id="grad2167">
        <stop offset="0%" stop-color="#ffffff" stop-opacity="1.0000"/>
        <stop offset="100%" stop-color="#669999" stop-opacity="1.0000"/>
      </linearGradient>
      <linearGradient xlink:href="#grad2167" id="grad2168" x1="0" y1="0" x2="0" y2="1" gradientTransform="rotate(225 .5 .5)" gradientUnits="objectBoundingBox">
  </linearGradient>
    </defs>
    <path xmlns="http://www.w3.org/2000/svg" d="  M30.2670,36.1275 C30.5138,36.1275 30.7440,35.9940 30.8655,35.7758 C31.0500,35.4465 30.9315,35.0273 30.6015,34.8428 L28.7130,33.7853 C28.6103,33.7283 28.4940,33.6990 28.3785,33.6990 C28.1303,33.6990 27.9015,33.8325 27.7793,34.0493 C27.5940,34.3785 27.7125,34.7978 28.0433,34.9838 L29.9325,36.0398 C30.0338,36.0983 30.1493,36.1275 30.2670,36.1275 Z" style="fill-rule: evenodd; fill: url(#grad2168); "/>
    <defs xmlns="http://www.w3.org/2000/svg" xmlns:xlink="http://www.w3.org/1999/xlink">
      <linearGradient id="grad2169">
        <stop offset="0%" stop-color="#85919c" stop-opacity="1.0000"/>
        <stop offset="100%" stop-color="#dadfe1" stop-opacity="1.0000"/>
      </linearGradient>
      <linearGradient xlink:href="#grad2169" id="grad2170" x1="0" y1="0" x2="0" y2="1" gradientTransform="rotate(135 .5 .5)" gradientUnits="objectBoundingBox">
  </linearGradient>
    </defs>
    <path xmlns="http://www.w3.org/2000/svg" d="  M34.1730,36.9517 L33.3615,36.4507 C33.2587,36.3937 33.1440,36.3630 33.0277,36.3630 C32.7787,36.3630 32.5492,36.4980 32.4270,36.7147 C32.2425,37.0440 32.3602,37.4632 32.6910,37.6477 L33.5040,38.1487 C33.6060,38.2057 33.7207,38.2365 33.8385,38.2365 C34.0852,38.2365 34.3155,38.1015 34.4377,37.8862 C34.6215,37.5555 34.5030,37.1362 34.1730,36.9517 Z" style="fill-rule: evenodd; fill: url(#grad2170); "/>
    <defs xmlns="http://www.w3.org/2000/svg" xmlns:xlink="http://www.w3.org/1999/xlink">
      <linearGradient id="grad2171">
        <stop offset="0%" stop-color="#ffffff" stop-opacity="1.0000"/>
        <stop offset="100%" stop-color="#669999" stop-opacity="1.0000"/>
      </linearGradient>
      <linearGradient xlink:href="#grad2171" id="grad2172" x1="0" y1="0" x2="0" y2="1" gradientTransform="rotate(225 .5 .5)" gradientUnits="objectBoundingBox">
  </linearGradient>
    </defs>
    <path xmlns="http://www.w3.org/2000/svg" d="  M19.1685,32.1428 L17.2800,31.0838 C17.1780,31.0283 17.0625,30.9975 16.9455,30.9975 C16.6980,30.9975 16.4685,31.1325 16.3455,31.3493 C16.1625,31.6785 16.2795,32.0978 16.6103,32.2823 L18.4988,33.3383 C18.6015,33.3953 18.7155,33.4260 18.8325,33.4260 C19.0815,33.4260 19.3110,33.2925 19.4318,33.0758 C19.6170,32.7465 19.4993,32.3258 19.1685,32.1428 Z" style="fill-rule: evenodd; fill: url(#grad2172); "/>
    <defs xmlns="http://www.w3.org/2000/svg" xmlns:xlink="http://www.w3.org/1999/xlink">
      <linearGradient id="grad2173">
        <stop offset="0%" stop-color="#ffffff" stop-opacity="1.0000"/>
        <stop offset="100%" stop-color="#669999" stop-opacity="1.0000"/>
      </linearGradient>
      <linearGradient xlink:href="#grad2173" id="grad2174" x1="0" y1="0" x2="0" y2="1" gradientTransform="rotate(225 .5 .5)" gradientUnits="objectBoundingBox">
  </linearGradient>
    </defs>
    <path xmlns="http://www.w3.org/2000/svg" d="  M23.0348,34.3237 L21.1463,33.2677 C21.0435,33.2092 20.9288,33.1785 20.8118,33.1785 C20.5643,33.1785 20.3340,33.3150 20.2125,33.5302 C20.0273,33.8595 20.1458,34.2802 20.4773,34.4632 L22.3650,35.5222 C22.4685,35.5777 22.5825,35.6085 22.6995,35.6085 C22.9478,35.6085 23.1773,35.4735 23.2980,35.2582 C23.4818,34.9275 23.3640,34.5082 23.0348,34.3237 Z" style="fill-rule: evenodd; fill: url(#grad2174); "/>
    <defs xmlns="http://www.w3.org/2000/svg" xmlns:xlink="http://www.w3.org/1999/xlink">
      <linearGradient id="grad2175">
        <stop offset="0%" stop-color="#ffffff" stop-opacity="1.0000"/>
        <stop offset="100%" stop-color="#669999" stop-opacity="1.0000"/>
      </linearGradient>
      <linearGradient xlink:href="#grad2175" id="grad2176" x1="0" y1="0" x2="0" y2="1" gradientTransform="rotate(225 .5 .5)" gradientUnits="objectBoundingBox">
  </linearGradient>
    </defs>
    <path xmlns="http://www.w3.org/2000/svg" d="  M26.8185,36.5670 L24.9300,35.5095 C24.8280,35.4525 24.7125,35.4217 24.5955,35.4217 C24.3480,35.4217 24.1178,35.5567 23.9955,35.7735 C23.8110,36.1027 23.9295,36.5220 24.2603,36.7065 L26.1488,37.7640 C26.2515,37.8210 26.3670,37.8517 26.4825,37.8517 C26.7315,37.8517 26.9618,37.7167 27.0825,37.5000 C27.2670,37.1700 27.1485,36.7515 26.8185,36.5670 Z" style="fill-rule: evenodd; fill: url(#grad2176); "/>
    <g xmlns="http://www.w3.org/2000/svg" xmlns:xlink="http://www.w3.org/1999/xlink" id="Layer1104">
      <defs>
        <linearGradient id="grad2177">
          <stop offset="0%" stop-color="#1e729f" stop-opacity="1.0000"/>
          <stop offset="100%" stop-color="#66ccff" stop-opacity="1.0000"/>
        </linearGradient>
        <linearGradient xlink:href="#grad2177" id="grad2178" x1="0" y1="0" x2="0" y2="1" gradientTransform="rotate(-0 .5 .5)" gradientUnits="objectBoundingBox">
  </linearGradient>
      </defs>
      <path d="  M45.5768,24.7807 C45.2813,24.5760 38.1300,20.3220 37.8540,20.1870 C37.6388,20.1015 37.3815,20.0550 37.1123,20.0550 C36.7815,20.0550 36.4658,20.1262 36.2250,20.2552 C36.0893,20.3370 31.4820,23.7622 31.3230,23.9010 C31.2293,23.9925 31.1820,24.0930 31.1820,24.1950 C31.1820,24.3270 31.2660,24.4365 31.3403,24.5055 C31.6440,24.7200 38.7398,28.9927 39.0023,29.1172 C39.2085,29.1990 39.4583,29.2432 39.7185,29.2432 C40.0320,29.2432 40.3335,29.1772 40.5668,29.0587 C40.7235,28.9665 45.4665,25.4970 45.6158,25.3627 C45.6938,25.2787 45.7358,25.1850 45.7358,25.0897 C45.7358,24.9592 45.6510,24.8505 45.5768,24.7807 Z" style="stroke-width: 0.5625; stroke-linecap: butt; stroke-linejoin: miter; fill-rule: evenodd; fill: url(#grad2178); "/>
      <path d="  M45.5768,24.7807 C45.2813,24.5760 38.1300,20.3220 37.8540,20.1870 C37.6388,20.1015 37.3815,20.0550 37.1123,20.0550 C36.7815,20.0550 36.4658,20.1262 36.2250,20.2552 C36.0893,20.3370 31.4820,23.7622 31.3230,23.9010 C31.2293,23.9925 31.1820,24.0930 31.1820,24.1950 C31.1820,24.3270 31.2660,24.4365 31.3403,24.5055 C31.6440,24.7200 38.7398,28.9927 39.0023,29.1172 C39.2085,29.1990 39.4583,29.2432 39.7185,29.2432 C40.0320,29.2432 40.3335,29.1772 40.5668,29.0587 C40.7235,28.9665 45.4665,25.4970 45.6158,25.3627 C45.6938,25.2787 45.7358,25.1850 45.7358,25.0897 C45.7358,24.9592 45.6510,24.8505 45.5768,24.7807 Z" style="stroke-width: 0.5625; stroke: #ffffff; stroke-dasharray: none; stroke-linecap: butt; stroke-linejoin: miter; fill: none; "/>
    </g>
    <defs xmlns="http://www.w3.org/2000/svg" xmlns:xlink="http://www.w3.org/1999/xlink">
      <linearGradient id="grad2179">
        <stop offset="0%" stop-color="#ffffff" stop-opacity="1.0000"/>
        <stop offset="100%" stop-color="#669999" stop-opacity="1.0000"/>
      </linearGradient>
      <linearGradient xlink:href="#grad2179" id="grad2180" x1="0" y1="0" x2="0" y2="1" gradientTransform="rotate(315 .5 .5)" gradientUnits="objectBoundingBox">
  </linearGradient>
    </defs>
    <path xmlns="http://www.w3.org/2000/svg" d="  M24.0510,23.8897 L23.2388,23.3880 C23.1360,23.3302 23.0205,23.3002 22.9035,23.3002 C22.6568,23.3002 22.4258,23.4345 22.3058,23.6520 C22.1205,23.9805 22.2383,24.3997 22.5690,24.5850 L23.3798,25.0867 C23.4833,25.1445 23.5988,25.1737 23.7143,25.1737 C23.9633,25.1737 24.1935,25.0395 24.3143,24.8227 C24.4988,24.4935 24.3795,24.0742 24.0510,23.8897 Z" style="fill-rule: evenodd; fill: url(#grad2180); "/>
    <defs xmlns="http://www.w3.org/2000/svg" xmlns:xlink="http://www.w3.org/1999/xlink">
      <linearGradient id="grad2181">
        <stop offset="0%" stop-color="#ffffff" stop-opacity="1.0000"/>
        <stop offset="100%" stop-color="#669999" stop-opacity="1.0000"/>
      </linearGradient>
      <linearGradient xlink:href="#grad2181" id="grad2182" x1="0" y1="0" x2="0" y2="1" gradientTransform="rotate(315 .5 .5)" gradientUnits="objectBoundingBox">
  </linearGradient>
    </defs>
    <path xmlns="http://www.w3.org/2000/svg" d="  M22.0313,25.1947 L21.2198,24.6930 C21.1163,24.6345 21.0000,24.6052 20.8845,24.6052 C20.6363,24.6052 20.4060,24.7395 20.2860,24.9562 C20.1000,25.2855 20.2185,25.7047 20.5485,25.8892 L21.3615,26.3910 C21.4635,26.4480 21.5790,26.4780 21.6960,26.4780 C21.9435,26.4780 22.1730,26.3430 22.2945,26.1270 C22.4783,25.7977 22.3598,25.3800 22.0313,25.1947 Z" style="fill-rule: evenodd; fill: url(#grad2182); "/>
    <defs xmlns="http://www.w3.org/2000/svg" xmlns:xlink="http://www.w3.org/1999/xlink">
      <linearGradient id="grad2183">
        <stop offset="0%" stop-color="#ffffff" stop-opacity="1.0000"/>
        <stop offset="100%" stop-color="#669999" stop-opacity="1.0000"/>
      </linearGradient>
      <linearGradient xlink:href="#grad2183" id="grad2184" x1="0" y1="0" x2="0" y2="1" gradientTransform="rotate(315 .5 .5)" gradientUnits="objectBoundingBox">
  </linearGradient>
    </defs>
    <path xmlns="http://www.w3.org/2000/svg" d="  M20.1232,26.4082 L19.3110,25.9072 C19.2082,25.8502 19.0927,25.8195 18.9765,25.8195 C18.7290,25.8195 18.4987,25.9545 18.3772,26.1712 C18.1927,26.5005 18.3112,26.9197 18.6412,27.1027 L19.4527,27.6052 C19.5562,27.6622 19.6710,27.6930 19.7865,27.6930 C20.0347,27.6930 20.2642,27.5580 20.3865,27.3412 C20.5695,27.0112 20.4532,26.5927 20.1232,26.4082 Z" style="fill-rule: evenodd; fill: url(#grad2184); "/>
    <path xmlns="http://www.w3.org/2000/svg" d="  M29.7420,47.5988 L10.5518,36.5063 L9.9210,34.8263 L29.1030,45.8888 L29.7420,47.5988 Z" style="fill-rule: evenodd; fill: #000000; "/>
    <defs xmlns="http://www.w3.org/2000/svg" xmlns:xlink="http://www.w3.org/1999/xlink">
      <linearGradient id="grad2185">
        <stop offset="0%" stop-color="#dae1e1" stop-opacity="1.0000"/>
        <stop offset="100%" stop-color="#7f8787" stop-opacity="1.0000"/>
      </linearGradient>
      <linearGradient xlink:href="#grad2185" id="grad2186" x1="0" y1="0" x2="0" y2="1" gradientTransform="rotate(-0 .5 .5)" gradientUnits="objectBoundingBox">
  </linearGradient>
    </defs>
    <path xmlns="http://www.w3.org/2000/svg" d="  M6.7980,27.9622 C6.6870,27.9487 6.4770,28.2772 6.4485,28.4235 C6.4200,28.5757 6.5130,29.0955 6.5460,29.2905 C6.5798,29.4735 6.8175,30.4597 6.8175,30.4597 C6.9023,30.7320 7.1663,30.8700 7.3553,30.9742 L7.4213,31.0200 L31.6905,45.4897 C31.6088,45.4050 31.5480,45.2992 31.5098,45.1732 C31.5098,45.1732 31.2015,44.0325 31.1933,44.0070 C31.0583,43.5225 30.9735,43.0312 31.1513,42.8130 L30.6413,42.5655 L13.4955,32.3715 L11.5253,31.2112 L6.8370,27.9810 L6.7980,27.9622 Z" style="fill-rule: evenodd; fill: url(#grad2186); "/>
    <defs xmlns="http://www.w3.org/2000/svg" xmlns:xlink="http://www.w3.org/1999/xlink">
      <linearGradient id="grad2187">
        <stop offset="0%" stop-color="#f3f9f7" stop-opacity="0.4118"/>
        <stop offset="100%" stop-color="#000000" stop-opacity="0.4118"/>
      </linearGradient>
      <linearGradient xlink:href="#grad2187" id="grad2188" x1="0" y1="0" x2="0" y2="1" gradientTransform="rotate(180 .5 .5)" gradientUnits="objectBoundingBox">
  </linearGradient>
    </defs>
    <path xmlns="http://www.w3.org/2000/svg" d="  M26.7675,47.5088 L9.5865,37.1670 L11.2140,36.2723 L29.0475,46.3695 L26.7675,47.5088 Z" style="fill-rule: evenodd; fill: url(#grad2188); "/>
    <defs xmlns="http://www.w3.org/2000/svg" xmlns:xlink="http://www.w3.org/1999/xlink">
      <linearGradient id="grad2189">
        <stop offset="0%" stop-color="#ededed" stop-opacity="1.0000"/>
        <stop offset="100%" stop-color="#7f8787" stop-opacity="1.0000"/>
      </linearGradient>
      <linearGradient xlink:href="#grad2189" id="grad2190" x1="0" y1="0" x2="0" y2="1" gradientTransform="rotate(315 .5 .5)" gradientUnits="objectBoundingBox">
  </linearGradient>
    </defs>
    <path xmlns="http://www.w3.org/2000/svg" d="  M54.7793,25.8097 C54.6758,25.9515 37.4752,38.1517 32.2043,41.8882 C31.8705,42.1252 31.5855,42.3277 31.3545,42.4920 C31.3185,42.5197 31.2353,42.5887 31.1460,42.6945 C30.9690,42.9052 31.0140,43.3230 31.0860,43.9042 C31.1625,44.5252 31.3838,45.2827 31.3838,45.2827 C31.4220,45.4042 31.4858,45.5070 31.5645,45.5887 C31.8428,45.8700 32.3528,45.9037 33.0053,45.5227 C33.0293,45.5092 54.1125,32.4082 54.1928,32.3242 C54.2835,32.2320 54.3473,32.1292 54.3765,32.0212 C54.3870,31.9800 54.8978,26.2117 54.8993,25.4662 C54.9000,25.5870 54.8558,25.7017 54.7793,25.8097 Z" style="fill-rule: evenodd; fill: url(#grad2190); "/>
    <defs xmlns="http://www.w3.org/2000/svg" xmlns:xlink="http://www.w3.org/1999/xlink">
      <linearGradient id="grad2191">
        <stop offset="0%" stop-color="#dae1e1" stop-opacity="1.0000"/>
        <stop offset="100%" stop-color="#7f8787" stop-opacity="1.0000"/>
      </linearGradient>
      <linearGradient xlink:href="#grad2191" id="grad2192" x1="0" y1="0" x2="0" y2="1" gradientTransform="rotate(315 .5 .5)" gradientUnits="objectBoundingBox">
  </linearGradient>
    </defs>
    <path xmlns="http://www.w3.org/2000/svg" d="  M0.0255,42.9150 L8.6182,38.3092 L9.0533,37.2885 L10.9657,36.1358 L11.1300,36.0360 L29.3482,46.4805 L26.6280,47.9955 L23.7427,48.4290 L16.6155,52.4385 L0.0255,42.9150 Z M9.5700,37.7370 L9.1275,38.7712 L1.3537,42.9285 L16.6162,51.6885 L23.5245,47.8035 L26.4157,47.3685 L28.0252,46.4722 L11.1375,36.7905 L9.5700,37.7370 Z M10.9717,36.6953 L11.1330,36.4140 L10.9717,36.6953 Z" style="fill-rule: evenodd; fill: url(#grad2192); "/>
    <defs xmlns="http://www.w3.org/2000/svg" xmlns:xlink="http://www.w3.org/1999/xlink">
      <linearGradient id="grad2193">
        <stop offset="0%" stop-color="#ededed" stop-opacity="1.0000"/>
        <stop offset="100%" stop-color="#7f8787" stop-opacity="1.0000"/>
      </linearGradient>
      <linearGradient xlink:href="#grad2193" id="grad2194" x1="0" y1="0" x2="0" y2="1" gradientTransform="rotate(180 .5 .5)" gradientUnits="objectBoundingBox">
  </linearGradient>
    </defs>
    <path xmlns="http://www.w3.org/2000/svg" d="  M11.1848,36.3630 L9.3630,37.4617 L8.9235,38.4900 L0.7410,42.8715 L16.6665,52.0132 L23.6843,48.0660 L26.5740,47.6310 L28.7385,46.4250 L11.1848,36.3630 Z" style="fill-rule: evenodd; fill: url(#grad2194); "/>
    <defs xmlns="http://www.w3.org/2000/svg" xmlns:xlink="http://www.w3.org/1999/xlink">
      <linearGradient id="grad2195">
        <stop offset="0%" stop-color="#000000" stop-opacity="0.4902"/>
        <stop offset="100%" stop-color="#ffffff" stop-opacity="0.4902"/>
      </linearGradient>
      <linearGradient xlink:href="#grad2195" id="grad2196" x1="0" y1="0" x2="0" y2="1" gradientTransform="rotate(90 .5 .5)" gradientUnits="objectBoundingBox">
  </linearGradient>
    </defs>
    <path xmlns="http://www.w3.org/2000/svg" d="  M17.7517,45.7012 L12.7552,48.2880 L6.4238,44.7495 L11.5125,42.0697 L17.7517,45.7012 Z" style="fill-rule: evenodd; fill: url(#grad2196); "/>
    <defs xmlns="http://www.w3.org/2000/svg" xmlns:xlink="http://www.w3.org/1999/xlink">
      <linearGradient id="grad2197">
        <stop offset="0%" stop-color="#000000" stop-opacity="0.4902"/>
        <stop offset="100%" stop-color="#ffffff" stop-opacity="0.4902"/>
      </linearGradient>
      <linearGradient xlink:href="#grad2197" id="grad2198" x1="0" y1="0" x2="0" y2="1" gradientTransform="rotate(90 .5 .5)" gradientUnits="objectBoundingBox">
  </linearGradient>
    </defs>
    <path xmlns="http://www.w3.org/2000/svg" d="  M17.7488,45.6998 L15.0698,47.1592 L8.9528,43.4970 L11.5343,42.0675 L17.7488,45.6998 Z" style="fill-rule: evenodd; fill: url(#grad2198); "/>
    <defs xmlns="http://www.w3.org/2000/svg" xmlns:xlink="http://www.w3.org/1999/xlink">
      <linearGradient id="grad2199">
        <stop offset="0%" stop-color="#dae1e1" stop-opacity="0.3490"/>
        <stop offset="100%" stop-color="#7f8787" stop-opacity="0.3490"/>
      </linearGradient>
      <linearGradient xlink:href="#grad2199" id="grad2200" x1="0" y1="0" x2="0" y2="1" gradientTransform="rotate(45 .5 .5)" gradientUnits="objectBoundingBox">
  </linearGradient>
    </defs>
    <path xmlns="http://www.w3.org/2000/svg" d="  M41.2170,16.6155 L43.9853,14.5267 L44.2793,14.7015 L41.5110,16.8082 Z" style="fill-rule: evenodd; fill: url(#grad2200); "/>
    <path xmlns="http://www.w3.org/2000/svg" d="  M45.0945,12.9630 L47.3325,9.2955 L52.2345,12.0570 L49.9125,15.7402 L45.0945,12.9630 Z" style="fill-rule: evenodd; fill: #ffffff; fill-opacity: 0.7490; "/>
    <defs xmlns="http://www.w3.org/2000/svg" xmlns:xlink="http://www.w3.org/1999/xlink">
      <linearGradient id="grad2201">
        <stop offset="0%" stop-color="#dae1e1" stop-opacity="0.3490"/>
        <stop offset="100%" stop-color="#7f8787" stop-opacity="0.3490"/>
      </linearGradient>
      <linearGradient xlink:href="#grad2201" id="grad2202" x1="0" y1="0" x2="0" y2="1" gradientTransform="rotate(45 .5 .5)" gradientUnits="objectBoundingBox">
  </linearGradient>
    </defs>
    <path xmlns="http://www.w3.org/2000/svg" d="  M48.4620,17.0917 L48.7463,17.2590 L45.8318,19.3995 L45.5610,19.2322 Z" style="fill-rule: evenodd; fill: url(#grad2202); "/>
    <defs xmlns="http://www.w3.org/2000/svg" xmlns:xlink="http://www.w3.org/1999/xlink">
      <linearGradient id="grad2203">
        <stop offset="0%" stop-color="#ffffff" stop-opacity="1.0000"/>
        <stop offset="100%" stop-color="#669999" stop-opacity="1.0000"/>
      </linearGradient>
      <linearGradient xlink:href="#grad2203" id="grad2204" x1="0" y1="0" x2="0" y2="1" gradientTransform="rotate(315 .5 .5)" gradientUnits="objectBoundingBox">
  </linearGradient>
    </defs>
    <path xmlns="http://www.w3.org/2000/svg" d="  M21.4493,22.3583 L20.6378,21.8573 C20.5343,21.7995 20.4188,21.7695 20.3018,21.7695 C20.0543,21.7695 19.8248,21.9038 19.7040,22.1198 C19.5195,22.4498 19.6365,22.8690 19.9665,23.0535 L20.7803,23.5553 C20.8808,23.6130 20.9970,23.6430 21.1125,23.6430 C21.3623,23.6430 21.5910,23.5088 21.7125,23.2920 C21.8963,22.9620 21.7793,22.5443 21.4493,22.3583 Z" style="fill-rule: evenodd; fill: url(#grad2204); "/>
    <defs xmlns="http://www.w3.org/2000/svg" xmlns:xlink="http://www.w3.org/1999/xlink">
      <linearGradient id="grad2205">
        <stop offset="0%" stop-color="#ffffff" stop-opacity="1.0000"/>
        <stop offset="100%" stop-color="#669999" stop-opacity="1.0000"/>
      </linearGradient>
      <linearGradient xlink:href="#grad2205" id="grad2206" x1="0" y1="0" x2="0" y2="1" gradientTransform="rotate(315 .5 .5)" gradientUnits="objectBoundingBox">
  </linearGradient>
    </defs>
    <path xmlns="http://www.w3.org/2000/svg" d="  M19.5188,23.6183 L18.7065,23.1180 C18.6045,23.0595 18.4898,23.0303 18.3728,23.0303 C18.1253,23.0303 17.8943,23.1645 17.7728,23.3813 C17.5890,23.7113 17.7060,24.1298 18.0375,24.3143 L18.8490,24.8168 C18.9518,24.8738 19.0665,24.9038 19.1843,24.9038 C19.4310,24.9038 19.6620,24.7688 19.7828,24.5528 C19.9665,24.2220 19.8488,23.8035 19.5188,23.6183 Z" style="fill-rule: evenodd; fill: url(#grad2206); "/>
    <defs xmlns="http://www.w3.org/2000/svg" xmlns:xlink="http://www.w3.org/1999/xlink">
      <linearGradient id="grad2207">
        <stop offset="0%" stop-color="#ffffff" stop-opacity="1.0000"/>
        <stop offset="100%" stop-color="#669999" stop-opacity="1.0000"/>
      </linearGradient>
      <linearGradient xlink:href="#grad2207" id="grad2208" x1="0" y1="0" x2="0" y2="1" gradientTransform="rotate(315 .5 .5)" gradientUnits="objectBoundingBox">
  </linearGradient>
    </defs>
    <path xmlns="http://www.w3.org/2000/svg" d="  M17.5215,24.9668 L16.7093,24.4650 C16.6058,24.4080 16.4910,24.3773 16.3740,24.3773 C16.1273,24.3773 15.8970,24.5123 15.7763,24.7290 C15.5910,25.0583 15.7095,25.4775 16.0395,25.6620 L16.8503,26.1630 C16.9538,26.2200 17.0693,26.2508 17.1855,26.2508 C17.4338,26.2508 17.6633,26.1173 17.7840,25.9005 C17.9700,25.5705 17.8508,25.1513 17.5215,24.9668 Z" style="fill-rule: evenodd; fill: url(#grad2208); "/>
    <!--converted by libvisio2svg-->
  </g>
</svg>
