<svg xmlns="http://www.w3.org/2000/svg" xmlns:xlink="http://www.w3.org/1999/xlink" version="1.1" width="0.5896000000" height="0.8476000000" viewBox="0 0 42.4545 61.0252">
  <title><![CDATA[Firewall]]></title>
  <g transform=" scale(1.000000) ">
    <path xmlns="http://www.w3.org/2000/svg" d="  M42.3645,30.5317 C42.3900,30.1177 41.8613,29.9093 41.5860,29.9513 L41.6003,28.6792 C41.6490,28.6522 42.0202,28.4505 42.2100,28.1430 C42.4313,27.7867 42.3802,27.0142 42.3802,27.0142 C42.3802,27.0142 42.3833,21.0495 42.3802,21.0090 C42.3750,20.8973 42.4110,20.1578 41.9055,19.8937 C41.8372,19.8585 31.4633,13.8308 31.4633,13.8308 C31.3965,13.7985 31.3125,13.7865 31.2240,13.7655 C30.9247,13.6920 30.6083,13.7963 30.6083,13.7963 L30.2835,13.6463 C30.2438,13.2503 30.1342,13.2225 30.1342,13.2225 L30.0713,13.1865 C30.0375,13.1603 29.9963,13.1355 29.9527,13.1115 L26.5222,11.1360 L19.3627,7.0020 C19.1430,6.8685 18.5460,6.9465 18.5460,6.9465 L18.2213,6.7710 L18.1620,6.5242 C18.1305,6.3885 18.0712,6.2843 17.8845,6.2048 L14.5537,4.2877 L7.3665,0.1380 C7.0485,0.0000 6.5842,0.0750 6.4433,0.1500 L0.3473,3.5843 C0.2708,3.6308 0.1403,3.6750 0.1418,3.8513 L0.1283,11.7420 C0.1403,12.0113 0.5513,12.1088 0.5513,12.1088 L0.5565,13.0717 C0.5475,13.0665 0.2505,13.2187 0.2505,13.2187 C0.0945,13.3028 0.0300,13.3815 0.0375,13.4932 L0.0248,21.0233 C0.0248,21.1718 0.1283,21.2565 0.3098,21.3210 L0.5888,21.4762 L0.6045,22.3883 L0.2715,22.5682 C0.1215,22.6462 0.0503,22.7175 0.0503,22.7888 L0.0285,30.5325 C0.0285,30.6885 0.1695,30.8783 0.3195,31.0117 L0.6473,31.2067 L0.6525,32.2267 C0.6008,32.1960 0.5685,32.1772 0.5685,32.1772 C0.5685,32.1772 0.0908,32.3970 0.0705,32.5462 L0.0518,40.1377 C0.0518,40.2862 0.1703,40.4062 0.3173,40.4062 L5.7218,43.6995 C5.7930,43.6995 5.8560,43.6718 5.9010,43.6260 C5.8792,43.6478 5.8522,43.6642 5.8200,43.6845 L6.1260,43.5097 C6.0990,43.5465 6.0630,43.5660 6.0157,43.5938 L6.4043,43.3890 L6.5490,43.4753 L6.5475,43.9223 C6.5475,44.0685 6.6668,44.1885 6.8145,44.1885 L17.1105,50.2808 C17.1817,50.2808 17.2448,50.2523 17.2927,50.2072 C17.2702,50.2275 17.2432,50.2440 17.2110,50.2658 L17.6018,50.0370 L17.9077,50.2193 L17.9077,50.7480 C17.9077,50.8965 18.0285,51.0173 18.1763,51.0173 L28.5720,57.1673 C28.6417,57.1673 28.7062,57.1380 28.7535,57.0930 C28.7318,57.1140 28.7048,57.1305 28.6710,57.1515 L29.1330,56.8845 L29.3340,57.0030 L29.3325,57.2812 C29.3325,57.4320 29.5395,57.6113 29.6947,57.6960 L34.9327,60.8190 C35.1743,61.0252 35.7248,60.5685 35.7248,60.5685 L41.2958,56.8770 C41.2958,56.8770 41.7007,56.6527 41.8995,56.3318 C42.1155,55.9875 42.0682,55.2623 42.0682,55.2623 L42.0720,49.5232 C42.0720,49.5232 42.0968,49.3387 42.0502,49.1790 C41.9910,48.8873 41.6505,48.7410 41.4007,48.7365 L41.4135,47.5223 C41.4232,47.5170 41.8245,47.3160 42.0232,46.9995 C42.2407,46.6553 42.1912,45.9083 42.1912,45.9083 L42.1935,40.1708 C42.1935,40.1708 42.3225,39.3165 41.4960,39.2932 L41.5080,38.1630 L41.6235,38.0933 C41.6235,38.0933 41.9805,37.9567 42.1792,37.6380 C42.3938,37.2930 42.3450,36.5460 42.3450,36.5460 L42.3645,30.5317 Z M23.6002,17.0625 C23.5935,17.0400 23.5823,17.0182 23.5703,16.9965 C23.5837,17.0175 23.5935,17.0407 23.6032,17.0647 L23.6002,17.0625 Z M11.5905,10.1273 C11.5838,10.1033 11.5688,10.0808 11.5575,10.0575 C11.5702,10.0785 11.5815,10.1025 11.5920,10.1273 L11.5905,10.1273 Z M5.9362,43.5713 C5.9280,43.5870 5.9205,43.6005 5.9115,43.6125 C5.9220,43.6005 5.9287,43.5847 5.9362,43.5713 Z M17.3280,50.1548 C17.3190,50.1698 17.3107,50.1818 17.3032,50.1930 C17.3123,50.1810 17.3190,50.1667 17.3280,50.1548 Z M28.7625,57.0803 C28.7752,57.0675 28.7813,57.0525 28.7918,57.0390 C28.7827,57.0548 28.7752,57.0683 28.7625,57.0803 Z M35.2875,60.7770 C35.2800,60.7913 35.2703,60.8040 35.2613,60.8153 C35.2717,60.8040 35.2785,60.7890 35.2875,60.7770 Z M35.7218,60.4583 L35.7218,60.3930 L35.7263,60.3923 C35.7263,60.4193 35.7263,60.4425 35.7218,60.4583 Z" style="stroke-width: 1.5000; stroke: #8d98b5; stroke-dasharray: none; stroke-linecap: butt; stroke-linejoin: miter; fill: none; "/>
    <defs xmlns="http://www.w3.org/2000/svg" xmlns:xlink="http://www.w3.org/1999/xlink">
      <linearGradient id="grad2250">
        <stop offset="0%" stop-color="#191818" stop-opacity="1.0000"/>
        <stop offset="100%" stop-color="#515152" stop-opacity="1.0000"/>
      </linearGradient>
      <linearGradient xlink:href="#grad2250" id="grad2251" x1="0" y1="0" x2="0" y2="1" gradientTransform="rotate(135 .5 .5)" gradientUnits="objectBoundingBox">
  </linearGradient>
    </defs>
    <path xmlns="http://www.w3.org/2000/svg" d="  M41.3183,56.5478 L35.4060,60.4088 L35.1630,24.0240 L41.6835,20.3580 L41.3183,56.5478 Z" style="fill-rule: evenodd; fill: url(#grad2251); "/>
    <defs xmlns="http://www.w3.org/2000/svg" xmlns:xlink="http://www.w3.org/1999/xlink">
      <linearGradient id="grad2252">
        <stop offset="0%" stop-color="#000000" stop-opacity="1.0000"/>
        <stop offset="100%" stop-color="#abadac" stop-opacity="1.0000"/>
      </linearGradient>
      <linearGradient xlink:href="#grad2252" id="grad2253" x1="0" y1="0" x2="0" y2="1" gradientTransform="rotate(135 .5 .5)" gradientUnits="objectBoundingBox">
  </linearGradient>
    </defs>
    <path xmlns="http://www.w3.org/2000/svg" d="  M35.9760,60.3525 L35.1862,60.4800 L0.6915,39.9975 L0.5100,3.7815 L35.9025,24.1380 L35.9760,60.3525 Z" style="fill-rule: evenodd; fill: url(#grad2253); "/>
    <path xmlns="http://www.w3.org/2000/svg" d="  M6.2670,35.8485 C6.5640,36.0067 6.5475,36.1057 6.5475,36.1057 L6.1875,36.2362 C6.1328,36.1057 6.1245,36.0780 5.9220,35.9392 L0.6623,32.8980 C0.6390,32.8905 0.4703,32.7892 0.2100,32.9520 L0.7523,32.6445 C0.7523,32.6437 5.9940,35.7007 6.2670,35.8485 Z" style="fill-rule: evenodd; fill: #000000; fill-opacity: 0.3216; "/>
    <path xmlns="http://www.w3.org/2000/svg" d="  M35.6880,52.8630 C35.9895,53.0242 35.9708,53.1255 35.9708,53.1255 L35.6070,53.2575 C35.5530,53.1240 35.5440,53.0955 35.3400,52.9560 L30.0165,49.8787 C29.9940,49.8697 29.8245,49.7685 29.5613,49.9327 L30.1080,49.6215 C30.1080,49.6215 35.4128,52.7152 35.6880,52.8630 Z" style="fill-rule: evenodd; fill: #000000; fill-opacity: 0.3216; "/>
    <path xmlns="http://www.w3.org/2000/svg" d="  M17.9842,31.2990 L17.4502,31.6102 C17.5605,31.5390 17.6122,31.5262 17.6122,31.1692 L17.6047,23.8320 L18.0487,23.5845 L17.9842,31.2990 Z" style="fill-rule: evenodd; fill: #000000; fill-opacity: 0.3216; "/>
    <path xmlns="http://www.w3.org/2000/svg" d="  M17.6175,31.3575 C17.6175,31.5045 17.4990,31.6245 17.3505,31.6245 L7.0538,25.5330 C6.9075,25.5330 6.7883,25.4130 6.7883,25.2652 L6.8003,17.8102 C6.8003,17.6617 6.9210,17.5432 7.0688,17.5432 L17.3738,23.4637 C17.6205,23.5837 17.6415,23.7922 17.6415,23.8590 L17.6175,31.3575 Z" style="fill-rule: evenodd; fill: #000000; fill-opacity: 0.3216; "/>
    <path xmlns="http://www.w3.org/2000/svg" d="  M17.8335,23.3332 C18.0832,23.5027 18.0517,23.5852 18.0517,23.5852 L17.6340,23.8215 C17.6138,23.6767 17.5725,23.6130 17.3685,23.4772 L7.2165,17.6340 C7.1940,17.6272 7.0245,17.5260 6.7613,17.6880 L7.3515,17.3580 C7.3515,17.3580 17.3730,23.0250 17.8335,23.3332 Z" style="fill-rule: evenodd; fill: #000000; fill-opacity: 0.3216; "/>
    <path xmlns="http://www.w3.org/2000/svg" d="  M20.1188,13.9740 L11.5965,18.9232 C11.7150,18.8482 11.7683,18.8340 11.7683,18.4567 L11.7023,10.6365 L18.3435,6.9915 L20.1188,13.9740 Z" style="fill-rule: evenodd; fill: #000000; fill-opacity: 0.3216; "/>
    <path xmlns="http://www.w3.org/2000/svg" d="  M11.7750,18.6562 C11.7750,18.8122 11.6505,18.9382 11.4990,18.9382 L0.9345,12.7312 C0.7838,12.7312 0.6615,12.6052 0.6615,12.4500 L0.6120,4.3192 C0.6120,4.1632 0.7365,4.0365 0.8880,4.0365 L11.5238,10.3012 C11.6970,10.3875 11.7990,10.5637 11.7990,10.7190 L11.7750,18.6562 Z" style="fill-rule: evenodd; fill: #000000; fill-opacity: 0.3216; "/>
    <path xmlns="http://www.w3.org/2000/svg" d="  M30.4125,13.8997 L32.1893,20.9370 L23.6070,25.9200 C23.7263,25.8427 23.7788,25.8300 23.7788,25.4497 L23.7143,17.5762 Z" style="fill-rule: evenodd; fill: #000000; fill-opacity: 0.3216; "/>
    <path xmlns="http://www.w3.org/2000/svg" d="  M23.7863,25.6507 C23.7863,25.8067 23.6588,25.9350 23.5020,25.9350 L12.5288,19.4445 C12.3728,19.4445 12.2453,19.3170 12.2453,19.1602 L12.2610,11.2162 C12.2610,11.0595 12.3885,10.9305 12.5453,10.9305 L23.5283,17.2395 C23.7060,17.3257 23.8095,17.5027 23.8095,17.6602 L23.7863,25.6507 Z" style="fill-rule: evenodd; fill: #000000; fill-opacity: 0.3216; "/>
    <path xmlns="http://www.w3.org/2000/svg" d="  M41.5628,28.6710 L41.5800,29.2365 L35.7068,32.7472 C35.8275,32.6707 35.8785,32.6580 35.8785,32.2777 L35.8140,24.4042 L41.5462,21.3585 L41.5628,28.6710 Z" style="fill-rule: evenodd; fill: #000000; fill-opacity: 0.3216; "/>
    <path xmlns="http://www.w3.org/2000/svg" d="  M35.8875,32.4787 C35.8875,32.6362 35.7263,32.8455 35.5103,32.6992 L24.6293,26.2725 C24.4733,26.2725 24.3473,26.1457 24.3473,25.9882 L24.3608,18.0435 C24.3608,17.8860 24.4860,17.7592 24.6450,17.7592 L35.6280,24.0667 C35.8058,24.1537 35.9100,24.3307 35.9100,24.4882 L35.8875,32.4787 Z" style="fill-rule: evenodd; fill: #000000; fill-opacity: 0.3216; "/>
    <path xmlns="http://www.w3.org/2000/svg" d="  M6.5273,24.7222 L5.9783,25.0380 C6.0878,24.9667 6.1373,24.9532 6.1373,24.5932 L6.1290,17.0745 L6.5175,16.9620 L6.5273,24.7222 Z" style="fill-rule: evenodd; fill: #000000; fill-opacity: 0.3216; "/>
    <path xmlns="http://www.w3.org/2000/svg" d="  M6.1448,24.7830 C6.1448,24.9315 6.0353,25.0530 5.8965,25.0530 L0.8363,22.0260 C0.6983,22.0260 0.5880,21.9052 0.5880,21.7567 L0.6150,13.9597 C0.6150,13.8112 0.7268,13.6912 0.8633,13.6912 L5.9205,16.8105 C6.0765,16.8930 6.1665,17.0602 6.1665,17.2095 L6.1448,24.7830 Z" style="fill-rule: evenodd; fill: #000000; fill-opacity: 0.3216; "/>
    <path xmlns="http://www.w3.org/2000/svg" d="  M6.2438,16.7340 C6.5393,16.8930 6.5228,16.9927 6.5228,16.9927 L6.1620,17.1225 C6.1080,16.9912 6.1013,16.9627 5.8965,16.8247 L0.6375,13.7842 C0.6150,13.7760 0.4448,13.6747 0.1860,13.8382 L0.7268,13.5315 C0.7268,13.5307 5.9693,16.5877 6.2438,16.7340 Z" style="fill-rule: evenodd; fill: #000000; fill-opacity: 0.3216; "/>
    <path xmlns="http://www.w3.org/2000/svg" d="  M29.5455,38.0880 L29.0025,38.4030 C29.1158,38.3310 29.1653,38.3175 29.1653,37.9575 L29.1585,30.5497 L29.6085,30.3007 L29.5455,38.0880 Z" style="fill-rule: evenodd; fill: #000000; fill-opacity: 0.3216; "/>
    <path xmlns="http://www.w3.org/2000/svg" d="  M29.1728,38.1472 C29.1728,38.2957 29.0520,38.4172 28.9028,38.4172 L18.5085,32.2672 C18.3593,32.2672 18.2408,32.1465 18.2408,31.9987 L18.2535,24.4702 C18.2535,24.3210 18.3735,24.2017 18.5228,24.2017 L28.9290,30.1777 C29.1773,30.3000 29.1953,30.5092 29.1953,30.5767 L29.1728,38.1472 Z" style="fill-rule: evenodd; fill: #000000; fill-opacity: 0.3216; "/>
    <path xmlns="http://www.w3.org/2000/svg" d="  M29.3888,30.0472 C29.6423,30.2175 29.6115,30.3015 29.6115,30.3015 L29.1893,30.5400 C29.1690,30.3937 29.1263,30.3300 28.9215,30.1920 L18.6728,24.2932 C18.6495,24.2857 18.4770,24.1852 18.2160,24.3487 L18.8108,24.0150 C18.8100,24.0150 28.9283,29.7352 29.3888,30.0472 Z" style="fill-rule: evenodd; fill: #000000; fill-opacity: 0.3216; "/>
    <path xmlns="http://www.w3.org/2000/svg" d="  M36.2460,41.9093 L35.6880,42.2288 C35.8020,42.1560 35.8523,42.1425 35.8523,41.7787 L35.8433,34.1700 L36.2355,34.0560 L36.2460,41.9093 Z" style="fill-rule: evenodd; fill: #000000; fill-opacity: 0.3216; "/>
    <path xmlns="http://www.w3.org/2000/svg" d="  M35.8583,41.9708 C35.8583,42.1215 35.7375,42.2430 35.5905,42.2430 L30.1215,38.9108 C29.9738,38.9108 29.8538,38.7908 29.8538,38.6393 L29.8673,31.0200 C29.8673,30.8700 29.9880,30.7478 30.1343,30.7478 L35.6145,33.9038 C35.7833,33.9870 35.8800,34.1565 35.8800,34.3073 L35.8583,41.9708 Z" style="fill-rule: evenodd; fill: #000000; fill-opacity: 0.3216; "/>
    <path xmlns="http://www.w3.org/2000/svg" d="  M35.9595,33.8265 C36.2588,33.9870 36.2415,34.0883 36.2415,34.0883 L35.8763,34.2195 C35.8215,34.0868 35.8133,34.0575 35.6093,33.9188 L30.2873,30.8408 C30.2648,30.8333 30.0930,30.7313 29.8305,30.8948 L30.3773,30.5843 C30.3758,30.5843 35.6813,33.6788 35.9595,33.8265 Z" style="fill-rule: evenodd; fill: #000000; fill-opacity: 0.3216; "/>
    <path xmlns="http://www.w3.org/2000/svg" d="  M24.1223,44.1457 C24.1223,44.1457 24.1448,44.5530 24.0105,44.6437 C23.5440,44.9557 23.4743,44.9527 23.4743,44.9527 C23.5935,44.8762 23.5755,44.9535 23.5755,44.5762 L23.5875,36.7170 L24.1200,36.4297 L24.1223,44.1457 Z" style="fill-rule: evenodd; fill: #000000; fill-opacity: 0.3216; "/>
    <path xmlns="http://www.w3.org/2000/svg" d="  M23.6528,44.6850 C23.6528,44.8417 23.5275,44.9692 23.3708,44.9692 L12.4747,38.5207 C12.3270,38.3872 12.1837,38.1982 12.1837,38.0415 L12.2062,30.3480 C12.2062,30.1920 12.3315,30.0660 12.4882,30.0660 L23.3963,36.3307 C23.5748,36.4170 23.6783,36.5932 23.6783,36.7485 L23.6528,44.6850 Z" style="fill-rule: evenodd; fill: #000000; fill-opacity: 0.3216; "/>
    <path xmlns="http://www.w3.org/2000/svg" d="  M23.7893,36.0847 C24.1425,36.3292 24.1177,36.4417 24.1177,36.4417 L23.6843,36.6997 C23.6378,36.5565 23.6063,36.4912 23.3918,36.3457 L12.6465,30.1627 C12.6240,30.1560 12.4440,30.0487 12.1672,30.2205 L12.8392,29.8552 C12.8385,29.8545 23.4353,35.8387 23.7893,36.0847 Z" style="fill-rule: evenodd; fill: #000000; fill-opacity: 0.3216; "/>
    <path xmlns="http://www.w3.org/2000/svg" d="  M12.1500,37.1025 C12.1500,37.1025 12.1733,37.5097 12.0375,37.6005 C11.5718,37.9110 11.5035,37.9088 11.5035,37.9088 C11.6228,37.8330 11.6033,37.9110 11.6033,37.5330 L11.6153,29.6737 L12.1470,29.3865 L12.1500,37.1025 Z" style="fill-rule: evenodd; fill: #000000; fill-opacity: 0.3216; "/>
    <path xmlns="http://www.w3.org/2000/svg" d="  M11.6820,37.6417 C11.6820,37.7985 11.5598,37.9253 11.4090,37.9253 L0.8408,31.5990 C0.6953,31.4663 0.6518,31.3680 0.6518,31.2120 L0.5565,23.3055 C0.5565,23.1495 0.6788,23.0228 0.8303,23.0228 L11.4300,29.2882 C11.6055,29.3737 11.7060,29.5507 11.7060,29.7052 L11.6820,37.6417 Z" style="fill-rule: evenodd; fill: #000000; fill-opacity: 0.3216; "/>
    <path xmlns="http://www.w3.org/2000/svg" d="  M11.8170,29.0415 C12.1703,29.2875 12.1463,29.3985 12.1463,29.3985 L11.7128,29.6565 C11.6670,29.5132 11.6333,29.4465 11.4180,29.3025 L0.6758,23.1202 C0.6495,23.1105 0.4703,23.0055 0.1943,23.1772 L0.8655,22.8127 C0.8663,22.8120 11.4623,28.7970 11.8170,29.0415 Z" style="fill-rule: evenodd; fill: #000000; fill-opacity: 0.3216; "/>
    <path xmlns="http://www.w3.org/2000/svg" d="  M36.2685,51.1560 C36.2685,51.1560 36.2925,51.5655 36.1568,51.6547 C35.6910,51.9652 35.6228,51.9637 35.6228,51.9637 C35.7413,51.8872 35.7218,51.9645 35.7218,51.5872 L35.7330,43.7280 L36.2663,43.4400 L36.2685,51.1560 Z" style="fill-rule: evenodd; fill: #000000; fill-opacity: 0.3216; "/>
    <path xmlns="http://www.w3.org/2000/svg" d="  M35.7990,51.6952 C35.7990,51.8520 35.6730,51.9787 35.5193,51.9787 L24.6210,45.5310 C24.4740,45.3967 24.3300,45.2077 24.3300,45.0517 L24.3518,37.3582 C24.3518,37.2015 24.4800,37.0755 24.6345,37.0755 L35.5425,43.3410 C35.7210,43.4257 35.8245,43.6020 35.8245,43.7587 L35.7990,51.6952 Z" style="fill-rule: evenodd; fill: #000000; fill-opacity: 0.3216; "/>
    <path xmlns="http://www.w3.org/2000/svg" d="  M35.9348,43.0957 C36.2888,43.3402 36.2633,43.4527 36.2633,43.4527 L35.8290,43.7100 C35.7848,43.5675 35.7510,43.5007 35.5365,43.3567 L24.7935,37.1737 C24.7680,37.1655 24.5903,37.0597 24.3120,37.2307 L24.9840,36.8662 C24.9848,36.8655 35.5823,42.8497 35.9348,43.0957 Z" style="fill-rule: evenodd; fill: #000000; fill-opacity: 0.3216; "/>
    <path xmlns="http://www.w3.org/2000/svg" d="  M41.4938,31.7715 L41.4780,37.5247 L41.4780,38.2087 L41.4450,38.7915 L36.0503,42.0480 C36.1635,41.9745 36.2168,41.9610 36.2168,41.5942 L36.2078,34.9822 L41.4938,31.7715 Z" style="fill-rule: evenodd; fill: #000000; fill-opacity: 0.3216; "/>
    <path xmlns="http://www.w3.org/2000/svg" d="  M41.3745,48.1755 L36.1035,51.6690 C36.2168,51.5955 36.1695,51.5887 36.1695,51.2205 L36.1613,43.4842 L41.4608,40.3050 L41.3745,48.1755 Z" style="fill-rule: evenodd; fill: #000000; fill-opacity: 0.3216; "/>
    <path xmlns="http://www.w3.org/2000/svg" d="  M6.5625,43.2990 L6.0135,43.5923 C6.1237,43.5255 6.1755,43.5143 6.1755,43.1798 L6.1665,36.2130 L6.5542,36.1073 L6.5625,43.2990 Z" style="fill-rule: evenodd; fill: #000000; fill-opacity: 0.3216; "/>
    <defs xmlns="http://www.w3.org/2000/svg" xmlns:xlink="http://www.w3.org/1999/xlink">
      <linearGradient id="grad2254">
        <stop offset="0%" stop-color="#4d1e15" stop-opacity="1.0000"/>
        <stop offset="100%" stop-color="#2a100b" stop-opacity="1.0000"/>
      </linearGradient>
      <linearGradient xlink:href="#grad2254" id="grad2255" x1="0" y1="0" x2="0" y2="1" gradientTransform="rotate(90 .5 .5)" gradientUnits="objectBoundingBox">
  </linearGradient>
    </defs>
    <path xmlns="http://www.w3.org/2000/svg" d="  M41.6992,49.0035 L35.8282,52.7812 C35.7952,52.6170 35.7757,52.5667 35.5732,52.4302 L41.2267,48.7597 C41.4697,48.6607 42.0877,48.8400 42.0592,49.2982 L41.6992,49.0035 Z" style="fill-rule: evenodd; fill: url(#grad2255); "/>
    <path xmlns="http://www.w3.org/2000/svg" d="  M41.9085,30.2805 L36.0630,33.6263 C35.9640,33.4733 35.9775,33.4830 35.8582,33.4058 L41.5050,29.9700 C41.7473,29.8710 42.3653,30.0510 42.3368,30.5078 L41.9085,30.2805 Z" style="fill-rule: evenodd; fill: #6d3e34; "/>
    <defs xmlns="http://www.w3.org/2000/svg" xmlns:xlink="http://www.w3.org/1999/xlink">
      <linearGradient id="grad2256">
        <stop offset="0%" stop-color="#3c1811" stop-opacity="1.0000"/>
        <stop offset="100%" stop-color="#592d27" stop-opacity="1.0000"/>
      </linearGradient>
      <linearGradient xlink:href="#grad2256" id="grad2257" x1="0" y1="0" x2="0" y2="1" gradientTransform="rotate(90 .5 .5)" gradientUnits="objectBoundingBox">
  </linearGradient>
    </defs>
    <path xmlns="http://www.w3.org/2000/svg" d="  M17.7427,49.9522 L17.2072,50.2642 C17.3190,50.1922 17.3692,50.1795 17.3692,49.8225 L17.3640,42.4845 L17.8080,42.2385 L17.7427,49.9522 Z" style="fill-rule: evenodd; fill: url(#grad2257); "/>
    <defs xmlns="http://www.w3.org/2000/svg" xmlns:xlink="http://www.w3.org/1999/xlink">
      <linearGradient id="grad2258">
        <stop offset="0%" stop-color="#753d35" stop-opacity="1.0000"/>
        <stop offset="100%" stop-color="#b58c80" stop-opacity="1.0000"/>
      </linearGradient>
      <linearGradient xlink:href="#grad2258" id="grad2259" x1="0" y1="0" x2="0" y2="1" gradientTransform="rotate(135 .5 .5)" gradientUnits="objectBoundingBox">
  </linearGradient>
    </defs>
    <path xmlns="http://www.w3.org/2000/svg" d="  M17.3752,50.0115 C17.3752,50.1585 17.2545,50.2785 17.1067,50.2785 L6.8108,44.1855 C6.6630,44.1855 6.5438,44.0662 6.5438,43.9200 L6.5580,36.4642 C6.5580,36.3165 6.6765,36.1972 6.8243,36.1972 L17.1322,42.1162 C17.3767,42.2362 17.3977,42.4455 17.3977,42.5130 L17.3752,50.0115 Z" style="fill-rule: evenodd; fill: url(#grad2259); "/>
    <defs xmlns="http://www.w3.org/2000/svg" xmlns:xlink="http://www.w3.org/1999/xlink">
      <linearGradient id="grad2260">
        <stop offset="0%" stop-color="#692a20" stop-opacity="1.0000"/>
        <stop offset="100%" stop-color="#b37261" stop-opacity="1.0000"/>
      </linearGradient>
      <linearGradient xlink:href="#grad2260" id="grad2261" x1="0" y1="0" x2="0" y2="1" gradientTransform="rotate(180 .5 .5)" gradientUnits="objectBoundingBox">
  </linearGradient>
    </defs>
    <path xmlns="http://www.w3.org/2000/svg" d="  M16.9312,49.3897 C16.9312,49.5367 16.8127,49.6560 16.6657,49.6560 L7.1130,44.0137 C6.9653,44.0137 6.8468,43.8945 6.8468,43.7482 L6.8040,37.1377 C6.8040,36.9907 6.9225,36.8722 7.0710,36.8722 L16.6312,42.3420 C16.9140,42.4605 16.8975,42.6105 16.8975,42.7590 L16.9312,49.3897 Z" style="fill-rule: evenodd; fill: url(#grad2261); "/>
    <path xmlns="http://www.w3.org/2000/svg" d="  M17.5890,41.9865 C17.8417,42.1567 17.8102,42.2385 17.8102,42.2385 L17.3917,42.4755 C17.3715,42.3300 17.3310,42.2670 17.1262,42.1305 L6.9735,36.2880 C6.9510,36.2790 6.7815,36.1792 6.5213,36.3420 L7.1093,36.0120 C7.1108,36.0120 17.1322,41.6790 17.5890,41.9865 Z" style="fill-rule: evenodd; fill: #8a5f54; "/>
    <defs xmlns="http://www.w3.org/2000/svg" xmlns:xlink="http://www.w3.org/1999/xlink">
      <linearGradient id="grad2262">
        <stop offset="0%" stop-color="#3c1811" stop-opacity="1.0000"/>
        <stop offset="100%" stop-color="#592d27" stop-opacity="1.0000"/>
      </linearGradient>
      <linearGradient xlink:href="#grad2262" id="grad2263" x1="0" y1="0" x2="0" y2="1" gradientTransform="rotate(90 .5 .5)" gradientUnits="objectBoundingBox">
  </linearGradient>
    </defs>
    <path xmlns="http://www.w3.org/2000/svg" d="  M6.3660,43.3673 L5.8170,43.6830 C5.9288,43.6110 5.9790,43.5990 5.9790,43.2383 L5.9700,35.7195 L6.3578,35.6063 L6.3660,43.3673 Z" style="fill-rule: evenodd; fill: url(#grad2263); "/>
    <defs xmlns="http://www.w3.org/2000/svg" xmlns:xlink="http://www.w3.org/1999/xlink">
      <linearGradient id="grad2264">
        <stop offset="0%" stop-color="#753d35" stop-opacity="1.0000"/>
        <stop offset="100%" stop-color="#b58c80" stop-opacity="1.0000"/>
      </linearGradient>
      <linearGradient xlink:href="#grad2264" id="grad2265" x1="0" y1="0" x2="0" y2="1" gradientTransform="rotate(135 .5 .5)" gradientUnits="objectBoundingBox">
  </linearGradient>
    </defs>
    <path xmlns="http://www.w3.org/2000/svg" d="  M5.9835,43.4288 C5.9835,43.5773 5.8658,43.6973 5.7180,43.6973 L0.3135,40.4040 C0.1672,40.4040 0.0480,40.2840 0.0480,40.1348 L0.0622,32.6048 C0.0622,32.4563 0.1807,32.3363 0.3277,32.3363 L5.7413,35.4555 C5.9108,35.5380 6.0053,35.7053 6.0053,35.8545 L5.9835,43.4288 Z" style="fill-rule: evenodd; fill: url(#grad2265); "/>
    <defs xmlns="http://www.w3.org/2000/svg" xmlns:xlink="http://www.w3.org/1999/xlink">
      <linearGradient id="grad2266">
        <stop offset="0%" stop-color="#8c3e33" stop-opacity="1.0000"/>
        <stop offset="100%" stop-color="#b56b53" stop-opacity="1.0000"/>
      </linearGradient>
      <linearGradient xlink:href="#grad2266" id="grad2267" x1="0" y1="0" x2="0" y2="1" gradientTransform="rotate(135 .5 .5)" gradientUnits="objectBoundingBox">
  </linearGradient>
    </defs>
    <path xmlns="http://www.w3.org/2000/svg" d="  M5.5440,42.8003 C5.5440,42.9488 5.4255,43.0695 5.2777,43.0695 L0.6150,40.2300 C0.4672,40.2300 0.3487,40.1100 0.3487,39.9608 L0.3067,33.2873 C0.3067,33.1380 0.4267,33.0180 0.5730,33.0180 L5.2448,35.6843 C5.5245,35.8043 5.5103,35.9550 5.5103,36.1043 L5.5440,42.8003 Z" style="fill-rule: evenodd; fill: url(#grad2267); "/>
    <path xmlns="http://www.w3.org/2000/svg" d="  M6.0818,35.3790 C6.3788,35.5388 6.3623,35.6378 6.3623,35.6378 L6.0022,35.7675 C5.9475,35.6363 5.9393,35.6093 5.7368,35.4705 L0.4777,32.4293 C0.4537,32.4203 0.2857,32.3205 0.0255,32.4833 L0.5662,32.1758 C0.5655,32.1750 5.8088,35.2320 6.0818,35.3790 Z" style="fill-rule: evenodd; fill: #8a5f54; "/>
    <defs xmlns="http://www.w3.org/2000/svg" xmlns:xlink="http://www.w3.org/1999/xlink">
      <linearGradient id="grad2268">
        <stop offset="0%" stop-color="#3c1811" stop-opacity="1.0000"/>
        <stop offset="100%" stop-color="#592d27" stop-opacity="1.0000"/>
      </linearGradient>
      <linearGradient xlink:href="#grad2268" id="grad2269" x1="0" y1="0" x2="0" y2="1" gradientTransform="rotate(90 .5 .5)" gradientUnits="objectBoundingBox">
  </linearGradient>
    </defs>
    <path xmlns="http://www.w3.org/2000/svg" d="  M29.2110,56.8373 L28.6680,57.1515 C28.7813,57.0788 28.8330,57.0668 28.8330,56.7068 L28.8255,49.2983 L29.2755,49.0485 L29.2110,56.8373 Z" style="fill-rule: evenodd; fill: url(#grad2269); "/>
    <defs xmlns="http://www.w3.org/2000/svg" xmlns:xlink="http://www.w3.org/1999/xlink">
      <linearGradient id="grad2270">
        <stop offset="0%" stop-color="#3f2725" stop-opacity="1.0000"/>
        <stop offset="100%" stop-color="#765049" stop-opacity="1.0000"/>
      </linearGradient>
      <linearGradient xlink:href="#grad2270" id="grad2271" x1="0" y1="0" x2="0" y2="1" gradientTransform="rotate(90 .5 .5)" gradientUnits="objectBoundingBox">
  </linearGradient>
    </defs>
    <path xmlns="http://www.w3.org/2000/svg" d="  M28.8375,56.8958 C28.8375,57.0458 28.7168,57.1665 28.5690,57.1665 L18.1732,51.0165 C18.0255,51.0165 17.9047,50.8958 17.9047,50.7473 L17.9182,43.2203 C17.9182,43.0710 18.0397,42.9503 18.1882,42.9503 L28.5938,48.9278 C28.8413,49.0478 28.8600,49.2578 28.8600,49.3260 L28.8375,56.8958 Z" style="fill-rule: evenodd; fill: url(#grad2271); "/>
    <defs xmlns="http://www.w3.org/2000/svg" xmlns:xlink="http://www.w3.org/1999/xlink">
      <linearGradient id="grad2272">
        <stop offset="0%" stop-color="#501b14" stop-opacity="1.0000"/>
        <stop offset="100%" stop-color="#86463a" stop-opacity="1.0000"/>
      </linearGradient>
      <linearGradient xlink:href="#grad2272" id="grad2273" x1="0" y1="0" x2="0" y2="1" gradientTransform="rotate(135 .5 .5)" gradientUnits="objectBoundingBox">
  </linearGradient>
    </defs>
    <path xmlns="http://www.w3.org/2000/svg" d="  M28.3905,56.2688 C28.3905,56.4173 28.2720,56.5380 28.1228,56.5380 L18.4800,50.8425 C18.3300,50.8425 18.2115,50.7225 18.2115,50.5725 L18.1672,43.9005 C18.1672,43.7520 18.2873,43.6313 18.4372,43.6313 L28.0898,49.1535 C28.3740,49.2728 28.3583,49.4250 28.3583,49.5743 L28.3905,56.2688 Z" style="fill-rule: evenodd; fill: url(#grad2273); "/>
    <path xmlns="http://www.w3.org/2000/svg" d="  M29.0558,48.7965 C29.3093,48.9668 29.2770,49.0500 29.2770,49.0500 L28.8548,49.2885 C28.8360,49.1423 28.7918,49.0793 28.5885,48.9405 L18.3397,43.0425 C18.3165,43.0350 18.1440,42.9338 17.8815,43.0965 L18.4762,42.7643 C18.4755,42.7643 28.5930,48.4845 29.0558,48.7965 Z" style="fill-rule: evenodd; fill: #8a5f54; "/>
    <defs xmlns="http://www.w3.org/2000/svg" xmlns:xlink="http://www.w3.org/1999/xlink">
      <linearGradient id="grad2274">
        <stop offset="0%" stop-color="#3c1811" stop-opacity="1.0000"/>
        <stop offset="100%" stop-color="#592d27" stop-opacity="1.0000"/>
      </linearGradient>
      <linearGradient xlink:href="#grad2274" id="grad2275" x1="0" y1="0" x2="0" y2="1" gradientTransform="rotate(135 .5 .5)" gradientUnits="objectBoundingBox">
  </linearGradient>
    </defs>
    <path xmlns="http://www.w3.org/2000/svg" d="  M35.7742,60.5452 C35.6580,60.6277 35.1667,60.8872 35.1667,60.8872 C35.2785,60.8145 35.3317,60.8010 35.3317,60.4372 L35.3212,52.8285 L35.7990,52.6590 C35.7990,52.6605 35.8875,60.4642 35.7742,60.5452 Z" style="fill-rule: evenodd; fill: url(#grad2275); "/>
    <defs xmlns="http://www.w3.org/2000/svg" xmlns:xlink="http://www.w3.org/1999/xlink">
      <linearGradient id="grad2276">
        <stop offset="0%" stop-color="#3f2725" stop-opacity="1.0000"/>
        <stop offset="100%" stop-color="#765049" stop-opacity="1.0000"/>
      </linearGradient>
      <linearGradient xlink:href="#grad2276" id="grad2277" x1="0" y1="0" x2="0" y2="1" gradientTransform="rotate(90 .5 .5)" gradientUnits="objectBoundingBox">
  </linearGradient>
    </defs>
    <path xmlns="http://www.w3.org/2000/svg" d="  M35.3370,60.6300 C35.3370,60.7808 35.2163,60.9023 35.0670,60.9023 L29.6940,57.6960 C29.5372,57.6120 29.3302,57.4320 29.3302,57.2813 L29.3445,49.6793 C29.3445,49.5293 29.4645,49.4063 29.6145,49.4063 L35.0932,52.5630 C35.2613,52.6463 35.3595,52.8165 35.3595,52.9658 L35.3370,60.6300 Z" style="fill-rule: evenodd; fill: url(#grad2277); "/>
    <defs xmlns="http://www.w3.org/2000/svg" xmlns:xlink="http://www.w3.org/1999/xlink">
      <linearGradient id="grad2278">
        <stop offset="0%" stop-color="#4c1a12" stop-opacity="1.0000"/>
        <stop offset="100%" stop-color="#501e15" stop-opacity="1.0000"/>
      </linearGradient>
      <linearGradient xlink:href="#grad2278" id="grad2279" x1="0" y1="0" x2="0" y2="1" gradientTransform="rotate(135 .5 .5)" gradientUnits="objectBoundingBox">
  </linearGradient>
    </defs>
    <path xmlns="http://www.w3.org/2000/svg" d="  M34.8322,59.8853 C34.8322,60.0367 34.7122,60.1590 34.5653,60.1590 L29.9872,57.4620 C29.6932,57.2805 29.6257,57.0923 29.6257,56.9408 L29.5912,50.3670 C29.5912,50.2170 29.7097,50.0955 29.8597,50.0955 L34.5885,52.7933 C34.8727,52.9140 34.8570,53.0677 34.8570,53.2185 L34.8322,59.8853 Z" style="fill-rule: evenodd; fill: url(#grad2279); "/>
    <defs xmlns="http://www.w3.org/2000/svg" xmlns:xlink="http://www.w3.org/1999/xlink">
      <linearGradient id="grad2280">
        <stop offset="0%" stop-color="#5b322d" stop-opacity="1.0000"/>
        <stop offset="100%" stop-color="#7c5853" stop-opacity="1.0000"/>
      </linearGradient>
      <linearGradient xlink:href="#grad2280" id="grad2281" x1="0" y1="0" x2="0" y2="1" gradientTransform="rotate(90 .5 .5)" gradientUnits="objectBoundingBox">
  </linearGradient>
    </defs>
    <path xmlns="http://www.w3.org/2000/svg" d="  M35.5995,52.4430 C35.7547,52.5300 35.7652,52.6605 35.7652,52.6605 L35.3827,52.8945 C35.3280,52.7618 35.2905,52.7175 35.0865,52.5780 L29.7637,49.5000 C29.7405,49.4925 29.5035,49.3403 29.4187,49.5030 C29.4187,49.5030 29.8200,49.1453 29.9040,49.1910 C30.0517,49.2698 35.3242,52.2900 35.5995,52.4430 Z" style="fill-rule: evenodd; fill: url(#grad2281); "/>
    <defs xmlns="http://www.w3.org/2000/svg" xmlns:xlink="http://www.w3.org/1999/xlink">
      <linearGradient id="grad2282">
        <stop offset="0%" stop-color="#3c1811" stop-opacity="1.0000"/>
        <stop offset="100%" stop-color="#592d27" stop-opacity="1.0000"/>
      </linearGradient>
      <linearGradient xlink:href="#grad2282" id="grad2283" x1="0" y1="0" x2="0" y2="1" gradientTransform="rotate(90 .5 .5)" gradientUnits="objectBoundingBox">
  </linearGradient>
    </defs>
    <path xmlns="http://www.w3.org/2000/svg" d="  M17.8005,30.8295 L17.2650,31.1415 C17.3753,31.0702 17.4270,31.0575 17.4270,30.7005 L17.4203,23.3625 L17.8635,23.1157 L17.8005,30.8295 Z" style="fill-rule: evenodd; fill: url(#grad2283); "/>
    <defs xmlns="http://www.w3.org/2000/svg" xmlns:xlink="http://www.w3.org/1999/xlink">
      <linearGradient id="grad2284">
        <stop offset="0%" stop-color="#73463c" stop-opacity="1.0000"/>
        <stop offset="100%" stop-color="#b59084" stop-opacity="1.0000"/>
      </linearGradient>
      <linearGradient xlink:href="#grad2284" id="grad2285" x1="0" y1="0" x2="0" y2="1" gradientTransform="rotate(135 .5 .5)" gradientUnits="objectBoundingBox">
  </linearGradient>
    </defs>
    <path xmlns="http://www.w3.org/2000/svg" d="  M17.4315,30.8887 C17.4315,31.0357 17.3123,31.1557 17.1653,31.1557 L6.8685,25.0635 C6.7208,25.0635 6.6023,24.9435 6.6023,24.7965 L6.6135,17.3407 C6.6135,17.1930 6.7350,17.0737 6.8805,17.0737 L17.1878,22.9927 C17.4353,23.1135 17.4548,23.3220 17.4548,23.3887 L17.4315,30.8887 Z" style="fill-rule: evenodd; fill: url(#grad2285); "/>
    <defs xmlns="http://www.w3.org/2000/svg" xmlns:xlink="http://www.w3.org/1999/xlink">
      <linearGradient id="grad2286">
        <stop offset="0%" stop-color="#a14f3d" stop-opacity="1.0000"/>
        <stop offset="100%" stop-color="#c07c64" stop-opacity="1.0000"/>
      </linearGradient>
      <linearGradient xlink:href="#grad2286" id="grad2287" x1="0" y1="0" x2="0" y2="1" gradientTransform="rotate(180 .5 .5)" gradientUnits="objectBoundingBox">
  </linearGradient>
    </defs>
    <path xmlns="http://www.w3.org/2000/svg" d="  M16.9898,30.2677 C16.9898,30.4147 16.8713,30.5347 16.7228,30.5347 L7.1708,24.8917 C7.0245,24.8917 6.9053,24.7725 6.9053,24.6247 L6.8610,18.0165 C6.8610,17.8680 6.9795,17.7495 7.1288,17.7495 L16.6905,23.2185 C16.9703,23.3377 16.9568,23.4877 16.9568,23.6362 L16.9898,30.2677 Z" style="fill-rule: evenodd; fill: url(#grad2287); "/>
    <defs xmlns="http://www.w3.org/2000/svg" xmlns:xlink="http://www.w3.org/1999/xlink">
      <linearGradient id="grad2288">
        <stop offset="0%" stop-color="#995f44" stop-opacity="1.0000"/>
        <stop offset="100%" stop-color="#c1958b" stop-opacity="1.0000"/>
      </linearGradient>
      <linearGradient xlink:href="#grad2288" id="grad2289" x1="0" y1="0" x2="0" y2="1" gradientTransform="rotate(135 .5 .5)" gradientUnits="objectBoundingBox">
  </linearGradient>
    </defs>
    <path xmlns="http://www.w3.org/2000/svg" d="  M17.6475,22.8645 C17.8980,23.0347 17.8673,23.1172 17.8673,23.1172 L17.4480,23.3535 C17.4285,23.2080 17.3873,23.1450 17.1825,23.0092 L7.0320,17.1667 C7.0080,17.1585 6.8393,17.0580 6.5783,17.2200 L7.1678,16.8915 C7.1678,16.8907 17.1878,22.5562 17.6475,22.8645 Z" style="fill-rule: evenodd; fill: url(#grad2289); "/>
    <defs xmlns="http://www.w3.org/2000/svg" xmlns:xlink="http://www.w3.org/1999/xlink">
      <linearGradient id="grad2290">
        <stop offset="0%" stop-color="#6d392e" stop-opacity="1.0000"/>
        <stop offset="100%" stop-color="#592d27" stop-opacity="1.0000"/>
      </linearGradient>
      <linearGradient xlink:href="#grad2290" id="grad2291" x1="0" y1="0" x2="0" y2="1" gradientTransform="rotate(135 .5 .5)" gradientUnits="objectBoundingBox">
  </linearGradient>
    </defs>
    <path xmlns="http://www.w3.org/2000/svg" d="  M19.9328,13.5052 L11.4098,18.4545 C11.5298,18.3787 11.5808,18.3652 11.5808,17.9872 L11.5163,10.1670 L18.1575,6.5227 L19.9328,13.5052 Z" style="fill-rule: evenodd; fill: url(#grad2291); "/>
    <defs xmlns="http://www.w3.org/2000/svg" xmlns:xlink="http://www.w3.org/1999/xlink">
      <linearGradient id="grad2292">
        <stop offset="0%" stop-color="#6b3b37" stop-opacity="1.0000"/>
        <stop offset="100%" stop-color="#cdaaa2" stop-opacity="1.0000"/>
      </linearGradient>
      <linearGradient xlink:href="#grad2292" id="grad2293" x1="0" y1="0" x2="0" y2="1" gradientTransform="rotate(180 .5 .5)" gradientUnits="objectBoundingBox">
  </linearGradient>
    </defs>
    <path xmlns="http://www.w3.org/2000/svg" d="  M11.5875,18.1867 C11.5875,18.3427 11.4623,18.4695 11.3055,18.4695 L0.4080,12.0232 C0.2528,12.0232 0.1275,11.8965 0.1275,11.7405 L0.1410,3.8497 C0.1410,3.6937 0.2670,3.5677 0.4238,3.5677 L11.3318,9.8332 C11.5095,9.9195 11.6123,10.0950 11.6123,10.2510 L11.5875,18.1867 Z" style="fill-rule: evenodd; fill: url(#grad2293); "/>
    <defs xmlns="http://www.w3.org/2000/svg" xmlns:xlink="http://www.w3.org/1999/xlink">
      <linearGradient id="grad2294">
        <stop offset="0%" stop-color="#a75441" stop-opacity="1.0000"/>
        <stop offset="100%" stop-color="#bf7b64" stop-opacity="1.0000"/>
      </linearGradient>
      <linearGradient xlink:href="#grad2294" id="grad2295" x1="0" y1="0" x2="0" y2="1" gradientTransform="rotate(180 .5 .5)" gradientUnits="objectBoundingBox">
  </linearGradient>
    </defs>
    <path xmlns="http://www.w3.org/2000/svg" d="  M11.1195,17.5290 C11.1195,17.6850 10.9935,17.8110 10.8375,17.8110 L0.7283,11.8402 C0.5730,11.8402 0.4463,11.7150 0.4463,11.5582 L0.4005,4.5637 C0.4005,4.4077 0.5258,4.2817 0.6825,4.2817 L10.8030,10.0710 C11.1000,10.1970 11.0835,10.3560 11.0835,10.5120 L11.1195,17.5290 Z" style="fill-rule: evenodd; fill: url(#grad2295); "/>
    <defs xmlns="http://www.w3.org/2000/svg" xmlns:xlink="http://www.w3.org/1999/xlink">
      <linearGradient id="grad2296">
        <stop offset="0%" stop-color="#995f44" stop-opacity="1.0000"/>
        <stop offset="100%" stop-color="#c1958b" stop-opacity="1.0000"/>
      </linearGradient>
      <linearGradient xlink:href="#grad2296" id="grad2297" x1="0" y1="0" x2="0" y2="1" gradientTransform="rotate(135 .5 .5)" gradientUnits="objectBoundingBox">
  </linearGradient>
    </defs>
    <path xmlns="http://www.w3.org/2000/svg" d="  M11.6183,10.2007 C11.5740,10.0575 11.5418,9.9922 11.3258,9.8475 L0.5805,3.6645 C0.5573,3.6570 0.3780,3.5505 0.1013,3.7222 L6.4508,0.1350 C6.6398,0.0352 7.1033,0.0195 7.3403,0.1350 L17.8845,6.2040 C18.0495,6.2962 18.1583,6.3832 18.1583,6.5385 L11.6183,10.2007 Z" style="fill-rule: evenodd; fill: url(#grad2297); "/>
    <defs xmlns="http://www.w3.org/2000/svg" xmlns:xlink="http://www.w3.org/1999/xlink">
      <linearGradient id="grad2298">
        <stop offset="0%" stop-color="#d5a589" stop-opacity="1.0000"/>
        <stop offset="100%" stop-color="#f6e4dc" stop-opacity="1.0000"/>
      </linearGradient>
      <linearGradient xlink:href="#grad2298" id="grad2299" x1="0" y1="0" x2="0" y2="1" gradientTransform="rotate(90 .5 .5)" gradientUnits="objectBoundingBox">
  </linearGradient>
    </defs>
    <path xmlns="http://www.w3.org/2000/svg" d="  M11.7068,9.8587 L0.6435,3.4215 L6.4778,0.1372 C6.6653,0.0390 7.1288,0.0217 7.3658,0.1372 L18.0660,6.3142 L11.7068,9.8587 Z" style="fill-rule: evenodd; fill: url(#grad2299); "/>
    <defs xmlns="http://www.w3.org/2000/svg" xmlns:xlink="http://www.w3.org/1999/xlink">
      <linearGradient id="grad2300">
        <stop offset="0%" stop-color="#6d392e" stop-opacity="1.0000"/>
        <stop offset="100%" stop-color="#592d27" stop-opacity="1.0000"/>
      </linearGradient>
      <linearGradient xlink:href="#grad2300" id="grad2301" x1="0" y1="0" x2="0" y2="1" gradientTransform="rotate(135 .5 .5)" gradientUnits="objectBoundingBox">
  </linearGradient>
    </defs>
    <path xmlns="http://www.w3.org/2000/svg" d="  M32.0017,20.4682 L23.4202,25.4512 C23.5410,25.3755 23.5935,25.3612 23.5935,24.9810 L23.5290,17.1067 L30.2272,13.4310 L32.0017,20.4682 Z" style="fill-rule: evenodd; fill: url(#grad2301); "/>
    <defs xmlns="http://www.w3.org/2000/svg" xmlns:xlink="http://www.w3.org/1999/xlink">
      <linearGradient id="grad2302">
        <stop offset="0%" stop-color="#6b3b37" stop-opacity="1.0000"/>
        <stop offset="100%" stop-color="#cdaaa2" stop-opacity="1.0000"/>
      </linearGradient>
      <linearGradient xlink:href="#grad2302" id="grad2303" x1="0" y1="0" x2="0" y2="1" gradientTransform="rotate(180 .5 .5)" gradientUnits="objectBoundingBox">
  </linearGradient>
    </defs>
    <path xmlns="http://www.w3.org/2000/svg" d="  M23.6002,25.1820 C23.6002,25.3387 23.4728,25.4670 23.3168,25.4670 L12.3442,18.9757 C12.1875,18.9757 12.0600,18.8490 12.0600,18.6922 L12.0757,10.7467 C12.0757,10.5907 12.2032,10.4625 12.3592,10.4625 L23.3422,16.7707 C23.5215,16.8577 23.6250,17.0347 23.6250,17.1915 L23.6002,25.1820 Z" style="fill-rule: evenodd; fill: url(#grad2303); "/>
    <defs xmlns="http://www.w3.org/2000/svg" xmlns:xlink="http://www.w3.org/1999/xlink">
      <linearGradient id="grad2304">
        <stop offset="0%" stop-color="#a1513f" stop-opacity="1.0000"/>
        <stop offset="100%" stop-color="#c07c62" stop-opacity="1.0000"/>
      </linearGradient>
      <linearGradient xlink:href="#grad2304" id="grad2305" x1="0" y1="0" x2="0" y2="1" gradientTransform="rotate(180 .5 .5)" gradientUnits="objectBoundingBox">
  </linearGradient>
    </defs>
    <path xmlns="http://www.w3.org/2000/svg" d="  M23.1292,24.5205 C23.1292,24.6765 23.0017,24.8040 22.8442,24.8040 L12.6675,18.7920 C12.5107,18.7920 12.3832,18.6645 12.3832,18.5070 L12.3367,11.4652 C12.3367,11.3085 12.4627,11.1802 12.6210,11.1802 L22.8097,17.0085 C23.1090,17.1352 23.0932,17.2950 23.0932,17.4525 L23.1292,24.5205 Z" style="fill-rule: evenodd; fill: url(#grad2305); "/>
    <defs xmlns="http://www.w3.org/2000/svg" xmlns:xlink="http://www.w3.org/1999/xlink">
      <linearGradient id="grad2306">
        <stop offset="0%" stop-color="#995f44" stop-opacity="1.0000"/>
        <stop offset="100%" stop-color="#c1958b" stop-opacity="1.0000"/>
      </linearGradient>
      <linearGradient xlink:href="#grad2306" id="grad2307" x1="0" y1="0" x2="0" y2="1" gradientTransform="rotate(135 .5 .5)" gradientUnits="objectBoundingBox">
  </linearGradient>
    </defs>
    <path xmlns="http://www.w3.org/2000/svg" d="  M23.6310,17.1412 C23.5868,16.9965 23.5530,16.9305 23.3362,16.7850 L12.5183,10.5593 C12.4935,10.5518 12.3128,10.4445 12.0353,10.6163 L18.4410,6.9983 C18.6293,6.9000 19.0973,6.8828 19.3365,6.9983 L29.9505,13.1108 C30.1170,13.2022 30.2258,13.2907 30.2258,13.4460 L23.6310,17.1412 Z" style="fill-rule: evenodd; fill: url(#grad2307); "/>
    <defs xmlns="http://www.w3.org/2000/svg" xmlns:xlink="http://www.w3.org/1999/xlink">
      <linearGradient id="grad2308">
        <stop offset="0%" stop-color="#c88b6c" stop-opacity="1.0000"/>
        <stop offset="100%" stop-color="#e6cbbd" stop-opacity="1.0000"/>
      </linearGradient>
      <linearGradient xlink:href="#grad2308" id="grad2309" x1="0" y1="0" x2="0" y2="1" gradientTransform="rotate(135 .5 .5)" gradientUnits="objectBoundingBox">
  </linearGradient>
    </defs>
    <path xmlns="http://www.w3.org/2000/svg" d="  M23.7195,16.7955 L12.5813,10.3140 L18.4665,7.0012 C18.6562,6.9030 19.1235,6.8857 19.3612,7.0012 L30.1328,13.2210 L23.7195,16.7955 Z" style="fill-rule: evenodd; fill: url(#grad2309); "/>
    <defs xmlns="http://www.w3.org/2000/svg" xmlns:xlink="http://www.w3.org/1999/xlink">
      <linearGradient id="grad2310">
        <stop offset="0%" stop-color="#9e9e9e" stop-opacity="1.0000"/>
        <stop offset="100%" stop-color="#abadac" stop-opacity="1.0000"/>
      </linearGradient>
      <linearGradient xlink:href="#grad2310" id="grad2311" x1="0" y1="0" x2="0" y2="1" gradientTransform="rotate(90 .5 .5)" gradientUnits="objectBoundingBox">
  </linearGradient>
    </defs>
    <path xmlns="http://www.w3.org/2000/svg" d="  M30.2917,13.6433 L23.7877,17.2883 L23.9437,25.2968 L24.1612,25.1985 L24.1545,17.4495 L30.6060,13.7925 L30.2917,13.6433 Z" style="fill-rule: evenodd; fill: url(#grad2311); "/>
    <defs xmlns="http://www.w3.org/2000/svg" xmlns:xlink="http://www.w3.org/1999/xlink">
      <linearGradient id="grad2312">
        <stop offset="0%" stop-color="#6d392e" stop-opacity="1.0000"/>
        <stop offset="100%" stop-color="#592d27" stop-opacity="1.0000"/>
      </linearGradient>
      <linearGradient xlink:href="#grad2312" id="grad2313" x1="0" y1="0" x2="0" y2="1" gradientTransform="rotate(90 .5 .5)" gradientUnits="objectBoundingBox">
  </linearGradient>
    </defs>
    <path xmlns="http://www.w3.org/2000/svg" d="  M42.3825,21.0750 L42.3795,27.0135 C42.3795,27.0135 42.4305,27.7860 42.2093,28.1422 C42.0053,28.4730 41.5883,28.6837 41.5883,28.6837 L35.5208,32.2785 C35.6408,32.2027 35.6925,32.1892 35.6925,31.8097 L35.6280,23.9347 L41.4293,20.7300 C41.4293,20.7300 41.9888,20.3985 42.1605,20.5245 C42.3900,20.6895 42.3825,21.0750 42.3825,21.0750 Z" style="fill-rule: evenodd; fill: url(#grad2313); "/>
    <defs xmlns="http://www.w3.org/2000/svg" xmlns:xlink="http://www.w3.org/1999/xlink">
      <linearGradient id="grad2314">
        <stop offset="0%" stop-color="#6b3b37" stop-opacity="1.0000"/>
        <stop offset="100%" stop-color="#cdaaa2" stop-opacity="1.0000"/>
      </linearGradient>
      <linearGradient xlink:href="#grad2314" id="grad2315" x1="0" y1="0" x2="0" y2="1" gradientTransform="rotate(180 .5 .5)" gradientUnits="objectBoundingBox">
  </linearGradient>
    </defs>
    <path xmlns="http://www.w3.org/2000/svg" d="  M35.7023,32.0100 C35.7023,32.1675 35.5403,32.3775 35.3243,32.2297 L24.4455,25.8045 C24.2873,25.8045 24.1598,25.6762 24.1598,25.5202 L24.1755,17.5755 C24.1755,17.4180 24.3030,17.2905 24.4598,17.2905 L35.4428,23.5980 C35.6213,23.6857 35.7255,23.8627 35.7255,24.0195 L35.7023,32.0100 Z" style="fill-rule: evenodd; fill: url(#grad2315); "/>
    <defs xmlns="http://www.w3.org/2000/svg" xmlns:xlink="http://www.w3.org/1999/xlink">
      <linearGradient id="grad2316">
        <stop offset="0%" stop-color="#8d4231" stop-opacity="1.0000"/>
        <stop offset="100%" stop-color="#b67668" stop-opacity="1.0000"/>
      </linearGradient>
      <linearGradient xlink:href="#grad2316" id="grad2317" x1="0" y1="0" x2="0" y2="1" gradientTransform="rotate(180 .5 .5)" gradientUnits="objectBoundingBox">
  </linearGradient>
    </defs>
    <path xmlns="http://www.w3.org/2000/svg" d="  M35.5440,31.4917 C35.5440,31.6485 35.4165,31.7760 35.2598,31.7760 L24.7673,25.6200 C24.6113,25.6200 24.4838,25.4925 24.4838,25.3350 L24.4365,18.2925 C24.4365,18.1365 24.5640,18.0090 24.7208,18.0090 L35.2245,23.9812 C35.5245,24.1080 35.5088,24.2677 35.5088,24.4237 L35.5440,31.4917 Z" style="fill-rule: evenodd; fill: url(#grad2317); "/>
    <defs xmlns="http://www.w3.org/2000/svg" xmlns:xlink="http://www.w3.org/1999/xlink">
      <linearGradient id="grad2318">
        <stop offset="0%" stop-color="#995f44" stop-opacity="1.0000"/>
        <stop offset="100%" stop-color="#c1958b" stop-opacity="1.0000"/>
      </linearGradient>
      <linearGradient xlink:href="#grad2318" id="grad2319" x1="0" y1="0" x2="0" y2="1" gradientTransform="rotate(135 .5 .5)" gradientUnits="objectBoundingBox">
  </linearGradient>
    </defs>
    <path xmlns="http://www.w3.org/2000/svg" d="  M41.9243,20.5522 C41.5583,20.7292 35.7263,23.9565 35.7263,23.9565 C35.6813,23.8125 35.6543,23.7600 35.4368,23.6137 L24.6180,17.3887 C24.5955,17.3797 24.4148,17.2740 24.1358,17.4457 L30.5408,13.8270 C30.7290,13.7287 31.1970,13.7115 31.4370,13.8270 L41.9055,19.8937 C42.4545,20.2657 42.3713,20.8830 42.3788,21.0120 C42.3795,21.0112 42.2880,20.3730 41.9243,20.5522 Z" style="fill-rule: evenodd; fill: url(#grad2319); "/>
    <defs xmlns="http://www.w3.org/2000/svg" xmlns:xlink="http://www.w3.org/1999/xlink">
      <linearGradient id="grad2320">
        <stop offset="0%" stop-color="#b7826b" stop-opacity="1.0000"/>
        <stop offset="100%" stop-color="#dbbaaa" stop-opacity="1.0000"/>
      </linearGradient>
      <linearGradient xlink:href="#grad2320" id="grad2321" x1="0" y1="0" x2="0" y2="1" gradientTransform="rotate(90 .5 .5)" gradientUnits="objectBoundingBox">
  </linearGradient>
    </defs>
    <path xmlns="http://www.w3.org/2000/svg" d="  M35.7743,23.5957 L24.6848,17.1435 L30.5678,13.8308 C30.7568,13.7310 31.2240,13.7152 31.4633,13.8308 C31.4633,13.8308 41.8388,19.8547 41.9070,19.8937 C41.9738,19.9342 42.1163,20.0775 42.1163,20.0775 L35.7743,23.5957 Z" style="fill-rule: evenodd; fill: url(#grad2321); "/>
    <path xmlns="http://www.w3.org/2000/svg" d="  M24.1597,25.2015 L23.9400,25.2990 L23.7622,17.2432 L24.1312,17.4742 L24.1597,25.2015 Z" style="fill-rule: evenodd; fill: #000000; fill-opacity: 0.4902; "/>
    <defs xmlns="http://www.w3.org/2000/svg" xmlns:xlink="http://www.w3.org/1999/xlink">
      <linearGradient id="grad2322">
        <stop offset="0%" stop-color="#3c1811" stop-opacity="1.0000"/>
        <stop offset="100%" stop-color="#592d27" stop-opacity="1.0000"/>
      </linearGradient>
      <linearGradient xlink:href="#grad2322" id="grad2323" x1="0" y1="0" x2="0" y2="1" gradientTransform="rotate(90 .5 .5)" gradientUnits="objectBoundingBox">
  </linearGradient>
    </defs>
    <path xmlns="http://www.w3.org/2000/svg" d="  M6.3413,24.2535 L5.7922,24.5700 C5.9025,24.4987 5.9527,24.4852 5.9527,24.1252 L5.9437,16.6065 L6.3330,16.4940 L6.3413,24.2535 Z" style="fill-rule: evenodd; fill: url(#grad2323); "/>
    <defs xmlns="http://www.w3.org/2000/svg" xmlns:xlink="http://www.w3.org/1999/xlink">
      <linearGradient id="grad2324">
        <stop offset="0%" stop-color="#73463c" stop-opacity="1.0000"/>
        <stop offset="100%" stop-color="#b59084" stop-opacity="1.0000"/>
      </linearGradient>
      <linearGradient xlink:href="#grad2324" id="grad2325" x1="0" y1="0" x2="0" y2="1" gradientTransform="rotate(135 .5 .5)" gradientUnits="objectBoundingBox">
  </linearGradient>
    </defs>
    <path xmlns="http://www.w3.org/2000/svg" d="  M5.9573,24.3150 C5.9573,24.4642 5.8410,24.5850 5.6917,24.5850 L0.2902,21.2910 C0.1425,21.2910 0.0240,21.1702 0.0240,21.0217 L0.0367,13.4917 C0.0367,13.3432 0.1567,13.2232 0.3022,13.2232 L5.7165,16.3425 C5.8853,16.4250 5.9820,16.5922 5.9820,16.7415 L5.9573,24.3150 Z" style="fill-rule: evenodd; fill: url(#grad2325); "/>
    <defs xmlns="http://www.w3.org/2000/svg" xmlns:xlink="http://www.w3.org/1999/xlink">
      <linearGradient id="grad2326">
        <stop offset="0%" stop-color="#b7644f" stop-opacity="1.0000"/>
        <stop offset="100%" stop-color="#c59389" stop-opacity="1.0000"/>
      </linearGradient>
      <linearGradient xlink:href="#grad2326" id="grad2327" x1="0" y1="0" x2="0" y2="1" gradientTransform="rotate(180 .5 .5)" gradientUnits="objectBoundingBox">
  </linearGradient>
    </defs>
    <path xmlns="http://www.w3.org/2000/svg" d="  M5.5185,23.6872 C5.5185,23.8372 5.4000,23.9565 5.2530,23.9565 L0.5887,21.1177 C0.4425,21.1177 0.3232,20.9962 0.3232,20.8470 L0.2805,14.1735 C0.2805,14.0250 0.3997,13.9042 0.5460,13.9042 L5.2185,16.5705 C5.5013,16.6905 5.4848,16.8420 5.4848,16.9905 L5.5185,23.6872 Z" style="fill-rule: evenodd; fill: url(#grad2327); "/>
    <defs xmlns="http://www.w3.org/2000/svg" xmlns:xlink="http://www.w3.org/1999/xlink">
      <linearGradient id="grad2328">
        <stop offset="0%" stop-color="#995f44" stop-opacity="1.0000"/>
        <stop offset="100%" stop-color="#c1958b" stop-opacity="1.0000"/>
      </linearGradient>
      <linearGradient xlink:href="#grad2328" id="grad2329" x1="0" y1="0" x2="0" y2="1" gradientTransform="rotate(135 .5 .5)" gradientUnits="objectBoundingBox">
  </linearGradient>
    </defs>
    <path xmlns="http://www.w3.org/2000/svg" d="  M6.0578,16.2660 C6.3533,16.4242 6.3375,16.5247 6.3375,16.5247 L5.9760,16.6537 C5.9220,16.5240 5.9153,16.4947 5.7105,16.3567 L0.4507,13.3147 C0.4290,13.3072 0.2587,13.2060 0.0000,13.3695 L0.5407,13.0627 C0.5415,13.0627 5.7840,16.1197 6.0578,16.2660 Z" style="fill-rule: evenodd; fill: url(#grad2329); "/>
    <defs xmlns="http://www.w3.org/2000/svg" xmlns:xlink="http://www.w3.org/1999/xlink">
      <linearGradient id="grad2330">
        <stop offset="0%" stop-color="#3c1811" stop-opacity="1.0000"/>
        <stop offset="100%" stop-color="#592d27" stop-opacity="1.0000"/>
      </linearGradient>
      <linearGradient xlink:href="#grad2330" id="grad2331" x1="0" y1="0" x2="0" y2="1" gradientTransform="rotate(90 .5 .5)" gradientUnits="objectBoundingBox">
  </linearGradient>
    </defs>
    <path xmlns="http://www.w3.org/2000/svg" d="  M29.3602,37.6192 L28.8165,37.9350 C28.9312,37.8615 28.9822,37.8487 28.9822,37.4880 L28.9732,30.0818 L29.4247,29.8328 L29.3602,37.6192 Z" style="fill-rule: evenodd; fill: url(#grad2331); "/>
    <defs xmlns="http://www.w3.org/2000/svg" xmlns:xlink="http://www.w3.org/1999/xlink">
      <linearGradient id="grad2332">
        <stop offset="0%" stop-color="#73463c" stop-opacity="1.0000"/>
        <stop offset="100%" stop-color="#b59084" stop-opacity="1.0000"/>
      </linearGradient>
      <linearGradient xlink:href="#grad2332" id="grad2333" x1="0" y1="0" x2="0" y2="1" gradientTransform="rotate(135 .5 .5)" gradientUnits="objectBoundingBox">
  </linearGradient>
    </defs>
    <path xmlns="http://www.w3.org/2000/svg" d="  M28.9875,37.6800 C28.9875,37.8285 28.8675,37.9493 28.7175,37.9493 L18.3232,31.7985 C18.1740,31.7985 18.0525,31.6778 18.0525,31.5293 L18.0682,24.0030 C18.0682,23.8538 18.1882,23.7338 18.3360,23.7338 L28.7430,29.7098 C28.9912,29.8313 29.0100,30.0405 29.0100,30.1088 Z" style="fill-rule: evenodd; fill: url(#grad2333); "/>
    <defs xmlns="http://www.w3.org/2000/svg" xmlns:xlink="http://www.w3.org/1999/xlink">
      <linearGradient id="grad2334">
        <stop offset="0%" stop-color="#8d4134" stop-opacity="1.0000"/>
        <stop offset="100%" stop-color="#ad5d46" stop-opacity="1.0000"/>
      </linearGradient>
      <linearGradient xlink:href="#grad2334" id="grad2335" x1="0" y1="0" x2="0" y2="1" gradientTransform="rotate(180 .5 .5)" gradientUnits="objectBoundingBox">
  </linearGradient>
    </defs>
    <path xmlns="http://www.w3.org/2000/svg" d="  M28.5405,37.0515 C28.5405,37.2000 28.4190,37.3208 28.2720,37.3208 L18.6292,31.6245 C18.4778,31.6245 18.3592,31.5045 18.3592,31.3560 L18.3165,24.6840 C18.3165,24.5348 18.4350,24.4148 18.5850,24.4148 L28.2375,29.9363 C28.5217,30.0563 28.5060,30.2078 28.5060,30.3570 L28.5405,37.0515 Z" style="fill-rule: evenodd; fill: url(#grad2335); "/>
    <defs xmlns="http://www.w3.org/2000/svg" xmlns:xlink="http://www.w3.org/1999/xlink">
      <linearGradient id="grad2336">
        <stop offset="0%" stop-color="#995f44" stop-opacity="1.0000"/>
        <stop offset="100%" stop-color="#c1958b" stop-opacity="1.0000"/>
      </linearGradient>
      <linearGradient xlink:href="#grad2336" id="grad2337" x1="0" y1="0" x2="0" y2="1" gradientTransform="rotate(135 .5 .5)" gradientUnits="objectBoundingBox">
  </linearGradient>
    </defs>
    <path xmlns="http://www.w3.org/2000/svg" d="  M29.2035,29.5785 C29.4570,29.7495 29.4262,29.8335 29.4262,29.8335 L29.0047,30.0713 C28.9822,29.9250 28.9417,29.8613 28.7377,29.7233 L18.4875,23.8245 C18.4635,23.8163 18.2940,23.7150 18.0307,23.8785 L18.6240,23.5463 C18.6232,23.5470 28.7430,29.2673 29.2035,29.5785 Z" style="fill-rule: evenodd; fill: url(#grad2337); "/>
    <defs xmlns="http://www.w3.org/2000/svg" xmlns:xlink="http://www.w3.org/1999/xlink">
      <linearGradient id="grad2338">
        <stop offset="0%" stop-color="#3c1811" stop-opacity="1.0000"/>
        <stop offset="100%" stop-color="#592d27" stop-opacity="1.0000"/>
      </linearGradient>
      <linearGradient xlink:href="#grad2338" id="grad2339" x1="0" y1="0" x2="0" y2="1" gradientTransform="rotate(90 .5 .5)" gradientUnits="objectBoundingBox">
  </linearGradient>
    </defs>
    <path xmlns="http://www.w3.org/2000/svg" d="  M36.0592,41.4405 L35.5035,41.7600 C35.6152,41.6880 35.6662,41.6745 35.6662,41.3100 L35.6572,33.7013 L36.0502,33.5873 L36.0592,41.4405 Z" style="fill-rule: evenodd; fill: url(#grad2339); "/>
    <defs xmlns="http://www.w3.org/2000/svg" xmlns:xlink="http://www.w3.org/1999/xlink">
      <linearGradient id="grad2340">
        <stop offset="0%" stop-color="#73463c" stop-opacity="1.0000"/>
        <stop offset="100%" stop-color="#b59084" stop-opacity="1.0000"/>
      </linearGradient>
      <linearGradient xlink:href="#grad2340" id="grad2341" x1="0" y1="0" x2="0" y2="1" gradientTransform="rotate(135 .5 .5)" gradientUnits="objectBoundingBox">
  </linearGradient>
    </defs>
    <path xmlns="http://www.w3.org/2000/svg" d="  M35.6715,41.5020 C35.6715,41.6528 35.5530,41.7750 35.4030,41.7750 L29.9370,38.4420 C29.7885,38.4420 29.6685,38.3205 29.6685,38.1705 L29.6827,30.5520 C29.6827,30.4020 29.8027,30.2798 29.9505,30.2798 L35.4292,33.4358 C35.5980,33.5190 35.6962,33.6893 35.6962,33.8393 L35.6715,41.5020 Z" style="fill-rule: evenodd; fill: url(#grad2341); "/>
    <defs xmlns="http://www.w3.org/2000/svg" xmlns:xlink="http://www.w3.org/1999/xlink">
      <linearGradient id="grad2342">
        <stop offset="0%" stop-color="#702b20" stop-opacity="1.0000"/>
        <stop offset="100%" stop-color="#9c5948" stop-opacity="1.0000"/>
      </linearGradient>
      <linearGradient xlink:href="#grad2342" id="grad2343" x1="0" y1="0" x2="0" y2="1" gradientTransform="rotate(180 .5 .5)" gradientUnits="objectBoundingBox">
  </linearGradient>
    </defs>
    <path xmlns="http://www.w3.org/2000/svg" d="  M35.5477,41.0595 C35.5477,41.2103 35.4285,41.3318 35.2792,41.3318 L30.2407,38.2658 C30.0930,38.2658 29.9722,38.1443 29.9722,37.9943 L29.9280,31.2413 C29.9280,31.0905 30.0480,30.9683 30.1965,30.9683 L35.2462,33.8588 C35.5297,33.9788 35.5147,34.1333 35.5147,34.2833 L35.5477,41.0595 Z" style="fill-rule: evenodd; fill: url(#grad2343); "/>
    <defs xmlns="http://www.w3.org/2000/svg" xmlns:xlink="http://www.w3.org/1999/xlink">
      <linearGradient id="grad2344">
        <stop offset="0%" stop-color="#995f44" stop-opacity="1.0000"/>
        <stop offset="100%" stop-color="#c1958b" stop-opacity="1.0000"/>
      </linearGradient>
      <linearGradient xlink:href="#grad2344" id="grad2345" x1="0" y1="0" x2="0" y2="1" gradientTransform="rotate(135 .5 .5)" gradientUnits="objectBoundingBox">
  </linearGradient>
    </defs>
    <path xmlns="http://www.w3.org/2000/svg" d="  M35.7742,33.3578 C36.0727,33.5183 36.0547,33.6203 36.0547,33.6203 L35.6910,33.7515 C35.6370,33.6180 35.6280,33.5903 35.4240,33.4500 L30.1020,30.3728 C30.0780,30.3653 29.9077,30.2633 29.6445,30.4283 L30.1920,30.1170 C30.1912,30.1163 35.4960,33.2108 35.7742,33.3578 Z" style="fill-rule: evenodd; fill: url(#grad2345); "/>
    <defs xmlns="http://www.w3.org/2000/svg" xmlns:xlink="http://www.w3.org/1999/xlink">
      <linearGradient id="grad2346">
        <stop offset="0%" stop-color="#3c1811" stop-opacity="1.0000"/>
        <stop offset="100%" stop-color="#592d27" stop-opacity="1.0000"/>
      </linearGradient>
      <linearGradient xlink:href="#grad2346" id="grad2347" x1="0" y1="0" x2="0" y2="1" gradientTransform="rotate(90 .5 .5)" gradientUnits="objectBoundingBox">
  </linearGradient>
    </defs>
    <path xmlns="http://www.w3.org/2000/svg" d="  M23.9370,43.6777 C23.9370,43.6777 23.9587,44.0850 23.8230,44.1757 C23.3595,44.4870 23.2890,44.4840 23.2890,44.4840 C23.4082,44.4082 23.3902,44.4855 23.3902,44.1075 L23.4015,36.2483 L23.9347,35.9610 L23.9370,43.6777 Z" style="fill-rule: evenodd; fill: url(#grad2347); "/>
    <defs xmlns="http://www.w3.org/2000/svg" xmlns:xlink="http://www.w3.org/1999/xlink">
      <linearGradient id="grad2348">
        <stop offset="0%" stop-color="#73463c" stop-opacity="1.0000"/>
        <stop offset="100%" stop-color="#b59084" stop-opacity="1.0000"/>
      </linearGradient>
      <linearGradient xlink:href="#grad2348" id="grad2349" x1="0" y1="0" x2="0" y2="1" gradientTransform="rotate(135 .5 .5)" gradientUnits="objectBoundingBox">
  </linearGradient>
    </defs>
    <path xmlns="http://www.w3.org/2000/svg" d="  M23.4682,44.2170 C23.4682,44.3730 23.3415,44.4998 23.1855,44.4998 L12.2902,38.0528 C12.1417,37.9193 11.9970,37.7295 11.9970,37.5728 L12.0202,29.8800 C12.0202,29.7240 12.1462,29.5980 12.3022,29.5980 L23.2102,35.8628 C23.3895,35.9490 23.4930,36.1253 23.4930,36.2805 L23.4682,44.2170 Z" style="fill-rule: evenodd; fill: url(#grad2349); "/>
    <defs xmlns="http://www.w3.org/2000/svg" xmlns:xlink="http://www.w3.org/1999/xlink">
      <linearGradient id="grad2350">
        <stop offset="0%" stop-color="#83382b" stop-opacity="1.0000"/>
        <stop offset="100%" stop-color="#b46c57" stop-opacity="1.0000"/>
      </linearGradient>
      <linearGradient xlink:href="#grad2350" id="grad2351" x1="0" y1="0" x2="0" y2="1" gradientTransform="rotate(180 .5 .5)" gradientUnits="objectBoundingBox">
  </linearGradient>
    </defs>
    <path xmlns="http://www.w3.org/2000/svg" d="  M22.9995,43.5600 C22.9995,43.7153 22.8615,43.8600 22.6192,43.7595 L12.6090,37.8705 C12.4522,37.8705 12.3435,37.5675 12.3435,37.4115 L12.3877,30.6135 C12.3877,30.4575 12.5130,30.3300 12.6683,30.3300 L22.6822,36.1013 C22.9815,36.2258 23.0070,36.4823 23.0070,36.6375 L22.9995,43.5600 Z" style="fill-rule: evenodd; fill: url(#grad2351); "/>
    <defs xmlns="http://www.w3.org/2000/svg" xmlns:xlink="http://www.w3.org/1999/xlink">
      <linearGradient id="grad2352">
        <stop offset="0%" stop-color="#995f44" stop-opacity="1.0000"/>
        <stop offset="100%" stop-color="#b58576" stop-opacity="1.0000"/>
      </linearGradient>
      <linearGradient xlink:href="#grad2352" id="grad2353" x1="0" y1="0" x2="0" y2="1" gradientTransform="rotate(135 .5 .5)" gradientUnits="objectBoundingBox">
  </linearGradient>
    </defs>
    <path xmlns="http://www.w3.org/2000/svg" d="  M23.6017,35.6160 C23.9580,35.8620 23.9317,35.9723 23.9317,35.9723 L23.4982,36.2318 C23.4540,36.0885 23.4202,36.0225 23.2050,35.8770 L12.4627,29.6948 C12.4372,29.6865 12.2587,29.5800 11.9812,29.7518 L12.6532,29.3873 C12.6532,29.3873 23.2500,35.3708 23.6017,35.6160 Z" style="fill-rule: evenodd; fill: url(#grad2353); "/>
    <defs xmlns="http://www.w3.org/2000/svg" xmlns:xlink="http://www.w3.org/1999/xlink">
      <linearGradient id="grad2354">
        <stop offset="0%" stop-color="#3c1811" stop-opacity="1.0000"/>
        <stop offset="100%" stop-color="#592d27" stop-opacity="1.0000"/>
      </linearGradient>
      <linearGradient xlink:href="#grad2354" id="grad2355" x1="0" y1="0" x2="0" y2="1" gradientTransform="rotate(90 .5 .5)" gradientUnits="objectBoundingBox">
  </linearGradient>
    </defs>
    <path xmlns="http://www.w3.org/2000/svg" d="  M11.9640,36.6337 C11.9640,36.6337 11.9880,37.0417 11.8522,37.1325 C11.3872,37.4430 11.3190,37.4407 11.3190,37.4407 C11.4360,37.3642 11.4172,37.4422 11.4172,37.0642 L11.4292,29.2057 L11.9617,28.9185 L11.9640,36.6337 Z" style="fill-rule: evenodd; fill: url(#grad2355); "/>
    <defs xmlns="http://www.w3.org/2000/svg" xmlns:xlink="http://www.w3.org/1999/xlink">
      <linearGradient id="grad2356">
        <stop offset="0%" stop-color="#73463c" stop-opacity="1.0000"/>
        <stop offset="100%" stop-color="#b59084" stop-opacity="1.0000"/>
      </linearGradient>
      <linearGradient xlink:href="#grad2356" id="grad2357" x1="0" y1="0" x2="0" y2="1" gradientTransform="rotate(135 .5 .5)" gradientUnits="objectBoundingBox">
  </linearGradient>
    </defs>
    <path xmlns="http://www.w3.org/2000/svg" d="  M11.4952,37.1737 C11.4952,37.3297 11.3692,37.4565 11.2125,37.4565 L0.3172,31.0095 C0.1672,30.8760 0.0262,30.6862 0.0262,30.5302 L0.0480,22.8368 C0.0480,22.6807 0.1755,22.5547 0.3300,22.5547 L11.2380,28.8195 C11.4165,28.9057 11.5192,29.0820 11.5192,29.2372 L11.4952,37.1737 Z" style="fill-rule: evenodd; fill: url(#grad2357); "/>
    <defs xmlns="http://www.w3.org/2000/svg" xmlns:xlink="http://www.w3.org/1999/xlink">
      <linearGradient id="grad2358">
        <stop offset="0%" stop-color="#a95644" stop-opacity="1.0000"/>
        <stop offset="100%" stop-color="#c1806e" stop-opacity="1.0000"/>
      </linearGradient>
      <linearGradient xlink:href="#grad2358" id="grad2359" x1="0" y1="0" x2="0" y2="1" gradientTransform="rotate(180 .5 .5)" gradientUnits="objectBoundingBox">
  </linearGradient>
    </defs>
    <path xmlns="http://www.w3.org/2000/svg" d="  M11.0272,36.5167 C11.0272,36.6720 10.8915,36.8167 10.6470,36.7162 L0.6367,30.8280 C0.4815,30.8280 0.3712,30.5235 0.3712,30.3683 L0.4155,23.5703 C0.4155,23.4142 0.5407,23.2875 0.6975,23.2875 L10.7100,29.0587 C11.0077,29.1840 11.0325,29.4397 11.0325,29.5957 L11.0272,36.5167 Z" style="fill-rule: evenodd; fill: url(#grad2359); "/>
    <defs xmlns="http://www.w3.org/2000/svg" xmlns:xlink="http://www.w3.org/1999/xlink">
      <linearGradient id="grad2360">
        <stop offset="0%" stop-color="#995f44" stop-opacity="1.0000"/>
        <stop offset="100%" stop-color="#c1958b" stop-opacity="1.0000"/>
      </linearGradient>
      <linearGradient xlink:href="#grad2360" id="grad2361" x1="0" y1="0" x2="0" y2="1" gradientTransform="rotate(135 .5 .5)" gradientUnits="objectBoundingBox">
  </linearGradient>
    </defs>
    <path xmlns="http://www.w3.org/2000/svg" d="  M11.6310,28.5720 C11.9857,28.8180 11.9610,28.9290 11.9610,28.9290 L11.5260,29.1877 C11.4810,29.0445 11.4480,28.9785 11.2327,28.8337 L0.4905,22.6508 C0.4650,22.6433 0.2865,22.5368 0.0090,22.7085 L0.6810,22.3433 C0.6817,22.3433 11.2777,28.3275 11.6310,28.5720 Z" style="fill-rule: evenodd; fill: url(#grad2361); "/>
    <defs xmlns="http://www.w3.org/2000/svg" xmlns:xlink="http://www.w3.org/1999/xlink">
      <linearGradient id="grad2362">
        <stop offset="0%" stop-color="#3c1811" stop-opacity="1.0000"/>
        <stop offset="100%" stop-color="#592d27" stop-opacity="1.0000"/>
      </linearGradient>
      <linearGradient xlink:href="#grad2362" id="grad2363" x1="0" y1="0" x2="0" y2="1" gradientTransform="rotate(90 .5 .5)" gradientUnits="objectBoundingBox">
  </linearGradient>
    </defs>
    <path xmlns="http://www.w3.org/2000/svg" d="  M36.0832,50.6880 C36.0832,50.6880 36.1050,51.0960 35.9715,51.1867 C35.5058,51.4972 35.4375,51.4942 35.4375,51.4942 C35.5560,51.4185 35.5358,51.4965 35.5358,51.1185 L35.5485,43.2593 L36.0802,42.9720 L36.0832,50.6880 Z" style="fill-rule: evenodd; fill: url(#grad2363); "/>
    <defs xmlns="http://www.w3.org/2000/svg" xmlns:xlink="http://www.w3.org/1999/xlink">
      <linearGradient id="grad2364">
        <stop offset="0%" stop-color="#73463c" stop-opacity="1.0000"/>
        <stop offset="100%" stop-color="#b59084" stop-opacity="1.0000"/>
      </linearGradient>
      <linearGradient xlink:href="#grad2364" id="grad2365" x1="0" y1="0" x2="0" y2="1" gradientTransform="rotate(135 .5 .5)" gradientUnits="objectBoundingBox">
  </linearGradient>
    </defs>
    <path xmlns="http://www.w3.org/2000/svg" d="  M35.6137,51.2272 C35.6137,51.3832 35.4885,51.5100 35.3317,51.5100 L24.4358,45.0622 C24.2880,44.9295 24.1455,44.7382 24.1455,44.5830 L24.1688,36.8895 C24.1688,36.7335 24.2925,36.6075 24.4493,36.6075 L35.3573,42.8723 C35.5350,42.9585 35.6378,43.1348 35.6378,43.2900 L35.6137,51.2272 Z" style="fill-rule: evenodd; fill: url(#grad2365); "/>
    <defs xmlns="http://www.w3.org/2000/svg" xmlns:xlink="http://www.w3.org/1999/xlink">
      <linearGradient id="grad2366">
        <stop offset="0%" stop-color="#571e15" stop-opacity="1.0000"/>
        <stop offset="100%" stop-color="#9b584b" stop-opacity="1.0000"/>
      </linearGradient>
      <linearGradient xlink:href="#grad2366" id="grad2367" x1="0" y1="0" x2="0" y2="1" gradientTransform="rotate(180 .5 .5)" gradientUnits="objectBoundingBox">
  </linearGradient>
    </defs>
    <path xmlns="http://www.w3.org/2000/svg" d="  M35.4180,50.5702 C35.4180,50.7247 35.2785,50.8702 35.0287,50.7690 L24.7620,44.8807 C24.6023,44.8807 24.4898,44.5770 24.4898,44.4210 L24.5348,37.6230 C24.5348,37.4670 24.6638,37.3403 24.8235,37.3403 L35.0940,43.1115 C35.3992,43.2360 35.4233,43.4925 35.4233,43.6478 L35.4180,50.5702 Z" style="fill-rule: evenodd; fill: url(#grad2367); "/>
    <path xmlns="http://www.w3.org/2000/svg" d="  M35.7495,42.6262 C36.1035,42.8715 36.0788,42.9832 36.0788,42.9832 L35.6437,43.2412 C35.5988,43.0995 35.5658,43.0327 35.3513,42.8880 L24.6083,36.7050 C24.5828,36.6975 24.4050,36.5910 24.1268,36.7628 L24.7988,36.3975 C24.7995,36.3968 35.3962,42.3810 35.7495,42.6262 Z" style="fill-rule: evenodd; fill: #8a5f54; "/>
    <defs xmlns="http://www.w3.org/2000/svg" xmlns:xlink="http://www.w3.org/1999/xlink">
      <linearGradient id="grad2368">
        <stop offset="0%" stop-color="#69362a" stop-opacity="1.0000"/>
        <stop offset="100%" stop-color="#542a22" stop-opacity="1.0000"/>
      </linearGradient>
      <linearGradient xlink:href="#grad2368" id="grad2369" x1="0" y1="0" x2="0" y2="1" gradientTransform="rotate(90 .5 .5)" gradientUnits="objectBoundingBox">
  </linearGradient>
    </defs>
    <path xmlns="http://www.w3.org/2000/svg" d="  M42.3435,30.8063 L42.3405,36.5452 C42.3405,36.5452 42.3893,37.2922 42.1763,37.6372 C41.9775,37.9567 41.6190,38.0925 41.6190,38.0925 L35.7945,41.5785 C35.9108,41.5050 35.9640,41.4922 35.9640,41.1247 L36.0285,33.6495 L41.5380,30.4320 C41.5380,30.4320 41.8995,30.1425 42.1755,30.2678 C42.4103,30.3750 42.3435,30.8063 42.3435,30.8063 Z" style="fill-rule: evenodd; fill: url(#grad2369); "/>
    <path xmlns="http://www.w3.org/2000/svg" d="  M41.7390,39.6270 L36.0345,42.9990 C35.9663,42.7808 35.9948,42.7778 35.7945,42.6428 L41.3370,39.3165 C41.5778,39.2175 42.1965,39.3975 42.1673,39.8543 L41.7390,39.6270 Z" style="fill-rule: evenodd; fill: #6d3e34; "/>
    <defs xmlns="http://www.w3.org/2000/svg" xmlns:xlink="http://www.w3.org/1999/xlink">
      <linearGradient id="grad2370">
        <stop offset="0%" stop-color="#662f22" stop-opacity="1.0000"/>
        <stop offset="100%" stop-color="#2f100b" stop-opacity="1.0000"/>
      </linearGradient>
      <linearGradient xlink:href="#grad2370" id="grad2371" x1="0" y1="0" x2="0" y2="1" gradientTransform="rotate(45 .5 .5)" gradientUnits="objectBoundingBox">
  </linearGradient>
    </defs>
    <path xmlns="http://www.w3.org/2000/svg" d="  M42.1905,40.1700 L42.1868,45.9075 C42.1868,45.9075 42.2363,46.6545 42.0188,46.9987 C41.8178,47.3182 41.4090,47.5222 41.4090,47.5222 L35.9010,51.2820 C36.0195,51.2085 36.0180,50.9805 36.0180,50.6137 L35.9858,43.0462 L41.2515,39.8347 C41.2515,39.8347 41.7375,39.5055 42.0173,39.6307 C42.2573,39.7380 42.1905,40.1700 42.1905,40.1700 Z" style="fill-rule: evenodd; fill: url(#grad2371); "/>
    <defs xmlns="http://www.w3.org/2000/svg" xmlns:xlink="http://www.w3.org/1999/xlink">
      <linearGradient id="grad2372">
        <stop offset="0%" stop-color="#4d1e15" stop-opacity="1.0000"/>
        <stop offset="100%" stop-color="#2a100b" stop-opacity="1.0000"/>
      </linearGradient>
      <linearGradient xlink:href="#grad2372" id="grad2373" x1="0" y1="0" x2="0" y2="1" gradientTransform="rotate(45 .5 .5)" gradientUnits="objectBoundingBox">
  </linearGradient>
    </defs>
    <path xmlns="http://www.w3.org/2000/svg" d="  M42.1057,49.4970 L42.1020,55.2360 C42.1020,55.2360 42.1515,55.9822 41.9370,56.3272 C41.7367,56.6475 41.3317,56.8515 41.3317,56.8515 L35.6370,60.6150 C35.7540,60.5415 35.7900,60.3592 35.7900,59.9925 L35.7712,52.6260 L41.1172,49.1392 C41.1172,49.1392 41.6602,48.8347 41.9355,48.9600 C42.1740,49.0665 42.1057,49.4970 42.1057,49.4970 Z" style="fill-rule: evenodd; fill: url(#grad2373); "/>
    <defs xmlns="http://www.w3.org/2000/svg" xmlns:xlink="http://www.w3.org/1999/xlink">
      <linearGradient id="grad2374">
        <stop offset="0%" stop-color="#9e9e9e" stop-opacity="1.0000"/>
        <stop offset="100%" stop-color="#abadac" stop-opacity="1.0000"/>
      </linearGradient>
      <linearGradient xlink:href="#grad2374" id="grad2375" x1="0" y1="0" x2="0" y2="1" gradientTransform="rotate(90 .5 .5)" gradientUnits="objectBoundingBox">
  </linearGradient>
    </defs>
    <path xmlns="http://www.w3.org/2000/svg" d="  M18.1950,6.7868 L11.6910,10.4325 L11.8470,18.4410 L12.0653,18.3428 L12.0578,10.5938 L18.5078,6.9368 L18.1950,6.7868 Z" style="fill-rule: evenodd; fill: url(#grad2375); "/>
    <path xmlns="http://www.w3.org/2000/svg" d="  M12.0637,18.3465 L11.8440,18.4425 L11.6655,10.3882 L12.0345,10.6185 L12.0637,18.3465 Z" style="fill-rule: evenodd; fill: #000000; fill-opacity: 0.4902; "/>
    <!--converted by libvisio2svg-->
  </g>
</svg>
