<svg xmlns="http://www.w3.org/2000/svg" xmlns:xlink="http://www.w3.org/1999/xlink" version="1.1" width="0.7498000000" height="0.8854000000" viewBox="0 0 53.9820 63.7500">
  <title><![CDATA[Group Chat Channel Server]]></title>
  <g transform=" scale(1.000000) ">
    <path xmlns="http://www.w3.org/2000/svg" d="  M37.0755,10.8360 L25.4213,3.8318 L0.0000,18.4448 L0.0000,55.0373 L0.5632,55.3673 C2.0737,57.2985 5.2050,59.1420 8.6595,60.1223 L13.1633,62.7653 L37.0748,49.0313 L37.0748,46.3283 L37.0740,46.2945 L36.5543,46.0478 L37.0748,45.7492 L37.0748,43.5510 L37.0740,43.5165 L36.5543,43.2705 L37.0748,42.9720 L37.0748,40.7738 L37.0740,40.7400 L36.5903,40.5098 L37.0748,40.2338 L37.0748,10.8705 L37.0748,10.8360 L37.0755,10.8360 Z" style="stroke-width: 1.8750; stroke: #8d98b5; stroke-dasharray: none; stroke-linecap: butt; stroke-linejoin: miter; fill: none; "/>
    <path xmlns="http://www.w3.org/2000/svg" d="  M52.8953,56.1758 L48.9210,48.6630 L44.8928,41.1135 L43.6267,41.9243 C43.6133,41.9228 43.6005,41.9168 43.5863,41.9205 C43.5360,41.9340 43.4993,41.9798 43.4993,42.0330 L43.4993,45.0255 L27.3990,35.7735 L27.3990,30.8400 L25.5735,31.3095 C25.5382,31.2945 25.4963,31.2975 25.4655,31.3208 L21.3015,34.3170 L17.1383,37.3140 C17.0910,37.3470 17.0768,37.4108 17.1045,37.4618 L21.2670,45.2648 L25.4302,53.0693 C25.4557,53.1165 25.5090,53.1398 25.5608,53.1270 C25.5968,53.1173 25.6207,53.0903 25.6343,53.0573 L27.3990,51.7373 L27.4147,49.3193 L30.0263,50.8268 L34.5780,53.4555 C34.5877,53.4608 34.5983,53.4653 34.6087,53.4683 L39.0667,56.0430 L43.4977,58.6013 L43.4977,61.0838 L43.4985,63.6338 C43.4985,63.6773 43.5225,63.7170 43.5622,63.7373 C43.5780,63.7455 43.5960,63.7500 43.6140,63.7500 C43.6388,63.7500 43.6620,63.7425 43.6815,63.7283 L47.8462,60.7313 L52.0087,57.7343 C52.0253,57.7230 52.8652,56.2635 52.8720,56.2478 L52.8953,56.1758 Z" style="stroke-width: 1.8750; stroke: #8d98b5; stroke-dasharray: none; stroke-linecap: butt; stroke-linejoin: miter; fill: none; "/>
    <path xmlns="http://www.w3.org/2000/svg" d="  M46.5127,12.7635 C46.5127,5.7150 38.9730,0.0000 29.6730,0.0000 C20.3730,0.0000 12.8333,5.7150 12.8333,12.7635 C12.8333,19.3058 19.3283,24.6945 27.6968,25.4363 L27.6968,28.5488 C27.6968,28.8428 27.9322,29.0805 28.2270,29.0805 C28.3672,29.0805 28.4940,29.0265 28.5878,28.9380 L31.9747,25.4048 C40.1857,24.5535 46.5127,19.2203 46.5127,12.7635 Z" style="stroke-width: 1.8750; stroke: #8d98b5; stroke-dasharray: none; stroke-linecap: butt; stroke-linejoin: miter; fill: none; "/>
    <path xmlns="http://www.w3.org/2000/svg" d="  M53.9820,16.1280 C53.9820,10.8420 48.3278,6.5550 41.3513,6.5550 C34.3763,6.5550 28.7213,10.8420 28.7213,16.1280 C28.7213,21.0345 33.5925,25.0763 39.8700,25.6320 L39.8700,27.9668 C39.8700,28.1873 40.0463,28.3658 40.2668,28.3658 C40.3725,28.3658 40.4678,28.3253 40.5383,28.2593 L43.0778,25.6080 C49.2360,24.9698 53.9820,20.9700 53.9820,16.1280 Z" style="stroke-width: 1.8750; stroke: #8d98b5; stroke-dasharray: none; stroke-linecap: butt; stroke-linejoin: miter; fill: none; "/>
    <path xmlns="http://www.w3.org/2000/svg" d="  M22.5323,49.1295 L37.0748,40.7408 L36.5910,40.5105 L22.5323,48.5378 L22.5323,49.1295 Z" style="fill-rule: evenodd; fill: #3f3f3f; "/>
    <path xmlns="http://www.w3.org/2000/svg" d="  M22.5323,51.9067 L37.0748,43.5173 L36.5543,43.2713 L22.5323,51.3157 L22.5323,51.9067 Z" style="fill-rule: evenodd; fill: #3f3f3f; "/>
    <path xmlns="http://www.w3.org/2000/svg" d="  M22.5323,54.6840 L37.0748,46.2952 L36.5543,46.0485 L22.5323,54.0930 L22.5323,54.6840 Z" style="fill-rule: evenodd; fill: #3f3f3f; "/>
    <defs xmlns="http://www.w3.org/2000/svg" xmlns:xlink="http://www.w3.org/1999/xlink">
      <linearGradient id="grad3105">
        <stop offset="0%" stop-color="#646c6b" stop-opacity="1.0000"/>
        <stop offset="100%" stop-color="#dae1e1" stop-opacity="1.0000"/>
      </linearGradient>
      <linearGradient xlink:href="#grad3105" id="grad3106" x1="0" y1="0" x2="0" y2="1" gradientTransform="rotate(90 .5 .5)" gradientUnits="objectBoundingBox">
  </linearGradient>
    </defs>
    <path xmlns="http://www.w3.org/2000/svg" d="  M13.1633,24.8445 L0.0000,18.4432 L0.0000,55.0357 L0.5633,55.3657 C0.4418,55.2112 0.3285,55.0537 0.2288,54.8977 L0.2288,38.9782 L0.2288,35.4285 L0.2288,27.8302 L0.2288,20.1705 L12.1283,26.0527 C12.1283,26.0527 12.1733,26.0580 12.1965,26.0602 L12.1965,33.7732 L12.1965,41.3182 L12.1965,45.0907 L12.1965,60.7897 C11.0130,60.6825 9.8183,60.4507 8.6595,60.1230 L13.1633,62.7660 L13.1633,24.8445 Z" style="fill-rule: evenodd; fill: url(#grad3106); "/>
    <defs xmlns="http://www.w3.org/2000/svg" xmlns:xlink="http://www.w3.org/1999/xlink">
      <linearGradient id="grad3107">
        <stop offset="0%" stop-color="#85919c" stop-opacity="0.9882"/>
        <stop offset="100%" stop-color="#dadfe1" stop-opacity="0.9882"/>
      </linearGradient>
      <linearGradient xlink:href="#grad3107" id="grad3108" x1="0" y1="0" x2="0" y2="1" gradientTransform="rotate(90 .5 .5)" gradientUnits="objectBoundingBox">
  </linearGradient>
    </defs>
    <path xmlns="http://www.w3.org/2000/svg" d="  M11.6940,45.0847 C11.6940,45.1432 11.6243,45.1935 11.5335,45.1935 C11.5260,45.1935 11.5088,45.1935 11.5088,45.1935 C7.9575,45.2460 3.3240,43.6312 0.7065,39.6270 C0.5273,39.4110 0.3660,39.1942 0.2288,38.9797 L0.2288,54.9000 C0.3285,55.0560 0.4410,55.2127 0.5633,55.3680 C2.0738,57.2992 5.2050,59.1420 8.6595,60.1230 C9.8183,60.4515 11.0138,60.6840 12.1973,60.7897 L12.1973,45.0915 C12.0233,45.0757 11.8508,45.0562 11.6760,45.0360 C11.6865,45.0502 11.6940,45.0667 11.6940,45.0847 Z M11.3385,58.8112 C11.1465,59.4217 10.1385,59.6460 9.0900,59.3145 C8.0408,58.9822 7.3463,58.2180 7.5398,57.6090 C7.7333,56.9992 8.7405,56.7742 9.7898,57.1065 C10.8383,57.4380 11.5320,58.2030 11.3385,58.8112 Z M11.5335,56.3707 C11.5260,56.3707 11.5088,56.3707 11.5088,56.3707 C7.8240,56.4262 2.9768,54.6885 0.4208,50.3490 C0.2363,50.0437 0.4560,50.0715 0.4560,50.0715 C2.0745,52.8075 6.8438,55.6800 11.4450,56.1427 C11.4653,56.1450 11.5320,56.1502 11.5410,56.1502 C11.6303,56.1502 11.6940,56.2042 11.6940,56.2627 C11.6940,56.3205 11.6243,56.3707 11.5335,56.3707 Z M11.5335,52.6462 C11.5260,52.6462 11.5088,52.6462 11.5088,52.6462 C7.8240,52.7010 2.9768,50.9625 0.4208,46.6230 C0.2363,46.3177 0.4560,46.3462 0.4560,46.3462 C2.0745,49.0815 6.8438,51.9555 11.4450,52.4175 C11.4653,52.4197 11.5320,52.4242 11.5410,52.4242 C11.6303,52.4242 11.6940,52.4782 11.6940,52.5375 C11.6940,52.5952 11.6243,52.6462 11.5335,52.6462 Z M11.5335,48.9187 C11.5260,48.9187 11.5088,48.9195 11.5088,48.9195 C7.8240,48.9735 2.9768,47.2357 0.4208,42.8970 C0.2363,42.5910 0.4560,42.6195 0.4560,42.6195 C2.0745,45.3547 6.8438,48.2287 11.4450,48.6907 C11.4653,48.6930 11.5320,48.6982 11.5410,48.6982 C11.6303,48.6982 11.6940,48.7522 11.6940,48.8100 C11.6940,48.8692 11.6243,48.9187 11.5335,48.9187 Z" style="fill-rule: evenodd; fill: url(#grad3108); "/>
    <defs xmlns="http://www.w3.org/2000/svg" xmlns:xlink="http://www.w3.org/1999/xlink">
      <linearGradient id="grad3109">
        <stop offset="0%" stop-color="#85919c" stop-opacity="0.9882"/>
        <stop offset="100%" stop-color="#dadfe1" stop-opacity="0.9882"/>
      </linearGradient>
      <linearGradient xlink:href="#grad3109" id="grad3110" x1="0" y1="0" x2="0" y2="1" gradientTransform="rotate(90 .5 .5)" gradientUnits="objectBoundingBox">
  </linearGradient>
    </defs>
    <path xmlns="http://www.w3.org/2000/svg" d="  M11.4450,33.7852 C11.4653,33.7867 11.5320,33.7912 11.5410,33.7912 C11.6303,33.7912 11.6940,33.8460 11.6940,33.9052 C11.6940,33.9637 11.6243,34.0132 11.5335,34.0132 C11.5260,34.0132 11.5088,34.0140 11.5088,34.0140 C8.0085,34.0650 3.4568,32.4975 0.8198,28.6170 C0.5940,28.3567 0.3945,28.0942 0.2288,27.8310 L0.2288,35.4292 C0.4935,35.8447 0.8385,36.2572 1.2495,36.6622 C0.9525,36.2812 0.6750,35.8762 0.4208,35.4442 C0.2363,35.1390 0.4560,35.1675 0.4560,35.1675 C1.5623,37.0372 4.1415,38.9707 7.1318,40.1550 C8.5395,40.6710 10.0395,41.0535 11.5350,41.2447 C11.5358,41.2447 11.5395,41.2455 11.5410,41.2455 C11.5478,41.2455 11.5530,41.2470 11.5605,41.2477 C11.7495,41.2717 11.9385,41.2942 12.1283,41.3122 C12.1508,41.3137 12.1740,41.3167 12.1973,41.3190 L12.1973,33.7740 C9.5393,33.5347 6.8175,32.6527 4.5885,31.4610 C6.6075,32.6490 9.0488,33.5437 11.4450,33.7852 Z M11.5335,37.7400 C11.5260,37.7400 11.5088,37.7407 11.5088,37.7407 C7.8240,37.7947 2.9768,36.0577 0.4208,31.7182 C0.2363,31.4122 0.4560,31.4407 0.4560,31.4407 C2.0745,34.1767 6.8438,37.0500 11.4450,37.5127 C11.4653,37.5142 11.5320,37.5195 11.5410,37.5195 C11.6303,37.5195 11.6940,37.5735 11.6940,37.6320 C11.6940,37.6890 11.6243,37.7400 11.5335,37.7400 Z" style="fill-rule: evenodd; fill: url(#grad3110); "/>
    <defs xmlns="http://www.w3.org/2000/svg" xmlns:xlink="http://www.w3.org/1999/xlink">
      <linearGradient id="grad3111">
        <stop offset="0%" stop-color="#c8d8dd" stop-opacity="0.9882"/>
        <stop offset="100%" stop-color="#f3f9f7" stop-opacity="0.9882"/>
      </linearGradient>
      <linearGradient xlink:href="#grad3111" id="grad3112" x1="0" y1="0" x2="0" y2="1" gradientTransform="rotate(90 .5 .5)" gradientUnits="objectBoundingBox">
  </linearGradient>
    </defs>
    <path xmlns="http://www.w3.org/2000/svg" d="  M12.1283,41.3100 C11.9393,41.2928 11.7510,41.2703 11.5605,41.2470 C11.6393,41.2553 11.6932,41.3033 11.6932,41.3573 C11.6932,41.4158 11.6235,41.4660 11.5327,41.4660 C11.5253,41.4660 11.5080,41.4660 11.5080,41.4660 C8.1907,41.5148 3.9292,40.1093 1.2487,36.6615 C0.8377,36.2573 0.4927,35.8425 0.2280,35.4278 L0.2280,38.9783 C0.3652,39.1935 0.5265,39.4095 0.7050,39.6255 C0.6075,39.4770 0.5115,39.3248 0.4200,39.1695 C0.2355,38.8635 0.4552,38.8920 0.4552,38.8920 C1.4235,40.5278 3.5167,42.2115 6.0278,43.4010 C7.2292,43.9703 8.5268,44.4248 9.8423,44.7083 C10.3748,44.8215 10.9110,44.9093 11.4443,44.9633 C11.4653,44.9655 11.5320,44.9700 11.5403,44.9700 C11.6025,44.9700 11.6513,44.9978 11.6745,45.0345 C11.8493,45.0548 12.0218,45.0750 12.1958,45.0900 L12.1958,41.3175 C12.1733,41.3153 12.1508,41.3123 12.1283,41.3100 Z" style="fill-rule: evenodd; fill: url(#grad3112); "/>
    <defs xmlns="http://www.w3.org/2000/svg" xmlns:xlink="http://www.w3.org/1999/xlink">
      <linearGradient id="grad3113">
        <stop offset="0%" stop-color="#bdd1dd" stop-opacity="0.9882"/>
        <stop offset="100%" stop-color="#f3f9f7" stop-opacity="0.9882"/>
      </linearGradient>
      <linearGradient xlink:href="#grad3113" id="grad3114" x1="0" y1="0" x2="0" y2="1" gradientTransform="rotate(90 .5 .5)" gradientUnits="objectBoundingBox">
  </linearGradient>
    </defs>
    <path xmlns="http://www.w3.org/2000/svg" d="  M12.1283,26.0527 L0.2288,20.1705 L0.2288,27.8303 C0.3953,28.0942 0.5940,28.3567 0.8198,28.6162 C0.6818,28.4138 0.5475,28.2067 0.4208,27.9907 C0.2363,27.6847 0.4560,27.7140 0.4560,27.7140 C1.2315,29.0243 2.7308,30.3660 4.5885,31.4587 C6.8168,32.6512 9.5393,33.5333 12.1973,33.7717 L12.1973,26.0587 C12.1733,26.0580 12.1283,26.0527 12.1283,26.0527 Z M0.6330,21.1882 L11.8350,26.7262 C6.2798,29.7960 0.8453,24.8445 0.6330,21.1882 Z" style="fill-rule: evenodd; fill: url(#grad3114); "/>
    <path xmlns="http://www.w3.org/2000/svg" d="  M11.5410,56.1495 C11.5320,56.1495 11.4652,56.1442 11.4450,56.1427 C6.8437,55.6800 2.0737,52.8082 0.4560,50.0707 C0.4560,50.0707 0.2370,50.0422 0.4207,50.3482 C2.9767,54.6877 7.8247,56.4262 11.5087,56.3707 C11.5087,56.3707 11.5260,56.3707 11.5335,56.3707 C11.6242,56.3707 11.6940,56.3205 11.6940,56.2620 C11.6940,56.2042 11.6302,56.1495 11.5410,56.1495 Z" style="fill-rule: evenodd; fill: #000000; "/>
    <path xmlns="http://www.w3.org/2000/svg" d="  M11.5410,52.4235 C11.5320,52.4235 11.4652,52.4175 11.4450,52.4160 C6.8437,51.9547 2.0737,49.0815 0.4560,46.3447 C0.4560,46.3447 0.2370,46.3162 0.4207,46.6222 C2.9767,50.9610 7.8247,52.7002 11.5087,52.6447 C11.5087,52.6447 11.5260,52.6447 11.5335,52.6447 C11.6242,52.6447 11.6940,52.5952 11.6940,52.5352 C11.6940,52.4775 11.6302,52.4235 11.5410,52.4235 Z" style="fill-rule: evenodd; fill: #000000; "/>
    <path xmlns="http://www.w3.org/2000/svg" d="  M11.5410,48.6967 C11.5320,48.6967 11.4652,48.6922 11.4450,48.6892 C6.8437,48.2280 2.0737,45.3547 0.4560,42.6187 C0.4560,42.6187 0.2370,42.5895 0.4207,42.8962 C2.9767,47.2350 7.8247,48.9727 11.5087,48.9180 C11.5087,48.9180 11.5260,48.9180 11.5335,48.9180 C11.6242,48.9180 11.6940,48.8685 11.6940,48.8085 C11.6940,48.7515 11.6302,48.6967 11.5410,48.6967 Z" style="fill-rule: evenodd; fill: #000000; "/>
    <path xmlns="http://www.w3.org/2000/svg" d="  M11.6760,45.0345 C11.0640,44.9595 10.4512,44.8492 9.8438,44.7082 C8.5290,44.4255 7.2307,43.9702 6.0292,43.4010 C3.5182,42.2122 1.4250,40.5285 0.4567,38.8920 C0.4567,38.8920 0.2377,38.8635 0.4215,39.1702 C0.5137,39.3255 0.6090,39.4770 0.7072,39.6262 C3.3247,43.6305 7.9582,45.2452 11.5095,45.1920 C11.5095,45.1920 11.5267,45.1920 11.5342,45.1920 C11.6250,45.1920 11.6947,45.1432 11.6947,45.0832 C11.6940,45.0667 11.6865,45.0502 11.6760,45.0345 Z" style="fill-rule: evenodd; fill: #000000; "/>
    <path xmlns="http://www.w3.org/2000/svg" d="  M11.5612,41.2470 C11.5530,41.2462 11.5447,41.2447 11.5357,41.2432 C11.5208,41.2425 11.4652,41.2387 11.4457,41.2365 C9.9900,41.0902 8.5170,40.7017 7.1325,40.1542 C4.1415,38.9692 1.5630,37.0357 0.4567,35.1667 C0.4567,35.1667 0.2377,35.1375 0.4215,35.4435 C0.6757,35.8755 0.9532,36.2805 1.2502,36.6615 C3.9315,40.1100 8.1922,41.5162 11.5095,41.4660 C11.5095,41.4660 11.5267,41.4660 11.5342,41.4660 C11.6250,41.4660 11.6947,41.4165 11.6947,41.3572 C11.6940,41.3040 11.6400,41.2552 11.5612,41.2470 Z" style="fill-rule: evenodd; fill: #000000; "/>
    <path xmlns="http://www.w3.org/2000/svg" d="  M11.5410,33.7912 C11.5320,33.7912 11.4652,33.7867 11.4450,33.7852 C9.0487,33.5437 6.6067,32.6482 4.5885,31.4587 C2.7307,30.3660 1.2315,29.0235 0.4560,27.7140 C0.4560,27.7140 0.2370,27.6847 0.4207,27.9907 C0.5475,28.2067 0.6817,28.4137 0.8197,28.6162 C3.4567,32.4967 8.0085,34.0657 11.5087,34.0132 C11.5087,34.0132 11.5260,34.0125 11.5335,34.0125 C11.6242,34.0125 11.6940,33.9637 11.6940,33.9045 C11.6940,33.8460 11.6302,33.7912 11.5410,33.7912 Z" style="fill-rule: evenodd; fill: #000000; "/>
    <path xmlns="http://www.w3.org/2000/svg" d="  M11.5410,37.5180 C11.5320,37.5180 11.4652,37.5127 11.4450,37.5105 C6.8437,37.0485 2.0737,34.1767 0.4560,31.4400 C0.4560,31.4400 0.2370,31.4115 0.4207,31.7175 C2.9767,36.0570 7.8247,37.7947 11.5087,37.7407 C11.5087,37.7407 11.5260,37.7400 11.5335,37.7400 C11.6242,37.7400 11.6940,37.6897 11.6940,37.6312 C11.6940,37.5720 11.6302,37.5180 11.5410,37.5180 Z" style="fill-rule: evenodd; fill: #000000; "/>
    <defs xmlns="http://www.w3.org/2000/svg">
      <linearGradient id="grad3115">
        <stop offset="0%" stop-color="#646c6b" stop-opacity="1.0000"/>
        <stop offset="100%" stop-color="#dae1e1" stop-opacity="1.0000"/>
      </linearGradient>
    </defs>
    <path xmlns="http://www.w3.org/2000/svg" d="  M9.7890,57.1065 C8.7397,56.7743 7.7317,56.9985 7.5390,57.6090 C7.3462,58.2188 8.0400,58.9830 9.0892,59.3153 C10.1377,59.6460 11.1457,59.4225 11.3377,58.8120 C11.5320,58.2030 10.8382,57.4380 9.7890,57.1065 Z M10.5802,59.1458 C10.1910,59.5133 9.5175,59.4300 9.0757,58.9613 C8.9340,58.8098 8.8335,58.6365 8.7757,58.4588 C8.7382,58.3433 8.7187,58.2263 8.7172,58.1130 C8.7150,57.8580 8.8020,57.6195 8.9835,57.4478 C9.3735,57.0810 10.0470,57.1643 10.4880,57.6330 C10.9290,58.1025 10.9702,58.7790 10.5802,59.1458 Z" style="fill-rule: evenodd; fill: url(#grad3115); "/>
    <path xmlns="http://www.w3.org/2000/svg" d="  M8.9835,57.4477 C8.8020,57.6188 8.7150,57.8587 8.7172,58.1130 C8.7247,57.9315 8.7922,57.7627 8.9227,57.6398 C9.0285,57.5415 9.1605,57.4860 9.3015,57.4695 C9.5827,57.3983 9.9165,57.4965 10.1542,57.7485 C10.4790,58.0935 10.5052,58.5960 10.2202,58.8847 C10.2022,58.9095 10.1812,58.9320 10.1587,58.9537 C9.8572,59.2372 9.3367,59.1727 8.9962,58.8105 C8.8957,58.7040 8.8222,58.5833 8.7773,58.4580 C8.8350,58.6365 8.9355,58.8098 9.0773,58.9613 C9.5182,59.4300 10.1925,59.5125 10.5817,59.1457 C10.9717,58.7790 10.9305,58.1018 10.4887,57.6322 C10.0462,57.1643 9.3727,57.0810 8.9835,57.4477 Z" style="fill-rule: evenodd; fill: #000000; "/>
    <defs xmlns="http://www.w3.org/2000/svg">
      <radialGradient id="grad3116" cx="100.0000%" cy="100.0000%" r="100.0000%">
        <stop offset="0%" stop-color="#ccff66" stop-opacity="1.0000"/>
        <stop offset="100%" stop-color="#7ab04a" stop-opacity="1.0000"/>
      </radialGradient>
    </defs>
    <path xmlns="http://www.w3.org/2000/svg" d="  M10.1580,58.9537 C10.1805,58.9327 10.2015,58.9088 10.2195,58.8847 C10.5045,58.5960 10.4790,58.0935 10.1535,57.7485 C9.9165,57.4965 9.5828,57.3983 9.3008,57.4695 C9.1598,57.4853 9.0270,57.5415 8.9220,57.6397 C8.7915,57.7627 8.7240,57.9315 8.7165,58.1130 C8.7180,58.2262 8.7375,58.3433 8.7750,58.4587 C8.8215,58.5832 8.8943,58.7040 8.9948,58.8105 C9.3360,59.1727 9.8565,59.2373 10.1580,58.9537 Z" style="fill-rule: evenodd; fill: url(#grad3116); "/>
    <defs xmlns="http://www.w3.org/2000/svg" xmlns:xlink="http://www.w3.org/1999/xlink">
      <linearGradient id="grad3117">
        <stop offset="0%" stop-color="#7f8787" stop-opacity="1.0000"/>
        <stop offset="100%" stop-color="#f3f9f7" stop-opacity="1.0000"/>
      </linearGradient>
      <linearGradient xlink:href="#grad3117" id="grad3118" x1="0" y1="0" x2="0" y2="1" gradientTransform="rotate(315 .5 .5)" gradientUnits="objectBoundingBox">
  </linearGradient>
    </defs>
    <path xmlns="http://www.w3.org/2000/svg" d="  M0.6330,21.1883 C0.8460,24.8445 6.2797,29.7968 11.8350,26.7263 L0.6330,21.1883 Z M2.7795,22.3905 L9.9420,25.8998 C6.3202,27.6968 2.8732,24.6173 2.7795,22.3905 Z" style="fill-rule: evenodd; fill: url(#grad3118); "/>
    <defs xmlns="http://www.w3.org/2000/svg">
      <radialGradient id="grad3119" cx="100.0000%" cy="100.0000%" r="100.0000%">
        <stop offset="0%" stop-color="#a7e968" stop-opacity="1.0000"/>
        <stop offset="100%" stop-color="#000000" stop-opacity="1.0000"/>
      </radialGradient>
    </defs>
    <path xmlns="http://www.w3.org/2000/svg" d="  M2.7795,22.3905 C2.8733,24.6172 6.3203,27.6967 9.9420,25.8997 L2.7795,22.3905 Z" style="fill-rule: evenodd; fill: url(#grad3119); "/>
    <defs xmlns="http://www.w3.org/2000/svg" xmlns:xlink="http://www.w3.org/1999/xlink">
      <linearGradient id="grad3120">
        <stop offset="0%" stop-color="#7f8787" stop-opacity="1.0000"/>
        <stop offset="100%" stop-color="#dae1e1" stop-opacity="1.0000"/>
      </linearGradient>
      <linearGradient xlink:href="#grad3120" id="grad3121" x1="0" y1="0" x2="0" y2="1" gradientTransform="rotate(45 .5 .5)" gradientUnits="objectBoundingBox">
  </linearGradient>
    </defs>
    <path xmlns="http://www.w3.org/2000/svg" d="  M13.1940,24.8145 L13.1730,24.8040 L13.1730,62.5237 L37.0755,49.0312 L37.0755,46.3290 L22.5323,54.6840 L22.5323,54.0930 L36.5543,46.0485 L37.0755,45.7492 L37.0755,43.5517 L22.5323,51.9067 L22.5323,51.3157 L36.5543,43.2712 L37.0755,42.9720 L37.0755,40.7745 L22.5323,49.1295 L22.5323,48.5377 L36.5910,40.5105 L37.0755,40.2345 L37.0755,10.8705 L33.8670,12.7132 L13.1940,24.8145 Z" style="fill-rule: evenodd; fill: url(#grad3121); "/>
    <defs xmlns="http://www.w3.org/2000/svg" xmlns:xlink="http://www.w3.org/1999/xlink">
      <linearGradient id="grad3122">
        <stop offset="0%" stop-color="#7f8787" stop-opacity="1.0000"/>
        <stop offset="100%" stop-color="#f3f9f7" stop-opacity="1.0000"/>
      </linearGradient>
      <linearGradient xlink:href="#grad3122" id="grad3123" x1="0" y1="0" x2="0" y2="1" gradientTransform="rotate(90 .5 .5)" gradientUnits="objectBoundingBox">
  </linearGradient>
    </defs>
    <path xmlns="http://www.w3.org/2000/svg" d="  M25.4213,3.8310 L0.1230,18.4350 L13.1730,24.8040 L37.0755,10.8360 L25.4213,3.8310 Z" style="fill-rule: evenodd; fill: url(#grad3123); "/>
    <defs xmlns="http://www.w3.org/2000/svg">
      <radialGradient id="grad3124" cx="50.0000%" cy="50.0000%" r="100.0000%">
        <stop offset="0%" stop-color="#fcd57a" stop-opacity="1.0000"/>
        <stop offset="100%" stop-color="#dfc487" stop-opacity="1.0000"/>
      </radialGradient>
    </defs>
    <path xmlns="http://www.w3.org/2000/svg" d="  M46.5128,12.7635 C46.5128,5.7150 38.9730,0.0000 29.6730,0.0000 C20.3730,0.0000 12.8333,5.7150 12.8333,12.7635 C12.8333,19.3058 19.3283,24.6945 27.6968,25.4363 L27.6968,28.5487 C27.6968,28.8428 27.9323,29.0805 28.2270,29.0805 C28.3673,29.0805 28.4940,29.0265 28.5878,28.9380 L31.9748,25.4048 C40.1858,24.5535 46.5128,19.2202 46.5128,12.7635 Z" style="fill-rule: evenodd; fill: url(#grad3124); "/>
    <defs xmlns="http://www.w3.org/2000/svg">
      <radialGradient id="grad3125" cx="50.0000%" cy="50.0000%" r="100.0000%">
        <stop offset="0%" stop-color="#fff8aa" stop-opacity="1.0000"/>
        <stop offset="100%" stop-color="#ffe28c" stop-opacity="1.0000"/>
      </radialGradient>
    </defs>
    <path xmlns="http://www.w3.org/2000/svg" d="  M28.4055,28.1047 L28.4055,25.4363 L28.4055,24.7875 L27.7597,24.7298 C19.6537,24.0105 13.5412,18.8662 13.5412,12.7628 C13.5412,6.1163 20.7780,0.7080 29.6737,0.7080 C38.5680,0.7080 45.8040,6.1155 45.8040,12.7628 C45.8040,18.7455 39.8280,23.8762 31.9020,24.6975 L31.6432,24.7253 L31.4625,24.9127 L28.4055,28.1047 Z" style="fill-rule: evenodd; fill: url(#grad3125); "/>
    <defs xmlns="http://www.w3.org/2000/svg">
      <radialGradient id="grad3126" cx="50.0000%" cy="50.0000%" r="100.0000%">
        <stop offset="0%" stop-color="#fdf8ea" stop-opacity="1.0000"/>
        <stop offset="100%" stop-color="#ffe28c" stop-opacity="1.0000"/>
      </radialGradient>
    </defs>
    <path xmlns="http://www.w3.org/2000/svg" d="  M14.0775,9.6795 C15.9060,4.5218 22.2037,0.7102 29.6730,0.7102 C38.5680,0.7102 45.8040,6.1185 45.8040,12.7643 C45.7500,15.1785 36.2632,10.8848 29.3745,10.8848 C22.5765,10.8840 11.6655,16.4625 14.0775,9.6795 Z" style="fill-rule: evenodd; fill: url(#grad3126); "/>
    <defs xmlns="http://www.w3.org/2000/svg">
      <radialGradient id="grad3127" cx="50.0000%" cy="50.0000%" r="100.0000%">
        <stop offset="0%" stop-color="#fcd57a" stop-opacity="1.0000"/>
        <stop offset="100%" stop-color="#dfc487" stop-opacity="1.0000"/>
      </radialGradient>
    </defs>
    <path xmlns="http://www.w3.org/2000/svg" d="  M53.9820,16.1280 C53.9820,10.8420 48.3277,6.5550 41.3513,6.5550 C34.3763,6.5550 28.7212,10.8420 28.7212,16.1280 C28.7212,21.0345 33.5925,25.0762 39.8700,25.6320 L39.8700,27.9667 C39.8700,28.1872 40.0463,28.3657 40.2668,28.3657 C40.3725,28.3657 40.4677,28.3252 40.5382,28.2592 L43.0778,25.6080 C49.2360,24.9697 53.9820,20.9700 53.9820,16.1280 Z" style="fill-rule: evenodd; fill: url(#grad3127); "/>
    <defs xmlns="http://www.w3.org/2000/svg">
      <radialGradient id="grad3128" cx="50.0000%" cy="50.0000%" r="100.0000%">
        <stop offset="0%" stop-color="#fff8aa" stop-opacity="1.0000"/>
        <stop offset="100%" stop-color="#ffe28c" stop-opacity="1.0000"/>
      </radialGradient>
    </defs>
    <path xmlns="http://www.w3.org/2000/svg" d="  M40.6095,27.1133 L40.6095,25.6328 L40.6095,25.1460 L40.6095,24.9555 L40.4197,24.9390 L39.9345,24.8963 C33.9630,24.3660 29.4607,20.5965 29.4607,16.1280 C29.4607,11.2583 34.7947,7.2960 41.3505,7.2960 C47.9070,7.2960 53.2410,11.2583 53.2410,16.1280 C53.2410,20.5080 48.8385,24.2678 42.9998,24.8730 L42.8070,24.8925 L42.7305,24.9008 L42.6780,24.9563 L42.5423,25.0973 L40.6095,27.1133 Z" style="fill-rule: evenodd; fill: url(#grad3128); "/>
    <defs xmlns="http://www.w3.org/2000/svg">
      <radialGradient id="grad3129" cx="50.0000%" cy="50.0000%" r="100.0000%">
        <stop offset="0%" stop-color="#fdf8ea" stop-opacity="1.0000"/>
        <stop offset="100%" stop-color="#ffe28c" stop-opacity="1.0000"/>
      </radialGradient>
    </defs>
    <path xmlns="http://www.w3.org/2000/svg" d="  M52.4955,16.4715 C51.6330,16.4715 50.2058,16.1280 48.5542,15.7283 C46.2975,15.1845 43.4895,14.5088 41.1262,14.5088 C39.4103,14.5088 37.4010,14.9648 35.4577,15.4058 C33.8250,15.7770 32.2815,16.1273 31.1805,16.1273 C30.4538,16.1273 29.9932,15.9758 29.7735,15.6638 C29.5283,15.3173 29.5545,14.7173 29.8515,13.8833 C31.2263,10.0035 35.9550,7.2945 41.3512,7.2945 C47.9070,7.2945 53.2402,11.2568 53.2402,16.1273 C53.2373,16.2278 53.2327,16.4715 52.4955,16.4715 Z" style="fill-rule: evenodd; fill: url(#grad3129); "/>
    <path xmlns="http://www.w3.org/2000/svg" d="  M52.8780,56.1443 L48.8505,48.5932 L44.8215,41.0437 L44.8215,43.4205 L44.8215,45.7995 L40.4182,43.2562 L36.0143,40.7137 L36.0143,40.7167 L36.0143,40.7182 L31.6710,38.2118 L27.3270,35.7037 L27.3270,33.2378 L27.3270,30.7710 L23.2995,33.6705 L19.2712,36.5685 L23.2995,44.1188 L27.3270,51.6698 L27.3270,49.2915 L27.3270,46.9140 L31.7310,49.4565 L36.1350,51.9983 L36.1350,51.9953 L36.1350,51.9938 L40.4783,54.5010 L44.8215,57.0098 L44.8215,59.4758 L44.8215,61.9425 L48.8505,59.0438 L52.8780,56.1443 Z" style="fill-rule: evenodd; fill: #16a501; "/>
    <defs xmlns="http://www.w3.org/2000/svg" xmlns:xlink="http://www.w3.org/1999/xlink">
      <linearGradient id="grad3130">
        <stop offset="0%" stop-color="#16a501" stop-opacity="1.0000"/>
        <stop offset="100%" stop-color="#79ef60" stop-opacity="1.0000"/>
      </linearGradient>
      <linearGradient xlink:href="#grad3130" id="grad3131" x1="0" y1="0" x2="0" y2="1" gradientTransform="rotate(180 .5 .5)" gradientUnits="objectBoundingBox">
  </linearGradient>
    </defs>
    <path xmlns="http://www.w3.org/2000/svg" d="  M51.9502,57.5400 L47.7870,49.7362 L43.6215,41.9317 L43.6215,44.3888 L43.6230,46.8473 L39.0712,44.2185 L34.5187,41.5905 L34.5187,41.5935 L34.5187,41.5965 L30.0300,39.0037 L25.5405,36.4117 L25.5405,33.8633 L25.5405,31.3140 L21.3765,34.3095 L17.2140,37.3065 L21.3765,45.1102 L25.5405,52.9148 L25.5405,50.4570 L25.5405,47.9993 L30.0915,50.6273 L34.6432,53.2545 L34.6432,53.2523 L34.6432,53.2493 L39.1335,55.8412 L43.6215,58.4332 L43.6215,60.9832 L43.6230,63.5325 L47.7870,60.5370 L51.9502,57.5400 Z" style="fill-rule: evenodd; fill: url(#grad3131); "/>
    <defs xmlns="http://www.w3.org/2000/svg" xmlns:xlink="http://www.w3.org/1999/xlink">
      <linearGradient id="grad3132">
        <stop offset="0%" stop-color="#16a501" stop-opacity="1.0000"/>
        <stop offset="100%" stop-color="#79ef60" stop-opacity="1.0000"/>
      </linearGradient>
      <linearGradient xlink:href="#grad3132" id="grad3133" x1="0" y1="0" x2="0" y2="1" gradientTransform="rotate(90 .5 .5)" gradientUnits="objectBoundingBox">
  </linearGradient>
    </defs>
    <path xmlns="http://www.w3.org/2000/svg" d="  M25.4535,31.2525 L27.3270,30.7710 L27.3270,35.7038 L25.5405,36.4118 L25.4535,31.2525 Z" style="fill-rule: evenodd; fill: url(#grad3133); "/>
    <defs xmlns="http://www.w3.org/2000/svg" xmlns:xlink="http://www.w3.org/1999/xlink">
      <linearGradient id="grad3134">
        <stop offset="0%" stop-color="#79ef60" stop-opacity="1.0000"/>
        <stop offset="100%" stop-color="#b8efa1" stop-opacity="1.0000"/>
      </linearGradient>
      <linearGradient xlink:href="#grad3134" id="grad3135" x1="0" y1="0" x2="0" y2="1" gradientTransform="rotate(180 .5 .5)" gradientUnits="objectBoundingBox">
  </linearGradient>
    </defs>
    <path xmlns="http://www.w3.org/2000/svg" d="  M27.3270,35.7038 L43.6050,45.0585 L43.6230,46.8472 L25.5405,36.4117 L27.3270,35.7038 Z" style="fill-rule: evenodd; fill: url(#grad3135); "/>
    <defs xmlns="http://www.w3.org/2000/svg" xmlns:xlink="http://www.w3.org/1999/xlink">
      <linearGradient id="grad3136">
        <stop offset="0%" stop-color="#16a501" stop-opacity="1.0000"/>
        <stop offset="100%" stop-color="#b8efa1" stop-opacity="1.0000"/>
      </linearGradient>
      <linearGradient xlink:href="#grad3136" id="grad3137" x1="0" y1="0" x2="0" y2="1" gradientTransform="rotate(180 .5 .5)" gradientUnits="objectBoundingBox">
  </linearGradient>
    </defs>
    <path xmlns="http://www.w3.org/2000/svg" d="  M43.5225,41.8755 L44.8215,41.0437 L52.8780,56.1442 L51.9705,57.6202 L43.5225,41.8755 Z" style="fill-rule: evenodd; fill: url(#grad3137); "/>
    <defs xmlns="http://www.w3.org/2000/svg" xmlns:xlink="http://www.w3.org/1999/xlink">
      <linearGradient id="grad3138">
        <stop offset="0%" stop-color="#16a501" stop-opacity="1.0000"/>
        <stop offset="100%" stop-color="#79ef60" stop-opacity="1.0000"/>
      </linearGradient>
      <linearGradient xlink:href="#grad3138" id="grad3139" x1="0" y1="0" x2="0" y2="1" gradientTransform="rotate(225 .5 .5)" gradientUnits="objectBoundingBox">
  </linearGradient>
    </defs>
    <path xmlns="http://www.w3.org/2000/svg" d="  M27.3270,51.6697 L27.3442,48.9855 L25.5405,47.9992 L25.5217,53.0190 L27.3270,51.6697 Z" style="fill-rule: evenodd; fill: url(#grad3139); "/>
    <defs xmlns="http://www.w3.org/2000/svg" xmlns:xlink="http://www.w3.org/1999/xlink">
      <linearGradient id="grad3140">
        <stop offset="0%" stop-color="#16a501" stop-opacity="1.0000"/>
        <stop offset="100%" stop-color="#79ef60" stop-opacity="1.0000"/>
      </linearGradient>
      <linearGradient xlink:href="#grad3140" id="grad3141" x1="0" y1="0" x2="0" y2="1" gradientTransform="rotate(315 .5 .5)" gradientUnits="objectBoundingBox">
  </linearGradient>
    </defs>
    <path xmlns="http://www.w3.org/2000/svg" d="  M43.4903,63.6683 C43.4513,63.6480 43.4273,63.6083 43.4273,63.5648 L43.4265,61.0148 L43.4265,58.5323 L38.9948,55.9740 L34.5383,53.3993 C34.5270,53.3963 34.5165,53.3925 34.5068,53.3865 L29.9543,50.7585 L25.5780,48.2318 L25.5780,50.4885 L25.5780,52.9463 C25.5780,52.9988 25.5412,53.0453 25.4895,53.0573 C25.4378,53.0708 25.3853,53.0468 25.3590,52.9995 L21.1965,45.1958 L17.0340,37.3928 C17.0070,37.3418 17.0205,37.2780 17.0678,37.2443 L21.2310,34.2473 L25.3950,31.2510 C25.4295,31.2255 25.4760,31.2218 25.5150,31.2420 C25.5533,31.2615 25.5788,31.3013 25.5788,31.3448 L25.5788,33.8940 L25.5788,36.3758 L30.0105,38.9348 L34.4715,41.5103 C34.4820,41.5133 34.4903,41.5170 34.5000,41.5215 L39.0503,44.1503 L43.4288,46.6778 L43.4288,44.4210 L43.4288,41.9625 C43.4288,41.9100 43.4648,41.8628 43.5158,41.8508 C43.5675,41.8380 43.6215,41.8620 43.6463,41.9078 L47.8110,49.7123 L51.9750,57.5168 L51.8715,57.5708 L51.9750,57.5168 C52.0020,57.5670 51.9870,57.6300 51.9405,57.6645 L47.7773,60.6615 L43.6125,63.6585 C43.5930,63.6728 43.5690,63.6795 43.5450,63.6795 C43.5255,63.6810 43.5075,63.6765 43.4903,63.6683 Z M34.6223,53.1818 L39.1110,55.7745 L43.5998,58.3658 C43.6365,58.3860 43.6590,58.4243 43.6590,58.4655 L43.6590,61.0155 L43.6590,63.3398 L47.6400,60.4755 L51.7208,57.5370 L47.6055,49.8225 L43.6590,42.4283 L43.6590,44.4225 L43.6590,46.8795 C43.6590,46.9215 43.6373,46.9598 43.6013,46.9815 C43.5653,47.0010 43.5210,47.0010 43.4850,46.9815 L38.9348,44.3528 L34.4123,41.7412 C34.4018,41.7398 34.3920,41.7360 34.3830,41.7307 L29.8943,39.1380 L25.4047,36.5460 C25.3688,36.5250 25.3470,36.4867 25.3470,36.4448 L25.3470,33.8962 L25.3470,31.5728 L21.3660,34.4377 L17.2853,37.3755 L21.4005,45.0893 L25.3470,52.4850 L25.3470,50.4900 L25.3470,48.0338 C25.3470,47.9917 25.3688,47.9542 25.4048,47.9325 C25.4400,47.9123 25.4843,47.9123 25.5203,47.9325 L30.0713,50.5597 L34.5938,53.1705 C34.6035,53.1720 34.6125,53.1765 34.6223,53.1818 Z" style="fill-rule: evenodd; fill: url(#grad3141); "/>
    <!--converted by libvisio2svg-->
  </g>
</svg>
