<svg xmlns="http://www.w3.org/2000/svg" xmlns:xlink="http://www.w3.org/1999/xlink" version="1.1" width="0.6726000000" height="0.8854000000" viewBox="0 0 48.4298 63.7455">
  <title><![CDATA[Headset]]></title>
  <g transform=" scale(1.000000) ">
    <path xmlns="http://www.w3.org/2000/svg" d="  M46.2263,41.8297 C46.2488,41.7240 46.2735,41.6235 46.2938,41.5163 C46.2945,41.5132 46.2953,41.5102 46.2960,41.5080 C46.5187,40.3253 46.6343,39.0585 46.6448,37.7288 C46.6448,37.7250 46.6448,37.7205 46.6448,37.7168 C46.6860,32.2140 44.9115,25.6178 41.3213,19.2742 C34.2990,6.8663 22.9800,0.1058 15.9323,4.0568 C15.2715,4.2593 14.6355,4.5308 14.0333,4.8863 C10.4332,7.0095 8.6655,11.4833 8.6670,16.9583 C8.6677,21.1657 9.7125,25.9807 11.7885,30.8287 C11.3528,31.4130 10.9403,32.0423 10.5600,32.7150 C7.7333,37.7070 7.7198,43.0950 10.5293,44.7488 C10.7152,44.8583 10.9088,44.9467 11.1083,45.0195 C11.1210,45.0255 11.1292,45.0353 11.1413,45.0420 C11.2935,45.1313 11.4510,45.2062 11.6138,45.2708 C11.8178,45.4733 12.0367,45.6585 12.2857,45.8048 C14.4645,47.0880 17.6985,45.7477 20.3603,42.7553 C21.1155,41.9558 21.8243,41.0025 22.4363,39.9217 C22.7647,39.3450 23.0415,38.7622 23.2793,38.1825 C25.2795,33.6795 25.0335,29.2095 22.5188,27.7290 C22.3673,27.6390 22.2083,27.5655 22.0463,27.5002 C21.8423,27.2978 21.6240,27.1125 21.3742,26.9663 C21.1897,26.8567 20.9962,26.7683 20.7967,26.6970 C20.7840,26.6895 20.7743,26.6797 20.7622,26.6723 C18.7545,25.4903 15.8483,26.5350 13.3223,29.0505 C13.2592,28.8952 13.1910,28.7393 13.1295,28.5833 C9.2655,18.7748 9.7005,9.3233 14.4375,5.1300 C15.7583,4.3995 17.2290,4.0470 18.8040,4.0470 C25.4520,4.0350 33.9127,10.3343 39.5640,20.3295 C43.1078,26.5898 44.8793,33.0982 44.8778,38.5328 C44.8778,39.2595 44.8425,39.9637 44.7803,40.6478 C44.7465,40.6260 44.7150,40.5990 44.6783,40.5780 C44.3400,40.3785 43.9747,40.2428 43.5908,40.1662 C43.4903,40.0920 43.3943,40.0132 43.2870,39.9495 C43.1573,39.8730 43.0223,39.8085 42.8857,39.7508 C42.8595,39.7395 42.8347,39.7282 42.8078,39.7177 C42.6727,39.6645 42.5355,39.6195 42.3938,39.5828 C42.3735,39.5775 42.3495,39.5730 42.3293,39.5677 C42.1830,39.5325 42.0338,39.5062 41.8815,39.4890 C41.8800,39.4883 41.8785,39.4883 41.8770,39.4875 C41.0175,39.2753 38.3610,39.8505 38.1247,39.9120 C36.0645,40.4527 33.7583,42.4290 32.1300,45.3037 C30.7035,47.8267 30.1200,50.4675 30.3863,52.4902 C30.4590,53.0460 30.9113,54.5280 31.2428,55.4865 C31.3208,55.7565 31.4182,56.0100 31.5300,56.2522 L31.5300,56.2537 C31.5308,56.2552 31.5315,56.2568 31.5322,56.2583 C31.6170,56.4442 31.7100,56.6220 31.8150,56.7893 C31.8322,56.8192 31.8570,56.8455 31.8758,56.8748 C31.9433,56.9768 32.0115,57.0780 32.0858,57.1717 L25.6290,60.9075 C24.1905,61.7452 21.5018,62.4135 18.7170,62.4068 C16.3695,62.4090 13.9478,61.9440 12.0735,60.8385 L9.2393,59.2230 C9.3960,58.6710 9.3180,58.1730 9.0023,57.9870 C9.0023,57.9870 7.9913,56.7975 7.3493,56.3318 C6.7230,55.8780 3.7613,53.9453 3.7613,53.9453 C3.7613,53.9453 2.7150,53.7225 2.5973,53.7105 C1.9748,53.6520 1.1648,54.2332 0.6285,55.1782 C0.0480,56.2057 0.0008,57.3008 0.4785,57.7665 L1.0890,58.2975 C1.1550,58.3785 1.2315,58.4475 1.3215,58.5015 C1.3215,58.5015 4.4055,60.1373 5.1173,60.4335 C5.7518,60.6990 7.4678,60.7013 7.4678,60.7013 C7.7603,60.8738 8.1765,60.7268 8.5485,60.3743 C9.5385,60.9368 11.4038,61.9958 11.4038,61.9958 C13.5623,63.2625 16.2007,63.7418 18.7185,63.7448 C21.7163,63.7388 24.5393,63.0728 26.3010,62.0648 L33.1778,58.0883 C33.4822,58.2518 33.8055,58.3673 34.1445,58.4347 C34.2442,58.5090 34.3410,58.5885 34.4483,58.6515 C34.4625,58.6605 34.4782,58.6673 34.4925,58.6755 C34.6928,58.8698 34.9050,59.0490 35.1473,59.1915 C37.9560,60.8452 42.5243,58.1400 45.3495,53.1480 C47.8493,48.7298 48.1425,44.0040 46.2263,41.8297 Z" style="stroke-width: 1.5000; stroke: #8d98b5; stroke-dasharray: none; stroke-linecap: butt; stroke-linejoin: miter; fill: none; "/>
    <defs xmlns="http://www.w3.org/2000/svg" xmlns:xlink="http://www.w3.org/1999/xlink">
      <linearGradient id="grad3159">
        <stop offset="0%" stop-color="#080808" stop-opacity="1.0000"/>
        <stop offset="100%" stop-color="#c4c5c6" stop-opacity="1.0000"/>
      </linearGradient>
      <linearGradient xlink:href="#grad3159" id="grad3160" x1="0" y1="0" x2="0" y2="1" gradientTransform="rotate(315 .5 .5)" gradientUnits="objectBoundingBox">
  </linearGradient>
    </defs>
    <path xmlns="http://www.w3.org/2000/svg" d="  M7.3485,56.3317 C6.7223,55.8780 3.7605,53.9452 3.7605,53.9452 C3.7605,53.9452 2.7142,53.7225 2.5965,53.7105 C1.9740,53.6520 1.1640,54.2332 0.6277,55.1782 C0.0472,56.2057 0.0000,57.3007 0.4777,57.7665 L1.3207,58.5015 C1.3207,58.5015 4.4048,60.1372 5.1165,60.4335 C5.7510,60.6990 7.4670,60.7013 7.4670,60.7013 L9.0023,57.9855 C9.0015,57.9870 7.9905,56.7982 7.3485,56.3317 Z" style="fill-rule: evenodd; fill: url(#grad3160); "/>
    <g xmlns="http://www.w3.org/2000/svg" id="Layer1110">
      <path d="  M1.8607,55.8015 C2.4922,54.6825 3.4755,54.0360 4.1745,54.2235 C4.1325,54.1868 3.9052,54.0502 3.8572,54.0202 C3.1597,53.6115 2.0287,54.2812 1.3275,55.5187 C0.6270,56.7562 0.6240,58.0927 1.3200,58.5030 C1.3867,58.5427 1.6522,58.6567 1.7257,58.6770 C1.1677,58.1805 1.2075,56.9543 1.8607,55.8015 Z" style="stroke-width: 0.0196; stroke-linecap: butt; stroke-linejoin: miter; fill-rule: evenodd; fill: #cdcfcf; "/>
      <path d="  M1.8607,55.8015 C2.4922,54.6825 3.4755,54.0360 4.1745,54.2235 C4.1325,54.1868 3.9052,54.0502 3.8572,54.0202 C3.1597,53.6115 2.0287,54.2812 1.3275,55.5187 C0.6270,56.7562 0.6240,58.0927 1.3200,58.5030 C1.3867,58.5427 1.6522,58.6567 1.7257,58.6770 C1.1677,58.1805 1.2075,56.9543 1.8607,55.8015 Z" style="stroke-width: 0.0196; stroke: #000000; stroke-dasharray: none; stroke-linecap: butt; stroke-linejoin: miter; fill: none; "/>
    </g>
    <path xmlns="http://www.w3.org/2000/svg" d="  M9.0015,57.9870 C8.5800,57.7395 7.8938,58.1453 7.4708,58.8960 C7.0455,59.6460 7.0440,60.4553 7.4663,60.7028 C7.8878,60.9518 8.5725,60.5460 8.9978,59.7960 C9.4230,59.0460 9.4253,58.2360 9.0015,57.9870 Z" style="fill-rule: evenodd; fill: #333333; "/>
    <defs xmlns="http://www.w3.org/2000/svg">
      <radialGradient id="grad3161" cx="50.0000%" cy="50.0000%" r="100.0000%">
        <stop offset="0%" stop-color="#c4c5c6" stop-opacity="1.0000"/>
        <stop offset="100%" stop-color="#080808" stop-opacity="1.0000"/>
      </radialGradient>
    </defs>
    <path xmlns="http://www.w3.org/2000/svg" d="  M43.2870,39.9495 C40.4767,38.2950 35.9100,40.9995 33.0840,45.9923 C30.2580,50.9850 30.2445,56.3723 33.0540,58.0275 C35.8620,59.6813 40.4318,56.9760 43.2570,51.9833 C46.0822,46.9905 46.0957,41.6033 43.2870,39.9495 Z" style="fill-rule: evenodd; fill: url(#grad3161); "/>
    <path xmlns="http://www.w3.org/2000/svg" d="  M43.2870,39.9495 C42.7110,39.6105 42.0600,39.4545 41.3670,39.4650 C40.6095,39.3570 38.5050,39.8265 38.3422,39.8618 C36.2280,40.3155 33.8160,42.3300 32.1308,45.3053 C30.7043,47.8283 30.1208,50.4690 30.3870,52.4918 C30.4860,53.2493 31.2900,55.7257 31.5300,56.2553 C31.8773,57.0210 32.3843,57.6323 33.0540,58.0275 C35.8620,59.6812 40.4317,56.9760 43.2570,51.9833 C46.0822,46.9905 46.0957,41.6033 43.2870,39.9495 Z" style="fill-rule: evenodd; fill: #333333; "/>
    <path xmlns="http://www.w3.org/2000/svg" d="  M44.6782,40.5780 C41.8702,38.9235 37.3020,41.6288 34.4752,46.6208 C31.6507,51.6135 31.6380,57.0007 34.4467,58.6545 C37.2562,60.3098 41.8245,57.6037 44.6497,52.6118 C47.4750,47.6190 47.4885,42.2318 44.6782,40.5780 Z" style="fill-rule: evenodd; fill: #cdcfcf; "/>
    <defs xmlns="http://www.w3.org/2000/svg" xmlns:xlink="http://www.w3.org/1999/xlink">
      <linearGradient id="grad3162">
        <stop offset="0%" stop-color="#080808" stop-opacity="1.0000"/>
        <stop offset="100%" stop-color="#c4c5c6" stop-opacity="1.0000"/>
      </linearGradient>
      <linearGradient xlink:href="#grad3162" id="grad3163" x1="0" y1="0" x2="0" y2="1" gradientTransform="rotate(90 .5 .5)" gradientUnits="objectBoundingBox">
  </linearGradient>
    </defs>
    <path xmlns="http://www.w3.org/2000/svg" d="  M45.3788,41.1165 C42.5685,39.4628 38.0010,42.1680 35.1750,47.1600 C32.3490,52.1520 32.3370,57.5393 35.1465,59.1945 C37.9553,60.8483 42.5235,58.1430 45.3488,53.1510 C48.1725,48.1583 48.1868,42.7710 45.3788,41.1165 Z" style="fill-rule: evenodd; fill: url(#grad3163); "/>
    <defs xmlns="http://www.w3.org/2000/svg">
      <radialGradient id="grad3164" cx="50.0000%" cy="50.0000%" r="100.0000%">
        <stop offset="0%" stop-color="#ffffff" stop-opacity="1.0000"/>
        <stop offset="100%" stop-color="#669999" stop-opacity="1.0000"/>
      </radialGradient>
    </defs>
    <path xmlns="http://www.w3.org/2000/svg" d="  M43.8435,43.8285 C41.8770,42.6712 38.6790,44.5642 36.7005,48.0592 C34.7227,51.5527 34.7145,55.3252 36.6817,56.4832 C38.6475,57.6405 41.8440,55.7467 43.8225,52.2525 C45.7995,48.7575 45.8092,44.9857 43.8435,43.8285 Z" style="fill-rule: evenodd; fill: url(#grad3164); "/>
    <defs xmlns="http://www.w3.org/2000/svg">
      <linearGradient id="grad3165">
        <stop offset="0%" stop-color="#080808" stop-opacity="1.0000"/>
        <stop offset="100%" stop-color="#c4c5c6" stop-opacity="1.0000"/>
      </linearGradient>
    </defs>
    <path xmlns="http://www.w3.org/2000/svg" d="  M41.7630,48.9450 C41.6340,48.8693 41.4660,48.8910 41.2972,48.9833 L41.2972,48.9817 L41.2852,48.9892 C41.2747,48.9952 41.2650,49.0013 41.2552,49.0065 L39.7440,49.8840 L39.7425,49.8945 C39.5430,49.9913 39.3367,50.1893 39.1830,50.4615 C38.9092,50.9453 38.9077,51.4673 39.1785,51.6270 C39.3105,51.7050 39.4815,51.6818 39.6547,51.5850 L39.6547,51.5880 L41.2620,50.6505 L41.2620,50.6475 C41.4420,50.5403 41.6220,50.3543 41.7592,50.1113 C42.0330,49.6275 42.0345,49.1063 41.7630,48.9450 Z" style="fill-rule: evenodd; fill: url(#grad3165); "/>
    <defs xmlns="http://www.w3.org/2000/svg" xmlns:xlink="http://www.w3.org/1999/xlink">
      <linearGradient id="grad3166">
        <stop offset="0%" stop-color="#ffffff" stop-opacity="1.0000"/>
        <stop offset="100%" stop-color="#669999" stop-opacity="1.0000"/>
      </linearGradient>
      <linearGradient xlink:href="#grad3166" id="grad3167" x1="0" y1="0" x2="0" y2="1" gradientTransform="rotate(90 .5 .5)" gradientUnits="objectBoundingBox">
  </linearGradient>
    </defs>
    <path xmlns="http://www.w3.org/2000/svg" d="  M37.3327,54.0743 C36.9105,53.8260 36.2235,54.2325 35.7997,54.9825 C35.7390,55.0905 35.6887,55.1993 35.6452,55.3073 C35.8890,55.8113 36.2295,56.2185 36.6810,56.4833 C36.7170,56.5050 36.7590,56.5185 36.7965,56.5380 C36.9907,56.3715 37.1767,56.1503 37.3282,55.8825 C37.7535,55.1325 37.7550,54.3225 37.3327,54.0743 Z" style="fill-rule: evenodd; fill: url(#grad3167); "/>
    <path xmlns="http://www.w3.org/2000/svg" d="  M36.9623,54.5580 C36.7973,54.4612 36.5700,54.5250 36.3570,54.6998 L25.6283,60.9075 C24.1898,61.7453 21.5010,62.4135 18.7163,62.4068 C16.3688,62.4090 13.9470,61.9440 12.0727,60.8385 L8.6152,58.8668 C8.6115,58.8645 8.6100,58.8592 8.6070,58.8563 C8.4248,58.7490 8.1270,58.9252 7.9433,59.2485 C7.7602,59.5740 7.7602,59.9235 7.9402,60.0308 C7.9530,60.0382 11.4015,61.9965 11.4015,61.9965 C13.5600,63.2633 16.1985,63.7425 18.7163,63.7455 C21.7140,63.7395 24.5370,63.0735 26.2988,62.0655 L36.0750,56.4128 C36.5115,56.1277 36.8355,55.8915 36.9585,55.6740 C37.2203,55.2113 37.2218,54.7118 36.9623,54.5580 Z" style="fill-rule: evenodd; fill: #333333; "/>
    <defs xmlns="http://www.w3.org/2000/svg" xmlns:xlink="http://www.w3.org/1999/xlink">
      <linearGradient id="grad3168">
        <stop offset="0%" stop-color="#080808" stop-opacity="1.0000"/>
        <stop offset="100%" stop-color="#ffffff" stop-opacity="1.0000"/>
      </linearGradient>
      <linearGradient xlink:href="#grad3168" id="grad3169" x1="0" y1="0" x2="0" y2="1" gradientTransform="rotate(90 .5 .5)" gradientUnits="objectBoundingBox">
  </linearGradient>
    </defs>
    <path xmlns="http://www.w3.org/2000/svg" d="  M15.7740,4.1423 C22.8075,0.0000 34.2458,6.7748 41.3212,19.2750 C48.3967,31.7737 48.4297,45.2655 41.3963,49.4078 L39.6967,50.4728 C46.7295,46.3298 46.6980,32.8388 39.6218,20.3385 C32.5462,7.8390 21.1088,1.0643 14.0745,5.2065 L15.7740,4.1423 Z" style="fill-rule: evenodd; fill: url(#grad3169); "/>
    <defs xmlns="http://www.w3.org/2000/svg" xmlns:xlink="http://www.w3.org/1999/xlink">
      <linearGradient id="grad3170">
        <stop offset="0%" stop-color="#ffffff" stop-opacity="1.0000"/>
        <stop offset="100%" stop-color="#669999" stop-opacity="1.0000"/>
      </linearGradient>
      <linearGradient xlink:href="#grad3170" id="grad3171" x1="0" y1="0" x2="0" y2="1" gradientTransform="rotate(-0 .5 .5)" gradientUnits="objectBoundingBox">
  </linearGradient>
    </defs>
    <path xmlns="http://www.w3.org/2000/svg" d="  M44.9482,38.6902 C44.9280,44.0730 43.1805,48.4207 39.6967,50.4727 L41.3962,49.4077 C44.8590,47.3670 46.6057,43.0575 46.6447,37.7175 L44.9482,38.6902 Z" style="fill-rule: evenodd; fill: url(#grad3171); "/>
    <defs xmlns="http://www.w3.org/2000/svg" xmlns:xlink="http://www.w3.org/1999/xlink">
      <linearGradient id="grad3172">
        <stop offset="0%" stop-color="#080808" stop-opacity="1.0000"/>
        <stop offset="100%" stop-color="#c4c5c6" stop-opacity="1.0000"/>
      </linearGradient>
      <linearGradient xlink:href="#grad3172" id="grad3173" x1="0" y1="0" x2="0" y2="1" gradientTransform="rotate(315 .5 .5)" gradientUnits="objectBoundingBox">
  </linearGradient>
    </defs>
    <path xmlns="http://www.w3.org/2000/svg" d="  M15.7740,4.1423 C8.7390,8.2845 8.7735,21.7755 15.8483,34.2758 L14.1488,35.3400 C7.0733,22.8398 7.0403,9.3488 14.0738,5.2065 L15.7740,4.1423 Z" style="fill-rule: evenodd; fill: url(#grad3173); "/>
    <defs xmlns="http://www.w3.org/2000/svg" xmlns:xlink="http://www.w3.org/1999/xlink">
      <linearGradient id="grad3174">
        <stop offset="0%" stop-color="#ffffff" stop-opacity="1.0000"/>
        <stop offset="100%" stop-color="#669999" stop-opacity="1.0000"/>
      </linearGradient>
      <linearGradient xlink:href="#grad3174" id="grad3175" x1="0" y1="0" x2="0" y2="1" gradientTransform="rotate(90 .5 .5)" gradientUnits="objectBoundingBox">
  </linearGradient>
    </defs>
    <path xmlns="http://www.w3.org/2000/svg" d="  M14.1488,35.3400 L15.8483,34.2758 C14.7795,32.3865 13.8743,30.4763 13.1273,28.5773 L11.3970,29.5695 C12.1508,31.4918 13.0665,33.4275 14.1488,35.3400 Z" style="fill-rule: evenodd; fill: url(#grad3175); "/>
    <path xmlns="http://www.w3.org/2000/svg" d="  M39.6405,50.5343 C39.5828,50.4375 39.6150,50.3130 39.7125,50.2560 C43.1355,48.2415 44.8777,43.9305 44.8777,38.5320 C44.8792,33.0975 43.1077,26.5890 39.5640,20.3287 C33.9128,10.3335 25.4528,4.0342 18.8040,4.0463 C17.1495,4.0463 15.6083,4.4302 14.2395,5.2373 C10.8135,7.2495 9.0712,11.5605 9.0712,16.9590 C9.0712,22.3942 10.8420,28.9028 14.3850,35.1637 L14.3865,35.1637 C14.4412,35.2613 14.4067,35.3842 14.3100,35.4398 C14.2125,35.4945 14.0880,35.4600 14.0325,35.3618 C10.4580,29.0468 8.6670,22.4798 8.6662,16.9583 C8.6648,11.4833 10.4325,7.0088 14.0325,4.8862 C15.4687,4.0403 17.0865,3.6375 18.8033,3.6383 C25.7018,3.6495 34.2083,10.0560 39.9158,20.1278 C43.4910,26.4420 45.2820,33.0090 45.2820,38.5305 C45.2827,44.0055 43.5165,48.4808 39.9172,50.6048 C39.8842,50.6235 39.8498,50.6325 39.8145,50.6325 C39.7455,50.6340 39.6780,50.5988 39.6405,50.5343 Z" style="fill-rule: evenodd; fill: #cdcfcf; "/>
    <path xmlns="http://www.w3.org/2000/svg" d="  M20.7623,26.6722 C17.9528,25.0185 13.3853,27.7237 10.5600,32.7165 C7.7333,37.7085 7.7198,43.0965 10.5293,44.7503 C13.3388,46.4040 17.9063,43.6987 20.7322,38.7067 C23.5583,33.7147 23.5718,28.3267 20.7623,26.6722 Z" style="fill-rule: evenodd; fill: #cdcfcf; "/>
    <defs xmlns="http://www.w3.org/2000/svg">
      <radialGradient id="grad3176" cx="50.0000%" cy="50.0000%" r="100.0000%">
        <stop offset="0%" stop-color="#7f8787" stop-opacity="1.0000"/>
        <stop offset="100%" stop-color="#080808" stop-opacity="1.0000"/>
      </radialGradient>
    </defs>
    <path xmlns="http://www.w3.org/2000/svg" d="  M21.3735,26.9662 C18.5647,25.3117 13.9972,28.0170 11.1705,33.0097 C8.3453,38.0018 8.3333,43.3890 11.1412,45.0435 C13.9500,46.6980 18.5175,43.9920 21.3442,39.0000 C24.1687,34.0080 24.1830,28.6200 21.3735,26.9662 Z" style="fill-rule: evenodd; fill: url(#grad3176); "/>
    <defs xmlns="http://www.w3.org/2000/svg">
      <radialGradient id="grad3177" cx="100.0000%" cy="100.0000%" r="100.0000%">
        <stop offset="0%" stop-color="#080808" stop-opacity="1.0000"/>
        <stop offset="100%" stop-color="#c4c5c6" stop-opacity="1.0000"/>
      </radialGradient>
    </defs>
    <path xmlns="http://www.w3.org/2000/svg" d="  M22.5180,27.7290 C19.7085,26.0745 15.1410,28.7798 12.3150,33.7725 C9.4897,38.7645 9.4770,44.1510 12.2857,45.8063 C15.0952,47.4600 19.6627,44.7548 22.4887,39.7635 C25.3125,34.7700 25.3275,29.3828 22.5180,27.7290 Z" style="fill-rule: evenodd; fill: url(#grad3177); "/>
    <path xmlns="http://www.w3.org/2000/svg" d="  M22.4618,29.6932 C20.0723,28.2870 16.1903,30.5872 13.7873,34.8300 C11.3873,39.0735 11.3753,43.6530 13.7648,45.0592 C16.1520,46.4655 20.0340,44.1660 22.4363,39.9225 C24.8363,35.6782 24.8483,31.0987 22.4618,29.6932 Z" style="fill-rule: evenodd; fill: #333333; "/>
    <!--converted by libvisio2svg-->
  </g>
</svg>
