<svg xmlns="http://www.w3.org/2000/svg" xmlns:xlink="http://www.w3.org/1999/xlink" version="1.1" width="0.7537000000" height="0.7880000000" viewBox="0 0 54.2640 56.7368">
  <title><![CDATA[IM Workload]]></title>
  <g transform=" scale(1.000000) ">
    <path xmlns="http://www.w3.org/2000/svg" d="  M33.0000,6.2347 L22.6283,0.0000 L0.0000,13.0065 L0.0000,45.5768 L0.5017,45.8707 C1.8465,47.5905 4.6327,49.2307 7.7085,50.1030 L11.7165,52.4572 L33.0000,40.2330 L33.0000,37.8270 L33.0000,37.7970 L32.5365,37.5772 L33.0000,37.3117 L33.0000,35.3557 L33.0000,35.3250 L32.5365,35.1053 L33.0000,34.8397 L33.0000,32.8830 L33.0000,32.8537 L32.5702,32.6490 L33.0000,32.4030 L33.0000,6.2670 L33.0000,6.2347 Z" style="stroke-width: 1.5000; stroke: #8d98b5; stroke-dasharray: none; stroke-linecap: butt; stroke-linejoin: miter; fill: none; "/>
    <path xmlns="http://www.w3.org/2000/svg" d="  M49.5397,10.9418 C49.5397,9.6263 48.6172,8.0258 47.4765,7.3688 C46.8810,7.0253 46.3462,7.0088 45.9697,7.2578 L45.9667,7.2540 L42.7515,9.1103 L36.6195,12.6518 C36.6517,12.6308 36.6877,12.6150 36.7237,12.5978 C36.7237,12.5978 8.6520,28.7685 8.6587,28.7573 L3.4702,33.9563 L2.2395,35.2230 C2.2395,35.2230 2.2335,35.2305 2.2297,35.2343 L2.2102,35.2538 L2.2102,35.2560 C2.1675,35.3048 2.0865,35.4015 2.0415,35.4848 C1.8142,35.9145 2.1540,36.2670 2.5650,36.2588 C2.5762,36.2588 2.6055,36.2528 2.6430,36.2453 L2.6490,36.2588 C2.6490,36.2588 2.7937,36.2205 3.0405,36.1560 C3.5947,36.0255 4.4332,35.8133 4.4737,35.7945 C4.4760,35.7945 4.4737,35.7870 4.4737,35.7818 C6.7777,35.1803 10.4895,34.2098 10.8922,34.0995 C11.4817,33.9383 12.3765,33.5370 12.3765,33.5370 C12.1462,33.5738 39.8175,17.4750 39.8175,17.4750 C39.7335,17.5703 39.6375,17.6490 39.5287,17.7060 L44.5065,14.8328 L44.5080,14.8335 L48.8835,12.3068 L48.8805,12.3030 C49.2862,12.1013 49.5397,11.6295 49.5397,10.9418 Z" style="stroke-width: 1.5000; stroke: #8d98b5; stroke-dasharray: none; stroke-linecap: butt; stroke-linejoin: miter; fill: none; "/>
    <path xmlns="http://www.w3.org/2000/svg" d="  M54.2640,37.7513 C54.2640,29.5493 45.4928,22.9005 34.6702,22.9005 C23.8492,22.9005 15.0765,29.5493 15.0765,37.7513 C15.0765,45.3623 22.6335,51.6330 32.3722,52.4963 L32.3722,56.1180 C32.3722,56.4600 32.6460,56.7368 32.9880,56.7368 C33.1515,56.7368 33.2993,56.6738 33.4095,56.5710 L37.3500,52.4588 C46.9035,51.4688 54.2640,45.2633 54.2640,37.7513 Z" style="stroke-width: 1.5000; stroke: #8d98b5; stroke-dasharray: none; stroke-linecap: butt; stroke-linejoin: miter; fill: none; "/>
    <path xmlns="http://www.w3.org/2000/svg" d="  M20.0557,40.3192 L33.0000,32.8530 L32.5695,32.6475 L20.0557,39.7935 L20.0557,40.3192 Z" style="fill-rule: evenodd; fill: #3f3f3f; "/>
    <path xmlns="http://www.w3.org/2000/svg" d="  M20.0557,42.7920 L33.0000,35.3243 L32.5357,35.1045 L20.0557,42.2662 L20.0557,42.7920 Z" style="fill-rule: evenodd; fill: #3f3f3f; "/>
    <path xmlns="http://www.w3.org/2000/svg" d="  M20.0557,45.2640 L33.0000,37.7970 L32.5357,37.5773 L20.0557,44.7367 L20.0557,45.2640 Z" style="fill-rule: evenodd; fill: #3f3f3f; "/>
    <defs xmlns="http://www.w3.org/2000/svg" xmlns:xlink="http://www.w3.org/1999/xlink">
      <linearGradient id="grad3325">
        <stop offset="0%" stop-color="#646c6b" stop-opacity="1.0000"/>
        <stop offset="100%" stop-color="#dae1e1" stop-opacity="1.0000"/>
      </linearGradient>
      <linearGradient xlink:href="#grad3325" id="grad3326" x1="0" y1="0" x2="0" y2="1" gradientTransform="rotate(90 .5 .5)" gradientUnits="objectBoundingBox">
  </linearGradient>
    </defs>
    <path xmlns="http://www.w3.org/2000/svg" d="  M11.7165,18.7035 L0.0000,13.0065 L0.0000,45.5767 L0.5017,45.8707 C0.3930,45.7327 0.2940,45.5940 0.2047,45.4545 L0.2047,31.2840 L0.2047,28.1235 L0.2047,21.3608 L0.2047,14.5440 L10.7962,19.7797 C10.7962,19.7797 10.8367,19.7843 10.8570,19.7858 L10.8570,26.6505 L10.8570,33.3667 L10.8570,36.7252 L10.8570,50.6985 C9.8047,50.6032 8.7412,50.3970 7.7092,50.1037 L11.7172,52.4580 L11.7172,18.7035 L11.7165,18.7035 Z" style="fill-rule: evenodd; fill: url(#grad3326); "/>
    <defs xmlns="http://www.w3.org/2000/svg" xmlns:xlink="http://www.w3.org/1999/xlink">
      <linearGradient id="grad3327">
        <stop offset="0%" stop-color="#85919c" stop-opacity="0.9882"/>
        <stop offset="100%" stop-color="#dadfe1" stop-opacity="0.9882"/>
      </linearGradient>
      <linearGradient xlink:href="#grad3327" id="grad3328" x1="0" y1="0" x2="0" y2="1" gradientTransform="rotate(90 .5 .5)" gradientUnits="objectBoundingBox">
  </linearGradient>
    </defs>
    <path xmlns="http://www.w3.org/2000/svg" d="  M10.4085,36.7185 C10.4085,36.7710 10.3470,36.8153 10.2668,36.8153 C10.2608,36.8153 10.2450,36.8153 10.2450,36.8153 C7.0838,36.8633 2.9603,35.4248 0.6300,31.8615 C0.4718,31.6695 0.3270,31.4760 0.2055,31.2848 L0.2055,45.4553 C0.2948,45.5948 0.3945,45.7335 0.5025,45.8715 C1.8473,47.5913 4.6335,49.2315 7.7093,50.1038 C8.7413,50.3970 9.8048,50.6033 10.8570,50.6985 L10.8570,36.7253 C10.7033,36.7118 10.5488,36.6938 10.3935,36.6758 C10.4025,36.6878 10.4085,36.7035 10.4085,36.7185 Z M10.0920,48.9383 C9.9203,49.4820 9.0240,49.6800 8.0910,49.3853 C7.1565,49.0890 6.5393,48.4095 6.7110,47.8673 C6.8828,47.3243 7.7790,47.1248 8.7135,47.4195 C9.6465,47.7150 10.2645,48.3945 10.0920,48.9383 Z M10.2660,46.7663 C10.2600,46.7663 10.2443,46.7663 10.2443,46.7663 C6.9645,46.8143 2.6505,45.2678 0.3758,41.4053 C0.2108,41.1345 0.4065,41.1593 0.4065,41.1593 C1.8465,43.5938 6.0923,46.1505 10.1873,46.5623 C10.2060,46.5645 10.2653,46.5690 10.2720,46.5690 C10.3523,46.5690 10.4085,46.6170 10.4085,46.6703 C10.4085,46.7205 10.3470,46.7663 10.2660,46.7663 Z M10.2660,43.4498 C10.2600,43.4498 10.2443,43.4498 10.2443,43.4498 C6.9645,43.4978 2.6505,41.9513 0.3758,38.0888 C0.2108,37.8165 0.4065,37.8428 0.4065,37.8428 C1.8465,40.2773 6.0923,42.8348 10.1873,43.2458 C10.2060,43.2473 10.2653,43.2518 10.2720,43.2518 C10.3523,43.2518 10.4085,43.2998 10.4085,43.3538 C10.4085,43.4040 10.3470,43.4498 10.2660,43.4498 Z M10.2660,40.1318 C10.2600,40.1318 10.2443,40.1318 10.2443,40.1318 C6.9645,40.1805 2.6505,38.6340 0.3758,34.7723 C0.2108,34.5000 0.4065,34.5255 0.4065,34.5255 C1.8465,36.9608 6.0923,39.5168 10.1873,39.9285 C10.2060,39.9308 10.2653,39.9353 10.2720,39.9353 C10.3523,39.9353 10.4085,39.9840 10.4085,40.0358 C10.4085,40.0875 10.3470,40.1318 10.2660,40.1318 Z" style="fill-rule: evenodd; fill: url(#grad3328); "/>
    <defs xmlns="http://www.w3.org/2000/svg" xmlns:xlink="http://www.w3.org/1999/xlink">
      <linearGradient id="grad3329">
        <stop offset="0%" stop-color="#85919c" stop-opacity="0.9882"/>
        <stop offset="100%" stop-color="#dadfe1" stop-opacity="0.9882"/>
      </linearGradient>
      <linearGradient xlink:href="#grad3329" id="grad3330" x1="0" y1="0" x2="0" y2="1" gradientTransform="rotate(90 .5 .5)" gradientUnits="objectBoundingBox">
  </linearGradient>
    </defs>
    <path xmlns="http://www.w3.org/2000/svg" d="  M10.1873,26.6617 C10.2060,26.6632 10.2653,26.6677 10.2720,26.6677 C10.3523,26.6677 10.4085,26.7165 10.4085,26.7690 C10.4085,26.8215 10.3470,26.8650 10.2668,26.8650 C10.2608,26.8650 10.2450,26.8657 10.2450,26.8657 C7.1295,26.9122 3.0773,25.5157 0.7305,22.0620 C0.5295,21.8302 0.3525,21.5962 0.2048,21.3622 L0.2048,28.1250 C0.4403,28.4947 0.7485,28.8622 1.1130,29.2230 C0.8490,28.8840 0.6015,28.5232 0.3765,28.1385 C0.2115,27.8662 0.4073,27.8925 0.4073,27.8925 C1.3920,29.5560 3.6870,31.2772 6.3495,32.3318 C7.6028,32.7915 8.9385,33.1313 10.2690,33.3008 C10.2705,33.3008 10.2728,33.3015 10.2735,33.3015 C10.2803,33.3015 10.2855,33.3030 10.2923,33.3045 C10.4603,33.3248 10.6275,33.3443 10.7970,33.3600 C10.8165,33.3615 10.8375,33.3645 10.8578,33.3668 L10.8578,26.6505 C8.4923,26.4382 6.0690,25.6530 4.0860,24.5917 C5.8808,25.6500 8.0543,26.4472 10.1873,26.6617 Z M10.2660,30.1815 C10.2600,30.1815 10.2443,30.1822 10.2443,30.1822 C6.9645,30.2303 2.6505,28.6838 0.3758,24.8220 C0.2108,24.5490 0.4065,24.5745 0.4065,24.5745 C1.8465,27.0097 6.0923,29.5665 10.1873,29.9790 C10.2060,29.9805 10.2653,29.9850 10.2720,29.9850 C10.3523,29.9850 10.4085,30.0330 10.4085,30.0855 C10.4085,30.1380 10.3470,30.1815 10.2660,30.1815 Z" style="fill-rule: evenodd; fill: url(#grad3330); "/>
    <defs xmlns="http://www.w3.org/2000/svg" xmlns:xlink="http://www.w3.org/1999/xlink">
      <linearGradient id="grad3331">
        <stop offset="0%" stop-color="#c8d8dd" stop-opacity="0.9882"/>
        <stop offset="100%" stop-color="#f3f9f7" stop-opacity="0.9882"/>
      </linearGradient>
      <linearGradient xlink:href="#grad3331" id="grad3332" x1="0" y1="0" x2="0" y2="1" gradientTransform="rotate(90 .5 .5)" gradientUnits="objectBoundingBox">
  </linearGradient>
    </defs>
    <path xmlns="http://www.w3.org/2000/svg" d="  M10.7955,33.3600 C10.6260,33.3443 10.4588,33.3248 10.2908,33.3045 C10.3605,33.3120 10.4078,33.3540 10.4078,33.4028 C10.4078,33.4545 10.3463,33.4995 10.2660,33.4995 C10.2600,33.4995 10.2443,33.4995 10.2443,33.4995 C7.2915,33.5438 3.4988,32.2928 1.1123,29.2230 C0.7478,28.8630 0.4403,28.4948 0.2040,28.1250 L0.2040,31.2855 C0.3255,31.4768 0.4703,31.6703 0.6285,31.8623 C0.5423,31.7295 0.4560,31.5953 0.3750,31.4565 C0.2100,31.1835 0.4058,31.2090 0.4058,31.2090 C1.2668,32.6648 3.1305,34.1633 5.3655,35.2230 C6.4350,35.7300 7.5900,36.1343 8.7608,36.3863 C9.2355,36.4875 9.7118,36.5648 10.1858,36.6135 C10.2045,36.6150 10.2638,36.6195 10.2705,36.6195 C10.3268,36.6195 10.3703,36.6443 10.3913,36.6765 C10.5465,36.6945 10.7010,36.7133 10.8548,36.7260 L10.8548,33.3675 C10.8360,33.3638 10.8158,33.3608 10.7955,33.3600 Z" style="fill-rule: evenodd; fill: url(#grad3332); "/>
    <defs xmlns="http://www.w3.org/2000/svg" xmlns:xlink="http://www.w3.org/1999/xlink">
      <linearGradient id="grad3333">
        <stop offset="0%" stop-color="#bdd1dd" stop-opacity="0.9882"/>
        <stop offset="100%" stop-color="#f3f9f7" stop-opacity="0.9882"/>
      </linearGradient>
      <linearGradient xlink:href="#grad3333" id="grad3334" x1="0" y1="0" x2="0" y2="1" gradientTransform="rotate(90 .5 .5)" gradientUnits="objectBoundingBox">
  </linearGradient>
    </defs>
    <path xmlns="http://www.w3.org/2000/svg" d="  M10.7955,19.7798 L0.2040,14.5440 L0.2040,21.3623 C0.3517,21.5963 0.5295,21.8303 0.7297,22.0620 C0.6067,21.8820 0.4882,21.6975 0.3750,21.5055 C0.2100,21.2333 0.4057,21.2588 0.4057,21.2588 C1.0957,22.4250 2.4307,23.6190 4.0837,24.5925 C6.0675,25.6538 8.4900,26.4390 10.8555,26.6513 L10.8555,19.7865 C10.8360,19.7835 10.7955,19.7798 10.7955,19.7798 Z M0.5632,15.4493 L10.5345,20.3783 C5.5897,23.1113 0.7530,18.7035 0.5632,15.4493 Z" style="fill-rule: evenodd; fill: url(#grad3334); "/>
    <path xmlns="http://www.w3.org/2000/svg" d="  M10.2720,46.5683 C10.2653,46.5683 10.2060,46.5638 10.1873,46.5615 C6.0923,46.1498 1.8465,43.5930 0.4065,41.1585 C0.4065,41.1585 0.2108,41.1338 0.3758,41.4045 C2.6505,45.2670 6.9645,46.8143 10.2443,46.7655 C10.2443,46.7655 10.2600,46.7655 10.2660,46.7655 C10.3463,46.7655 10.4078,46.7198 10.4078,46.6688 C10.4085,46.6163 10.3523,46.5683 10.2720,46.5683 Z" style="fill-rule: evenodd; fill: #000000; "/>
    <path xmlns="http://www.w3.org/2000/svg" d="  M10.2720,43.2510 C10.2653,43.2510 10.2060,43.2465 10.1873,43.2450 C6.0923,42.8340 1.8465,40.2765 0.4065,37.8420 C0.4065,37.8420 0.2108,37.8157 0.3758,38.0880 C2.6505,41.9505 6.9645,43.4977 10.2443,43.4490 C10.2443,43.4490 10.2600,43.4490 10.2660,43.4490 C10.3463,43.4490 10.4078,43.4032 10.4078,43.3522 C10.4085,43.2990 10.3523,43.2510 10.2720,43.2510 Z" style="fill-rule: evenodd; fill: #000000; "/>
    <path xmlns="http://www.w3.org/2000/svg" d="  M10.2720,39.9345 C10.2653,39.9345 10.2060,39.9300 10.1873,39.9278 C6.0923,39.5160 1.8465,36.9600 0.4065,34.5248 C0.4065,34.5248 0.2108,34.4993 0.3758,34.7715 C2.6505,38.6333 6.9645,40.1805 10.2443,40.1310 C10.2443,40.1310 10.2600,40.1310 10.2660,40.1310 C10.3463,40.1310 10.4078,40.0868 10.4078,40.0343 C10.4085,39.9840 10.3523,39.9345 10.2720,39.9345 Z" style="fill-rule: evenodd; fill: #000000; "/>
    <path xmlns="http://www.w3.org/2000/svg" d="  M10.3928,36.6743 C9.8483,36.6083 9.3023,36.5100 8.7615,36.3840 C7.5900,36.1320 6.4350,35.7278 5.3663,35.2208 C3.1313,34.1618 1.2675,32.6633 0.4065,31.2068 C0.4065,31.2068 0.2108,31.1813 0.3758,31.4543 C0.4560,31.5930 0.5430,31.7273 0.6293,31.8600 C2.9595,35.4240 7.0830,36.8625 10.2443,36.8138 C10.2443,36.8138 10.2600,36.8138 10.2660,36.8138 C10.3463,36.8138 10.4078,36.7695 10.4078,36.7170 C10.4085,36.7035 10.4025,36.6878 10.3928,36.6743 Z" style="fill-rule: evenodd; fill: #000000; "/>
    <path xmlns="http://www.w3.org/2000/svg" d="  M10.2908,33.3037 C10.2833,33.3022 10.2750,33.3022 10.2675,33.3000 C10.2540,33.2993 10.2045,33.2963 10.1873,33.2947 C8.8920,33.1635 7.5810,32.8185 6.3488,32.3310 C3.6863,31.2765 1.3913,29.5552 0.4065,27.8917 C0.4065,27.8917 0.2108,27.8655 0.3758,28.1377 C0.6015,28.5225 0.8490,28.8832 1.1123,29.2222 C3.4988,32.2920 7.2915,33.5430 10.2443,33.4987 C10.2443,33.4987 10.2600,33.4987 10.2660,33.4987 C10.3463,33.4987 10.4078,33.4537 10.4078,33.4020 C10.4085,33.3540 10.3605,33.3112 10.2908,33.3037 Z" style="fill-rule: evenodd; fill: #000000; "/>
    <path xmlns="http://www.w3.org/2000/svg" d="  M10.2720,26.6678 C10.2653,26.6678 10.2060,26.6640 10.1873,26.6618 C8.0543,26.4473 5.8815,25.6500 4.0845,24.5918 C2.4315,23.6190 1.0965,22.4243 0.4065,21.2580 C0.4065,21.2580 0.2108,21.2318 0.3758,21.5048 C0.4883,21.6968 0.6075,21.8813 0.7305,22.0613 C3.0773,25.5150 7.1288,26.9115 10.2450,26.8650 C10.2450,26.8650 10.2608,26.8643 10.2668,26.8643 C10.3470,26.8643 10.4085,26.8208 10.4085,26.7683 C10.4085,26.7158 10.3523,26.6678 10.2720,26.6678 Z" style="fill-rule: evenodd; fill: #000000; "/>
    <path xmlns="http://www.w3.org/2000/svg" d="  M10.2720,29.9850 C10.2653,29.9850 10.2060,29.9805 10.1873,29.9790 C6.0923,29.5665 1.8465,27.0098 0.4065,24.5745 C0.4065,24.5745 0.2108,24.5490 0.3758,24.8220 C2.6505,28.6838 6.9645,30.2310 10.2443,30.1823 C10.2443,30.1823 10.2600,30.1815 10.2660,30.1815 C10.3463,30.1815 10.4078,30.1365 10.4078,30.0848 C10.4078,30.0330 10.3523,29.9850 10.2720,29.9850 Z" style="fill-rule: evenodd; fill: #000000; "/>
    <defs xmlns="http://www.w3.org/2000/svg">
      <linearGradient id="grad3335">
        <stop offset="0%" stop-color="#646c6b" stop-opacity="1.0000"/>
        <stop offset="100%" stop-color="#dae1e1" stop-opacity="1.0000"/>
      </linearGradient>
    </defs>
    <path xmlns="http://www.w3.org/2000/svg" d="  M8.7135,47.4195 C7.7790,47.1240 6.8827,47.3243 6.7110,47.8673 C6.5392,48.4103 7.1565,49.0898 8.0910,49.3853 C9.0240,49.6808 9.9202,49.4820 10.0920,48.9383 C10.2645,48.3945 9.6465,47.7150 8.7135,47.4195 Z M9.4177,49.2345 C9.0705,49.5623 8.4712,49.4873 8.0790,49.0695 C7.9515,48.9345 7.8630,48.7808 7.8112,48.6225 C7.7775,48.5190 7.7617,48.4163 7.7595,48.3150 C7.7572,48.0877 7.8352,47.8747 7.9957,47.7233 C8.3430,47.3963 8.9422,47.4705 9.3345,47.8883 C9.7282,48.3060 9.7650,48.9090 9.4177,49.2345 Z" style="fill-rule: evenodd; fill: url(#grad3335); "/>
    <path xmlns="http://www.w3.org/2000/svg" d="  M7.9958,47.7240 C7.8345,47.8755 7.7573,48.0885 7.7595,48.3158 C7.7663,48.1545 7.8263,48.0038 7.9425,47.8943 C8.0355,47.8073 8.1533,47.7570 8.2785,47.7428 C8.5290,47.6798 8.8260,47.7660 9.0383,47.9918 C9.3278,48.2978 9.3510,48.7455 9.0968,49.0028 C9.0810,49.0245 9.0623,49.0455 9.0420,49.0643 C8.7743,49.3163 8.3108,49.2593 8.0070,48.9360 C7.9170,48.8415 7.8525,48.7328 7.8113,48.6233 C7.8630,48.7815 7.9523,48.9353 8.0790,49.0703 C8.4713,49.4880 9.0705,49.5623 9.4178,49.2353 C9.7650,48.9090 9.7283,48.3068 9.3345,47.8890 C8.9423,47.4713 8.3430,47.3970 7.9958,47.7240 Z" style="fill-rule: evenodd; fill: #000000; "/>
    <defs xmlns="http://www.w3.org/2000/svg">
      <radialGradient id="grad3336" cx="100.0000%" cy="100.0000%" r="100.0000%">
        <stop offset="0%" stop-color="#ccff66" stop-opacity="1.0000"/>
        <stop offset="100%" stop-color="#7ab04a" stop-opacity="1.0000"/>
      </radialGradient>
    </defs>
    <path xmlns="http://www.w3.org/2000/svg" d="  M9.0412,49.0643 C9.0615,49.0455 9.0802,49.0245 9.0960,49.0028 C9.3502,48.7455 9.3270,48.2985 9.0375,47.9918 C8.8260,47.7660 8.5282,47.6798 8.2777,47.7428 C8.1525,47.7578 8.0347,47.8073 7.9417,47.8943 C7.8255,48.0038 7.7655,48.1545 7.7587,48.3158 C7.7610,48.4170 7.7767,48.5198 7.8105,48.6233 C7.8517,48.7328 7.9162,48.8415 8.0062,48.9360 C8.3107,49.2593 8.7735,49.3163 9.0412,49.0643 Z" style="fill-rule: evenodd; fill: url(#grad3336); "/>
    <defs xmlns="http://www.w3.org/2000/svg" xmlns:xlink="http://www.w3.org/1999/xlink">
      <linearGradient id="grad3337">
        <stop offset="0%" stop-color="#7f8787" stop-opacity="1.0000"/>
        <stop offset="100%" stop-color="#f3f9f7" stop-opacity="1.0000"/>
      </linearGradient>
      <linearGradient xlink:href="#grad3337" id="grad3338" x1="0" y1="0" x2="0" y2="1" gradientTransform="rotate(315 .5 .5)" gradientUnits="objectBoundingBox">
  </linearGradient>
    </defs>
    <path xmlns="http://www.w3.org/2000/svg" d="  M0.5633,15.4493 C0.7530,18.7035 5.5898,23.1113 10.5345,20.3783 L0.5633,15.4493 Z M2.4735,16.5195 L8.8493,19.6440 C5.6258,21.2430 2.5575,18.5010 2.4735,16.5195 Z" style="fill-rule: evenodd; fill: url(#grad3338); "/>
    <defs xmlns="http://www.w3.org/2000/svg">
      <radialGradient id="grad3339" cx="100.0000%" cy="100.0000%" r="100.0000%">
        <stop offset="0%" stop-color="#a7e968" stop-opacity="1.0000"/>
        <stop offset="100%" stop-color="#000000" stop-opacity="1.0000"/>
      </radialGradient>
    </defs>
    <path xmlns="http://www.w3.org/2000/svg" d="  M2.4735,16.5195 C2.5568,18.5010 5.6250,21.2430 8.8492,19.6440 L2.4735,16.5195 Z" style="fill-rule: evenodd; fill: url(#grad3339); "/>
    <defs xmlns="http://www.w3.org/2000/svg" xmlns:xlink="http://www.w3.org/1999/xlink">
      <linearGradient id="grad3340">
        <stop offset="0%" stop-color="#7f8787" stop-opacity="1.0000"/>
        <stop offset="100%" stop-color="#dae1e1" stop-opacity="1.0000"/>
      </linearGradient>
      <linearGradient xlink:href="#grad3340" id="grad3341" x1="0" y1="0" x2="0" y2="1" gradientTransform="rotate(45 .5 .5)" gradientUnits="objectBoundingBox">
  </linearGradient>
    </defs>
    <path xmlns="http://www.w3.org/2000/svg" d="  M11.7443,18.6772 L11.7248,18.6675 L11.7248,52.2412 L33.0000,40.2330 L33.0000,37.8270 L20.0558,45.2640 L20.0558,44.7368 L32.5358,37.5772 L33.0000,37.3110 L33.0000,35.3550 L20.0558,42.7920 L20.0558,42.2663 L32.5358,35.1045 L33.0000,34.8390 L33.0000,32.8823 L20.0558,40.3192 L20.0558,39.7935 L32.5695,32.6475 L33.0000,32.4015 L33.0000,6.2663 L30.1455,7.9058 L11.7443,18.6772 Z" style="fill-rule: evenodd; fill: url(#grad3341); "/>
    <defs xmlns="http://www.w3.org/2000/svg" xmlns:xlink="http://www.w3.org/1999/xlink">
      <linearGradient id="grad3342">
        <stop offset="0%" stop-color="#7f8787" stop-opacity="1.0000"/>
        <stop offset="100%" stop-color="#f3f9f7" stop-opacity="1.0000"/>
      </linearGradient>
      <linearGradient xlink:href="#grad3342" id="grad3343" x1="0" y1="0" x2="0" y2="1" gradientTransform="rotate(90 .5 .5)" gradientUnits="objectBoundingBox">
  </linearGradient>
    </defs>
    <path xmlns="http://www.w3.org/2000/svg" d="  M22.6283,0.0000 L0.1087,12.9990 L11.7248,18.6675 L33.0000,6.2348 L22.6283,0.0000 Z" style="fill-rule: evenodd; fill: url(#grad3343); "/>
    <defs xmlns="http://www.w3.org/2000/svg" xmlns:xlink="http://www.w3.org/1999/xlink">
      <linearGradient id="grad3344">
        <stop offset="0%" stop-color="#fcd67d" stop-opacity="1.0000"/>
        <stop offset="100%" stop-color="#fcf4b8" stop-opacity="1.0000"/>
      </linearGradient>
      <linearGradient xlink:href="#grad3344" id="grad3345" x1="0" y1="0" x2="0" y2="1" gradientTransform="rotate(180 .5 .5)" gradientUnits="objectBoundingBox">
  </linearGradient>
    </defs>
    <path xmlns="http://www.w3.org/2000/svg" d="  M45.4800,14.2283 L10.9342,34.0440 L7.7505,29.7428 L8.6400,28.7963 L42.7912,9.0983 L45.4800,14.2283 Z" style="fill-rule: evenodd; fill: url(#grad3345); "/>
    <path xmlns="http://www.w3.org/2000/svg" d="  M43.2105,14.2253 L10.1400,33.5153 L10.7175,33.9233 L12.3210,33.5543 L43.7798,15.2100 L43.2105,14.2253 Z" style="fill-rule: evenodd; fill: #ac8344; "/>
    <defs xmlns="http://www.w3.org/2000/svg" xmlns:xlink="http://www.w3.org/1999/xlink">
      <linearGradient id="grad3346">
        <stop offset="0%" stop-color="#fcd67d" stop-opacity="1.0000"/>
        <stop offset="100%" stop-color="#ca9747" stop-opacity="1.0000"/>
      </linearGradient>
      <linearGradient xlink:href="#grad3346" id="grad3347" x1="0" y1="0" x2="0" y2="1" gradientTransform="rotate(45 .5 .5)" gradientUnits="objectBoundingBox">
  </linearGradient>
    </defs>
    <path xmlns="http://www.w3.org/2000/svg" d="  M40.2600,10.5592 L8.6460,28.7707 C8.6460,28.7707 8.0475,29.6115 8.2912,30.0210 C8.5357,30.4305 9.0075,30.4050 9.0075,30.4050 L41.0527,11.9310 L40.2600,10.5592 Z" style="fill-rule: evenodd; fill: url(#grad3347); "/>
    <defs xmlns="http://www.w3.org/2000/svg" xmlns:xlink="http://www.w3.org/1999/xlink">
      <linearGradient id="grad3348">
        <stop offset="0%" stop-color="#f38484" stop-opacity="1.0000"/>
        <stop offset="100%" stop-color="#993333" stop-opacity="1.0000"/>
      </linearGradient>
      <linearGradient xlink:href="#grad3348" id="grad3349" x1="0" y1="0" x2="0" y2="1" gradientTransform="rotate(315 .5 .5)" gradientUnits="objectBoundingBox">
  </linearGradient>
    </defs>
    <path xmlns="http://www.w3.org/2000/svg" d="  M47.4765,7.3688 C46.8810,7.0253 46.3463,7.0088 45.9698,7.2578 L45.9668,7.2540 L41.5913,9.7808 L44.5095,14.8343 L48.8850,12.3075 L48.8820,12.3038 C49.2863,12.1020 49.5398,11.6310 49.5398,10.9433 C49.5398,9.6263 48.6173,8.0265 47.4765,7.3688 Z" style="fill-rule: evenodd; fill: url(#grad3349); "/>
    <defs xmlns="http://www.w3.org/2000/svg" xmlns:xlink="http://www.w3.org/1999/xlink">
      <linearGradient id="grad3350">
        <stop offset="0%" stop-color="#7f8787" stop-opacity="1.0000"/>
        <stop offset="100%" stop-color="#f3f9f7" stop-opacity="1.0000"/>
      </linearGradient>
      <linearGradient xlink:href="#grad3350" id="grad3351" x1="0" y1="0" x2="0" y2="1" gradientTransform="rotate(135 .5 .5)" gradientUnits="objectBoundingBox">
  </linearGradient>
    </defs>
    <path xmlns="http://www.w3.org/2000/svg" d="  M46.3253,12.7980 C46.3253,11.4825 45.4020,9.8820 44.2620,9.2250 C43.6658,8.8815 43.1310,8.8650 42.7545,9.1140 L42.7515,9.1102 L36.6195,12.6517 C36.9938,12.4170 37.5218,12.4417 38.1060,12.7792 C39.2460,13.4370 40.1693,15.0367 40.1693,16.3522 C40.1693,17.0302 39.9240,17.5005 39.5295,17.7067 L45.6690,14.1637 L45.6675,14.1600 C46.0710,13.9567 46.3253,13.4857 46.3253,12.7980 Z" style="fill-rule: evenodd; fill: url(#grad3351); "/>
    <defs xmlns="http://www.w3.org/2000/svg" xmlns:xlink="http://www.w3.org/1999/xlink">
      <linearGradient id="grad3352">
        <stop offset="0%" stop-color="#ffffff" stop-opacity="1.0000"/>
        <stop offset="100%" stop-color="#7f8787" stop-opacity="1.0000"/>
      </linearGradient>
      <linearGradient xlink:href="#grad3352" id="grad3353" x1="0" y1="0" x2="0" y2="1" gradientTransform="rotate(135 .5 .5)" gradientUnits="objectBoundingBox">
  </linearGradient>
    </defs>
    <path xmlns="http://www.w3.org/2000/svg" d="  M45.6683,14.1593 C46.0710,13.9568 46.3253,13.4865 46.3253,12.7988 C46.3253,12.6855 46.3155,12.5692 46.3028,12.4530 L40.1475,16.0073 C40.1617,16.1235 40.1700,16.2398 40.1700,16.3523 C40.1700,17.0303 39.9247,17.5005 39.5302,17.7068 L45.6697,14.1638 L45.6683,14.1593 Z" style="fill-rule: evenodd; fill: url(#grad3353); "/>
    <defs xmlns="http://www.w3.org/2000/svg" xmlns:xlink="http://www.w3.org/1999/xlink">
      <linearGradient id="grad3354">
        <stop offset="0%" stop-color="#185927" stop-opacity="1.0000"/>
        <stop offset="100%" stop-color="#367c3c" stop-opacity="1.0000"/>
      </linearGradient>
      <linearGradient xlink:href="#grad3354" id="grad3355" x1="0" y1="0" x2="0" y2="1" gradientTransform="rotate(135 .5 .5)" gradientUnits="objectBoundingBox">
  </linearGradient>
    </defs>
    <path xmlns="http://www.w3.org/2000/svg" d="  M41.8297,10.6290 C41.2530,10.2960 40.7325,10.2683 40.3582,10.4933 C40.0942,10.6523 39.0810,11.2275 38.8095,11.3865 C39.1822,11.1690 39.6997,11.1998 40.2705,11.5290 C41.4112,12.1868 42.3345,13.7865 42.3345,15.1020 C42.3345,15.7597 42.1035,16.2218 41.7292,16.4378 C42.0015,16.2810 43.0132,15.6930 43.2832,15.5393 C43.6597,15.3255 43.8930,14.8628 43.8930,14.2020 C43.8930,12.8865 42.9705,11.2868 41.8297,10.6290 Z" style="fill-rule: evenodd; fill: url(#grad3355); "/>
    <defs xmlns="http://www.w3.org/2000/svg" xmlns:xlink="http://www.w3.org/1999/xlink">
      <linearGradient id="grad3356">
        <stop offset="0%" stop-color="#ac562d" stop-opacity="1.0000"/>
        <stop offset="100%" stop-color="#ebc8a7" stop-opacity="1.0000"/>
      </linearGradient>
      <linearGradient xlink:href="#grad3356" id="grad3357" x1="0" y1="0" x2="0" y2="1" gradientTransform="rotate(135 .5 .5)" gradientUnits="objectBoundingBox">
  </linearGradient>
    </defs>
    <path xmlns="http://www.w3.org/2000/svg" d="  M12.3787,33.5370 C11.5680,33.6660 11.3827,33.2850 11.2425,32.8170 C11.0535,32.1878 12.2085,31.2810 11.8350,30.6345 C11.4615,29.9880 10.1497,30.0188 9.1672,29.9715 C8.5327,29.9415 8.4525,29.1180 8.6587,28.7573 L2.2102,35.2538 L2.6497,36.2588 C2.6497,36.2588 10.3042,34.2615 10.8930,34.0995 C11.4832,33.9383 12.3787,33.5370 12.3787,33.5370 Z" style="fill-rule: evenodd; fill: url(#grad3357); "/>
    <path xmlns="http://www.w3.org/2000/svg" d="  M4.7670,35.2643 C4.7670,34.7918 4.4347,34.2172 4.0260,33.9810 C3.8032,33.8535 3.6067,33.8550 3.4710,33.9562 C3.4687,33.9518 3.4642,33.9442 3.4642,33.9442 L2.2402,35.2230 C2.2402,35.2230 2.1052,35.3677 2.0422,35.4847 C1.8150,35.9145 2.1547,36.2670 2.5657,36.2587 C2.6745,36.2565 4.4167,35.8222 4.4752,35.7945 C4.4797,35.7930 4.4790,35.7840 4.4767,35.7720 C4.6530,35.7158 4.7670,35.5395 4.7670,35.2643 Z" style="fill-rule: evenodd; fill: #333333; "/>
    <defs xmlns="http://www.w3.org/2000/svg">
      <radialGradient id="grad3358" cx="50.0000%" cy="50.0000%" r="100.0000%">
        <stop offset="0%" stop-color="#fcd57a" stop-opacity="1.0000"/>
        <stop offset="100%" stop-color="#dfc487" stop-opacity="1.0000"/>
      </radialGradient>
    </defs>
    <path xmlns="http://www.w3.org/2000/svg" d="  M54.2640,37.7513 C54.2640,29.5493 45.4928,22.9005 34.6702,22.9005 C23.8492,22.9005 15.0765,29.5493 15.0765,37.7513 C15.0765,45.3623 22.6335,51.6330 32.3722,52.4962 L32.3722,56.1180 C32.3722,56.4600 32.6460,56.7368 32.9880,56.7368 C33.1515,56.7368 33.2993,56.6738 33.4095,56.5710 L37.3500,52.4588 C46.9035,51.4688 54.2640,45.2632 54.2640,37.7513 Z" style="fill-rule: evenodd; fill: url(#grad3358); "/>
    <defs xmlns="http://www.w3.org/2000/svg">
      <radialGradient id="grad3359" cx="50.0000%" cy="50.0000%" r="100.0000%">
        <stop offset="0%" stop-color="#fff8aa" stop-opacity="1.0000"/>
        <stop offset="100%" stop-color="#ffe28c" stop-opacity="1.0000"/>
      </radialGradient>
    </defs>
    <path xmlns="http://www.w3.org/2000/svg" d="  M33.1965,55.6005 L33.1965,52.4962 L33.1965,51.7418 L32.4442,51.6743 C23.0130,50.8372 15.9008,44.8508 15.9008,37.7512 C15.9008,30.0173 24.3210,23.7255 34.6695,23.7255 C45.0180,23.7255 53.4375,30.0173 53.4375,37.7512 C53.4375,44.7120 46.4843,50.6827 37.2638,51.6383 L36.9623,51.6705 L36.7530,51.8880 L33.1965,55.6005 Z" style="fill-rule: evenodd; fill: url(#grad3359); "/>
    <defs xmlns="http://www.w3.org/2000/svg">
      <radialGradient id="grad3360" cx="50.0000%" cy="50.0000%" r="100.0000%">
        <stop offset="0%" stop-color="#fdf8ea" stop-opacity="1.0000"/>
        <stop offset="100%" stop-color="#ffe28c" stop-opacity="1.0000"/>
      </radialGradient>
    </defs>
    <path xmlns="http://www.w3.org/2000/svg" d="  M16.5255,34.1625 C18.6525,28.1618 25.9808,23.7255 34.6703,23.7255 C45.0195,23.7255 53.4390,30.0180 53.4390,37.7513 C53.3745,40.5600 42.3383,35.5643 34.3215,35.5643 C26.4143,35.5643 13.7190,42.0533 16.5255,34.1625 Z" style="fill-rule: evenodd; fill: url(#grad3360); "/>
    <path xmlns="http://www.w3.org/2000/svg" d="  M24.3577,31.7355 L44.9827,31.7355 L44.9827,30.9105 L24.3577,30.9105 L24.3577,31.7355 Z" style="fill-rule: evenodd; fill: #8d98b5; "/>
    <path xmlns="http://www.w3.org/2000/svg" d="  M24.3577,34.8293 L44.9827,34.8293 L44.9827,34.0043 L24.3577,34.0043 L24.3577,34.8293 Z" style="fill-rule: evenodd; fill: #8d98b5; "/>
    <path xmlns="http://www.w3.org/2000/svg" d="  M24.3577,41.0168 L44.9827,41.0168 L44.9827,40.1918 L24.3577,40.1918 L24.3577,41.0168 Z" style="fill-rule: evenodd; fill: #8d98b5; "/>
    <path xmlns="http://www.w3.org/2000/svg" d="  M24.3577,37.9230 L44.9827,37.9230 L44.9827,37.0980 L24.3577,37.0980 L24.3577,37.9230 Z" style="fill-rule: evenodd; fill: #8d98b5; "/>
    <path xmlns="http://www.w3.org/2000/svg" d="  M24.3577,44.1105 L44.9827,44.1105 L44.9827,43.2855 L24.3577,43.2855 L24.3577,44.1105 Z" style="fill-rule: evenodd; fill: #8d98b5; "/>
    <!--converted by libvisio2svg-->
  </g>
</svg>
