<svg xmlns="http://www.w3.org/2000/svg" xmlns:xlink="http://www.w3.org/1999/xlink" version="1.1" width="0.8484000000" height="0.6078000000" viewBox="0 0 61.0860 43.7625">
  <title><![CDATA[Load Balancer 3D]]></title>
  <g transform=" scale(1.000000) ">
    <path xmlns="http://www.w3.org/2000/svg" d="  M61.0785,29.3145 C61.0770,29.0932 61.0785,23.3610 61.0717,23.2830 C61.0478,22.5390 60.4897,22.2743 60.4897,22.2743 L59.2605,21.5700 L59.2627,21.5663 L22.2908,0.2408 C22.2908,0.2408 21.9622,0.0008 21.4440,0.0157 C21.0165,0.0293 20.6933,0.2408 20.6933,0.2408 L8.3632,7.4108 L8.3528,7.4055 L0.7470,11.6580 C0.3105,11.8230 0.0000,12.2438 0.0000,12.7372 L0.0233,20.5275 C0.0233,21.1853 0.3607,21.5355 0.9855,21.9225 L37.2630,43.3800 C37.6680,43.5990 38.1352,43.3485 38.1788,43.3208 L45.7815,38.8763 C45.7800,38.8995 45.7777,38.9152 45.7777,38.9152 L60.4905,30.5355 C61.0230,30.2310 61.0860,30.0525 61.0785,29.3145 Z" style="stroke-width: 1.5000; stroke: #8d98b5; stroke-dasharray: none; stroke-linecap: butt; stroke-linejoin: miter; fill: none; "/>
    <defs xmlns="http://www.w3.org/2000/svg" xmlns:xlink="http://www.w3.org/1999/xlink">
      <linearGradient id="grad3859">
        <stop offset="0%" stop-color="#384959" stop-opacity="1.0000"/>
        <stop offset="100%" stop-color="#708ca0" stop-opacity="1.0000"/>
      </linearGradient>
      <linearGradient xlink:href="#grad3859" id="grad3860" x1="0" y1="0" x2="0" y2="1" gradientTransform="rotate(135 .5 .5)" gradientUnits="objectBoundingBox">
  </linearGradient>
    </defs>
    <path xmlns="http://www.w3.org/2000/svg" d="  M8.3528,7.4047 L0.7373,11.6632 L36.4372,32.8867 L44.2883,28.9747 L8.3528,7.4047 Z" style="fill-rule: evenodd; fill: url(#grad3860); "/>
    <defs xmlns="http://www.w3.org/2000/svg" xmlns:xlink="http://www.w3.org/1999/xlink">
      <linearGradient id="grad3861">
        <stop offset="0%" stop-color="#384959" stop-opacity="1.0000"/>
        <stop offset="100%" stop-color="#384959" stop-opacity="1.0000"/>
      </linearGradient>
      <linearGradient xlink:href="#grad3861" id="grad3862" x1="0" y1="0" x2="0" y2="1" gradientTransform="rotate(135 .5 .5)" gradientUnits="objectBoundingBox">
  </linearGradient>
    </defs>
    <path xmlns="http://www.w3.org/2000/svg" d="  M38.5192,42.7358 C38.5192,42.7358 38.3130,38.1885 38.3130,34.8023 C38.3130,33.9795 37.9012,33.7530 37.9012,33.7530 L36.4372,32.8875 L36.3885,32.9123 L37.8885,33.7943 C37.8885,33.7943 38.3002,34.0215 38.3002,34.8428 C38.3002,38.2298 38.4795,42.3563 38.4795,42.3563 C38.4795,42.3563 38.5635,42.8693 38.0812,43.3748 C38.4765,43.1100 38.5192,42.7358 38.5192,42.7358 Z" style="fill-rule: evenodd; fill: url(#grad3862); "/>
    <defs xmlns="http://www.w3.org/2000/svg" xmlns:xlink="http://www.w3.org/1999/xlink">
      <linearGradient id="grad3863">
        <stop offset="0%" stop-color="#384959" stop-opacity="1.0000"/>
        <stop offset="100%" stop-color="#384959" stop-opacity="1.0000"/>
      </linearGradient>
      <linearGradient xlink:href="#grad3863" id="grad3864" x1="0" y1="0" x2="0" y2="1" gradientTransform="rotate(135 .5 .5)" gradientUnits="objectBoundingBox">
  </linearGradient>
    </defs>
    <path xmlns="http://www.w3.org/2000/svg" d="  M46.1872,30.5573 C46.1077,30.1920 45.9600,29.9977 45.8422,29.8972 L44.2237,28.9755 L36.3727,32.8875 L37.8375,33.7530 C37.8375,33.7530 38.2492,33.9803 38.2492,34.8023 C38.2492,38.1885 38.4555,42.7358 38.4555,42.7358 C38.4555,42.7358 38.4157,43.1393 38.0205,43.4048 C38.0152,43.4100 38.0182,43.4085 38.0145,43.4138 L46.0642,38.7180 C46.0695,38.5065 46.2090,32.8785 46.2300,31.1790 C46.2337,30.9240 46.2150,30.7215 46.1872,30.5573 Z" style="fill-rule: evenodd; fill: url(#grad3864); "/>
    <defs xmlns="http://www.w3.org/2000/svg" xmlns:xlink="http://www.w3.org/1999/xlink">
      <linearGradient id="grad3865">
        <stop offset="0%" stop-color="#263645" stop-opacity="1.0000"/>
        <stop offset="100%" stop-color="#2b3b4a" stop-opacity="1.0000"/>
      </linearGradient>
      <linearGradient xlink:href="#grad3865" id="grad3866" x1="0" y1="0" x2="0" y2="1" gradientTransform="rotate(135 .5 .5)" gradientUnits="objectBoundingBox">
  </linearGradient>
    </defs>
    <path xmlns="http://www.w3.org/2000/svg" d="  M0.9855,21.9233 C0.3608,21.5363 0.0233,21.1860 0.0233,20.5283 L0.0000,12.7380 C0.0000,12.1005 0.5160,11.5838 1.1528,11.5838 L1.2555,11.5838 L37.7812,33.2025 C38.2605,33.5010 38.7165,33.8483 38.7165,34.5982 L38.7420,42.3743 C38.7420,43.0110 37.9717,43.7625 37.2630,43.3808 L0.9855,21.9233 Z" style="fill-rule: evenodd; fill: url(#grad3866); "/>
    <defs xmlns="http://www.w3.org/2000/svg" xmlns:xlink="http://www.w3.org/1999/xlink">
      <linearGradient id="grad3867">
        <stop offset="0%" stop-color="#ffffff" stop-opacity="1.0000"/>
        <stop offset="100%" stop-color="#7f8787" stop-opacity="1.0000"/>
      </linearGradient>
      <linearGradient xlink:href="#grad3867" id="grad3868" x1="0" y1="0" x2="0" y2="1" gradientTransform="rotate(180 .5 .5)" gradientUnits="objectBoundingBox">
  </linearGradient>
    </defs>
    <path xmlns="http://www.w3.org/2000/svg" d="  M38.3572,42.3750 C38.3572,42.7995 37.9035,43.3343 37.4078,43.0418 L1.1527,21.5768 C0.7155,21.3150 0.4095,21.1237 0.4095,20.5283 L0.3847,12.7365 C0.3847,12.3120 0.8115,11.8125 1.5570,12.2205 L37.5885,33.5355 C38.0587,33.8295 38.3317,34.0770 38.3317,34.5983 L38.3572,42.3750 Z" style="fill-rule: evenodd; fill: url(#grad3868); "/>
    <defs xmlns="http://www.w3.org/2000/svg" xmlns:xlink="http://www.w3.org/1999/xlink">
      <linearGradient id="grad3869">
        <stop offset="0%" stop-color="#a7a8a8" stop-opacity="0.8196"/>
        <stop offset="100%" stop-color="#a7a8a8" stop-opacity="0.8196"/>
      </linearGradient>
      <linearGradient xlink:href="#grad3869" id="grad3870" x1="0" y1="0" x2="0" y2="1" gradientTransform="rotate(135 .5 .5)" gradientUnits="objectBoundingBox">
  </linearGradient>
    </defs>
    <path xmlns="http://www.w3.org/2000/svg" d="  M37.6688,41.0010 C37.6688,41.8155 37.7025,42.4260 36.5835,41.7465 L1.7610,21.2483 C1.3545,20.9760 1.0560,20.7390 1.0560,20.2493 L1.0013,13.6838 C1.0013,13.3350 1.0148,12.7628 1.9313,13.2045 L37.0193,34.0823 C37.4048,34.3230 37.6290,34.5278 37.6290,34.9553 L37.6688,41.0010 Z" style="fill-rule: evenodd; fill: url(#grad3870); "/>
    <defs xmlns="http://www.w3.org/2000/svg" xmlns:xlink="http://www.w3.org/1999/xlink">
      <linearGradient id="grad3871">
        <stop offset="0%" stop-color="#dae1e1" stop-opacity="1.0000"/>
        <stop offset="100%" stop-color="#7f8787" stop-opacity="1.0000"/>
      </linearGradient>
      <linearGradient xlink:href="#grad3871" id="grad3872" x1="0" y1="0" x2="0" y2="1" gradientTransform="rotate(315 .5 .5)" gradientUnits="objectBoundingBox">
  </linearGradient>
    </defs>
    <path xmlns="http://www.w3.org/2000/svg" d="  M22.2908,0.2400 C22.2908,0.2400 21.9623,0.0000 21.4440,0.0150 C21.0165,0.0285 20.6933,0.2400 20.6933,0.2400 L8.2215,7.4918 L44.3190,29.1893 L59.3130,21.5445 L22.2908,0.2400 Z" style="fill-rule: evenodd; fill: url(#grad3872); "/>
    <defs xmlns="http://www.w3.org/2000/svg" xmlns:xlink="http://www.w3.org/1999/xlink">
      <linearGradient id="grad3873">
        <stop offset="0%" stop-color="#a7acac" stop-opacity="1.0000"/>
        <stop offset="100%" stop-color="#7f8787" stop-opacity="1.0000"/>
      </linearGradient>
      <linearGradient xlink:href="#grad3873" id="grad3874" x1="0" y1="0" x2="0" y2="1" gradientTransform="rotate(135 .5 .5)" gradientUnits="objectBoundingBox">
  </linearGradient>
    </defs>
    <path xmlns="http://www.w3.org/2000/svg" d="  M46.0710,31.0440 C46.0710,34.4408 45.7778,38.9153 45.7778,38.9153 L60.4905,30.5355 C61.0230,30.2310 61.0860,30.0518 61.0778,29.3138 C61.0763,29.0925 61.0778,23.3603 61.0710,23.2823 C61.0470,22.5383 60.4890,22.2735 60.4890,22.2735 L59.2778,21.5325 L44.2260,29.1330 L45.6555,29.9918 C45.6555,29.9918 46.0710,30.2190 46.0710,31.0440 Z" style="fill-rule: evenodd; fill: url(#grad3874); "/>
    <defs xmlns="http://www.w3.org/2000/svg" xmlns:xlink="http://www.w3.org/1999/xlink">
      <linearGradient id="grad3875">
        <stop offset="0%" stop-color="#2d3030" stop-opacity="1.0000"/>
        <stop offset="100%" stop-color="#7f8787" stop-opacity="1.0000"/>
      </linearGradient>
      <linearGradient xlink:href="#grad3875" id="grad3876" x1="0" y1="0" x2="0" y2="1" gradientTransform="rotate(135 .5 .5)" gradientUnits="objectBoundingBox">
  </linearGradient>
    </defs>
    <path xmlns="http://www.w3.org/2000/svg" d="  M35.9932,35.0003 C35.9932,35.0003 35.9932,34.9995 35.9932,34.9988 C36.0172,34.4835 35.7262,34.1280 35.4967,34.1280 C35.2680,34.1280 35.0865,34.3005 35.0865,34.6125 C35.0865,34.6485 35.0895,34.6823 35.0947,34.7168 C34.9440,34.7483 34.8165,34.8270 34.7220,34.9493 C34.5682,35.1488 34.5412,35.4195 34.5532,35.5515 L34.5690,39.0743 L34.5697,39.0863 C34.6117,39.7598 34.7527,39.9923 35.0332,40.1940 C35.0167,40.3028 35.0302,40.4213 35.0827,40.5308 C35.2200,40.8165 35.4885,40.8968 35.7270,40.7985 C35.8695,40.7408 35.9820,40.5540 35.9925,40.3148 C36.2347,40.1843 36.3937,39.9443 36.3937,39.7290 L36.3937,36.0555 C36.3937,35.6835 36.2805,35.2733 35.9932,35.0003 Z" style="fill-rule: evenodd; fill: url(#grad3876); "/>
    <defs xmlns="http://www.w3.org/2000/svg" xmlns:xlink="http://www.w3.org/1999/xlink">
      <linearGradient id="grad3877">
        <stop offset="0%" stop-color="#7f8787" stop-opacity="1.0000"/>
        <stop offset="100%" stop-color="#dae1e1" stop-opacity="1.0000"/>
      </linearGradient>
      <linearGradient xlink:href="#grad3877" id="grad3878" x1="0" y1="0" x2="0" y2="1" gradientTransform="rotate(135 .5 .5)" gradientUnits="objectBoundingBox">
  </linearGradient>
    </defs>
    <path xmlns="http://www.w3.org/2000/svg" d="  M35.8552,34.9380 C35.8552,34.9380 35.8552,34.9380 35.8552,34.9365 C35.8800,34.4242 35.5972,34.0702 35.3760,34.0702 C35.1540,34.0702 34.9770,34.2420 34.9770,34.5517 C34.9770,34.5877 34.9807,34.6222 34.9860,34.6560 C34.8405,34.6875 34.7167,34.7655 34.6245,34.8877 C34.4760,35.0857 34.4505,35.3550 34.4617,35.4870 L34.4775,38.9925 L34.4775,39.0045 C34.5187,39.6758 34.6552,39.9060 34.9267,40.1063 C34.9110,40.2158 34.9237,40.3328 34.9755,40.4430 C35.1097,40.7258 35.3662,40.8060 35.5987,40.7093 C35.7390,40.6508 35.8455,40.4648 35.8560,40.2270 C36.0907,40.0965 36.2460,39.8588 36.2460,39.6443 L36.2460,35.9880 C36.2445,35.6182 36.1350,35.2095 35.8552,34.9380 Z" style="fill-rule: evenodd; fill: url(#grad3878); "/>
    <defs xmlns="http://www.w3.org/2000/svg">
      <radialGradient id="grad3879" cx="50.0000%" cy="50.0000%" r="100.0000%">
        <stop offset="0%" stop-color="#f3f9f7" stop-opacity="1.0000"/>
        <stop offset="100%" stop-color="#7f8787" stop-opacity="1.0000"/>
      </radialGradient>
    </defs>
    <path xmlns="http://www.w3.org/2000/svg" d="  M35.5268,34.4445 C35.4885,34.3058 35.3640,34.2195 35.2515,34.2510 C35.1375,34.2825 35.0768,34.4205 35.1150,34.5585 C35.1533,34.6973 35.2770,34.7835 35.3903,34.7528 C35.5043,34.7213 35.5650,34.5833 35.5268,34.4445 Z" style="fill-rule: evenodd; fill: url(#grad3879); "/>
    <defs xmlns="http://www.w3.org/2000/svg">
      <radialGradient id="grad3880" cx="50.0000%" cy="50.0000%" r="100.0000%">
        <stop offset="0%" stop-color="#b7bebd" stop-opacity="1.0000"/>
        <stop offset="100%" stop-color="#4d5252" stop-opacity="1.0000"/>
      </radialGradient>
    </defs>
    <path xmlns="http://www.w3.org/2000/svg" d="  M35.5785,40.2608 C35.5403,40.1228 35.4180,40.0365 35.3040,40.0680 C35.1900,40.0995 35.1300,40.2375 35.1683,40.3755 C35.2065,40.5143 35.3288,40.6005 35.4420,40.5690 C35.5568,40.5375 35.6183,40.4003 35.5785,40.2608 Z" style="fill-rule: evenodd; fill: url(#grad3880); "/>
    <defs xmlns="http://www.w3.org/2000/svg" xmlns:xlink="http://www.w3.org/1999/xlink">
      <linearGradient id="grad3881">
        <stop offset="0%" stop-color="#c8d8dd" stop-opacity="1.0000"/>
        <stop offset="100%" stop-color="#f3f9f7" stop-opacity="1.0000"/>
      </linearGradient>
      <linearGradient xlink:href="#grad3881" id="grad3882" x1="0" y1="0" x2="0" y2="1" gradientTransform="rotate(135 .5 .5)" gradientUnits="objectBoundingBox">
  </linearGradient>
    </defs>
    <path xmlns="http://www.w3.org/2000/svg" d="  M35.3895,40.1655 C35.2575,40.1655 35.1278,40.1243 35.0085,40.0425 C34.6965,39.8288 34.5435,39.6503 34.5030,38.9333 L34.5023,38.9213 L34.4888,35.6490 C34.4775,35.5260 34.5023,35.2740 34.6320,35.0895 C34.7400,34.9388 34.8945,34.8593 35.0828,34.8593 C35.1360,34.8593 35.1923,34.8660 35.2515,34.8795 C35.8470,35.0130 36.0593,35.6063 36.0593,36.1163 L36.0593,39.5303 C36.0593,39.8250 35.7660,40.1655 35.3895,40.1655 Z" style="fill-rule: evenodd; fill: url(#grad3882); "/>
    <defs xmlns="http://www.w3.org/2000/svg" xmlns:xlink="http://www.w3.org/1999/xlink">
      <linearGradient id="grad3883">
        <stop offset="0%" stop-color="#d3dada" stop-opacity="1.0000"/>
        <stop offset="100%" stop-color="#dae1e1" stop-opacity="1.0000"/>
      </linearGradient>
      <linearGradient xlink:href="#grad3883" id="grad3884" x1="0" y1="0" x2="0" y2="1" gradientTransform="rotate(180 .5 .5)" gradientUnits="objectBoundingBox">
  </linearGradient>
    </defs>
    <path xmlns="http://www.w3.org/2000/svg" d="  M35.1638,35.0625 C35.0310,35.0332 34.9320,35.0490 34.8570,35.0902 L34.8570,35.0872 L33.8243,35.6812 L33.8243,35.6835 C33.5213,35.7652 33.5220,36.1980 33.5325,36.2325 L33.5453,39.5460 C33.5850,40.2135 33.7230,40.3140 33.9653,40.4745 C34.1460,40.5945 34.4700,40.6238 34.6058,40.5480 L34.7715,40.4505 L35.5575,39.8858 C35.5703,39.8783 35.5823,39.8723 35.5935,39.8655 L35.5943,39.8648 C35.7285,39.7793 35.8170,39.6368 35.8170,39.5198 L35.8170,36.0757 C35.8163,35.8372 35.7458,35.1900 35.1638,35.0625 Z" style="fill-rule: evenodd; fill: url(#grad3884); "/>
    <defs xmlns="http://www.w3.org/2000/svg" xmlns:xlink="http://www.w3.org/1999/xlink">
      <linearGradient id="grad3885">
        <stop offset="0%" stop-color="#c8d8dd" stop-opacity="1.0000"/>
        <stop offset="100%" stop-color="#f3f9f7" stop-opacity="1.0000"/>
      </linearGradient>
      <linearGradient xlink:href="#grad3885" id="grad3886" x1="0" y1="0" x2="0" y2="1" gradientTransform="rotate(315 .5 .5)" gradientUnits="objectBoundingBox">
  </linearGradient>
    </defs>
    <path xmlns="http://www.w3.org/2000/svg" d="  M34.3462,40.5967 C34.2225,40.5967 34.1032,40.5585 33.9907,40.4820 C33.6967,40.2817 33.5550,40.1152 33.5175,39.4455 L33.5167,39.4335 L33.5047,36.3735 C33.4942,36.2587 33.5160,36.0232 33.6390,35.8507 C33.7387,35.7097 33.8850,35.6355 34.0597,35.6355 C34.1092,35.6355 34.1632,35.6422 34.2165,35.6542 C34.7745,35.7795 34.9725,36.3337 34.9725,36.8115 L34.9725,40.0035 C34.9725,40.2780 34.6995,40.5967 34.3462,40.5967 Z" style="fill-rule: evenodd; fill: url(#grad3886); "/>
    <path xmlns="http://www.w3.org/2000/svg" d="  M34.7865,40.0035 C34.7865,40.2315 34.4453,40.5623 34.0928,40.3223 C33.8685,40.1693 33.7395,40.0733 33.7020,39.4335 L33.6900,36.3660 C33.6780,36.3263 33.6780,35.7285 34.1768,35.8418 C34.7205,35.9633 34.7858,36.5843 34.7858,36.8115 L34.7858,40.0035 L34.7865,40.0035 Z" style="fill-rule: evenodd; fill: #233463; "/>
    <defs xmlns="http://www.w3.org/2000/svg" xmlns:xlink="http://www.w3.org/1999/xlink">
      <linearGradient id="grad3887">
        <stop offset="0%" stop-color="#2e4495" stop-opacity="1.0000"/>
        <stop offset="100%" stop-color="#18579c" stop-opacity="1.0000"/>
      </linearGradient>
      <linearGradient xlink:href="#grad3887" id="grad3888" x1="0" y1="0" x2="0" y2="1" gradientTransform="rotate(315 .5 .5)" gradientUnits="objectBoundingBox">
  </linearGradient>
    </defs>
    <path xmlns="http://www.w3.org/2000/svg" d="  M34.6882,39.9120 C34.6882,40.1287 34.4047,40.4437 34.1107,40.2142 C33.9232,40.0702 33.8160,39.9780 33.7860,39.3712 L33.7755,36.4605 C33.7650,36.4230 33.7650,35.8552 34.1812,35.9625 C34.6335,36.0780 34.6875,36.6667 34.6875,36.8842 L34.6875,39.9120 L34.6882,39.9120 Z" style="fill-rule: evenodd; fill: url(#grad3888); "/>
    <defs xmlns="http://www.w3.org/2000/svg">
      <radialGradient id="grad3889" cx="50.0000%" cy="50.0000%" r="100.0000%">
        <stop offset="0%" stop-color="#f3f9f7" stop-opacity="1.0000"/>
        <stop offset="100%" stop-color="#7f8787" stop-opacity="1.0000"/>
      </radialGradient>
    </defs>
    <path xmlns="http://www.w3.org/2000/svg" d="  M34.0185,39.3127 C33.9983,39.2400 33.9338,39.1950 33.8753,39.2115 C33.8153,39.2272 33.7838,39.3000 33.8033,39.3720 C33.8243,39.4455 33.8888,39.4890 33.9473,39.4732 C34.0058,39.4575 34.0388,39.3840 34.0185,39.3127 Z M33.9300,39.4267 C33.8903,39.4380 33.8468,39.4072 33.8340,39.3585 C33.8198,39.3105 33.8415,39.2617 33.8813,39.2505 C33.9210,39.2392 33.9645,39.2692 33.9780,39.3187 C33.9908,39.3675 33.9705,39.4155 33.9300,39.4267 Z" style="fill-rule: evenodd; fill: url(#grad3889); "/>
    <path xmlns="http://www.w3.org/2000/svg" d="  M33.8727,39.2582 A0.0907,0.0735 74.5615 1,1 33.8260,39.3653 A0.0907,0.0735 74.5615 0,1 33.8727,39.2582 Z" style="fill-rule: evenodd; fill: #000000; "/>
    <defs xmlns="http://www.w3.org/2000/svg">
      <radialGradient id="grad3890" cx="50.0000%" cy="50.0000%" r="100.0000%">
        <stop offset="0%" stop-color="#f3f9f7" stop-opacity="1.0000"/>
        <stop offset="100%" stop-color="#7f8787" stop-opacity="1.0000"/>
      </radialGradient>
    </defs>
    <path xmlns="http://www.w3.org/2000/svg" d="  M34.0185,38.6235 C33.9983,38.5515 33.9338,38.5065 33.8753,38.5223 C33.8153,38.5380 33.7838,38.6115 33.8033,38.6835 C33.8243,38.7555 33.8888,38.8005 33.9473,38.7848 C34.0058,38.7690 34.0388,38.6947 34.0185,38.6235 Z M33.9300,38.7375 C33.8903,38.7495 33.8468,38.7188 33.8340,38.6692 C33.8198,38.6220 33.8415,38.5733 33.8813,38.5612 C33.9210,38.5500 33.9645,38.5800 33.9780,38.6287 C33.9915,38.6775 33.9705,38.7263 33.9300,38.7375 Z" style="fill-rule: evenodd; fill: url(#grad3890); "/>
    <path xmlns="http://www.w3.org/2000/svg" d="  M33.8675,38.5555 A0.0915,0.0743 74.6213 1,1 33.8201,38.6634 A0.0915,0.0743 74.6213 0,1 33.8675,38.5555 Z" style="fill-rule: evenodd; fill: #000000; "/>
    <defs xmlns="http://www.w3.org/2000/svg">
      <radialGradient id="grad3891" cx="50.0000%" cy="50.0000%" r="100.0000%">
        <stop offset="0%" stop-color="#f3f9f7" stop-opacity="1.0000"/>
        <stop offset="100%" stop-color="#7f8787" stop-opacity="1.0000"/>
      </radialGradient>
    </defs>
    <path xmlns="http://www.w3.org/2000/svg" d="  M34.0185,37.9350 C33.9983,37.8630 33.9338,37.8173 33.8753,37.8338 C33.8153,37.8495 33.7838,37.9223 33.8033,37.9943 C33.8243,38.0670 33.8888,38.1120 33.9473,38.0963 C34.0065,38.0783 34.0388,38.0063 34.0185,37.9350 Z M33.9300,38.0490 C33.8903,38.0595 33.8468,38.0295 33.8340,37.9800 C33.8198,37.9328 33.8415,37.8840 33.8813,37.8728 C33.9210,37.8608 33.9645,37.8915 33.9780,37.9403 C33.9915,37.9890 33.9705,38.0370 33.9300,38.0490 Z" style="fill-rule: evenodd; fill: url(#grad3891); "/>
    <path xmlns="http://www.w3.org/2000/svg" d="  M33.8674,37.8670 A0.0915,0.0743 74.6213 1,1 33.8201,37.9749 A0.0915,0.0743 74.6213 0,1 33.8674,37.8670 Z" style="fill-rule: evenodd; fill: #000000; "/>
    <defs xmlns="http://www.w3.org/2000/svg">
      <radialGradient id="grad3892" cx="50.0000%" cy="50.0000%" r="100.0000%">
        <stop offset="0%" stop-color="#f3f9f7" stop-opacity="1.0000"/>
        <stop offset="100%" stop-color="#7f8787" stop-opacity="1.0000"/>
      </radialGradient>
    </defs>
    <path xmlns="http://www.w3.org/2000/svg" d="  M34.0185,37.2458 C33.9983,37.1738 33.9338,37.1288 33.8753,37.1453 C33.8153,37.1610 33.7838,37.2330 33.8033,37.3050 C33.8243,37.3785 33.8888,37.4228 33.9473,37.4063 C34.0065,37.3898 34.0388,37.3178 34.0185,37.2458 Z M33.9300,37.3598 C33.8903,37.3710 33.8468,37.3403 33.8340,37.2915 C33.8198,37.2443 33.8415,37.1948 33.8813,37.1843 C33.9210,37.1723 33.9645,37.2030 33.9780,37.2518 C33.9915,37.3005 33.9705,37.3485 33.9300,37.3598 Z" style="fill-rule: evenodd; fill: url(#grad3892); "/>
    <path xmlns="http://www.w3.org/2000/svg" d="  M33.8727,37.1912 A0.0907,0.0735 74.5615 1,1 33.8260,37.2983 A0.0907,0.0735 74.5615 0,1 33.8727,37.1912 Z" style="fill-rule: evenodd; fill: #000000; "/>
    <defs xmlns="http://www.w3.org/2000/svg">
      <radialGradient id="grad3893" cx="50.0000%" cy="50.0000%" r="100.0000%">
        <stop offset="0%" stop-color="#f3f9f7" stop-opacity="1.0000"/>
        <stop offset="100%" stop-color="#7f8787" stop-opacity="1.0000"/>
      </radialGradient>
    </defs>
    <path xmlns="http://www.w3.org/2000/svg" d="  M34.0185,36.5565 C33.9983,36.4845 33.9338,36.4395 33.8753,36.4560 C33.8153,36.4725 33.7838,36.5445 33.8033,36.6165 C33.8243,36.6893 33.8888,36.7335 33.9473,36.7178 C34.0058,36.7020 34.0388,36.6300 34.0185,36.5565 Z M33.9300,36.6705 C33.8903,36.6825 33.8468,36.6518 33.8340,36.6030 C33.8198,36.5550 33.8415,36.5063 33.8813,36.4943 C33.9210,36.4830 33.9645,36.5145 33.9780,36.5633 C33.9915,36.6120 33.9705,36.6608 33.9300,36.6705 Z" style="fill-rule: evenodd; fill: url(#grad3893); "/>
    <path xmlns="http://www.w3.org/2000/svg" d="  M33.8674,36.4887 A0.0915,0.0743 74.6213 1,1 33.8200,36.5966 A0.0915,0.0743 74.6213 0,1 33.8674,36.4887 Z" style="fill-rule: evenodd; fill: #000000; "/>
    <defs xmlns="http://www.w3.org/2000/svg">
      <radialGradient id="grad3894" cx="50.0000%" cy="50.0000%" r="100.0000%">
        <stop offset="0%" stop-color="#f3f9f7" stop-opacity="1.0000"/>
        <stop offset="100%" stop-color="#7f8787" stop-opacity="1.0000"/>
      </radialGradient>
    </defs>
    <path xmlns="http://www.w3.org/2000/svg" d="  M34.5772,39.5415 C34.5570,39.4695 34.4925,39.4245 34.4340,39.4410 C34.3740,39.4568 34.3425,39.5295 34.3620,39.6015 C34.3822,39.6735 34.4467,39.7185 34.5052,39.7028 C34.5652,39.6862 34.5960,39.6143 34.5772,39.5415 Z M34.4880,39.6563 C34.4475,39.6675 34.4047,39.6375 34.3905,39.5888 C34.3770,39.5400 34.3995,39.4920 34.4377,39.4808 C34.4775,39.4688 34.5202,39.4988 34.5345,39.5483 C34.5480,39.5977 34.5277,39.6443 34.4880,39.6563 Z" style="fill-rule: evenodd; fill: url(#grad3894); "/>
    <path xmlns="http://www.w3.org/2000/svg" d="  M34.4394,39.5011 A0.0907,0.0742 74.5017 1,1 34.3921,39.6084 A0.0907,0.0742 74.5017 0,1 34.4394,39.5011 Z" style="fill-rule: evenodd; fill: #000000; "/>
    <defs xmlns="http://www.w3.org/2000/svg">
      <radialGradient id="grad3895" cx="50.0000%" cy="50.0000%" r="100.0000%">
        <stop offset="0%" stop-color="#f3f9f7" stop-opacity="1.0000"/>
        <stop offset="100%" stop-color="#7f8787" stop-opacity="1.0000"/>
      </radialGradient>
    </defs>
    <path xmlns="http://www.w3.org/2000/svg" d="  M34.5772,38.8530 C34.5570,38.7803 34.4925,38.7360 34.4340,38.7518 C34.3740,38.7675 34.3425,38.8395 34.3620,38.9123 C34.3822,38.9850 34.4467,39.0300 34.5052,39.0135 C34.5652,38.9970 34.5960,38.9250 34.5772,38.8530 Z M34.4880,38.9670 C34.4475,38.9783 34.4047,38.9490 34.3905,38.8995 C34.3770,38.8508 34.3995,38.8028 34.4377,38.7915 C34.4775,38.7795 34.5202,38.8103 34.5345,38.8590 C34.5480,38.9078 34.5277,38.9558 34.4880,38.9670 Z" style="fill-rule: evenodd; fill: url(#grad3895); "/>
    <path xmlns="http://www.w3.org/2000/svg" d="  M34.4250,38.7857 A0.0915,0.0743 74.6213 1,1 34.3777,38.8936 A0.0915,0.0743 74.6213 0,1 34.4250,38.7857 Z" style="fill-rule: evenodd; fill: #000000; "/>
    <defs xmlns="http://www.w3.org/2000/svg">
      <radialGradient id="grad3896" cx="50.0000%" cy="50.0000%" r="100.0000%">
        <stop offset="0%" stop-color="#f3f9f7" stop-opacity="1.0000"/>
        <stop offset="100%" stop-color="#7f8787" stop-opacity="1.0000"/>
      </radialGradient>
    </defs>
    <path xmlns="http://www.w3.org/2000/svg" d="  M34.5772,38.1645 C34.5570,38.0925 34.4925,38.0467 34.4340,38.0632 C34.3740,38.0790 34.3425,38.1510 34.3620,38.2230 C34.3822,38.2965 34.4467,38.3407 34.5052,38.3242 C34.5652,38.3085 34.5960,38.2365 34.5772,38.1645 Z M34.4880,38.2785 C34.4475,38.2897 34.4047,38.2598 34.3905,38.2102 C34.3770,38.1622 34.3995,38.1142 34.4377,38.1030 C34.4775,38.0910 34.5202,38.1217 34.5345,38.1705 C34.5480,38.2192 34.5277,38.2672 34.4880,38.2785 Z" style="fill-rule: evenodd; fill: url(#grad3896); "/>
    <path xmlns="http://www.w3.org/2000/svg" d="  M34.4251,38.0972 A0.0915,0.0743 74.6213 1,1 34.3778,38.2052 A0.0915,0.0743 74.6213 0,1 34.4251,38.0972 Z" style="fill-rule: evenodd; fill: #000000; "/>
    <defs xmlns="http://www.w3.org/2000/svg">
      <radialGradient id="grad3897" cx="50.0000%" cy="50.0000%" r="100.0000%">
        <stop offset="0%" stop-color="#f3f9f7" stop-opacity="1.0000"/>
        <stop offset="100%" stop-color="#7f8787" stop-opacity="1.0000"/>
      </radialGradient>
    </defs>
    <path xmlns="http://www.w3.org/2000/svg" d="  M34.5772,37.4753 C34.5570,37.4025 34.4925,37.3575 34.4340,37.3748 C34.3740,37.3905 34.3425,37.4625 34.3620,37.5345 C34.3822,37.6080 34.4467,37.6515 34.5052,37.6358 C34.5652,37.6200 34.5960,37.5480 34.5772,37.4753 Z M34.4880,37.5893 C34.4475,37.6013 34.4047,37.5705 34.3905,37.5218 C34.3770,37.4738 34.3995,37.4250 34.4377,37.4138 C34.4775,37.4025 34.5202,37.4318 34.5345,37.4820 C34.5480,37.5308 34.5277,37.5780 34.4880,37.5893 Z" style="fill-rule: evenodd; fill: url(#grad3897); "/>
    <path xmlns="http://www.w3.org/2000/svg" d="  M34.4394,37.4342 A0.0907,0.0742 74.5017 1,1 34.3921,37.5415 A0.0907,0.0742 74.5017 0,1 34.4394,37.4342 Z" style="fill-rule: evenodd; fill: #000000; "/>
    <defs xmlns="http://www.w3.org/2000/svg">
      <radialGradient id="grad3898" cx="50.0000%" cy="50.0000%" r="100.0000%">
        <stop offset="0%" stop-color="#f3f9f7" stop-opacity="1.0000"/>
        <stop offset="100%" stop-color="#7f8787" stop-opacity="1.0000"/>
      </radialGradient>
    </defs>
    <path xmlns="http://www.w3.org/2000/svg" d="  M34.5772,36.7860 C34.5570,36.7140 34.4925,36.6690 34.4340,36.6848 C34.3740,36.7020 34.3425,36.7740 34.3620,36.8460 C34.3822,36.9180 34.4467,36.9630 34.5052,36.9473 C34.5652,36.9315 34.5960,36.8580 34.5772,36.7860 Z M34.4880,36.9008 C34.4475,36.9120 34.4047,36.8820 34.3905,36.8333 C34.3770,36.7845 34.3995,36.7365 34.4377,36.7245 C34.4775,36.7133 34.5202,36.7433 34.5345,36.7920 C34.5480,36.8423 34.5277,36.8888 34.4880,36.9008 Z" style="fill-rule: evenodd; fill: url(#grad3898); "/>
    <path xmlns="http://www.w3.org/2000/svg" d="  M34.4257,36.7186 A0.0915,0.0750 74.6213 1,1 34.3777,36.8268 A0.0915,0.0750 74.6213 0,1 34.4257,36.7186 Z" style="fill-rule: evenodd; fill: #000000; "/>
    <defs xmlns="http://www.w3.org/2000/svg">
      <radialGradient id="grad3899" cx="50.0000%" cy="50.0000%" r="100.0000%">
        <stop offset="0%" stop-color="#f3f9f7" stop-opacity="1.0000"/>
        <stop offset="100%" stop-color="#7f8787" stop-opacity="1.0000"/>
      </radialGradient>
    </defs>
    <path xmlns="http://www.w3.org/2000/svg" d="  M34.2652,39.7553 C34.2450,39.6818 34.1812,39.6368 34.1227,39.6540 C34.0627,39.6698 34.0305,39.7418 34.0500,39.8145 C34.0695,39.8873 34.1347,39.9315 34.1940,39.9158 C34.2532,39.8993 34.2855,39.8273 34.2652,39.7553 Z M34.1760,39.8693 C34.1362,39.8805 34.0927,39.8505 34.0792,39.8010 C34.0657,39.7530 34.0875,39.7043 34.1272,39.6938 C34.1662,39.6818 34.2097,39.7125 34.2232,39.7613 C34.2367,39.8100 34.2157,39.8580 34.1760,39.8693 Z" style="fill-rule: evenodd; fill: url(#grad3899); "/>
    <path xmlns="http://www.w3.org/2000/svg" d="  M34.1144,39.6878 A0.0915,0.0758 74.6213 1,1 34.0656,39.7961 A0.0915,0.0758 74.6213 0,1 34.1144,39.6878 Z" style="fill-rule: evenodd; fill: #000000; "/>
    <defs xmlns="http://www.w3.org/2000/svg">
      <radialGradient id="grad3900" cx="50.0000%" cy="50.0000%" r="100.0000%">
        <stop offset="0%" stop-color="#f3f9f7" stop-opacity="1.0000"/>
        <stop offset="100%" stop-color="#7f8787" stop-opacity="1.0000"/>
      </radialGradient>
    </defs>
    <path xmlns="http://www.w3.org/2000/svg" d="  M34.2652,39.0675 C34.2450,38.9940 34.1812,38.9490 34.1227,38.9663 C34.0627,38.9820 34.0305,39.0540 34.0500,39.1260 C34.0695,39.1995 34.1347,39.2430 34.1940,39.2273 C34.2532,39.2115 34.2855,39.1388 34.2652,39.0675 Z M34.1760,39.1800 C34.1362,39.1913 34.0927,39.1613 34.0792,39.1125 C34.0657,39.0638 34.0875,39.0158 34.1272,39.0045 C34.1662,38.9933 34.2097,39.0240 34.2232,39.0728 C34.2367,39.1215 34.2157,39.1695 34.1760,39.1800 Z" style="fill-rule: evenodd; fill: url(#grad3900); "/>
    <path xmlns="http://www.w3.org/2000/svg" d="  M34.1421,39.0118 A0.0915,0.0758 74.6866 1,1 34.0932,39.1201 A0.0915,0.0758 74.6866 0,1 34.1421,39.0118 Z" style="fill-rule: evenodd; fill: #000000; "/>
    <defs xmlns="http://www.w3.org/2000/svg">
      <radialGradient id="grad3901" cx="50.0000%" cy="50.0000%" r="100.0000%">
        <stop offset="0%" stop-color="#f3f9f7" stop-opacity="1.0000"/>
        <stop offset="100%" stop-color="#7f8787" stop-opacity="1.0000"/>
      </radialGradient>
    </defs>
    <path xmlns="http://www.w3.org/2000/svg" d="  M34.2652,38.3775 C34.2450,38.3055 34.1812,38.2605 34.1227,38.2763 C34.0627,38.2920 34.0305,38.3648 34.0500,38.4375 C34.0695,38.5095 34.1347,38.5545 34.1940,38.5388 C34.2532,38.5215 34.2855,38.4495 34.2652,38.3775 Z M34.1760,38.4915 C34.1362,38.5035 34.0927,38.4728 34.0792,38.4240 C34.0657,38.3753 34.0875,38.3273 34.1272,38.3153 C34.1662,38.3048 34.2097,38.3340 34.2232,38.3835 C34.2367,38.4330 34.2157,38.4803 34.1760,38.4915 Z" style="fill-rule: evenodd; fill: url(#grad3901); "/>
    <path xmlns="http://www.w3.org/2000/svg" d="  M34.1143,38.3094 A0.0915,0.0758 74.6213 1,1 34.0656,38.4177 A0.0915,0.0758 74.6213 0,1 34.1143,38.3094 Z" style="fill-rule: evenodd; fill: #000000; "/>
    <defs xmlns="http://www.w3.org/2000/svg">
      <radialGradient id="grad3902" cx="50.0000%" cy="50.0000%" r="100.0000%">
        <stop offset="0%" stop-color="#f3f9f7" stop-opacity="1.0000"/>
        <stop offset="100%" stop-color="#7f8787" stop-opacity="1.0000"/>
      </radialGradient>
    </defs>
    <path xmlns="http://www.w3.org/2000/svg" d="  M34.2652,37.6890 C34.2450,37.6163 34.1812,37.5713 34.1227,37.5878 C34.0627,37.6035 34.0305,37.6763 34.0500,37.7483 C34.0695,37.8210 34.1347,37.8660 34.1940,37.8503 C34.2532,37.8323 34.2855,37.7603 34.2652,37.6890 Z M34.1760,37.8030 C34.1362,37.8135 34.0927,37.7843 34.0792,37.7348 C34.0657,37.6853 34.0875,37.6380 34.1272,37.6268 C34.1662,37.6148 34.2097,37.6455 34.2232,37.6943 C34.2367,37.7438 34.2157,37.7910 34.1760,37.8030 Z" style="fill-rule: evenodd; fill: url(#grad3902); "/>
    <path xmlns="http://www.w3.org/2000/svg" d="  M34.1143,37.6210 A0.0915,0.0758 74.6213 1,1 34.0655,37.7293 A0.0915,0.0758 74.6213 0,1 34.1143,37.6210 Z" style="fill-rule: evenodd; fill: #000000; "/>
    <defs xmlns="http://www.w3.org/2000/svg">
      <radialGradient id="grad3903" cx="50.0000%" cy="50.0000%" r="100.0000%">
        <stop offset="0%" stop-color="#f3f9f7" stop-opacity="1.0000"/>
        <stop offset="100%" stop-color="#7f8787" stop-opacity="1.0000"/>
      </radialGradient>
    </defs>
    <path xmlns="http://www.w3.org/2000/svg" d="  M34.2652,37.0005 C34.2450,36.9270 34.1812,36.8828 34.1227,36.8993 C34.0627,36.9150 34.0305,36.9870 34.0500,37.0590 C34.0695,37.1325 34.1347,37.1768 34.1940,37.1610 C34.2532,37.1438 34.2855,37.0718 34.2652,37.0005 Z M34.1760,37.1130 C34.1362,37.1250 34.0927,37.0943 34.0792,37.0455 C34.0657,36.9983 34.0875,36.9488 34.1272,36.9383 C34.1662,36.9263 34.2097,36.9570 34.2232,37.0058 C34.2367,37.0545 34.2157,37.1025 34.1760,37.1130 Z" style="fill-rule: evenodd; fill: url(#grad3903); "/>
    <path xmlns="http://www.w3.org/2000/svg" d="  M34.1143,36.9326 A0.0915,0.0758 74.6213 1,1 34.0655,37.0409 A0.0915,0.0758 74.6213 0,1 34.1143,36.9326 Z" style="fill-rule: evenodd; fill: #000000; "/>
    <defs xmlns="http://www.w3.org/2000/svg">
      <radialGradient id="grad3904" cx="50.0000%" cy="50.0000%" r="100.0000%">
        <stop offset="0%" stop-color="#f3f9f7" stop-opacity="1.0000"/>
        <stop offset="100%" stop-color="#7f8787" stop-opacity="1.0000"/>
      </radialGradient>
    </defs>
    <path xmlns="http://www.w3.org/2000/svg" d="  M34.2652,36.3105 C34.2450,36.2385 34.1812,36.1935 34.1227,36.2107 C34.0627,36.2265 34.0305,36.2985 34.0500,36.3705 C34.0695,36.4425 34.1347,36.4875 34.1940,36.4717 C34.2532,36.4545 34.2855,36.3832 34.2652,36.3105 Z M34.1760,36.4245 C34.1362,36.4365 34.0927,36.4057 34.0792,36.3570 C34.0657,36.3082 34.0875,36.2602 34.1272,36.2497 C34.1662,36.2377 34.2097,36.2677 34.2232,36.3172 C34.2367,36.3660 34.2157,36.4132 34.1760,36.4245 Z" style="fill-rule: evenodd; fill: url(#grad3904); "/>
    <path xmlns="http://www.w3.org/2000/svg" d="  M34.1143,36.2441 A0.0915,0.0758 74.6213 1,1 34.0655,36.3524 A0.0915,0.0758 74.6213 0,1 34.1143,36.2441 Z" style="fill-rule: evenodd; fill: #000000; "/>
    <defs xmlns="http://www.w3.org/2000/svg" xmlns:xlink="http://www.w3.org/1999/xlink">
      <linearGradient id="grad3905">
        <stop offset="0%" stop-color="#ededed" stop-opacity="1.0000"/>
        <stop offset="100%" stop-color="#7f8787" stop-opacity="1.0000"/>
      </linearGradient>
      <linearGradient xlink:href="#grad3905" id="grad3906" x1="0" y1="0" x2="0" y2="1" gradientTransform="rotate(135 .5 .5)" gradientUnits="objectBoundingBox">
  </linearGradient>
    </defs>
    <path xmlns="http://www.w3.org/2000/svg" d="  M7.1775,20.3483 C7.3560,20.6483 7.3267,20.9933 7.1160,21.1185 C6.9060,21.2423 6.5917,21.1005 6.4140,20.7990 C6.2355,20.4998 6.2632,20.1548 6.4747,20.0303 C6.6862,19.9050 7.0005,20.0475 7.1775,20.3483 Z" style="fill-rule: evenodd; fill: url(#grad3906); "/>
    <defs xmlns="http://www.w3.org/2000/svg" xmlns:xlink="http://www.w3.org/1999/xlink">
      <linearGradient id="grad3907">
        <stop offset="0%" stop-color="#ededed" stop-opacity="1.0000"/>
        <stop offset="100%" stop-color="#7f8787" stop-opacity="1.0000"/>
      </linearGradient>
      <linearGradient xlink:href="#grad3907" id="grad3908" x1="0" y1="0" x2="0" y2="1" gradientTransform="rotate(135 .5 .5)" gradientUnits="objectBoundingBox">
  </linearGradient>
    </defs>
    <path xmlns="http://www.w3.org/2000/svg" d="  M7.1685,19.0185 C7.3470,19.3193 7.3193,19.6643 7.1085,19.7895 C6.8970,19.9133 6.5835,19.7715 6.4050,19.4700 C6.2273,19.1708 6.2543,18.8258 6.4673,18.7013 C6.6780,18.5753 6.9908,18.7185 7.1685,19.0185 Z" style="fill-rule: evenodd; fill: url(#grad3908); "/>
    <defs xmlns="http://www.w3.org/2000/svg" xmlns:xlink="http://www.w3.org/1999/xlink">
      <linearGradient id="grad3909">
        <stop offset="0%" stop-color="#ededed" stop-opacity="1.0000"/>
        <stop offset="100%" stop-color="#7f8787" stop-opacity="1.0000"/>
      </linearGradient>
      <linearGradient xlink:href="#grad3909" id="grad3910" x1="0" y1="0" x2="0" y2="1" gradientTransform="rotate(135 .5 .5)" gradientUnits="objectBoundingBox">
  </linearGradient>
    </defs>
    <path xmlns="http://www.w3.org/2000/svg" d="  M8.1855,19.5645 C8.3625,19.8645 8.3340,20.2103 8.1233,20.3348 C7.9125,20.4593 7.5990,20.3168 7.4205,20.0153 C7.2427,19.7160 7.2705,19.3710 7.4812,19.2465 C7.6928,19.1205 8.0070,19.2645 8.1855,19.5645 Z" style="fill-rule: evenodd; fill: url(#grad3910); "/>
    <defs xmlns="http://www.w3.org/2000/svg" xmlns:xlink="http://www.w3.org/1999/xlink">
      <linearGradient id="grad3911">
        <stop offset="0%" stop-color="#ededed" stop-opacity="1.0000"/>
        <stop offset="100%" stop-color="#7f8787" stop-opacity="1.0000"/>
      </linearGradient>
      <linearGradient xlink:href="#grad3911" id="grad3912" x1="0" y1="0" x2="0" y2="1" gradientTransform="rotate(135 .5 .5)" gradientUnits="objectBoundingBox">
  </linearGradient>
    </defs>
    <path xmlns="http://www.w3.org/2000/svg" d="  M8.1683,20.8875 C8.3460,21.1875 8.3175,21.5325 8.1075,21.6577 C7.8960,21.7815 7.5825,21.6390 7.4048,21.3382 C7.2278,21.0390 7.2540,20.6947 7.4648,20.5695 C7.6763,20.4435 7.9905,20.5867 8.1683,20.8875 Z" style="fill-rule: evenodd; fill: url(#grad3912); "/>
    <defs xmlns="http://www.w3.org/2000/svg" xmlns:xlink="http://www.w3.org/1999/xlink">
      <linearGradient id="grad3913">
        <stop offset="0%" stop-color="#ededed" stop-opacity="1.0000"/>
        <stop offset="100%" stop-color="#7f8787" stop-opacity="1.0000"/>
      </linearGradient>
      <linearGradient xlink:href="#grad3913" id="grad3914" x1="0" y1="0" x2="0" y2="1" gradientTransform="rotate(135 .5 .5)" gradientUnits="objectBoundingBox">
  </linearGradient>
    </defs>
    <path xmlns="http://www.w3.org/2000/svg" d="  M6.1890,19.8195 C6.3675,20.1202 6.3390,20.4652 6.1283,20.5897 C5.9175,20.7142 5.6048,20.5717 5.4263,20.2702 C5.2478,19.9710 5.2755,19.6267 5.4870,19.5015 C5.6985,19.3762 6.0120,19.5195 6.1890,19.8195 Z" style="fill-rule: evenodd; fill: url(#grad3914); "/>
    <defs xmlns="http://www.w3.org/2000/svg" xmlns:xlink="http://www.w3.org/1999/xlink">
      <linearGradient id="grad3915">
        <stop offset="0%" stop-color="#ededed" stop-opacity="1.0000"/>
        <stop offset="100%" stop-color="#7f8787" stop-opacity="1.0000"/>
      </linearGradient>
      <linearGradient xlink:href="#grad3915" id="grad3916" x1="0" y1="0" x2="0" y2="1" gradientTransform="rotate(135 .5 .5)" gradientUnits="objectBoundingBox">
  </linearGradient>
    </defs>
    <path xmlns="http://www.w3.org/2000/svg" d="  M6.1807,18.4658 C6.3585,18.7658 6.3315,19.1108 6.1200,19.2360 C5.9085,19.3598 5.5950,19.2180 5.4165,18.9165 C5.2387,18.6165 5.2657,18.2723 5.4780,18.1478 C5.6895,18.0225 6.0030,18.1658 6.1807,18.4658 Z" style="fill-rule: evenodd; fill: url(#grad3916); "/>
    <defs xmlns="http://www.w3.org/2000/svg" xmlns:xlink="http://www.w3.org/1999/xlink">
      <linearGradient id="grad3917">
        <stop offset="0%" stop-color="#ededed" stop-opacity="1.0000"/>
        <stop offset="100%" stop-color="#7f8787" stop-opacity="1.0000"/>
      </linearGradient>
      <linearGradient xlink:href="#grad3917" id="grad3918" x1="0" y1="0" x2="0" y2="1" gradientTransform="rotate(135 .5 .5)" gradientUnits="objectBoundingBox">
  </linearGradient>
    </defs>
    <path xmlns="http://www.w3.org/2000/svg" d="  M5.1930,17.9190 C5.3693,18.2197 5.3415,18.5647 5.1307,18.6892 C4.9192,18.8137 4.6072,18.6712 4.4280,18.3697 C4.2502,18.0697 4.2780,17.7262 4.4887,17.6010 C4.7003,17.4757 5.0145,17.6182 5.1930,17.9190 Z" style="fill-rule: evenodd; fill: url(#grad3918); "/>
    <path xmlns="http://www.w3.org/2000/svg" d="  M8.0390,20.9849 A0.2880,0.4095 149.5551 1,1 7.5833,20.7778 A0.2880,0.4095 149.5551 0,1 8.0390,20.9849 Z" style="fill-rule: evenodd; fill: #000000; "/>
    <path xmlns="http://www.w3.org/2000/svg" d="  M7.0181,20.4442 A0.2865,0.4095 149.3753 1,1 6.5629,20.2378 A0.2865,0.4095 149.3753 0,1 7.0181,20.4442 Z" style="fill-rule: evenodd; fill: #000000; "/>
    <path xmlns="http://www.w3.org/2000/svg" d="  M6.0303,19.8804 A0.2872,0.4102 149.4421 1,1 5.5744,19.6732 A0.2872,0.4102 149.4421 0,1 6.0303,19.8804 Z" style="fill-rule: evenodd; fill: #000000; "/>
    <defs xmlns="http://www.w3.org/2000/svg" xmlns:xlink="http://www.w3.org/1999/xlink">
      <linearGradient id="grad3919">
        <stop offset="0%" stop-color="#ededed" stop-opacity="1.0000"/>
        <stop offset="100%" stop-color="#7f8787" stop-opacity="1.0000"/>
      </linearGradient>
      <linearGradient xlink:href="#grad3919" id="grad3920" x1="0" y1="0" x2="0" y2="1" gradientTransform="rotate(135 .5 .5)" gradientUnits="objectBoundingBox">
  </linearGradient>
    </defs>
    <path xmlns="http://www.w3.org/2000/svg" d="  M5.1870,19.2480 C5.3640,19.5487 5.3363,19.8930 5.1255,20.0182 C4.9140,20.1420 4.6020,20.0002 4.4227,19.6987 C4.2450,19.3995 4.2727,19.0552 4.4835,18.9307 C4.6950,18.8047 5.0093,18.9472 5.1870,19.2480 Z" style="fill-rule: evenodd; fill: url(#grad3920); "/>
    <path xmlns="http://www.w3.org/2000/svg" d="  M5.0405,19.3332 A0.2873,0.4095 149.5501 1,1 4.5853,19.1257 A0.2873,0.4095 149.5501 0,1 5.0405,19.3332 Z" style="fill-rule: evenodd; fill: #000000; "/>
    <path xmlns="http://www.w3.org/2000/svg" d="  M8.0390,19.6408 A0.2880,0.4087 149.5217 1,1 7.5835,19.4346 A0.2880,0.4087 149.5217 0,1 8.0390,19.6408 Z" style="fill-rule: evenodd; fill: #000000; "/>
    <path xmlns="http://www.w3.org/2000/svg" d="  M7.0396,19.1087 A0.2865,0.4095 149.4371 1,1 6.5846,18.9018 A0.2865,0.4095 149.4371 0,1 7.0396,19.1087 Z" style="fill-rule: evenodd; fill: #000000; "/>
    <path xmlns="http://www.w3.org/2000/svg" d="  M6.0361,18.5737 A0.2873,0.4095 149.3831 1,1 5.5804,18.3675 A0.2873,0.4095 149.3831 0,1 6.0361,18.5737 Z" style="fill-rule: evenodd; fill: #000000; "/>
    <path xmlns="http://www.w3.org/2000/svg" d="  M5.0190,17.9908 A0.2880,0.4095 149.4549 1,1 4.5629,17.7845 A0.2880,0.4095 149.4549 0,1 5.0190,17.9908 Z" style="fill-rule: evenodd; fill: #000000; "/>
    <defs xmlns="http://www.w3.org/2000/svg">
      <radialGradient id="grad3921" cx="50.0000%" cy="50.0000%" r="100.0000%">
        <stop offset="0%" stop-color="#00ff00" stop-opacity="1.0000"/>
        <stop offset="100%" stop-color="#009245" stop-opacity="1.0000"/>
      </radialGradient>
    </defs>
    <path xmlns="http://www.w3.org/2000/svg" d="  M7.9920,20.9888 C8.0963,21.1628 8.0790,21.3638 7.9575,21.4358 C7.8353,21.5085 7.6523,21.4253 7.5488,21.2505 C7.4460,21.0765 7.4618,20.8762 7.5848,20.8042 C7.7078,20.7323 7.8900,20.8147 7.9920,20.9888 Z" style="fill-rule: evenodd; fill: url(#grad3921); "/>
    <defs xmlns="http://www.w3.org/2000/svg">
      <radialGradient id="grad3922" cx="50.0000%" cy="50.0000%" r="100.0000%">
        <stop offset="0%" stop-color="#00ff00" stop-opacity="1.0000"/>
        <stop offset="100%" stop-color="#009245" stop-opacity="1.0000"/>
      </radialGradient>
    </defs>
    <path xmlns="http://www.w3.org/2000/svg" d="  M6.9892,20.4375 C7.0920,20.6115 7.0762,20.8125 6.9525,20.8852 C6.8310,20.9572 6.6487,20.8747 6.5452,20.6992 C6.4417,20.5252 6.4582,20.3258 6.5805,20.2530 C6.7035,20.1803 6.8857,20.2628 6.9892,20.4375 Z" style="fill-rule: evenodd; fill: url(#grad3922); "/>
    <defs xmlns="http://www.w3.org/2000/svg">
      <radialGradient id="grad3923" cx="50.0000%" cy="50.0000%" r="100.0000%">
        <stop offset="0%" stop-color="#00ff00" stop-opacity="1.0000"/>
        <stop offset="100%" stop-color="#009245" stop-opacity="1.0000"/>
      </radialGradient>
    </defs>
    <path xmlns="http://www.w3.org/2000/svg" d="  M5.9910,19.8802 C6.0938,20.0550 6.0773,20.2552 5.9550,20.3272 C5.8320,20.4000 5.6505,20.3175 5.5470,20.1420 C5.4428,19.9680 5.4600,19.7677 5.5830,19.6957 C5.7045,19.6237 5.8875,19.7062 5.9910,19.8802 Z" style="fill-rule: evenodd; fill: url(#grad3923); "/>
    <defs xmlns="http://www.w3.org/2000/svg">
      <radialGradient id="grad3924" cx="50.0000%" cy="50.0000%" r="100.0000%">
        <stop offset="0%" stop-color="#00ff00" stop-opacity="1.0000"/>
        <stop offset="100%" stop-color="#009245" stop-opacity="1.0000"/>
      </radialGradient>
    </defs>
    <path xmlns="http://www.w3.org/2000/svg" d="  M5.0108,19.3253 C5.1143,19.4993 5.0978,19.7003 4.9748,19.7723 C4.8525,19.8450 4.6710,19.7625 4.5675,19.5870 C4.4633,19.4130 4.4798,19.2127 4.6035,19.1408 C4.7250,19.0680 4.9073,19.1513 5.0108,19.3253 Z" style="fill-rule: evenodd; fill: url(#grad3924); "/>
    <defs xmlns="http://www.w3.org/2000/svg">
      <radialGradient id="grad3925" cx="50.0000%" cy="50.0000%" r="100.0000%">
        <stop offset="0%" stop-color="#00ff00" stop-opacity="1.0000"/>
        <stop offset="100%" stop-color="#009245" stop-opacity="1.0000"/>
      </radialGradient>
    </defs>
    <path xmlns="http://www.w3.org/2000/svg" d="  M7.9920,19.6440 C8.0963,19.8180 8.0790,20.0190 7.9575,20.0910 C7.8353,20.1637 7.6523,20.0805 7.5488,19.9050 C7.4460,19.7310 7.4618,19.5315 7.5848,19.4587 C7.7078,19.3860 7.8900,19.4692 7.9920,19.6440 Z" style="fill-rule: evenodd; fill: url(#grad3925); "/>
    <defs xmlns="http://www.w3.org/2000/svg">
      <radialGradient id="grad3926" cx="50.0000%" cy="50.0000%" r="100.0000%">
        <stop offset="0%" stop-color="#00ff00" stop-opacity="1.0000"/>
        <stop offset="100%" stop-color="#009245" stop-opacity="1.0000"/>
      </radialGradient>
    </defs>
    <path xmlns="http://www.w3.org/2000/svg" d="  M6.9892,19.0927 C7.0920,19.2667 7.0762,19.4677 6.9525,19.5397 C6.8310,19.6117 6.6487,19.5292 6.5452,19.3537 C6.4417,19.1797 6.4582,18.9795 6.5805,18.9075 C6.7035,18.8347 6.8857,18.9180 6.9892,19.0927 Z" style="fill-rule: evenodd; fill: url(#grad3926); "/>
    <defs xmlns="http://www.w3.org/2000/svg">
      <radialGradient id="grad3927" cx="50.0000%" cy="50.0000%" r="100.0000%">
        <stop offset="0%" stop-color="#00ff00" stop-opacity="1.0000"/>
        <stop offset="100%" stop-color="#009245" stop-opacity="1.0000"/>
      </radialGradient>
    </defs>
    <path xmlns="http://www.w3.org/2000/svg" d="  M6.0068,18.5677 C6.1103,18.7417 6.0938,18.9420 5.9708,19.0147 C5.8493,19.0867 5.6663,19.0050 5.5635,18.8295 C5.4600,18.6555 5.4758,18.4552 5.5988,18.3832 C5.7218,18.3105 5.9033,18.3937 6.0068,18.5677 Z" style="fill-rule: evenodd; fill: url(#grad3927); "/>
    <defs xmlns="http://www.w3.org/2000/svg">
      <radialGradient id="grad3928" cx="50.0000%" cy="50.0000%" r="100.0000%">
        <stop offset="0%" stop-color="#00ff00" stop-opacity="1.0000"/>
        <stop offset="100%" stop-color="#009245" stop-opacity="1.0000"/>
      </radialGradient>
    </defs>
    <path xmlns="http://www.w3.org/2000/svg" d="  M5.0108,17.9798 C5.1143,18.1545 5.0978,18.3548 4.9748,18.4268 C4.8525,18.4995 4.6710,18.4170 4.5675,18.2415 C4.4633,18.0683 4.4798,17.8680 4.6035,17.7953 C4.7250,17.7233 4.9073,17.8058 5.0108,17.9798 Z" style="fill-rule: evenodd; fill: url(#grad3928); "/>
    <defs xmlns="http://www.w3.org/2000/svg" xmlns:xlink="http://www.w3.org/1999/xlink">
      <linearGradient id="grad3929">
        <stop offset="0%" stop-color="#263645" stop-opacity="1.0000"/>
        <stop offset="100%" stop-color="#668191" stop-opacity="1.0000"/>
      </linearGradient>
      <linearGradient xlink:href="#grad3929" id="grad3930" x1="0" y1="0" x2="0" y2="1" gradientTransform="rotate(-0 .5 .5)" gradientUnits="objectBoundingBox">
  </linearGradient>
    </defs>
    <path xmlns="http://www.w3.org/2000/svg" d="  M32.3377,34.8615 C32.4645,35.1870 32.3820,35.5230 32.1517,35.6130 C31.9237,35.7000 31.6380,35.5087 31.5105,35.1832 C31.3837,34.8585 31.4662,34.5232 31.6950,34.4347 C31.9237,34.3447 32.2102,34.5360 32.3377,34.8615 Z" style="fill-rule: evenodd; fill: url(#grad3930); "/>
    <path xmlns="http://www.w3.org/2000/svg" d="  M32.1908,34.9148 A0.2865,0.4095 158.7412 1,1 31.7753,34.6370 A0.2865,0.4095 158.7412 0,1 32.1908,34.9148 Z" style="fill-rule: evenodd; fill: #000000; "/>
    <path xmlns="http://www.w3.org/2000/svg" d="  M24.3277,32.8650 L20.8387,30.8595 L20.8507,26.6610 L24.3202,28.7018 L24.3277,32.8650 Z" style="fill-rule: evenodd; fill: #000000; "/>
    <path xmlns="http://www.w3.org/2000/svg" d="  M20.7607,30.5430 L20.7697,26.5500 L24.0862,28.5000 L24.0930,32.4608 L20.7607,30.5430 Z" style="fill-rule: evenodd; fill: #ffffff; "/>
    <defs xmlns="http://www.w3.org/2000/svg" xmlns:xlink="http://www.w3.org/1999/xlink">
      <linearGradient id="grad3931">
        <stop offset="0%" stop-color="#c8d8dd" stop-opacity="1.0000"/>
        <stop offset="100%" stop-color="#ffffff" stop-opacity="1.0000"/>
      </linearGradient>
      <linearGradient xlink:href="#grad3931" id="grad3932" x1="0" y1="0" x2="0" y2="1" gradientTransform="rotate(90 .5 .5)" gradientUnits="objectBoundingBox">
  </linearGradient>
    </defs>
    <path xmlns="http://www.w3.org/2000/svg" d="  M23.9010,32.1270 L20.9527,30.4328 L20.9625,26.8853 L23.8935,28.6095 L23.9010,32.1270 Z" style="fill-rule: evenodd; fill: url(#grad3932); "/>
    <path xmlns="http://www.w3.org/2000/svg" d="  M21.1860,27.4013 L23.6025,28.8540 L23.5717,30.6998 L22.6650,30.1290 L22.6492,31.0688 L21.8520,30.5978 L21.8557,29.6445 L21.1657,29.2658 L21.1860,27.4013 Z" style="fill-rule: evenodd; fill: #000000; "/>
    <path xmlns="http://www.w3.org/2000/svg" d="  M29.8672,36.1080 L26.3797,34.1025 L26.3910,29.9047 L29.8597,31.9440 L29.8672,36.1080 Z" style="fill-rule: evenodd; fill: #000000; "/>
    <path xmlns="http://www.w3.org/2000/svg" d="  M26.2995,33.7860 L26.3107,29.7930 L29.6272,31.7430 L29.6332,35.7023 L26.2995,33.7860 Z" style="fill-rule: evenodd; fill: #ffffff; "/>
    <defs xmlns="http://www.w3.org/2000/svg" xmlns:xlink="http://www.w3.org/1999/xlink">
      <linearGradient id="grad3933">
        <stop offset="0%" stop-color="#c8d8dd" stop-opacity="1.0000"/>
        <stop offset="100%" stop-color="#ffffff" stop-opacity="1.0000"/>
      </linearGradient>
      <linearGradient xlink:href="#grad3933" id="grad3934" x1="0" y1="0" x2="0" y2="1" gradientTransform="rotate(90 .5 .5)" gradientUnits="objectBoundingBox">
  </linearGradient>
    </defs>
    <path xmlns="http://www.w3.org/2000/svg" d="  M29.4405,35.3700 L26.4922,33.6750 L26.5027,30.1290 L29.4337,31.8525 L29.4405,35.3700 Z" style="fill-rule: evenodd; fill: url(#grad3934); "/>
    <path xmlns="http://www.w3.org/2000/svg" d="  M26.7262,30.6442 L29.1412,32.0962 L29.1112,33.9420 L28.2052,33.3720 L28.1902,34.3125 L27.3922,33.8407 L27.3945,32.8875 L26.7052,32.5087 L26.7262,30.6442 Z" style="fill-rule: evenodd; fill: #000000; "/>
    <path xmlns="http://www.w3.org/2000/svg" d="  M18.7883,29.6655 L15.2978,27.6608 L15.3113,23.4623 L18.7793,25.5030 L18.7883,29.6655 Z" style="fill-rule: evenodd; fill: #000000; "/>
    <path xmlns="http://www.w3.org/2000/svg" d="  M15.2190,27.3450 L15.2310,23.3505 L18.5460,25.3005 L18.5520,29.2605 L15.2190,27.3450 Z" style="fill-rule: evenodd; fill: #ffffff; "/>
    <defs xmlns="http://www.w3.org/2000/svg" xmlns:xlink="http://www.w3.org/1999/xlink">
      <linearGradient id="grad3935">
        <stop offset="0%" stop-color="#c8d8dd" stop-opacity="1.0000"/>
        <stop offset="100%" stop-color="#ffffff" stop-opacity="1.0000"/>
      </linearGradient>
      <linearGradient xlink:href="#grad3935" id="grad3936" x1="0" y1="0" x2="0" y2="1" gradientTransform="rotate(90 .5 .5)" gradientUnits="objectBoundingBox">
  </linearGradient>
    </defs>
    <path xmlns="http://www.w3.org/2000/svg" d="  M18.3600,28.9275 L15.4118,27.2333 L15.4223,23.6865 L18.3548,25.4108 L18.3600,28.9275 Z" style="fill-rule: evenodd; fill: url(#grad3936); "/>
    <path xmlns="http://www.w3.org/2000/svg" d="  M15.6450,24.2018 L18.0615,25.6553 L18.0308,27.5010 L17.1248,26.9295 L17.1098,27.8708 L16.3118,27.3983 L16.3148,26.4458 L15.6263,26.0670 L15.6450,24.2018 Z" style="fill-rule: evenodd; fill: #000000; "/>
    <path xmlns="http://www.w3.org/2000/svg" d="  M13.2465,26.5110 L9.7582,24.5048 L9.7695,20.3077 L13.2397,22.3477 L13.2465,26.5110 Z" style="fill-rule: evenodd; fill: #000000; "/>
    <path xmlns="http://www.w3.org/2000/svg" d="  M9.6787,24.1905 L9.6900,20.1960 L13.0050,22.1452 L13.0125,26.1060 L9.6787,24.1905 Z" style="fill-rule: evenodd; fill: #ffffff; "/>
    <defs xmlns="http://www.w3.org/2000/svg" xmlns:xlink="http://www.w3.org/1999/xlink">
      <linearGradient id="grad3937">
        <stop offset="0%" stop-color="#c8d8dd" stop-opacity="1.0000"/>
        <stop offset="100%" stop-color="#ffffff" stop-opacity="1.0000"/>
      </linearGradient>
      <linearGradient xlink:href="#grad3937" id="grad3938" x1="0" y1="0" x2="0" y2="1" gradientTransform="rotate(90 .5 .5)" gradientUnits="objectBoundingBox">
  </linearGradient>
    </defs>
    <path xmlns="http://www.w3.org/2000/svg" d="  M12.8190,25.7738 L9.8707,24.0787 L9.8812,20.5320 L12.8122,22.2555 L12.8190,25.7738 Z" style="fill-rule: evenodd; fill: url(#grad3938); "/>
    <path xmlns="http://www.w3.org/2000/svg" d="  M10.1040,21.0480 L12.5205,22.5000 L12.4912,24.3458 L11.5830,23.7750 L11.5680,24.7163 L10.7707,24.2445 L10.7737,23.2905 L10.0845,22.9125 L10.1040,21.0480 Z" style="fill-rule: evenodd; fill: #000000; "/>
    <path xmlns="http://www.w3.org/2000/svg" d="  M2.7404,16.3705 A0.5288,0.7545 149.4578 1,1 1.9016,15.9894 A0.5288,0.7545 149.4578 0,1 2.7404,16.3705 Z" style="fill-rule: evenodd; fill: #231f20; "/>
    <defs xmlns="http://www.w3.org/2000/svg">
      <radialGradient id="grad3939" cx="50.0000%" cy="50.0000%" r="100.0000%">
        <stop offset="0%" stop-color="#fc7e38" stop-opacity="1.0000"/>
        <stop offset="100%" stop-color="#890414" stop-opacity="1.0000"/>
      </radialGradient>
    </defs>
    <path xmlns="http://www.w3.org/2000/svg" d="  M2.6370,16.4235 C2.8103,16.7175 2.7840,17.0550 2.5778,17.1773 C2.3715,17.2988 2.0640,17.1600 1.8915,16.8645 C1.7183,16.5713 1.7453,16.2353 1.9508,16.1130 C2.1570,15.9908 2.4630,16.1303 2.6370,16.4235 Z" style="fill-rule: evenodd; fill: url(#grad3939); "/>
    <path xmlns="http://www.w3.org/2000/svg" d="  M2.7169,18.2927 A0.5287,0.7545 149.4755 1,1 1.8782,17.9113 A0.5287,0.7545 149.4755 0,1 2.7169,18.2927 Z" style="fill-rule: evenodd; fill: #231f20; "/>
    <defs xmlns="http://www.w3.org/2000/svg">
      <radialGradient id="grad3940" cx="50.0000%" cy="50.0000%" r="100.0000%">
        <stop offset="0%" stop-color="#00ff00" stop-opacity="1.0000"/>
        <stop offset="100%" stop-color="#009245" stop-opacity="1.0000"/>
      </radialGradient>
    </defs>
    <path xmlns="http://www.w3.org/2000/svg" d="  M2.6370,18.3457 C2.8103,18.6397 2.7840,18.9772 2.5778,19.0995 C2.3715,19.2210 2.0640,19.0822 1.8915,18.7867 C1.7183,18.4935 1.7453,18.1575 1.9508,18.0352 C2.1570,17.9122 2.4630,18.0525 2.6370,18.3457 Z" style="fill-rule: evenodd; fill: url(#grad3940); "/>
    <!--converted by libvisio2svg-->
  </g>
</svg>
