<svg xmlns="http://www.w3.org/2000/svg" xmlns:xlink="http://www.w3.org/1999/xlink" version="1.1" width="0.7600000000" height="0.8340000000" viewBox="0 0 54.7230 60.0465">
  <title><![CDATA[Microphone]]></title>
  <g transform=" scale(1.000000) ">
    <path xmlns="http://www.w3.org/2000/svg" d="  M54.4230,45.8070 L54.4162,45.8070 C46.3650,41.2838 45.3630,41.1585 42.1890,39.8550 C41.7000,39.6540 41.1877,39.4800 40.6658,39.3165 C40.9995,39.1770 41.2358,38.9047 41.2358,38.5035 C41.2358,38.5035 41.2358,38.3640 41.2350,38.1127 C42.5130,36.8122 43.4235,34.8622 43.4235,33.1897 C43.4235,31.9560 42.9293,31.1445 42.1582,30.8723 L41.2350,30.3262 C41.2350,25.9560 41.2350,20.2853 41.2350,14.4585 C41.2372,9.2190 39.8595,5.5927 37.8652,3.2723 C35.8733,0.9533 33.3150,0.0000 31.1490,0.0015 C30.1732,0.0030 29.2680,0.1890 28.4947,0.5588 L28.4257,0.5947 L21.2820,4.6770 C21.2235,4.6343 21.1665,4.5900 21.1065,4.5555 C20.7518,4.3515 20.4345,4.3440 20.2103,4.4910 L16.3020,6.7605 C15.9345,6.6075 15.6083,6.6315 15.3705,6.7995 L9.5752,9.4500 C9.1913,9.4185 8.8672,9.5468 8.6392,9.8130 L3.0450,10.5022 C2.9070,10.5060 2.7742,10.5218 2.6467,10.5503 L2.5118,10.5668 L2.5230,10.5855 C2.2582,10.6635 2.0212,10.7948 1.8180,10.9785 C1.6410,11.0737 1.4752,11.1915 1.3335,11.3445 C1.1040,11.5912 0.4590,12.5333 0.3135,12.8978 C0.3105,12.9037 0.3082,12.9105 0.3060,12.9165 C0.1117,13.2938 0.0015,13.7715 0.0015,14.3445 C0.0015,16.4790 1.5000,19.0740 3.3487,20.1420 C3.4702,20.2125 3.5902,20.2733 3.7088,20.3273 C3.7387,20.3408 3.7672,20.3505 3.7980,20.3633 C3.8858,20.4007 3.9735,20.4360 4.0605,20.4638 C4.0913,20.4735 4.1213,20.4802 4.1512,20.4893 C4.2360,20.5140 4.3207,20.5365 4.4025,20.5522 C4.4287,20.5575 4.4543,20.5598 4.4805,20.5642 C4.5652,20.5777 4.6500,20.5882 4.7317,20.5920 C4.7400,20.5920 4.7482,20.5943 4.7557,20.5950 C5.1720,20.6408 6.3405,20.5688 6.6900,20.4743 C6.9600,20.4015 7.1985,20.2680 7.4070,20.0880 C7.5690,20.0055 7.7160,19.8990 7.8495,19.7693 L7.8683,19.8015 L11.4817,14.8928 C11.4758,14.9010 11.4705,14.9108 11.4645,14.9190 C11.8875,14.8830 12.2167,14.6273 12.3922,14.1960 L17.6580,10.5353 L17.6415,10.5067 C17.8455,10.3710 17.9850,10.1288 18.0345,9.7995 L22.0597,7.4558 L22.0425,7.4258 C22.2225,7.2825 22.3350,7.0335 22.3350,6.6848 C22.3350,6.6578 22.3298,6.6293 22.3290,6.6015 L29.4795,2.5155 C29.8958,2.3228 30.4808,2.1900 31.1490,2.1908 C32.6903,2.1930 34.6275,2.8658 36.2017,4.6988 C37.7775,6.5318 39.0413,9.5850 39.0427,14.4555 L39.0427,29.1233 C38.4923,28.9912 37.8210,29.1098 37.0935,29.5298 C35.2185,30.6120 33.6982,33.2452 33.6982,35.4098 C33.6982,36.3547 33.9908,37.0493 34.4730,37.4468 L35.1780,37.8592 C35.3062,37.9912 35.4277,38.1503 35.5155,38.3310 C33.2700,38.1435 30.9630,38.2350 28.7858,38.6182 C27.2557,38.8875 25.7910,39.2977 24.4605,39.8527 C21.1282,41.2425 17.1457,43.0395 11.9610,45.8040 C11.9483,45.8040 11.9362,45.8040 11.9227,45.8040 C11.6228,46.9957 11.6228,48.2078 11.9235,49.3987 C16.5997,49.3320 20.4045,50.8522 23.9737,52.9132 C27.5430,54.9742 30.1755,57.1702 30.0577,59.8695 C32.1218,60.0435 34.2210,60.0435 36.2843,59.8695 C36.1680,57.1695 38.7997,54.9742 42.3690,52.9132 C45.9397,50.8522 49.7430,49.3328 54.4208,49.3995 C54.4627,49.2330 54.4973,49.0673 54.5273,48.9008 C54.5273,48.8977 54.5288,48.8940 54.5295,48.8910 C54.7147,47.8665 54.6810,46.8292 54.4230,45.8070 Z M11.5582,14.7787 L11.5598,14.7780 L11.5582,14.7787 Z" style="stroke-width: 1.5000; stroke: #8d98b5; stroke-dasharray: none; stroke-linecap: butt; stroke-linejoin: miter; fill: none; "/>
    <defs xmlns="http://www.w3.org/2000/svg">
      <radialGradient id="grad3962" cx="50.0000%" cy="50.0000%" r="100.0000%">
        <stop offset="0%" stop-color="#f3f9f7" stop-opacity="1.0000"/>
        <stop offset="100%" stop-color="#7f8787" stop-opacity="1.0000"/>
      </radialGradient>
    </defs>
    <path xmlns="http://www.w3.org/2000/svg" d="  M54.4230,45.8070 L54.4162,45.8070 C46.4025,41.3220 45.3630,41.1585 42.1890,39.8550 C40.7610,39.2685 39.1755,38.8463 37.5255,38.5778 C34.6740,38.1135 31.6192,38.1225 28.7865,38.6213 C27.2565,38.8905 25.7917,39.3008 24.4612,39.8558 C21.1290,41.2455 17.1465,43.0425 11.9617,45.8070 C11.9490,45.8070 11.9370,45.8070 11.9235,45.8070 C11.6235,46.9988 11.6235,48.2108 11.9242,49.4018 C16.6005,49.3350 20.4052,50.8553 23.9745,52.9163 C27.5438,54.9773 30.1763,57.1733 30.0585,59.8725 C32.1225,60.0465 34.2217,60.0465 36.2850,59.8725 C36.1687,57.1725 38.8005,54.9773 42.3697,52.9163 C45.9405,50.8553 49.7438,49.3358 54.4215,49.4025 C54.7230,48.2100 54.7222,46.9988 54.4230,45.8070 Z" style="fill-rule: evenodd; fill: url(#grad3962); "/>
    <g xmlns="http://www.w3.org/2000/svg" id="Layer1111">
      <path d="  M35.6453,58.8210 C35.3467,58.8292 31.2277,58.8292 30.9262,58.8210 C29.8215,55.8465 28.0762,52.2442 25.2915,50.6377 C22.7790,49.1872 16.5120,48.1065 12.5572,48.3615 L12.5572,45.4920 C12.3600,45.5962 12.1635,45.6997 11.9617,45.8070 C11.9490,45.8070 11.9370,45.8070 11.9235,45.8070 C11.6235,46.9987 11.6235,48.2107 11.9242,49.4017 C16.6005,49.3350 20.4052,50.8552 23.9745,52.9162 C27.5438,54.9772 30.1763,57.1732 30.0585,59.8725 C32.1225,60.0465 34.2217,60.0465 36.2850,59.8725 C36.1687,57.1725 38.8005,54.9772 42.3698,52.9162 C45.9405,50.8552 49.7438,49.3357 54.4215,49.4025 C54.5040,49.0695 54.5633,48.7342 54.6000,48.3982 C50.3355,48.5512 45.5588,48.1387 41.0543,50.6377 C38.2448,52.1962 36.7500,55.8457 35.6453,58.8210 Z" style="stroke-width: 0.0150; stroke-linecap: butt; stroke-linejoin: miter; fill-rule: evenodd; fill: #080808; "/>
      <path d="  M35.6453,58.8210 C35.3467,58.8292 31.2277,58.8292 30.9262,58.8210 C29.8215,55.8465 28.0762,52.2442 25.2915,50.6377 C22.7790,49.1872 16.5120,48.1065 12.5572,48.3615 L12.5572,45.4920 C12.3600,45.5962 12.1635,45.6997 11.9617,45.8070 C11.9490,45.8070 11.9370,45.8070 11.9235,45.8070 C11.6235,46.9987 11.6235,48.2107 11.9242,49.4017 C16.6005,49.3350 20.4052,50.8552 23.9745,52.9162 C27.5438,54.9772 30.1763,57.1732 30.0585,59.8725 C32.1225,60.0465 34.2217,60.0465 36.2850,59.8725 C36.1687,57.1725 38.8005,54.9772 42.3698,52.9162 C45.9405,50.8552 49.7438,49.3357 54.4215,49.4025 C54.5040,49.0695 54.5633,48.7342 54.6000,48.3982 C50.3355,48.5512 45.5588,48.1387 41.0543,50.6377 C38.2448,52.1962 36.7500,55.8457 35.6453,58.8210 Z" style="stroke-width: 0.0150; stroke: #0010bf; stroke-dasharray: none; stroke-linecap: butt; stroke-linejoin: miter; fill: none; "/>
    </g>
    <defs xmlns="http://www.w3.org/2000/svg" xmlns:xlink="http://www.w3.org/1999/xlink">
      <linearGradient id="grad3963">
        <stop offset="0%" stop-color="#080808" stop-opacity="1.0000"/>
        <stop offset="100%" stop-color="#c4c5c6" stop-opacity="1.0000"/>
      </linearGradient>
      <linearGradient xlink:href="#grad3963" id="grad3964" x1="0" y1="0" x2="0" y2="1" gradientTransform="rotate(45 .5 .5)" gradientUnits="objectBoundingBox">
  </linearGradient>
    </defs>
    <path xmlns="http://www.w3.org/2000/svg" d="  M34.5945,37.4085 C34.5945,37.4085 35.6430,37.9740 35.6430,38.8620 C35.6430,39.7508 32.8470,41.5852 32.8470,41.5852 L32.8470,42.5197 L34.7535,43.6245 L39.9345,39.5145 C39.9345,39.5145 40.0020,38.1360 38.4683,37.7325 C36.9337,37.3290 35.6422,36.8445 35.6422,36.8445 L34.5945,37.4085 Z" style="fill-rule: evenodd; fill: url(#grad3964); "/>
    <path xmlns="http://www.w3.org/2000/svg" d="  M36.8220,38.2170 C36.8220,38.2170 37.4572,38.8530 37.4572,39.7402 C37.4572,40.6297 34.7460,42.6712 34.7460,42.6712 L34.7460,43.6155 L40.1550,40.6290 C40.1550,40.6290 41.4532,39.0255 39.9195,38.6212 C38.3857,38.2185 37.0942,37.7332 37.0942,37.7332 L36.8220,38.2170 Z" style="fill-rule: evenodd; fill: #080808; "/>
    <defs xmlns="http://www.w3.org/2000/svg">
      <radialGradient id="grad3965" cx="50.0000%" cy="50.0000%" r="100.0000%">
        <stop offset="0%" stop-color="#c4c5c6" stop-opacity="1.0000"/>
        <stop offset="100%" stop-color="#080808" stop-opacity="1.0000"/>
      </radialGradient>
    </defs>
    <path xmlns="http://www.w3.org/2000/svg" d="  M42.1583,30.8723 L39.4838,29.2920 L39.4815,29.2957 C38.8688,28.9455 38.0273,28.9950 37.0935,29.5335 C35.2185,30.6158 33.6983,33.2490 33.6983,35.4135 C33.6983,36.3585 33.9908,37.0530 34.4730,37.4505 L37.5083,39.2235 C38.1285,39.6623 39.0255,39.6480 40.0275,39.0698 C41.9033,37.9875 43.4228,35.3543 43.4228,33.1898 C43.4235,31.9560 42.9293,31.1445 42.1583,30.8723 Z" style="fill-rule: evenodd; fill: url(#grad3965); "/>
    <path xmlns="http://www.w3.org/2000/svg" d="  M35.1742,36.3000 C35.1802,34.0860 36.7087,31.4363 38.6250,30.3240 C39.1830,30.0030 39.7155,29.8455 40.1962,29.8455 C40.2825,29.8455 40.3680,29.8508 40.4497,29.8613 C40.4385,29.8530 41.0752,30.2362 41.0752,30.2362 C40.8345,30.0975 40.5067,30.0645 40.1962,30.0645 C39.7642,30.0645 39.2685,30.2070 38.7352,30.5145 C36.9000,31.5690 35.3895,34.1842 35.3947,36.3000 C35.3947,37.1017 35.5875,37.7670 35.9392,38.1555 L36.1657,38.4292 L35.7990,38.2462 C35.4000,37.8052 35.1757,37.1407 35.1742,36.3000 Z" style="fill-rule: evenodd; fill: #080808; "/>
    <defs xmlns="http://www.w3.org/2000/svg" xmlns:xlink="http://www.w3.org/1999/xlink">
      <linearGradient id="grad3966">
        <stop offset="0%" stop-color="#080808" stop-opacity="1.0000"/>
        <stop offset="100%" stop-color="#c4c5c6" stop-opacity="1.0000"/>
      </linearGradient>
      <linearGradient xlink:href="#grad3966" id="grad3967" x1="0" y1="0" x2="0" y2="1" gradientTransform="rotate(315 .5 .5)" gradientUnits="objectBoundingBox">
  </linearGradient>
    </defs>
    <path xmlns="http://www.w3.org/2000/svg" d="  M43.4235,33.1897 C43.4235,35.3542 41.9040,37.9867 40.0282,39.0697 C38.1533,40.1520 36.6345,39.2737 36.6345,37.1100 C36.6345,34.9447 38.1533,32.3130 40.0282,31.2292 C41.9032,30.1462 43.4235,31.0237 43.4235,33.1897 Z" style="fill-rule: evenodd; fill: url(#grad3967); "/>
    <path xmlns="http://www.w3.org/2000/svg" d="  M41.6505,30.7680 C41.1683,30.7432 40.6155,30.8895 40.0283,31.2285 C39.5093,31.5292 39.0173,31.9515 38.5763,32.4472 L38.5763,39.5258 C39.0173,39.5123 39.5085,39.3690 40.0283,39.0690 C40.6155,38.7293 41.1690,38.2380 41.6505,37.6560 L41.6505,30.7680 Z" style="fill-rule: evenodd; fill: #080808; "/>
    <path xmlns="http://www.w3.org/2000/svg" d="  M34.7542,43.6237 L32.8477,42.5190 L32.8477,41.5845 L34.7542,42.6877 L34.7542,43.6237 Z" style="fill-rule: evenodd; fill: #333333; "/>
    <path xmlns="http://www.w3.org/2000/svg" d="  M39.0427,38.5042 C39.0427,38.5042 39.0427,26.8312 39.0427,14.4585 C39.0412,9.5872 37.7767,6.5348 36.2018,4.7017 C34.6268,2.8687 32.6895,2.1960 31.1490,2.1937 C30.4807,2.1930 29.8957,2.3257 29.4795,2.5185 L22.0492,6.7643 L22.0500,6.7643 C21.5250,7.0642 20.8545,6.8820 20.5537,6.3562 C20.2537,5.8305 20.4360,5.1615 20.9617,4.8608 L28.4257,0.5955 L28.4947,0.5595 C29.2680,0.1897 30.1732,0.0037 31.1490,0.0022 C33.3150,0.0007 35.8733,0.9540 37.8653,3.2730 C39.8595,5.5935 41.2372,9.2197 41.2350,14.4592 C41.2350,26.8320 41.2350,38.5050 41.2357,38.5050 C41.2357,39.1102 40.7025,39.4290 40.0965,39.4290 C39.4905,39.4282 39.0427,39.1095 39.0427,38.5042 Z" style="fill-rule: evenodd; fill: #7f8787; "/>
    <path xmlns="http://www.w3.org/2000/svg" d="  M39.8873,14.4585 C39.8723,4.4790 34.8120,1.3762 31.2263,1.3320 L31.2203,1.3312 C31.0575,1.3253 29.6963,1.3590 29.0400,1.7557 L21.7290,5.9130 C21.6218,5.9730 21.4898,5.9355 21.4290,5.8305 C21.3698,5.7255 21.4058,5.5912 21.5108,5.5312 L28.8218,1.3762 C29.6580,0.8932 31.0253,0.8992 31.2203,0.8932 C31.2300,0.8932 31.2375,0.8932 31.2405,0.8932 C35.0790,0.9195 40.3403,4.3305 40.3268,14.4585 C40.3253,26.8313 40.3268,38.5455 40.3268,38.5455 C40.3268,38.6670 40.2278,38.7652 40.1063,38.7652 C39.9848,38.7652 39.8865,38.6670 39.8865,38.5455 C39.8873,38.5455 39.8873,26.8313 39.8873,14.4585 Z M31.2413,0.8932 C31.2443,0.8932 31.2443,0.8932 31.2443,0.8932 C31.2443,0.8932 31.2435,0.8932 31.2413,0.8932 Z" style="fill-rule: evenodd; fill: #4f4f4f; "/>
    <path xmlns="http://www.w3.org/2000/svg" d="  M40.7843,38.9715 C41.1045,38.8283 41.2372,38.4773 41.2372,38.4773 C41.1720,39.5970 39.8543,39.4815 39.5678,39.3270 C39.2632,39.1605 38.9955,38.7915 38.9963,38.5500 C38.9963,38.5268 39.0360,26.8867 39.0360,14.5163 C38.9535,4.6267 34.1513,2.2410 31.1272,2.2132 C30.5032,2.2132 29.9550,2.3212 29.5515,2.4847 L22.0837,6.7095 C21.8730,6.8280 21.6052,6.7545 21.4860,6.5445 C21.3675,6.3330 21.4402,6.0652 21.6517,5.9460 L29.1412,1.7100 L29.1885,1.6867 C29.7240,1.4632 30.3885,1.3380 31.1272,1.3365 C32.8815,1.3357 35.0842,2.0647 36.8430,4.0950 C38.6018,6.1260 39.8887,9.4260 39.9135,14.5147 C39.9112,25.5930 39.8745,38.1810 39.8745,38.1810 L39.8722,38.5530 C39.8722,38.5530 39.8730,38.1967 39.8730,38.5537 C39.8730,38.8890 40.3238,39.1770 40.7843,38.9715 Z" style="fill-rule: evenodd; fill: #333333; "/>
    <path xmlns="http://www.w3.org/2000/svg" d="  M30.9908,0.7837 C30.1890,0.7837 29.3632,1.0882 28.8187,1.3515 L21.4433,5.6625 C21.4095,5.6820 21.3712,5.6917 21.3345,5.6917 C21.2580,5.6917 21.1845,5.6520 21.1440,5.5815 C21.0832,5.4757 21.1200,5.3422 21.2250,5.2822 L28.7550,1.1715 C29.3857,0.8692 30.1410,0.7470 31.0005,0.7455 L30.9908,0.7837 Z" style="fill-rule: evenodd; fill: #cdcfcf; "/>
    <defs xmlns="http://www.w3.org/2000/svg" xmlns:xlink="http://www.w3.org/1999/xlink">
      <linearGradient id="grad3968">
        <stop offset="0%" stop-color="#080808" stop-opacity="1.0000"/>
        <stop offset="100%" stop-color="#7f8787" stop-opacity="1.0000"/>
      </linearGradient>
      <linearGradient xlink:href="#grad3968" id="grad3969" x1="0" y1="0" x2="0" y2="1" gradientTransform="rotate(135 .5 .5)" gradientUnits="objectBoundingBox">
  </linearGradient>
    </defs>
    <path xmlns="http://www.w3.org/2000/svg" d="  M22.3350,6.6877 C22.3350,5.9032 21.7852,4.9492 21.1058,4.5570 C20.7510,4.3530 20.4337,4.3455 20.2095,4.4925 L11.4945,9.5527 L13.2488,12.5895 L22.0605,7.4587 L22.0432,7.4287 C22.2225,7.2855 22.3350,7.0365 22.3350,6.6877 Z" style="fill-rule: evenodd; fill: url(#grad3969); "/>
    <defs xmlns="http://www.w3.org/2000/svg" xmlns:xlink="http://www.w3.org/1999/xlink">
      <linearGradient id="grad3970">
        <stop offset="0%" stop-color="#333333" stop-opacity="1.0000"/>
        <stop offset="100%" stop-color="#dae1e1" stop-opacity="1.0000"/>
      </linearGradient>
      <linearGradient xlink:href="#grad3970" id="grad3971" x1="0" y1="0" x2="0" y2="1" gradientTransform="rotate(135 .5 .5)" gradientUnits="objectBoundingBox">
  </linearGradient>
    </defs>
    <path xmlns="http://www.w3.org/2000/svg" d="  M18.0585,9.5392 C18.0585,8.5545 17.3678,7.3567 16.5143,6.8647 C16.0590,6.6015 15.6533,6.6000 15.3698,6.8002 L8.7720,9.8167 L8.7608,9.7980 L3.0413,10.5022 C2.9048,10.5060 2.7735,10.5225 2.6468,10.5503 L2.5110,10.5667 L2.5223,10.5855 C1.6058,10.8562 1.0110,11.7780 1.0110,13.2075 C1.0110,15.6285 2.7098,18.5722 4.8068,19.7827 C6.0548,20.5027 7.1580,20.4427 7.8495,19.7692 L7.8683,19.8015 L11.5628,14.7832 L11.5583,14.7765 L17.6588,10.5353 L17.6423,10.5067 C17.8980,10.3395 18.0585,10.0080 18.0585,9.5392 Z" style="fill-rule: evenodd; fill: url(#grad3971); "/>
    <defs xmlns="http://www.w3.org/2000/svg" xmlns:xlink="http://www.w3.org/1999/xlink">
      <linearGradient id="grad3972">
        <stop offset="0%" stop-color="#080808" stop-opacity="1.0000"/>
        <stop offset="100%" stop-color="#c4c5c6" stop-opacity="1.0000"/>
      </linearGradient>
      <linearGradient xlink:href="#grad3972" id="grad3973" x1="0" y1="0" x2="0" y2="1" gradientTransform="rotate(135 .5 .5)" gradientUnits="objectBoundingBox">
  </linearGradient>
    </defs>
    <path xmlns="http://www.w3.org/2000/svg" d="  M10.4092,9.7320 C9.6592,9.2993 9.0015,9.3697 8.6227,9.8287 C8.9340,9.8017 9.2947,9.8903 9.6780,10.1122 C10.8510,10.7895 11.8020,12.4365 11.8020,13.7910 C11.8020,14.2800 11.6775,14.6625 11.4637,14.9212 C12.1027,14.8665 12.5332,14.3227 12.5332,13.4115 C12.5332,12.0570 11.5822,10.4092 10.4092,9.7320 Z" style="fill-rule: evenodd; fill: url(#grad3973); "/>
    <path xmlns="http://www.w3.org/2000/svg" d="  M8.6032,17.5927 C8.6032,20.0137 6.9030,20.9955 4.8060,19.7842 C2.7090,18.5730 1.0102,15.6300 1.0102,13.2090 C1.0102,10.7880 2.7090,9.8062 4.8060,11.0175 C6.9030,12.2287 8.6032,15.1717 8.6032,17.5927 Z" style="fill-rule: evenodd; fill: #ffffff; "/>
    <defs xmlns="http://www.w3.org/2000/svg" xmlns:xlink="http://www.w3.org/1999/xlink">
      <linearGradient id="grad3974">
        <stop offset="0%" stop-color="#080808" stop-opacity="1.0000"/>
        <stop offset="100%" stop-color="#c4c5c6" stop-opacity="1.0000"/>
      </linearGradient>
      <linearGradient xlink:href="#grad3974" id="grad3975" x1="0" y1="0" x2="0" y2="1" gradientTransform="rotate(90 .5 .5)" gradientUnits="objectBoundingBox">
  </linearGradient>
    </defs>
    <path xmlns="http://www.w3.org/2000/svg" d="  M4.4475,11.2643 C3.1560,10.5187 2.0182,10.6057 1.3327,11.3460 C1.1032,11.5927 0.4582,12.5347 0.3127,12.8992 C0.1530,13.2975 0.0007,13.7647 0.0007,14.3467 C0.0007,16.4812 1.4992,19.0762 3.3480,20.1442 C3.8512,20.4345 4.3282,20.5807 4.7557,20.5972 C5.1720,20.6430 6.3405,20.5710 6.6900,20.4765 C7.6327,20.2237 8.2440,19.2915 8.2440,17.8387 C8.2440,15.4185 6.5437,12.4747 4.4475,11.2643 Z" style="fill-rule: evenodd; fill: url(#grad3975); "/>
    <defs xmlns="http://www.w3.org/2000/svg">
      <radialGradient id="grad3976" cx="50.0000%" cy="50.0000%" r="100.0000%">
        <stop offset="0%" stop-color="#8e8e8e" stop-opacity="1.0000"/>
        <stop offset="100%" stop-color="#080808" stop-opacity="1.0000"/>
      </radialGradient>
    </defs>
    <path xmlns="http://www.w3.org/2000/svg" d="  M6.6945,18.2115 C6.6945,20.3460 5.1960,21.2115 3.3473,20.1442 C1.4985,19.0763 0.0000,16.4812 0.0000,14.3467 C0.0000,12.2122 1.4985,11.3468 3.3473,12.4140 C5.1960,13.4820 6.6945,16.0770 6.6945,18.2115 Z" style="fill-rule: evenodd; fill: url(#grad3976); "/>
    <!--converted by libvisio2svg-->
  </g>
</svg>
