<svg xmlns="http://www.w3.org/2000/svg" xmlns:xlink="http://www.w3.org/1999/xlink" version="1.1" width="0.5875000000" height="0.8663000000" viewBox="0 0 42.3022 62.3722">
  <title><![CDATA[Monitor, LCD]]></title>
  <g transform=" scale(1.000000) ">
    <path xmlns="http://www.w3.org/2000/svg" d="  M42.2910,22.7828 C42.2940,22.5480 42.2940,22.4362 41.9557,22.2150 C41.9557,22.2150 4.5405,0.7890 3.8655,0.4327 C3.0442,0.0007 2.9572,0.2603 2.6107,0.4537 C2.3257,0.6150 0.2122,1.7940 0.2122,1.7940 C0.0765,1.8397 0.0052,2.0010 0.0098,2.2598 C0.0180,2.6445 0.0045,27.9293 0.0045,33.4237 C0.0045,34.0500 0.1537,34.3890 0.6975,34.7152 C0.8040,34.7790 6.3645,37.9965 13.1722,41.9363 C11.1878,41.9152 8.7375,44.7360 8.3055,45.5910 C8.2582,45.6832 8.2177,45.7777 8.1765,45.8723 C8.1532,45.9142 8.1277,45.9540 8.1060,45.9967 C5.8965,50.3588 9.7043,56.3407 16.6132,59.3565 C23.5215,62.3722 30.9135,61.2810 33.1230,56.9190 C33.6075,55.9627 33.8790,54.9608 33.9210,53.9392 C36.5520,55.4610 38.2230,56.4277 38.2230,56.4277 C38.5875,56.6242 38.9797,56.3730 38.9962,56.3610 L41.9918,54.6465 C42.1958,54.5527 42.2888,54.4080 42.3022,54.2212 L42.2910,22.7828 Z" style="stroke-width: 1.5000; stroke: #8d98b5; stroke-dasharray: none; stroke-linecap: butt; stroke-linejoin: miter; fill: none; "/>
    <defs xmlns="http://www.w3.org/2000/svg" xmlns:xlink="http://www.w3.org/1999/xlink">
      <linearGradient id="grad3977">
        <stop offset="0%" stop-color="#848484" stop-opacity="1.0000"/>
        <stop offset="100%" stop-color="#9a9a9a" stop-opacity="1.0000"/>
      </linearGradient>
      <linearGradient xlink:href="#grad3977" id="grad3978" x1="0" y1="0" x2="0" y2="1" gradientTransform="rotate(180 .5 .5)" gradientUnits="objectBoundingBox">
  </linearGradient>
    </defs>
    <path xmlns="http://www.w3.org/2000/svg" d="  M8.1060,45.9960 C10.3148,41.6348 17.6932,40.5742 24.6173,43.5593 C33.1328,47.2312 35.3325,52.5563 33.1230,56.9190 C30.9142,61.2810 23.5215,62.3722 16.6132,59.3565 C9.7035,56.3400 5.8957,50.3580 8.1060,45.9960 Z" style="fill-rule: evenodd; fill: url(#grad3978); "/>
    <defs xmlns="http://www.w3.org/2000/svg">
      <radialGradient id="grad3979" cx="100.0000%" cy="100.0000%" r="100.0000%">
        <stop offset="0%" stop-color="#d0d0d0" stop-opacity="1.0000"/>
        <stop offset="100%" stop-color="#e0e0e0" stop-opacity="1.0000"/>
      </radialGradient>
    </defs>
    <path xmlns="http://www.w3.org/2000/svg" d="  M8.3047,45.5902 C9.5190,43.1918 12.3270,41.6857 16.0072,41.4570 C18.7447,41.2875 21.8010,41.8627 24.6127,43.0755 C29.1450,45.0285 32.1322,47.6032 33.2535,50.5208 C33.9952,52.4475 33.8827,54.4597 32.9295,56.3408 C31.7107,58.7483 28.8960,60.2588 25.2082,60.4868 C22.4685,60.6563 19.4167,60.0765 16.6200,58.8555 C9.8302,55.8900 6.1020,49.9403 8.3047,45.5902 Z" style="fill-rule: evenodd; fill: url(#grad3979); "/>
    <defs xmlns="http://www.w3.org/2000/svg">
      <radialGradient id="grad3980" cx="100.0000%" cy="100.0000%" r="100.0000%">
        <stop offset="0%" stop-color="#e0e0e0" stop-opacity="1.0000"/>
        <stop offset="100%" stop-color="#b7b7b7" stop-opacity="1.0000"/>
      </radialGradient>
    </defs>
    <path xmlns="http://www.w3.org/2000/svg" d="  M8.5140,45.6817 C10.6650,41.4322 17.8155,40.3845 24.5145,43.2720 C32.7555,46.8240 34.8727,52.0012 32.7195,56.2507 C30.5662,60.4987 23.4023,61.5780 16.7167,58.6605 C10.0342,55.7407 6.3607,49.9305 8.5140,45.6817 Z" style="fill-rule: evenodd; fill: url(#grad3980); "/>
    <path xmlns="http://www.w3.org/2000/svg" d="  M10.1700,43.3845 C10.1700,43.3845 15.7650,39.1522 24.6525,43.0830 C38.2410,49.0920 32.5440,57.0518 32.5440,57.0518 C32.5440,57.0518 28.5082,51.3195 20.5305,47.5170 C13.9590,44.3850 10.1700,43.3845 10.1700,43.3845 Z" style="fill-rule: evenodd; fill: #000000; fill-opacity: 0.1686; "/>
    <defs xmlns="http://www.w3.org/2000/svg" xmlns:xlink="http://www.w3.org/1999/xlink">
      <linearGradient id="grad3981">
        <stop offset="0%" stop-color="#b7b7b7" stop-opacity="0.5216"/>
        <stop offset="100%" stop-color="#e0e0e0" stop-opacity="0.5216"/>
      </linearGradient>
      <linearGradient xlink:href="#grad3981" id="grad3982" x1="0" y1="0" x2="0" y2="1" gradientTransform="rotate(-0 .5 .5)" gradientUnits="objectBoundingBox">
  </linearGradient>
    </defs>
    <path xmlns="http://www.w3.org/2000/svg" d="  M23.6452,60.2813 C23.6452,60.2813 24.0292,56.3273 24.0975,54.2438 C24.2017,51.1605 24.1027,49.9117 24.1027,49.9117 C24.1027,49.9117 25.3912,52.4730 25.8262,54.1237 C26.3317,56.0385 27.0435,60.1103 27.0435,60.1103 C27.0435,60.1103 26.5597,60.2978 25.3462,60.3285 C24.2587,60.3548 23.6452,60.2813 23.6452,60.2813 Z" style="fill-rule: evenodd; fill: url(#grad3982); "/>
    <defs xmlns="http://www.w3.org/2000/svg" xmlns:xlink="http://www.w3.org/1999/xlink">
      <linearGradient id="grad3983">
        <stop offset="0%" stop-color="#b7b7b7" stop-opacity="0.4980"/>
        <stop offset="100%" stop-color="#e0e0e0" stop-opacity="0.4980"/>
      </linearGradient>
      <linearGradient xlink:href="#grad3983" id="grad3984" x1="0" y1="0" x2="0" y2="1" gradientTransform="rotate(315 .5 .5)" gradientUnits="objectBoundingBox">
  </linearGradient>
    </defs>
    <path xmlns="http://www.w3.org/2000/svg" d="  M28.7940,59.4922 C28.7940,59.4922 28.5442,56.8215 27.5722,54.5467 C26.8995,52.9740 25.9905,51.2175 25.9905,51.2175 C25.9905,51.2175 27.4350,52.7505 28.3860,54.2617 C29.4960,56.0242 30.2827,58.8112 30.2827,58.8112 C30.2827,58.8112 30.0645,59.0145 29.4292,59.2725 C28.8592,59.5035 28.7940,59.4922 28.7940,59.4922 Z" style="fill-rule: evenodd; fill: url(#grad3984); "/>
    <defs xmlns="http://www.w3.org/2000/svg" xmlns:xlink="http://www.w3.org/1999/xlink">
      <linearGradient id="grad3985">
        <stop offset="0%" stop-color="#cdcdcd" stop-opacity="1.0000"/>
        <stop offset="100%" stop-color="#ffffff" stop-opacity="1.0000"/>
      </linearGradient>
      <linearGradient xlink:href="#grad3985" id="grad3986" x1="0" y1="0" x2="0" y2="1" gradientTransform="rotate(135 .5 .5)" gradientUnits="objectBoundingBox">
  </linearGradient>
    </defs>
    <path xmlns="http://www.w3.org/2000/svg" d="  M2.6100,0.4530 C2.9565,0.2587 3.0435,0.0000 3.8647,0.4320 C4.5397,0.7882 41.9550,22.2142 41.9550,22.2142 C42.2347,22.4085 42.2205,22.4625 42.2205,22.4625 L39.1950,24.2160 L0.1942,1.7827 C0.1950,1.7835 2.3257,0.6143 2.6100,0.4530 Z" style="fill-rule: evenodd; fill: url(#grad3986); "/>
    <defs xmlns="http://www.w3.org/2000/svg" xmlns:xlink="http://www.w3.org/1999/xlink">
      <linearGradient id="grad3987">
        <stop offset="0%" stop-color="#a9a9a9" stop-opacity="1.0000"/>
        <stop offset="100%" stop-color="#9a9a9a" stop-opacity="1.0000"/>
      </linearGradient>
      <linearGradient xlink:href="#grad3987" id="grad3988" x1="0" y1="0" x2="0" y2="1" gradientTransform="rotate(225 .5 .5)" gradientUnits="objectBoundingBox">
  </linearGradient>
    </defs>
    <path xmlns="http://www.w3.org/2000/svg" d="  M42.3022,54.2212 C42.2887,54.4080 42.1957,54.5527 41.9917,54.6465 L38.9122,56.4097 C38.9122,56.4097 39.0457,55.9920 39.0457,55.7527 L39.1477,24.4673 C39.1665,24.3232 39.1162,24.2565 39.1162,24.2565 L42.2265,22.4670 C42.2265,22.4670 42.2940,22.5480 42.2910,22.7827 L42.3022,54.2212 Z" style="fill-rule: evenodd; fill: url(#grad3988); "/>
    <defs xmlns="http://www.w3.org/2000/svg" xmlns:xlink="http://www.w3.org/1999/xlink">
      <linearGradient id="grad3989">
        <stop offset="0%" stop-color="#666666" stop-opacity="1.0000"/>
        <stop offset="100%" stop-color="#eeeeee" stop-opacity="1.0000"/>
      </linearGradient>
      <linearGradient xlink:href="#grad3989" id="grad3990" x1="0" y1="0" x2="0" y2="1" gradientTransform="rotate(225 .5 .5)" gradientUnits="objectBoundingBox">
  </linearGradient>
    </defs>
    <path xmlns="http://www.w3.org/2000/svg" d="  M0.0045,33.4230 C0.0045,27.9277 0.0180,2.6430 0.0098,2.2590 C0.0000,1.8262 0.2040,1.6597 0.5655,1.8645 C5.3250,4.5713 39.0450,23.7517 39.0555,23.7563 C39.3143,23.8763 39.4447,24.1260 39.4387,24.5062 L39.3315,55.7887 C39.2925,56.1577 39.0090,56.4945 38.5395,56.4945 C38.4533,56.4945 38.3625,56.4802 38.2740,56.4495 C38.2560,56.4442 38.2388,56.4367 38.2230,56.4270 C38.2230,56.4270 0.9735,34.8795 0.6975,34.7138 C0.1538,34.3883 0.0045,34.0493 0.0045,33.4230 Z" style="fill-rule: evenodd; fill: url(#grad3990); "/>
    <path xmlns="http://www.w3.org/2000/svg" d="  M37.3860,51.6540 C37.3702,51.7710 37.2030,52.0447 36.9030,51.9450 L3.0097,32.3962 C2.9092,32.3437 2.9092,32.2552 2.9242,32.1187 L2.9302,6.2183 C2.9827,6.1185 3.1072,6.0795 3.2077,6.1327 L37.1468,25.3590 C37.3132,25.4880 37.3530,25.5735 37.3388,25.6808 L37.3860,51.6540 Z" style="fill-rule: evenodd; fill: #04096c; "/>
    <defs xmlns="http://www.w3.org/2000/svg" xmlns:xlink="http://www.w3.org/1999/xlink">
      <linearGradient id="grad3991">
        <stop offset="0%" stop-color="#f9f9f9" stop-opacity="1.0000"/>
        <stop offset="100%" stop-color="#656565" stop-opacity="1.0000"/>
      </linearGradient>
      <linearGradient xlink:href="#grad3991" id="grad3992" x1="0" y1="0" x2="0" y2="1" gradientTransform="rotate(45 .5 .5)" gradientUnits="objectBoundingBox">
  </linearGradient>
    </defs>
    <path xmlns="http://www.w3.org/2000/svg" d="  M38.9340,23.9730 C38.9340,23.9730 1.2742,2.5102 0.8370,2.2778 C0.3645,2.0265 0.2220,1.8915 0.2415,2.5838 C0.2572,3.2070 0.2565,28.5885 0.2617,33.5460 C0.2760,33.9135 0.3562,34.1580 0.6967,34.3890 C1.1092,34.6695 38.4172,56.1337 38.4172,56.1337 C38.8380,56.2740 39.0742,55.9387 39.0960,55.7250 L39.2047,24.4252 C39.1845,24.2265 39.1687,24.1537 38.9340,23.9730 Z M36.0270,51.2700 L3.7050,32.7547 C3.1627,32.4690 2.9490,32.1795 2.9490,31.7122 L2.9205,6.9975 C2.9385,6.2565 3.1027,6.3870 3.6465,6.6847 L36.0270,25.2375 C36.6577,25.6012 36.8602,25.8195 36.8602,26.3745 L36.8730,50.4218 C36.8602,51.4755 36.6525,51.6532 36.0270,51.2700 Z" style="fill-rule: evenodd; fill: url(#grad3992); "/>
    <path xmlns="http://www.w3.org/2000/svg" d="  M36.8790,50.6722 C36.8790,50.6722 36.7650,51.3487 36.2550,51.0383 C35.8935,50.8170 3.7492,32.4540 3.7492,32.4540 C3.7492,32.4540 3.4132,32.2590 3.3270,32.0437 C3.2527,31.8585 3.2415,31.6050 3.2415,31.6050 L3.2235,6.4740 C3.2235,6.4740 3.0930,6.3795 3.0022,6.5055 C2.9505,6.5775 2.9250,6.8490 2.9250,6.8490 L2.9497,31.6612 C2.9497,31.6612 2.9122,31.9012 3.0570,32.1840 C3.2235,32.5125 3.5550,32.6760 3.5550,32.6760 L35.7270,51.1627 C35.7270,51.1627 36.3683,51.4920 36.4822,51.4845 C36.6255,51.4732 36.8790,51.3315 36.8790,50.6722 Z" style="fill-rule: evenodd; fill: #ffffff; "/>
    <defs xmlns="http://www.w3.org/2000/svg" xmlns:xlink="http://www.w3.org/1999/xlink">
      <linearGradient id="grad3993">
        <stop offset="0%" stop-color="#000d91" stop-opacity="1.0000"/>
        <stop offset="100%" stop-color="#001bbf" stop-opacity="1.0000"/>
      </linearGradient>
      <linearGradient xlink:href="#grad3993" id="grad3994" x1="0" y1="0" x2="0" y2="1" gradientTransform="rotate(135 .5 .5)" gradientUnits="objectBoundingBox">
  </linearGradient>
    </defs>
    <path xmlns="http://www.w3.org/2000/svg" d="  M36.4980,50.0775 C36.4815,50.1847 36.3293,50.4322 36.0577,50.3422 L4.3725,32.5567 C4.2817,32.5087 3.7515,32.3085 3.7822,31.5008 L3.7882,7.4677 C3.8362,7.3762 3.9495,7.3417 4.0402,7.3897 L36.0435,25.8053 C36.3233,25.9702 36.4890,26.2095 36.4680,26.6542 L36.4980,50.0775 Z" style="fill-rule: evenodd; fill: url(#grad3994); "/>
    <path xmlns="http://www.w3.org/2000/svg" d="  M36.4717,33.7897 L3.7943,21.5018 L3.7785,7.8450 C3.7785,7.3147 3.8617,7.3050 4.0867,7.4347 L35.7953,25.6800 C36.3847,25.9695 36.4988,26.1982 36.4575,26.8710 L36.4717,33.7897 Z" style="fill-rule: evenodd; fill: #0025e7; fill-opacity: 0.5686; "/>
    <defs xmlns="http://www.w3.org/2000/svg" xmlns:xlink="http://www.w3.org/1999/xlink">
      <linearGradient id="grad3995">
        <stop offset="0%" stop-color="#ffffff" stop-opacity="0.5686"/>
        <stop offset="100%" stop-color="#ffffff" stop-opacity="0.5686"/>
      </linearGradient>
      <linearGradient xlink:href="#grad3995" id="grad3996" x1="0" y1="0" x2="0" y2="1" gradientTransform="rotate(180 .5 .5)" gradientUnits="objectBoundingBox">
  </linearGradient>
    </defs>
    <path xmlns="http://www.w3.org/2000/svg" d="  M36.1515,55.0935 L26.3182,49.6253 C26.3182,49.6253 25.1152,36.9112 24.0412,31.0658 C22.9665,25.2300 19.7827,19.6657 19.5652,19.0110 C18.6952,16.4018 20.8072,17.5200 20.8072,17.5200 L35.8387,26.0993 C36.1852,26.2800 36.1492,26.6513 36.1492,26.9797 L36.1515,55.0935 Z" style="fill-rule: evenodd; fill: url(#grad3996); "/>
    <defs xmlns="http://www.w3.org/2000/svg" xmlns:xlink="http://www.w3.org/1999/xlink">
      <linearGradient id="grad3997">
        <stop offset="0%" stop-color="#ffffff" stop-opacity="0.4980"/>
        <stop offset="100%" stop-color="#ffffff" stop-opacity="0.4980"/>
      </linearGradient>
      <linearGradient xlink:href="#grad3997" id="grad3998" x1="0" y1="0" x2="0" y2="1" gradientTransform="rotate(180 .5 .5)" gradientUnits="objectBoundingBox">
  </linearGradient>
    </defs>
    <path xmlns="http://www.w3.org/2000/svg" d="  M4.5765,19.6215 L15.6210,43.3597 L6.6367,38.1255 L3.9960,30.8715 L3.9532,19.4543 C3.9532,19.4543 3.9547,19.4617 3.9547,18.5670 C3.9555,18.1710 4.5765,19.6215 4.5765,19.6215 Z" style="fill-rule: evenodd; fill: url(#grad3998); "/>
    <path xmlns="http://www.w3.org/2000/svg" d="  M3.0052,33.6157 C3.2257,33.4852 3.5812,33.6967 3.8025,34.0867 C4.0222,34.4767 4.0237,34.8975 3.8047,35.0265 C3.5850,35.1562 3.2280,34.9455 3.0075,34.5547 C2.7877,34.1647 2.7862,33.7447 3.0052,33.6157 Z" style="fill-rule: evenodd; fill: #333333; "/>
    <defs xmlns="http://www.w3.org/2000/svg">
      <radialGradient id="grad3999" cx="50.0000%" cy="50.0000%" r="100.0000%">
        <stop offset="0%" stop-color="#ccff66" stop-opacity="1.0000"/>
        <stop offset="100%" stop-color="#7ab04a" stop-opacity="1.0000"/>
      </radialGradient>
    </defs>
    <path xmlns="http://www.w3.org/2000/svg" d="  M3.2805,33.9030 C3.4342,33.8130 3.6832,33.9607 3.8377,34.2337 C3.9922,34.5060 3.9922,34.8007 3.8400,34.8915 C3.6862,34.9822 3.4357,34.8337 3.2820,34.5622 C3.1282,34.2877 3.1275,33.9937 3.2805,33.9030 Z" style="fill-rule: evenodd; fill: url(#grad3999); "/>
    <!--converted by libvisio2svg-->
  </g>
</svg>
