<svg xmlns="http://www.w3.org/2000/svg" xmlns:xlink="http://www.w3.org/1999/xlink" version="1.1" width="0.7717000000" height="0.8477000000" viewBox="0 0 55.5638 61.0365">
  <title><![CDATA[PC]]></title>
  <g transform=" scale(1.000000) ">
    <path xmlns="http://www.w3.org/2000/svg" d="  M5.1960,45.5805 L5.1810,45.5880 C5.1810,45.5873 5.1862,45.5865 5.1960,45.5805 Z" style="stroke-width: 1.5000; stroke: #8d98b5; stroke-dasharray: none; stroke-linecap: butt; stroke-linejoin: miter; fill: none; "/>
    <path xmlns="http://www.w3.org/2000/svg" d="  M55.5517,22.2952 C55.5555,22.0665 55.4978,21.9300 55.2240,21.7395 C55.2240,21.7395 18.6105,0.7718 17.9490,0.4238 C17.1465,0.0015 17.0610,0.2550 16.7227,0.4448 C16.4430,0.6015 14.3745,1.7558 14.3745,1.7558 C14.2417,1.8007 14.1705,1.9582 14.1765,2.2110 C14.1795,2.3340 14.1802,5.0632 14.1795,8.8680 L0.4582,16.6327 L0.5355,16.5893 C0.4245,16.6620 0.3480,16.7595 0.3165,16.8863 C0.3165,16.8863 0.0532,24.4447 0.0285,29.3107 C0.0007,34.7288 0.3517,42.8385 0.3517,42.8385 C0.4005,44.1383 0.6060,44.7705 2.1660,45.5865 C3.0870,46.0665 4.7025,45.9907 5.2072,45.5685 C5.2185,45.5580 5.2297,45.5460 5.2402,45.5317 C5.2230,45.5580 5.2072,45.5730 5.1960,45.5798 L5.3925,45.4733 L8.9377,43.4663 C9.7845,43.9612 10.5555,44.4120 10.5555,44.4120 C10.6417,44.4623 10.7333,44.5072 10.8270,44.5447 C11.2042,44.6918 11.6002,44.7675 12.0030,44.7675 C12.6127,44.7675 13.2315,44.5913 13.7925,44.2575 L21.0697,40.0552 C21.7590,39.6967 22.2532,39.0675 22.4378,38.3632 C23.8642,39.1898 25.4228,40.0920 27.0562,41.0362 C25.9747,41.3483 25.0200,41.7998 24.2280,42.3780 C24.1582,42.4252 24.1185,42.4553 24.1185,42.4553 C24.1185,42.4553 24.1222,42.4568 24.1267,42.4575 C23.3407,43.0552 22.7167,43.7775 22.2938,44.6138 C22.2472,44.7030 22.2082,44.7953 22.1670,44.8875 C22.1445,44.9295 22.1197,44.9677 22.0995,45.0105 C19.9365,49.2788 23.6625,55.1325 30.4245,58.0845 C37.1843,61.0358 44.4173,59.9678 46.5802,55.6988 C47.0535,54.7635 47.3205,53.7818 47.3602,52.7828 C49.9357,54.2722 51.5707,55.2188 51.5707,55.2188 C52.0095,55.3890 52.3110,55.1648 52.3275,55.1528 L55.2592,53.4757 C55.4595,53.3842 55.5510,53.2410 55.5630,53.0587 L55.5517,22.2952 Z M5.4075,19.0845 C5.3992,18.9937 5.3805,18.9023 5.3475,18.8130 C5.4022,18.9390 5.4142,19.0313 5.4165,19.0792 L5.4075,19.0845 Z M5.3977,44.9505 C5.4090,44.8402 5.4142,44.7352 5.4180,44.6535 C5.4180,44.7172 5.4172,44.7555 5.4172,44.7600 C5.4120,44.8305 5.4052,44.8920 5.3977,44.9505 Z" style="stroke-width: 1.5000; stroke: #8d98b5; stroke-dasharray: none; stroke-linecap: butt; stroke-linejoin: miter; fill: none; "/>
    <defs xmlns="http://www.w3.org/2000/svg" xmlns:xlink="http://www.w3.org/1999/xlink">
      <linearGradient id="grad4055">
        <stop offset="0%" stop-color="#5e5e5e" stop-opacity="1.0000"/>
        <stop offset="100%" stop-color="#9a9a9a" stop-opacity="1.0000"/>
      </linearGradient>
      <linearGradient xlink:href="#grad4055" id="grad4056" x1="0" y1="0" x2="0" y2="1" gradientTransform="rotate(315 .5 .5)" gradientUnits="objectBoundingBox">
  </linearGradient>
    </defs>
    <path xmlns="http://www.w3.org/2000/svg" d="  M20.0707,37.1662 L16.2180,35.3362 C15.7560,35.0670 15.2617,35.3325 14.9842,35.4907 L7.9148,39.3435 C7.0478,39.9405 7.4325,40.3260 7.7790,40.5375 L11.5358,42.7342 C11.9798,42.9075 12.4230,42.8115 12.8078,42.5797 L20.1465,38.3422 C20.5905,38.1292 20.8605,37.5510 20.0707,37.1662 Z M20.0265,38.1307 L12.6833,42.3705 C12.4530,42.5085 12.2242,42.5782 12.0030,42.5782 C11.8815,42.5782 11.7600,42.5565 11.6423,42.5122 L7.9080,40.3290 C7.7333,40.2210 7.6350,40.1152 7.6328,40.0290 C7.6298,39.9712 7.6673,39.8115 8.0438,39.5497 L15.1057,35.7007 C15.2520,35.6175 15.5250,35.4637 15.7890,35.4637 C15.9007,35.4637 16.0005,35.4900 16.1152,35.5552 L19.9650,37.3837 C20.2020,37.4992 20.3332,37.6365 20.3317,37.7685 C20.3310,37.8952 20.2110,38.0407 20.0265,38.1307 Z" style="fill-rule: evenodd; fill: url(#grad4056); "/>
    <defs xmlns="http://www.w3.org/2000/svg" xmlns:xlink="http://www.w3.org/1999/xlink">
      <linearGradient id="grad4057">
        <stop offset="0%" stop-color="#848484" stop-opacity="1.0000"/>
        <stop offset="100%" stop-color="#9a9a9a" stop-opacity="1.0000"/>
      </linearGradient>
      <linearGradient xlink:href="#grad4057" id="grad4058" x1="0" y1="0" x2="0" y2="1" gradientTransform="rotate(90 .5 .5)" gradientUnits="objectBoundingBox">
  </linearGradient>
    </defs>
    <path xmlns="http://www.w3.org/2000/svg" d="  M16.8623,34.7385 C16.2998,34.4107 15.7005,34.7347 15.3637,34.9260 L6.7740,39.6067 C5.7203,40.3327 6.1883,40.8015 6.6105,41.0587 L11.1743,43.7265 C11.7128,43.9380 12.2520,43.8210 12.7193,43.5405 L21.6367,38.3910 C22.1760,38.1337 22.5030,37.4310 21.5430,36.9637 L16.8623,34.7385 Z M20.1473,38.3407 L12.8085,42.5782 C12.4230,42.8100 11.9805,42.9067 11.5365,42.7327 L7.7798,40.5360 C7.4333,40.3245 7.0478,39.9390 7.9155,39.3420 L14.9850,35.4892 C15.2618,35.3310 15.7560,35.0655 16.2187,35.3347 L20.0715,37.1647 C20.8605,37.5510 20.5905,38.1292 20.1473,38.3407 Z" style="fill-rule: evenodd; fill: url(#grad4058); "/>
    <defs xmlns="http://www.w3.org/2000/svg" xmlns:xlink="http://www.w3.org/1999/xlink">
      <linearGradient id="grad4059">
        <stop offset="0%" stop-color="#848484" stop-opacity="1.0000"/>
        <stop offset="100%" stop-color="#9a9a9a" stop-opacity="1.0000"/>
      </linearGradient>
      <linearGradient xlink:href="#grad4059" id="grad4060" x1="0" y1="0" x2="0" y2="1" gradientTransform="rotate(90 .5 .5)" gradientUnits="objectBoundingBox">
  </linearGradient>
    </defs>
    <path xmlns="http://www.w3.org/2000/svg" d="  M20.9055,35.4082 L17.1097,33.6060 C16.7055,33.3892 16.2480,33.2752 15.7875,33.2752 C14.9445,33.2752 14.2845,33.6502 14.0400,33.7897 L6.9840,37.6342 C6.9240,37.6672 6.8670,37.7025 6.8108,37.7415 C5.6483,38.5425 5.4248,39.4605 5.4435,40.0905 C5.4563,40.5847 5.6468,41.5155 6.7703,42.2017 C6.7800,42.2062 10.5555,44.4135 10.5555,44.4135 C10.6418,44.4637 10.7333,44.5087 10.8270,44.5462 C11.2043,44.6932 11.6003,44.7690 12.0030,44.7690 C12.6128,44.7690 13.2315,44.5927 13.7925,44.2590 L21.0697,40.0567 C21.9465,39.6015 22.5173,38.7060 22.5210,37.7775 C22.5217,37.3020 22.3687,36.1215 20.9055,35.4082 Z M20.9572,39.8392 L13.6710,44.0467 C13.1453,44.3595 12.5685,44.5245 12.0030,44.5245 C11.6310,44.5245 11.2658,44.4547 10.9155,44.3182 C10.8345,44.2867 10.7543,44.2477 10.6793,44.2035 C10.6793,44.2035 6.9030,41.9962 6.8940,41.9910 C5.8733,41.3677 5.6978,40.5277 5.6865,40.0830 C5.6708,39.5130 5.8770,38.6797 6.9503,37.9410 C6.9990,37.9080 7.0493,37.8772 7.1010,37.8480 L14.1577,34.0027 C14.4240,33.8520 15.0232,33.5182 15.7890,33.5182 C16.2112,33.5182 16.6268,33.6240 16.9972,33.8212 L20.8020,35.6287 C22.1392,36.2820 22.2787,37.3485 22.2772,37.7760 C22.2742,38.6227 21.7590,39.4237 20.9572,39.8392 Z" style="fill-rule: evenodd; fill: url(#grad4060); "/>
    <path xmlns="http://www.w3.org/2000/svg" d="  M20.9055,35.4082 L17.1097,33.6060 C16.7055,33.3892 16.2480,33.2752 15.7875,33.2752 C14.9445,33.2752 14.2845,33.6502 14.0400,33.7897 L6.9840,37.6342 C6.9240,37.6672 6.8670,37.7025 6.8108,37.7415 C5.6483,38.5425 5.4248,39.4605 5.4435,40.0905 C5.4563,40.5847 5.6468,41.5155 6.7703,42.2017 C6.7800,42.2062 10.5555,44.4135 10.5555,44.4135 C10.6418,44.4637 10.7333,44.5087 10.8270,44.5462 C11.2043,44.6932 11.6003,44.7690 12.0030,44.7690 C12.6128,44.7690 13.2315,44.5927 13.7925,44.2590 L21.0697,40.0567 C21.9465,39.6015 22.5173,38.7060 22.5210,37.7775 C22.5217,37.3020 22.3687,36.1215 20.9055,35.4082 Z M20.9572,39.8392 L13.6710,44.0467 C13.1453,44.3595 12.5685,44.5245 12.0030,44.5245 C11.6310,44.5245 11.2658,44.4547 10.9155,44.3182 C10.8345,44.2867 10.7543,44.2477 10.6793,44.2035 C10.6793,44.2035 6.9030,41.9962 6.8940,41.9910 C5.8733,41.3677 5.6978,40.5277 5.6865,40.0830 C5.6708,39.5130 5.8770,38.6797 6.9503,37.9410 C6.9990,37.9080 7.0493,37.8772 7.1010,37.8480 L14.1577,34.0027 C14.4240,33.8520 15.0232,33.5182 15.7890,33.5182 C16.2112,33.5182 16.6268,33.6240 16.9972,33.8212 L20.8020,35.6287 C22.1392,36.2820 22.2787,37.3485 22.2772,37.7760 C22.2742,38.6227 21.7590,39.4237 20.9572,39.8392 Z" style="fill-rule: evenodd; fill: #5e5e5e; "/>
    <defs xmlns="http://www.w3.org/2000/svg" xmlns:xlink="http://www.w3.org/1999/xlink">
      <linearGradient id="grad4061">
        <stop offset="0%" stop-color="#848484" stop-opacity="1.0000"/>
        <stop offset="100%" stop-color="#9a9a9a" stop-opacity="1.0000"/>
      </linearGradient>
      <linearGradient xlink:href="#grad4061" id="grad4062" x1="0" y1="0" x2="0" y2="1" gradientTransform="rotate(90 .5 .5)" gradientUnits="objectBoundingBox">
  </linearGradient>
    </defs>
    <path xmlns="http://www.w3.org/2000/svg" d="  M20.8020,35.6280 L16.9972,33.8205 C16.6267,33.6225 16.2105,33.5175 15.7890,33.5175 C15.0232,33.5175 14.4247,33.8512 14.1577,34.0020 L7.1010,37.8472 C7.0493,37.8765 6.9990,37.9072 6.9503,37.9402 C5.8770,38.6790 5.6715,39.5130 5.6865,40.0822 C5.6985,40.5270 5.8733,41.3670 6.8940,41.9902 C6.9030,41.9955 10.6792,44.2027 10.6792,44.2027 C10.7550,44.2477 10.8345,44.2860 10.9155,44.3175 C11.2658,44.4547 11.6310,44.5237 12.0030,44.5237 C12.5685,44.5237 13.1445,44.3587 13.6710,44.0460 L20.9572,39.8385 C21.7590,39.4222 22.2750,38.6220 22.2772,37.7745 C22.2780,37.3477 22.1392,36.2812 20.8020,35.6280 Z M21.6360,38.3902 L12.7185,43.5397 C12.2512,43.8202 11.7120,43.9372 11.1735,43.7257 L6.6098,41.0580 C6.1875,40.8007 5.7188,40.3320 6.7733,39.6060 L15.3630,34.9252 C15.6997,34.7340 16.2990,34.4100 16.8615,34.7377 L21.5415,36.9622 C22.5022,37.4295 22.1752,38.1330 21.6360,38.3902 Z" style="fill-rule: evenodd; fill: url(#grad4062); "/>
    <defs xmlns="http://www.w3.org/2000/svg">
      <radialGradient id="grad4063" cx="50.0000%" cy="50.0000%" r="100.0000%">
        <stop offset="0%" stop-color="#dae1e1" stop-opacity="1.0000"/>
        <stop offset="100%" stop-color="#7f8787" stop-opacity="1.0000"/>
      </radialGradient>
    </defs>
    <path xmlns="http://www.w3.org/2000/svg" d="  M16.8623,34.7385 C16.2997,34.4107 15.7005,34.7347 15.3637,34.9260 L6.7740,39.6067 C5.7203,40.3327 6.1883,40.8015 6.6105,41.0587 L11.1742,43.7265 C11.7127,43.9380 12.2520,43.8210 12.7193,43.5405 L21.6367,38.3910 C22.1760,38.1337 22.5030,37.4310 21.5430,36.9637 L16.8623,34.7385 Z M20.1472,38.3407 L12.8085,42.5782 C12.4230,42.8100 11.9805,42.9067 11.5365,42.7327 L7.7797,40.5360 C7.4333,40.3245 7.0477,39.9390 7.9155,39.3420 L14.9850,35.4892 C15.2617,35.3310 15.7560,35.0655 16.2187,35.3347 L20.0715,37.1647 C20.8605,37.5510 20.5905,38.1292 20.1472,38.3407 Z" style="fill-rule: evenodd; fill: url(#grad4063); "/>
    <defs xmlns="http://www.w3.org/2000/svg">
      <radialGradient id="grad4064" cx="50.0000%" cy="50.0000%" r="100.0000%">
        <stop offset="0%" stop-color="#dae1e1" stop-opacity="1.0000"/>
        <stop offset="100%" stop-color="#7f8787" stop-opacity="1.0000"/>
      </radialGradient>
    </defs>
    <path xmlns="http://www.w3.org/2000/svg" d="  M20.8020,35.6280 L16.9972,33.8205 C16.6267,33.6225 16.2105,33.5175 15.7890,33.5175 C15.0232,33.5175 14.4247,33.8512 14.1577,34.0020 L7.1010,37.8472 C7.0492,37.8765 6.9990,37.9072 6.9502,37.9402 C5.8770,38.6790 5.6715,39.5130 5.6865,40.0822 C5.6985,40.5270 5.8732,41.3670 6.8940,41.9902 C6.9030,41.9955 10.6792,44.2027 10.6792,44.2027 C10.7550,44.2477 10.8345,44.2860 10.9155,44.3175 C11.2657,44.4547 11.6310,44.5237 12.0030,44.5237 C12.5685,44.5237 13.1445,44.3587 13.6710,44.0460 L20.9572,39.8385 C21.7590,39.4222 22.2750,38.6220 22.2772,37.7745 C22.2780,37.3477 22.1392,36.2812 20.8020,35.6280 Z M21.6360,38.3902 L12.7185,43.5397 C12.2512,43.8202 11.7120,43.9372 11.1735,43.7257 L6.6097,41.0580 C6.1875,40.8007 5.7188,40.3320 6.7732,39.6060 L15.3630,34.9252 C15.6997,34.7340 16.2990,34.4100 16.8615,34.7377 L21.5415,36.9622 C22.5022,37.4295 22.1752,38.1330 21.6360,38.3902 Z" style="fill-rule: evenodd; fill: url(#grad4064); "/>
    <path xmlns="http://www.w3.org/2000/svg" d="  M20.8020,35.6280 L16.9972,33.8205 C16.6267,33.6225 16.2105,33.5175 15.7890,33.5175 C15.0232,33.5175 14.4248,33.8512 14.1577,34.0020 L7.1010,37.8472 C7.0493,37.8765 6.9990,37.9072 6.9503,37.9402 C5.8770,38.6790 5.6715,39.5130 5.6865,40.0822 C5.6985,40.5270 5.8733,41.3670 6.8940,41.9902 C6.9030,41.9955 10.6793,44.2027 10.6793,44.2027 C10.7550,44.2477 10.8345,44.2860 10.9155,44.3175 C11.2657,44.4547 11.6310,44.5237 12.0030,44.5237 C12.5685,44.5237 13.1445,44.3587 13.6710,44.0460 L20.9572,39.8385 C21.7590,39.4222 22.2750,38.6220 22.2772,37.7745 C22.2780,37.3477 22.1393,36.2812 20.8020,35.6280 Z M21.1372,38.9062 L13.1520,43.5382 C12.4875,43.8367 11.5508,43.9822 10.8870,43.5510 L10.3658,43.2345 C10.3658,43.2345 10.2195,42.9787 10.3815,42.6555 C10.5435,42.3322 10.8540,42.3285 10.8540,42.3285 L8.1608,40.7535 C8.1608,40.7535 6.4320,40.1400 7.9658,39.3315 L15.2707,35.3437 C15.7538,35.0895 16.1880,35.3272 16.1880,35.3272 C18.2085,36.3045 19.3740,36.8430 20.0873,37.1835 C20.0873,37.1835 19.8180,36.8887 20.1555,36.3907 C20.6888,35.6070 21.3472,35.9872 21.3472,35.9872 C22.3402,36.5962 22.1655,38.1435 21.1372,38.9062 Z" style="fill-rule: evenodd; fill: #000000; fill-opacity: 0.3412; "/>
    <defs xmlns="http://www.w3.org/2000/svg" xmlns:xlink="http://www.w3.org/1999/xlink">
      <linearGradient id="grad4065">
        <stop offset="0%" stop-color="#7c7c7c" stop-opacity="1.0000"/>
        <stop offset="100%" stop-color="#bcbcbc" stop-opacity="1.0000"/>
      </linearGradient>
      <linearGradient xlink:href="#grad4065" id="grad4066" x1="0" y1="0" x2="0" y2="1" gradientTransform="rotate(225 .5 .5)" gradientUnits="objectBoundingBox">
  </linearGradient>
    </defs>
    <path xmlns="http://www.w3.org/2000/svg" d="  M22.9822,34.3988 C22.9822,35.2995 22.2142,35.9498 22.0245,36.0593 L5.3925,45.4740 L5.1817,45.5873 C5.1817,45.5873 5.3512,45.5490 5.4180,44.7593 C5.4277,44.6483 5.4022,19.0875 5.4022,19.0875 L22.9492,9.2790 L22.9822,34.3988 Z" style="fill-rule: evenodd; fill: url(#grad4066); "/>
    <defs xmlns="http://www.w3.org/2000/svg" xmlns:xlink="http://www.w3.org/1999/xlink">
      <linearGradient id="grad4067">
        <stop offset="0%" stop-color="#dfddda" stop-opacity="1.0000"/>
        <stop offset="100%" stop-color="#eaeae7" stop-opacity="1.0000"/>
      </linearGradient>
      <linearGradient xlink:href="#grad4067" id="grad4068" x1="0" y1="0" x2="0" y2="1" gradientTransform="rotate(180 .5 .5)" gradientUnits="objectBoundingBox">
  </linearGradient>
    </defs>
    <path xmlns="http://www.w3.org/2000/svg" d="  M20.1368,7.0140 C22.9823,8.2537 22.9545,9.2865 22.9545,9.2865 L5.4150,19.1212 C5.4150,19.1212 5.5777,18.1102 2.5822,16.7745 C1.0050,16.0710 0.4590,16.6327 0.4590,16.6327 L17.6265,6.9180 C17.6258,6.9172 18.9330,6.4890 20.1368,7.0140 Z" style="fill-rule: evenodd; fill: url(#grad4068); "/>
    <defs xmlns="http://www.w3.org/2000/svg" xmlns:xlink="http://www.w3.org/1999/xlink">
      <linearGradient id="grad4069">
        <stop offset="0%" stop-color="#b4b4b4" stop-opacity="1.0000"/>
        <stop offset="100%" stop-color="#f7f7f7" stop-opacity="1.0000"/>
      </linearGradient>
      <linearGradient xlink:href="#grad4069" id="grad4070" x1="0" y1="0" x2="0" y2="1" gradientTransform="rotate(180 .5 .5)" gradientUnits="objectBoundingBox">
  </linearGradient>
    </defs>
    <path xmlns="http://www.w3.org/2000/svg" d="  M5.6775,31.3222 C5.6775,36.2940 5.4232,44.4915 5.4232,44.4915 C5.4232,44.4915 5.4247,45.3847 5.2065,45.5685 C4.7017,45.9907 3.0862,46.0665 2.1652,45.5865 C0.6052,44.7705 0.3997,44.1382 0.3510,42.8385 C0.3510,42.8385 0.0000,34.7288 0.0277,29.3107 C0.0525,24.4448 0.3157,16.8863 0.3157,16.8863 C0.4455,16.3410 1.4250,16.3103 2.3077,16.6763 C3.5700,17.1270 5.4142,18.1088 5.4142,19.1588 C5.4150,19.1588 5.6775,26.3115 5.6775,31.3222 Z" style="fill-rule: evenodd; fill: url(#grad4070); "/>
    <defs xmlns="http://www.w3.org/2000/svg" xmlns:xlink="http://www.w3.org/1999/xlink">
      <linearGradient id="grad4071">
        <stop offset="0%" stop-color="#626262" stop-opacity="1.0000"/>
        <stop offset="100%" stop-color="#212121" stop-opacity="1.0000"/>
      </linearGradient>
      <linearGradient xlink:href="#grad4071" id="grad4072" x1="0" y1="0" x2="0" y2="1" gradientTransform="rotate(180 .5 .5)" gradientUnits="objectBoundingBox">
  </linearGradient>
    </defs>
    <path xmlns="http://www.w3.org/2000/svg" d="  M5.1367,31.4190 C5.1157,34.2615 4.9050,44.5860 4.9050,44.5860 C4.8585,45.9952 2.5560,45.3052 2.1045,45.0750 C1.6537,44.8455 0.7747,44.2020 0.7485,43.1722 C0.5962,36.2835 0.5880,35.7075 0.5347,29.6355 C0.5032,26.0685 0.8017,18.1177 0.8017,18.1177 C0.8017,17.3857 0.7297,16.7265 1.4895,16.9500 C1.4895,16.9500 1.5870,16.9365 2.1915,17.1645 C3.5820,17.6887 4.8435,18.5677 4.9020,19.2217 C4.9020,19.2217 5.1682,27.2520 5.1367,31.4190 Z" style="fill-rule: evenodd; fill: url(#grad4072); "/>
    <defs xmlns="http://www.w3.org/2000/svg" xmlns:xlink="http://www.w3.org/1999/xlink">
      <linearGradient id="grad4073">
        <stop offset="0%" stop-color="#acacb0" stop-opacity="1.0000"/>
        <stop offset="100%" stop-color="#b6b6bd" stop-opacity="1.0000"/>
      </linearGradient>
      <linearGradient xlink:href="#grad4073" id="grad4074" x1="0" y1="0" x2="0" y2="1" gradientTransform="rotate(180 .5 .5)" gradientUnits="objectBoundingBox">
  </linearGradient>
    </defs>
    <path xmlns="http://www.w3.org/2000/svg" d="  M4.7332,30.8992 L4.5053,44.3212 C4.5053,44.3212 4.4565,45.4957 2.3513,44.6145 C1.1273,44.1007 1.2180,43.1332 1.2180,43.1332 C1.2180,43.1332 0.9653,33.3742 0.9833,29.3010 C1.0005,25.2270 1.2323,18.3555 1.2323,18.3555 C1.2323,18.3555 1.2525,17.7885 1.8105,17.9708 C4.5293,18.8580 4.4910,19.8855 4.4910,19.8855 L4.7332,30.8992 Z" style="fill-rule: evenodd; fill: url(#grad4074); "/>
    <defs xmlns="http://www.w3.org/2000/svg" xmlns:xlink="http://www.w3.org/1999/xlink">
      <linearGradient id="grad4075">
        <stop offset="0%" stop-color="#848484" stop-opacity="1.0000"/>
        <stop offset="100%" stop-color="#9a9a9a" stop-opacity="1.0000"/>
      </linearGradient>
      <linearGradient xlink:href="#grad4075" id="grad4076" x1="0" y1="0" x2="0" y2="1" gradientTransform="rotate(90 .5 .5)" gradientUnits="objectBoundingBox">
  </linearGradient>
    </defs>
    <path xmlns="http://www.w3.org/2000/svg" d="  M18.7560,35.6123 C18.5453,35.6123 18.3390,35.4847 18.2168,35.2792 C18.0413,34.9807 18.1065,34.6132 18.3630,34.4603 C18.4372,34.4167 18.5220,34.3942 18.6098,34.3942 C18.8213,34.3942 19.0275,34.5217 19.1490,34.7272 C19.2435,34.8855 19.2720,35.0707 19.2308,35.2342 C19.1955,35.3692 19.1153,35.4795 19.0020,35.5455 C18.9300,35.5890 18.8445,35.6123 18.7560,35.6123 Z" style="fill-rule: evenodd; fill: url(#grad4076); "/>
    <defs xmlns="http://www.w3.org/2000/svg">
      <radialGradient id="grad4077" cx="0.0000%" cy="0.0000%" r="100.0000%">
        <stop offset="0%" stop-color="#e8ff66" stop-opacity="1.0000"/>
        <stop offset="100%" stop-color="#079948" stop-opacity="1.0000"/>
      </radialGradient>
    </defs>
    <path xmlns="http://www.w3.org/2000/svg" d="  M18.9945,34.8180 C19.1220,35.0318 19.0845,35.2898 18.9120,35.3910 C18.7402,35.4945 18.4965,35.4015 18.3713,35.1878 C18.2453,34.9740 18.2820,34.7175 18.4545,34.6148 C18.6270,34.5135 18.8692,34.6043 18.9945,34.8180 Z" style="fill-rule: evenodd; fill: url(#grad4077); "/>
    <path xmlns="http://www.w3.org/2000/svg" d="  M4.1580,23.6970 C4.1377,24.1103 3.6915,23.8883 3.6915,23.8883 L1.7010,22.7318 C1.7010,22.7318 1.4257,22.6237 1.4190,22.2330 C1.4085,21.6450 1.4910,18.8400 1.4910,18.8400 C1.4910,18.8400 1.4557,18.2700 1.8330,18.3862 C4.2862,19.1415 4.1280,20.0880 4.1377,20.4375 C4.1535,20.9782 4.1782,23.2838 4.1580,23.6970 Z" style="fill-rule: evenodd; fill: #000000; "/>
    <defs xmlns="http://www.w3.org/2000/svg">
      <radialGradient id="grad4078" cx="50.0000%" cy="50.0000%" r="100.0000%">
        <stop offset="0%" stop-color="#e8ff66" stop-opacity="1.0000"/>
        <stop offset="100%" stop-color="#079948" stop-opacity="1.0000"/>
      </radialGradient>
    </defs>
    <path xmlns="http://www.w3.org/2000/svg" d="  M3.5662,22.8352 C3.7852,23.1247 3.6165,23.2912 3.1912,23.2087 C2.7690,23.1277 2.2500,22.8255 2.0355,22.5390 C1.8202,22.2510 1.9867,22.0837 2.4112,22.1662 C2.8335,22.2480 3.3517,22.5487 3.5662,22.8352 Z" style="fill-rule: evenodd; fill: url(#grad4078); "/>
    <path xmlns="http://www.w3.org/2000/svg" d="  M2.6550,18.2048 C2.6550,17.9055 2.8080,17.8027 2.9212,17.8388 C3.1867,17.9220 3.2197,18.3060 3.2197,18.3878 L3.2033,21.9518 C3.2033,22.0335 3.1350,22.3020 2.9378,22.2345 C2.7547,22.1723 2.6723,22.0853 2.6550,21.7350 L2.6550,18.2048 Z" style="fill-rule: evenodd; fill: #000000; "/>
    <defs xmlns="http://www.w3.org/2000/svg">
      <linearGradient id="grad4079">
        <stop offset="0%" stop-color="#8999b6" stop-opacity="1.0000"/>
        <stop offset="100%" stop-color="#a7aebf" stop-opacity="1.0000"/>
      </linearGradient>
    </defs>
    <path xmlns="http://www.w3.org/2000/svg" d="  M2.4405,18.0202 C2.4405,17.7210 2.5935,17.6182 2.7060,17.6542 C2.9730,17.7367 3.0060,18.1215 3.0060,18.2032 L2.9895,21.7673 C2.9895,21.8498 2.9205,22.1183 2.7232,22.0500 C2.5402,21.9878 2.4577,21.9008 2.4405,21.5505 L2.4405,18.0202 Z" style="fill-rule: evenodd; fill: url(#grad4079); "/>
    <defs xmlns="http://www.w3.org/2000/svg" xmlns:xlink="http://www.w3.org/1999/xlink">
      <linearGradient id="grad4080">
        <stop offset="0%" stop-color="#626262" stop-opacity="1.0000"/>
        <stop offset="100%" stop-color="#3d3d3d" stop-opacity="1.0000"/>
      </linearGradient>
      <linearGradient xlink:href="#grad4080" id="grad4081" x1="0" y1="0" x2="0" y2="1" gradientTransform="rotate(180 .5 .5)" gradientUnits="objectBoundingBox">
  </linearGradient>
    </defs>
    <path xmlns="http://www.w3.org/2000/svg" d="  M2.7825,44.7922 L2.3700,44.6445 L2.3595,24.0607 L2.7990,24.3187 L2.7825,44.7922 Z" style="fill-rule: evenodd; fill: url(#grad4081); "/>
    <defs xmlns="http://www.w3.org/2000/svg">
      <radialGradient id="grad4082" cx="0.0000%" cy="0.0000%" r="100.0000%">
        <stop offset="0%" stop-color="#bcbcbc" stop-opacity="1.0000"/>
        <stop offset="100%" stop-color="#7c7c7c" stop-opacity="1.0000"/>
      </radialGradient>
    </defs>
    <path xmlns="http://www.w3.org/2000/svg" d="  M21.1972,34.8218 C22.3635,34.1693 22.9042,34.2420 22.9102,34.5368 C22.9192,35.0573 22.4085,35.4645 21.7477,35.8538 L7.1925,44.0453 C6.3622,44.4630 5.6460,44.7413 5.6565,44.2440 C5.6640,43.7550 6.1012,43.3103 7.4437,42.5160 L21.1972,34.8218 Z" style="fill-rule: evenodd; fill: url(#grad4082); "/>
    <defs xmlns="http://www.w3.org/2000/svg">
      <radialGradient id="grad4083" cx="0.0000%" cy="0.0000%" r="100.0000%">
        <stop offset="0%" stop-color="#bcbcbc" stop-opacity="1.0000"/>
        <stop offset="100%" stop-color="#7c7c7c" stop-opacity="1.0000"/>
      </radialGradient>
    </defs>
    <path xmlns="http://www.w3.org/2000/svg" d="  M21.1530,32.9902 C22.3043,32.3467 22.8405,32.4210 22.8480,32.7157 C22.8608,33.2347 22.3568,33.6382 21.7043,34.0222 L7.3380,42.1080 C6.5175,42.5197 5.8117,42.7942 5.8177,42.2985 C5.8245,41.8095 6.2527,41.3692 7.5780,40.5847 L21.1530,32.9902 Z" style="fill-rule: evenodd; fill: url(#grad4083); "/>
    <defs xmlns="http://www.w3.org/2000/svg">
      <radialGradient id="grad4084" cx="100.0000%" cy="100.0000%" r="100.0000%">
        <stop offset="0%" stop-color="#eaeae7" stop-opacity="0.4510"/>
        <stop offset="100%" stop-color="#dfddda" stop-opacity="0.4510"/>
      </radialGradient>
    </defs>
    <path xmlns="http://www.w3.org/2000/svg" d="  M21.2010,32.9498 C22.3388,32.3130 22.8135,32.2883 22.7768,32.5005 C22.7115,32.8748 22.1963,33.2415 21.5483,33.6165 L7.3470,41.5920 C6.5430,42.0113 5.8628,42.3135 5.9415,41.9528 C6.0195,41.5980 6.4733,41.2163 7.7880,40.4528 L21.2010,32.9498 Z" style="fill-rule: evenodd; fill: url(#grad4084); "/>
    <defs xmlns="http://www.w3.org/2000/svg">
      <radialGradient id="grad4085" cx="100.0000%" cy="100.0000%" r="100.0000%">
        <stop offset="0%" stop-color="#eaeae7" stop-opacity="0.4510"/>
        <stop offset="100%" stop-color="#dfddda" stop-opacity="0.4510"/>
      </radialGradient>
    </defs>
    <path xmlns="http://www.w3.org/2000/svg" d="  M21.2055,34.8210 C22.3455,34.1827 22.8202,34.1572 22.7835,34.3695 C22.7175,34.7445 22.2000,35.1112 21.5520,35.4870 L7.3110,43.4850 C6.5062,43.9057 5.8245,44.2087 5.9040,43.8472 C5.9820,43.4917 6.4365,43.1092 7.7550,42.3435 L21.2055,34.8210 Z" style="fill-rule: evenodd; fill: url(#grad4085); "/>
    <defs xmlns="http://www.w3.org/2000/svg" xmlns:xlink="http://www.w3.org/1999/xlink">
      <linearGradient id="grad4086">
        <stop offset="0%" stop-color="#848484" stop-opacity="1.0000"/>
        <stop offset="100%" stop-color="#9a9a9a" stop-opacity="1.0000"/>
      </linearGradient>
      <linearGradient xlink:href="#grad4086" id="grad4087" x1="0" y1="0" x2="0" y2="1" gradientTransform="rotate(180 .5 .5)" gradientUnits="objectBoundingBox">
  </linearGradient>
    </defs>
    <path xmlns="http://www.w3.org/2000/svg" d="  M22.1002,45.0120 C24.2610,40.7437 31.4812,39.7065 38.2567,42.6270 C46.5907,46.2202 48.7417,51.4312 46.5810,55.7002 C44.4180,59.9685 37.1850,61.0365 30.4252,58.0860 C23.6632,55.1340 19.9373,49.2802 22.1002,45.0120 Z" style="fill-rule: evenodd; fill: url(#grad4087); "/>
    <defs xmlns="http://www.w3.org/2000/svg">
      <radialGradient id="grad4088" cx="100.0000%" cy="100.0000%" r="100.0000%">
        <stop offset="0%" stop-color="#d0d0d0" stop-opacity="1.0000"/>
        <stop offset="100%" stop-color="#e0e0e0" stop-opacity="1.0000"/>
      </radialGradient>
    </defs>
    <path xmlns="http://www.w3.org/2000/svg" d="  M22.2945,44.6145 C23.4833,42.2670 26.2305,40.7925 29.8320,40.5697 C32.5117,40.4033 35.5013,40.9650 38.2537,42.1530 C42.6893,44.0640 45.6120,46.5833 46.7078,49.4393 C47.4338,51.3240 47.3243,53.2935 46.3920,55.1340 C45.1980,57.4898 42.4433,58.9680 38.8357,59.1915 C36.1553,59.3573 33.1695,58.7903 30.4320,57.5955 C23.7870,54.6945 20.1383,48.8707 22.2945,44.6145 Z" style="fill-rule: evenodd; fill: url(#grad4088); "/>
    <defs xmlns="http://www.w3.org/2000/svg">
      <radialGradient id="grad4089" cx="100.0000%" cy="100.0000%" r="100.0000%">
        <stop offset="0%" stop-color="#e0e0e0" stop-opacity="1.0000"/>
        <stop offset="100%" stop-color="#b7b7b7" stop-opacity="1.0000"/>
      </radialGradient>
    </defs>
    <path xmlns="http://www.w3.org/2000/svg" d="  M22.4993,44.7038 C24.6045,40.5457 31.6020,39.5205 38.1563,42.3458 C46.2225,45.8227 48.2940,50.8882 46.1865,55.0462 C44.0798,59.2035 37.0688,60.2595 30.5265,57.4050 C23.9865,54.5483 20.3918,48.8625 22.4993,44.7038 Z" style="fill-rule: evenodd; fill: url(#grad4089); "/>
    <path xmlns="http://www.w3.org/2000/svg" d="  M24.1193,42.4567 C24.1193,42.4567 29.5943,38.3152 38.2912,42.1612 C51.5888,48.0412 46.0148,55.8315 46.0148,55.8315 C46.0148,55.8315 42.0645,50.2215 34.2585,46.5007 C27.8280,43.4355 24.1193,42.4567 24.1193,42.4567 Z" style="fill-rule: evenodd; fill: #000000; fill-opacity: 0.1686; "/>
    <defs xmlns="http://www.w3.org/2000/svg" xmlns:xlink="http://www.w3.org/1999/xlink">
      <linearGradient id="grad4090">
        <stop offset="0%" stop-color="#b7b7b7" stop-opacity="0.5216"/>
        <stop offset="100%" stop-color="#e0e0e0" stop-opacity="0.5216"/>
      </linearGradient>
      <linearGradient xlink:href="#grad4090" id="grad4091" x1="0" y1="0" x2="0" y2="1" gradientTransform="rotate(-0 .5 .5)" gradientUnits="objectBoundingBox">
  </linearGradient>
    </defs>
    <path xmlns="http://www.w3.org/2000/svg" d="  M37.3065,58.9905 C37.3065,58.9905 37.6822,55.1205 37.7490,53.0827 C37.8502,50.0655 37.7527,48.8430 37.7527,48.8430 C37.7527,48.8430 39.0150,51.3495 39.4402,52.9650 C39.9353,54.8385 40.6312,58.8240 40.6312,58.8240 C40.6312,58.8240 40.1580,59.0070 38.9700,59.0362 C37.9057,59.0625 37.3065,58.9905 37.3065,58.9905 Z" style="fill-rule: evenodd; fill: url(#grad4091); "/>
    <defs xmlns="http://www.w3.org/2000/svg" xmlns:xlink="http://www.w3.org/1999/xlink">
      <linearGradient id="grad4092">
        <stop offset="0%" stop-color="#b7b7b7" stop-opacity="0.4980"/>
        <stop offset="100%" stop-color="#e0e0e0" stop-opacity="0.4980"/>
      </linearGradient>
      <linearGradient xlink:href="#grad4092" id="grad4093" x1="0" y1="0" x2="0" y2="1" gradientTransform="rotate(315 .5 .5)" gradientUnits="objectBoundingBox">
  </linearGradient>
    </defs>
    <path xmlns="http://www.w3.org/2000/svg" d="  M42.3435,58.2187 C42.3435,58.2187 42.0998,55.6057 41.1480,53.3790 C40.4895,51.8408 39.6008,50.1210 39.6008,50.1210 C39.6008,50.1210 41.0145,51.6210 41.9453,53.1000 C43.0320,54.8242 43.8015,57.5527 43.8015,57.5527 C43.8015,57.5527 43.5885,57.7522 42.9668,58.0042 C42.4095,58.2292 42.3435,58.2187 42.3435,58.2187 Z" style="fill-rule: evenodd; fill: url(#grad4093); "/>
    <defs xmlns="http://www.w3.org/2000/svg" xmlns:xlink="http://www.w3.org/1999/xlink">
      <linearGradient id="grad4094">
        <stop offset="0%" stop-color="#cdcdcd" stop-opacity="1.0000"/>
        <stop offset="100%" stop-color="#ffffff" stop-opacity="1.0000"/>
      </linearGradient>
      <linearGradient xlink:href="#grad4094" id="grad4095" x1="0" y1="0" x2="0" y2="1" gradientTransform="rotate(135 .5 .5)" gradientUnits="objectBoundingBox">
  </linearGradient>
    </defs>
    <path xmlns="http://www.w3.org/2000/svg" d="  M16.7228,0.4440 C17.0610,0.2543 17.1458,0.0000 17.9490,0.4230 C18.6105,0.7710 55.2240,21.7387 55.2240,21.7387 C55.4970,21.9292 55.4850,21.9817 55.4850,21.9817 L52.5240,23.6977 L14.3580,1.7453 C14.3580,1.7460 16.4430,0.6015 16.7228,0.4440 Z" style="fill-rule: evenodd; fill: url(#grad4095); "/>
    <defs xmlns="http://www.w3.org/2000/svg" xmlns:xlink="http://www.w3.org/1999/xlink">
      <linearGradient id="grad4096">
        <stop offset="0%" stop-color="#a9a9a9" stop-opacity="1.0000"/>
        <stop offset="100%" stop-color="#9a9a9a" stop-opacity="1.0000"/>
      </linearGradient>
      <linearGradient xlink:href="#grad4096" id="grad4097" x1="0" y1="0" x2="0" y2="1" gradientTransform="rotate(225 .5 .5)" gradientUnits="objectBoundingBox">
  </linearGradient>
    </defs>
    <path xmlns="http://www.w3.org/2000/svg" d="  M55.5637,53.0602 C55.5510,53.2425 55.4595,53.3858 55.2600,53.4772 L52.2458,55.2022 C52.2458,55.2022 52.3763,54.7935 52.3763,54.5595 L52.4768,23.9445 C52.4947,23.8035 52.4452,23.7382 52.4452,23.7382 L55.4887,21.9870 C55.4887,21.9870 55.5555,22.0665 55.5518,22.2960 L55.5637,53.0602 Z" style="fill-rule: evenodd; fill: url(#grad4097); "/>
    <defs xmlns="http://www.w3.org/2000/svg" xmlns:xlink="http://www.w3.org/1999/xlink">
      <linearGradient id="grad4098">
        <stop offset="0%" stop-color="#666666" stop-opacity="1.0000"/>
        <stop offset="100%" stop-color="#eeeeee" stop-opacity="1.0000"/>
      </linearGradient>
      <linearGradient xlink:href="#grad4098" id="grad4099" x1="0" y1="0" x2="0" y2="1" gradientTransform="rotate(225 .5 .5)" gradientUnits="objectBoundingBox">
  </linearGradient>
    </defs>
    <path xmlns="http://www.w3.org/2000/svg" d="  M14.1705,32.7075 C14.1705,27.3307 14.1862,2.5868 14.1772,2.2102 C14.1675,1.7872 14.3678,1.6237 14.7210,1.8248 C19.3777,4.4730 52.3770,23.2425 52.3875,23.2478 C52.6395,23.3655 52.7685,23.6093 52.7618,23.9812 L52.6567,54.5940 C52.6193,54.9555 52.3410,55.2855 51.8828,55.2855 C51.7980,55.2855 51.7087,55.2705 51.6218,55.2412 C51.6060,55.2352 51.5880,55.2285 51.5723,55.2195 C51.5723,55.2195 15.1208,34.1332 14.8508,33.9712 C14.3182,33.6525 14.1705,33.3195 14.1705,32.7075 Z" style="fill-rule: evenodd; fill: url(#grad4099); "/>
    <path xmlns="http://www.w3.org/2000/svg" d="  M50.7532,50.5492 C50.7367,50.6632 50.5740,50.9302 50.2807,50.8335 L17.1120,31.7032 C17.0130,31.6515 17.0130,31.5638 17.0280,31.4310 L17.0340,6.0855 C17.0857,5.9873 17.2072,5.9490 17.3062,6.0015 L50.5170,24.8160 C50.6805,24.9413 50.7195,25.0260 50.7052,25.1302 L50.7532,50.5492 Z" style="fill-rule: evenodd; fill: #04096c; "/>
    <defs xmlns="http://www.w3.org/2000/svg" xmlns:xlink="http://www.w3.org/1999/xlink">
      <linearGradient id="grad4100">
        <stop offset="0%" stop-color="#f9f9f9" stop-opacity="1.0000"/>
        <stop offset="100%" stop-color="#656565" stop-opacity="1.0000"/>
      </linearGradient>
      <linearGradient xlink:href="#grad4100" id="grad4101" x1="0" y1="0" x2="0" y2="1" gradientTransform="rotate(45 .5 .5)" gradientUnits="objectBoundingBox">
  </linearGradient>
    </defs>
    <path xmlns="http://www.w3.org/2000/svg" d="  M52.2683,23.4600 C52.2683,23.4600 15.4140,2.4570 14.9873,2.2290 C14.5253,1.9822 14.3850,1.8517 14.4037,2.5275 C14.4195,3.1380 14.4195,27.9765 14.4240,32.8275 C14.4382,33.1868 14.5178,33.4260 14.8500,33.6525 C15.2535,33.9263 51.7628,54.9315 51.7628,54.9315 C52.1745,55.0680 52.4040,54.7410 52.4265,54.5317 L52.5337,23.9025 C52.5143,23.7082 52.4970,23.6370 52.2683,23.4600 Z M49.4220,50.1727 L17.7945,32.0542 C17.2635,31.7745 17.0535,31.4910 17.0535,31.0350 L17.0265,6.8497 C17.0430,6.1245 17.2043,6.2527 17.7367,6.5438 L49.4220,24.6997 C50.0400,25.0553 50.2380,25.2690 50.2380,25.8113 L50.2523,49.3440 C50.2380,50.3730 50.0348,50.5477 49.4220,50.1727 Z" style="fill-rule: evenodd; fill: url(#grad4101); "/>
    <path xmlns="http://www.w3.org/2000/svg" d="  M50.2560,49.5877 C50.2560,49.5877 50.1450,50.2500 49.6463,49.9462 C49.2915,49.7302 17.8358,31.7595 17.8358,31.7595 C17.8358,31.7595 17.5073,31.5690 17.4225,31.3582 C17.3498,31.1783 17.3385,30.9292 17.3385,30.9292 L17.3212,6.3360 C17.3212,6.3360 17.1945,6.2430 17.1045,6.3667 C17.0542,6.4365 17.0295,6.7027 17.0295,6.7027 L17.0535,30.9840 C17.0535,30.9840 17.0167,31.2187 17.1570,31.4955 C17.3212,31.8180 17.6445,31.9778 17.6445,31.9778 L49.1287,50.0692 C49.1287,50.0692 49.7572,50.3917 49.8667,50.3835 C50.0085,50.3715 50.2560,50.2327 50.2560,49.5877 Z" style="fill-rule: evenodd; fill: #ffffff; "/>
    <defs xmlns="http://www.w3.org/2000/svg" xmlns:xlink="http://www.w3.org/1999/xlink">
      <linearGradient id="grad4102">
        <stop offset="0%" stop-color="#000d91" stop-opacity="1.0000"/>
        <stop offset="100%" stop-color="#001bbf" stop-opacity="1.0000"/>
      </linearGradient>
      <linearGradient xlink:href="#grad4102" id="grad4103" x1="0" y1="0" x2="0" y2="1" gradientTransform="rotate(135 .5 .5)" gradientUnits="objectBoundingBox">
  </linearGradient>
    </defs>
    <path xmlns="http://www.w3.org/2000/svg" d="  M49.8832,49.0065 C49.8675,49.1107 49.7197,49.3523 49.4535,49.2645 L18.4462,31.8607 C18.3577,31.8135 17.8380,31.6178 17.8687,30.8265 L17.8732,7.3080 C17.9213,7.2188 18.0322,7.1850 18.1215,7.2315 L49.4392,25.2517 C49.7122,25.4145 49.8750,25.6478 49.8555,26.0827 L49.8832,49.0065 Z" style="fill-rule: evenodd; fill: url(#grad4103); "/>
    <path xmlns="http://www.w3.org/2000/svg" d="  M49.8585,33.0660 L17.8800,21.0420 L17.8650,7.6777 C17.8650,7.1587 17.9445,7.1490 18.1658,7.2765 L49.1955,25.1310 C49.7730,25.4145 49.8840,25.6372 49.8443,26.2965 L49.8585,33.0660 Z" style="fill-rule: evenodd; fill: #0025e7; fill-opacity: 0.5686; "/>
    <defs xmlns="http://www.w3.org/2000/svg" xmlns:xlink="http://www.w3.org/1999/xlink">
      <linearGradient id="grad4104">
        <stop offset="0%" stop-color="#ffffff" stop-opacity="0.5686"/>
        <stop offset="100%" stop-color="#ffffff" stop-opacity="0.5686"/>
      </linearGradient>
      <linearGradient xlink:href="#grad4104" id="grad4105" x1="0" y1="0" x2="0" y2="1" gradientTransform="rotate(180 .5 .5)" gradientUnits="objectBoundingBox">
  </linearGradient>
    </defs>
    <path xmlns="http://www.w3.org/2000/svg" d="  M49.5442,53.9145 L39.9217,48.5625 C39.9217,48.5625 38.7450,36.1215 37.6927,30.4005 C36.6428,24.6892 33.5265,19.2442 33.3127,18.6037 C32.4622,16.0492 34.5300,17.1435 34.5300,17.1435 L49.2390,25.5390 C49.5772,25.7168 49.5420,26.0797 49.5420,26.4008 L49.5442,53.9145 Z" style="fill-rule: evenodd; fill: url(#grad4105); "/>
    <defs xmlns="http://www.w3.org/2000/svg" xmlns:xlink="http://www.w3.org/1999/xlink">
      <linearGradient id="grad4106">
        <stop offset="0%" stop-color="#ffffff" stop-opacity="0.4980"/>
        <stop offset="100%" stop-color="#ffffff" stop-opacity="0.4980"/>
      </linearGradient>
      <linearGradient xlink:href="#grad4106" id="grad4107" x1="0" y1="0" x2="0" y2="1" gradientTransform="rotate(180 .5 .5)" gradientUnits="objectBoundingBox">
  </linearGradient>
    </defs>
    <path xmlns="http://www.w3.org/2000/svg" d="  M18.6465,19.2022 L29.4548,42.4327 L20.6632,37.3102 L18.0788,30.2115 L18.0375,19.0395 C18.0375,19.0395 18.0382,19.0470 18.0382,18.1710 C18.0382,17.7825 18.6465,19.2022 18.6465,19.2022 Z" style="fill-rule: evenodd; fill: url(#grad4107); "/>
    <path xmlns="http://www.w3.org/2000/svg" d="  M17.1090,32.8957 C17.3235,32.7690 17.6730,32.9745 17.8882,33.3570 C18.1042,33.7380 18.1050,34.1498 17.8905,34.2765 C17.6760,34.4032 17.3265,34.1970 17.1105,33.8152 C16.8952,33.4335 16.8937,33.0217 17.1090,32.8957 Z" style="fill-rule: evenodd; fill: #333333; "/>
    <defs xmlns="http://www.w3.org/2000/svg">
      <radialGradient id="grad4108" cx="50.0000%" cy="50.0000%" r="100.0000%">
        <stop offset="0%" stop-color="#ccff66" stop-opacity="1.0000"/>
        <stop offset="100%" stop-color="#7ab04a" stop-opacity="1.0000"/>
      </radialGradient>
    </defs>
    <path xmlns="http://www.w3.org/2000/svg" d="  M17.3775,33.1770 C17.5275,33.0892 17.7712,33.2340 17.9227,33.5010 C18.0742,33.7680 18.0742,34.0560 17.9250,34.1445 C17.7750,34.2330 17.5297,34.0882 17.3790,33.8212 C17.2282,33.5550 17.2282,33.2670 17.3775,33.1770 Z" style="fill-rule: evenodd; fill: url(#grad4108); "/>
    <!--converted by libvisio2svg-->
  </g>
</svg>
