<svg xmlns="http://www.w3.org/2000/svg" xmlns:xlink="http://www.w3.org/1999/xlink" version="1.1" width="0.7250000000" height="0.6799000000" viewBox="0 0 52.2007 48.9502">
  <title><![CDATA[Phone, traditional]]></title>
  <g transform=" scale(1.000000) ">
    <path xmlns="http://www.w3.org/2000/svg" d="  M52.0545,23.7683 C52.0650,23.7337 52.0785,23.6992 52.0875,23.6648 C52.1018,23.6100 52.0680,23.5538 52.0125,23.5402 C51.9653,23.5282 51.9225,23.5560 51.9023,23.5965 C51.5835,21.0668 50.0085,18.9990 48.0623,17.8935 C48.0720,17.9153 48.0847,17.9363 48.0938,17.9580 C47.8972,17.4953 47.5830,17.0445 47.1570,16.6477 C47.1443,16.6357 47.1345,16.6245 47.1225,16.6133 C39.0367,9.7950 30.7028,4.8375 21.0938,1.1588 C20.1390,0.7928 18.2722,0.3203 18.1305,0.3105 C16.5600,0.0000 14.7360,0.2183 13.4887,0.9645 C13.0590,1.2225 12.7298,1.4723 12.5040,1.7295 C10.2225,2.4825 9.1267,5.0175 8.8957,6.8355 C8.8898,6.8250 8.8372,6.7965 8.8290,6.7973 C8.7727,6.8048 8.7113,6.8625 8.7187,6.9195 C8.7247,6.9660 8.7390,7.0095 8.7480,7.0545 C8.7278,7.0762 8.7142,7.1033 8.7187,7.1355 C8.7383,7.2907 8.7832,7.4385 8.8387,7.5840 L8.8702,10.1010 C8.7892,11.1997 9.4755,12.3143 10.9283,13.1528 C11.3812,13.4145 11.8838,13.6290 12.4140,13.8045 L0.1478,28.2735 L0.1545,28.3905 L0.1253,35.0220 L0.1545,35.0393 L0.1545,35.7428 L0.3540,35.8605 C0.2790,36.4267 0.6143,37.0072 1.3643,37.4400 C2.0865,37.8577 3.0472,38.0475 3.9938,38.0213 L17.8950,46.2780 C17.6302,46.9343 17.9370,47.6513 18.8220,48.1627 C20.1847,48.9502 22.3950,48.9502 23.7585,48.1627 C24.5445,47.7090 24.8745,47.0917 24.7537,46.4993 L46.0628,34.1933 C46.8675,34.1595 47.6572,33.9727 48.2730,33.6173 C48.8925,33.2588 49.2262,32.8013 49.2833,32.3325 L49.4393,32.2432 L49.4438,31.1423 C49.4438,31.1423 49.4393,31.1430 49.4378,31.1430 L49.4302,30.1905 C49.6230,30.1005 49.8097,30.0045 49.9890,29.9010 C51.3780,29.0993 52.0665,28.0455 52.0537,26.9948 C52.0537,26.9948 52.0530,25.1393 52.0537,23.9842 C52.0643,23.9490 52.0778,23.9145 52.0867,23.8800 C52.0965,23.8433 52.0785,23.8102 52.0537,23.7862 L52.0537,23.7683 L52.0545,23.7683 Z" style="stroke-width: 1.8750; stroke: #8d99b5; stroke-dasharray: none; stroke-linecap: butt; stroke-linejoin: miter; fill: none; "/>
    <defs xmlns="http://www.w3.org/2000/svg" xmlns:xlink="http://www.w3.org/1999/xlink">
      <linearGradient id="grad4109">
        <stop offset="0%" stop-color="#b1a68e" stop-opacity="1.0000"/>
        <stop offset="100%" stop-color="#dcd2bd" stop-opacity="1.0000"/>
      </linearGradient>
      <linearGradient xlink:href="#grad4109" id="grad4110" x1="0" y1="0" x2="0" y2="1" gradientTransform="rotate(90 .5 .5)" gradientUnits="objectBoundingBox">
  </linearGradient>
    </defs>
    <path xmlns="http://www.w3.org/2000/svg" d="  M22.8870,6.1620 L22.8660,6.1620 C22.8705,6.2205 22.8810,6.2775 22.8817,6.3360 C22.8945,7.3867 22.2067,8.4405 20.8170,9.2422 C18.0637,10.8315 13.6020,10.8315 10.8502,9.2422 C9.6652,8.5582 8.9925,7.6905 8.8290,6.7972 L8.8702,10.1010 C8.7892,11.1997 9.4755,12.3142 10.9282,13.1527 C13.6815,14.7420 18.1425,14.7420 20.8957,13.1527 C22.2847,12.3517 22.9733,11.2980 22.9597,10.2472 L22.8870,6.1620 Z" style="fill-rule: evenodd; fill: url(#grad4110); "/>
    <path xmlns="http://www.w3.org/2000/svg" d="  M23.7585,48.1628 C22.3950,48.9502 20.1847,48.9502 18.8220,48.1628 C17.4592,47.3760 17.4592,46.0995 18.8220,45.3120 C20.1847,44.5252 22.3950,44.5252 23.7585,45.3120 C25.1220,46.0995 25.1220,47.3760 23.7585,48.1628 Z" style="fill-rule: evenodd; fill: #91836b; "/>
    <path xmlns="http://www.w3.org/2000/svg" d="  M48.2737,33.6172 C46.9102,34.4047 44.6992,34.4047 43.3372,33.6172 C41.9745,32.8297 41.9745,31.5547 43.3372,30.7672 C44.6992,29.9797 46.9102,29.9797 48.2737,30.7672 C49.6357,31.5547 49.6357,32.8297 48.2737,33.6172 Z" style="fill-rule: evenodd; fill: #716756; "/>
    <path xmlns="http://www.w3.org/2000/svg" d="  M6.2993,37.4407 C4.9365,38.2282 2.7255,38.2282 1.3635,37.4407 C0.0000,36.6540 0.0000,35.3775 1.3635,34.5907 C2.7255,33.8032 4.9365,33.8032 6.2993,34.5907 C7.6620,35.3775 7.6620,36.6540 6.2993,37.4407 Z" style="fill-rule: evenodd; fill: #8f866f; "/>
    <path xmlns="http://www.w3.org/2000/svg" d="  M14.5747,11.3978 L35.5208,23.6085" style="stroke-width: 0.7500; stroke: #ffffff; stroke-opacity: 0.5608; stroke-dasharray: none; stroke-linecap: butt; stroke-linejoin: miter; fill: none; "/>
    <path xmlns="http://www.w3.org/2000/svg" d="  M21.4980,48.3795 L49.4393,32.2432 L49.4438,31.1422 C49.4438,31.1422 45.0495,31.8060 42.2288,30.7192 C34.4805,27.7320 42.3090,23.0040 41.2748,20.6332 C41.2568,20.5957 36.0728,23.7870 36.0728,23.7870 L21.4440,41.0340 L21.4440,41.0370 L0.1545,28.7047 L0.1545,35.7427 L21.4403,48.3832 Z" style="fill-rule: evenodd; fill: #91836b; "/>
    <defs xmlns="http://www.w3.org/2000/svg" xmlns:xlink="http://www.w3.org/1999/xlink">
      <linearGradient id="grad4111">
        <stop offset="0%" stop-color="#91836b" stop-opacity="1.0000"/>
        <stop offset="100%" stop-color="#dcd5c3" stop-opacity="1.0000"/>
      </linearGradient>
      <linearGradient xlink:href="#grad4111" id="grad4112" x1="0" y1="0" x2="0" y2="1" gradientTransform="rotate(90 .5 .5)" gradientUnits="objectBoundingBox">
  </linearGradient>
    </defs>
    <path xmlns="http://www.w3.org/2000/svg" d="  M22.5937,46.8817 L49.4385,31.3455 L49.3995,25.8847 C49.3995,25.8847 44.9130,30.7605 42.0930,29.6737 C34.3440,26.6865 42.1732,21.9585 41.1382,19.5877 C41.1210,19.5502 35.9370,22.7407 35.9370,22.7407 L21.3090,39.9877 L21.2482,47.0077 C21.7020,47.0670 22.1850,47.0242 22.5937,46.8817 Z" style="fill-rule: evenodd; fill: url(#grad4112); "/>
    <defs xmlns="http://www.w3.org/2000/svg" xmlns:xlink="http://www.w3.org/1999/xlink">
      <linearGradient id="grad4113">
        <stop offset="0%" stop-color="#cdc5ae" stop-opacity="1.0000"/>
        <stop offset="100%" stop-color="#a1957d" stop-opacity="1.0000"/>
      </linearGradient>
      <linearGradient xlink:href="#grad4113" id="grad4114" x1="0" y1="0" x2="0" y2="1" gradientTransform="rotate(315 .5 .5)" gradientUnits="objectBoundingBox">
  </linearGradient>
    </defs>
    <path xmlns="http://www.w3.org/2000/svg" d="  M20.3550,46.7273 C20.6655,46.9065 21.0607,47.0033 21.4665,47.0265 L21.4912,40.6515 L0.1545,28.2922 L0.1252,35.0220 L20.3070,46.7093 C20.3227,46.7138 20.3392,46.7175 20.3550,46.7273 Z" style="fill-rule: evenodd; fill: url(#grad4114); "/>
    <defs xmlns="http://www.w3.org/2000/svg" xmlns:xlink="http://www.w3.org/1999/xlink">
      <linearGradient id="grad4115">
        <stop offset="0%" stop-color="#cdc5ae" stop-opacity="1.0000"/>
        <stop offset="100%" stop-color="#f9eedd" stop-opacity="1.0000"/>
      </linearGradient>
      <linearGradient xlink:href="#grad4115" id="grad4116" x1="0" y1="0" x2="0" y2="1" gradientTransform="rotate(180 .5 .5)" gradientUnits="objectBoundingBox">
  </linearGradient>
    </defs>
    <path xmlns="http://www.w3.org/2000/svg" d="  M0.1748,28.2353 L14.7240,11.0820 L36.0675,23.4053 L21.4230,40.6688 C21.4230,40.6688 0.3188,28.4648 0.1995,28.4160 C0.0833,28.3703 0.1748,28.2353 0.1748,28.2353 Z" style="fill-rule: evenodd; fill: url(#grad4116); "/>
    <path xmlns="http://www.w3.org/2000/svg" d="  M20.9512,38.4172 L2.3280,27.6660 L14.6205,13.0170 L33.2430,23.7690 L20.9512,38.4172 Z" style="fill-rule: evenodd; fill: #cbdcdc; "/>
    <path xmlns="http://www.w3.org/2000/svg" d="  M2.0122,27.7207 L14.5717,12.7515 L33.5587,23.7135 L21.1095,38.5500 L20.9970,38.6827 L2.0122,27.7207 Z M20.9512,38.4172 L21.0540,38.2380 L20.9512,38.4172 Z M2.6445,27.6090 L20.9047,38.1517 L32.9257,23.8245 L14.6662,13.2825 L2.6445,27.6090 Z" style="fill-rule: evenodd; fill: #808788; "/>
    <defs xmlns="http://www.w3.org/2000/svg" xmlns:xlink="http://www.w3.org/1999/xlink">
      <linearGradient id="grad4117">
        <stop offset="0%" stop-color="#8c7e6a" stop-opacity="1.0000"/>
        <stop offset="100%" stop-color="#cdc1ac" stop-opacity="1.0000"/>
      </linearGradient>
      <linearGradient xlink:href="#grad4117" id="grad4118" x1="0" y1="0" x2="0" y2="1" gradientTransform="rotate(135 .5 .5)" gradientUnits="objectBoundingBox">
  </linearGradient>
    </defs>
    <path xmlns="http://www.w3.org/2000/svg" d="  M20.7637,37.3567 L3.5917,27.4432 L14.8072,14.0782 L31.9785,23.9925 L20.7637,37.3567 Z" style="fill-rule: evenodd; fill: url(#grad4118); "/>
    <path xmlns="http://www.w3.org/2000/svg" d="  M14.0760,24.6870 C14.0693,24.6758 13.7498,23.9835 13.5780,23.8838 L11.7030,22.8008 C11.5298,22.7010 11.2845,22.7460 11.1548,22.9013 L9.7410,24.5858 C9.6780,24.6615 9.6533,24.7478 9.6645,24.8295 C9.6765,24.9150 10.0733,25.6140 10.0980,25.6500 C10.1235,25.6860 10.1580,25.7183 10.2023,25.7430 L12.0780,26.8260 C12.2505,26.9258 12.4958,26.8808 12.6255,26.7255 L14.0393,25.0410 C14.1323,24.9300 14.1413,24.7928 14.0760,24.6870 Z" style="fill-rule: evenodd; fill: #5a657d; "/>
    <path xmlns="http://www.w3.org/2000/svg" d="  M18.3630,27.1620 C18.3555,27.1508 18.0368,26.4585 17.8650,26.3588 L15.9893,25.2758 C15.8168,25.1760 15.5708,25.2210 15.4410,25.3763 L14.0280,27.0608 C13.9643,27.1365 13.9403,27.2235 13.9515,27.3045 C13.9635,27.3900 14.3603,28.0890 14.3858,28.1250 C14.4105,28.1618 14.4450,28.1940 14.4893,28.2188 L16.3650,29.3010 C16.5375,29.4008 16.7827,29.3558 16.9125,29.2005 L18.3262,27.5160 C18.4185,27.4050 18.4275,27.2678 18.3630,27.1620 Z" style="fill-rule: evenodd; fill: #5a657d; "/>
    <path xmlns="http://www.w3.org/2000/svg" d="  M22.6508,29.6362 C22.6433,29.6250 22.3238,28.9327 22.1520,28.8330 L20.2763,27.7508 C20.1038,27.6502 19.8578,27.6953 19.7288,27.8512 L18.3150,29.5350 C18.2513,29.6107 18.2273,29.6977 18.2385,29.7787 C18.2505,29.8650 18.6465,30.5632 18.6720,30.5992 C18.6975,30.6360 18.7320,30.6682 18.7763,30.6930 L20.6520,31.7752 C20.8238,31.8757 21.0698,31.8300 21.1995,31.6747 L22.6133,29.9902 C22.7063,29.8807 22.7153,29.7427 22.6508,29.6362 Z" style="fill-rule: evenodd; fill: #5a657d; "/>
    <path xmlns="http://www.w3.org/2000/svg" d="  M11.3850,27.8932 C11.3783,27.8820 11.0595,27.1898 10.8870,27.0893 L9.0120,26.0070 C8.8395,25.9073 8.5935,25.9523 8.4638,26.1075 L7.0500,27.7920 C6.9870,27.8678 6.9623,27.9540 6.9735,28.0350 C6.9863,28.1213 7.3823,28.8203 7.4078,28.8562 C7.4333,28.8922 7.4670,28.9245 7.5113,28.9492 L9.3870,30.0322 C9.5595,30.1320 9.8048,30.0870 9.9345,29.9317 L11.3483,28.2472 C11.4413,28.1362 11.4510,27.9998 11.3850,27.8932 Z" style="fill-rule: evenodd; fill: #5a657d; "/>
    <path xmlns="http://www.w3.org/2000/svg" d="  M15.6720,30.3682 C15.6645,30.3570 15.3465,29.6647 15.1740,29.5643 L13.2990,28.4820 C13.1265,28.3823 12.8805,28.4273 12.7508,28.5825 L11.3370,30.2670 C11.2740,30.3428 11.2493,30.4297 11.2605,30.5100 C11.2733,30.5962 11.6693,31.2952 11.6948,31.3312 C11.7203,31.3680 11.7540,31.3995 11.7983,31.4250 L13.6740,32.5072 C13.8465,32.6070 14.0925,32.5620 14.2215,32.4067 L15.6353,30.7222 C15.7283,30.6112 15.7373,30.4748 15.6720,30.3682 Z" style="fill-rule: evenodd; fill: #5a657d; "/>
    <path xmlns="http://www.w3.org/2000/svg" d="  M19.9598,32.8432 C19.9523,32.8320 19.6328,32.1397 19.4603,32.0400 L17.5853,30.9570 C17.4128,30.8573 17.1668,30.9023 17.0378,31.0575 L15.6240,32.7420 C15.5610,32.8177 15.5363,32.9047 15.5475,32.9850 C15.5595,33.0720 15.9563,33.7702 15.9810,33.8062 C16.0073,33.8430 16.0410,33.8745 16.0853,33.9000 L17.9603,34.9822 C18.1328,35.0820 18.3795,35.0370 18.5085,34.8817 L19.9230,33.1972 C20.0153,33.0870 20.0243,32.9490 19.9598,32.8432 Z" style="fill-rule: evenodd; fill: #5a657d; "/>
    <path xmlns="http://www.w3.org/2000/svg" d="  M16.7663,21.4800 C16.7603,21.4688 16.4408,20.7758 16.2683,20.6760 L14.3933,19.5938 C14.2208,19.4933 13.9748,19.5390 13.8450,19.6943 L12.4313,21.3780 C12.3690,21.4538 12.3443,21.5408 12.3555,21.6218 C12.3675,21.7080 12.7635,22.4063 12.7890,22.4430 C12.8153,22.4790 12.8490,22.5113 12.8933,22.5360 L14.7683,23.6183 C14.9408,23.7188 15.1860,23.6730 15.3158,23.5178 L16.7295,21.8340 C16.8225,21.7238 16.8323,21.5858 16.7663,21.4800 Z" style="fill-rule: evenodd; fill: #5a657d; "/>
    <path xmlns="http://www.w3.org/2000/svg" d="  M21.0540,23.9550 C21.0465,23.9437 20.7285,23.2508 20.5560,23.1510 L18.6803,22.0688 C18.5078,21.9690 18.2618,22.0140 18.1320,22.1693 L16.7183,23.8530 C16.6553,23.9287 16.6305,24.0165 16.6418,24.0967 C16.6545,24.1830 17.0505,24.8820 17.0768,24.9180 C17.1015,24.9547 17.1353,24.9862 17.1795,25.0110 L19.0553,26.0940 C19.2278,26.1937 19.4738,26.1480 19.6035,25.9935 L21.0173,24.3090 C21.1095,24.1980 21.1185,24.0607 21.0540,23.9550 Z" style="fill-rule: evenodd; fill: #5a657d; "/>
    <path xmlns="http://www.w3.org/2000/svg" d="  M25.3410,26.4300 C25.3343,26.4187 25.0148,25.7257 24.8423,25.6268 L22.9673,24.5438 C22.7948,24.4440 22.5488,24.4890 22.4198,24.6442 L21.0060,26.3287 C20.9430,26.4037 20.9183,26.4915 20.9288,26.5717 C20.9415,26.6587 21.3383,27.3570 21.3630,27.3930 C21.3893,27.4297 21.4230,27.4612 21.4673,27.4860 L23.3423,28.5690 C23.5148,28.6687 23.7608,28.6237 23.8905,28.4685 L25.3043,26.7840 C25.3972,26.6730 25.4055,26.5357 25.3410,26.4300 Z" style="fill-rule: evenodd; fill: #5a657d; "/>
    <path xmlns="http://www.w3.org/2000/svg" d="  M19.4573,18.2737 C19.4505,18.2625 19.1318,17.5695 18.9593,17.4697 L17.0835,16.3868 C16.9110,16.2870 16.6658,16.3327 16.5353,16.4880 L15.1215,18.1717 C15.0593,18.2475 15.0353,18.3345 15.0450,18.4155 C15.0578,18.5017 15.4538,19.2000 15.4800,19.2367 C15.5048,19.2727 15.5400,19.3050 15.5835,19.3297 L17.4593,20.4127 C17.6318,20.5125 17.8770,20.4667 18.0068,20.3122 L19.4205,18.6277 C19.5135,18.5167 19.5225,18.3803 19.4573,18.2737 Z" style="fill-rule: evenodd; fill: #5a657d; "/>
    <path xmlns="http://www.w3.org/2000/svg" d="  M23.7450,20.7488 C23.7375,20.7375 23.4188,20.0445 23.2463,19.9448 L21.3705,18.8625 C21.1980,18.7628 20.9528,18.8078 20.8230,18.9630 L19.4093,20.6468 C19.3463,20.7225 19.3215,20.8103 19.3328,20.8905 C19.3448,20.9768 19.7415,21.6758 19.7663,21.7118 C19.7925,21.7485 19.8263,21.7800 19.8705,21.8055 L21.7463,22.8878 C21.9180,22.9875 22.1648,22.9418 22.2945,22.7873 L23.7083,21.1028 C23.8005,20.9918 23.8095,20.8545 23.7450,20.7488 Z" style="fill-rule: evenodd; fill: #5a657d; "/>
    <path xmlns="http://www.w3.org/2000/svg" d="  M28.0313,23.2238 C28.0238,23.2125 27.7050,22.5195 27.5325,22.4205 L25.6568,21.3375 C25.4843,21.2378 25.2390,21.2828 25.1085,21.4380 L23.6948,23.1225 C23.6325,23.1975 23.6085,23.2853 23.6183,23.3655 C23.6310,23.4525 24.0278,24.1508 24.0533,24.1868 C24.0788,24.2235 24.1133,24.2550 24.1575,24.2805 L26.0325,25.3628 C26.2050,25.4625 26.4503,25.4175 26.5800,25.2623 L27.9938,23.5778 C28.0883,23.4668 28.0965,23.3295 28.0313,23.2238 Z" style="fill-rule: evenodd; fill: #5a657d; "/>
    <defs xmlns="http://www.w3.org/2000/svg" xmlns:xlink="http://www.w3.org/1999/xlink">
      <linearGradient id="grad4119">
        <stop offset="0%" stop-color="#c9d8dd" stop-opacity="1.0000"/>
        <stop offset="100%" stop-color="#f3faf8" stop-opacity="1.0000"/>
      </linearGradient>
      <linearGradient xlink:href="#grad4119" id="grad4120" x1="0" y1="0" x2="0" y2="1" gradientTransform="rotate(135 .5 .5)" gradientUnits="objectBoundingBox">
  </linearGradient>
    </defs>
    <path xmlns="http://www.w3.org/2000/svg" d="  M14.9325,22.8218 C14.8020,22.9778 14.5568,23.0228 14.3843,22.9223 L12.5093,21.8400 C12.3368,21.7403 12.3023,21.5348 12.4313,21.3788 L13.8450,19.6950 C13.9755,19.5398 14.2208,19.4940 14.3933,19.5945 L16.2683,20.6768 C16.4408,20.7765 16.4753,20.9828 16.3463,21.1380 L14.9325,22.8218 Z" style="fill-rule: evenodd; fill: url(#grad4120); "/>
    <defs xmlns="http://www.w3.org/2000/svg" xmlns:xlink="http://www.w3.org/1999/xlink">
      <linearGradient id="grad4121">
        <stop offset="0%" stop-color="#c9d8dd" stop-opacity="1.0000"/>
        <stop offset="100%" stop-color="#f3faf8" stop-opacity="1.0000"/>
      </linearGradient>
      <linearGradient xlink:href="#grad4121" id="grad4122" x1="0" y1="0" x2="0" y2="1" gradientTransform="rotate(135 .5 .5)" gradientUnits="objectBoundingBox">
  </linearGradient>
    </defs>
    <path xmlns="http://www.w3.org/2000/svg" d="  M19.2180,25.2968 C19.0883,25.4520 18.8430,25.4970 18.6705,25.3973 L16.7955,24.3143 C16.6230,24.2145 16.5878,24.0090 16.7175,23.8530 L18.1313,22.1693 C18.2618,22.0140 18.5070,21.9690 18.6795,22.0688 L20.5552,23.1510 C20.7278,23.2508 20.7615,23.4570 20.6325,23.6123 L19.2180,25.2968 Z" style="fill-rule: evenodd; fill: url(#grad4122); "/>
    <defs xmlns="http://www.w3.org/2000/svg" xmlns:xlink="http://www.w3.org/1999/xlink">
      <linearGradient id="grad4123">
        <stop offset="0%" stop-color="#c9d8dd" stop-opacity="1.0000"/>
        <stop offset="100%" stop-color="#f3faf8" stop-opacity="1.0000"/>
      </linearGradient>
      <linearGradient xlink:href="#grad4123" id="grad4124" x1="0" y1="0" x2="0" y2="1" gradientTransform="rotate(135 .5 .5)" gradientUnits="objectBoundingBox">
  </linearGradient>
    </defs>
    <path xmlns="http://www.w3.org/2000/svg" d="  M23.5058,27.7718 C23.3752,27.9270 23.1300,27.9720 22.9575,27.8723 L21.0825,26.7893 C20.9100,26.6903 20.8755,26.4840 21.0053,26.3288 L22.4190,24.6443 C22.5488,24.4890 22.7940,24.4440 22.9665,24.5438 L24.8415,25.6268 C25.0140,25.7258 25.0485,25.9328 24.9195,26.0873 L23.5058,27.7718 Z" style="fill-rule: evenodd; fill: url(#grad4124); "/>
    <defs xmlns="http://www.w3.org/2000/svg" xmlns:xlink="http://www.w3.org/1999/xlink">
      <linearGradient id="grad4125">
        <stop offset="0%" stop-color="#c9d8dd" stop-opacity="1.0000"/>
        <stop offset="100%" stop-color="#f3faf8" stop-opacity="1.0000"/>
      </linearGradient>
      <linearGradient xlink:href="#grad4125" id="grad4126" x1="0" y1="0" x2="0" y2="1" gradientTransform="rotate(135 .5 .5)" gradientUnits="objectBoundingBox">
  </linearGradient>
    </defs>
    <path xmlns="http://www.w3.org/2000/svg" d="  M9.5505,29.2350 C9.4208,29.3903 9.1755,29.4353 9.0030,29.3355 L7.1273,28.2533 C6.9555,28.1528 6.9203,27.9473 7.0500,27.7920 L8.4638,26.1075 C8.5943,25.9523 8.8395,25.9073 9.0120,26.0070 L10.8870,27.0893 C11.0595,27.1898 11.0940,27.3953 10.9643,27.5505 L9.5505,29.2350 Z" style="fill-rule: evenodd; fill: url(#grad4126); "/>
    <defs xmlns="http://www.w3.org/2000/svg" xmlns:xlink="http://www.w3.org/1999/xlink">
      <linearGradient id="grad4127">
        <stop offset="0%" stop-color="#c9d8dd" stop-opacity="1.0000"/>
        <stop offset="100%" stop-color="#f3faf8" stop-opacity="1.0000"/>
      </linearGradient>
      <linearGradient xlink:href="#grad4127" id="grad4128" x1="0" y1="0" x2="0" y2="1" gradientTransform="rotate(135 .5 .5)" gradientUnits="objectBoundingBox">
  </linearGradient>
    </defs>
    <path xmlns="http://www.w3.org/2000/svg" d="  M13.8383,31.7100 C13.7078,31.8653 13.4618,31.9103 13.2900,31.8105 L11.4143,30.7283 C11.2418,30.6278 11.2073,30.4223 11.3370,30.2670 L12.7508,28.5825 C12.8813,28.4273 13.1265,28.3823 13.2990,28.4820 L15.1740,29.5643 C15.3465,29.6648 15.3802,29.8703 15.2505,30.0255 L13.8383,31.7100 Z" style="fill-rule: evenodd; fill: url(#grad4128); "/>
    <defs xmlns="http://www.w3.org/2000/svg" xmlns:xlink="http://www.w3.org/1999/xlink">
      <linearGradient id="grad4129">
        <stop offset="0%" stop-color="#c9d8dd" stop-opacity="1.0000"/>
        <stop offset="100%" stop-color="#f3faf8" stop-opacity="1.0000"/>
      </linearGradient>
      <linearGradient xlink:href="#grad4129" id="grad4130" x1="0" y1="0" x2="0" y2="1" gradientTransform="rotate(135 .5 .5)" gradientUnits="objectBoundingBox">
  </linearGradient>
    </defs>
    <path xmlns="http://www.w3.org/2000/svg" d="  M18.1237,34.1850 C17.9932,34.3403 17.7480,34.3853 17.5762,34.2855 L15.7005,33.2033 C15.5280,33.1035 15.4935,32.8973 15.6233,32.7420 L17.0370,31.0575 C17.1667,30.9023 17.4120,30.8573 17.5845,30.9570 L19.4595,32.0400 C19.6320,32.1398 19.6672,32.3460 19.5375,32.5005 L18.1237,34.1850 Z" style="fill-rule: evenodd; fill: url(#grad4130); "/>
    <defs xmlns="http://www.w3.org/2000/svg" xmlns:xlink="http://www.w3.org/1999/xlink">
      <linearGradient id="grad4131">
        <stop offset="0%" stop-color="#c9d8dd" stop-opacity="1.0000"/>
        <stop offset="100%" stop-color="#f3faf8" stop-opacity="1.0000"/>
      </linearGradient>
      <linearGradient xlink:href="#grad4131" id="grad4132" x1="0" y1="0" x2="0" y2="1" gradientTransform="rotate(135 .5 .5)" gradientUnits="objectBoundingBox">
  </linearGradient>
    </defs>
    <path xmlns="http://www.w3.org/2000/svg" d="  M12.2415,26.0288 C12.1110,26.1840 11.8658,26.2290 11.6940,26.1293 L9.8183,25.0470 C9.6458,24.9473 9.6113,24.7410 9.7410,24.5858 L11.1548,22.9013 C11.2853,22.7460 11.5298,22.7010 11.7030,22.8008 L13.5780,23.8838 C13.7498,23.9835 13.7843,24.1890 13.6553,24.3443 L12.2415,26.0288 Z" style="fill-rule: evenodd; fill: url(#grad4132); "/>
    <defs xmlns="http://www.w3.org/2000/svg" xmlns:xlink="http://www.w3.org/1999/xlink">
      <linearGradient id="grad4133">
        <stop offset="0%" stop-color="#c9d8dd" stop-opacity="1.0000"/>
        <stop offset="100%" stop-color="#f3faf8" stop-opacity="1.0000"/>
      </linearGradient>
      <linearGradient xlink:href="#grad4133" id="grad4134" x1="0" y1="0" x2="0" y2="1" gradientTransform="rotate(135 .5 .5)" gradientUnits="objectBoundingBox">
  </linearGradient>
    </defs>
    <path xmlns="http://www.w3.org/2000/svg" d="  M16.5278,28.5038 C16.3980,28.6590 16.1528,28.7048 15.9803,28.6043 L14.1053,27.5220 C13.9328,27.4223 13.8983,27.2160 14.0280,27.0608 L15.4410,25.3763 C15.5715,25.2210 15.8168,25.1760 15.9893,25.2758 L17.8650,26.3588 C18.0368,26.4585 18.0713,26.6640 17.9415,26.8200 L16.5278,28.5038 Z" style="fill-rule: evenodd; fill: url(#grad4134); "/>
    <defs xmlns="http://www.w3.org/2000/svg" xmlns:xlink="http://www.w3.org/1999/xlink">
      <linearGradient id="grad4135">
        <stop offset="0%" stop-color="#c9d8dd" stop-opacity="1.0000"/>
        <stop offset="100%" stop-color="#f3faf8" stop-opacity="1.0000"/>
      </linearGradient>
      <linearGradient xlink:href="#grad4135" id="grad4136" x1="0" y1="0" x2="0" y2="1" gradientTransform="rotate(135 .5 .5)" gradientUnits="objectBoundingBox">
  </linearGradient>
    </defs>
    <path xmlns="http://www.w3.org/2000/svg" d="  M20.8147,30.9788 C20.6843,31.1340 20.4397,31.1798 20.2673,31.0793 L18.3908,29.9970 C18.2190,29.8973 18.1845,29.6910 18.3143,29.5358 L19.7280,27.8520 C19.8578,27.6960 20.1030,27.6510 20.2755,27.7515 L22.1512,28.8338 C22.3230,28.9335 22.3582,29.1398 22.2285,29.2950 L20.8147,30.9788 Z" style="fill-rule: evenodd; fill: url(#grad4136); "/>
    <defs xmlns="http://www.w3.org/2000/svg" xmlns:xlink="http://www.w3.org/1999/xlink">
      <linearGradient id="grad4137">
        <stop offset="0%" stop-color="#c9d8dd" stop-opacity="1.0000"/>
        <stop offset="100%" stop-color="#f3faf8" stop-opacity="1.0000"/>
      </linearGradient>
      <linearGradient xlink:href="#grad4137" id="grad4138" x1="0" y1="0" x2="0" y2="1" gradientTransform="rotate(135 .5 .5)" gradientUnits="objectBoundingBox">
  </linearGradient>
    </defs>
    <path xmlns="http://www.w3.org/2000/svg" d="  M17.6227,19.6148 C17.4930,19.7708 17.2470,19.8158 17.0745,19.7153 L15.1995,18.6330 C15.0270,18.5333 14.9925,18.3278 15.1215,18.1718 L16.5352,16.4880 C16.6665,16.3328 16.9110,16.2870 17.0835,16.3868 L18.9592,17.4698 C19.1317,17.5695 19.1655,17.7758 19.0365,17.9310 L17.6227,19.6148 Z" style="fill-rule: evenodd; fill: url(#grad4138); "/>
    <defs xmlns="http://www.w3.org/2000/svg" xmlns:xlink="http://www.w3.org/1999/xlink">
      <linearGradient id="grad4139">
        <stop offset="0%" stop-color="#c9d8dd" stop-opacity="1.0000"/>
        <stop offset="100%" stop-color="#f3faf8" stop-opacity="1.0000"/>
      </linearGradient>
      <linearGradient xlink:href="#grad4139" id="grad4140" x1="0" y1="0" x2="0" y2="1" gradientTransform="rotate(135 .5 .5)" gradientUnits="objectBoundingBox">
  </linearGradient>
    </defs>
    <path xmlns="http://www.w3.org/2000/svg" d="  M21.9090,22.0905 C21.7785,22.2458 21.5340,22.2908 21.3615,22.1910 L19.4858,21.1080 C19.3140,21.0083 19.2788,20.8028 19.4085,20.6468 L20.8223,18.9630 C20.9528,18.8078 21.1973,18.7628 21.3698,18.8625 L23.2455,19.9448 C23.4180,20.0445 23.4525,20.2508 23.3228,20.4060 L21.9090,22.0905 Z" style="fill-rule: evenodd; fill: url(#grad4140); "/>
    <defs xmlns="http://www.w3.org/2000/svg" xmlns:xlink="http://www.w3.org/1999/xlink">
      <linearGradient id="grad4141">
        <stop offset="0%" stop-color="#c9d8dd" stop-opacity="1.0000"/>
        <stop offset="100%" stop-color="#f3faf8" stop-opacity="1.0000"/>
      </linearGradient>
      <linearGradient xlink:href="#grad4141" id="grad4142" x1="0" y1="0" x2="0" y2="1" gradientTransform="rotate(135 .5 .5)" gradientUnits="objectBoundingBox">
  </linearGradient>
    </defs>
    <path xmlns="http://www.w3.org/2000/svg" d="  M26.1960,24.5655 C26.0662,24.7208 25.8210,24.7658 25.6477,24.6660 L23.7728,23.5830 C23.6010,23.4840 23.5657,23.2778 23.6947,23.1225 L25.1085,21.4380 C25.2397,21.2828 25.4842,21.2378 25.6567,21.3375 L27.5325,22.4205 C27.7050,22.5195 27.7395,22.7265 27.6097,22.8810 L26.1960,24.5655 Z" style="fill-rule: evenodd; fill: url(#grad4142); "/>
    <path xmlns="http://www.w3.org/2000/svg" d="  M21.4155,40.5075 L0.4042,28.4400 C0.3532,28.4108 0.3165,28.3590 0.3067,28.2990 C0.2955,28.2398 0.3127,28.1798 0.3525,28.1333 L14.7052,11.3040 C14.7675,11.2290 14.8762,11.2110 14.9602,11.2598 L35.8920,23.2493 C35.9430,23.2793 35.9790,23.3303 35.9902,23.3903 C36.0022,23.4480 35.9842,23.5095 35.9460,23.5560 L21.6720,40.4633 C21.6322,40.5098 21.5752,40.5345 21.5167,40.5345 C21.4822,40.5345 21.4470,40.5255 21.4155,40.5075 Z M21.4702,40.0725 L35.4787,23.4810 L14.9032,11.6940 L0.8175,28.2113 L21.4702,40.0725 Z" style="fill-rule: evenodd; fill: #ffffff; "/>
    <path xmlns="http://www.w3.org/2000/svg" d="  M23.9895,9.9068 L23.9415,9.4560 L35.7697,15.8850 L35.6520,16.3350 L24.1313,10.0493 L23.9895,9.9068 Z" style="fill-rule: evenodd; fill: #8f8472; fill-opacity: 0.3490; "/>
    <defs xmlns="http://www.w3.org/2000/svg">
      <radialGradient id="grad4143" cx="50.0000%" cy="50.0000%" r="100.0000%">
        <stop offset="0%" stop-color="#f9eedd" stop-opacity="1.0000"/>
        <stop offset="100%" stop-color="#cdc5ae" stop-opacity="1.0000"/>
      </radialGradient>
    </defs>
    <path xmlns="http://www.w3.org/2000/svg" d="  M10.8503,9.2422 C12.9840,10.4745 16.1407,10.7467 18.7365,10.0695 C19.1445,9.9577 20.6820,9.5332 21.3930,8.8800 C21.0727,8.0955 20.5072,7.0507 20.1765,6.3885 C18.4605,2.9460 16.1032,1.6132 14.2230,1.5112 C10.7918,1.3252 9.1785,4.5937 8.8950,6.8227 C8.8890,6.8122 8.8763,6.8617 8.8763,6.8617 C9.0405,7.7542 9.6653,8.5582 10.8503,9.2422 Z" style="fill-rule: evenodd; fill: url(#grad4143); "/>
    <defs xmlns="http://www.w3.org/2000/svg" xmlns:xlink="http://www.w3.org/1999/xlink">
      <linearGradient id="grad4144">
        <stop offset="0%" stop-color="#b1a68e" stop-opacity="1.0000"/>
        <stop offset="100%" stop-color="#efe7d8" stop-opacity="1.0000"/>
      </linearGradient>
      <linearGradient xlink:href="#grad4144" id="grad4145" x1="0" y1="0" x2="0" y2="1" gradientTransform="rotate(180 .5 .5)" gradientUnits="objectBoundingBox">
  </linearGradient>
    </defs>
    <path xmlns="http://www.w3.org/2000/svg" d="  M48.0930,17.9587 C47.8965,17.4960 47.5822,17.0452 47.1562,16.6485 C47.1435,16.6365 47.1337,16.6252 47.1217,16.6140 C39.0360,9.7957 30.7020,4.8382 21.0930,1.1595 C20.1382,0.7935 18.2715,0.3210 18.1297,0.3112 C16.5592,0.0007 14.7352,0.2190 13.4880,0.9652 C13.0545,1.2255 12.7237,1.4767 12.4987,1.7362 C13.0132,1.5622 13.5862,1.4760 14.2237,1.5105 C16.1040,1.6125 18.4605,2.9452 20.1772,6.3877 C20.5080,7.0500 21.0735,8.0947 21.3937,8.8792 C21.3922,8.8807 21.3907,8.8815 21.3900,8.8830 C28.0530,11.4840 33.9067,14.6992 39.8662,19.3770 C39.9570,19.4287 40.4730,18.3720 42.0412,18.2602 C44.2095,18.1057 43.5697,19.5675 46.1865,19.6125 C47.2717,19.6320 48.2122,18.6660 48.0930,17.9587 Z" style="fill-rule: evenodd; fill: url(#grad4145); "/>
    <defs xmlns="http://www.w3.org/2000/svg">
      <radialGradient id="grad4146" cx="50.0000%" cy="50.0000%" r="100.0000%">
        <stop offset="0%" stop-color="#dcd2bd" stop-opacity="1.0000"/>
        <stop offset="100%" stop-color="#b1a68e" stop-opacity="1.0000"/>
      </radialGradient>
    </defs>
    <path xmlns="http://www.w3.org/2000/svg" d="  M20.1765,6.3878 C18.6398,3.3045 16.5877,1.9163 14.8260,1.5870 C16.4040,2.2748 17.8027,4.4018 17.8027,6.2325 C17.8027,8.6513 16.0695,10.4213 13.1835,10.1333 C14.9640,10.5495 16.9793,10.5270 18.7365,10.0688 C19.1445,9.9570 20.6820,9.5325 21.3930,8.8793 C21.0728,8.0955 20.5073,7.0500 20.1765,6.3878 Z" style="fill-rule: evenodd; fill: url(#grad4146); "/>
    <path xmlns="http://www.w3.org/2000/svg" d="  M10.7392,9.4305 C9.5955,8.7690 8.8312,8.0430 8.7187,7.1355 C8.7112,7.0785 8.7517,7.0275 8.8080,7.0208 C8.8650,7.0140 8.9167,7.0538 8.9227,7.1100 C9.0165,7.9073 9.7140,8.6010 10.8427,9.2520 C12.1972,10.0343 13.9852,10.4295 15.7740,10.4295 C17.5627,10.4295 19.3507,10.0343 20.7060,9.2520 C20.8222,9.1763 20.9025,9.3623 20.8095,9.4298 C19.4122,10.2360 17.5927,10.6343 15.7740,10.6350 C13.9552,10.6358 12.1357,10.2368 10.7392,9.4305 Z" style="fill-rule: evenodd; fill: #efe7d8; "/>
    <defs xmlns="http://www.w3.org/2000/svg" xmlns:xlink="http://www.w3.org/1999/xlink">
      <linearGradient id="grad4147">
        <stop offset="0%" stop-color="#91836b" stop-opacity="1.0000"/>
        <stop offset="100%" stop-color="#dcd5c3" stop-opacity="1.0000"/>
      </linearGradient>
      <linearGradient xlink:href="#grad4147" id="grad4148" x1="0" y1="0" x2="0" y2="1" gradientTransform="rotate(135 .5 .5)" gradientUnits="objectBoundingBox">
  </linearGradient>
    </defs>
    <path xmlns="http://www.w3.org/2000/svg" d="  M10.7392,9.2145 C9.5955,8.5530 8.8312,7.8270 8.7187,6.9195 C8.7112,6.8625 8.7517,6.8115 8.8080,6.8047 C8.8650,6.7980 8.9167,6.8378 8.9227,6.8940 C9.0165,7.6913 9.7140,8.3850 10.8427,9.0360 C12.1972,9.8183 13.9852,10.2135 15.7740,10.2135 C17.5627,10.2135 19.3507,9.8183 20.7060,9.0360 C20.7960,8.9378 21.0082,9.0968 20.8095,9.2138 C19.4122,10.0200 17.5927,10.4183 15.7740,10.4190 C13.9552,10.4190 12.1357,10.0208 10.7392,9.2145 Z" style="fill-rule: evenodd; fill: url(#grad4148); "/>
    <defs xmlns="http://www.w3.org/2000/svg" xmlns:xlink="http://www.w3.org/1999/xlink">
      <linearGradient id="grad4149">
        <stop offset="0%" stop-color="#91836b" stop-opacity="1.0000"/>
        <stop offset="100%" stop-color="#dcd5c3" stop-opacity="1.0000"/>
      </linearGradient>
      <linearGradient xlink:href="#grad4149" id="grad4150" x1="0" y1="0" x2="0" y2="1" gradientTransform="rotate(-0 .5 .5)" gradientUnits="objectBoundingBox">
  </linearGradient>
    </defs>
    <path xmlns="http://www.w3.org/2000/svg" d="  M39.8655,19.3777 C33.6532,14.5005 27.5565,11.2103 20.5357,8.5523 L14.7255,11.0843 L24.2100,16.5338 L36.0375,23.4135 L41.3152,20.2635 C41.3152,20.2635 41.0677,19.5862 40.3837,18.8932 C40.0590,19.1595 39.9090,19.4032 39.8655,19.3777 Z" style="fill-rule: evenodd; fill: url(#grad4150); "/>
    <defs xmlns="http://www.w3.org/2000/svg">
      <radialGradient id="grad4151" cx="50.0000%" cy="50.0000%" r="100.0000%">
        <stop offset="0%" stop-color="#f9eedd" stop-opacity="1.0000"/>
        <stop offset="100%" stop-color="#cdc5ae" stop-opacity="1.0000"/>
      </radialGradient>
    </defs>
    <path xmlns="http://www.w3.org/2000/svg" d="  M51.9607,24.3008 C51.8737,21.4515 50.1855,19.1003 48.0622,17.8943 C48.0720,17.9160 48.0847,17.9370 48.0937,17.9588 C48.2122,18.6653 47.2717,19.6313 46.1865,19.6125 C43.5697,19.5675 44.2087,18.1058 42.0412,18.2603 C41.3265,18.3113 40.8322,18.5580 40.4955,18.8070 C39.0045,20.1135 37.9597,22.0425 38.0107,24.3038 C38.0137,24.2993 38.0160,24.2940 38.0190,24.2895 C38.3730,24.6593 39.0217,25.8750 39.5422,26.2260 C44.5020,29.5590 49.3927,27.4230 50.7967,26.2260 C52.2007,25.0298 51.9607,24.3008 51.9607,24.3008 Z" style="fill-rule: evenodd; fill: url(#grad4151); "/>
    <defs xmlns="http://www.w3.org/2000/svg" xmlns:xlink="http://www.w3.org/1999/xlink">
      <linearGradient id="grad4152">
        <stop offset="0%" stop-color="#b1a68e" stop-opacity="1.0000"/>
        <stop offset="100%" stop-color="#dcd2bd" stop-opacity="1.0000"/>
      </linearGradient>
      <linearGradient xlink:href="#grad4152" id="grad4153" x1="0" y1="0" x2="0" y2="1" gradientTransform="rotate(90 .5 .5)" gradientUnits="objectBoundingBox">
  </linearGradient>
    </defs>
    <path xmlns="http://www.w3.org/2000/svg" d="  M52.0545,23.6700 C52.0545,23.6700 52.0215,23.5928 51.9847,23.6535 C51.7687,24.5085 51.0495,25.3335 49.9110,25.9898 C47.1585,27.5790 42.6967,27.5790 39.9442,25.9898 C38.7592,25.3058 38.0152,24.5633 37.9635,23.6610 L37.9635,26.8493 C37.8832,27.9480 38.5687,29.0633 40.0215,29.9018 C42.7740,31.4903 47.2365,31.4903 49.9890,29.9018 C51.3780,29.1000 52.0665,28.0463 52.0537,26.9955 C52.0545,26.9955 52.0537,24.7620 52.0545,23.6700 Z" style="fill-rule: evenodd; fill: url(#grad4153); "/>
    <path xmlns="http://www.w3.org/2000/svg" d="  M39.8917,26.2950 C38.7480,25.6335 37.9837,24.9075 37.8720,23.9992 C37.8637,23.9430 37.9050,23.8912 37.9612,23.8852 C38.0182,23.8777 38.0692,23.9182 38.0752,23.9745 C38.1690,24.7717 38.8665,25.4655 39.9960,26.1165 C41.3505,26.8987 43.1377,27.2940 44.9272,27.2940 C46.7160,27.2940 48.5040,26.8987 49.8585,26.1165 C50.9880,25.4655 51.6855,24.6517 51.8872,23.8305 L51.8887,23.8305 C51.9015,23.7757 51.9570,23.7420 52.0125,23.7555 C52.0672,23.7690 52.1010,23.8252 52.0875,23.8800 C51.8647,24.7777 51.1207,25.6245 49.9627,26.2942 C48.5655,27.0997 46.7460,27.4987 44.9272,27.4995 C43.1077,27.5002 41.2890,27.1012 39.8917,26.2950 Z" style="fill-rule: evenodd; fill: #efe7d8; "/>
    <path xmlns="http://www.w3.org/2000/svg" d="  M39.8917,26.0790 C38.7480,25.4175 37.9837,24.6915 37.8720,23.7832 C37.8637,23.7270 37.9050,23.6752 37.9612,23.6692 C38.0182,23.6617 38.0692,23.7022 38.0752,23.7585 C38.1690,24.5557 38.8665,25.2487 39.9960,25.9005 C41.3505,26.6827 43.1377,27.0780 44.9272,27.0780 C46.7160,27.0780 48.5040,26.6827 49.8585,25.9005 C50.9880,25.2487 51.6855,24.4357 51.8872,23.6145 L51.8887,23.6145 C51.9015,23.5597 51.9570,23.5260 52.0125,23.5395 C52.0672,23.5530 52.1010,23.6092 52.0875,23.6640 C51.8647,24.5617 51.1207,25.4085 49.9627,26.0782 C48.5655,26.8837 46.7460,27.2827 44.9272,27.2835 C43.1077,27.2842 41.2890,26.8852 39.8917,26.0790 Z" style="fill-rule: evenodd; fill: #a59a84; "/>
    <defs xmlns="http://www.w3.org/2000/svg" xmlns:xlink="http://www.w3.org/1999/xlink">
      <linearGradient id="grad4154">
        <stop offset="0%" stop-color="#afa892" stop-opacity="1.0000"/>
        <stop offset="100%" stop-color="#cdc5ae" stop-opacity="1.0000"/>
      </linearGradient>
      <linearGradient xlink:href="#grad4154" id="grad4155" x1="0" y1="0" x2="0" y2="1" gradientTransform="rotate(90 .5 .5)" gradientUnits="objectBoundingBox">
  </linearGradient>
    </defs>
    <path xmlns="http://www.w3.org/2000/svg" d="  M35.6903,19.4550 C35.6903,19.4550 35.4638,15.9510 36.6720,14.7945 C38.1120,13.4182 37.3793,16.5540 37.3793,16.5540 C37.3793,16.5540 37.2765,17.7187 37.8450,17.9025 C38.1143,17.9887 38.3633,18.1027 38.3633,18.1027 L35.6970,19.4542 Z" style="fill-rule: evenodd; fill: url(#grad4155); "/>
    <defs xmlns="http://www.w3.org/2000/svg" xmlns:xlink="http://www.w3.org/1999/xlink">
      <linearGradient id="grad4156">
        <stop offset="0%" stop-color="#afa892" stop-opacity="1.0000"/>
        <stop offset="100%" stop-color="#cdc5ae" stop-opacity="1.0000"/>
      </linearGradient>
      <linearGradient xlink:href="#grad4156" id="grad4157" x1="0" y1="0" x2="0" y2="1" gradientTransform="rotate(90 .5 .5)" gradientUnits="objectBoundingBox">
  </linearGradient>
    </defs>
    <path xmlns="http://www.w3.org/2000/svg" d="  M23.0295,12.0510 L25.6282,10.7610 C25.6282,10.7610 25.3432,10.5833 25.1197,10.4798 C24.5767,10.2293 24.7095,9.1515 24.7095,9.1515 C24.7095,9.1515 25.4602,6.0900 24.0217,7.4678 C22.8135,8.6235 23.0212,12.0533 23.0212,12.0533 Z" style="fill-rule: evenodd; fill: url(#grad4157); "/>
    <defs xmlns="http://www.w3.org/2000/svg" xmlns:xlink="http://www.w3.org/1999/xlink">
      <linearGradient id="grad4158">
        <stop offset="0%" stop-color="#e5d9c2" stop-opacity="1.0000"/>
        <stop offset="100%" stop-color="#ffffff" stop-opacity="1.0000"/>
      </linearGradient>
      <linearGradient xlink:href="#grad4158" id="grad4159" x1="0" y1="0" x2="0" y2="1" gradientTransform="rotate(180 .5 .5)" gradientUnits="objectBoundingBox">
  </linearGradient>
    </defs>
    <path xmlns="http://www.w3.org/2000/svg" d="  M21.2917,11.1825 C21.2917,11.1825 20.9842,6.7252 23.1540,6.3742 L24.7080,7.1092 C24.7080,7.1092 22.9372,7.5277 23.0287,12.0510 C23.0295,12.0600 22.0882,11.6055 21.2917,11.1825 Z" style="fill-rule: evenodd; fill: url(#grad4159); "/>
    <defs xmlns="http://www.w3.org/2000/svg" xmlns:xlink="http://www.w3.org/1999/xlink">
      <linearGradient id="grad4160">
        <stop offset="0%" stop-color="#f9eedd" stop-opacity="1.0000"/>
        <stop offset="100%" stop-color="#ece3ce" stop-opacity="1.0000"/>
      </linearGradient>
      <linearGradient xlink:href="#grad4160" id="grad4161" x1="0" y1="0" x2="0" y2="1" gradientTransform="rotate(-0 .5 .5)" gradientUnits="objectBoundingBox">
  </linearGradient>
    </defs>
    <path xmlns="http://www.w3.org/2000/svg" d="  M33.9607,18.4965 C33.9607,18.4965 33.6322,13.9365 35.9130,13.6658 L37.2712,14.4255 C37.2712,14.4255 35.5342,15.0233 35.6970,19.4760 C35.6977,19.5300 33.9607,18.4965 33.9607,18.4965 Z" style="fill-rule: evenodd; fill: url(#grad4161); "/>
    <!--converted by libvisio2svg-->
  </g>
</svg>
