<svg xmlns="http://www.w3.org/2000/svg" xmlns:xlink="http://www.w3.org/1999/xlink" version="1.1" width="0.8729000000" height="0.7139000000" viewBox="0 0 62.8470 51.3997">
  <title><![CDATA[Phone, PBX]]></title>
  <g transform=" scale(1.000000) ">
    <path xmlns="http://www.w3.org/2000/svg" d="  M40.1092,7.8225 L42.0203,6.3757 C42.0315,6.3757 42.0420,6.3772 42.0525,6.3772 C42.3765,6.3772 42.7027,6.2797 42.9848,6.0787 L44.4855,5.0070 C45.2085,4.4903 45.3758,3.4868 44.8590,2.7630 C44.3430,2.0408 43.3387,1.8727 42.6173,2.3895 L41.1157,3.4620 C40.8210,3.6728 40.6200,3.9660 40.5195,4.2870 L40.0072,4.6740 C39.9503,4.3935 39.8730,4.1993 39.7725,4.1422 C39.7395,4.0837 39.6983,4.0268 39.6555,3.9705 C39.6503,3.9630 39.6435,3.9548 39.6375,3.9487 C39.5970,3.8977 39.5535,3.8482 39.5047,3.8002 C39.5017,3.7965 39.4987,3.7928 39.4958,3.7890 C39.4950,3.7890 39.4942,3.7875 39.4942,3.7875 C39.2205,3.4822 38.9430,3.2707 38.9430,3.2707 L34.1175,0.6443 C32.0280,0.0008 30.2595,0.5903 30.2595,0.5903 C14.5013,7.3965 4.2652,18.8670 3.4627,19.9920 C3.3810,20.1030 3.3120,20.2042 3.2490,20.2958 C3.0397,20.6040 2.9205,20.8005 2.8642,20.9010 C2.8560,20.9220 2.8507,20.9438 2.8455,20.9647 C2.8395,20.9880 2.8350,21.0127 2.8320,21.0382 C2.8267,21.0615 2.8215,21.0855 2.8192,21.1102 C2.6437,21.6097 2.5350,23.0332 2.5762,24.2460 L0.2340,25.9402 L0.2062,25.9598 L0.2257,26.0235 C0.1440,26.1570 0.0735,26.3168 0.0390,26.4983 C0.0008,26.6887 0.0015,26.9040 0.0720,27.1417 C0.0802,27.1717 1.3988,31.4220 1.3988,31.4220 C1.5082,31.7610 1.7572,31.9950 2.1097,32.0685 L2.1217,32.1053 L2.4968,32.3212 L2.4968,32.9625 L34.3328,51.3997 C34.3328,51.3997 59.8920,36.6787 60.1725,36.4575 C60.7350,36.0112 61.1130,35.4360 61.2128,34.7985 C61.2285,34.6890 61.2382,34.5765 61.2382,34.4633 C61.2382,34.4123 61.2322,32.9528 61.2255,31.3853 C61.1558,31.4370 61.0807,31.4918 61.0035,31.5465 C61.9875,30.8347 62.5695,30.4118 62.5837,30.3960 C62.7000,30.2760 62.7810,30.1440 62.8185,30.0052 C62.8335,29.9520 62.8448,22.8862 62.8455,21.9240 C62.8455,21.9240 62.8455,21.9225 62.8455,21.9210 C62.8455,21.8873 62.8425,21.8550 62.8365,21.8220 C62.8050,21.6158 62.6775,21.4245 62.4787,21.2572 C62.3205,21.1245 40.2277,8.6310 40.2277,8.6310 L40.1985,8.6520" style="stroke-width: 1.5000; stroke: #8d98b5; stroke-dasharray: none; stroke-linecap: butt; stroke-linejoin: miter; fill: none; "/>
    <defs xmlns="http://www.w3.org/2000/svg">
      <linearGradient id="grad4000">
        <stop offset="0%" stop-color="#080808" stop-opacity="1.0000"/>
        <stop offset="100%" stop-color="#c4c5c6" stop-opacity="1.0000"/>
      </linearGradient>
    </defs>
    <path xmlns="http://www.w3.org/2000/svg" d="  M33.2107,49.6710 C33.2167,49.6897 33.2220,49.7062 33.2257,49.7182 C33.2220,49.7062 33.2167,49.6905 33.2107,49.6710 Z" style="fill-rule: evenodd; fill: url(#grad4000); "/>
    <defs xmlns="http://www.w3.org/2000/svg" xmlns:xlink="http://www.w3.org/1999/xlink">
      <linearGradient id="grad4001">
        <stop offset="0%" stop-color="#080808" stop-opacity="1.0000"/>
        <stop offset="100%" stop-color="#c4c5c6" stop-opacity="1.0000"/>
      </linearGradient>
      <linearGradient xlink:href="#grad4001" id="grad4002" x1="0" y1="0" x2="0" y2="1" gradientTransform="rotate(315 .5 .5)" gradientUnits="objectBoundingBox">
  </linearGradient>
    </defs>
    <path xmlns="http://www.w3.org/2000/svg" d="  M61.2263,31.3837 C55.7220,35.3707 35.3527,50.0437 35.3288,50.0580 C34.4872,50.5500 33.8288,50.5050 33.4710,50.1427 L2.4967,32.3190 L2.4967,32.9602 L34.3328,51.3975 C34.3328,51.3975 59.8920,36.6765 60.1725,36.4552 C60.7350,36.0090 61.1130,35.4337 61.2128,34.7962 C61.2285,34.6867 61.2383,34.5742 61.2383,34.4610 C61.2383,34.4107 61.2323,32.9512 61.2263,31.3837 Z" style="fill-rule: evenodd; fill: url(#grad4002); "/>
    <path xmlns="http://www.w3.org/2000/svg" d="  M33.2257,49.7182 C33.2317,49.7370 33.2362,49.7505 33.2362,49.7505 C33.2362,49.7505 33.2310,49.7370 33.2257,49.7182 Z" style="fill-rule: evenodd; fill: #a7e968; "/>
    <defs xmlns="http://www.w3.org/2000/svg" xmlns:xlink="http://www.w3.org/1999/xlink">
      <linearGradient id="grad4003">
        <stop offset="0%" stop-color="#f3f9f7" stop-opacity="1.0000"/>
        <stop offset="100%" stop-color="#656d6d" stop-opacity="1.0000"/>
      </linearGradient>
      <linearGradient xlink:href="#grad4003" id="grad4004" x1="0" y1="0" x2="0" y2="1" gradientTransform="rotate(45 .5 .5)" gradientUnits="objectBoundingBox">
  </linearGradient>
    </defs>
    <path xmlns="http://www.w3.org/2000/svg" d="  M33.2355,49.7505 C33.2355,49.7505 31.9162,45.5002 31.9073,45.4687 C31.7340,44.8650 31.9875,44.4067 32.2170,44.1352 L32.1630,44.1037 L9.0855,30.9742 L6.5460,29.5282 L0.2655,25.9552 L0.2332,25.9380 L0.2055,25.9575 L0.2250,26.0212 C0.1433,26.1547 0.0728,26.3145 0.0383,26.4960 C0.0000,26.6865 0.0007,26.9017 0.0712,27.1395 C0.0795,27.1695 1.3980,31.4197 1.3980,31.4197 C1.5075,31.7587 1.7565,31.9927 2.1090,32.0662 L2.1210,32.1030 L33.4703,50.1427 C33.3653,50.0377 33.2858,49.9057 33.2355,49.7505 Z" style="fill-rule: evenodd; fill: url(#grad4004); "/>
    <defs xmlns="http://www.w3.org/2000/svg" xmlns:xlink="http://www.w3.org/1999/xlink">
      <linearGradient id="grad4005">
        <stop offset="0%" stop-color="#dae1e1" stop-opacity="1.0000"/>
        <stop offset="100%" stop-color="#7f8787" stop-opacity="1.0000"/>
      </linearGradient>
      <linearGradient xlink:href="#grad4005" id="grad4006" x1="0" y1="0" x2="0" y2="1" gradientTransform="rotate(315 .5 .5)" gradientUnits="objectBoundingBox">
  </linearGradient>
    </defs>
    <path xmlns="http://www.w3.org/2000/svg" d="  M62.6895,22.3635 C62.5567,22.5472 40.3785,38.2792 33.5827,43.0973 C33.1530,43.4018 32.7840,43.6643 32.4862,43.8750 C32.4405,43.9103 32.3325,43.9995 32.2177,44.1353 C31.9882,44.4068 31.7340,44.8657 31.9080,45.4687 C31.9170,45.5003 33.2362,49.7505 33.2362,49.7505 C33.2857,49.9057 33.3660,50.0378 33.4710,50.1428 C33.8287,50.5043 34.4865,50.5500 35.3287,50.0580 C35.3572,50.0408 62.4802,30.5010 62.5852,30.3937 C62.7015,30.2737 62.7825,30.1417 62.8200,30.0030 C62.8350,29.9498 62.8462,22.8840 62.8470,21.9218 C62.8455,22.0778 62.7885,22.2262 62.6895,22.3635 Z" style="fill-rule: evenodd; fill: url(#grad4006); "/>
    <path xmlns="http://www.w3.org/2000/svg" d="  M2.8110,25.9132 C2.6722,25.5727 2.5995,24.9427 2.5762,24.2437 L0.2340,25.9380 L0.2662,25.9552 L6.5468,29.5282 L9.0863,30.9742 L9.7988,30.4612 C7.9230,29.7187 3.6428,27.0937 3.6428,27.0937 C3.2535,26.7825 2.9647,26.2920 2.8110,25.9132 Z" style="fill-rule: evenodd; fill: #3f3f3f; "/>
    <defs xmlns="http://www.w3.org/2000/svg" xmlns:xlink="http://www.w3.org/1999/xlink">
      <linearGradient id="grad4007">
        <stop offset="0%" stop-color="#000000" stop-opacity="1.0000"/>
        <stop offset="100%" stop-color="#ffffff" stop-opacity="1.0000"/>
      </linearGradient>
      <linearGradient xlink:href="#grad4007" id="grad4008" x1="0" y1="0" x2="0" y2="1" gradientTransform="rotate(135 .5 .5)" gradientUnits="objectBoundingBox">
  </linearGradient>
    </defs>
    <path xmlns="http://www.w3.org/2000/svg" d="  M44.8590,2.7630 C44.3430,2.0408 43.3388,1.8728 42.6173,2.3895 L41.1158,3.4620 C40.8210,3.6728 40.6200,3.9660 40.5195,4.2870 L40.9538,3.9585 C41.5215,3.5303 42.3270,3.6420 42.7537,4.2090 C43.1828,4.7760 43.0710,5.5815 42.5040,6.0105 L42.0195,6.3758 C42.0307,6.3758 42.0412,6.3773 42.0517,6.3773 C42.3757,6.3773 42.7020,6.2798 42.9840,6.0788 L44.4847,5.0070 C45.2085,4.4895 45.3757,3.4860 44.8590,2.7630 Z" style="fill-rule: evenodd; fill: url(#grad4008); "/>
    <defs xmlns="http://www.w3.org/2000/svg" xmlns:xlink="http://www.w3.org/1999/xlink">
      <linearGradient id="grad4009">
        <stop offset="0%" stop-color="#000000" stop-opacity="1.0000"/>
        <stop offset="100%" stop-color="#ffffff" stop-opacity="1.0000"/>
      </linearGradient>
      <linearGradient xlink:href="#grad4009" id="grad4010" x1="0" y1="0" x2="0" y2="1" gradientTransform="rotate(135 .5 .5)" gradientUnits="objectBoundingBox">
  </linearGradient>
    </defs>
    <path xmlns="http://www.w3.org/2000/svg" d="  M42.7545,4.2082 C42.3278,3.6412 41.5215,3.5295 40.9545,3.9577 L40.5203,4.2862 L40.0080,4.6732 C40.1565,5.3992 40.1693,6.7155 40.1100,7.8225 L42.0210,6.3757 L42.5055,6.0105 C43.0718,5.5807 43.1835,4.7752 42.7545,4.2082 Z" style="fill-rule: evenodd; fill: url(#grad4010); "/>
    <defs xmlns="http://www.w3.org/2000/svg">
      <radialGradient id="grad4011" cx="50.0000%" cy="50.0000%" r="100.0000%">
        <stop offset="0%" stop-color="#dae1e1" stop-opacity="1.0000"/>
        <stop offset="100%" stop-color="#707070" stop-opacity="1.0000"/>
      </radialGradient>
    </defs>
    <path xmlns="http://www.w3.org/2000/svg" d="  M40.0080,4.6725 C39.9510,4.3920 39.8737,4.1978 39.7732,4.1407 C39.8032,4.1910 39.8272,4.2457 39.8512,4.2982 C39.8527,4.3035 39.8542,4.3087 39.8565,4.3140 C39.8723,4.3538 39.8872,4.3942 39.9000,4.4355 C39.9075,4.4617 39.9127,4.4880 39.9173,4.5150 C39.9210,4.5345 39.9278,4.5563 39.9293,4.5765 C39.9375,4.6237 39.9413,4.6740 39.9420,4.7228 C39.9420,4.7228 39.9420,4.7228 39.9420,4.7235 C39.9420,4.7265 39.9420,4.7295 39.9420,4.7325 C39.9420,5.1225 39.8032,5.5950 39.3758,5.7870 C39.2963,5.8237 39.2115,5.8620 39.1237,5.9025 C39.1005,5.9137 39.0743,5.9257 39.0510,5.9362 C38.9850,5.9670 38.9205,5.9977 38.8515,6.0308 C38.8470,6.0330 38.8432,6.0345 38.8403,6.0360 C38.8058,6.0517 38.7720,6.0682 38.7367,6.0847 C38.7007,6.1020 38.6640,6.1208 38.6273,6.1380 C38.6227,6.1402 38.6182,6.1425 38.6130,6.1448 C38.5935,6.1545 38.5740,6.1642 38.5530,6.1740 C38.5335,6.1838 38.5155,6.1927 38.4937,6.2025 C38.4510,6.2235 38.4068,6.2453 38.3625,6.2670 C38.3468,6.2752 38.3318,6.2828 38.3167,6.2895 C38.3010,6.2978 38.2845,6.3052 38.2695,6.3127 C38.2552,6.3195 38.2425,6.3270 38.2290,6.3330 C38.1847,6.3540 38.1428,6.3757 38.0970,6.3990 C38.0565,6.4185 38.0160,6.4395 37.9747,6.4605 C37.9732,6.4612 37.9725,6.4628 37.9695,6.4628 C37.9680,6.4628 37.9658,6.4643 37.9658,6.4643 C37.9200,6.4875 37.8780,6.5092 37.8323,6.5317 C37.7970,6.5505 37.7603,6.5700 37.7228,6.5880 C37.7190,6.5895 37.7160,6.5917 37.7138,6.5932 C37.7078,6.5955 37.7047,6.5977 37.7010,6.6007 C37.6553,6.6225 37.6140,6.6450 37.5690,6.6668 C37.5255,6.6885 37.4812,6.7125 37.4377,6.7357 C37.3935,6.7582 37.3508,6.7815 37.3057,6.8032 C37.2630,6.8265 37.2188,6.8505 37.1753,6.8730 C37.1317,6.8955 37.0890,6.9195 37.0433,6.9427 C37.0005,6.9645 36.9570,6.9885 36.9143,7.0117 C36.9113,7.0132 36.9090,7.0147 36.9075,7.0147 C36.9067,7.0147 36.9060,7.0162 36.9060,7.0162 C36.9053,7.0162 36.9045,7.0162 36.9030,7.0177 C36.8625,7.0387 36.8235,7.0605 36.7823,7.0822 C36.7380,7.1055 36.6945,7.1287 36.6517,7.1512 C36.6083,7.1753 36.5648,7.1993 36.5197,7.2233 C36.4770,7.2457 36.4335,7.2697 36.3907,7.2937 C36.3472,7.3162 36.3038,7.3410 36.2588,7.3643 C36.2160,7.3875 36.1733,7.4115 36.1290,7.4362 C36.0855,7.4595 36.0428,7.4835 35.9985,7.5082 C35.9558,7.5315 35.9115,7.5555 35.8695,7.5803 C35.8253,7.6035 35.7825,7.6275 35.7383,7.6522 C35.6948,7.6755 35.6512,7.7002 35.6092,7.7257 C35.5658,7.7490 35.5222,7.7730 35.4780,7.7978 C35.4352,7.8210 35.3925,7.8458 35.3482,7.8713 C35.3055,7.8945 35.2628,7.9192 35.2192,7.9432 C35.1750,7.9680 35.1338,7.9920 35.0887,8.0175 C35.0460,8.0415 35.0033,8.0662 34.9590,8.0917 C34.9170,8.1158 34.8735,8.1398 34.8300,8.1653 C34.7857,8.1900 34.7445,8.2147 34.7003,8.2403 C34.6575,8.2635 34.6140,8.2883 34.5713,8.3145 C34.5270,8.3385 34.4858,8.3632 34.4415,8.3887 C34.3987,8.4142 34.3552,8.4382 34.3118,8.4637 C34.2697,8.4885 34.2262,8.5132 34.1835,8.5395 C34.1392,8.5642 34.0965,8.5890 34.0530,8.6152 C34.0110,8.6400 33.9682,8.6647 33.9240,8.6902 C33.8812,8.7157 33.8392,8.7412 33.7965,8.7667 C33.7530,8.7922 33.7102,8.8170 33.6660,8.8432 C33.6232,8.8687 33.5820,8.8942 33.5385,8.9197 C33.4995,8.9415 33.4635,8.9640 33.4252,8.9872 C33.4140,8.9940 33.4027,9.0022 33.3892,9.0082 C33.3540,9.0293 33.3158,9.0510 33.2805,9.0735 C33.2370,9.0982 33.1942,9.1245 33.1523,9.1500 C33.1087,9.1747 33.0652,9.2010 33.0240,9.2280 C32.9797,9.2535 32.9385,9.2790 32.8950,9.3045 C32.8522,9.3307 32.8095,9.3570 32.7653,9.3825 C32.7615,9.3855 32.7562,9.3885 32.7518,9.3915 C32.7510,9.3922 32.7495,9.3930 32.7495,9.3930 C32.7127,9.4155 32.6752,9.4388 32.6385,9.4605 C32.5950,9.4867 32.5538,9.5122 32.5095,9.5385 C32.4660,9.5647 32.4255,9.5910 32.3812,9.6172 C32.3400,9.6420 32.2973,9.6690 32.2530,9.6952 C32.2102,9.7222 32.1690,9.7477 32.1262,9.7740 C32.1105,9.7830 32.0963,9.7912 32.0813,9.8002 C32.0775,9.8032 32.0730,9.8063 32.0685,9.8085 C32.0460,9.8227 32.0212,9.8377 31.9972,9.8520 C31.9538,9.8782 31.9125,9.9052 31.8697,9.9315 C31.8263,9.9578 31.7835,9.9833 31.7422,10.0095 C31.6995,10.0365 31.6567,10.0620 31.6140,10.0890 C31.5720,10.1145 31.5292,10.1415 31.4865,10.1685 C31.4602,10.1842 31.4355,10.2000 31.4092,10.2165 C31.3905,10.2285 31.3695,10.2412 31.3492,10.2532 C31.3103,10.2780 31.2705,10.3028 31.2315,10.3275 C31.1895,10.3545 31.1460,10.3807 31.1040,10.4070 C31.0628,10.4340 31.0200,10.4610 30.9772,10.4872 C30.9345,10.5142 30.8925,10.5412 30.8505,10.5675 C30.8070,10.5945 30.7657,10.6208 30.7223,10.6477 C30.7088,10.6568 30.6952,10.6657 30.6802,10.6755 C30.6600,10.6875 30.6405,10.7002 30.6203,10.7130 C30.6112,10.7182 30.6038,10.7242 30.5948,10.7287 C30.5527,10.7557 30.5123,10.7820 30.4687,10.8098 C30.4260,10.8360 30.3840,10.8637 30.3420,10.8900 C30.2985,10.9177 30.2572,10.9455 30.2145,10.9718 C30.1710,10.9988 30.1305,11.0258 30.0878,11.0535 C30.0450,11.0805 30.0045,11.1075 29.9610,11.1352 C29.9550,11.1382 29.9475,11.1427 29.9430,11.1472 C29.9355,11.1518 29.9287,11.1562 29.9212,11.1607 C29.8935,11.1795 29.8635,11.1990 29.8343,11.2178 C29.7930,11.2447 29.7503,11.2725 29.7082,11.3002 C29.6655,11.3272 29.6235,11.3550 29.5815,11.3828 C29.5388,11.4097 29.4975,11.4367 29.4555,11.4645 C29.4135,11.4922 29.3708,11.5200 29.3295,11.5478 C29.3010,11.5657 29.2732,11.5845 29.2448,11.6025 C29.2065,11.6280 29.1675,11.6527 29.1278,11.6797 C29.1112,11.6910 29.0940,11.7022 29.0760,11.7150 C29.0340,11.7427 28.9920,11.7690 28.9500,11.7982 C28.9087,11.8245 28.8667,11.8538 28.8240,11.8815 C28.7820,11.9092 28.7408,11.9370 28.6980,11.9648 C28.6560,11.9925 28.6140,12.0202 28.5712,12.0487 C28.5383,12.0712 28.5030,12.0953 28.4685,12.1178 C28.4610,12.1230 28.4527,12.1290 28.4453,12.1335 C28.4167,12.1515 28.3875,12.1725 28.3590,12.1912 C28.3455,12.2002 28.3335,12.2085 28.3200,12.2175 C28.2765,12.2453 28.2360,12.2737 28.1940,12.3022 C28.1512,12.3300 28.1115,12.3578 28.0687,12.3870 C28.0260,12.4147 27.9847,12.4440 27.9428,12.4718 C27.9000,12.5003 27.8595,12.5287 27.8168,12.5565 C27.7747,12.5858 27.7328,12.6135 27.6915,12.6427 C27.6900,12.6435 27.6885,12.6442 27.6863,12.6457 C27.6645,12.6615 27.6435,12.6750 27.6217,12.6900 C27.6030,12.7028 27.5842,12.7155 27.5663,12.7283 C27.5235,12.7575 27.4807,12.7867 27.4388,12.8145 C27.3982,12.8438 27.3555,12.8730 27.3142,12.9007 C27.2715,12.9300 27.2303,12.9585 27.1890,12.9870 C27.1463,13.0163 27.1035,13.0455 27.0623,13.0740 C27.0195,13.1040 26.9775,13.1333 26.9355,13.1625 C26.9348,13.1625 26.9340,13.1625 26.9333,13.1632 C26.8868,13.1963 26.8403,13.2285 26.7930,13.2608 C26.7563,13.2863 26.7195,13.3118 26.6827,13.3388 C26.6408,13.3680 26.5987,13.3972 26.5568,13.4265 C26.5148,13.4557 26.4735,13.4857 26.4308,13.5158 C26.3887,13.5450 26.3475,13.5742 26.3048,13.6035 C26.2628,13.6328 26.2208,13.6620 26.1780,13.6920 C26.1540,13.7093 26.1285,13.7280 26.1030,13.7453 C26.0857,13.7580 26.0685,13.7685 26.0528,13.7820 C26.0333,13.7970 26.0100,13.8113 25.9912,13.8262 C25.9703,13.8413 25.9470,13.8570 25.9268,13.8720 C25.8840,13.9012 25.8435,13.9305 25.8007,13.9605 C25.7580,13.9905 25.7160,14.0213 25.6725,14.0520 C25.6290,14.0828 25.5863,14.1135 25.5435,14.1442 C25.5000,14.1750 25.4580,14.2057 25.4145,14.2373 C25.3807,14.2605 25.3470,14.2845 25.3140,14.3092 C25.3050,14.3160 25.2960,14.3227 25.2855,14.3295 C25.2608,14.3475 25.2368,14.3648 25.2113,14.3828 C25.1940,14.3963 25.1745,14.4090 25.1550,14.4232 C25.1107,14.4563 25.0680,14.4885 25.0223,14.5200 C24.9773,14.5523 24.9337,14.5845 24.8887,14.6175 C24.8422,14.6512 24.7957,14.6843 24.7492,14.7188 C24.7012,14.7540 24.6517,14.7893 24.6038,14.8260 C24.5783,14.8440 24.5520,14.8643 24.5250,14.8830 C24.4710,14.9243 24.4148,14.9633 24.3600,15.0045 C24.3323,15.0248 24.3045,15.0465 24.2753,15.0668 C24.1830,15.1350 24.0892,15.2055 23.9970,15.2737 C23.9295,15.3233 23.8613,15.3735 23.7938,15.4230 C23.7615,15.4478 23.7270,15.4725 23.6955,15.4980 C23.6370,15.5423 23.5785,15.5858 23.5200,15.6300 C23.5193,15.6307 23.5177,15.6315 23.5177,15.6315 C23.4600,15.6758 23.4007,15.7193 23.3430,15.7635 C23.2927,15.8018 23.2410,15.8400 23.1907,15.8775 C23.1435,15.9143 23.0955,15.9503 23.0490,15.9862 C23.0025,16.0215 22.9583,16.0553 22.9125,16.0905 C22.8810,16.1138 22.8510,16.1377 22.8180,16.1610 C22.8053,16.1715 22.7925,16.1813 22.7798,16.1918 C22.7633,16.2038 22.7460,16.2165 22.7302,16.2293 C22.7040,16.2503 22.6770,16.2713 22.6508,16.2907 C22.6065,16.3238 22.5638,16.3575 22.5202,16.3913 C22.4790,16.4235 22.4362,16.4557 22.3935,16.4880 C22.3530,16.5210 22.3118,16.5525 22.2683,16.5848 C22.2278,16.6170 22.1858,16.6500 22.1437,16.6815 C22.1025,16.7138 22.0628,16.7460 22.0193,16.7783 C22.0185,16.7798 22.0163,16.7813 22.0140,16.7835 C21.9638,16.8218 21.9143,16.8608 21.8648,16.8998 C21.8333,16.9245 21.8025,16.9478 21.7703,16.9733 C21.7290,17.0055 21.6893,17.0378 21.6480,17.0700 C21.6075,17.1008 21.5685,17.1330 21.5273,17.1653 C21.4860,17.1975 21.4470,17.2298 21.4058,17.2613 C21.3645,17.2928 21.3248,17.3250 21.2843,17.3573 C21.2438,17.3895 21.2048,17.4203 21.1628,17.4525 C21.1560,17.4585 21.1493,17.4630 21.1448,17.4683 C21.0975,17.5058 21.0503,17.5433 21.0038,17.5800 C20.9760,17.6018 20.9483,17.6235 20.9220,17.6453 C20.8823,17.6775 20.8410,17.7098 20.8013,17.7420 C20.7608,17.7743 20.7210,17.8058 20.6813,17.8388 C20.6408,17.8710 20.5995,17.9040 20.5605,17.9355 C20.5208,17.9685 20.4810,18.0015 20.4405,18.0338 C20.3993,18.0660 20.3595,18.0990 20.3175,18.1320 C20.3108,18.1380 20.3025,18.1440 20.2965,18.1508 C20.2680,18.1725 20.2403,18.1958 20.2125,18.2183 C20.2080,18.2220 20.2020,18.2258 20.1983,18.2303 C20.1593,18.2625 20.1188,18.2955 20.0782,18.3278 C20.0393,18.3600 19.9995,18.3930 19.9605,18.4253 C19.9193,18.4583 19.8795,18.4905 19.8405,18.5235 C19.8000,18.5558 19.7617,18.5880 19.7213,18.6203 C19.6815,18.6540 19.6425,18.6870 19.6028,18.7200 C19.5622,18.7523 19.5240,18.7853 19.4843,18.8183 C19.4438,18.8513 19.4048,18.8843 19.3657,18.9165 C19.3530,18.9270 19.3402,18.9375 19.3282,18.9480 C19.3013,18.9705 19.2735,18.9930 19.2465,19.0163 C19.2060,19.0485 19.1685,19.0815 19.1280,19.1145 C19.0890,19.1475 19.0500,19.1805 19.0110,19.2142 C18.9705,19.2465 18.9322,19.2802 18.8918,19.3140 C18.8528,19.3463 18.8145,19.3792 18.7740,19.4130 C18.7358,19.4460 18.6960,19.4783 18.6570,19.5120 C18.6367,19.5293 18.6158,19.5472 18.5955,19.5653 C18.5760,19.5810 18.5580,19.5967 18.5408,19.6118 C18.5093,19.6380 18.4785,19.6643 18.4478,19.6905 C18.4395,19.6980 18.4320,19.7048 18.4230,19.7115 C18.3840,19.7445 18.3450,19.7775 18.3068,19.8120 C18.2670,19.8443 18.2288,19.8765 18.1898,19.9118 C18.1493,19.9440 18.1118,19.9778 18.0727,20.0123 C18.0338,20.0453 17.9948,20.0790 17.9565,20.1128 C17.9175,20.1465 17.8785,20.1802 17.8387,20.2140 C17.8013,20.2478 17.7615,20.2815 17.7233,20.3138 C17.7203,20.3168 17.7195,20.3183 17.7173,20.3197 C17.6955,20.3393 17.6700,20.3602 17.6483,20.3805 C17.6340,20.3933 17.6205,20.4045 17.6063,20.4165 C17.5680,20.4503 17.5283,20.4840 17.4900,20.5185 C17.4525,20.5515 17.4120,20.5853 17.3753,20.6190 C17.3363,20.6528 17.2973,20.6873 17.2590,20.7218 C17.2215,20.7555 17.1810,20.7893 17.1443,20.8230 C17.1045,20.8568 17.0663,20.8920 17.0288,20.9258 C16.9965,20.9535 16.9643,20.9828 16.9320,21.0105 C16.8803,21.0578 16.8270,21.1043 16.7753,21.1500 C16.7430,21.1785 16.7138,21.2055 16.6815,21.2333 C16.6425,21.2670 16.6058,21.3023 16.5668,21.3360 C16.5285,21.3705 16.4903,21.4058 16.4520,21.4403 C16.4145,21.4740 16.3755,21.5093 16.3388,21.5430 C16.3005,21.5783 16.2608,21.6120 16.2240,21.6473 C16.1843,21.6818 16.1468,21.7163 16.1093,21.7500 C16.0883,21.7703 16.0658,21.7898 16.0455,21.8093 C15.9982,21.8513 15.9525,21.8933 15.9060,21.9360 C15.8978,21.9435 15.8895,21.9518 15.8798,21.9592 C15.8430,21.9945 15.8040,22.0283 15.7665,22.0635 C15.7290,22.0988 15.6908,22.1333 15.6525,22.1678 C15.6150,22.2030 15.5775,22.2383 15.5393,22.2735 C15.5025,22.3088 15.4635,22.3440 15.4275,22.3793 C15.3877,22.4138 15.3510,22.4483 15.3135,22.4843 C15.2753,22.5188 15.2370,22.5540 15.1988,22.5893 C15.1958,22.5953 15.1898,22.5990 15.1845,22.6043 C15.1583,22.6275 15.1343,22.6523 15.1072,22.6763 C15.0990,22.6830 15.0930,22.6898 15.0863,22.6958 C15.0480,22.7310 15.0113,22.7670 14.9730,22.8023 C14.9363,22.8375 14.8972,22.8728 14.8612,22.9088 C14.8223,22.9440 14.7848,22.9800 14.7480,23.0145 C14.7113,23.0505 14.6730,23.0858 14.6355,23.1210 C14.5988,23.1570 14.5605,23.1930 14.5245,23.2283 C14.4862,23.2643 14.4495,23.3003 14.4113,23.3355 C14.4008,23.3475 14.3895,23.3580 14.3768,23.3693 C14.3505,23.3940 14.3258,23.4188 14.2995,23.4435 C14.2815,23.4608 14.2627,23.4795 14.2433,23.4968 C14.2253,23.5148 14.2073,23.5320 14.1885,23.5500 C14.1503,23.5860 14.1128,23.6228 14.0767,23.6580 C14.0385,23.6940 14.0018,23.7308 13.9650,23.7668 C13.9283,23.8028 13.8900,23.8388 13.8532,23.8755 C13.8165,23.9108 13.7790,23.9475 13.7430,23.9843 C13.7055,24.0195 13.6688,24.0563 13.6313,24.0915 C13.5960,24.1268 13.5608,24.1628 13.5240,24.1980 C13.5225,24.1988 13.5218,24.2003 13.5203,24.2018 C13.5030,24.2190 13.4843,24.2385 13.4655,24.2558 C13.4378,24.2835 13.4093,24.3113 13.3808,24.3390 C13.3545,24.3653 13.3275,24.3930 13.3005,24.4193 C13.2638,24.4560 13.2263,24.4920 13.1895,24.5280 C13.1528,24.5648 13.1160,24.6015 13.0792,24.6375 C13.0425,24.6743 13.0058,24.7118 12.9698,24.7470 C12.9323,24.7838 12.8955,24.8205 12.8595,24.8573 C12.8235,24.8940 12.7860,24.9315 12.7500,24.9675 C12.7170,24.9998 12.6848,25.0328 12.6518,25.0658 C12.6458,25.0710 12.6420,25.0763 12.6360,25.0815 C12.6015,25.1168 12.5625,25.1483 12.5258,25.1820 C12.4943,25.2098 12.4613,25.2390 12.4290,25.2675 C12.4155,25.2788 12.4020,25.2892 12.3870,25.3005 C12.3548,25.3253 12.3210,25.3500 12.2865,25.3755 C12.2528,25.4003 12.2183,25.4243 12.1838,25.4490 C12.1343,25.4820 12.0817,25.5143 12.0315,25.5443 C12.0263,25.5480 12.0203,25.5510 12.0158,25.5533 C11.9318,25.6028 11.8455,25.6500 11.7593,25.6913 C11.7105,25.7145 11.6633,25.7363 11.6160,25.7558 C11.5523,25.7835 11.4878,25.8083 11.4233,25.8315 C11.3887,25.8443 11.3543,25.8563 11.3213,25.8675 C11.2688,25.8848 11.2170,25.8998 11.1667,25.9133 C11.1210,25.9260 11.0760,25.9380 11.0310,25.9485 C10.9658,25.9620 10.9043,25.9733 10.8420,25.9823 C10.8398,25.9823 10.8390,25.9823 10.8382,25.9823 C10.7790,25.9913 10.7228,25.9980 10.6665,26.0010 C10.6253,26.0048 10.5870,26.0055 10.5480,26.0055 C10.5293,26.0055 10.5083,26.0078 10.4903,26.0070 C10.4888,26.0070 10.4865,26.0070 10.4850,26.0070 C10.4325,26.0055 10.3658,25.9920 10.2923,25.9748 C10.2293,25.9598 10.1603,25.9395 10.0838,25.9148 C10.0808,25.9140 10.0778,25.9133 10.0755,25.9125 C10.0057,25.8900 9.9308,25.8623 9.8520,25.8315 C9.8490,25.8300 9.8445,25.8293 9.8407,25.8270 C9.7770,25.8023 9.7095,25.7745 9.6390,25.7453 C9.5873,25.7235 9.5325,25.6995 9.4770,25.6763 C9.4605,25.6680 9.4432,25.6613 9.4275,25.6545 C9.3638,25.6253 9.2963,25.5945 9.2288,25.5623 C9.1718,25.5375 9.1133,25.5083 9.0547,25.4805 C9.0285,25.4685 9.0053,25.4573 8.9783,25.4453 C8.9175,25.4145 8.8530,25.3838 8.7893,25.3515 C8.7653,25.3395 8.7420,25.3283 8.7180,25.3163 C8.6513,25.2840 8.5823,25.2488 8.5148,25.2143 C8.4922,25.2015 8.4683,25.1918 8.4457,25.1798 C8.3760,25.1430 8.3033,25.1055 8.2305,25.0688 C8.2103,25.0575 8.1900,25.0470 8.1683,25.0358 C8.0925,24.9960 8.0183,24.9563 7.9410,24.9165 C7.9215,24.9060 7.9035,24.8970 7.8870,24.8873 C7.8068,24.8445 7.7273,24.8025 7.6470,24.7583 C7.6313,24.7493 7.6147,24.7418 7.5990,24.7335 C7.5173,24.6878 7.4325,24.6428 7.3493,24.5963 C7.3373,24.5895 7.3253,24.5820 7.3140,24.5775 C7.2262,24.5288 7.1385,24.4808 7.0500,24.4328 C7.0425,24.4275 7.0343,24.4230 7.0267,24.4185 C6.9352,24.3683 6.8453,24.3173 6.7553,24.2670 C6.7500,24.2648 6.7470,24.2618 6.7418,24.2603 C6.0668,23.8808 5.4128,23.4998 4.8803,23.1848 C4.8788,23.1833 4.8773,23.1818 4.8743,23.1810 C4.8165,23.1465 4.7610,23.1135 4.7063,23.0820 C4.6988,23.0775 4.6928,23.0730 4.6860,23.0693 C4.6403,23.0423 4.5953,23.0160 4.5518,22.9898 C4.5293,22.9763 4.5090,22.9635 4.4873,22.9515 C4.4603,22.9358 4.4325,22.9185 4.4063,22.9020 C4.3710,22.8818 4.3380,22.8608 4.3035,22.8413 C4.2840,22.8300 4.2653,22.8188 4.2473,22.8075 C4.1438,22.7453 4.0523,22.6913 3.9743,22.6425 C3.9713,22.6410 3.9698,22.6403 3.9660,22.6380 C3.9308,22.6163 3.8978,22.5968 3.8678,22.5780 C3.8573,22.5728 3.8505,22.5675 3.8415,22.5623 C3.8183,22.5480 3.7958,22.5353 3.7778,22.5233 C3.7710,22.5203 3.7650,22.5150 3.7590,22.5113 C3.7395,22.4993 3.7215,22.4895 3.7080,22.4798 C3.7043,22.4775 3.7005,22.4760 3.6983,22.4745 C3.6825,22.4648 3.6720,22.4588 3.6653,22.4543 C3.6630,22.4528 3.6593,22.4513 3.6578,22.4513 C3.6510,22.4453 3.6465,22.4423 3.6465,22.4423 C3.2565,22.1318 2.8148,21.6720 2.8148,21.2633 C2.8148,21.2160 2.8193,21.1688 2.8238,21.1215 C2.6483,21.6210 2.5395,23.0445 2.5808,24.2573 C2.6033,24.9563 2.6768,25.5855 2.8155,25.9268 C2.9693,26.3055 3.2580,26.7960 3.6473,27.1073 C3.6473,27.1073 7.9275,29.7323 9.8033,30.4748 C10.0988,30.5918 10.3358,30.6638 10.4843,30.6698 C11.0625,30.6945 11.9775,30.3330 12.6345,29.7458 C14.0355,28.4978 16.6995,26.4458 19.8255,24.1358 C19.7475,23.9010 19.7138,23.6303 19.7198,23.3378 C19.7333,22.7153 19.9343,21.9900 20.3295,21.2903 C20.7563,20.5313 21.4193,19.8990 22.1168,19.3628 C25.1347,17.0047 27.8422,15.2423 30.4493,13.5720 C31.1213,13.0478 31.8398,12.8632 32.3692,13.1618 C32.6228,13.3035 32.7998,13.5428 32.9092,13.8443 C33.0000,14.0932 33.0435,14.3857 33.0338,14.7052 C36.3488,12.4072 38.8590,10.7257 39.3780,10.4655 C39.7973,10.2555 39.8647,9.7928 39.9442,9.4103 C40.0177,9.0675 40.0778,8.4885 40.1138,7.8368 C40.1685,6.7148 40.1565,5.3985 40.0080,4.6725 Z" style="fill-rule: evenodd; fill: url(#grad4011); "/>
    <defs xmlns="http://www.w3.org/2000/svg">
      <radialGradient id="grad4012" cx="50.0000%" cy="50.0000%" r="100.0000%">
        <stop offset="0%" stop-color="#dae1e1" stop-opacity="1.0000"/>
        <stop offset="100%" stop-color="#707070" stop-opacity="1.0000"/>
      </radialGradient>
    </defs>
    <path xmlns="http://www.w3.org/2000/svg" d="  M27.9907,14.9220 C28.5802,16.3395 27.6997,18.0548 26.0213,18.7523 C24.3450,19.4498 22.5060,18.8655 21.9165,17.4488 C21.3270,16.0305 22.2098,14.3168 23.8860,13.6185 C25.5623,12.9210 27.4012,13.5045 27.9907,14.9220 Z" style="fill-rule: evenodd; fill: url(#grad4012); "/>
    <defs xmlns="http://www.w3.org/2000/svg">
      <radialGradient id="grad4013" cx="50.0000%" cy="50.0000%" r="100.0000%">
        <stop offset="0%" stop-color="#7f8787" stop-opacity="1.0000"/>
        <stop offset="100%" stop-color="#dae1e1" stop-opacity="1.0000"/>
      </radialGradient>
    </defs>
    <path xmlns="http://www.w3.org/2000/svg" d="  M39.9405,4.7235 C39.9397,4.6747 39.9360,4.6245 39.9277,4.5772 C39.9262,4.5570 39.9195,4.5352 39.9157,4.5157 C39.9105,4.4887 39.9052,4.4625 39.8985,4.4362 C39.8857,4.3950 39.8715,4.3545 39.8550,4.3147 C39.8527,4.3095 39.8512,4.3042 39.8497,4.2990 C39.8302,4.2532 39.8077,4.2082 39.7837,4.1632 C39.7785,4.1557 39.7762,4.1482 39.7717,4.1415 C39.7387,4.0830 39.6975,4.0260 39.6547,3.9697 C39.6495,3.9622 39.6427,3.9540 39.6367,3.9480 C39.5962,3.8970 39.5527,3.8475 39.5040,3.7995 C39.5010,3.7957 39.4980,3.7920 39.4950,3.7882 C39.4942,3.7882 39.4935,3.7867 39.4935,3.7867 C39.2197,3.4815 38.9422,3.2700 38.9422,3.2700 L34.1167,0.6435 C32.0272,0.0000 30.2587,0.5895 30.2587,0.5895 C14.5005,7.3957 4.2645,18.8662 3.4620,19.9912 C3.3802,20.1022 3.3112,20.2035 3.2482,20.2950 C3.0390,20.6032 2.9197,20.7997 2.8635,20.9002 C2.8552,20.9212 2.8500,20.9430 2.8447,20.9640 C2.8387,20.9872 2.8342,21.0120 2.8312,21.0375 C2.8260,21.0607 2.8207,21.0847 2.8185,21.1095 C2.8140,21.1567 2.8095,21.2047 2.8095,21.2512 C2.8095,21.6600 3.2520,22.1197 3.6412,22.4302 C3.6412,22.4302 3.6465,22.4347 3.6525,22.4392 C3.6540,22.4392 3.6577,22.4407 3.6600,22.4422 C3.6667,22.4467 3.6772,22.4535 3.6930,22.4625 C3.6952,22.4640 3.6990,22.4655 3.7027,22.4677 C3.7170,22.4767 3.7350,22.4872 3.7537,22.4992 C3.7605,22.5030 3.7665,22.5082 3.7725,22.5112 C3.7905,22.5225 3.8137,22.5360 3.8362,22.5502 C3.8452,22.5555 3.8520,22.5607 3.8625,22.5660 C3.8925,22.5847 3.9255,22.6042 3.9607,22.6260 C3.9645,22.6282 3.9660,22.6290 3.9690,22.6305 C4.0470,22.6785 4.1392,22.7340 4.2420,22.7955 C4.2600,22.8067 4.2787,22.8180 4.2982,22.8292 C4.3327,22.8487 4.3657,22.8705 4.4010,22.8900 C4.4272,22.9065 4.4550,22.9237 4.4820,22.9395 C4.5030,22.9515 4.5240,22.9642 4.5465,22.9777 C4.5900,23.0040 4.6350,23.0302 4.6807,23.0572 C4.6875,23.0610 4.6942,23.0655 4.7010,23.0700 C4.7550,23.1015 4.8105,23.1345 4.8690,23.1690 C4.8720,23.1697 4.8735,23.1712 4.8750,23.1727 C6.0967,23.8950 7.9635,24.9675 9.2452,25.5622 C9.3060,25.5892 9.3645,25.6162 9.4215,25.6425 C9.4267,25.6440 9.4312,25.6470 9.4357,25.6485 C9.4485,25.6537 9.4590,25.6590 9.4717,25.6642 C9.5212,25.6860 9.5715,25.7070 9.6195,25.7280 C9.6952,25.7595 9.7672,25.7887 9.8347,25.8150 C9.8370,25.8165 9.8407,25.8180 9.8430,25.8180 C9.8430,25.8180 9.8445,25.8195 9.8460,25.8195 C9.9240,25.8502 9.9997,25.8780 10.0695,25.9005 L10.0717,25.9012 C10.0732,25.9020 10.0755,25.9027 10.0777,25.9027 C10.1550,25.9275 10.2232,25.9485 10.2862,25.9627 C10.3597,25.9800 10.4265,25.9935 10.4790,25.9950 C10.4805,25.9950 10.4827,25.9950 10.4842,25.9950 C10.5022,25.9957 10.5232,25.9935 10.5420,25.9935 C10.5817,25.9927 10.6200,25.9927 10.6605,25.9890 C10.7167,25.9860 10.7730,25.9785 10.8322,25.9702 C10.8322,25.9702 10.8322,25.9702 10.8330,25.9702 C10.8337,25.9702 10.8345,25.9702 10.8360,25.9702 C10.8900,25.9620 10.9440,25.9545 11.0002,25.9425 C11.0085,25.9410 11.0167,25.9380 11.0250,25.9365 C11.0700,25.9260 11.1142,25.9147 11.1592,25.9020 C11.1600,25.9020 11.1600,25.9020 11.1607,25.9012 C11.2110,25.8877 11.2627,25.8735 11.3152,25.8555 C11.3490,25.8442 11.3827,25.8322 11.4172,25.8195 C11.4337,25.8142 11.4502,25.8090 11.4645,25.8030 C11.5147,25.7857 11.5620,25.7655 11.6100,25.7445 C11.6100,25.7445 11.6107,25.7445 11.6115,25.7445 C11.6580,25.7242 11.7052,25.7032 11.7532,25.6800 C11.7997,25.6575 11.8447,25.6342 11.8905,25.6095 C11.9317,25.5892 11.9707,25.5652 12.0097,25.5420 C12.0142,25.5397 12.0202,25.5367 12.0255,25.5330 C12.0690,25.5067 12.1132,25.4820 12.1560,25.4527 C12.1980,25.4250 12.2400,25.3957 12.2805,25.3650 C12.3225,25.3342 12.3645,25.3057 12.4042,25.2742 C12.4440,25.2420 12.4815,25.2052 12.5190,25.1715 C12.5565,25.1377 12.5955,25.1062 12.6292,25.0710 C12.6315,25.0702 12.6330,25.0680 12.6345,25.0672 C12.6382,25.0627 12.6420,25.0590 12.6457,25.0552 C12.6787,25.0222 12.7110,24.9892 12.7440,24.9570 C12.7807,24.9202 12.8182,24.8827 12.8535,24.8467 C12.8902,24.8092 12.9270,24.7725 12.9637,24.7365 C13.0005,24.7005 13.0372,24.6630 13.0732,24.6270 C13.1107,24.5902 13.1475,24.5535 13.1835,24.5175 C13.2210,24.4815 13.2585,24.4455 13.2945,24.4087 C13.3215,24.3825 13.3485,24.3547 13.3747,24.3285 C13.3852,24.3187 13.3942,24.3097 13.4047,24.2992 C13.4220,24.2820 13.4400,24.2632 13.4595,24.2452 C13.4782,24.2265 13.4985,24.2062 13.5180,24.1875 C13.5547,24.1522 13.5900,24.1162 13.6252,24.0810 C13.6635,24.0457 13.7002,24.0090 13.7370,23.9737 C13.7737,23.9370 13.8112,23.9002 13.8472,23.8650 C13.8847,23.8282 13.9222,23.7922 13.9590,23.7562 C13.9957,23.7202 14.0332,23.6835 14.0707,23.6475 C14.1075,23.6122 14.1450,23.5755 14.1825,23.5395 C14.2012,23.5215 14.2192,23.5042 14.2372,23.4862 C14.2815,23.4435 14.3272,23.4015 14.3707,23.3587 C14.3835,23.3475 14.3947,23.3370 14.4052,23.3250 C14.4442,23.2897 14.4810,23.2537 14.5185,23.2177 C14.5552,23.1825 14.5935,23.1465 14.6295,23.1105 C14.6677,23.0753 14.7060,23.0400 14.7420,23.0040 C14.7795,22.9695 14.8170,22.9335 14.8552,22.8983 C14.8920,22.8622 14.9310,22.8270 14.9670,22.7917 C15.0060,22.7565 15.0427,22.7205 15.0802,22.6852 C15.0877,22.6785 15.0937,22.6717 15.1012,22.6657 C15.1275,22.6425 15.1515,22.6177 15.1785,22.5937 C15.1837,22.5885 15.1897,22.5847 15.1927,22.5787 C15.2317,22.5435 15.2700,22.5082 15.3075,22.4737 C15.3457,22.4377 15.3825,22.4032 15.4215,22.3688 C15.4582,22.3335 15.4972,22.2983 15.5332,22.2630 C15.5722,22.2278 15.6097,22.1925 15.6465,22.1573 C15.6855,22.1227 15.7237,22.0882 15.7605,22.0530 C15.7987,22.0177 15.8377,21.9840 15.8737,21.9487 C15.8835,21.9405 15.8917,21.9330 15.9000,21.9255 C15.9292,21.8978 15.9592,21.8715 15.9885,21.8445 C16.0050,21.8287 16.0222,21.8145 16.0387,21.7987 C16.0590,21.7792 16.0815,21.7597 16.1025,21.7395 C16.1407,21.7057 16.1782,21.6712 16.2172,21.6367 C16.2547,21.6015 16.2945,21.5678 16.3320,21.5325 C16.3695,21.4987 16.4085,21.4635 16.4452,21.4297 C16.4842,21.3952 16.5225,21.3600 16.5600,21.3255 C16.5997,21.2918 16.6365,21.2565 16.6747,21.2227 C16.7070,21.1950 16.7362,21.1680 16.7685,21.1395 C16.7760,21.1335 16.7842,21.1260 16.7902,21.1208 C16.8300,21.0862 16.8667,21.0517 16.9065,21.0180 C16.9117,21.0120 16.9185,21.0060 16.9245,21.0007 C16.9567,20.9730 16.9890,20.9438 17.0212,20.9160 C17.0595,20.8822 17.0977,20.8470 17.1367,20.8132 C17.1742,20.7795 17.2147,20.7457 17.2515,20.7120 C17.2905,20.6775 17.3295,20.6430 17.3677,20.6092 C17.4052,20.5755 17.4457,20.5417 17.4825,20.5088 C17.5215,20.4742 17.5605,20.4405 17.5987,20.4067 C17.6130,20.3947 17.6265,20.3835 17.6407,20.3707 C17.6625,20.3512 17.6880,20.3295 17.7097,20.3100 C17.7120,20.3085 17.7127,20.3070 17.7157,20.3040 C17.7547,20.2717 17.7937,20.2380 17.8312,20.2042 C17.8717,20.1705 17.9100,20.1367 17.9490,20.1030 C17.9872,20.0692 18.0270,20.0355 18.0652,20.0025 C18.1042,19.9680 18.1425,19.9342 18.1822,19.9020 C18.2212,19.8667 18.2602,19.8345 18.2992,19.8022 C18.3375,19.7677 18.3772,19.7347 18.4155,19.7017 C18.4245,19.6942 18.4320,19.6875 18.4402,19.6807 C18.4890,19.6387 18.5377,19.5975 18.5880,19.5555 C18.6082,19.5375 18.6292,19.5195 18.6495,19.5022 C18.6885,19.4685 18.7282,19.4363 18.7665,19.4032 C18.8077,19.3695 18.8452,19.3365 18.8842,19.3042 C18.9247,19.2705 18.9630,19.2367 19.0035,19.2045 C19.0425,19.1707 19.0815,19.1377 19.1205,19.1047 C19.1610,19.0718 19.1985,19.0387 19.2390,19.0065 C19.2660,18.9833 19.2937,18.9608 19.3207,18.9382 C19.3717,18.8940 19.4235,18.8527 19.4767,18.8085 C19.5165,18.7755 19.5547,18.7425 19.5952,18.7102 C19.6350,18.6773 19.6740,18.6442 19.7137,18.6105 C19.7542,18.5783 19.7925,18.5460 19.8330,18.5137 C19.8720,18.4807 19.9117,18.4485 19.9530,18.4155 C19.9920,18.3833 20.0317,18.3502 20.0707,18.3180 C20.1112,18.2857 20.1517,18.2527 20.1907,18.2205 C20.1945,18.2160 20.2005,18.2123 20.2050,18.2085 C20.2327,18.1860 20.2605,18.1627 20.2890,18.1410 C20.2957,18.1335 20.3040,18.1275 20.3100,18.1222 C20.3520,18.0893 20.3917,18.0562 20.4330,18.0240 C20.4735,17.9917 20.5132,17.9588 20.5530,17.9258 C20.5920,17.8943 20.6332,17.8613 20.6737,17.8290 C20.7135,17.7960 20.7532,17.7645 20.7937,17.7322 C20.8335,17.7000 20.8747,17.6677 20.9145,17.6355 C20.9407,17.6138 20.9685,17.5920 20.9962,17.5703 C21.0097,17.5590 21.0210,17.5492 21.0352,17.5387 C21.0682,17.5125 21.1027,17.4848 21.1372,17.4585 C21.1425,17.4525 21.1492,17.4480 21.1552,17.4428 C21.1972,17.4105 21.2362,17.3797 21.2767,17.3475 C21.3172,17.3152 21.3570,17.2830 21.3982,17.2515 C21.4395,17.2200 21.4785,17.1878 21.5197,17.1555 C21.5610,17.1233 21.6000,17.0910 21.6405,17.0603 C21.6817,17.0280 21.7215,16.9957 21.7627,16.9635 C21.7950,16.9387 21.8257,16.9155 21.8572,16.8900 C21.8677,16.8818 21.8767,16.8742 21.8880,16.8660 C21.9285,16.8353 21.9667,16.8037 22.0065,16.7737 C22.0087,16.7715 22.0110,16.7700 22.0117,16.7685 C22.0552,16.7363 22.0950,16.7040 22.1362,16.6717 C22.1782,16.6403 22.2202,16.6072 22.2607,16.5750 C22.3042,16.5427 22.3455,16.5113 22.3860,16.4782 C22.4287,16.4460 22.4715,16.4137 22.5127,16.3815 C22.5562,16.3477 22.5990,16.3140 22.6432,16.2810 C22.6695,16.2615 22.6965,16.2405 22.7227,16.2195 C22.7520,16.1970 22.7827,16.1745 22.8105,16.1513 C22.8435,16.1280 22.8735,16.1040 22.9050,16.0808 C22.9507,16.0455 22.9950,16.0117 23.0415,15.9765 C23.0887,15.9405 23.1360,15.9045 23.1832,15.8677 C23.2335,15.8295 23.2852,15.7912 23.3355,15.7537 C23.3932,15.7095 23.4525,15.6660 23.5102,15.6218 C23.5102,15.6218 23.5117,15.6210 23.5125,15.6202 C23.5710,15.5760 23.6295,15.5325 23.6880,15.4882 C23.7195,15.4635 23.7540,15.4387 23.7862,15.4132 C23.8537,15.3638 23.9220,15.3135 23.9895,15.2640 C24.0817,15.1950 24.1755,15.1245 24.2677,15.0570 C24.2970,15.0367 24.3247,15.0150 24.3525,14.9947 C24.3825,14.9730 24.4132,14.9505 24.4417,14.9287 C24.4665,14.9100 24.4927,14.8920 24.5175,14.8732 C24.5445,14.8545 24.5707,14.8342 24.5962,14.8162 C24.6442,14.7795 24.6937,14.7442 24.7417,14.7090 C24.7882,14.6745 24.8347,14.6415 24.8812,14.6077 C24.9262,14.5747 24.9697,14.5425 25.0147,14.5102 C25.0605,14.4787 25.1032,14.4465 25.1475,14.4135 C25.1670,14.3992 25.1865,14.3865 25.2037,14.3730 C25.2382,14.3482 25.2727,14.3235 25.3065,14.2987 C25.3395,14.2747 25.3732,14.2507 25.4070,14.2267 C25.4505,14.1952 25.4925,14.1645 25.5360,14.1337 C25.5787,14.1030 25.6215,14.0722 25.6650,14.0415 C25.7085,14.0107 25.7505,13.9800 25.7932,13.9500 C25.8360,13.9200 25.8765,13.8907 25.9192,13.8615 C25.9395,13.8465 25.9627,13.8307 25.9837,13.8157 C26.0197,13.7895 26.0587,13.7617 26.0955,13.7355 C26.1202,13.7182 26.1457,13.6995 26.1705,13.6822 C26.2132,13.6522 26.2552,13.6230 26.2972,13.5937 C26.3400,13.5645 26.3812,13.5352 26.4232,13.5060 C26.4660,13.4760 26.5072,13.4460 26.5492,13.4167 C26.5912,13.3875 26.6332,13.3582 26.6752,13.3290 C26.7127,13.3027 26.7495,13.2772 26.7855,13.2510 C26.7915,13.2472 26.7967,13.2435 26.8012,13.2397 C26.8440,13.2112 26.8852,13.1820 26.9257,13.1535 C26.9265,13.1527 26.9272,13.1527 26.9280,13.1527 C26.9700,13.1235 27.0120,13.0942 27.0547,13.0642 C27.0960,13.0357 27.1387,13.0065 27.1815,12.9772 C27.2227,12.9487 27.2640,12.9202 27.3067,12.8910 C27.3480,12.8632 27.3907,12.8340 27.4312,12.8047 C27.4732,12.7770 27.5160,12.7477 27.5587,12.7185 C27.5767,12.7057 27.5955,12.6930 27.6142,12.6802 C27.6360,12.6652 27.6570,12.6517 27.6787,12.6360 C27.6810,12.6345 27.6825,12.6337 27.6840,12.6330 C27.7252,12.6037 27.7672,12.5760 27.8092,12.5467 C27.8520,12.5190 27.8925,12.4905 27.9352,12.4620 C27.9772,12.4342 28.0185,12.4050 28.0612,12.3772 C28.1040,12.3480 28.1437,12.3202 28.1865,12.2925 C28.2285,12.2640 28.2690,12.2355 28.3125,12.2077 C28.3260,12.1987 28.3380,12.1905 28.3515,12.1815 C28.3890,12.1567 28.4265,12.1320 28.4610,12.1072 C28.4955,12.0847 28.5307,12.0607 28.5637,12.0382 C28.6065,12.0097 28.6485,11.9820 28.6905,11.9542 C28.7332,11.9265 28.7745,11.8987 28.8165,11.8710 C28.8592,11.8432 28.9012,11.8140 28.9425,11.7877 C28.9845,11.7585 29.0265,11.7322 29.0685,11.7045 C29.0865,11.6917 29.1037,11.6805 29.1202,11.6692 C29.1450,11.6535 29.1705,11.6370 29.1945,11.6212 C29.2095,11.6122 29.2245,11.6017 29.2380,11.5927 C29.2665,11.5747 29.2942,11.5560 29.3227,11.5380 C29.3640,11.5102 29.4067,11.4825 29.4487,11.4547 C29.4907,11.4270 29.5320,11.4000 29.5747,11.3730 C29.6167,11.3452 29.6587,11.3175 29.7015,11.2905 C29.7435,11.2627 29.7862,11.2350 29.8275,11.2080 C29.8567,11.1892 29.8867,11.1697 29.9145,11.1510 C29.9227,11.1465 29.9295,11.1420 29.9362,11.1375 C29.9415,11.1330 29.9490,11.1285 29.9542,11.1255 C29.9977,11.0977 30.0382,11.0707 30.0810,11.0437 C30.1237,11.0160 30.1642,10.9890 30.2077,10.9620 C30.2505,10.9357 30.2917,10.9080 30.3352,10.8802 C30.3772,10.8540 30.4192,10.8262 30.4620,10.8000 C30.5055,10.7722 30.5460,10.7460 30.5880,10.7190 C30.5970,10.7137 30.6045,10.7077 30.6135,10.7032 C30.6337,10.6905 30.6532,10.6777 30.6735,10.6657 C30.6885,10.6560 30.7020,10.6470 30.7155,10.6380 C30.7590,10.6110 30.8002,10.5847 30.8437,10.5577 C30.8857,10.5315 30.9277,10.5045 30.9705,10.4775 C31.0132,10.4512 31.0560,10.4242 31.0972,10.3972 C31.1392,10.3710 31.1827,10.3447 31.2247,10.3177 C31.2637,10.2937 31.3035,10.2690 31.3425,10.2435 C31.3455,10.2420 31.3492,10.2397 31.3522,10.2375 C31.3695,10.2270 31.3867,10.2172 31.4025,10.2067 C31.4280,10.1902 31.4527,10.1745 31.4797,10.1587 C31.5225,10.1317 31.5652,10.1047 31.6072,10.0792 C31.6500,10.0522 31.6927,10.0267 31.7355,9.9997 C31.7767,9.9735 31.8195,9.9480 31.8630,9.9217 C31.9057,9.8955 31.9470,9.8685 31.9905,9.8422 C32.0137,9.8280 32.0385,9.8130 32.0617,9.7987 C32.0662,9.7965 32.0707,9.7935 32.0745,9.7905 C32.0895,9.7815 32.1037,9.7732 32.1195,9.7642 C32.1622,9.7380 32.2035,9.7125 32.2462,9.6855 C32.2905,9.6600 32.3332,9.6330 32.3745,9.6075 C32.4187,9.5812 32.4592,9.5550 32.5027,9.5287 C32.5470,9.5032 32.5882,9.4777 32.6317,9.4507 C32.6692,9.4290 32.7067,9.4057 32.7420,9.3832 C32.7420,9.3832 32.7442,9.3825 32.7450,9.3817 C32.7495,9.3787 32.7547,9.3757 32.7585,9.3727 C32.8027,9.3480 32.8455,9.3217 32.8882,9.2947 C32.9317,9.2700 32.9730,9.2445 33.0172,9.2182 C33.0585,9.1920 33.1020,9.1657 33.1455,9.1402 C33.1875,9.1155 33.2302,9.0892 33.2737,9.0637 C33.3090,9.0412 33.3472,9.0195 33.3825,8.9985 C33.3907,8.9947 33.3967,8.9902 33.4027,8.9865 C33.4087,8.9827 33.4132,8.9797 33.4185,8.9767 C33.4575,8.9535 33.4935,8.9310 33.5317,8.9092 C33.5752,8.8845 33.6165,8.8590 33.6592,8.8327 C33.7035,8.8072 33.7462,8.7825 33.7897,8.7562 C33.8325,8.7315 33.8745,8.7060 33.9172,8.6797 C33.9615,8.6550 34.0042,8.6302 34.0462,8.6047 C34.0897,8.5792 34.1325,8.5545 34.1767,8.5290 C34.2195,8.5035 34.2630,8.4787 34.3050,8.4532 C34.3485,8.4285 34.3920,8.4045 34.4347,8.3782 C34.4790,8.3535 34.5202,8.3287 34.5645,8.3040 C34.6072,8.2785 34.6507,8.2537 34.6935,8.2297 C34.7377,8.2050 34.7790,8.1802 34.8232,8.1547 C34.8667,8.1300 34.9102,8.1060 34.9522,8.0812 C34.9965,8.0565 35.0392,8.0317 35.0820,8.0070 C35.1270,7.9822 35.1682,7.9582 35.2125,7.9327 C35.2560,7.9095 35.2987,7.8847 35.3415,7.8607 C35.3857,7.8360 35.4285,7.8112 35.4712,7.7872 C35.5155,7.7625 35.5590,7.7392 35.6025,7.7152 C35.6445,7.6905 35.6880,7.6657 35.7315,7.6417 C35.7757,7.6170 35.8185,7.5937 35.8627,7.5697 C35.9047,7.5450 35.9490,7.5217 35.9917,7.4977 C36.0360,7.4730 36.0787,7.4497 36.1222,7.4257 C36.1665,7.4017 36.2092,7.3777 36.2520,7.3537 C36.2970,7.3305 36.3405,7.3065 36.3840,7.2832 C36.4267,7.2592 36.4702,7.2360 36.5130,7.2127 C36.5580,7.1895 36.6015,7.1655 36.6450,7.1407 C36.6877,7.1182 36.7312,7.0950 36.7755,7.0717 C36.8167,7.0500 36.8557,7.0282 36.8962,7.0072 C36.8977,7.0057 36.8992,7.0057 36.9007,7.0042 C36.9022,7.0042 36.9045,7.0027 36.9075,7.0012 C36.9502,6.9780 36.9937,6.9540 37.0365,6.9322 C37.0822,6.9090 37.1250,6.8850 37.1685,6.8625 C37.2120,6.8400 37.2562,6.8160 37.2990,6.7927 C37.3440,6.7710 37.3867,6.7477 37.4310,6.7252 C37.4745,6.7020 37.5187,6.6780 37.5622,6.6562 C37.6072,6.6345 37.6485,6.6120 37.6942,6.5902 C37.7385,6.5670 37.7827,6.5430 37.8247,6.5212 C37.8705,6.4987 37.9125,6.4770 37.9582,6.4545 C37.9582,6.4545 37.9605,6.4522 37.9620,6.4522 C37.9650,6.4522 37.9657,6.4507 37.9672,6.4500 C38.0085,6.4290 38.0490,6.4080 38.0895,6.3885 C38.1352,6.3652 38.1772,6.3435 38.2215,6.3225 C38.2350,6.3157 38.2477,6.3082 38.2620,6.3022 C38.2770,6.2940 38.2927,6.2865 38.3092,6.2790 C38.3242,6.2722 38.3392,6.2640 38.3550,6.2565 C38.3992,6.2347 38.4435,6.2130 38.4862,6.1920 C38.5080,6.1822 38.5260,6.1732 38.5455,6.1635 C38.5665,6.1537 38.5860,6.1440 38.6055,6.1342 C38.6107,6.1320 38.6152,6.1297 38.6197,6.1275 C38.6572,6.1102 38.6940,6.0915 38.7292,6.0742 C38.7645,6.0577 38.7982,6.0412 38.8327,6.0255 C38.9062,5.9910 38.9737,5.9587 39.0427,5.9257 C39.0652,5.9152 39.0915,5.9032 39.1155,5.8920 C39.2032,5.8507 39.2872,5.8132 39.3675,5.7765 C39.7950,5.5845 39.9337,5.1112 39.9337,4.7220 C39.9405,4.7302 39.9405,4.7265 39.9405,4.7235 Z" style="fill-rule: evenodd; fill: url(#grad4013); "/>
    <defs xmlns="http://www.w3.org/2000/svg" xmlns:xlink="http://www.w3.org/1999/xlink">
      <linearGradient id="grad4014">
        <stop offset="0%" stop-color="#ededed" stop-opacity="1.0000"/>
        <stop offset="100%" stop-color="#7f8787" stop-opacity="1.0000"/>
      </linearGradient>
      <linearGradient xlink:href="#grad4014" id="grad4015" x1="0" y1="0" x2="0" y2="1" gradientTransform="rotate(-0 .5 .5)" gradientUnits="objectBoundingBox">
  </linearGradient>
    </defs>
    <path xmlns="http://www.w3.org/2000/svg" d="  M62.8373,21.8197 C62.8058,21.6135 62.6783,21.4222 62.4795,21.2550 C62.3213,21.1222 40.2285,8.6287 40.2285,8.6287 L40.1993,8.6497 L40.0343,8.7675 L32.9190,13.8735 L19.7160,23.3475 L9.8003,30.4620 L9.0863,30.9743 L32.1638,44.1037 C36.2715,41.1930 62.5455,22.5637 62.6895,22.3642 C62.7885,22.2263 62.8455,22.0785 62.8463,21.9217 C62.8463,21.9217 62.8463,21.9202 62.8463,21.9187 C62.8463,21.8850 62.8433,21.8527 62.8373,21.8197 Z M34.1370,18.3735 C33.8565,18.1245 33.7103,17.8320 33.7103,17.5252 C33.7103,17.2350 33.8438,16.9552 34.0958,16.7167 C34.2443,16.5742 39.7200,12.6622 39.8955,12.5722 C40.3500,12.3382 40.9388,12.2100 41.5485,12.2100 C42.0405,12.2100 42.5175,12.2932 42.9263,12.4485 C43.0170,12.4845 57.1515,20.4262 57.4613,20.7000 C57.7395,20.9475 57.8888,21.2392 57.8888,21.5452 C57.8888,21.8182 57.7703,22.0830 57.5453,22.3117 C57.3870,22.4737 51.7268,26.4330 51.4905,26.5477 C51.0465,26.7623 50.4855,26.8807 49.9095,26.8807 C49.4348,26.8807 48.9743,26.8027 48.5775,26.6535 C48.2468,26.5312 34.3478,18.5595 34.1370,18.3735 Z M25.0935,22.1407 C25.2503,21.8625 25.5458,21.6885 25.8660,21.6885 C26.0153,21.6885 26.1653,21.7275 26.2973,21.8017 L28.7318,23.1637 C29.1570,23.4022 29.3100,23.9430 29.0708,24.3675 C28.9155,24.6472 28.6185,24.8197 28.2990,24.8197 C28.1490,24.8197 27.9998,24.7807 27.8678,24.7080 L25.4333,23.3445 C25.0080,23.1067 24.8550,22.5675 25.0935,22.1407 Z M35.0025,31.0440 C35.4285,31.2825 35.5808,31.8217 35.3415,32.2477 C35.1863,32.5260 34.8900,32.6992 34.5705,32.6992 C34.4198,32.6992 34.2705,32.6610 34.1393,32.5867 L31.7048,31.2247 C31.2788,30.9863 31.1265,30.4470 31.3643,30.0210 C31.5218,29.7420 31.8173,29.5680 32.1368,29.5680 C32.2868,29.5680 32.4368,29.6070 32.5680,29.6805 L35.0025,31.0440 Z M35.0633,27.6885 C35.2185,27.4102 35.5140,27.2362 35.8350,27.2362 C35.9850,27.2362 36.1343,27.2752 36.2648,27.3495 L38.7000,28.7115 C39.1260,28.9500 39.2783,29.4900 39.0398,29.9152 C38.8830,30.1943 38.5875,30.3675 38.2680,30.3675 C38.1173,30.3675 37.9688,30.3292 37.8368,30.2550 L35.4015,28.8922 C34.9763,28.6537 34.8248,28.1145 35.0633,27.6885 Z M34.0553,27.1830 C33.9000,27.4612 33.6038,27.6360 33.2843,27.6360 C33.1335,27.6360 32.9843,27.5963 32.8530,27.5235 L30.4185,26.1600 C29.9918,25.9222 29.8403,25.3822 30.0788,24.9570 C30.2355,24.6773 30.5303,24.5032 30.8505,24.5032 C31.0005,24.5032 31.1505,24.5430 31.2810,24.6157 L33.7170,25.9792 C34.1423,26.2177 34.2938,26.7577 34.0553,27.1830 Z M30.0180,28.3110 C30.4433,28.5487 30.5963,29.0887 30.3578,29.5140 C30.2018,29.7937 29.9048,29.9670 29.5853,29.9670 C29.4353,29.9670 29.2860,29.9280 29.1540,29.8537 L26.7195,28.4917 C26.2935,28.2532 26.1413,27.7125 26.3798,27.2880 C26.5373,27.0082 26.8328,26.8350 27.1523,26.8350 C27.3023,26.8350 27.4515,26.8740 27.5835,26.9475 L30.0180,28.3110 Z M21.3960,24.4732 C21.5520,24.1942 21.8475,24.0202 22.1670,24.0202 C22.3170,24.0202 22.4670,24.0600 22.5983,24.1335 L25.0328,25.4962 C25.4580,25.7332 25.6110,26.2747 25.3733,26.7000 C25.2157,26.9782 24.9203,27.1515 24.6008,27.1515 C24.4508,27.1515 24.3008,27.1132 24.1695,27.0390 L21.7350,25.6770 C21.3097,25.4385 21.1568,24.8985 21.3960,24.4732 Z M18.0570,32.0070 C17.9010,32.2860 17.6048,32.4600 17.2845,32.4600 C17.1345,32.4600 16.9853,32.4202 16.8540,32.3475 L14.4195,30.9840 C13.9935,30.7470 13.8413,30.2062 14.0805,29.7802 C14.2358,29.5020 14.5320,29.3280 14.8515,29.3280 C15.0023,29.3280 15.1515,29.3670 15.2820,29.4405 L17.7165,30.8032 C18.1433,31.0410 18.2955,31.5810 18.0570,32.0070 Z M18.0188,27.1268 C18.1748,26.8470 18.4710,26.6738 18.7913,26.6738 C18.9420,26.6738 19.0898,26.7135 19.2218,26.7862 L21.6562,28.1497 C22.0823,28.3882 22.2345,28.9275 21.9960,29.3535 C21.8393,29.6317 21.5438,29.8057 21.2243,29.8057 C21.0735,29.8057 20.9243,29.7667 20.7930,29.6932 L18.3585,28.3305 C17.9325,28.0912 17.7803,27.5512 18.0188,27.1268 Z M23.0423,34.8210 C22.8863,35.0992 22.5893,35.2740 22.2698,35.2740 C22.1198,35.2740 21.9705,35.2342 21.8385,35.1600 L19.4040,33.7972 C18.9788,33.5595 18.8258,33.0202 19.0643,32.5942 C19.2210,32.3152 19.5173,32.1412 19.8368,32.1412 C19.9860,32.1412 20.1360,32.1810 20.2680,32.2545 L22.7018,33.6172 C23.1278,33.8558 23.2808,34.3942 23.0423,34.8210 Z M23.0025,29.9400 C23.1600,29.6602 23.4555,29.4870 23.7750,29.4870 C23.9250,29.4870 24.0750,29.5267 24.2070,29.5995 L26.6408,30.9630 C27.0668,31.2007 27.2190,31.7415 26.9813,32.1667 C26.8253,32.4450 26.5283,32.6190 26.2088,32.6190 C26.0588,32.6190 25.9095,32.5800 25.7775,32.5065 L23.3430,31.1438 C22.9178,30.9052 22.7648,30.3645 23.0025,29.9400 Z M28.0260,37.5532 C27.8700,37.8330 27.5738,38.0055 27.2543,38.0055 C27.1035,38.0055 26.9550,37.9672 26.8230,37.8945 L24.3885,36.5310 C23.9633,36.2925 23.8103,35.7532 24.0480,35.3272 C24.2055,35.0482 24.5010,34.8742 24.8205,34.8742 C24.9705,34.8742 25.1205,34.9140 25.2518,34.9875 L27.6863,36.3503 C28.1115,36.5872 28.2645,37.1287 28.0260,37.5532 Z M27.9870,32.6730 C28.1445,32.3940 28.4400,32.2200 28.7595,32.2200 C28.9095,32.2200 29.0580,32.2597 29.1900,32.3325 L31.6253,33.6960 C32.0498,33.9337 32.2035,34.4737 31.9650,34.8997 C31.8090,35.1780 31.5120,35.3520 31.1933,35.3520 C31.0425,35.3520 30.8940,35.3130 30.7613,35.2402 L28.3275,33.8760 C27.9015,33.6383 27.7493,33.0983 27.9870,32.6730 Z M33.0113,40.6087 C32.8553,40.8877 32.5598,41.0617 32.2395,41.0617 C32.0888,41.0617 31.9395,41.0227 31.8090,40.9485 L29.3730,39.5857 C28.9470,39.3480 28.7948,38.8072 29.0340,38.3827 C29.1915,38.1030 29.4863,37.9297 29.8050,37.9297 C29.9558,37.9297 30.1050,37.9687 30.2370,38.0423 L32.6723,39.4058 C33.0968,39.6427 33.2490,40.1835 33.0113,40.6087 Z M36.6285,37.7947 C36.4733,38.0737 36.1763,38.2470 35.8560,38.2470 C35.7060,38.2470 35.5575,38.2080 35.4255,38.1345 L34.3785,37.4887 C33.9533,37.2503 33.8003,36.7103 34.0388,36.2850 C34.1955,36.0060 34.4918,35.8320 34.8113,35.8320 C34.9613,35.8320 35.1113,35.8717 35.2418,35.9445 L36.2888,36.5917 C36.7140,36.8295 36.8663,37.3695 36.6285,37.7947 Z M40.0050,35.1412 C39.8498,35.4210 39.5528,35.5942 39.2340,35.5942 C39.0825,35.5942 38.9333,35.5545 38.8028,35.4810 L37.7558,34.8352 C37.3313,34.5967 37.1775,34.0560 37.4160,33.6315 C37.5720,33.3517 37.8690,33.1785 38.1893,33.1785 C38.3378,33.1785 38.4878,33.2182 38.6198,33.2910 L39.6660,33.9375 C40.0913,34.1760 40.2428,34.7167 40.0050,35.1412 Z M43.7025,32.8110 C43.5473,33.0892 43.2510,33.2640 42.9308,33.2640 C42.7808,33.2640 42.6308,33.2242 42.5003,33.1515 L41.4533,32.5042 C41.0280,32.2672 40.8750,31.7265 41.1135,31.3005 C41.2703,31.0222 41.5665,30.8482 41.8860,30.8482 C42.0360,30.8482 42.1853,30.8873 42.3180,30.9607 L43.3650,31.6073 C43.7903,31.8450 43.9410,32.3865 43.7025,32.8110 Z M47.6468,29.9557 C47.5283,30.1642 47.3115,30.2813 47.0888,30.2813 C46.9800,30.2813 46.8705,30.2550 46.7693,30.1972 L40.2045,26.4510 C39.4620,26.5860 38.3873,26.3827 37.3133,25.8457 C35.9970,25.1865 35.0805,24.2227 34.9418,23.4480 L29.2988,20.2282 C28.9905,20.0527 28.8818,19.6590 29.0580,19.3507 C29.2343,19.0417 29.6265,18.9345 29.9363,19.1107 L35.6535,22.3740 C36.3915,22.1430 37.5855,22.3267 38.7765,22.9222 C40.2098,23.6392 41.1675,24.7170 41.1668,25.5195 L47.4083,29.0790 C47.7173,29.2560 47.8238,29.6483 47.6468,29.9557 Z" style="fill-rule: evenodd; fill: url(#grad4015); "/>
    <defs xmlns="http://www.w3.org/2000/svg" xmlns:xlink="http://www.w3.org/1999/xlink">
      <linearGradient id="grad4016">
        <stop offset="0%" stop-color="#7ab04a" stop-opacity="1.0000"/>
        <stop offset="100%" stop-color="#ccff66" stop-opacity="1.0000"/>
      </linearGradient>
      <linearGradient xlink:href="#grad4016" id="grad4017" x1="0" y1="0" x2="0" y2="1" gradientTransform="rotate(-0 .5 .5)" gradientUnits="objectBoundingBox">
  </linearGradient>
    </defs>
    <path xmlns="http://www.w3.org/2000/svg" d="  M32.6715,39.4057 L30.2363,38.0422 C30.1043,37.9680 29.9550,37.9297 29.8043,37.9297 C29.4848,37.9297 29.1908,38.1022 29.0333,38.3827 C28.7948,38.8072 28.9463,39.3480 29.3723,39.5857 L31.8083,40.9485 C31.9388,41.0235 32.0880,41.0617 32.2388,41.0617 C32.5598,41.0617 32.8545,40.8885 33.0105,40.6088 C33.2490,40.1835 33.0968,39.6427 32.6715,39.4057 Z" style="fill-rule: evenodd; fill: url(#grad4017); "/>
    <defs xmlns="http://www.w3.org/2000/svg" xmlns:xlink="http://www.w3.org/1999/xlink">
      <linearGradient id="grad4018">
        <stop offset="0%" stop-color="#ffffff" stop-opacity="1.0000"/>
        <stop offset="100%" stop-color="#669999" stop-opacity="1.0000"/>
      </linearGradient>
      <linearGradient xlink:href="#grad4018" id="grad4019" x1="0" y1="0" x2="0" y2="1" gradientTransform="rotate(225 .5 .5)" gradientUnits="objectBoundingBox">
  </linearGradient>
    </defs>
    <path xmlns="http://www.w3.org/2000/svg" d="  M25.4332,23.3453 L27.8677,24.7088 C27.9997,24.7823 28.1490,24.8205 28.2990,24.8205 C28.6192,24.8205 28.9155,24.6488 29.0707,24.3683 C29.3092,23.9438 29.1570,23.4030 28.7317,23.1645 L26.2972,21.8025 C26.1652,21.7275 26.0152,21.6893 25.8660,21.6893 C25.5450,21.6893 25.2502,21.8625 25.0935,22.1415 C24.8550,22.5675 25.0080,23.1068 25.4332,23.3453 Z" style="fill-rule: evenodd; fill: url(#grad4019); "/>
    <defs xmlns="http://www.w3.org/2000/svg" xmlns:xlink="http://www.w3.org/1999/xlink">
      <linearGradient id="grad4020">
        <stop offset="0%" stop-color="#ffffff" stop-opacity="1.0000"/>
        <stop offset="100%" stop-color="#669999" stop-opacity="1.0000"/>
      </linearGradient>
      <linearGradient xlink:href="#grad4020" id="grad4021" x1="0" y1="0" x2="0" y2="1" gradientTransform="rotate(225 .5 .5)" gradientUnits="objectBoundingBox">
  </linearGradient>
    </defs>
    <path xmlns="http://www.w3.org/2000/svg" d="  M33.7170,25.9792 L31.2810,24.6157 C31.1505,24.5422 31.0005,24.5032 30.8505,24.5032 C30.5295,24.5032 30.2355,24.6772 30.0788,24.9570 C29.8403,25.3815 29.9918,25.9215 30.4185,26.1600 L32.8530,27.5235 C32.9843,27.5970 33.1335,27.6360 33.2843,27.6360 C33.6045,27.6360 33.9000,27.4620 34.0553,27.1830 C34.2938,26.7577 34.1423,26.2177 33.7170,25.9792 Z" style="fill-rule: evenodd; fill: url(#grad4021); "/>
    <defs xmlns="http://www.w3.org/2000/svg" xmlns:xlink="http://www.w3.org/1999/xlink">
      <linearGradient id="grad4022">
        <stop offset="0%" stop-color="#ffffff" stop-opacity="1.0000"/>
        <stop offset="100%" stop-color="#669999" stop-opacity="1.0000"/>
      </linearGradient>
      <linearGradient xlink:href="#grad4022" id="grad4023" x1="0" y1="0" x2="0" y2="1" gradientTransform="rotate(225 .5 .5)" gradientUnits="objectBoundingBox">
  </linearGradient>
    </defs>
    <path xmlns="http://www.w3.org/2000/svg" d="  M35.4015,28.8923 L37.8367,30.2550 C37.9687,30.3300 38.1172,30.3675 38.2680,30.3675 C38.5883,30.3675 38.8830,30.1950 39.0397,29.9153 C39.2782,29.4900 39.1260,28.9500 38.7000,28.7115 L36.2647,27.3495 C36.1343,27.2745 35.9850,27.2363 35.8350,27.2363 C35.5133,27.2363 35.2185,27.4095 35.0633,27.6885 C34.8247,28.1145 34.9762,28.6538 35.4015,28.8923 Z" style="fill-rule: evenodd; fill: url(#grad4023); "/>
    <defs xmlns="http://www.w3.org/2000/svg" xmlns:xlink="http://www.w3.org/1999/xlink">
      <linearGradient id="grad4024">
        <stop offset="0%" stop-color="#ffffff" stop-opacity="1.0000"/>
        <stop offset="100%" stop-color="#669999" stop-opacity="1.0000"/>
      </linearGradient>
      <linearGradient xlink:href="#grad4024" id="grad4025" x1="0" y1="0" x2="0" y2="1" gradientTransform="rotate(225 .5 .5)" gradientUnits="objectBoundingBox">
  </linearGradient>
    </defs>
    <path xmlns="http://www.w3.org/2000/svg" d="  M43.3643,31.6065 L42.3173,30.9600 C42.1845,30.8858 42.0353,30.8475 41.8853,30.8475 C41.5658,30.8475 41.2695,31.0208 41.1127,31.2998 C40.8750,31.7258 41.0273,32.2665 41.4525,32.5035 L42.4995,33.1508 C42.6300,33.2243 42.7800,33.2633 42.9300,33.2633 C43.2510,33.2633 43.5465,33.0893 43.7018,32.8103 C43.9410,32.3865 43.7903,31.8450 43.3643,31.6065 Z" style="fill-rule: evenodd; fill: url(#grad4025); "/>
    <defs xmlns="http://www.w3.org/2000/svg" xmlns:xlink="http://www.w3.org/1999/xlink">
      <linearGradient id="grad4026">
        <stop offset="0%" stop-color="#ffffff" stop-opacity="1.0000"/>
        <stop offset="100%" stop-color="#669999" stop-opacity="1.0000"/>
      </linearGradient>
      <linearGradient xlink:href="#grad4026" id="grad4027" x1="0" y1="0" x2="0" y2="1" gradientTransform="rotate(225 .5 .5)" gradientUnits="objectBoundingBox">
  </linearGradient>
    </defs>
    <path xmlns="http://www.w3.org/2000/svg" d="  M21.7350,25.6770 L24.1695,27.0390 C24.3008,27.1140 24.4508,27.1515 24.6008,27.1515 C24.9203,27.1515 25.2157,26.9790 25.3732,26.7000 C25.6110,26.2747 25.4580,25.7332 25.0327,25.4962 L22.5983,24.1335 C22.4670,24.0592 22.3170,24.0202 22.1670,24.0202 C21.8467,24.0202 21.5520,24.1935 21.3960,24.4732 C21.1568,24.8985 21.3098,25.4385 21.7350,25.6770 Z" style="fill-rule: evenodd; fill: url(#grad4027); "/>
    <defs xmlns="http://www.w3.org/2000/svg" xmlns:xlink="http://www.w3.org/1999/xlink">
      <linearGradient id="grad4028">
        <stop offset="0%" stop-color="#ffffff" stop-opacity="1.0000"/>
        <stop offset="100%" stop-color="#669999" stop-opacity="1.0000"/>
      </linearGradient>
      <linearGradient xlink:href="#grad4028" id="grad4029" x1="0" y1="0" x2="0" y2="1" gradientTransform="rotate(225 .5 .5)" gradientUnits="objectBoundingBox">
  </linearGradient>
    </defs>
    <path xmlns="http://www.w3.org/2000/svg" d="  M27.1523,26.8342 C26.8320,26.8342 26.5373,27.0067 26.3798,27.2872 C26.1413,27.7117 26.2935,28.2525 26.7195,28.4910 L29.1540,29.8530 C29.2860,29.9280 29.4353,29.9662 29.5853,29.9662 C29.9055,29.9662 30.2018,29.7930 30.3578,29.5132 C30.5955,29.0887 30.4433,28.5487 30.0180,28.3102 L27.5835,26.9467 C27.4515,26.8732 27.3023,26.8342 27.1523,26.8342 Z" style="fill-rule: evenodd; fill: url(#grad4029); "/>
    <defs xmlns="http://www.w3.org/2000/svg" xmlns:xlink="http://www.w3.org/1999/xlink">
      <linearGradient id="grad4030">
        <stop offset="0%" stop-color="#ffffff" stop-opacity="1.0000"/>
        <stop offset="100%" stop-color="#669999" stop-opacity="1.0000"/>
      </linearGradient>
      <linearGradient xlink:href="#grad4030" id="grad4031" x1="0" y1="0" x2="0" y2="1" gradientTransform="rotate(225 .5 .5)" gradientUnits="objectBoundingBox">
  </linearGradient>
    </defs>
    <path xmlns="http://www.w3.org/2000/svg" d="  M32.1367,29.5680 C31.8172,29.5680 31.5217,29.7413 31.3642,30.0210 C31.1272,30.4470 31.2787,30.9863 31.7047,31.2248 L34.1392,32.5868 C34.2705,32.6618 34.4197,32.6992 34.5705,32.6992 C34.8907,32.6992 35.1862,32.5267 35.3415,32.2478 C35.5800,31.8218 35.4285,31.2825 35.0025,31.0440 L32.5680,29.6805 C32.4367,29.6070 32.2867,29.5680 32.1367,29.5680 Z" style="fill-rule: evenodd; fill: url(#grad4031); "/>
    <defs xmlns="http://www.w3.org/2000/svg" xmlns:xlink="http://www.w3.org/1999/xlink">
      <linearGradient id="grad4032">
        <stop offset="0%" stop-color="#ffffff" stop-opacity="1.0000"/>
        <stop offset="100%" stop-color="#669999" stop-opacity="1.0000"/>
      </linearGradient>
      <linearGradient xlink:href="#grad4032" id="grad4033" x1="0" y1="0" x2="0" y2="1" gradientTransform="rotate(225 .5 .5)" gradientUnits="objectBoundingBox">
  </linearGradient>
    </defs>
    <path xmlns="http://www.w3.org/2000/svg" d="  M39.6652,33.9382 L38.6190,33.2917 C38.4870,33.2182 38.3370,33.1792 38.1885,33.1792 C37.8675,33.1792 37.5712,33.3517 37.4152,33.6322 C37.1775,34.0567 37.3305,34.5975 37.7550,34.8360 L38.8020,35.4817 C38.9325,35.5560 39.0817,35.5950 39.2332,35.5950 C39.5527,35.5950 39.8490,35.4217 40.0042,35.1420 C40.2427,34.7167 40.0912,34.1760 39.6652,33.9382 Z" style="fill-rule: evenodd; fill: url(#grad4033); "/>
    <defs xmlns="http://www.w3.org/2000/svg" xmlns:xlink="http://www.w3.org/1999/xlink">
      <linearGradient id="grad4034">
        <stop offset="0%" stop-color="#ffffff" stop-opacity="1.0000"/>
        <stop offset="100%" stop-color="#669999" stop-opacity="1.0000"/>
      </linearGradient>
      <linearGradient xlink:href="#grad4034" id="grad4035" x1="0" y1="0" x2="0" y2="1" gradientTransform="rotate(225 .5 .5)" gradientUnits="objectBoundingBox">
  </linearGradient>
    </defs>
    <path xmlns="http://www.w3.org/2000/svg" d="  M21.2250,29.8057 C21.5453,29.8057 21.8400,29.6325 21.9968,29.3535 C22.2353,28.9275 22.0830,28.3882 21.6570,28.1497 L19.2225,26.7862 C19.0905,26.7127 18.9428,26.6737 18.7920,26.6737 C18.4710,26.6737 18.1755,26.8470 18.0195,27.1267 C17.7810,27.5512 17.9333,28.0912 18.3593,28.3297 L20.7938,29.6925 C20.9243,29.7668 21.0743,29.8057 21.2250,29.8057 Z" style="fill-rule: evenodd; fill: url(#grad4035); "/>
    <defs xmlns="http://www.w3.org/2000/svg" xmlns:xlink="http://www.w3.org/1999/xlink">
      <linearGradient id="grad4036">
        <stop offset="0%" stop-color="#ffffff" stop-opacity="1.0000"/>
        <stop offset="100%" stop-color="#669999" stop-opacity="1.0000"/>
      </linearGradient>
      <linearGradient xlink:href="#grad4036" id="grad4037" x1="0" y1="0" x2="0" y2="1" gradientTransform="rotate(225 .5 .5)" gradientUnits="objectBoundingBox">
  </linearGradient>
    </defs>
    <path xmlns="http://www.w3.org/2000/svg" d="  M26.2087,32.6197 C26.5282,32.6197 26.8252,32.4465 26.9812,32.1675 C27.2190,31.7422 27.0667,31.2015 26.6407,30.9637 L24.2070,29.6002 C24.0750,29.5267 23.9250,29.4877 23.7750,29.4877 C23.4555,29.4877 23.1600,29.6602 23.0025,29.9407 C22.7655,30.3652 22.9177,30.9060 23.3430,31.1445 L25.7775,32.5072 C25.9095,32.5807 26.0587,32.6197 26.2087,32.6197 Z" style="fill-rule: evenodd; fill: url(#grad4037); "/>
    <defs xmlns="http://www.w3.org/2000/svg" xmlns:xlink="http://www.w3.org/1999/xlink">
      <linearGradient id="grad4038">
        <stop offset="0%" stop-color="#ffffff" stop-opacity="1.0000"/>
        <stop offset="100%" stop-color="#669999" stop-opacity="1.0000"/>
      </linearGradient>
      <linearGradient xlink:href="#grad4038" id="grad4039" x1="0" y1="0" x2="0" y2="1" gradientTransform="rotate(225 .5 .5)" gradientUnits="objectBoundingBox">
  </linearGradient>
    </defs>
    <path xmlns="http://www.w3.org/2000/svg" d="  M31.1940,35.3535 C31.5135,35.3535 31.8098,35.1802 31.9658,34.9012 C32.2035,34.4752 32.0505,33.9352 31.6260,33.6975 L29.1908,32.3340 C29.0588,32.2605 28.9103,32.2215 28.7603,32.2215 C28.4408,32.2215 28.1453,32.3947 27.9878,32.6745 C27.7500,33.0990 27.9023,33.6397 28.3283,33.8775 L30.7620,35.2417 C30.8940,35.3145 31.0433,35.3535 31.1940,35.3535 Z" style="fill-rule: evenodd; fill: url(#grad4039); "/>
    <defs xmlns="http://www.w3.org/2000/svg" xmlns:xlink="http://www.w3.org/1999/xlink">
      <linearGradient id="grad4040">
        <stop offset="0%" stop-color="#ffffff" stop-opacity="1.0000"/>
        <stop offset="100%" stop-color="#669999" stop-opacity="1.0000"/>
      </linearGradient>
      <linearGradient xlink:href="#grad4040" id="grad4041" x1="0" y1="0" x2="0" y2="1" gradientTransform="rotate(225 .5 .5)" gradientUnits="objectBoundingBox">
  </linearGradient>
    </defs>
    <path xmlns="http://www.w3.org/2000/svg" d="  M36.2888,36.5918 L35.2418,35.9445 C35.1113,35.8710 34.9613,35.8320 34.8113,35.8320 C34.4910,35.8320 34.1955,36.0053 34.0388,36.2850 C33.8010,36.7103 33.9533,37.2503 34.3785,37.4888 L35.4255,38.1345 C35.5575,38.2088 35.7060,38.2470 35.8560,38.2470 C36.1770,38.2470 36.4733,38.0745 36.6285,37.7948 C36.8663,37.3695 36.7140,36.8295 36.2888,36.5918 Z" style="fill-rule: evenodd; fill: url(#grad4041); "/>
    <defs xmlns="http://www.w3.org/2000/svg" xmlns:xlink="http://www.w3.org/1999/xlink">
      <linearGradient id="grad4042">
        <stop offset="0%" stop-color="#ffffff" stop-opacity="1.0000"/>
        <stop offset="100%" stop-color="#669999" stop-opacity="1.0000"/>
      </linearGradient>
      <linearGradient xlink:href="#grad4042" id="grad4043" x1="0" y1="0" x2="0" y2="1" gradientTransform="rotate(225 .5 .5)" gradientUnits="objectBoundingBox">
  </linearGradient>
    </defs>
    <path xmlns="http://www.w3.org/2000/svg" d="  M17.7165,30.8025 L15.2820,29.4397 C15.1515,29.3655 15.0022,29.3272 14.8515,29.3272 C14.5312,29.3272 14.2357,29.5005 14.0805,29.7795 C13.8420,30.2055 13.9935,30.7462 14.4195,30.9832 L16.8540,32.3467 C16.9852,32.4202 17.1345,32.4592 17.2845,32.4592 C17.6055,32.4592 17.9010,32.2860 18.0570,32.0062 C18.2955,31.5810 18.1432,31.0410 17.7165,30.8025 Z" style="fill-rule: evenodd; fill: url(#grad4043); "/>
    <defs xmlns="http://www.w3.org/2000/svg" xmlns:xlink="http://www.w3.org/1999/xlink">
      <linearGradient id="grad4044">
        <stop offset="0%" stop-color="#ffffff" stop-opacity="1.0000"/>
        <stop offset="100%" stop-color="#669999" stop-opacity="1.0000"/>
      </linearGradient>
      <linearGradient xlink:href="#grad4044" id="grad4045" x1="0" y1="0" x2="0" y2="1" gradientTransform="rotate(225 .5 .5)" gradientUnits="objectBoundingBox">
  </linearGradient>
    </defs>
    <path xmlns="http://www.w3.org/2000/svg" d="  M22.7010,33.6165 L20.2673,32.2538 C20.1353,32.1795 19.9853,32.1405 19.8360,32.1405 C19.5158,32.1405 19.2203,32.3138 19.0635,32.5935 C18.8250,33.0195 18.9780,33.5588 19.4033,33.7965 L21.8377,35.1593 C21.9698,35.2343 22.1190,35.2733 22.2690,35.2733 C22.5892,35.2733 22.8855,35.0993 23.0415,34.8203 C23.2808,34.3943 23.1278,33.8558 22.7010,33.6165 Z" style="fill-rule: evenodd; fill: url(#grad4045); "/>
    <defs xmlns="http://www.w3.org/2000/svg" xmlns:xlink="http://www.w3.org/1999/xlink">
      <linearGradient id="grad4046">
        <stop offset="0%" stop-color="#ffffff" stop-opacity="1.0000"/>
        <stop offset="100%" stop-color="#669999" stop-opacity="1.0000"/>
      </linearGradient>
      <linearGradient xlink:href="#grad4046" id="grad4047" x1="0" y1="0" x2="0" y2="1" gradientTransform="rotate(225 .5 .5)" gradientUnits="objectBoundingBox">
  </linearGradient>
    </defs>
    <path xmlns="http://www.w3.org/2000/svg" d="  M27.6862,36.3502 L25.2517,34.9875 C25.1205,34.9132 24.9705,34.8742 24.8205,34.8742 C24.5010,34.8742 24.2055,35.0475 24.0480,35.3272 C23.8102,35.7532 23.9632,36.2925 24.3885,36.5310 L26.8230,37.8945 C26.9550,37.9680 27.1035,38.0055 27.2542,38.0055 C27.5745,38.0055 27.8700,37.8337 28.0260,37.5532 C28.2645,37.1287 28.1115,36.5872 27.6862,36.3502 Z" style="fill-rule: evenodd; fill: url(#grad4047); "/>
    <defs xmlns="http://www.w3.org/2000/svg" xmlns:xlink="http://www.w3.org/1999/xlink">
      <linearGradient id="grad4048">
        <stop offset="0%" stop-color="#000000" stop-opacity="1.0000"/>
        <stop offset="100%" stop-color="#9db2c1" stop-opacity="1.0000"/>
      </linearGradient>
      <linearGradient xlink:href="#grad4048" id="grad4049" x1="0" y1="0" x2="0" y2="1" gradientTransform="rotate(180 .5 .5)" gradientUnits="objectBoundingBox">
  </linearGradient>
    </defs>
    <path xmlns="http://www.w3.org/2000/svg" d="  M47.4075,29.0782 L41.1660,25.5187 C41.1660,25.6560 41.1413,25.7850 41.0828,25.9042 C40.9373,26.1945 40.6238,26.3760 40.2053,26.4510 L46.7700,30.1972 C46.8713,30.2550 46.9808,30.2812 47.0895,30.2812 C47.3123,30.2812 47.5290,30.1650 47.6475,29.9557 C47.8238,29.6482 47.7173,29.2560 47.4075,29.0782 Z" style="fill-rule: evenodd; fill: url(#grad4049); "/>
    <defs xmlns="http://www.w3.org/2000/svg" xmlns:xlink="http://www.w3.org/1999/xlink">
      <linearGradient id="grad4050">
        <stop offset="0%" stop-color="#000000" stop-opacity="1.0000"/>
        <stop offset="100%" stop-color="#9db2c1" stop-opacity="1.0000"/>
      </linearGradient>
      <linearGradient xlink:href="#grad4050" id="grad4051" x1="0" y1="0" x2="0" y2="1" gradientTransform="rotate(180 .5 .5)" gradientUnits="objectBoundingBox">
  </linearGradient>
    </defs>
    <path xmlns="http://www.w3.org/2000/svg" d="  M35.0078,22.8630 C35.1248,22.6282 35.3520,22.4677 35.6528,22.3732 L29.9355,19.1100 C29.6258,18.9345 29.2335,19.0410 29.0573,19.3500 C28.8818,19.6582 28.9898,20.0520 29.2980,20.2275 L34.9410,23.4472 C34.9028,23.2350 34.9208,23.0377 35.0078,22.8630 Z" style="fill-rule: evenodd; fill: url(#grad4051); "/>
    <defs xmlns="http://www.w3.org/2000/svg">
      <radialGradient id="grad4052" cx="50.0000%" cy="50.0000%" r="100.0000%">
        <stop offset="0%" stop-color="#ffffff" stop-opacity="1.0000"/>
        <stop offset="100%" stop-color="#669999" stop-opacity="1.0000"/>
      </radialGradient>
    </defs>
    <path xmlns="http://www.w3.org/2000/svg" d="  M41.0820,25.9042 C41.1405,25.7857 41.1653,25.6560 41.1653,25.5187 C41.1668,24.7162 40.2090,23.6385 38.7750,22.9215 C37.5840,22.3252 36.3900,22.1422 35.6520,22.3732 C35.3513,22.4677 35.1240,22.6290 35.0070,22.8630 C34.9208,23.0370 34.9020,23.2350 34.9410,23.4472 C35.0805,24.2220 35.9963,25.1857 37.3125,25.8450 C38.3873,26.3820 39.4613,26.5845 40.2038,26.4502 C40.6230,26.3760 40.9365,26.1945 41.0820,25.9042 Z" style="fill-rule: evenodd; fill: url(#grad4052); "/>
    <path xmlns="http://www.w3.org/2000/svg" d="  M57.4612,20.7000 C57.1515,20.4262 43.0170,12.4845 42.9263,12.4485 C42.5175,12.2932 42.0405,12.2100 41.5485,12.2100 C40.9388,12.2100 40.3500,12.3390 39.8955,12.5722 C39.7200,12.6622 34.2443,16.5742 34.0958,16.7167 C33.8438,16.9552 33.7103,17.2350 33.7103,17.5252 C33.7103,17.8320 33.8565,18.1245 34.1370,18.3735 C34.3470,18.5595 48.2467,26.5312 48.5768,26.6542 C48.9735,26.8035 49.4348,26.8815 49.9088,26.8815 C50.4855,26.8815 51.0465,26.7630 51.4898,26.5485 C51.7260,26.4337 57.3863,22.4737 57.5445,22.3125 C57.7695,22.0830 57.8880,21.8190 57.8880,21.5460 C57.8888,21.2385 57.7395,20.9475 57.4612,20.7000 Z M57.2115,21.9652 C56.9700,22.1715 51.5310,25.9747 51.2790,26.1142 C50.9018,26.2980 50.4157,26.3992 49.9095,26.3992 C49.4917,26.3992 49.0883,26.3302 48.7530,26.2057 C48.3308,26.0122 34.9403,18.3352 34.4505,18.0037 C34.3305,17.8965 34.1925,17.7277 34.1925,17.5245 C34.1925,17.3677 34.2713,17.2140 34.4205,17.0715 C34.6785,16.8577 39.9008,13.1265 40.1160,12.9997 C40.5060,12.7995 41.0138,12.6915 41.5493,12.6915 C41.9828,12.6915 42.3998,12.7620 42.7463,12.8947 C43.1948,13.1010 56.6745,20.7502 57.1500,21.0667 C57.2685,21.1740 57.4065,21.3405 57.4065,21.5430 C57.4057,21.6915 57.3375,21.8362 57.2115,21.9652 Z" style="fill-rule: evenodd; fill: #ffffff; "/>
    <defs xmlns="http://www.w3.org/2000/svg" xmlns:xlink="http://www.w3.org/1999/xlink">
      <linearGradient id="grad4053">
        <stop offset="0%" stop-color="#1e729f" stop-opacity="1.0000"/>
        <stop offset="100%" stop-color="#66ccff" stop-opacity="1.0000"/>
      </linearGradient>
      <linearGradient xlink:href="#grad4053" id="grad4054" x1="0" y1="0" x2="0" y2="1" gradientTransform="rotate(-0 .5 .5)" gradientUnits="objectBoundingBox">
  </linearGradient>
    </defs>
    <path xmlns="http://www.w3.org/2000/svg" d="  M57.1492,21.0690 C56.6737,20.7517 43.1940,13.1032 42.7455,12.8970 C42.3990,12.7635 41.9820,12.6937 41.5485,12.6937 C41.0130,12.6937 40.5045,12.8025 40.1152,13.0020 C39.9000,13.1287 34.6777,16.8600 34.4197,17.0737 C34.2712,17.2155 34.1917,17.3700 34.1917,17.5267 C34.1917,17.7300 34.3297,17.8987 34.4497,18.0060 C34.9395,18.3367 48.3307,26.0145 48.7522,26.2080 C49.0875,26.3325 49.4910,26.4015 49.9087,26.4015 C50.4150,26.4015 50.9010,26.3002 51.2782,26.1165 C51.5302,25.9762 56.9692,22.1737 57.2107,21.9675 C57.3367,21.8385 57.4050,21.6937 57.4050,21.5467 C57.4057,21.3427 57.2677,21.1755 57.1492,21.0690 Z" style="fill-rule: evenodd; fill: url(#grad4054); "/>
    <path xmlns="http://www.w3.org/2000/svg" d="  M32.3655,13.1467 C31.8367,12.8482 31.1175,13.0327 30.4455,13.5570 C27.8377,15.2272 25.1310,16.9897 22.1130,19.3477 C21.4155,19.8840 20.7532,20.5170 20.3257,21.2752 C19.9305,21.9757 19.7287,22.7002 19.7160,23.3227 L32.9055,13.8292 C32.7960,13.5277 32.6190,13.2892 32.3655,13.1467 Z" style="fill-rule: evenodd; fill: #3f3f3f; "/>
    <!--converted by libvisio2svg-->
  </g>
</svg>
