<svg xmlns="http://www.w3.org/2000/svg" xmlns:xlink="http://www.w3.org/1999/xlink" version="1.1" width="0.7921000000" height="0.7813000000" viewBox="0 0 57.0345 56.2523">
  <title><![CDATA[Response Group]]></title>
  <g transform=" scale(1.000000) ">
    <path xmlns="http://www.w3.org/2000/svg" d="  M14.6062,29.7765 C13.7092,29.2388 11.9955,28.2210 11.9955,28.2210 C11.5912,28.0583 11.1255,28.0103 10.6192,28.0852 C10.1340,27.9645 9.6262,27.9000 9.1035,27.9000 C8.4795,27.9000 7.8780,27.9923 7.3102,28.1610 C7.1340,28.0703 6.4582,27.7177 6.3442,27.6068 C6.2123,27.4778 6.0045,27.2932 5.9167,26.7383 C5.6520,24.7012 5.5087,22.5075 5.5087,20.2223 C5.5087,17.4067 5.7270,14.7307 6.1200,12.3150 L8.6647,13.6290 C8.8500,13.7347 9.0517,13.8113 9.2655,13.8615 C9.2730,13.8622 9.2805,13.8645 9.2872,13.8668 C9.3345,13.8765 9.3825,13.8848 9.4305,13.8930 C9.4425,13.8953 9.4545,13.8975 9.4680,13.8990 C9.5137,13.9058 9.5587,13.9110 9.6052,13.9148 C9.6210,13.9163 9.6382,13.9178 9.6555,13.9192 C9.6982,13.9222 9.7425,13.9230 9.7875,13.9245 C9.8062,13.9253 9.8287,13.9253 9.8482,13.9253 C9.8910,13.9253 9.9330,13.9245 9.9772,13.9222 C10.0005,13.9215 10.0237,13.9207 10.0477,13.9185 C10.0897,13.9163 10.1287,13.9125 10.1715,13.9080 C10.1985,13.9043 10.2247,13.9020 10.2510,13.8975 C10.2922,13.8930 10.3312,13.8870 10.3725,13.8788 C10.4017,13.8750 10.4302,13.8690 10.4595,13.8637 C10.5000,13.8555 10.5382,13.8480 10.5787,13.8390 C10.6102,13.8315 10.6417,13.8232 10.6725,13.8157 C10.7122,13.8052 10.7520,13.7955 10.7895,13.7842 C10.8232,13.7745 10.8570,13.7633 10.8907,13.7528 C10.9290,13.7400 10.9680,13.7287 11.0055,13.7145 C11.0415,13.7025 11.0782,13.6882 11.1142,13.6755 C11.1517,13.6605 11.1877,13.6477 11.2252,13.6328 C11.2642,13.6170 11.3047,13.5990 11.3437,13.5817 C11.3790,13.5660 11.4135,13.5517 11.4487,13.5352 C11.4937,13.5142 11.5410,13.4910 11.5875,13.4670 C11.6160,13.4528 11.6452,13.4392 11.6745,13.4243 C11.7517,13.3845 11.8275,13.3425 11.9047,13.2990 C14.4480,11.8312 16.5157,8.2492 16.5157,5.3137 C16.5157,5.1292 16.5075,4.9522 16.4917,4.7805 C16.4917,4.7790 16.4902,4.7768 16.4902,4.7760 C16.4745,4.6072 16.4505,4.4453 16.4197,4.2908 C16.4197,4.2885 16.4182,4.2855 16.4175,4.2825 C16.3860,4.1288 16.3492,3.9833 16.3035,3.8437 C16.3035,3.8415 16.3035,3.8393 16.3020,3.8370 C16.2562,3.6982 16.2045,3.5670 16.1460,3.4425 C16.1452,3.4410 16.1445,3.4387 16.1430,3.4372 C16.0845,3.3127 16.0200,3.1965 15.9487,3.0877 C15.9472,3.0863 15.9450,3.0855 15.9450,3.0840 C15.8737,2.9745 15.7950,2.8740 15.7125,2.7810 C15.7110,2.7802 15.7110,2.7802 15.7102,2.7795 C15.6255,2.6865 15.5370,2.6018 15.4417,2.5253 C15.4402,2.5253 15.4402,2.5253 15.4402,2.5253 C15.3442,2.4488 15.2437,2.3805 15.1372,2.3205 C15.1605,2.3228 12.0652,0.7440 12.0652,0.7440 C11.1817,0.2707 10.1745,0.0008 9.1027,0.0008 C6.6487,0.0008 4.5240,1.4130 3.4950,3.4680 C1.4032,6.8528 0.0000,13.0868 0.0000,20.2215 C0.0000,27.3555 1.4032,33.5895 3.4935,36.9743 C3.8617,37.7093 4.3702,38.3618 4.9845,38.8973 C5.2095,39.2385 5.4960,39.5010 5.8313,39.6795 C5.8313,39.6795 8.8620,41.5080 8.8050,41.4780 C9.6240,41.8680 10.7122,41.7653 11.9047,41.0783 C14.4480,39.6090 16.5157,36.0278 16.5157,33.0923 C16.5157,33.0750 16.5127,33.0585 16.5127,33.0397 C16.5127,33.0210 16.5157,33.0015 16.5157,32.9827 C16.5165,31.2120 15.7612,30.0765 14.6062,29.7765 Z" style="stroke-width: 1.8750; stroke: #8d98b5; stroke-dasharray: none; stroke-linecap: butt; stroke-linejoin: miter; fill: none; "/>
    <path xmlns="http://www.w3.org/2000/svg" d="  M28.8922,37.7685 C28.8907,37.8083 28.8907,37.8487 28.8907,37.8870 C28.8907,39.7125 30.1312,41.3707 32.1517,42.6007 C33.5055,43.4242 35.2485,44.4435 36.6315,45.2392 C38.7982,46.4857 41.7412,46.9747 45.0502,46.9747 C51.6652,46.9747 57.0300,43.8967 57.0300,40.0988 C57.0300,39.8977 57.0345,33.0517 53.2522,30.2903 C52.4542,29.7090 49.7730,27.9150 46.7992,26.6813 C46.6305,25.7918 46.2795,23.8898 46.0447,22.5757 C46.9980,22.6222 48.2167,21.7313 49.0275,20.3002 C49.9237,18.7170 50.0077,17.0243 49.2810,16.2938 C50.2110,12.2040 48.9780,8.2403 47.0190,6.8603 C46.3597,6.3960 44.8777,5.3963 41.9752,5.1390 C41.4082,5.0633 40.8150,5.0213 40.2060,5.0213 C35.9272,5.0213 32.4555,7.0133 32.4555,9.4703 C32.4555,10.1385 32.7165,10.7730 33.1777,11.3430 C32.6242,12.9675 32.4525,14.9460 32.4525,17.1330 C32.4525,19.5930 33.0577,21.8475 34.0620,23.6123 L33.0382,23.0288 C33.1117,22.7723 33.0750,22.5405 32.9272,22.4535 C32.9272,22.4535 32.4570,21.9000 32.1600,21.6825 C31.8667,21.4717 30.4882,20.5725 30.4882,20.5725 C30.4882,20.5725 30.0022,20.4683 29.9475,20.4638 C29.6572,20.4353 29.2792,20.7060 29.0302,21.1455 C28.7595,21.6247 28.7385,22.1340 28.9597,22.3500 L29.2440,22.5975 C29.2762,22.6358 29.3100,22.6680 29.3527,22.6920 C29.3527,22.6920 30.7882,23.4533 31.1182,23.5920 C31.4152,23.7150 32.2125,23.7172 32.2125,23.7172 C32.3490,23.7968 32.5417,23.7285 32.7165,23.5635 C33.1777,23.8253 34.0447,24.3180 34.0447,24.3180 C34.2690,24.4493 34.5045,24.5603 34.7467,24.6563 C35.2432,25.3155 35.8057,25.8772 36.4185,26.3130 C33.6367,27.2370 30.9870,28.9395 29.9497,31.6073 C29.3332,33.1920 29.0677,35.6550 28.8922,37.7685 Z" style="stroke-width: 1.5000; stroke: #8d98b5; stroke-dasharray: none; stroke-linecap: butt; stroke-linejoin: miter; fill: none; "/>
    <path xmlns="http://www.w3.org/2000/svg" d="  M34.7633,41.5095 C34.0028,40.9530 31.8248,39.4282 28.9740,38.3602 C30.8798,37.8855 32.5905,36.3443 33.2775,32.4292 C34.0718,27.8918 32.1323,23.0805 30.6758,21.3038 C30.6758,21.3038 29.8935,20.4255 29.3850,20.0498 C29.3070,19.9943 29.2193,19.9283 29.1188,19.8585 C27.6225,18.6428 25.3688,17.7855 22.6568,17.7450 C18.9338,17.6888 15.2415,19.1325 15.1860,20.6790 C15.1860,20.6963 15.1928,20.7150 15.1943,20.7330 C15.1928,20.7330 15.1860,20.7330 15.1860,20.7330 C15.1860,20.7330 15.2925,21.8543 16.3545,22.9500 C17.1105,23.7315 17.3655,23.9813 17.4038,24.0195 C16.8893,25.4430 16.7670,27.3390 16.8143,29.7458 C16.8143,29.7225 16.8143,29.7000 16.8135,29.6768 C15.9023,30.8415 15.3038,32.6258 15.3038,34.0538 C15.3038,35.1773 15.6698,36.1943 16.2675,36.9465 C16.1925,36.9083 16.1160,36.8715 16.0448,36.8295 L14.7255,36.0765 C14.7983,35.8200 14.7623,35.5890 14.6145,35.5020 C14.6145,35.5020 14.1435,34.9485 13.8465,34.7318 C13.5548,34.5210 12.1763,33.6203 12.1763,33.6203 C12.1763,33.6203 11.6895,33.5175 11.6348,33.5115 C11.3438,33.4853 10.9680,33.7545 10.7168,34.1955 C10.4468,34.6733 10.4250,35.1825 10.6470,35.3993 L10.9305,35.6468 C10.9613,35.6850 10.9980,35.7173 11.0400,35.7405 C11.0400,35.7405 12.4755,36.5025 12.8063,36.6398 C13.1010,36.7643 13.8990,36.7643 13.8990,36.7643 C14.0355,36.8445 14.2298,36.7763 14.4015,36.6135 C14.8635,36.8760 15.7313,37.3665 15.7313,37.3665 C16.3613,37.7370 17.0790,37.9628 17.8148,38.0798 C18.0533,38.1630 19.3080,38.1765 19.3943,38.1735 C17.1225,39.0218 15.0293,40.4760 14.1728,42.6765 C13.6290,44.0738 13.3965,46.2495 13.2398,48.1185 C13.2398,48.1523 13.2375,48.1890 13.2375,48.2213 C13.2375,49.8353 14.3333,51.3000 16.1190,52.3875 C16.8360,52.8225 18.0203,53.5155 18.9480,54.0563 C18.9495,54.0608 18.9495,54.0623 18.9495,54.0623 L19.7295,54.5175 L19.7310,54.5160 C19.8758,54.6023 19.9298,54.6330 20.0775,54.7185 C21.9923,55.8203 24.5918,56.2523 27.5153,56.2523 C33.3600,56.2523 38.0993,53.5320 38.0993,50.1773 C38.1015,49.9972 38.1060,43.9485 34.7633,41.5095 Z" style="stroke-width: 1.5000; stroke: #8d98b5; stroke-dasharray: none; stroke-linecap: butt; stroke-linejoin: miter; fill: none; "/>
    <defs xmlns="http://www.w3.org/2000/svg" xmlns:xlink="http://www.w3.org/1999/xlink">
      <linearGradient id="grad4200">
        <stop offset="0%" stop-color="#333b58" stop-opacity="1.0000"/>
        <stop offset="100%" stop-color="#95a8c2" stop-opacity="1.0000"/>
      </linearGradient>
      <linearGradient xlink:href="#grad4200" id="grad4201" x1="0" y1="0" x2="0" y2="1" gradientTransform="rotate(315 .5 .5)" gradientUnits="objectBoundingBox">
  </linearGradient>
    </defs>
    <path xmlns="http://www.w3.org/2000/svg" d="  M7.1033,0.7687 C8.0813,0.7687 9.0113,1.3095 9.8565,2.2853 C7.3035,5.2312 5.5088,12.1522 5.5088,20.2215 C5.5088,22.5067 5.6520,24.7005 5.9168,26.7375 C6.0045,27.2925 6.2130,27.4770 6.3443,27.6060 C6.4770,27.7342 7.3538,28.1835 7.3538,28.1835 C7.3538,28.1835 8.8808,37.0297 9.8565,38.1562 C9.0113,39.1335 8.0813,39.6735 7.1033,39.6735 C3.1808,39.6735 0.0000,30.9637 0.0000,20.2207 C0.0000,9.4777 3.1800,0.7687 7.1033,0.7687 Z" style="fill-rule: evenodd; fill: url(#grad4201); "/>
    <defs xmlns="http://www.w3.org/2000/svg" xmlns:xlink="http://www.w3.org/1999/xlink">
      <linearGradient id="grad4202">
        <stop offset="0%" stop-color="#333b58" stop-opacity="1.0000"/>
        <stop offset="100%" stop-color="#95a8c2" stop-opacity="1.0000"/>
      </linearGradient>
      <linearGradient xlink:href="#grad4202" id="grad4203" x1="0" y1="0" x2="0" y2="1" gradientTransform="rotate(90 .5 .5)" gradientUnits="objectBoundingBox">
  </linearGradient>
    </defs>
    <path xmlns="http://www.w3.org/2000/svg" d="  M7.1032,0.7687 C7.6815,0.7687 8.2425,0.9622 8.7795,1.3185 C7.1280,2.4135 5.4615,11.2702 5.4615,11.2702 L4.5367,11.4120 C4.5367,11.4120 4.1212,11.4982 4.0508,11.8095 C3.6022,14.3550 3.3525,17.2080 3.3525,20.2215 C3.3525,22.8967 3.5512,25.4453 3.9067,27.7650 C3.9495,28.1467 4.2390,28.7310 4.5292,28.9620 C5.3842,29.6460 7.0545,30.9817 7.0545,30.9817 C7.0545,30.9817 7.3590,38.1817 8.7795,39.1245 C8.2417,39.4807 7.6807,39.6735 7.1032,39.6735 C3.1808,39.6735 0.0000,30.9637 0.0000,20.2207 C0.0000,9.4777 3.1800,0.7687 7.1032,0.7687 Z" style="fill-rule: evenodd; fill: url(#grad4203); "/>
    <path xmlns="http://www.w3.org/2000/svg" d="  M4.4550,29.0557 C4.1257,28.7865 3.8400,28.2007 3.7890,27.7830 C3.4297,25.4572 3.2332,22.9027 3.2332,20.2215 C3.2332,17.2012 3.4830,14.3408 3.9352,11.7832 C4.0462,11.3730 4.5060,11.3040 4.5172,11.2942 L5.4435,11.1525 L5.4435,11.1532 L5.4810,11.3895 L4.5607,11.5312 C4.5607,11.5327 4.4715,11.5492 4.3762,11.6010 C4.2787,11.6535 4.1895,11.7308 4.1685,11.8312 C3.7215,14.3677 3.4732,17.2147 3.4732,20.2215 C3.4732,22.8907 3.6705,25.4332 4.0260,27.7522 C4.0575,28.0905 4.3515,28.6747 4.6042,28.8697 C4.7872,29.0145 5.0077,29.1937 5.2432,29.3797 L5.0940,29.5672 C4.8585,29.3790 4.6372,29.2020 4.4550,29.0557 Z" style="fill-rule: evenodd; fill: #8d98b5; "/>
    <path xmlns="http://www.w3.org/2000/svg" d="  M8.1203,38.6535 C8.1623,38.7210 8.2043,38.7840 8.2508,38.8350 C8.2628,38.8275 8.2733,38.8215 8.2860,38.8162 C8.2290,38.7735 8.1743,38.7165 8.1203,38.6535 Z" style="fill-rule: evenodd; fill: #ffffff; fill-opacity: 0.6000; "/>
    <defs xmlns="http://www.w3.org/2000/svg">
      <radialGradient id="grad4204" cx="100.0000%" cy="0.0000%" r="100.0000%">
        <stop offset="0%" stop-color="#ffffff" stop-opacity="1.0000"/>
        <stop offset="100%" stop-color="#454f6c" stop-opacity="1.0000"/>
      </radialGradient>
    </defs>
    <path xmlns="http://www.w3.org/2000/svg" d="  M15.3750,6.2715 A6.2715,6.2715 180.0000 1,1 9.1035,0.0000 A6.2715,6.2715 180.0000 0,1 15.3750,6.2715 Z" style="fill-rule: evenodd; fill: url(#grad4204); "/>
    <defs xmlns="http://www.w3.org/2000/svg">
      <radialGradient id="grad4205" cx="100.0000%" cy="0.0000%" r="100.0000%">
        <stop offset="0%" stop-color="#95a8c2" stop-opacity="1.0000"/>
        <stop offset="100%" stop-color="#454f6c" stop-opacity="1.0000"/>
      </radialGradient>
    </defs>
    <path xmlns="http://www.w3.org/2000/svg" d="  M15.3750,34.1707 A6.2715,6.2715 180.0000 1,1 9.1035,27.8993 A6.2715,6.2715 180.0000 0,1 15.3750,34.1707 Z" style="fill-rule: evenodd; fill: url(#grad4205); "/>
    <defs xmlns="http://www.w3.org/2000/svg" xmlns:xlink="http://www.w3.org/1999/xlink">
      <linearGradient id="grad4206">
        <stop offset="0%" stop-color="#333b58" stop-opacity="1.0000"/>
        <stop offset="100%" stop-color="#95a8c2" stop-opacity="1.0000"/>
      </linearGradient>
      <linearGradient xlink:href="#grad4206" id="grad4207" x1="0" y1="0" x2="0" y2="1" gradientTransform="rotate(225 .5 .5)" gradientUnits="objectBoundingBox">
  </linearGradient>
    </defs>
    <path xmlns="http://www.w3.org/2000/svg" d="  M5.8320,12.1657 C4.9995,11.6827 4.4812,10.6515 4.4812,9.1852 C4.4812,6.2505 6.5497,2.6692 9.0908,1.2015 C10.2247,0.5467 11.2627,0.4215 12.0660,0.7440 C12.0660,0.7440 15.1613,2.3227 15.1380,2.3205 C15.9885,2.7960 16.5165,3.8340 16.5165,5.3145 C16.5165,8.2500 14.4480,11.8320 11.9055,13.2997 C10.7055,13.9920 9.6120,14.0910 8.7922,13.6950 L5.8320,12.1657 Z" style="fill-rule: evenodd; fill: url(#grad4207); "/>
    <defs xmlns="http://www.w3.org/2000/svg" xmlns:xlink="http://www.w3.org/1999/xlink">
      <linearGradient id="grad4208">
        <stop offset="0%" stop-color="#333b58" stop-opacity="1.0000"/>
        <stop offset="100%" stop-color="#95a8c2" stop-opacity="1.0000"/>
      </linearGradient>
      <linearGradient xlink:href="#grad4208" id="grad4209" x1="0" y1="0" x2="0" y2="1" gradientTransform="rotate(225 .5 .5)" gradientUnits="objectBoundingBox">
  </linearGradient>
    </defs>
    <path xmlns="http://www.w3.org/2000/svg" d="  M5.8320,39.6803 C4.9560,39.2160 4.4107,38.1683 4.4107,36.6615 C4.4107,33.7275 6.4785,30.1455 9.0210,28.6778 C10.1542,28.0230 11.1923,27.8985 11.9948,28.2210 C11.9948,28.2210 15.1612,30.1013 15.1372,30.0983 C15.9878,30.5745 16.5158,31.6118 16.5158,33.0923 C16.5158,36.0278 14.4473,39.6090 11.9048,41.0783 C10.7122,41.7653 9.6240,41.8680 8.8050,41.4780 C8.8627,41.5080 5.8320,39.6803 5.8320,39.6803 Z" style="fill-rule: evenodd; fill: url(#grad4209); "/>
    <path xmlns="http://www.w3.org/2000/svg" d="  M11.9048,13.2998 C14.4480,11.8320 16.5158,8.2500 16.5158,5.3145 C16.5158,2.3805 14.4473,1.1865 11.9048,2.6543 C9.3630,4.1220 7.2953,7.7033 7.2953,10.6380 C7.2960,13.5728 9.3638,14.7675 11.9048,13.2998 Z" style="fill-rule: evenodd; fill: #333b58; fill-opacity: 0.9882; "/>
    <defs xmlns="http://www.w3.org/2000/svg" xmlns:xlink="http://www.w3.org/1999/xlink">
      <linearGradient id="grad4210">
        <stop offset="0%" stop-color="#202638" stop-opacity="1.0000"/>
        <stop offset="100%" stop-color="#6e88a8" stop-opacity="1.0000"/>
      </linearGradient>
      <linearGradient xlink:href="#grad4210" id="grad4211" x1="0" y1="0" x2="0" y2="1" gradientTransform="rotate(-0 .5 .5)" gradientUnits="objectBoundingBox">
  </linearGradient>
    </defs>
    <path xmlns="http://www.w3.org/2000/svg" d="  M11.9047,11.7795 C13.7212,10.7310 15.1980,8.1728 15.1980,6.0765 C15.1980,3.9795 13.7212,3.1268 11.9047,4.1753 C10.0905,5.2230 8.6123,7.7813 8.6123,9.8783 C8.6130,11.9745 10.0905,12.8273 11.9047,11.7795 Z" style="fill-rule: evenodd; fill: url(#grad4211); "/>
    <path xmlns="http://www.w3.org/2000/svg" d="  M11.9048,9.2482 C12.5130,8.8980 13.0073,8.0422 13.0073,7.3403 C13.0073,6.6390 12.5130,6.3548 11.9048,6.7050 C11.2973,7.0552 10.8038,7.9110 10.8038,8.6122 C10.8038,9.3142 11.2980,9.5985 11.9048,9.2482 Z" style="fill-rule: evenodd; fill: #333333; "/>
    <path xmlns="http://www.w3.org/2000/svg" d="  M11.9310,41.0955 C14.4720,39.6278 16.5405,36.0465 16.5405,33.1117 C16.5405,30.1762 14.4713,28.9822 11.9310,30.4500 C9.3878,31.9177 7.3200,35.4990 7.3200,38.4338 C7.3200,41.3692 9.3885,42.5648 11.9310,41.0955 Z" style="fill-rule: evenodd; fill: #333b58; fill-opacity: 0.9882; "/>
    <defs xmlns="http://www.w3.org/2000/svg" xmlns:xlink="http://www.w3.org/1999/xlink">
      <linearGradient id="grad4212">
        <stop offset="0%" stop-color="#202638" stop-opacity="1.0000"/>
        <stop offset="100%" stop-color="#6e88a8" stop-opacity="1.0000"/>
      </linearGradient>
      <linearGradient xlink:href="#grad4212" id="grad4213" x1="0" y1="0" x2="0" y2="1" gradientTransform="rotate(-0 .5 .5)" gradientUnits="objectBoundingBox">
  </linearGradient>
    </defs>
    <path xmlns="http://www.w3.org/2000/svg" d="  M11.9047,39.4470 C13.7212,38.3985 15.1980,35.8402 15.1980,33.7440 C15.1980,31.6462 13.7212,30.7935 11.9047,31.8427 C10.0905,32.8897 8.6123,35.4495 8.6123,37.5457 C8.6123,39.6420 10.0905,40.4948 11.9047,39.4470 Z" style="fill-rule: evenodd; fill: url(#grad4213); "/>
    <path xmlns="http://www.w3.org/2000/svg" d="  M11.8770,36.9720 C12.4785,36.6247 12.9660,35.7795 12.9660,35.0865 C12.9660,34.3920 12.4785,34.1107 11.8770,34.4580 C11.2770,34.8037 10.7888,35.6505 10.7888,36.3435 C10.7888,37.0365 11.2770,37.3185 11.8770,36.9720 Z" style="fill-rule: evenodd; fill: #333333; "/>
    <defs xmlns="http://www.w3.org/2000/svg">
      <radialGradient id="grad4214" cx="50.0000%" cy="50.0000%" r="100.0000%">
        <stop offset="0%" stop-color="#a6d6f5" stop-opacity="1.0000"/>
        <stop offset="100%" stop-color="#6c90b4" stop-opacity="1.0000"/>
      </radialGradient>
    </defs>
    <path xmlns="http://www.w3.org/2000/svg" d="  M57.0292,40.0988 C57.0292,39.8978 57.0338,33.0517 53.2515,30.2903 C52.0155,29.3880 46.2773,25.5862 41.9078,25.4543 C38.0873,25.3380 31.7063,27.0900 29.9490,31.6087 C29.3340,33.1920 29.0685,35.6550 28.8930,37.7685 C28.8915,37.8083 28.8915,37.8488 28.8915,37.8870 C28.8915,39.7125 30.1320,41.3708 32.1525,42.6008 C33.5062,43.4243 35.2493,44.4435 36.6322,45.2393 C38.7990,46.4858 41.7420,46.9748 45.0510,46.9748 C51.6645,46.9748 57.0292,43.8975 57.0292,40.0988 Z" style="fill-rule: evenodd; fill: url(#grad4214); "/>
    <path xmlns="http://www.w3.org/2000/svg" d="  M34.7280,44.1330 C37.2443,38.8770 38.0385,37.4400 39.1913,35.6798 C41.8823,31.5720 45.0818,30.4822 46.0718,29.2095 C47.4900,27.3832 46.9755,26.4128 45.7215,25.9365 C44.6168,25.5143 42.8610,25.2750 40.9725,25.6530 C38.9273,26.0618 36.1283,28.1370 35.3370,30.0742 C34.6500,31.7603 33.7740,42.9398 33.6848,41.9835 C33.8243,43.4820 33.8243,43.6035 33.8243,43.6035 L34.7280,44.1330 Z" style="fill-rule: evenodd; fill: #dae3f9; "/>
    <path xmlns="http://www.w3.org/2000/svg" d="  M37.0718,27.8625 C37.0718,27.8625 35.4150,28.9140 34.5652,35.5688 C34.2240,38.2380 33.8197,43.5930 33.8197,43.5930 L33.6802,43.5180 C33.6802,43.5180 33.3082,37.8450 33.5100,35.4952 C33.7867,32.2710 34.4947,30.0547 37.2758,26.5702 L37.0718,27.8625 Z" style="fill-rule: evenodd; fill: #dae3f9; "/>
    <path xmlns="http://www.w3.org/2000/svg" d="  M37.4400,27.8805 C37.4400,27.8805 35.4990,30.8122 34.9702,35.4540 C34.6672,38.1270 33.8250,43.6028 33.8250,43.6028 C33.8250,43.6028 33.6345,38.3647 33.8790,35.5125 C34.1557,32.2898 35.0827,29.3820 37.8660,25.8983 L37.4400,27.8805 Z" style="fill-rule: evenodd; fill: #727376; "/>
    <defs xmlns="http://www.w3.org/2000/svg">
      <radialGradient id="grad4215" cx="50.0000%" cy="50.0000%" r="100.0000%">
        <stop offset="0%" stop-color="#6f4923" stop-opacity="1.0000"/>
        <stop offset="100%" stop-color="#e5c2a0" stop-opacity="1.0000"/>
      </radialGradient>
    </defs>
    <path xmlns="http://www.w3.org/2000/svg" d="  M46.9583,27.1522 C46.8893,26.7052 46.7985,26.6820 46.7985,26.6820 C46.7985,26.6820 45.8363,21.4575 45.8100,21.2070 C45.6473,19.6087 44.3978,19.0912 41.7570,19.0912 C39.1170,19.0912 36.9758,20.3197 36.9758,21.8355 C36.9758,22.1370 36.7763,29.2800 36.9098,29.7690 C37.3200,31.3072 39.8250,31.9710 42.5040,31.2532 C45.1800,30.5347 47.1953,28.7257 46.9583,27.1522 Z" style="fill-rule: evenodd; fill: url(#grad4215); "/>
    <path xmlns="http://www.w3.org/2000/svg" d="  M48.2490,15.4507 C47.4833,14.9985 46.2360,15.7380 45.4658,17.1000 C44.6940,18.4620 44.6895,19.9327 45.4553,20.3842 C46.2240,20.8350 47.4698,20.0977 48.2400,18.7342 C49.0118,17.3730 49.0133,15.9022 48.2490,15.4507 Z" style="fill-rule: evenodd; fill: #c6a27e; "/>
    <defs xmlns="http://www.w3.org/2000/svg">
      <radialGradient id="grad4216" cx="50.0000%" cy="50.0000%" r="100.0000%">
        <stop offset="0%" stop-color="#6f4923" stop-opacity="1.0000"/>
        <stop offset="100%" stop-color="#e5c2a0" stop-opacity="1.0000"/>
      </radialGradient>
    </defs>
    <path xmlns="http://www.w3.org/2000/svg" d="  M48.2490,16.1992 C47.4833,15.7470 46.2360,16.4857 45.4658,17.8477 C44.6940,19.2097 44.6895,20.6805 45.4553,21.1320 C46.2240,21.5835 47.4698,20.8455 48.2400,19.4835 C49.0118,18.1207 49.0133,16.6507 48.2490,16.1992 Z" style="fill-rule: evenodd; fill: url(#grad4216); "/>
    <defs xmlns="http://www.w3.org/2000/svg">
      <radialGradient id="grad4217" cx="50.0000%" cy="50.0000%" r="100.0000%">
        <stop offset="0%" stop-color="#ebc8a7" stop-opacity="1.0000"/>
        <stop offset="100%" stop-color="#805a34" stop-opacity="1.0000"/>
      </radialGradient>
    </defs>
    <path xmlns="http://www.w3.org/2000/svg" d="  M46.2270,17.3317 C46.2270,22.9882 43.4925,27.3742 39.5633,27.3742 C35.6363,27.3742 32.4518,22.7895 32.4518,17.1337 C32.4518,11.4772 33.5828,7.2022 39.5633,6.8917 C43.4865,6.6877 46.2270,11.6745 46.2270,17.3317 Z" style="fill-rule: evenodd; fill: url(#grad4217); "/>
    <path xmlns="http://www.w3.org/2000/svg" d="  M39.2385,26.9325 C39.2678,26.9333 39.2970,26.9363 39.3293,26.9363 C43.0328,26.9363 45.6195,22.8270 45.6563,17.5087 C45.1433,21.6375 42.3630,26.2845 39.2385,26.9325 Z" style="fill-rule: evenodd; fill: #ac8660; "/>
    <path xmlns="http://www.w3.org/2000/svg" d="  M48.2370,15.5040 C49.0853,15.7957 48.8288,17.6445 48.8055,17.8897 C50.5208,13.2780 49.2330,8.4210 47.0183,6.8610 C46.2930,6.3510 44.5838,5.1930 41.0828,5.0835 C44.5560,6.8610 45.3030,12.7200 44.5238,13.1580 C45.9195,12.9142 46.1468,16.2202 46.1468,16.2202 C46.1468,16.2202 46.9395,15.0577 48.2370,15.5040 Z" style="fill-rule: evenodd; fill: #3d3d3d; "/>
    <defs xmlns="http://www.w3.org/2000/svg">
      <radialGradient id="grad4218" cx="50.0000%" cy="50.0000%" r="100.0000%">
        <stop offset="0%" stop-color="#8e8e8e" stop-opacity="1.0000"/>
        <stop offset="100%" stop-color="#4f4f4f" stop-opacity="1.0000"/>
      </radialGradient>
    </defs>
    <path xmlns="http://www.w3.org/2000/svg" d="  M47.9558,9.4702 A7.7505,4.4490 180.0000 1,1 40.2053,5.0212 A7.7505,4.4490 180.0000 0,1 47.9558,9.4702 Z" style="fill-rule: evenodd; fill: url(#grad4218); "/>
    <defs xmlns="http://www.w3.org/2000/svg" xmlns:xlink="http://www.w3.org/1999/xlink">
      <linearGradient id="grad4219">
        <stop offset="0%" stop-color="#7f8787" stop-opacity="1.0000"/>
        <stop offset="100%" stop-color="#dae1e1" stop-opacity="1.0000"/>
      </linearGradient>
      <linearGradient xlink:href="#grad4219" id="grad4220" x1="0" y1="0" x2="0" y2="1" gradientTransform="rotate(135 .5 .5)" gradientUnits="objectBoundingBox">
  </linearGradient>
    </defs>
    <path xmlns="http://www.w3.org/2000/svg" d="  M45.6060,13.8742 C45.6045,13.8742 45.2063,13.0785 44.3768,13.1415 C43.5473,13.2045 42.3788,13.5577 40.0148,13.4662 C36.3758,13.4632 33.5678,12.1417 32.7773,10.1977 C32.7615,10.1595 32.7818,10.1160 32.8185,10.1010 C32.8583,10.0852 32.9003,10.1032 32.9168,10.1415 C33.6578,11.9917 37.1460,12.8430 39.6083,12.9825 C41.4848,13.0875 43.3215,12.8355 44.2958,12.8820 C45.2693,12.9277 45.6060,13.8742 45.6060,13.8742 Z" style="fill-rule: evenodd; fill: url(#grad4220); "/>
    <defs xmlns="http://www.w3.org/2000/svg" xmlns:xlink="http://www.w3.org/1999/xlink">
      <linearGradient id="grad4221">
        <stop offset="0%" stop-color="#080808" stop-opacity="1.0000"/>
        <stop offset="100%" stop-color="#c4c5c6" stop-opacity="1.0000"/>
      </linearGradient>
      <linearGradient xlink:href="#grad4221" id="grad4222" x1="0" y1="0" x2="0" y2="1" gradientTransform="rotate(315 .5 .5)" gradientUnits="objectBoundingBox">
  </linearGradient>
    </defs>
    <path xmlns="http://www.w3.org/2000/svg" d="  M32.1592,21.6825 C31.8660,21.4718 30.4875,20.5725 30.4875,20.5725 C30.4875,20.5725 30.0015,20.4683 29.9467,20.4638 C29.6565,20.4353 29.2785,20.7060 29.0295,21.1455 C28.7587,21.6248 28.7377,22.1340 28.9590,22.3500 L29.3512,22.6920 C29.3512,22.6920 30.7867,23.4533 31.1167,23.5920 C31.4137,23.7150 32.2110,23.7173 32.2110,23.7173 L32.9257,22.4528 C32.9265,22.4535 32.4562,21.9000 32.1592,21.6825 Z" style="fill-rule: evenodd; fill: url(#grad4222); "/>
    <g xmlns="http://www.w3.org/2000/svg" id="Layer1113">
      <path d="  M29.6025,21.4358 C29.8987,20.9153 30.3555,20.6153 30.6817,20.7023 C30.6615,20.6850 30.5557,20.6220 30.5325,20.6078 C30.2085,20.4173 29.6812,20.7293 29.3565,21.3053 C29.0295,21.8820 29.0280,22.5030 29.3520,22.6935 C29.3827,22.7115 29.5057,22.7655 29.5410,22.7745 C29.2822,22.5435 29.2995,21.9728 29.6025,21.4358 Z" style="stroke-width: 0.0196; stroke-linecap: butt; stroke-linejoin: miter; fill-rule: evenodd; fill: #cdcfcf; "/>
      <path d="  M29.6025,21.4358 C29.8987,20.9153 30.3555,20.6153 30.6817,20.7023 C30.6615,20.6850 30.5557,20.6220 30.5325,20.6078 C30.2085,20.4173 29.6812,20.7293 29.3565,21.3053 C29.0295,21.8820 29.0280,22.5030 29.3520,22.6935 C29.3827,22.7115 29.5057,22.7655 29.5410,22.7745 C29.2822,22.5435 29.2995,21.9728 29.6025,21.4358 Z" style="stroke-width: 0.0196; stroke: #000000; stroke-dasharray: none; stroke-linecap: butt; stroke-linejoin: miter; fill: none; "/>
    </g>
    <path xmlns="http://www.w3.org/2000/svg" d="  M32.9265,22.4535 C32.7315,22.3380 32.4120,22.5270 32.2147,22.8765 C32.0167,23.2253 32.0152,23.6018 32.2117,23.7180 C32.4082,23.8328 32.7277,23.6445 32.9250,23.2950 C33.1245,22.9455 33.1260,22.5690 32.9265,22.4535 Z" style="fill-rule: evenodd; fill: #333333; "/>
    <defs xmlns="http://www.w3.org/2000/svg" xmlns:xlink="http://www.w3.org/1999/xlink">
      <linearGradient id="grad4223">
        <stop offset="0%" stop-color="#080808" stop-opacity="1.0000"/>
        <stop offset="100%" stop-color="#c4c5c6" stop-opacity="1.0000"/>
      </linearGradient>
      <linearGradient xlink:href="#grad4223" id="grad4224" x1="0" y1="0" x2="0" y2="1" gradientTransform="rotate(90 .5 .5)" gradientUnits="objectBoundingBox">
  </linearGradient>
    </defs>
    <path xmlns="http://www.w3.org/2000/svg" d="  M49.0380,16.1010 C48.0578,15.5235 46.4640,16.4678 45.4755,18.2100 C44.4907,19.9523 44.4870,21.8325 45.4665,22.4108 C46.4453,22.9883 48.0420,22.0433 49.0260,20.3010 C50.0123,18.5588 50.0182,16.6785 49.0380,16.1010 Z" style="fill-rule: evenodd; fill: url(#grad4224); "/>
    <defs xmlns="http://www.w3.org/2000/svg">
      <radialGradient id="grad4225" cx="50.0000%" cy="50.0000%" r="100.0000%">
        <stop offset="0%" stop-color="#ffffff" stop-opacity="1.0000"/>
        <stop offset="100%" stop-color="#669999" stop-opacity="1.0000"/>
      </radialGradient>
    </defs>
    <path xmlns="http://www.w3.org/2000/svg" d="  M48.6413,16.8023 C47.8778,16.3523 46.6388,17.0865 45.8715,18.4425 C45.1058,19.7970 45.1013,21.2595 45.8640,21.7088 C46.6260,22.1580 47.8665,21.4230 48.6323,20.0685 C49.4003,18.7133 49.4048,17.2515 48.6413,16.8023 Z" style="fill-rule: evenodd; fill: url(#grad4225); "/>
    <defs xmlns="http://www.w3.org/2000/svg">
      <linearGradient id="grad4226">
        <stop offset="0%" stop-color="#080808" stop-opacity="1.0000"/>
        <stop offset="100%" stop-color="#c4c5c6" stop-opacity="1.0000"/>
      </linearGradient>
    </defs>
    <path xmlns="http://www.w3.org/2000/svg" d="  M47.8342,18.7860 C47.7847,18.7568 47.7202,18.7650 47.6542,18.8010 L47.6542,18.7995 L47.6497,18.8033 C47.6452,18.8055 47.6407,18.8070 47.6377,18.8100 L47.0505,19.1498 L47.0490,19.1543 C46.9725,19.1918 46.8937,19.2683 46.8337,19.3733 C46.7280,19.5608 46.7280,19.7633 46.8322,19.8248 C46.8832,19.8555 46.9492,19.8458 47.0167,19.8090 L47.0167,19.8105 L47.6392,19.4468 L47.6392,19.4453 C47.7097,19.4040 47.7802,19.3328 47.8327,19.2383 C47.9400,19.0508 47.9400,18.8490 47.8342,18.7860 Z" style="fill-rule: evenodd; fill: url(#grad4226); "/>
    <defs xmlns="http://www.w3.org/2000/svg" xmlns:xlink="http://www.w3.org/1999/xlink">
      <linearGradient id="grad4227">
        <stop offset="0%" stop-color="#ffffff" stop-opacity="1.0000"/>
        <stop offset="100%" stop-color="#669999" stop-opacity="1.0000"/>
      </linearGradient>
      <linearGradient xlink:href="#grad4227" id="grad4228" x1="0" y1="0" x2="0" y2="1" gradientTransform="rotate(90 .5 .5)" gradientUnits="objectBoundingBox">
  </linearGradient>
    </defs>
    <path xmlns="http://www.w3.org/2000/svg" d="  M46.1160,20.7750 C45.9533,20.6798 45.6870,20.8373 45.5228,21.1275 C45.4995,21.1703 45.4785,21.2123 45.4613,21.2535 C45.5565,21.4493 45.6885,21.6068 45.8640,21.7095 C45.8790,21.7178 45.8933,21.7238 45.9083,21.7305 C45.9833,21.6675 46.0560,21.5813 46.1145,21.4778 C46.2788,21.1853 46.2788,20.8718 46.1160,20.7750 Z" style="fill-rule: evenodd; fill: url(#grad4228); "/>
    <path xmlns="http://www.w3.org/2000/svg" d="  M45.9390,20.8575 C45.8625,20.8133 45.7575,20.8425 45.6578,20.9243 L40.6643,23.8133 C39.9960,24.2033 38.7435,24.5130 37.4490,24.5115 C36.3578,24.5123 35.2297,24.2955 34.3568,23.7810 L32.7480,22.8630 C32.7465,22.8623 32.7450,22.8600 32.7435,22.8593 C32.6587,22.8090 32.5207,22.8908 32.4360,23.0415 C32.3497,23.1923 32.3497,23.3558 32.4330,23.4053 C32.4405,23.4083 34.0440,24.3195 34.0440,24.3195 C35.0475,24.9098 36.2752,25.1325 37.4482,25.1340 C38.8410,25.1310 40.1550,24.8213 40.9770,24.3525 L45.5250,21.7223 C45.7275,21.5903 45.8798,21.4800 45.9368,21.3788 C46.0590,21.1613 46.0605,20.9295 45.9390,20.8575 Z" style="fill-rule: evenodd; fill: #333333; "/>
    <path xmlns="http://www.w3.org/2000/svg" d="  M19.7325,54.5160 C19.7325,54.5160 22.2825,49.8023 23.9558,47.2478 C26.3318,43.6208 27.1170,43.0155 27.9923,41.8890 C29.0903,40.4753 28.2675,38.7848 27.6863,38.5620 C26.7075,38.1900 25.7820,37.8000 24.1140,38.1345 C22.3073,38.4960 20.7255,39.8985 20.0265,41.6093 C18.3030,45.8355 18.5018,50.6738 18.6930,52.5623 C18.8063,53.6858 18.9533,54.0608 18.9533,54.0608 L19.7325,54.5160 Z" style="fill-rule: evenodd; fill: #d0e9dc; "/>
    <defs xmlns="http://www.w3.org/2000/svg">
      <radialGradient id="grad4229" cx="50.0000%" cy="50.0000%" r="100.0000%">
        <stop offset="0%" stop-color="#a2c475" stop-opacity="1.0000"/>
        <stop offset="100%" stop-color="#688843" stop-opacity="1.0000"/>
      </radialGradient>
    </defs>
    <path xmlns="http://www.w3.org/2000/svg" d="  M13.2420,48.1178 C13.3988,46.2488 13.6320,44.0730 14.1750,42.6758 C15.6270,38.9408 20.6498,37.3470 24.0563,37.2383 C22.4228,38.0835 21.2820,39.6758 20.7038,41.0940 C18.9788,45.3203 19.3515,54.0855 19.4288,54.3345 C18.4733,53.7780 16.9687,52.9005 16.1213,52.3860 C14.3355,51.2993 13.2398,49.8345 13.2398,48.2198 C13.2398,48.1883 13.2420,48.1515 13.2420,48.1178 Z" style="fill-rule: evenodd; fill: url(#grad4229); "/>
    <path xmlns="http://www.w3.org/2000/svg" d="  M19.4287,54.3345 C19.4287,54.3345 18.0967,50.3032 18.7980,45.9585 C19.3357,42.6247 21.2190,38.2605 21.2190,38.2605 L21.5542,38.1007 C21.5542,38.1007 19.5615,45.3705 19.4317,46.4152 C19.1467,48.6862 19.4287,54.3345 19.4287,54.3345 Z" style="fill-rule: evenodd; fill: #bfc5ce; "/>
    <path xmlns="http://www.w3.org/2000/svg" d="  M19.4287,54.3345 C19.4287,54.3345 18.7995,48.7957 19.1227,46.5315 C19.6695,42.7080 21.3652,38.5200 21.3652,38.5200 C21.3652,38.5200 19.9732,44.0115 19.6777,46.5180 C19.3005,49.7332 19.4287,54.3345 19.4287,54.3345 Z" style="fill-rule: evenodd; fill: #727376; "/>
    <defs xmlns="http://www.w3.org/2000/svg">
      <radialGradient id="grad4230" cx="50.0000%" cy="50.0000%" r="100.0000%">
        <stop offset="0%" stop-color="#ebc8a7" stop-opacity="1.0000"/>
        <stop offset="100%" stop-color="#805a34" stop-opacity="1.0000"/>
      </radialGradient>
    </defs>
    <path xmlns="http://www.w3.org/2000/svg" d="  M28.8382,38.7983 C28.7955,38.6340 28.4760,32.7810 28.4528,32.5433 C28.3230,31.2720 27.2760,30.8603 25.1768,30.8603 C23.0775,30.8603 20.8283,31.6643 20.8283,32.8703 C20.8283,33.1088 20.9370,40.3238 20.8148,40.7085 C19.6485,44.4353 22.3493,45.7125 25.2570,44.7780 C27.3847,44.2080 29.1645,40.0200 28.8382,38.7983 Z" style="fill-rule: evenodd; fill: url(#grad4230); "/>
    <defs xmlns="http://www.w3.org/2000/svg">
      <radialGradient id="grad4231" cx="50.0000%" cy="50.0000%" r="100.0000%">
        <stop offset="0%" stop-color="#a2c475" stop-opacity="1.0000"/>
        <stop offset="100%" stop-color="#688843" stop-opacity="1.0000"/>
      </radialGradient>
    </defs>
    <path xmlns="http://www.w3.org/2000/svg" d="  M27.8025,41.5740 C28.5195,40.5502 28.9185,39.1845 28.7970,38.2927 C31.7370,39.3622 33.9870,40.9425 34.7633,41.5095 C38.1060,43.9485 38.1015,49.9965 38.1015,50.1757 C38.1015,53.5305 33.3630,56.2508 27.5175,56.2508 C24.5940,56.2508 21.9945,55.8188 20.0797,54.7170 C19.9230,54.6262 19.8765,54.5985 19.7100,54.5018 C19.9478,53.7795 21.7470,49.6080 23.2920,47.2477 C25.6710,43.6207 26.9858,42.7432 27.8025,41.5740 Z" style="fill-rule: evenodd; fill: url(#grad4231); "/>
    <path xmlns="http://www.w3.org/2000/svg" d="  M30.0030,28.3185 C29.3933,27.9600 28.4040,28.5473 27.7890,29.6303 C27.1770,30.7140 27.1740,31.8833 27.7823,32.2417 C28.3920,32.6010 29.3813,32.0145 29.9955,30.9308 C30.6090,29.8478 30.6120,28.6778 30.0030,28.3185 Z" style="fill-rule: evenodd; fill: #ebc8a7; "/>
    <defs xmlns="http://www.w3.org/2000/svg">
      <radialGradient id="grad4232" cx="50.0000%" cy="50.0000%" r="100.0000%">
        <stop offset="0%" stop-color="#6f4923" stop-opacity="1.0000"/>
        <stop offset="100%" stop-color="#e5c2a0" stop-opacity="1.0000"/>
      </radialGradient>
    </defs>
    <path xmlns="http://www.w3.org/2000/svg" d="  M30.0030,28.9133 C29.3933,28.5555 28.4040,29.1435 27.7890,30.2258 C27.1770,31.3080 27.1740,32.4773 27.7823,32.8373 C28.3920,33.1965 29.3813,32.6085 29.9955,31.5263 C30.6090,30.4425 30.6120,29.2725 30.0030,28.9133 Z" style="fill-rule: evenodd; fill: url(#grad4232); "/>
    <defs xmlns="http://www.w3.org/2000/svg">
      <radialGradient id="grad4233" cx="0.0000%" cy="0.0000%" r="100.0000%">
        <stop offset="0%" stop-color="#e1d6aa" stop-opacity="1.0000"/>
        <stop offset="100%" stop-color="#7a6637" stop-opacity="1.0000"/>
      </radialGradient>
    </defs>
    <path xmlns="http://www.w3.org/2000/svg" d="  M16.8143,29.6753 C16.8150,29.6985 16.8150,29.7210 16.8150,29.7443 C16.8653,32.3198 17.5590,34.6410 18.6945,36.2910 C18.4448,36.5753 18.2918,36.9457 18.2918,37.3545 C18.2918,37.6830 18.3893,37.9875 18.5595,38.2425 C16.7423,38.0918 15.3045,36.2768 15.3045,34.0530 C15.3045,32.6243 15.9030,30.8400 16.8143,29.6753 Z" style="fill-rule: evenodd; fill: url(#grad4233); "/>
    <defs xmlns="http://www.w3.org/2000/svg">
      <radialGradient id="grad4234" cx="50.0000%" cy="50.0000%" r="100.0000%">
        <stop offset="0%" stop-color="#fee8c5" stop-opacity="1.0000"/>
        <stop offset="100%" stop-color="#ebc8a7" stop-opacity="1.0000"/>
      </radialGradient>
    </defs>
    <path xmlns="http://www.w3.org/2000/svg" d="  M28.7843,29.9198 C28.7843,34.9163 26.3685,38.7923 22.8983,38.7923 C19.4295,38.7923 16.9140,34.7408 16.8158,29.7443 C16.7018,23.8073 17.6153,20.9708 22.8983,20.6963 C26.3633,20.5170 28.7843,24.9233 28.7843,29.9198 Z" style="fill-rule: evenodd; fill: url(#grad4234); "/>
    <path xmlns="http://www.w3.org/2000/svg" d="  M22.8135,38.5140 C22.8412,38.5155 22.8660,38.5185 22.8937,38.5185 C26.1660,38.5185 28.4520,34.8870 28.4828,30.1898 C28.0320,33.8355 25.5750,37.9425 22.8135,38.5140 Z" style="fill-rule: evenodd; fill: #fee8c5; "/>
    <defs xmlns="http://www.w3.org/2000/svg" xmlns:xlink="http://www.w3.org/1999/xlink">
      <linearGradient id="grad4235">
        <stop offset="0%" stop-color="#7a6637" stop-opacity="1.0000"/>
        <stop offset="100%" stop-color="#b5a362" stop-opacity="1.0000"/>
      </linearGradient>
      <linearGradient xlink:href="#grad4235" id="grad4236" x1="0" y1="0" x2="0" y2="1" gradientTransform="rotate(90 .5 .5)" gradientUnits="objectBoundingBox">
  </linearGradient>
    </defs>
    <path xmlns="http://www.w3.org/2000/svg" d="  M15.1868,20.6775 C15.2423,19.1310 18.9345,17.6880 22.6575,17.7435 C25.3695,17.7840 27.6232,18.6413 29.1195,19.8570 C29.2207,19.9268 29.3085,19.9935 29.3857,20.0483 C29.8943,20.4240 30.6765,21.3023 30.6765,21.3023 C32.1323,23.0790 34.0717,27.8903 33.2782,32.4278 C32.1945,38.6168 28.5450,38.8793 25.6208,38.3588 C25.6208,38.3588 27.9495,36.3300 28.4737,32.8995 C29.0033,32.7308 29.5567,32.3033 29.9962,31.5255 C30.3697,30.8663 30.5062,30.2640 30.4372,29.6565 C30.4560,28.8975 30.3712,28.5345 30.0037,28.3170 C29.6535,28.1115 29.1773,28.2188 28.7190,28.5533 C28.7040,28.3695 28.6680,27.8198 28.4535,26.9805 C28.3005,26.8058 28.0965,26.6730 27.8182,26.6280 C27.3255,26.5478 25.9822,27.4688 24.5910,27.0975 C23.1623,26.7173 22.9702,25.8990 19.8315,24.4845 C17.8433,23.5875 17.4135,24.0248 17.4135,24.0248 C17.4135,24.0248 17.1855,23.8065 16.3553,22.9470 C15.2933,21.8513 15.1868,20.7300 15.1868,20.7300 C15.1868,20.7300 15.1935,20.7300 15.1950,20.7300 C15.1935,20.7135 15.1868,20.6948 15.1868,20.6775 Z" style="fill-rule: evenodd; fill: url(#grad4236); "/>
    <defs xmlns="http://www.w3.org/2000/svg">
      <radialGradient id="grad4237" cx="50.0000%" cy="50.0000%" r="100.0000%">
        <stop offset="0%" stop-color="#b5a362" stop-opacity="1.0000"/>
        <stop offset="100%" stop-color="#7a6637" stop-opacity="1.0000"/>
      </radialGradient>
    </defs>
    <path xmlns="http://www.w3.org/2000/svg" d="  M30.4890,23.7893 C30.4890,23.7893 31.8848,26.4578 32.1270,28.9448 C32.3700,31.4318 31.8870,33.4943 31.1078,34.7648 C30.3007,36.0818 30.1118,35.1750 30.2273,34.8060 C30.4350,34.1453 31.3538,32.4713 31.0988,29.1855 C30.9682,27.4920 29.3250,24.7448 29.3250,24.7448 L30.4890,23.7893 Z" style="fill-rule: evenodd; fill: url(#grad4237); "/>
    <defs xmlns="http://www.w3.org/2000/svg">
      <radialGradient id="grad4238" cx="100.0000%" cy="0.0000%" r="100.0000%">
        <stop offset="0%" stop-color="#e1d6aa" stop-opacity="1.0000"/>
        <stop offset="100%" stop-color="#b5a362" stop-opacity="1.0000"/>
      </radialGradient>
    </defs>
    <path xmlns="http://www.w3.org/2000/svg" d="  M15.3428,20.1548 C16.1010,18.8295 19.3583,17.6940 22.6575,17.7443 C27.0150,17.8110 30.1890,19.9770 30.9390,22.3628 C31.4017,23.8305 30.4860,24.7875 29.4945,25.3208 C28.5015,25.8548 25.0980,26.4353 22.2120,24.4860 C21.5085,24.0128 20.0280,23.1518 19.3245,22.7310 C17.4908,21.6345 14.9160,20.8973 15.3428,20.1548 Z" style="fill-rule: evenodd; fill: url(#grad4238); "/>
    <defs xmlns="http://www.w3.org/2000/svg" xmlns:xlink="http://www.w3.org/1999/xlink">
      <linearGradient id="grad4239">
        <stop offset="0%" stop-color="#080808" stop-opacity="1.0000"/>
        <stop offset="100%" stop-color="#c4c5c6" stop-opacity="1.0000"/>
      </linearGradient>
      <linearGradient xlink:href="#grad4239" id="grad4240" x1="0" y1="0" x2="0" y2="1" gradientTransform="rotate(315 .5 .5)" gradientUnits="objectBoundingBox">
  </linearGradient>
    </defs>
    <path xmlns="http://www.w3.org/2000/svg" d="  M13.8472,34.7303 C13.5555,34.5195 12.1770,33.6188 12.1770,33.6188 C12.1770,33.6188 11.6902,33.5160 11.6355,33.5100 C11.3445,33.4838 10.9687,33.7530 10.7175,34.1940 C10.4475,34.6718 10.4257,35.1810 10.6477,35.3978 L11.0400,35.7390 C11.0400,35.7390 12.4755,36.5010 12.8062,36.6383 C13.1010,36.7628 13.8990,36.7628 13.8990,36.7628 L14.6137,35.4998 C14.6152,35.5013 14.1450,34.9470 13.8472,34.7303 Z" style="fill-rule: evenodd; fill: url(#grad4240); "/>
    <g xmlns="http://www.w3.org/2000/svg" id="Layer1114">
      <path d="  M11.2942,34.4828 C11.5875,33.9630 12.0450,33.6623 12.3705,33.7485 C12.3510,33.7313 12.2452,33.6683 12.2227,33.6548 C11.8980,33.4628 11.3722,33.7748 11.0467,34.3523 C10.7190,34.9283 10.7182,35.5493 11.0422,35.7398 C11.0730,35.7585 11.1967,35.8118 11.2320,35.8215 C10.9710,35.5905 10.9897,35.0205 11.2942,34.4828 Z" style="stroke-width: 0.0196; stroke-linecap: butt; stroke-linejoin: miter; fill-rule: evenodd; fill: #cdcfcf; "/>
      <path d="  M11.2942,34.4828 C11.5875,33.9630 12.0450,33.6623 12.3705,33.7485 C12.3510,33.7313 12.2452,33.6683 12.2227,33.6548 C11.8980,33.4628 11.3722,33.7748 11.0467,34.3523 C10.7190,34.9283 10.7182,35.5493 11.0422,35.7398 C11.0730,35.7585 11.1967,35.8118 11.2320,35.8215 C10.9710,35.5905 10.9897,35.0205 11.2942,34.4828 Z" style="stroke-width: 0.0196; stroke: #000000; stroke-dasharray: none; stroke-linecap: butt; stroke-linejoin: miter; fill: none; "/>
    </g>
    <path xmlns="http://www.w3.org/2000/svg" d="  M14.6152,35.5013 C14.4187,35.3858 14.1000,35.5748 13.9027,35.9243 C13.7047,36.2730 13.7047,36.6495 13.9005,36.7635 C14.0985,36.8790 14.4157,36.6900 14.6137,36.3413 C14.8117,35.9925 14.8132,35.6153 14.6152,35.5013 Z" style="fill-rule: evenodd; fill: #333333; "/>
    <defs xmlns="http://www.w3.org/2000/svg" xmlns:xlink="http://www.w3.org/1999/xlink">
      <linearGradient id="grad4241">
        <stop offset="0%" stop-color="#080808" stop-opacity="1.0000"/>
        <stop offset="100%" stop-color="#c4c5c6" stop-opacity="1.0000"/>
      </linearGradient>
      <linearGradient xlink:href="#grad4241" id="grad4242" x1="0" y1="0" x2="0" y2="1" gradientTransform="rotate(90 .5 .5)" gradientUnits="objectBoundingBox">
  </linearGradient>
    </defs>
    <path xmlns="http://www.w3.org/2000/svg" d="  M30.7275,29.1480 C29.7457,28.5705 28.1520,29.5155 27.1650,31.2578 C26.1795,32.9993 26.1750,34.8803 27.1560,35.4578 C28.1355,36.0353 29.7292,35.0918 30.7155,33.3495 C31.7032,31.6058 31.7077,29.7248 30.7275,29.1480 Z" style="fill-rule: evenodd; fill: url(#grad4242); "/>
    <defs xmlns="http://www.w3.org/2000/svg">
      <radialGradient id="grad4243" cx="50.0000%" cy="50.0000%" r="100.0000%">
        <stop offset="0%" stop-color="#ffffff" stop-opacity="1.0000"/>
        <stop offset="100%" stop-color="#669999" stop-opacity="1.0000"/>
      </radialGradient>
    </defs>
    <path xmlns="http://www.w3.org/2000/svg" d="  M30.3308,29.8493 C29.5673,29.3993 28.3290,30.1350 27.5602,31.4903 C26.7937,32.8455 26.7907,34.3073 27.5535,34.7558 C28.3147,35.2058 29.5553,34.4715 30.3203,33.1163 C31.0898,31.7595 31.0928,30.2978 30.3308,29.8493 Z" style="fill-rule: evenodd; fill: url(#grad4243); "/>
    <defs xmlns="http://www.w3.org/2000/svg">
      <linearGradient id="grad4244">
        <stop offset="0%" stop-color="#080808" stop-opacity="1.0000"/>
        <stop offset="100%" stop-color="#c4c5c6" stop-opacity="1.0000"/>
      </linearGradient>
    </defs>
    <path xmlns="http://www.w3.org/2000/svg" d="  M29.5222,31.8330 C29.4727,31.8038 29.4097,31.8128 29.3422,31.8488 L29.3422,31.8473 L29.3377,31.8503 C29.3347,31.8518 29.3302,31.8548 29.3257,31.8578 L28.7400,32.1975 L28.7400,32.2020 C28.6620,32.2388 28.5825,32.3160 28.5232,32.4203 C28.4160,32.6093 28.4152,32.8110 28.5210,32.8733 C28.5720,32.9040 28.6372,32.8935 28.7062,32.8575 L28.7062,32.8590 L29.3287,32.4960 L29.3287,32.4945 C29.3992,32.4533 29.4697,32.3805 29.5207,32.2868 C29.6280,32.0978 29.6295,31.8960 29.5222,31.8330 Z" style="fill-rule: evenodd; fill: url(#grad4244); "/>
    <defs xmlns="http://www.w3.org/2000/svg" xmlns:xlink="http://www.w3.org/1999/xlink">
      <linearGradient id="grad4245">
        <stop offset="0%" stop-color="#ffffff" stop-opacity="1.0000"/>
        <stop offset="100%" stop-color="#669999" stop-opacity="1.0000"/>
      </linearGradient>
      <linearGradient xlink:href="#grad4245" id="grad4246" x1="0" y1="0" x2="0" y2="1" gradientTransform="rotate(90 .5 .5)" gradientUnits="objectBoundingBox">
  </linearGradient>
    </defs>
    <path xmlns="http://www.w3.org/2000/svg" d="  M27.8055,33.8220 C27.6398,33.7253 27.3750,33.8835 27.2115,34.1738 C27.1875,34.2165 27.1680,34.2585 27.1500,34.3013 C27.2460,34.4963 27.3780,34.6545 27.5535,34.7550 C27.5678,34.7655 27.5820,34.7700 27.5970,34.7783 C27.6743,34.7123 27.7448,34.6275 27.8025,34.5233 C27.9683,34.2338 27.9683,33.9188 27.8055,33.8220 Z" style="fill-rule: evenodd; fill: url(#grad4246); "/>
    <path xmlns="http://www.w3.org/2000/svg" d="  M27.6285,33.9060 C27.5505,33.8603 27.4455,33.8903 27.3457,33.9720 L22.3545,36.8610 C21.6848,37.2510 20.4338,37.5615 19.1363,37.5585 C18.0450,37.5600 16.9177,37.3433 16.0462,36.8288 L14.4368,35.9100 C14.4345,35.9100 14.4345,35.9070 14.4330,35.9055 C14.3482,35.8560 14.2102,35.9378 14.1248,36.0885 C14.0392,36.2393 14.0392,36.4020 14.1225,36.4515 C14.1285,36.4560 15.7335,37.3658 15.7335,37.3658 C16.7385,37.9560 17.9655,38.1803 19.1363,38.1803 C20.5328,38.1773 21.8460,37.8683 22.6658,37.3995 L27.2153,34.7685 C27.4185,34.6350 27.5693,34.5255 27.6255,34.4243 C27.7478,34.2090 27.7493,33.9758 27.6285,33.9060 Z" style="fill-rule: evenodd; fill: #333333; "/>
    <!--converted by libvisio2svg-->
  </g>
</svg>
