<svg xmlns="http://www.w3.org/2000/svg" xmlns:xlink="http://www.w3.org/1999/xlink" version="1.1" width="0.7851000000" height="0.8046000000" viewBox="0 0 56.5245 57.9345">
  <title><![CDATA[Response Group Server]]></title>
  <g transform=" scale(1.000000) ">
    <path xmlns="http://www.w3.org/2000/svg" d="  M33.0000,8.9775 L22.6275,2.7420 L0.0000,15.7492 L0.0000,48.3195 L0.5017,48.6142 C1.8465,50.3333 4.6327,51.9735 7.7085,52.8465 L11.7165,55.2000 L33.0000,42.9750 L33.0000,40.5690 L33.0000,40.5397 L32.5372,40.3192 L33.0000,40.0538 L33.0000,38.0985 L33.0000,38.0678 L32.5372,37.8480 L33.0000,37.5825 L33.0000,35.6257 L33.0000,35.5958 L32.5695,35.3918 L33.0000,35.1458 L33.0000,9.0083 L33.0000,8.9775 Z" style="stroke-width: 1.5000; stroke: #8d99b5; stroke-dasharray: none; stroke-linecap: butt; stroke-linejoin: miter; fill: none; "/>
    <path xmlns="http://www.w3.org/2000/svg" d="  M26.9018,26.5058 C26.1037,26.0273 24.5768,25.1205 24.5768,25.1205 C24.2168,24.9765 23.8027,24.9338 23.3520,25.0005 C22.9200,24.8932 22.4677,24.8355 22.0027,24.8355 C21.4477,24.8355 20.9122,24.9172 20.4060,25.0687 C20.2485,24.9878 19.6485,24.6735 19.5465,24.5745 C19.4288,24.4598 19.2427,24.2955 19.1647,23.8020 C18.9300,21.9878 18.8017,20.0355 18.8017,18.0008 C18.8017,15.4942 18.9968,13.1122 19.3470,10.9620 L21.6120,12.1320 C21.7778,12.2258 21.9562,12.2940 22.1467,12.3382 C22.1528,12.3398 22.1603,12.3412 22.1662,12.3435 C22.2082,12.3525 22.2502,12.3600 22.2930,12.3667 C22.3050,12.3690 22.3162,12.3713 22.3275,12.3727 C22.3680,12.3787 22.4078,12.3833 22.4490,12.3870 C22.4647,12.3877 22.4790,12.3900 22.4940,12.3907 C22.5338,12.3937 22.5720,12.3953 22.6110,12.3960 C22.6297,12.3967 22.6478,12.3975 22.6665,12.3975 C22.7033,12.3975 22.7415,12.3960 22.7790,12.3945 C22.8000,12.3937 22.8217,12.3923 22.8427,12.3907 C22.8795,12.3885 22.9163,12.3855 22.9530,12.3810 C22.9762,12.3787 23.0003,12.3757 23.0235,12.3727 C23.0602,12.3675 23.0962,12.3623 23.1323,12.3570 C23.1585,12.3525 23.1847,12.3472 23.2102,12.3420 C23.2455,12.3345 23.2808,12.3278 23.3168,12.3202 C23.3445,12.3135 23.3730,12.3060 23.4007,12.2992 C23.4360,12.2902 23.4698,12.2820 23.5050,12.2715 C23.5343,12.2625 23.5650,12.2535 23.5943,12.2438 C23.6287,12.2325 23.6633,12.2228 23.6970,12.2108 C23.7293,12.1988 23.7615,12.1868 23.7937,12.1748 C23.8268,12.1620 23.8597,12.1508 23.8928,12.1365 C23.9272,12.1223 23.9640,12.1065 23.9993,12.0907 C24.0300,12.0765 24.0608,12.0645 24.0922,12.0503 C24.1327,12.0315 24.1740,12.0097 24.2153,11.9895 C24.2415,11.9760 24.2670,11.9647 24.2933,11.9505 C24.3608,11.9152 24.4290,11.8778 24.4972,11.8388 C26.7607,10.5322 28.6013,7.3440 28.6013,4.7303 C28.6013,4.5660 28.5938,4.4078 28.5802,4.2555 C28.5802,4.2540 28.5795,4.2525 28.5795,4.2510 C28.5645,4.1010 28.5442,3.9563 28.5165,3.8190 C28.5165,3.8167 28.5158,3.8145 28.5150,3.8115 C28.4873,3.6750 28.4542,3.5453 28.4137,3.4207 C28.4130,3.4185 28.4122,3.4155 28.4115,3.4133 C28.3710,3.2902 28.3253,3.1733 28.2727,3.0623 C28.2712,3.0607 28.2712,3.0593 28.2697,3.0570 C28.2180,2.9468 28.1602,2.8432 28.0965,2.7465 C28.0957,2.7457 28.0942,2.7443 28.0942,2.7435 C28.0297,2.6460 27.9608,2.5568 27.8872,2.4742 C27.8865,2.4735 27.8865,2.4728 27.8850,2.4728 C27.8100,2.3902 27.7313,2.3145 27.6465,2.2463 C27.6465,2.2455 27.6458,2.2455 27.6458,2.2455 C27.5595,2.1780 27.4703,2.1172 27.3765,2.0648 C27.3960,2.0670 24.6405,0.6615 24.6405,0.6615 C23.8553,0.2393 22.9575,0.0000 22.0035,0.0000 C19.8180,0.0000 17.9265,1.2570 17.0108,3.0863 C15.1500,6.1005 13.9005,11.6490 13.9005,18.0000 C13.9005,24.3510 15.1500,29.8995 17.0100,32.9137 C17.3385,33.5678 17.7908,34.1483 18.3375,34.6253 C18.5385,34.9290 18.7928,35.1645 19.0905,35.3228 C19.0905,35.3228 21.7897,36.9495 21.7373,36.9248 C22.4670,37.2713 23.4367,37.1805 24.4980,36.5670 C26.7615,35.2605 28.6020,32.0715 28.6020,29.4585 C28.6020,29.4420 28.6005,29.4270 28.6005,29.4112 C28.6005,29.3948 28.6020,29.3775 28.6020,29.3610 C28.6013,27.7845 27.9307,26.7735 26.9018,26.5058 Z" style="stroke-width: 1.5000; stroke: #8d99b5; stroke-dasharray: none; stroke-linecap: butt; stroke-linejoin: miter; fill: none; "/>
    <path xmlns="http://www.w3.org/2000/svg" d="  M42.3165,46.3200 C41.7158,45.8820 40.0005,44.6790 37.7550,43.8375 C39.2565,43.4640 40.6058,42.2497 41.1450,39.1650 C41.7720,35.5897 40.2428,31.7993 39.0960,30.3990 C39.0960,30.3990 38.4795,29.7068 38.0790,29.4113 C38.0198,29.3670 37.9492,29.3160 37.8705,29.2605 C36.6915,28.3027 34.9162,27.6270 32.7788,27.5948 C29.8440,27.5498 26.9355,28.6882 26.8912,29.9063 C26.8912,29.9197 26.8965,29.9340 26.8988,29.9490 C26.8972,29.9483 26.8912,29.9483 26.8912,29.9483 C26.8912,29.9483 26.9760,30.8325 27.8115,31.6958 C28.4085,32.3107 28.6087,32.5080 28.6395,32.5387 C28.2345,33.6600 28.1378,35.1540 28.1745,37.0507 L28.1745,36.9967 C27.4567,37.9140 26.9850,39.3202 26.9850,40.4452 C26.9850,41.3220 27.2685,42.1170 27.7312,42.7095 C27.6787,42.6825 27.6195,42.6622 27.5685,42.6322 L26.5290,42.0397 C26.5860,41.8373 26.5583,41.6543 26.4420,41.5867 C26.4420,41.5867 26.0715,41.1502 25.8353,40.9793 C25.6058,40.8128 24.5197,40.1040 24.5197,40.1040 C24.5197,40.1040 24.1365,40.0222 24.0930,40.0185 C23.8642,39.9967 23.5687,40.2105 23.3715,40.5570 C23.1585,40.9342 23.1412,41.3348 23.3167,41.5065 L23.6257,41.7750 C23.6257,41.7750 24.7567,42.3750 25.0170,42.4837 C25.2502,42.5813 25.8780,42.5820 25.8780,42.5820 C25.9852,42.6442 26.1360,42.5880 26.2710,42.4605 C26.6332,42.6660 27.3203,43.0568 27.3203,43.0568 C27.8108,43.3448 28.3687,43.5112 28.9418,43.6042 C29.1368,43.6755 29.3370,43.7287 29.5477,43.7460 C29.5327,43.7235 29.5267,43.6965 29.5132,43.6732 C29.6768,43.6845 29.8410,43.6973 30.0022,43.6973 C30.0803,43.6965 30.1545,43.6867 30.2325,43.6845 C28.4333,44.3512 26.7705,45.4973 26.0932,47.2380 C25.6650,48.3397 25.4820,50.0535 25.3583,51.5257 C25.3575,51.5528 25.3567,51.5813 25.3567,51.6075 C25.3567,52.8780 26.2192,54.0322 27.6277,54.8895 C28.1918,55.2330 29.1247,55.7790 29.8560,56.2050 C29.8567,56.2080 29.8575,56.2095 29.8575,56.2095 L30.4725,56.5680 L30.4725,56.5672 C30.5865,56.6340 30.6293,56.6595 30.7455,56.7263 C32.2545,57.5940 34.3012,57.9345 36.6052,57.9345 C41.2117,57.9345 44.9445,55.7918 44.9445,53.1480 C44.9460,53.0077 44.9490,48.2415 42.3165,46.3200 Z" style="stroke-width: 1.5000; stroke: #8d99b5; stroke-dasharray: none; stroke-linecap: butt; stroke-linejoin: miter; fill: none; "/>
    <path xmlns="http://www.w3.org/2000/svg" d="  M34.3500,39.7080 C34.3492,39.7380 34.3477,39.7703 34.3477,39.8002 C34.3477,41.2387 35.3250,42.5452 36.9187,43.5150 C37.9845,44.1637 39.3593,44.9678 40.4482,45.5933 C42.1553,46.5750 44.4728,46.9605 47.0820,46.9605 C52.2937,46.9605 56.5200,44.5358 56.5200,41.5425 C56.5200,41.3835 56.5245,35.9895 53.5433,33.8137 C52.9140,33.3547 50.8028,31.9417 48.4590,30.9705 C48.3255,30.2693 48.0502,28.7700 47.8657,27.7357 C48.6173,27.7718 49.5772,27.0697 50.2155,25.9425 C50.9212,24.6953 50.9873,23.3610 50.4150,22.7857 C51.1485,19.5630 50.1780,16.4400 48.6322,15.3533 C48.1125,14.9872 46.9462,14.1998 44.6595,13.9965 C44.2110,13.9357 43.7445,13.9035 43.2653,13.9035 C39.8932,13.9035 37.1588,15.4733 37.1588,17.4082 C37.1588,17.9355 37.3627,18.4350 37.7265,18.8843 C37.2900,20.1645 37.1557,21.7230 37.1557,23.4465 C37.1557,25.3852 37.6327,27.1613 38.4232,28.5517 L37.6170,28.0920 C37.6747,27.8895 37.6455,27.7072 37.5300,27.6390 C37.5300,27.6390 37.1595,27.2032 36.9233,27.0315 C36.6930,26.8650 35.6078,26.1562 35.6078,26.1562 C35.6078,26.1562 35.2237,26.0753 35.1810,26.0708 C34.9530,26.0497 34.6560,26.2627 34.4595,26.6092 C34.2458,26.9858 34.2293,27.3870 34.4040,27.5588 L34.6283,27.7538 C34.6523,27.7838 34.6808,27.8085 34.7130,27.8288 C34.7130,27.8288 35.8440,28.4287 36.1042,28.5368 C36.3375,28.6343 36.9660,28.6358 36.9660,28.6358 C37.0732,28.6987 37.2262,28.6447 37.3620,28.5150 C37.7250,28.7213 38.4090,29.1098 38.4090,29.1098 C38.5845,29.2133 38.7705,29.3002 38.9610,29.3760 C39.3525,29.8950 39.7942,30.3383 40.2780,30.6817 C38.0858,31.4100 35.9992,32.7518 35.1810,34.8540 C34.6972,36.1020 34.4895,38.0423 34.3500,39.7080 Z" style="stroke-width: 1.5000; stroke: #8d99b5; stroke-dasharray: none; stroke-linecap: butt; stroke-linejoin: miter; fill: none; "/>
    <path xmlns="http://www.w3.org/2000/svg" d="  M20.0565,43.0620 L33.0000,35.5950 L32.5695,35.3903 L20.0565,42.5363 L20.0565,43.0620 Z" style="fill-rule: evenodd; fill: #404040; "/>
    <path xmlns="http://www.w3.org/2000/svg" d="  M20.0565,45.5340 L33.0000,38.0670 L32.5372,37.8473 L20.0565,45.0083 L20.0565,45.5340 Z" style="fill-rule: evenodd; fill: #404040; "/>
    <path xmlns="http://www.w3.org/2000/svg" d="  M20.0565,48.0067 L33.0000,40.5397 L32.5372,40.3192 L20.0565,47.4802 L20.0565,48.0067 Z" style="fill-rule: evenodd; fill: #404040; "/>
    <defs xmlns="http://www.w3.org/2000/svg" xmlns:xlink="http://www.w3.org/1999/xlink">
      <linearGradient id="grad4298">
        <stop offset="0%" stop-color="#656d6b" stop-opacity="1.0000"/>
        <stop offset="100%" stop-color="#dae1e1" stop-opacity="1.0000"/>
      </linearGradient>
      <linearGradient xlink:href="#grad4298" id="grad4299" x1="0" y1="0" x2="0" y2="1" gradientTransform="rotate(90 .5 .5)" gradientUnits="objectBoundingBox">
  </linearGradient>
    </defs>
    <path xmlns="http://www.w3.org/2000/svg" d="  M11.7165,21.4470 L0.0000,15.7493 L0.0000,48.3195 L0.5017,48.6143 C0.3930,48.4763 0.2933,48.3368 0.2048,48.1972 L0.2048,34.0267 L0.2048,30.8670 L0.2048,24.1035 L0.2048,17.2853 L10.7955,22.5210 C10.7955,22.5210 10.8367,22.5255 10.8570,22.5270 L10.8570,29.3918 L10.8570,36.1073 L10.8570,39.4657 L10.8570,53.4398 C9.8040,53.3453 8.7405,53.1382 7.7092,52.8458 L11.7172,55.1993 L11.7172,21.4470 L11.7165,21.4470 Z" style="fill-rule: evenodd; fill: url(#grad4299); "/>
    <defs xmlns="http://www.w3.org/2000/svg" xmlns:xlink="http://www.w3.org/1999/xlink">
      <linearGradient id="grad4300">
        <stop offset="0%" stop-color="#85929d" stop-opacity="0.9882"/>
        <stop offset="100%" stop-color="#dadfe1" stop-opacity="0.9882"/>
      </linearGradient>
      <linearGradient xlink:href="#grad4300" id="grad4301" x1="0" y1="0" x2="0" y2="1" gradientTransform="rotate(90 .5 .5)" gradientUnits="objectBoundingBox">
  </linearGradient>
    </defs>
    <path xmlns="http://www.w3.org/2000/svg" d="  M10.4085,39.4612 C10.4085,39.5130 10.3470,39.5580 10.2668,39.5580 C10.2600,39.5580 10.2450,39.5580 10.2450,39.5580 C7.0838,39.6052 2.9603,38.1675 0.6300,34.6042 C0.4710,34.4115 0.3270,34.2187 0.2055,34.0267 L0.2055,48.1972 C0.2940,48.3367 0.3945,48.4762 0.5025,48.6142 C1.8473,50.3332 4.6335,51.9735 7.7093,52.8465 C8.7405,53.1390 9.8040,53.3460 10.8570,53.4405 L10.8570,39.4665 C10.7025,39.4530 10.5488,39.4357 10.3928,39.4170 C10.4025,39.4305 10.4085,39.4462 10.4085,39.4612 Z M10.0920,51.6802 C9.9203,52.2240 9.0240,52.4227 8.0910,52.1280 C7.1565,51.8317 6.5393,51.1515 6.7110,50.6100 C6.8828,50.0662 7.7790,49.8667 8.7135,50.1622 C9.6473,50.4577 10.2653,51.1380 10.0920,51.6802 Z M10.2668,49.5082 C10.2600,49.5082 10.2450,49.5082 10.2450,49.5082 C6.9645,49.5570 2.6505,48.0105 0.3750,44.1472 C0.2108,43.8757 0.4065,43.9005 0.4065,43.9005 C1.8465,46.3357 6.0915,48.8925 10.1873,49.3042 C10.2060,49.3057 10.2653,49.3102 10.2720,49.3102 C10.3523,49.3102 10.4085,49.3582 10.4085,49.4115 C10.4085,49.4632 10.3470,49.5082 10.2668,49.5082 Z M10.2668,46.1917 C10.2600,46.1917 10.2450,46.1917 10.2450,46.1917 C6.9653,46.2405 2.6505,44.6932 0.3758,40.8315 C0.2115,40.5592 0.4073,40.5847 0.4073,40.5847 C1.8473,43.0200 6.0923,45.5767 10.1880,45.9877 C10.2068,45.9900 10.2660,45.9945 10.2728,45.9945 C10.3530,45.9945 10.4093,46.0425 10.4093,46.0957 C10.4085,46.1467 10.3470,46.1917 10.2668,46.1917 Z M10.2668,42.8745 C10.2600,42.8745 10.2450,42.8745 10.2450,42.8745 C6.9653,42.9232 2.6505,41.3767 0.3758,37.5142 C0.2115,37.2420 0.4073,37.2682 0.4073,37.2682 C1.8473,39.7027 6.0923,42.2595 10.1880,42.6712 C10.2068,42.6735 10.2660,42.6780 10.2728,42.6780 C10.3530,42.6780 10.4093,42.7260 10.4093,42.7785 C10.4093,42.8310 10.3470,42.8745 10.2668,42.8745 Z" style="fill-rule: evenodd; fill: url(#grad4301); "/>
    <defs xmlns="http://www.w3.org/2000/svg" xmlns:xlink="http://www.w3.org/1999/xlink">
      <linearGradient id="grad4302">
        <stop offset="0%" stop-color="#85929d" stop-opacity="0.9882"/>
        <stop offset="100%" stop-color="#dadfe1" stop-opacity="0.9882"/>
      </linearGradient>
      <linearGradient xlink:href="#grad4302" id="grad4303" x1="0" y1="0" x2="0" y2="1" gradientTransform="rotate(90 .5 .5)" gradientUnits="objectBoundingBox">
  </linearGradient>
    </defs>
    <path xmlns="http://www.w3.org/2000/svg" d="  M10.1873,29.4045 C10.2060,29.4060 10.2653,29.4098 10.2720,29.4098 C10.3523,29.4098 10.4085,29.4585 10.4085,29.5118 C10.4085,29.5635 10.3470,29.6078 10.2668,29.6078 C10.2600,29.6078 10.2450,29.6085 10.2450,29.6085 C7.1295,29.6550 3.0773,28.2578 0.7305,24.8048 C0.5295,24.5730 0.3525,24.3390 0.2048,24.1043 L0.2048,30.8678 C0.4403,31.2368 0.7478,31.6050 1.1130,31.9650 C0.8490,31.6260 0.6015,31.2653 0.3758,30.8813 C0.2115,30.6098 0.4073,30.6353 0.4073,30.6353 C1.3920,32.2995 3.6870,34.0208 6.3495,35.0745 C7.6028,35.5342 8.9378,35.8747 10.2690,36.0442 C10.2698,36.0442 10.2728,36.0450 10.2735,36.0450 C10.2803,36.0450 10.2855,36.0465 10.2915,36.0472 C10.4603,36.0682 10.6275,36.0877 10.7963,36.1035 C10.8165,36.1050 10.8375,36.1080 10.8578,36.1095 L10.8578,29.3940 C8.4923,29.1818 6.0690,28.3965 4.0860,27.3360 C5.8815,28.3928 8.0550,29.1893 10.1873,29.4045 Z M10.2668,32.9243 C10.2600,32.9243 10.2450,32.9250 10.2450,32.9250 C6.9653,32.9730 2.6505,31.4265 0.3758,27.5640 C0.2115,27.2918 0.4065,27.3173 0.4065,27.3173 C1.8465,29.7525 6.0915,32.3093 10.1873,32.7210 C10.2060,32.7225 10.2653,32.7270 10.2720,32.7270 C10.3523,32.7270 10.4085,32.7750 10.4085,32.8283 C10.4085,32.8792 10.3470,32.9243 10.2668,32.9243 Z" style="fill-rule: evenodd; fill: url(#grad4303); "/>
    <defs xmlns="http://www.w3.org/2000/svg" xmlns:xlink="http://www.w3.org/1999/xlink">
      <linearGradient id="grad4304">
        <stop offset="0%" stop-color="#c9d8dd" stop-opacity="0.9882"/>
        <stop offset="100%" stop-color="#f3faf8" stop-opacity="0.9882"/>
      </linearGradient>
      <linearGradient xlink:href="#grad4304" id="grad4305" x1="0" y1="0" x2="0" y2="1" gradientTransform="rotate(90 .5 .5)" gradientUnits="objectBoundingBox">
  </linearGradient>
    </defs>
    <path xmlns="http://www.w3.org/2000/svg" d="  M10.7955,36.1028 C10.6268,36.0870 10.4595,36.0675 10.2908,36.0465 C10.3605,36.0540 10.4085,36.0968 10.4085,36.1448 C10.4085,36.1973 10.3470,36.2415 10.2668,36.2415 C10.2600,36.2415 10.2450,36.2415 10.2450,36.2415 C7.2923,36.2865 3.4995,35.0348 1.1130,31.9650 C0.7478,31.6058 0.4410,31.2368 0.2048,30.8678 L0.2048,34.0275 C0.3263,34.2195 0.4703,34.4123 0.6293,34.6050 C0.5423,34.4723 0.4568,34.3373 0.3750,34.1985 C0.2108,33.9263 0.4065,33.9518 0.4065,33.9518 C1.2675,35.4075 3.1313,36.9060 5.3663,37.9650 C6.4358,38.4720 7.5908,38.8770 8.7615,39.1283 C9.2355,39.2303 9.7125,39.3075 10.1865,39.3563 C10.2053,39.3578 10.2645,39.3623 10.2713,39.3623 C10.3268,39.3623 10.3710,39.3863 10.3913,39.4185 C10.5473,39.4373 10.7010,39.4553 10.8555,39.4680 L10.8555,36.1095 C10.8368,36.1073 10.8158,36.1043 10.7955,36.1028 Z" style="fill-rule: evenodd; fill: url(#grad4305); "/>
    <defs xmlns="http://www.w3.org/2000/svg" xmlns:xlink="http://www.w3.org/1999/xlink">
      <linearGradient id="grad4306">
        <stop offset="0%" stop-color="#bed2dd" stop-opacity="0.9882"/>
        <stop offset="100%" stop-color="#f3faf8" stop-opacity="0.9882"/>
      </linearGradient>
      <linearGradient xlink:href="#grad4306" id="grad4307" x1="0" y1="0" x2="0" y2="1" gradientTransform="rotate(90 .5 .5)" gradientUnits="objectBoundingBox">
  </linearGradient>
    </defs>
    <path xmlns="http://www.w3.org/2000/svg" d="  M10.7955,22.5217 L0.2047,17.2860 L0.2047,24.1042 C0.3525,24.3390 0.5302,24.5730 0.7305,24.8047 C0.6075,24.6240 0.4890,24.4402 0.3750,24.2482 C0.2107,23.9760 0.4065,24.0015 0.4065,24.0015 C1.0965,25.1685 2.4308,26.3617 4.0845,27.3352 C6.0682,28.3957 8.4908,29.1810 10.8563,29.3932 L10.8563,22.5285 C10.8368,22.5262 10.7955,22.5217 10.7955,22.5217 Z M0.5632,18.1920 L10.5345,23.1210 C5.5890,25.8540 0.7522,21.4470 0.5632,18.1920 Z" style="fill-rule: evenodd; fill: url(#grad4307); "/>
    <path xmlns="http://www.w3.org/2000/svg" d="  M10.2727,49.3103 C10.2652,49.3103 10.2067,49.3058 10.1880,49.3043 C6.0922,48.8925 1.8473,46.3358 0.4073,43.9005 C0.4073,43.9005 0.2115,43.8758 0.3758,44.1473 C2.6505,48.0098 6.9652,49.5570 10.2450,49.5075 C10.2450,49.5075 10.2607,49.5075 10.2667,49.5075 C10.3470,49.5075 10.4085,49.4625 10.4085,49.4108 C10.4085,49.3583 10.3530,49.3103 10.2727,49.3103 Z" style="fill-rule: evenodd; fill: #010101; "/>
    <path xmlns="http://www.w3.org/2000/svg" d="  M10.2727,45.9938 C10.2652,45.9938 10.2067,45.9893 10.1880,45.9870 C6.0922,45.5760 1.8473,43.0193 0.4073,40.5840 C0.4073,40.5840 0.2115,40.5585 0.3758,40.8308 C2.6505,44.6925 6.9652,46.2405 10.2450,46.1910 C10.2450,46.1910 10.2607,46.1910 10.2667,46.1910 C10.3470,46.1910 10.4085,46.1460 10.4085,46.0943 C10.4085,46.0425 10.3530,45.9938 10.2727,45.9938 Z" style="fill-rule: evenodd; fill: #010101; "/>
    <path xmlns="http://www.w3.org/2000/svg" d="  M10.2727,42.6773 C10.2652,42.6773 10.2067,42.6728 10.1880,42.6705 C6.0922,42.2588 1.8473,39.7020 0.4073,37.2675 C0.4073,37.2675 0.2115,37.2413 0.3758,37.5135 C2.6505,41.3760 6.9652,42.9233 10.2450,42.8738 C10.2450,42.8738 10.2607,42.8738 10.2667,42.8738 C10.3470,42.8738 10.4085,42.8288 10.4085,42.7770 C10.4085,42.7253 10.3530,42.6773 10.2727,42.6773 Z" style="fill-rule: evenodd; fill: #010101; "/>
    <path xmlns="http://www.w3.org/2000/svg" d="  M10.3927,39.4170 C9.8482,39.3510 9.3030,39.2528 8.7622,39.1268 C7.5907,38.8755 6.4357,38.4705 5.3670,37.9635 C3.1320,36.9053 1.2683,35.4068 0.4073,33.9503 C0.4073,33.9503 0.2115,33.9248 0.3758,34.1970 C0.4568,34.3358 0.5430,34.4708 0.6300,34.6035 C2.9603,38.1675 7.0837,39.6053 10.2450,39.5573 C10.2450,39.5573 10.2607,39.5573 10.2667,39.5573 C10.3470,39.5573 10.4085,39.5123 10.4085,39.4605 C10.4085,39.4463 10.4025,39.4305 10.3927,39.4170 Z" style="fill-rule: evenodd; fill: #010101; "/>
    <path xmlns="http://www.w3.org/2000/svg" d="  M10.2907,36.0458 C10.2840,36.0450 10.2750,36.0443 10.2682,36.0428 C10.2547,36.0420 10.2052,36.0383 10.1880,36.0368 C8.8920,35.9063 7.5810,35.5605 6.3495,35.0730 C3.6870,34.0193 1.3920,32.2980 0.4073,30.6338 C0.4073,30.6338 0.2115,30.6083 0.3758,30.8798 C0.6023,31.2645 0.8498,31.6245 1.1130,31.9635 C3.4995,35.0333 7.2922,36.2850 10.2450,36.2400 C10.2450,36.2400 10.2607,36.2400 10.2667,36.2400 C10.3470,36.2400 10.4085,36.1958 10.4085,36.1433 C10.4085,36.0968 10.3605,36.0533 10.2907,36.0458 Z" style="fill-rule: evenodd; fill: #010101; "/>
    <path xmlns="http://www.w3.org/2000/svg" d="  M10.2727,29.4098 C10.2652,29.4098 10.2067,29.4060 10.1880,29.4045 C8.0550,29.1893 5.8822,28.3928 4.0853,27.3345 C2.4315,26.3610 1.0972,25.1670 0.4073,24.0008 C0.4073,24.0008 0.2115,23.9753 0.3757,24.2475 C0.4890,24.4395 0.6083,24.6233 0.7312,24.8040 C3.0780,28.2570 7.1295,29.6543 10.2457,29.6078 C10.2457,29.6078 10.2615,29.6070 10.2675,29.6070 C10.3477,29.6070 10.4092,29.5628 10.4092,29.5110 C10.4085,29.4585 10.3530,29.4098 10.2727,29.4098 Z" style="fill-rule: evenodd; fill: #010101; "/>
    <path xmlns="http://www.w3.org/2000/svg" d="  M10.2727,32.7270 C10.2652,32.7270 10.2067,32.7225 10.1880,32.7210 C6.0915,32.3093 1.8465,29.7525 0.4065,27.3172 C0.4065,27.3172 0.2108,27.2917 0.3750,27.5640 C2.6498,31.4265 6.9645,32.9738 10.2442,32.9250 C10.2442,32.9250 10.2600,32.9243 10.2660,32.9243 C10.3462,32.9243 10.4077,32.8785 10.4077,32.8275 C10.4085,32.7750 10.3530,32.7270 10.2727,32.7270 Z" style="fill-rule: evenodd; fill: #010101; "/>
    <defs xmlns="http://www.w3.org/2000/svg">
      <linearGradient id="grad4308">
        <stop offset="0%" stop-color="#656d6b" stop-opacity="1.0000"/>
        <stop offset="100%" stop-color="#dae1e1" stop-opacity="1.0000"/>
      </linearGradient>
    </defs>
    <path xmlns="http://www.w3.org/2000/svg" d="  M8.7135,50.1623 C7.7790,49.8660 6.8828,50.0662 6.7110,50.6100 C6.5393,51.1523 7.1565,51.8325 8.0910,52.1280 C9.0240,52.4235 9.9203,52.2240 10.0920,51.6803 C10.2653,51.1380 9.6473,50.4577 8.7135,50.1623 Z M9.4185,51.9773 C9.0713,52.3050 8.4720,52.2308 8.0798,51.8130 C7.9523,51.6773 7.8630,51.5235 7.8120,51.3653 C7.7783,51.2625 7.7618,51.1590 7.7603,51.0578 C7.7580,50.8313 7.8353,50.6183 7.9965,50.4660 C8.3438,50.1390 8.9430,50.2140 9.3353,50.6310 C9.7283,51.0487 9.7658,51.6510 9.4185,51.9773 Z" style="fill-rule: evenodd; fill: url(#grad4308); "/>
    <path xmlns="http://www.w3.org/2000/svg" d="  M7.9958,50.4660 C7.8338,50.6183 7.7573,50.8313 7.7595,51.0578 C7.7663,50.8965 7.8263,50.7465 7.9418,50.6370 C8.0355,50.5493 8.1533,50.4990 8.2785,50.4848 C8.5290,50.4218 8.8260,50.5088 9.0375,50.7338 C9.3270,51.0405 9.3503,51.4883 9.0960,51.7455 C9.0803,51.7665 9.0623,51.7875 9.0420,51.8063 C8.7743,52.0590 8.3108,52.0013 8.0063,51.6780 C7.9170,51.5842 7.8525,51.4755 7.8113,51.3653 C7.8623,51.5235 7.9523,51.6773 8.0790,51.8130 C8.4713,52.2308 9.0705,52.3043 9.4178,51.9772 C9.7650,51.6510 9.7275,51.0495 9.3345,50.6310 C8.9423,50.2140 8.3430,50.1390 7.9958,50.4660 Z" style="fill-rule: evenodd; fill: #010101; "/>
    <defs xmlns="http://www.w3.org/2000/svg">
      <radialGradient id="grad4309" cx="0.0000%" cy="100.0000%" r="100.0000%">
        <stop offset="0%" stop-color="#cdde61" stop-opacity="1.0000"/>
        <stop offset="100%" stop-color="#7ab049" stop-opacity="1.0000"/>
      </radialGradient>
    </defs>
    <path xmlns="http://www.w3.org/2000/svg" d="  M9.0420,51.8063 C9.0623,51.7875 9.0803,51.7665 9.0960,51.7455 C9.3503,51.4883 9.3270,51.0413 9.0375,50.7338 C8.8268,50.5088 8.5290,50.4218 8.2785,50.4848 C8.1533,50.4998 8.0355,50.5493 7.9418,50.6370 C7.8263,50.7465 7.7663,50.8965 7.7595,51.0578 C7.7610,51.1590 7.7775,51.2625 7.8113,51.3653 C7.8525,51.4755 7.9170,51.5843 8.0063,51.6780 C8.3108,52.0013 8.7743,52.0590 9.0420,51.8063 Z" style="fill-rule: evenodd; fill: url(#grad4309); "/>
    <defs xmlns="http://www.w3.org/2000/svg" xmlns:xlink="http://www.w3.org/1999/xlink">
      <linearGradient id="grad4310">
        <stop offset="0%" stop-color="#808788" stop-opacity="1.0000"/>
        <stop offset="100%" stop-color="#f3faf8" stop-opacity="1.0000"/>
      </linearGradient>
      <linearGradient xlink:href="#grad4310" id="grad4311" x1="0" y1="0" x2="0" y2="1" gradientTransform="rotate(315 .5 .5)" gradientUnits="objectBoundingBox">
  </linearGradient>
    </defs>
    <path xmlns="http://www.w3.org/2000/svg" d="  M0.5633,18.1920 C0.7523,21.4470 5.5890,25.8540 10.5345,23.1210 L0.5633,18.1920 Z M2.4743,19.2622 L8.8493,22.3867 C5.6258,23.9850 2.5568,21.2430 2.4743,19.2622 Z" style="fill-rule: evenodd; fill: url(#grad4311); "/>
    <defs xmlns="http://www.w3.org/2000/svg">
      <radialGradient id="grad4312" cx="0.0000%" cy="100.0000%" r="100.0000%">
        <stop offset="0%" stop-color="#acd36a" stop-opacity="1.0000"/>
        <stop offset="100%" stop-color="#000000" stop-opacity="1.0000"/>
      </radialGradient>
    </defs>
    <path xmlns="http://www.w3.org/2000/svg" d="  M2.4742,19.2622 C2.5567,21.2437 5.6257,23.9857 8.8492,22.3867 L2.4742,19.2622 Z" style="fill-rule: evenodd; fill: url(#grad4312); "/>
    <defs xmlns="http://www.w3.org/2000/svg" xmlns:xlink="http://www.w3.org/1999/xlink">
      <linearGradient id="grad4313">
        <stop offset="0%" stop-color="#a0a6a6" stop-opacity="1.0000"/>
        <stop offset="100%" stop-color="#dae1e1" stop-opacity="1.0000"/>
      </linearGradient>
      <linearGradient xlink:href="#grad4313" id="grad4314" x1="0" y1="0" x2="0" y2="1" gradientTransform="rotate(45 .5 .5)" gradientUnits="objectBoundingBox">
  </linearGradient>
    </defs>
    <path xmlns="http://www.w3.org/2000/svg" d="  M11.7442,21.4200 L11.7255,21.4102 L11.7255,54.9840 L33.0000,42.9750 L33.0000,40.5690 L20.0565,48.0068 L20.0565,47.4802 L32.5373,40.3193 L33.0000,40.0530 L33.0000,38.0978 L20.0565,45.5340 L20.0565,45.0082 L32.5373,37.8473 L33.0000,37.5817 L33.0000,35.6250 L20.0565,43.0620 L20.0565,42.5362 L32.5695,35.3902 L33.0000,35.1442 L33.0000,9.0082 L30.1455,10.6485 L11.7442,21.4200 Z" style="fill-rule: evenodd; fill: url(#grad4314); "/>
    <defs xmlns="http://www.w3.org/2000/svg" xmlns:xlink="http://www.w3.org/1999/xlink">
      <linearGradient id="grad4315">
        <stop offset="0%" stop-color="#808788" stop-opacity="1.0000"/>
        <stop offset="100%" stop-color="#f3faf8" stop-opacity="1.0000"/>
      </linearGradient>
      <linearGradient xlink:href="#grad4315" id="grad4316" x1="0" y1="0" x2="0" y2="1" gradientTransform="rotate(90 .5 .5)" gradientUnits="objectBoundingBox">
  </linearGradient>
    </defs>
    <path xmlns="http://www.w3.org/2000/svg" d="  M22.6275,2.7420 L0.1095,15.7410 L11.7255,21.4102 L33.0000,8.9775 L22.6275,2.7420 Z" style="fill-rule: evenodd; fill: url(#grad4316); "/>
    <defs xmlns="http://www.w3.org/2000/svg" xmlns:xlink="http://www.w3.org/1999/xlink">
      <linearGradient id="grad4317">
        <stop offset="0%" stop-color="#343c58" stop-opacity="1.0000"/>
        <stop offset="100%" stop-color="#95a8c2" stop-opacity="1.0000"/>
      </linearGradient>
      <linearGradient xlink:href="#grad4317" id="grad4318" x1="0" y1="0" x2="0" y2="1" gradientTransform="rotate(315 .5 .5)" gradientUnits="objectBoundingBox">
  </linearGradient>
    </defs>
    <path xmlns="http://www.w3.org/2000/svg" d="  M20.2222,0.6833 C21.0922,0.6833 21.9202,1.1648 22.6747,2.0340 C20.4000,4.6568 18.8033,10.8173 18.8033,18.0000 C18.8033,20.0348 18.9322,21.9870 19.1662,23.8013 C19.2442,24.2948 19.4302,24.4590 19.5480,24.5738 C19.6650,24.6878 20.4450,25.0883 20.4450,25.0883 C20.4450,25.0883 21.8047,32.9640 22.6747,33.9660 C21.9202,34.8353 21.0930,35.3168 20.2222,35.3168 C16.7310,35.3168 13.8998,27.5640 13.8998,18.0000 C13.9005,8.4368 16.7310,0.6833 20.2222,0.6833 Z" style="fill-rule: evenodd; fill: url(#grad4318); "/>
    <defs xmlns="http://www.w3.org/2000/svg" xmlns:xlink="http://www.w3.org/1999/xlink">
      <linearGradient id="grad4319">
        <stop offset="0%" stop-color="#343c58" stop-opacity="1.0000"/>
        <stop offset="100%" stop-color="#95a8c2" stop-opacity="1.0000"/>
      </linearGradient>
      <linearGradient xlink:href="#grad4319" id="grad4320" x1="0" y1="0" x2="0" y2="1" gradientTransform="rotate(90 .5 .5)" gradientUnits="objectBoundingBox">
  </linearGradient>
    </defs>
    <path xmlns="http://www.w3.org/2000/svg" d="  M20.2223,0.6833 C20.7368,0.6833 21.2363,0.8550 21.7148,1.1730 C20.2440,2.1480 18.7613,10.0320 18.7613,10.0320 L17.9363,10.1588 C17.9363,10.1588 17.5680,10.2352 17.5043,10.5120 C17.1060,12.7777 16.8833,15.3173 16.8833,18.0000 C16.8833,20.3820 17.0588,22.6500 17.3768,24.7147 C17.4143,25.0537 17.6723,25.5743 17.9303,25.7812 C18.6908,26.3903 20.1788,27.5790 20.1788,27.5790 C20.1788,27.5790 20.4495,33.9885 21.7140,34.8270 C21.2348,35.1442 20.7353,35.3160 20.2215,35.3160 C16.7303,35.3160 13.8990,27.5633 13.8990,17.9992 C13.9005,8.4368 16.7310,0.6833 20.2223,0.6833 Z" style="fill-rule: evenodd; fill: url(#grad4320); "/>
    <path xmlns="http://www.w3.org/2000/svg" d="  M17.8658,25.8645 C17.5725,25.6245 17.3183,25.1025 17.2725,24.7305 C16.9538,22.6605 16.7783,20.3865 16.7775,17.9992 C16.7783,15.3105 17.0003,12.7650 17.4015,10.4865 C17.5005,10.1220 17.9100,10.0613 17.9212,10.0522 L18.7462,9.9255 L18.7462,9.9262 L18.7785,10.1362 L17.9587,10.2622 C17.9587,10.2638 17.8807,10.2780 17.7952,10.3245 C17.7083,10.3710 17.6295,10.4400 17.6092,10.5285 C17.2133,12.7875 16.9913,15.3217 16.9913,17.9985 C16.9913,20.3745 17.1660,22.6388 17.4832,24.7020 C17.5110,25.0028 17.7735,25.5240 17.9992,25.6965 C18.1620,25.8270 18.3585,25.9845 18.5677,26.1502 L18.4342,26.3168 C18.2242,26.1525 18.0277,25.9950 17.8658,25.8645 Z" style="fill-rule: evenodd; fill: #8d99b5; "/>
    <path xmlns="http://www.w3.org/2000/svg" d="  M21.1283,34.4085 C21.1658,34.4678 21.2040,34.5233 21.2445,34.5698 C21.2550,34.5638 21.2648,34.5585 21.2753,34.5525 C21.2243,34.5143 21.1763,34.4640 21.1283,34.4085 Z" style="fill-rule: evenodd; fill: #ffffff; fill-opacity: 0.6000; "/>
    <defs xmlns="http://www.w3.org/2000/svg">
      <radialGradient id="grad4321" cx="100.0000%" cy="0.0000%" r="100.0000%">
        <stop offset="0%" stop-color="#ffffff" stop-opacity="1.0000"/>
        <stop offset="100%" stop-color="#46506d" stop-opacity="1.0000"/>
      </radialGradient>
    </defs>
    <path xmlns="http://www.w3.org/2000/svg" d="  M27.5858,5.5823 A5.5822,5.5822 180.0000 1,1 22.0035,0.0000 A5.5822,5.5822 180.0000 0,1 27.5858,5.5823 Z" style="fill-rule: evenodd; fill: url(#grad4321); "/>
    <defs xmlns="http://www.w3.org/2000/svg">
      <radialGradient id="grad4322" cx="50.0000%" cy="50.0000%" r="100.0000%">
        <stop offset="0%" stop-color="#95a8c2" stop-opacity="1.0000"/>
        <stop offset="100%" stop-color="#46506d" stop-opacity="1.0000"/>
      </radialGradient>
    </defs>
    <path xmlns="http://www.w3.org/2000/svg" d="  M27.5858,30.4178 A5.5822,5.5822 180.0000 1,1 22.0035,24.8355 A5.5822,5.5822 180.0000 0,1 27.5858,30.4178 Z" style="fill-rule: evenodd; fill: url(#grad4322); "/>
    <defs xmlns="http://www.w3.org/2000/svg" xmlns:xlink="http://www.w3.org/1999/xlink">
      <linearGradient id="grad4323">
        <stop offset="0%" stop-color="#343c58" stop-opacity="1.0000"/>
        <stop offset="100%" stop-color="#95a8c2" stop-opacity="1.0000"/>
      </linearGradient>
      <linearGradient xlink:href="#grad4323" id="grad4324" x1="0" y1="0" x2="0" y2="1" gradientTransform="rotate(225 .5 .5)" gradientUnits="objectBoundingBox">
  </linearGradient>
    </defs>
    <path xmlns="http://www.w3.org/2000/svg" d="  M19.0897,10.8278 C18.3488,10.3988 17.8883,9.4808 17.8883,8.1758 C17.8883,5.5635 19.7295,2.3745 21.9930,1.0680 C23.0010,0.4860 23.9250,0.3743 24.6398,0.6608 C24.6398,0.6608 27.3960,2.0663 27.3757,2.0640 C28.1317,2.4870 28.6005,3.4110 28.6005,4.7295 C28.6005,7.3425 26.7600,10.5308 24.4965,11.8380 C23.4278,12.4545 22.4550,12.5423 21.7245,12.1898 L19.0897,10.8278 Z" style="fill-rule: evenodd; fill: url(#grad4324); "/>
    <defs xmlns="http://www.w3.org/2000/svg" xmlns:xlink="http://www.w3.org/1999/xlink">
      <linearGradient id="grad4325">
        <stop offset="0%" stop-color="#343c58" stop-opacity="1.0000"/>
        <stop offset="100%" stop-color="#95a8c2" stop-opacity="1.0000"/>
      </linearGradient>
      <linearGradient xlink:href="#grad4325" id="grad4326" x1="0" y1="0" x2="0" y2="1" gradientTransform="rotate(225 .5 .5)" gradientUnits="objectBoundingBox">
  </linearGradient>
    </defs>
    <path xmlns="http://www.w3.org/2000/svg" d="  M19.0897,35.3227 C18.3120,34.9087 17.8252,33.9765 17.8252,32.6355 C17.8252,30.0232 19.6665,26.8350 21.9300,25.5277 C22.9380,24.9457 23.8620,24.8340 24.5767,25.1205 C24.5767,25.1205 27.3960,26.7952 27.3758,26.7930 C28.1317,27.2160 28.6005,28.1392 28.6005,29.4585 C28.6005,32.0707 26.7600,35.2597 24.4965,36.5670 C23.4352,37.1797 22.4655,37.2705 21.7357,36.9247 C21.7890,36.9495 19.0897,35.3227 19.0897,35.3227 Z" style="fill-rule: evenodd; fill: url(#grad4326); "/>
    <path xmlns="http://www.w3.org/2000/svg" d="  M24.4973,11.8380 C26.7608,10.5315 28.6013,7.3433 28.6013,4.7295 C28.6013,2.1173 26.7600,1.0545 24.4973,2.3610 C22.2345,3.6675 20.3933,6.8558 20.3933,9.4688 C20.3940,12.0818 22.2353,13.1445 24.4973,11.8380 Z" style="fill-rule: evenodd; fill: #343c58; fill-opacity: 0.9882; "/>
    <defs xmlns="http://www.w3.org/2000/svg" xmlns:xlink="http://www.w3.org/1999/xlink">
      <linearGradient id="grad4327">
        <stop offset="0%" stop-color="#202638" stop-opacity="1.0000"/>
        <stop offset="100%" stop-color="#6e88a8" stop-opacity="1.0000"/>
      </linearGradient>
      <linearGradient xlink:href="#grad4327" id="grad4328" x1="0" y1="0" x2="0" y2="1" gradientTransform="rotate(-0 .5 .5)" gradientUnits="objectBoundingBox">
  </linearGradient>
    </defs>
    <path xmlns="http://www.w3.org/2000/svg" d="  M24.4972,10.4843 C26.1135,9.5513 27.4282,7.2735 27.4282,5.4068 C27.4282,3.5400 26.1135,2.7817 24.4972,3.7147 C22.8810,4.6477 21.5670,6.9247 21.5670,8.7915 C21.5670,10.6583 22.8810,11.4180 24.4972,10.4843 Z" style="fill-rule: evenodd; fill: url(#grad4328); "/>
    <path xmlns="http://www.w3.org/2000/svg" d="  M24.4973,8.2328 C25.0388,7.9208 25.4783,7.1580 25.4783,6.5340 C25.4783,5.9093 25.0388,5.6558 24.4973,5.9678 C23.9565,6.2798 23.5163,7.0418 23.5163,7.6665 C23.5170,8.2905 23.9573,8.5448 24.4973,8.2328 Z" style="fill-rule: evenodd; fill: #333333; "/>
    <path xmlns="http://www.w3.org/2000/svg" d="  M24.5205,36.5820 C26.7840,35.2755 28.6253,32.0873 28.6253,29.4735 C28.6253,26.8613 26.7840,25.7985 24.5205,27.1050 C22.2570,28.4115 20.4158,31.5998 20.4158,34.2135 C20.4158,36.8265 22.2570,37.8893 24.5205,36.5820 Z" style="fill-rule: evenodd; fill: #343c58; fill-opacity: 0.9882; "/>
    <defs xmlns="http://www.w3.org/2000/svg" xmlns:xlink="http://www.w3.org/1999/xlink">
      <linearGradient id="grad4329">
        <stop offset="0%" stop-color="#202638" stop-opacity="1.0000"/>
        <stop offset="100%" stop-color="#6e88a8" stop-opacity="1.0000"/>
      </linearGradient>
      <linearGradient xlink:href="#grad4329" id="grad4330" x1="0" y1="0" x2="0" y2="1" gradientTransform="rotate(-0 .5 .5)" gradientUnits="objectBoundingBox">
  </linearGradient>
    </defs>
    <path xmlns="http://www.w3.org/2000/svg" d="  M24.4972,35.1142 C26.1135,34.1812 27.4282,31.9042 27.4282,30.0375 C27.4282,28.1707 26.1135,27.4117 24.4972,28.3447 C22.8810,29.2777 21.5670,31.5555 21.5670,33.4222 C21.5670,35.2890 22.8810,36.0472 24.4972,35.1142 Z" style="fill-rule: evenodd; fill: url(#grad4330); "/>
    <path xmlns="http://www.w3.org/2000/svg" d="  M24.4725,32.9108 C25.0073,32.6025 25.4415,31.8495 25.4415,31.2330 C25.4415,30.6158 25.0073,30.3653 24.4725,30.6735 C23.9385,30.9818 23.5035,31.7348 23.5035,32.3520 C23.5035,32.9685 23.9385,33.2198 24.4725,32.9108 Z" style="fill-rule: evenodd; fill: #333333; "/>
    <defs xmlns="http://www.w3.org/2000/svg">
      <radialGradient id="grad4331" cx="50.0000%" cy="50.0000%" r="100.0000%">
        <stop offset="0%" stop-color="#a8d6f3" stop-opacity="1.0000"/>
        <stop offset="100%" stop-color="#6d91b4" stop-opacity="1.0000"/>
      </radialGradient>
    </defs>
    <path xmlns="http://www.w3.org/2000/svg" d="  M56.5200,41.5440 C56.5200,41.3850 56.5245,35.9910 53.5432,33.8152 C52.5690,33.1050 48.0488,30.1087 44.6055,30.0045 C41.5958,29.9130 36.5670,31.2930 35.1825,34.8547 C34.6980,36.1020 34.4895,38.0422 34.3507,39.7087 C34.3500,39.7387 34.3485,39.7710 34.3485,39.8010 C34.3485,41.2395 35.3257,42.5460 36.9195,43.5157 C37.9853,44.1645 39.3600,44.9685 40.4490,45.5940 C42.1560,46.5757 44.4735,46.9612 47.0827,46.9612 C52.2937,46.9612 56.5200,44.5365 56.5200,41.5440 Z" style="fill-rule: evenodd; fill: url(#grad4331); "/>
    <path xmlns="http://www.w3.org/2000/svg" d="  M38.9490,44.7225 C40.9320,40.5817 41.5568,39.4485 42.4650,38.0610 C44.5852,34.8262 47.1052,33.9667 47.8860,32.9625 C49.0050,31.5240 48.5992,30.7597 47.6130,30.3840 C46.7408,30.0517 45.3562,29.8635 43.8698,30.1605 C42.2588,30.4837 40.0523,32.1172 39.4298,33.6442 C38.8875,34.9725 38.1968,43.7827 38.1278,43.0290 C38.2373,44.2095 38.2373,44.3047 38.2373,44.3047 L38.9490,44.7225 Z" style="fill-rule: evenodd; fill: #dbe3f3; "/>
    <path xmlns="http://www.w3.org/2000/svg" d="  M40.7970,31.9020 C40.7970,31.9020 39.4897,32.7300 38.8200,37.9747 C38.5523,40.0777 38.2335,44.2972 38.2335,44.2972 L38.1225,44.2372 C38.1225,44.2372 37.8300,39.7672 37.9890,37.9147 C38.2073,35.3752 38.7638,33.6277 40.9567,30.8835 L40.7970,31.9020 Z" style="fill-rule: evenodd; fill: #dbe3f3; "/>
    <path xmlns="http://www.w3.org/2000/svg" d="  M41.0865,31.9163 C41.0865,31.9163 39.5550,34.2263 39.1395,37.8840 C38.9010,39.9915 38.2373,44.3048 38.2373,44.3048 C38.2373,44.3048 38.0865,40.1783 38.2800,37.9298 C38.4968,35.3910 39.2295,33.1005 41.4218,30.3548 L41.0865,31.9163 Z" style="fill-rule: evenodd; fill: #737477; "/>
    <defs xmlns="http://www.w3.org/2000/svg">
      <radialGradient id="grad4332" cx="50.0000%" cy="50.0000%" r="100.0000%">
        <stop offset="0%" stop-color="#6f4a24" stop-opacity="1.0000"/>
        <stop offset="100%" stop-color="#e4c2a0" stop-opacity="1.0000"/>
      </radialGradient>
    </defs>
    <path xmlns="http://www.w3.org/2000/svg" d="  M48.5850,31.3425 C48.5325,30.9900 48.4590,30.9728 48.4590,30.9728 C48.4590,30.9728 47.7000,26.8553 47.6805,26.6588 C47.5515,25.3980 46.5682,24.9908 44.4877,24.9908 C42.4072,24.9908 40.7205,25.9583 40.7205,27.1530 C40.7205,27.3900 40.5637,33.0180 40.6672,33.4043 C40.9920,34.6155 42.9652,35.1390 45.0757,34.5735 C47.1840,34.0080 48.7725,32.5823 48.5850,31.3425 Z" style="fill-rule: evenodd; fill: url(#grad4332); "/>
    <path xmlns="http://www.w3.org/2000/svg" d="  M49.6020,22.1220 C48.9975,21.7658 48.0157,22.3485 47.4082,23.4210 C46.8000,24.4950 46.7977,25.6538 47.4007,26.0093 C48.0060,26.3648 48.9870,25.7828 49.5952,24.7095 C50.2035,23.6370 50.2057,22.4783 49.6020,22.1220 Z" style="fill-rule: evenodd; fill: #c5a27f; "/>
    <defs xmlns="http://www.w3.org/2000/svg">
      <radialGradient id="grad4333" cx="50.0000%" cy="50.0000%" r="100.0000%">
        <stop offset="0%" stop-color="#6f4a24" stop-opacity="1.0000"/>
        <stop offset="100%" stop-color="#e4c2a0" stop-opacity="1.0000"/>
      </radialGradient>
    </defs>
    <path xmlns="http://www.w3.org/2000/svg" d="  M49.6020,22.7115 C48.9975,22.3560 48.0157,22.9380 47.4082,24.0113 C46.8000,25.0853 46.7977,26.2433 47.4007,26.5988 C48.0060,26.9550 48.9870,26.3723 49.5952,25.2998 C50.2035,24.2265 50.2057,23.0678 49.6020,22.7115 Z" style="fill-rule: evenodd; fill: url(#grad4333); "/>
    <defs xmlns="http://www.w3.org/2000/svg">
      <radialGradient id="grad4334" cx="50.0000%" cy="50.0000%" r="100.0000%">
        <stop offset="0%" stop-color="#ebc8a8" stop-opacity="1.0000"/>
        <stop offset="100%" stop-color="#805b35" stop-opacity="1.0000"/>
      </radialGradient>
    </defs>
    <path xmlns="http://www.w3.org/2000/svg" d="  M48.0090,23.6040 C48.0090,28.0605 45.8542,31.5173 42.7590,31.5173 C39.6637,31.5173 37.1550,27.9045 37.1550,23.4480 C37.1550,18.9915 38.0460,15.6217 42.7590,15.3780 C45.8497,15.2175 48.0090,19.1467 48.0090,23.6040 Z" style="fill-rule: evenodd; fill: url(#grad4334); "/>
    <path xmlns="http://www.w3.org/2000/svg" d="  M42.5025,31.1700 C42.5257,31.1708 42.5497,31.1723 42.5730,31.1723 C45.4927,31.1723 47.5297,27.9353 47.5590,23.7450 C47.1555,26.9970 44.9647,30.6585 42.5025,31.1700 Z" style="fill-rule: evenodd; fill: #ac8661; "/>
    <path xmlns="http://www.w3.org/2000/svg" d="  M49.5922,22.1640 C50.2605,22.3950 50.0580,23.8515 50.0407,24.0442 C51.3915,20.4105 50.3775,16.5832 48.6315,15.3547 C48.0600,14.9527 46.7137,14.0400 43.9560,13.9537 C46.6920,15.3547 47.2815,19.9702 46.6665,20.3160 C47.7675,20.1232 47.9460,22.7280 47.9460,22.7280 C47.9460,22.7280 48.5700,21.8130 49.5922,22.1640 Z" style="fill-rule: evenodd; fill: #3e3e3e; "/>
    <defs xmlns="http://www.w3.org/2000/svg">
      <radialGradient id="grad4335" cx="50.0000%" cy="50.0000%" r="100.0000%">
        <stop offset="0%" stop-color="#8f8f8e" stop-opacity="1.0000"/>
        <stop offset="100%" stop-color="#505050" stop-opacity="1.0000"/>
      </radialGradient>
    </defs>
    <path xmlns="http://www.w3.org/2000/svg" d="  M49.3710,17.4098 A6.1065,3.5063 180.0000 1,1 43.2645,13.9035 A6.1065,3.5063 180.0000 0,1 49.3710,17.4098 Z" style="fill-rule: evenodd; fill: url(#grad4335); "/>
    <defs xmlns="http://www.w3.org/2000/svg" xmlns:xlink="http://www.w3.org/1999/xlink">
      <linearGradient id="grad4336">
        <stop offset="0%" stop-color="#808788" stop-opacity="1.0000"/>
        <stop offset="100%" stop-color="#dae1e1" stop-opacity="1.0000"/>
      </linearGradient>
      <linearGradient xlink:href="#grad4336" id="grad4337" x1="0" y1="0" x2="0" y2="1" gradientTransform="rotate(135 .5 .5)" gradientUnits="objectBoundingBox">
  </linearGradient>
    </defs>
    <path xmlns="http://www.w3.org/2000/svg" d="  M47.5207,20.8800 C47.5185,20.8800 47.2050,20.2530 46.5517,20.3025 C45.8985,20.3520 44.9767,20.6310 43.1145,20.5582 C40.2472,20.5560 38.0355,19.5150 37.4115,17.9827 C37.3987,17.9527 37.4137,17.9182 37.4437,17.9062 C37.4737,17.8935 37.5082,17.9085 37.5210,17.9385 C38.1052,19.3965 40.8547,20.0670 42.7927,20.1757 C44.2725,20.2590 45.7192,20.0610 46.4872,20.0970 C47.2552,20.1345 47.5207,20.8800 47.5207,20.8800 Z" style="fill-rule: evenodd; fill: url(#grad4337); "/>
    <defs xmlns="http://www.w3.org/2000/svg" xmlns:xlink="http://www.w3.org/1999/xlink">
      <linearGradient id="grad4338">
        <stop offset="0%" stop-color="#080808" stop-opacity="1.0000"/>
        <stop offset="100%" stop-color="#c5c5c6" stop-opacity="1.0000"/>
      </linearGradient>
      <linearGradient xlink:href="#grad4338" id="grad4339" x1="0" y1="0" x2="0" y2="1" gradientTransform="rotate(315 .5 .5)" gradientUnits="objectBoundingBox">
  </linearGradient>
    </defs>
    <path xmlns="http://www.w3.org/2000/svg" d="  M36.9233,27.0330 C36.6930,26.8665 35.6078,26.1577 35.6078,26.1577 C35.6078,26.1577 35.2238,26.0767 35.1810,26.0722 C34.9530,26.0512 34.6560,26.2642 34.4595,26.6107 C34.2458,26.9872 34.2293,27.3885 34.4040,27.5602 L34.7130,27.8295 C34.7130,27.8295 35.8440,28.4295 36.1043,28.5375 C36.3375,28.6350 36.9660,28.6365 36.9660,28.6365 L37.5293,27.6405 C37.5293,27.6397 37.1588,27.2040 36.9233,27.0330 Z" style="fill-rule: evenodd; fill: url(#grad4339); "/>
    <g xmlns="http://www.w3.org/2000/svg" id="Layer1118">
      <path d="  M34.9118,26.8380 C35.1428,26.4277 35.5035,26.1915 35.7600,26.2597 C35.7443,26.2462 35.6603,26.1960 35.6430,26.1855 C35.3880,26.0355 34.9725,26.2807 34.7160,26.7345 C34.4595,27.1882 34.4580,27.6780 34.7130,27.8287 C34.7378,27.8430 34.8353,27.8850 34.8623,27.8925 C34.6568,27.7102 34.6718,27.2610 34.9118,26.8380 Z" style="stroke-width: 0.0196; stroke-linecap: butt; stroke-linejoin: miter; fill-rule: evenodd; fill: #ced0cf; "/>
      <path d="  M34.9118,26.8380 C35.1428,26.4277 35.5035,26.1915 35.7600,26.2597 C35.7443,26.2462 35.6603,26.1960 35.6430,26.1855 C35.3880,26.0355 34.9725,26.2807 34.7160,26.7345 C34.4595,27.1882 34.4580,27.6780 34.7130,27.8287 C34.7378,27.8430 34.8353,27.8850 34.8623,27.8925 C34.6568,27.7102 34.6718,27.2610 34.9118,26.8380 Z" style="stroke-width: 0.0196; stroke: #010101; stroke-dasharray: none; stroke-linecap: butt; stroke-linejoin: miter; fill: none; "/>
    </g>
    <path xmlns="http://www.w3.org/2000/svg" d="  M37.5293,27.6397 C37.3748,27.5490 37.1235,27.6975 36.9683,27.9727 C36.8115,28.2472 36.8115,28.5442 36.9660,28.6357 C37.1205,28.7265 37.3710,28.5780 37.5278,28.3027 C37.6838,28.0282 37.6845,27.7312 37.5293,27.6397 Z" style="fill-rule: evenodd; fill: #333333; "/>
    <defs xmlns="http://www.w3.org/2000/svg" xmlns:xlink="http://www.w3.org/1999/xlink">
      <linearGradient id="grad4340">
        <stop offset="0%" stop-color="#080808" stop-opacity="1.0000"/>
        <stop offset="100%" stop-color="#c5c5c6" stop-opacity="1.0000"/>
      </linearGradient>
      <linearGradient xlink:href="#grad4340" id="grad4341" x1="0" y1="0" x2="0" y2="1" gradientTransform="rotate(90 .5 .5)" gradientUnits="objectBoundingBox">
  </linearGradient>
    </defs>
    <path xmlns="http://www.w3.org/2000/svg" d="  M50.2238,22.6350 C49.4513,22.1805 48.1950,22.9245 47.4173,24.2970 C46.6410,25.6695 46.6373,27.1515 47.4098,27.6060 C48.1815,28.0605 49.4385,27.3165 50.2148,25.9440 C50.9933,24.5708 50.9955,23.0895 50.2238,22.6350 Z" style="fill-rule: evenodd; fill: url(#grad4341); "/>
    <defs xmlns="http://www.w3.org/2000/svg">
      <radialGradient id="grad4342" cx="50.0000%" cy="50.0000%" r="100.0000%">
        <stop offset="0%" stop-color="#ffffff" stop-opacity="1.0000"/>
        <stop offset="100%" stop-color="#669a9a" stop-opacity="1.0000"/>
      </radialGradient>
    </defs>
    <path xmlns="http://www.w3.org/2000/svg" d="  M49.9110,23.1870 C49.3095,22.8330 48.3330,23.4120 47.7278,24.4800 C47.1240,25.5472 47.1210,26.7000 47.7225,27.0540 C48.3233,27.4080 49.2998,26.8290 49.9043,25.7610 C50.5088,24.6930 50.5118,23.5410 49.9110,23.1870 Z" style="fill-rule: evenodd; fill: url(#grad4342); "/>
    <defs xmlns="http://www.w3.org/2000/svg">
      <linearGradient id="grad4343">
        <stop offset="0%" stop-color="#080808" stop-opacity="1.0000"/>
        <stop offset="100%" stop-color="#c5c5c6" stop-opacity="1.0000"/>
      </linearGradient>
    </defs>
    <path xmlns="http://www.w3.org/2000/svg" d="  M49.2750,24.7500 C49.2368,24.7275 49.1858,24.7342 49.1333,24.7620 L49.1303,24.7642 C49.1265,24.7657 49.1243,24.7672 49.1213,24.7695 L48.6585,25.0372 L48.6585,25.0402 C48.5978,25.0702 48.5340,25.1302 48.4875,25.2135 C48.4035,25.3612 48.4035,25.5202 48.4853,25.5697 C48.5265,25.5937 48.5783,25.5862 48.6315,25.5562 L48.6315,25.5577 L49.1220,25.2712 L49.1220,25.2697 C49.1768,25.2375 49.2315,25.1805 49.2743,25.1062 C49.3583,24.9585 49.3583,24.7987 49.2750,24.7500 Z" style="fill-rule: evenodd; fill: url(#grad4343); "/>
    <defs xmlns="http://www.w3.org/2000/svg" xmlns:xlink="http://www.w3.org/1999/xlink">
      <linearGradient id="grad4344">
        <stop offset="0%" stop-color="#ffffff" stop-opacity="1.0000"/>
        <stop offset="100%" stop-color="#669a9a" stop-opacity="1.0000"/>
      </linearGradient>
      <linearGradient xlink:href="#grad4344" id="grad4345" x1="0" y1="0" x2="0" y2="1" gradientTransform="rotate(90 .5 .5)" gradientUnits="objectBoundingBox">
  </linearGradient>
    </defs>
    <path xmlns="http://www.w3.org/2000/svg" d="  M47.9213,26.3175 C47.7923,26.2417 47.5830,26.3655 47.4540,26.5950 C47.4353,26.6280 47.4195,26.6610 47.4060,26.6947 C47.4818,26.8485 47.5853,26.9722 47.7233,27.0540 C47.7345,27.0607 47.7473,27.0652 47.7593,27.0705 C47.8178,27.0202 47.8748,26.9520 47.9213,26.8702 C48.0503,26.6407 48.0503,26.3932 47.9213,26.3175 Z" style="fill-rule: evenodd; fill: url(#grad4345); "/>
    <path xmlns="http://www.w3.org/2000/svg" d="  M47.7818,26.3828 C47.7217,26.3475 47.6385,26.3700 47.5590,26.4345 L43.6260,28.7107 C43.0988,29.0175 42.1125,29.2628 41.0918,29.2605 C40.2308,29.2605 39.3427,29.0895 38.6557,28.6845 L37.3875,27.9623 C37.3860,27.9615 37.3860,27.9600 37.3845,27.9592 C37.3177,27.9195 37.2090,27.9840 37.1415,28.1025 C37.0747,28.2217 37.0747,28.3500 37.1400,28.3890 C37.1452,28.3920 38.4097,29.1097 38.4097,29.1097 C39.2010,29.5747 40.1685,29.7502 41.0918,29.7510 C42.1905,29.7487 43.2263,29.5042 43.8720,29.1352 L47.4562,27.0622 C47.6160,26.9572 47.7345,26.8710 47.7802,26.7915 C47.8755,26.6220 47.8770,26.4390 47.7818,26.3828 Z" style="fill-rule: evenodd; fill: #333333; "/>
    <path xmlns="http://www.w3.org/2000/svg" d="  M30.4732,56.5680 C30.4732,56.5680 32.4817,52.8540 33.8002,50.8410 C35.6737,47.9820 36.2902,47.5057 36.9802,46.6185 C37.8465,45.5048 37.1985,44.1728 36.7387,43.9980 C35.9685,43.7040 35.2387,43.3980 33.9247,43.6605 C32.5012,43.9447 31.2547,45.0502 30.7050,46.3980 C29.3467,49.7272 29.5020,53.5410 29.6535,55.0283 C29.7442,55.9133 29.8582,56.2095 29.8582,56.2095 L30.4732,56.5680 Z" style="fill-rule: evenodd; fill: #d0e8dc; "/>
    <defs xmlns="http://www.w3.org/2000/svg">
      <radialGradient id="grad4346" cx="50.0000%" cy="50.0000%" r="100.0000%">
        <stop offset="0%" stop-color="#a2c475" stop-opacity="1.0000"/>
        <stop offset="100%" stop-color="#698843" stop-opacity="1.0000"/>
      </radialGradient>
    </defs>
    <path xmlns="http://www.w3.org/2000/svg" d="  M25.3590,51.5257 C25.4828,50.0535 25.6658,48.3397 26.0940,47.2380 C27.2378,44.2950 31.1955,43.0388 33.8790,42.9533 C32.5920,43.6208 31.6935,44.8748 31.2383,45.9930 C29.8793,49.3215 30.1733,56.2282 30.2333,56.4240 C29.4803,55.9860 28.2953,55.2952 27.6285,54.8895 C26.2200,54.0322 25.3575,52.8780 25.3575,51.6075 C25.3575,51.5813 25.3583,51.5527 25.3590,51.5257 Z" style="fill-rule: evenodd; fill: url(#grad4346); "/>
    <path xmlns="http://www.w3.org/2000/svg" d="  M30.2333,56.4240 C30.2333,56.4240 29.1847,53.2485 29.7367,49.8240 C30.1605,47.1975 31.6440,43.7602 31.6440,43.7602 L31.9088,43.6335 C31.9088,43.6335 30.3390,49.3620 30.2370,50.1847 C30.0120,51.9742 30.2333,56.4240 30.2333,56.4240 Z" style="fill-rule: evenodd; fill: #bfc5ce; "/>
    <path xmlns="http://www.w3.org/2000/svg" d="  M30.2333,56.4240 C30.2333,56.4240 29.7383,52.0612 29.9925,50.2762 C30.4223,47.2627 31.7595,43.9642 31.7595,43.9642 C31.7595,43.9642 30.6623,48.2917 30.4313,50.2657 C30.1320,52.8000 30.2333,56.4240 30.2333,56.4240 Z" style="fill-rule: evenodd; fill: #737477; "/>
    <defs xmlns="http://www.w3.org/2000/svg">
      <radialGradient id="grad4347" cx="50.0000%" cy="50.0000%" r="100.0000%">
        <stop offset="0%" stop-color="#ebc8a8" stop-opacity="1.0000"/>
        <stop offset="100%" stop-color="#805b35" stop-opacity="1.0000"/>
      </radialGradient>
    </defs>
    <path xmlns="http://www.w3.org/2000/svg" d="  M37.6470,44.1833 C37.6132,44.0543 37.3628,39.4425 37.3425,39.2550 C37.2412,38.2530 36.4170,37.9290 34.7625,37.9290 C33.1087,37.9290 31.3372,38.5620 31.3372,39.5115 C31.3372,39.7005 31.4220,45.3848 31.3267,45.6878 C30.4072,48.6233 32.5350,49.6313 34.8255,48.8940 C36.5025,48.4455 37.9042,45.1463 37.6470,44.1833 Z" style="fill-rule: evenodd; fill: url(#grad4347); "/>
    <defs xmlns="http://www.w3.org/2000/svg">
      <radialGradient id="grad4348" cx="50.0000%" cy="50.0000%" r="100.0000%">
        <stop offset="0%" stop-color="#a2c475" stop-opacity="1.0000"/>
        <stop offset="100%" stop-color="#698843" stop-opacity="1.0000"/>
      </radialGradient>
    </defs>
    <path xmlns="http://www.w3.org/2000/svg" d="  M36.8325,46.3710 C37.3965,45.5640 37.7115,44.4870 37.6162,43.7850 C39.9315,44.6280 41.7037,45.8730 42.3172,46.3200 C44.9497,48.2423 44.9467,53.0078 44.9467,53.1480 C44.9467,55.7910 41.2132,57.9345 36.6075,57.9345 C34.3035,57.9345 32.2560,57.5940 30.7477,56.7263 C30.6240,56.6550 30.5872,56.6325 30.4560,56.5568 C30.6435,55.9875 32.0617,52.7003 33.2790,50.8410 C35.1510,47.9828 36.1882,47.2920 36.8325,46.3710 Z" style="fill-rule: evenodd; fill: url(#grad4348); "/>
    <path xmlns="http://www.w3.org/2000/svg" d="  M38.5642,35.9257 C38.0842,35.6430 37.3035,36.1057 36.8205,36.9592 C36.3375,37.8127 36.3352,38.7337 36.8152,39.0172 C37.2952,39.3000 38.0760,38.8380 38.5590,37.9837 C39.0427,37.1310 39.0450,36.2092 38.5642,35.9257 Z" style="fill-rule: evenodd; fill: #ebc8a8; "/>
    <defs xmlns="http://www.w3.org/2000/svg">
      <radialGradient id="grad4349" cx="50.0000%" cy="50.0000%" r="100.0000%">
        <stop offset="0%" stop-color="#6f4a24" stop-opacity="1.0000"/>
        <stop offset="100%" stop-color="#e4c2a0" stop-opacity="1.0000"/>
      </radialGradient>
    </defs>
    <path xmlns="http://www.w3.org/2000/svg" d="  M38.5642,36.3952 C38.0842,36.1125 37.3035,36.5752 36.8205,37.4287 C36.3375,38.2822 36.3352,39.2032 36.8152,39.4860 C37.2952,39.7687 38.0760,39.3067 38.5590,38.4532 C39.0427,37.5997 39.0450,36.6780 38.5642,36.3952 Z" style="fill-rule: evenodd; fill: url(#grad4349); "/>
    <defs xmlns="http://www.w3.org/2000/svg">
      <radialGradient id="grad4350" cx="0.0000%" cy="0.0000%" r="100.0000%">
        <stop offset="0%" stop-color="#e1d6ab" stop-opacity="1.0000"/>
        <stop offset="100%" stop-color="#7b6737" stop-opacity="1.0000"/>
      </radialGradient>
    </defs>
    <path xmlns="http://www.w3.org/2000/svg" d="  M28.1738,36.9952 C28.1738,37.0132 28.1738,37.0312 28.1738,37.0492 C28.2150,39.0780 28.7610,40.9087 29.6550,42.2070 C29.4577,42.4305 29.3378,42.7230 29.3378,43.0447 C29.3378,43.3035 29.4150,43.5442 29.5485,43.7452 C28.1168,43.6260 26.9843,42.1957 26.9843,40.4437 C26.9843,39.3187 27.4560,37.9125 28.1738,36.9952 Z" style="fill-rule: evenodd; fill: url(#grad4350); "/>
    <defs xmlns="http://www.w3.org/2000/svg">
      <radialGradient id="grad4351" cx="50.0000%" cy="50.0000%" r="100.0000%">
        <stop offset="0%" stop-color="#fee8c5" stop-opacity="1.0000"/>
        <stop offset="100%" stop-color="#ebc8a8" stop-opacity="1.0000"/>
      </radialGradient>
    </defs>
    <path xmlns="http://www.w3.org/2000/svg" d="  M37.6050,37.1880 C37.6050,41.1247 35.7015,44.1787 32.9670,44.1787 C30.2325,44.1787 28.2510,40.9860 28.1730,37.0492 C28.0822,32.3715 28.8030,30.1350 32.9670,29.9197 C35.6977,29.7787 37.6050,33.2505 37.6050,37.1880 Z" style="fill-rule: evenodd; fill: url(#grad4351); "/>
    <path xmlns="http://www.w3.org/2000/svg" d="  M32.9010,43.9597 C32.9220,43.9605 32.9437,43.9627 32.9640,43.9627 C35.5432,43.9627 37.3440,41.1022 37.3687,37.3995 C37.0125,40.2735 35.0767,43.5090 32.9010,43.9597 Z" style="fill-rule: evenodd; fill: #fee8c5; "/>
    <defs xmlns="http://www.w3.org/2000/svg" xmlns:xlink="http://www.w3.org/1999/xlink">
      <linearGradient id="grad4352">
        <stop offset="0%" stop-color="#7b6737" stop-opacity="1.0000"/>
        <stop offset="100%" stop-color="#b4a262" stop-opacity="1.0000"/>
      </linearGradient>
      <linearGradient xlink:href="#grad4352" id="grad4353" x1="0" y1="0" x2="0" y2="1" gradientTransform="rotate(90 .5 .5)" gradientUnits="objectBoundingBox">
  </linearGradient>
    </defs>
    <path xmlns="http://www.w3.org/2000/svg" d="  M26.8905,29.9055 C26.9347,28.6875 29.8432,27.5490 32.7780,27.5940 C34.9155,27.6262 36.6908,28.3012 37.8698,29.2597 C37.9485,29.3152 38.0190,29.3670 38.0782,29.4105 C38.4787,29.7067 39.0952,30.3982 39.0952,30.3982 C40.2420,31.7985 41.7712,35.5897 41.1442,39.1642 C40.2915,44.0407 37.4145,44.2462 35.1112,43.8375 C35.1112,43.8375 36.9472,42.2385 37.3590,39.5362 C37.7752,39.4027 38.2117,39.0660 38.5590,38.4532 C38.8530,37.9342 38.9617,37.4602 38.9062,36.9810 C38.9213,36.3825 38.8545,36.0960 38.5642,35.9257 C38.2882,35.7630 37.9133,35.8477 37.5510,36.1110 C37.5405,35.9670 37.5112,35.5327 37.3417,34.8727 C37.2232,34.7347 37.0627,34.6305 36.8422,34.5952 C36.4537,34.5322 35.3955,35.2575 34.2997,34.9650 C33.1740,34.6650 33.0217,34.0207 30.5505,32.9055 C28.9830,32.1997 28.6448,32.5440 28.6448,32.5440 C28.6448,32.5440 28.4662,32.3722 27.8100,31.6950 C26.9752,30.8317 26.8897,29.9475 26.8897,29.9475 C26.8897,29.9475 26.8957,29.9475 26.8972,29.9482 C26.8957,29.9332 26.8905,29.9190 26.8905,29.9055 Z" style="fill-rule: evenodd; fill: url(#grad4353); "/>
    <defs xmlns="http://www.w3.org/2000/svg">
      <radialGradient id="grad4354" cx="50.0000%" cy="50.0000%" r="100.0000%">
        <stop offset="0%" stop-color="#b4a262" stop-opacity="1.0000"/>
        <stop offset="100%" stop-color="#7b6737" stop-opacity="1.0000"/>
      </radialGradient>
    </defs>
    <path xmlns="http://www.w3.org/2000/svg" d="  M38.9490,32.3572 C38.9490,32.3572 40.0477,34.4602 40.2390,36.4192 C40.4302,38.3790 40.0492,40.0042 39.4357,41.0040 C38.7997,42.0420 38.6512,41.3287 38.7420,41.0362 C38.9055,40.5165 39.6292,39.1972 39.4282,36.6090 C39.3240,35.2740 38.0302,33.1102 38.0302,33.1102 L38.9490,32.3572 Z" style="fill-rule: evenodd; fill: url(#grad4354); "/>
    <defs xmlns="http://www.w3.org/2000/svg">
      <radialGradient id="grad4355" cx="100.0000%" cy="0.0000%" r="100.0000%">
        <stop offset="0%" stop-color="#e1d6ab" stop-opacity="1.0000"/>
        <stop offset="100%" stop-color="#b4a262" stop-opacity="1.0000"/>
      </radialGradient>
    </defs>
    <path xmlns="http://www.w3.org/2000/svg" d="  M27.0135,29.4930 C27.6112,28.4490 30.1777,27.5542 32.7780,27.5940 C36.2100,27.6457 38.7112,29.3535 39.3030,31.2337 C39.6660,32.3895 38.9460,33.1440 38.1637,33.5640 C37.3815,33.9840 34.6995,34.4422 32.4255,32.9055 C31.8727,32.5327 30.7050,31.8547 30.1515,31.5232 C28.7070,30.6592 26.6790,30.0780 27.0135,29.4930 Z" style="fill-rule: evenodd; fill: url(#grad4355); "/>
    <defs xmlns="http://www.w3.org/2000/svg" xmlns:xlink="http://www.w3.org/1999/xlink">
      <linearGradient id="grad4356">
        <stop offset="0%" stop-color="#080808" stop-opacity="1.0000"/>
        <stop offset="100%" stop-color="#c5c5c6" stop-opacity="1.0000"/>
      </linearGradient>
      <linearGradient xlink:href="#grad4356" id="grad4357" x1="0" y1="0" x2="0" y2="1" gradientTransform="rotate(315 .5 .5)" gradientUnits="objectBoundingBox">
  </linearGradient>
    </defs>
    <path xmlns="http://www.w3.org/2000/svg" d="  M25.8352,40.9785 C25.6057,40.8120 24.5197,40.1032 24.5197,40.1032 C24.5197,40.1032 24.1365,40.0215 24.0930,40.0178 C23.8643,39.9960 23.5688,40.2098 23.3715,40.5562 C23.1585,40.9335 23.1413,41.3340 23.3168,41.5058 L23.6257,41.7743 C23.6257,41.7743 24.7568,42.3743 25.0170,42.4830 C25.2502,42.5805 25.8780,42.5813 25.8780,42.5813 L26.4412,41.5860 C26.4412,41.5853 26.0707,41.1488 25.8352,40.9785 Z" style="fill-rule: evenodd; fill: url(#grad4357); "/>
    <g xmlns="http://www.w3.org/2000/svg" id="Layer1119">
      <path d="  M23.8230,40.7835 C24.0547,40.3732 24.4155,40.1370 24.6720,40.2052 C24.6562,40.1917 24.5730,40.1415 24.5557,40.1310 C24.2992,39.9802 23.8845,40.2262 23.6280,40.6800 C23.3715,41.1337 23.3692,41.6235 23.6257,41.7735 C23.6497,41.7885 23.7472,41.8298 23.7742,41.8380 C23.5687,41.6557 23.5845,41.2065 23.8230,40.7835 Z" style="stroke-width: 0.0196; stroke-linecap: butt; stroke-linejoin: miter; fill-rule: evenodd; fill: #ced0cf; "/>
      <path d="  M23.8230,40.7835 C24.0547,40.3732 24.4155,40.1370 24.6720,40.2052 C24.6562,40.1917 24.5730,40.1415 24.5557,40.1310 C24.2992,39.9802 23.8845,40.2262 23.6280,40.6800 C23.3715,41.1337 23.3692,41.6235 23.6257,41.7735 C23.6497,41.7885 23.7472,41.8298 23.7742,41.8380 C23.5687,41.6557 23.5845,41.2065 23.8230,40.7835 Z" style="stroke-width: 0.0196; stroke: #010101; stroke-dasharray: none; stroke-linecap: butt; stroke-linejoin: miter; fill: none; "/>
    </g>
    <path xmlns="http://www.w3.org/2000/svg" d="  M26.4412,41.5853 C26.2867,41.4937 26.0347,41.6430 25.8802,41.9183 C25.7242,42.1928 25.7235,42.4898 25.8780,42.5805 C26.0332,42.6713 26.2837,42.5228 26.4405,42.2482 C26.5957,41.9738 26.5972,41.6760 26.4412,41.5853 Z" style="fill-rule: evenodd; fill: #333333; "/>
    <defs xmlns="http://www.w3.org/2000/svg" xmlns:xlink="http://www.w3.org/1999/xlink">
      <linearGradient id="grad4358">
        <stop offset="0%" stop-color="#080808" stop-opacity="1.0000"/>
        <stop offset="100%" stop-color="#c5c5c6" stop-opacity="1.0000"/>
      </linearGradient>
      <linearGradient xlink:href="#grad4358" id="grad4359" x1="0" y1="0" x2="0" y2="1" gradientTransform="rotate(90 .5 .5)" gradientUnits="objectBoundingBox">
  </linearGradient>
    </defs>
    <path xmlns="http://www.w3.org/2000/svg" d="  M39.1365,36.5798 C38.3633,36.1253 37.1078,36.8685 36.3300,38.2418 C35.5530,39.6143 35.5493,41.0963 36.3225,41.5508 C37.0943,42.0053 38.3505,41.2613 39.1275,39.8888 C39.9038,38.5162 39.9083,37.0350 39.1365,36.5798 Z" style="fill-rule: evenodd; fill: url(#grad4359); "/>
    <defs xmlns="http://www.w3.org/2000/svg">
      <radialGradient id="grad4360" cx="50.0000%" cy="50.0000%" r="100.0000%">
        <stop offset="0%" stop-color="#ffffff" stop-opacity="1.0000"/>
        <stop offset="100%" stop-color="#669a9a" stop-opacity="1.0000"/>
      </radialGradient>
    </defs>
    <path xmlns="http://www.w3.org/2000/svg" d="  M38.8230,37.1325 C38.2223,36.7785 37.2450,37.3575 36.6405,38.4255 C36.0360,39.4928 36.0338,40.6455 36.6345,40.9995 C37.2353,41.3535 38.2125,40.7745 38.8163,39.7065 C39.4200,38.6385 39.4238,37.4858 38.8230,37.1325 Z" style="fill-rule: evenodd; fill: url(#grad4360); "/>
    <defs xmlns="http://www.w3.org/2000/svg">
      <linearGradient id="grad4361">
        <stop offset="0%" stop-color="#080808" stop-opacity="1.0000"/>
        <stop offset="100%" stop-color="#c5c5c6" stop-opacity="1.0000"/>
      </linearGradient>
    </defs>
    <path xmlns="http://www.w3.org/2000/svg" d="  M38.1870,38.6955 C38.1472,38.6730 38.0962,38.6798 38.0452,38.7075 L38.0415,38.7098 C38.0377,38.7113 38.0347,38.7128 38.0317,38.7150 L37.5705,38.9828 L37.5705,38.9858 C37.5090,39.0158 37.4460,39.0758 37.3987,39.1583 C37.3155,39.3068 37.3147,39.4665 37.3972,39.5153 C37.4377,39.5393 37.4895,39.5318 37.5427,39.5018 L37.5427,39.5033 L38.0332,39.2168 L38.0332,39.2153 C38.0880,39.1830 38.1435,39.1260 38.1855,39.0518 C38.2702,38.9040 38.2710,38.7443 38.1870,38.6955 Z" style="fill-rule: evenodd; fill: url(#grad4361); "/>
    <defs xmlns="http://www.w3.org/2000/svg" xmlns:xlink="http://www.w3.org/1999/xlink">
      <linearGradient id="grad4362">
        <stop offset="0%" stop-color="#ffffff" stop-opacity="1.0000"/>
        <stop offset="100%" stop-color="#669a9a" stop-opacity="1.0000"/>
      </linearGradient>
      <linearGradient xlink:href="#grad4362" id="grad4363" x1="0" y1="0" x2="0" y2="1" gradientTransform="rotate(90 .5 .5)" gradientUnits="objectBoundingBox">
  </linearGradient>
    </defs>
    <path xmlns="http://www.w3.org/2000/svg" d="  M36.8340,40.2630 C36.7050,40.1865 36.4957,40.3110 36.3660,40.5405 C36.3480,40.5735 36.3315,40.6065 36.3187,40.6395 C36.3937,40.7933 36.4972,40.9178 36.6352,40.9988 C36.6465,41.0055 36.6585,41.0100 36.6705,41.0153 C36.7305,40.9650 36.7867,40.8968 36.8332,40.8143 C36.9630,40.5863 36.9630,40.3388 36.8340,40.2630 Z" style="fill-rule: evenodd; fill: url(#grad4363); "/>
    <path xmlns="http://www.w3.org/2000/svg" d="  M36.6938,40.3275 C36.6330,40.2923 36.5498,40.3148 36.4718,40.3793 L32.5380,42.6548 C32.0100,42.9623 31.0245,43.2068 30.0030,43.2053 C29.1435,43.2053 28.2547,43.0350 27.5677,42.6293 L26.3002,41.9063 C26.2987,41.9063 26.2980,41.9033 26.2972,41.9025 C26.2297,41.8628 26.1210,41.9273 26.0542,42.0465 C25.9867,42.1658 25.9867,42.2940 26.0527,42.3330 C26.0572,42.3360 27.3210,43.0538 27.3210,43.0538 C28.1137,43.5188 29.0805,43.6943 30.0030,43.6950 C31.1032,43.6920 32.1375,43.4483 32.7832,43.0793 L36.3682,41.0063 C36.5287,40.9013 36.6473,40.8150 36.6930,40.7355 C36.7882,40.5675 36.7890,40.3838 36.6938,40.3275 Z" style="fill-rule: evenodd; fill: #333333; "/>
    <!--converted by libvisio2svg-->
  </g>
</svg>
