<svg xmlns="http://www.w3.org/2000/svg" xmlns:xlink="http://www.w3.org/1999/xlink" version="1.1" width="0.7703000000" height="0.6253000000" viewBox="0 0 55.4640 45.0210">
  <title><![CDATA[Response Group Application]]></title>
  <g transform=" scale(1.000000) ">
    <path xmlns="http://www.w3.org/2000/svg" d="  M0.0390,45.0210 L55.4640,45.0210 L55.4640,0.0240 L0.0390,0.0240 L0.0390,45.0210 Z" style="stroke-width: 1.5000; stroke: #8d98b5; stroke-dasharray: none; stroke-linecap: butt; stroke-linejoin: miter; fill: none; "/>
    <defs xmlns="http://www.w3.org/2000/svg" xmlns:xlink="http://www.w3.org/1999/xlink">
      <linearGradient id="grad4247">
        <stop offset="0%" stop-color="#7f8787" stop-opacity="1.0000"/>
        <stop offset="100%" stop-color="#f3f9f7" stop-opacity="1.0000"/>
      </linearGradient>
      <linearGradient xlink:href="#grad4247" id="grad4248" x1="0" y1="0" x2="0" y2="1" gradientTransform="rotate(135 .5 .5)" gradientUnits="objectBoundingBox">
  </linearGradient>
    </defs>
    <path xmlns="http://www.w3.org/2000/svg" d="  M0.0000,44.9962 L55.4257,44.9962 L55.4257,0.0000 L0.0000,0.0000 L0.0000,44.9962 Z" style="fill-rule: evenodd; fill: url(#grad4248); "/>
    <g xmlns="http://www.w3.org/2000/svg" id="Layer1115">
      <path d="  M1.0755,43.8855 L54.3495,43.8855 L54.3495,3.4132 L1.0755,3.4132 L1.0755,43.8855 Z" style="stroke-width: 0.5625; stroke-linecap: butt; stroke-linejoin: miter; fill-rule: evenodd; fill: #ffffff; "/>
      <path d="  M1.0755,43.8855 L54.3495,43.8855 L54.3495,3.4132 L1.0755,3.4132 L1.0755,43.8855 Z" style="stroke-width: 0.5625; stroke: #757575; stroke-dasharray: none; stroke-linecap: butt; stroke-linejoin: miter; fill: none; "/>
    </g>
    <path xmlns="http://www.w3.org/2000/svg" d="  M47.2170,2.5890 L49.2637,2.5890 L49.2637,0.5895 L47.2170,0.5895 L47.2170,2.5890 Z" style="fill-rule: evenodd; fill: #b2b2b2; "/>
    <path xmlns="http://www.w3.org/2000/svg" d="  M43.5990,2.5890 L45.6465,2.5890 L45.6465,0.5895 L43.5990,0.5895 L43.5990,2.5890 Z" style="fill-rule: evenodd; fill: #b2b2b2; "/>
    <path xmlns="http://www.w3.org/2000/svg" d="  M50.8470,2.5823 L52.8937,2.5823 L52.8937,0.5828 L50.8470,0.5828 L50.8470,2.5823 Z" style="fill-rule: evenodd; fill: #b2b2b2; "/>
    <defs xmlns="http://www.w3.org/2000/svg" xmlns:xlink="http://www.w3.org/1999/xlink">
      <linearGradient id="grad4249">
        <stop offset="0%" stop-color="#7f8787" stop-opacity="1.0000"/>
        <stop offset="100%" stop-color="#dae1e1" stop-opacity="1.0000"/>
      </linearGradient>
      <linearGradient xlink:href="#grad4249" id="grad4250" x1="0" y1="0" x2="0" y2="1" gradientTransform="rotate(180 .5 .5)" gradientUnits="objectBoundingBox">
  </linearGradient>
    </defs>
    <path xmlns="http://www.w3.org/2000/svg" d="  M1.5675,5.4607 L53.9085,5.4607 L53.9085,3.9233 L1.5675,3.9233 L1.5675,5.4607 Z" style="fill-rule: evenodd; fill: url(#grad4250); "/>
    <path xmlns="http://www.w3.org/2000/svg" d="  M15.9848,29.3940 C15.3465,29.0115 14.1270,28.2878 14.1270,28.2878 C13.8397,28.1723 13.5090,28.1385 13.1483,28.1910 C12.8025,28.1063 12.4425,28.0590 12.0698,28.0590 C11.6257,28.0590 11.1983,28.1250 10.7940,28.2450 C10.6680,28.1805 10.1887,27.9300 10.1070,27.8512 C10.0132,27.7590 9.8647,27.6285 9.8032,27.2332 C9.6150,25.7842 9.5122,24.2227 9.5122,22.5975 C9.5122,20.5943 9.6682,18.6915 9.9480,16.9725 L11.7578,17.9078 C11.8897,17.9820 12.0323,18.0367 12.1838,18.0727 C12.1897,18.0735 12.1950,18.0750 12.1995,18.0765 C12.2333,18.0840 12.2670,18.0900 12.3022,18.0960 C12.3113,18.0967 12.3195,18.0990 12.3285,18.0997 C12.3608,18.1042 12.3930,18.1080 12.4260,18.1110 C12.4380,18.1117 12.4500,18.1133 12.4620,18.1140 C12.4927,18.1155 12.5242,18.1170 12.5557,18.1177 C12.5708,18.1177 12.5850,18.1185 12.6000,18.1185 C12.6300,18.1185 12.6600,18.1177 12.6907,18.1163 C12.7065,18.1155 12.7245,18.1148 12.7402,18.1140 C12.7695,18.1125 12.7995,18.1095 12.8295,18.1065 C12.8475,18.1042 12.8670,18.1020 12.8850,18.0997 C12.9142,18.0960 12.9427,18.0922 12.9720,18.0870 C12.9922,18.0833 13.0140,18.0795 13.0343,18.0758 C13.0620,18.0705 13.0897,18.0645 13.1182,18.0577 C13.1407,18.0525 13.1632,18.0465 13.1850,18.0413 C13.2135,18.0345 13.2412,18.0270 13.2683,18.0195 C13.2922,18.0127 13.3162,18.0045 13.3402,17.9970 C13.3680,17.9888 13.3943,17.9797 13.4220,17.9700 C13.4475,17.9610 13.4730,17.9512 13.4992,17.9415 C13.5255,17.9317 13.5517,17.9228 13.5787,17.9115 C13.6058,17.9002 13.6343,17.8875 13.6635,17.8755 C13.6875,17.8642 13.7115,17.8545 13.7370,17.8433 C13.7693,17.8275 13.8030,17.8117 13.8360,17.7953 C13.8570,17.7847 13.8772,17.7758 13.8983,17.7645 C13.9522,17.7360 14.0070,17.7060 14.0625,17.6753 C15.8700,16.6305 17.3415,14.0827 17.3415,11.9947 C17.3415,11.8635 17.3355,11.7367 17.3250,11.6152 C17.3250,11.6145 17.3242,11.6130 17.3242,11.6115 C17.3122,11.4915 17.2958,11.3767 17.2740,11.2665 C17.2740,11.2642 17.2733,11.2627 17.2725,11.2605 C17.2507,11.1510 17.2245,11.0468 17.1922,10.9478 C17.1922,10.9463 17.1907,10.9447 17.1907,10.9425 C17.1585,10.8442 17.1210,10.7505 17.0797,10.6620 C17.0797,10.6605 17.0790,10.6597 17.0782,10.6575 C17.0363,10.5690 16.9905,10.4865 16.9387,10.4093 C16.9380,10.4085 16.9372,10.4077 16.9372,10.4062 C16.8863,10.3290 16.8300,10.2570 16.7715,10.1910 C16.7700,10.1903 16.7700,10.1903 16.7700,10.1903 C16.7100,10.1235 16.6463,10.0635 16.5780,10.0095 L16.5780,10.0087 C16.5098,9.9547 16.4377,9.9060 16.3627,9.8640 C16.3785,9.8655 14.1765,8.7427 14.1765,8.7427 C13.5488,8.4060 12.8318,8.2140 12.0690,8.2140 C10.3230,8.2140 8.8110,9.2183 8.0797,10.6808 C6.5925,13.0890 5.5943,17.5238 5.5943,22.5990 C5.5943,27.6743 6.5925,32.1083 8.0790,34.5165 C8.3415,35.0393 8.7030,35.5035 9.1395,35.8845 C9.3000,36.1275 9.5025,36.3150 9.7417,36.4410 C9.7417,36.4410 11.8980,37.7415 11.8568,37.7212 C12.4395,37.9980 13.2142,37.9245 14.0625,37.4355 C15.8700,36.3907 17.3415,33.8438 17.3415,31.7550 C17.3415,31.7415 17.3392,31.7303 17.3392,31.7168 C17.3392,31.7033 17.3415,31.6905 17.3415,31.6770 C17.3430,30.4162 16.8068,29.6077 15.9848,29.3940 Z" style="stroke-width: 1.5000; stroke: #8d98b5; stroke-dasharray: none; stroke-linecap: butt; stroke-linejoin: miter; fill: none; "/>
    <path xmlns="http://www.w3.org/2000/svg" d="  M31.5172,31.4767 C30.9750,31.0815 29.4270,29.9955 27.3997,29.2358 C28.7550,28.8990 29.9738,27.8032 30.4597,25.0170 C31.0253,21.7905 29.6453,18.3675 28.6095,17.1030 C28.6095,17.1030 28.0530,16.4782 27.6908,16.2112 C27.6368,16.1715 27.5737,16.1250 27.5025,16.0747 C26.4375,15.2100 24.8348,14.6003 22.9050,14.5710 C20.2560,14.5312 17.6310,15.5580 17.5905,16.6582 C17.5905,16.6703 17.5942,16.6837 17.5973,16.6965 C17.5950,16.6965 17.5905,16.6965 17.5905,16.6965 C17.5905,16.6965 17.6670,17.4945 18.4207,18.2745 C18.9593,18.8303 19.1400,19.0080 19.1685,19.0357 C18.8025,20.0482 18.7155,21.3975 18.7485,23.1098 C18.7477,23.0940 18.7477,23.0775 18.7477,23.0602 C18.1005,23.8883 17.6737,25.1580 17.6737,26.1728 C17.6737,26.9655 17.9295,27.6833 18.3465,28.2180 C18.2992,28.1933 18.2460,28.1752 18.2010,28.1490 L17.2620,27.6127 C17.3137,27.4313 17.2883,27.2655 17.1840,27.2040 C17.1840,27.2040 16.8495,26.8118 16.6372,26.6565 C16.4295,26.5057 15.4492,25.8667 15.4492,25.8667 C15.4492,25.8667 15.1035,25.7918 15.0637,25.7888 C14.8582,25.7685 14.5890,25.9613 14.4120,26.2733 C14.2200,26.6145 14.2050,26.9768 14.3625,27.1305 L14.5650,27.3075 C14.5868,27.3338 14.6122,27.3570 14.6430,27.3750 C14.6430,27.3750 15.6637,27.9158 15.8992,28.0140 C16.1093,28.1018 16.6770,28.1033 16.6770,28.1033 C16.7730,28.1588 16.9095,28.1093 17.0325,27.9938 C17.3602,28.1797 17.9805,28.5315 17.9805,28.5315 C18.4290,28.7955 18.9390,28.9545 19.4633,29.0385 C19.6335,29.0985 19.9688,29.1135 19.9560,29.0925 C20.1052,29.1045 20.5253,29.1075 20.5868,29.1060 C18.9713,29.7097 17.4810,30.7440 16.8727,32.3085 C16.4858,33.3030 16.3207,34.8517 16.2090,36.1800 C16.2082,36.2033 16.2075,36.2295 16.2075,36.2535 C16.2075,37.4002 16.9860,38.4435 18.2572,39.2168 C18.7672,39.5272 19.6095,40.0192 20.2688,40.4047 C20.2703,40.4063 20.2703,40.4077 20.2703,40.4077 L20.8253,40.7318 L20.8260,40.7318 C20.9295,40.7917 20.9670,40.8150 21.0727,40.8750 C22.4347,41.6588 24.2827,41.9663 26.3633,41.9663 C30.5220,41.9663 33.8925,40.0313 33.8925,37.6447 C33.8918,37.5150 33.8948,33.2130 31.5172,31.4767 Z" style="stroke-width: 1.5000; stroke: #8d98b5; stroke-dasharray: none; stroke-linecap: butt; stroke-linejoin: miter; fill: none; "/>
    <path xmlns="http://www.w3.org/2000/svg" d="  M30.3233,31.7992 C30.3233,31.8270 30.3217,31.8562 30.3217,31.8825 C30.3217,33.1800 31.2037,34.3612 32.6422,35.2372 C33.6045,35.8215 34.8457,36.5482 35.8282,37.1137 C37.3710,38.0002 39.4628,38.3482 41.8163,38.3482 C46.5225,38.3482 50.3385,36.1582 50.3385,33.4560 C50.3385,33.3143 50.3415,28.4430 47.6505,26.4787 C47.0820,26.0640 45.1762,24.7883 43.0597,23.9123 C42.9397,23.2792 42.6923,21.9263 42.5250,20.9910 C43.2030,21.0232 44.0707,20.3903 44.6460,19.3725 C45.2835,18.2460 45.3420,17.0415 44.8260,16.5218 C45.4867,13.6125 44.6107,10.7933 43.2165,9.8115 C42.7478,9.4815 41.6932,8.7705 39.6292,8.5875 C39.2250,8.5328 38.8043,8.5035 38.3707,8.5035 C35.3265,8.5035 32.8583,9.9202 32.8583,11.6677 C32.8583,12.1432 33.0428,12.5948 33.3698,12.9998 C32.9775,14.1555 32.8552,15.5625 32.8552,17.1188 C32.8552,18.8685 33.2843,20.4727 33.9990,21.7282 L33.2707,21.3127 C33.3217,21.1297 33.2970,20.9648 33.1920,20.9033 C33.1920,20.9033 32.8583,20.5102 32.6452,20.3557 C32.4375,20.2058 31.4572,19.5660 31.4572,19.5660 C31.4572,19.5660 31.1100,19.4918 31.0717,19.4887 C30.8655,19.4692 30.5970,19.6612 30.4200,19.9740 C30.2265,20.3145 30.2122,20.6768 30.3705,20.8312 L30.5730,21.0068 C30.5947,21.0338 30.6202,21.0570 30.6495,21.0742 C30.6495,21.0742 31.6702,21.6157 31.9065,21.7148 C32.1172,21.8025 32.6843,21.8033 32.6843,21.8033 C32.7810,21.8603 32.9190,21.8115 33.0420,21.6945 C33.3705,21.8805 33.9885,22.2315 33.9885,22.2315 C34.1468,22.3245 34.3155,22.4032 34.4880,22.4722 C34.8412,22.9410 35.2395,23.3407 35.6760,23.6497 C33.6968,24.3075 31.8120,25.5187 31.0747,27.4170 C30.6368,28.5428 30.4493,30.2947 30.3233,31.7992 Z" style="stroke-width: 1.5000; stroke: #8d98b5; stroke-dasharray: none; stroke-linecap: butt; stroke-linejoin: miter; fill: none; "/>
    <defs xmlns="http://www.w3.org/2000/svg" xmlns:xlink="http://www.w3.org/1999/xlink">
      <linearGradient id="grad4251">
        <stop offset="0%" stop-color="#333b58" stop-opacity="1.0000"/>
        <stop offset="100%" stop-color="#95a8c2" stop-opacity="1.0000"/>
      </linearGradient>
      <linearGradient xlink:href="#grad4251" id="grad4252" x1="0" y1="0" x2="0" y2="1" gradientTransform="rotate(315 .5 .5)" gradientUnits="objectBoundingBox">
  </linearGradient>
    </defs>
    <path xmlns="http://www.w3.org/2000/svg" d="  M10.6477,8.7600 C11.3430,8.7600 12.0052,9.1448 12.6067,9.8385 C10.7895,11.9348 9.5130,16.8578 9.5130,22.5975 C9.5130,24.2228 9.6157,25.7842 9.8040,27.2333 C9.8655,27.6285 10.0140,27.7590 10.1077,27.8512 C10.2015,27.9420 10.8255,28.2615 10.8255,28.2615 C10.8255,28.2615 11.9123,34.5563 12.6067,35.3558 C12.0045,36.0518 11.3422,36.4350 10.6477,36.4350 C7.8577,36.4350 5.5957,30.2400 5.5957,22.5975 C5.5950,14.9550 7.8577,8.7600 10.6477,8.7600 Z" style="fill-rule: evenodd; fill: url(#grad4252); "/>
    <defs xmlns="http://www.w3.org/2000/svg" xmlns:xlink="http://www.w3.org/1999/xlink">
      <linearGradient id="grad4253">
        <stop offset="0%" stop-color="#333b58" stop-opacity="1.0000"/>
        <stop offset="100%" stop-color="#95a8c2" stop-opacity="1.0000"/>
      </linearGradient>
      <linearGradient xlink:href="#grad4253" id="grad4254" x1="0" y1="0" x2="0" y2="1" gradientTransform="rotate(90 .5 .5)" gradientUnits="objectBoundingBox">
  </linearGradient>
    </defs>
    <path xmlns="http://www.w3.org/2000/svg" d="  M10.6477,8.7600 C11.0587,8.7600 11.4577,8.8980 11.8402,9.1508 C10.6657,9.9300 9.4807,16.2300 9.4807,16.2300 L8.8215,16.3313 C8.8215,16.3313 8.5267,16.3920 8.4757,16.6133 C8.1577,18.4245 7.9792,20.4540 7.9792,22.5975 C7.9792,24.5010 8.1202,26.3130 8.3745,27.9622 C8.4037,28.2345 8.6092,28.6508 8.8170,28.8150 C9.4245,29.3010 10.6132,30.2520 10.6132,30.2520 C10.6132,30.2520 10.8300,35.3745 11.8402,36.0443 C11.4577,36.2978 11.0587,36.4350 10.6477,36.4350 C7.8577,36.4350 5.5957,30.2400 5.5957,22.5975 C5.5950,14.9550 7.8577,8.7600 10.6477,8.7600 Z" style="fill-rule: evenodd; fill: url(#grad4254); "/>
    <path xmlns="http://www.w3.org/2000/svg" d="  M8.7637,28.8825 C8.5298,28.6905 8.3265,28.2727 8.2898,27.9757 C8.0348,26.3220 7.8945,24.5040 7.8945,22.5967 C7.8945,20.4487 8.0723,18.4147 8.3933,16.5945 C8.4712,16.3027 8.7997,16.2532 8.8087,16.2472 L9.4680,16.1460 L9.4935,16.3140 L8.8388,16.4145 C8.8388,16.4152 8.7765,16.4280 8.7075,16.4640 C8.6385,16.5015 8.5755,16.5570 8.5597,16.6275 C8.2433,18.4327 8.0663,20.4577 8.0663,22.5960 C8.0663,24.4942 8.2058,26.3032 8.4585,27.9532 C8.4810,28.1947 8.6902,28.6110 8.8702,28.7490 C9.0007,28.8532 9.1575,28.9792 9.3247,29.1120 L9.2175,29.2455 C9.0517,29.1127 8.8935,28.9867 8.7637,28.8825 Z" style="fill-rule: evenodd; fill: #8d98b5; "/>
    <path xmlns="http://www.w3.org/2000/svg" d="  M11.3715,35.7090 C11.4008,35.7570 11.4315,35.8013 11.4638,35.8395 C11.4728,35.8335 11.4795,35.8290 11.4885,35.8245 C11.4480,35.7953 11.4098,35.7540 11.3715,35.7090 Z" style="fill-rule: evenodd; fill: #ffffff; fill-opacity: 0.6000; "/>
    <defs xmlns="http://www.w3.org/2000/svg">
      <radialGradient id="grad4255" cx="100.0000%" cy="0.0000%" r="100.0000%">
        <stop offset="0%" stop-color="#ffffff" stop-opacity="1.0000"/>
        <stop offset="100%" stop-color="#454f6c" stop-opacity="1.0000"/>
      </radialGradient>
    </defs>
    <path xmlns="http://www.w3.org/2000/svg" d="  M16.5315,12.6743 A4.4610,4.4610 180.0000 1,1 12.0705,8.2133 A4.4610,4.4610 180.0000 0,1 16.5315,12.6743 Z" style="fill-rule: evenodd; fill: url(#grad4255); "/>
    <defs xmlns="http://www.w3.org/2000/svg">
      <radialGradient id="grad4256" cx="100.0000%" cy="0.0000%" r="100.0000%">
        <stop offset="0%" stop-color="#95a8c2" stop-opacity="1.0000"/>
        <stop offset="100%" stop-color="#454f6c" stop-opacity="1.0000"/>
      </radialGradient>
    </defs>
    <path xmlns="http://www.w3.org/2000/svg" d="  M16.5315,32.5215 A4.4610,4.4610 180.0000 1,1 12.0705,28.0605 A4.4610,4.4610 180.0000 0,1 16.5315,32.5215 Z" style="fill-rule: evenodd; fill: url(#grad4256); "/>
    <defs xmlns="http://www.w3.org/2000/svg" xmlns:xlink="http://www.w3.org/1999/xlink">
      <linearGradient id="grad4257">
        <stop offset="0%" stop-color="#333b58" stop-opacity="1.0000"/>
        <stop offset="100%" stop-color="#95a8c2" stop-opacity="1.0000"/>
      </linearGradient>
      <linearGradient xlink:href="#grad4257" id="grad4258" x1="0" y1="0" x2="0" y2="1" gradientTransform="rotate(225 .5 .5)" gradientUnits="objectBoundingBox">
  </linearGradient>
    </defs>
    <path xmlns="http://www.w3.org/2000/svg" d="  M9.7433,16.8667 C9.1507,16.5232 8.7840,15.7897 8.7840,14.7465 C8.7840,12.6585 10.2547,10.1107 12.0622,9.0667 C12.8685,8.6010 13.6080,8.5125 14.1780,8.7413 C14.1780,8.7413 16.3807,9.8640 16.3642,9.8625 C16.9680,10.2008 17.3437,10.9387 17.3437,11.9925 C17.3437,14.0805 15.8722,16.6290 14.0647,17.6730 C13.2105,18.1650 12.4327,18.2355 11.8492,17.9542 L9.7433,16.8667 Z" style="fill-rule: evenodd; fill: url(#grad4258); "/>
    <defs xmlns="http://www.w3.org/2000/svg" xmlns:xlink="http://www.w3.org/1999/xlink">
      <linearGradient id="grad4259">
        <stop offset="0%" stop-color="#333b58" stop-opacity="1.0000"/>
        <stop offset="100%" stop-color="#95a8c2" stop-opacity="1.0000"/>
      </linearGradient>
      <linearGradient xlink:href="#grad4259" id="grad4260" x1="0" y1="0" x2="0" y2="1" gradientTransform="rotate(225 .5 .5)" gradientUnits="objectBoundingBox">
  </linearGradient>
    </defs>
    <path xmlns="http://www.w3.org/2000/svg" d="  M9.7432,36.4395 C9.1207,36.1103 8.7330,35.3640 8.7330,34.2923 C8.7330,32.2050 10.2037,29.6573 12.0120,28.6132 C12.8175,28.1475 13.5570,28.0597 14.1270,28.2877 C14.1270,28.2877 16.3800,29.6250 16.3635,29.6235 C16.9672,29.9618 17.3430,30.7005 17.3430,31.7535 C17.3430,33.8423 15.8715,36.3900 14.0640,37.4340 C13.2150,37.9230 12.4410,37.9965 11.8583,37.7198 C11.8995,37.7408 9.7432,36.4395 9.7432,36.4395 Z" style="fill-rule: evenodd; fill: url(#grad4260); "/>
    <path xmlns="http://www.w3.org/2000/svg" d="  M14.0640,17.6737 C15.8715,16.6290 17.3430,14.0812 17.3430,11.9932 C17.3430,9.9052 15.8715,9.0562 14.0640,10.1002 C12.2550,11.1450 10.7842,13.6927 10.7842,15.7800 C10.7842,17.8687 12.2550,18.7177 14.0640,17.6737 Z" style="fill-rule: evenodd; fill: #333b58; fill-opacity: 0.9882; "/>
    <defs xmlns="http://www.w3.org/2000/svg" xmlns:xlink="http://www.w3.org/1999/xlink">
      <linearGradient id="grad4261">
        <stop offset="0%" stop-color="#202638" stop-opacity="1.0000"/>
        <stop offset="100%" stop-color="#6e88a8" stop-opacity="1.0000"/>
      </linearGradient>
      <linearGradient xlink:href="#grad4261" id="grad4262" x1="0" y1="0" x2="0" y2="1" gradientTransform="rotate(-0 .5 .5)" gradientUnits="objectBoundingBox">
  </linearGradient>
    </defs>
    <path xmlns="http://www.w3.org/2000/svg" d="  M14.0640,16.5915 C15.3555,15.8452 16.4055,14.0257 16.4055,12.5347 C16.4055,11.0430 15.3555,10.4362 14.0640,11.1825 C12.7717,11.9280 11.7217,13.7482 11.7217,15.2392 C11.7217,16.7302 12.7725,17.3377 14.0640,16.5915 Z" style="fill-rule: evenodd; fill: url(#grad4262); "/>
    <path xmlns="http://www.w3.org/2000/svg" d="  M14.0640,14.7922 C14.4960,14.5425 14.8470,13.9335 14.8470,13.4347 C14.8470,12.9360 14.4960,12.7327 14.0640,12.9817 C13.6320,13.2315 13.2795,13.8405 13.2795,14.3392 C13.2795,14.8387 13.6320,15.0420 14.0640,14.7922 Z" style="fill-rule: evenodd; fill: #333333; "/>
    <path xmlns="http://www.w3.org/2000/svg" d="  M14.0820,37.4475 C15.8903,36.4028 17.3618,33.8543 17.3618,31.7670 C17.3618,29.6783 15.8903,28.8300 14.0820,29.8733 C12.2738,30.9180 10.8023,33.4665 10.8023,35.5538 C10.8023,37.6410 12.2738,38.4908 14.0820,37.4475 Z" style="fill-rule: evenodd; fill: #333b58; fill-opacity: 0.9882; "/>
    <defs xmlns="http://www.w3.org/2000/svg" xmlns:xlink="http://www.w3.org/1999/xlink">
      <linearGradient id="grad4263">
        <stop offset="0%" stop-color="#202638" stop-opacity="1.0000"/>
        <stop offset="100%" stop-color="#6e88a8" stop-opacity="1.0000"/>
      </linearGradient>
      <linearGradient xlink:href="#grad4263" id="grad4264" x1="0" y1="0" x2="0" y2="1" gradientTransform="rotate(-0 .5 .5)" gradientUnits="objectBoundingBox">
  </linearGradient>
    </defs>
    <path xmlns="http://www.w3.org/2000/svg" d="  M14.0640,36.2745 C15.3555,35.5290 16.4055,33.7095 16.4055,32.2170 C16.4055,30.7260 15.3555,30.1193 14.0640,30.8648 C12.7717,31.6103 11.7217,33.4313 11.7217,34.9223 C11.7217,36.4133 12.7725,37.0200 14.0640,36.2745 Z" style="fill-rule: evenodd; fill: url(#grad4264); "/>
    <path xmlns="http://www.w3.org/2000/svg" d="  M14.0438,34.5135 C14.4713,34.2660 14.8185,33.6652 14.8185,33.1717 C14.8185,32.6782 14.4713,32.4787 14.0438,32.7247 C13.6178,32.9707 13.2698,33.5730 13.2698,34.0650 C13.2698,34.5592 13.6178,34.7595 14.0438,34.5135 Z" style="fill-rule: evenodd; fill: #333333; "/>
    <defs xmlns="http://www.w3.org/2000/svg">
      <radialGradient id="grad4265" cx="50.0000%" cy="50.0000%" r="100.0000%">
        <stop offset="0%" stop-color="#a6d6f5" stop-opacity="1.0000"/>
        <stop offset="100%" stop-color="#6c90b4" stop-opacity="1.0000"/>
      </radialGradient>
    </defs>
    <path xmlns="http://www.w3.org/2000/svg" d="  M50.3392,33.4560 C50.3392,33.3142 50.3422,28.4430 47.6512,26.4787 C46.7722,25.8375 42.6900,23.1330 39.5813,23.0392 C36.8655,22.9567 32.3242,24.2025 31.0747,27.4177 C30.6367,28.5427 30.4492,30.2947 30.3232,31.7992 C30.3232,31.8270 30.3217,31.8562 30.3217,31.8825 C30.3217,33.1800 31.2037,34.3612 32.6423,35.2372 C33.6045,35.8215 34.8457,36.5482 35.8283,37.1137 C37.3710,38.0002 39.4627,38.3482 41.8162,38.3482 C46.5232,38.3482 50.3392,36.1582 50.3392,33.4560 Z" style="fill-rule: evenodd; fill: url(#grad4265); "/>
    <path xmlns="http://www.w3.org/2000/svg" d="  M34.4745,36.3270 C36.2647,32.5875 36.8287,31.5645 37.6485,30.3120 C39.5632,27.3908 41.8380,26.6160 42.5422,25.7093 C43.5532,24.4102 43.1865,23.7203 42.2962,23.3812 C41.5080,23.0798 40.2585,22.9110 38.9152,23.1788 C37.4610,23.4705 35.4697,24.9450 34.9072,26.3235 C34.4182,27.5235 33.7957,35.4758 33.7312,34.7947 C33.8310,35.8613 33.8310,35.9475 33.8310,35.9475 L34.4745,36.3270 Z" style="fill-rule: evenodd; fill: #dae3f9; "/>
    <path xmlns="http://www.w3.org/2000/svg" d="  M36.1432,24.7515 C36.1432,24.7515 34.9642,25.5000 34.3590,30.2347 C34.1160,32.1330 33.8287,35.9415 33.8287,35.9415 L33.7290,35.8890 C33.7290,35.8890 33.4650,31.8532 33.6090,30.1807 C33.8055,27.8880 34.3095,26.3107 36.2880,23.8335 L36.1432,24.7515 Z" style="fill-rule: evenodd; fill: #dae3f9; "/>
    <path xmlns="http://www.w3.org/2000/svg" d="  M36.4035,24.7650 C36.4035,24.7650 35.0220,26.8493 34.6470,30.1530 C34.4302,32.0543 33.8310,35.9498 33.8310,35.9498 C33.8310,35.9498 33.6960,32.2245 33.8692,30.1943 C34.0657,27.9015 34.7265,25.8338 36.7065,23.3550 L36.4035,24.7650 Z" style="fill-rule: evenodd; fill: #727376; "/>
    <defs xmlns="http://www.w3.org/2000/svg">
      <radialGradient id="grad4266" cx="50.0000%" cy="50.0000%" r="100.0000%">
        <stop offset="0%" stop-color="#6f4923" stop-opacity="1.0000"/>
        <stop offset="100%" stop-color="#e5c2a0" stop-opacity="1.0000"/>
      </radialGradient>
    </defs>
    <path xmlns="http://www.w3.org/2000/svg" d="  M43.1745,24.2467 C43.1265,23.9287 43.0620,23.9130 43.0620,23.9130 C43.0620,23.9130 42.3765,20.1960 42.3585,20.0190 C42.2415,18.8812 41.3535,18.5137 39.4740,18.5137 C37.5960,18.5137 36.0743,19.3875 36.0743,20.4660 C36.0743,20.6805 35.9325,25.7610 36.0263,26.1097 C36.3195,27.2040 38.1008,27.6757 40.0065,27.1657 C41.9100,26.6535 43.3440,25.3657 43.1745,24.2467 Z" style="fill-rule: evenodd; fill: url(#grad4266); "/>
    <path xmlns="http://www.w3.org/2000/svg" d="  M44.0925,15.9225 C43.5473,15.6007 42.6600,16.1265 42.1118,17.0955 C41.5628,18.0645 41.5598,19.1107 42.1058,19.4325 C42.6510,19.7535 43.5383,19.2285 44.0865,18.2595 C44.6363,17.2897 44.6378,16.2442 44.0925,15.9225 Z" style="fill-rule: evenodd; fill: #c6a27e; "/>
    <defs xmlns="http://www.w3.org/2000/svg">
      <radialGradient id="grad4267" cx="50.0000%" cy="50.0000%" r="100.0000%">
        <stop offset="0%" stop-color="#6f4923" stop-opacity="1.0000"/>
        <stop offset="100%" stop-color="#e5c2a0" stop-opacity="1.0000"/>
      </radialGradient>
    </defs>
    <path xmlns="http://www.w3.org/2000/svg" d="  M44.0925,16.4550 C43.5473,16.1340 42.6600,16.6590 42.1118,17.6280 C41.5628,18.5970 41.5598,19.6432 42.1058,19.9642 C42.6510,20.2852 43.5383,19.7602 44.0865,18.7912 C44.6363,17.8222 44.6378,16.7767 44.0925,16.4550 Z" style="fill-rule: evenodd; fill: url(#grad4267); "/>
    <defs xmlns="http://www.w3.org/2000/svg">
      <radialGradient id="grad4268" cx="50.0000%" cy="50.0000%" r="100.0000%">
        <stop offset="0%" stop-color="#ebc8a7" stop-opacity="1.0000"/>
        <stop offset="100%" stop-color="#805a34" stop-opacity="1.0000"/>
      </radialGradient>
    </defs>
    <path xmlns="http://www.w3.org/2000/svg" d="  M42.6540,17.2605 C42.6540,21.2835 40.7085,24.4042 37.9140,24.4042 C35.1202,24.4042 32.8560,21.1425 32.8560,17.1187 C32.8560,13.0950 33.6600,10.0545 37.9140,9.8332 C40.7062,9.6885 42.6540,13.2367 42.6540,17.2605 Z" style="fill-rule: evenodd; fill: url(#grad4268); "/>
    <path xmlns="http://www.w3.org/2000/svg" d="  M37.6830,24.0907 C37.7048,24.0907 37.7258,24.0922 37.7475,24.0922 C40.3830,24.0922 42.2228,21.1695 42.2490,17.3865 C41.8837,20.3235 39.9060,23.6295 37.6830,24.0907 Z" style="fill-rule: evenodd; fill: #ac8660; "/>
    <path xmlns="http://www.w3.org/2000/svg" d="  M44.0843,15.9607 C44.6880,16.1685 44.5050,17.4840 44.4885,17.6580 C45.7087,14.3767 44.7930,10.9222 43.2173,9.8122 C42.7013,9.4500 41.4855,8.6257 38.9955,8.5477 C41.4668,9.8122 41.9970,13.9800 41.4435,14.2912 C42.4365,14.1180 42.5978,16.4692 42.5978,16.4692 C42.5978,16.4692 43.1610,15.6435 44.0843,15.9607 Z" style="fill-rule: evenodd; fill: #3d3d3d; "/>
    <defs xmlns="http://www.w3.org/2000/svg">
      <radialGradient id="grad4269" cx="50.0000%" cy="50.0000%" r="100.0000%">
        <stop offset="0%" stop-color="#8e8e8e" stop-opacity="1.0000"/>
        <stop offset="100%" stop-color="#4f4f4f" stop-opacity="1.0000"/>
      </radialGradient>
    </defs>
    <path xmlns="http://www.w3.org/2000/svg" d="  M43.8848,11.6685 A5.5132,3.1650 180.0000 1,1 38.3715,8.5035 A5.5132,3.1650 180.0000 0,1 43.8848,11.6685 Z" style="fill-rule: evenodd; fill: url(#grad4269); "/>
    <defs xmlns="http://www.w3.org/2000/svg" xmlns:xlink="http://www.w3.org/1999/xlink">
      <linearGradient id="grad4270">
        <stop offset="0%" stop-color="#7f8787" stop-opacity="1.0000"/>
        <stop offset="100%" stop-color="#dae1e1" stop-opacity="1.0000"/>
      </linearGradient>
      <linearGradient xlink:href="#grad4270" id="grad4271" x1="0" y1="0" x2="0" y2="1" gradientTransform="rotate(135 .5 .5)" gradientUnits="objectBoundingBox">
  </linearGradient>
    </defs>
    <path xmlns="http://www.w3.org/2000/svg" d="  M42.2137,14.8012 C42.2122,14.8012 41.9280,14.2357 41.3392,14.2800 C40.7490,14.3250 39.9172,14.5762 38.2350,14.5110 C35.6467,14.5095 33.6503,13.5690 33.0878,12.1860 C33.0758,12.1590 33.0893,12.1282 33.1155,12.1170 C33.1433,12.1057 33.1740,12.1192 33.1860,12.1470 C33.7133,13.4632 36.1950,14.0685 37.9455,14.1667 C39.2812,14.2425 40.5877,14.0625 41.2807,14.0955 C41.9745,14.1277 42.2137,14.8012 42.2137,14.8012 Z" style="fill-rule: evenodd; fill: url(#grad4271); "/>
    <defs xmlns="http://www.w3.org/2000/svg" xmlns:xlink="http://www.w3.org/1999/xlink">
      <linearGradient id="grad4272">
        <stop offset="0%" stop-color="#080808" stop-opacity="1.0000"/>
        <stop offset="100%" stop-color="#c4c5c6" stop-opacity="1.0000"/>
      </linearGradient>
      <linearGradient xlink:href="#grad4272" id="grad4273" x1="0" y1="0" x2="0" y2="1" gradientTransform="rotate(315 .5 .5)" gradientUnits="objectBoundingBox">
  </linearGradient>
    </defs>
    <path xmlns="http://www.w3.org/2000/svg" d="  M32.6467,20.3565 C32.4390,20.2065 31.4587,19.5668 31.4587,19.5668 C31.4587,19.5668 31.1115,19.4925 31.0732,19.4895 C30.8670,19.4700 30.5985,19.6620 30.4215,19.9748 C30.2280,20.3153 30.2137,20.6775 30.3720,20.8320 L30.6502,21.0750 C30.6502,21.0750 31.6710,21.6165 31.9072,21.7155 C32.1180,21.8033 32.6850,21.8040 32.6850,21.8040 L33.1935,20.9048 C33.1927,20.9040 32.8590,20.5110 32.6467,20.3565 Z" style="fill-rule: evenodd; fill: url(#grad4273); "/>
    <g xmlns="http://www.w3.org/2000/svg" id="Layer1116">
      <path d="  M30.8302,20.1803 C31.0380,19.8098 31.3650,19.5960 31.5960,19.6583 C31.5810,19.6463 31.5067,19.6005 31.4902,19.5915 C31.2585,19.4558 30.8850,19.6778 30.6525,20.0873 C30.4207,20.4968 30.4192,20.9393 30.6495,21.0750 C30.6727,21.0885 30.7605,21.1260 30.7845,21.1328 C30.6000,20.9678 30.6135,20.5620 30.8302,20.1803 Z" style="stroke-width: 0.0196; stroke-linecap: butt; stroke-linejoin: miter; fill-rule: evenodd; fill: #cdcfcf; "/>
      <path d="  M30.8302,20.1803 C31.0380,19.8098 31.3650,19.5960 31.5960,19.6583 C31.5810,19.6463 31.5067,19.6005 31.4902,19.5915 C31.2585,19.4558 30.8850,19.6778 30.6525,20.0873 C30.4207,20.4968 30.4192,20.9393 30.6495,21.0750 C30.6727,21.0885 30.7605,21.1260 30.7845,21.1328 C30.6000,20.9678 30.6135,20.5620 30.8302,20.1803 Z" style="stroke-width: 0.0196; stroke: #000000; stroke-dasharray: none; stroke-linecap: butt; stroke-linejoin: miter; fill: none; "/>
    </g>
    <path xmlns="http://www.w3.org/2000/svg" d="  M33.1927,20.9040 C33.0532,20.8223 32.8267,20.9565 32.6857,21.2048 C32.5447,21.4530 32.5447,21.7208 32.6842,21.8033 C32.8237,21.8850 33.0502,21.7515 33.1927,21.5025 C33.3337,21.2550 33.3337,20.9865 33.1927,20.9040 Z" style="fill-rule: evenodd; fill: #333333; "/>
    <defs xmlns="http://www.w3.org/2000/svg" xmlns:xlink="http://www.w3.org/1999/xlink">
      <linearGradient id="grad4274">
        <stop offset="0%" stop-color="#080808" stop-opacity="1.0000"/>
        <stop offset="100%" stop-color="#c4c5c6" stop-opacity="1.0000"/>
      </linearGradient>
      <linearGradient xlink:href="#grad4274" id="grad4275" x1="0" y1="0" x2="0" y2="1" gradientTransform="rotate(90 .5 .5)" gradientUnits="objectBoundingBox">
  </linearGradient>
    </defs>
    <path xmlns="http://www.w3.org/2000/svg" d="  M44.6550,16.3852 C43.9560,15.9742 42.8227,16.6463 42.1207,17.8853 C41.4187,19.1250 41.4165,20.4622 42.1132,20.8733 C42.8100,21.2843 43.9440,20.6123 44.6460,19.3732 C45.3480,18.1335 45.3510,16.7955 44.6550,16.3852 Z" style="fill-rule: evenodd; fill: url(#grad4275); "/>
    <defs xmlns="http://www.w3.org/2000/svg">
      <radialGradient id="grad4276" cx="50.0000%" cy="50.0000%" r="100.0000%">
        <stop offset="0%" stop-color="#ffffff" stop-opacity="1.0000"/>
        <stop offset="100%" stop-color="#669999" stop-opacity="1.0000"/>
      </radialGradient>
    </defs>
    <path xmlns="http://www.w3.org/2000/svg" d="  M44.3722,16.8840 C43.8285,16.5645 42.9472,17.0873 42.4005,18.0518 C41.8552,19.0148 41.8530,20.0558 42.3960,20.3753 C42.9382,20.6948 43.8195,20.1720 44.3647,19.2083 C44.9115,18.2438 44.9145,17.2028 44.3722,16.8840 Z" style="fill-rule: evenodd; fill: url(#grad4276); "/>
    <defs xmlns="http://www.w3.org/2000/svg">
      <linearGradient id="grad4277">
        <stop offset="0%" stop-color="#080808" stop-opacity="1.0000"/>
        <stop offset="100%" stop-color="#c4c5c6" stop-opacity="1.0000"/>
      </linearGradient>
    </defs>
    <path xmlns="http://www.w3.org/2000/svg" d="  M43.7970,18.2955 C43.7617,18.2745 43.7167,18.2805 43.6695,18.3060 L43.6665,18.3075 C43.6635,18.3090 43.6605,18.3105 43.6575,18.3120 L43.2397,18.5543 L43.2397,18.5573 C43.1857,18.5843 43.1287,18.6383 43.0860,18.7133 C43.0095,18.8468 43.0095,18.9915 43.0845,19.0350 C43.1212,19.0568 43.1677,19.0500 43.2165,19.0238 L43.2165,19.0245 L43.6590,18.7658 L43.6590,18.7650 C43.7085,18.7358 43.7587,18.6848 43.7970,18.6180 C43.8727,18.4838 43.8727,18.3398 43.7970,18.2955 Z" style="fill-rule: evenodd; fill: url(#grad4277); "/>
    <defs xmlns="http://www.w3.org/2000/svg" xmlns:xlink="http://www.w3.org/1999/xlink">
      <linearGradient id="grad4278">
        <stop offset="0%" stop-color="#ffffff" stop-opacity="1.0000"/>
        <stop offset="100%" stop-color="#669999" stop-opacity="1.0000"/>
      </linearGradient>
      <linearGradient xlink:href="#grad4278" id="grad4279" x1="0" y1="0" x2="0" y2="1" gradientTransform="rotate(90 .5 .5)" gradientUnits="objectBoundingBox">
  </linearGradient>
    </defs>
    <path xmlns="http://www.w3.org/2000/svg" d="  M42.5753,19.7100 C42.4598,19.6418 42.2708,19.7543 42.1530,19.9605 C42.1357,19.9905 42.1223,20.0205 42.1088,20.0505 C42.1777,20.1900 42.2715,20.3018 42.3960,20.3745 C42.4050,20.3805 42.4163,20.3843 42.4268,20.3903 C42.4808,20.3445 42.5325,20.2830 42.5745,20.2095 C42.6908,20.0018 42.6923,19.7783 42.5753,19.7100 Z" style="fill-rule: evenodd; fill: url(#grad4279); "/>
    <path xmlns="http://www.w3.org/2000/svg" d="  M42.4492,19.7693 C42.3952,19.7370 42.3187,19.7580 42.2482,19.8165 L38.6977,21.8715 C38.2215,22.1490 37.3312,22.3703 36.4095,22.3673 C35.6317,22.3688 34.8307,22.2143 34.2090,21.8490 L33.0652,21.1958 C33.0637,21.1950 33.0637,21.1935 33.0622,21.1928 C33.0022,21.1568 32.9040,21.2153 32.8425,21.3225 C32.7825,21.4305 32.7825,21.5460 32.8425,21.5813 C32.8455,21.5835 33.9877,22.2323 33.9877,22.2323 C34.7010,22.6523 35.5755,22.8105 36.4095,22.8113 C37.4010,22.8090 38.3355,22.5885 38.9190,22.2548 L42.1560,20.3835 C42.2992,20.2898 42.4080,20.2110 42.4477,20.1390 C42.5340,19.9853 42.5355,19.8203 42.4492,19.7693 Z" style="fill-rule: evenodd; fill: #333333; "/>
    <path xmlns="http://www.w3.org/2000/svg" d="  M20.8245,40.7287 C20.8245,40.7287 22.6388,37.3755 23.8290,35.5590 C25.5195,32.9782 26.0775,32.5470 26.7000,31.7475 C27.4823,30.7410 26.8973,29.5387 26.4825,29.3805 C25.7858,29.1150 25.1273,28.8382 23.9408,29.0760 C22.6560,29.3340 21.5303,30.3300 21.0338,31.5472 C19.8075,34.5547 19.9478,37.9972 20.0843,39.3405 C20.1653,40.1385 20.2688,40.4055 20.2688,40.4055 L20.8245,40.7287 Z" style="fill-rule: evenodd; fill: #d0e9dc; "/>
    <defs xmlns="http://www.w3.org/2000/svg">
      <radialGradient id="grad4280" cx="50.0000%" cy="50.0000%" r="100.0000%">
        <stop offset="0%" stop-color="#a2c475" stop-opacity="1.0000"/>
        <stop offset="100%" stop-color="#688843" stop-opacity="1.0000"/>
      </radialGradient>
    </defs>
    <path xmlns="http://www.w3.org/2000/svg" d="  M16.2083,36.1778 C16.3193,34.8495 16.4850,33.3008 16.8720,32.3063 C17.9048,29.6490 21.4785,28.5150 23.9010,28.4393 C22.7385,29.0415 21.9278,30.1725 21.5160,31.1828 C20.2890,34.1888 20.5545,40.4228 20.6085,40.6005 C19.9290,40.2053 18.8588,39.5813 18.2565,39.2145 C16.9853,38.4413 16.2068,37.3980 16.2068,36.2513 C16.2068,36.2273 16.2075,36.2010 16.2083,36.1778 Z" style="fill-rule: evenodd; fill: url(#grad4280); "/>
    <path xmlns="http://www.w3.org/2000/svg" d="  M20.6085,40.5997 C20.6085,40.5997 19.6605,37.7332 20.1600,34.6410 C20.5432,32.2695 21.8820,29.1667 21.8820,29.1667 L22.1205,29.0527 C22.1205,29.0527 20.7030,34.2240 20.6100,34.9680 C20.4082,36.5820 20.6085,40.5997 20.6085,40.5997 Z" style="fill-rule: evenodd; fill: #bfc5ce; "/>
    <path xmlns="http://www.w3.org/2000/svg" d="  M20.6085,40.5997 C20.6085,40.5997 20.1607,36.6607 20.3910,35.0497 C20.7795,32.3295 21.9870,29.3497 21.9870,29.3497 C21.9870,29.3497 20.9962,33.2580 20.7862,35.0392 C20.5177,37.3275 20.6085,40.5997 20.6085,40.5997 Z" style="fill-rule: evenodd; fill: #727376; "/>
    <defs xmlns="http://www.w3.org/2000/svg">
      <radialGradient id="grad4281" cx="50.0000%" cy="50.0000%" r="100.0000%">
        <stop offset="0%" stop-color="#ebc8a7" stop-opacity="1.0000"/>
        <stop offset="100%" stop-color="#805a34" stop-opacity="1.0000"/>
      </radialGradient>
    </defs>
    <path xmlns="http://www.w3.org/2000/svg" d="  M27.3022,29.5478 C27.2715,29.4323 27.0443,25.2675 27.0270,25.0987 C26.9355,24.1935 26.1915,23.9018 24.6983,23.9018 C23.2050,23.9018 21.6053,24.4733 21.6053,25.3298 C21.6053,25.5015 21.6818,30.6323 21.5955,30.9068 C20.7660,33.5565 22.6860,34.4663 24.7545,33.8010 C26.2687,33.3960 27.5340,30.4178 27.3022,29.5478 Z" style="fill-rule: evenodd; fill: url(#grad4281); "/>
    <defs xmlns="http://www.w3.org/2000/svg">
      <radialGradient id="grad4282" cx="50.0000%" cy="50.0000%" r="100.0000%">
        <stop offset="0%" stop-color="#a2c475" stop-opacity="1.0000"/>
        <stop offset="100%" stop-color="#688843" stop-opacity="1.0000"/>
      </radialGradient>
    </defs>
    <path xmlns="http://www.w3.org/2000/svg" d="  M26.5665,31.5240 C27.0757,30.7942 27.3600,29.8230 27.2730,29.1892 C29.3633,29.9512 30.9630,31.0747 31.5165,31.4775 C33.8940,33.2130 33.8910,37.5157 33.8910,37.6432 C33.8910,40.0297 30.5205,41.9647 26.3618,41.9647 C24.2820,41.9647 22.4340,41.6572 21.0712,40.8735 C20.9595,40.8090 20.9265,40.7887 20.8080,40.7212 C20.9775,40.2067 22.2570,37.2390 23.3557,35.5605 C25.0485,32.9782 25.9845,32.3542 26.5665,31.5240 Z" style="fill-rule: evenodd; fill: url(#grad4282); "/>
    <path xmlns="http://www.w3.org/2000/svg" d="  M28.1303,22.0927 C27.6968,21.8377 26.9918,22.2555 26.5545,23.0257 C26.1195,23.7960 26.1165,24.6285 26.5508,24.8850 C26.9835,25.1400 27.6892,24.7222 28.1250,23.9520 C28.5607,23.1817 28.5637,22.3492 28.1303,22.0927 Z" style="fill-rule: evenodd; fill: #ebc8a7; "/>
    <defs xmlns="http://www.w3.org/2000/svg">
      <radialGradient id="grad4283" cx="50.0000%" cy="50.0000%" r="100.0000%">
        <stop offset="0%" stop-color="#6f4923" stop-opacity="1.0000"/>
        <stop offset="100%" stop-color="#e5c2a0" stop-opacity="1.0000"/>
      </radialGradient>
    </defs>
    <path xmlns="http://www.w3.org/2000/svg" d="  M28.1303,22.5180 C27.6968,22.2622 26.9918,22.6807 26.5545,23.4495 C26.1195,24.2197 26.1165,25.0522 26.5508,25.3087 C26.9835,25.5637 27.6892,25.1460 28.1250,24.3757 C28.5607,23.6055 28.5637,22.7730 28.1303,22.5180 Z" style="fill-rule: evenodd; fill: url(#grad4283); "/>
    <defs xmlns="http://www.w3.org/2000/svg">
      <radialGradient id="grad4284" cx="0.0000%" cy="0.0000%" r="100.0000%">
        <stop offset="0%" stop-color="#e1d6aa" stop-opacity="1.0000"/>
        <stop offset="100%" stop-color="#7a6637" stop-opacity="1.0000"/>
      </radialGradient>
    </defs>
    <path xmlns="http://www.w3.org/2000/svg" d="  M18.7485,23.0587 C18.7485,23.0760 18.7485,23.0925 18.7493,23.1082 C18.7853,24.9390 19.2788,26.5920 20.0858,27.7635 C19.9080,27.9660 19.7993,28.2307 19.7993,28.5210 C19.7993,28.7542 19.8690,28.9725 19.9898,29.1525 C18.6960,29.0452 17.6745,27.7552 17.6745,26.1712 C17.6753,25.1557 18.1013,23.8860 18.7485,23.0587 Z" style="fill-rule: evenodd; fill: url(#grad4284); "/>
    <defs xmlns="http://www.w3.org/2000/svg">
      <radialGradient id="grad4285" cx="50.0000%" cy="50.0000%" r="100.0000%">
        <stop offset="0%" stop-color="#fee8c5" stop-opacity="1.0000"/>
        <stop offset="100%" stop-color="#ebc8a7" stop-opacity="1.0000"/>
      </radialGradient>
    </defs>
    <path xmlns="http://www.w3.org/2000/svg" d="  M27.2640,23.2327 C27.2640,26.7877 25.5450,29.5447 23.0768,29.5447 C20.6085,29.5447 18.8190,26.6617 18.7493,23.1082 C18.6668,18.8850 19.3178,16.8660 23.0768,16.6710 C25.5420,16.5435 27.2640,19.6777 27.2640,23.2327 Z" style="fill-rule: evenodd; fill: url(#grad4285); "/>
    <path xmlns="http://www.w3.org/2000/svg" d="  M23.0168,29.3467 C23.0355,29.3467 23.0550,29.3482 23.0738,29.3482 C25.4018,29.3482 27.0270,26.7660 27.0503,23.4232 C26.7285,26.0190 24.9810,28.9395 23.0168,29.3467 Z" style="fill-rule: evenodd; fill: #fee8c5; "/>
    <defs xmlns="http://www.w3.org/2000/svg" xmlns:xlink="http://www.w3.org/1999/xlink">
      <linearGradient id="grad4286">
        <stop offset="0%" stop-color="#7a6637" stop-opacity="1.0000"/>
        <stop offset="100%" stop-color="#b5a362" stop-opacity="1.0000"/>
      </linearGradient>
      <linearGradient xlink:href="#grad4286" id="grad4287" x1="0" y1="0" x2="0" y2="1" gradientTransform="rotate(90 .5 .5)" gradientUnits="objectBoundingBox">
  </linearGradient>
    </defs>
    <path xmlns="http://www.w3.org/2000/svg" d="  M17.5905,16.6582 C17.6310,15.5580 20.2560,14.5312 22.9050,14.5710 C24.8348,14.6002 26.4375,15.2100 27.5025,16.0747 C27.5738,16.1250 27.6368,16.1715 27.6908,16.2112 C28.0523,16.4782 28.6095,17.1030 28.6095,17.1030 C29.6453,18.3675 31.0253,21.7905 30.4598,25.0170 C29.6895,29.4202 27.0938,29.6062 25.0133,29.2372 C25.0133,29.2372 26.6700,27.7927 27.0428,25.3537 C27.4185,25.2337 27.8123,24.9292 28.1250,24.3750 C28.3898,23.9062 28.4888,23.4787 28.4378,23.0467 C28.4513,22.5060 28.3905,22.2487 28.1303,22.0935 C27.8805,21.9472 27.5423,22.0237 27.2153,22.2622 C27.2055,22.1317 27.1793,21.7402 27.0263,21.1432 C26.9183,21.0187 26.7743,20.9242 26.5755,20.8927 C26.2245,20.8357 25.2690,21.4905 24.2798,21.2265 C23.2635,20.9557 23.1263,20.3737 20.8935,19.3672 C19.4783,18.7290 19.1738,19.0402 19.1738,19.0402 C19.1738,19.0402 19.0118,18.8850 18.4200,18.2737 C17.6655,17.4937 17.5898,16.6957 17.5898,16.6957 C17.5898,16.6957 17.5943,16.6957 17.5965,16.6957 C17.5943,16.6837 17.5905,16.6702 17.5905,16.6582 Z" style="fill-rule: evenodd; fill: url(#grad4287); "/>
    <defs xmlns="http://www.w3.org/2000/svg">
      <radialGradient id="grad4288" cx="50.0000%" cy="50.0000%" r="100.0000%">
        <stop offset="0%" stop-color="#b5a362" stop-opacity="1.0000"/>
        <stop offset="100%" stop-color="#7a6637" stop-opacity="1.0000"/>
      </radialGradient>
    </defs>
    <path xmlns="http://www.w3.org/2000/svg" d="  M28.4760,18.8715 C28.4760,18.8715 29.4675,20.7697 29.6408,22.5382 C29.8133,24.3075 29.4690,25.7752 28.9155,26.6782 C28.3410,27.6157 28.2083,26.9715 28.2900,26.7075 C28.4363,26.2372 29.0910,25.0462 28.9095,22.7100 C28.8158,21.5047 27.6465,19.5510 27.6465,19.5510 L28.4760,18.8715 Z" style="fill-rule: evenodd; fill: url(#grad4288); "/>
    <defs xmlns="http://www.w3.org/2000/svg">
      <radialGradient id="grad4289" cx="100.0000%" cy="0.0000%" r="100.0000%">
        <stop offset="0%" stop-color="#e1d6aa" stop-opacity="1.0000"/>
        <stop offset="100%" stop-color="#b5a362" stop-opacity="1.0000"/>
      </radialGradient>
    </defs>
    <path xmlns="http://www.w3.org/2000/svg" d="  M17.7023,16.2855 C18.2423,15.3435 20.5583,14.5357 22.9058,14.5710 C26.0048,14.6182 28.2630,16.1595 28.7970,17.8567 C29.1240,18.9007 28.4745,19.5817 27.7688,19.9612 C27.0630,20.3407 24.6413,20.7540 22.5885,19.3672 C22.0890,19.0297 21.0345,18.4177 20.5350,18.1185 C19.2308,17.3392 17.4000,16.8142 17.7023,16.2855 Z" style="fill-rule: evenodd; fill: url(#grad4289); "/>
    <defs xmlns="http://www.w3.org/2000/svg" xmlns:xlink="http://www.w3.org/1999/xlink">
      <linearGradient id="grad4290">
        <stop offset="0%" stop-color="#080808" stop-opacity="1.0000"/>
        <stop offset="100%" stop-color="#c4c5c6" stop-opacity="1.0000"/>
      </linearGradient>
      <linearGradient xlink:href="#grad4290" id="grad4291" x1="0" y1="0" x2="0" y2="1" gradientTransform="rotate(315 .5 .5)" gradientUnits="objectBoundingBox">
  </linearGradient>
    </defs>
    <path xmlns="http://www.w3.org/2000/svg" d="  M16.6380,26.6543 C16.4302,26.5035 15.4500,25.8645 15.4500,25.8645 C15.4500,25.8645 15.1042,25.7895 15.0645,25.7865 C14.8590,25.7663 14.5897,25.9590 14.4127,26.2710 C14.2207,26.6123 14.2057,26.9745 14.3632,27.1283 L14.6430,27.3728 C14.6430,27.3728 15.6637,27.9135 15.8992,28.0118 C16.1092,28.0995 16.6770,28.1010 16.6770,28.1010 L17.1855,27.2018 C17.1848,27.2025 16.8503,26.8095 16.6380,26.6543 Z" style="fill-rule: evenodd; fill: url(#grad4291); "/>
    <g xmlns="http://www.w3.org/2000/svg" id="Layer1117">
      <path d="  M14.8215,26.4787 C15.0300,26.1082 15.3562,25.8945 15.5872,25.9560 C15.5722,25.9440 15.4980,25.8990 15.4815,25.8900 C15.2505,25.7535 14.8762,25.9748 14.6437,26.3865 C14.4120,26.7953 14.4105,27.2378 14.6422,27.3735 C14.6640,27.3870 14.7517,27.4230 14.7765,27.4305 C14.5912,27.2670 14.6047,26.8613 14.8215,26.4787 Z" style="stroke-width: 0.0196; stroke-linecap: butt; stroke-linejoin: miter; fill-rule: evenodd; fill: #cdcfcf; "/>
      <path d="  M14.8215,26.4787 C15.0300,26.1082 15.3562,25.8945 15.5872,25.9560 C15.5722,25.9440 15.4980,25.8990 15.4815,25.8900 C15.2505,25.7535 14.8762,25.9748 14.6437,26.3865 C14.4120,26.7953 14.4105,27.2378 14.6422,27.3735 C14.6640,27.3870 14.7517,27.4230 14.7765,27.4305 C14.5912,27.2670 14.6047,26.8613 14.8215,26.4787 Z" style="stroke-width: 0.0196; stroke: #000000; stroke-dasharray: none; stroke-linecap: butt; stroke-linejoin: miter; fill: none; "/>
    </g>
    <path xmlns="http://www.w3.org/2000/svg" d="  M17.1848,27.2025 C17.0452,27.1208 16.8180,27.2550 16.6785,27.5040 C16.5367,27.7515 16.5367,28.0200 16.6762,28.1018 C16.8157,28.1835 17.0422,28.0493 17.1840,27.8018 C17.3250,27.5528 17.3258,27.2843 17.1848,27.2025 Z" style="fill-rule: evenodd; fill: #333333; "/>
    <defs xmlns="http://www.w3.org/2000/svg" xmlns:xlink="http://www.w3.org/1999/xlink">
      <linearGradient id="grad4292">
        <stop offset="0%" stop-color="#080808" stop-opacity="1.0000"/>
        <stop offset="100%" stop-color="#c4c5c6" stop-opacity="1.0000"/>
      </linearGradient>
      <linearGradient xlink:href="#grad4292" id="grad4293" x1="0" y1="0" x2="0" y2="1" gradientTransform="rotate(90 .5 .5)" gradientUnits="objectBoundingBox">
  </linearGradient>
    </defs>
    <path xmlns="http://www.w3.org/2000/svg" d="  M28.6463,22.6837 C27.9480,22.2735 26.8148,22.9447 26.1128,24.1852 C25.4108,25.4242 25.4085,26.7622 26.1053,27.1717 C26.8020,27.5812 27.9368,26.9107 28.6373,25.6717 C29.3393,24.4327 29.3430,23.0947 28.6463,22.6837 Z" style="fill-rule: evenodd; fill: url(#grad4293); "/>
    <defs xmlns="http://www.w3.org/2000/svg">
      <radialGradient id="grad4294" cx="50.0000%" cy="50.0000%" r="100.0000%">
        <stop offset="0%" stop-color="#ffffff" stop-opacity="1.0000"/>
        <stop offset="100%" stop-color="#669999" stop-opacity="1.0000"/>
      </radialGradient>
    </defs>
    <path xmlns="http://www.w3.org/2000/svg" d="  M28.3635,23.1833 C27.8213,22.8637 26.9393,23.3857 26.3933,24.3495 C25.8473,25.3133 25.8458,26.3550 26.3880,26.6745 C26.9303,26.9925 27.8115,26.4713 28.3575,25.5068 C28.9035,24.5422 28.9050,23.5020 28.3635,23.1833 Z" style="fill-rule: evenodd; fill: url(#grad4294); "/>
    <defs xmlns="http://www.w3.org/2000/svg">
      <linearGradient id="grad4295">
        <stop offset="0%" stop-color="#080808" stop-opacity="1.0000"/>
        <stop offset="100%" stop-color="#c4c5c6" stop-opacity="1.0000"/>
      </linearGradient>
    </defs>
    <path xmlns="http://www.w3.org/2000/svg" d="  M27.7890,24.5932 C27.7538,24.5730 27.7080,24.5782 27.6608,24.6037 L27.6578,24.6052 C27.6548,24.6067 27.6518,24.6082 27.6488,24.6112 L27.2318,24.8528 L27.2310,24.8558 C27.1770,24.8820 27.1200,24.9360 27.0773,25.0110 C27.0015,25.1460 27.0015,25.2893 27.0765,25.3335 C27.1125,25.3553 27.1590,25.3485 27.2078,25.3215 L27.2078,25.3230 L27.6510,25.0635 C27.7005,25.0343 27.7508,24.9833 27.7883,24.9158 C27.8648,24.7822 27.8648,24.6375 27.7890,24.5932 Z" style="fill-rule: evenodd; fill: url(#grad4295); "/>
    <defs xmlns="http://www.w3.org/2000/svg" xmlns:xlink="http://www.w3.org/1999/xlink">
      <linearGradient id="grad4296">
        <stop offset="0%" stop-color="#ffffff" stop-opacity="1.0000"/>
        <stop offset="100%" stop-color="#669999" stop-opacity="1.0000"/>
      </linearGradient>
      <linearGradient xlink:href="#grad4296" id="grad4297" x1="0" y1="0" x2="0" y2="1" gradientTransform="rotate(90 .5 .5)" gradientUnits="objectBoundingBox">
  </linearGradient>
    </defs>
    <path xmlns="http://www.w3.org/2000/svg" d="  M26.5673,26.0085 C26.4510,25.9395 26.2613,26.0527 26.1450,26.2590 C26.1285,26.2883 26.1143,26.3190 26.1015,26.3483 C26.1698,26.4878 26.2635,26.6003 26.3880,26.6738 C26.3985,26.6798 26.4090,26.6828 26.4195,26.6888 C26.4735,26.6430 26.5253,26.5815 26.5665,26.5088 C26.6835,26.3002 26.6835,26.0775 26.5673,26.0085 Z" style="fill-rule: evenodd; fill: url(#grad4297); "/>
    <path xmlns="http://www.w3.org/2000/svg" d="  M26.4413,26.0670 C26.3865,26.0348 26.3108,26.0550 26.2403,26.1143 L22.6890,28.1693 C22.2128,28.4460 21.3233,28.6673 20.4008,28.6658 C19.6238,28.6658 18.8220,28.5120 18.2018,28.1475 L17.0565,27.4943 C17.0550,27.4943 17.0550,27.4913 17.0543,27.4913 C16.9935,27.4545 16.8953,27.5130 16.8345,27.6218 C16.7738,27.7290 16.7738,27.8445 16.8338,27.8798 C16.8383,27.8828 17.9790,28.5300 17.9790,28.5300 C18.6938,28.9508 19.5668,29.1083 20.4008,29.1098 C21.3930,29.1068 22.3275,28.8870 22.9110,28.5533 L26.1473,26.6828 C26.2913,26.5875 26.3993,26.5103 26.4398,26.4368 C26.5268,26.2838 26.5268,26.1188 26.4413,26.0670 Z" style="fill-rule: evenodd; fill: #333333; "/>
    <!--converted by libvisio2svg-->
  </g>
</svg>
