<svg xmlns="http://www.w3.org/2000/svg" xmlns:xlink="http://www.w3.org/1999/xlink" version="1.1" width="0.8102000000" height="0.8304000000" viewBox="0 0 58.3328 59.7908">
  <title><![CDATA[Reverse Proxy]]></title>
  <g transform=" scale(1.000000) ">
    <path xmlns="http://www.w3.org/2000/svg" d="  M58.3328,6.2347 L47.9603,0.0000 L25.3328,13.0065 L25.3328,45.5775 L25.8353,45.8722 C27.1793,47.5913 29.9662,49.2315 33.0420,50.1045 L37.0500,52.4580 L58.3328,40.2322 L58.3328,37.8262 L58.3328,37.7963 L57.8700,37.5765 L58.3328,37.3110 L58.3328,35.3550 L58.3328,35.3242 L57.8700,35.1052 L58.3328,34.8397 L58.3328,32.8823 L58.3328,32.8530 L57.9023,32.6482 L58.3328,32.4030 L58.3328,6.2655 L58.3328,6.2347 Z" style="stroke-width: 1.5000; stroke: #8d99b5; stroke-dasharray: none; stroke-linecap: butt; stroke-linejoin: miter; fill: none; "/>
    <path xmlns="http://www.w3.org/2000/svg" d="  M29.4405,38.5973 C29.4585,38.3093 29.0918,38.1653 28.8998,38.1938 L28.9088,37.3095 C28.9433,37.2923 29.2005,37.1512 29.3333,36.9375 C29.4855,36.6893 29.4510,36.1523 29.4510,36.1523 C29.4510,36.1523 29.4532,32.0077 29.4510,31.9793 C29.4472,31.9013 29.4705,31.3883 29.1210,31.2045 C29.0738,31.1797 21.8640,26.9910 21.8640,26.9910 C21.8167,26.9685 21.7582,26.9602 21.6975,26.9445 C21.4905,26.8942 21.2693,26.9663 21.2693,26.9663 L21.0435,26.8620 C21.0173,26.5868 20.9407,26.5673 20.9407,26.5673 L20.8965,26.5418 C20.8718,26.5245 20.8447,26.5065 20.8133,26.4900 L18.4290,25.1175 L13.4535,22.2442 C13.3012,22.1520 12.8857,22.2060 12.8857,22.2060 L12.6600,22.0845 L12.6187,21.9128 C12.5978,21.8175 12.5565,21.7455 12.4252,21.6900 L10.1115,20.3580 L5.1165,17.4735 C4.8952,17.3782 4.5727,17.4292 4.4752,17.4818 L0.2400,19.8690 C0.1868,19.9005 0.0968,19.9320 0.0968,20.0542 L0.0870,25.5383 C0.0968,25.7257 0.3825,25.7932 0.3825,25.7932 L0.3855,26.4622 C0.3795,26.4592 0.1733,26.5650 0.1733,26.5650 C0.0645,26.6235 0.0195,26.6775 0.0255,26.7563 L0.0150,31.9875 C0.0150,32.0918 0.0870,32.1495 0.2130,32.1945 L0.4088,32.3018 L0.4178,32.9362 L0.1875,33.0615 C0.0825,33.1155 0.0323,33.1650 0.0323,33.2152 L0.0173,38.5965 C0.0173,38.7052 0.1163,38.8365 0.2198,38.9287 L0.4485,39.0653 L0.4530,39.7732 C0.4148,39.7522 0.3930,39.7388 0.3930,39.7388 C0.3930,39.7388 0.0608,39.8918 0.0473,39.9960 L0.0323,45.2708 C0.0323,45.3743 0.1155,45.4575 0.2175,45.4575 L3.9727,47.7465 C4.0215,47.7465 4.0665,47.7270 4.0987,47.6955 C4.0830,47.7112 4.0642,47.7217 4.0418,47.7368 L4.2540,47.6153 C4.2353,47.6400 4.2113,47.6542 4.1775,47.6730 L4.4452,47.5305 L4.5480,47.5912 L4.5472,47.9010 C4.5472,48.0045 4.6297,48.0877 4.7325,48.0877 L11.8882,52.3207 C11.9362,52.3207 11.9805,52.3020 12.0142,52.2705 C11.9985,52.2847 11.9790,52.2960 11.9572,52.3117 L12.2288,52.1527 L12.4418,52.2795 L12.4410,52.6462 C12.4410,52.7505 12.5250,52.8345 12.6285,52.8345 L19.8525,57.1080 C19.9012,57.1080 19.9462,57.0885 19.9800,57.0570 C19.9642,57.0720 19.9447,57.0825 19.9215,57.0983 L20.2440,56.9115 L20.3820,56.9940 L20.3820,57.1883 C20.3820,57.2933 20.5252,57.4178 20.6340,57.4763 L24.2745,59.6468 C24.4417,59.7908 24.8250,59.4720 24.8250,59.4720 L28.6965,56.9078 C28.6965,56.9078 28.9778,56.7518 29.1157,56.5290 C29.2658,56.2898 29.2320,55.7858 29.2320,55.7858 L29.2342,51.7972 C29.2342,51.7972 29.2530,51.6690 29.2193,51.5588 C29.1772,51.3555 28.9418,51.2543 28.7678,51.2512 L28.7767,50.4068 C28.7828,50.4037 29.0625,50.2635 29.1998,50.0445 C29.3505,49.8053 29.3167,49.2855 29.3167,49.2855 L29.3182,45.2978 C29.3182,45.2978 29.4083,44.7045 28.8337,44.6887 L28.8427,43.9028 L28.9230,43.8548 C28.9230,43.8548 29.1705,43.7602 29.3100,43.5382 C29.4577,43.2990 29.4240,42.7792 29.4240,42.7792 L29.4405,38.5973 Z M16.4017,29.2365 C16.3957,29.2208 16.3867,29.2050 16.3800,29.1900 C16.3883,29.2050 16.3957,29.2215 16.4017,29.2365 Z M8.0542,24.4170 C8.0490,24.4013 8.0385,24.3847 8.0318,24.3690 C8.0400,24.3832 8.0475,24.3990 8.0542,24.4170 Z M4.1250,47.6588 C4.1198,47.6700 4.1138,47.6790 4.1077,47.6865 C4.1145,47.6782 4.1198,47.6677 4.1250,47.6588 Z M12.0405,52.2330 C12.0360,52.2442 12.0300,52.2525 12.0232,52.2600 C12.0308,52.2525 12.0360,52.2420 12.0405,52.2330 Z M19.9890,57.0465 C19.9965,57.0375 20.0025,57.0277 20.0077,57.0180 C20.0025,57.0285 19.9950,57.0390 19.9890,57.0465 Z M24.5228,59.6152 C24.5168,59.6257 24.5107,59.6340 24.5047,59.6415 C24.5115,59.6347 24.5168,59.6250 24.5228,59.6152 Z M24.8242,59.3940 L24.8242,59.3483 L24.8265,59.3475 C24.8273,59.3677 24.8265,59.3835 24.8242,59.3940 Z" style="stroke-width: 1.5000; stroke: #8d99b5; stroke-dasharray: none; stroke-linecap: butt; stroke-linejoin: miter; fill: none; "/>
    <path xmlns="http://www.w3.org/2000/svg" d="  M45.3892,40.3193 L58.3327,32.8530 L57.9022,32.6475 L45.3892,39.7928 L45.3892,40.3193 Z" style="fill-rule: evenodd; fill: #404040; "/>
    <path xmlns="http://www.w3.org/2000/svg" d="  M45.3892,42.7920 L58.3327,35.3243 L57.8700,35.1053 L45.3892,42.2655 L45.3892,42.7920 Z" style="fill-rule: evenodd; fill: #404040; "/>
    <path xmlns="http://www.w3.org/2000/svg" d="  M45.3892,45.2633 L58.3327,37.7963 L57.8700,37.5765 L45.3892,44.7375 L45.3892,45.2633 Z" style="fill-rule: evenodd; fill: #404040; "/>
    <defs xmlns="http://www.w3.org/2000/svg" xmlns:xlink="http://www.w3.org/1999/xlink">
      <linearGradient id="grad4364">
        <stop offset="0%" stop-color="#656d6b" stop-opacity="1.0000"/>
        <stop offset="100%" stop-color="#dae1e1" stop-opacity="1.0000"/>
      </linearGradient>
      <linearGradient xlink:href="#grad4364" id="grad4365" x1="0" y1="0" x2="0" y2="1" gradientTransform="rotate(90 .5 .5)" gradientUnits="objectBoundingBox">
  </linearGradient>
    </defs>
    <path xmlns="http://www.w3.org/2000/svg" d="  M37.0500,18.7042 L25.3327,13.0057 L25.3327,45.5767 L25.8352,45.8715 C25.7265,45.7327 25.6260,45.5940 25.5382,45.4545 L25.5382,31.2848 L25.5382,28.1243 L25.5382,21.3615 L25.5382,14.5432 L36.1290,19.7783 C36.1290,19.7783 36.1695,19.7835 36.1905,19.7850 L36.1905,26.6497 L36.1905,33.3652 L36.1905,36.7237 L36.1905,50.6970 C35.1375,50.6025 34.0740,50.3955 33.0427,50.1030 L37.0507,52.4565 L37.0507,18.7042 L37.0500,18.7042 Z" style="fill-rule: evenodd; fill: url(#grad4365); "/>
    <defs xmlns="http://www.w3.org/2000/svg" xmlns:xlink="http://www.w3.org/1999/xlink">
      <linearGradient id="grad4366">
        <stop offset="0%" stop-color="#85929d" stop-opacity="0.9882"/>
        <stop offset="100%" stop-color="#dadfe1" stop-opacity="0.9882"/>
      </linearGradient>
      <linearGradient xlink:href="#grad4366" id="grad4367" x1="0" y1="0" x2="0" y2="1" gradientTransform="rotate(90 .5 .5)" gradientUnits="objectBoundingBox">
  </linearGradient>
    </defs>
    <path xmlns="http://www.w3.org/2000/svg" d="  M35.7420,36.7192 C35.7420,36.7710 35.6805,36.8160 35.6002,36.8160 C35.5927,36.8160 35.5785,36.8160 35.5785,36.8160 C32.4172,36.8632 28.2937,35.4255 25.9627,31.8623 C25.8037,31.6695 25.6605,31.4768 25.5390,31.2847 L25.5390,45.4552 C25.6267,45.5947 25.7280,45.7335 25.8360,45.8722 C27.1800,47.5912 29.9670,49.2315 33.0427,50.1045 C34.0740,50.3970 35.1375,50.6040 36.1905,50.6985 L36.1905,36.7245 C36.0352,36.7110 35.8815,36.6930 35.7262,36.6750 C35.7352,36.6885 35.7420,36.7035 35.7420,36.7192 Z M35.4255,48.9382 C35.2537,49.4820 34.3575,49.6800 33.4245,49.3860 C32.4900,49.0890 31.8720,48.4095 32.0437,47.8672 C32.2155,47.3250 33.1125,47.1247 34.0462,47.4202 C34.9800,47.7150 35.5980,48.3952 35.4255,48.9382 Z M35.6002,46.7655 C35.5927,46.7655 35.5785,46.7655 35.5785,46.7655 C32.2987,46.8142 27.9840,45.2677 25.7085,41.4052 C25.5450,41.1330 25.7407,41.1585 25.7407,41.1585 C27.1807,43.5937 31.4257,46.1497 35.5215,46.5615 C35.5395,46.5637 35.5995,46.5675 35.6062,46.5675 C35.6857,46.5675 35.7427,46.6162 35.7427,46.6695 C35.7420,46.7205 35.6805,46.7655 35.6002,46.7655 Z M35.6002,43.4490 C35.5927,43.4490 35.5785,43.4490 35.5785,43.4490 C32.2987,43.4977 27.9840,41.9513 25.7085,38.0895 C25.5450,37.8165 25.7407,37.8420 25.7407,37.8420 C27.1807,40.2773 31.4257,42.8347 35.5215,43.2458 C35.5395,43.2473 35.5995,43.2517 35.6062,43.2517 C35.6857,43.2517 35.7427,43.2998 35.7427,43.3530 C35.7420,43.4040 35.6805,43.4490 35.6002,43.4490 Z M35.6002,40.1317 C35.5927,40.1317 35.5785,40.1325 35.5785,40.1325 C32.2987,40.1805 27.9840,38.6340 25.7085,34.7722 C25.5450,34.5000 25.7407,34.5255 25.7407,34.5255 C27.1807,36.9600 31.4257,39.5175 35.5215,39.9285 C35.5395,39.9307 35.5995,39.9353 35.6062,39.9353 C35.6857,39.9353 35.7427,39.9840 35.7427,40.0357 C35.7420,40.0875 35.6805,40.1317 35.6002,40.1317 Z" style="fill-rule: evenodd; fill: url(#grad4367); "/>
    <defs xmlns="http://www.w3.org/2000/svg" xmlns:xlink="http://www.w3.org/1999/xlink">
      <linearGradient id="grad4368">
        <stop offset="0%" stop-color="#85929d" stop-opacity="0.9882"/>
        <stop offset="100%" stop-color="#dadfe1" stop-opacity="0.9882"/>
      </linearGradient>
      <linearGradient xlink:href="#grad4368" id="grad4369" x1="0" y1="0" x2="0" y2="1" gradientTransform="rotate(90 .5 .5)" gradientUnits="objectBoundingBox">
  </linearGradient>
    </defs>
    <path xmlns="http://www.w3.org/2000/svg" d="  M35.5207,26.6617 C35.5387,26.6632 35.5987,26.6677 35.6055,26.6677 C35.6850,26.6677 35.7420,26.7157 35.7420,26.7697 C35.7420,26.8207 35.6805,26.8650 35.6002,26.8650 C35.5927,26.8650 35.5785,26.8665 35.5785,26.8665 C32.4622,26.9122 28.4107,25.5157 26.0640,22.0620 C25.8615,21.8310 25.6860,21.5963 25.5382,21.3623 L25.5382,28.1250 C25.7730,28.4947 26.0812,28.8622 26.4465,29.2230 C26.1825,28.8840 25.9350,28.5232 25.7085,28.1385 C25.5450,27.8670 25.7407,27.8925 25.7407,27.8925 C26.7255,29.5567 29.0205,31.2787 31.6822,32.3325 C32.9362,32.7915 34.2705,33.1320 35.6025,33.3015 C35.6025,33.3015 35.6055,33.3022 35.6070,33.3022 C35.6130,33.3022 35.6190,33.3045 35.6242,33.3052 C35.7937,33.3255 35.9610,33.3457 36.1297,33.3615 C36.1500,33.3630 36.1702,33.3652 36.1912,33.3675 L36.1912,26.6520 C33.8257,26.4397 31.4025,25.6537 29.4187,24.5933 C31.2142,25.6500 33.3862,26.4472 35.5207,26.6617 Z M35.6002,30.1815 C35.5927,30.1815 35.5785,30.1822 35.5785,30.1822 C32.2987,30.2302 27.9840,28.6837 25.7085,24.8220 C25.5450,24.5497 25.7407,24.5752 25.7407,24.5752 C27.1807,27.0097 31.4257,29.5665 35.5215,29.9782 C35.5395,29.9805 35.5995,29.9850 35.6062,29.9850 C35.6857,29.9850 35.7427,30.0330 35.7427,30.0855 C35.7427,30.1380 35.6805,30.1815 35.6002,30.1815 Z" style="fill-rule: evenodd; fill: url(#grad4369); "/>
    <defs xmlns="http://www.w3.org/2000/svg" xmlns:xlink="http://www.w3.org/1999/xlink">
      <linearGradient id="grad4370">
        <stop offset="0%" stop-color="#c9d8dd" stop-opacity="0.9882"/>
        <stop offset="100%" stop-color="#f3faf8" stop-opacity="0.9882"/>
      </linearGradient>
      <linearGradient xlink:href="#grad4370" id="grad4371" x1="0" y1="0" x2="0" y2="1" gradientTransform="rotate(90 .5 .5)" gradientUnits="objectBoundingBox">
  </linearGradient>
    </defs>
    <path xmlns="http://www.w3.org/2000/svg" d="  M36.1290,33.3600 C35.9602,33.3442 35.7930,33.3240 35.6235,33.3037 C35.6940,33.3112 35.7420,33.3532 35.7420,33.4020 C35.7420,33.4537 35.6805,33.4987 35.6002,33.4987 C35.5927,33.4987 35.5785,33.4987 35.5785,33.4987 C32.6250,33.5430 28.8330,32.2920 26.4465,29.2222 C26.0812,28.8622 25.7737,28.4940 25.5382,28.1242 L25.5382,31.2847 C25.6597,31.4767 25.8037,31.6695 25.9620,31.8622 C25.8750,31.7287 25.7902,31.5945 25.7077,31.4557 C25.5442,31.1827 25.7400,31.2090 25.7400,31.2090 C26.6010,32.6640 28.4647,34.1625 30.6990,35.2222 C31.7692,35.7292 32.9235,36.1335 34.0942,36.3855 C34.5682,36.4875 35.0460,36.5640 35.5200,36.6127 C35.5380,36.6142 35.5980,36.6187 35.6047,36.6187 C35.6602,36.6187 35.7045,36.6435 35.7247,36.6757 C35.8800,36.6937 36.0337,36.7125 36.1890,36.7252 L36.1890,33.3667 C36.1687,33.3637 36.1492,33.3615 36.1290,33.3600 Z" style="fill-rule: evenodd; fill: url(#grad4371); "/>
    <defs xmlns="http://www.w3.org/2000/svg" xmlns:xlink="http://www.w3.org/1999/xlink">
      <linearGradient id="grad4372">
        <stop offset="0%" stop-color="#bed2dd" stop-opacity="0.9882"/>
        <stop offset="100%" stop-color="#f3faf8" stop-opacity="0.9882"/>
      </linearGradient>
      <linearGradient xlink:href="#grad4372" id="grad4373" x1="0" y1="0" x2="0" y2="1" gradientTransform="rotate(90 .5 .5)" gradientUnits="objectBoundingBox">
  </linearGradient>
    </defs>
    <path xmlns="http://www.w3.org/2000/svg" d="  M36.1290,19.7790 L25.5383,14.5440 L25.5383,21.3623 C25.6860,21.5963 25.8623,21.8310 26.0640,22.0620 C25.9410,21.8820 25.8210,21.6975 25.7078,21.5055 C25.5443,21.2333 25.7400,21.2595 25.7400,21.2595 C26.4293,22.4258 27.7643,23.6198 29.4173,24.5925 C31.4018,25.6530 33.8243,26.4390 36.1898,26.6513 L36.1898,19.7865 C36.1688,19.7843 36.1290,19.7790 36.1290,19.7790 Z M25.8968,15.4493 L35.8673,20.3775 C30.9225,23.1113 26.0858,18.7043 25.8968,15.4493 Z" style="fill-rule: evenodd; fill: url(#grad4373); "/>
    <path xmlns="http://www.w3.org/2000/svg" d="  M35.6055,46.5675 C35.5980,46.5675 35.5387,46.5638 35.5207,46.5615 C31.4250,46.1498 27.1800,43.5938 25.7400,41.1585 C25.7400,41.1585 25.5442,41.1330 25.7077,41.4053 C27.9832,45.2678 32.2980,46.8150 35.5777,46.7655 C35.5777,46.7655 35.5927,46.7655 35.5995,46.7655 C35.6797,46.7655 35.7412,46.7198 35.7412,46.6688 C35.7420,46.6163 35.6857,46.5675 35.6055,46.5675 Z" style="fill-rule: evenodd; fill: #010101; "/>
    <path xmlns="http://www.w3.org/2000/svg" d="  M35.6055,43.2510 C35.5980,43.2510 35.5387,43.2465 35.5207,43.2450 C31.4250,42.8340 27.1800,40.2765 25.7400,37.8413 C25.7400,37.8413 25.5442,37.8158 25.7077,38.0888 C27.9832,41.9505 32.2980,43.4978 35.5777,43.4483 C35.5777,43.4483 35.5927,43.4483 35.5995,43.4483 C35.6797,43.4483 35.7412,43.4033 35.7412,43.3515 C35.7420,43.2990 35.6857,43.2510 35.6055,43.2510 Z" style="fill-rule: evenodd; fill: #010101; "/>
    <path xmlns="http://www.w3.org/2000/svg" d="  M35.6055,39.9345 C35.5980,39.9345 35.5387,39.9300 35.5207,39.9278 C31.4250,39.5168 27.1800,36.9593 25.7400,34.5248 C25.7400,34.5248 25.5442,34.4993 25.7077,34.7715 C27.9832,38.6333 32.2980,40.1805 35.5777,40.1318 C35.5777,40.1318 35.5927,40.1310 35.5995,40.1310 C35.6797,40.1310 35.7412,40.0868 35.7412,40.0343 C35.7420,39.9833 35.6857,39.9345 35.6055,39.9345 Z" style="fill-rule: evenodd; fill: #010101; "/>
    <path xmlns="http://www.w3.org/2000/svg" d="  M35.7262,36.6743 C35.1810,36.6083 34.6365,36.5100 34.0950,36.3840 C32.9235,36.1320 31.7692,35.7278 30.6997,35.2208 C28.4655,34.1618 26.6017,32.6633 25.7407,31.2075 C25.7407,31.2075 25.5450,31.1813 25.7085,31.4543 C25.7902,31.5930 25.8757,31.7273 25.9627,31.8608 C28.2937,35.4240 32.4172,36.8618 35.5785,36.8145 C35.5785,36.8145 35.5935,36.8145 35.6002,36.8145 C35.6805,36.8145 35.7420,36.7695 35.7420,36.7178 C35.7420,36.7035 35.7352,36.6885 35.7262,36.6743 Z" style="fill-rule: evenodd; fill: #010101; "/>
    <path xmlns="http://www.w3.org/2000/svg" d="  M35.6235,33.3038 C35.6167,33.3030 35.6085,33.3015 35.6017,33.3000 C35.5882,33.3000 35.5380,33.2963 35.5215,33.2948 C34.2247,33.1635 32.9145,32.8185 31.6822,32.3310 C29.0205,31.2773 26.7255,29.5553 25.7407,27.8910 C25.7407,27.8910 25.5450,27.8655 25.7085,28.1370 C25.9357,28.5225 26.1832,28.8825 26.4465,29.2215 C28.8330,32.2913 32.6250,33.5423 35.5785,33.4980 C35.5785,33.4980 35.5935,33.4980 35.6002,33.4980 C35.6805,33.4980 35.7420,33.4530 35.7420,33.4013 C35.7420,33.3540 35.6940,33.3113 35.6235,33.3038 Z" style="fill-rule: evenodd; fill: #010101; "/>
    <path xmlns="http://www.w3.org/2000/svg" d="  M35.6055,26.6678 C35.5980,26.6678 35.5387,26.6633 35.5207,26.6618 C33.3862,26.4473 31.2142,25.6500 29.4172,24.5918 C27.7642,23.6190 26.4292,22.4243 25.7400,21.2588 C25.7400,21.2588 25.5442,21.2325 25.7077,21.5048 C25.8202,21.6968 25.9410,21.8813 26.0640,22.0613 C28.4107,25.5150 32.4615,26.9115 35.5785,26.8658 C35.5785,26.8658 35.5935,26.8643 35.6002,26.8643 C35.6805,26.8643 35.7420,26.8200 35.7420,26.7690 C35.7420,26.7158 35.6857,26.6678 35.6055,26.6678 Z" style="fill-rule: evenodd; fill: #010101; "/>
    <path xmlns="http://www.w3.org/2000/svg" d="  M35.6055,29.9843 C35.5980,29.9843 35.5387,29.9798 35.5207,29.9775 C31.4250,29.5665 27.1800,27.0098 25.7400,24.5745 C25.7400,24.5745 25.5442,24.5490 25.7077,24.8213 C27.9832,28.6830 32.2980,30.2303 35.5777,30.1815 C35.5777,30.1815 35.5927,30.1808 35.5995,30.1808 C35.6797,30.1808 35.7412,30.1358 35.7412,30.0840 C35.7412,30.0323 35.6857,29.9843 35.6055,29.9843 Z" style="fill-rule: evenodd; fill: #010101; "/>
    <defs xmlns="http://www.w3.org/2000/svg">
      <linearGradient id="grad4374">
        <stop offset="0%" stop-color="#656d6b" stop-opacity="1.0000"/>
        <stop offset="100%" stop-color="#dae1e1" stop-opacity="1.0000"/>
      </linearGradient>
    </defs>
    <path xmlns="http://www.w3.org/2000/svg" d="  M34.0462,47.4195 C33.1125,47.1232 32.2162,47.3235 32.0437,47.8665 C31.8712,48.4095 32.4900,49.0890 33.4245,49.3853 C34.3575,49.6800 35.2537,49.4813 35.4255,48.9375 C35.5980,48.3953 34.9800,47.7150 34.0462,47.4195 Z M34.7512,49.2345 C34.4047,49.5623 33.8047,49.4873 33.4125,49.0703 C33.2857,48.9345 33.1965,48.7808 33.1455,48.6225 C33.1117,48.5190 33.0945,48.4155 33.0930,48.3143 C33.0907,48.0878 33.1680,47.8748 33.3300,47.7225 C33.6765,47.3962 34.2765,47.4705 34.6687,47.8883 C35.0610,48.3060 35.0985,48.9090 34.7512,49.2345 Z" style="fill-rule: evenodd; fill: url(#grad4374); "/>
    <path xmlns="http://www.w3.org/2000/svg" d="  M33.3293,47.7232 C33.1665,47.8755 33.0900,48.0885 33.0923,48.3150 C33.0990,48.1537 33.1598,48.0037 33.2753,47.8942 C33.3690,47.8072 33.4860,47.7570 33.6120,47.7427 C33.8625,47.6797 34.1595,47.7660 34.3710,47.9917 C34.6598,48.2985 34.6830,48.7455 34.4295,49.0027 C34.4138,49.0237 34.3950,49.0447 34.3755,49.0642 C34.1070,49.3162 33.6428,49.2592 33.3398,48.9360 C33.2505,48.8415 33.1853,48.7335 33.1448,48.6232 C33.1958,48.7815 33.2858,48.9352 33.4118,49.0710 C33.8040,49.4880 34.4040,49.5622 34.7505,49.2352 C35.0978,48.9090 35.0603,48.3067 34.6680,47.8890 C34.2758,47.4712 33.6758,47.3970 33.3293,47.7232 Z" style="fill-rule: evenodd; fill: #010101; "/>
    <defs xmlns="http://www.w3.org/2000/svg">
      <radialGradient id="grad4375" cx="0.0000%" cy="100.0000%" r="100.0000%">
        <stop offset="0%" stop-color="#cdde61" stop-opacity="1.0000"/>
        <stop offset="100%" stop-color="#7ab049" stop-opacity="1.0000"/>
      </radialGradient>
    </defs>
    <path xmlns="http://www.w3.org/2000/svg" d="  M34.3755,49.0643 C34.3950,49.0448 34.4138,49.0238 34.4295,49.0028 C34.6830,48.7455 34.6598,48.2993 34.3710,47.9918 C34.1603,47.7660 33.8625,47.6798 33.6120,47.7428 C33.4860,47.7578 33.3690,47.8073 33.2753,47.8943 C33.1598,48.0038 33.0990,48.1538 33.0923,48.3150 C33.0938,48.4163 33.1110,48.5198 33.1448,48.6233 C33.1853,48.7335 33.2505,48.8415 33.3398,48.9360 C33.6428,49.2593 34.1063,49.3163 34.3755,49.0643 Z" style="fill-rule: evenodd; fill: url(#grad4375); "/>
    <defs xmlns="http://www.w3.org/2000/svg" xmlns:xlink="http://www.w3.org/1999/xlink">
      <linearGradient id="grad4376">
        <stop offset="0%" stop-color="#808788" stop-opacity="1.0000"/>
        <stop offset="100%" stop-color="#f3faf8" stop-opacity="1.0000"/>
      </linearGradient>
      <linearGradient xlink:href="#grad4376" id="grad4377" x1="0" y1="0" x2="0" y2="1" gradientTransform="rotate(315 .5 .5)" gradientUnits="objectBoundingBox">
  </linearGradient>
    </defs>
    <path xmlns="http://www.w3.org/2000/svg" d="  M25.8968,15.4492 C26.0858,18.7042 30.9225,23.1113 35.8672,20.3775 L25.8968,15.4492 Z M27.8070,16.5187 L34.1820,19.6432 C30.9592,21.2430 27.8903,18.5010 27.8070,16.5187 Z" style="fill-rule: evenodd; fill: url(#grad4377); "/>
    <defs xmlns="http://www.w3.org/2000/svg">
      <radialGradient id="grad4378" cx="0.0000%" cy="100.0000%" r="100.0000%">
        <stop offset="0%" stop-color="#acd36a" stop-opacity="1.0000"/>
        <stop offset="100%" stop-color="#000000" stop-opacity="1.0000"/>
      </radialGradient>
    </defs>
    <path xmlns="http://www.w3.org/2000/svg" d="  M27.8070,16.5188 C27.8902,18.5010 30.9592,21.2430 34.1820,19.6433 L27.8070,16.5188 Z" style="fill-rule: evenodd; fill: url(#grad4378); "/>
    <defs xmlns="http://www.w3.org/2000/svg" xmlns:xlink="http://www.w3.org/1999/xlink">
      <linearGradient id="grad4379">
        <stop offset="0%" stop-color="#808788" stop-opacity="1.0000"/>
        <stop offset="100%" stop-color="#dae1e1" stop-opacity="1.0000"/>
      </linearGradient>
      <linearGradient xlink:href="#grad4379" id="grad4380" x1="0" y1="0" x2="0" y2="1" gradientTransform="rotate(45 .5 .5)" gradientUnits="objectBoundingBox">
  </linearGradient>
    </defs>
    <path xmlns="http://www.w3.org/2000/svg" d="  M37.0762,18.6773 L37.0590,18.6683 L37.0590,52.2413 L58.3327,40.2323 L58.3327,37.8263 L45.3892,45.2633 L45.3892,44.7375 L57.8700,37.5765 L58.3327,37.3110 L58.3327,35.3550 L45.3892,42.7920 L45.3892,42.2655 L57.8700,35.1053 L58.3327,34.8390 L58.3327,32.8823 L45.3892,40.3193 L45.3892,39.7928 L57.9022,32.6475 L58.3327,32.4023 L58.3327,6.2655 L55.4775,7.9057 L37.0762,18.6773 Z" style="fill-rule: evenodd; fill: url(#grad4380); "/>
    <defs xmlns="http://www.w3.org/2000/svg" xmlns:xlink="http://www.w3.org/1999/xlink">
      <linearGradient id="grad4381">
        <stop offset="0%" stop-color="#808788" stop-opacity="1.0000"/>
        <stop offset="100%" stop-color="#f3faf8" stop-opacity="1.0000"/>
      </linearGradient>
      <linearGradient xlink:href="#grad4381" id="grad4382" x1="0" y1="0" x2="0" y2="1" gradientTransform="rotate(90 .5 .5)" gradientUnits="objectBoundingBox">
  </linearGradient>
    </defs>
    <path xmlns="http://www.w3.org/2000/svg" d="  M47.9602,0.0000 L25.4430,12.9983 L37.0590,18.6683 L58.3327,6.2347 L47.9602,0.0000 Z" style="fill-rule: evenodd; fill: url(#grad4382); "/>
    <defs xmlns="http://www.w3.org/2000/svg" xmlns:xlink="http://www.w3.org/1999/xlink">
      <linearGradient id="grad4383">
        <stop offset="0%" stop-color="#191818" stop-opacity="1.0000"/>
        <stop offset="100%" stop-color="#525253" stop-opacity="1.0000"/>
      </linearGradient>
      <linearGradient xlink:href="#grad4383" id="grad4384" x1="0" y1="0" x2="0" y2="1" gradientTransform="rotate(135 .5 .5)" gradientUnits="objectBoundingBox">
  </linearGradient>
    </defs>
    <path xmlns="http://www.w3.org/2000/svg" d="  M28.7138,56.6768 L24.6030,59.3595 L24.4350,34.0740 L28.9673,31.5270 L28.7138,56.6768 Z" style="fill-rule: evenodd; fill: url(#grad4384); "/>
    <defs xmlns="http://www.w3.org/2000/svg" xmlns:xlink="http://www.w3.org/1999/xlink">
      <linearGradient id="grad4385">
        <stop offset="0%" stop-color="#000000" stop-opacity="1.0000"/>
        <stop offset="100%" stop-color="#acaead" stop-opacity="1.0000"/>
      </linearGradient>
      <linearGradient xlink:href="#grad4385" id="grad4386" x1="0" y1="0" x2="0" y2="1" gradientTransform="rotate(135 .5 .5)" gradientUnits="objectBoundingBox">
  </linearGradient>
    </defs>
    <path xmlns="http://www.w3.org/2000/svg" d="  M25.0013,59.3205 L24.4523,59.4090 L0.4785,45.1748 L0.3525,20.0077 L24.9502,34.1535 L25.0013,59.3205 Z" style="fill-rule: evenodd; fill: url(#grad4386); "/>
    <path xmlns="http://www.w3.org/2000/svg" d="  M4.3545,42.2918 C4.5608,42.4013 4.5495,42.4703 4.5495,42.4703 L4.2983,42.5610 C4.2608,42.4695 4.2548,42.4508 4.1145,42.3548 L0.4598,40.2413 C0.4440,40.2353 0.3255,40.1655 0.1448,40.2788 L0.5213,40.0658 C0.5213,40.0650 4.1648,42.1898 4.3545,42.2918 Z" style="fill-rule: evenodd; fill: #010101; fill-opacity: 0.3216; "/>
    <path xmlns="http://www.w3.org/2000/svg" d="  M24.8010,54.1163 C25.0095,54.2273 24.9975,54.2978 24.9975,54.2978 L24.7440,54.3893 C24.7058,54.2963 24.6998,54.2775 24.5588,54.1800 L20.8598,52.0410 C20.8440,52.0358 20.7248,51.9638 20.5425,52.0793 L20.9220,51.8633 C20.9220,51.8633 24.6083,54.0128 24.8010,54.1163 Z" style="fill-rule: evenodd; fill: #010101; fill-opacity: 0.3216; "/>
    <path xmlns="http://www.w3.org/2000/svg" d="  M12.4980,39.1298 L12.1260,39.3465 C12.2040,39.2970 12.2385,39.2873 12.2385,39.0405 L12.2333,33.9405 L12.5423,33.7688 L12.4980,39.1298 Z" style="fill-rule: evenodd; fill: #010101; fill-opacity: 0.3216; "/>
    <path xmlns="http://www.w3.org/2000/svg" d="  M12.2423,39.1703 C12.2423,39.2738 12.1598,39.3563 12.0563,39.3563 L4.9013,35.1218 C4.7985,35.1218 4.7160,35.0393 4.7160,34.9365 L4.7250,29.7555 C4.7250,29.6528 4.8075,29.5695 4.9103,29.5695 L12.0735,33.6833 C12.2453,33.7665 12.2580,33.9120 12.2580,33.9578 L12.2423,39.1703 Z" style="fill-rule: evenodd; fill: #010101; fill-opacity: 0.3216; "/>
    <path xmlns="http://www.w3.org/2000/svg" d="  M12.3908,33.5948 C12.5655,33.7118 12.5445,33.7688 12.5445,33.7688 L12.2528,33.9338 C12.2393,33.8325 12.2100,33.7890 12.0698,33.6945 L5.0145,29.6340 C4.9988,29.6288 4.8803,29.5590 4.6988,29.6715 L5.1090,29.4428 C5.1090,29.4428 12.0728,33.3803 12.3908,33.5948 Z" style="fill-rule: evenodd; fill: #010101; fill-opacity: 0.3216; "/>
    <path xmlns="http://www.w3.org/2000/svg" d="  M13.9800,27.0900 L8.0565,30.5295 C8.1398,30.4778 8.1765,30.4673 8.1765,30.2048 L8.1308,24.7703 L12.7463,22.2375 L13.9800,27.0900 Z" style="fill-rule: evenodd; fill: #010101; fill-opacity: 0.3216; "/>
    <path xmlns="http://www.w3.org/2000/svg" d="  M8.1810,30.3435 C8.1810,30.4530 8.0962,30.5408 7.9905,30.5408 L0.6487,26.2268 C0.5430,26.2268 0.4582,26.1390 0.4582,26.0303 L0.4245,20.3805 C0.4245,20.2718 0.5092,20.1840 0.6157,20.1840 L8.0062,24.5378 C8.1277,24.5978 8.1975,24.7200 8.1975,24.8288 L8.1810,30.3435 Z" style="fill-rule: evenodd; fill: #010101; fill-opacity: 0.3216; "/>
    <path xmlns="http://www.w3.org/2000/svg" d="  M21.1342,27.0390 L22.3687,31.9298 L16.4055,35.3925 C16.4872,35.3392 16.5247,35.3295 16.5247,35.0648 L16.4790,29.5935 Z" style="fill-rule: evenodd; fill: #010101; fill-opacity: 0.3216; "/>
    <path xmlns="http://www.w3.org/2000/svg" d="  M16.5292,35.2050 C16.5292,35.3145 16.4415,35.4023 16.3313,35.4023 L8.7068,30.8918 C8.5973,30.8918 8.5095,30.8032 8.5095,30.6937 L8.5193,25.1730 C8.5193,25.0635 8.6078,24.9750 8.7173,24.9750 L16.3500,29.3588 C16.4737,29.4195 16.5473,29.5418 16.5473,29.6513 L16.5292,35.2050 Z" style="fill-rule: evenodd; fill: #010101; fill-opacity: 0.3216; "/>
    <path xmlns="http://www.w3.org/2000/svg" d="  M28.8833,37.3043 L28.8945,37.6965 L24.8145,40.1363 C24.8970,40.0838 24.9345,40.0740 24.9345,39.8093 L24.8888,34.3380 L28.8713,32.2215 L28.8833,37.3043 Z" style="fill-rule: evenodd; fill: #010101; fill-opacity: 0.3216; "/>
    <path xmlns="http://www.w3.org/2000/svg" d="  M24.9390,39.9502 C24.9390,40.0598 24.8273,40.2045 24.6765,40.1025 L17.1158,35.6363 C17.0063,35.6363 16.9185,35.5485 16.9185,35.4390 L16.9283,29.9175 C16.9283,29.8087 17.0168,29.7202 17.1270,29.7202 L24.7590,34.1040 C24.8828,34.1648 24.9555,34.2870 24.9555,34.3965 L24.9390,39.9502 Z" style="fill-rule: evenodd; fill: #010101; fill-opacity: 0.3216; "/>
    <path xmlns="http://www.w3.org/2000/svg" d="  M4.5353,34.5600 L4.1528,34.7790 C4.2308,34.7303 4.2653,34.7198 4.2653,34.4700 L4.2593,29.2448 L4.5285,29.1668 L4.5353,34.5600 Z" style="fill-rule: evenodd; fill: #010101; fill-opacity: 0.3216; "/>
    <path xmlns="http://www.w3.org/2000/svg" d="  M4.2698,34.6028 C4.2698,34.7063 4.1925,34.7903 4.0980,34.7903 L0.5805,32.6865 C0.4853,32.6865 0.4088,32.6033 0.4088,32.4998 L0.4268,27.0803 C0.4268,26.9768 0.5040,26.8935 0.5985,26.8935 L4.1130,29.0618 C4.2218,29.1188 4.2848,29.2350 4.2848,29.3393 L4.2698,34.6028 Z" style="fill-rule: evenodd; fill: #010101; fill-opacity: 0.3216; "/>
    <path xmlns="http://www.w3.org/2000/svg" d="  M4.3380,29.0093 C4.5435,29.1188 4.5323,29.1885 4.5323,29.1885 L4.2818,29.2785 C4.2435,29.1870 4.2375,29.1675 4.0980,29.0715 L0.4425,26.9580 C0.4268,26.9520 0.3090,26.8823 0.1290,26.9955 L0.5048,26.7825 C0.5048,26.7825 4.1483,28.9073 4.3380,29.0093 Z" style="fill-rule: evenodd; fill: #010101; fill-opacity: 0.3216; "/>
    <path xmlns="http://www.w3.org/2000/svg" d="  M20.5312,43.8480 L20.1540,44.0670 C20.2327,44.0168 20.2687,44.0078 20.2687,43.7573 L20.2635,38.6100 L20.5747,38.4375 L20.5312,43.8480 Z" style="fill-rule: evenodd; fill: #010101; fill-opacity: 0.3216; "/>
    <path xmlns="http://www.w3.org/2000/svg" d="  M20.2725,43.8893 C20.2725,43.9928 20.1885,44.0768 20.0843,44.0768 L12.8610,39.8033 C12.7568,39.8033 12.6735,39.7193 12.6735,39.6158 L12.6840,34.3845 C12.6840,34.2810 12.7673,34.1978 12.8708,34.1978 L20.1030,38.3498 C20.2748,38.4345 20.2890,38.5808 20.2890,38.6273 L20.2725,43.8893 Z" style="fill-rule: evenodd; fill: #010101; fill-opacity: 0.3216; "/>
    <path xmlns="http://www.w3.org/2000/svg" d="  M20.4225,38.2605 C20.5980,38.3790 20.5762,38.4368 20.5762,38.4368 L20.2830,38.6025 C20.2695,38.5013 20.2402,38.4570 20.0985,38.3610 L12.9750,34.2623 C12.9593,34.2570 12.8400,34.1865 12.6570,34.3005 L13.0703,34.0688 C13.0710,34.0688 20.1022,38.0430 20.4225,38.2605 Z" style="fill-rule: evenodd; fill: #010101; fill-opacity: 0.3216; "/>
    <path xmlns="http://www.w3.org/2000/svg" d="  M25.1880,46.5030 L24.8010,46.7258 C24.8798,46.6755 24.9143,46.6658 24.9143,46.4130 L24.9075,41.1255 L25.1805,41.0468 L25.1880,46.5030 Z" style="fill-rule: evenodd; fill: #010101; fill-opacity: 0.3216; "/>
    <path xmlns="http://www.w3.org/2000/svg" d="  M24.9180,46.5458 C24.9180,46.6508 24.8363,46.7355 24.7320,46.7355 L20.9325,44.4195 C20.8290,44.4195 20.7450,44.3355 20.7450,44.2305 L20.7555,38.9355 C20.7555,38.8305 20.8388,38.7457 20.9415,38.7457 L24.7485,40.9403 C24.8663,40.9972 24.9345,41.1150 24.9345,41.2200 L24.9180,46.5458 Z" style="fill-rule: evenodd; fill: #010101; fill-opacity: 0.3216; "/>
    <path xmlns="http://www.w3.org/2000/svg" d="  M24.9878,40.8870 C25.1963,40.9980 25.1850,41.0685 25.1850,41.0685 L24.9315,41.1600 C24.8933,41.0677 24.8873,41.0482 24.7448,40.9507 L21.0458,38.8117 C21.0300,38.8065 20.9115,38.7353 20.7285,38.8500 L21.1095,38.6340 C21.1095,38.6340 24.7950,40.7835 24.9878,40.8870 Z" style="fill-rule: evenodd; fill: #010101; fill-opacity: 0.3216; "/>
    <path xmlns="http://www.w3.org/2000/svg" d="  M16.7633,48.0578 C16.7633,48.0578 16.7790,48.3413 16.6845,48.4043 C16.3613,48.6203 16.3140,48.6188 16.3140,48.6188 C16.3958,48.5663 16.3823,48.6203 16.3823,48.3570 L16.3913,42.8955 L16.7610,42.6953 L16.7633,48.0578 Z" style="fill-rule: evenodd; fill: #010101; fill-opacity: 0.3216; "/>
    <path xmlns="http://www.w3.org/2000/svg" d="  M16.4370,48.4335 C16.4370,48.5415 16.3500,48.6300 16.2405,48.6300 L8.6685,44.1495 C8.5650,44.0565 8.4660,43.9245 8.4660,43.8157 L8.4817,38.4697 C8.4817,38.3610 8.5680,38.2732 8.6775,38.2732 L16.2570,42.6270 C16.3815,42.6870 16.4535,42.8085 16.4535,42.9172 L16.4370,48.4335 Z" style="fill-rule: evenodd; fill: #010101; fill-opacity: 0.3216; "/>
    <path xmlns="http://www.w3.org/2000/svg" d="  M16.5315,42.4560 C16.7775,42.6263 16.7603,42.7035 16.7603,42.7035 L16.4588,42.8828 C16.4273,42.7823 16.4055,42.7373 16.2555,42.6368 L8.7900,38.3400 C8.7727,38.3340 8.6482,38.2605 8.4562,38.3798 L8.9235,38.1255 C8.9220,38.1263 16.2848,42.2850 16.5315,42.4560 Z" style="fill-rule: evenodd; fill: #010101; fill-opacity: 0.3216; "/>
    <path xmlns="http://www.w3.org/2000/svg" d="  M8.4435,43.1633 C8.4435,43.1633 8.4592,43.4475 8.3655,43.5098 C8.0422,43.7258 7.9942,43.7243 7.9942,43.7243 C8.0767,43.6725 8.0632,43.7250 8.0632,43.4625 L8.0722,38.0018 L8.4412,37.8015 L8.4435,43.1633 Z" style="fill-rule: evenodd; fill: #010101; fill-opacity: 0.3216; "/>
    <path xmlns="http://www.w3.org/2000/svg" d="  M8.1172,43.5383 C8.1172,43.6470 8.0325,43.7355 7.9267,43.7355 L0.5828,39.3398 C0.4823,39.2468 0.4523,39.1793 0.4523,39.0705 L0.3863,33.5760 C0.3863,33.4673 0.4710,33.3795 0.5768,33.3795 L7.9432,37.7333 C8.0632,37.7933 8.1337,37.9155 8.1337,38.0235 L8.1172,43.5383 Z" style="fill-rule: evenodd; fill: #010101; fill-opacity: 0.3216; "/>
    <path xmlns="http://www.w3.org/2000/svg" d="  M8.2110,37.5615 C8.4577,37.7325 8.4397,37.8098 8.4397,37.8098 L8.1390,37.9883 C8.1082,37.8885 8.0850,37.8428 7.9357,37.7430 L0.4695,33.4463 C0.4538,33.4403 0.3285,33.3668 0.1358,33.4860 L0.6030,33.2325 C0.6023,33.2318 7.9642,37.3905 8.2110,37.5615 Z" style="fill-rule: evenodd; fill: #010101; fill-opacity: 0.3216; "/>
    <path xmlns="http://www.w3.org/2000/svg" d="  M25.2037,52.9298 C25.2037,52.9298 25.2195,53.2133 25.1257,53.2763 C24.8010,53.4915 24.7537,53.4900 24.7537,53.4900 C24.8370,53.4383 24.8227,53.4915 24.8227,53.2290 L24.8317,47.7675 L25.2007,47.5673 L25.2037,52.9298 Z" style="fill-rule: evenodd; fill: #010101; fill-opacity: 0.3216; "/>
    <path xmlns="http://www.w3.org/2000/svg" d="  M24.8790,53.3048 C24.8790,53.4135 24.7897,53.5020 24.6817,53.5020 L17.1090,49.0215 C17.0055,48.9278 16.9065,48.7965 16.9065,48.6878 L16.9222,43.3418 C16.9222,43.2323 17.0107,43.1445 17.1195,43.1445 L24.6997,47.4990 C24.8235,47.5583 24.8947,47.6805 24.8947,47.7893 L24.8790,53.3048 Z" style="fill-rule: evenodd; fill: #010101; fill-opacity: 0.3216; "/>
    <path xmlns="http://www.w3.org/2000/svg" d="  M24.9720,47.3273 C25.2187,47.4983 25.2015,47.5755 25.2015,47.5755 L24.9000,47.7540 C24.8692,47.6543 24.8460,47.6093 24.6967,47.5088 L17.2305,43.2113 C17.2140,43.2068 17.0895,43.1333 16.8975,43.2518 L17.3640,42.9983 C17.3625,42.9983 24.7252,47.1570 24.9720,47.3273 Z" style="fill-rule: evenodd; fill: #010101; fill-opacity: 0.3216; "/>
    <path xmlns="http://www.w3.org/2000/svg" d="  M28.8360,39.4583 L28.8232,43.4565 L28.8225,43.9320 L28.8000,44.3370 L25.0515,46.6005 C25.1310,46.5503 25.1670,46.5405 25.1670,46.2848 L25.1595,41.6888 L28.8360,39.4583 Z" style="fill-rule: evenodd; fill: #010101; fill-opacity: 0.3216; "/>
    <path xmlns="http://www.w3.org/2000/svg" d="  M28.7520,50.8590 L25.0882,53.2853 C25.1685,53.2350 25.1355,53.2305 25.1355,52.9748 L25.1295,47.5980 L28.8127,45.3885 L28.7520,50.8590 Z" style="fill-rule: evenodd; fill: #010101; fill-opacity: 0.3216; "/>
    <path xmlns="http://www.w3.org/2000/svg" d="  M4.5600,47.4697 L4.1775,47.6722 C4.2555,47.6257 4.2900,47.6182 4.2900,47.3865 L4.2840,42.5445 L4.5532,42.4718 L4.5600,47.4697 Z" style="fill-rule: evenodd; fill: #010101; fill-opacity: 0.3216; "/>
    <defs xmlns="http://www.w3.org/2000/svg" xmlns:xlink="http://www.w3.org/1999/xlink">
      <linearGradient id="grad4387">
        <stop offset="0%" stop-color="#4d1f16" stop-opacity="1.0000"/>
        <stop offset="100%" stop-color="#2a130f" stop-opacity="1.0000"/>
      </linearGradient>
      <linearGradient xlink:href="#grad4387" id="grad4388" x1="0" y1="0" x2="0" y2="1" gradientTransform="rotate(90 .5 .5)" gradientUnits="objectBoundingBox">
  </linearGradient>
    </defs>
    <path xmlns="http://www.w3.org/2000/svg" d="  M28.9770,51.4335 L24.8970,54.0592 C24.8745,53.9460 24.8610,53.9100 24.7215,53.8155 L28.6493,51.2647 C28.8180,51.1965 29.2485,51.3210 29.2290,51.6390 L28.9770,51.4335 Z" style="fill-rule: evenodd; fill: url(#grad4388); "/>
    <path xmlns="http://www.w3.org/2000/svg" d="  M29.1240,38.4217 L25.0605,40.7475 C24.9930,40.6410 25.0020,40.6470 24.9187,40.5945 L28.8427,38.2065 C29.0115,38.1375 29.4420,38.2620 29.4210,38.5800 L29.1240,38.4217 Z" style="fill-rule: evenodd; fill: #6e3f35; "/>
    <defs xmlns="http://www.w3.org/2000/svg" xmlns:xlink="http://www.w3.org/1999/xlink">
      <linearGradient id="grad4389">
        <stop offset="0%" stop-color="#3c1912" stop-opacity="1.0000"/>
        <stop offset="100%" stop-color="#5a2e28" stop-opacity="1.0000"/>
      </linearGradient>
      <linearGradient xlink:href="#grad4389" id="grad4390" x1="0" y1="0" x2="0" y2="1" gradientTransform="rotate(90 .5 .5)" gradientUnits="objectBoundingBox">
  </linearGradient>
    </defs>
    <path xmlns="http://www.w3.org/2000/svg" d="  M12.3300,52.0935 L11.9572,52.3103 C12.0352,52.2608 12.0697,52.2510 12.0697,52.0035 L12.0652,46.9043 L12.3742,46.7325 L12.3300,52.0935 Z" style="fill-rule: evenodd; fill: url(#grad4390); "/>
    <defs xmlns="http://www.w3.org/2000/svg" xmlns:xlink="http://www.w3.org/1999/xlink">
      <linearGradient id="grad4391">
        <stop offset="0%" stop-color="#763e37" stop-opacity="1.0000"/>
        <stop offset="100%" stop-color="#b58c80" stop-opacity="1.0000"/>
      </linearGradient>
      <linearGradient xlink:href="#grad4391" id="grad4392" x1="0" y1="0" x2="0" y2="1" gradientTransform="rotate(135 .5 .5)" gradientUnits="objectBoundingBox">
  </linearGradient>
    </defs>
    <path xmlns="http://www.w3.org/2000/svg" d="  M12.0742,52.1348 C12.0742,52.2375 11.9910,52.3200 11.8882,52.3200 L4.7325,48.0855 C4.6297,48.0855 4.5472,48.0038 4.5472,47.9003 L4.5570,42.7193 C4.5570,42.6165 4.6395,42.5340 4.7430,42.5340 L11.9062,46.6478 C12.0765,46.7303 12.0907,46.8758 12.0907,46.9223 L12.0742,52.1348 Z" style="fill-rule: evenodd; fill: url(#grad4392); "/>
    <defs xmlns="http://www.w3.org/2000/svg" xmlns:xlink="http://www.w3.org/1999/xlink">
      <linearGradient id="grad4393">
        <stop offset="0%" stop-color="#6a2b21" stop-opacity="1.0000"/>
        <stop offset="100%" stop-color="#b47362" stop-opacity="1.0000"/>
      </linearGradient>
      <linearGradient xlink:href="#grad4393" id="grad4394" x1="0" y1="0" x2="0" y2="1" gradientTransform="rotate(180 .5 .5)" gradientUnits="objectBoundingBox">
  </linearGradient>
    </defs>
    <path xmlns="http://www.w3.org/2000/svg" d="  M11.7660,51.7020 C11.7660,51.8040 11.6835,51.8873 11.5807,51.8873 L4.9425,47.9663 C4.8397,47.9663 4.7572,47.8830 4.7572,47.7810 L4.7272,43.1880 C4.7272,43.0845 4.8097,43.0028 4.9125,43.0028 L11.5582,46.8030 C11.7532,46.8855 11.7427,46.9905 11.7427,47.0925 L11.7660,51.7020 Z" style="fill-rule: evenodd; fill: url(#grad4394); "/>
    <path xmlns="http://www.w3.org/2000/svg" d="  M12.2235,46.5578 C12.3982,46.6755 12.3765,46.7318 12.3765,46.7318 L12.0847,46.8968 C12.0712,46.7963 12.0427,46.7528 11.9017,46.6575 L4.8465,42.5978 C4.8307,42.5925 4.7122,42.5220 4.5315,42.6353 L4.9410,42.4058 C4.9410,42.4058 11.9062,46.3433 12.2235,46.5578 Z" style="fill-rule: evenodd; fill: #8b6055; "/>
    <defs xmlns="http://www.w3.org/2000/svg" xmlns:xlink="http://www.w3.org/1999/xlink">
      <linearGradient id="grad4395">
        <stop offset="0%" stop-color="#3c1912" stop-opacity="1.0000"/>
        <stop offset="100%" stop-color="#5a2e28" stop-opacity="1.0000"/>
      </linearGradient>
      <linearGradient xlink:href="#grad4395" id="grad4396" x1="0" y1="0" x2="0" y2="1" gradientTransform="rotate(90 .5 .5)" gradientUnits="objectBoundingBox">
  </linearGradient>
    </defs>
    <path xmlns="http://www.w3.org/2000/svg" d="  M4.4235,47.5163 L4.0410,47.7360 C4.1190,47.6865 4.1528,47.6775 4.1528,47.4270 L4.1475,42.2018 L4.4175,42.1230 L4.4235,47.5163 Z" style="fill-rule: evenodd; fill: url(#grad4396); "/>
    <defs xmlns="http://www.w3.org/2000/svg" xmlns:xlink="http://www.w3.org/1999/xlink">
      <linearGradient id="grad4397">
        <stop offset="0%" stop-color="#763e37" stop-opacity="1.0000"/>
        <stop offset="100%" stop-color="#b58c80" stop-opacity="1.0000"/>
      </linearGradient>
      <linearGradient xlink:href="#grad4397" id="grad4398" x1="0" y1="0" x2="0" y2="1" gradientTransform="rotate(135 .5 .5)" gradientUnits="objectBoundingBox">
  </linearGradient>
    </defs>
    <path xmlns="http://www.w3.org/2000/svg" d="  M4.1573,47.5598 C4.1573,47.6633 4.0755,47.7465 3.9728,47.7465 L0.2175,45.4575 C0.1155,45.4575 0.0322,45.3743 0.0322,45.2700 L0.0427,40.0373 C0.0427,39.9338 0.1245,39.8505 0.2272,39.8505 L3.9908,42.0180 C4.1063,42.0758 4.1738,42.1920 4.1738,42.2955 L4.1573,47.5598 Z" style="fill-rule: evenodd; fill: url(#grad4398); "/>
    <defs xmlns="http://www.w3.org/2000/svg" xmlns:xlink="http://www.w3.org/1999/xlink">
      <linearGradient id="grad4399">
        <stop offset="0%" stop-color="#8d3f34" stop-opacity="1.0000"/>
        <stop offset="100%" stop-color="#b66c54" stop-opacity="1.0000"/>
      </linearGradient>
      <linearGradient xlink:href="#grad4399" id="grad4400" x1="0" y1="0" x2="0" y2="1" gradientTransform="rotate(135 .5 .5)" gradientUnits="objectBoundingBox">
  </linearGradient>
    </defs>
    <path xmlns="http://www.w3.org/2000/svg" d="  M3.8513,47.1233 C3.8513,47.2268 3.7695,47.3108 3.6683,47.3108 L0.4267,45.3368 C0.3255,45.3368 0.2422,45.2535 0.2422,45.1493 L0.2130,40.5113 C0.2130,40.4070 0.2947,40.3238 0.3975,40.3238 L3.6450,42.1770 C3.8400,42.2595 3.8295,42.3653 3.8295,42.4688 L3.8513,47.1233 Z" style="fill-rule: evenodd; fill: url(#grad4400); "/>
    <path xmlns="http://www.w3.org/2000/svg" d="  M4.2270,41.9655 C4.4325,42.0758 4.4213,42.1448 4.4213,42.1448 L4.1700,42.2348 C4.1325,42.1440 4.1265,42.1253 3.9863,42.0285 L0.3315,39.9150 C0.3157,39.9098 0.1980,39.8393 0.0180,39.9533 L0.3930,39.7395 C0.3922,39.7388 4.0358,41.8635 4.2270,41.9655 Z" style="fill-rule: evenodd; fill: #8b6055; "/>
    <defs xmlns="http://www.w3.org/2000/svg" xmlns:xlink="http://www.w3.org/1999/xlink">
      <linearGradient id="grad4401">
        <stop offset="0%" stop-color="#3c1912" stop-opacity="1.0000"/>
        <stop offset="100%" stop-color="#5a2e28" stop-opacity="1.0000"/>
      </linearGradient>
      <linearGradient xlink:href="#grad4401" id="grad4402" x1="0" y1="0" x2="0" y2="1" gradientTransform="rotate(90 .5 .5)" gradientUnits="objectBoundingBox">
  </linearGradient>
    </defs>
    <path xmlns="http://www.w3.org/2000/svg" d="  M20.2988,56.8778 L19.9230,57.0968 C20.0010,57.0465 20.0355,57.0368 20.0355,56.7870 L20.0310,51.6390 L20.3438,51.4665 L20.2988,56.8778 Z" style="fill-rule: evenodd; fill: url(#grad4402); "/>
    <defs xmlns="http://www.w3.org/2000/svg" xmlns:xlink="http://www.w3.org/1999/xlink">
      <linearGradient id="grad4403">
        <stop offset="0%" stop-color="#402725" stop-opacity="1.0000"/>
        <stop offset="100%" stop-color="#77514a" stop-opacity="1.0000"/>
      </linearGradient>
      <linearGradient xlink:href="#grad4403" id="grad4404" x1="0" y1="0" x2="0" y2="1" gradientTransform="rotate(90 .5 .5)" gradientUnits="objectBoundingBox">
  </linearGradient>
    </defs>
    <path xmlns="http://www.w3.org/2000/svg" d="  M20.0400,56.9190 C20.0400,57.0225 19.9568,57.1065 19.8525,57.1065 L12.6285,52.8330 C12.5250,52.8330 12.4418,52.7490 12.4418,52.6448 L12.4508,47.4143 C12.4508,47.3100 12.5340,47.2268 12.6383,47.2268 L19.8698,51.3795 C20.0415,51.4635 20.0565,51.6098 20.0565,51.6570 L20.0400,56.9190 Z" style="fill-rule: evenodd; fill: url(#grad4404); "/>
    <defs xmlns="http://www.w3.org/2000/svg" xmlns:xlink="http://www.w3.org/1999/xlink">
      <linearGradient id="grad4405">
        <stop offset="0%" stop-color="#501c15" stop-opacity="1.0000"/>
        <stop offset="100%" stop-color="#87473b" stop-opacity="1.0000"/>
      </linearGradient>
      <linearGradient xlink:href="#grad4405" id="grad4406" x1="0" y1="0" x2="0" y2="1" gradientTransform="rotate(135 .5 .5)" gradientUnits="objectBoundingBox">
  </linearGradient>
    </defs>
    <path xmlns="http://www.w3.org/2000/svg" d="  M19.7295,56.4825 C19.7295,56.5868 19.6463,56.6700 19.5420,56.6700 L12.8408,52.7123 C12.7365,52.7123 12.6540,52.6283 12.6540,52.5240 L12.6233,47.8875 C12.6233,47.7833 12.7065,47.7008 12.8108,47.7008 L19.5195,51.5378 C19.7168,51.6203 19.7055,51.7268 19.7055,51.8303 L19.7295,56.4825 Z" style="fill-rule: evenodd; fill: url(#grad4406); "/>
    <path xmlns="http://www.w3.org/2000/svg" d="  M20.1915,51.2903 C20.3670,51.4080 20.3460,51.4658 20.3460,51.4658 L20.0520,51.6330 C20.0385,51.5303 20.0085,51.4860 19.8660,51.3908 L12.7440,47.2920 C12.7283,47.2860 12.6090,47.2155 12.4253,47.3295 L12.8385,47.0985 C12.8385,47.0985 19.8698,51.0735 20.1915,51.2903 Z" style="fill-rule: evenodd; fill: #8b6055; "/>
    <defs xmlns="http://www.w3.org/2000/svg" xmlns:xlink="http://www.w3.org/1999/xlink">
      <linearGradient id="grad4407">
        <stop offset="0%" stop-color="#3c1912" stop-opacity="1.0000"/>
        <stop offset="100%" stop-color="#5a2e28" stop-opacity="1.0000"/>
      </linearGradient>
      <linearGradient xlink:href="#grad4407" id="grad4408" x1="0" y1="0" x2="0" y2="1" gradientTransform="rotate(135 .5 .5)" gradientUnits="objectBoundingBox">
  </linearGradient>
    </defs>
    <path xmlns="http://www.w3.org/2000/svg" d="  M24.8588,59.4547 C24.7808,59.5117 24.4373,59.6917 24.4373,59.6917 C24.5160,59.6415 24.5513,59.6325 24.5513,59.3790 L24.5453,54.0915 L24.8760,53.9738 C24.8775,53.9745 24.9390,59.3970 24.8588,59.4547 Z" style="fill-rule: evenodd; fill: url(#grad4408); "/>
    <defs xmlns="http://www.w3.org/2000/svg" xmlns:xlink="http://www.w3.org/1999/xlink">
      <linearGradient id="grad4409">
        <stop offset="0%" stop-color="#402725" stop-opacity="1.0000"/>
        <stop offset="100%" stop-color="#77514a" stop-opacity="1.0000"/>
      </linearGradient>
      <linearGradient xlink:href="#grad4409" id="grad4410" x1="0" y1="0" x2="0" y2="1" gradientTransform="rotate(90 .5 .5)" gradientUnits="objectBoundingBox">
  </linearGradient>
    </defs>
    <path xmlns="http://www.w3.org/2000/svg" d="  M24.5565,59.5125 C24.5565,59.6182 24.4725,59.7022 24.3690,59.7022 L20.6348,57.4740 C20.5253,57.4148 20.3820,57.2910 20.3820,57.1860 L20.3925,51.9023 C20.3925,51.7973 20.4758,51.7133 20.5785,51.7133 L24.3870,53.9063 C24.5033,53.9640 24.5715,54.0825 24.5715,54.1868 L24.5565,59.5125 Z" style="fill-rule: evenodd; fill: url(#grad4410); "/>
    <defs xmlns="http://www.w3.org/2000/svg" xmlns:xlink="http://www.w3.org/1999/xlink">
      <linearGradient id="grad4411">
        <stop offset="0%" stop-color="#4c1c15" stop-opacity="1.0000"/>
        <stop offset="100%" stop-color="#511f16" stop-opacity="1.0000"/>
      </linearGradient>
      <linearGradient xlink:href="#grad4411" id="grad4412" x1="0" y1="0" x2="0" y2="1" gradientTransform="rotate(135 .5 .5)" gradientUnits="objectBoundingBox">
  </linearGradient>
    </defs>
    <path xmlns="http://www.w3.org/2000/svg" d="  M24.2055,58.9965 C24.2055,59.1015 24.1230,59.1862 24.0195,59.1862 L20.8388,57.3127 C20.6348,57.1867 20.5868,57.0555 20.5868,56.9505 L20.5643,52.3823 C20.5643,52.2780 20.6468,52.1925 20.7503,52.1925 L24.0368,54.0675 C24.2348,54.1508 24.2243,54.2588 24.2243,54.3638 L24.2055,58.9965 Z" style="fill-rule: evenodd; fill: url(#grad4412); "/>
    <defs xmlns="http://www.w3.org/2000/svg" xmlns:xlink="http://www.w3.org/1999/xlink">
      <linearGradient id="grad4413">
        <stop offset="0%" stop-color="#5b332e" stop-opacity="1.0000"/>
        <stop offset="100%" stop-color="#7d5954" stop-opacity="1.0000"/>
      </linearGradient>
      <linearGradient xlink:href="#grad4413" id="grad4414" x1="0" y1="0" x2="0" y2="1" gradientTransform="rotate(90 .5 .5)" gradientUnits="objectBoundingBox">
  </linearGradient>
    </defs>
    <path xmlns="http://www.w3.org/2000/svg" d="  M24.7395,53.8245 C24.8468,53.8845 24.8535,53.9745 24.8535,53.9745 L24.5880,54.1380 C24.5498,54.0450 24.5235,54.0150 24.3818,53.9175 L20.6828,51.7785 C20.6670,51.7733 20.5028,51.6683 20.4435,51.7808 C20.4435,51.7808 20.7233,51.5325 20.7818,51.5640 C20.8838,51.6188 24.5490,53.7188 24.7395,53.8245 Z" style="fill-rule: evenodd; fill: url(#grad4414); "/>
    <defs xmlns="http://www.w3.org/2000/svg" xmlns:xlink="http://www.w3.org/1999/xlink">
      <linearGradient id="grad4415">
        <stop offset="0%" stop-color="#3c1912" stop-opacity="1.0000"/>
        <stop offset="100%" stop-color="#5a2e28" stop-opacity="1.0000"/>
      </linearGradient>
      <linearGradient xlink:href="#grad4415" id="grad4416" x1="0" y1="0" x2="0" y2="1" gradientTransform="rotate(90 .5 .5)" gradientUnits="objectBoundingBox">
  </linearGradient>
    </defs>
    <path xmlns="http://www.w3.org/2000/svg" d="  M12.3698,38.8035 L11.9970,39.0202 C12.0750,38.9715 12.1095,38.9617 12.1095,38.7142 L12.1043,33.6143 L12.4133,33.4433 L12.3698,38.8035 Z" style="fill-rule: evenodd; fill: url(#grad4416); "/>
    <defs xmlns="http://www.w3.org/2000/svg" xmlns:xlink="http://www.w3.org/1999/xlink">
      <linearGradient id="grad4417">
        <stop offset="0%" stop-color="#74473e" stop-opacity="1.0000"/>
        <stop offset="100%" stop-color="#b59084" stop-opacity="1.0000"/>
      </linearGradient>
      <linearGradient xlink:href="#grad4417" id="grad4418" x1="0" y1="0" x2="0" y2="1" gradientTransform="rotate(135 .5 .5)" gradientUnits="objectBoundingBox">
  </linearGradient>
    </defs>
    <path xmlns="http://www.w3.org/2000/svg" d="  M12.1133,38.8448 C12.1133,38.9483 12.0308,39.0308 11.9280,39.0308 L4.7723,34.7970 C4.6695,34.7970 4.5870,34.7145 4.5870,34.6118 L4.5960,29.4300 C4.5960,29.3273 4.6785,29.2448 4.7813,29.2448 L11.9453,33.3578 C12.1163,33.4410 12.1298,33.5865 12.1298,33.6330 L12.1133,38.8448 Z" style="fill-rule: evenodd; fill: url(#grad4418); "/>
    <defs xmlns="http://www.w3.org/2000/svg" xmlns:xlink="http://www.w3.org/1999/xlink">
      <linearGradient id="grad4419">
        <stop offset="0%" stop-color="#a2503e" stop-opacity="1.0000"/>
        <stop offset="100%" stop-color="#c17d65" stop-opacity="1.0000"/>
      </linearGradient>
      <linearGradient xlink:href="#grad4419" id="grad4420" x1="0" y1="0" x2="0" y2="1" gradientTransform="rotate(180 .5 .5)" gradientUnits="objectBoundingBox">
  </linearGradient>
    </defs>
    <path xmlns="http://www.w3.org/2000/svg" d="  M11.8058,38.4135 C11.8058,38.5163 11.7233,38.5988 11.6205,38.5988 L4.9823,34.6778 C4.8788,34.6778 4.7970,34.5945 4.7970,34.4918 L4.7678,29.8988 C4.7678,29.7960 4.8495,29.7135 4.9523,29.7135 L11.5973,33.5145 C11.7930,33.5970 11.7825,33.7020 11.7825,33.8048 L11.8058,38.4135 Z" style="fill-rule: evenodd; fill: url(#grad4420); "/>
    <defs xmlns="http://www.w3.org/2000/svg" xmlns:xlink="http://www.w3.org/1999/xlink">
      <linearGradient id="grad4421">
        <stop offset="0%" stop-color="#9a6045" stop-opacity="1.0000"/>
        <stop offset="100%" stop-color="#c2968b" stop-opacity="1.0000"/>
      </linearGradient>
      <linearGradient xlink:href="#grad4421" id="grad4422" x1="0" y1="0" x2="0" y2="1" gradientTransform="rotate(135 .5 .5)" gradientUnits="objectBoundingBox">
  </linearGradient>
    </defs>
    <path xmlns="http://www.w3.org/2000/svg" d="  M12.2618,33.2685 C12.4373,33.3863 12.4155,33.4433 12.4155,33.4433 L12.1238,33.6075 C12.1103,33.5070 12.0818,33.4635 11.9408,33.3683 L4.8855,29.3085 C4.8698,29.3033 4.7513,29.2328 4.5705,29.3460 L4.9800,29.1165 C4.9800,29.1165 11.9445,33.0548 12.2618,33.2685 Z" style="fill-rule: evenodd; fill: url(#grad4422); "/>
    <defs xmlns="http://www.w3.org/2000/svg" xmlns:xlink="http://www.w3.org/1999/xlink">
      <linearGradient id="grad4423">
        <stop offset="0%" stop-color="#6e3a2f" stop-opacity="1.0000"/>
        <stop offset="100%" stop-color="#5a2e28" stop-opacity="1.0000"/>
      </linearGradient>
      <linearGradient xlink:href="#grad4423" id="grad4424" x1="0" y1="0" x2="0" y2="1" gradientTransform="rotate(135 .5 .5)" gradientUnits="objectBoundingBox">
  </linearGradient>
    </defs>
    <path xmlns="http://www.w3.org/2000/svg" d="  M13.8518,26.7637 L7.9283,30.2032 C8.0115,30.1515 8.0483,30.1410 8.0483,29.8792 L8.0033,24.4447 L12.6180,21.9112 L13.8518,26.7637 Z" style="fill-rule: evenodd; fill: url(#grad4424); "/>
    <defs xmlns="http://www.w3.org/2000/svg" xmlns:xlink="http://www.w3.org/1999/xlink">
      <linearGradient id="grad4425">
        <stop offset="0%" stop-color="#6c3c38" stop-opacity="1.0000"/>
        <stop offset="100%" stop-color="#cdaba3" stop-opacity="1.0000"/>
      </linearGradient>
      <linearGradient xlink:href="#grad4425" id="grad4426" x1="0" y1="0" x2="0" y2="1" gradientTransform="rotate(180 .5 .5)" gradientUnits="objectBoundingBox">
  </linearGradient>
    </defs>
    <path xmlns="http://www.w3.org/2000/svg" d="  M8.0520,30.0180 C8.0520,30.1267 7.9643,30.2145 7.8555,30.2145 L0.2835,25.7340 C0.1748,25.7340 0.0870,25.6462 0.0870,25.5375 L0.0968,20.0535 C0.0968,19.9447 0.1845,19.8570 0.2933,19.8570 L7.8735,24.2107 C7.9980,24.2715 8.0693,24.3930 8.0693,24.5017 L8.0520,30.0180 Z" style="fill-rule: evenodd; fill: url(#grad4426); "/>
    <defs xmlns="http://www.w3.org/2000/svg" xmlns:xlink="http://www.w3.org/1999/xlink">
      <linearGradient id="grad4427">
        <stop offset="0%" stop-color="#a85542" stop-opacity="1.0000"/>
        <stop offset="100%" stop-color="#bf7b64" stop-opacity="1.0000"/>
      </linearGradient>
      <linearGradient xlink:href="#grad4427" id="grad4428" x1="0" y1="0" x2="0" y2="1" gradientTransform="rotate(180 .5 .5)" gradientUnits="objectBoundingBox">
  </linearGradient>
    </defs>
    <path xmlns="http://www.w3.org/2000/svg" d="  M7.7273,29.5612 C7.7273,29.6700 7.6395,29.7570 7.5308,29.7570 L0.5063,25.6072 C0.3968,25.6072 0.3098,25.5202 0.3098,25.4107 L0.2775,20.5507 C0.2775,20.4420 0.3660,20.3542 0.4748,20.3542 L7.5075,24.3772 C7.7138,24.4642 7.7025,24.5752 7.7025,24.6832 L7.7273,29.5612 Z" style="fill-rule: evenodd; fill: url(#grad4428); "/>
    <defs xmlns="http://www.w3.org/2000/svg" xmlns:xlink="http://www.w3.org/1999/xlink">
      <linearGradient id="grad4429">
        <stop offset="0%" stop-color="#9a6045" stop-opacity="1.0000"/>
        <stop offset="100%" stop-color="#c2968b" stop-opacity="1.0000"/>
      </linearGradient>
      <linearGradient xlink:href="#grad4429" id="grad4430" x1="0" y1="0" x2="0" y2="1" gradientTransform="rotate(135 .5 .5)" gradientUnits="objectBoundingBox">
  </linearGradient>
    </defs>
    <path xmlns="http://www.w3.org/2000/svg" d="  M8.0723,24.4680 C8.0423,24.3682 8.0198,24.3232 7.8690,24.2220 L0.4035,19.9252 C0.3863,19.9192 0.2618,19.8465 0.0698,19.9650 L4.4828,17.4727 C4.6125,17.4037 4.9358,17.3925 5.1000,17.4727 L12.4268,21.6907 C12.5423,21.7537 12.6180,21.8152 12.6180,21.9232 L8.0723,24.4680 Z" style="fill-rule: evenodd; fill: url(#grad4430); "/>
    <defs xmlns="http://www.w3.org/2000/svg" xmlns:xlink="http://www.w3.org/1999/xlink">
      <linearGradient id="grad4431">
        <stop offset="0%" stop-color="#d5a68a" stop-opacity="1.0000"/>
        <stop offset="100%" stop-color="#f5e4db" stop-opacity="1.0000"/>
      </linearGradient>
      <linearGradient xlink:href="#grad4431" id="grad4432" x1="0" y1="0" x2="0" y2="1" gradientTransform="rotate(90 .5 .5)" gradientUnits="objectBoundingBox">
  </linearGradient>
    </defs>
    <path xmlns="http://www.w3.org/2000/svg" d="  M8.1338,24.2302 L0.4470,19.7565 L4.5008,17.4742 C4.6298,17.4060 4.9538,17.3947 5.1180,17.4742 L12.5528,21.7680 L8.1338,24.2302 Z" style="fill-rule: evenodd; fill: url(#grad4432); "/>
    <defs xmlns="http://www.w3.org/2000/svg" xmlns:xlink="http://www.w3.org/1999/xlink">
      <linearGradient id="grad4433">
        <stop offset="0%" stop-color="#6e3a2f" stop-opacity="1.0000"/>
        <stop offset="100%" stop-color="#5a2e28" stop-opacity="1.0000"/>
      </linearGradient>
      <linearGradient xlink:href="#grad4433" id="grad4434" x1="0" y1="0" x2="0" y2="1" gradientTransform="rotate(135 .5 .5)" gradientUnits="objectBoundingBox">
  </linearGradient>
    </defs>
    <path xmlns="http://www.w3.org/2000/svg" d="  M22.2397,31.6042 L16.2757,35.0662 C16.3590,35.0137 16.3957,35.0040 16.3957,34.7392 L16.3500,29.2680 L21.0052,26.7127 L22.2397,31.6042 Z" style="fill-rule: evenodd; fill: url(#grad4434); "/>
    <defs xmlns="http://www.w3.org/2000/svg" xmlns:xlink="http://www.w3.org/1999/xlink">
      <linearGradient id="grad4435">
        <stop offset="0%" stop-color="#6c3c38" stop-opacity="1.0000"/>
        <stop offset="100%" stop-color="#cdaba3" stop-opacity="1.0000"/>
      </linearGradient>
      <linearGradient xlink:href="#grad4435" id="grad4436" x1="0" y1="0" x2="0" y2="1" gradientTransform="rotate(180 .5 .5)" gradientUnits="objectBoundingBox">
  </linearGradient>
    </defs>
    <path xmlns="http://www.w3.org/2000/svg" d="  M16.4002,34.8795 C16.4002,34.9890 16.3125,35.0775 16.2022,35.0775 L8.5777,30.5662 C8.4690,30.5662 8.3805,30.4777 8.3805,30.3682 L8.3902,24.8475 C8.3902,24.7387 8.4780,24.6502 8.5882,24.6502 L16.2210,29.0332 C16.3447,29.0940 16.4182,29.2162 16.4182,29.3265 L16.4002,34.8795 Z" style="fill-rule: evenodd; fill: url(#grad4436); "/>
    <defs xmlns="http://www.w3.org/2000/svg" xmlns:xlink="http://www.w3.org/1999/xlink">
      <linearGradient id="grad4437">
        <stop offset="0%" stop-color="#a25240" stop-opacity="1.0000"/>
        <stop offset="100%" stop-color="#c17d63" stop-opacity="1.0000"/>
      </linearGradient>
      <linearGradient xlink:href="#grad4437" id="grad4438" x1="0" y1="0" x2="0" y2="1" gradientTransform="rotate(180 .5 .5)" gradientUnits="objectBoundingBox">
  </linearGradient>
    </defs>
    <path xmlns="http://www.w3.org/2000/svg" d="  M16.0717,34.4190 C16.0717,34.5285 15.9840,34.6170 15.8745,34.6170 L8.8012,30.4387 C8.6917,30.4387 8.6032,30.3502 8.6032,30.2407 L8.5725,25.3470 C8.5725,25.2382 8.6602,25.1497 8.7697,25.1497 L15.8497,29.1997 C16.0582,29.2875 16.0477,29.3992 16.0477,29.5080 L16.0717,34.4190 Z" style="fill-rule: evenodd; fill: url(#grad4438); "/>
    <defs xmlns="http://www.w3.org/2000/svg" xmlns:xlink="http://www.w3.org/1999/xlink">
      <linearGradient id="grad4439">
        <stop offset="0%" stop-color="#9a6045" stop-opacity="1.0000"/>
        <stop offset="100%" stop-color="#c2968b" stop-opacity="1.0000"/>
      </linearGradient>
      <linearGradient xlink:href="#grad4439" id="grad4440" x1="0" y1="0" x2="0" y2="1" gradientTransform="rotate(135 .5 .5)" gradientUnits="objectBoundingBox">
  </linearGradient>
    </defs>
    <path xmlns="http://www.w3.org/2000/svg" d="  M16.4220,29.2920 C16.3905,29.1907 16.3672,29.1450 16.2172,29.0437 L8.7000,24.7170 C8.6827,24.7117 8.5582,24.6382 8.3632,24.7575 L12.8167,22.2427 C12.9472,22.1737 13.2720,22.1625 13.4377,22.2427 L20.8147,26.4900 C20.9302,26.5537 21.0067,26.6152 21.0067,26.7240 L16.4220,29.2920 Z" style="fill-rule: evenodd; fill: url(#grad4440); "/>
    <defs xmlns="http://www.w3.org/2000/svg" xmlns:xlink="http://www.w3.org/1999/xlink">
      <linearGradient id="grad4441">
        <stop offset="0%" stop-color="#c88b6c" stop-opacity="1.0000"/>
        <stop offset="100%" stop-color="#e7ccbe" stop-opacity="1.0000"/>
      </linearGradient>
      <linearGradient xlink:href="#grad4441" id="grad4442" x1="0" y1="0" x2="0" y2="1" gradientTransform="rotate(135 .5 .5)" gradientUnits="objectBoundingBox">
  </linearGradient>
    </defs>
    <path xmlns="http://www.w3.org/2000/svg" d="  M16.4835,29.0512 L8.7435,24.5475 L12.8332,22.2442 C12.9637,22.1752 13.2885,22.1647 13.4542,22.2442 L20.9407,26.5680 L16.4835,29.0512 Z" style="fill-rule: evenodd; fill: url(#grad4442); "/>
    <defs xmlns="http://www.w3.org/2000/svg" xmlns:xlink="http://www.w3.org/1999/xlink">
      <linearGradient id="grad4443">
        <stop offset="0%" stop-color="#9e9e9e" stop-opacity="1.0000"/>
        <stop offset="100%" stop-color="#acaead" stop-opacity="1.0000"/>
      </linearGradient>
      <linearGradient xlink:href="#grad4443" id="grad4444" x1="0" y1="0" x2="0" y2="1" gradientTransform="rotate(90 .5 .5)" gradientUnits="objectBoundingBox">
  </linearGradient>
    </defs>
    <path xmlns="http://www.w3.org/2000/svg" d="  M21.0495,26.8605 L16.5308,29.3932 L16.6388,34.9582 L16.7895,34.8907 L16.7858,29.5057 L21.2693,26.9640 L21.0495,26.8605 Z" style="fill-rule: evenodd; fill: url(#grad4444); "/>
    <defs xmlns="http://www.w3.org/2000/svg" xmlns:xlink="http://www.w3.org/1999/xlink">
      <linearGradient id="grad4445">
        <stop offset="0%" stop-color="#6e3a2f" stop-opacity="1.0000"/>
        <stop offset="100%" stop-color="#5a2e28" stop-opacity="1.0000"/>
      </linearGradient>
      <linearGradient xlink:href="#grad4445" id="grad4446" x1="0" y1="0" x2="0" y2="1" gradientTransform="rotate(90 .5 .5)" gradientUnits="objectBoundingBox">
  </linearGradient>
    </defs>
    <path xmlns="http://www.w3.org/2000/svg" d="  M29.4532,32.0250 L29.4510,36.1522 C29.4510,36.1522 29.4855,36.6892 29.3332,36.9375 C29.1915,37.1670 28.9020,37.3132 28.9020,37.3132 L24.6855,39.8115 C24.7680,39.7590 24.8055,39.7492 24.8055,39.4845 L24.7597,34.0132 L28.7910,31.7850 C28.7910,31.7850 29.1795,31.5540 29.2995,31.6417 C29.4577,31.7572 29.4532,32.0250 29.4532,32.0250 Z" style="fill-rule: evenodd; fill: url(#grad4446); "/>
    <defs xmlns="http://www.w3.org/2000/svg" xmlns:xlink="http://www.w3.org/1999/xlink">
      <linearGradient id="grad4447">
        <stop offset="0%" stop-color="#6c3c38" stop-opacity="1.0000"/>
        <stop offset="100%" stop-color="#cdaba3" stop-opacity="1.0000"/>
      </linearGradient>
      <linearGradient xlink:href="#grad4447" id="grad4448" x1="0" y1="0" x2="0" y2="1" gradientTransform="rotate(180 .5 .5)" gradientUnits="objectBoundingBox">
  </linearGradient>
    </defs>
    <path xmlns="http://www.w3.org/2000/svg" d="  M24.8100,39.6247 C24.8100,39.7342 24.6982,39.8797 24.5475,39.7770 L16.9875,35.3115 C16.8780,35.3115 16.7895,35.2230 16.7895,35.1135 L16.7992,29.5927 C16.7992,29.4832 16.8877,29.3955 16.9980,29.3955 L24.6300,33.7792 C24.7545,33.8392 24.8265,33.9615 24.8265,34.0717 L24.8100,39.6247 Z" style="fill-rule: evenodd; fill: url(#grad4448); "/>
    <defs xmlns="http://www.w3.org/2000/svg" xmlns:xlink="http://www.w3.org/1999/xlink">
      <linearGradient id="grad4449">
        <stop offset="0%" stop-color="#8e4332" stop-opacity="1.0000"/>
        <stop offset="100%" stop-color="#b77769" stop-opacity="1.0000"/>
      </linearGradient>
      <linearGradient xlink:href="#grad4449" id="grad4450" x1="0" y1="0" x2="0" y2="1" gradientTransform="rotate(180 .5 .5)" gradientUnits="objectBoundingBox">
  </linearGradient>
    </defs>
    <path xmlns="http://www.w3.org/2000/svg" d="  M24.6998,39.2632 C24.6998,39.3727 24.6120,39.4620 24.5025,39.4620 L17.2110,35.1840 C17.1015,35.1840 17.0130,35.0955 17.0130,34.9860 L16.9807,30.0922 C16.9807,29.9835 17.0685,29.8950 17.1787,29.8950 L24.4778,34.0455 C24.6863,34.1332 24.6758,34.2442 24.6758,34.3530 L24.6998,39.2632 Z" style="fill-rule: evenodd; fill: url(#grad4450); "/>
    <defs xmlns="http://www.w3.org/2000/svg" xmlns:xlink="http://www.w3.org/1999/xlink">
      <linearGradient id="grad4451">
        <stop offset="0%" stop-color="#9a6045" stop-opacity="1.0000"/>
        <stop offset="100%" stop-color="#c2968b" stop-opacity="1.0000"/>
      </linearGradient>
      <linearGradient xlink:href="#grad4451" id="grad4452" x1="0" y1="0" x2="0" y2="1" gradientTransform="rotate(135 .5 .5)" gradientUnits="objectBoundingBox">
  </linearGradient>
    </defs>
    <path xmlns="http://www.w3.org/2000/svg" d="  M29.1338,31.6612 C28.8802,31.7842 24.8272,34.0267 24.8272,34.0267 C24.7965,33.9270 24.7770,33.8895 24.6247,33.7897 L17.1075,29.4630 C17.0917,29.4570 16.9657,29.3835 16.7722,29.5027 L21.2242,26.9880 C21.3547,26.9182 21.6795,26.9077 21.8460,26.9880 L29.1225,31.2037 C29.5035,31.4625 29.4465,31.8907 29.4510,31.9800 C29.4510,31.9807 29.3872,31.5375 29.1338,31.6612 Z" style="fill-rule: evenodd; fill: url(#grad4452); "/>
    <defs xmlns="http://www.w3.org/2000/svg" xmlns:xlink="http://www.w3.org/1999/xlink">
      <linearGradient id="grad4453">
        <stop offset="0%" stop-color="#b7826b" stop-opacity="1.0000"/>
        <stop offset="100%" stop-color="#dabaab" stop-opacity="1.0000"/>
      </linearGradient>
      <linearGradient xlink:href="#grad4453" id="grad4454" x1="0" y1="0" x2="0" y2="1" gradientTransform="rotate(90 .5 .5)" gradientUnits="objectBoundingBox">
  </linearGradient>
    </defs>
    <path xmlns="http://www.w3.org/2000/svg" d="  M24.8595,33.7762 L17.1525,29.2927 L21.2430,26.9902 C21.3735,26.9205 21.6975,26.9100 21.8640,26.9902 C21.8640,26.9902 29.0737,31.1767 29.1225,31.2037 C29.1690,31.2322 29.2672,31.3312 29.2672,31.3312 L24.8595,33.7762 Z" style="fill-rule: evenodd; fill: url(#grad4454); "/>
    <path xmlns="http://www.w3.org/2000/svg" d="  M16.7895,34.8930 L16.6365,34.9598 L16.5127,29.3617 L16.7692,29.5222 L16.7895,34.8930 Z" style="fill-rule: evenodd; fill: #010101; fill-opacity: 0.4902; "/>
    <defs xmlns="http://www.w3.org/2000/svg" xmlns:xlink="http://www.w3.org/1999/xlink">
      <linearGradient id="grad4455">
        <stop offset="0%" stop-color="#3c1912" stop-opacity="1.0000"/>
        <stop offset="100%" stop-color="#5a2e28" stop-opacity="1.0000"/>
      </linearGradient>
      <linearGradient xlink:href="#grad4455" id="grad4456" x1="0" y1="0" x2="0" y2="1" gradientTransform="rotate(90 .5 .5)" gradientUnits="objectBoundingBox">
  </linearGradient>
    </defs>
    <path xmlns="http://www.w3.org/2000/svg" d="  M4.4063,34.2337 L4.0238,34.4535 C4.1018,34.4040 4.1363,34.3942 4.1363,34.1437 L4.1303,28.9185 L4.3995,28.8405 L4.4063,34.2337 Z" style="fill-rule: evenodd; fill: url(#grad4456); "/>
    <defs xmlns="http://www.w3.org/2000/svg" xmlns:xlink="http://www.w3.org/1999/xlink">
      <linearGradient id="grad4457">
        <stop offset="0%" stop-color="#74473e" stop-opacity="1.0000"/>
        <stop offset="100%" stop-color="#b59084" stop-opacity="1.0000"/>
      </linearGradient>
      <linearGradient xlink:href="#grad4457" id="grad4458" x1="0" y1="0" x2="0" y2="1" gradientTransform="rotate(135 .5 .5)" gradientUnits="objectBoundingBox">
  </linearGradient>
    </defs>
    <path xmlns="http://www.w3.org/2000/svg" d="  M4.1400,34.2765 C4.1400,34.3800 4.0575,34.4647 3.9548,34.4647 L0.2002,32.1750 C0.0975,32.1750 0.0157,32.0918 0.0157,31.9875 L0.0247,26.7548 C0.0247,26.6505 0.1072,26.5680 0.2092,26.5680 L3.9728,28.7355 C4.0883,28.7933 4.1558,28.9095 4.1558,29.0130 L4.1400,34.2765 Z" style="fill-rule: evenodd; fill: url(#grad4458); "/>
    <defs xmlns="http://www.w3.org/2000/svg" xmlns:xlink="http://www.w3.org/1999/xlink">
      <linearGradient id="grad4459">
        <stop offset="0%" stop-color="#b86550" stop-opacity="1.0000"/>
        <stop offset="100%" stop-color="#c59389" stop-opacity="1.0000"/>
      </linearGradient>
      <linearGradient xlink:href="#grad4459" id="grad4460" x1="0" y1="0" x2="0" y2="1" gradientTransform="rotate(180 .5 .5)" gradientUnits="objectBoundingBox">
  </linearGradient>
    </defs>
    <path xmlns="http://www.w3.org/2000/svg" d="  M3.8348,33.8400 C3.8348,33.9443 3.7515,34.0283 3.6503,34.0283 L0.4095,32.0543 C0.3075,32.0543 0.2242,31.9710 0.2242,31.8668 L0.1957,27.2288 C0.1957,27.1245 0.2775,27.0413 0.3795,27.0413 L3.6278,28.8938 C3.8228,28.9770 3.8115,29.0828 3.8115,29.1870 L3.8348,33.8400 Z" style="fill-rule: evenodd; fill: url(#grad4460); "/>
    <defs xmlns="http://www.w3.org/2000/svg" xmlns:xlink="http://www.w3.org/1999/xlink">
      <linearGradient id="grad4461">
        <stop offset="0%" stop-color="#9a6045" stop-opacity="1.0000"/>
        <stop offset="100%" stop-color="#c2968b" stop-opacity="1.0000"/>
      </linearGradient>
      <linearGradient xlink:href="#grad4461" id="grad4462" x1="0" y1="0" x2="0" y2="1" gradientTransform="rotate(135 .5 .5)" gradientUnits="objectBoundingBox">
  </linearGradient>
    </defs>
    <path xmlns="http://www.w3.org/2000/svg" d="  M4.2090,28.6830 C4.4145,28.7925 4.4033,28.8623 4.4033,28.8623 L4.1528,28.9523 C4.1145,28.8615 4.1085,28.8420 3.9690,28.7460 L0.3135,26.6325 C0.2977,26.6273 0.1800,26.5568 0.0000,26.6700 L0.3765,26.4570 C0.3765,26.4563 4.0193,28.5810 4.2090,28.6830 Z" style="fill-rule: evenodd; fill: url(#grad4462); "/>
    <defs xmlns="http://www.w3.org/2000/svg" xmlns:xlink="http://www.w3.org/1999/xlink">
      <linearGradient id="grad4463">
        <stop offset="0%" stop-color="#3c1912" stop-opacity="1.0000"/>
        <stop offset="100%" stop-color="#5a2e28" stop-opacity="1.0000"/>
      </linearGradient>
      <linearGradient xlink:href="#grad4463" id="grad4464" x1="0" y1="0" x2="0" y2="1" gradientTransform="rotate(90 .5 .5)" gradientUnits="objectBoundingBox">
  </linearGradient>
    </defs>
    <path xmlns="http://www.w3.org/2000/svg" d="  M20.4022,43.5225 L20.0250,43.7408 C20.1037,43.6913 20.1397,43.6823 20.1397,43.4318 L20.1345,38.2838 L20.4472,38.1113 L20.4022,43.5225 Z" style="fill-rule: evenodd; fill: url(#grad4464); "/>
    <defs xmlns="http://www.w3.org/2000/svg" xmlns:xlink="http://www.w3.org/1999/xlink">
      <linearGradient id="grad4465">
        <stop offset="0%" stop-color="#74473e" stop-opacity="1.0000"/>
        <stop offset="100%" stop-color="#b59084" stop-opacity="1.0000"/>
      </linearGradient>
      <linearGradient xlink:href="#grad4465" id="grad4466" x1="0" y1="0" x2="0" y2="1" gradientTransform="rotate(135 .5 .5)" gradientUnits="objectBoundingBox">
  </linearGradient>
    </defs>
    <path xmlns="http://www.w3.org/2000/svg" d="  M20.1435,43.5638 C20.1435,43.6680 20.0610,43.7513 19.9552,43.7513 L12.7320,39.4778 C12.6285,39.4778 12.5445,39.3945 12.5445,39.2910 L12.5550,34.0590 C12.5550,33.9555 12.6382,33.8723 12.7417,33.8723 L19.9740,38.0250 C20.1457,38.1090 20.1600,38.2553 20.1600,38.3018 Z" style="fill-rule: evenodd; fill: url(#grad4466); "/>
    <defs xmlns="http://www.w3.org/2000/svg" xmlns:xlink="http://www.w3.org/1999/xlink">
      <linearGradient id="grad4467">
        <stop offset="0%" stop-color="#8d4235" stop-opacity="1.0000"/>
        <stop offset="100%" stop-color="#ae5e46" stop-opacity="1.0000"/>
      </linearGradient>
      <linearGradient xlink:href="#grad4467" id="grad4468" x1="0" y1="0" x2="0" y2="1" gradientTransform="rotate(180 .5 .5)" gradientUnits="objectBoundingBox">
  </linearGradient>
    </defs>
    <path xmlns="http://www.w3.org/2000/svg" d="  M19.8322,43.1280 C19.8322,43.2315 19.7490,43.3148 19.6462,43.3148 L12.9442,39.3570 C12.8400,39.3570 12.7567,39.2738 12.7567,39.1703 L12.7275,34.5330 C12.7275,34.4288 12.8092,34.3455 12.9142,34.3455 L19.6222,38.1833 C19.8202,38.2665 19.8097,38.3723 19.8097,38.4758 L19.8322,43.1280 Z" style="fill-rule: evenodd; fill: url(#grad4468); "/>
    <defs xmlns="http://www.w3.org/2000/svg" xmlns:xlink="http://www.w3.org/1999/xlink">
      <linearGradient id="grad4469">
        <stop offset="0%" stop-color="#9a6045" stop-opacity="1.0000"/>
        <stop offset="100%" stop-color="#c2968b" stop-opacity="1.0000"/>
      </linearGradient>
      <linearGradient xlink:href="#grad4469" id="grad4470" x1="0" y1="0" x2="0" y2="1" gradientTransform="rotate(135 .5 .5)" gradientUnits="objectBoundingBox">
  </linearGradient>
    </defs>
    <path xmlns="http://www.w3.org/2000/svg" d="  M20.2935,37.9343 C20.4705,38.0528 20.4487,38.1105 20.4487,38.1105 L20.1540,38.2770 C20.1405,38.1750 20.1112,38.1315 19.9695,38.0355 L12.8467,33.9360 C12.8310,33.9308 12.7110,33.8603 12.5280,33.9743 L12.9412,33.7425 C12.9420,33.7425 19.9740,37.7183 20.2935,37.9343 Z" style="fill-rule: evenodd; fill: url(#grad4470); "/>
    <defs xmlns="http://www.w3.org/2000/svg" xmlns:xlink="http://www.w3.org/1999/xlink">
      <linearGradient id="grad4471">
        <stop offset="0%" stop-color="#3c1912" stop-opacity="1.0000"/>
        <stop offset="100%" stop-color="#5a2e28" stop-opacity="1.0000"/>
      </linearGradient>
      <linearGradient xlink:href="#grad4471" id="grad4472" x1="0" y1="0" x2="0" y2="1" gradientTransform="rotate(90 .5 .5)" gradientUnits="objectBoundingBox">
  </linearGradient>
    </defs>
    <path xmlns="http://www.w3.org/2000/svg" d="  M25.0583,46.1775 L24.6720,46.3995 C24.7500,46.3500 24.7853,46.3403 24.7853,46.0868 L24.7785,40.8000 L25.0515,40.7205 L25.0583,46.1775 Z" style="fill-rule: evenodd; fill: url(#grad4472); "/>
    <defs xmlns="http://www.w3.org/2000/svg" xmlns:xlink="http://www.w3.org/1999/xlink">
      <linearGradient id="grad4473">
        <stop offset="0%" stop-color="#74473e" stop-opacity="1.0000"/>
        <stop offset="100%" stop-color="#b59084" stop-opacity="1.0000"/>
      </linearGradient>
      <linearGradient xlink:href="#grad4473" id="grad4474" x1="0" y1="0" x2="0" y2="1" gradientTransform="rotate(135 .5 .5)" gradientUnits="objectBoundingBox">
  </linearGradient>
    </defs>
    <path xmlns="http://www.w3.org/2000/svg" d="  M24.7898,46.2210 C24.7898,46.3260 24.7080,46.4108 24.6038,46.4108 L20.8043,44.0948 C20.7008,44.0948 20.6168,44.0108 20.6168,43.9050 L20.6273,38.6100 C20.6273,38.5050 20.7105,38.4210 20.8133,38.4210 L24.6203,40.6148 C24.7380,40.6718 24.8063,40.7903 24.8063,40.8945 L24.7898,46.2210 Z" style="fill-rule: evenodd; fill: url(#grad4474); "/>
    <defs xmlns="http://www.w3.org/2000/svg" xmlns:xlink="http://www.w3.org/1999/xlink">
      <linearGradient id="grad4475">
        <stop offset="0%" stop-color="#712c21" stop-opacity="1.0000"/>
        <stop offset="100%" stop-color="#9d5a49" stop-opacity="1.0000"/>
      </linearGradient>
      <linearGradient xlink:href="#grad4475" id="grad4476" x1="0" y1="0" x2="0" y2="1" gradientTransform="rotate(180 .5 .5)" gradientUnits="objectBoundingBox">
  </linearGradient>
    </defs>
    <path xmlns="http://www.w3.org/2000/svg" d="  M24.7028,45.9135 C24.7028,46.0185 24.6195,46.1025 24.5168,46.1025 L21.0150,43.9725 C20.9115,43.9725 20.8283,43.8878 20.8283,43.7828 L20.7975,39.0900 C20.7975,38.9850 20.8808,38.9003 20.9850,38.9003 L24.4935,40.9088 C24.6915,40.9920 24.6803,41.0993 24.6803,41.2043 L24.7028,45.9135 Z" style="fill-rule: evenodd; fill: url(#grad4476); "/>
    <defs xmlns="http://www.w3.org/2000/svg" xmlns:xlink="http://www.w3.org/1999/xlink">
      <linearGradient id="grad4477">
        <stop offset="0%" stop-color="#9a6045" stop-opacity="1.0000"/>
        <stop offset="100%" stop-color="#c2968b" stop-opacity="1.0000"/>
      </linearGradient>
      <linearGradient xlink:href="#grad4477" id="grad4478" x1="0" y1="0" x2="0" y2="1" gradientTransform="rotate(135 .5 .5)" gradientUnits="objectBoundingBox">
  </linearGradient>
    </defs>
    <path xmlns="http://www.w3.org/2000/svg" d="  M24.8588,40.5608 C25.0673,40.6718 25.0560,40.7423 25.0560,40.7423 L24.8018,40.8338 C24.7643,40.7415 24.7583,40.7220 24.6165,40.6245 L20.9175,38.4855 C20.9018,38.4803 20.7825,38.4090 20.5995,38.5245 L20.9805,38.3085 C20.9805,38.3085 24.6660,40.4580 24.8588,40.5608 Z" style="fill-rule: evenodd; fill: url(#grad4478); "/>
    <defs xmlns="http://www.w3.org/2000/svg" xmlns:xlink="http://www.w3.org/1999/xlink">
      <linearGradient id="grad4479">
        <stop offset="0%" stop-color="#3c1912" stop-opacity="1.0000"/>
        <stop offset="100%" stop-color="#5a2e28" stop-opacity="1.0000"/>
      </linearGradient>
      <linearGradient xlink:href="#grad4479" id="grad4480" x1="0" y1="0" x2="0" y2="1" gradientTransform="rotate(90 .5 .5)" gradientUnits="objectBoundingBox">
  </linearGradient>
    </defs>
    <path xmlns="http://www.w3.org/2000/svg" d="  M16.6343,47.7322 C16.6343,47.7322 16.6500,48.0157 16.5555,48.0787 C16.2323,48.2947 16.1850,48.2925 16.1850,48.2925 C16.2675,48.2407 16.2540,48.2932 16.2540,48.0307 L16.2615,42.5700 L16.6320,42.3697 L16.6343,47.7322 Z" style="fill-rule: evenodd; fill: url(#grad4480); "/>
    <defs xmlns="http://www.w3.org/2000/svg" xmlns:xlink="http://www.w3.org/1999/xlink">
      <linearGradient id="grad4481">
        <stop offset="0%" stop-color="#74473e" stop-opacity="1.0000"/>
        <stop offset="100%" stop-color="#b59084" stop-opacity="1.0000"/>
      </linearGradient>
      <linearGradient xlink:href="#grad4481" id="grad4482" x1="0" y1="0" x2="0" y2="1" gradientTransform="rotate(135 .5 .5)" gradientUnits="objectBoundingBox">
  </linearGradient>
    </defs>
    <path xmlns="http://www.w3.org/2000/svg" d="  M16.3088,48.1072 C16.3088,48.2160 16.2210,48.3045 16.1115,48.3045 L8.5395,43.8232 C8.4360,43.7310 8.3370,43.5990 8.3370,43.4902 L8.3528,38.1435 C8.3528,38.0347 8.4398,37.9470 8.5500,37.9470 L16.1288,42.3007 C16.2533,42.3607 16.3253,42.4830 16.3253,42.5917 L16.3088,48.1072 Z" style="fill-rule: evenodd; fill: url(#grad4482); "/>
    <defs xmlns="http://www.w3.org/2000/svg" xmlns:xlink="http://www.w3.org/1999/xlink">
      <linearGradient id="grad4483">
        <stop offset="0%" stop-color="#84392c" stop-opacity="1.0000"/>
        <stop offset="100%" stop-color="#b56d58" stop-opacity="1.0000"/>
      </linearGradient>
      <linearGradient xlink:href="#grad4483" id="grad4484" x1="0" y1="0" x2="0" y2="1" gradientTransform="rotate(180 .5 .5)" gradientUnits="objectBoundingBox">
  </linearGradient>
    </defs>
    <path xmlns="http://www.w3.org/2000/svg" d="  M15.9825,47.6497 C15.9825,47.7585 15.8873,47.8597 15.7178,47.7900 L8.7615,43.6972 C8.6535,43.6972 8.5778,43.4865 8.5778,43.3777 L8.6078,38.6535 C8.6078,38.5447 8.6955,38.4562 8.8043,38.4562 L15.7628,42.4672 C15.9698,42.5542 15.9870,42.7320 15.9870,42.8400 L15.9825,47.6497 Z" style="fill-rule: evenodd; fill: url(#grad4484); "/>
    <defs xmlns="http://www.w3.org/2000/svg" xmlns:xlink="http://www.w3.org/1999/xlink">
      <linearGradient id="grad4485">
        <stop offset="0%" stop-color="#9a6045" stop-opacity="1.0000"/>
        <stop offset="100%" stop-color="#b48576" stop-opacity="1.0000"/>
      </linearGradient>
      <linearGradient xlink:href="#grad4485" id="grad4486" x1="0" y1="0" x2="0" y2="1" gradientTransform="rotate(135 .5 .5)" gradientUnits="objectBoundingBox">
  </linearGradient>
    </defs>
    <path xmlns="http://www.w3.org/2000/svg" d="  M16.4018,42.1305 C16.6485,42.3015 16.6320,42.3780 16.6320,42.3780 L16.3305,42.5572 C16.2990,42.4575 16.2765,42.4125 16.1265,42.3120 L8.6610,38.0152 C8.6438,38.0100 8.5193,37.9365 8.3273,38.0550 L8.7945,37.8015 C8.7930,37.8007 16.1565,41.9595 16.4018,42.1305 Z" style="fill-rule: evenodd; fill: url(#grad4486); "/>
    <defs xmlns="http://www.w3.org/2000/svg" xmlns:xlink="http://www.w3.org/1999/xlink">
      <linearGradient id="grad4487">
        <stop offset="0%" stop-color="#3c1912" stop-opacity="1.0000"/>
        <stop offset="100%" stop-color="#5a2e28" stop-opacity="1.0000"/>
      </linearGradient>
      <linearGradient xlink:href="#grad4487" id="grad4488" x1="0" y1="0" x2="0" y2="1" gradientTransform="rotate(90 .5 .5)" gradientUnits="objectBoundingBox">
  </linearGradient>
    </defs>
    <path xmlns="http://www.w3.org/2000/svg" d="  M8.3145,42.8378 C8.3145,42.8378 8.3302,43.1213 8.2365,43.1850 C7.9133,43.4003 7.8653,43.3988 7.8653,43.3988 C7.9478,43.3463 7.9343,43.3995 7.9343,43.1370 L7.9433,37.6755 L8.3138,37.4760 L8.3145,42.8378 Z" style="fill-rule: evenodd; fill: url(#grad4488); "/>
    <defs xmlns="http://www.w3.org/2000/svg" xmlns:xlink="http://www.w3.org/1999/xlink">
      <linearGradient id="grad4489">
        <stop offset="0%" stop-color="#74473e" stop-opacity="1.0000"/>
        <stop offset="100%" stop-color="#b59084" stop-opacity="1.0000"/>
      </linearGradient>
      <linearGradient xlink:href="#grad4489" id="grad4490" x1="0" y1="0" x2="0" y2="1" gradientTransform="rotate(135 .5 .5)" gradientUnits="objectBoundingBox">
  </linearGradient>
    </defs>
    <path xmlns="http://www.w3.org/2000/svg" d="  M7.9882,43.2128 C7.9882,43.3215 7.9013,43.4093 7.7917,43.4093 L0.2197,38.9288 C0.1162,38.8365 0.0172,38.7045 0.0172,38.5965 L0.0330,33.2498 C0.0330,33.1403 0.1207,33.0533 0.2295,33.0533 L7.8090,37.4070 C7.9327,37.4670 8.0047,37.5893 8.0047,37.6973 L7.9882,43.2128 Z" style="fill-rule: evenodd; fill: url(#grad4490); "/>
    <defs xmlns="http://www.w3.org/2000/svg" xmlns:xlink="http://www.w3.org/1999/xlink">
      <linearGradient id="grad4491">
        <stop offset="0%" stop-color="#aa5745" stop-opacity="1.0000"/>
        <stop offset="100%" stop-color="#c0806e" stop-opacity="1.0000"/>
      </linearGradient>
      <linearGradient xlink:href="#grad4491" id="grad4492" x1="0" y1="0" x2="0" y2="1" gradientTransform="rotate(180 .5 .5)" gradientUnits="objectBoundingBox">
  </linearGradient>
    </defs>
    <path xmlns="http://www.w3.org/2000/svg" d="  M7.6635,42.7560 C7.6635,42.8648 7.5690,42.9653 7.3987,42.8955 L0.4425,38.8028 C0.3337,38.8028 0.2580,38.5913 0.2580,38.4825 L0.2887,33.7583 C0.2887,33.6495 0.3765,33.5618 0.4852,33.5618 L7.4430,37.5720 C7.6493,37.6590 7.6672,37.8368 7.6672,37.9455 L7.6635,42.7560 Z" style="fill-rule: evenodd; fill: url(#grad4492); "/>
    <defs xmlns="http://www.w3.org/2000/svg" xmlns:xlink="http://www.w3.org/1999/xlink">
      <linearGradient id="grad4493">
        <stop offset="0%" stop-color="#9a6045" stop-opacity="1.0000"/>
        <stop offset="100%" stop-color="#c2968b" stop-opacity="1.0000"/>
      </linearGradient>
      <linearGradient xlink:href="#grad4493" id="grad4494" x1="0" y1="0" x2="0" y2="1" gradientTransform="rotate(135 .5 .5)" gradientUnits="objectBoundingBox">
  </linearGradient>
    </defs>
    <path xmlns="http://www.w3.org/2000/svg" d="  M8.0827,37.2353 C8.3287,37.4063 8.3115,37.4835 8.3115,37.4835 L8.0100,37.6628 C7.9792,37.5623 7.9560,37.5173 7.8067,37.4168 L0.3405,33.1200 C0.3248,33.1148 0.1995,33.0413 0.0068,33.1605 L0.4740,32.9063 C0.4733,32.9063 7.8360,37.0658 8.0827,37.2353 Z" style="fill-rule: evenodd; fill: url(#grad4494); "/>
    <defs xmlns="http://www.w3.org/2000/svg" xmlns:xlink="http://www.w3.org/1999/xlink">
      <linearGradient id="grad4495">
        <stop offset="0%" stop-color="#3c1912" stop-opacity="1.0000"/>
        <stop offset="100%" stop-color="#5a2e28" stop-opacity="1.0000"/>
      </linearGradient>
      <linearGradient xlink:href="#grad4495" id="grad4496" x1="0" y1="0" x2="0" y2="1" gradientTransform="rotate(90 .5 .5)" gradientUnits="objectBoundingBox">
  </linearGradient>
    </defs>
    <path xmlns="http://www.w3.org/2000/svg" d="  M25.0747,52.6042 C25.0747,52.6042 25.0905,52.8877 24.9967,52.9507 C24.6727,53.1675 24.6247,53.1652 24.6247,53.1652 C24.7080,53.1127 24.6937,53.1660 24.6937,52.9035 L24.7027,47.4420 L25.0717,47.2425 L25.0747,52.6042 Z" style="fill-rule: evenodd; fill: url(#grad4496); "/>
    <defs xmlns="http://www.w3.org/2000/svg" xmlns:xlink="http://www.w3.org/1999/xlink">
      <linearGradient id="grad4497">
        <stop offset="0%" stop-color="#74473e" stop-opacity="1.0000"/>
        <stop offset="100%" stop-color="#b59084" stop-opacity="1.0000"/>
      </linearGradient>
      <linearGradient xlink:href="#grad4497" id="grad4498" x1="0" y1="0" x2="0" y2="1" gradientTransform="rotate(135 .5 .5)" gradientUnits="objectBoundingBox">
  </linearGradient>
    </defs>
    <path xmlns="http://www.w3.org/2000/svg" d="  M24.7500,52.9792 C24.7500,53.0880 24.6622,53.1765 24.5527,53.1765 L16.9800,48.6960 C16.8772,48.6030 16.7775,48.4710 16.7775,48.3630 L16.7932,43.0163 C16.7932,42.9075 16.8802,42.8198 16.9897,42.8198 L24.5700,47.1735 C24.6930,47.2335 24.7650,47.3558 24.7650,47.4645 L24.7500,52.9792 Z" style="fill-rule: evenodd; fill: url(#grad4498); "/>
    <defs xmlns="http://www.w3.org/2000/svg" xmlns:xlink="http://www.w3.org/1999/xlink">
      <linearGradient id="grad4499">
        <stop offset="0%" stop-color="#582016" stop-opacity="1.0000"/>
        <stop offset="100%" stop-color="#9c594d" stop-opacity="1.0000"/>
      </linearGradient>
      <linearGradient xlink:href="#grad4499" id="grad4500" x1="0" y1="0" x2="0" y2="1" gradientTransform="rotate(180 .5 .5)" gradientUnits="objectBoundingBox">
  </linearGradient>
    </defs>
    <path xmlns="http://www.w3.org/2000/svg" d="  M24.6120,52.5217 C24.6120,52.6297 24.5152,52.7310 24.3420,52.6612 L17.2072,48.5685 C17.0962,48.5685 17.0182,48.3585 17.0182,48.2497 L17.0490,43.5248 C17.0490,43.4160 17.1390,43.3282 17.2507,43.3282 L24.3870,47.3385 C24.6000,47.4255 24.6180,47.6040 24.6180,47.7120 L24.6120,52.5217 Z" style="fill-rule: evenodd; fill: url(#grad4500); "/>
    <path xmlns="http://www.w3.org/2000/svg" d="  M24.8430,47.0018 C25.0897,47.1728 25.0725,47.2500 25.0725,47.2500 L24.7710,47.4293 C24.7402,47.3295 24.7170,47.2838 24.5677,47.1833 L17.1015,42.8865 C17.0850,42.8805 16.9605,42.8070 16.7685,42.9263 L17.2350,42.6728 C17.2335,42.6728 24.5977,46.8315 24.8430,47.0018 Z" style="fill-rule: evenodd; fill: #8b6055; "/>
    <defs xmlns="http://www.w3.org/2000/svg" xmlns:xlink="http://www.w3.org/1999/xlink">
      <linearGradient id="grad4501">
        <stop offset="0%" stop-color="#6a372b" stop-opacity="1.0000"/>
        <stop offset="100%" stop-color="#552b23" stop-opacity="1.0000"/>
      </linearGradient>
      <linearGradient xlink:href="#grad4501" id="grad4502" x1="0" y1="0" x2="0" y2="1" gradientTransform="rotate(90 .5 .5)" gradientUnits="objectBoundingBox">
  </linearGradient>
    </defs>
    <path xmlns="http://www.w3.org/2000/svg" d="  M29.4255,38.7885 L29.4240,42.7763 C29.4240,42.7763 29.4577,43.2953 29.3100,43.5353 C29.1720,43.7573 28.9230,43.8518 28.9230,43.8518 L24.8752,46.2750 C24.9555,46.2240 24.9915,46.2143 24.9915,45.9585 L25.0387,40.7633 L28.8667,38.5283 C28.8667,38.5283 29.1187,38.3265 29.3092,38.4143 C29.4712,38.4878 29.4255,38.7885 29.4255,38.7885 Z" style="fill-rule: evenodd; fill: url(#grad4502); "/>
    <path xmlns="http://www.w3.org/2000/svg" d="  M29.0062,44.9182 L25.0402,47.2612 C24.9937,47.1097 25.0155,47.1075 24.8745,47.0137 L28.7250,44.7022 C28.8937,44.6340 29.3235,44.7585 29.3040,45.0765 L29.0062,44.9182 Z" style="fill-rule: evenodd; fill: #6e3f35; "/>
    <defs xmlns="http://www.w3.org/2000/svg" xmlns:xlink="http://www.w3.org/1999/xlink">
      <linearGradient id="grad4503">
        <stop offset="0%" stop-color="#673023" stop-opacity="1.0000"/>
        <stop offset="100%" stop-color="#2e1411" stop-opacity="1.0000"/>
      </linearGradient>
      <linearGradient xlink:href="#grad4503" id="grad4504" x1="0" y1="0" x2="0" y2="1" gradientTransform="rotate(45 .5 .5)" gradientUnits="objectBoundingBox">
  </linearGradient>
    </defs>
    <path xmlns="http://www.w3.org/2000/svg" d="  M29.3197,45.2940 L29.3175,49.2825 C29.3175,49.2825 29.3520,49.8015 29.2005,50.0415 C29.0610,50.2635 28.7760,50.4045 28.7760,50.4045 L24.9495,53.0175 C25.0312,52.9665 25.0297,52.8083 25.0297,52.5533 L25.0080,47.2942 L28.6680,45.0622 C28.6680,45.0622 29.0062,44.8320 29.1997,44.9197 C29.3655,44.9947 29.3197,45.2940 29.3197,45.2940 Z" style="fill-rule: evenodd; fill: url(#grad4504); "/>
    <defs xmlns="http://www.w3.org/2000/svg" xmlns:xlink="http://www.w3.org/1999/xlink">
      <linearGradient id="grad4505">
        <stop offset="0%" stop-color="#4d1f16" stop-opacity="1.0000"/>
        <stop offset="100%" stop-color="#2a130f" stop-opacity="1.0000"/>
      </linearGradient>
      <linearGradient xlink:href="#grad4505" id="grad4506" x1="0" y1="0" x2="0" y2="1" gradientTransform="rotate(45 .5 .5)" gradientUnits="objectBoundingBox">
  </linearGradient>
    </defs>
    <path xmlns="http://www.w3.org/2000/svg" d="  M29.2612,51.7770 L29.2582,55.7648 C29.2582,55.7648 29.2920,56.2830 29.1435,56.5238 C29.0032,56.7458 28.7227,56.8868 28.7227,56.8868 L24.7658,59.5028 C24.8460,59.4518 24.8723,59.3250 24.8723,59.0693 L24.8588,53.9505 L28.5742,51.5273 C28.5742,51.5273 28.9507,51.3158 29.1420,51.4028 C29.3070,51.4770 29.2612,51.7770 29.2612,51.7770 Z" style="fill-rule: evenodd; fill: url(#grad4506); "/>
    <defs xmlns="http://www.w3.org/2000/svg" xmlns:xlink="http://www.w3.org/1999/xlink">
      <linearGradient id="grad4507">
        <stop offset="0%" stop-color="#9e9e9e" stop-opacity="1.0000"/>
        <stop offset="100%" stop-color="#acaead" stop-opacity="1.0000"/>
      </linearGradient>
      <linearGradient xlink:href="#grad4507" id="grad4508" x1="0" y1="0" x2="0" y2="1" gradientTransform="rotate(90 .5 .5)" gradientUnits="objectBoundingBox">
  </linearGradient>
    </defs>
    <path xmlns="http://www.w3.org/2000/svg" d="  M12.6443,22.0965 L8.1240,24.6292 L8.2320,30.1942 L8.3843,30.1267 L8.3790,24.7410 L12.8618,22.1992 L12.6443,22.0965 Z" style="fill-rule: evenodd; fill: url(#grad4508); "/>
    <path xmlns="http://www.w3.org/2000/svg" d="  M8.3835,30.1290 L8.2298,30.1965 L8.1060,24.5985 L8.3625,24.7583 L8.3835,30.1290 Z" style="fill-rule: evenodd; fill: #010101; fill-opacity: 0.4902; "/>
    <!--converted by libvisio2svg-->
  </g>
</svg>
