<svg xmlns="http://www.w3.org/2000/svg" xmlns:xlink="http://www.w3.org/1999/xlink" version="1.1" width="0.6642000000" height="0.8401000000" viewBox="0 0 47.8208 60.4875">
  <title><![CDATA[RoundTable]]></title>
  <g transform=" scale(1.000000) ">
    <path xmlns="http://www.w3.org/2000/svg" d="  M37.7970,35.5680 C37.4693,32.9287 36.8625,28.9560 35.9887,25.8390 C35.1480,22.8405 33.4650,19.2263 31.0830,16.1775 C32.2253,15.4327 32.9258,14.4585 32.9258,13.3882 C32.9258,13.2375 32.9100,13.0897 32.8838,12.9428 C33.0030,12.6375 33.0720,12.3210 33.0720,11.9955 C33.0720,11.6062 32.9738,11.2320 32.8065,10.8743 C32.4727,9.7875 31.4168,8.8463 29.9317,8.2155 L30.6570,7.3553 C31.8435,6.6353 32.5755,5.6655 32.5755,4.5960 C32.5755,4.4993 32.5613,4.4047 32.5508,4.3095 C32.5620,4.2150 32.5755,4.1197 32.5755,4.0230 C32.5755,1.8007 29.4375,0.0000 25.5667,0.0000 C21.6953,0.0000 18.5580,1.8007 18.5580,4.0230 C18.5580,4.1197 18.5723,4.2143 18.5835,4.3095 C18.5715,4.4047 18.5580,4.4993 18.5580,4.5960 C18.5580,5.6625 19.2870,6.6300 20.4675,7.3500 C20.6918,7.6117 20.9407,7.9050 21.2047,8.2132 C19.7197,8.8425 18.6630,9.7830 18.3277,10.8690 C18.1582,11.2283 18.0607,11.6040 18.0607,11.9947 C18.0607,12.3210 18.1297,12.6375 18.2497,12.9435 C18.2227,13.0890 18.2078,13.2375 18.2078,13.3875 C18.2078,15.7207 21.5017,17.6115 25.5667,17.6115 C26.6947,17.6115 27.7583,17.4615 28.7130,17.2020 C31.1025,20.0617 32.9100,23.3250 33.8033,26.5043 C34.5218,29.0632 35.0677,32.1960 35.4217,34.6095 C32.6348,33.6375 29.4465,33.0082 26.0325,32.8207 C25.8915,32.8133 25.7475,32.8088 25.6057,32.8027 C25.3987,32.7930 25.1910,32.7832 24.9818,32.7772 C24.6375,32.7668 24.2932,32.7622 23.9490,32.7622 C23.9280,32.7615 23.9062,32.7607 23.8860,32.7607 C23.5605,32.7607 23.2387,32.7668 22.9177,32.7758 C22.9005,32.7758 22.8810,32.7758 22.8637,32.7758 C11.0513,33.0825 1.6365,38.6752 1.6365,45.5325 L1.6365,47.7165 C1.6365,54.7695 11.5980,60.4875 23.8860,60.4875 C36.1740,60.4875 46.1355,54.7695 46.1355,47.7165 L46.1355,45.5325 C46.1355,41.5020 42.8782,37.9087 37.7970,35.5680 Z" style="stroke-width: 1.5000; stroke: #8d98b5; stroke-dasharray: none; stroke-linecap: butt; stroke-linejoin: miter; fill: none; "/>
    <defs xmlns="http://www.w3.org/2000/svg">
      <radialGradient id="grad4509" cx="50.0000%" cy="50.0000%" r="100.0000%">
        <stop offset="0%" stop-color="#080808" stop-opacity="1.0000"/>
        <stop offset="100%" stop-color="#c4c5c6" stop-opacity="1.0000"/>
      </radialGradient>
    </defs>
    <path xmlns="http://www.w3.org/2000/svg" d="  M46.1355,45.5325 C46.1355,38.4787 36.1740,32.7615 23.8860,32.7615 C11.5980,32.7615 1.6365,38.4787 1.6365,45.5325 C1.6365,45.9008 1.6365,47.3482 1.6365,47.7165 C1.6365,54.7695 11.5980,60.4875 23.8860,60.4875 C36.1740,60.4875 46.1355,54.7695 46.1355,47.7165 C46.1355,47.3482 46.1355,45.9008 46.1355,45.5325 Z" style="fill-rule: evenodd; fill: url(#grad4509); "/>
    <defs xmlns="http://www.w3.org/2000/svg">
      <radialGradient id="grad4510" cx="50.0000%" cy="50.0000%" r="100.0000%">
        <stop offset="0%" stop-color="#f3f9f7" stop-opacity="1.0000"/>
        <stop offset="100%" stop-color="#7f8787" stop-opacity="1.0000"/>
      </radialGradient>
    </defs>
    <path xmlns="http://www.w3.org/2000/svg" d="  M39.3135,54.2310 C30.8070,59.1427 17.0145,59.1427 8.5080,54.2310 C0.0000,49.3193 0.0000,41.3565 8.5065,36.4448 C17.0145,31.5330 30.8062,31.5330 39.3135,36.4448 C47.8208,41.3565 47.8208,49.3193 39.3135,54.2310 Z" style="fill-rule: evenodd; fill: url(#grad4510); "/>
    <defs xmlns="http://www.w3.org/2000/svg" xmlns:xlink="http://www.w3.org/1999/xlink">
      <linearGradient id="grad4511">
        <stop offset="0%" stop-color="#85919c" stop-opacity="0.9882"/>
        <stop offset="100%" stop-color="#ffffff" stop-opacity="0.9882"/>
      </linearGradient>
      <linearGradient xlink:href="#grad4511" id="grad4512" x1="0" y1="0" x2="0" y2="1" gradientTransform="rotate(315 .5 .5)" gradientUnits="objectBoundingBox">
  </linearGradient>
    </defs>
    <path xmlns="http://www.w3.org/2000/svg" d="  M8.5080,54.2310 C12.9750,56.8095 18.8993,58.0320 24.7515,57.9030 C27.9390,53.7060 27.2483,49.1467 22.2802,46.2795 C17.3130,43.4115 9.4170,43.0125 2.1465,44.8523 C1.9222,48.2310 4.0402,51.6517 8.5080,54.2310 Z" style="fill-rule: evenodd; fill: url(#grad4512); "/>
    <defs xmlns="http://www.w3.org/2000/svg" xmlns:xlink="http://www.w3.org/1999/xlink">
      <linearGradient id="grad4513">
        <stop offset="0%" stop-color="#7f8787" stop-opacity="1.0000"/>
        <stop offset="100%" stop-color="#f3f9f7" stop-opacity="1.0000"/>
      </linearGradient>
      <linearGradient xlink:href="#grad4513" id="grad4514" x1="0" y1="0" x2="0" y2="1" gradientTransform="rotate(315 .5 .5)" gradientUnits="objectBoundingBox">
  </linearGradient>
    </defs>
    <path xmlns="http://www.w3.org/2000/svg" d="  M19.6170,54.6015 C18.3225,54.4020 16.6920,55.4895 15.9330,57.0413 C17.4765,57.3923 19.0748,57.6375 20.6963,57.7755 C21.3803,56.2148 20.9093,54.8025 19.6170,54.6015 Z" style="fill-rule: evenodd; fill: url(#grad4514); "/>
    <path xmlns="http://www.w3.org/2000/svg" d="  M17.3130,56.8035 L17.9520,55.4265 L20.3370,55.7955 L19.6980,57.1725 L17.3130,56.8035 Z" style="fill-rule: evenodd; fill: #ffffff; "/>
    <path xmlns="http://www.w3.org/2000/svg" d="  M19.4505,56.7083 L17.9288,56.4743 L18.1995,55.8893 L19.7212,56.1255 L19.4505,56.7083 Z" style="fill-rule: evenodd; fill: #646c6b; "/>
    <defs xmlns="http://www.w3.org/2000/svg" xmlns:xlink="http://www.w3.org/1999/xlink">
      <linearGradient id="grad4515">
        <stop offset="0%" stop-color="#7f8787" stop-opacity="1.0000"/>
        <stop offset="100%" stop-color="#f3f9f7" stop-opacity="1.0000"/>
      </linearGradient>
      <linearGradient xlink:href="#grad4515" id="grad4516" x1="0" y1="0" x2="0" y2="1" gradientTransform="rotate(315 .5 .5)" gradientUnits="objectBoundingBox">
  </linearGradient>
    </defs>
    <path xmlns="http://www.w3.org/2000/svg" d="  M28.2142,36.0847 C29.5110,36.2857 31.1437,35.1937 31.9027,33.6382 C30.3585,33.2865 28.7602,33.0405 27.1387,32.9003 C26.4487,34.4677 26.9197,35.8837 28.2142,36.0847 Z" style="fill-rule: evenodd; fill: url(#grad4516); "/>
    <path xmlns="http://www.w3.org/2000/svg" d="  M30.4838,33.9472 L29.8440,35.3242 L27.4597,34.9552 L28.0987,33.5782 L30.4838,33.9472 Z" style="fill-rule: evenodd; fill: #ffffff; "/>
    <path xmlns="http://www.w3.org/2000/svg" d="  M29.5958,34.8615 L28.0755,34.6267 L28.3462,34.0425 L29.8665,34.2772 L29.5958,34.8615 Z" style="fill-rule: evenodd; fill: #646c6b; "/>
    <defs xmlns="http://www.w3.org/2000/svg">
      <linearGradient id="grad4517">
        <stop offset="0%" stop-color="#7f8787" stop-opacity="1.0000"/>
        <stop offset="100%" stop-color="#f3f9f7" stop-opacity="1.0000"/>
      </linearGradient>
    </defs>
    <path xmlns="http://www.w3.org/2000/svg" d="  M44.1885,40.7430 C41.4990,41.1825 39.6135,42.1245 39.9607,42.8715 C40.3072,43.6185 42.7515,43.8893 45.4582,43.4940 C45.2190,42.5580 44.7945,41.6348 44.1885,40.7430 Z" style="fill-rule: evenodd; fill: url(#grad4517); "/>
    <path xmlns="http://www.w3.org/2000/svg" d="  M44.3925,42.9113 L42.0075,43.2803 L41.3685,41.9033 L43.7535,41.5343 L44.3925,42.9113 Z" style="fill-rule: evenodd; fill: #ffffff; "/>
    <path xmlns="http://www.w3.org/2000/svg" d="  M42.2557,42.8175 L41.9842,42.2325 L43.5060,41.9970 L43.7775,42.5813 L42.2557,42.8175 Z" style="fill-rule: evenodd; fill: #646c6b; "/>
    <defs xmlns="http://www.w3.org/2000/svg" xmlns:xlink="http://www.w3.org/1999/xlink">
      <linearGradient id="grad4518">
        <stop offset="0%" stop-color="#7f8787" stop-opacity="1.0000"/>
        <stop offset="100%" stop-color="#f3f9f7" stop-opacity="1.0000"/>
      </linearGradient>
      <linearGradient xlink:href="#grad4518" id="grad4519" x1="0" y1="0" x2="0" y2="1" gradientTransform="rotate(-0 .5 .5)" gradientUnits="objectBoundingBox">
  </linearGradient>
    </defs>
    <path xmlns="http://www.w3.org/2000/svg" d="  M7.8960,47.8050 C7.5472,47.0550 5.0835,46.7842 2.3633,47.1863 C2.6040,48.1230 3.0300,49.0455 3.6360,49.9380 C6.3412,49.5015 8.2432,48.5550 7.8960,47.8050 Z" style="fill-rule: evenodd; fill: url(#grad4519); "/>
    <path xmlns="http://www.w3.org/2000/svg" d="  M3.5595,47.7578 L5.9452,47.3888 L6.5850,48.7658 L4.1992,49.1348 L3.5595,47.7578 Z" style="fill-rule: evenodd; fill: #ffffff; "/>
    <path xmlns="http://www.w3.org/2000/svg" d="  M4.4475,48.6720 L4.1767,48.0878 L5.6985,47.8515 L5.9677,48.4358 L4.4475,48.6720 Z" style="fill-rule: evenodd; fill: #646c6b; "/>
    <defs xmlns="http://www.w3.org/2000/svg" xmlns:xlink="http://www.w3.org/1999/xlink">
      <linearGradient id="grad4520">
        <stop offset="0%" stop-color="#7f8787" stop-opacity="1.0000"/>
        <stop offset="100%" stop-color="#f3f9f7" stop-opacity="1.0000"/>
      </linearGradient>
      <linearGradient xlink:href="#grad4520" id="grad4521" x1="0" y1="0" x2="0" y2="1" gradientTransform="rotate(315 .5 .5)" gradientUnits="objectBoundingBox">
  </linearGradient>
    </defs>
    <path xmlns="http://www.w3.org/2000/svg" d="  M40.9560,53.1660 C38.9535,52.0380 36.5940,51.5655 35.6460,52.1130 C34.6965,52.6605 35.5162,54.0232 37.4700,55.1797 C38.1075,54.8857 38.7247,54.5715 39.3142,54.2310 C39.9037,53.8913 40.4490,53.5342 40.9560,53.1660 Z" style="fill-rule: evenodd; fill: url(#grad4521); "/>
    <path xmlns="http://www.w3.org/2000/svg" d="  M37.6185,54.2602 L35.8718,53.2530 L37.6185,52.2442 L39.3645,53.2530 L37.6185,54.2602 Z" style="fill-rule: evenodd; fill: #ffffff; "/>
    <path xmlns="http://www.w3.org/2000/svg" d="  M37.6185,53.7757 L36.7102,53.2522 L37.6185,52.7280 L38.5237,53.2522 L37.6185,53.7757 Z" style="fill-rule: evenodd; fill: #646c6b; "/>
    <defs xmlns="http://www.w3.org/2000/svg" xmlns:xlink="http://www.w3.org/1999/xlink">
      <linearGradient id="grad4522">
        <stop offset="0%" stop-color="#7f8787" stop-opacity="1.0000"/>
        <stop offset="100%" stop-color="#f3f9f7" stop-opacity="1.0000"/>
      </linearGradient>
      <linearGradient xlink:href="#grad4522" id="grad4523" x1="0" y1="0" x2="0" y2="1" gradientTransform="rotate(-0 .5 .5)" gradientUnits="objectBoundingBox">
  </linearGradient>
    </defs>
    <path xmlns="http://www.w3.org/2000/svg" d="  M6.8647,37.5098 C8.8672,38.6348 11.2230,39.1073 12.1717,38.5598 C13.1182,38.0130 12.3015,36.6525 10.3515,35.4960 C9.7140,35.7900 9.0967,36.1035 8.5065,36.4448 C7.9170,36.7853 7.3725,37.1423 6.8647,37.5098 Z" style="fill-rule: evenodd; fill: url(#grad4523); "/>
    <path xmlns="http://www.w3.org/2000/svg" d="  M8.4525,37.4213 L10.1985,38.4293 L11.9437,37.4213 L10.1977,36.4125 L8.4525,37.4213 Z" style="fill-rule: evenodd; fill: #ffffff; "/>
    <path xmlns="http://www.w3.org/2000/svg" d="  M10.1985,37.9433 L9.2918,37.4205 L10.1985,36.8978 L11.1037,37.4205 L10.1985,37.9433 Z" style="fill-rule: evenodd; fill: #646c6b; "/>
    <path xmlns="http://www.w3.org/2000/svg" d="  M22.2697,54.4372 C22.2795,54.2385 22.0432,53.9617 21.6262,53.7210 C21.0480,53.3872 20.3445,53.2515 20.0550,53.4187 C19.9792,53.4630 19.9410,53.5230 19.9342,53.5927 C19.9282,53.6715 19.9447,53.9535 19.9372,54.0135 C19.9140,54.2130 20.1510,54.4980 20.5792,54.7462 C21.1575,55.0800 21.8610,55.2157 22.1505,55.0485 C22.2262,55.0042 22.2645,54.9442 22.2705,54.8737 C22.2765,54.7935 22.2660,54.5040 22.2697,54.4372 Z" style="fill-rule: evenodd; fill: #333333; "/>
    <path xmlns="http://www.w3.org/2000/svg" d="  M24.3562,53.2290 C24.3667,53.0302 24.1305,52.7535 23.7135,52.5127 C23.1352,52.1790 22.4310,52.0440 22.1415,52.2105 C22.0665,52.2547 22.0275,52.3147 22.0215,52.3852 C22.0147,52.4640 22.0305,52.7452 22.0237,52.8060 C22.0012,53.0055 22.2382,53.2905 22.6657,53.5387 C23.2432,53.8717 23.9475,54.0075 24.2370,53.8402 C24.3127,53.7960 24.3517,53.7360 24.3577,53.6655 C24.3637,53.5868 24.3532,53.2950 24.3562,53.2290 Z" style="fill-rule: evenodd; fill: #333333; "/>
    <path xmlns="http://www.w3.org/2000/svg" d="  M12.2220,46.2405 C12.2317,46.0410 11.9955,45.7643 11.5785,45.5243 C11.0003,45.1905 10.2968,45.0540 10.0073,45.2213 C9.9315,45.2655 9.8933,45.3255 9.8865,45.3967 C9.8798,45.4748 9.8970,45.7568 9.8895,45.8168 C9.8663,46.0163 10.1033,46.3013 10.5308,46.5488 C11.1090,46.8825 11.8132,47.0190 12.1028,46.8518 C12.1793,46.8075 12.2167,46.7475 12.2228,46.6763 C12.2295,46.5975 12.2183,46.3065 12.2220,46.2405 Z" style="fill-rule: evenodd; fill: #333333; "/>
    <path xmlns="http://www.w3.org/2000/svg" d="  M10.1265,47.4398 C10.1355,47.2410 9.8993,46.9642 9.4830,46.7228 C8.9048,46.3897 8.2005,46.2540 7.9117,46.4213 C7.8353,46.4655 7.7978,46.5255 7.7910,46.5953 C7.7842,46.6740 7.8007,46.9560 7.7932,47.0160 C7.7708,47.2155 8.0077,47.5005 8.4360,47.7488 C9.0135,48.0825 9.7178,48.2182 10.0065,48.0510 C10.0830,48.0068 10.1213,47.9460 10.1273,47.8763 C10.1340,47.7960 10.1235,47.5058 10.1265,47.4398 Z" style="fill-rule: evenodd; fill: #333333; "/>
    <defs xmlns="http://www.w3.org/2000/svg" xmlns:xlink="http://www.w3.org/1999/xlink">
      <linearGradient id="grad4524">
        <stop offset="0%" stop-color="#bdd1dd" stop-opacity="1.0000"/>
        <stop offset="100%" stop-color="#f3f9f7" stop-opacity="1.0000"/>
      </linearGradient>
      <linearGradient xlink:href="#grad4524" id="grad4525" x1="0" y1="0" x2="0" y2="1" gradientTransform="rotate(90 .5 .5)" gradientUnits="objectBoundingBox">
  </linearGradient>
    </defs>
    <path xmlns="http://www.w3.org/2000/svg" d="  M12.1065,46.4077 C11.8170,46.5750 11.1143,46.4392 10.5345,46.1055 C9.9562,45.7710 9.7222,45.3652 10.0110,45.1980 C10.3013,45.0307 11.0040,45.1658 11.5830,45.5003 C12.1612,45.8340 12.3952,46.2405 12.1065,46.4077 Z" style="fill-rule: evenodd; fill: url(#grad4525); "/>
    <defs xmlns="http://www.w3.org/2000/svg" xmlns:xlink="http://www.w3.org/1999/xlink">
      <linearGradient id="grad4526">
        <stop offset="0%" stop-color="#bdd1dd" stop-opacity="1.0000"/>
        <stop offset="100%" stop-color="#f3f9f7" stop-opacity="1.0000"/>
      </linearGradient>
      <linearGradient xlink:href="#grad4526" id="grad4527" x1="0" y1="0" x2="0" y2="1" gradientTransform="rotate(90 .5 .5)" gradientUnits="objectBoundingBox">
  </linearGradient>
    </defs>
    <path xmlns="http://www.w3.org/2000/svg" d="  M24.2445,53.4150 C23.9557,53.5822 23.2515,53.4465 22.6725,53.1127 C22.0950,52.7790 21.8603,52.3725 22.1498,52.2052 C22.4385,52.0380 23.1427,52.1745 23.7210,52.5082 C24.3000,52.8428 24.5332,53.2485 24.2445,53.4150 Z" style="fill-rule: evenodd; fill: url(#grad4527); "/>
    <path xmlns="http://www.w3.org/2000/svg" d="  M10.0110,47.6168 C9.7223,47.7840 9.0188,47.6482 8.4405,47.3145 C7.8615,46.9808 7.6268,46.5750 7.9163,46.4078 C8.2065,46.2405 8.9085,46.3755 9.4883,46.7092 C10.0665,47.0430 10.3012,47.4495 10.0110,47.6168 Z" style="fill-rule: evenodd; fill: #ffffff; "/>
    <defs xmlns="http://www.w3.org/2000/svg" xmlns:xlink="http://www.w3.org/1999/xlink">
      <linearGradient id="grad4528">
        <stop offset="0%" stop-color="#bdd1dd" stop-opacity="1.0000"/>
        <stop offset="100%" stop-color="#f3f9f7" stop-opacity="1.0000"/>
      </linearGradient>
      <linearGradient xlink:href="#grad4528" id="grad4529" x1="0" y1="0" x2="0" y2="1" gradientTransform="rotate(90 .5 .5)" gradientUnits="objectBoundingBox">
  </linearGradient>
    </defs>
    <path xmlns="http://www.w3.org/2000/svg" d="  M10.0110,47.6168 C9.7223,47.7840 9.0188,47.6482 8.4405,47.3145 C7.8615,46.9808 7.6268,46.5750 7.9163,46.4078 C8.2065,46.2405 8.9085,46.3755 9.4883,46.7092 C10.0665,47.0430 10.3012,47.4495 10.0110,47.6168 Z" style="fill-rule: evenodd; fill: url(#grad4529); "/>
    <defs xmlns="http://www.w3.org/2000/svg" xmlns:xlink="http://www.w3.org/1999/xlink">
      <linearGradient id="grad4530">
        <stop offset="0%" stop-color="#bdd1dd" stop-opacity="1.0000"/>
        <stop offset="100%" stop-color="#f3f9f7" stop-opacity="1.0000"/>
      </linearGradient>
      <linearGradient xlink:href="#grad4530" id="grad4531" x1="0" y1="0" x2="0" y2="1" gradientTransform="rotate(90 .5 .5)" gradientUnits="objectBoundingBox">
  </linearGradient>
    </defs>
    <path xmlns="http://www.w3.org/2000/svg" d="  M22.1497,54.6255 C21.8602,54.7927 21.1567,54.6562 20.5785,54.3225 C19.9995,53.9895 19.7647,53.5830 20.0542,53.4157 C20.3437,53.2485 21.0465,53.3842 21.6255,53.7180 C22.2045,54.0517 22.4392,54.4582 22.1497,54.6255 Z" style="fill-rule: evenodd; fill: url(#grad4531); "/>
    <path xmlns="http://www.w3.org/2000/svg" d="  M23.5627,49.9965 C22.5937,49.2502 21.3720,48.4350 19.9582,47.6197 C18.5430,46.8030 17.1285,46.0943 15.8332,45.5347 C15.7732,45.5085 15.7132,45.4838 15.6548,45.4575 L5.6467,51.2355 C5.6887,51.2685 5.7315,51.3015 5.7757,51.3353 C6.7462,52.0838 7.9725,52.9020 9.3907,53.7210 C10.8090,54.5400 12.2257,55.2480 13.5217,55.8075 C13.5802,55.8330 13.6387,55.8585 13.6957,55.8840 L23.7037,50.1068 C23.6572,50.0693 23.6100,50.0332 23.5627,49.9965 Z" style="fill-rule: evenodd; fill: #bdd1dd; "/>
    <defs xmlns="http://www.w3.org/2000/svg" xmlns:xlink="http://www.w3.org/1999/xlink">
      <linearGradient id="grad4532">
        <stop offset="0%" stop-color="#85919c" stop-opacity="0.9882"/>
        <stop offset="100%" stop-color="#ffffff" stop-opacity="0.9882"/>
      </linearGradient>
      <linearGradient xlink:href="#grad4532" id="grad4533" x1="0" y1="0" x2="0" y2="1" gradientTransform="rotate(315 .5 .5)" gradientUnits="objectBoundingBox">
  </linearGradient>
    </defs>
    <path xmlns="http://www.w3.org/2000/svg" d="  M15.6690,49.8922 C15.6690,49.8922 15.6817,45.4687 15.6548,45.4575 L5.6468,51.2355 C5.6670,51.2512 13.5960,51.2745 13.5960,51.2745 C13.5960,51.2745 13.6672,55.8705 13.6965,55.8840 L23.7045,50.1068 C23.6782,50.0857 15.6690,49.8922 15.6690,49.8922 Z" style="fill-rule: evenodd; fill: url(#grad4533); "/>
    <defs xmlns="http://www.w3.org/2000/svg" xmlns:xlink="http://www.w3.org/1999/xlink">
      <linearGradient id="grad4534">
        <stop offset="0%" stop-color="#66ccff" stop-opacity="1.0000"/>
        <stop offset="100%" stop-color="#1e729f" stop-opacity="1.0000"/>
      </linearGradient>
      <linearGradient xlink:href="#grad4534" id="grad4535" x1="0" y1="0" x2="0" y2="1" gradientTransform="rotate(-0 .5 .5)" gradientUnits="objectBoundingBox">
  </linearGradient>
    </defs>
    <path xmlns="http://www.w3.org/2000/svg" d="  M13.9598,54.5108 C13.7670,54.6218 13.4535,54.6218 13.2600,54.5108 L8.0235,51.4868 C7.8300,51.3758 7.8315,51.1943 8.0235,51.0832 L15.3555,46.8495 C15.5483,46.7385 15.8610,46.7385 16.0545,46.8495 L21.2918,49.8735 C21.4853,49.9845 21.4853,50.1660 21.2918,50.2770 L13.9598,54.5108 Z" style="fill-rule: evenodd; fill: url(#grad4535); "/>
    <path xmlns="http://www.w3.org/2000/svg" d="  M15.6007,51.0428 C15.4170,51.1493 15.1290,51.1538 14.9572,51.0548 L14.0100,50.5080 C13.8375,50.4083 13.8457,50.2425 14.0287,50.1360 L14.7622,49.7130 C14.9452,49.6073 15.2332,49.6028 15.4057,49.7018 L16.3537,50.2485 C16.5255,50.3483 16.5165,50.5140 16.3342,50.6205 L15.6007,51.0428 Z" style="fill-rule: evenodd; fill: #66ccff; "/>
    <path xmlns="http://www.w3.org/2000/svg" d="  M17.3460,52.0515 C17.1630,52.1572 16.8750,52.1617 16.7025,52.0627 L15.7560,51.5160 C15.5835,51.4162 15.5917,51.2505 15.7747,51.1447 L16.5082,50.7217 C16.6913,50.6152 16.9792,50.6115 17.1517,50.7105 L18.0990,51.2572 C18.2707,51.3570 18.2625,51.5235 18.0795,51.6292 L17.3460,52.0515 Z" style="fill-rule: evenodd; fill: #66ccff; "/>
    <path xmlns="http://www.w3.org/2000/svg" d="  M13.8548,50.0355 C13.6717,50.1412 13.3830,50.1465 13.2113,50.0475 L12.2632,49.5008 C12.0915,49.4010 12.0997,49.2353 12.2828,49.1288 L13.0162,48.7058 C13.2000,48.6000 13.4872,48.5955 13.6598,48.6938 L14.6078,49.2413 C14.7795,49.3410 14.7705,49.5067 14.5883,49.6125 L13.8548,50.0355 Z" style="fill-rule: evenodd; fill: #66ccff; "/>
    <path xmlns="http://www.w3.org/2000/svg" d="  M17.3460,50.0355 C17.1630,50.1412 16.8750,50.1457 16.7025,50.0467 L15.7545,49.5000 C15.5827,49.4002 15.5917,49.2345 15.7747,49.1280 L16.5082,48.7050 C16.6912,48.5992 16.9792,48.5947 17.1517,48.6938 L18.0990,49.2405 C18.2707,49.3402 18.2625,49.5060 18.0795,49.6117 L17.3460,50.0355 Z" style="fill-rule: evenodd; fill: #66ccff; "/>
    <path xmlns="http://www.w3.org/2000/svg" d="  M19.0927,51.0428 C18.9090,51.1493 18.6210,51.1538 18.4485,51.0548 L17.5005,50.5080 C17.3287,50.4083 17.3377,50.2425 17.5207,50.1360 L18.2535,49.7130 C18.4365,49.6073 18.7252,49.6028 18.8977,49.7018 L19.8450,50.2485 C20.0167,50.3483 20.0085,50.5140 19.8255,50.6205 L19.0927,51.0428 Z" style="fill-rule: evenodd; fill: #66ccff; "/>
    <path xmlns="http://www.w3.org/2000/svg" d="  M15.6007,49.0275 C15.4170,49.1333 15.1290,49.1377 14.9572,49.0387 L14.0085,48.4920 C13.8368,48.3923 13.8457,48.2257 14.0287,48.1200 L14.7622,47.6970 C14.9452,47.5913 15.2332,47.5860 15.4057,47.6850 L16.3537,48.2325 C16.5255,48.3322 16.5165,48.4980 16.3342,48.6038 L15.6007,49.0275 Z" style="fill-rule: evenodd; fill: #66ccff; "/>
    <path xmlns="http://www.w3.org/2000/svg" d="  M13.8548,52.0515 C13.6717,52.1572 13.3830,52.1617 13.2113,52.0627 L12.2640,51.5160 C12.0915,51.4162 12.0998,51.2505 12.2828,51.1447 L13.0162,50.7217 C13.2000,50.6152 13.4880,50.6115 13.6598,50.7105 L14.6078,51.2572 C14.7795,51.3570 14.7705,51.5235 14.5883,51.6292 L13.8548,52.0515 Z" style="fill-rule: evenodd; fill: #66ccff; "/>
    <path xmlns="http://www.w3.org/2000/svg" d="  M15.6007,53.0595 C15.4170,53.1652 15.1290,53.1705 14.9572,53.0715 L14.0100,52.5240 C13.8375,52.4242 13.8457,52.2585 14.0287,52.1527 L14.7622,51.7297 C14.9452,51.6240 15.2332,51.6195 15.4057,51.7185 L16.3537,52.2652 C16.5255,52.3650 16.5165,52.5315 16.3342,52.6372 L15.6007,53.0595 Z" style="fill-rule: evenodd; fill: #66ccff; "/>
    <path xmlns="http://www.w3.org/2000/svg" d="  M12.1087,51.0428 C11.9257,51.1493 11.6370,51.1538 11.4660,51.0548 L10.5180,50.5080 C10.3455,50.4083 10.3537,50.2425 10.5367,50.1360 L11.2710,49.7130 C11.4540,49.6073 11.7412,49.6028 11.9137,49.7018 L12.8617,50.2485 C13.0342,50.3483 13.0245,50.5140 12.8430,50.6205 L12.1087,51.0428 Z" style="fill-rule: evenodd; fill: #66ccff; "/>
    <path xmlns="http://www.w3.org/2000/svg" d="  M12.1088,53.0595 C11.9258,53.1652 11.6370,53.1705 11.4653,53.0715 L10.5180,52.5240 C10.3455,52.4242 10.3545,52.2585 10.5368,52.1527 L11.2710,51.7297 C11.4540,51.6240 11.7413,51.6195 11.9145,51.7185 L12.8618,52.2652 C13.0343,52.3650 13.0245,52.5315 12.8430,52.6372 L12.1088,53.0595 Z" style="fill-rule: evenodd; fill: #66ccff; "/>
    <path xmlns="http://www.w3.org/2000/svg" d="  M13.8548,54.0675 C13.6717,54.1732 13.3830,54.1785 13.2113,54.0795 L12.2640,53.5328 C12.0915,53.4330 12.1005,53.2673 12.2828,53.1615 L13.0162,52.7385 C13.2000,52.6320 13.4880,52.6275 13.6598,52.7265 L14.6078,53.2732 C14.7795,53.3730 14.7705,53.5395 14.5883,53.6452 L13.8548,54.0675 Z" style="fill-rule: evenodd; fill: #66ccff; "/>
    <path xmlns="http://www.w3.org/2000/svg" d="  M10.3627,52.0515 C10.1797,52.1572 9.8917,52.1617 9.7200,52.0635 L8.7720,51.5160 C8.6002,51.4162 8.6085,51.2505 8.7915,51.1447 L9.5250,50.7217 C9.7080,50.6152 9.9960,50.6115 10.1677,50.7097 L11.1157,51.2565 C11.2882,51.3562 11.2792,51.5227 11.0962,51.6285 L10.3627,52.0515 Z" style="fill-rule: evenodd; fill: #66ccff; "/>
    <defs xmlns="http://www.w3.org/2000/svg">
      <radialGradient id="grad4536" cx="50.0000%" cy="50.0000%" r="100.0000%">
        <stop offset="0%" stop-color="#85919c" stop-opacity="1.0000"/>
        <stop offset="100%" stop-color="#ffffff" stop-opacity="1.0000"/>
      </radialGradient>
    </defs>
    <path xmlns="http://www.w3.org/2000/svg" d="  M33.8663,34.1512 C33.8347,34.1685 33.8018,34.1842 33.7710,34.2022 C29.9138,36.4290 28.8975,39.4522 31.5015,40.9560 C34.1055,42.4590 39.3420,41.8725 43.1992,39.6457 C43.2300,39.6285 43.2570,39.6082 43.2885,39.5902 C42.2805,38.4577 40.9583,37.3942 39.3143,36.4455 C37.6703,35.4967 35.8275,34.7325 33.8663,34.1512 Z" style="fill-rule: evenodd; fill: url(#grad4536); "/>
    <defs xmlns="http://www.w3.org/2000/svg">
      <radialGradient id="grad4537" cx="50.0000%" cy="50.0000%" r="100.0000%">
        <stop offset="0%" stop-color="#ffffff" stop-opacity="1.0000"/>
        <stop offset="100%" stop-color="#85919c" stop-opacity="1.0000"/>
      </radialGradient>
    </defs>
    <path xmlns="http://www.w3.org/2000/svg" d="  M30.5610,43.8937 A6.6750,3.8317 180.0000 1,1 23.8860,40.0620 A6.6750,3.8317 180.0000 0,1 30.5610,43.8937 Z" style="fill-rule: evenodd; fill: url(#grad4537); "/>
    <path xmlns="http://www.w3.org/2000/svg" d="  M28.1572,43.8937 A4.2713,2.4525 180.0000 1,1 23.8860,41.4412 A4.2713,2.4525 180.0000 0,1 28.1572,43.8937 Z" style="fill-rule: evenodd; fill: #3f3f3f; "/>
    <defs xmlns="http://www.w3.org/2000/svg">
      <radialGradient id="grad4538" cx="0.0000%" cy="0.0000%" r="100.0000%">
        <stop offset="0%" stop-color="#ffffff" stop-opacity="1.0000"/>
        <stop offset="100%" stop-color="#85919c" stop-opacity="1.0000"/>
      </radialGradient>
    </defs>
    <path xmlns="http://www.w3.org/2000/svg" d="  M27.3037,43.8937 A3.4177,1.9612 180.0000 1,1 23.8860,41.9325 A3.4177,1.9612 180.0000 0,1 27.3037,43.8937 Z" style="fill-rule: evenodd; fill: url(#grad4538); "/>
    <path xmlns="http://www.w3.org/2000/svg" d="  M26.6190,43.8937 A2.7337,1.5690 180.0000 1,1 23.8852,42.3247 A2.7337,1.5690 180.0000 0,1 26.6190,43.8937 Z" style="fill-rule: evenodd; fill: #3f3f3f; "/>
    <defs xmlns="http://www.w3.org/2000/svg">
      <radialGradient id="grad4539" cx="0.0000%" cy="0.0000%" r="100.0000%">
        <stop offset="0%" stop-color="#ffffff" stop-opacity="1.0000"/>
        <stop offset="100%" stop-color="#85919c" stop-opacity="1.0000"/>
      </radialGradient>
    </defs>
    <path xmlns="http://www.w3.org/2000/svg" d="  M25.6627,43.8937 A1.7775,1.0200 180.0000 1,1 23.8852,42.8737 A1.7775,1.0200 180.0000 0,1 25.6627,43.8937 Z" style="fill-rule: evenodd; fill: url(#grad4539); "/>
    <defs xmlns="http://www.w3.org/2000/svg">
      <radialGradient id="grad4540" cx="50.0000%" cy="50.0000%" r="100.0000%">
        <stop offset="0%" stop-color="#ffffff" stop-opacity="1.0000"/>
        <stop offset="100%" stop-color="#85919c" stop-opacity="1.0000"/>
      </radialGradient>
    </defs>
    <path xmlns="http://www.w3.org/2000/svg" d="  M27.8850,45.3630 C27.8692,45.3525 26.4757,44.1352 24.6547,43.4677 C25.3267,43.1512 25.9425,42.9390 26.4202,42.8025 C27.0367,42.6270 27.4147,42.5782 27.4147,42.5760 C27.5640,42.5565 27.6697,42.4192 27.6495,42.2692 C27.6292,42.1200 27.4920,42.0150 27.3435,42.0352 C27.3232,42.0382 25.8375,42.2415 24.0592,43.1512 C23.7525,42.1020 23.1952,40.9710 23.1922,40.9612 C23.1247,40.8262 22.9620,40.7700 22.8262,40.8367 C22.6912,40.9035 22.6365,41.0662 22.7032,41.2005 L22.7017,41.2005 C22.7032,41.2035 23.1952,42.2115 23.4900,43.1490 C22.6200,42.9817 21.6780,42.9345 20.9235,42.9345 C20.0985,42.9345 19.5030,42.9847 19.4970,42.9847 C19.3477,42.9975 19.2360,43.1295 19.2480,43.2802 C19.2630,43.4302 19.3942,43.5427 19.5450,43.5292 C19.5502,43.5285 20.1232,43.4797 20.9242,43.4797 C21.6052,43.4797 22.4460,43.5180 23.2155,43.6477 C21.8055,44.6025 20.8620,45.9127 20.8500,45.9255 C20.7630,46.0470 20.7900,46.2187 20.9115,46.3072 C20.9595,46.3425 21.0157,46.3590 21.0712,46.3590 C21.1560,46.3590 21.2415,46.3192 21.2932,46.2457 C21.2932,46.2442 21.5812,45.8497 22.0747,45.3345 C22.4925,44.9002 23.0595,44.3962 23.7007,43.9890 C23.9227,45.0795 24.1462,46.6643 24.1477,46.6680 C24.1650,46.8045 24.2812,46.9028 24.4155,46.9028 C24.4282,46.9028 24.4410,46.9012 24.4552,46.8997 C24.6045,46.8795 24.7080,46.7408 24.6885,46.5922 C24.6870,46.5885 24.4657,45.0187 24.2400,43.8975 C26.0460,44.4922 27.5227,45.7800 27.5280,45.7747 C27.5797,45.8205 27.6442,45.8422 27.7072,45.8422 C27.7837,45.8422 27.8595,45.8107 27.9135,45.7485 C28.0110,45.6352 27.9975,45.4627 27.8850,45.3630 Z" style="fill-rule: evenodd; fill: url(#grad4540); "/>
    <path xmlns="http://www.w3.org/2000/svg" d="  M39.6600,38.4345 A2.6700,1.5322 180.0000 1,1 36.9900,36.9022 A2.6700,1.5322 180.0000 0,1 39.6600,38.4345 Z" style="fill-rule: evenodd; fill: #333333; "/>
    <defs xmlns="http://www.w3.org/2000/svg">
      <radialGradient id="grad4541" cx="50.0000%" cy="50.0000%" r="100.0000%">
        <stop offset="0%" stop-color="#85919c" stop-opacity="1.0000"/>
        <stop offset="100%" stop-color="#bdd1dd" stop-opacity="1.0000"/>
      </radialGradient>
    </defs>
    <path xmlns="http://www.w3.org/2000/svg" d="  M39.2700,38.0182 L39.2730,38.0175 C39.2722,37.8195 38.0707,36.7050 37.8817,36.2610 C37.5810,33.6690 36.9427,29.2410 35.9895,25.8390 C35.1270,22.7640 33.3847,19.0372 30.9067,15.9420 C29.4495,14.1232 26.7165,14.8703 28.4153,16.8375 C30.9555,19.7805 32.8725,23.1907 33.8047,26.5042 C34.7205,29.7630 35.3557,33.9585 35.6707,36.4035 L34.7895,37.8840 C34.7670,37.9140 34.7535,37.9463 34.7347,37.9778 L34.6335,38.1473 C34.6335,38.1480 34.6380,38.1525 34.6395,38.1548 C34.6065,38.2440 34.5892,38.3385 34.5892,38.4345 C34.5892,39.1965 35.6647,39.8130 36.9922,39.8130 C38.3197,39.8130 39.3945,39.1965 39.3945,38.4345 C39.3930,38.2875 39.3428,38.1503 39.2700,38.0182 Z" style="fill-rule: evenodd; fill: url(#grad4541); "/>
    <defs xmlns="http://www.w3.org/2000/svg">
      <radialGradient id="grad4542" cx="50.0000%" cy="50.0000%" r="100.0000%">
        <stop offset="0%" stop-color="#85919c" stop-opacity="1.0000"/>
        <stop offset="100%" stop-color="#bdd1dd" stop-opacity="1.0000"/>
      </radialGradient>
    </defs>
    <path xmlns="http://www.w3.org/2000/svg" d="  M32.9258,13.3882 A7.3590,4.2240 180.0000 1,1 25.5668,9.1642 A7.3590,4.2240 180.0000 0,1 32.9258,13.3882 Z" style="fill-rule: evenodd; fill: url(#grad4542); "/>
    <path xmlns="http://www.w3.org/2000/svg" d="  M33.0720,11.9955 A7.5060,4.3080 180.0000 1,1 25.5660,7.6875 A7.5060,4.3080 180.0000 0,1 33.0720,11.9955 Z" style="fill-rule: evenodd; fill: #ffffff; "/>
    <defs xmlns="http://www.w3.org/2000/svg">
      <radialGradient id="grad4543" cx="50.0000%" cy="50.0000%" r="100.0000%">
        <stop offset="0%" stop-color="#669999" stop-opacity="1.0000"/>
        <stop offset="100%" stop-color="#080808" stop-opacity="1.0000"/>
      </radialGradient>
    </defs>
    <path xmlns="http://www.w3.org/2000/svg" d="  M32.9258,11.6115 A7.3590,4.2232 180.0000 1,1 25.5668,7.3882 A7.3590,4.2232 180.0000 0,1 32.9258,11.6115 Z" style="fill-rule: evenodd; fill: url(#grad4543); "/>
    <defs xmlns="http://www.w3.org/2000/svg">
      <radialGradient id="grad4544" cx="50.0000%" cy="50.0000%" r="100.0000%">
        <stop offset="0%" stop-color="#669999" stop-opacity="1.0000"/>
        <stop offset="100%" stop-color="#080808" stop-opacity="1.0000"/>
      </radialGradient>
    </defs>
    <path xmlns="http://www.w3.org/2000/svg" d="  M25.5660,0.7507 C21.8790,0.7507 18.9585,2.4675 18.8918,4.5825 C18.8753,5.1097 19.1595,5.7172 19.6088,6.3390 C19.6253,6.3675 22.6688,9.9292 23.5260,10.9320 C23.7870,11.4405 24.5963,11.8147 25.5668,11.8147 C26.4135,11.8147 27.1388,11.5297 27.4845,11.1195 L31.3050,6.5887 C31.8983,5.8867 32.2223,5.1592 32.2425,4.5832 C32.3153,2.4675 29.2530,0.7507 25.5660,0.7507 Z" style="fill-rule: evenodd; fill: url(#grad4544); "/>
    <path xmlns="http://www.w3.org/2000/svg" d="  M32.5748,4.5960 A7.0088,4.0223 180.0000 1,1 25.5660,0.5737 A7.0088,4.0223 180.0000 0,1 32.5748,4.5960 Z" style="fill-rule: evenodd; fill: #bdd1dd; "/>
    <defs xmlns="http://www.w3.org/2000/svg" xmlns:xlink="http://www.w3.org/1999/xlink">
      <linearGradient id="grad4545">
        <stop offset="0%" stop-color="#646c6b" stop-opacity="1.0000"/>
        <stop offset="100%" stop-color="#dae1e1" stop-opacity="1.0000"/>
      </linearGradient>
      <linearGradient xlink:href="#grad4545" id="grad4546" x1="0" y1="0" x2="0" y2="1" gradientTransform="rotate(135 .5 .5)" gradientUnits="objectBoundingBox">
  </linearGradient>
    </defs>
    <path xmlns="http://www.w3.org/2000/svg" d="  M32.5748,4.0230 A7.0088,4.0223 180.0000 1,1 25.5660,0.0007 A7.0088,4.0223 180.0000 0,1 32.5748,4.0230 Z" style="fill-rule: evenodd; fill: url(#grad4546); "/>
    <defs xmlns="http://www.w3.org/2000/svg" xmlns:xlink="http://www.w3.org/1999/xlink">
      <linearGradient id="grad4547">
        <stop offset="0%" stop-color="#646c6b" stop-opacity="1.0000"/>
        <stop offset="100%" stop-color="#dae1e1" stop-opacity="1.0000"/>
      </linearGradient>
      <linearGradient xlink:href="#grad4547" id="grad4548" x1="0" y1="0" x2="0" y2="1" gradientTransform="rotate(315 .5 .5)" gradientUnits="objectBoundingBox">
  </linearGradient>
    </defs>
    <path xmlns="http://www.w3.org/2000/svg" d="  M28.3695,4.0223 A2.8035,1.6095 180.0000 1,1 25.5660,2.4127 A2.8035,1.6095 180.0000 0,1 28.3695,4.0223 Z" style="fill-rule: evenodd; fill: url(#grad4548); "/>
    <!--converted by libvisio2svg-->
  </g>
</svg>
