<svg xmlns="http://www.w3.org/2000/svg" xmlns:xlink="http://www.w3.org/1999/xlink" version="1.1" width="0.5244000000" height="0.8336000000" viewBox="0 0 37.7595 60.0217">
  <title><![CDATA[Server, generic]]></title>
  <g transform=" scale(1.000000) ">
    <path xmlns="http://www.w3.org/2000/svg" d="  M37.7595,7.1347 L25.8907,0.0000 L0.0000,14.8830 L0.0000,52.1505 L0.5738,52.4873 C2.1128,54.4545 5.3017,56.3310 8.8208,57.3292 L13.4063,60.0217 L37.7595,46.0357 L37.7595,43.2833 L37.7580,43.2480 L37.2293,42.9975 L37.7595,42.6930 L37.7595,40.4543 L37.7580,40.4197 L37.2293,40.1692 L37.7595,39.8648 L37.7595,37.6253 L37.7580,37.5915 L37.2675,37.3582 L37.7595,37.0762 L37.7595,7.1692 L37.7595,7.1347 Z" style="stroke-width: 1.5000; stroke: #8d98b5; stroke-dasharray: none; stroke-linecap: butt; stroke-linejoin: miter; fill: none; "/>
    <path xmlns="http://www.w3.org/2000/svg" d="  M22.9477,46.1355 L37.7580,37.5907 L37.2667,37.3575 L22.9477,45.5332 L22.9477,46.1355 Z" style="fill-rule: evenodd; fill: #3f3f3f; "/>
    <path xmlns="http://www.w3.org/2000/svg" d="  M22.9477,48.9637 L37.7580,40.4190 L37.2292,40.1685 L22.9477,48.3615 L22.9477,48.9637 Z" style="fill-rule: evenodd; fill: #3f3f3f; "/>
    <path xmlns="http://www.w3.org/2000/svg" d="  M22.9477,51.7927 L37.7580,43.2480 L37.2292,42.9975 L22.9477,51.1905 L22.9477,51.7927 Z" style="fill-rule: evenodd; fill: #3f3f3f; "/>
    <defs xmlns="http://www.w3.org/2000/svg" xmlns:xlink="http://www.w3.org/1999/xlink">
      <linearGradient id="grad4549">
        <stop offset="0%" stop-color="#646c6b" stop-opacity="1.0000"/>
        <stop offset="100%" stop-color="#dae1e1" stop-opacity="1.0000"/>
      </linearGradient>
      <linearGradient xlink:href="#grad4549" id="grad4550" x1="0" y1="0" x2="0" y2="1" gradientTransform="rotate(90 .5 .5)" gradientUnits="objectBoundingBox">
  </linearGradient>
    </defs>
    <path xmlns="http://www.w3.org/2000/svg" d="  M13.4062,21.4020 L0.0000,14.8830 L0.0000,52.1505 L0.5737,52.4872 C0.4500,52.3282 0.3360,52.1700 0.2332,52.0102 L0.2332,35.7967 L0.2332,32.1810 L0.2332,24.4432 L0.2332,16.6410 L12.3525,22.6320 C12.3525,22.6320 12.3997,22.6365 12.4222,22.6395 L12.4222,30.4950 L12.4222,38.1780 L12.4222,42.0210 L12.4222,58.0087 C11.2192,57.9007 10.0005,57.6637 8.8207,57.3292 L13.4062,60.0217 L13.4062,21.4020 Z" style="fill-rule: evenodd; fill: url(#grad4550); "/>
    <defs xmlns="http://www.w3.org/2000/svg" xmlns:xlink="http://www.w3.org/1999/xlink">
      <linearGradient id="grad4551">
        <stop offset="0%" stop-color="#85919c" stop-opacity="0.9882"/>
        <stop offset="100%" stop-color="#dadfe1" stop-opacity="0.9882"/>
      </linearGradient>
      <linearGradient xlink:href="#grad4551" id="grad4552" x1="0" y1="0" x2="0" y2="1" gradientTransform="rotate(90 .5 .5)" gradientUnits="objectBoundingBox">
  </linearGradient>
    </defs>
    <path xmlns="http://www.w3.org/2000/svg" d="  M11.9100,42.0142 C11.9100,42.0742 11.8388,42.1237 11.7473,42.1237 C11.7390,42.1237 11.7218,42.1252 11.7218,42.1252 C8.1053,42.1785 3.3855,40.5345 0.7193,36.4560 C0.5378,36.2362 0.3735,36.0150 0.2333,35.7960 L0.2333,52.0095 C0.3360,52.1692 0.4500,52.3275 0.5738,52.4865 C2.1128,54.4537 5.3018,56.3302 8.8208,57.3285 C10.0005,57.6630 11.2185,57.9007 12.4223,58.0080 L12.4223,42.0210 C12.2468,42.0052 12.0690,41.9850 11.8920,41.9640 C11.9018,41.9805 11.9100,41.9970 11.9100,42.0142 Z M11.5478,55.9965 C11.3513,56.6175 10.3253,56.8462 9.2573,56.5080 C8.1885,56.1697 7.4820,55.3920 7.6778,54.7710 C7.8750,54.1507 8.9003,53.9212 9.9698,54.2595 C11.0378,54.5977 11.7450,55.3755 11.5478,55.9965 Z M11.7473,53.5102 C11.7390,53.5102 11.7218,53.5110 11.7218,53.5110 C7.9703,53.5672 3.0323,51.7972 0.4290,47.3775 C0.2408,47.0655 0.4650,47.0947 0.4650,47.0947 C2.1128,49.8810 6.9698,52.8060 11.6565,53.2777 C11.6775,53.2800 11.7458,53.2852 11.7540,53.2852 C11.8455,53.2852 11.9100,53.3407 11.9100,53.4000 C11.9100,53.4600 11.8388,53.5102 11.7473,53.5102 Z M11.7473,49.7152 C11.7390,49.7152 11.7218,49.7152 11.7218,49.7152 C7.9703,49.7722 3.0323,48.0015 0.4290,43.5817 C0.2408,43.2697 0.4650,43.2990 0.4650,43.2990 C2.1128,46.0852 6.9698,49.0110 11.6565,49.4820 C11.6775,49.4842 11.7458,49.4895 11.7540,49.4895 C11.8455,49.4895 11.9100,49.5450 11.9100,49.6050 C11.9100,49.6650 11.8388,49.7152 11.7473,49.7152 Z M11.7473,45.9195 C11.7390,45.9195 11.7218,45.9210 11.7218,45.9210 C7.9703,45.9765 3.0323,44.2065 0.4290,39.7867 C0.2408,39.4755 0.4650,39.5040 0.4650,39.5040 C2.1128,42.2902 6.9698,45.2152 11.6565,45.6862 C11.6775,45.6892 11.7458,45.6937 11.7540,45.6937 C11.8455,45.6937 11.9100,45.7492 11.9100,45.8092 C11.9100,45.8692 11.8388,45.9195 11.7473,45.9195 Z" style="fill-rule: evenodd; fill: url(#grad4552); "/>
    <defs xmlns="http://www.w3.org/2000/svg" xmlns:xlink="http://www.w3.org/1999/xlink">
      <linearGradient id="grad4553">
        <stop offset="0%" stop-color="#85919c" stop-opacity="0.9882"/>
        <stop offset="100%" stop-color="#dadfe1" stop-opacity="0.9882"/>
      </linearGradient>
      <linearGradient xlink:href="#grad4553" id="grad4554" x1="0" y1="0" x2="0" y2="1" gradientTransform="rotate(90 .5 .5)" gradientUnits="objectBoundingBox">
  </linearGradient>
    </defs>
    <path xmlns="http://www.w3.org/2000/svg" d="  M11.6565,30.5078 C11.6775,30.5100 11.7458,30.5145 11.7540,30.5145 C11.8455,30.5145 11.9100,30.5700 11.9100,30.6300 C11.9100,30.6900 11.8388,30.7395 11.7473,30.7395 C11.7390,30.7395 11.7218,30.7395 11.7218,30.7395 C8.1563,30.7935 3.5205,29.1945 0.8355,25.2428 C0.6045,24.9780 0.4035,24.7110 0.2325,24.4425 L0.2325,32.1803 C0.5025,32.6025 0.8535,33.0240 1.2727,33.4365 C0.9712,33.0480 0.6885,32.6363 0.4290,32.1968 C0.2407,31.8855 0.4650,31.9148 0.4650,31.9148 C1.5915,33.8190 4.2173,35.7885 7.2630,36.9945 C8.6978,37.5203 10.2255,37.9103 11.7473,38.1038 C11.7488,38.1045 11.7518,38.1045 11.7533,38.1045 C11.7608,38.1045 11.7675,38.1068 11.7743,38.1083 C11.9663,38.1315 12.1598,38.1540 12.3518,38.1720 C12.3750,38.1743 12.3990,38.1780 12.4215,38.1788 L12.4215,30.4950 C9.7155,30.2513 6.9428,29.3528 4.6732,28.1385 C6.7298,29.3498 9.2160,30.2618 11.6565,30.5078 Z M11.7473,34.5353 C11.7390,34.5353 11.7218,34.5360 11.7218,34.5360 C7.9703,34.5915 3.0322,32.8215 0.4290,28.4025 C0.2407,28.0905 0.4650,28.1198 0.4650,28.1198 C2.1128,30.9053 6.9698,33.8310 11.6565,34.3028 C11.6775,34.3058 11.7458,34.3095 11.7540,34.3095 C11.8455,34.3095 11.9100,34.3650 11.9100,34.4250 C11.9100,34.4835 11.8388,34.5353 11.7473,34.5353 Z" style="fill-rule: evenodd; fill: url(#grad4554); "/>
    <defs xmlns="http://www.w3.org/2000/svg" xmlns:xlink="http://www.w3.org/1999/xlink">
      <linearGradient id="grad4555">
        <stop offset="0%" stop-color="#c8d8dd" stop-opacity="0.9882"/>
        <stop offset="100%" stop-color="#f3f9f7" stop-opacity="0.9882"/>
      </linearGradient>
      <linearGradient xlink:href="#grad4555" id="grad4556" x1="0" y1="0" x2="0" y2="1" gradientTransform="rotate(90 .5 .5)" gradientUnits="objectBoundingBox">
  </linearGradient>
    </defs>
    <path xmlns="http://www.w3.org/2000/svg" d="  M12.3525,38.1713 C12.1605,38.1533 11.9670,38.1308 11.7750,38.1075 C11.8538,38.1150 11.9100,38.1645 11.9100,38.2193 C11.9100,38.2785 11.8388,38.3295 11.7473,38.3295 C11.7390,38.3295 11.7218,38.3295 11.7218,38.3295 C8.3438,38.3798 4.0035,36.9480 1.2727,33.4365 C0.8535,33.0240 0.5032,32.6025 0.2325,32.1802 L0.2325,35.7960 C0.3735,36.0150 0.5370,36.2363 0.7185,36.4560 C0.6195,36.3038 0.5212,36.1500 0.4282,35.9910 C0.2400,35.6798 0.4642,35.7090 0.4642,35.7090 C1.4490,37.3748 3.5820,39.0893 6.1395,40.3005 C7.3628,40.8795 8.6850,41.3438 10.0230,41.6310 C10.5668,41.7480 11.1120,41.8358 11.6558,41.8920 C11.6768,41.8935 11.7450,41.8988 11.7533,41.8988 C11.8170,41.8988 11.8665,41.9265 11.8913,41.9633 C12.0683,41.9843 12.2460,42.0045 12.4215,42.0203 L12.4215,38.1773 C12.3990,38.1773 12.3758,38.1735 12.3525,38.1713 Z" style="fill-rule: evenodd; fill: url(#grad4556); "/>
    <defs xmlns="http://www.w3.org/2000/svg" xmlns:xlink="http://www.w3.org/1999/xlink">
      <linearGradient id="grad4557">
        <stop offset="0%" stop-color="#bdd1dd" stop-opacity="0.9882"/>
        <stop offset="100%" stop-color="#f3f9f7" stop-opacity="0.9882"/>
      </linearGradient>
      <linearGradient xlink:href="#grad4557" id="grad4558" x1="0" y1="0" x2="0" y2="1" gradientTransform="rotate(90 .5 .5)" gradientUnits="objectBoundingBox">
  </linearGradient>
    </defs>
    <path xmlns="http://www.w3.org/2000/svg" d="  M12.3525,22.6320 L0.2333,16.6410 L0.2333,24.4425 C0.4043,24.7102 0.6053,24.9780 0.8363,25.2427 C0.6953,25.0372 0.5588,24.8257 0.4298,24.6067 C0.2415,24.2940 0.4658,24.3240 0.4658,24.3240 C1.2555,25.6590 2.7825,27.0255 4.6740,28.1385 C6.9435,29.3520 9.7163,30.2505 12.4223,30.4950 L12.4223,22.6395 C12.3990,22.6365 12.3525,22.6320 12.3525,22.6320 Z M0.6443,17.6775 L12.0525,23.3175 C6.3953,26.4450 0.8603,21.4020 0.6443,17.6775 Z" style="fill-rule: evenodd; fill: url(#grad4558); "/>
    <path xmlns="http://www.w3.org/2000/svg" d="  M11.7540,53.2852 C11.7458,53.2852 11.6775,53.2800 11.6565,53.2777 C6.9698,52.8060 2.1128,49.8810 0.4650,47.0948 C0.4650,47.0948 0.2408,47.0655 0.4290,47.3775 C3.0323,51.7973 7.9703,53.5672 11.7218,53.5110 C11.7218,53.5110 11.7390,53.5102 11.7473,53.5102 C11.8388,53.5102 11.9100,53.4607 11.9100,53.4007 C11.9100,53.3407 11.8455,53.2852 11.7540,53.2852 Z" style="fill-rule: evenodd; fill: #000000; "/>
    <path xmlns="http://www.w3.org/2000/svg" d="  M11.7540,49.4895 C11.7458,49.4895 11.6775,49.4843 11.6565,49.4820 C6.9698,49.0110 2.1128,46.0853 0.4650,43.2990 C0.4650,43.2990 0.2408,43.2698 0.4290,43.5818 C3.0323,48.0015 7.9703,49.7723 11.7218,49.7153 C11.7218,49.7153 11.7390,49.7153 11.7473,49.7153 C11.8388,49.7153 11.9100,49.6650 11.9100,49.6058 C11.9100,49.5450 11.8455,49.4895 11.7540,49.4895 Z" style="fill-rule: evenodd; fill: #000000; "/>
    <path xmlns="http://www.w3.org/2000/svg" d="  M11.7540,45.6945 C11.7458,45.6945 11.6775,45.6900 11.6565,45.6870 C6.9698,45.2160 2.1128,42.2910 0.4650,39.5047 C0.4650,39.5047 0.2408,39.4763 0.4290,39.7875 C3.0323,44.2073 7.9703,45.9773 11.7218,45.9218 C11.7218,45.9218 11.7390,45.9203 11.7473,45.9203 C11.8388,45.9203 11.9100,45.8700 11.9100,45.8108 C11.9100,45.7500 11.8455,45.6945 11.7540,45.6945 Z" style="fill-rule: evenodd; fill: #000000; "/>
    <path xmlns="http://www.w3.org/2000/svg" d="  M11.8913,41.9640 C11.2680,41.8883 10.6440,41.7758 10.0238,41.6325 C8.6858,41.3445 7.3635,40.8810 6.1403,40.3020 C3.5828,39.0908 1.4498,37.3762 0.4650,35.7105 C0.4650,35.7105 0.2408,35.6812 0.4290,35.9925 C0.5220,36.1515 0.6203,36.3053 0.7193,36.4575 C3.3855,40.5360 8.1053,42.1800 11.7218,42.1268 C11.7218,42.1268 11.7390,42.1253 11.7473,42.1253 C11.8388,42.1253 11.9100,42.0757 11.9100,42.0158 C11.9100,41.9970 11.9018,41.9805 11.8913,41.9640 Z" style="fill-rule: evenodd; fill: #000000; "/>
    <path xmlns="http://www.w3.org/2000/svg" d="  M11.7750,38.1075 C11.7660,38.1060 11.7570,38.1045 11.7480,38.1030 C11.7330,38.1030 11.6768,38.0985 11.6565,38.0970 C10.1738,37.9478 8.6738,37.5518 7.2638,36.9938 C4.2173,35.7878 1.5915,33.8183 0.4658,31.9140 C0.4658,31.9140 0.2415,31.8848 0.4298,32.1968 C0.6893,32.6363 0.9720,33.0488 1.2735,33.4365 C4.0043,36.9488 8.3445,38.3805 11.7225,38.3295 C11.7225,38.3295 11.7398,38.3295 11.7480,38.3295 C11.8395,38.3295 11.9108,38.2785 11.9108,38.2193 C11.9100,38.1653 11.8545,38.1150 11.7750,38.1075 Z" style="fill-rule: evenodd; fill: #000000; "/>
    <path xmlns="http://www.w3.org/2000/svg" d="  M11.7540,30.5138 C11.7458,30.5138 11.6775,30.5093 11.6565,30.5070 C9.2160,30.2610 6.7298,29.3490 4.6733,28.1385 C2.7818,27.0255 1.2540,25.6590 0.4650,24.3240 C0.4650,24.3240 0.2408,24.2948 0.4290,24.6068 C0.5580,24.8258 0.6945,25.0365 0.8355,25.2428 C3.5205,29.1945 8.1563,30.7935 11.7218,30.7395 C11.7218,30.7395 11.7390,30.7395 11.7473,30.7395 C11.8388,30.7395 11.9100,30.6900 11.9100,30.6300 C11.9100,30.5700 11.8455,30.5138 11.7540,30.5138 Z" style="fill-rule: evenodd; fill: #000000; "/>
    <path xmlns="http://www.w3.org/2000/svg" d="  M11.7540,34.3088 C11.7458,34.3088 11.6775,34.3050 11.6565,34.3020 C6.9698,33.8303 2.1128,30.9053 0.4650,28.1190 C0.4650,28.1190 0.2408,28.0898 0.4290,28.4018 C3.0323,32.8208 7.9703,34.5908 11.7218,34.5353 C11.7218,34.5353 11.7390,34.5345 11.7473,34.5345 C11.8388,34.5345 11.9100,34.4835 11.9100,34.4243 C11.9100,34.3643 11.8455,34.3088 11.7540,34.3088 Z" style="fill-rule: evenodd; fill: #000000; "/>
    <defs xmlns="http://www.w3.org/2000/svg">
      <linearGradient id="grad4559">
        <stop offset="0%" stop-color="#646c6b" stop-opacity="1.0000"/>
        <stop offset="100%" stop-color="#dae1e1" stop-opacity="1.0000"/>
      </linearGradient>
    </defs>
    <path xmlns="http://www.w3.org/2000/svg" d="  M9.9697,54.2595 C8.9002,53.9213 7.8750,54.1500 7.6777,54.7710 C7.4820,55.3920 8.1892,56.1698 9.2572,56.5080 C10.3252,56.8462 11.3512,56.6175 11.5477,55.9965 C11.7450,55.3755 11.0377,54.5978 9.9697,54.2595 Z M10.7760,56.3370 C10.3792,56.7105 9.6930,56.6257 9.2437,56.1472 C9.0990,55.9935 8.9970,55.8173 8.9377,55.6357 C8.8987,55.5172 8.8800,55.3995 8.8785,55.2825 C8.8747,55.0237 8.9640,54.7800 9.1492,54.6060 C9.5452,54.2332 10.2315,54.3172 10.6807,54.7950 C11.1307,55.2727 11.1727,55.9628 10.7760,56.3370 Z" style="fill-rule: evenodd; fill: url(#grad4559); "/>
    <path xmlns="http://www.w3.org/2000/svg" d="  M9.1492,54.6060 C8.9640,54.7800 8.8747,55.0245 8.8785,55.2825 C8.8860,55.0988 8.9550,54.9270 9.0877,54.8017 C9.1942,54.7005 9.3285,54.6450 9.4732,54.6277 C9.7605,54.5565 10.0987,54.6555 10.3417,54.9135 C10.6717,55.2645 10.6995,55.7752 10.4085,56.0700 C10.3890,56.0948 10.3687,56.1173 10.3455,56.1397 C10.0387,56.4293 9.5085,56.3640 9.1620,55.9935 C9.0585,55.8848 8.9850,55.7625 8.9377,55.6358 C8.9970,55.8165 9.0990,55.9935 9.2437,56.1473 C9.6930,56.6258 10.3792,56.7105 10.7760,56.3370 C11.1727,55.9628 11.1307,55.2728 10.6807,54.7950 C10.2322,54.3180 9.5460,54.2332 9.1492,54.6060 Z" style="fill-rule: evenodd; fill: #000000; "/>
    <defs xmlns="http://www.w3.org/2000/svg">
      <radialGradient id="grad4560" cx="50.0000%" cy="50.0000%" r="100.0000%">
        <stop offset="0%" stop-color="#ccff66" stop-opacity="1.0000"/>
        <stop offset="100%" stop-color="#7ab04a" stop-opacity="1.0000"/>
      </radialGradient>
    </defs>
    <path xmlns="http://www.w3.org/2000/svg" d="  M10.3455,56.1397 C10.3688,56.1180 10.3890,56.0947 10.4085,56.0700 C10.6995,55.7752 10.6725,55.2645 10.3418,54.9135 C10.0988,54.6555 9.7605,54.5565 9.4733,54.6277 C9.3293,54.6450 9.1943,54.7012 9.0878,54.8017 C8.9543,54.9270 8.8853,55.0987 8.8785,55.2825 C8.8800,55.3987 8.8988,55.5172 8.9378,55.6357 C8.9850,55.7625 9.0585,55.8847 9.1620,55.9935 C9.5085,56.3640 10.0388,56.4292 10.3455,56.1397 Z" style="fill-rule: evenodd; fill: url(#grad4560); "/>
    <defs xmlns="http://www.w3.org/2000/svg" xmlns:xlink="http://www.w3.org/1999/xlink">
      <linearGradient id="grad4561">
        <stop offset="0%" stop-color="#7f8787" stop-opacity="1.0000"/>
        <stop offset="100%" stop-color="#f3f9f7" stop-opacity="1.0000"/>
      </linearGradient>
      <linearGradient xlink:href="#grad4561" id="grad4562" x1="0" y1="0" x2="0" y2="1" gradientTransform="rotate(315 .5 .5)" gradientUnits="objectBoundingBox">
  </linearGradient>
    </defs>
    <path xmlns="http://www.w3.org/2000/svg" d="  M0.6442,17.6775 C0.8602,21.4020 6.3952,26.4442 12.0525,23.3175 L0.6442,17.6775 Z M2.8305,18.9022 L10.1250,22.4775 C6.4372,24.3067 2.9250,21.1695 2.8305,18.9022 Z" style="fill-rule: evenodd; fill: url(#grad4562); "/>
    <defs xmlns="http://www.w3.org/2000/svg">
      <radialGradient id="grad4563" cx="50.0000%" cy="50.0000%" r="100.0000%">
        <stop offset="0%" stop-color="#a7e968" stop-opacity="1.0000"/>
        <stop offset="100%" stop-color="#000000" stop-opacity="1.0000"/>
      </radialGradient>
    </defs>
    <path xmlns="http://www.w3.org/2000/svg" d="  M2.8305,18.9023 C2.9250,21.1695 6.4373,24.3068 10.1250,22.4775 L2.8305,18.9023 Z" style="fill-rule: evenodd; fill: url(#grad4563); "/>
    <defs xmlns="http://www.w3.org/2000/svg" xmlns:xlink="http://www.w3.org/1999/xlink">
      <linearGradient id="grad4564">
        <stop offset="0%" stop-color="#7f8787" stop-opacity="1.0000"/>
        <stop offset="100%" stop-color="#dae1e1" stop-opacity="1.0000"/>
      </linearGradient>
      <linearGradient xlink:href="#grad4564" id="grad4565" x1="0" y1="0" x2="0" y2="1" gradientTransform="rotate(45 .5 .5)" gradientUnits="objectBoundingBox">
  </linearGradient>
    </defs>
    <path xmlns="http://www.w3.org/2000/svg" d="  M13.4377,21.3712 L13.4160,21.3607 L13.4160,59.7758 L37.7595,46.0358 L37.7595,43.2833 L22.9477,51.7928 L22.9477,51.1905 L37.2292,42.9975 L37.7595,42.6930 L37.7595,40.4535 L22.9477,48.9638 L22.9477,48.3615 L37.2292,40.1685 L37.7595,39.8640 L37.7595,37.6245 L22.9477,46.1355 L22.9477,45.5333 L37.2667,37.3575 L37.7595,37.0755 L37.7595,7.1693 L34.4925,9.0473 L13.4377,21.3712 Z" style="fill-rule: evenodd; fill: url(#grad4565); "/>
    <defs xmlns="http://www.w3.org/2000/svg" xmlns:xlink="http://www.w3.org/1999/xlink">
      <linearGradient id="grad4566">
        <stop offset="0%" stop-color="#7f8787" stop-opacity="1.0000"/>
        <stop offset="100%" stop-color="#f3f9f7" stop-opacity="1.0000"/>
      </linearGradient>
      <linearGradient xlink:href="#grad4566" id="grad4567" x1="0" y1="0" x2="0" y2="1" gradientTransform="rotate(90 .5 .5)" gradientUnits="objectBoundingBox">
  </linearGradient>
    </defs>
    <path xmlns="http://www.w3.org/2000/svg" d="  M25.8908,0.0000 L0.1253,14.8740 L13.4160,21.3607 L37.7595,7.1347 L25.8908,0.0000 Z" style="fill-rule: evenodd; fill: url(#grad4567); "/>
    <!--converted by libvisio2svg-->
  </g>
</svg>
