<svg xmlns="http://www.w3.org/2000/svg" xmlns:xlink="http://www.w3.org/1999/xlink" version="1.1" width="0.8923000000" height="0.8306000000" viewBox="0 0 64.2480 59.8028">
  <title><![CDATA[SharePoint Server]]></title>
  <g transform=" scale(1.000000) ">
    <path xmlns="http://www.w3.org/2000/svg" d="  M37.6215,7.1085 L25.7940,0.0000 L0.0000,14.8290 L0.0000,51.9600 L0.5715,52.2953 C2.1052,54.2550 5.2822,56.1240 8.7892,57.1208 L13.3583,59.8028 L37.6222,45.8678 L37.6222,43.1243 L37.6208,43.0890 L37.0935,42.8415 L37.6222,42.5370 L37.6222,40.3057 L37.6208,40.2705 L37.0935,40.0215 L37.6222,39.7170 L37.6222,37.4872 L37.6200,37.4520 L37.1310,37.2202 L37.6215,36.9390 L37.6215,7.1430 L37.6215,7.1085 Z" style="stroke-width: 1.5000; stroke: #8d98b5; stroke-dasharray: none; stroke-linecap: butt; stroke-linejoin: miter; fill: none; "/>
    <g xmlns="http://www.w3.org/2000/svg" id="Layer1120">
      <path d="  M29.2327,57.2655 C26.9415,56.6048 24.8730,55.9193 22.8930,54.5130 C21.3503,53.4097 19.7160,51.8745 19.6935,49.7287 C19.6920,49.4325 19.7273,49.1265 19.7993,48.8175 C20.2095,47.1270 21.6188,45.5190 22.8930,44.4270 L22.9403,44.3902 L23.0513,44.3153 C23.2575,44.1428 23.4660,43.9740 23.6618,43.8143 C28.4093,39.8925 32.9955,35.0400 32.9580,30.1522 C32.9490,27.4073 32.1330,25.7468 31.0027,24.3375 C29.8673,22.9275 28.3658,21.8145 27.0810,20.3580 C26.9025,20.1600 26.6228,19.8450 26.6092,19.3177 C26.6078,19.1527 26.6460,18.9818 26.7165,18.8250 L26.7240,18.8085 C26.7592,18.7387 26.7765,18.7140 26.7653,18.7313 C26.7683,18.7313 26.7885,18.6742 26.8545,18.5843 C27.7133,17.4697 29.7450,16.5188 31.8172,15.6158 C33.8812,14.7435 35.9130,14.0505 36.5692,13.8502 C36.7335,13.7992 36.9135,13.8225 37.0628,13.9080 C37.2105,13.9935 37.3208,14.1383 37.3597,14.3040 C37.8420,16.3095 38.9887,18.7710 40.5285,21.5017 C41.5673,21.6630 42.4770,21.8070 43.3305,21.9645 C54.2835,23.9633 58.2045,27.5640 60.6390,31.4445 L60.7972,31.7025 L60.2655,32.0348 L60.7972,31.7025 C60.9098,31.8825 60.9232,32.1067 60.8340,32.3003 C60.7432,32.4922 60.5618,32.6273 60.3517,32.6565 C56.3032,33.2190 50.2882,34.7002 45.0308,36.2618 C45.2655,37.7205 45.3592,39.1837 45.3600,40.6035 C45.3585,43.0132 45.0893,45.2940 44.7667,47.1833 C43.9215,52.0800 40.9095,57.6803 40.6680,58.1243 L40.6432,58.1565 L40.6462,58.1580 C40.6462,58.1580 40.6462,58.1610 40.6418,58.1640 C40.6402,58.1655 40.6402,58.1700 40.6373,58.1715 L40.6373,58.1730 C40.6282,58.1918 40.6110,58.2187 40.5975,58.2480 C40.5653,58.3035 40.5360,58.3620 40.5360,58.3620 C40.4347,58.5465 40.2503,58.6695 40.0395,58.6905 C40.0290,58.6905 39.7740,58.7168 39.5535,58.7168 C39.5535,58.7168 39.5445,58.7183 39.5363,58.7183 C36.8610,58.6808 31.8293,58.0095 29.2327,57.2655 Z M21.0217,49.1003 C20.9722,49.3200 20.9467,49.5277 20.9467,49.7287 C20.9250,51.1305 22.1595,52.4632 23.6190,53.4893 C25.4153,54.7620 27.3135,55.4055 29.5777,56.0603 C31.9725,56.7548 36.8903,57.7433 39.3773,57.7695 L39.4867,57.8153 L39.5730,57.8242 C39.5865,57.8242 39.6817,57.8153 39.7005,57.8153 L39.7927,57.5970 C40.1542,56.9393 42.7808,51.4020 43.5278,46.9725 C43.8412,45.1357 44.1037,42.9225 44.1037,40.6050 C44.1037,39.0667 43.9868,37.4835 43.7010,35.9362 C43.6410,35.6198 43.8300,35.3123 44.1345,35.2200 C49.1693,33.7050 55.3402,32.4810 59.5883,31.7955 L59.3422,31.4145 C57.0322,28.0260 53.3302,25.1152 43.1017,23.2028 C42.1875,23.0332 41.1975,22.8787 40.0327,22.6980 C39.8453,22.6687 39.6765,22.5540 39.5842,22.3883 C38.0977,19.7767 37.1617,16.8293 36.5430,14.7083 L36.1387,14.8118 C35.2335,15.1170 33.7305,15.8138 32.1862,16.4685 L31.6695,16.6755 C29.7083,17.4818 28.3357,18.6735 27.8842,19.2975 C27.8813,19.3043 27.8767,19.3147 27.8685,19.3298 C27.8715,19.3350 27.8730,19.3425 27.8805,19.3552 C27.9007,19.3920 27.8190,19.5780 27.8820,19.6455 L27.9727,19.8112 C29.1502,21.1598 30.6098,22.2285 31.8810,23.7930 L32.0483,24.1447 C33.3210,25.7063 33.9997,27.1755 33.9908,30.1800 L33.9172,30.5880 C33.8790,36.2715 28.9635,40.3245 24.1778,44.3265 L23.7893,44.6430 C23.5860,44.8088 23.6280,44.8013 23.4188,44.9767 L23.2515,45.1613 L23.0858,45.3075 L22.8443,45.4935 C21.7043,46.4475 21.2782,47.9183 21.0217,49.1003 Z" style="stroke-width: 0.7500; stroke-linecap: butt; stroke-linejoin: miter; fill-rule: evenodd; fill: #8d98b5; "/>
      <path d="  M29.2327,57.2655 C26.9415,56.6048 24.8730,55.9193 22.8930,54.5130 C21.3503,53.4097 19.7160,51.8745 19.6935,49.7287 C19.6920,49.4325 19.7273,49.1265 19.7993,48.8175 C20.2095,47.1270 21.6188,45.5190 22.8930,44.4270 L22.9403,44.3902 L23.0513,44.3153 C23.2575,44.1428 23.4660,43.9740 23.6618,43.8143 C28.4093,39.8925 32.9955,35.0400 32.9580,30.1522 C32.9490,27.4073 32.1330,25.7468 31.0027,24.3375 C29.8673,22.9275 28.3658,21.8145 27.0810,20.3580 C26.9025,20.1600 26.6228,19.8450 26.6092,19.3177 C26.6078,19.1527 26.6460,18.9818 26.7165,18.8250 L26.7240,18.8085 C26.7592,18.7387 26.7765,18.7140 26.7653,18.7313 C26.7683,18.7313 26.7885,18.6742 26.8545,18.5843 C27.7133,17.4697 29.7450,16.5188 31.8172,15.6158 C33.8812,14.7435 35.9130,14.0505 36.5692,13.8502 C36.7335,13.7992 36.9135,13.8225 37.0628,13.9080 C37.2105,13.9935 37.3208,14.1383 37.3597,14.3040 C37.8420,16.3095 38.9887,18.7710 40.5285,21.5017 C41.5673,21.6630 42.4770,21.8070 43.3305,21.9645 C54.2835,23.9633 58.2045,27.5640 60.6390,31.4445 L60.7972,31.7025 L60.2655,32.0348 L60.7972,31.7025 C60.9098,31.8825 60.9232,32.1067 60.8340,32.3003 C60.7432,32.4922 60.5618,32.6273 60.3517,32.6565 C56.3032,33.2190 50.2882,34.7002 45.0308,36.2618 C45.2655,37.7205 45.3592,39.1837 45.3600,40.6035 C45.3585,43.0132 45.0893,45.2940 44.7667,47.1833 C43.9215,52.0800 40.9095,57.6803 40.6680,58.1243 L40.6432,58.1565 L40.6462,58.1580 C40.6462,58.1580 40.6462,58.1610 40.6418,58.1640 C40.6402,58.1655 40.6402,58.1700 40.6373,58.1715 L40.6373,58.1730 C40.6282,58.1918 40.6110,58.2187 40.5975,58.2480 C40.5653,58.3035 40.5360,58.3620 40.5360,58.3620 C40.4347,58.5465 40.2503,58.6695 40.0395,58.6905 C40.0290,58.6905 39.7740,58.7168 39.5535,58.7168 C39.5535,58.7168 39.5445,58.7183 39.5363,58.7183 C36.8610,58.6808 31.8293,58.0095 29.2327,57.2655 Z M21.0217,49.1003 C20.9722,49.3200 20.9467,49.5277 20.9467,49.7287 C20.9250,51.1305 22.1595,52.4632 23.6190,53.4893 C25.4153,54.7620 27.3135,55.4055 29.5777,56.0603 C31.9725,56.7548 36.8903,57.7433 39.3773,57.7695 L39.4867,57.8153 L39.5730,57.8242 C39.5865,57.8242 39.6817,57.8153 39.7005,57.8153 L39.7927,57.5970 C40.1542,56.9393 42.7808,51.4020 43.5278,46.9725 C43.8412,45.1357 44.1037,42.9225 44.1037,40.6050 C44.1037,39.0667 43.9868,37.4835 43.7010,35.9362 C43.6410,35.6198 43.8300,35.3123 44.1345,35.2200 C49.1693,33.7050 55.3402,32.4810 59.5883,31.7955 L59.3422,31.4145 C57.0322,28.0260 53.3302,25.1152 43.1017,23.2028 C42.1875,23.0332 41.1975,22.8787 40.0327,22.6980 C39.8453,22.6687 39.6765,22.5540 39.5842,22.3883 C38.0977,19.7767 37.1617,16.8293 36.5430,14.7083 L36.1387,14.8118 C35.2335,15.1170 33.7305,15.8138 32.1862,16.4685 L31.6695,16.6755 C29.7083,17.4818 28.3357,18.6735 27.8842,19.2975 C27.8813,19.3043 27.8767,19.3147 27.8685,19.3298 C27.8715,19.3350 27.8730,19.3425 27.8805,19.3552 C27.9007,19.3920 27.8190,19.5780 27.8820,19.6455 L27.9727,19.8112 C29.1502,21.1598 30.6098,22.2285 31.8810,23.7930 L32.0483,24.1447 C33.3210,25.7063 33.9997,27.1755 33.9908,30.1800 L33.9172,30.5880 C33.8790,36.2715 28.9635,40.3245 24.1778,44.3265 L23.7893,44.6430 C23.5860,44.8088 23.6280,44.8013 23.4188,44.9767 L23.2515,45.1613 L23.0858,45.3075 L22.8443,45.4935 C21.7043,46.4475 21.2782,47.9183 21.0217,49.1003 Z" style="stroke-width: 0.7500; stroke: #8d98b5; stroke-dasharray: none; stroke-linecap: butt; stroke-linejoin: miter; fill: none; "/>
    </g>
    <path xmlns="http://www.w3.org/2000/svg" d="  M22.8645,45.9660 L37.6200,37.4520 L37.1310,37.2210 L22.8645,45.3667 L22.8645,45.9660 Z" style="fill-rule: evenodd; fill: #3f3f3f; "/>
    <path xmlns="http://www.w3.org/2000/svg" d="  M22.8645,48.7845 L37.6200,40.2705 L37.0927,40.0215 L22.8645,48.1838 L22.8645,48.7845 Z" style="fill-rule: evenodd; fill: #3f3f3f; "/>
    <path xmlns="http://www.w3.org/2000/svg" d="  M22.8645,51.6022 L37.6200,43.0890 L37.0927,42.8415 L22.8645,51.0037 L22.8645,51.6022 Z" style="fill-rule: evenodd; fill: #3f3f3f; "/>
    <defs xmlns="http://www.w3.org/2000/svg" xmlns:xlink="http://www.w3.org/1999/xlink">
      <linearGradient id="grad4655">
        <stop offset="0%" stop-color="#646c6b" stop-opacity="1.0000"/>
        <stop offset="100%" stop-color="#dae1e1" stop-opacity="1.0000"/>
      </linearGradient>
      <linearGradient xlink:href="#grad4655" id="grad4656" x1="0" y1="0" x2="0" y2="1" gradientTransform="rotate(90 .5 .5)" gradientUnits="objectBoundingBox">
  </linearGradient>
    </defs>
    <path xmlns="http://www.w3.org/2000/svg" d="  M13.3583,21.3240 L0.0000,14.8290 L0.0000,51.9600 L0.5715,52.2952 C0.4485,52.1370 0.3360,51.9788 0.2332,51.8190 L0.2332,35.6647 L0.2332,32.0625 L0.2332,24.3525 L0.2332,16.5802 L12.3082,22.5488 C12.3082,22.5488 12.3540,22.5540 12.3773,22.5570 L12.3773,30.3840 L12.3773,38.0385 L12.3773,41.8688 L12.3773,57.7957 C11.1787,57.6885 9.9645,57.4530 8.7900,57.1208 L13.3590,59.8027 L13.3590,21.3240 L13.3583,21.3240 Z" style="fill-rule: evenodd; fill: url(#grad4656); "/>
    <defs xmlns="http://www.w3.org/2000/svg" xmlns:xlink="http://www.w3.org/1999/xlink">
      <linearGradient id="grad4657">
        <stop offset="0%" stop-color="#85919c" stop-opacity="0.9882"/>
        <stop offset="100%" stop-color="#dadfe1" stop-opacity="0.9882"/>
      </linearGradient>
      <linearGradient xlink:href="#grad4657" id="grad4658" x1="0" y1="0" x2="0" y2="1" gradientTransform="rotate(90 .5 .5)" gradientUnits="objectBoundingBox">
  </linearGradient>
    </defs>
    <path xmlns="http://www.w3.org/2000/svg" d="  M11.8665,41.8613 C11.8665,41.9198 11.7960,41.9700 11.7038,41.9700 C11.6963,41.9700 11.6790,41.9715 11.6790,41.9715 C8.0753,42.0255 3.3735,40.3883 0.7163,36.3248 C0.5363,36.1050 0.3735,35.8853 0.2325,35.6655 L0.2325,51.8198 C0.3353,51.9795 0.4478,52.1378 0.5708,52.2960 C2.1045,54.2558 5.2815,56.1248 8.7885,57.1215 C9.9630,57.4538 11.1780,57.6900 12.3758,57.7965 L12.3758,41.8688 C12.2018,41.8515 12.0240,41.8320 11.8470,41.8103 C11.8598,41.8260 11.8665,41.8440 11.8665,41.8613 Z M11.5065,55.7918 C11.3100,56.4098 10.2878,56.6370 9.2243,56.3018 C8.1578,55.9635 7.4550,55.1888 7.6493,54.5685 C7.8458,53.9505 8.8695,53.7218 9.9330,54.0600 C10.9965,54.3975 11.7015,55.1723 11.5065,55.7918 Z M11.7038,53.3153 C11.6963,53.3153 11.6790,53.3153 11.6790,53.3153 C7.9425,53.3723 3.0218,51.6068 0.4275,47.2035 C0.2400,46.8945 0.4643,46.9223 0.4643,46.9223 C2.1068,49.6980 6.9450,52.6118 11.6145,53.0820 C11.6348,53.0850 11.7023,53.0895 11.7113,53.0895 C11.8035,53.0895 11.8665,53.1450 11.8665,53.2035 C11.8665,53.2650 11.7968,53.3153 11.7038,53.3153 Z M11.7038,49.5330 C11.6963,49.5330 11.6790,49.5330 11.6790,49.5330 C7.9425,49.5900 3.0218,47.8245 0.4275,43.4228 C0.2400,43.1123 0.4643,43.1400 0.4643,43.1400 C2.1060,45.9173 6.9450,48.8310 11.6145,49.3013 C11.6348,49.3028 11.7023,49.3088 11.7113,49.3088 C11.8035,49.3088 11.8665,49.3628 11.8665,49.4228 C11.8665,49.4828 11.7968,49.5330 11.7038,49.5330 Z M11.7038,45.7523 C11.6963,45.7523 11.6790,45.7523 11.6790,45.7523 C7.9425,45.8078 3.0218,44.0453 0.4275,39.6420 C0.2400,39.3315 0.4643,39.3608 0.4643,39.3608 C2.1060,42.1350 6.9450,45.0503 11.6145,45.5190 C11.6348,45.5220 11.7023,45.5265 11.7113,45.5265 C11.8035,45.5265 11.8665,45.5820 11.8665,45.6420 C11.8665,45.7005 11.7968,45.7523 11.7038,45.7523 Z" style="fill-rule: evenodd; fill: url(#grad4658); "/>
    <defs xmlns="http://www.w3.org/2000/svg" xmlns:xlink="http://www.w3.org/1999/xlink">
      <linearGradient id="grad4659">
        <stop offset="0%" stop-color="#85919c" stop-opacity="0.9882"/>
        <stop offset="100%" stop-color="#dadfe1" stop-opacity="0.9882"/>
      </linearGradient>
      <linearGradient xlink:href="#grad4659" id="grad4660" x1="0" y1="0" x2="0" y2="1" gradientTransform="rotate(90 .5 .5)" gradientUnits="objectBoundingBox">
  </linearGradient>
    </defs>
    <path xmlns="http://www.w3.org/2000/svg" d="  M11.6145,30.3953 C11.6347,30.3968 11.7022,30.4028 11.7112,30.4028 C11.8035,30.4028 11.8665,30.4575 11.8665,30.5175 C11.8665,30.5775 11.7960,30.6263 11.7037,30.6263 C11.6962,30.6263 11.6790,30.6263 11.6790,30.6263 C8.1270,30.6818 3.5077,29.0888 0.8332,25.1505 C0.6030,24.8865 0.4027,24.6203 0.2325,24.3533 L0.2325,32.0633 C0.5017,32.4840 0.8505,32.9040 1.2697,33.3143 C0.9682,32.9288 0.6870,32.5170 0.4275,32.0798 C0.2400,31.7693 0.4642,31.7970 0.4642,31.7970 C1.5862,33.6953 4.2022,35.6580 7.2375,36.8595 C8.6670,37.3823 10.1895,37.7723 11.7052,37.9658 C11.7067,37.9658 11.7097,37.9658 11.7112,37.9658 C11.7172,37.9658 11.7247,37.9673 11.7315,37.9688 C11.9235,37.9935 12.1155,38.0160 12.3075,38.0333 C12.3307,38.0363 12.3532,38.0378 12.3765,38.0393 L12.3765,30.3833 C9.6810,30.1395 6.9187,29.2433 4.6567,28.0350 C6.7042,29.2418 9.1815,30.1500 11.6145,30.3953 Z M11.7037,34.4085 C11.6962,34.4085 11.6790,34.4100 11.6790,34.4100 C7.9425,34.4640 3.0217,32.7015 0.4275,28.2983 C0.2400,27.9878 0.4642,28.0155 0.4642,28.0155 C2.1060,30.7928 6.9450,33.7065 11.6145,34.1768 C11.6347,34.1798 11.7022,34.1828 11.7112,34.1828 C11.8035,34.1828 11.8665,34.2398 11.8665,34.2983 C11.8665,34.3583 11.7967,34.4085 11.7037,34.4085 Z" style="fill-rule: evenodd; fill: url(#grad4660); "/>
    <defs xmlns="http://www.w3.org/2000/svg" xmlns:xlink="http://www.w3.org/1999/xlink">
      <linearGradient id="grad4661">
        <stop offset="0%" stop-color="#c8d8dd" stop-opacity="0.9882"/>
        <stop offset="100%" stop-color="#f3f9f7" stop-opacity="0.9882"/>
      </linearGradient>
      <linearGradient xlink:href="#grad4661" id="grad4662" x1="0" y1="0" x2="0" y2="1" gradientTransform="rotate(90 .5 .5)" gradientUnits="objectBoundingBox">
  </linearGradient>
    </defs>
    <path xmlns="http://www.w3.org/2000/svg" d="  M12.3075,38.0325 C12.1155,38.0153 11.9235,37.9928 11.7315,37.9680 C11.8102,37.9770 11.8665,38.0250 11.8665,38.0790 C11.8665,38.1390 11.7960,38.1900 11.7037,38.1900 C11.6962,38.1900 11.6790,38.1900 11.6790,38.1900 C8.3130,38.2395 3.9885,36.8130 1.2697,33.3135 C0.8505,32.9033 0.5025,32.4833 0.2325,32.0625 L0.2325,35.6648 C0.3735,35.8845 0.5355,36.1043 0.7162,36.3240 C0.6195,36.1718 0.5212,36.0180 0.4275,35.8598 C0.2400,35.5493 0.4642,35.5785 0.4642,35.5785 C1.4445,37.2383 3.5700,38.9460 6.1185,40.1535 C7.3372,40.7318 8.6542,41.1923 9.9885,41.4810 C10.5292,41.5965 11.0722,41.6843 11.6145,41.7390 C11.6347,41.7405 11.7022,41.7465 11.7112,41.7465 C11.7742,41.7465 11.8237,41.7758 11.8477,41.8110 C12.0247,41.8328 12.2025,41.8523 12.3765,41.8695 L12.3765,38.0393 C12.3532,38.0363 12.3307,38.0355 12.3075,38.0325 Z" style="fill-rule: evenodd; fill: url(#grad4662); "/>
    <defs xmlns="http://www.w3.org/2000/svg" xmlns:xlink="http://www.w3.org/1999/xlink">
      <linearGradient id="grad4663">
        <stop offset="0%" stop-color="#bdd1dd" stop-opacity="0.9882"/>
        <stop offset="100%" stop-color="#f3f9f7" stop-opacity="0.9882"/>
      </linearGradient>
      <linearGradient xlink:href="#grad4663" id="grad4664" x1="0" y1="0" x2="0" y2="1" gradientTransform="rotate(90 .5 .5)" gradientUnits="objectBoundingBox">
  </linearGradient>
    </defs>
    <path xmlns="http://www.w3.org/2000/svg" d="  M12.3075,22.5487 L0.2325,16.5802 L0.2325,24.3525 C0.4027,24.6195 0.6030,24.8865 0.8332,25.1497 C0.6922,24.9450 0.5565,24.7357 0.4275,24.5167 C0.2400,24.2055 0.4642,24.2332 0.4642,24.2332 C1.2510,25.5637 2.7712,26.9257 4.6567,28.0342 C6.9187,29.2425 9.6810,30.1387 12.3765,30.3825 L12.3765,22.5570 C12.3532,22.5540 12.3075,22.5487 12.3075,22.5487 Z M0.6412,17.6138 L12.0090,23.2320 C6.3720,26.3475 0.8587,21.3240 0.6412,17.6138 Z" style="fill-rule: evenodd; fill: url(#grad4664); "/>
    <path xmlns="http://www.w3.org/2000/svg" d="  M11.7113,53.0895 C11.7022,53.0895 11.6347,53.0850 11.6145,53.0820 C6.9443,52.6118 2.1060,49.6980 0.4643,46.9223 C0.4643,46.9223 0.2400,46.8945 0.4275,47.2035 C3.0218,51.6068 7.9425,53.3723 11.6790,53.3145 C11.6790,53.3145 11.6963,53.3145 11.7037,53.3145 C11.7960,53.3145 11.8665,53.2650 11.8665,53.2035 C11.8665,53.1450 11.8035,53.0895 11.7113,53.0895 Z" style="fill-rule: evenodd; fill: #000000; "/>
    <path xmlns="http://www.w3.org/2000/svg" d="  M11.7113,49.3087 C11.7022,49.3087 11.6347,49.3027 11.6145,49.3012 C6.9443,48.8310 2.1060,45.9172 0.4643,43.1400 C0.4643,43.1400 0.2400,43.1122 0.4275,43.4227 C3.0218,47.8245 7.9425,49.5900 11.6790,49.5322 C11.6790,49.5322 11.6963,49.5322 11.7037,49.5322 C11.7960,49.5322 11.8665,49.4827 11.8665,49.4227 C11.8665,49.3627 11.8035,49.3087 11.7113,49.3087 Z" style="fill-rule: evenodd; fill: #000000; "/>
    <path xmlns="http://www.w3.org/2000/svg" d="  M11.7113,45.5265 C11.7022,45.5265 11.6347,45.5220 11.6145,45.5190 C6.9443,45.0503 2.1060,42.1350 0.4643,39.3608 C0.4643,39.3608 0.2400,39.3315 0.4275,39.6420 C3.0218,44.0453 7.9425,45.8078 11.6790,45.7515 C11.6790,45.7515 11.6963,45.7515 11.7037,45.7515 C11.7960,45.7515 11.8665,45.7005 11.8665,45.6420 C11.8665,45.5820 11.8035,45.5265 11.7113,45.5265 Z" style="fill-rule: evenodd; fill: #000000; "/>
    <path xmlns="http://www.w3.org/2000/svg" d="  M11.8478,41.8103 C11.2268,41.7353 10.6057,41.6228 9.9885,41.4810 C8.6543,41.1923 7.3373,40.7325 6.1185,40.1535 C3.5700,38.9468 1.4445,37.2383 0.4643,35.5785 C0.4643,35.5785 0.2400,35.5493 0.4275,35.8598 C0.5213,36.0180 0.6195,36.1718 0.7163,36.3240 C3.3735,40.3875 8.0760,42.0255 11.6790,41.9708 C11.6790,41.9708 11.6963,41.9693 11.7037,41.9693 C11.7960,41.9693 11.8665,41.9198 11.8665,41.8605 C11.8665,41.8440 11.8597,41.8260 11.8478,41.8103 Z" style="fill-rule: evenodd; fill: #000000; "/>
    <path xmlns="http://www.w3.org/2000/svg" d="  M11.7323,37.9680 C11.7233,37.9665 11.7150,37.9650 11.7060,37.9650 C11.6925,37.9650 11.6340,37.9605 11.6153,37.9575 C10.1370,37.8097 8.6430,37.4152 7.2383,36.8587 C4.2030,35.6572 1.5870,33.6945 0.4650,31.7962 C0.4650,31.7962 0.2408,31.7685 0.4283,32.0790 C0.6878,32.5170 0.9690,32.9287 1.2705,33.3135 C3.9893,36.8130 8.3138,38.2395 11.6798,38.1900 C11.6798,38.1900 11.6970,38.1900 11.7045,38.1900 C11.7968,38.1900 11.8673,38.1390 11.8673,38.0790 C11.8665,38.0250 11.8110,37.9762 11.7323,37.9680 Z" style="fill-rule: evenodd; fill: #000000; "/>
    <path xmlns="http://www.w3.org/2000/svg" d="  M11.7113,30.4027 C11.7022,30.4027 11.6347,30.3967 11.6145,30.3952 C9.1815,30.1500 6.7043,29.2417 4.6568,28.0357 C2.7713,26.9265 1.2510,25.5652 0.4643,24.2347 C0.4643,24.2347 0.2400,24.2070 0.4275,24.5182 C0.5565,24.7372 0.6930,24.9457 0.8333,25.1512 C3.5078,29.0895 8.1270,30.6825 11.6790,30.6270 C11.6790,30.6270 11.6963,30.6270 11.7037,30.6270 C11.7960,30.6270 11.8665,30.5782 11.8665,30.5182 C11.8665,30.4575 11.8035,30.4027 11.7113,30.4027 Z" style="fill-rule: evenodd; fill: #000000; "/>
    <path xmlns="http://www.w3.org/2000/svg" d="  M11.7113,34.1827 C11.7022,34.1827 11.6347,34.1797 11.6145,34.1767 C6.9443,33.7065 2.1060,30.7927 0.4643,28.0155 C0.4643,28.0155 0.2400,27.9877 0.4275,28.2982 C3.0218,32.7015 7.9425,34.4640 11.6790,34.4092 C11.6790,34.4092 11.6963,34.4077 11.7037,34.4077 C11.7960,34.4077 11.8665,34.3582 11.8665,34.2982 C11.8665,34.2397 11.8035,34.1827 11.7113,34.1827 Z" style="fill-rule: evenodd; fill: #000000; "/>
    <defs xmlns="http://www.w3.org/2000/svg">
      <linearGradient id="grad4665">
        <stop offset="0%" stop-color="#646c6b" stop-opacity="1.0000"/>
        <stop offset="100%" stop-color="#dae1e1" stop-opacity="1.0000"/>
      </linearGradient>
    </defs>
    <path xmlns="http://www.w3.org/2000/svg" d="  M9.9330,54.0607 C8.8695,53.7225 7.8458,53.9512 7.6493,54.5692 C7.4543,55.1887 8.1578,55.9635 9.2243,56.3025 C10.2878,56.6377 11.3100,56.4112 11.5065,55.7925 C11.7015,55.1722 10.9965,54.3975 9.9330,54.0607 Z M10.7370,56.1300 C10.3418,56.5035 9.6585,56.4187 9.2093,55.9425 C9.0660,55.7887 8.9648,55.6132 8.9048,55.4310 C8.8665,55.3140 8.8478,55.1955 8.8463,55.0792 C8.8433,54.8227 8.9310,54.5782 9.1155,54.4057 C9.5108,54.0352 10.1948,54.1170 10.6417,54.5932 C11.0903,55.0710 11.1315,55.7580 10.7370,56.1300 Z" style="fill-rule: evenodd; fill: url(#grad4665); "/>
    <path xmlns="http://www.w3.org/2000/svg" d="  M9.1155,54.4065 C8.9310,54.5790 8.8432,54.8242 8.8462,55.0800 C8.8537,54.8970 8.9227,54.7252 9.0540,54.6022 C9.1612,54.5010 9.2940,54.4440 9.4395,54.4282 C9.7238,54.3562 10.0620,54.4560 10.3050,54.7140 C10.6335,55.0612 10.6598,55.5727 10.3710,55.8652 C10.3507,55.8900 10.3297,55.9125 10.3080,55.9342 C10.0020,56.2230 9.4732,56.1585 9.1290,55.7895 C9.0247,55.6807 8.9520,55.5577 8.9047,55.4317 C8.9647,55.6132 9.0660,55.7895 9.2092,55.9432 C9.6592,56.4195 10.3417,56.5042 10.7370,56.1307 C11.1307,55.7587 11.0902,55.0717 10.6417,54.5940 C10.1955,54.1177 9.5115,54.0352 9.1155,54.4065 Z" style="fill-rule: evenodd; fill: #000000; "/>
    <defs xmlns="http://www.w3.org/2000/svg">
      <radialGradient id="grad4666" cx="50.0000%" cy="50.0000%" r="100.0000%">
        <stop offset="0%" stop-color="#ccff66" stop-opacity="1.0000"/>
        <stop offset="100%" stop-color="#7ab04a" stop-opacity="1.0000"/>
      </radialGradient>
    </defs>
    <path xmlns="http://www.w3.org/2000/svg" d="  M10.3080,55.9342 C10.3298,55.9125 10.3508,55.8900 10.3710,55.8652 C10.6598,55.5720 10.6335,55.0612 10.3050,54.7140 C10.0620,54.4560 9.7238,54.3562 9.4395,54.4282 C9.2948,54.4440 9.1613,54.5017 9.0540,54.6022 C8.9220,54.7252 8.8530,54.8970 8.8463,55.0800 C8.8478,55.1955 8.8665,55.3147 8.9048,55.4317 C8.9520,55.5577 9.0248,55.6807 9.1290,55.7895 C9.4733,56.1585 10.0020,56.2230 10.3080,55.9342 Z" style="fill-rule: evenodd; fill: url(#grad4666); "/>
    <defs xmlns="http://www.w3.org/2000/svg" xmlns:xlink="http://www.w3.org/1999/xlink">
      <linearGradient id="grad4667">
        <stop offset="0%" stop-color="#7f8787" stop-opacity="1.0000"/>
        <stop offset="100%" stop-color="#f3f9f7" stop-opacity="1.0000"/>
      </linearGradient>
      <linearGradient xlink:href="#grad4667" id="grad4668" x1="0" y1="0" x2="0" y2="1" gradientTransform="rotate(315 .5 .5)" gradientUnits="objectBoundingBox">
  </linearGradient>
    </defs>
    <path xmlns="http://www.w3.org/2000/svg" d="  M0.6413,17.6137 C0.8580,21.3240 6.3720,26.3482 12.0082,23.2320 L0.6413,17.6137 Z M2.8215,18.8325 L10.0882,22.3942 C6.4132,24.2182 2.9152,21.0915 2.8215,18.8325 Z" style="fill-rule: evenodd; fill: url(#grad4668); "/>
    <defs xmlns="http://www.w3.org/2000/svg">
      <radialGradient id="grad4669" cx="50.0000%" cy="50.0000%" r="100.0000%">
        <stop offset="0%" stop-color="#a7e968" stop-opacity="1.0000"/>
        <stop offset="100%" stop-color="#000000" stop-opacity="1.0000"/>
      </radialGradient>
    </defs>
    <path xmlns="http://www.w3.org/2000/svg" d="  M2.8215,18.8325 C2.9153,21.0915 6.4132,24.2183 10.0882,22.3943 L2.8215,18.8325 Z" style="fill-rule: evenodd; fill: url(#grad4669); "/>
    <defs xmlns="http://www.w3.org/2000/svg" xmlns:xlink="http://www.w3.org/1999/xlink">
      <linearGradient id="grad4670">
        <stop offset="0%" stop-color="#7f8787" stop-opacity="1.0000"/>
        <stop offset="100%" stop-color="#dae1e1" stop-opacity="1.0000"/>
      </linearGradient>
      <linearGradient xlink:href="#grad4670" id="grad4671" x1="0" y1="0" x2="0" y2="1" gradientTransform="rotate(45 .5 .5)" gradientUnits="objectBoundingBox">
  </linearGradient>
    </defs>
    <path xmlns="http://www.w3.org/2000/svg" d="  M13.3890,21.2933 L13.3680,21.2835 L13.3680,59.5567 L37.6215,45.8677 L37.6215,43.1243 L22.8645,51.6022 L22.8645,51.0038 L37.0927,42.8415 L37.6215,42.5362 L37.6215,40.3057 L22.8645,48.7845 L22.8645,48.1838 L37.0927,40.0215 L37.6215,39.7170 L37.6215,37.4872 L22.8645,45.9660 L22.8645,45.3667 L37.1310,37.2210 L37.6215,36.9397 L37.6215,7.1430 L34.3665,9.0142 L13.3890,21.2933 Z" style="fill-rule: evenodd; fill: url(#grad4671); "/>
    <defs xmlns="http://www.w3.org/2000/svg" xmlns:xlink="http://www.w3.org/1999/xlink">
      <linearGradient id="grad4672">
        <stop offset="0%" stop-color="#7f8787" stop-opacity="1.0000"/>
        <stop offset="100%" stop-color="#f3f9f7" stop-opacity="1.0000"/>
      </linearGradient>
      <linearGradient xlink:href="#grad4672" id="grad4673" x1="0" y1="0" x2="0" y2="1" gradientTransform="rotate(90 .5 .5)" gradientUnits="objectBoundingBox">
  </linearGradient>
    </defs>
    <path xmlns="http://www.w3.org/2000/svg" d="  M25.7948,0.0008 L0.1245,14.8193 L13.3680,21.2835 L37.6215,7.1085 L25.7948,0.0008 Z" style="fill-rule: evenodd; fill: url(#grad4673); "/>
    <path xmlns="http://www.w3.org/2000/svg" d="  M60.2655,32.0363 L60.1058,31.7798 C57.7358,28.0373 54.0870,24.5925 43.2158,22.5847 C42.2917,22.4138 41.2950,22.2563 40.1310,22.0778 C38.5050,19.2188 37.2743,16.6282 36.7500,14.4547 C35.5050,14.8312 28.6245,17.2237 27.3600,18.9563 C27.3427,18.9817 27.3323,19.0035 27.3187,19.0282 C27.3098,19.0440 27.3000,19.0620 27.2910,19.0778 C27.2910,19.0800 27.2895,19.0838 27.2880,19.0867 C27.1372,19.4235 27.3540,19.7363 27.5340,19.9245 C30.0128,22.7497 33.5835,24.4065 33.5835,30.1552 C33.5835,35.4413 28.8255,40.3395 24.0623,44.2988 C23.8545,44.4660 23.6460,44.6385 23.4322,44.8147 L23.2958,44.9100 C22.0860,45.9308 20.7428,47.5200 20.4082,48.9585 C19.9148,51.0930 21.5423,52.7873 23.2545,54.0008 C25.1430,55.3410 27.1260,56.0078 29.4037,56.6625 C31.9012,57.3817 36.9577,58.0583 39.5438,58.0905 C39.7125,58.0920 39.9818,58.0672 39.9818,58.0672 C39.9818,58.0672 40.1062,57.8325 40.1213,57.8197 C40.3425,57.4215 43.3395,51.8168 44.1495,47.0798 C44.6753,43.9815 45.0608,39.8258 44.3182,35.8207 C49.7227,34.1955 56.0168,32.6287 60.2655,32.0363 Z" style="fill-rule: evenodd; fill: #ffffff; "/>
    <defs xmlns="http://www.w3.org/2000/svg">
      <radialGradient id="grad4674" cx="100.0000%" cy="0.0000%" r="100.0000%">
        <stop offset="0%" stop-color="#efeff0" stop-opacity="1.0000"/>
        <stop offset="100%" stop-color="#8f9ba8" stop-opacity="1.0000"/>
      </radialGradient>
    </defs>
    <path xmlns="http://www.w3.org/2000/svg" d="  M44.3362,35.5875 C44.2980,35.3985 43.5712,35.8245 43.3837,35.8643 C43.6252,37.3118 43.7497,38.7458 43.7880,40.1288 C42.4650,39.4403 39.9150,37.7820 39.2340,37.1948 L38.8065,37.4130 C38.7990,37.3485 38.7907,37.2870 38.7833,37.2300 L38.0902,37.4618 C37.8705,37.6290 37.9538,37.4340 37.9845,37.7018 C38.2072,39.4980 37.8630,41.4765 37.2172,43.4678 C35.8507,42.3225 34.6080,40.7093 34.2652,39.1785 C34.1205,39.2325 33.9735,39.2895 33.8257,39.3443 C33.6555,39.4073 33.5647,39.3750 33.6180,39.5565 C34.1895,41.5695 35.7262,43.1805 36.8040,44.0415 C35.5380,44.5470 34.1130,45.0653 32.5065,45.6015 C31.9335,45.7935 31.1805,46.0380 30.3075,46.3163 C31.1070,45.1710 32.9512,41.6100 33.6022,39.4080 L32.6220,39.8003 C31.5352,42.3945 29.8297,45.0945 29.1315,46.1970 C29.0947,46.2585 29.0550,46.3155 29.0175,46.3770 C28.3102,45.0615 28.0665,43.5765 28.5982,41.9123 L28.5780,41.9430 C28.6732,41.6633 27.7282,42.3690 27.6360,42.4073 C27.3607,42.5303 27.3825,42.7343 27.3270,43.0065 C27.2467,43.4153 27.2055,43.8345 27.2100,44.2575 C27.2220,45.1950 27.5557,46.1295 28.0860,47.0115 C26.0100,47.6505 23.6122,48.3578 21.3510,48.9645 C21.3630,48.8880 21.3697,48.8123 21.3862,48.7358 C21.7027,47.0940 23.3640,45.0413 25.2240,43.9500 L25.6740,43.4063 L23.1165,45.1860 C21.8902,46.2218 20.5312,47.8313 20.1952,49.2878 C19.6942,51.4500 21.3405,53.1668 23.0752,54.3945 C24.9855,55.7528 26.9955,56.4278 29.3040,57.0930 C31.8337,57.8198 36.9547,58.5053 39.5737,58.5375 C39.7455,58.5405 40.0177,58.5128 40.0177,58.5128 C40.0177,58.5128 40.1438,58.2773 40.1587,58.2608 C40.3845,57.8610 43.4167,52.1820 44.2380,47.3828 C44.7877,44.1450 45.1920,39.7635 44.3362,35.5875 Z M38.8297,37.6590 C39.9270,38.3903 42.7672,40.0470 43.7677,40.4288 C42.4703,41.3880 40.6357,42.4223 38.0288,43.5360 C38.7667,40.9403 38.9280,38.8763 38.8297,37.6590 Z M33.2662,46.3290 C34.4745,45.9173 35.6145,45.4575 36.6675,44.9873 C35.8605,47.0205 34.8000,49.0140 33.7657,50.7795 C33.7582,50.7825 33.7500,50.7855 33.7395,50.7885 C33.2265,50.4998 32.7345,50.1893 32.2762,49.8540 C31.2847,49.1288 30.3780,48.3128 29.6820,47.4008 C30.9067,47.0760 32.1105,46.7228 33.2662,46.3290 Z M21.3412,49.3950 C23.5080,48.8618 25.8105,48.3668 28.0777,47.8088 C26.3962,50.3123 24.9367,52.1535 24.0742,53.5748 C22.8015,52.5705 21.4245,50.9813 21.3412,49.3950 Z M24.3885,53.8088 C25.7482,51.8063 27.3960,49.9755 28.8915,48.1395 C29.2620,48.5880 29.6707,49.0140 30.1027,49.4093 C30.8715,50.1098 31.7392,50.6970 32.6415,51.1845 C30.0090,52.1340 27.2655,53.1120 24.6592,54.0030 C24.5700,53.9393 24.4792,53.8778 24.3885,53.8088 Z M30.2137,56.5418 C30.0600,56.4990 29.9190,56.4570 29.7960,56.4158 C27.4597,55.6350 26.4007,55.1865 24.9840,54.2318 C26.0662,53.9243 30.7702,52.6920 33.0615,51.9555 C31.7767,54.0593 30.6360,55.7160 30.2182,56.5305 C30.2167,56.5350 30.2152,56.5373 30.2137,56.5418 Z M39.7470,58.2150 C37.9305,57.9983 34.2022,57.4283 31.7062,56.8980 C35.1660,56.0955 37.4437,55.7423 41.3452,53.8733 C40.7122,55.7670 40.0867,57.4793 39.7470,58.2150 Z M31.0755,56.7233 C31.0537,56.7278 31.0327,56.7368 31.0140,56.7435 C30.9015,56.7188 30.7897,56.6910 30.6847,56.6648 C32.0662,55.0553 33.2280,53.4668 34.2007,51.9248 C37.5600,53.3280 40.9275,53.5830 41.3610,53.6258 C39.7717,54.2408 31.4767,56.6063 31.0755,56.7233 Z M43.1003,47.8845 C42.8040,49.2338 42.1627,51.3780 41.5035,53.3955 C39.2752,53.0160 36.8700,52.3335 34.7505,51.3143 C37.0665,50.3340 41.8845,48.1470 43.2292,47.2538 C43.1895,47.4705 43.1437,47.6813 43.1003,47.8845 Z M43.2952,46.8915 C41.9257,47.7135 37.3365,49.4580 35.1915,50.2575 C36.3120,48.2490 37.1205,46.3583 37.6830,44.6528 C40.0545,46.1048 42.5347,46.7138 43.2975,46.8795 C43.2975,46.8825 43.2967,46.8870 43.2952,46.8915 Z M43.3402,46.6335 C41.5177,46.1295 39.8040,45.2505 38.2575,44.2358 C41.4667,42.6345 43.5645,41.0895 43.8007,40.8450 C43.8150,42.9788 43.6275,44.9625 43.3402,46.6335 Z" style="fill-rule: evenodd; fill: url(#grad4674); "/>
    <defs xmlns="http://www.w3.org/2000/svg">
      <radialGradient id="grad4675" cx="100.0000%" cy="100.0000%" r="100.0000%">
        <stop offset="0%" stop-color="#efeff0" stop-opacity="1.0000"/>
        <stop offset="100%" stop-color="#8f9ba8" stop-opacity="1.0000"/>
      </radialGradient>
    </defs>
    <path xmlns="http://www.w3.org/2000/svg" d="  M28.6305,20.4480 C27.7777,19.7850 28.6845,18.8505 29.2177,18.4013 C29.4270,18.2258 29.6647,18.0495 29.9182,17.8748 C30.5820,18.7043 32.2822,20.8703 32.9370,21.5550 L34.1190,21.4703 C33.5182,20.9363 30.9142,18.3563 30.1755,17.7045 C30.1860,17.6963 30.1957,17.6888 30.2047,17.6858 C31.4190,18.1665 35.5717,18.9870 37.7542,19.1175 C37.7587,19.1295 37.7647,19.1408 37.7700,19.1520 C36.9982,19.5353 35.6002,20.2185 34.0890,21.2175 L35.0775,21.3810 C36.2160,20.7983 37.0275,20.2088 37.8960,19.4385 C38.2897,20.3295 38.7825,21.2603 39.3840,22.2690 L40.3432,22.3740 C38.6077,19.3538 37.2907,16.6215 36.7425,14.3415 C35.4795,14.7225 28.5097,17.1458 27.2310,18.9008 C26.7345,19.5795 28.1707,20.1098 28.6305,20.4480 Z M36.6097,14.6783 C36.7282,15.9998 37.0290,17.2665 37.5487,18.6075 C35.9272,18.1808 31.9762,17.5973 30.6202,17.4270 C32.9632,16.0238 36.2152,14.8478 36.6097,14.6783 Z" style="fill-rule: evenodd; fill: url(#grad4675); "/>
    <defs xmlns="http://www.w3.org/2000/svg">
      <radialGradient id="grad4676" cx="50.0000%" cy="50.0000%" r="100.0000%">
        <stop offset="0%" stop-color="#ffd300" stop-opacity="1.0000"/>
        <stop offset="100%" stop-color="#f69227" stop-opacity="1.0000"/>
      </radialGradient>
    </defs>
    <path xmlns="http://www.w3.org/2000/svg" d="  M60.3983,31.8825 C57.9975,28.0905 54.3015,24.6015 43.2915,22.5698 C40.9613,22.1393 38.2058,21.7973 33.3893,20.9573 C31.6987,20.6625 26.6362,19.8855 27.2693,18.8475 C26.9265,19.2533 27.1912,19.6500 27.4057,19.8735 C29.9197,22.7333 33.5362,24.4125 33.5362,30.2355 C33.5362,35.5913 28.7152,40.5510 23.8905,44.5635 C23.6340,44.7698 23.3745,44.9828 23.1067,45.2048 C28.9343,41.6543 32.5710,40.1963 37.0890,38.4345 C42.7680,36.2243 54.0458,33.0495 60.5603,32.1413 L60.3983,31.8825 Z M37.3755,37.3103 C37.3860,36.0375 37.0665,35.0453 36.6053,34.2825 C38.2005,33.3188 40.0373,32.2875 42.0795,31.2795 C40.8668,33.0578 39.3112,35.0723 37.3800,37.3073 C37.3785,37.3073 37.3770,37.3103 37.3755,37.3103 Z M37.9118,22.6283 C37.9252,22.6298 37.9380,22.6320 37.9500,22.6335 C38.4113,24.0233 38.5725,25.5218 38.4390,27.0623 C36.9960,26.5763 35.5545,26.1878 34.1895,25.8173 C35.0857,24.7710 36.4230,23.7405 37.9118,22.6283 Z M42.1860,30.1905 C40.4430,31.0245 38.8680,31.9095 37.4528,32.7960 C38.2597,31.3545 38.7652,29.9445 39.0127,28.6058 C40.0485,29.0573 41.1255,29.5853 42.1860,30.1905 Z M39.8160,27.5580 C41.4345,26.4135 43.3320,25.2068 45.4560,24.0878 C45.3405,25.3380 44.6663,27.0818 43.3567,29.2815 C42.2257,28.5870 41.0303,28.0305 39.8160,27.5580 Z M34.1955,32.1653 C34.9028,31.4843 36.2685,30.2318 38.1697,28.7723 C37.8052,30.3960 37.1227,32.0378 36.1275,33.6173 C35.4803,32.8553 34.7197,32.4045 34.1955,32.1653 Z M35.1637,34.3170 C33.9863,35.1473 32.9520,35.9505 32.0467,36.6855 C32.8042,35.6048 33.3195,34.4813 33.6510,33.3458 C34.2465,33.6300 34.7475,33.9600 35.1637,34.3170 Z M37.7257,28.0793 C36.6225,28.9718 35.4232,30.0533 34.0492,31.4138 C34.2457,29.8500 34.1460,28.3215 33.9097,26.9438 C34.9582,27.1440 36.2828,27.5258 37.7257,28.0793 Z M34.8908,35.3498 C33.3983,37.2075 31.4512,38.9280 29.0565,40.3755 C29.8928,39.5348 30.6150,38.6925 31.2278,37.8563 C32.1120,37.2180 33.3473,36.3420 34.8908,35.3498 Z M35.9108,35.0925 C36.5363,35.8898 36.8392,36.7448 36.9083,37.4873 C34.2645,38.5035 32.1518,39.3518 30.1335,40.4010 C32.6175,38.6693 34.5135,36.8738 35.9108,35.0925 Z M43.4573,30.9540 C44.8755,31.8563 46.2300,32.8935 47.3992,34.0523 C44.6655,34.7775 41.5560,35.7428 38.1150,37.0290 C40.5293,34.8915 42.2520,32.8455 43.4573,30.9540 Z M44.5755,30.1088 C47.2312,28.9298 50.1743,27.8273 53.3370,26.9588 C52.3073,28.7108 50.6183,30.6053 48.0795,33.8663 L48.0900,33.8723 C48.0825,33.8738 48.0728,33.8768 48.0637,33.8798 L48.0795,33.8663 C47.0918,32.3168 45.8947,31.0988 44.5755,30.1088 Z M52.8518,26.5710 C49.7393,27.2385 46.9515,28.1438 44.4667,29.1735 C45.4073,27.2828 45.8288,25.5893 45.9360,24.1778 C47.6355,24.6023 49.3170,25.1153 50.9603,25.7670 C51.6225,26.0130 52.2540,26.2830 52.8518,26.5710 Z M44.7788,23.9010 C42.7853,24.7770 41.0872,25.6193 39.1980,26.9625 C39.2550,25.3763 38.9490,23.9303 38.3865,22.7055 C40.5293,23.0535 42.6698,23.4203 44.7788,23.9010 Z M37.4108,22.5465 C36.5348,22.9905 34.5233,24.2025 33.5700,25.3740 C33.1028,23.5748 32.4773,22.1805 32.1548,21.5333 C34.1190,21.9780 36.2010,22.3463 37.4108,22.5465 Z M28.8900,20.6355 C29.6692,20.9115 30.6622,21.1808 31.7115,21.4298 C32.1772,22.7610 32.5462,23.9708 32.8350,25.0733 C31.9245,23.3835 30.5670,21.8798 28.8900,20.6355 Z M48.9037,33.6668 C51.3428,31.4018 52.5158,29.9753 53.8463,27.0840 C56.6633,28.6185 58.6245,30.4808 59.6325,31.6545 C59.6850,31.7145 59.7803,31.7955 59.8950,31.8713 C58.5473,31.9470 54.7005,32.2418 48.9037,33.6668 Z" style="fill-rule: evenodd; fill: url(#grad4676); "/>
    <!--converted by libvisio2svg-->
  </g>
</svg>
