<svg xmlns="http://www.w3.org/2000/svg" xmlns:xlink="http://www.w3.org/1999/xlink" version="1.1" width="0.3515000000" height="0.8583000000" viewBox="0 0 25.3095 61.7977">
  <title><![CDATA[Smart Phone]]></title>
  <g transform=" scale(1.000000) ">
    <path xmlns="http://www.w3.org/2000/svg" d="  M13.6845,4.8473 C6.5655,0.7373 3.6240,0.0000 2.6573,0.5933 L0.4027,1.8953 C0.1192,2.0685 0.0007,2.3865 0.0000,2.7368 L0.0000,45.8063 C0.0000,47.3535 2.4263,51.4088 11.4233,56.6032 C18.1703,60.4987 21.3352,60.8332 22.4970,60.1043 L24.5257,58.8885 C25.0837,58.5795 25.3087,58.2367 25.3095,57.7800 L25.3095,14.7105 C25.3095,13.1632 22.8832,10.1588 13.6845,4.8473 Z" style="stroke-width: 1.5000; stroke: #8d98b5; stroke-dasharray: none; stroke-linecap: butt; stroke-linejoin: miter; fill: none; "/>
    <defs xmlns="http://www.w3.org/2000/svg" xmlns:xlink="http://www.w3.org/1999/xlink">
      <linearGradient id="grad4677">
        <stop offset="0%" stop-color="#7f8787" stop-opacity="1.0000"/>
        <stop offset="100%" stop-color="#f3f9f7" stop-opacity="1.0000"/>
      </linearGradient>
      <linearGradient xlink:href="#grad4677" id="grad4678" x1="0" y1="0" x2="0" y2="1" gradientTransform="rotate(135 .5 .5)" gradientUnits="objectBoundingBox">
  </linearGradient>
    </defs>
    <path xmlns="http://www.w3.org/2000/svg" d="  M13.6845,4.8473 C6.5655,0.7373 3.6240,0.0000 2.6573,0.5933 L0.4027,1.8953 C0.1192,2.0685 0.0007,2.3865 0.0000,2.7368 L0.0000,45.8063 C0.0000,47.3535 2.4263,51.4088 11.4233,56.6032 C18.1703,60.4987 21.3352,60.8332 22.4970,60.1043 L24.5257,58.8885 C25.0837,58.5795 25.3087,58.2367 25.3095,57.7800 L25.3095,14.7105 C25.3095,13.1632 22.8832,10.1588 13.6845,4.8473 Z" style="fill-rule: evenodd; fill: url(#grad4678); "/>
    <defs xmlns="http://www.w3.org/2000/svg" xmlns:xlink="http://www.w3.org/1999/xlink">
      <linearGradient id="grad4679">
        <stop offset="0%" stop-color="#080808" stop-opacity="1.0000"/>
        <stop offset="100%" stop-color="#8e8e8e" stop-opacity="1.0000"/>
      </linearGradient>
      <linearGradient xlink:href="#grad4679" id="grad4680" x1="0" y1="0" x2="0" y2="1" gradientTransform="rotate(135 .5 .5)" gradientUnits="objectBoundingBox">
  </linearGradient>
    </defs>
    <path xmlns="http://www.w3.org/2000/svg" d="  M23.0475,59.1127 C23.0475,60.6600 20.4195,61.7977 11.4232,56.6032 C2.4262,51.4088 0.0000,47.3535 0.0000,45.8062 L0.0000,2.7367 C0.0000,1.1895 2.2245,0.8692 11.4225,6.1800 C20.6220,11.4907 23.0475,14.4960 23.0475,16.0433 L23.0475,59.1127 Z" style="fill-rule: evenodd; fill: url(#grad4680); "/>
    <path xmlns="http://www.w3.org/2000/svg" d="  M11.7323,56.0670 C2.6767,50.8192 0.6495,47.0228 0.6180,45.8062 L0.6180,2.7367 C0.6187,2.6385 0.6300,2.5830 0.6480,2.5380 L0.7312,2.3310 L0.8625,2.3962 C0.8715,2.3948 0.8805,2.3925 0.8902,2.3903 C0.9607,2.3753 1.0620,2.3625 1.1992,2.3640 C2.3475,2.3708 4.9080,3.1373 11.1135,6.7155 C21.5250,12.7425 22.4002,15.2347 22.4310,16.0432 L22.4295,59.1127 C22.4235,59.4757 22.1107,59.6445 21.8617,59.7105 C21.5977,59.7847 21.3150,59.7945 21.1425,59.7952 L21.1425,59.5898 L21.1425,59.3843 C21.2947,59.3843 21.5527,59.3708 21.7492,59.3153 C21.9592,59.2508 22.0252,59.1795 22.0185,59.1128 L22.0185,16.0432 C22.0485,15.5955 21.3052,13.0590 10.9080,7.0725 C4.7347,3.5025 2.1705,2.7682 1.2000,2.7757 C1.1280,2.7757 1.0732,2.7795 1.0305,2.7848 L1.0297,45.8062 C0.9997,46.6628 2.9287,50.5305 11.9392,55.7107 C17.4967,58.9215 20.1210,59.3843 21.1425,59.3827 L21.1425,59.5882 L21.1425,59.7938 C19.9965,59.7937 17.3242,59.2957 11.7323,56.0670 Z" style="fill-rule: evenodd; fill: #333333; "/>
    <path xmlns="http://www.w3.org/2000/svg" d="  M20.9250,35.1195 C20.9250,35.5102 20.6602,35.6745 20.3355,35.4870 L2.7127,25.3125 C2.3865,25.1242 2.1232,24.6555 2.1232,24.2647 L2.1232,6.0705 C2.1232,5.6798 2.3872,5.5155 2.7127,5.7037 L20.3355,15.8782 C20.6610,16.0665 20.9250,16.5352 20.9250,16.9260 L20.9250,35.1195 Z" style="fill-rule: evenodd; fill: #333333; "/>
    <path xmlns="http://www.w3.org/2000/svg" d="  M20.6220,41.8920 C20.6220,42.3135 20.2147,42.4207 19.7122,42.1305 L3.3360,32.6752 C2.8335,32.3857 2.4262,31.8082 2.4262,31.3867 L2.4262,27.3120 C2.4262,26.8905 2.8335,26.7832 3.3360,27.0735 L19.7122,36.5280 C20.2147,36.8182 20.6220,37.3950 20.6220,37.8172 L20.6220,41.8920 Z" style="fill-rule: evenodd; fill: #959999; "/>
    <g xmlns="http://www.w3.org/2000/svg" id="Layer1121">
      <path d="  M9.7552,40.0305 C9.7552,40.2240 9.6195,40.3020 9.4522,40.2053 L7.9365,39.3293 C7.7685,39.2325 7.6335,38.9978 7.6335,38.8050 L7.6335,36.7035 C7.6335,36.5100 7.7692,36.4320 7.9365,36.5287 L9.4522,37.4040 C9.6202,37.5007 9.7552,37.7355 9.7552,37.9290 L9.7552,40.0305 Z" style="stroke-width: 0.7500; stroke-linecap: butt; stroke-linejoin: miter; fill-rule: evenodd; fill: #ffffff; "/>
      <path d="  M9.7552,40.0305 C9.7552,40.2240 9.6195,40.3020 9.4522,40.2053 L7.9365,39.3293 C7.7685,39.2325 7.6335,38.9978 7.6335,38.8050 L7.6335,36.7035 C7.6335,36.5100 7.7692,36.4320 7.9365,36.5287 L9.4522,37.4040 C9.6202,37.5007 9.7552,37.7355 9.7552,37.9290 L9.7552,40.0305 Z" style="stroke-width: 0.7500; stroke: #333333; stroke-dasharray: none; stroke-linecap: butt; stroke-linejoin: miter; fill: none; "/>
    </g>
    <g xmlns="http://www.w3.org/2000/svg" id="Layer1122">
      <path d="  M12.5857,41.6647 C12.5857,41.8582 12.4492,41.9362 12.2820,41.8395 L10.7662,40.9642 C10.5982,40.8675 10.4632,40.6320 10.4632,40.4385 L10.4632,38.3377 C10.4632,38.1442 10.5990,38.0662 10.7662,38.1630 L12.2820,39.0382 C12.4500,39.1350 12.5857,39.3697 12.5857,39.5632 L12.5857,41.6647 Z" style="stroke-width: 0.7500; stroke-linecap: butt; stroke-linejoin: miter; fill-rule: evenodd; fill: #ffffff; "/>
      <path d="  M12.5857,41.6647 C12.5857,41.8582 12.4492,41.9362 12.2820,41.8395 L10.7662,40.9642 C10.5982,40.8675 10.4632,40.6320 10.4632,40.4385 L10.4632,38.3377 C10.4632,38.1442 10.5990,38.0662 10.7662,38.1630 L12.2820,39.0382 C12.4500,39.1350 12.5857,39.3697 12.5857,39.5632 L12.5857,41.6647 Z" style="stroke-width: 0.7500; stroke: #333333; stroke-dasharray: none; stroke-linecap: butt; stroke-linejoin: miter; fill: none; "/>
    </g>
    <g xmlns="http://www.w3.org/2000/svg" id="Layer1123">
      <path d="  M4.0942,40.2645 C4.0942,40.4572 3.9585,40.5352 3.7912,40.4385 L2.2755,39.5633 C2.1075,39.4665 1.9725,39.2318 1.9725,39.0383 L1.9725,36.9375 C1.9725,36.7433 2.1082,36.6653 2.2755,36.7620 L3.7912,37.6380 C3.9592,37.7348 4.0942,37.9688 4.0942,38.1630 L4.0942,40.2645 Z" style="stroke-width: 0.7500; stroke-linecap: butt; stroke-linejoin: miter; fill-rule: evenodd; fill: #ffffff; "/>
      <path d="  M4.0942,40.2645 C4.0942,40.4572 3.9585,40.5352 3.7912,40.4385 L2.2755,39.5633 C2.1075,39.4665 1.9725,39.2318 1.9725,39.0383 L1.9725,36.9375 C1.9725,36.7433 2.1082,36.6653 2.2755,36.7620 L3.7912,37.6380 C3.9592,37.7348 4.0942,37.9688 4.0942,38.1630 L4.0942,40.2645 Z" style="stroke-width: 0.7500; stroke: #333333; stroke-dasharray: none; stroke-linecap: butt; stroke-linejoin: miter; fill: none; "/>
    </g>
    <g xmlns="http://www.w3.org/2000/svg" id="Layer1124">
      <path d="  M6.9247,41.8980 C6.9247,42.0915 6.7882,42.1703 6.6210,42.0735 L5.1052,41.1975 C4.9380,41.1008 4.8022,40.8660 4.8022,40.6725 L4.8022,38.5718 C4.8022,38.3775 4.9387,38.3003 5.1060,38.3970 L6.6217,39.2723 C6.7890,39.3690 6.9247,39.6038 6.9247,39.7973 L6.9247,41.8980 Z" style="stroke-width: 0.7500; stroke-linecap: butt; stroke-linejoin: miter; fill-rule: evenodd; fill: #ffffff; "/>
      <path d="  M6.9247,41.8980 C6.9247,42.0915 6.7882,42.1703 6.6210,42.0735 L5.1052,41.1975 C4.9380,41.1008 4.8022,40.8660 4.8022,40.6725 L4.8022,38.5718 C4.8022,38.3775 4.9387,38.3003 5.1060,38.3970 L6.6217,39.2723 C6.7890,39.3690 6.9247,39.6038 6.9247,39.7973 L6.9247,41.8980 Z" style="stroke-width: 0.7500; stroke: #333333; stroke-dasharray: none; stroke-linecap: butt; stroke-linejoin: miter; fill: none; "/>
    </g>
    <g xmlns="http://www.w3.org/2000/svg" id="Layer1125">
      <path d="  M9.7552,43.5322 C9.7552,43.7257 9.6195,43.8030 9.4522,43.7062 L7.9365,42.8310 C7.7685,42.7343 7.6335,42.4995 7.6335,42.3060 L7.6335,40.2053 C7.6335,40.0118 7.7692,39.9338 7.9365,40.0305 L9.4522,40.9058 C9.6202,41.0025 9.7552,41.2372 9.7552,41.4308 L9.7552,43.5322 Z" style="stroke-width: 0.7500; stroke-linecap: butt; stroke-linejoin: miter; fill-rule: evenodd; fill: #ffffff; "/>
      <path d="  M9.7552,43.5322 C9.7552,43.7257 9.6195,43.8030 9.4522,43.7062 L7.9365,42.8310 C7.7685,42.7343 7.6335,42.4995 7.6335,42.3060 L7.6335,40.2053 C7.6335,40.0118 7.7692,39.9338 7.9365,40.0305 L9.4522,40.9058 C9.6202,41.0025 9.7552,41.2372 9.7552,41.4308 L9.7552,43.5322 Z" style="stroke-width: 0.7500; stroke: #333333; stroke-dasharray: none; stroke-linecap: butt; stroke-linejoin: miter; fill: none; "/>
    </g>
    <g xmlns="http://www.w3.org/2000/svg" id="Layer1126">
      <path d="  M12.5857,45.1665 C12.5857,45.3600 12.4492,45.4380 12.2820,45.3412 L10.7662,44.4652 C10.5982,44.3685 10.4632,44.1345 10.4632,43.9410 L10.4632,41.8395 C10.4632,41.6452 10.5990,41.5680 10.7662,41.6647 L12.2820,42.5400 C12.4500,42.6367 12.5857,42.8715 12.5857,43.0650 L12.5857,45.1665 Z" style="stroke-width: 0.7500; stroke-linecap: butt; stroke-linejoin: miter; fill-rule: evenodd; fill: #ffffff; "/>
      <path d="  M12.5857,45.1665 C12.5857,45.3600 12.4492,45.4380 12.2820,45.3412 L10.7662,44.4652 C10.5982,44.3685 10.4632,44.1345 10.4632,43.9410 L10.4632,41.8395 C10.4632,41.6452 10.5990,41.5680 10.7662,41.6647 L12.2820,42.5400 C12.4500,42.6367 12.5857,42.8715 12.5857,43.0650 L12.5857,45.1665 Z" style="stroke-width: 0.7500; stroke: #333333; stroke-dasharray: none; stroke-linecap: butt; stroke-linejoin: miter; fill: none; "/>
    </g>
    <g xmlns="http://www.w3.org/2000/svg" id="Layer1127">
      <path d="  M4.0942,43.7655 C4.0942,43.9590 3.9585,44.0370 3.7912,43.9410 L2.2755,43.0650 C2.1075,42.9682 1.9725,42.7335 1.9725,42.5400 L1.9725,40.4385 C1.9725,40.2450 2.1082,40.1677 2.2755,40.2645 L3.7912,41.1397 C3.9592,41.2357 4.0942,41.4712 4.0942,41.6647 L4.0942,43.7655 Z" style="stroke-width: 0.7500; stroke-linecap: butt; stroke-linejoin: miter; fill-rule: evenodd; fill: #ffffff; "/>
      <path d="  M4.0942,43.7655 C4.0942,43.9590 3.9585,44.0370 3.7912,43.9410 L2.2755,43.0650 C2.1075,42.9682 1.9725,42.7335 1.9725,42.5400 L1.9725,40.4385 C1.9725,40.2450 2.1082,40.1677 2.2755,40.2645 L3.7912,41.1397 C3.9592,41.2357 4.0942,41.4712 4.0942,41.6647 L4.0942,43.7655 Z" style="stroke-width: 0.7500; stroke: #333333; stroke-dasharray: none; stroke-linecap: butt; stroke-linejoin: miter; fill: none; "/>
    </g>
    <g xmlns="http://www.w3.org/2000/svg" id="Layer1128">
      <path d="  M6.9247,45.3998 C6.9247,45.5925 6.7882,45.6705 6.6210,45.5738 L5.1052,44.6985 C4.9380,44.6018 4.8022,44.3670 4.8022,44.1735 L4.8022,42.0728 C4.8022,41.8793 4.9387,41.8005 5.1052,41.8973 L6.6210,42.7733 C6.7890,42.8700 6.9247,43.1048 6.9247,43.2983 L6.9247,45.3998 Z" style="stroke-width: 0.7500; stroke-linecap: butt; stroke-linejoin: miter; fill-rule: evenodd; fill: #ffffff; "/>
      <path d="  M6.9247,45.3998 C6.9247,45.5925 6.7882,45.6705 6.6210,45.5738 L5.1052,44.6985 C4.9380,44.6018 4.8022,44.3670 4.8022,44.1735 L4.8022,42.0728 C4.8022,41.8793 4.9387,41.8005 5.1052,41.8973 L6.6210,42.7733 C6.7890,42.8700 6.9247,43.1048 6.9247,43.2983 L6.9247,45.3998 Z" style="stroke-width: 0.7500; stroke: #333333; stroke-dasharray: none; stroke-linecap: butt; stroke-linejoin: miter; fill: none; "/>
    </g>
    <g xmlns="http://www.w3.org/2000/svg" id="Layer1129">
      <path d="  M9.7552,47.0333 C9.7552,47.2268 9.6195,47.3055 9.4522,47.2088 L7.9365,46.3328 C7.7685,46.2360 7.6335,46.0013 7.6335,45.8078 L7.6335,43.7063 C7.6335,43.5128 7.7692,43.4355 7.9365,43.5323 L9.4522,44.4075 C9.6202,44.5043 9.7552,44.7390 9.7552,44.9325 L9.7552,47.0333 Z" style="stroke-width: 0.7500; stroke-linecap: butt; stroke-linejoin: miter; fill-rule: evenodd; fill: #ffffff; "/>
      <path d="  M9.7552,47.0333 C9.7552,47.2268 9.6195,47.3055 9.4522,47.2088 L7.9365,46.3328 C7.7685,46.2360 7.6335,46.0013 7.6335,45.8078 L7.6335,43.7063 C7.6335,43.5128 7.7692,43.4355 7.9365,43.5323 L9.4522,44.4075 C9.6202,44.5043 9.7552,44.7390 9.7552,44.9325 L9.7552,47.0333 Z" style="stroke-width: 0.7500; stroke: #333333; stroke-dasharray: none; stroke-linecap: butt; stroke-linejoin: miter; fill: none; "/>
    </g>
    <g xmlns="http://www.w3.org/2000/svg" id="Layer1130">
      <path d="  M12.5857,48.6682 C12.5857,48.8617 12.4492,48.9397 12.2820,48.8422 L10.7662,47.9677 C10.5982,47.8710 10.4632,47.6355 10.4632,47.4420 L10.4632,45.3413 C10.4632,45.1477 10.5990,45.0690 10.7662,45.1665 L12.2820,46.0417 C12.4500,46.1385 12.5857,46.3732 12.5857,46.5667 L12.5857,48.6682 Z" style="stroke-width: 0.7500; stroke-linecap: butt; stroke-linejoin: miter; fill-rule: evenodd; fill: #ffffff; "/>
      <path d="  M12.5857,48.6682 C12.5857,48.8617 12.4492,48.9397 12.2820,48.8422 L10.7662,47.9677 C10.5982,47.8710 10.4632,47.6355 10.4632,47.4420 L10.4632,45.3413 C10.4632,45.1477 10.5990,45.0690 10.7662,45.1665 L12.2820,46.0417 C12.4500,46.1385 12.5857,46.3732 12.5857,46.5667 L12.5857,48.6682 Z" style="stroke-width: 0.7500; stroke: #333333; stroke-dasharray: none; stroke-linecap: butt; stroke-linejoin: miter; fill: none; "/>
    </g>
    <g xmlns="http://www.w3.org/2000/svg" id="Layer1131">
      <path d="  M4.0942,47.2673 C4.0942,47.4608 3.9585,47.5388 3.7912,47.4420 L2.2755,46.5668 C2.1075,46.4700 1.9725,46.2353 1.9725,46.0418 L1.9725,43.9410 C1.9725,43.7468 2.1082,43.6688 2.2755,43.7655 L3.7912,44.6408 C3.9592,44.7375 4.0942,44.9723 4.0942,45.1658 L4.0942,47.2673 Z" style="stroke-width: 0.7500; stroke-linecap: butt; stroke-linejoin: miter; fill-rule: evenodd; fill: #ffffff; "/>
      <path d="  M4.0942,47.2673 C4.0942,47.4608 3.9585,47.5388 3.7912,47.4420 L2.2755,46.5668 C2.1075,46.4700 1.9725,46.2353 1.9725,46.0418 L1.9725,43.9410 C1.9725,43.7468 2.1082,43.6688 2.2755,43.7655 L3.7912,44.6408 C3.9592,44.7375 4.0942,44.9723 4.0942,45.1658 L4.0942,47.2673 Z" style="stroke-width: 0.7500; stroke: #333333; stroke-dasharray: none; stroke-linecap: butt; stroke-linejoin: miter; fill: none; "/>
    </g>
    <g xmlns="http://www.w3.org/2000/svg" id="Layer1132">
      <path d="  M6.9247,48.9007 C6.9247,49.0942 6.7882,49.1730 6.6210,49.0755 L5.1052,48.2002 C4.9380,48.1035 4.8022,47.8687 4.8022,47.6745 L4.8022,45.5737 C4.8022,45.3803 4.9387,45.3022 5.1052,45.3997 L6.6210,46.2742 C6.7890,46.3717 6.9247,46.6065 6.9247,46.8000 L6.9247,48.9007 Z" style="stroke-width: 0.7500; stroke-linecap: butt; stroke-linejoin: miter; fill-rule: evenodd; fill: #ffffff; "/>
      <path d="  M6.9247,48.9007 C6.9247,49.0942 6.7882,49.1730 6.6210,49.0755 L5.1052,48.2002 C4.9380,48.1035 4.8022,47.8687 4.8022,47.6745 L4.8022,45.5737 C4.8022,45.3803 4.9387,45.3022 5.1052,45.3997 L6.6210,46.2742 C6.7890,46.3717 6.9247,46.6065 6.9247,46.8000 L6.9247,48.9007 Z" style="stroke-width: 0.7500; stroke: #333333; stroke-dasharray: none; stroke-linecap: butt; stroke-linejoin: miter; fill: none; "/>
    </g>
    <g xmlns="http://www.w3.org/2000/svg" id="Layer1133">
      <path d="  M9.7552,50.5350 C9.7552,50.7285 9.6195,50.8065 9.4530,50.7097 L7.9365,49.8345 C7.7685,49.7378 7.6335,49.5030 7.6335,49.3095 L7.6335,47.2080 C7.6335,47.0145 7.7692,46.9365 7.9365,47.0332 L9.4530,47.9092 C9.6202,48.0060 9.7552,48.2400 9.7552,48.4342 L9.7552,50.5350 Z" style="stroke-width: 0.7500; stroke-linecap: butt; stroke-linejoin: miter; fill-rule: evenodd; fill: #ffffff; "/>
      <path d="  M9.7552,50.5350 C9.7552,50.7285 9.6195,50.8065 9.4530,50.7097 L7.9365,49.8345 C7.7685,49.7378 7.6335,49.5030 7.6335,49.3095 L7.6335,47.2080 C7.6335,47.0145 7.7692,46.9365 7.9365,47.0332 L9.4530,47.9092 C9.6202,48.0060 9.7552,48.2400 9.7552,48.4342 L9.7552,50.5350 Z" style="stroke-width: 0.7500; stroke: #333333; stroke-dasharray: none; stroke-linecap: butt; stroke-linejoin: miter; fill: none; "/>
    </g>
    <g xmlns="http://www.w3.org/2000/svg" id="Layer1134">
      <path d="  M12.5857,52.1692 C12.5857,52.3627 12.4492,52.4415 12.2820,52.3447 L10.7662,51.4687 C10.5982,51.3720 10.4632,51.1372 10.4632,50.9437 L10.4632,48.8423 C10.4632,48.6488 10.5990,48.5708 10.7662,48.6675 L12.2820,49.5428 C12.4500,49.6402 12.5857,49.8750 12.5857,50.0685 L12.5857,52.1692 Z" style="stroke-width: 0.7500; stroke-linecap: butt; stroke-linejoin: miter; fill-rule: evenodd; fill: #ffffff; "/>
      <path d="  M12.5857,52.1692 C12.5857,52.3627 12.4492,52.4415 12.2820,52.3447 L10.7662,51.4687 C10.5982,51.3720 10.4632,51.1372 10.4632,50.9437 L10.4632,48.8423 C10.4632,48.6488 10.5990,48.5708 10.7662,48.6675 L12.2820,49.5428 C12.4500,49.6402 12.5857,49.8750 12.5857,50.0685 L12.5857,52.1692 Z" style="stroke-width: 0.7500; stroke: #333333; stroke-dasharray: none; stroke-linecap: butt; stroke-linejoin: miter; fill: none; "/>
    </g>
    <g xmlns="http://www.w3.org/2000/svg" id="Layer1135">
      <path d="  M4.0942,36.7620 C4.0942,36.9555 3.9585,37.0342 3.7912,36.9375 L2.2755,36.0615 C2.1075,35.9647 1.9725,35.7300 1.9725,35.5365 L1.9725,33.4350 C1.9725,33.2415 2.1082,33.1642 2.2755,33.2610 L3.7912,34.1362 C3.9592,34.2330 4.0942,34.4677 4.0942,34.6612 L4.0942,36.7620 Z" style="stroke-width: 0.7500; stroke-linecap: butt; stroke-linejoin: miter; fill-rule: evenodd; fill: #ffffff; "/>
      <path d="  M4.0942,36.7620 C4.0942,36.9555 3.9585,37.0342 3.7912,36.9375 L2.2755,36.0615 C2.1075,35.9647 1.9725,35.7300 1.9725,35.5365 L1.9725,33.4350 C1.9725,33.2415 2.1082,33.1642 2.2755,33.2610 L3.7912,34.1362 C3.9592,34.2330 4.0942,34.4677 4.0942,34.6612 L4.0942,36.7620 Z" style="stroke-width: 0.7500; stroke: #333333; stroke-dasharray: none; stroke-linecap: butt; stroke-linejoin: miter; fill: none; "/>
    </g>
    <g xmlns="http://www.w3.org/2000/svg" id="Layer1136">
      <path d="  M6.9247,38.3970 C6.9247,38.5905 6.7882,38.6685 6.6217,38.5717 L5.1060,37.6965 C4.9380,37.5997 4.8022,37.3642 4.8022,37.1707 L4.8022,35.0700 C4.8022,34.8765 4.9387,34.7977 5.1052,34.8945 L6.6217,35.7705 C6.7890,35.8673 6.9247,36.1020 6.9247,36.2955 L6.9247,38.3970 Z" style="stroke-width: 0.7500; stroke-linecap: butt; stroke-linejoin: miter; fill-rule: evenodd; fill: #ffffff; "/>
      <path d="  M6.9247,38.3970 C6.9247,38.5905 6.7882,38.6685 6.6217,38.5717 L5.1060,37.6965 C4.9380,37.5997 4.8022,37.3642 4.8022,37.1707 L4.8022,35.0700 C4.8022,34.8765 4.9387,34.7977 5.1052,34.8945 L6.6217,35.7705 C6.7890,35.8673 6.9247,36.1020 6.9247,36.2955 L6.9247,38.3970 Z" style="stroke-width: 0.7500; stroke: #333333; stroke-dasharray: none; stroke-linecap: butt; stroke-linejoin: miter; fill: none; "/>
    </g>
    <g xmlns="http://www.w3.org/2000/svg" id="Layer1137">
      <path d="  M15.4162,43.2990 C15.4162,43.4925 15.2805,43.5705 15.1132,43.4738 L13.5967,42.5978 C13.4295,42.5010 13.2945,42.2670 13.2945,42.0735 L13.2937,39.9720 C13.2937,39.7785 13.4302,39.7005 13.5967,39.7973 L15.1132,40.6725 C15.2812,40.7700 15.4162,41.0040 15.4162,41.1975 L15.4162,43.2990 Z" style="stroke-width: 0.7500; stroke-linecap: butt; stroke-linejoin: miter; fill-rule: evenodd; fill: #ffffff; "/>
      <path d="  M15.4162,43.2990 C15.4162,43.4925 15.2805,43.5705 15.1132,43.4738 L13.5967,42.5978 C13.4295,42.5010 13.2945,42.2670 13.2945,42.0735 L13.2937,39.9720 C13.2937,39.7785 13.4302,39.7005 13.5967,39.7973 L15.1132,40.6725 C15.2812,40.7700 15.4162,41.0040 15.4162,41.1975 L15.4162,43.2990 Z" style="stroke-width: 0.7500; stroke: #333333; stroke-dasharray: none; stroke-linecap: butt; stroke-linejoin: miter; fill: none; "/>
    </g>
    <g xmlns="http://www.w3.org/2000/svg" id="Layer1138">
      <path d="  M18.2460,44.9325 C18.2460,45.1260 18.1102,45.2040 17.9430,45.1073 L16.4272,44.2320 C16.2600,44.1353 16.1242,43.9005 16.1242,43.7070 L16.1242,41.6055 C16.1242,41.4120 16.2607,41.3340 16.4272,41.4308 L17.9430,42.3060 C18.1110,42.4028 18.2460,42.6382 18.2460,42.8318 L18.2460,44.9325 Z" style="stroke-width: 0.7500; stroke-linecap: butt; stroke-linejoin: miter; fill-rule: evenodd; fill: #ffffff; "/>
      <path d="  M18.2460,44.9325 C18.2460,45.1260 18.1102,45.2040 17.9430,45.1073 L16.4272,44.2320 C16.2600,44.1353 16.1242,43.9005 16.1242,43.7070 L16.1242,41.6055 C16.1242,41.4120 16.2607,41.3340 16.4272,41.4308 L17.9430,42.3060 C18.1110,42.4028 18.2460,42.6382 18.2460,42.8318 L18.2460,44.9325 Z" style="stroke-width: 0.7500; stroke: #333333; stroke-dasharray: none; stroke-linecap: butt; stroke-linejoin: miter; fill: none; "/>
    </g>
    <g xmlns="http://www.w3.org/2000/svg" id="Layer1139">
      <path d="  M21.0765,46.5667 C21.0765,46.7610 20.9407,46.8382 20.7735,46.7415 L19.2570,45.8662 C19.0890,45.7695 18.9547,45.5347 18.9547,45.3412 L18.9540,43.2405 C18.9540,43.0462 19.0897,42.9682 19.2570,43.0650 L20.7735,43.9410 C20.9415,44.0377 21.0765,44.2717 21.0765,44.4660 L21.0765,46.5667 Z" style="stroke-width: 0.7500; stroke-linecap: butt; stroke-linejoin: miter; fill-rule: evenodd; fill: #ffffff; "/>
      <path d="  M21.0765,46.5667 C21.0765,46.7610 20.9407,46.8382 20.7735,46.7415 L19.2570,45.8662 C19.0890,45.7695 18.9547,45.5347 18.9547,45.3412 L18.9540,43.2405 C18.9540,43.0462 19.0897,42.9682 19.2570,43.0650 L20.7735,43.9410 C20.9415,44.0377 21.0765,44.2717 21.0765,44.4660 L21.0765,46.5667 Z" style="stroke-width: 0.7500; stroke: #333333; stroke-dasharray: none; stroke-linecap: butt; stroke-linejoin: miter; fill: none; "/>
    </g>
    <g xmlns="http://www.w3.org/2000/svg" id="Layer1140">
      <path d="  M15.4162,46.8008 C15.4162,46.9943 15.2805,47.0723 15.1132,46.9748 L13.5975,46.1003 C13.4295,46.0028 13.2945,45.7680 13.2945,45.5745 L13.2937,43.4738 C13.2937,43.2803 13.4302,43.2023 13.5967,43.2990 L15.1132,44.1743 C15.2812,44.2710 15.4162,44.5058 15.4162,44.7000 L15.4162,46.8008 Z" style="stroke-width: 0.7500; stroke-linecap: butt; stroke-linejoin: miter; fill-rule: evenodd; fill: #ffffff; "/>
      <path d="  M15.4162,46.8008 C15.4162,46.9943 15.2805,47.0723 15.1132,46.9748 L13.5975,46.1003 C13.4295,46.0028 13.2945,45.7680 13.2945,45.5745 L13.2937,43.4738 C13.2937,43.2803 13.4302,43.2023 13.5967,43.2990 L15.1132,44.1743 C15.2812,44.2710 15.4162,44.5058 15.4162,44.7000 L15.4162,46.8008 Z" style="stroke-width: 0.7500; stroke: #333333; stroke-dasharray: none; stroke-linecap: butt; stroke-linejoin: miter; fill: none; "/>
    </g>
    <g xmlns="http://www.w3.org/2000/svg" id="Layer1141">
      <path d="  M18.2460,48.4343 C18.2460,48.6278 18.1102,48.7058 17.9430,48.6090 L16.4272,47.7330 C16.2600,47.6363 16.1242,47.4023 16.1242,47.2088 L16.1242,45.1073 C16.1242,44.9138 16.2607,44.8358 16.4272,44.9325 L17.9430,45.8085 C18.1110,45.9053 18.2460,46.1393 18.2460,46.3328 L18.2460,48.4343 Z" style="stroke-width: 0.7500; stroke-linecap: butt; stroke-linejoin: miter; fill-rule: evenodd; fill: #ffffff; "/>
      <path d="  M18.2460,48.4343 C18.2460,48.6278 18.1102,48.7058 17.9430,48.6090 L16.4272,47.7330 C16.2600,47.6363 16.1242,47.4023 16.1242,47.2088 L16.1242,45.1073 C16.1242,44.9138 16.2607,44.8358 16.4272,44.9325 L17.9430,45.8085 C18.1110,45.9053 18.2460,46.1393 18.2460,46.3328 L18.2460,48.4343 Z" style="stroke-width: 0.7500; stroke: #333333; stroke-dasharray: none; stroke-linecap: butt; stroke-linejoin: miter; fill: none; "/>
    </g>
    <g xmlns="http://www.w3.org/2000/svg" id="Layer1142">
      <path d="  M21.0765,50.0685 C21.0765,50.2620 20.9407,50.3400 20.7735,50.2432 L19.2577,49.3680 C19.0890,49.2712 18.9547,49.0358 18.9547,48.8430 L18.9547,46.7415 C18.9540,46.5480 19.0897,46.4700 19.2570,46.5667 L20.7735,47.4420 C20.9415,47.5387 21.0765,47.7735 21.0765,47.9677 L21.0765,50.0685 Z" style="stroke-width: 0.7500; stroke-linecap: butt; stroke-linejoin: miter; fill-rule: evenodd; fill: #ffffff; "/>
      <path d="  M21.0765,50.0685 C21.0765,50.2620 20.9407,50.3400 20.7735,50.2432 L19.2577,49.3680 C19.0890,49.2712 18.9547,49.0358 18.9547,48.8430 L18.9547,46.7415 C18.9540,46.5480 19.0897,46.4700 19.2570,46.5667 L20.7735,47.4420 C20.9415,47.5387 21.0765,47.7735 21.0765,47.9677 L21.0765,50.0685 Z" style="stroke-width: 0.7500; stroke: #333333; stroke-dasharray: none; stroke-linecap: butt; stroke-linejoin: miter; fill: none; "/>
    </g>
    <g xmlns="http://www.w3.org/2000/svg" id="Layer1143">
      <path d="  M15.4162,50.3017 C15.4162,50.4952 15.2805,50.5740 15.1132,50.4772 L13.5975,49.6012 C13.4295,49.5045 13.2937,49.2697 13.2945,49.0762 L13.2945,46.9747 C13.2937,46.7812 13.4302,46.7040 13.5967,46.8007 L15.1132,47.6760 C15.2812,47.7727 15.4162,48.0075 15.4162,48.2010 L15.4162,50.3017 Z" style="stroke-width: 0.7500; stroke-linecap: butt; stroke-linejoin: miter; fill-rule: evenodd; fill: #ffffff; "/>
      <path d="  M15.4162,50.3017 C15.4162,50.4952 15.2805,50.5740 15.1132,50.4772 L13.5975,49.6012 C13.4295,49.5045 13.2937,49.2697 13.2945,49.0762 L13.2945,46.9747 C13.2937,46.7812 13.4302,46.7040 13.5967,46.8007 L15.1132,47.6760 C15.2812,47.7727 15.4162,48.0075 15.4162,48.2010 L15.4162,50.3017 Z" style="stroke-width: 0.7500; stroke: #333333; stroke-dasharray: none; stroke-linecap: butt; stroke-linejoin: miter; fill: none; "/>
    </g>
    <g xmlns="http://www.w3.org/2000/svg" id="Layer1144">
      <path d="  M18.2460,51.9360 C18.2460,52.1295 18.1102,52.2075 17.9430,52.1107 L16.4272,51.2355 C16.2600,51.1387 16.1242,50.9032 16.1242,50.7097 L16.1242,48.6090 C16.1242,48.4155 16.2607,48.3375 16.4272,48.4342 L17.9430,49.3095 C18.1110,49.4062 18.2460,49.6410 18.2460,49.8345 L18.2460,51.9360 Z" style="stroke-width: 0.7500; stroke-linecap: butt; stroke-linejoin: miter; fill-rule: evenodd; fill: #ffffff; "/>
      <path d="  M18.2460,51.9360 C18.2460,52.1295 18.1102,52.2075 17.9430,52.1107 L16.4272,51.2355 C16.2600,51.1387 16.1242,50.9032 16.1242,50.7097 L16.1242,48.6090 C16.1242,48.4155 16.2607,48.3375 16.4272,48.4342 L17.9430,49.3095 C18.1110,49.4062 18.2460,49.6410 18.2460,49.8345 L18.2460,51.9360 Z" style="stroke-width: 0.7500; stroke: #333333; stroke-dasharray: none; stroke-linecap: butt; stroke-linejoin: miter; fill: none; "/>
    </g>
    <g xmlns="http://www.w3.org/2000/svg" id="Layer1145">
      <path d="  M21.0765,53.5703 C21.0765,53.7638 20.9407,53.8418 20.7735,53.7450 L19.2577,52.8698 C19.0897,52.7723 18.9547,52.5383 18.9547,52.3448 L18.9547,50.2433 C18.9540,50.0498 19.0897,49.9718 19.2570,50.0685 L20.7735,50.9445 C20.9415,51.0413 21.0765,51.2753 21.0765,51.4688 L21.0765,53.5703 Z" style="stroke-width: 0.7500; stroke-linecap: butt; stroke-linejoin: miter; fill-rule: evenodd; fill: #ffffff; "/>
      <path d="  M21.0765,53.5703 C21.0765,53.7638 20.9407,53.8418 20.7735,53.7450 L19.2577,52.8698 C19.0897,52.7723 18.9547,52.5383 18.9547,52.3448 L18.9547,50.2433 C18.9540,50.0498 19.0897,49.9718 19.2570,50.0685 L20.7735,50.9445 C20.9415,51.0413 21.0765,51.2753 21.0765,51.4688 L21.0765,53.5703 Z" style="stroke-width: 0.7500; stroke: #333333; stroke-dasharray: none; stroke-linecap: butt; stroke-linejoin: miter; fill: none; "/>
    </g>
    <g xmlns="http://www.w3.org/2000/svg" id="Layer1146">
      <path d="  M15.4162,53.8043 C15.4162,53.9978 15.2805,54.0750 15.1132,53.9783 L13.5975,53.1038 C13.4295,53.0063 13.2937,52.7715 13.2945,52.5780 L13.2945,50.4773 C13.2945,50.2838 13.4302,50.2050 13.5975,50.3018 L15.1132,51.1778 C15.2812,51.2745 15.4162,51.5093 15.4162,51.7028 L15.4162,53.8043 Z" style="stroke-width: 0.7500; stroke-linecap: butt; stroke-linejoin: miter; fill-rule: evenodd; fill: #ffffff; "/>
      <path d="  M15.4162,53.8043 C15.4162,53.9978 15.2805,54.0750 15.1132,53.9783 L13.5975,53.1038 C13.4295,53.0063 13.2937,52.7715 13.2945,52.5780 L13.2945,50.4773 C13.2945,50.2838 13.4302,50.2050 13.5975,50.3018 L15.1132,51.1778 C15.2812,51.2745 15.4162,51.5093 15.4162,51.7028 L15.4162,53.8043 Z" style="stroke-width: 0.7500; stroke: #333333; stroke-dasharray: none; stroke-linecap: butt; stroke-linejoin: miter; fill: none; "/>
    </g>
    <g xmlns="http://www.w3.org/2000/svg" id="Layer1147">
      <path d="  M18.2460,55.4370 C18.2460,55.6312 18.1102,55.7092 17.9430,55.6125 L16.4272,54.7365 C16.2600,54.6397 16.1242,54.4057 16.1242,54.2115 L16.1242,52.1107 C16.1242,51.9165 16.2607,51.8392 16.4272,51.9360 L17.9430,52.8112 C18.1110,52.9080 18.2460,53.1427 18.2460,53.3362 L18.2460,55.4370 Z" style="stroke-width: 0.7500; stroke-linecap: butt; stroke-linejoin: miter; fill-rule: evenodd; fill: #ffffff; "/>
      <path d="  M18.2460,55.4370 C18.2460,55.6312 18.1102,55.7092 17.9430,55.6125 L16.4272,54.7365 C16.2600,54.6397 16.1242,54.4057 16.1242,54.2115 L16.1242,52.1107 C16.1242,51.9165 16.2607,51.8392 16.4272,51.9360 L17.9430,52.8112 C18.1110,52.9080 18.2460,53.1427 18.2460,53.3362 L18.2460,55.4370 Z" style="stroke-width: 0.7500; stroke: #333333; stroke-dasharray: none; stroke-linecap: butt; stroke-linejoin: miter; fill: none; "/>
    </g>
    <g xmlns="http://www.w3.org/2000/svg" id="Layer1148">
      <path d="  M21.0765,57.0720 C21.0765,57.2655 20.9407,57.3435 20.7735,57.2468 L19.2577,56.3715 C19.0897,56.2748 18.9540,56.0393 18.9547,55.8458 L18.9547,53.7450 C18.9547,53.5515 19.0905,53.4728 19.2577,53.5703 L20.7735,54.4455 C20.9415,54.5423 21.0765,54.7770 21.0765,54.9713 L21.0765,57.0720 Z" style="stroke-width: 0.7500; stroke-linecap: butt; stroke-linejoin: miter; fill-rule: evenodd; fill: #ffffff; "/>
      <path d="  M21.0765,57.0720 C21.0765,57.2655 20.9407,57.3435 20.7735,57.2468 L19.2577,56.3715 C19.0897,56.2748 18.9540,56.0393 18.9547,55.8458 L18.9547,53.7450 C18.9547,53.5515 19.0905,53.4728 19.2577,53.5703 L20.7735,54.4455 C20.9415,54.5423 21.0765,54.7770 21.0765,54.9713 L21.0765,57.0720 Z" style="stroke-width: 0.7500; stroke: #333333; stroke-dasharray: none; stroke-linecap: butt; stroke-linejoin: miter; fill: none; "/>
    </g>
    <defs xmlns="http://www.w3.org/2000/svg">
      <radialGradient id="grad4681" cx="50.0000%" cy="50.0000%" r="100.0000%">
        <stop offset="0%" stop-color="#ffffff" stop-opacity="1.0000"/>
        <stop offset="100%" stop-color="#96b9b9" stop-opacity="1.0000"/>
      </radialGradient>
    </defs>
    <path xmlns="http://www.w3.org/2000/svg" d="  M9.7560,39.9712 L8.2440,39.0997 C8.1412,39.0397 8.0437,38.8710 8.0437,38.7525 L8.0437,36.6622 L9.5550,37.5300 C9.6600,37.5907 9.7560,37.7565 9.7560,37.8780 L9.7560,39.9712 Z" style="fill-rule: evenodd; fill: url(#grad4681); "/>
    <defs xmlns="http://www.w3.org/2000/svg">
      <radialGradient id="grad4682" cx="50.0000%" cy="50.0000%" r="100.0000%">
        <stop offset="0%" stop-color="#ffffff" stop-opacity="1.0000"/>
        <stop offset="100%" stop-color="#96b9b9" stop-opacity="1.0000"/>
      </radialGradient>
    </defs>
    <path xmlns="http://www.w3.org/2000/svg" d="  M12.5850,41.6062 L11.0745,40.7347 C10.9695,40.6740 10.8742,40.5082 10.8742,40.3875 L10.8742,38.2972 L12.3855,39.1642 C12.4897,39.2242 12.5850,39.3900 12.5850,39.5115 L12.5850,41.6062 Z" style="fill-rule: evenodd; fill: url(#grad4682); "/>
    <defs xmlns="http://www.w3.org/2000/svg">
      <radialGradient id="grad4683" cx="50.0000%" cy="50.0000%" r="100.0000%">
        <stop offset="0%" stop-color="#ffffff" stop-opacity="1.0000"/>
        <stop offset="100%" stop-color="#96b9b9" stop-opacity="1.0000"/>
      </radialGradient>
    </defs>
    <path xmlns="http://www.w3.org/2000/svg" d="  M4.0950,40.2060 L2.5837,39.3330 C2.4810,39.2745 2.3827,39.1043 2.3827,38.9865 L2.3827,36.8963 L3.8932,37.7640 C3.9990,37.8240 4.0942,37.9905 4.0950,38.1127 L4.0950,40.2060 Z" style="fill-rule: evenodd; fill: url(#grad4683); "/>
    <defs xmlns="http://www.w3.org/2000/svg">
      <radialGradient id="grad4684" cx="50.0000%" cy="50.0000%" r="100.0000%">
        <stop offset="0%" stop-color="#ffffff" stop-opacity="1.0000"/>
        <stop offset="100%" stop-color="#96b9b9" stop-opacity="1.0000"/>
      </radialGradient>
    </defs>
    <path xmlns="http://www.w3.org/2000/svg" d="  M6.9247,41.8387 L5.4135,40.9665 C5.3100,40.9072 5.2125,40.7385 5.2125,40.6200 L5.2125,38.5305 L6.7252,39.3975 C6.8287,39.4575 6.9247,39.6240 6.9247,39.7455 L6.9247,41.8387 Z" style="fill-rule: evenodd; fill: url(#grad4684); "/>
    <defs xmlns="http://www.w3.org/2000/svg">
      <radialGradient id="grad4685" cx="50.0000%" cy="50.0000%" r="100.0000%">
        <stop offset="0%" stop-color="#ffffff" stop-opacity="1.0000"/>
        <stop offset="100%" stop-color="#96b9b9" stop-opacity="1.0000"/>
      </radialGradient>
    </defs>
    <path xmlns="http://www.w3.org/2000/svg" d="  M9.7560,43.4737 L8.2440,42.6015 C8.1412,42.5415 8.0437,42.3720 8.0437,42.2535 L8.0437,40.1647 L9.5550,41.0317 C9.6600,41.0925 9.7560,41.2590 9.7560,41.3790 L9.7560,43.4737 Z" style="fill-rule: evenodd; fill: url(#grad4685); "/>
    <defs xmlns="http://www.w3.org/2000/svg">
      <radialGradient id="grad4686" cx="50.0000%" cy="50.0000%" r="100.0000%">
        <stop offset="0%" stop-color="#ffffff" stop-opacity="1.0000"/>
        <stop offset="100%" stop-color="#96b9b9" stop-opacity="1.0000"/>
      </radialGradient>
    </defs>
    <path xmlns="http://www.w3.org/2000/svg" d="  M12.5850,45.1080 L11.0745,44.2358 C10.9695,44.1758 10.8742,44.0100 10.8742,43.8885 L10.8742,41.7990 L12.3855,42.6660 C12.4897,42.7267 12.5850,42.8917 12.5850,43.0133 L12.5850,45.1080 Z" style="fill-rule: evenodd; fill: url(#grad4686); "/>
    <defs xmlns="http://www.w3.org/2000/svg">
      <radialGradient id="grad4687" cx="50.0000%" cy="50.0000%" r="100.0000%">
        <stop offset="0%" stop-color="#ffffff" stop-opacity="1.0000"/>
        <stop offset="100%" stop-color="#96b9b9" stop-opacity="1.0000"/>
      </radialGradient>
    </defs>
    <path xmlns="http://www.w3.org/2000/svg" d="  M4.0950,43.7070 L2.5837,42.8347 C2.4787,42.7740 2.3827,42.6082 2.3827,42.4882 L2.3827,40.3972 L3.8932,41.2665 C3.9975,41.3257 4.0950,41.4937 4.0950,41.6122 L4.0950,43.7070 Z" style="fill-rule: evenodd; fill: url(#grad4687); "/>
    <defs xmlns="http://www.w3.org/2000/svg">
      <radialGradient id="grad4688" cx="50.0000%" cy="50.0000%" r="100.0000%">
        <stop offset="0%" stop-color="#ffffff" stop-opacity="1.0000"/>
        <stop offset="100%" stop-color="#96b9b9" stop-opacity="1.0000"/>
      </radialGradient>
    </defs>
    <path xmlns="http://www.w3.org/2000/svg" d="  M6.9247,45.3413 L5.4135,44.4682 C5.3100,44.4090 5.2125,44.2403 5.2125,44.1218 L5.2125,42.0323 L6.7230,42.8992 C6.8272,42.9585 6.9247,43.1272 6.9247,43.2465 L6.9247,45.3413 Z" style="fill-rule: evenodd; fill: url(#grad4688); "/>
    <defs xmlns="http://www.w3.org/2000/svg">
      <radialGradient id="grad4689" cx="50.0000%" cy="50.0000%" r="100.0000%">
        <stop offset="0%" stop-color="#ffffff" stop-opacity="1.0000"/>
        <stop offset="100%" stop-color="#96b9b9" stop-opacity="1.0000"/>
      </radialGradient>
    </defs>
    <path xmlns="http://www.w3.org/2000/svg" d="  M9.7560,46.9748 L8.2440,46.1033 C8.1412,46.0433 8.0437,45.8745 8.0437,45.7560 L8.0437,43.6658 L9.5550,44.5335 C9.6577,44.5928 9.7560,44.7615 9.7560,44.8800 L9.7560,46.9748 Z" style="fill-rule: evenodd; fill: url(#grad4689); "/>
    <defs xmlns="http://www.w3.org/2000/svg">
      <radialGradient id="grad4690" cx="50.0000%" cy="50.0000%" r="100.0000%">
        <stop offset="0%" stop-color="#ffffff" stop-opacity="1.0000"/>
        <stop offset="100%" stop-color="#96b9b9" stop-opacity="1.0000"/>
      </radialGradient>
    </defs>
    <path xmlns="http://www.w3.org/2000/svg" d="  M12.5850,48.6097 L11.0745,47.7375 C10.9695,47.6775 10.8742,47.5117 10.8742,47.3902 L10.8742,45.3007 L12.3855,46.1677 C12.4897,46.2277 12.5850,46.3935 12.5850,46.5150 L12.5850,48.6097 Z" style="fill-rule: evenodd; fill: url(#grad4690); "/>
    <defs xmlns="http://www.w3.org/2000/svg">
      <radialGradient id="grad4691" cx="50.0000%" cy="50.0000%" r="100.0000%">
        <stop offset="0%" stop-color="#ffffff" stop-opacity="1.0000"/>
        <stop offset="100%" stop-color="#96b9b9" stop-opacity="1.0000"/>
      </radialGradient>
    </defs>
    <path xmlns="http://www.w3.org/2000/svg" d="  M4.0950,47.2095 L2.5837,46.3365 C2.4810,46.2772 2.3827,46.1077 2.3827,45.9892 L2.3827,43.8997 L3.8932,44.7675 C3.9967,44.8267 4.0950,44.9962 4.0950,45.1140 L4.0950,47.2095 Z" style="fill-rule: evenodd; fill: url(#grad4691); "/>
    <defs xmlns="http://www.w3.org/2000/svg">
      <radialGradient id="grad4692" cx="50.0000%" cy="50.0000%" r="100.0000%">
        <stop offset="0%" stop-color="#ffffff" stop-opacity="1.0000"/>
        <stop offset="100%" stop-color="#96b9b9" stop-opacity="1.0000"/>
      </radialGradient>
    </defs>
    <path xmlns="http://www.w3.org/2000/svg" d="  M6.9247,48.8422 L5.4135,47.9700 C5.3100,47.9107 5.2125,47.7420 5.2125,47.6235 L5.2125,45.5340 L6.7230,46.4017 C6.8272,46.4602 6.9247,46.6290 6.9247,46.7475 L6.9247,48.8422 Z" style="fill-rule: evenodd; fill: url(#grad4692); "/>
    <defs xmlns="http://www.w3.org/2000/svg">
      <radialGradient id="grad4693" cx="50.0000%" cy="50.0000%" r="100.0000%">
        <stop offset="0%" stop-color="#ffffff" stop-opacity="1.0000"/>
        <stop offset="100%" stop-color="#96b9b9" stop-opacity="1.0000"/>
      </radialGradient>
    </defs>
    <path xmlns="http://www.w3.org/2000/svg" d="  M9.7560,50.4773 L8.2440,49.6050 C8.1412,49.5450 8.0437,49.3755 8.0437,49.2570 L8.0437,47.1675 L9.5550,48.0352 C9.6577,48.0937 9.7560,48.2632 9.7560,48.3825 L9.7560,50.4773 Z" style="fill-rule: evenodd; fill: url(#grad4693); "/>
    <defs xmlns="http://www.w3.org/2000/svg">
      <radialGradient id="grad4694" cx="50.0000%" cy="50.0000%" r="100.0000%">
        <stop offset="0%" stop-color="#ffffff" stop-opacity="1.0000"/>
        <stop offset="100%" stop-color="#96b9b9" stop-opacity="1.0000"/>
      </radialGradient>
    </defs>
    <path xmlns="http://www.w3.org/2000/svg" d="  M12.5850,52.1115 L11.0745,51.2392 C10.9695,51.1792 10.8742,51.0135 10.8742,50.8920 L10.8742,48.8025 L12.3855,49.6695 C12.4897,49.7295 12.5850,49.8952 12.5850,50.0160 L12.5850,52.1115 Z" style="fill-rule: evenodd; fill: url(#grad4694); "/>
    <defs xmlns="http://www.w3.org/2000/svg">
      <radialGradient id="grad4695" cx="50.0000%" cy="50.0000%" r="100.0000%">
        <stop offset="0%" stop-color="#ffffff" stop-opacity="1.0000"/>
        <stop offset="100%" stop-color="#96b9b9" stop-opacity="1.0000"/>
      </radialGradient>
    </defs>
    <path xmlns="http://www.w3.org/2000/svg" d="  M4.0950,36.7050 L2.5837,35.8312 C2.4810,35.7720 2.3827,35.6032 2.3827,35.4847 L2.3827,33.3945 L3.8932,34.2630 C3.9967,34.3222 4.0950,34.4902 4.0950,34.6087 L4.0950,36.7050 Z" style="fill-rule: evenodd; fill: url(#grad4695); "/>
    <defs xmlns="http://www.w3.org/2000/svg">
      <radialGradient id="grad4696" cx="50.0000%" cy="50.0000%" r="100.0000%">
        <stop offset="0%" stop-color="#ffffff" stop-opacity="1.0000"/>
        <stop offset="100%" stop-color="#96b9b9" stop-opacity="1.0000"/>
      </radialGradient>
    </defs>
    <path xmlns="http://www.w3.org/2000/svg" d="  M6.9247,38.3370 L5.4135,37.4647 C5.3100,37.4055 5.2125,37.2367 5.2125,37.1182 L5.2125,35.0287 L6.7245,35.8972 C6.8295,35.9572 6.9247,36.1222 6.9247,36.2430 L6.9247,38.3370 Z" style="fill-rule: evenodd; fill: url(#grad4696); "/>
    <defs xmlns="http://www.w3.org/2000/svg">
      <radialGradient id="grad4697" cx="50.0000%" cy="50.0000%" r="100.0000%">
        <stop offset="0%" stop-color="#ffffff" stop-opacity="1.0000"/>
        <stop offset="100%" stop-color="#96b9b9" stop-opacity="1.0000"/>
      </radialGradient>
    </defs>
    <path xmlns="http://www.w3.org/2000/svg" d="  M15.4155,43.2405 L13.9050,42.3682 C13.8022,42.3090 13.7055,42.1395 13.7055,42.0210 L13.7047,39.9307 L15.2152,40.7992 C15.3187,40.8585 15.4155,41.0265 15.4155,41.1450 L15.4155,43.2405 Z" style="fill-rule: evenodd; fill: url(#grad4697); "/>
    <defs xmlns="http://www.w3.org/2000/svg">
      <radialGradient id="grad4698" cx="50.0000%" cy="50.0000%" r="100.0000%">
        <stop offset="0%" stop-color="#ffffff" stop-opacity="1.0000"/>
        <stop offset="100%" stop-color="#96b9b9" stop-opacity="1.0000"/>
      </radialGradient>
    </defs>
    <path xmlns="http://www.w3.org/2000/svg" d="  M18.2460,44.8740 L16.7347,44.0017 C16.6305,43.9410 16.5345,43.7752 16.5345,43.6552 L16.5345,41.5650 L18.0457,42.4320 C18.1492,42.4920 18.2460,42.6607 18.2460,42.7792 L18.2460,44.8740 Z" style="fill-rule: evenodd; fill: url(#grad4698); "/>
    <defs xmlns="http://www.w3.org/2000/svg">
      <radialGradient id="grad4699" cx="50.0000%" cy="50.0000%" r="100.0000%">
        <stop offset="0%" stop-color="#ffffff" stop-opacity="1.0000"/>
        <stop offset="100%" stop-color="#96b9b9" stop-opacity="1.0000"/>
      </radialGradient>
    </defs>
    <path xmlns="http://www.w3.org/2000/svg" d="  M21.0765,46.5082 L19.5660,45.6360 C19.4617,45.5775 19.3650,45.4087 19.3650,45.2895 L19.3650,43.2000 L20.8755,44.0670 C20.9805,44.1270 21.0765,44.2935 21.0765,44.4142 L21.0765,46.5082 Z" style="fill-rule: evenodd; fill: url(#grad4699); "/>
    <defs xmlns="http://www.w3.org/2000/svg">
      <radialGradient id="grad4700" cx="50.0000%" cy="50.0000%" r="100.0000%">
        <stop offset="0%" stop-color="#ffffff" stop-opacity="1.0000"/>
        <stop offset="100%" stop-color="#96b9b9" stop-opacity="1.0000"/>
      </radialGradient>
    </defs>
    <path xmlns="http://www.w3.org/2000/svg" d="  M15.4155,46.7415 L13.9057,45.8693 C13.8022,45.8100 13.7047,45.6405 13.7047,45.5220 L13.7047,43.4333 L15.2160,44.2995 C15.3187,44.3595 15.4155,44.5282 15.4155,44.6475 L15.4155,46.7415 Z" style="fill-rule: evenodd; fill: url(#grad4700); "/>
    <defs xmlns="http://www.w3.org/2000/svg">
      <radialGradient id="grad4701" cx="50.0000%" cy="50.0000%" r="100.0000%">
        <stop offset="0%" stop-color="#ffffff" stop-opacity="1.0000"/>
        <stop offset="100%" stop-color="#96b9b9" stop-opacity="1.0000"/>
      </radialGradient>
    </defs>
    <path xmlns="http://www.w3.org/2000/svg" d="  M18.2460,48.3757 L16.7347,47.5035 C16.6305,47.4427 16.5345,47.2770 16.5345,47.1562 L16.5345,45.0667 L18.0457,45.9345 C18.1492,45.9930 18.2460,46.1617 18.2460,46.2810 L18.2460,48.3757 Z" style="fill-rule: evenodd; fill: url(#grad4701); "/>
    <defs xmlns="http://www.w3.org/2000/svg">
      <radialGradient id="grad4702" cx="50.0000%" cy="50.0000%" r="100.0000%">
        <stop offset="0%" stop-color="#ffffff" stop-opacity="1.0000"/>
        <stop offset="100%" stop-color="#96b9b9" stop-opacity="1.0000"/>
      </radialGradient>
    </defs>
    <path xmlns="http://www.w3.org/2000/svg" d="  M21.0765,50.0100 L19.5660,49.1377 C19.4595,49.0770 19.3650,48.9120 19.3650,48.7912 L19.3650,46.7010 L20.8755,47.5695 C20.9782,47.6280 21.0765,47.7967 21.0765,47.9152 L21.0765,50.0100 Z" style="fill-rule: evenodd; fill: url(#grad4702); "/>
    <defs xmlns="http://www.w3.org/2000/svg">
      <radialGradient id="grad4703" cx="50.0000%" cy="50.0000%" r="100.0000%">
        <stop offset="0%" stop-color="#ffffff" stop-opacity="1.0000"/>
        <stop offset="100%" stop-color="#96b9b9" stop-opacity="1.0000"/>
      </radialGradient>
    </defs>
    <path xmlns="http://www.w3.org/2000/svg" d="  M15.4155,50.2425 L13.9050,49.3710 C13.8022,49.3117 13.7047,49.1422 13.7055,49.0245 L13.7055,46.9350 L15.2152,47.8020 C15.3187,47.8605 15.4155,48.0292 15.4155,48.1478 L15.4155,50.2425 Z" style="fill-rule: evenodd; fill: url(#grad4703); "/>
    <defs xmlns="http://www.w3.org/2000/svg">
      <radialGradient id="grad4704" cx="50.0000%" cy="50.0000%" r="100.0000%">
        <stop offset="0%" stop-color="#ffffff" stop-opacity="1.0000"/>
        <stop offset="100%" stop-color="#96b9b9" stop-opacity="1.0000"/>
      </radialGradient>
    </defs>
    <path xmlns="http://www.w3.org/2000/svg" d="  M18.2460,51.8775 L16.7347,51.0045 C16.6320,50.9453 16.5345,50.7773 16.5345,50.6580 L16.5345,48.5685 L18.0457,49.4355 C18.1492,49.4955 18.2460,49.6635 18.2460,49.7828 L18.2460,51.8775 Z" style="fill-rule: evenodd; fill: url(#grad4704); "/>
    <defs xmlns="http://www.w3.org/2000/svg">
      <radialGradient id="grad4705" cx="50.0000%" cy="50.0000%" r="100.0000%">
        <stop offset="0%" stop-color="#ffffff" stop-opacity="1.0000"/>
        <stop offset="100%" stop-color="#96b9b9" stop-opacity="1.0000"/>
      </radialGradient>
    </defs>
    <path xmlns="http://www.w3.org/2000/svg" d="  M21.0765,53.5125 L19.5660,52.6387 C19.4625,52.5802 19.3650,52.4115 19.3650,52.2922 L19.3650,50.2027 L20.8755,51.0705 C20.9805,51.1305 21.0765,51.2962 21.0765,51.4177 L21.0765,53.5125 Z" style="fill-rule: evenodd; fill: url(#grad4705); "/>
    <defs xmlns="http://www.w3.org/2000/svg">
      <radialGradient id="grad4706" cx="50.0000%" cy="50.0000%" r="100.0000%">
        <stop offset="0%" stop-color="#ffffff" stop-opacity="1.0000"/>
        <stop offset="100%" stop-color="#96b9b9" stop-opacity="1.0000"/>
      </radialGradient>
    </defs>
    <path xmlns="http://www.w3.org/2000/svg" d="  M15.4155,53.7450 L13.9057,52.8727 C13.8022,52.8135 13.7047,52.6440 13.7047,52.5247 L13.7047,50.4360 L15.2160,51.3030 C15.3187,51.3630 15.4155,51.5317 15.4155,51.6502 L15.4155,53.7450 Z" style="fill-rule: evenodd; fill: url(#grad4706); "/>
    <defs xmlns="http://www.w3.org/2000/svg">
      <radialGradient id="grad4707" cx="50.0000%" cy="50.0000%" r="100.0000%">
        <stop offset="0%" stop-color="#ffffff" stop-opacity="1.0000"/>
        <stop offset="100%" stop-color="#96b9b9" stop-opacity="1.0000"/>
      </radialGradient>
    </defs>
    <path xmlns="http://www.w3.org/2000/svg" d="  M18.2460,55.3800 L16.7347,54.5070 C16.6320,54.4477 16.5345,54.2782 16.5345,54.1597 L16.5345,52.0695 L18.0457,52.9380 C18.1500,52.9965 18.2460,53.1652 18.2460,53.2837 L18.2460,55.3800 Z" style="fill-rule: evenodd; fill: url(#grad4707); "/>
    <defs xmlns="http://www.w3.org/2000/svg">
      <radialGradient id="grad4708" cx="50.0000%" cy="50.0000%" r="100.0000%">
        <stop offset="0%" stop-color="#ffffff" stop-opacity="1.0000"/>
        <stop offset="100%" stop-color="#96b9b9" stop-opacity="1.0000"/>
      </radialGradient>
    </defs>
    <path xmlns="http://www.w3.org/2000/svg" d="  M21.0765,57.0135 L19.5660,56.1405 C19.4625,56.0812 19.3650,55.9125 19.3650,55.7947 L19.3650,53.7045 L20.8755,54.5722 C20.9805,54.6330 21.0765,54.7987 21.0765,54.9195 L21.0765,57.0135 Z" style="fill-rule: evenodd; fill: url(#grad4708); "/>
    <defs xmlns="http://www.w3.org/2000/svg" xmlns:xlink="http://www.w3.org/1999/xlink">
      <linearGradient id="grad4709">
        <stop offset="0%" stop-color="#bdd1dd" stop-opacity="1.0000"/>
        <stop offset="100%" stop-color="#f3f9f7" stop-opacity="1.0000"/>
      </linearGradient>
      <linearGradient xlink:href="#grad4709" id="grad4710" x1="0" y1="0" x2="0" y2="1" gradientTransform="rotate(225 .5 .5)" gradientUnits="objectBoundingBox">
  </linearGradient>
    </defs>
    <path xmlns="http://www.w3.org/2000/svg" d="  M2.8380,27.3247 L2.8380,31.3867 C2.8380,31.6350 3.1387,32.0865 3.5415,32.3190 L5.4592,33.4260 L5.4592,28.7745 L3.1305,27.4305 C2.9925,27.3510 2.8972,27.3292 2.8380,27.3247 Z M6.0652,33.7762 L16.6792,39.9038 L16.6792,35.2515 L6.0652,29.1247 L6.0652,33.7762 Z M19.5060,36.8835 L17.2860,35.6017 L17.2860,40.2540 L19.9177,41.7727 C20.0663,41.8575 20.1667,41.8770 20.2102,41.8807 L20.2102,37.8165 C20.2095,37.5682 19.9088,37.1167 19.5060,36.8835 Z" style="fill-rule: evenodd; fill: url(#grad4710); "/>
    <g xmlns="http://www.w3.org/2000/svg" id="Layer1149">
      <path d="  M4.8525,30.5745 L3.6390,29.8747 L3.6390,28.8240 L4.8525,29.5238 L4.8525,30.5745 Z" style="stroke-width: 0.0937; stroke-linecap: butt; stroke-linejoin: miter; fill-rule: evenodd; fill: #00a0c6; "/>
      <path d="  M4.8525,30.5745 L3.6390,29.8747 L3.6390,28.8240 L4.8525,29.5238 L4.8525,30.5745 Z" style="stroke-width: 0.0937; stroke: #005eff; stroke-dasharray: none; stroke-linecap: butt; stroke-linejoin: miter; fill: none; "/>
    </g>
    <path xmlns="http://www.w3.org/2000/svg" d="  M14.3565,39.4072 C14.1570,39.4072 13.9507,39.3458 13.7445,39.2273 L8.8927,36.4268 C8.2665,36.0660 7.7767,35.2170 7.7767,34.4948 L7.7767,30.9922 C7.7767,30.3675 8.1532,29.9302 8.6917,29.9302 C8.8927,29.9302 9.0990,29.9917 9.3052,30.1103 L14.1570,32.9107 C14.7825,33.2722 15.2715,34.1220 15.2715,34.8442 L15.2715,38.3452 C15.2722,38.6805 15.1702,38.9610 14.9767,39.1552 C14.8147,39.3172 14.5942,39.4072 14.3565,39.4072 Z" style="fill-rule: evenodd; fill: #00a0c6; "/>
    <defs xmlns="http://www.w3.org/2000/svg" xmlns:xlink="http://www.w3.org/1999/xlink">
      <linearGradient id="grad4711">
        <stop offset="0%" stop-color="#cdcfcf" stop-opacity="1.0000"/>
        <stop offset="100%" stop-color="#656d6d" stop-opacity="1.0000"/>
      </linearGradient>
      <linearGradient xlink:href="#grad4711" id="grad4712" x1="0" y1="0" x2="0" y2="1" gradientTransform="rotate(135 .5 .5)" gradientUnits="objectBoundingBox">
  </linearGradient>
    </defs>
    <path xmlns="http://www.w3.org/2000/svg" d="  M14.8590,38.3452 C14.8597,38.9250 14.4525,39.1612 13.9500,38.8702 L9.0975,36.0690 C8.5950,35.7787 8.1877,35.0745 8.1877,34.4940 L8.1877,30.9922 C8.1877,30.4125 8.5950,30.1770 9.0975,30.4665 L13.9500,33.2677 C14.4525,33.5580 14.8590,34.2637 14.8590,34.8442 L14.8590,38.3452 Z" style="fill-rule: evenodd; fill: url(#grad4712); "/>
    <defs xmlns="http://www.w3.org/2000/svg">
      <radialGradient id="grad4713" cx="50.0000%" cy="50.0000%" r="100.0000%">
        <stop offset="0%" stop-color="#ffffff" stop-opacity="1.0000"/>
        <stop offset="100%" stop-color="#96b9b9" stop-opacity="1.0000"/>
      </radialGradient>
    </defs>
    <path xmlns="http://www.w3.org/2000/svg" d="  M14.0355,37.9680 L9.5107,35.3557 C9.2640,35.2140 9.0127,34.7782 9.0127,34.4947 L9.0127,31.3687 L13.5382,33.9817 C13.7850,34.1235 14.0355,34.5600 14.0355,34.8442 L14.0355,37.9680 Z" style="fill-rule: evenodd; fill: url(#grad4713); "/>
    <g xmlns="http://www.w3.org/2000/svg" id="Layer1150">
      <path d="  M4.8525,32.6752 L3.6390,31.9747 L3.6390,30.9247 L4.8525,31.6252 L4.8525,32.6752 Z" style="stroke-width: 0.0937; stroke-linecap: butt; stroke-linejoin: miter; fill-rule: evenodd; fill: #00a0c6; "/>
      <path d="  M4.8525,32.6752 L3.6390,31.9747 L3.6390,30.9247 L4.8525,31.6252 L4.8525,32.6752 Z" style="stroke-width: 0.0937; stroke: #005eff; stroke-dasharray: none; stroke-linecap: butt; stroke-linejoin: miter; fill: none; "/>
    </g>
    <g xmlns="http://www.w3.org/2000/svg" id="Layer1151">
      <path d="  M19.1055,38.8042 L17.8927,38.1038 L17.8927,37.0530 L19.1055,37.7535 L19.1055,38.8042 Z" style="stroke-width: 0.0937; stroke-linecap: butt; stroke-linejoin: miter; fill-rule: evenodd; fill: #00a0c6; "/>
      <path d="  M19.1055,38.8042 L17.8927,38.1038 L17.8927,37.0530 L19.1055,37.7535 L19.1055,38.8042 Z" style="stroke-width: 0.0937; stroke: #005eff; stroke-dasharray: none; stroke-linecap: butt; stroke-linejoin: miter; fill: none; "/>
    </g>
    <g xmlns="http://www.w3.org/2000/svg" id="Layer1152">
      <path d="  M19.1055,40.9042 L17.8927,40.2045 L17.8927,39.1537 L19.1055,39.8543 L19.1055,40.9042 Z" style="stroke-width: 0.0937; stroke-linecap: butt; stroke-linejoin: miter; fill-rule: evenodd; fill: #00a0c6; "/>
      <path d="  M19.1055,40.9042 L17.8927,40.2045 L17.8927,39.1537 L19.1055,39.8543 L19.1055,40.9042 Z" style="stroke-width: 0.0937; stroke: #005eff; stroke-dasharray: none; stroke-linecap: butt; stroke-linejoin: miter; fill: none; "/>
    </g>
    <defs xmlns="http://www.w3.org/2000/svg" xmlns:xlink="http://www.w3.org/1999/xlink">
      <linearGradient id="grad4714">
        <stop offset="0%" stop-color="#66ccff" stop-opacity="1.0000"/>
        <stop offset="100%" stop-color="#1e729f" stop-opacity="1.0000"/>
      </linearGradient>
      <linearGradient xlink:href="#grad4714" id="grad4715" x1="0" y1="0" x2="0" y2="1" gradientTransform="rotate(-0 .5 .5)" gradientUnits="objectBoundingBox">
  </linearGradient>
    </defs>
    <path xmlns="http://www.w3.org/2000/svg" d="  M19.8217,33.9540 L3.6870,24.6180 C3.4087,24.4575 3.1822,24.0248 3.1822,23.6535 L3.1822,7.3185 C3.1822,6.9472 3.4087,6.7762 3.6870,6.9367 L19.8217,16.2727 C20.1000,16.4333 20.3265,16.8660 20.3265,17.2373 L20.3272,33.5715 C20.3265,33.9428 20.1000,34.1145 19.8217,33.9540 Z" style="fill-rule: evenodd; fill: url(#grad4715); "/>
    <defs xmlns="http://www.w3.org/2000/svg" xmlns:xlink="http://www.w3.org/1999/xlink">
      <linearGradient id="grad4716">
        <stop offset="0%" stop-color="#66ccff" stop-opacity="0.8980"/>
        <stop offset="100%" stop-color="#1e729f" stop-opacity="0.8980"/>
      </linearGradient>
      <linearGradient xlink:href="#grad4716" id="grad4717" x1="0" y1="0" x2="0" y2="1" gradientTransform="rotate(180 .5 .5)" gradientUnits="objectBoundingBox">
  </linearGradient>
    </defs>
    <path xmlns="http://www.w3.org/2000/svg" d="  M3.6870,24.6172 L19.8217,33.9532 C20.1000,34.1137 20.3265,33.9420 20.3272,33.5708 L20.3265,17.2365 C20.3265,16.8653 20.1000,16.4325 19.8217,16.2720 L19.3140,15.9787 C16.1505,15.1455 4.1490,15.4612 3.1822,16.7415 L3.1822,23.6535 C3.1822,24.0240 3.4087,24.4575 3.6870,24.6172 Z" style="fill-rule: evenodd; fill: url(#grad4717); "/>
    <!--converted by libvisio2svg-->
  </g>
</svg>
