<svg xmlns="http://www.w3.org/2000/svg" xmlns:xlink="http://www.w3.org/1999/xlink" version="1.1" width="0.7997000000" height="0.8274000000" viewBox="0 0 57.5790 59.5732">
  <title><![CDATA[Speech Server]]></title>
  <g transform=" scale(1.000000) ">
    <path xmlns="http://www.w3.org/2000/svg" d="  M33.0000,6.2355 L22.6275,0.0007 L0.0000,13.0065 L0.0000,45.5767 L0.5010,45.8715 C1.8457,47.5905 4.6327,49.2308 7.7077,50.1037 L11.7158,52.4572 L33.0000,40.2330 L33.0000,37.8270 L32.9985,37.7970 L32.5365,37.5772 L33.0000,37.3118 L33.0000,35.3557 L32.9985,35.3250 L32.5365,35.1060 L33.0000,34.8405 L33.0000,32.8845 L32.9985,32.8537 L32.5695,32.6505 L33.0000,32.4045 L33.0000,6.2663 L33.0000,6.2355 Z" style="stroke-width: 1.5000; stroke: #8d99b5; stroke-dasharray: none; stroke-linecap: butt; stroke-linejoin: miter; fill: none; "/>
    <path xmlns="http://www.w3.org/2000/svg" d="  M44.6003,51.2370 C43.8383,47.4187 42.6563,41.8988 35.8215,39.2700 C35.3903,39.1035 34.9305,38.9647 34.4520,38.8455 C34.4250,38.6775 34.2780,37.7978 34.1123,36.7958 C34.1460,36.7162 34.5885,35.7412 35.3093,35.0400 C36.4005,33.9787 37.6268,32.3295 38.3003,30.4560 C39.4470,27.2618 39.0652,22.3792 35.3640,19.9418 C35.0505,19.6890 34.7145,19.4587 34.3485,19.2592 C33.6990,18.9045 32.7532,18.2542 30.4635,17.9918 C27.5880,17.5875 24.0945,17.9955 21.9135,19.3222 C20.2590,20.3287 19.7528,20.8950 19.4183,21.4838 C17.8500,23.7938 20.9932,24.9173 21.0563,24.9398 C20.7412,26.3025 20.9250,27.8670 20.9250,29.5582 C20.9250,33.7665 22.4572,37.3605 25.0252,38.8020 C25.0252,38.9145 25.0252,39.0262 25.0252,39.1312 C23.7750,39.4680 22.5450,39.9173 21.3825,40.4910 C20.1720,41.0880 19.1280,42.1005 18.3458,43.4235 C18.3120,43.5630 16.6523,46.6440 16.8255,49.8323 C16.8998,51.1958 17.8275,52.3515 19.3410,53.1720 C19.3485,53.1765 19.3552,53.1795 19.3620,53.1840 L19.3613,53.1840 L24.4440,56.1188 L24.4455,56.1225 L24.9293,56.3947 L26.7210,57.4327 C30.4268,59.5732 36.9000,59.3040 41.1787,56.8342 C43.9395,55.2390 44.9813,53.1472 44.6003,51.2370 Z M34.4535,38.8477 L34.4520,38.8463 C34.4528,38.8470 34.4535,38.8477 34.4535,38.8477 Z" style="stroke-width: 1.5000; stroke: #8d99b5; stroke-dasharray: none; stroke-linecap: butt; stroke-linejoin: miter; fill: none; "/>
    <path xmlns="http://www.w3.org/2000/svg" d="  M57.5790,15.2355 C57.5790,9.4950 51.4380,4.8405 43.8630,4.8405 C36.2880,4.8405 30.1470,9.4950 30.1470,15.2355 C30.1470,20.5642 35.4382,24.9533 42.2542,25.5577 L42.2542,28.0935 C42.2542,28.3320 42.4462,28.5262 42.6848,28.5262 C42.7988,28.5262 42.9030,28.4820 42.9810,28.4100 L45.7395,25.5315 C52.4257,24.8377 57.5790,20.4937 57.5790,15.2355 Z" style="stroke-width: 1.5000; stroke: #8d99b5; stroke-dasharray: none; stroke-linecap: butt; stroke-linejoin: miter; fill: none; "/>
    <path xmlns="http://www.w3.org/2000/svg" d="  M20.0550,40.3200 L32.9985,32.8522 L32.5695,32.6482 L20.0550,39.7942 L20.0550,40.3200 Z" style="fill-rule: evenodd; fill: #404040; "/>
    <path xmlns="http://www.w3.org/2000/svg" d="  M20.0550,42.7912 L32.9985,35.3242 L32.5365,35.1052 L20.0550,42.2662 L20.0550,42.7912 Z" style="fill-rule: evenodd; fill: #404040; "/>
    <path xmlns="http://www.w3.org/2000/svg" d="  M20.0550,45.2640 L32.9985,37.7970 L32.5365,37.5772 L20.0550,44.7375 L20.0550,45.2640 Z" style="fill-rule: evenodd; fill: #404040; "/>
    <defs xmlns="http://www.w3.org/2000/svg" xmlns:xlink="http://www.w3.org/1999/xlink">
      <linearGradient id="grad4718">
        <stop offset="0%" stop-color="#656d6b" stop-opacity="1.0000"/>
        <stop offset="100%" stop-color="#dae1e1" stop-opacity="1.0000"/>
      </linearGradient>
      <linearGradient xlink:href="#grad4718" id="grad4719" x1="0" y1="0" x2="0" y2="1" gradientTransform="rotate(90 .5 .5)" gradientUnits="objectBoundingBox">
  </linearGradient>
    </defs>
    <path xmlns="http://www.w3.org/2000/svg" d="  M11.7158,18.7043 L0.0000,13.0065 L0.0000,45.5767 L0.5010,45.8715 C0.3923,45.7327 0.2925,45.5932 0.2040,45.4545 L0.2040,31.2847 L0.2040,28.1242 L0.2040,21.3615 L0.2040,14.5440 L10.7948,19.7797 C10.7948,19.7797 10.8360,19.7843 10.8563,19.7858 L10.8563,26.6512 L10.8563,33.3667 L10.8563,36.7245 L10.8563,50.6977 C9.8033,50.6040 8.7398,50.3962 7.7085,50.1045 L11.7165,52.4580 L11.7165,18.7043 L11.7158,18.7043 Z" style="fill-rule: evenodd; fill: url(#grad4719); "/>
    <defs xmlns="http://www.w3.org/2000/svg" xmlns:xlink="http://www.w3.org/1999/xlink">
      <linearGradient id="grad4720">
        <stop offset="0%" stop-color="#85929d" stop-opacity="0.9882"/>
        <stop offset="100%" stop-color="#dadfe1" stop-opacity="0.9882"/>
      </linearGradient>
      <linearGradient xlink:href="#grad4720" id="grad4721" x1="0" y1="0" x2="0" y2="1" gradientTransform="rotate(90 .5 .5)" gradientUnits="objectBoundingBox">
  </linearGradient>
    </defs>
    <path xmlns="http://www.w3.org/2000/svg" d="  M10.4078,36.7185 C10.4078,36.7702 10.3463,36.8160 10.2660,36.8160 C10.2593,36.8160 10.2443,36.8160 10.2443,36.8160 C7.0830,36.8632 2.9595,35.4255 0.6292,31.8622 C0.4702,31.6688 0.3270,31.4767 0.2047,31.2847 L0.2047,45.4552 C0.2932,45.5940 0.3937,45.7335 0.5017,45.8722 C1.8465,47.5912 4.6335,49.2315 7.7085,50.1045 C8.7398,50.3962 9.8033,50.6040 10.8563,50.6977 L10.8563,36.7238 C10.7018,36.7102 10.5480,36.6930 10.3920,36.6750 C10.4018,36.6885 10.4078,36.7035 10.4078,36.7185 Z M10.0913,48.9375 C9.9195,49.4812 9.0233,49.6800 8.0903,49.3860 C7.1558,49.0897 6.5393,48.4095 6.7103,47.8672 C6.8813,47.3250 7.7783,47.1247 8.7128,47.4202 C9.6465,47.7150 10.2645,48.3952 10.0913,48.9375 Z M10.2660,46.7655 C10.2593,46.7655 10.2443,46.7655 10.2443,46.7655 C6.9645,46.8150 2.6498,45.2677 0.3750,41.4052 C0.2107,41.1330 0.4057,41.1577 0.4057,41.1577 C1.8457,43.5937 6.0915,46.1497 10.1865,46.5615 C10.2053,46.5637 10.2645,46.5675 10.2720,46.5675 C10.3515,46.5675 10.4078,46.6162 10.4078,46.6687 C10.4078,46.7212 10.3463,46.7655 10.2660,46.7655 Z M10.2660,43.4490 C10.2593,43.4490 10.2443,43.4490 10.2443,43.4490 C6.9645,43.4985 2.6498,41.9512 0.3750,38.0880 C0.2107,37.8157 0.4057,37.8412 0.4057,37.8412 C1.8457,40.2765 6.0915,42.8332 10.1865,43.2450 C10.2053,43.2465 10.2645,43.2510 10.2720,43.2510 C10.3515,43.2510 10.4078,43.2990 10.4078,43.3522 C10.4078,43.4055 10.3463,43.4490 10.2660,43.4490 Z M10.2660,40.1325 C10.2593,40.1325 10.2443,40.1325 10.2443,40.1325 C6.9645,40.1805 2.6498,38.6340 0.3750,34.7715 C0.2107,34.4985 0.4057,34.5248 0.4057,34.5248 C1.8457,36.9592 6.0915,39.5167 10.1865,39.9285 C10.2053,39.9300 10.2645,39.9345 10.2720,39.9345 C10.3515,39.9345 10.4078,39.9825 10.4078,40.0357 C10.4078,40.0867 10.3463,40.1325 10.2660,40.1325 Z" style="fill-rule: evenodd; fill: url(#grad4721); "/>
    <defs xmlns="http://www.w3.org/2000/svg" xmlns:xlink="http://www.w3.org/1999/xlink">
      <linearGradient id="grad4722">
        <stop offset="0%" stop-color="#85929d" stop-opacity="0.9882"/>
        <stop offset="100%" stop-color="#dadfe1" stop-opacity="0.9882"/>
      </linearGradient>
      <linearGradient xlink:href="#grad4722" id="grad4723" x1="0" y1="0" x2="0" y2="1" gradientTransform="rotate(90 .5 .5)" gradientUnits="objectBoundingBox">
  </linearGradient>
    </defs>
    <path xmlns="http://www.w3.org/2000/svg" d="  M10.1865,26.6618 C10.2053,26.6633 10.2645,26.6678 10.2720,26.6678 C10.3515,26.6678 10.4078,26.7165 10.4078,26.7690 C10.4078,26.8215 10.3462,26.8650 10.2660,26.8650 C10.2592,26.8650 10.2442,26.8658 10.2442,26.8658 C7.1288,26.9123 3.0765,25.5158 0.7298,22.0620 C0.5288,21.8302 0.3518,21.5962 0.2040,21.3623 L0.2040,28.1250 C0.4395,28.4940 0.7470,28.8615 1.1123,29.2215 C0.8483,28.8825 0.6008,28.5218 0.3758,28.1377 C0.2115,27.8655 0.4065,27.8918 0.4065,27.8918 C1.3913,29.5560 3.6863,31.2773 6.3495,32.3310 C7.6020,32.7900 8.9370,33.1305 10.2683,33.3000 C10.2697,33.3000 10.2720,33.3008 10.2735,33.3008 C10.2795,33.3008 10.2848,33.3030 10.2907,33.3030 C10.4602,33.3248 10.6275,33.3443 10.7955,33.3600 C10.8158,33.3615 10.8368,33.3645 10.8570,33.3660 L10.8570,26.6505 C8.4915,26.4383 6.0682,25.6523 4.0853,24.5918 C5.8800,25.6500 8.0543,26.4473 10.1865,26.6618 Z M10.2660,30.1815 C10.2592,30.1815 10.2442,30.1823 10.2442,30.1823 C6.9645,30.2318 2.6498,28.6838 0.3750,24.8220 C0.2108,24.5490 0.4058,24.5745 0.4058,24.5745 C1.8458,27.0098 6.0915,29.5665 10.1865,29.9783 C10.2053,29.9798 10.2645,29.9843 10.2720,29.9843 C10.3515,29.9843 10.4078,30.0330 10.4078,30.0855 C10.4078,30.1380 10.3462,30.1815 10.2660,30.1815 Z" style="fill-rule: evenodd; fill: url(#grad4723); "/>
    <defs xmlns="http://www.w3.org/2000/svg" xmlns:xlink="http://www.w3.org/1999/xlink">
      <linearGradient id="grad4724">
        <stop offset="0%" stop-color="#c9d8dd" stop-opacity="0.9882"/>
        <stop offset="100%" stop-color="#f3faf8" stop-opacity="0.9882"/>
      </linearGradient>
      <linearGradient xlink:href="#grad4724" id="grad4725" x1="0" y1="0" x2="0" y2="1" gradientTransform="rotate(90 .5 .5)" gradientUnits="objectBoundingBox">
  </linearGradient>
    </defs>
    <path xmlns="http://www.w3.org/2000/svg" d="  M10.7948,33.3608 C10.6268,33.3450 10.4595,33.3255 10.2900,33.3038 C10.3598,33.3113 10.4078,33.3548 10.4078,33.4028 C10.4078,33.4545 10.3463,33.4995 10.2660,33.4995 C10.2593,33.4995 10.2443,33.4995 10.2443,33.4995 C7.2915,33.5445 3.4988,32.2920 1.1123,29.2223 C0.7470,28.8615 0.4395,28.4940 0.2040,28.1243 L0.2040,31.2848 C0.3263,31.4768 0.4695,31.6688 0.6285,31.8623 C0.5415,31.7288 0.4568,31.5945 0.3750,31.4550 C0.2108,31.1828 0.4058,31.2090 0.4058,31.2090 C1.2668,32.6648 3.1305,34.1633 5.3655,35.2215 C6.4350,35.7285 7.5900,36.1335 8.7608,36.3848 C9.2348,36.4875 9.7118,36.5648 10.1858,36.6128 C10.2045,36.6143 10.2638,36.6195 10.2713,36.6195 C10.3260,36.6195 10.3703,36.6435 10.3905,36.6758 C10.5465,36.6938 10.7003,36.7118 10.8548,36.7245 L10.8548,33.3668 C10.8360,33.3645 10.8150,33.3615 10.7948,33.3608 Z" style="fill-rule: evenodd; fill: url(#grad4725); "/>
    <defs xmlns="http://www.w3.org/2000/svg" xmlns:xlink="http://www.w3.org/1999/xlink">
      <linearGradient id="grad4726">
        <stop offset="0%" stop-color="#bed2dd" stop-opacity="0.9882"/>
        <stop offset="100%" stop-color="#f3faf8" stop-opacity="0.9882"/>
      </linearGradient>
      <linearGradient xlink:href="#grad4726" id="grad4727" x1="0" y1="0" x2="0" y2="1" gradientTransform="rotate(90 .5 .5)" gradientUnits="objectBoundingBox">
  </linearGradient>
    </defs>
    <path xmlns="http://www.w3.org/2000/svg" d="  M10.7948,19.7798 L0.2040,14.5440 L0.2040,21.3623 C0.3517,21.5963 0.5295,21.8303 0.7297,22.0620 C0.6067,21.8820 0.4882,21.6975 0.3750,21.5055 C0.2107,21.2333 0.4057,21.2595 0.4057,21.2595 C1.0957,22.4258 2.4300,23.6198 4.0837,24.5925 C6.0675,25.6538 8.4900,26.4390 10.8555,26.6513 L10.8555,19.7858 C10.8360,19.7835 10.7948,19.7798 10.7948,19.7798 Z M0.5625,15.4500 L10.5337,20.3790 C5.5882,23.1113 0.7522,18.7043 0.5625,15.4500 Z" style="fill-rule: evenodd; fill: url(#grad4727); "/>
    <path xmlns="http://www.w3.org/2000/svg" d="  M10.2728,46.5675 C10.2653,46.5675 10.2060,46.5638 10.1873,46.5615 C6.0922,46.1498 1.8465,43.5938 0.4065,41.1578 C0.4065,41.1578 0.2115,41.1330 0.3757,41.4053 C2.6505,45.2678 6.9653,46.8150 10.2443,46.7648 C10.2443,46.7648 10.2600,46.7648 10.2660,46.7648 C10.3463,46.7648 10.4078,46.7205 10.4078,46.6680 C10.4078,46.6163 10.3523,46.5675 10.2728,46.5675 Z" style="fill-rule: evenodd; fill: #010101; "/>
    <path xmlns="http://www.w3.org/2000/svg" d="  M10.2728,43.2510 C10.2653,43.2510 10.2060,43.2465 10.1873,43.2450 C6.0922,42.8332 1.8465,40.2765 0.4065,37.8413 C0.4065,37.8413 0.2115,37.8158 0.3757,38.0880 C2.6505,41.9505 6.9653,43.4985 10.2443,43.4483 C10.2443,43.4483 10.2600,43.4483 10.2660,43.4483 C10.3463,43.4483 10.4078,43.4040 10.4078,43.3515 C10.4078,43.2990 10.3523,43.2510 10.2728,43.2510 Z" style="fill-rule: evenodd; fill: #010101; "/>
    <path xmlns="http://www.w3.org/2000/svg" d="  M10.2728,39.9345 C10.2653,39.9345 10.2060,39.9300 10.1873,39.9285 C6.0922,39.5168 1.8465,36.9593 0.4065,34.5248 C0.4065,34.5248 0.2115,34.4985 0.3757,34.7715 C2.6505,38.6333 6.9653,40.1805 10.2443,40.1318 C10.2443,40.1318 10.2600,40.1318 10.2660,40.1318 C10.3463,40.1318 10.4078,40.0860 10.4078,40.0350 C10.4078,39.9833 10.3523,39.9345 10.2728,39.9345 Z" style="fill-rule: evenodd; fill: #010101; "/>
    <path xmlns="http://www.w3.org/2000/svg" d="  M10.3920,36.6743 C9.8475,36.6075 9.3023,36.5093 8.7615,36.3833 C7.5900,36.1320 6.4350,35.7270 5.3663,35.2200 C3.1313,34.1625 1.2675,32.6640 0.4065,31.2075 C0.4065,31.2075 0.2115,31.1813 0.3757,31.4535 C0.4567,31.5930 0.5422,31.7273 0.6292,31.8608 C2.9595,35.4248 7.0830,36.8618 10.2443,36.8145 C10.2443,36.8145 10.2600,36.8145 10.2660,36.8145 C10.3463,36.8145 10.4078,36.7688 10.4078,36.7170 C10.4078,36.7035 10.4018,36.6885 10.3920,36.6743 Z" style="fill-rule: evenodd; fill: #010101; "/>
    <path xmlns="http://www.w3.org/2000/svg" d="  M10.2900,33.3030 C10.2832,33.3030 10.2743,33.3015 10.2675,33.3000 C10.2540,33.3000 10.2045,33.2963 10.1873,33.2940 C8.8920,33.1635 7.5810,32.8185 6.3495,32.3310 C3.6862,31.2773 1.3912,29.5553 0.4065,27.8918 C0.4065,27.8918 0.2115,27.8655 0.3757,28.1378 C0.6015,28.5225 0.8490,28.8833 1.1122,29.2215 C3.4987,32.2905 7.2915,33.5430 10.2443,33.4988 C10.2443,33.4988 10.2600,33.4988 10.2660,33.4988 C10.3463,33.4988 10.4078,33.4538 10.4078,33.4020 C10.4078,33.3548 10.3598,33.3105 10.2900,33.3030 Z" style="fill-rule: evenodd; fill: #010101; "/>
    <path xmlns="http://www.w3.org/2000/svg" d="  M10.2728,26.6678 C10.2653,26.6678 10.2060,26.6640 10.1873,26.6618 C8.0543,26.4473 5.8808,25.6500 4.0845,24.5918 C2.4307,23.6190 1.0965,22.4243 0.4065,21.2588 C0.4065,21.2588 0.2115,21.2325 0.3757,21.5048 C0.4882,21.6968 0.6075,21.8813 0.7305,22.0613 C3.0772,25.5150 7.1287,26.9115 10.2450,26.8650 C10.2450,26.8650 10.2607,26.8643 10.2668,26.8643 C10.3470,26.8643 10.4085,26.8208 10.4085,26.7683 C10.4085,26.7158 10.3522,26.6678 10.2728,26.6678 Z" style="fill-rule: evenodd; fill: #010101; "/>
    <path xmlns="http://www.w3.org/2000/svg" d="  M10.2728,29.9843 C10.2653,29.9843 10.2060,29.9798 10.1873,29.9783 C6.0922,29.5665 1.8465,27.0098 0.4065,24.5745 C0.4065,24.5745 0.2115,24.5490 0.3757,24.8220 C2.6505,28.6838 6.9653,30.2318 10.2443,30.1823 C10.2443,30.1823 10.2600,30.1815 10.2660,30.1815 C10.3463,30.1815 10.4078,30.1365 10.4078,30.0848 C10.4078,30.0330 10.3523,29.9843 10.2728,29.9843 Z" style="fill-rule: evenodd; fill: #010101; "/>
    <defs xmlns="http://www.w3.org/2000/svg">
      <linearGradient id="grad4728">
        <stop offset="0%" stop-color="#656d6b" stop-opacity="1.0000"/>
        <stop offset="100%" stop-color="#dae1e1" stop-opacity="1.0000"/>
      </linearGradient>
    </defs>
    <path xmlns="http://www.w3.org/2000/svg" d="  M8.7128,47.4202 C7.7783,47.1240 6.8820,47.3242 6.7103,47.8672 C6.5385,48.4102 7.1558,49.0905 8.0903,49.3860 C9.0233,49.6807 9.9195,49.4812 10.0913,48.9375 C10.2645,48.3952 9.6465,47.7150 8.7128,47.4202 Z M9.4178,49.2352 C9.0705,49.5622 8.4713,49.4880 8.0790,49.0710 C7.9523,48.9352 7.8623,48.7807 7.8113,48.6225 C7.7775,48.5197 7.7610,48.4162 7.7595,48.3150 C7.7573,48.0885 7.8345,47.8755 7.9958,47.7232 C8.3430,47.3970 8.9423,47.4713 9.3345,47.8890 C9.7275,48.3060 9.7650,48.9090 9.4178,49.2352 Z" style="fill-rule: evenodd; fill: url(#grad4728); "/>
    <path xmlns="http://www.w3.org/2000/svg" d="  M7.9950,47.7233 C7.8330,47.8755 7.7565,48.0885 7.7588,48.3150 C7.7655,48.1538 7.8255,48.0045 7.9410,47.8943 C8.0348,47.8065 8.1533,47.7563 8.2785,47.7428 C8.5290,47.6798 8.8253,47.7660 9.0368,47.9910 C9.3270,48.2985 9.3503,48.7455 9.0960,49.0035 C9.0803,49.0238 9.0615,49.0448 9.0413,49.0643 C8.7735,49.3163 8.3093,49.2593 8.0055,48.9360 C7.9163,48.8415 7.8518,48.7335 7.8105,48.6225 C7.8615,48.7808 7.9515,48.9353 8.0783,49.0710 C8.4705,49.4880 9.0698,49.5615 9.4170,49.2353 C9.7643,48.9090 9.7268,48.3068 9.3338,47.8890 C8.9415,47.4713 8.3423,47.3970 7.9950,47.7233 Z" style="fill-rule: evenodd; fill: #010101; "/>
    <defs xmlns="http://www.w3.org/2000/svg">
      <radialGradient id="grad4729" cx="0.0000%" cy="100.0000%" r="100.0000%">
        <stop offset="0%" stop-color="#cdde61" stop-opacity="1.0000"/>
        <stop offset="100%" stop-color="#7ab049" stop-opacity="1.0000"/>
      </radialGradient>
    </defs>
    <path xmlns="http://www.w3.org/2000/svg" d="  M9.0412,49.0643 C9.0615,49.0448 9.0802,49.0238 9.0960,49.0035 C9.3502,48.7455 9.3270,48.2993 9.0367,47.9910 C8.8260,47.7660 8.5290,47.6798 8.2785,47.7428 C8.1532,47.7570 8.0347,47.8065 7.9410,47.8943 C7.8255,48.0038 7.7655,48.1538 7.7587,48.3150 C7.7602,48.4163 7.7767,48.5198 7.8105,48.6225 C7.8517,48.7335 7.9162,48.8415 8.0055,48.9360 C8.3092,49.2593 8.7735,49.3163 9.0412,49.0643 Z" style="fill-rule: evenodd; fill: url(#grad4729); "/>
    <defs xmlns="http://www.w3.org/2000/svg" xmlns:xlink="http://www.w3.org/1999/xlink">
      <linearGradient id="grad4730">
        <stop offset="0%" stop-color="#808788" stop-opacity="1.0000"/>
        <stop offset="100%" stop-color="#f3faf8" stop-opacity="1.0000"/>
      </linearGradient>
      <linearGradient xlink:href="#grad4730" id="grad4731" x1="0" y1="0" x2="0" y2="1" gradientTransform="rotate(315 .5 .5)" gradientUnits="objectBoundingBox">
  </linearGradient>
    </defs>
    <path xmlns="http://www.w3.org/2000/svg" d="  M0.5625,15.4500 C0.7523,18.7042 5.5883,23.1112 10.5337,20.3790 L0.5625,15.4500 Z M2.4735,16.5195 L8.8485,19.6440 C5.6250,21.2430 2.5568,18.5010 2.4735,16.5195 Z" style="fill-rule: evenodd; fill: url(#grad4731); "/>
    <defs xmlns="http://www.w3.org/2000/svg">
      <radialGradient id="grad4732" cx="0.0000%" cy="100.0000%" r="100.0000%">
        <stop offset="0%" stop-color="#acd36a" stop-opacity="1.0000"/>
        <stop offset="100%" stop-color="#000000" stop-opacity="1.0000"/>
      </radialGradient>
    </defs>
    <path xmlns="http://www.w3.org/2000/svg" d="  M2.4735,16.5195 C2.5567,18.5010 5.6250,21.2430 8.8485,19.6440 L2.4735,16.5195 Z" style="fill-rule: evenodd; fill: url(#grad4732); "/>
    <defs xmlns="http://www.w3.org/2000/svg" xmlns:xlink="http://www.w3.org/1999/xlink">
      <linearGradient id="grad4733">
        <stop offset="0%" stop-color="#808788" stop-opacity="1.0000"/>
        <stop offset="100%" stop-color="#dae1e1" stop-opacity="1.0000"/>
      </linearGradient>
      <linearGradient xlink:href="#grad4733" id="grad4734" x1="0" y1="0" x2="0" y2="1" gradientTransform="rotate(45 .5 .5)" gradientUnits="objectBoundingBox">
  </linearGradient>
    </defs>
    <path xmlns="http://www.w3.org/2000/svg" d="  M11.7435,18.6772 L11.7248,18.6675 L11.7248,52.2412 L33.0000,40.2330 L33.0000,37.8270 L20.0550,45.2640 L20.0550,44.7375 L32.5365,37.5772 L33.0000,37.3110 L33.0000,35.3550 L20.0550,42.7912 L20.0550,42.2662 L32.5365,35.1052 L33.0000,34.8390 L33.0000,32.8830 L20.0550,40.3200 L20.0550,39.7942 L32.5695,32.6482 L33.0000,32.4022 L33.0000,6.2663 L30.1455,7.9058 L11.7435,18.6772 Z" style="fill-rule: evenodd; fill: url(#grad4734); "/>
    <defs xmlns="http://www.w3.org/2000/svg" xmlns:xlink="http://www.w3.org/1999/xlink">
      <linearGradient id="grad4735">
        <stop offset="0%" stop-color="#808788" stop-opacity="1.0000"/>
        <stop offset="100%" stop-color="#f3faf8" stop-opacity="1.0000"/>
      </linearGradient>
      <linearGradient xlink:href="#grad4735" id="grad4736" x1="0" y1="0" x2="0" y2="1" gradientTransform="rotate(90 .5 .5)" gradientUnits="objectBoundingBox">
  </linearGradient>
    </defs>
    <path xmlns="http://www.w3.org/2000/svg" d="  M22.6275,0.0000 L0.1095,12.9990 L11.7248,18.6675 L33.0000,6.2355 L22.6275,0.0000 Z" style="fill-rule: evenodd; fill: url(#grad4736); "/>
    <defs xmlns="http://www.w3.org/2000/svg">
      <radialGradient id="grad4737" cx="50.0000%" cy="50.0000%" r="100.0000%">
        <stop offset="0%" stop-color="#fcd57a" stop-opacity="1.0000"/>
        <stop offset="100%" stop-color="#dfc487" stop-opacity="1.0000"/>
      </radialGradient>
    </defs>
    <path xmlns="http://www.w3.org/2000/svg" d="  M57.5790,15.2490 C57.5790,9.5085 51.4380,4.8540 43.8630,4.8540 C36.2880,4.8540 30.1470,9.5085 30.1470,15.2490 C30.1470,20.5770 35.4382,24.9667 42.2542,25.5705 L42.2542,28.1062 C42.2542,28.3455 42.4462,28.5390 42.6848,28.5390 C42.7987,28.5390 42.9030,28.4955 42.9810,28.4227 L45.7395,25.5442 C52.4257,24.8520 57.5790,20.5080 57.5790,15.2490 Z" style="fill-rule: evenodd; fill: url(#grad4737); "/>
    <defs xmlns="http://www.w3.org/2000/svg">
      <radialGradient id="grad4738" cx="50.0000%" cy="50.0000%" r="100.0000%">
        <stop offset="0%" stop-color="#fef6ac" stop-opacity="1.0000"/>
        <stop offset="100%" stop-color="#ffe28c" stop-opacity="1.0000"/>
      </radialGradient>
    </defs>
    <path xmlns="http://www.w3.org/2000/svg" d="  M42.8310,27.7432 L42.8310,25.5712 L42.8310,25.0425 L42.3052,24.9952 C35.7030,24.4095 30.7252,20.2192 30.7252,15.2482 C30.7252,9.8347 36.6187,5.4307 43.8637,5.4307 C51.1087,5.4307 57.0015,9.8347 57.0015,15.2482 C57.0015,20.1210 52.1347,24.3000 45.6795,24.9690 L45.4687,24.9915 L45.3225,25.1437 L42.8310,27.7432 Z" style="fill-rule: evenodd; fill: url(#grad4738); "/>
    <defs xmlns="http://www.w3.org/2000/svg">
      <radialGradient id="grad4739" cx="50.0000%" cy="50.0000%" r="100.0000%">
        <stop offset="0%" stop-color="#fef8eb" stop-opacity="1.0000"/>
        <stop offset="100%" stop-color="#ffe28c" stop-opacity="1.0000"/>
      </radialGradient>
    </defs>
    <path xmlns="http://www.w3.org/2000/svg" d="  M31.1610,12.7372 C32.6497,8.5365 37.7797,5.4315 43.8630,5.4315 C51.1080,5.4315 57.0022,9.8362 57.0022,15.2490 C56.9565,17.2155 49.2315,13.7182 43.6192,13.7182 C38.0835,13.7182 29.1960,18.2610 31.1610,12.7372 Z" style="fill-rule: evenodd; fill: url(#grad4739); "/>
    <path xmlns="http://www.w3.org/2000/svg" d="  M24.9278,56.3948 C26.8117,50.3213 27.4253,49.1393 29.2388,46.3208 C31.8127,42.3210 32.7998,42.4755 33.7590,41.2418 C35.1345,39.4733 34.6935,38.6100 33.4807,38.1480 C32.4075,37.7385 29.7915,37.1280 27.9630,37.4933 C25.9815,37.8893 24.4403,40.3020 24.0562,43.0080 C23.2447,48.7238 24.2025,54.5333 24.2025,54.5333 L24.4440,56.1225 L24.9278,56.3948 Z" style="fill-rule: evenodd; fill: #dbe3f3; "/>
    <defs xmlns="http://www.w3.org/2000/svg">
      <radialGradient id="grad4740" cx="50.0000%" cy="50.0000%" r="100.0000%">
        <stop offset="0%" stop-color="#92c4ab" stop-opacity="1.0000"/>
        <stop offset="100%" stop-color="#60ab87" stop-opacity="1.0000"/>
      </radialGradient>
    </defs>
    <path xmlns="http://www.w3.org/2000/svg" d="  M24.0555,43.0080 C24.2767,41.4465 24.8842,39.9863 25.7392,38.9520 C24.2430,39.3008 22.7640,39.8093 21.3802,40.4918 C20.1697,41.0888 19.1257,42.1013 18.3435,43.4243 C18.3098,43.5638 16.6500,46.6448 16.8233,49.8330 C16.8975,51.1965 17.8252,52.3523 19.3387,53.1728 C19.3462,53.1773 19.3530,53.1803 19.3597,53.1848 L19.3590,53.1848 L24.4417,56.1195 L24.2017,54.5340 C24.2025,54.5333 23.2440,48.7238 24.0555,43.0080 Z" style="fill-rule: evenodd; fill: url(#grad4740); "/>
    <path xmlns="http://www.w3.org/2000/svg" d="  M25.1138,39.9540 C25.1138,39.9540 24.2213,40.9702 23.7390,46.5968 C23.5155,49.1940 24.4395,56.1127 24.4395,56.1127 L24.2933,56.0257 C24.2933,56.0257 22.8458,50.7607 22.8810,46.1130 C22.8983,43.8570 23.3633,40.9702 25.3095,38.7008 L25.1138,39.9540 Z" style="fill-rule: evenodd; fill: #dbe3f3; "/>
    <path xmlns="http://www.w3.org/2000/svg" d="  M24.0825,46.7363 C23.9798,52.5060 24.4440,56.1233 24.4440,56.1233 C24.4440,56.1233 23.4870,50.1368 23.4173,47.2935 C23.3400,44.1615 24.0600,40.3290 25.8810,38.0520 C25.8810,38.0505 24.1875,40.7400 24.0825,46.7363 Z" style="fill-rule: evenodd; fill: #737477; "/>
    <defs xmlns="http://www.w3.org/2000/svg">
      <radialGradient id="grad4741" cx="50.0000%" cy="50.0000%" r="100.0000%">
        <stop offset="0%" stop-color="#6f4a24" stop-opacity="1.0000"/>
        <stop offset="100%" stop-color="#ebc8a8" stop-opacity="1.0000"/>
      </radialGradient>
    </defs>
    <path xmlns="http://www.w3.org/2000/svg" d="  M34.6882,39.2655 C34.6463,38.8567 34.4572,38.8770 34.4572,38.8770 C34.4572,38.8770 33.6000,33.7485 33.5752,33.5070 C33.4170,31.9575 32.2080,31.4565 29.6497,31.4565 C27.0923,31.4565 25.0178,32.6460 25.0178,34.1152 C25.0178,34.4070 25.0238,40.0815 25.0283,40.5720 C25.0598,44.3902 28.3013,46.2075 31.7730,43.1408 C33.6172,41.5125 34.6290,40.5870 34.6882,39.2655 Z" style="fill-rule: evenodd; fill: url(#grad4741); "/>
    <defs xmlns="http://www.w3.org/2000/svg">
      <radialGradient id="grad4742" cx="50.0000%" cy="50.0000%" r="100.0000%">
        <stop offset="0%" stop-color="#92c4ab" stop-opacity="1.0000"/>
        <stop offset="100%" stop-color="#60ab87" stop-opacity="1.0000"/>
      </radialGradient>
    </defs>
    <path xmlns="http://www.w3.org/2000/svg" d="  M26.7188,57.4327 C30.4245,59.5732 36.8978,59.3040 41.1765,56.8342 C43.9395,55.2390 44.9805,53.1472 44.5995,51.2370 C43.8375,47.4187 42.6555,41.8987 35.8207,39.2700 C35.3895,39.1035 34.9290,38.9647 34.4512,38.8455 C34.7708,39.3675 34.6433,40.0785 33.7732,41.1975 C32.8125,42.4320 31.8120,42.3217 29.2380,46.3215 C27.4245,49.1400 26.8110,50.3220 24.9270,56.3955 L26.7188,57.4327 Z" style="fill-rule: evenodd; fill: url(#grad4742); "/>
    <defs xmlns="http://www.w3.org/2000/svg">
      <radialGradient id="grad4743" cx="50.0000%" cy="50.0000%" r="100.0000%">
        <stop offset="0%" stop-color="#6f4a24" stop-opacity="1.0000"/>
        <stop offset="100%" stop-color="#ebc8a8" stop-opacity="1.0000"/>
      </radialGradient>
    </defs>
    <path xmlns="http://www.w3.org/2000/svg" d="  M35.9385,27.9300 C35.1960,27.4920 33.9878,28.2075 33.2415,29.5267 C32.4945,30.8467 32.4900,32.2702 33.2325,32.7082 C33.9758,33.1455 35.1840,32.4300 35.9310,31.1107 C36.6788,29.7915 36.6810,28.3665 35.9385,27.9300 Z" style="fill-rule: evenodd; fill: url(#grad4743); "/>
    <defs xmlns="http://www.w3.org/2000/svg">
      <radialGradient id="grad4744" cx="50.0000%" cy="50.0000%" r="100.0000%">
        <stop offset="0%" stop-color="#6f4a24" stop-opacity="1.0000"/>
        <stop offset="100%" stop-color="#e4c2a0" stop-opacity="1.0000"/>
      </radialGradient>
    </defs>
    <path xmlns="http://www.w3.org/2000/svg" d="  M35.9385,28.6545 C35.1960,28.2172 33.9878,28.9327 33.2415,30.2520 C32.4945,31.5720 32.4900,32.9970 33.2325,33.4335 C33.9758,33.8715 35.1840,33.1552 35.9310,31.8360 C36.6788,30.5160 36.6810,29.0925 35.9385,28.6545 Z" style="fill-rule: evenodd; fill: url(#grad4744); "/>
    <defs xmlns="http://www.w3.org/2000/svg">
      <radialGradient id="grad4745" cx="50.0000%" cy="50.0000%" r="100.0000%">
        <stop offset="0%" stop-color="#ebc8a8" stop-opacity="1.0000"/>
        <stop offset="100%" stop-color="#976e3d" stop-opacity="1.0000"/>
      </radialGradient>
    </defs>
    <path xmlns="http://www.w3.org/2000/svg" d="  M33.9802,29.7510 C33.9802,35.2297 31.3305,39.4792 27.5258,39.4792 C23.7210,39.4792 20.9243,35.0377 20.9243,29.5590 C20.9243,24.0795 21.7320,19.9380 27.5258,19.6372 C31.3260,19.4400 33.9802,24.2707 33.9802,29.7510 Z" style="fill-rule: evenodd; fill: url(#grad4745); "/>
    <path xmlns="http://www.w3.org/2000/svg" d="  M27.2100,39.0525 C27.2392,39.0540 27.2685,39.0563 27.2977,39.0563 C30.8865,39.0563 33.3922,35.0753 33.4282,29.9235 C32.9310,33.9232 30.2377,38.4240 27.2100,39.0525 Z" style="fill-rule: evenodd; fill: #a17d58; "/>
    <path xmlns="http://www.w3.org/2000/svg" d="  M35.3640,19.9417 C35.0505,19.6890 34.7145,19.4587 34.3485,19.2592 C33.6990,18.9045 32.7533,18.2542 30.4635,17.9917 C27.5880,17.5875 24.0945,17.9955 21.9135,19.3222 C20.2590,20.3287 19.7528,20.8950 19.4183,21.4837 C17.8343,23.8170 21.0593,24.9405 21.0593,24.9405 L21.2490,24.2497 C21.2490,24.2497 22.5128,23.9647 24.8055,24.5902 C27.3885,25.2945 29.4293,27.1612 31.9733,26.6460 C33.2558,26.5320 33.7418,27.9142 33.8843,28.4587 C33.8993,28.5937 33.9045,28.6747 33.9045,28.6747 C33.9045,28.6747 33.9135,28.6620 33.9262,28.6440 C33.9293,28.6627 33.9323,28.6747 33.9323,28.6747 C33.9323,28.6747 34.4198,27.9315 35.2763,27.8850 C35.4750,27.8745 35.6925,27.9007 35.9273,27.9817 C36.7485,28.2645 36.4260,30.3622 36.4058,30.6000 C36.4073,30.5992 36.4095,30.6000 36.4110,30.6000 C36.3240,30.9997 36.1650,31.4235 35.9317,31.8367 C35.2740,32.9977 34.2608,33.6900 33.5205,33.5422 L34.1078,36.8032 C34.1078,36.8032 34.5577,35.7705 35.3093,35.0400 C36.4005,33.9787 37.6267,32.3295 38.3003,30.4560 C39.4470,27.2617 39.0645,22.3785 35.3640,19.9417 Z" style="fill-rule: evenodd; fill: #3e3e3e; "/>
    <defs xmlns="http://www.w3.org/2000/svg">
      <radialGradient id="grad4746" cx="50.0000%" cy="50.0000%" r="100.0000%">
        <stop offset="0%" stop-color="#8f8f8e" stop-opacity="1.0000"/>
        <stop offset="100%" stop-color="#505050" stop-opacity="1.0000"/>
      </radialGradient>
    </defs>
    <path xmlns="http://www.w3.org/2000/svg" d="  M33.6053,25.1310 C31.1835,26.6340 25.4107,23.6175 23.9033,23.2357 C21.9810,22.7475 16.1963,22.7985 21.9127,19.3230 C25.0740,17.4007 30.9945,17.4060 33.7875,19.0177 C36.5813,20.6295 36.2640,23.4802 33.6053,25.1310 Z" style="fill-rule: evenodd; fill: url(#grad4746); "/>
    <defs xmlns="http://www.w3.org/2000/svg" xmlns:xlink="http://www.w3.org/1999/xlink">
      <linearGradient id="grad4747">
        <stop offset="0%" stop-color="#808788" stop-opacity="1.0000"/>
        <stop offset="100%" stop-color="#dae1e1" stop-opacity="1.0000"/>
      </linearGradient>
      <linearGradient xlink:href="#grad4747" id="grad4748" x1="0" y1="0" x2="0" y2="1" gradientTransform="rotate(135 .5 .5)" gradientUnits="objectBoundingBox">
  </linearGradient>
    </defs>
    <path xmlns="http://www.w3.org/2000/svg" d="  M24.1860,23.0482 C22.8255,22.7025 19.3725,22.6957 19.5960,21.4455 C19.6320,21.2452 19.7430,21.0570 19.7430,21.0570 C18.3120,22.8600 22.3590,22.8427 23.9032,23.2350 C25.4107,23.6175 31.1827,26.6332 33.6052,25.1302 C33.7020,25.0695 33.7950,25.0072 33.8850,24.9442 C31.4625,26.4442 25.6935,23.4307 24.1860,23.0482 Z" style="fill-rule: evenodd; fill: url(#grad4748); "/>
    <!--converted by libvisio2svg-->
  </g>
</svg>
