<svg xmlns="http://www.w3.org/2000/svg" xmlns:xlink="http://www.w3.org/1999/xlink" version="1.1" width="0.4503000000" height="0.8488000000" viewBox="0 0 32.4195 61.1160">
  <title><![CDATA[Storage Group]]></title>
  <g transform=" scale(1.000000) ">
    <path xmlns="http://www.w3.org/2000/svg" d="  M32.4150,47.3025 C32.4127,46.1685 31.3853,45.1755 29.8365,44.6055 L29.8365,30.2257 L29.8313,30.2288 L29.8313,30.2100 L29.8365,30.2070 L29.8313,28.9957 L29.8297,28.9770 L29.8313,28.6762 L29.8313,27.4650 L29.8297,27.4455 L29.8313,27.1455 L29.8313,25.9335 L29.8297,25.9147 L29.8313,25.6358 L29.8313,9.4455 L29.8313,9.4260 L23.4060,5.5650 L20.4413,7.2765 L20.4413,3.9105 L14.0182,0.0000 L0.0000,8.0865 L0.0000,28.2615 L0.3105,28.4437 C0.3592,28.5060 0.4215,28.5683 0.4762,28.6298 L0.0727,28.8623 L0.0060,28.8675 L0.0060,49.0440 L0.3165,49.2255 C1.1483,50.2905 2.8747,51.3068 4.7805,51.8475 L7.2638,53.3047 L9.3960,51.9705 L9.3960,54.5782 L9.7072,54.7612 C10.5390,55.8262 12.2655,56.8425 14.1697,57.3833 L16.6545,58.8405 L21.2483,56.1158 L21.2483,57.8985 C21.2483,57.9030 21.2475,57.9075 21.2475,57.9105 C21.2475,57.9150 21.2483,57.9195 21.2483,57.9240 L21.2483,57.9330 C21.2685,59.6940 23.7607,61.1160 26.8328,61.1160 C29.9047,61.1160 32.3962,59.6940 32.4158,57.9330 L32.4195,57.9330 L32.4195,47.3025 L32.4150,47.3025 Z" style="stroke-width: 1.5000; stroke: #8d98b5; stroke-dasharray: none; stroke-linecap: butt; stroke-linejoin: miter; fill: none; "/>
    <path xmlns="http://www.w3.org/2000/svg" d="  M12.4282,45.7853 L20.4465,41.1608 L20.1795,41.0333 L12.4282,45.4598 L12.4282,45.7853 Z" style="fill-rule: evenodd; fill: #3f3f3f; "/>
    <path xmlns="http://www.w3.org/2000/svg" d="  M12.4282,47.3160 L20.4465,42.6915 L20.1600,42.5550 L12.4282,46.9905 L12.4282,47.3160 Z" style="fill-rule: evenodd; fill: #3f3f3f; "/>
    <path xmlns="http://www.w3.org/2000/svg" d="  M12.4282,48.8483 L20.4465,44.2223 L20.1600,44.0873 L12.4282,48.5228 L12.4282,48.8483 Z" style="fill-rule: evenodd; fill: #3f3f3f; "/>
    <defs xmlns="http://www.w3.org/2000/svg" xmlns:xlink="http://www.w3.org/1999/xlink">
      <linearGradient id="grad4766">
        <stop offset="0%" stop-color="#7f8787" stop-opacity="1.0000"/>
        <stop offset="100%" stop-color="#f3f9f7" stop-opacity="1.0000"/>
      </linearGradient>
      <linearGradient xlink:href="#grad4766" id="grad4767" x1="0" y1="0" x2="0" y2="1" gradientTransform="rotate(315 .5 .5)" gradientUnits="objectBoundingBox">
  </linearGradient>
    </defs>
    <path xmlns="http://www.w3.org/2000/svg" d="  M0.3555,30.3803 C0.4710,32.3963 3.4680,35.1270 6.5295,33.4335 L0.3555,30.3803 Z M1.5382,31.0433 L5.4863,32.9783 C3.4890,33.9683 1.5892,32.2703 1.5382,31.0433 Z" style="fill-rule: evenodd; fill: url(#grad4767); "/>
    <defs xmlns="http://www.w3.org/2000/svg" xmlns:xlink="http://www.w3.org/1999/xlink">
      <linearGradient id="grad4768">
        <stop offset="0%" stop-color="#7f8787" stop-opacity="1.0000"/>
        <stop offset="100%" stop-color="#dae1e1" stop-opacity="1.0000"/>
      </linearGradient>
      <linearGradient xlink:href="#grad4768" id="grad4769" x1="0" y1="0" x2="0" y2="1" gradientTransform="rotate(45 .5 .5)" gradientUnits="objectBoundingBox">
  </linearGradient>
    </defs>
    <path xmlns="http://www.w3.org/2000/svg" d="  M7.2802,32.3790 L7.2682,32.3745 L7.2682,53.1705 L20.4480,45.7312 L20.4480,44.2410 L12.4282,48.8482 L12.4282,48.5227 L20.1600,44.0872 L20.4480,43.9215 L20.4480,42.7102 L12.4282,47.3160 L12.4282,46.9905 L20.1600,42.5550 L20.4480,42.3907 L20.4480,41.1780 L12.4282,45.7852 L12.4282,45.4597 L20.1795,41.0332 L20.4480,40.8810 L20.4480,24.6907 L18.6795,25.7070 L7.2802,32.3790 Z" style="fill-rule: evenodd; fill: url(#grad4769); "/>
    <defs xmlns="http://www.w3.org/2000/svg" xmlns:xlink="http://www.w3.org/1999/xlink">
      <linearGradient id="grad4770">
        <stop offset="0%" stop-color="#7f8787" stop-opacity="1.0000"/>
        <stop offset="100%" stop-color="#f3f9f7" stop-opacity="1.0000"/>
      </linearGradient>
      <linearGradient xlink:href="#grad4770" id="grad4771" x1="0" y1="0" x2="0" y2="1" gradientTransform="rotate(90 .5 .5)" gradientUnits="objectBoundingBox">
  </linearGradient>
    </defs>
    <path xmlns="http://www.w3.org/2000/svg" d="  M14.0213,20.8095 L0.0728,28.8615 L7.2683,32.3745 L20.4480,24.6720 L14.0213,20.8095 Z" style="fill-rule: evenodd; fill: url(#grad4771); "/>
    <defs xmlns="http://www.w3.org/2000/svg">
      <radialGradient id="grad4772" cx="50.0000%" cy="50.0000%" r="100.0000%">
        <stop offset="0%" stop-color="#a7e968" stop-opacity="1.0000"/>
        <stop offset="100%" stop-color="#000000" stop-opacity="1.0000"/>
      </radialGradient>
    </defs>
    <path xmlns="http://www.w3.org/2000/svg" d="  M1.5383,31.0432 C1.5893,32.2710 3.4898,33.9682 5.4863,32.9782 L1.5383,31.0432 Z" style="fill-rule: evenodd; fill: url(#grad4772); "/>
    <defs xmlns="http://www.w3.org/2000/svg">
      <radialGradient id="grad4773" cx="50.0000%" cy="50.0000%" r="100.0000%">
        <stop offset="0%" stop-color="#ccff66" stop-opacity="1.0000"/>
        <stop offset="100%" stop-color="#7ab04a" stop-opacity="1.0000"/>
      </radialGradient>
    </defs>
    <path xmlns="http://www.w3.org/2000/svg" d="  M5.6063,51.2017 C5.6190,51.1897 5.6295,51.1770 5.6408,51.1635 C5.7975,51.0052 5.7833,50.7270 5.6040,50.5365 C5.4720,50.3970 5.2898,50.3445 5.1338,50.3827 C5.0565,50.3932 4.9838,50.4225 4.9253,50.4765 C4.8533,50.5455 4.8158,50.6377 4.8120,50.7375 C4.8128,50.8005 4.8233,50.8650 4.8450,50.9295 C4.8698,50.9985 4.9103,51.0645 4.9658,51.1230 C5.1533,51.3240 5.4398,51.3585 5.6063,51.2017 Z" style="fill-rule: evenodd; fill: url(#grad4773); "/>
    <path xmlns="http://www.w3.org/2000/svg" d="  M4.9583,50.3715 C4.8578,50.4652 4.8098,50.5972 4.8113,50.7375 C4.8158,50.6377 4.8533,50.5455 4.9245,50.4765 C4.9830,50.4225 5.0565,50.3932 5.1330,50.3827 C5.2890,50.3445 5.4713,50.3977 5.6033,50.5365 C5.7825,50.7270 5.7968,51.0052 5.6400,51.1635 C5.6288,51.1770 5.6183,51.1897 5.6055,51.2017 C5.4390,51.3585 5.1525,51.3232 4.9650,51.1230 C4.9095,51.0645 4.8690,50.9985 4.8443,50.9295 C4.8758,51.0262 4.9305,51.1215 5.0100,51.2062 C5.2530,51.4642 5.6243,51.5092 5.8388,51.3075 C6.0540,51.1050 6.0308,50.7330 5.7885,50.4742 C5.5455,50.2162 5.1735,50.1697 4.9583,50.3715 Z" style="fill-rule: evenodd; fill: #000000; "/>
    <defs xmlns="http://www.w3.org/2000/svg">
      <linearGradient id="grad4774">
        <stop offset="0%" stop-color="#646c6b" stop-opacity="1.0000"/>
        <stop offset="100%" stop-color="#dae1e1" stop-opacity="1.0000"/>
      </linearGradient>
    </defs>
    <path xmlns="http://www.w3.org/2000/svg" d="  M5.4022,50.1840 C4.8240,50.0010 4.2682,50.1240 4.1625,50.4607 C4.0552,50.7960 4.4377,51.2182 5.0167,51.4012 C5.5957,51.5842 6.1507,51.4612 6.2565,51.1245 C6.3630,50.7877 5.9812,50.3670 5.4022,50.1840 Z M5.8387,51.3075 C5.6242,51.5100 5.2530,51.4642 5.0100,51.2062 C4.9312,51.1215 4.8757,51.0262 4.8442,50.9295 C4.8225,50.8650 4.8120,50.8005 4.8112,50.7375 C4.8097,50.5965 4.8585,50.4652 4.9582,50.3715 C5.1727,50.1690 5.5447,50.2162 5.7877,50.4742 C6.0307,50.7330 6.0540,51.1057 5.8387,51.3075 Z" style="fill-rule: evenodd; fill: url(#grad4774); "/>
    <path xmlns="http://www.w3.org/2000/svg" d="  M6.3690,49.6552 C6.3645,49.6552 6.3270,49.6537 6.3157,49.6522 C3.7785,49.3972 1.1490,47.8140 0.2572,46.3050 C0.2572,46.3050 0.1365,46.2892 0.2385,46.4572 C1.6477,48.8505 4.3200,49.8090 6.3517,49.7782 C6.3517,49.7782 6.3607,49.7782 6.3652,49.7782 C6.4163,49.7782 6.4522,49.7505 6.4522,49.7182 C6.4522,49.6860 6.4177,49.6552 6.3690,49.6552 Z" style="fill-rule: evenodd; fill: #000000; "/>
    <path xmlns="http://www.w3.org/2000/svg" d="  M6.3690,47.6017 C6.3645,47.6017 6.3270,47.5987 6.3157,47.5972 C3.7785,47.3437 1.1490,45.7590 0.2572,44.2500 C0.2572,44.2500 0.1365,44.2342 0.2385,44.4037 C1.6477,46.7955 4.3200,47.7555 6.3517,47.7232 C6.3517,47.7232 6.3607,47.7232 6.3652,47.7232 C6.4163,47.7232 6.4522,47.6970 6.4522,47.6647 C6.4522,47.6310 6.4177,47.6017 6.3690,47.6017 Z" style="fill-rule: evenodd; fill: #000000; "/>
    <path xmlns="http://www.w3.org/2000/svg" d="  M6.3690,45.5460 C6.3645,45.5460 6.3270,45.5445 6.3157,45.5430 C3.7785,45.2880 1.1490,43.7047 0.2572,42.1957 C0.2572,42.1957 0.1365,42.1800 0.2385,42.3480 C1.6477,44.7412 4.3200,45.6997 6.3517,45.6690 C6.3517,45.6690 6.3607,45.6690 6.3652,45.6690 C6.4163,45.6690 6.4522,45.6412 6.4522,45.6090 C6.4522,45.5767 6.4177,45.5460 6.3690,45.5460 Z" style="fill-rule: evenodd; fill: #000000; "/>
    <path xmlns="http://www.w3.org/2000/svg" d="  M6.4433,43.5263 C6.1065,43.4865 5.7675,43.4250 5.4330,43.3478 C4.7070,43.1925 3.9915,42.9405 3.3292,42.6270 C1.9447,41.9723 0.7905,41.0437 0.2565,40.1415 C0.2565,40.1415 0.1357,40.1265 0.2377,40.2952 C0.2880,40.3800 0.3405,40.4640 0.3937,40.5472 C1.8383,42.7545 4.3928,43.6455 6.3510,43.6148 C6.3510,43.6148 6.3600,43.6148 6.3645,43.6148 C6.4155,43.6148 6.4515,43.5885 6.4515,43.5563 C6.4523,43.5450 6.4493,43.5368 6.4433,43.5263 Z" style="fill-rule: evenodd; fill: #000000; "/>
    <path xmlns="http://www.w3.org/2000/svg" d="  M6.3802,41.4390 C6.3750,41.4390 6.3705,41.4375 6.3652,41.4375 C6.3570,41.4375 6.3255,41.4360 6.3157,41.4345 C5.5140,41.3542 4.7010,41.1397 3.9375,40.8367 C2.2882,40.1850 0.8670,39.1185 0.2572,38.0873 C0.2572,38.0873 0.1365,38.0715 0.2385,38.2395 C0.3787,38.4780 0.5310,38.7008 0.6945,38.9107 C2.1727,40.8135 4.5225,41.5882 6.3517,41.5605 C6.3517,41.5605 6.3607,41.5605 6.3652,41.5605 C6.4163,41.5605 6.4522,41.5327 6.4522,41.5005 C6.4522,41.4712 6.4238,41.4450 6.3802,41.4390 Z" style="fill-rule: evenodd; fill: #000000; "/>
    <path xmlns="http://www.w3.org/2000/svg" d="  M6.3690,37.3282 C6.3645,37.3282 6.3270,37.3252 6.3157,37.3252 C4.9935,37.1917 3.6488,36.6982 2.5350,36.0420 C1.5112,35.4397 0.6847,34.7002 0.2572,33.9780 C0.2572,33.9780 0.1365,33.9623 0.2385,34.1303 C0.3090,34.2487 0.3817,34.3635 0.4582,34.4745 C1.9117,36.6150 4.4220,37.4790 6.3517,37.4512 C6.3517,37.4512 6.3607,37.4512 6.3652,37.4512 C6.4163,37.4512 6.4522,37.4235 6.4522,37.3912 C6.4522,37.3590 6.4177,37.3282 6.3690,37.3282 Z" style="fill-rule: evenodd; fill: #000000; "/>
    <path xmlns="http://www.w3.org/2000/svg" d="  M6.3690,39.3840 C6.3645,39.3840 6.3270,39.3810 6.3157,39.3795 C3.7785,39.1245 1.1490,37.5413 0.2572,36.0323 C0.2572,36.0323 0.1365,36.0172 0.2385,36.1860 C1.6477,38.5778 4.3200,39.5363 6.3517,39.5070 C6.3517,39.5070 6.3607,39.5070 6.3652,39.5070 C6.4163,39.5070 6.4522,39.4778 6.4522,39.4455 C6.4522,39.4133 6.4177,39.3840 6.3690,39.3840 Z" style="fill-rule: evenodd; fill: #000000; "/>
    <defs xmlns="http://www.w3.org/2000/svg" xmlns:xlink="http://www.w3.org/1999/xlink">
      <linearGradient id="grad4775">
        <stop offset="0%" stop-color="#bdd1dd" stop-opacity="0.9882"/>
        <stop offset="100%" stop-color="#f3f9f7" stop-opacity="0.9882"/>
      </linearGradient>
      <linearGradient xlink:href="#grad4775" id="grad4776" x1="0" y1="0" x2="0" y2="1" gradientTransform="rotate(90 .5 .5)" gradientUnits="objectBoundingBox">
  </linearGradient>
    </defs>
    <path xmlns="http://www.w3.org/2000/svg" d="  M6.6923,33.0615 L0.1320,29.8185 L0.1320,34.0417 C0.2243,34.1880 0.3330,34.3320 0.4583,34.4752 C0.3818,34.3642 0.3090,34.2495 0.2385,34.1310 C0.1365,33.9622 0.2573,33.9787 0.2573,33.9787 C0.6848,34.7010 1.5113,35.4405 2.5350,36.0427 C3.7650,36.7005 5.2650,37.1880 6.7313,37.3185 L6.7313,33.0660 C6.7170,33.0645 6.6923,33.0615 6.6923,33.0615 Z M0.3555,30.3802 L6.5295,33.4335 C3.4680,35.1270 0.4710,32.3962 0.3555,30.3802 Z" style="fill-rule: evenodd; fill: url(#grad4776); "/>
    <defs xmlns="http://www.w3.org/2000/svg" xmlns:xlink="http://www.w3.org/1999/xlink">
      <linearGradient id="grad4777">
        <stop offset="0%" stop-color="#c8d8dd" stop-opacity="0.9882"/>
        <stop offset="100%" stop-color="#f3f9f7" stop-opacity="0.9882"/>
      </linearGradient>
      <linearGradient xlink:href="#grad4777" id="grad4778" x1="0" y1="0" x2="0" y2="1" gradientTransform="rotate(90 .5 .5)" gradientUnits="objectBoundingBox">
  </linearGradient>
    </defs>
    <path xmlns="http://www.w3.org/2000/svg" d="  M6.6923,41.4743 C6.5880,41.4653 6.4845,41.4540 6.3803,41.4390 C6.4238,41.4450 6.4523,41.4713 6.4523,41.5005 C6.4523,41.5328 6.4163,41.5605 6.3653,41.5605 C6.3608,41.5605 6.3518,41.5605 6.3518,41.5605 C4.5225,41.5883 2.1728,40.8135 0.6945,38.9108 C0.4673,38.6880 0.2775,38.4608 0.1320,38.2313 L0.1320,40.1895 C0.2085,40.3080 0.2970,40.4265 0.3945,40.5473 C0.3413,40.4640 0.2888,40.3800 0.2385,40.2953 C0.1365,40.1265 0.2573,40.1415 0.2573,40.1415 C0.7913,41.0438 1.9455,41.9723 3.3300,42.6270 C3.9923,42.9405 4.7078,43.1925 5.4338,43.3478 C5.7278,43.4123 6.0225,43.4588 6.3165,43.4888 C6.3285,43.4903 6.3653,43.4933 6.3698,43.4933 C6.4035,43.4933 6.4313,43.5083 6.4440,43.5270 C6.5393,43.5405 6.6353,43.5503 6.7320,43.5593 L6.7320,41.4795 C6.7170,41.4773 6.7043,41.4758 6.6923,41.4743 Z" style="fill-rule: evenodd; fill: url(#grad4778); "/>
    <defs xmlns="http://www.w3.org/2000/svg" xmlns:xlink="http://www.w3.org/1999/xlink">
      <linearGradient id="grad4779">
        <stop offset="0%" stop-color="#85919c" stop-opacity="0.9882"/>
        <stop offset="100%" stop-color="#dadfe1" stop-opacity="0.9882"/>
      </linearGradient>
      <linearGradient xlink:href="#grad4779" id="grad4780" x1="0" y1="0" x2="0" y2="1" gradientTransform="rotate(90 .5 .5)" gradientUnits="objectBoundingBox">
  </linearGradient>
    </defs>
    <path xmlns="http://www.w3.org/2000/svg" d="  M6.3157,37.3260 C6.3277,37.3260 6.3645,37.3290 6.3690,37.3290 C6.4170,37.3290 6.4515,37.3597 6.4515,37.3920 C6.4515,37.4243 6.4155,37.4520 6.3645,37.4520 C6.3600,37.4520 6.3510,37.4520 6.3510,37.4520 C4.4212,37.4797 1.9103,36.6157 0.4575,34.4752 C0.3323,34.3320 0.2235,34.1880 0.1313,34.0417 L0.1313,38.2312 C0.2768,38.4615 0.4665,38.6880 0.6938,38.9108 C0.5295,38.7015 0.3773,38.4787 0.2378,38.2395 C0.1358,38.0707 0.2565,38.0872 0.2565,38.0872 C0.8663,39.1185 2.2875,40.1850 3.9368,40.8368 C4.7130,41.1225 5.5410,41.3318 6.3645,41.4375 C6.3652,41.4375 6.3667,41.4375 6.3682,41.4375 C6.3712,41.4375 6.3750,41.4390 6.3795,41.4390 C6.4837,41.4540 6.5872,41.4653 6.6915,41.4743 C6.7035,41.4758 6.7162,41.4773 6.7305,41.4788 L6.7305,37.3185 C5.2642,37.1880 3.7643,36.7005 2.5342,36.0427 C3.6488,36.6990 4.9935,37.1925 6.3157,37.3260 Z M6.3645,39.5070 C6.3600,39.5070 6.3510,39.5070 6.3510,39.5070 C4.3192,39.5363 1.6470,38.5785 0.2378,36.1860 C0.1358,36.0172 0.2565,36.0322 0.2565,36.0322 C1.1482,37.5412 3.7778,39.1245 6.3150,39.3795 C6.3270,39.3810 6.3637,39.3840 6.3682,39.3840 C6.4162,39.3840 6.4507,39.4133 6.4507,39.4455 C6.4507,39.4778 6.4162,39.5070 6.3645,39.5070 Z" style="fill-rule: evenodd; fill: url(#grad4780); "/>
    <defs xmlns="http://www.w3.org/2000/svg" xmlns:xlink="http://www.w3.org/1999/xlink">
      <linearGradient id="grad4781">
        <stop offset="0%" stop-color="#85919c" stop-opacity="0.9882"/>
        <stop offset="100%" stop-color="#dadfe1" stop-opacity="0.9882"/>
      </linearGradient>
      <linearGradient xlink:href="#grad4781" id="grad4782" x1="0" y1="0" x2="0" y2="1" gradientTransform="rotate(90 .5 .5)" gradientUnits="objectBoundingBox">
  </linearGradient>
    </defs>
    <path xmlns="http://www.w3.org/2000/svg" d="  M6.4523,43.5555 C6.4523,43.5878 6.4163,43.6140 6.3652,43.6140 C6.3608,43.6140 6.3518,43.6140 6.3518,43.6140 C4.3935,43.6448 1.8383,42.7545 0.3945,40.5465 C0.2970,40.4265 0.2085,40.3080 0.1320,40.1888 L0.1320,48.9660 C0.1868,49.0523 0.2483,49.1385 0.3165,49.2240 C1.1483,50.2890 2.8748,51.3053 4.7805,51.8460 C5.4195,52.0260 6.0772,52.1550 6.7313,52.2120 L6.7313,43.5585 C6.6345,43.5495 6.5385,43.5398 6.4433,43.5263 C6.4493,43.5368 6.4523,43.5450 6.4523,43.5555 Z M6.2565,51.1245 C6.1500,51.4613 5.5958,51.5843 5.0168,51.4013 C4.4385,51.2183 4.0560,50.7960 4.1625,50.4608 C4.2690,50.1240 4.8240,50.0010 5.4023,50.1840 C5.9805,50.3670 6.3630,50.7878 6.2565,51.1245 Z M6.3645,49.7783 C6.3600,49.7783 6.3510,49.7783 6.3510,49.7783 C4.3193,49.8090 1.6470,48.8513 0.2378,46.4573 C0.1358,46.2885 0.2565,46.3050 0.2565,46.3050 C1.1483,47.8140 3.7778,49.3973 6.3150,49.6523 C6.3270,49.6538 6.3638,49.6553 6.3683,49.6553 C6.4163,49.6553 6.4508,49.6860 6.4508,49.7183 C6.4508,49.7505 6.4163,49.7783 6.3645,49.7783 Z M6.3645,47.7233 C6.3600,47.7233 6.3510,47.7233 6.3510,47.7233 C4.3193,47.7555 1.6470,46.7963 0.2378,44.4038 C0.1358,44.2335 0.2565,44.2500 0.2565,44.2500 C1.1483,45.7590 3.7778,47.3438 6.3150,47.5973 C6.3270,47.5988 6.3638,47.6018 6.3683,47.6018 C6.4163,47.6018 6.4508,47.6310 6.4508,47.6648 C6.4523,47.6970 6.4163,47.7233 6.3645,47.7233 Z M6.3645,45.6698 C6.3600,45.6698 6.3510,45.6698 6.3510,45.6698 C4.3193,45.7005 1.6470,44.7428 0.2378,42.3488 C0.1358,42.1800 0.2565,42.1965 0.2565,42.1965 C1.1483,43.7055 3.7778,45.2888 6.3150,45.5438 C6.3270,45.5453 6.3638,45.5468 6.3683,45.5468 C6.4163,45.5468 6.4508,45.5775 6.4508,45.6098 C6.4508,45.6420 6.4163,45.6698 6.3645,45.6698 Z" style="fill-rule: evenodd; fill: url(#grad4782); "/>
    <defs xmlns="http://www.w3.org/2000/svg" xmlns:xlink="http://www.w3.org/1999/xlink">
      <linearGradient id="grad4783">
        <stop offset="0%" stop-color="#646c6b" stop-opacity="1.0000"/>
        <stop offset="100%" stop-color="#dae1e1" stop-opacity="1.0000"/>
      </linearGradient>
      <linearGradient xlink:href="#grad4783" id="grad4784" x1="0" y1="0" x2="0" y2="1" gradientTransform="rotate(90 .5 .5)" gradientUnits="objectBoundingBox">
  </linearGradient>
    </defs>
    <path xmlns="http://www.w3.org/2000/svg" d="  M7.2637,32.3962 L0.0060,28.8660 L0.0060,49.0425 L0.3165,49.2240 C0.2482,49.1392 0.1867,49.0522 0.1320,48.9660 L0.1320,40.1895 L0.1320,38.2312 L0.1320,34.0417 L0.1320,29.8185 L6.6922,33.0615 C6.6922,33.0615 6.7170,33.0645 6.7313,33.0660 L6.7313,37.3185 L6.7313,41.4787 L6.7313,43.5585 L6.7313,52.2127 C6.0780,52.1557 5.4195,52.0267 4.7805,51.8467 L7.2637,53.3040 L7.2637,32.3962 Z" style="fill-rule: evenodd; fill: url(#grad4784); "/>
    <path xmlns="http://www.w3.org/2000/svg" d="  M12.4230,25.0050 L20.4413,20.3790 L20.1742,20.2530 L12.4230,24.6787 L12.4230,25.0050 Z" style="fill-rule: evenodd; fill: #3f3f3f; "/>
    <path xmlns="http://www.w3.org/2000/svg" d="  M12.4230,26.5357 L20.4413,21.9105 L20.1547,21.7747 L12.4230,26.2102 L12.4230,26.5357 Z" style="fill-rule: evenodd; fill: #3f3f3f; "/>
    <path xmlns="http://www.w3.org/2000/svg" d="  M12.4230,28.0672 L20.4413,23.4420 L20.1547,23.3055 L12.4230,27.7417 L12.4230,28.0672 Z" style="fill-rule: evenodd; fill: #3f3f3f; "/>
    <defs xmlns="http://www.w3.org/2000/svg" xmlns:xlink="http://www.w3.org/1999/xlink">
      <linearGradient id="grad4785">
        <stop offset="0%" stop-color="#7f8787" stop-opacity="1.0000"/>
        <stop offset="100%" stop-color="#f3f9f7" stop-opacity="1.0000"/>
      </linearGradient>
      <linearGradient xlink:href="#grad4785" id="grad4786" x1="0" y1="0" x2="0" y2="1" gradientTransform="rotate(315 .5 .5)" gradientUnits="objectBoundingBox">
  </linearGradient>
    </defs>
    <path xmlns="http://www.w3.org/2000/svg" d="  M0.3488,9.5992 C0.4658,11.6145 3.4620,14.3452 6.5250,12.6517 L0.3488,9.5992 Z M1.5323,10.2622 L5.4818,12.1972 C3.4853,13.1872 1.5833,11.4892 1.5323,10.2622 Z" style="fill-rule: evenodd; fill: url(#grad4786); "/>
    <defs xmlns="http://www.w3.org/2000/svg" xmlns:xlink="http://www.w3.org/1999/xlink">
      <linearGradient id="grad4787">
        <stop offset="0%" stop-color="#7f8787" stop-opacity="1.0000"/>
        <stop offset="100%" stop-color="#dae1e1" stop-opacity="1.0000"/>
      </linearGradient>
      <linearGradient xlink:href="#grad4787" id="grad4788" x1="0" y1="0" x2="0" y2="1" gradientTransform="rotate(45 .5 .5)" gradientUnits="objectBoundingBox">
  </linearGradient>
    </defs>
    <path xmlns="http://www.w3.org/2000/svg" d="  M7.2743,11.5987 L7.2630,11.5927 L7.2630,32.3887 L20.4413,24.9510 L20.4413,23.4608 L12.4230,28.0673 L12.4230,27.7417 L20.1548,23.3055 L20.4413,23.1413 L20.4413,21.9293 L12.4230,26.5358 L12.4230,26.2102 L20.1548,21.7748 L20.4413,21.6105 L20.4413,20.3985 L12.4230,25.0050 L12.4230,24.6787 L20.1742,20.2530 L20.4413,20.1000 L20.4413,3.9105 L18.6735,4.9267 L7.2743,11.5987 Z" style="fill-rule: evenodd; fill: url(#grad4788); "/>
    <defs xmlns="http://www.w3.org/2000/svg" xmlns:xlink="http://www.w3.org/1999/xlink">
      <linearGradient id="grad4789">
        <stop offset="0%" stop-color="#7f8787" stop-opacity="1.0000"/>
        <stop offset="100%" stop-color="#f3f9f7" stop-opacity="1.0000"/>
      </linearGradient>
      <linearGradient xlink:href="#grad4789" id="grad4790" x1="0" y1="0" x2="0" y2="1" gradientTransform="rotate(90 .5 .5)" gradientUnits="objectBoundingBox">
  </linearGradient>
    </defs>
    <path xmlns="http://www.w3.org/2000/svg" d="  M14.0175,0.0293 L0.0675,8.0813 L7.2630,11.5928 L20.4413,3.8910 L14.0175,0.0293 Z" style="fill-rule: evenodd; fill: url(#grad4790); "/>
    <defs xmlns="http://www.w3.org/2000/svg">
      <radialGradient id="grad4791" cx="50.0000%" cy="50.0000%" r="100.0000%">
        <stop offset="0%" stop-color="#a7e968" stop-opacity="1.0000"/>
        <stop offset="100%" stop-color="#000000" stop-opacity="1.0000"/>
      </radialGradient>
    </defs>
    <path xmlns="http://www.w3.org/2000/svg" d="  M1.5322,10.2623 C1.5832,11.4900 3.4853,13.1880 5.4818,12.1973 L1.5322,10.2623 Z" style="fill-rule: evenodd; fill: url(#grad4791); "/>
    <defs xmlns="http://www.w3.org/2000/svg">
      <radialGradient id="grad4792" cx="50.0000%" cy="50.0000%" r="100.0000%">
        <stop offset="0%" stop-color="#ccff66" stop-opacity="1.0000"/>
        <stop offset="100%" stop-color="#7ab04a" stop-opacity="1.0000"/>
      </radialGradient>
    </defs>
    <path xmlns="http://www.w3.org/2000/svg" d="  M5.6010,30.4215 C5.6137,30.4095 5.6250,30.3967 5.6355,30.3832 C5.7922,30.2242 5.7765,29.9467 5.5987,29.7577 C5.4682,29.6182 5.2837,29.5642 5.1285,29.6032 C5.0505,29.6122 4.9785,29.6430 4.9192,29.6970 C4.8480,29.7645 4.8097,29.8575 4.8060,29.9565 C4.8075,30.0195 4.8180,30.0847 4.8390,30.1477 C4.8645,30.2167 4.9042,30.2835 4.9597,30.3420 C5.1472,30.5430 5.4345,30.5775 5.6010,30.4215 Z" style="fill-rule: evenodd; fill: url(#grad4792); "/>
    <path xmlns="http://www.w3.org/2000/svg" d="  M4.9530,29.5913 C4.8525,29.6850 4.8045,29.8170 4.8060,29.9573 C4.8105,29.8582 4.8487,29.7653 4.9192,29.6978 C4.9785,29.6430 5.0512,29.6123 5.1285,29.6040 C5.2837,29.5650 5.4682,29.6190 5.5987,29.7585 C5.7765,29.9483 5.7922,30.2258 5.6355,30.3840 C5.6250,30.3975 5.6137,30.4102 5.6010,30.4223 C5.4345,30.5783 5.1480,30.5438 4.9597,30.3427 C4.9042,30.2843 4.8645,30.2175 4.8390,30.1485 C4.8712,30.2467 4.9260,30.3412 5.0047,30.4260 C5.2477,30.6840 5.6197,30.7297 5.8342,30.5288 C6.0495,30.3263 6.0262,29.9528 5.7840,29.6940 C5.5402,29.4345 5.1690,29.3888 4.9530,29.5913 Z" style="fill-rule: evenodd; fill: #000000; "/>
    <defs xmlns="http://www.w3.org/2000/svg">
      <linearGradient id="grad4793">
        <stop offset="0%" stop-color="#646c6b" stop-opacity="1.0000"/>
        <stop offset="100%" stop-color="#dae1e1" stop-opacity="1.0000"/>
      </linearGradient>
    </defs>
    <path xmlns="http://www.w3.org/2000/svg" d="  M5.3970,29.4030 C4.8187,29.2200 4.2630,29.3438 4.1565,29.6798 C4.0492,30.0165 4.4325,30.4372 5.0107,30.6202 C5.5890,30.8040 6.1455,30.6802 6.2512,30.3435 C6.3585,30.0075 5.9752,29.5860 5.3970,29.4030 Z M5.8335,30.5280 C5.6190,30.7297 5.2470,30.6833 5.0040,30.4252 C4.9260,30.3405 4.8705,30.2460 4.8382,30.1478 C4.8172,30.0848 4.8067,30.0202 4.8052,29.9565 C4.8037,29.8163 4.8525,29.6850 4.9522,29.5905 C5.1682,29.3888 5.5395,29.4338 5.7825,29.6933 C6.0255,29.9520 6.0487,30.3262 5.8335,30.5280 Z" style="fill-rule: evenodd; fill: url(#grad4793); "/>
    <path xmlns="http://www.w3.org/2000/svg" d="  M6.3630,28.8750 C6.3585,28.8750 6.3210,28.8727 6.3097,28.8712 C3.7732,28.6162 1.1437,27.0322 0.2512,25.5247 C0.2512,25.5247 0.1312,25.5090 0.2325,25.6777 C1.6417,28.0702 4.3140,29.0287 6.3450,28.9987 C6.3450,28.9987 6.3555,28.9987 6.3592,28.9987 C6.4095,28.9987 6.4477,28.9710 6.4477,28.9387 C6.4477,28.9065 6.4125,28.8750 6.3630,28.8750 Z" style="fill-rule: evenodd; fill: #000000; "/>
    <path xmlns="http://www.w3.org/2000/svg" d="  M6.3630,26.8207 C6.3585,26.8207 6.3210,26.8185 6.3097,26.8170 C3.7732,26.5620 1.1437,24.9780 0.2512,23.4705 C0.2512,23.4705 0.1312,23.4547 0.2325,23.6235 C1.6417,26.0160 4.3140,26.9745 6.3450,26.9445 C6.3450,26.9445 6.3555,26.9445 6.3592,26.9445 C6.4095,26.9445 6.4477,26.9167 6.4477,26.8845 C6.4477,26.8507 6.4125,26.8207 6.3630,26.8207 Z" style="fill-rule: evenodd; fill: #000000; "/>
    <path xmlns="http://www.w3.org/2000/svg" d="  M6.3630,24.7665 C6.3585,24.7665 6.3210,24.7628 6.3097,24.7620 C3.7732,24.5070 1.1437,22.9230 0.2512,21.4148 C0.2512,21.4148 0.1312,21.3990 0.2325,21.5678 C1.6417,23.9603 4.3140,24.9188 6.3450,24.8880 C6.3450,24.8880 6.3555,24.8880 6.3592,24.8880 C6.4095,24.8880 6.4477,24.8603 6.4477,24.8280 C6.4477,24.7958 6.4125,24.7665 6.3630,24.7665 Z" style="fill-rule: evenodd; fill: #000000; "/>
    <path xmlns="http://www.w3.org/2000/svg" d="  M6.4372,22.7468 C6.1012,22.7055 5.7622,22.6447 5.4270,22.5668 C4.7017,22.4108 3.9862,22.1603 3.3232,21.8460 C1.9395,21.1905 0.7845,20.2620 0.2505,19.3605 C0.2505,19.3605 0.1305,19.3448 0.2317,19.5128 C0.2812,19.5990 0.3352,19.6830 0.3885,19.7648 C1.8322,21.9728 4.3867,22.8630 6.3442,22.8345 C6.3442,22.8345 6.3547,22.8345 6.3585,22.8345 C6.4087,22.8345 6.4470,22.8068 6.4470,22.7745 C6.4477,22.7647 6.4432,22.7550 6.4372,22.7468 Z" style="fill-rule: evenodd; fill: #000000; "/>
    <path xmlns="http://www.w3.org/2000/svg" d="  M6.3742,20.6587 C6.3705,20.6580 6.3645,20.6580 6.3600,20.6565 C6.3510,20.6565 6.3210,20.6542 6.3097,20.6527 C5.5080,20.5732 4.6957,20.3587 3.9330,20.0572 C2.2837,19.4032 0.8617,18.3382 0.2512,17.3070 C0.2512,17.3070 0.1312,17.2912 0.2325,17.4592 C0.3727,17.6977 0.5257,17.9212 0.6892,18.1312 C2.1667,20.0325 4.5165,20.8072 6.3450,20.7802 C6.3450,20.7802 6.3555,20.7802 6.3592,20.7802 C6.4095,20.7802 6.4477,20.7532 6.4477,20.7202 C6.4477,20.6902 6.4177,20.6640 6.3742,20.6587 Z" style="fill-rule: evenodd; fill: #000000; "/>
    <path xmlns="http://www.w3.org/2000/svg" d="  M6.3630,16.5480 C6.3585,16.5480 6.3210,16.5457 6.3097,16.5443 C4.9890,16.4108 3.6427,15.9180 2.5290,15.2625 C1.5060,14.6595 0.6787,13.9193 0.2512,13.1978 C0.2512,13.1978 0.1312,13.1813 0.2325,13.3508 C0.3030,13.4693 0.3765,13.5840 0.4515,13.6958 C1.9057,15.8355 4.4160,16.6995 6.3450,16.6710 C6.3450,16.6710 6.3555,16.6702 6.3592,16.6702 C6.4095,16.6702 6.4477,16.6432 6.4477,16.6110 C6.4477,16.5787 6.4125,16.5480 6.3630,16.5480 Z" style="fill-rule: evenodd; fill: #000000; "/>
    <path xmlns="http://www.w3.org/2000/svg" d="  M6.3630,18.6030 C6.3585,18.6030 6.3210,18.6000 6.3097,18.5985 C3.7732,18.3442 1.1437,16.7595 0.2512,15.2520 C0.2512,15.2520 0.1312,15.2362 0.2325,15.4050 C1.6417,17.7967 4.3140,18.7560 6.3450,18.7252 C6.3450,18.7252 6.3555,18.7252 6.3592,18.7252 C6.4095,18.7252 6.4477,18.6975 6.4477,18.6652 C6.4477,18.6330 6.4125,18.6030 6.3630,18.6030 Z" style="fill-rule: evenodd; fill: #000000; "/>
    <defs xmlns="http://www.w3.org/2000/svg" xmlns:xlink="http://www.w3.org/1999/xlink">
      <linearGradient id="grad4794">
        <stop offset="0%" stop-color="#bdd1dd" stop-opacity="0.9882"/>
        <stop offset="100%" stop-color="#f3f9f7" stop-opacity="0.9882"/>
      </linearGradient>
      <linearGradient xlink:href="#grad4794" id="grad4795" x1="0" y1="0" x2="0" y2="1" gradientTransform="rotate(90 .5 .5)" gradientUnits="objectBoundingBox">
  </linearGradient>
    </defs>
    <path xmlns="http://www.w3.org/2000/svg" d="  M6.6870,12.2813 L0.1268,9.0382 L0.1268,13.2615 C0.2175,13.4070 0.3278,13.5525 0.4515,13.6958 C0.3765,13.5840 0.3030,13.4693 0.2325,13.3508 C0.1313,13.1813 0.2513,13.1978 0.2513,13.1978 C0.6788,13.9200 1.5060,14.6603 2.5290,15.2625 C3.7590,15.9195 5.2605,16.4055 6.7245,16.5375 L6.7245,12.2850 C6.7110,12.2843 6.6870,12.2813 6.6870,12.2813 Z M0.3488,9.5993 L6.5250,12.6518 C3.4620,14.3453 0.4658,11.6145 0.3488,9.5993 Z" style="fill-rule: evenodd; fill: url(#grad4795); "/>
    <defs xmlns="http://www.w3.org/2000/svg" xmlns:xlink="http://www.w3.org/1999/xlink">
      <linearGradient id="grad4796">
        <stop offset="0%" stop-color="#c8d8dd" stop-opacity="0.9882"/>
        <stop offset="100%" stop-color="#f3f9f7" stop-opacity="0.9882"/>
      </linearGradient>
      <linearGradient xlink:href="#grad4796" id="grad4797" x1="0" y1="0" x2="0" y2="1" gradientTransform="rotate(90 .5 .5)" gradientUnits="objectBoundingBox">
  </linearGradient>
    </defs>
    <path xmlns="http://www.w3.org/2000/svg" d="  M6.6870,20.6940 C6.5820,20.6835 6.4792,20.6723 6.3742,20.6595 C6.4177,20.6640 6.4477,20.6910 6.4477,20.7203 C6.4477,20.7525 6.4095,20.7803 6.3592,20.7803 C6.3555,20.7803 6.3450,20.7803 6.3450,20.7803 C4.5165,20.8080 2.1667,20.0325 0.6893,18.1313 C0.4620,17.9085 0.2723,17.6798 0.1268,17.4510 L0.1268,19.4085 C0.2025,19.5278 0.2918,19.6470 0.3893,19.7655 C0.3360,19.6838 0.2820,19.5998 0.2325,19.5135 C0.1313,19.3455 0.2513,19.3613 0.2513,19.3613 C0.7853,20.2628 1.9403,21.1913 3.3240,21.8468 C3.9870,22.1610 4.7025,22.4115 5.4277,22.5675 C5.7225,22.6313 6.0172,22.6793 6.3105,22.7085 C6.3225,22.7100 6.3592,22.7123 6.3637,22.7123 C6.3982,22.7123 6.4252,22.7280 6.4380,22.7468 C6.5340,22.7580 6.6307,22.7693 6.7252,22.7783 L6.7252,20.6978 C6.7110,20.6963 6.7005,20.6948 6.6870,20.6940 Z" style="fill-rule: evenodd; fill: url(#grad4797); "/>
    <defs xmlns="http://www.w3.org/2000/svg" xmlns:xlink="http://www.w3.org/1999/xlink">
      <linearGradient id="grad4798">
        <stop offset="0%" stop-color="#85919c" stop-opacity="0.9882"/>
        <stop offset="100%" stop-color="#dadfe1" stop-opacity="0.9882"/>
      </linearGradient>
      <linearGradient xlink:href="#grad4798" id="grad4799" x1="0" y1="0" x2="0" y2="1" gradientTransform="rotate(90 .5 .5)" gradientUnits="objectBoundingBox">
  </linearGradient>
    </defs>
    <path xmlns="http://www.w3.org/2000/svg" d="  M6.3098,16.5450 C6.3218,16.5465 6.3585,16.5488 6.3630,16.5488 C6.4118,16.5488 6.4470,16.5788 6.4470,16.6110 C6.4470,16.6433 6.4088,16.6703 6.3585,16.6703 C6.3548,16.6703 6.3443,16.6710 6.3443,16.6710 C4.4153,16.6995 1.9050,15.8348 0.4508,13.6958 C0.3270,13.5525 0.2168,13.4070 0.1260,13.2615 L0.1260,17.4510 C0.2715,17.6798 0.4613,17.9078 0.6885,18.1313 C0.5243,17.9213 0.3713,17.6978 0.2318,17.4593 C0.1305,17.2905 0.2505,17.3070 0.2505,17.3070 C0.8610,18.3383 2.2830,19.4040 3.9323,20.0573 C4.7085,20.3415 5.5350,20.5515 6.3593,20.6573 C6.3600,20.6573 6.3623,20.6573 6.3623,20.6573 C6.3668,20.6573 6.3698,20.6580 6.3735,20.6588 C6.4785,20.6723 6.5813,20.6835 6.6863,20.6933 C6.6998,20.6940 6.7102,20.6955 6.7238,20.6970 L6.7238,16.5375 C5.2598,16.4055 3.7583,15.9195 2.5283,15.2625 C3.6428,15.9180 4.9890,16.4115 6.3098,16.5450 Z M6.3593,18.7253 C6.3555,18.7253 6.3450,18.7253 6.3450,18.7253 C4.3140,18.7560 1.6418,17.7968 0.2325,15.4050 C0.1313,15.2363 0.2513,15.2520 0.2513,15.2520 C1.1438,16.7595 3.7733,18.3443 6.3098,18.5985 C6.3218,18.6000 6.3585,18.6030 6.3630,18.6030 C6.4118,18.6030 6.4470,18.6330 6.4470,18.6653 C6.4478,18.6975 6.4095,18.7253 6.3593,18.7253 Z" style="fill-rule: evenodd; fill: url(#grad4799); "/>
    <defs xmlns="http://www.w3.org/2000/svg" xmlns:xlink="http://www.w3.org/1999/xlink">
      <linearGradient id="grad4800">
        <stop offset="0%" stop-color="#85919c" stop-opacity="0.9882"/>
        <stop offset="100%" stop-color="#dadfe1" stop-opacity="0.9882"/>
      </linearGradient>
      <linearGradient xlink:href="#grad4800" id="grad4801" x1="0" y1="0" x2="0" y2="1" gradientTransform="rotate(90 .5 .5)" gradientUnits="objectBoundingBox">
  </linearGradient>
    </defs>
    <path xmlns="http://www.w3.org/2000/svg" d="  M6.4477,22.7745 C6.4477,22.8068 6.4095,22.8345 6.3592,22.8345 C6.3555,22.8345 6.3450,22.8345 6.3450,22.8345 C4.3875,22.8630 1.8323,21.9728 0.3893,19.7648 C0.2918,19.6463 0.2025,19.5270 0.1268,19.4078 L0.1268,28.1858 C0.1815,28.2720 0.2430,28.3575 0.3105,28.4438 C1.1437,29.5095 2.8695,30.5243 4.7752,31.0650 C5.4150,31.2465 6.0720,31.3755 6.7245,31.4325 L6.7245,22.7775 C6.6300,22.7693 6.5333,22.7580 6.4372,22.7460 C6.4433,22.7550 6.4477,22.7648 6.4477,22.7745 Z M6.2513,30.3428 C6.1447,30.6795 5.5890,30.8033 5.0108,30.6195 C4.4325,30.4365 4.0500,30.0158 4.1565,29.6790 C4.2637,29.3430 4.8188,29.2193 5.3970,29.4023 C5.9752,29.5860 6.3585,30.0075 6.2513,30.3428 Z M6.3592,28.9980 C6.3555,28.9980 6.3450,28.9980 6.3450,28.9980 C4.3140,29.0280 1.6418,28.0703 0.2325,25.6770 C0.1313,25.5083 0.2513,25.5240 0.2513,25.5240 C1.1437,27.0315 3.7733,28.6163 6.3097,28.8705 C6.3217,28.8720 6.3585,28.8743 6.3630,28.8743 C6.4117,28.8743 6.4470,28.9050 6.4470,28.9365 C6.4470,28.9680 6.4095,28.9980 6.3592,28.9980 Z M6.3592,26.9438 C6.3555,26.9438 6.3450,26.9438 6.3450,26.9438 C4.3140,26.9738 1.6418,26.0153 0.2325,23.6228 C0.1313,23.4540 0.2513,23.4698 0.2513,23.4698 C1.1437,24.9780 3.7733,26.5620 6.3097,26.8163 C6.3217,26.8178 6.3585,26.8200 6.3630,26.8200 C6.4117,26.8200 6.4470,26.8500 6.4470,26.8823 C6.4477,26.9160 6.4095,26.9438 6.3592,26.9438 Z M6.3592,24.8888 C6.3555,24.8888 6.3450,24.8888 6.3450,24.8888 C4.3140,24.9195 1.6418,23.9610 0.2325,21.5685 C0.1313,21.3998 0.2513,21.4155 0.2513,21.4155 C1.1437,22.9238 3.7733,24.5078 6.3097,24.7628 C6.3217,24.7635 6.3585,24.7673 6.3630,24.7673 C6.4117,24.7673 6.4470,24.7973 6.4470,24.8295 C6.4470,24.8618 6.4095,24.8888 6.3592,24.8888 Z" style="fill-rule: evenodd; fill: url(#grad4801); "/>
    <defs xmlns="http://www.w3.org/2000/svg" xmlns:xlink="http://www.w3.org/1999/xlink">
      <linearGradient id="grad4802">
        <stop offset="0%" stop-color="#646c6b" stop-opacity="1.0000"/>
        <stop offset="100%" stop-color="#dae1e1" stop-opacity="1.0000"/>
      </linearGradient>
      <linearGradient xlink:href="#grad4802" id="grad4803" x1="0" y1="0" x2="0" y2="1" gradientTransform="rotate(90 .5 .5)" gradientUnits="objectBoundingBox">
  </linearGradient>
    </defs>
    <path xmlns="http://www.w3.org/2000/svg" d="  M7.2592,11.6145 L0.0000,8.0857 L0.0000,28.2607 L0.3105,28.4430 C0.2430,28.3575 0.1815,28.2712 0.1267,28.1850 L0.1267,19.4077 L0.1267,17.4502 L0.1267,13.2615 L0.1267,9.0382 L6.6870,12.2812 C6.6870,12.2812 6.7110,12.2842 6.7245,12.2850 L6.7245,16.5375 L6.7245,20.6970 L6.7245,22.7775 L6.7245,31.4325 C6.0720,31.3755 5.4150,31.2465 4.7752,31.0650 L7.2592,32.5237 L7.2592,11.6145 Z" style="fill-rule: evenodd; fill: url(#grad4803); "/>
    <path xmlns="http://www.w3.org/2000/svg" d="  M21.8190,51.3210 L29.8357,46.6950 L29.5710,46.5690 L21.8190,50.9955 L21.8190,51.3210 Z" style="fill-rule: evenodd; fill: #3f3f3f; "/>
    <path xmlns="http://www.w3.org/2000/svg" d="  M21.8190,52.8517 L29.8357,48.2272 L29.5492,48.0907 L21.8190,52.5262 L21.8190,52.8517 Z" style="fill-rule: evenodd; fill: #3f3f3f; "/>
    <path xmlns="http://www.w3.org/2000/svg" d="  M21.8190,54.3840 L29.8357,49.7580 L29.5492,49.6230 L21.8190,54.0570 L21.8190,54.3840 Z" style="fill-rule: evenodd; fill: #3f3f3f; "/>
    <defs xmlns="http://www.w3.org/2000/svg" xmlns:xlink="http://www.w3.org/1999/xlink">
      <linearGradient id="grad4804">
        <stop offset="0%" stop-color="#7f8787" stop-opacity="1.0000"/>
        <stop offset="100%" stop-color="#f3f9f7" stop-opacity="1.0000"/>
      </linearGradient>
      <linearGradient xlink:href="#grad4804" id="grad4805" x1="0" y1="0" x2="0" y2="1" gradientTransform="rotate(315 .5 .5)" gradientUnits="objectBoundingBox">
  </linearGradient>
    </defs>
    <path xmlns="http://www.w3.org/2000/svg" d="  M9.7432,35.9152 C9.8610,37.9320 12.8572,40.6612 15.9202,38.9677 L9.7432,35.9152 Z M10.9275,36.5782 L14.8762,38.5132 C12.8812,39.5040 10.9800,37.8045 10.9275,36.5782 Z" style="fill-rule: evenodd; fill: url(#grad4805); "/>
    <defs xmlns="http://www.w3.org/2000/svg" xmlns:xlink="http://www.w3.org/1999/xlink">
      <linearGradient id="grad4806">
        <stop offset="0%" stop-color="#7f8787" stop-opacity="1.0000"/>
        <stop offset="100%" stop-color="#dae1e1" stop-opacity="1.0000"/>
      </linearGradient>
      <linearGradient xlink:href="#grad4806" id="grad4807" x1="0" y1="0" x2="0" y2="1" gradientTransform="rotate(45 .5 .5)" gradientUnits="objectBoundingBox">
  </linearGradient>
    </defs>
    <path xmlns="http://www.w3.org/2000/svg" d="  M16.6710,37.9147 L16.6590,37.9087 L16.6590,58.7062 L29.8365,51.2662 L29.8365,49.7767 L21.8190,54.3840 L21.8190,54.0570 L29.5493,49.6230 L29.8365,49.4572 L29.8365,48.2460 L21.8190,52.8517 L21.8190,52.5262 L29.5493,48.0908 L29.8365,47.9250 L29.8365,46.7137 L21.8190,51.3210 L21.8190,50.9955 L29.5710,46.5690 L29.8365,46.4167 L29.8365,30.2257 L28.0687,31.2420 L16.6710,37.9147 Z" style="fill-rule: evenodd; fill: url(#grad4807); "/>
    <defs xmlns="http://www.w3.org/2000/svg" xmlns:xlink="http://www.w3.org/1999/xlink">
      <linearGradient id="grad4808">
        <stop offset="0%" stop-color="#7f8787" stop-opacity="1.0000"/>
        <stop offset="100%" stop-color="#f3f9f7" stop-opacity="1.0000"/>
      </linearGradient>
      <linearGradient xlink:href="#grad4808" id="grad4809" x1="0" y1="0" x2="0" y2="1" gradientTransform="rotate(90 .5 .5)" gradientUnits="objectBoundingBox">
  </linearGradient>
    </defs>
    <path xmlns="http://www.w3.org/2000/svg" d="  M23.4120,26.3453 L9.4635,34.3973 L16.6590,37.9088 L29.8365,30.2070 L23.4120,26.3453 Z" style="fill-rule: evenodd; fill: url(#grad4809); "/>
    <defs xmlns="http://www.w3.org/2000/svg">
      <radialGradient id="grad4810" cx="50.0000%" cy="50.0000%" r="100.0000%">
        <stop offset="0%" stop-color="#a7e968" stop-opacity="1.0000"/>
        <stop offset="100%" stop-color="#000000" stop-opacity="1.0000"/>
      </radialGradient>
    </defs>
    <path xmlns="http://www.w3.org/2000/svg" d="  M10.9275,36.5783 C10.9792,37.8045 12.8805,39.5033 14.8763,38.5133 L10.9275,36.5783 Z" style="fill-rule: evenodd; fill: url(#grad4810); "/>
    <defs xmlns="http://www.w3.org/2000/svg">
      <radialGradient id="grad4811" cx="50.0000%" cy="50.0000%" r="100.0000%">
        <stop offset="0%" stop-color="#ccff66" stop-opacity="1.0000"/>
        <stop offset="100%" stop-color="#7ab04a" stop-opacity="1.0000"/>
      </radialGradient>
    </defs>
    <path xmlns="http://www.w3.org/2000/svg" d="  M14.9955,56.7375 C15.0082,56.7255 15.0195,56.7127 15.0307,56.6992 C15.1867,56.5395 15.1725,56.2627 14.9932,56.0722 C14.8620,55.9327 14.6790,55.8802 14.5237,55.9185 C14.4457,55.9275 14.3730,55.9582 14.3145,56.0122 C14.2425,56.0812 14.2057,56.1735 14.2027,56.2732 C14.2027,56.3362 14.2140,56.4007 14.2342,56.4652 C14.2597,56.5327 14.3002,56.6002 14.3550,56.6587 C14.5432,56.8575 14.8297,56.8927 14.9955,56.7375 Z" style="fill-rule: evenodd; fill: url(#grad4811); "/>
    <path xmlns="http://www.w3.org/2000/svg" d="  M14.3490,55.9073 C14.2477,56.0025 14.2005,56.1345 14.2027,56.2732 C14.2065,56.1735 14.2432,56.0813 14.3145,56.0123 C14.3730,55.9583 14.4457,55.9275 14.5237,55.9185 C14.6790,55.8803 14.8620,55.9335 14.9932,56.0722 C15.1725,56.2627 15.1867,56.5395 15.0307,56.6993 C15.0195,56.7127 15.0082,56.7255 14.9955,56.7375 C14.8297,56.8927 14.5425,56.8575 14.3550,56.6587 C14.3002,56.6003 14.2597,56.5327 14.2342,56.4652 C14.2672,56.5620 14.3212,56.6573 14.4007,56.7420 C14.6437,57.0000 15.0150,57.0450 15.2295,56.8432 C15.4440,56.6415 15.4215,56.2687 15.1770,56.0100 C14.9347,55.7505 14.5627,55.7047 14.3490,55.9073 Z" style="fill-rule: evenodd; fill: #000000; "/>
    <defs xmlns="http://www.w3.org/2000/svg">
      <linearGradient id="grad4812">
        <stop offset="0%" stop-color="#646c6b" stop-opacity="1.0000"/>
        <stop offset="100%" stop-color="#dae1e1" stop-opacity="1.0000"/>
      </linearGradient>
    </defs>
    <path xmlns="http://www.w3.org/2000/svg" d="  M14.7922,55.7197 C14.2140,55.5352 13.6582,55.6597 13.5525,55.9950 C13.4467,56.3317 13.8285,56.7540 14.4082,56.9370 C14.9857,57.1200 15.5422,56.9955 15.6480,56.6602 C15.7530,56.3235 15.3705,55.9027 14.7922,55.7197 Z M15.2295,56.8432 C15.0150,57.0457 14.6437,57.0000 14.4007,56.7420 C14.3220,56.6572 14.2672,56.5620 14.2342,56.4652 C14.2140,56.4007 14.2027,56.3362 14.2027,56.2732 C14.2005,56.1337 14.2485,56.0025 14.3490,55.9072 C14.5627,55.7047 14.9347,55.7505 15.1770,56.0100 C15.4215,56.2687 15.4440,56.6407 15.2295,56.8432 Z" style="fill-rule: evenodd; fill: url(#grad4812); "/>
    <path xmlns="http://www.w3.org/2000/svg" d="  M15.7582,55.1910 C15.7537,55.1910 15.7177,55.1895 15.7065,55.1880 C13.1685,54.9330 10.5397,53.3482 9.6487,51.8407 C9.6487,51.8407 9.5272,51.8250 9.6285,51.9930 C11.0385,54.3862 13.7107,55.3447 15.7417,55.3140 C15.7417,55.3140 15.7507,55.3140 15.7552,55.3140 C15.8055,55.3140 15.8437,55.2862 15.8437,55.2540 C15.8437,55.2217 15.8077,55.1910 15.7582,55.1910 Z" style="fill-rule: evenodd; fill: #000000; "/>
    <path xmlns="http://www.w3.org/2000/svg" d="  M15.7582,53.1375 C15.7537,53.1375 15.7177,53.1345 15.7065,53.1330 C13.1685,52.8780 10.5397,51.2947 9.6487,49.7872 C9.6487,49.7872 9.5272,49.7715 9.6285,49.9380 C11.0385,52.3312 13.7107,53.2897 15.7417,53.2590 C15.7417,53.2590 15.7507,53.2590 15.7552,53.2590 C15.8055,53.2590 15.8437,53.2327 15.8437,53.2005 C15.8430,53.1667 15.8077,53.1375 15.7582,53.1375 Z" style="fill-rule: evenodd; fill: #000000; "/>
    <path xmlns="http://www.w3.org/2000/svg" d="  M15.7582,51.0817 C15.7537,51.0817 15.7177,51.0787 15.7065,51.0772 C13.1685,50.8237 10.5397,49.2405 9.6487,47.7315 C9.6487,47.7315 9.5272,47.7157 9.6285,47.8837 C11.0385,50.2755 13.7107,51.2355 15.7417,51.2047 C15.7417,51.2047 15.7507,51.2047 15.7552,51.2047 C15.8055,51.2047 15.8437,51.1770 15.8437,51.1447 C15.8437,51.1125 15.8077,51.0817 15.7582,51.0817 Z" style="fill-rule: evenodd; fill: #000000; "/>
    <path xmlns="http://www.w3.org/2000/svg" d="  M15.8332,49.0635 C15.4957,49.0207 15.1582,48.9607 14.8230,48.8835 C14.0962,48.7282 13.3822,48.4762 12.7177,48.1627 C11.3340,47.5065 10.1805,46.5795 9.6472,45.6772 C9.6472,45.6772 9.5257,45.6615 9.6270,45.8295 C9.6772,45.9157 9.7305,45.9997 9.7845,46.0815 C11.2282,48.2887 13.7820,49.1797 15.7402,49.1505 C15.7402,49.1505 15.7492,49.1505 15.7537,49.1505 C15.8040,49.1505 15.8422,49.1227 15.8422,49.0920 C15.8430,49.0807 15.8385,49.0710 15.8332,49.0635 Z" style="fill-rule: evenodd; fill: #000000; "/>
    <path xmlns="http://www.w3.org/2000/svg" d="  M15.7702,46.9747 C15.7642,46.9747 15.7590,46.9747 15.7545,46.9733 C15.7462,46.9733 15.7162,46.9702 15.7057,46.9688 C14.9032,46.8885 14.0910,46.6740 13.3275,46.3725 C11.6782,45.7192 10.2555,44.6527 9.6480,43.6230 C9.6480,43.6230 9.5265,43.6073 9.6277,43.7753 C9.7687,44.0137 9.9217,44.2365 10.0845,44.4465 C11.5627,46.3477 13.9125,47.1225 15.7410,47.0962 C15.7410,47.0962 15.7500,47.0962 15.7545,47.0962 C15.8047,47.0962 15.8430,47.0685 15.8430,47.0363 C15.8430,47.0070 15.8130,46.9808 15.7702,46.9747 Z" style="fill-rule: evenodd; fill: #000000; "/>
    <path xmlns="http://www.w3.org/2000/svg" d="  M15.7582,42.8640 C15.7537,42.8640 15.7177,42.8610 15.7065,42.8610 C14.3850,42.7275 13.0380,42.2340 11.9265,41.5777 C10.9020,40.9755 10.0747,40.2360 9.6487,39.5138 C9.6487,39.5138 9.5272,39.4980 9.6285,39.6660 C9.6982,39.7845 9.7725,39.8993 9.8490,40.0102 C11.3025,42.1507 13.8127,43.0147 15.7417,42.9870 C15.7417,42.9870 15.7507,42.9855 15.7552,42.9855 C15.8055,42.9855 15.8437,42.9592 15.8437,42.9270 C15.8437,42.8947 15.8077,42.8640 15.7582,42.8640 Z" style="fill-rule: evenodd; fill: #000000; "/>
    <path xmlns="http://www.w3.org/2000/svg" d="  M15.7582,44.9197 C15.7537,44.9197 15.7177,44.9167 15.7065,44.9152 C13.1685,44.6602 10.5397,43.0755 9.6487,41.5680 C9.6487,41.5680 9.5272,41.5522 9.6285,41.7202 C11.0385,44.1135 13.7107,45.0720 15.7417,45.0412 C15.7417,45.0412 15.7507,45.0412 15.7552,45.0412 C15.8055,45.0412 15.8437,45.0135 15.8437,44.9812 C15.8437,44.9490 15.8077,44.9197 15.7582,44.9197 Z" style="fill-rule: evenodd; fill: #000000; "/>
    <defs xmlns="http://www.w3.org/2000/svg" xmlns:xlink="http://www.w3.org/1999/xlink">
      <linearGradient id="grad4813">
        <stop offset="0%" stop-color="#bdd1dd" stop-opacity="0.9882"/>
        <stop offset="100%" stop-color="#f3f9f7" stop-opacity="0.9882"/>
      </linearGradient>
      <linearGradient xlink:href="#grad4813" id="grad4814" x1="0" y1="0" x2="0" y2="1" gradientTransform="rotate(90 .5 .5)" gradientUnits="objectBoundingBox">
  </linearGradient>
    </defs>
    <path xmlns="http://www.w3.org/2000/svg" d="  M16.0815,38.5972 L9.5220,35.3542 L9.5220,39.5775 C9.6135,39.7222 9.7238,39.8692 9.8483,40.0110 C9.7718,39.9000 9.6975,39.7852 9.6278,39.6667 C9.5265,39.4980 9.6480,39.5145 9.6480,39.5145 C10.0740,40.2367 10.9013,40.9763 11.9257,41.5785 C13.1550,42.2363 14.6542,42.7222 16.1205,42.8543 L16.1205,38.6017 C16.1085,38.6002 16.0815,38.5972 16.0815,38.5972 Z M9.7433,35.9152 L15.9202,38.9677 C12.8580,40.6612 9.8610,37.9320 9.7433,35.9152 Z" style="fill-rule: evenodd; fill: url(#grad4814); "/>
    <defs xmlns="http://www.w3.org/2000/svg" xmlns:xlink="http://www.w3.org/1999/xlink">
      <linearGradient id="grad4815">
        <stop offset="0%" stop-color="#c8d8dd" stop-opacity="0.9882"/>
        <stop offset="100%" stop-color="#f3f9f7" stop-opacity="0.9882"/>
      </linearGradient>
      <linearGradient xlink:href="#grad4815" id="grad4816" x1="0" y1="0" x2="0" y2="1" gradientTransform="rotate(90 .5 .5)" gradientUnits="objectBoundingBox">
  </linearGradient>
    </defs>
    <path xmlns="http://www.w3.org/2000/svg" d="  M16.0815,47.0100 C15.9773,46.9995 15.8737,46.9883 15.7703,46.9748 C15.8130,46.9808 15.8430,47.0070 15.8430,47.0363 C15.8430,47.0685 15.8047,47.0963 15.7545,47.0963 C15.7500,47.0963 15.7410,47.0963 15.7410,47.0963 C13.9125,47.1225 11.5627,46.3478 10.0845,44.4465 C9.8572,44.2238 9.6675,43.9950 9.5220,43.7670 L9.5220,45.7253 C9.5977,45.8438 9.6862,45.9623 9.7852,46.0815 C9.7312,45.9998 9.6780,45.9158 9.6277,45.8295 C9.5265,45.6608 9.6480,45.6773 9.6480,45.6773 C10.1812,46.5795 11.3347,47.5065 12.7185,48.1628 C13.3830,48.4763 14.0970,48.7283 14.8238,48.8835 C15.1170,48.9465 15.4118,48.9945 15.7065,49.0245 C15.7185,49.0260 15.7538,49.0290 15.7582,49.0290 C15.7935,49.0290 15.8205,49.0440 15.8340,49.0643 C15.9300,49.0763 16.0252,49.0860 16.1213,49.0950 L16.1213,47.0153 C16.1085,47.0130 16.0958,47.0115 16.0815,47.0100 Z" style="fill-rule: evenodd; fill: url(#grad4816); "/>
    <defs xmlns="http://www.w3.org/2000/svg" xmlns:xlink="http://www.w3.org/1999/xlink">
      <linearGradient id="grad4817">
        <stop offset="0%" stop-color="#85919c" stop-opacity="0.9882"/>
        <stop offset="100%" stop-color="#dadfe1" stop-opacity="0.9882"/>
      </linearGradient>
      <linearGradient xlink:href="#grad4817" id="grad4818" x1="0" y1="0" x2="0" y2="1" gradientTransform="rotate(90 .5 .5)" gradientUnits="objectBoundingBox">
  </linearGradient>
    </defs>
    <path xmlns="http://www.w3.org/2000/svg" d="  M15.7057,42.8610 C15.7178,42.8610 15.7530,42.8640 15.7575,42.8640 C15.8070,42.8640 15.8422,42.8948 15.8422,42.9270 C15.8422,42.9593 15.8040,42.9855 15.7537,42.9855 C15.7492,42.9855 15.7403,42.9870 15.7403,42.9870 C13.8113,43.0148 11.3003,42.1508 9.8475,40.0103 C9.7230,39.8685 9.6128,39.7215 9.5213,39.5768 L9.5213,43.7663 C9.6668,43.9950 9.8565,44.2230 10.0838,44.4458 C9.9203,44.2365 9.7673,44.0138 9.6270,43.7745 C9.5258,43.6058 9.6473,43.6223 9.6473,43.6223 C10.2555,44.6520 11.6775,45.7185 13.3268,46.3718 C14.1030,46.6560 14.9302,46.8668 15.7537,46.9725 C15.7545,46.9725 15.7567,46.9725 15.7567,46.9725 C15.7605,46.9725 15.7635,46.9740 15.7695,46.9740 C15.8730,46.9875 15.9765,46.9988 16.0807,47.0093 C16.0950,47.0108 16.1070,47.0123 16.1197,47.0138 L16.1197,42.8535 C14.6535,42.7215 13.1542,42.2355 11.9250,41.5778 C13.0380,42.2340 14.3850,42.7283 15.7057,42.8610 Z M15.7545,45.0413 C15.7500,45.0413 15.7410,45.0413 15.7410,45.0413 C13.7100,45.0720 11.0378,44.1143 9.6278,41.7203 C9.5265,41.5515 9.6480,41.5680 9.6480,41.5680 C10.5390,43.0755 13.1678,44.6603 15.7057,44.9153 C15.7178,44.9168 15.7530,44.9198 15.7575,44.9198 C15.8070,44.9198 15.8422,44.9490 15.8422,44.9813 C15.8422,45.0135 15.8048,45.0413 15.7545,45.0413 Z" style="fill-rule: evenodd; fill: url(#grad4818); "/>
    <defs xmlns="http://www.w3.org/2000/svg" xmlns:xlink="http://www.w3.org/1999/xlink">
      <linearGradient id="grad4819">
        <stop offset="0%" stop-color="#85919c" stop-opacity="0.9882"/>
        <stop offset="100%" stop-color="#dadfe1" stop-opacity="0.9882"/>
      </linearGradient>
      <linearGradient xlink:href="#grad4819" id="grad4820" x1="0" y1="0" x2="0" y2="1" gradientTransform="rotate(90 .5 .5)" gradientUnits="objectBoundingBox">
  </linearGradient>
    </defs>
    <path xmlns="http://www.w3.org/2000/svg" d="  M15.8430,49.0913 C15.8430,49.1220 15.8047,49.1498 15.7545,49.1498 C15.7500,49.1498 15.7410,49.1498 15.7410,49.1498 C13.7827,49.1790 11.2283,48.2888 9.7853,46.0808 C9.6863,45.9623 9.5978,45.8438 9.5220,45.7245 L9.5220,54.5018 C9.5768,54.5865 9.6383,54.6735 9.7065,54.7598 C10.5382,55.8248 12.2647,56.8410 14.1690,57.3818 C14.8080,57.5618 15.4672,57.6908 16.1205,57.7478 L16.1205,49.0943 C16.0245,49.0853 15.9292,49.0755 15.8332,49.0635 C15.8385,49.0710 15.8430,49.0808 15.8430,49.0913 Z M15.6472,56.6603 C15.5407,56.9955 14.9842,57.1200 14.4075,56.9370 C13.8285,56.7540 13.4468,56.3318 13.5517,55.9950 C13.6582,55.6598 14.2132,55.5353 14.7915,55.7198 C15.3705,55.9028 15.7530,56.3235 15.6472,56.6603 Z M15.7545,55.3140 C15.7500,55.3140 15.7410,55.3140 15.7410,55.3140 C13.7100,55.3448 11.0378,54.3870 9.6278,51.9930 C9.5265,51.8243 9.6480,51.8408 9.6480,51.8408 C10.5390,53.3483 13.1678,54.9330 15.7057,55.1880 C15.7177,55.1895 15.7530,55.1910 15.7575,55.1910 C15.8070,55.1910 15.8422,55.2218 15.8422,55.2540 C15.8422,55.2863 15.8047,55.3140 15.7545,55.3140 Z M15.7545,53.2590 C15.7500,53.2590 15.7410,53.2590 15.7410,53.2590 C13.7100,53.2898 11.0378,52.3320 9.6278,49.9380 C9.5265,49.7708 9.6480,49.7873 9.6480,49.7873 C10.5390,51.2948 13.1678,52.8780 15.7057,53.1330 C15.7177,53.1345 15.7530,53.1375 15.7575,53.1375 C15.8070,53.1375 15.8422,53.1668 15.8422,53.2005 C15.8430,53.2320 15.8047,53.2590 15.7545,53.2590 Z M15.7545,51.2048 C15.7500,51.2048 15.7410,51.2048 15.7410,51.2048 C13.7100,51.2355 11.0378,50.2763 9.6278,47.8838 C9.5265,47.7150 9.6480,47.7315 9.6480,47.7315 C10.5390,49.2405 13.1678,50.8238 15.7057,51.0773 C15.7177,51.0788 15.7530,51.0818 15.7575,51.0818 C15.8070,51.0818 15.8422,51.1125 15.8422,51.1448 C15.8422,51.1770 15.8047,51.2048 15.7545,51.2048 Z" style="fill-rule: evenodd; fill: url(#grad4820); "/>
    <defs xmlns="http://www.w3.org/2000/svg" xmlns:xlink="http://www.w3.org/1999/xlink">
      <linearGradient id="grad4821">
        <stop offset="0%" stop-color="#646c6b" stop-opacity="1.0000"/>
        <stop offset="100%" stop-color="#dae1e1" stop-opacity="1.0000"/>
      </linearGradient>
      <linearGradient xlink:href="#grad4821" id="grad4822" x1="0" y1="0" x2="0" y2="1" gradientTransform="rotate(90 .5 .5)" gradientUnits="objectBoundingBox">
  </linearGradient>
    </defs>
    <path xmlns="http://www.w3.org/2000/svg" d="  M16.6537,37.9320 L9.3952,34.4017 L9.3952,54.5767 L9.7065,54.7597 C9.6382,54.6735 9.5767,54.5872 9.5220,54.5017 L9.5220,45.7252 L9.5220,43.7670 L9.5220,39.5775 L9.5220,35.3542 L16.0815,38.5972 C16.0815,38.5972 16.1077,38.6002 16.1205,38.6017 L16.1205,42.8542 L16.1205,47.0145 L16.1205,49.0942 L16.1205,57.7485 C15.4680,57.6915 14.8080,57.5625 14.1690,57.3825 L16.6537,58.8397 L16.6537,37.9320 Z" style="fill-rule: evenodd; fill: url(#grad4822); "/>
    <path xmlns="http://www.w3.org/2000/svg" d="  M21.8137,30.5393 L29.8297,25.9148 L29.5650,25.7880 L21.8137,30.2145 L21.8137,30.5393 Z" style="fill-rule: evenodd; fill: #3f3f3f; "/>
    <path xmlns="http://www.w3.org/2000/svg" d="  M21.8137,32.0715 L29.8297,27.4455 L29.5447,27.3098 L21.8137,31.7460 L21.8137,32.0715 Z" style="fill-rule: evenodd; fill: #3f3f3f; "/>
    <path xmlns="http://www.w3.org/2000/svg" d="  M21.8137,33.6038 L29.8297,28.9770 L29.5447,28.8413 L21.8137,33.2768 L21.8137,33.6038 Z" style="fill-rule: evenodd; fill: #3f3f3f; "/>
    <defs xmlns="http://www.w3.org/2000/svg" xmlns:xlink="http://www.w3.org/1999/xlink">
      <linearGradient id="grad4823">
        <stop offset="0%" stop-color="#7f8787" stop-opacity="1.0000"/>
        <stop offset="100%" stop-color="#f3f9f7" stop-opacity="1.0000"/>
      </linearGradient>
      <linearGradient xlink:href="#grad4823" id="grad4824" x1="0" y1="0" x2="0" y2="1" gradientTransform="rotate(315 .5 .5)" gradientUnits="objectBoundingBox">
  </linearGradient>
    </defs>
    <path xmlns="http://www.w3.org/2000/svg" d="  M9.7387,15.1342 C9.8550,17.1502 12.8520,19.8803 15.9157,18.1875 L9.7387,15.1342 Z M10.9230,15.7972 L14.8725,17.7330 C12.8760,18.7230 10.9747,17.0250 10.9230,15.7972 Z" style="fill-rule: evenodd; fill: url(#grad4824); "/>
    <defs xmlns="http://www.w3.org/2000/svg" xmlns:xlink="http://www.w3.org/1999/xlink">
      <linearGradient id="grad4825">
        <stop offset="0%" stop-color="#7f8787" stop-opacity="1.0000"/>
        <stop offset="100%" stop-color="#dae1e1" stop-opacity="1.0000"/>
      </linearGradient>
      <linearGradient xlink:href="#grad4825" id="grad4826" x1="0" y1="0" x2="0" y2="1" gradientTransform="rotate(45 .5 .5)" gradientUnits="objectBoundingBox">
  </linearGradient>
    </defs>
    <path xmlns="http://www.w3.org/2000/svg" d="  M16.6650,17.1337 L16.6538,17.1277 L16.6538,37.9245 L29.8312,30.4860 L29.8312,28.9957 L21.8137,33.6038 L21.8137,33.2768 L29.5447,28.8412 L29.8312,28.6762 L29.8312,27.4650 L21.8137,32.0715 L21.8137,31.7460 L29.5447,27.3098 L29.8312,27.1455 L29.8312,25.9335 L21.8137,30.5393 L21.8137,30.2145 L29.5650,25.7880 L29.8312,25.6357 L29.8312,9.4455 L28.0635,10.4617 L16.6650,17.1337 Z" style="fill-rule: evenodd; fill: url(#grad4826); "/>
    <defs xmlns="http://www.w3.org/2000/svg" xmlns:xlink="http://www.w3.org/1999/xlink">
      <linearGradient id="grad4827">
        <stop offset="0%" stop-color="#7f8787" stop-opacity="1.0000"/>
        <stop offset="100%" stop-color="#f3f9f7" stop-opacity="1.0000"/>
      </linearGradient>
      <linearGradient xlink:href="#grad4827" id="grad4828" x1="0" y1="0" x2="0" y2="1" gradientTransform="rotate(90 .5 .5)" gradientUnits="objectBoundingBox">
  </linearGradient>
    </defs>
    <path xmlns="http://www.w3.org/2000/svg" d="  M23.4060,5.5650 L9.4590,13.6163 L16.6537,17.1278 L29.8312,9.4260 L23.4060,5.5650 Z" style="fill-rule: evenodd; fill: url(#grad4828); "/>
    <defs xmlns="http://www.w3.org/2000/svg">
      <radialGradient id="grad4829" cx="50.0000%" cy="50.0000%" r="100.0000%">
        <stop offset="0%" stop-color="#a7e968" stop-opacity="1.0000"/>
        <stop offset="100%" stop-color="#000000" stop-opacity="1.0000"/>
      </radialGradient>
    </defs>
    <path xmlns="http://www.w3.org/2000/svg" d="  M10.9230,15.7973 C10.9747,17.0250 12.8760,18.7230 14.8725,17.7330 L10.9230,15.7973 Z" style="fill-rule: evenodd; fill: url(#grad4829); "/>
    <defs xmlns="http://www.w3.org/2000/svg">
      <radialGradient id="grad4830" cx="50.0000%" cy="50.0000%" r="100.0000%">
        <stop offset="0%" stop-color="#ccff66" stop-opacity="1.0000"/>
        <stop offset="100%" stop-color="#7ab04a" stop-opacity="1.0000"/>
      </radialGradient>
    </defs>
    <path xmlns="http://www.w3.org/2000/svg" d="  M14.9902,35.9572 C15.0030,35.9452 15.0142,35.9325 15.0255,35.9190 C15.1815,35.7592 15.1672,35.4825 14.9880,35.2920 C14.8567,35.1525 14.6737,35.1000 14.5177,35.1382 C14.4397,35.1472 14.3670,35.1780 14.3092,35.2320 C14.2372,35.3010 14.2005,35.3932 14.1967,35.4930 C14.1982,35.5560 14.2087,35.6190 14.2282,35.6835 C14.2545,35.7525 14.2950,35.8185 14.3497,35.8770 C14.5380,36.0787 14.8252,36.1125 14.9902,35.9572 Z" style="fill-rule: evenodd; fill: url(#grad4830); "/>
    <path xmlns="http://www.w3.org/2000/svg" d="  M14.3430,35.1270 C14.2417,35.2207 14.1952,35.3527 14.1967,35.4930 C14.2012,35.3932 14.2380,35.3010 14.3092,35.2320 C14.3670,35.1780 14.4405,35.1472 14.5177,35.1382 C14.6737,35.1000 14.8567,35.1532 14.9880,35.2920 C15.1672,35.4825 15.1815,35.7592 15.0255,35.9190 C15.0142,35.9325 15.0030,35.9452 14.9902,35.9572 C14.8245,36.1125 14.5372,36.0787 14.3497,35.8770 C14.2950,35.8185 14.2545,35.7525 14.2282,35.6835 C14.2612,35.7817 14.3160,35.8770 14.3955,35.9602 C14.6377,36.2197 15.0082,36.2647 15.2242,36.0630 C15.4387,35.8605 15.4162,35.4870 15.1732,35.2297 C14.9287,34.9702 14.5575,34.9245 14.3430,35.1270 Z" style="fill-rule: evenodd; fill: #000000; "/>
    <defs xmlns="http://www.w3.org/2000/svg">
      <linearGradient id="grad4831">
        <stop offset="0%" stop-color="#646c6b" stop-opacity="1.0000"/>
        <stop offset="100%" stop-color="#dae1e1" stop-opacity="1.0000"/>
      </linearGradient>
    </defs>
    <path xmlns="http://www.w3.org/2000/svg" d="  M14.7870,34.9395 C14.2087,34.7550 13.6522,34.8795 13.5465,35.2148 C13.4407,35.5515 13.8240,35.9738 14.4022,36.1553 C14.9805,36.3398 15.5370,36.2152 15.6420,35.8785 C15.7477,35.5433 15.3652,35.1225 14.7870,34.9395 Z M15.2242,36.0630 C15.0082,36.2655 14.6377,36.2198 14.3955,35.9603 C14.3167,35.8770 14.2612,35.7818 14.2282,35.6835 C14.2087,35.6190 14.1982,35.5560 14.1967,35.4930 C14.1952,35.3520 14.2425,35.2207 14.3430,35.1270 C14.5575,34.9245 14.9287,34.9703 15.1725,35.2298 C15.4162,35.4870 15.4387,35.8605 15.2242,36.0630 Z" style="fill-rule: evenodd; fill: url(#grad4831); "/>
    <path xmlns="http://www.w3.org/2000/svg" d="  M15.7530,34.4107 C15.7485,34.4107 15.7125,34.4077 15.7005,34.4077 C13.1640,34.1527 10.5345,32.5680 9.6427,31.0597 C9.6427,31.0597 9.5220,31.0440 9.6232,31.2127 C11.0325,33.6045 13.7047,34.5645 15.7357,34.5337 C15.7357,34.5337 15.7455,34.5337 15.7500,34.5337 C15.8002,34.5337 15.8385,34.5060 15.8385,34.4737 C15.8385,34.4415 15.8025,34.4107 15.7530,34.4107 Z" style="fill-rule: evenodd; fill: #000000; "/>
    <path xmlns="http://www.w3.org/2000/svg" d="  M15.7530,32.3557 C15.7485,32.3557 15.7125,32.3542 15.7005,32.3527 C13.1640,32.0977 10.5345,30.5137 9.6427,29.0055 C9.6427,29.0055 9.5220,28.9890 9.6232,29.1577 C11.0325,31.5510 13.7047,32.5095 15.7357,32.4787 C15.7357,32.4787 15.7455,32.4787 15.7500,32.4787 C15.8002,32.4787 15.8385,32.4510 15.8385,32.4187 C15.8385,32.3865 15.8025,32.3557 15.7530,32.3557 Z" style="fill-rule: evenodd; fill: #000000; "/>
    <path xmlns="http://www.w3.org/2000/svg" d="  M15.7530,30.3015 C15.7485,30.3015 15.7125,30.2985 15.7005,30.2977 C13.1640,30.0435 10.5345,28.4595 9.6427,26.9512 C9.6427,26.9512 9.5220,26.9355 9.6232,27.1035 C11.0325,29.4960 13.7047,30.4545 15.7357,30.4245 C15.7357,30.4245 15.7455,30.4237 15.7500,30.4237 C15.8002,30.4237 15.8385,30.3960 15.8385,30.3645 C15.8385,30.3330 15.8025,30.3015 15.7530,30.3015 Z" style="fill-rule: evenodd; fill: #000000; "/>
    <path xmlns="http://www.w3.org/2000/svg" d="  M15.8280,28.2825 C15.4905,28.2412 15.1537,28.1812 14.8170,28.1017 C14.0925,27.9465 13.3762,27.6952 12.7132,27.3817 C11.3287,26.7262 10.1752,25.7977 9.6420,24.8970 C9.6420,24.8970 9.5212,24.8805 9.6225,25.0500 C9.6720,25.1355 9.7267,25.2195 9.7792,25.3005 C11.2237,27.5085 13.7775,28.3995 15.7350,28.3702 C15.7350,28.3702 15.7447,28.3702 15.7492,28.3702 C15.7995,28.3702 15.8377,28.3425 15.8377,28.3095 C15.8377,28.2997 15.8332,28.2900 15.8280,28.2825 Z" style="fill-rule: evenodd; fill: #000000; "/>
    <path xmlns="http://www.w3.org/2000/svg" d="  M15.7642,26.1945 C15.7590,26.1937 15.7552,26.1937 15.7500,26.1930 C15.7417,26.1930 15.7117,26.1907 15.7005,26.1892 C14.8987,26.1082 14.0865,25.8938 13.3222,25.5922 C11.6745,24.9390 10.2510,23.8733 9.6427,22.8420 C9.6427,22.8420 9.5220,22.8263 9.6232,22.9943 C9.7627,23.2328 9.9172,23.4555 10.0792,23.6663 C11.5575,25.5675 13.9072,26.3430 15.7357,26.3153 C15.7357,26.3153 15.7455,26.3153 15.7500,26.3153 C15.8002,26.3153 15.8385,26.2875 15.8385,26.2553 C15.8377,26.2260 15.8077,26.1990 15.7642,26.1945 Z" style="fill-rule: evenodd; fill: #000000; "/>
    <path xmlns="http://www.w3.org/2000/svg" d="  M15.7530,22.0837 C15.7485,22.0837 15.7125,22.0815 15.7005,22.0800 C14.3790,21.9472 13.0327,21.4537 11.9205,20.7982 C10.8960,20.1960 10.0687,19.4558 9.6427,18.7343 C9.6427,18.7343 9.5220,18.7178 9.6232,18.8865 C9.6930,19.0057 9.7665,19.1197 9.8422,19.2307 C11.2957,21.3712 13.8060,22.2360 15.7357,22.2067 C15.7357,22.2067 15.7455,22.2060 15.7500,22.2060 C15.8002,22.2060 15.8385,22.1797 15.8385,22.1475 C15.8377,22.1137 15.8025,22.0837 15.7530,22.0837 Z" style="fill-rule: evenodd; fill: #000000; "/>
    <path xmlns="http://www.w3.org/2000/svg" d="  M15.7530,24.1380 C15.7485,24.1380 15.7125,24.1357 15.7005,24.1350 C13.1640,23.8800 10.5345,22.2960 9.6427,20.7877 C9.6427,20.7877 9.5220,20.7720 9.6232,20.9407 C11.0325,23.3332 13.7047,24.2917 15.7357,24.2617 C15.7357,24.2617 15.7455,24.2617 15.7500,24.2617 C15.8002,24.2617 15.8385,24.2340 15.8385,24.2017 C15.8377,24.1680 15.8025,24.1380 15.7530,24.1380 Z" style="fill-rule: evenodd; fill: #000000; "/>
    <defs xmlns="http://www.w3.org/2000/svg" xmlns:xlink="http://www.w3.org/1999/xlink">
      <linearGradient id="grad4832">
        <stop offset="0%" stop-color="#bdd1dd" stop-opacity="0.9882"/>
        <stop offset="100%" stop-color="#f3f9f7" stop-opacity="0.9882"/>
      </linearGradient>
      <linearGradient xlink:href="#grad4832" id="grad4833" x1="0" y1="0" x2="0" y2="1" gradientTransform="rotate(90 .5 .5)" gradientUnits="objectBoundingBox">
  </linearGradient>
    </defs>
    <path xmlns="http://www.w3.org/2000/svg" d="  M16.0770,17.8170 L9.5175,14.5733 L9.5175,18.7965 C9.6090,18.9413 9.7185,19.0868 9.8422,19.2293 C9.7665,19.1183 9.6930,19.0043 9.6232,18.8850 C9.5220,18.7163 9.6427,18.7328 9.6427,18.7328 C10.0687,19.4550 10.8960,20.1945 11.9205,20.7968 C13.1497,21.4538 14.6505,21.9405 16.1152,22.0718 L16.1152,17.8193 C16.1032,17.8193 16.0770,17.8170 16.0770,17.8170 Z M9.7387,15.1343 L15.9157,18.1875 C12.8527,19.8803 9.8557,17.1510 9.7387,15.1343 Z" style="fill-rule: evenodd; fill: url(#grad4833); "/>
    <defs xmlns="http://www.w3.org/2000/svg" xmlns:xlink="http://www.w3.org/1999/xlink">
      <linearGradient id="grad4834">
        <stop offset="0%" stop-color="#c8d8dd" stop-opacity="0.9882"/>
        <stop offset="100%" stop-color="#f3f9f7" stop-opacity="0.9882"/>
      </linearGradient>
      <linearGradient xlink:href="#grad4834" id="grad4835" x1="0" y1="0" x2="0" y2="1" gradientTransform="rotate(90 .5 .5)" gradientUnits="objectBoundingBox">
  </linearGradient>
    </defs>
    <path xmlns="http://www.w3.org/2000/svg" d="  M16.0770,26.2297 C15.9727,26.2192 15.8692,26.2072 15.7642,26.1945 C15.8085,26.1990 15.8385,26.2260 15.8385,26.2552 C15.8385,26.2875 15.8002,26.3152 15.7500,26.3152 C15.7455,26.3152 15.7357,26.3152 15.7357,26.3152 C13.9072,26.3430 11.5575,25.5675 10.0792,23.6662 C9.8527,23.4427 9.6630,23.2147 9.5175,22.9860 L9.5175,24.9435 C9.5925,25.0627 9.6810,25.1812 9.7800,25.3005 C9.7275,25.2187 9.6727,25.1347 9.6232,25.0500 C9.5220,24.8805 9.6427,24.8970 9.6427,24.8970 C10.1760,25.7985 11.3295,26.7262 12.7140,27.3817 C13.3770,27.6960 14.0932,27.9465 14.8177,28.1017 C15.1117,28.1648 15.4080,28.2127 15.7012,28.2435 C15.7140,28.2442 15.7492,28.2465 15.7537,28.2465 C15.7890,28.2465 15.8160,28.2622 15.8287,28.2825 C15.9247,28.2930 16.0207,28.3050 16.1160,28.3132 L16.1160,26.2335 C16.1032,26.2320 16.0905,26.2297 16.0770,26.2297 Z" style="fill-rule: evenodd; fill: url(#grad4835); "/>
    <defs xmlns="http://www.w3.org/2000/svg" xmlns:xlink="http://www.w3.org/1999/xlink">
      <linearGradient id="grad4836">
        <stop offset="0%" stop-color="#85919c" stop-opacity="0.9882"/>
        <stop offset="100%" stop-color="#dadfe1" stop-opacity="0.9882"/>
      </linearGradient>
      <linearGradient xlink:href="#grad4836" id="grad4837" x1="0" y1="0" x2="0" y2="1" gradientTransform="rotate(90 .5 .5)" gradientUnits="objectBoundingBox">
  </linearGradient>
    </defs>
    <path xmlns="http://www.w3.org/2000/svg" d="  M15.7005,22.0793 C15.7132,22.0808 15.7485,22.0830 15.7530,22.0830 C15.8025,22.0830 15.8377,22.1138 15.8377,22.1460 C15.8377,22.1783 15.7995,22.2045 15.7492,22.2045 C15.7447,22.2045 15.7350,22.2053 15.7350,22.2053 C13.8052,22.2345 11.2950,21.3690 9.8415,19.2293 C9.7178,19.0868 9.6083,18.9413 9.5168,18.7965 L9.5168,22.9853 C9.6623,23.2140 9.8520,23.4420 10.0785,23.6655 C9.9158,23.4548 9.7613,23.2320 9.6225,22.9935 C9.5213,22.8248 9.6420,22.8413 9.6420,22.8413 C10.2510,23.8725 11.6738,24.9375 13.3215,25.5915 C14.0985,25.8758 14.9250,26.0873 15.7492,26.1923 C15.7500,26.1923 15.7515,26.1923 15.7522,26.1923 C15.7567,26.1923 15.7590,26.1930 15.7635,26.1938 C15.8685,26.2065 15.9720,26.2185 16.0762,26.2290 C16.0905,26.2290 16.1025,26.2313 16.1145,26.2328 L16.1145,22.0725 C14.6497,21.9413 13.1490,21.4545 11.9197,20.7975 C13.0327,21.4530 14.3790,21.9465 15.7005,22.0793 Z M15.7492,24.2603 C15.7447,24.2603 15.7350,24.2603 15.7350,24.2603 C13.7040,24.2910 11.0318,23.3318 9.6225,20.9393 C9.5213,20.7705 9.6420,20.7863 9.6420,20.7863 C10.5337,22.2945 13.1633,23.8785 15.6997,24.1335 C15.7125,24.1343 15.7477,24.1365 15.7522,24.1365 C15.8017,24.1365 15.8370,24.1673 15.8370,24.1995 C15.8377,24.2325 15.7995,24.2603 15.7492,24.2603 Z" style="fill-rule: evenodd; fill: url(#grad4837); "/>
    <defs xmlns="http://www.w3.org/2000/svg" xmlns:xlink="http://www.w3.org/1999/xlink">
      <linearGradient id="grad4838">
        <stop offset="0%" stop-color="#85919c" stop-opacity="0.9882"/>
        <stop offset="100%" stop-color="#dadfe1" stop-opacity="0.9882"/>
      </linearGradient>
      <linearGradient xlink:href="#grad4838" id="grad4839" x1="0" y1="0" x2="0" y2="1" gradientTransform="rotate(90 .5 .5)" gradientUnits="objectBoundingBox">
  </linearGradient>
    </defs>
    <path xmlns="http://www.w3.org/2000/svg" d="  M15.8377,28.3095 C15.8377,28.3417 15.7995,28.3702 15.7492,28.3702 C15.7447,28.3702 15.7350,28.3702 15.7350,28.3702 C13.7775,28.3995 11.2230,27.5085 9.7793,25.3005 C9.6803,25.1820 9.5918,25.0627 9.5168,24.9435 L9.5168,33.7207 C9.5700,33.8070 9.6323,33.8932 9.6998,33.9787 C10.5337,35.0437 12.2595,36.0600 14.1645,36.6022 C14.8035,36.7822 15.4612,36.9097 16.1145,36.9682 L16.1145,28.3125 C16.0192,28.3042 15.9233,28.2930 15.8272,28.2817 C15.8332,28.2900 15.8377,28.2997 15.8377,28.3095 Z M15.6420,35.8785 C15.5362,36.2152 14.9805,36.3397 14.4022,36.1552 C13.8240,35.9737 13.4415,35.5515 13.5465,35.2147 C13.6530,34.8795 14.2095,34.7550 14.7870,34.9395 C15.3652,35.1225 15.7477,35.5432 15.6420,35.8785 Z M15.7492,34.5337 C15.7447,34.5337 15.7350,34.5337 15.7350,34.5337 C13.7040,34.5645 11.0318,33.6052 9.6225,31.2127 C9.5213,31.0440 9.6420,31.0597 9.6420,31.0597 C10.5338,32.5680 13.1633,34.1527 15.6997,34.4077 C15.7125,34.4077 15.7477,34.4107 15.7522,34.4107 C15.8017,34.4107 15.8370,34.4415 15.8370,34.4737 C15.8370,34.5060 15.7995,34.5337 15.7492,34.5337 Z M15.7492,32.4787 C15.7447,32.4787 15.7350,32.4787 15.7350,32.4787 C13.7040,32.5095 11.0318,31.5517 9.6225,29.1577 C9.5213,28.9890 9.6420,29.0055 9.6420,29.0055 C10.5338,30.5137 13.1633,32.0977 15.6997,32.3527 C15.7125,32.3542 15.7477,32.3557 15.7522,32.3557 C15.8017,32.3557 15.8370,32.3865 15.8370,32.4187 C15.8370,32.4510 15.7995,32.4787 15.7492,32.4787 Z M15.7492,30.4237 C15.7447,30.4237 15.7350,30.4245 15.7350,30.4245 C13.7040,30.4545 11.0318,29.4960 9.6225,27.1035 C9.5213,26.9347 9.6420,26.9512 9.6420,26.9512 C10.5338,28.4595 13.1633,30.0435 15.6997,30.2977 C15.7125,30.2985 15.7477,30.3015 15.7522,30.3015 C15.8017,30.3015 15.8370,30.3330 15.8370,30.3645 C15.8370,30.3960 15.7995,30.4237 15.7492,30.4237 Z" style="fill-rule: evenodd; fill: url(#grad4839); "/>
    <defs xmlns="http://www.w3.org/2000/svg" xmlns:xlink="http://www.w3.org/1999/xlink">
      <linearGradient id="grad4840">
        <stop offset="0%" stop-color="#646c6b" stop-opacity="1.0000"/>
        <stop offset="100%" stop-color="#dae1e1" stop-opacity="1.0000"/>
      </linearGradient>
      <linearGradient xlink:href="#grad4840" id="grad4841" x1="0" y1="0" x2="0" y2="1" gradientTransform="rotate(90 .5 .5)" gradientUnits="objectBoundingBox">
  </linearGradient>
    </defs>
    <path xmlns="http://www.w3.org/2000/svg" d="  M16.6470,17.1510 L9.3900,13.6215 L9.3900,33.7980 L9.6997,33.9780 C9.6322,33.8933 9.5700,33.8063 9.5167,33.7200 L9.5167,24.9435 L9.5167,22.9860 L9.5167,18.7965 L9.5167,14.5733 L16.0762,17.8170 C16.0762,17.8170 16.1025,17.8193 16.1145,17.8200 L16.1145,22.0725 L16.1145,26.2328 L16.1145,28.3125 L16.1145,36.9683 C15.4620,36.9098 14.8035,36.7823 14.1645,36.6023 L16.6470,38.0580 L16.6470,17.1510 Z" style="fill-rule: evenodd; fill: url(#grad4841); "/>
    <defs xmlns="http://www.w3.org/2000/svg" xmlns:xlink="http://www.w3.org/1999/xlink">
      <linearGradient id="grad4842">
        <stop offset="0%" stop-color="#f9c33c" stop-opacity="1.0000"/>
        <stop offset="100%" stop-color="#f9c33c" stop-opacity="1.0000"/>
      </linearGradient>
      <linearGradient xlink:href="#grad4842" id="grad4843" x1="0" y1="0" x2="0" y2="1" gradientTransform="rotate(90 .5 .5)" gradientUnits="objectBoundingBox">
  </linearGradient>
    </defs>
    <path xmlns="http://www.w3.org/2000/svg" d="  M32.4150,47.3025 L32.4150,47.3040 C32.4150,49.0747 29.9145,50.5103 26.8305,50.5103 C23.7788,50.5103 21.3000,49.1055 21.2483,47.3610 L21.2483,57.8977 C21.2483,57.9022 21.2475,57.9067 21.2475,57.9098 C21.2475,57.9142 21.2483,57.9188 21.2483,57.9232 L21.2483,57.9322 C21.2685,59.6932 23.7608,61.1153 26.8328,61.1153 C29.9048,61.1153 32.3963,59.6932 32.4158,57.9322 L32.4195,57.9322 L32.4195,47.3025 L32.4150,47.3025 Z" style="fill-rule: evenodd; fill: url(#grad4843); "/>
    <defs xmlns="http://www.w3.org/2000/svg" xmlns:xlink="http://www.w3.org/1999/xlink">
      <linearGradient id="grad4844">
        <stop offset="0%" stop-color="#f9c33c" stop-opacity="1.0000"/>
        <stop offset="100%" stop-color="#fffce3" stop-opacity="1.0000"/>
      </linearGradient>
      <linearGradient xlink:href="#grad4844" id="grad4845" x1="0" y1="0" x2="0" y2="1" gradientTransform="rotate(-0 .5 .5)" gradientUnits="objectBoundingBox">
  </linearGradient>
    </defs>
    <path xmlns="http://www.w3.org/2000/svg" d="  M26.8298,50.5110 C29.9138,50.5110 32.4143,49.0755 32.4143,47.3047 L32.4143,47.3032 C32.4113,45.5340 29.9115,44.1000 26.8298,44.1000 C23.7450,44.1000 21.2453,45.5355 21.2453,47.3047 C21.2453,47.3235 21.2468,47.3430 21.2475,47.3617 C21.2993,49.1062 23.7780,50.5110 26.8298,50.5110 Z" style="fill-rule: evenodd; fill: url(#grad4845); "/>
    <!--converted by libvisio2svg-->
  </g>
</svg>
