<svg xmlns="http://www.w3.org/2000/svg" xmlns:xlink="http://www.w3.org/1999/xlink" version="1.1" width="0.6841000000" height="0.8435000000" viewBox="0 0 49.2525 60.7312">
  <title><![CDATA[Unified Contact Store]]></title>
  <g transform=" scale(1.000000) ">
    <path xmlns="http://www.w3.org/2000/svg" d="  M18.2453,2.6475 L17.7780,2.9632 L17.7780,2.4142 L17.5027,2.5838 L17.5027,1.0433 C17.5027,0.9818 17.4870,0.9368 17.4638,0.9015 C17.4570,0.8880 17.4472,0.8760 17.4375,0.8632 C17.4360,0.8617 17.4353,0.8595 17.4338,0.8580 C17.3153,0.7095 17.0017,0.5677 16.8960,0.6285 L0.2378,10.5060 C0.1102,10.5810 0.0075,10.7797 0.0037,10.9538 C0.0030,10.9530 0.0000,10.9477 0.0000,10.9493 L0.0000,59.3273 C0.0112,59.5433 0.3397,59.7758 0.5085,59.7803 C0.5258,59.7810 0.5452,59.7750 0.5647,59.7682 C0.5662,59.7675 0.5685,59.7675 0.5700,59.7675 L0.5707,59.7660 C0.5842,59.7615 0.5955,59.7630 0.6090,59.7548 L1.6335,58.8660 L1.6335,59.1367 L2.3347,58.5240 L2.3347,59.6040 L3.7567,58.3650 L3.7567,60.1357 L17.8350,46.1812 L18.2850,46.1273 L43.5188,60.7312 L43.5188,60.2272 L43.5300,60.2332 L43.5300,60.2437 L43.9860,60.4980 L43.9860,59.9947 L44.4622,60.2760 L44.4622,59.7750 L44.9235,60.0442 L44.9235,59.5275 L45.3878,59.7967 L45.3937,59.2957 L45.7875,59.5245 L45.8640,59.5740 L45.8640,59.0775 L46.0477,59.1697 L46.3222,59.3295 L46.3222,58.9192 L47.7780,59.7442 C47.8995,59.8132 47.9963,59.7435 48.0082,59.5935 C48.1770,59.5222 48.3788,59.3505 48.3878,59.1847 L48.3878,58.2637 C48.8685,58.3860 49.2270,58.0185 49.2270,57.3307 L49.2270,48.8107 C49.2495,48.0090 48.9487,47.3137 48.3893,46.8847 L48.3945,14.9280 C48.3945,14.9280 48.3907,14.8770 48.3457,14.7862 L48.3412,14.7900 C48.2985,14.6835 48.2317,14.5867 48.1508,14.5417 L22.6125,0.0757 C22.5068,0.0165 22.1925,0.1545 22.0747,0.3008 C22.0732,0.3015 22.0732,0.3030 22.0717,0.3045 C22.0620,0.3172 22.0515,0.3300 22.0447,0.3427 C22.0223,0.3780 22.0058,0.4215 22.0058,0.4830 L22.0058,0.7425 L22.0005,0.7395 L22.0005,1.2442 L21.5325,0.9735 L21.5325,1.4775 L21.0653,1.2075 L21.0653,1.7122 L20.5980,1.4415 L20.5980,1.9462 L20.1307,1.6755 L20.1307,2.1795 L19.6635,1.9095 L19.6635,2.4142 L19.1963,2.1435 L19.1963,2.6482 L18.7290,2.3782 L18.7290,2.8822 L18.2617,2.6115" style="stroke-width: 1.5000; stroke: #8d98b5; stroke-dasharray: none; stroke-linecap: butt; stroke-linejoin: miter; fill: none; "/>
    <defs xmlns="http://www.w3.org/2000/svg" xmlns:xlink="http://www.w3.org/1999/xlink">
      <linearGradient id="grad5472">
        <stop offset="0%" stop-color="#eec984" stop-opacity="1.0000"/>
        <stop offset="100%" stop-color="#ffff98" stop-opacity="1.0000"/>
      </linearGradient>
      <linearGradient xlink:href="#grad5472" id="grad5473" x1="0" y1="0" x2="0" y2="1" gradientTransform="rotate(90 .5 .5)" gradientUnits="objectBoundingBox">
  </linearGradient>
    </defs>
    <path xmlns="http://www.w3.org/2000/svg" d="  M48.3840,14.9858 C48.3840,14.8133 48.2782,14.6130 48.1492,14.5395 L22.6110,0.0735 C22.4805,0.0000 22.0252,0.2287 22.0252,0.4012 L22.3762,44.6033 C22.3770,44.6025 48.3840,14.8133 48.3840,14.9858 Z" style="fill-rule: evenodd; fill: url(#grad5473); "/>
    <path xmlns="http://www.w3.org/2000/svg" d="  M47.8613,15.0877 L22.3785,44.4503 C22.3785,44.6228 22.4843,44.8223 22.6133,44.8957 L47.8162,59.6145 C47.9453,59.6895 48.3735,59.4255 48.3862,59.1840 L48.3930,14.9265 C48.3930,14.9265 48.3893,14.8755 48.3443,14.7847 L47.8613,15.0877 Z" style="fill-rule: evenodd; fill: #8e560d; "/>
    <path xmlns="http://www.w3.org/2000/svg" d="  M17.4817,0.9622 C17.4817,0.7868 17.0265,0.5528 16.8960,0.6285 L0.2377,10.5060 C0.1102,10.5810 0.0075,10.7798 0.0037,10.9537 C0.0030,10.9530 0.0000,10.9478 0.0000,10.9493 L0.0000,59.3273 C0.0127,59.5740 0.4402,59.8425 0.5700,59.7675 L16.8945,45.0675 C17.0220,44.9925 17.1262,44.7923 17.1285,44.6175 C17.1292,44.6183 17.1322,44.6242 17.1322,44.6242 L17.4817,0.9622 Z" style="fill-rule: evenodd; fill: #f6ef90; "/>
    <path xmlns="http://www.w3.org/2000/svg" d="  M48.0127,59.5650 C48.0127,59.7367 47.9078,59.8170 47.7780,59.7435 L22.2397,45.2775 C22.1107,45.2032 22.0050,45.0037 22.0050,44.8305 L22.0050,0.4800 C22.0050,0.3083 22.1107,0.2280 22.2397,0.3015 L47.7780,14.7675 C47.9085,14.8418 48.0127,15.0412 48.0127,15.2137 L48.0127,59.5650 Z" style="fill-rule: evenodd; fill: #d1a258; "/>
    <path xmlns="http://www.w3.org/2000/svg" d="  M0.3750,59.5718 C0.3750,59.7473 0.4800,59.8298 0.6097,59.7540 L17.2687,45.3120 C17.3977,45.2363 17.5035,45.0322 17.5035,44.8568 L17.5035,1.0425 C17.5035,0.8670 17.3977,0.7845 17.2687,0.8602 L0.6097,10.7385 C0.4800,10.8142 0.3750,11.0175 0.3750,11.1938 L0.3750,59.5718 Z" style="fill-rule: evenodd; fill: #d1a258; "/>
    <defs xmlns="http://www.w3.org/2000/svg" xmlns:xlink="http://www.w3.org/1999/xlink">
      <linearGradient id="grad5474">
        <stop offset="0%" stop-color="#848b91" stop-opacity="1.0000"/>
        <stop offset="100%" stop-color="#fefefe" stop-opacity="1.0000"/>
      </linearGradient>
      <linearGradient xlink:href="#grad5474" id="grad5475" x1="0" y1="0" x2="0" y2="1" gradientTransform="rotate(225 .5 .5)" gradientUnits="objectBoundingBox">
  </linearGradient>
    </defs>
    <path xmlns="http://www.w3.org/2000/svg" d="  M22.0005,44.2260 L22.0005,0.7365 L47.2560,15.3720 L47.2560,58.8615 L22.0005,44.2260 Z" style="fill-rule: evenodd; fill: url(#grad5475); "/>
    <defs xmlns="http://www.w3.org/2000/svg" xmlns:xlink="http://www.w3.org/1999/xlink">
      <linearGradient id="grad5476">
        <stop offset="0%" stop-color="#d4dfe9" stop-opacity="1.0000"/>
        <stop offset="100%" stop-color="#9c9d9f" stop-opacity="1.0000"/>
      </linearGradient>
      <linearGradient xlink:href="#grad5476" id="grad5477" x1="0" y1="0" x2="0" y2="1" gradientTransform="rotate(90 .5 .5)" gradientUnits="objectBoundingBox">
  </linearGradient>
    </defs>
    <path xmlns="http://www.w3.org/2000/svg" d="  M47.0235,58.4145 L22.2338,44.0490 L22.2338,1.1827 L47.0235,15.5490 L47.0235,58.4145 Z" style="fill-rule: evenodd; fill: url(#grad5477); "/>
    <defs xmlns="http://www.w3.org/2000/svg" xmlns:xlink="http://www.w3.org/1999/xlink">
      <linearGradient id="grad5478">
        <stop offset="0%" stop-color="#d4dfe9" stop-opacity="1.0000"/>
        <stop offset="100%" stop-color="#73747b" stop-opacity="1.0000"/>
      </linearGradient>
      <linearGradient xlink:href="#grad5478" id="grad5479" x1="0" y1="0" x2="0" y2="1" gradientTransform="rotate(315 .5 .5)" gradientUnits="objectBoundingBox">
  </linearGradient>
    </defs>
    <path xmlns="http://www.w3.org/2000/svg" d="  M47.0235,58.4145 L22.2338,44.0490 L34.5458,29.9895 L47.0235,15.5490 L47.0235,58.4145 Z" style="fill-rule: evenodd; fill: url(#grad5479); "/>
    <defs xmlns="http://www.w3.org/2000/svg" xmlns:xlink="http://www.w3.org/1999/xlink">
      <linearGradient id="grad5480">
        <stop offset="0%" stop-color="#848b91" stop-opacity="1.0000"/>
        <stop offset="100%" stop-color="#fefefe" stop-opacity="1.0000"/>
      </linearGradient>
      <linearGradient xlink:href="#grad5480" id="grad5481" x1="0" y1="0" x2="0" y2="1" gradientTransform="rotate(225 .5 .5)" gradientUnits="objectBoundingBox">
  </linearGradient>
    </defs>
    <path xmlns="http://www.w3.org/2000/svg" d="  M21.5325,44.4593 L21.5325,0.9705 L46.7887,15.6060 L46.7887,59.0955 L21.5325,44.4593 Z" style="fill-rule: evenodd; fill: url(#grad5481); "/>
    <defs xmlns="http://www.w3.org/2000/svg" xmlns:xlink="http://www.w3.org/1999/xlink">
      <linearGradient id="grad5482">
        <stop offset="0%" stop-color="#d4dfe9" stop-opacity="1.0000"/>
        <stop offset="100%" stop-color="#9c9d9f" stop-opacity="1.0000"/>
      </linearGradient>
      <linearGradient xlink:href="#grad5482" id="grad5483" x1="0" y1="0" x2="0" y2="1" gradientTransform="rotate(90 .5 .5)" gradientUnits="objectBoundingBox">
  </linearGradient>
    </defs>
    <path xmlns="http://www.w3.org/2000/svg" d="  M46.5563,58.6493 L21.7665,44.2838 L21.7665,1.4160 L46.5563,15.7830 L46.5563,58.6493 Z" style="fill-rule: evenodd; fill: url(#grad5483); "/>
    <defs xmlns="http://www.w3.org/2000/svg" xmlns:xlink="http://www.w3.org/1999/xlink">
      <linearGradient id="grad5484">
        <stop offset="0%" stop-color="#d4dfe9" stop-opacity="1.0000"/>
        <stop offset="100%" stop-color="#73747b" stop-opacity="1.0000"/>
      </linearGradient>
      <linearGradient xlink:href="#grad5484" id="grad5485" x1="0" y1="0" x2="0" y2="1" gradientTransform="rotate(315 .5 .5)" gradientUnits="objectBoundingBox">
  </linearGradient>
    </defs>
    <path xmlns="http://www.w3.org/2000/svg" d="  M46.5563,58.6493 L21.7665,44.2838 L34.0785,30.2235 L46.5563,15.7830 L46.5563,58.6493 Z" style="fill-rule: evenodd; fill: url(#grad5485); "/>
    <defs xmlns="http://www.w3.org/2000/svg" xmlns:xlink="http://www.w3.org/1999/xlink">
      <linearGradient id="grad5486">
        <stop offset="0%" stop-color="#848b91" stop-opacity="1.0000"/>
        <stop offset="100%" stop-color="#fefefe" stop-opacity="1.0000"/>
      </linearGradient>
      <linearGradient xlink:href="#grad5486" id="grad5487" x1="0" y1="0" x2="0" y2="1" gradientTransform="rotate(225 .5 .5)" gradientUnits="objectBoundingBox">
  </linearGradient>
    </defs>
    <path xmlns="http://www.w3.org/2000/svg" d="  M21.0652,44.6932 L21.0652,1.2038 L46.3215,15.8400 L46.3215,59.3288 L21.0652,44.6932 Z" style="fill-rule: evenodd; fill: url(#grad5487); "/>
    <defs xmlns="http://www.w3.org/2000/svg" xmlns:xlink="http://www.w3.org/1999/xlink">
      <linearGradient id="grad5488">
        <stop offset="0%" stop-color="#d4dfe9" stop-opacity="1.0000"/>
        <stop offset="100%" stop-color="#9c9d9f" stop-opacity="1.0000"/>
      </linearGradient>
      <linearGradient xlink:href="#grad5488" id="grad5489" x1="0" y1="0" x2="0" y2="1" gradientTransform="rotate(90 .5 .5)" gradientUnits="objectBoundingBox">
  </linearGradient>
    </defs>
    <path xmlns="http://www.w3.org/2000/svg" d="  M46.0890,58.8833 L21.2992,44.5163 L21.2992,1.6500 L46.0890,16.0162 L46.0890,58.8833 Z" style="fill-rule: evenodd; fill: url(#grad5489); "/>
    <defs xmlns="http://www.w3.org/2000/svg" xmlns:xlink="http://www.w3.org/1999/xlink">
      <linearGradient id="grad5490">
        <stop offset="0%" stop-color="#d4dfe9" stop-opacity="1.0000"/>
        <stop offset="100%" stop-color="#73747b" stop-opacity="1.0000"/>
      </linearGradient>
      <linearGradient xlink:href="#grad5490" id="grad5491" x1="0" y1="0" x2="0" y2="1" gradientTransform="rotate(315 .5 .5)" gradientUnits="objectBoundingBox">
  </linearGradient>
    </defs>
    <path xmlns="http://www.w3.org/2000/svg" d="  M46.0890,58.8833 L21.2992,44.5163 L33.6112,30.4568 L46.0890,16.0163 L46.0890,58.8833 Z" style="fill-rule: evenodd; fill: url(#grad5491); "/>
    <defs xmlns="http://www.w3.org/2000/svg" xmlns:xlink="http://www.w3.org/1999/xlink">
      <linearGradient id="grad5492">
        <stop offset="0%" stop-color="#848b91" stop-opacity="1.0000"/>
        <stop offset="100%" stop-color="#fefefe" stop-opacity="1.0000"/>
      </linearGradient>
      <linearGradient xlink:href="#grad5492" id="grad5493" x1="0" y1="0" x2="0" y2="1" gradientTransform="rotate(225 .5 .5)" gradientUnits="objectBoundingBox">
  </linearGradient>
    </defs>
    <path xmlns="http://www.w3.org/2000/svg" d="  M20.5980,44.9280 L20.5980,1.4377 L45.8543,16.0725 L45.8543,59.5635 L20.5980,44.9280 Z" style="fill-rule: evenodd; fill: url(#grad5493); "/>
    <defs xmlns="http://www.w3.org/2000/svg" xmlns:xlink="http://www.w3.org/1999/xlink">
      <linearGradient id="grad5494">
        <stop offset="0%" stop-color="#d4dfe9" stop-opacity="1.0000"/>
        <stop offset="100%" stop-color="#9c9d9f" stop-opacity="1.0000"/>
      </linearGradient>
      <linearGradient xlink:href="#grad5494" id="grad5495" x1="0" y1="0" x2="0" y2="1" gradientTransform="rotate(90 .5 .5)" gradientUnits="objectBoundingBox">
  </linearGradient>
    </defs>
    <path xmlns="http://www.w3.org/2000/svg" d="  M45.6210,59.1165 L20.8313,44.7510 L20.8313,1.8833 L45.6210,16.2502 L45.6210,59.1165 Z" style="fill-rule: evenodd; fill: url(#grad5495); "/>
    <defs xmlns="http://www.w3.org/2000/svg" xmlns:xlink="http://www.w3.org/1999/xlink">
      <linearGradient id="grad5496">
        <stop offset="0%" stop-color="#d4dfe9" stop-opacity="1.0000"/>
        <stop offset="100%" stop-color="#73747b" stop-opacity="1.0000"/>
      </linearGradient>
      <linearGradient xlink:href="#grad5496" id="grad5497" x1="0" y1="0" x2="0" y2="1" gradientTransform="rotate(315 .5 .5)" gradientUnits="objectBoundingBox">
  </linearGradient>
    </defs>
    <path xmlns="http://www.w3.org/2000/svg" d="  M45.6210,59.1165 L20.8313,44.7510 L33.1440,30.6915 L45.6210,16.2503 L45.6210,59.1165 Z" style="fill-rule: evenodd; fill: url(#grad5497); "/>
    <defs xmlns="http://www.w3.org/2000/svg" xmlns:xlink="http://www.w3.org/1999/xlink">
      <linearGradient id="grad5498">
        <stop offset="0%" stop-color="#848b91" stop-opacity="1.0000"/>
        <stop offset="100%" stop-color="#fefefe" stop-opacity="1.0000"/>
      </linearGradient>
      <linearGradient xlink:href="#grad5498" id="grad5499" x1="0" y1="0" x2="0" y2="1" gradientTransform="rotate(225 .5 .5)" gradientUnits="objectBoundingBox">
  </linearGradient>
    </defs>
    <path xmlns="http://www.w3.org/2000/svg" d="  M20.1300,45.1613 L20.1300,1.6710 L45.3870,16.3072 L45.3870,59.7960 L20.1300,45.1613 Z" style="fill-rule: evenodd; fill: url(#grad5499); "/>
    <defs xmlns="http://www.w3.org/2000/svg" xmlns:xlink="http://www.w3.org/1999/xlink">
      <linearGradient id="grad5500">
        <stop offset="0%" stop-color="#d4dfe9" stop-opacity="1.0000"/>
        <stop offset="100%" stop-color="#9c9d9f" stop-opacity="1.0000"/>
      </linearGradient>
      <linearGradient xlink:href="#grad5500" id="grad5501" x1="0" y1="0" x2="0" y2="1" gradientTransform="rotate(90 .5 .5)" gradientUnits="objectBoundingBox">
  </linearGradient>
    </defs>
    <path xmlns="http://www.w3.org/2000/svg" d="  M45.1545,59.3490 L20.3648,44.9835 L20.3648,2.1180 L45.1545,16.4835 L45.1545,59.3490 Z" style="fill-rule: evenodd; fill: url(#grad5501); "/>
    <defs xmlns="http://www.w3.org/2000/svg" xmlns:xlink="http://www.w3.org/1999/xlink">
      <linearGradient id="grad5502">
        <stop offset="0%" stop-color="#d4dfe9" stop-opacity="1.0000"/>
        <stop offset="100%" stop-color="#73747b" stop-opacity="1.0000"/>
      </linearGradient>
      <linearGradient xlink:href="#grad5502" id="grad5503" x1="0" y1="0" x2="0" y2="1" gradientTransform="rotate(315 .5 .5)" gradientUnits="objectBoundingBox">
  </linearGradient>
    </defs>
    <path xmlns="http://www.w3.org/2000/svg" d="  M45.1545,59.3490 L20.3648,44.9835 L32.6768,30.9240 L45.1545,16.4835 L45.1545,59.3490 Z" style="fill-rule: evenodd; fill: url(#grad5503); "/>
    <defs xmlns="http://www.w3.org/2000/svg" xmlns:xlink="http://www.w3.org/1999/xlink">
      <linearGradient id="grad5504">
        <stop offset="0%" stop-color="#848b91" stop-opacity="1.0000"/>
        <stop offset="100%" stop-color="#fefefe" stop-opacity="1.0000"/>
      </linearGradient>
      <linearGradient xlink:href="#grad5504" id="grad5505" x1="0" y1="0" x2="0" y2="1" gradientTransform="rotate(225 .5 .5)" gradientUnits="objectBoundingBox">
  </linearGradient>
    </defs>
    <path xmlns="http://www.w3.org/2000/svg" d="  M19.6628,45.3952 L19.6628,1.9050 L44.9198,16.5405 L44.9198,60.0308 L19.6628,45.3952 Z" style="fill-rule: evenodd; fill: url(#grad5505); "/>
    <defs xmlns="http://www.w3.org/2000/svg" xmlns:xlink="http://www.w3.org/1999/xlink">
      <linearGradient id="grad5506">
        <stop offset="0%" stop-color="#d4dfe9" stop-opacity="1.0000"/>
        <stop offset="100%" stop-color="#9c9d9f" stop-opacity="1.0000"/>
      </linearGradient>
      <linearGradient xlink:href="#grad5506" id="grad5507" x1="0" y1="0" x2="0" y2="1" gradientTransform="rotate(90 .5 .5)" gradientUnits="objectBoundingBox">
  </linearGradient>
    </defs>
    <path xmlns="http://www.w3.org/2000/svg" d="  M44.6873,59.5837 L19.8975,45.2182 L19.8975,2.3505 L44.6873,16.7167 L44.6873,59.5837 Z" style="fill-rule: evenodd; fill: url(#grad5507); "/>
    <defs xmlns="http://www.w3.org/2000/svg" xmlns:xlink="http://www.w3.org/1999/xlink">
      <linearGradient id="grad5508">
        <stop offset="0%" stop-color="#d4dfe9" stop-opacity="1.0000"/>
        <stop offset="100%" stop-color="#73747b" stop-opacity="1.0000"/>
      </linearGradient>
      <linearGradient xlink:href="#grad5508" id="grad5509" x1="0" y1="0" x2="0" y2="1" gradientTransform="rotate(315 .5 .5)" gradientUnits="objectBoundingBox">
  </linearGradient>
    </defs>
    <path xmlns="http://www.w3.org/2000/svg" d="  M44.6873,59.5837 L19.8975,45.2182 L32.2080,31.1587 L44.6873,16.7168 L44.6873,59.5837 Z" style="fill-rule: evenodd; fill: url(#grad5509); "/>
    <defs xmlns="http://www.w3.org/2000/svg" xmlns:xlink="http://www.w3.org/1999/xlink">
      <linearGradient id="grad5510">
        <stop offset="0%" stop-color="#848b91" stop-opacity="1.0000"/>
        <stop offset="100%" stop-color="#fefefe" stop-opacity="1.0000"/>
      </linearGradient>
      <linearGradient xlink:href="#grad5510" id="grad5511" x1="0" y1="0" x2="0" y2="1" gradientTransform="rotate(225 .5 .5)" gradientUnits="objectBoundingBox">
  </linearGradient>
    </defs>
    <path xmlns="http://www.w3.org/2000/svg" d="  M19.1955,45.6285 L19.1955,2.1383 L44.4525,16.7738 L44.4525,60.2640 L19.1955,45.6285 Z" style="fill-rule: evenodd; fill: url(#grad5511); "/>
    <defs xmlns="http://www.w3.org/2000/svg" xmlns:xlink="http://www.w3.org/1999/xlink">
      <linearGradient id="grad5512">
        <stop offset="0%" stop-color="#d4dfe9" stop-opacity="1.0000"/>
        <stop offset="100%" stop-color="#9c9d9f" stop-opacity="1.0000"/>
      </linearGradient>
      <linearGradient xlink:href="#grad5512" id="grad5513" x1="0" y1="0" x2="0" y2="1" gradientTransform="rotate(90 .5 .5)" gradientUnits="objectBoundingBox">
  </linearGradient>
    </defs>
    <path xmlns="http://www.w3.org/2000/svg" d="  M44.2193,59.8178 L19.4295,45.4508 L19.4295,2.5845 L44.2193,16.9508 L44.2193,59.8178 Z" style="fill-rule: evenodd; fill: url(#grad5513); "/>
    <defs xmlns="http://www.w3.org/2000/svg" xmlns:xlink="http://www.w3.org/1999/xlink">
      <linearGradient id="grad5514">
        <stop offset="0%" stop-color="#d4dfe9" stop-opacity="1.0000"/>
        <stop offset="100%" stop-color="#73747b" stop-opacity="1.0000"/>
      </linearGradient>
      <linearGradient xlink:href="#grad5514" id="grad5515" x1="0" y1="0" x2="0" y2="1" gradientTransform="rotate(315 .5 .5)" gradientUnits="objectBoundingBox">
  </linearGradient>
    </defs>
    <path xmlns="http://www.w3.org/2000/svg" d="  M44.2193,59.8177 L19.4295,45.4507 L31.7423,31.3912 L44.2193,16.9507 L44.2193,59.8177 Z" style="fill-rule: evenodd; fill: url(#grad5515); "/>
    <path xmlns="http://www.w3.org/2000/svg" d="  M47.2560,58.8645 L46.7918,58.5937 L46.7918,59.0955 L46.3215,58.8247 L46.3215,59.3085 L45.8633,59.0767 L45.8633,59.5732 L45.3930,59.2702 L45.3870,59.7960 L44.9228,59.5147 L44.9228,60.0435 L44.4585,59.7727 L44.4525,60.0172 L44.4428,16.8435 L47.2560,15.3720 L47.2560,58.8645 Z" style="fill-rule: evenodd; fill: #bdbfc3; "/>
    <defs xmlns="http://www.w3.org/2000/svg" xmlns:xlink="http://www.w3.org/1999/xlink">
      <linearGradient id="grad5516">
        <stop offset="0%" stop-color="#848b91" stop-opacity="1.0000"/>
        <stop offset="100%" stop-color="#fefefe" stop-opacity="1.0000"/>
      </linearGradient>
      <linearGradient xlink:href="#grad5516" id="grad5517" x1="0" y1="0" x2="0" y2="1" gradientTransform="rotate(225 .5 .5)" gradientUnits="objectBoundingBox">
  </linearGradient>
    </defs>
    <path xmlns="http://www.w3.org/2000/svg" d="  M48.1298,46.7130 L46.2120,45.6060 L46.2120,57.0525 L48.1298,58.1595 C48.7350,58.5090 49.2270,58.1370 49.2270,57.3308 L49.2270,48.8108 C49.2525,47.8913 48.8550,47.1135 48.1298,46.7130 Z M48.9983,57.1973 C48.9983,57.8363 48.6083,58.1303 48.1298,57.8535 L46.2120,56.7458 L46.2120,56.4413 L46.2120,46.2165 L46.2120,45.9120 L48.1298,47.0183 C48.6075,47.2950 48.9983,48.0390 48.9983,48.6773 L48.9983,57.1973 Z" style="fill-rule: evenodd; fill: url(#grad5517); "/>
    <path xmlns="http://www.w3.org/2000/svg" d="  M48.1298,47.0183 L46.2120,45.9120 L46.2120,46.2165 L48.1298,47.3243 C48.4058,47.5118 48.7688,48.1170 48.7688,48.5445 L48.7688,57.0645 C48.7688,57.5355 48.4830,57.7523 48.1298,57.5483 L46.2120,56.4413 L46.2120,56.7458 L48.1298,57.8535 C48.6090,58.1303 48.9983,57.8363 48.9983,57.1973 L48.9983,48.6773 C48.9983,48.0390 48.6068,47.2950 48.1298,47.0183 Z" style="fill-rule: evenodd; fill: #00a0c6; "/>
    <defs xmlns="http://www.w3.org/2000/svg" xmlns:xlink="http://www.w3.org/1999/xlink">
      <linearGradient id="grad5518">
        <stop offset="0%" stop-color="#129cbd" stop-opacity="0.8000"/>
        <stop offset="100%" stop-color="#b6e8fc" stop-opacity="0.8000"/>
      </linearGradient>
      <linearGradient xlink:href="#grad5518" id="grad5519" x1="0" y1="0" x2="0" y2="1" gradientTransform="rotate(180 .5 .5)" gradientUnits="objectBoundingBox">
  </linearGradient>
    </defs>
    <path xmlns="http://www.w3.org/2000/svg" d="  M48.7680,57.0653 L48.7680,48.5453 C48.7680,48.1178 48.4058,47.5125 48.1290,47.3250 L46.2113,46.2173 L46.2113,56.4420 L48.1290,57.5490 C48.4823,57.7530 48.7680,57.5363 48.7680,57.0653 Z" style="fill-rule: evenodd; fill: url(#grad5519); "/>
    <path xmlns="http://www.w3.org/2000/svg" d="  M48.7680,57.0653 L48.7680,48.5453 C48.7680,48.1178 48.4058,47.5125 48.1290,47.3250 L46.2113,46.2173 L46.2113,56.4420 L48.1290,57.5490 C48.4823,57.7530 48.7680,57.5363 48.7680,57.0653 Z" style="fill-rule: evenodd; fill: #00a0c6; "/>
    <defs xmlns="http://www.w3.org/2000/svg" xmlns:xlink="http://www.w3.org/1999/xlink">
      <linearGradient id="grad5520">
        <stop offset="0%" stop-color="#848b91" stop-opacity="1.0000"/>
        <stop offset="100%" stop-color="#fefefe" stop-opacity="1.0000"/>
      </linearGradient>
      <linearGradient xlink:href="#grad5520" id="grad5521" x1="0" y1="0" x2="0" y2="1" gradientTransform="rotate(225 .5 .5)" gradientUnits="objectBoundingBox">
  </linearGradient>
    </defs>
    <path xmlns="http://www.w3.org/2000/svg" d="  M47.2238,33.2213 L45.3255,32.1255 L45.3255,32.4278 L47.2238,33.5242 C47.6985,33.7973 48.0833,34.5353 48.0833,35.1660 L48.0833,43.6050 C48.0833,44.2365 47.6978,44.5275 47.2238,44.2545 L45.3255,43.1580 L45.3255,43.4603 L47.2238,44.5568 C47.8230,44.9025 48.3105,44.5350 48.3105,43.7348 L48.3105,35.2973 C48.3113,34.4985 47.8238,33.5678 47.2238,33.2213 Z" style="fill-rule: evenodd; fill: url(#grad5521); "/>
    <path xmlns="http://www.w3.org/2000/svg" d="  M48.0840,43.6088 L48.0840,35.1705 C48.0840,34.5383 47.6985,33.8010 47.2245,33.5273 L45.3263,32.4315 L45.3263,32.7345 L47.2245,33.8303 C47.5748,34.0328 47.8575,34.5728 47.8575,35.0385 L47.8575,35.0400 L47.8575,43.4775 C47.8575,43.9433 47.5748,44.1585 47.2245,43.9568 L45.3263,42.8610 L45.3263,42.8603 L45.3263,43.1625 L47.2245,44.2583 C47.6985,44.5328 48.0840,44.2410 48.0840,43.6088 Z" style="fill-rule: evenodd; fill: #c7ac40; "/>
    <defs xmlns="http://www.w3.org/2000/svg" xmlns:xlink="http://www.w3.org/1999/xlink">
      <linearGradient id="grad5522">
        <stop offset="0%" stop-color="#f0d30c" stop-opacity="0.8000"/>
        <stop offset="100%" stop-color="#eee4a0" stop-opacity="0.8000"/>
      </linearGradient>
      <linearGradient xlink:href="#grad5522" id="grad5523" x1="0" y1="0" x2="0" y2="1" gradientTransform="rotate(180 .5 .5)" gradientUnits="objectBoundingBox">
  </linearGradient>
    </defs>
    <path xmlns="http://www.w3.org/2000/svg" d="  M47.2230,43.9553 C47.5725,44.1578 47.8560,43.9425 47.8560,43.4760 L47.8560,35.0385 C47.8560,34.5728 47.5725,34.0313 47.2223,33.8295 L45.3248,32.7338 L45.3248,37.7970 L45.3248,42.8595 L47.2230,43.9553 Z" style="fill-rule: evenodd; fill: url(#grad5523); "/>
    <defs xmlns="http://www.w3.org/2000/svg" xmlns:xlink="http://www.w3.org/1999/xlink">
      <linearGradient id="grad5524">
        <stop offset="0%" stop-color="#f0d30c" stop-opacity="1.0000"/>
        <stop offset="100%" stop-color="#c7ac40" stop-opacity="1.0000"/>
      </linearGradient>
      <linearGradient xlink:href="#grad5524" id="grad5525" x1="0" y1="0" x2="0" y2="1" gradientTransform="rotate(90 .5 .5)" gradientUnits="objectBoundingBox">
  </linearGradient>
    </defs>
    <path xmlns="http://www.w3.org/2000/svg" d="  M47.2230,43.9553 C47.5725,44.1578 47.8560,43.9425 47.8560,43.4760 L47.8560,35.0385 C47.8560,34.5728 47.5725,34.0313 47.2223,33.8295 L45.3248,32.7338 L45.3248,37.7970 L45.3248,42.8595 L47.2230,43.9553 Z" style="fill-rule: evenodd; fill: url(#grad5525); "/>
    <defs xmlns="http://www.w3.org/2000/svg" xmlns:xlink="http://www.w3.org/1999/xlink">
      <linearGradient id="grad5526">
        <stop offset="0%" stop-color="#848b91" stop-opacity="1.0000"/>
        <stop offset="100%" stop-color="#fefefe" stop-opacity="1.0000"/>
      </linearGradient>
      <linearGradient xlink:href="#grad5526" id="grad5527" x1="0" y1="0" x2="0" y2="1" gradientTransform="rotate(225 .5 .5)" gradientUnits="objectBoundingBox">
  </linearGradient>
    </defs>
    <path xmlns="http://www.w3.org/2000/svg" d="  M46.3875,19.5413 L44.4758,18.4373 L44.4758,18.7418 L46.3875,19.8450 C46.8638,20.1210 47.2523,20.8628 47.2523,21.5003 L47.2530,29.9940 C47.2530,30.6315 46.8630,30.9233 46.3875,30.6480 L44.4758,29.5448 L44.4758,29.8485 L46.3875,30.9525 C46.9898,31.3013 47.4803,30.9308 47.4803,30.1253 L47.4803,21.6315 C47.4803,20.8268 46.9898,19.8893 46.3875,19.5413 Z" style="fill-rule: evenodd; fill: url(#grad5527); "/>
    <path xmlns="http://www.w3.org/2000/svg" d="  M47.2538,30.0128 L47.2530,21.5190 C47.2530,20.8823 46.8638,20.1398 46.3883,19.8645 L44.4765,18.7605 L44.4765,19.0650 L46.3883,20.1690 C46.7400,20.3723 47.0250,20.9175 47.0250,21.3863 L47.0250,29.8808 L47.0250,29.8853 C47.0250,30.3555 46.7393,30.5708 46.3883,30.3690 L44.4765,29.2643 L44.4765,29.5635 L46.3883,30.6675 C46.8638,30.9428 47.2538,30.6503 47.2538,30.0128 Z" style="fill-rule: evenodd; fill: #b83a31; "/>
    <defs xmlns="http://www.w3.org/2000/svg" xmlns:xlink="http://www.w3.org/1999/xlink">
      <linearGradient id="grad5528">
        <stop offset="0%" stop-color="#f5614f" stop-opacity="0.8510"/>
        <stop offset="100%" stop-color="#ffd7d1" stop-opacity="0.8510"/>
      </linearGradient>
      <linearGradient xlink:href="#grad5528" id="grad5529" x1="0" y1="0" x2="0" y2="1" gradientTransform="rotate(180 .5 .5)" gradientUnits="objectBoundingBox">
  </linearGradient>
    </defs>
    <path xmlns="http://www.w3.org/2000/svg" d="  M47.0243,29.8898 L47.0243,21.4013 C47.0243,20.9318 46.7393,20.3858 46.3875,20.1825 L44.4758,19.0793 L44.4758,29.2688 L46.3875,30.3728 C46.7385,30.5753 47.0243,30.3600 47.0243,29.8898 Z" style="fill-rule: evenodd; fill: url(#grad5529); "/>
    <path xmlns="http://www.w3.org/2000/svg" d="  M47.0243,29.8898 L47.0243,21.4013 C47.0243,20.9318 46.7393,20.3858 46.3875,20.1825 L44.4758,19.0793 L44.4758,29.2688 L46.3875,30.3728 C46.7385,30.5753 47.0243,30.3600 47.0243,29.8898 Z" style="fill-rule: evenodd; fill: #b83a31; "/>
    <defs xmlns="http://www.w3.org/2000/svg" xmlns:xlink="http://www.w3.org/1999/xlink">
      <linearGradient id="grad5530">
        <stop offset="0%" stop-color="#848b91" stop-opacity="1.0000"/>
        <stop offset="100%" stop-color="#fefefe" stop-opacity="1.0000"/>
      </linearGradient>
      <linearGradient xlink:href="#grad5530" id="grad5531" x1="0" y1="0" x2="0" y2="1" gradientTransform="rotate(225 .5 .5)" gradientUnits="objectBoundingBox">
  </linearGradient>
    </defs>
    <path xmlns="http://www.w3.org/2000/svg" d="  M18.7283,45.8618 L18.7283,2.3730 L43.9853,17.0078 L43.9853,60.4972 L18.7283,45.8618 Z" style="fill-rule: evenodd; fill: url(#grad5531); "/>
    <path xmlns="http://www.w3.org/2000/svg" d="  M44.4615,60.2752 L43.9815,59.9925 L43.9853,60.4972 L43.5293,60.2430 L43.5293,17.2410 L44.4615,16.8075 L44.4615,60.2752 Z" style="fill-rule: evenodd; fill: #bdbfc3; "/>
    <defs xmlns="http://www.w3.org/2000/svg" xmlns:xlink="http://www.w3.org/1999/xlink">
      <linearGradient id="grad5532">
        <stop offset="0%" stop-color="#d4dfe9" stop-opacity="1.0000"/>
        <stop offset="100%" stop-color="#9c9d9f" stop-opacity="1.0000"/>
      </linearGradient>
      <linearGradient xlink:href="#grad5532" id="grad5533" x1="0" y1="0" x2="0" y2="1" gradientTransform="rotate(90 .5 .5)" gradientUnits="objectBoundingBox">
  </linearGradient>
    </defs>
    <path xmlns="http://www.w3.org/2000/svg" d="  M43.7520,60.0510 L18.9630,45.6855 L18.9630,2.8185 L43.7520,17.1848 L43.7520,60.0510 Z" style="fill-rule: evenodd; fill: url(#grad5533); "/>
    <defs xmlns="http://www.w3.org/2000/svg" xmlns:xlink="http://www.w3.org/1999/xlink">
      <linearGradient id="grad5534">
        <stop offset="0%" stop-color="#d4dfe9" stop-opacity="1.0000"/>
        <stop offset="100%" stop-color="#73747b" stop-opacity="1.0000"/>
      </linearGradient>
      <linearGradient xlink:href="#grad5534" id="grad5535" x1="0" y1="0" x2="0" y2="1" gradientTransform="rotate(315 .5 .5)" gradientUnits="objectBoundingBox">
  </linearGradient>
    </defs>
    <path xmlns="http://www.w3.org/2000/svg" d="  M43.7520,60.0510 L18.9630,45.6855 L31.2750,31.6260 L43.7520,17.1847 L43.7520,60.0510 Z" style="fill-rule: evenodd; fill: url(#grad5535); "/>
    <defs xmlns="http://www.w3.org/2000/svg" xmlns:xlink="http://www.w3.org/1999/xlink">
      <linearGradient id="grad5536">
        <stop offset="0%" stop-color="#d4dfe9" stop-opacity="1.0000"/>
        <stop offset="100%" stop-color="#ffffff" stop-opacity="1.0000"/>
      </linearGradient>
      <linearGradient xlink:href="#grad5536" id="grad5537" x1="0" y1="0" x2="0" y2="1" gradientTransform="rotate(180 .5 .5)" gradientUnits="objectBoundingBox">
  </linearGradient>
    </defs>
    <path xmlns="http://www.w3.org/2000/svg" d="  M18.2483,46.1055 L18.2610,2.6055 L43.5180,17.2418 L43.5180,60.7305 L18.2483,46.1055 Z" style="fill-rule: evenodd; fill: url(#grad5537); "/>
    <path xmlns="http://www.w3.org/2000/svg" d="  M1.1663,58.9027 L16.8428,45.4358 L16.8428,1.9455 L1.1663,11.2072 Z" style="fill-rule: evenodd; fill: #868682; "/>
    <path xmlns="http://www.w3.org/2000/svg" d="  M1.4003,58.4565 L16.6088,45.2588 L16.6020,2.3220 L1.4003,11.3835 L1.4003,58.4565 Z" style="fill-rule: evenodd; fill: #bdbfc3; "/>
    <path xmlns="http://www.w3.org/2000/svg" d="  M17.3107,45.4357 L17.3107,2.1802 L1.8982,11.6085 L1.8982,59.3040 L17.3107,45.4357 Z" style="fill-rule: evenodd; fill: #868682; "/>
    <defs xmlns="http://www.w3.org/2000/svg" xmlns:xlink="http://www.w3.org/1999/xlink">
      <linearGradient id="grad5538">
        <stop offset="0%" stop-color="#85919c" stop-opacity="1.0000"/>
        <stop offset="100%" stop-color="#dadfe1" stop-opacity="1.0000"/>
      </linearGradient>
      <linearGradient xlink:href="#grad5538" id="grad5539" x1="0" y1="0" x2="0" y2="1" gradientTransform="rotate(90 .5 .5)" gradientUnits="objectBoundingBox">
  </linearGradient>
    </defs>
    <path xmlns="http://www.w3.org/2000/svg" d="  M17.7780,46.1362 L17.7780,2.4135 L2.3347,11.9085 L2.3347,59.6040 L17.7780,46.1362 Z" style="fill-rule: evenodd; fill: url(#grad5539); "/>
    <defs xmlns="http://www.w3.org/2000/svg" xmlns:xlink="http://www.w3.org/1999/xlink">
      <linearGradient id="grad5540">
        <stop offset="0%" stop-color="#000000" stop-opacity="1.0000"/>
        <stop offset="100%" stop-color="#868682" stop-opacity="1.0000"/>
      </linearGradient>
      <linearGradient xlink:href="#grad5540" id="grad5541" x1="0" y1="0" x2="0" y2="1" gradientTransform="rotate(90 .5 .5)" gradientUnits="objectBoundingBox">
  </linearGradient>
    </defs>
    <path xmlns="http://www.w3.org/2000/svg" d="  M18.0105,45.9593 L18.2955,45.9330 L18.2452,2.6475 L3.7560,12.4402 L3.7560,60.1358 L18.0105,45.9593 Z" style="fill-rule: evenodd; fill: url(#grad5541); "/>
    <defs xmlns="http://www.w3.org/2000/svg" xmlns:xlink="http://www.w3.org/1999/xlink">
      <linearGradient id="grad5542">
        <stop offset="0%" stop-color="#c8d8dd" stop-opacity="1.0000"/>
        <stop offset="100%" stop-color="#f3f9f7" stop-opacity="1.0000"/>
      </linearGradient>
      <linearGradient xlink:href="#grad5542" id="grad5543" x1="0" y1="0" x2="0" y2="1" gradientTransform="rotate(135 .5 .5)" gradientUnits="objectBoundingBox">
  </linearGradient>
    </defs>
    <path xmlns="http://www.w3.org/2000/svg" d="  M4.2045,59.6250 L18.0105,45.9592 L18.0052,3.0232 L4.2045,12.5520 L4.2045,59.6250 Z" style="fill-rule: evenodd; fill: url(#grad5543); "/>
    <path xmlns="http://www.w3.org/2000/svg" d="  M17.0940,5.9025 C17.0940,6.2445 16.8540,6.6600 16.5578,6.8310 C16.2615,7.0020 16.0215,6.8633 16.0215,6.5212 C16.0215,6.1800 16.2615,5.7637 16.5578,5.5935 C16.8540,5.4232 17.0940,5.5612 17.0940,5.9025 Z" style="fill-rule: evenodd; fill: #302e2e; "/>
    <path xmlns="http://www.w3.org/2000/svg" d="  M20.0295,6.5175 C20.0295,6.8587 19.7895,6.9975 19.4933,6.8265 C19.1970,6.6555 18.9570,6.2400 18.9570,5.8987 C18.9570,5.5567 19.1970,5.4180 19.4933,5.5897 C19.7887,5.7600 20.0295,6.1755 20.0295,6.5175 Z" style="fill-rule: evenodd; fill: #302e2e; "/>
    <path xmlns="http://www.w3.org/2000/svg" d="  M17.0940,10.0275 C17.0940,10.3695 16.8540,10.7850 16.5578,10.9560 C16.2615,11.1270 16.0215,10.9882 16.0215,10.6462 C16.0215,10.3050 16.2615,9.8887 16.5578,9.7185 C16.8540,9.5482 17.0940,9.6862 17.0940,10.0275 Z" style="fill-rule: evenodd; fill: #302e2e; "/>
    <path xmlns="http://www.w3.org/2000/svg" d="  M20.0295,10.6425 C20.0295,10.9838 19.7895,11.1225 19.4933,10.9515 C19.1970,10.7805 18.9570,10.3650 18.9570,10.0238 C18.9570,9.6818 19.1970,9.5430 19.4933,9.7148 C19.7887,9.8850 20.0295,10.3005 20.0295,10.6425 Z" style="fill-rule: evenodd; fill: #302e2e; "/>
    <path xmlns="http://www.w3.org/2000/svg" d="  M17.0940,14.1525 C17.0940,14.4945 16.8540,14.9100 16.5578,15.0810 C16.2615,15.2520 16.0215,15.1133 16.0215,14.7713 C16.0215,14.4300 16.2615,14.0138 16.5578,13.8435 C16.8540,13.6733 17.0940,13.8113 17.0940,14.1525 Z" style="fill-rule: evenodd; fill: #302e2e; "/>
    <path xmlns="http://www.w3.org/2000/svg" d="  M20.0295,14.7675 C20.0295,15.1088 19.7895,15.2475 19.4933,15.0765 C19.1970,14.9055 18.9570,14.4900 18.9570,14.1488 C18.9570,13.8068 19.1970,13.6680 19.4933,13.8398 C19.7887,14.0100 20.0295,14.4255 20.0295,14.7675 Z" style="fill-rule: evenodd; fill: #302e2e; "/>
    <path xmlns="http://www.w3.org/2000/svg" d="  M17.0940,18.2775 C17.0940,18.6195 16.8540,19.0350 16.5578,19.2053 C16.2615,19.3770 16.0215,19.2375 16.0215,18.8963 C16.0215,18.5550 16.2615,18.1388 16.5578,17.9685 C16.8540,17.7983 17.0940,17.9363 17.0940,18.2775 Z" style="fill-rule: evenodd; fill: #302e2e; "/>
    <path xmlns="http://www.w3.org/2000/svg" d="  M20.0295,18.8917 C20.0295,19.2330 19.7895,19.3725 19.4933,19.2015 C19.1970,19.0305 18.9570,18.6150 18.9570,18.2737 C18.9570,17.9317 19.1970,17.7930 19.4933,17.9647 C19.7887,18.1342 20.0295,18.5505 20.0295,18.8917 Z" style="fill-rule: evenodd; fill: #302e2e; "/>
    <path xmlns="http://www.w3.org/2000/svg" d="  M17.0940,22.4025 C17.0940,22.7445 16.8540,23.1607 16.5578,23.3310 C16.2615,23.5012 16.0215,23.3625 16.0215,23.0212 C16.0215,22.6800 16.2615,22.2637 16.5578,22.0935 C16.8540,21.9232 17.0940,22.0612 17.0940,22.4025 Z" style="fill-rule: evenodd; fill: #302e2e; "/>
    <path xmlns="http://www.w3.org/2000/svg" d="  M20.0295,23.0167 C20.0295,23.3580 19.7895,23.4975 19.4933,23.3265 C19.1970,23.1555 18.9570,22.7400 18.9570,22.3987 C18.9570,22.0567 19.1970,21.9180 19.4933,22.0897 C19.7887,22.2592 20.0295,22.6755 20.0295,23.0167 Z" style="fill-rule: evenodd; fill: #302e2e; "/>
    <path xmlns="http://www.w3.org/2000/svg" d="  M17.0940,26.5282 C17.0940,26.8695 16.8540,27.2857 16.5578,27.4560 C16.2615,27.6262 16.0215,27.4875 16.0215,27.1462 C16.0215,26.8050 16.2615,26.3887 16.5578,26.2185 C16.8540,26.0482 17.0940,26.1862 17.0940,26.5282 Z" style="fill-rule: evenodd; fill: #302e2e; "/>
    <path xmlns="http://www.w3.org/2000/svg" d="  M20.0295,27.1418 C20.0295,27.4830 19.7895,27.6225 19.4933,27.4515 C19.1970,27.2805 18.9570,26.8650 18.9570,26.5230 C18.9570,26.1818 19.1970,26.0430 19.4933,26.2148 C19.7887,26.3843 20.0295,26.8005 20.0295,27.1418 Z" style="fill-rule: evenodd; fill: #302e2e; "/>
    <path xmlns="http://www.w3.org/2000/svg" d="  M17.0940,30.6533 C17.0940,30.9945 16.8540,31.4108 16.5578,31.5810 C16.2615,31.7513 16.0215,31.6125 16.0215,31.2713 C16.0215,30.9300 16.2615,30.5138 16.5578,30.3435 C16.8540,30.1733 17.0940,30.3113 17.0940,30.6533 Z" style="fill-rule: evenodd; fill: #302e2e; "/>
    <path xmlns="http://www.w3.org/2000/svg" d="  M20.0295,31.2667 C20.0295,31.6080 19.7895,31.7475 19.4933,31.5765 C19.1970,31.4055 18.9570,30.9900 18.9570,30.6480 C18.9570,30.3067 19.1970,30.1680 19.4933,30.3397 C19.7887,30.5092 20.0295,30.9255 20.0295,31.2667 Z" style="fill-rule: evenodd; fill: #302e2e; "/>
    <path xmlns="http://www.w3.org/2000/svg" d="  M17.0940,34.7782 C17.0940,35.1195 16.8540,35.5357 16.5578,35.7060 C16.2615,35.8763 16.0215,35.7375 16.0215,35.3962 C16.0215,35.0550 16.2615,34.6388 16.5578,34.4685 C16.8540,34.2982 17.0940,34.4362 17.0940,34.7782 Z" style="fill-rule: evenodd; fill: #302e2e; "/>
    <path xmlns="http://www.w3.org/2000/svg" d="  M20.0295,35.3917 C20.0295,35.7330 19.7895,35.8725 19.4933,35.7015 C19.1970,35.5305 18.9570,35.1150 18.9570,34.7730 C18.9570,34.4317 19.1970,34.2930 19.4933,34.4647 C19.7887,34.6342 20.0295,35.0505 20.0295,35.3917 Z" style="fill-rule: evenodd; fill: #302e2e; "/>
    <path xmlns="http://www.w3.org/2000/svg" d="  M17.0940,38.9032 C17.0940,39.2445 16.8540,39.6607 16.5578,39.8310 C16.2615,40.0012 16.0215,39.8625 16.0215,39.5212 C16.0215,39.1800 16.2615,38.7637 16.5578,38.5935 C16.8540,38.4232 17.0940,38.5612 17.0940,38.9032 Z" style="fill-rule: evenodd; fill: #302e2e; "/>
    <path xmlns="http://www.w3.org/2000/svg" d="  M20.0295,39.5168 C20.0295,39.8580 19.7895,39.9975 19.4933,39.8265 C19.1970,39.6555 18.9570,39.2400 18.9570,38.8980 C18.9570,38.5568 19.1970,38.4180 19.4933,38.5898 C19.7887,38.7593 20.0295,39.1755 20.0295,39.5168 Z" style="fill-rule: evenodd; fill: #302e2e; "/>
    <path xmlns="http://www.w3.org/2000/svg" d="  M17.0940,43.0282 C17.0940,43.3695 16.8540,43.7857 16.5578,43.9560 C16.2615,44.1263 16.0215,43.9875 16.0215,43.6463 C16.0215,43.3050 16.2615,42.8887 16.5578,42.7185 C16.8540,42.5482 17.0940,42.6862 17.0940,43.0282 Z" style="fill-rule: evenodd; fill: #302e2e; "/>
    <path xmlns="http://www.w3.org/2000/svg" d="  M20.0295,43.6418 C20.0295,43.9830 19.7895,44.1225 19.4933,43.9515 C19.1970,43.7805 18.9570,43.3650 18.9570,43.0230 C18.9570,42.6818 19.1970,42.5430 19.4933,42.7147 C19.7887,42.8842 20.0295,43.3005 20.0295,43.6418 Z" style="fill-rule: evenodd; fill: #302e2e; "/>
    <path xmlns="http://www.w3.org/2000/svg" d="  M17.9362,8.0055 C18.9645,8.0055 19.8007,7.5210 19.8007,6.9248 C19.8007,6.7387 19.7355,6.5873 19.6222,6.4898 C19.5750,6.4252 19.5225,6.3817 19.4670,6.3502 C19.4175,6.3113 19.3515,6.2858 19.2750,6.3105 C19.1992,6.3188 19.1257,6.3458 19.0597,6.4117 C18.9690,6.5040 18.9532,6.5917 18.9555,6.6495 C18.9607,6.7342 19.0065,6.8002 19.0463,6.8333 C19.0530,6.8415 19.0620,6.8805 19.0342,6.9375 C18.9945,7.0163 18.8010,7.2750 17.9587,7.2750 L17.9190,7.2743 C17.0077,7.2652 16.8450,7.0208 16.8180,6.9458 C16.7955,6.8850 16.8187,6.8377 16.8330,6.8273 C16.9177,6.7560 16.9635,6.5708 16.8262,6.4050 C16.7805,6.3495 16.7085,6.3308 16.6312,6.3285 C16.5315,6.2925 16.3897,6.3517 16.3312,6.4463 C16.3297,6.4477 16.3297,6.4492 16.3282,6.4515 C16.3147,6.4658 16.2967,6.4748 16.2862,6.4913 C16.1842,6.6525 16.1565,6.7260 16.1565,6.9420 C16.1580,7.5487 16.9222,8.0055 17.9362,8.0055 Z M19.4670,10.4752 C19.4175,10.4362 19.3515,10.4108 19.2750,10.4355 C19.1992,10.4438 19.1257,10.4708 19.0597,10.5367 C18.9690,10.6290 18.9532,10.7167 18.9555,10.7745 C18.9607,10.8592 19.0065,10.9252 19.0463,10.9583 C19.0530,10.9665 19.0620,11.0055 19.0342,11.0625 C18.9945,11.1412 18.8010,11.4000 17.9587,11.4000 L17.9190,11.3993 C17.0077,11.3902 16.8450,11.1458 16.8180,11.0708 C16.7955,11.0100 16.8187,10.9627 16.8330,10.9523 C16.9177,10.8810 16.9635,10.6958 16.8262,10.5300 C16.7805,10.4745 16.7085,10.4558 16.6312,10.4535 C16.5315,10.4175 16.3897,10.4767 16.3312,10.5713 C16.3297,10.5727 16.3297,10.5742 16.3282,10.5765 C16.3147,10.5908 16.2967,10.5998 16.2862,10.6163 C16.1842,10.7775 16.1565,10.8510 16.1565,11.0670 C16.1565,11.6730 16.9215,12.1297 17.9347,12.1297 C18.9630,12.1297 19.7992,11.6452 19.7992,11.0490 C19.7992,10.8630 19.7340,10.7115 19.6207,10.6140 C19.5750,10.5502 19.5225,10.5067 19.4670,10.4752 Z M19.4670,14.6002 C19.4175,14.5613 19.3515,14.5357 19.2750,14.5605 C19.1992,14.5688 19.1257,14.5958 19.0597,14.6617 C18.9690,14.7540 18.9532,14.8417 18.9555,14.8995 C18.9607,14.9842 19.0065,15.0502 19.0463,15.0833 C19.0530,15.0915 19.0620,15.1305 19.0342,15.1875 C18.9945,15.2662 18.8010,15.5250 17.9587,15.5250 L17.9190,15.5243 C17.0077,15.5152 16.8450,15.2708 16.8180,15.1958 C16.7955,15.1350 16.8187,15.0877 16.8330,15.0773 C16.9177,15.0060 16.9635,14.8208 16.8262,14.6550 C16.7805,14.5995 16.7085,14.5808 16.6312,14.5785 C16.6222,14.5748 16.6155,14.5688 16.6057,14.5665 C16.5592,14.5538 16.4910,14.5710 16.4265,14.6100 C16.3875,14.6333 16.3530,14.6610 16.3312,14.6963 C16.3297,14.6977 16.3297,14.6992 16.3282,14.7015 C16.3147,14.7158 16.2967,14.7248 16.2862,14.7413 C16.1842,14.9025 16.1565,14.9760 16.1565,15.1920 C16.1565,15.7980 16.9215,16.2547 17.9347,16.2547 C18.9630,16.2547 19.7992,15.7702 19.7992,15.1740 C19.7992,14.9880 19.7340,14.8365 19.6207,14.7390 C19.5750,14.6752 19.5225,14.6317 19.4670,14.6002 Z M19.4670,18.7252 C19.4175,18.6863 19.3515,18.6600 19.2750,18.6855 C19.1992,18.6938 19.1257,18.7207 19.0597,18.7860 C18.9690,18.8782 18.9532,18.9660 18.9555,19.0245 C18.9607,19.1092 19.0065,19.1752 19.0463,19.2075 C19.0530,19.2165 19.0620,19.2555 19.0342,19.3117 C18.9945,19.3913 18.8010,19.6500 17.9587,19.6500 L17.9190,19.6492 C17.0077,19.6402 16.8450,19.3950 16.8180,19.3208 C16.7955,19.2608 16.8187,19.2135 16.8330,19.2023 C16.9177,19.1317 16.9635,18.9465 16.8262,18.7800 C16.7805,18.7253 16.7085,18.7065 16.6312,18.7035 C16.6222,18.7005 16.6155,18.6945 16.6057,18.6923 C16.5592,18.6795 16.4910,18.6960 16.4265,18.7357 C16.3875,18.7590 16.3530,18.7867 16.3312,18.8220 C16.3297,18.8235 16.3297,18.8250 16.3282,18.8265 C16.3147,18.8415 16.2967,18.8505 16.2862,18.8670 C16.1842,19.0275 16.1565,19.1017 16.1565,19.3177 C16.1565,19.9237 16.9215,20.3798 17.9347,20.3798 C18.9630,20.3798 19.7992,19.8952 19.7992,19.2998 C19.7992,19.1130 19.7340,18.9623 19.6207,18.8648 C19.5750,18.8002 19.5225,18.7567 19.4670,18.7252 Z M19.4670,22.8502 C19.4175,22.8113 19.3515,22.7850 19.2750,22.8113 C19.1992,22.8188 19.1257,22.8457 19.0597,22.9117 C18.9690,23.0032 18.9532,23.0910 18.9555,23.1495 C18.9607,23.2342 19.0065,23.3002 19.0463,23.3325 C19.0530,23.3415 19.0620,23.3805 19.0342,23.4367 C18.9945,23.5163 18.8010,23.7742 17.9587,23.7742 L17.9190,23.7742 C17.0077,23.7652 16.8450,23.5200 16.8180,23.4458 C16.7955,23.3858 16.8187,23.3385 16.8330,23.3273 C16.9177,23.2567 16.9635,23.0715 16.8262,22.9057 C16.7805,22.8502 16.7085,22.8315 16.6312,22.8292 C16.6222,22.8255 16.6155,22.8195 16.6057,22.8173 C16.5592,22.8045 16.4910,22.8217 16.4265,22.8607 C16.3875,22.8840 16.3530,22.9117 16.3312,22.9470 C16.3297,22.9485 16.3297,22.9500 16.3282,22.9515 C16.3147,22.9665 16.2967,22.9755 16.2862,22.9920 C16.1842,23.1525 16.1565,23.2267 16.1565,23.4427 C16.1565,24.0487 16.9215,24.5055 17.9347,24.5055 C18.9630,24.5055 19.7992,24.0202 19.7992,23.4248 C19.7992,23.2380 19.7340,23.0873 19.6207,22.9890 C19.5750,22.9245 19.5225,22.8817 19.4670,22.8502 Z M19.4670,26.9753 C19.4175,26.9363 19.3515,26.9100 19.2750,26.9363 C19.1992,26.9438 19.1257,26.9707 19.0597,27.0367 C18.9690,27.1282 18.9532,27.2160 18.9555,27.2745 C18.9607,27.3592 19.0065,27.4252 19.0463,27.4575 C19.0530,27.4665 19.0620,27.5055 19.0342,27.5617 C18.9945,27.6413 18.8010,27.8992 17.9587,27.8992 L17.9190,27.8992 C17.0077,27.8902 16.8450,27.6450 16.8180,27.5708 C16.7955,27.5108 16.8187,27.4635 16.8330,27.4523 C16.9177,27.3817 16.9635,27.1965 16.8262,27.0307 C16.7805,26.9753 16.7085,26.9565 16.6312,26.9542 C16.6222,26.9505 16.6155,26.9445 16.6057,26.9423 C16.5592,26.9295 16.4910,26.9467 16.4265,26.9857 C16.3875,27.0090 16.3530,27.0367 16.3312,27.0720 C16.3297,27.0735 16.3297,27.0750 16.3282,27.0765 C16.3147,27.0915 16.2967,27.1005 16.2862,27.1170 C16.1842,27.2775 16.1565,27.3517 16.1565,27.5677 C16.1565,28.1737 16.9215,28.6305 17.9347,28.6305 C18.9630,28.6305 19.7992,28.1452 19.7992,27.5498 C19.7992,27.3630 19.7340,27.2123 19.6207,27.1140 C19.5750,27.0495 19.5225,27.0067 19.4670,26.9753 Z M19.4670,31.1003 C19.4175,31.0613 19.3515,31.0350 19.2750,31.0613 C19.1992,31.0688 19.1257,31.0957 19.0597,31.1617 C18.9690,31.2532 18.9532,31.3410 18.9555,31.3995 C18.9607,31.4842 19.0065,31.5502 19.0463,31.5825 C19.0530,31.5915 19.0620,31.6305 19.0342,31.6867 C18.9945,31.7663 18.8010,32.0242 17.9587,32.0242 L17.9190,32.0242 C17.0077,32.0152 16.8450,31.7700 16.8180,31.6957 C16.7955,31.6357 16.8187,31.5885 16.8330,31.5773 C16.9177,31.5067 16.9635,31.3215 16.8262,31.1557 C16.7805,31.1003 16.7085,31.0815 16.6312,31.0792 C16.6222,31.0755 16.6155,31.0695 16.6057,31.0673 C16.5592,31.0545 16.4910,31.0717 16.4265,31.1107 C16.3875,31.1340 16.3530,31.1617 16.3312,31.1970 C16.3297,31.1985 16.3297,31.2000 16.3282,31.2015 C16.3147,31.2165 16.2967,31.2255 16.2862,31.2420 C16.1842,31.4025 16.1565,31.4767 16.1565,31.6927 C16.1565,32.2987 16.9215,32.7555 17.9347,32.7555 C18.9630,32.7555 19.7992,32.2702 19.7992,31.6748 C19.7992,31.4880 19.7340,31.3373 19.6207,31.2390 C19.5750,31.1745 19.5225,31.1317 19.4670,31.1003 Z M19.4670,35.2253 C19.4175,35.1863 19.3515,35.1600 19.2750,35.1863 C19.1992,35.1938 19.1257,35.2207 19.0597,35.2867 C18.9690,35.3782 18.9532,35.4660 18.9555,35.5245 C18.9607,35.6092 19.0065,35.6753 19.0463,35.7075 C19.0530,35.7165 19.0620,35.7555 19.0342,35.8117 C18.9945,35.8913 18.8010,36.1492 17.9587,36.1492 L17.9190,36.1492 C17.0077,36.1402 16.8450,35.8950 16.8180,35.8207 C16.7955,35.7607 16.8187,35.7135 16.8330,35.7023 C16.9177,35.6317 16.9635,35.4465 16.8262,35.2807 C16.7805,35.2253 16.7085,35.2065 16.6312,35.2042 C16.6222,35.2005 16.6155,35.1945 16.6057,35.1922 C16.5592,35.1795 16.4910,35.1967 16.4265,35.2357 C16.3875,35.2590 16.3530,35.2867 16.3312,35.3220 C16.3297,35.3235 16.3297,35.3250 16.3282,35.3265 C16.3147,35.3415 16.2967,35.3505 16.2862,35.3670 C16.1842,35.5275 16.1565,35.6017 16.1565,35.8177 C16.1565,36.4237 16.9215,36.8805 17.9347,36.8805 C18.9630,36.8805 19.7992,36.3952 19.7992,35.7998 C19.7992,35.6130 19.7340,35.4623 19.6207,35.3640 C19.5750,35.2995 19.5225,35.2567 19.4670,35.2253 Z M19.4670,39.3503 C19.4175,39.3113 19.3515,39.2850 19.2750,39.3113 C19.1992,39.3188 19.1257,39.3457 19.0597,39.4117 C18.9690,39.5032 18.9532,39.5910 18.9555,39.6495 C18.9607,39.7342 19.0065,39.8003 19.0463,39.8325 C19.0530,39.8415 19.0620,39.8805 19.0342,39.9367 C18.9945,40.0163 18.8010,40.2742 17.9587,40.2742 L17.9190,40.2742 C17.0077,40.2652 16.8450,40.0200 16.8180,39.9457 C16.7955,39.8857 16.8187,39.8385 16.8330,39.8273 C16.9177,39.7567 16.9635,39.5715 16.8262,39.4057 C16.7805,39.3503 16.7085,39.3315 16.6312,39.3293 C16.6222,39.3255 16.6155,39.3195 16.6057,39.3172 C16.5592,39.3045 16.4910,39.3217 16.4265,39.3607 C16.3875,39.3840 16.3530,39.4117 16.3312,39.4470 C16.3297,39.4485 16.3297,39.4500 16.3282,39.4515 C16.3147,39.4665 16.2967,39.4755 16.2862,39.4920 C16.1842,39.6525 16.1565,39.7267 16.1565,39.9427 C16.1565,40.5487 16.9215,41.0055 17.9347,41.0055 C18.9630,41.0055 19.7992,40.5202 19.7992,39.9248 C19.7992,39.7380 19.7340,39.5872 19.6207,39.4890 C19.5750,39.4245 19.5225,39.3818 19.4670,39.3503 Z M19.4670,43.4753 C19.4175,43.4362 19.3515,43.4100 19.2750,43.4362 C19.1992,43.4437 19.1257,43.4707 19.0597,43.5368 C18.9690,43.6283 18.9532,43.7160 18.9555,43.7745 C18.9607,43.8592 19.0065,43.9252 19.0463,43.9575 C19.0530,43.9665 19.0620,44.0055 19.0342,44.0618 C18.9945,44.1413 18.8010,44.3993 17.9587,44.3993 L17.9190,44.3993 C17.0077,44.3903 16.8450,44.1450 16.8180,44.0708 C16.7955,44.0108 16.8187,43.9635 16.8330,43.9523 C16.9177,43.8818 16.9635,43.6965 16.8262,43.5308 C16.7805,43.4753 16.7085,43.4565 16.6312,43.4543 C16.6222,43.4505 16.6155,43.4445 16.6057,43.4423 C16.5592,43.4295 16.4910,43.4467 16.4265,43.4857 C16.3875,43.5090 16.3530,43.5368 16.3312,43.5720 C16.3297,43.5735 16.3297,43.5750 16.3282,43.5765 C16.3147,43.5915 16.2967,43.6005 16.2862,43.6170 C16.1842,43.7775 16.1565,43.8517 16.1565,44.0677 C16.1565,44.6737 16.9215,45.1305 17.9347,45.1305 C18.9630,45.1305 19.7992,44.6452 19.7992,44.0497 C19.7992,43.8630 19.7340,43.7122 19.6207,43.6140 C19.5750,43.5495 19.5225,43.5068 19.4670,43.4753 Z" style="fill-rule: evenodd; fill: #868682; fill-opacity: 0.6000; "/>
    <defs xmlns="http://www.w3.org/2000/svg">
      <radialGradient id="grad5544" cx="100.0000%" cy="100.0000%" r="100.0000%">
        <stop offset="0%" stop-color="#686868" stop-opacity="1.0000"/>
        <stop offset="100%" stop-color="#000000" stop-opacity="1.0000"/>
      </radialGradient>
    </defs>
    <path xmlns="http://www.w3.org/2000/svg" d="  M17.9362,7.5938 C16.9222,7.5938 16.1580,7.1370 16.1580,6.5310 C16.1580,6.3158 16.1857,6.2408 16.2878,6.0803 C16.3987,5.9055 16.7055,5.8448 16.8278,5.9940 C16.9650,6.1598 16.9192,6.3450 16.8345,6.4155 C16.8203,6.4275 16.7970,6.4740 16.8195,6.5340 C16.8465,6.6098 17.0093,6.8543 17.9205,6.8625 L17.9603,6.8625 C18.8025,6.8625 18.9960,6.6045 19.0358,6.5258 C19.0635,6.4695 19.0538,6.4290 19.0478,6.4208 C19.0080,6.3885 18.9623,6.3225 18.9570,6.2378 C18.9548,6.1800 18.9705,6.0923 19.0613,6.0000 C19.2353,5.8260 19.4655,5.8583 19.6238,6.0780 C19.7370,6.1755 19.8023,6.3270 19.8023,6.5130 C19.8007,7.1085 18.9645,7.5938 17.9362,7.5938 Z M16.6200,6.1223 C16.5712,6.1223 16.5067,6.1568 16.4812,6.1965 C16.3995,6.3255 16.3845,6.3623 16.3845,6.5310 C16.3845,7.0035 17.0655,7.3725 17.9355,7.3725 C18.8235,7.3725 19.5735,6.9788 19.5735,6.5130 C19.5735,6.3900 19.5337,6.2970 19.4565,6.2280 L19.4362,6.2040 C19.3920,6.1433 19.3440,6.1073 19.3072,6.1073 C19.2765,6.1073 19.2457,6.1320 19.2240,6.1545 C19.1655,6.2130 19.1842,6.2445 19.1962,6.2558 C19.2795,6.3240 19.3050,6.4568 19.2570,6.5835 C19.2008,6.7343 18.9600,7.0853 17.9603,7.0853 L17.9190,7.0853 C16.9755,7.0755 16.6845,6.8220 16.6050,6.6105 C16.5480,6.4560 16.6065,6.3143 16.6867,6.2490 C16.6852,6.2490 16.6852,6.2490 16.6852,6.2490 C16.6837,6.2490 16.7062,6.2018 16.6500,6.1335 C16.6485,6.1298 16.6425,6.1223 16.6200,6.1223 Z" style="fill-rule: evenodd; fill: url(#grad5544); "/>
    <defs xmlns="http://www.w3.org/2000/svg">
      <radialGradient id="grad5545" cx="50.0000%" cy="50.0000%" r="100.0000%">
        <stop offset="0%" stop-color="#fefefe" stop-opacity="1.0000"/>
        <stop offset="100%" stop-color="#848b91" stop-opacity="1.0000"/>
      </radialGradient>
    </defs>
    <path xmlns="http://www.w3.org/2000/svg" d="  M19.5637,6.0428 C19.5585,6.0375 19.3822,5.7450 19.1640,5.9700 C19.0312,6.1073 19.1100,6.2190 19.1422,6.2460 C19.2810,6.3623 19.1865,6.9308 17.9085,6.9180 C16.5517,6.9038 16.5727,6.3623 16.7182,6.2385 C16.7527,6.2093 16.8015,6.0870 16.6972,5.9550 C16.6095,5.8455 16.4047,5.9183 16.3327,6.0345 C16.2383,6.1875 16.2165,6.2460 16.2165,6.4493 C16.2165,7.0170 16.9582,7.4565 17.9265,7.4565 C18.8947,7.4565 19.7235,6.9975 19.7235,6.4305 C19.7227,6.2243 19.6365,6.1088 19.5637,6.0428 Z" style="fill-rule: evenodd; fill: url(#grad5545); "/>
    <path xmlns="http://www.w3.org/2000/svg" d="  M19.5637,6.0428 C19.5585,6.0375 19.4160,5.8470 19.2885,5.9063 C19.2375,5.9295 19.4362,5.9160 19.5742,6.2805 C19.6987,6.6112 19.1962,7.2983 17.9190,7.2855 C16.5615,7.2720 16.1842,6.5467 16.3620,6.1822 C16.5045,5.8883 16.6552,5.9377 16.6477,5.9258 C16.6080,5.8568 16.4055,5.9183 16.3327,6.0353 C16.2382,6.1883 16.2165,6.2468 16.2165,6.4500 C16.2165,7.0178 16.9582,7.4573 17.9265,7.4573 C18.8947,7.4573 19.7235,6.9983 19.7235,6.4313 C19.7227,6.2243 19.6365,6.1088 19.5637,6.0428 Z" style="fill-rule: evenodd; fill: #000000; fill-opacity: 0.0902; "/>
    <defs xmlns="http://www.w3.org/2000/svg">
      <radialGradient id="grad5546" cx="100.0000%" cy="100.0000%" r="100.0000%">
        <stop offset="0%" stop-color="#686868" stop-opacity="1.0000"/>
        <stop offset="100%" stop-color="#000000" stop-opacity="1.0000"/>
      </radialGradient>
    </defs>
    <path xmlns="http://www.w3.org/2000/svg" d="  M17.9362,11.7188 C16.9222,11.7188 16.1580,11.2620 16.1580,10.6560 C16.1580,10.4408 16.1857,10.3658 16.2878,10.2053 C16.3987,10.0305 16.7055,9.9698 16.8278,10.1190 C16.9650,10.2848 16.9192,10.4700 16.8345,10.5405 C16.8203,10.5525 16.7970,10.5990 16.8195,10.6590 C16.8465,10.7348 17.0093,10.9793 17.9205,10.9875 L17.9603,10.9875 C18.8025,10.9875 18.9960,10.7295 19.0358,10.6508 C19.0635,10.5945 19.0538,10.5540 19.0478,10.5458 C19.0080,10.5135 18.9623,10.4475 18.9570,10.3628 C18.9548,10.3050 18.9705,10.2173 19.0613,10.1250 C19.2353,9.9510 19.4655,9.9833 19.6238,10.2030 C19.7370,10.3005 19.8023,10.4520 19.8023,10.6380 C19.8007,11.2335 18.9645,11.7188 17.9362,11.7188 Z M16.6200,10.2473 C16.5712,10.2473 16.5067,10.2818 16.4812,10.3215 C16.3995,10.4505 16.3845,10.4873 16.3845,10.6560 C16.3845,11.1285 17.0655,11.4975 17.9355,11.4975 C18.8235,11.4975 19.5735,11.1038 19.5735,10.6380 C19.5735,10.5150 19.5337,10.4220 19.4565,10.3530 L19.4362,10.3290 C19.3920,10.2683 19.3440,10.2323 19.3072,10.2323 C19.2765,10.2323 19.2457,10.2570 19.2240,10.2795 C19.1655,10.3380 19.1842,10.3695 19.1962,10.3808 C19.2795,10.4490 19.3050,10.5818 19.2570,10.7085 C19.2008,10.8593 18.9600,11.2103 17.9603,11.2103 L17.9190,11.2103 C16.9755,11.2005 16.6845,10.9470 16.6050,10.7355 C16.5480,10.5810 16.6065,10.4393 16.6867,10.3740 C16.6852,10.3740 16.6852,10.3740 16.6852,10.3740 C16.6837,10.3740 16.7062,10.3268 16.6500,10.2585 C16.6485,10.2548 16.6425,10.2473 16.6200,10.2473 Z" style="fill-rule: evenodd; fill: url(#grad5546); "/>
    <defs xmlns="http://www.w3.org/2000/svg">
      <radialGradient id="grad5547" cx="50.0000%" cy="50.0000%" r="100.0000%">
        <stop offset="0%" stop-color="#fefefe" stop-opacity="1.0000"/>
        <stop offset="100%" stop-color="#848b91" stop-opacity="1.0000"/>
      </radialGradient>
    </defs>
    <path xmlns="http://www.w3.org/2000/svg" d="  M19.5637,10.1678 C19.5585,10.1625 19.3822,9.8700 19.1640,10.0950 C19.0312,10.2323 19.1100,10.3440 19.1422,10.3710 C19.2810,10.4873 19.1865,11.0558 17.9085,11.0430 C16.5517,11.0288 16.5727,10.4873 16.7182,10.3635 C16.7527,10.3343 16.8015,10.2120 16.6972,10.0800 C16.6095,9.9705 16.4047,10.0433 16.3327,10.1595 C16.2383,10.3125 16.2165,10.3710 16.2165,10.5743 C16.2165,11.1420 16.9582,11.5815 17.9265,11.5815 C18.8947,11.5815 19.7235,11.1225 19.7235,10.5555 C19.7227,10.3493 19.6365,10.2338 19.5637,10.1678 Z" style="fill-rule: evenodd; fill: url(#grad5547); "/>
    <path xmlns="http://www.w3.org/2000/svg" d="  M19.5637,10.1677 C19.5585,10.1625 19.4160,9.9720 19.2885,10.0312 C19.2375,10.0545 19.4362,10.0410 19.5742,10.4055 C19.6987,10.7362 19.1962,11.4232 17.9190,11.4105 C16.5615,11.3970 16.1842,10.6717 16.3620,10.3072 C16.5045,10.0132 16.6552,10.0627 16.6477,10.0507 C16.6080,9.9817 16.4055,10.0432 16.3327,10.1602 C16.2382,10.3132 16.2165,10.3717 16.2165,10.5750 C16.2165,11.1427 16.9582,11.5822 17.9265,11.5822 C18.8947,11.5822 19.7235,11.1232 19.7235,10.5562 C19.7227,10.3492 19.6365,10.2337 19.5637,10.1677 Z" style="fill-rule: evenodd; fill: #000000; fill-opacity: 0.0902; "/>
    <defs xmlns="http://www.w3.org/2000/svg">
      <radialGradient id="grad5548" cx="100.0000%" cy="100.0000%" r="100.0000%">
        <stop offset="0%" stop-color="#686868" stop-opacity="1.0000"/>
        <stop offset="100%" stop-color="#000000" stop-opacity="1.0000"/>
      </radialGradient>
    </defs>
    <path xmlns="http://www.w3.org/2000/svg" d="  M17.9362,15.8438 C16.9222,15.8438 16.1580,15.3870 16.1580,14.7810 C16.1580,14.5658 16.1857,14.4908 16.2878,14.3303 C16.3987,14.1555 16.7055,14.0948 16.8278,14.2440 C16.9650,14.4098 16.9192,14.5950 16.8345,14.6655 C16.8203,14.6775 16.7970,14.7240 16.8195,14.7840 C16.8465,14.8598 17.0093,15.1043 17.9205,15.1125 L17.9603,15.1125 C18.8025,15.1125 18.9960,14.8545 19.0358,14.7758 C19.0635,14.7195 19.0538,14.6790 19.0478,14.6708 C19.0080,14.6385 18.9623,14.5725 18.9570,14.4878 C18.9548,14.4300 18.9705,14.3423 19.0613,14.2500 C19.2353,14.0760 19.4655,14.1083 19.6238,14.3280 C19.7370,14.4255 19.8023,14.5770 19.8023,14.7630 C19.8007,15.3585 18.9645,15.8438 17.9362,15.8438 Z M16.6200,14.3723 C16.5712,14.3723 16.5067,14.4068 16.4812,14.4465 C16.3995,14.5755 16.3845,14.6123 16.3845,14.7810 C16.3845,15.2535 17.0655,15.6225 17.9355,15.6225 C18.8235,15.6225 19.5735,15.2288 19.5735,14.7630 C19.5735,14.6400 19.5337,14.5470 19.4565,14.4780 L19.4362,14.4540 C19.3920,14.3933 19.3440,14.3573 19.3072,14.3573 C19.2765,14.3573 19.2457,14.3820 19.2240,14.4045 C19.1655,14.4630 19.1842,14.4945 19.1962,14.5058 C19.2795,14.5740 19.3050,14.7068 19.2570,14.8335 C19.2008,14.9843 18.9600,15.3353 17.9603,15.3353 L17.9190,15.3353 C16.9755,15.3255 16.6845,15.0720 16.6050,14.8605 C16.5480,14.7060 16.6065,14.5643 16.6867,14.4990 C16.6852,14.4990 16.6852,14.4990 16.6852,14.4990 C16.6837,14.4990 16.7062,14.4518 16.6500,14.3835 C16.6485,14.3798 16.6425,14.3723 16.6200,14.3723 Z" style="fill-rule: evenodd; fill: url(#grad5548); "/>
    <defs xmlns="http://www.w3.org/2000/svg">
      <radialGradient id="grad5549" cx="50.0000%" cy="50.0000%" r="100.0000%">
        <stop offset="0%" stop-color="#fefefe" stop-opacity="1.0000"/>
        <stop offset="100%" stop-color="#848b91" stop-opacity="1.0000"/>
      </radialGradient>
    </defs>
    <path xmlns="http://www.w3.org/2000/svg" d="  M19.5637,14.2927 C19.5585,14.2875 19.3822,13.9950 19.1640,14.2200 C19.0312,14.3573 19.1100,14.4690 19.1422,14.4960 C19.2810,14.6122 19.1865,15.1807 17.9085,15.1680 C16.5517,15.1537 16.5727,14.6123 16.7182,14.4885 C16.7527,14.4593 16.8015,14.3370 16.6972,14.2050 C16.6095,14.0955 16.4047,14.1683 16.3327,14.2845 C16.2383,14.4375 16.2165,14.4960 16.2165,14.6993 C16.2165,15.2670 16.9582,15.7065 17.9265,15.7065 C18.8947,15.7065 19.7235,15.2475 19.7235,14.6805 C19.7227,14.4742 19.6365,14.3587 19.5637,14.2927 Z" style="fill-rule: evenodd; fill: url(#grad5549); "/>
    <path xmlns="http://www.w3.org/2000/svg" d="  M19.5637,14.2927 C19.5585,14.2875 19.4160,14.0970 19.2885,14.1562 C19.2375,14.1795 19.4362,14.1660 19.5742,14.5305 C19.6987,14.8612 19.1962,15.5483 17.9190,15.5355 C16.5615,15.5220 16.1842,14.7967 16.3620,14.4322 C16.5045,14.1382 16.6552,14.1877 16.6477,14.1757 C16.6080,14.1067 16.4055,14.1682 16.3327,14.2852 C16.2382,14.4383 16.2165,14.4967 16.2165,14.7000 C16.2165,15.2677 16.9582,15.7072 17.9265,15.7072 C18.8947,15.7072 19.7235,15.2482 19.7235,14.6813 C19.7227,14.4742 19.6365,14.3587 19.5637,14.2927 Z" style="fill-rule: evenodd; fill: #000000; fill-opacity: 0.0902; "/>
    <defs xmlns="http://www.w3.org/2000/svg">
      <radialGradient id="grad5550" cx="100.0000%" cy="100.0000%" r="100.0000%">
        <stop offset="0%" stop-color="#686868" stop-opacity="1.0000"/>
        <stop offset="100%" stop-color="#000000" stop-opacity="1.0000"/>
      </radialGradient>
    </defs>
    <path xmlns="http://www.w3.org/2000/svg" d="  M17.9362,19.9688 C16.9222,19.9688 16.1580,19.5120 16.1580,18.9053 C16.1580,18.6900 16.1857,18.6158 16.2878,18.4553 C16.3987,18.2798 16.7055,18.2198 16.8278,18.3690 C16.9650,18.5348 16.9192,18.7200 16.8345,18.7905 C16.8203,18.8025 16.7970,18.8483 16.8195,18.9090 C16.8465,18.9848 17.0093,19.2293 17.9205,19.2375 L17.9603,19.2375 C18.8025,19.2375 18.9960,18.9795 19.0358,18.9008 C19.0635,18.8438 19.0538,18.8040 19.0478,18.7958 C19.0080,18.7635 18.9623,18.6968 18.9570,18.6120 C18.9548,18.5550 18.9705,18.4673 19.0613,18.3750 C19.2353,18.2010 19.4655,18.2333 19.6238,18.4530 C19.7370,18.5498 19.8023,18.7020 19.8023,18.8880 C19.8007,19.4835 18.9645,19.9688 17.9362,19.9688 Z M16.6200,18.4965 C16.5712,18.4965 16.5067,18.5318 16.4812,18.5715 C16.3995,18.7005 16.3845,18.7373 16.3845,18.9053 C16.3845,19.3785 17.0655,19.7475 17.9355,19.7475 C18.8235,19.7475 19.5735,19.3538 19.5735,18.8880 C19.5735,18.7650 19.5337,18.6713 19.4565,18.6023 L19.4362,18.5790 C19.3920,18.5183 19.3440,18.4823 19.3072,18.4823 C19.2765,18.4823 19.2457,18.5070 19.2240,18.5295 C19.1655,18.5880 19.1842,18.6195 19.1962,18.6308 C19.2795,18.6990 19.3050,18.8318 19.2570,18.9578 C19.2008,19.1085 18.9600,19.4603 17.9603,19.4603 L17.9190,19.4603 C16.9755,19.4505 16.6845,19.1963 16.6050,18.9855 C16.5480,18.8303 16.6065,18.6893 16.6867,18.6240 C16.6852,18.6240 16.6852,18.6240 16.6852,18.6240 C16.6837,18.6240 16.7062,18.5768 16.6500,18.5085 C16.6485,18.5040 16.6425,18.4965 16.6200,18.4965 Z" style="fill-rule: evenodd; fill: url(#grad5550); "/>
    <defs xmlns="http://www.w3.org/2000/svg">
      <radialGradient id="grad5551" cx="50.0000%" cy="50.0000%" r="100.0000%">
        <stop offset="0%" stop-color="#fefefe" stop-opacity="1.0000"/>
        <stop offset="100%" stop-color="#848b91" stop-opacity="1.0000"/>
      </radialGradient>
    </defs>
    <path xmlns="http://www.w3.org/2000/svg" d="  M19.5637,18.4178 C19.5585,18.4125 19.3822,18.1200 19.1640,18.3450 C19.0312,18.4815 19.1100,18.5940 19.1422,18.6210 C19.2810,18.7373 19.1865,19.3058 17.9085,19.2930 C16.5517,19.2795 16.5727,18.7380 16.7182,18.6143 C16.7527,18.5850 16.8015,18.4628 16.6972,18.3308 C16.6095,18.2213 16.4047,18.2940 16.3327,18.4095 C16.2383,18.5633 16.2165,18.6218 16.2165,18.8250 C16.2165,19.3928 16.9582,19.8323 17.9265,19.8323 C18.8947,19.8323 19.7235,19.3733 19.7235,18.8063 C19.7227,18.5985 19.6365,18.4830 19.5637,18.4178 Z" style="fill-rule: evenodd; fill: url(#grad5551); "/>
    <path xmlns="http://www.w3.org/2000/svg" d="  M19.5637,18.4177 C19.5585,18.4125 19.4160,18.2220 19.2885,18.2805 C19.2375,18.3037 19.4362,18.2910 19.5742,18.6555 C19.6987,18.9862 19.1962,19.6733 17.9190,19.6605 C16.5615,19.6470 16.1842,18.9217 16.3620,18.5572 C16.5045,18.2632 16.6552,18.3127 16.6477,18.3007 C16.6080,18.2318 16.4055,18.2933 16.3327,18.4095 C16.2382,18.5632 16.2165,18.6217 16.2165,18.8250 C16.2165,19.3927 16.9582,19.8322 17.9265,19.8322 C18.8947,19.8322 19.7235,19.3732 19.7235,18.8062 C19.7227,18.5985 19.6365,18.4830 19.5637,18.4177 Z" style="fill-rule: evenodd; fill: #000000; fill-opacity: 0.0902; "/>
    <defs xmlns="http://www.w3.org/2000/svg">
      <radialGradient id="grad5552" cx="100.0000%" cy="100.0000%" r="100.0000%">
        <stop offset="0%" stop-color="#686868" stop-opacity="1.0000"/>
        <stop offset="100%" stop-color="#000000" stop-opacity="1.0000"/>
      </radialGradient>
    </defs>
    <path xmlns="http://www.w3.org/2000/svg" d="  M17.9362,24.0938 C16.9222,24.0938 16.1580,23.6370 16.1580,23.0303 C16.1580,22.8158 16.1857,22.7415 16.2878,22.5803 C16.3987,22.4048 16.7055,22.3448 16.8278,22.4940 C16.9650,22.6598 16.9192,22.8443 16.8345,22.9163 C16.8203,22.9275 16.7970,22.9733 16.8195,23.0340 C16.8465,23.1098 17.0093,23.3543 17.9205,23.3625 L17.9603,23.3625 C18.8025,23.3625 18.9960,23.1045 19.0358,23.0250 C19.0635,22.9688 19.0538,22.9290 19.0478,22.9208 C19.0080,22.8885 18.9623,22.8225 18.9570,22.7370 C18.9548,22.6800 18.9705,22.5923 19.0613,22.5000 C19.2353,22.3260 19.4655,22.3583 19.6238,22.5780 C19.7370,22.6748 19.8023,22.8270 19.8023,23.0130 C19.8007,23.6085 18.9645,24.0938 17.9362,24.0938 Z M16.6200,22.6215 C16.5712,22.6215 16.5067,22.6568 16.4812,22.6965 C16.3995,22.8255 16.3845,22.8623 16.3845,23.0303 C16.3845,23.5035 17.0655,23.8725 17.9355,23.8725 C18.8235,23.8725 19.5735,23.4788 19.5735,23.0130 C19.5735,22.8900 19.5337,22.7963 19.4565,22.7273 L19.4362,22.7040 C19.3920,22.6433 19.3440,22.6073 19.3072,22.6073 C19.2765,22.6073 19.2457,22.6320 19.2240,22.6545 C19.1655,22.7130 19.1842,22.7445 19.1962,22.7558 C19.2795,22.8240 19.3050,22.9568 19.2570,23.0828 C19.2008,23.2343 18.9600,23.5853 17.9603,23.5853 L17.9190,23.5853 C16.9755,23.5755 16.6845,23.3213 16.6050,23.1105 C16.5480,22.9560 16.6065,22.8143 16.6867,22.7490 C16.6852,22.7490 16.6852,22.7490 16.6852,22.7490 C16.6837,22.7490 16.7062,22.7018 16.6500,22.6335 C16.6485,22.6290 16.6425,22.6215 16.6200,22.6215 Z" style="fill-rule: evenodd; fill: url(#grad5552); "/>
    <defs xmlns="http://www.w3.org/2000/svg">
      <radialGradient id="grad5553" cx="50.0000%" cy="50.0000%" r="100.0000%">
        <stop offset="0%" stop-color="#fefefe" stop-opacity="1.0000"/>
        <stop offset="100%" stop-color="#848b91" stop-opacity="1.0000"/>
      </radialGradient>
    </defs>
    <path xmlns="http://www.w3.org/2000/svg" d="  M19.5637,22.5428 C19.5585,22.5375 19.3822,22.2450 19.1640,22.4700 C19.0312,22.6065 19.1100,22.7190 19.1422,22.7460 C19.2810,22.8623 19.1865,23.4308 17.9085,23.4180 C16.5517,23.4045 16.5727,22.8630 16.7182,22.7393 C16.7527,22.7100 16.8015,22.5878 16.6972,22.4558 C16.6095,22.3463 16.4047,22.4190 16.3327,22.5345 C16.2383,22.6883 16.2165,22.7468 16.2165,22.9508 C16.2165,23.5178 16.9582,23.9573 17.9265,23.9573 C18.8947,23.9573 19.7235,23.4990 19.7235,22.9320 C19.7227,22.7235 19.6365,22.6080 19.5637,22.5428 Z" style="fill-rule: evenodd; fill: url(#grad5553); "/>
    <path xmlns="http://www.w3.org/2000/svg" d="  M19.5637,22.5427 C19.5585,22.5375 19.4160,22.3470 19.2885,22.4055 C19.2375,22.4287 19.4362,22.4160 19.5742,22.7805 C19.6987,23.1112 19.1962,23.7982 17.9190,23.7855 C16.5615,23.7720 16.1842,23.0460 16.3620,22.6822 C16.5045,22.3882 16.6552,22.4377 16.6477,22.4257 C16.6080,22.3567 16.4055,22.4182 16.3327,22.5345 C16.2382,22.6882 16.2165,22.7467 16.2165,22.9507 C16.2165,23.5177 16.9582,23.9572 17.9265,23.9572 C18.8947,23.9572 19.7235,23.4990 19.7235,22.9320 C19.7227,22.7235 19.6365,22.6080 19.5637,22.5427 Z" style="fill-rule: evenodd; fill: #000000; fill-opacity: 0.0902; "/>
    <defs xmlns="http://www.w3.org/2000/svg">
      <radialGradient id="grad5554" cx="100.0000%" cy="100.0000%" r="100.0000%">
        <stop offset="0%" stop-color="#686868" stop-opacity="1.0000"/>
        <stop offset="100%" stop-color="#000000" stop-opacity="1.0000"/>
      </radialGradient>
    </defs>
    <path xmlns="http://www.w3.org/2000/svg" d="  M17.9362,28.2188 C16.9222,28.2188 16.1580,27.7620 16.1580,27.1553 C16.1580,26.9408 16.1857,26.8665 16.2878,26.7053 C16.3987,26.5298 16.7055,26.4698 16.8278,26.6190 C16.9650,26.7848 16.9192,26.9693 16.8345,27.0413 C16.8203,27.0525 16.7970,27.0983 16.8195,27.1590 C16.8465,27.2347 17.0093,27.4793 17.9205,27.4875 L17.9603,27.4875 C18.8025,27.4875 18.9960,27.2295 19.0358,27.1500 C19.0635,27.0938 19.0538,27.0540 19.0478,27.0457 C19.0080,27.0135 18.9623,26.9475 18.9570,26.8620 C18.9548,26.8042 18.9705,26.7165 19.0613,26.6250 C19.2353,26.4503 19.4655,26.4832 19.6238,26.7030 C19.7370,26.7998 19.8023,26.9520 19.8023,27.1380 C19.8007,27.7335 18.9645,28.2188 17.9362,28.2188 Z M16.6200,26.7473 C16.5712,26.7473 16.5067,26.7818 16.4812,26.8215 C16.3995,26.9505 16.3845,26.9873 16.3845,27.1553 C16.3845,27.6285 17.0655,27.9975 17.9355,27.9975 C18.8235,27.9975 19.5735,27.6038 19.5735,27.1380 C19.5735,27.0150 19.5337,26.9213 19.4565,26.8523 L19.4362,26.8290 C19.3920,26.7675 19.3440,26.7315 19.3072,26.7315 C19.2765,26.7315 19.2457,26.7570 19.2240,26.7788 C19.1655,26.8373 19.1842,26.8688 19.1962,26.8800 C19.2795,26.9483 19.3050,27.0810 19.2570,27.2070 C19.2008,27.3585 18.9600,27.7095 17.9603,27.7095 L17.9190,27.7095 C16.9755,27.6998 16.6845,27.4455 16.6050,27.2348 C16.5480,27.0803 16.6065,26.9385 16.6867,26.8733 C16.6852,26.8733 16.6852,26.8733 16.6852,26.8733 C16.6837,26.8733 16.7062,26.8260 16.6500,26.7578 C16.6485,26.7548 16.6425,26.7473 16.6200,26.7473 Z" style="fill-rule: evenodd; fill: url(#grad5554); "/>
    <defs xmlns="http://www.w3.org/2000/svg">
      <radialGradient id="grad5555" cx="50.0000%" cy="50.0000%" r="100.0000%">
        <stop offset="0%" stop-color="#fefefe" stop-opacity="1.0000"/>
        <stop offset="100%" stop-color="#848b91" stop-opacity="1.0000"/>
      </radialGradient>
    </defs>
    <path xmlns="http://www.w3.org/2000/svg" d="  M19.5637,26.6677 C19.5585,26.6625 19.3822,26.3692 19.1640,26.5942 C19.0312,26.7315 19.1100,26.8440 19.1422,26.8710 C19.2810,26.9872 19.1865,27.5557 17.9085,27.5430 C16.5517,27.5295 16.5727,26.9880 16.7182,26.8643 C16.7527,26.8350 16.8015,26.7127 16.6972,26.5807 C16.6095,26.4712 16.4047,26.5440 16.3327,26.6595 C16.2383,26.8132 16.2165,26.8718 16.2165,27.0758 C16.2165,27.6428 16.9582,28.0823 17.9265,28.0823 C18.8947,28.0823 19.7235,27.6240 19.7235,27.0570 C19.7227,26.8485 19.6365,26.7330 19.5637,26.6677 Z" style="fill-rule: evenodd; fill: url(#grad5555); "/>
    <path xmlns="http://www.w3.org/2000/svg" d="  M19.5637,26.6677 C19.5585,26.6625 19.4160,26.4720 19.2885,26.5312 C19.2375,26.5537 19.4362,26.5410 19.5742,26.9055 C19.6987,27.2362 19.1962,27.9232 17.9190,27.9105 C16.5615,27.8970 16.1842,27.1710 16.3620,26.8072 C16.5045,26.5132 16.6552,26.5627 16.6477,26.5507 C16.6080,26.4817 16.4055,26.5432 16.3327,26.6595 C16.2382,26.8132 16.2165,26.8717 16.2165,27.0757 C16.2165,27.6427 16.9582,28.0822 17.9265,28.0822 C18.8947,28.0822 19.7235,27.6240 19.7235,27.0570 C19.7227,26.8485 19.6365,26.7330 19.5637,26.6677 Z" style="fill-rule: evenodd; fill: #000000; fill-opacity: 0.0902; "/>
    <defs xmlns="http://www.w3.org/2000/svg">
      <radialGradient id="grad5556" cx="100.0000%" cy="100.0000%" r="100.0000%">
        <stop offset="0%" stop-color="#686868" stop-opacity="1.0000"/>
        <stop offset="100%" stop-color="#000000" stop-opacity="1.0000"/>
      </radialGradient>
    </defs>
    <path xmlns="http://www.w3.org/2000/svg" d="  M17.9362,32.3438 C16.9222,32.3438 16.1580,31.8870 16.1580,31.2803 C16.1580,31.0658 16.1857,30.9915 16.2878,30.8303 C16.3987,30.6548 16.7055,30.5948 16.8278,30.7440 C16.9650,30.9098 16.9192,31.0942 16.8345,31.1663 C16.8203,31.1775 16.7970,31.2233 16.8195,31.2840 C16.8465,31.3597 17.0093,31.6043 17.9205,31.6125 L17.9603,31.6125 C18.8025,31.6125 18.9960,31.3545 19.0358,31.2750 C19.0635,31.2188 19.0538,31.1790 19.0478,31.1707 C19.0080,31.1385 18.9623,31.0725 18.9570,30.9870 C18.9548,30.9292 18.9705,30.8415 19.0613,30.7500 C19.2353,30.5753 19.4655,30.6082 19.6238,30.8280 C19.7370,30.9247 19.8023,31.0770 19.8023,31.2630 C19.8007,31.8585 18.9645,32.3438 17.9362,32.3438 Z M16.6200,30.8723 C16.5712,30.8723 16.5067,30.9068 16.4812,30.9465 C16.3995,31.0755 16.3845,31.1123 16.3845,31.2803 C16.3845,31.7535 17.0655,32.1225 17.9355,32.1225 C18.8235,32.1225 19.5735,31.7288 19.5735,31.2630 C19.5735,31.1400 19.5337,31.0463 19.4565,30.9773 L19.4362,30.9540 C19.3920,30.8925 19.3440,30.8565 19.3072,30.8565 C19.2765,30.8565 19.2457,30.8820 19.2240,30.9038 C19.1655,30.9623 19.1842,30.9938 19.1962,31.0050 C19.2795,31.0733 19.3050,31.2060 19.2570,31.3320 C19.2008,31.4835 18.9600,31.8345 17.9603,31.8345 L17.9190,31.8345 C16.9755,31.8248 16.6845,31.5705 16.6050,31.3598 C16.5480,31.2053 16.6065,31.0635 16.6867,30.9983 C16.6852,30.9983 16.6852,30.9983 16.6852,30.9983 C16.6837,30.9983 16.7062,30.9510 16.6500,30.8828 C16.6485,30.8798 16.6425,30.8723 16.6200,30.8723 Z" style="fill-rule: evenodd; fill: url(#grad5556); "/>
    <defs xmlns="http://www.w3.org/2000/svg">
      <radialGradient id="grad5557" cx="50.0000%" cy="50.0000%" r="100.0000%">
        <stop offset="0%" stop-color="#fefefe" stop-opacity="1.0000"/>
        <stop offset="100%" stop-color="#848b91" stop-opacity="1.0000"/>
      </radialGradient>
    </defs>
    <path xmlns="http://www.w3.org/2000/svg" d="  M19.5637,30.7927 C19.5585,30.7875 19.3822,30.4942 19.1640,30.7192 C19.0312,30.8565 19.1100,30.9690 19.1422,30.9960 C19.2810,31.1122 19.1865,31.6807 17.9085,31.6680 C16.5517,31.6545 16.5727,31.1130 16.7182,30.9892 C16.7527,30.9600 16.8015,30.8377 16.6972,30.7058 C16.6095,30.5962 16.4047,30.6690 16.3327,30.7845 C16.2383,30.9382 16.2165,30.9967 16.2165,31.2008 C16.2165,31.7677 16.9582,32.2073 17.9265,32.2073 C18.8947,32.2073 19.7235,31.7490 19.7235,31.1820 C19.7227,30.9735 19.6365,30.8580 19.5637,30.7927 Z" style="fill-rule: evenodd; fill: url(#grad5557); "/>
    <path xmlns="http://www.w3.org/2000/svg" d="  M19.5637,30.7927 C19.5585,30.7875 19.4160,30.5970 19.2885,30.6562 C19.2375,30.6787 19.4362,30.6660 19.5742,31.0305 C19.6987,31.3612 19.1962,32.0482 17.9190,32.0355 C16.5615,32.0220 16.1842,31.2960 16.3620,30.9322 C16.5045,30.6382 16.6552,30.6877 16.6477,30.6757 C16.6080,30.6067 16.4055,30.6682 16.3327,30.7845 C16.2382,30.9382 16.2165,30.9967 16.2165,31.2007 C16.2165,31.7677 16.9582,32.2072 17.9265,32.2072 C18.8947,32.2072 19.7235,31.7490 19.7235,31.1820 C19.7227,30.9735 19.6365,30.8580 19.5637,30.7927 Z" style="fill-rule: evenodd; fill: #000000; fill-opacity: 0.0902; "/>
    <defs xmlns="http://www.w3.org/2000/svg">
      <radialGradient id="grad5558" cx="100.0000%" cy="100.0000%" r="100.0000%">
        <stop offset="0%" stop-color="#686868" stop-opacity="1.0000"/>
        <stop offset="100%" stop-color="#000000" stop-opacity="1.0000"/>
      </radialGradient>
    </defs>
    <path xmlns="http://www.w3.org/2000/svg" d="  M17.9362,36.4688 C16.9222,36.4688 16.1580,36.0120 16.1580,35.4053 C16.1580,35.1908 16.1857,35.1165 16.2878,34.9553 C16.3987,34.7798 16.7055,34.7197 16.8278,34.8690 C16.9650,35.0348 16.9192,35.2193 16.8345,35.2913 C16.8203,35.3025 16.7970,35.3483 16.8195,35.4090 C16.8465,35.4848 17.0093,35.7292 17.9205,35.7375 L17.9603,35.7375 C18.8025,35.7375 18.9960,35.4795 19.0358,35.4000 C19.0635,35.3437 19.0538,35.3040 19.0478,35.2958 C19.0080,35.2635 18.9623,35.1975 18.9570,35.1120 C18.9548,35.0542 18.9705,34.9665 19.0613,34.8750 C19.2353,34.7002 19.4655,34.7332 19.6238,34.9530 C19.7370,35.0498 19.8023,35.2020 19.8023,35.3880 C19.8007,35.9835 18.9645,36.4688 17.9362,36.4688 Z M16.6200,34.9973 C16.5712,34.9973 16.5067,35.0318 16.4812,35.0715 C16.3995,35.2005 16.3845,35.2373 16.3845,35.4053 C16.3845,35.8785 17.0655,36.2475 17.9355,36.2475 C18.8235,36.2475 19.5735,35.8538 19.5735,35.3880 C19.5735,35.2650 19.5337,35.1713 19.4565,35.1023 L19.4362,35.0790 C19.3920,35.0175 19.3440,34.9815 19.3072,34.9815 C19.2765,34.9815 19.2457,35.0070 19.2240,35.0288 C19.1655,35.0873 19.1842,35.1188 19.1962,35.1300 C19.2795,35.1983 19.3050,35.3310 19.2570,35.4570 C19.2008,35.6085 18.9600,35.9595 17.9603,35.9595 L17.9190,35.9595 C16.9755,35.9498 16.6845,35.6955 16.6050,35.4848 C16.5480,35.3303 16.6065,35.1885 16.6867,35.1233 C16.6852,35.1233 16.6852,35.1233 16.6852,35.1233 C16.6837,35.1233 16.7062,35.0760 16.6500,35.0078 C16.6485,35.0048 16.6425,34.9973 16.6200,34.9973 Z" style="fill-rule: evenodd; fill: url(#grad5558); "/>
    <defs xmlns="http://www.w3.org/2000/svg">
      <radialGradient id="grad5559" cx="50.0000%" cy="50.0000%" r="100.0000%">
        <stop offset="0%" stop-color="#fefefe" stop-opacity="1.0000"/>
        <stop offset="100%" stop-color="#848b91" stop-opacity="1.0000"/>
      </radialGradient>
    </defs>
    <path xmlns="http://www.w3.org/2000/svg" d="  M19.5637,34.9177 C19.5585,34.9125 19.3822,34.6192 19.1640,34.8442 C19.0312,34.9815 19.1100,35.0940 19.1422,35.1210 C19.2810,35.2372 19.1865,35.8057 17.9085,35.7930 C16.5517,35.7795 16.5727,35.2380 16.7182,35.1142 C16.7527,35.0850 16.8015,34.9627 16.6972,34.8307 C16.6095,34.7212 16.4047,34.7940 16.3327,34.9095 C16.2383,35.0633 16.2165,35.1218 16.2165,35.3258 C16.2165,35.8927 16.9582,36.3322 17.9265,36.3322 C18.8947,36.3322 19.7235,35.8740 19.7235,35.3070 C19.7227,35.0985 19.6365,34.9830 19.5637,34.9177 Z" style="fill-rule: evenodd; fill: url(#grad5559); "/>
    <path xmlns="http://www.w3.org/2000/svg" d="  M19.5637,34.9177 C19.5585,34.9125 19.4160,34.7220 19.2885,34.7812 C19.2375,34.8037 19.4362,34.7910 19.5742,35.1555 C19.6987,35.4862 19.1962,36.1732 17.9190,36.1605 C16.5615,36.1470 16.1842,35.4210 16.3620,35.0572 C16.5045,34.7632 16.6552,34.8127 16.6477,34.8007 C16.6080,34.7317 16.4055,34.7932 16.3327,34.9095 C16.2382,35.0632 16.2165,35.1217 16.2165,35.3257 C16.2165,35.8927 16.9582,36.3322 17.9265,36.3322 C18.8947,36.3322 19.7235,35.8740 19.7235,35.3070 C19.7227,35.0985 19.6365,34.9830 19.5637,34.9177 Z" style="fill-rule: evenodd; fill: #000000; fill-opacity: 0.0902; "/>
    <defs xmlns="http://www.w3.org/2000/svg">
      <radialGradient id="grad5560" cx="100.0000%" cy="100.0000%" r="100.0000%">
        <stop offset="0%" stop-color="#686868" stop-opacity="1.0000"/>
        <stop offset="100%" stop-color="#000000" stop-opacity="1.0000"/>
      </radialGradient>
    </defs>
    <path xmlns="http://www.w3.org/2000/svg" d="  M17.9362,40.5938 C16.9222,40.5938 16.1580,40.1370 16.1580,39.5303 C16.1580,39.3158 16.1857,39.2415 16.2878,39.0802 C16.3987,38.9047 16.7055,38.8447 16.8278,38.9940 C16.9650,39.1597 16.9192,39.3442 16.8345,39.4162 C16.8203,39.4275 16.7970,39.4733 16.8195,39.5340 C16.8465,39.6097 17.0093,39.8542 17.9205,39.8625 L17.9603,39.8625 C18.8025,39.8625 18.9960,39.6045 19.0358,39.5250 C19.0635,39.4687 19.0538,39.4290 19.0478,39.4207 C19.0080,39.3885 18.9623,39.3225 18.9570,39.2370 C18.9548,39.1792 18.9705,39.0915 19.0613,39.0000 C19.2353,38.8252 19.4655,38.8582 19.6238,39.0780 C19.7370,39.1747 19.8023,39.3270 19.8023,39.5130 C19.8007,40.1085 18.9645,40.5938 17.9362,40.5938 Z M16.6200,39.1223 C16.5712,39.1223 16.5067,39.1568 16.4812,39.1965 C16.3995,39.3255 16.3845,39.3623 16.3845,39.5303 C16.3845,40.0035 17.0655,40.3725 17.9355,40.3725 C18.8235,40.3725 19.5735,39.9788 19.5735,39.5130 C19.5735,39.3900 19.5337,39.2963 19.4565,39.2273 L19.4362,39.2040 C19.3920,39.1425 19.3440,39.1065 19.3072,39.1065 C19.2765,39.1065 19.2457,39.1320 19.2240,39.1538 C19.1655,39.2122 19.1842,39.2437 19.1962,39.2550 C19.2795,39.3233 19.3050,39.4560 19.2570,39.5820 C19.2008,39.7335 18.9600,40.0845 17.9603,40.0845 L17.9190,40.0845 C16.9755,40.0748 16.6845,39.8205 16.6050,39.6097 C16.5480,39.4552 16.6065,39.3135 16.6867,39.2482 C16.6852,39.2482 16.6852,39.2482 16.6852,39.2482 C16.6837,39.2482 16.7062,39.2010 16.6500,39.1327 C16.6485,39.1298 16.6425,39.1223 16.6200,39.1223 Z" style="fill-rule: evenodd; fill: url(#grad5560); "/>
    <defs xmlns="http://www.w3.org/2000/svg">
      <radialGradient id="grad5561" cx="50.0000%" cy="50.0000%" r="100.0000%">
        <stop offset="0%" stop-color="#fefefe" stop-opacity="1.0000"/>
        <stop offset="100%" stop-color="#848b91" stop-opacity="1.0000"/>
      </radialGradient>
    </defs>
    <path xmlns="http://www.w3.org/2000/svg" d="  M19.5637,39.0427 C19.5585,39.0375 19.3822,38.7442 19.1640,38.9692 C19.0312,39.1065 19.1100,39.2190 19.1422,39.2460 C19.2810,39.3622 19.1865,39.9307 17.9085,39.9180 C16.5517,39.9045 16.5727,39.3630 16.7182,39.2392 C16.7527,39.2100 16.8015,39.0877 16.6972,38.9557 C16.6095,38.8462 16.4047,38.9190 16.3327,39.0345 C16.2383,39.1882 16.2165,39.2467 16.2165,39.4507 C16.2165,40.0177 16.9582,40.4572 17.9265,40.4572 C18.8947,40.4572 19.7235,39.9990 19.7235,39.4320 C19.7227,39.2235 19.6365,39.1080 19.5637,39.0427 Z" style="fill-rule: evenodd; fill: url(#grad5561); "/>
    <path xmlns="http://www.w3.org/2000/svg" d="  M19.5637,39.0427 C19.5585,39.0375 19.4160,38.8470 19.2885,38.9062 C19.2375,38.9287 19.4362,38.9160 19.5742,39.2805 C19.6987,39.6112 19.1962,40.2982 17.9190,40.2855 C16.5615,40.2720 16.1842,39.5460 16.3620,39.1822 C16.5045,38.8882 16.6552,38.9377 16.6477,38.9257 C16.6080,38.8567 16.4055,38.9182 16.3327,39.0345 C16.2382,39.1882 16.2165,39.2467 16.2165,39.4507 C16.2165,40.0177 16.9582,40.4572 17.9265,40.4572 C18.8947,40.4572 19.7235,39.9990 19.7235,39.4320 C19.7227,39.2235 19.6365,39.1080 19.5637,39.0427 Z" style="fill-rule: evenodd; fill: #000000; fill-opacity: 0.0902; "/>
    <defs xmlns="http://www.w3.org/2000/svg">
      <radialGradient id="grad5562" cx="100.0000%" cy="100.0000%" r="100.0000%">
        <stop offset="0%" stop-color="#686868" stop-opacity="1.0000"/>
        <stop offset="100%" stop-color="#000000" stop-opacity="1.0000"/>
      </radialGradient>
    </defs>
    <path xmlns="http://www.w3.org/2000/svg" d="  M17.9362,44.7188 C16.9222,44.7188 16.1580,44.2620 16.1580,43.6553 C16.1580,43.4408 16.1857,43.3665 16.2878,43.2053 C16.3987,43.0298 16.7055,42.9698 16.8278,43.1190 C16.9650,43.2848 16.9192,43.4693 16.8345,43.5413 C16.8203,43.5525 16.7970,43.5983 16.8195,43.6590 C16.8465,43.7347 17.0093,43.9793 17.9205,43.9875 L17.9603,43.9875 C18.8025,43.9875 18.9960,43.7295 19.0358,43.6500 C19.0635,43.5938 19.0538,43.5540 19.0478,43.5457 C19.0080,43.5135 18.9623,43.4475 18.9570,43.3620 C18.9548,43.3042 18.9705,43.2165 19.0613,43.1250 C19.2353,42.9503 19.4655,42.9832 19.6238,43.2030 C19.7370,43.2997 19.8023,43.4520 19.8023,43.6380 C19.8007,44.2335 18.9645,44.7188 17.9362,44.7188 Z M16.6200,43.2473 C16.5712,43.2473 16.5067,43.2818 16.4812,43.3215 C16.3995,43.4505 16.3845,43.4873 16.3845,43.6553 C16.3845,44.1285 17.0655,44.4975 17.9355,44.4975 C18.8235,44.4975 19.5735,44.1038 19.5735,43.6380 C19.5735,43.5150 19.5337,43.4213 19.4565,43.3523 L19.4362,43.3290 C19.3920,43.2675 19.3440,43.2315 19.3072,43.2315 C19.2765,43.2315 19.2457,43.2570 19.2240,43.2788 C19.1655,43.3373 19.1842,43.3688 19.1962,43.3800 C19.2795,43.4483 19.3050,43.5810 19.2570,43.7070 C19.2008,43.8585 18.9600,44.2095 17.9603,44.2095 L17.9190,44.2095 C16.9755,44.1998 16.6845,43.9455 16.6050,43.7348 C16.5480,43.5803 16.6065,43.4385 16.6867,43.3733 C16.6852,43.3733 16.6852,43.3733 16.6852,43.3733 C16.6837,43.3733 16.7062,43.3260 16.6500,43.2578 C16.6485,43.2548 16.6425,43.2473 16.6200,43.2473 Z" style="fill-rule: evenodd; fill: url(#grad5562); "/>
    <defs xmlns="http://www.w3.org/2000/svg">
      <radialGradient id="grad5563" cx="50.0000%" cy="50.0000%" r="100.0000%">
        <stop offset="0%" stop-color="#fefefe" stop-opacity="1.0000"/>
        <stop offset="100%" stop-color="#848b91" stop-opacity="1.0000"/>
      </radialGradient>
    </defs>
    <path xmlns="http://www.w3.org/2000/svg" d="  M19.5637,43.1677 C19.5585,43.1625 19.3822,42.8692 19.1640,43.0942 C19.0312,43.2315 19.1100,43.3440 19.1422,43.3710 C19.2810,43.4872 19.1865,44.0557 17.9085,44.0430 C16.5517,44.0295 16.5727,43.4880 16.7182,43.3643 C16.7527,43.3350 16.8015,43.2128 16.6972,43.0808 C16.6095,42.9713 16.4047,43.0440 16.3327,43.1595 C16.2383,43.3133 16.2165,43.3718 16.2165,43.5758 C16.2165,44.1428 16.9582,44.5823 17.9265,44.5823 C18.8947,44.5823 19.7235,44.1240 19.7235,43.5570 C19.7227,43.3485 19.6365,43.2330 19.5637,43.1677 Z" style="fill-rule: evenodd; fill: url(#grad5563); "/>
    <path xmlns="http://www.w3.org/2000/svg" d="  M19.5637,43.1677 C19.5585,43.1625 19.4160,42.9720 19.2885,43.0312 C19.2375,43.0537 19.4362,43.0410 19.5742,43.4055 C19.6987,43.7362 19.1962,44.4233 17.9190,44.4105 C16.5615,44.3970 16.1842,43.6710 16.3620,43.3072 C16.5045,43.0132 16.6552,43.0627 16.6477,43.0507 C16.6080,42.9818 16.4055,43.0433 16.3327,43.1595 C16.2382,43.3132 16.2165,43.3717 16.2165,43.5757 C16.2165,44.1427 16.9582,44.5822 17.9265,44.5822 C18.8947,44.5822 19.7235,44.1240 19.7235,43.5570 C19.7227,43.3485 19.6365,43.2330 19.5637,43.1677 Z" style="fill-rule: evenodd; fill: #000000; fill-opacity: 0.0902; "/>
    <path xmlns="http://www.w3.org/2000/svg" d="  M21.5115,20.8177 L21.5137,19.9395 L41.0438,31.1962 L41.0468,32.0918 L21.5115,20.8177 Z" style="fill-rule: evenodd; fill: #00a0c6; fill-opacity: 0.2980; "/>
    <path xmlns="http://www.w3.org/2000/svg" d="  M21.5115,14.6310 L21.5130,14.1645 L29.1300,18.5572 L29.1292,19.0237 L21.3075,14.5215 L21.5115,14.6310 Z" style="fill-rule: evenodd; fill: #bdbfc3; "/>
    <path xmlns="http://www.w3.org/2000/svg" d="  M21.5115,9.2693 L21.5130,8.8020 L24.9825,10.8030 L24.9803,11.2695 L21.3082,9.1598 L21.5115,9.2693 Z" style="fill-rule: evenodd; fill: #bdbfc3; "/>
    <path xmlns="http://www.w3.org/2000/svg" d="  M21.5115,11.3310 L21.5130,10.8637 L25.7760,13.3215 L25.7737,13.7887 L21.3075,11.2222 L21.5115,11.3310 Z" style="fill-rule: evenodd; fill: #bdbfc3; "/>
    <path xmlns="http://www.w3.org/2000/svg" d="  M21.5115,28.6560 L21.5115,28.1895 L29.1300,32.5815 L29.1292,33.0480 L21.5115,28.6560 Z" style="fill-rule: evenodd; fill: #bdbfc3; "/>
    <path xmlns="http://www.w3.org/2000/svg" d="  M21.5115,23.2935 L21.5130,22.8263 L24.9825,24.8273 L24.9803,25.2938 L21.5115,23.2935 Z" style="fill-rule: evenodd; fill: #bdbfc3; "/>
    <path xmlns="http://www.w3.org/2000/svg" d="  M21.5130,25.3560 L21.5130,24.8887 L25.7760,27.3472 L25.7738,27.8145 L21.5130,25.3560 Z" style="fill-rule: evenodd; fill: #bdbfc3; "/>
    <path xmlns="http://www.w3.org/2000/svg" d="  M21.5115,34.8435 L21.5137,33.9637 L41.0438,45.2220 L41.0468,46.1160 L21.5115,34.8435 Z" style="fill-rule: evenodd; fill: #00a0c6; fill-opacity: 0.2980; "/>
    <path xmlns="http://www.w3.org/2000/svg" d="  M21.5115,42.6810 L21.5115,42.2145 L29.1300,46.6065 L29.1292,47.0730 L21.5115,42.6810 Z" style="fill-rule: evenodd; fill: #bdbfc3; "/>
    <path xmlns="http://www.w3.org/2000/svg" d="  M21.5115,37.3177 L21.5130,36.8512 L24.9825,38.8515 L24.9803,39.3188 L21.5115,37.3177 Z" style="fill-rule: evenodd; fill: #bdbfc3; "/>
    <path xmlns="http://www.w3.org/2000/svg" d="  M21.5130,39.3802 L21.5130,38.9130 L25.7760,41.3715 L25.7738,41.8387 L21.5130,39.3802 Z" style="fill-rule: evenodd; fill: #bdbfc3; "/>
    <!--converted by libvisio2svg-->
  </g>
</svg>
