<svg xmlns="http://www.w3.org/2000/svg" xmlns:xlink="http://www.w3.org/1999/xlink" version="1.1" width="0.4948000000" height="0.7673000000" viewBox="0 0 35.6228 55.2457">
  <title><![CDATA[User 3 Left]]></title>
  <g transform=" scale(1.000000) ">
    <path xmlns="http://www.w3.org/2000/svg" d="  M35.6198,43.5930 C35.3955,40.9162 35.0617,37.7993 34.2840,35.7960 C32.9115,32.2665 29.3107,30.0720 25.6193,28.9417 C26.4353,28.3500 27.1717,27.5753 27.8092,26.6483 C28.1685,27.0547 28.3867,27.5865 28.3867,28.1715 C28.3867,28.6425 28.2457,29.0797 28.0028,29.4450 C30.6075,29.2290 32.6655,26.6280 32.6655,23.4420 C32.6655,21.3960 31.8068,18.8393 30.5033,17.1728 C30.5017,17.2057 30.5017,17.2380 30.5017,17.2718 C30.5692,13.8240 30.3930,11.1068 29.6565,9.0675 C29.7135,9.0120 30.0787,8.6550 31.1625,7.5360 C32.6812,5.9662 32.8350,4.3590 32.8350,4.3590 C32.8350,4.3590 32.8260,4.3590 32.8230,4.3597 C32.8260,4.3335 32.8350,4.3073 32.8350,4.2825 C32.7548,2.0677 27.4680,0.0000 22.1318,0.0803 C18.2452,0.1395 15.0173,1.3658 12.8737,3.1080 C12.7290,3.2093 12.6030,3.3023 12.4942,3.3825 C11.7660,3.9202 10.6425,5.1795 10.6425,5.1795 C8.5598,7.7250 5.7795,14.6175 6.9172,21.1185 C7.8990,26.7270 10.3522,28.9350 13.0830,29.6145 C8.9977,31.1445 5.8800,33.3308 4.7887,34.1280 C0.0000,37.6215 0.0060,46.2877 0.0060,46.5427 C0.0060,51.3495 6.7943,55.2457 15.1688,55.2457 C19.3582,55.2457 23.0805,54.6255 25.8240,53.0475 C26.0363,52.9260 26.1127,52.8802 26.3205,52.7587 L26.3205,52.7602 L27.4395,52.1085 C27.4395,52.1085 27.4410,52.1055 27.4425,52.1002 C28.7707,51.3262 30.4688,50.3332 31.4925,49.7093 C34.0530,48.1515 35.6220,46.0523 35.6220,43.7415 C35.6228,43.6942 35.6212,43.6417 35.6198,43.5930 Z M13.3283,29.6715 C13.3237,29.7270 13.3207,29.7802 13.3162,29.8283 C13.3192,29.7757 13.3222,29.7225 13.3267,29.6715 C13.3267,29.6715 13.3267,29.6715 13.3283,29.6715 Z" style="stroke-width: 1.5000; stroke: #8d98b5; stroke-dasharray: none; stroke-linecap: butt; stroke-linejoin: miter; fill: none; "/>
    <path xmlns="http://www.w3.org/2000/svg" d="  M26.3212,52.7602 C26.3212,52.7602 22.6695,46.0073 20.2732,42.3480 C16.8675,37.1498 15.7455,36.2835 14.4915,34.6710 C12.9150,32.6453 14.0948,30.2243 14.9295,29.9055 C16.3313,29.3715 17.6572,28.8143 20.0460,29.2920 C22.6342,29.8088 24.9007,31.8180 25.9012,34.2698 C28.3710,40.3230 28.0883,47.2568 27.8130,49.9612 C27.6487,51.5708 27.4410,52.1085 27.4410,52.1085 L26.3212,52.7602 Z" style="fill-rule: evenodd; fill: #d0e9dc; "/>
    <defs xmlns="http://www.w3.org/2000/svg">
      <radialGradient id="grad5591" cx="50.0000%" cy="50.0000%" r="100.0000%">
        <stop offset="0%" stop-color="#a995c8" stop-opacity="1.0000"/>
        <stop offset="100%" stop-color="#5d457b" stop-opacity="1.0000"/>
      </radialGradient>
    </defs>
    <path xmlns="http://www.w3.org/2000/svg" d="  M35.6197,43.5930 C35.3955,40.9163 35.0617,37.7992 34.2840,35.7960 C32.2027,30.4455 25.0073,28.1618 20.1277,28.0073 C22.4685,29.2193 24.1020,31.4993 24.9307,33.5325 C27.4005,39.5850 26.8672,52.1422 26.7562,52.4992 C28.1257,51.7020 30.2820,50.4457 31.4932,49.7085 C34.0537,48.1507 35.6227,46.0515 35.6227,43.7408 C35.6227,43.6943 35.6213,43.6418 35.6197,43.5930 Z" style="fill-rule: evenodd; fill: url(#grad5591); "/>
    <path xmlns="http://www.w3.org/2000/svg" d="  M26.7563,52.4992 C26.7563,52.4992 28.6650,46.7250 27.6600,40.4992 C26.8898,35.7232 24.1928,29.4735 24.1928,29.4735 L23.7120,29.2425 C23.7120,29.2425 26.5658,39.6585 26.7533,41.1555 C27.1605,44.4075 26.7563,52.4992 26.7563,52.4992 Z" style="fill-rule: evenodd; fill: #bfc5ce; "/>
    <path xmlns="http://www.w3.org/2000/svg" d="  M26.7562,52.4992 C26.7562,52.4992 27.6585,44.5658 27.1957,41.3212 C26.4135,35.8425 23.9820,29.8440 23.9820,29.8440 C23.9820,29.8440 25.9785,37.7115 26.4007,41.3017 C26.9407,45.9090 26.7562,52.4992 26.7562,52.4992 Z" style="fill-rule: evenodd; fill: #727376; "/>
    <defs xmlns="http://www.w3.org/2000/svg">
      <radialGradient id="grad5592" cx="50.0000%" cy="50.0000%" r="100.0000%">
        <stop offset="0%" stop-color="#6f4923" stop-opacity="1.0000"/>
        <stop offset="100%" stop-color="#e5c2a0" stop-opacity="1.0000"/>
      </radialGradient>
    </defs>
    <path xmlns="http://www.w3.org/2000/svg" d="  M13.2780,30.2415 C13.3410,30.0075 13.7963,21.6225 13.8315,21.2812 C14.0175,19.4595 15.5160,18.8707 18.5235,18.8707 C21.5310,18.8707 24.7523,20.0227 24.7523,21.7492 C24.7523,22.0920 24.5985,32.4277 24.7710,32.9782 C26.4412,38.3160 22.5735,40.1482 18.4095,38.8080 C15.3585,37.9912 12.8093,31.9927 13.2780,30.2415 Z" style="fill-rule: evenodd; fill: url(#grad5592); "/>
    <defs xmlns="http://www.w3.org/2000/svg">
      <radialGradient id="grad5593" cx="50.0000%" cy="50.0000%" r="100.0000%">
        <stop offset="0%" stop-color="#a995c8" stop-opacity="1.0000"/>
        <stop offset="100%" stop-color="#5d457b" stop-opacity="1.0000"/>
      </radialGradient>
    </defs>
    <path xmlns="http://www.w3.org/2000/svg" d="  M14.7592,34.2195 C13.7340,32.7525 13.1610,30.7950 13.3357,29.5177 C9.1260,31.0507 5.9032,33.3135 4.7895,34.1273 C0.0007,37.6207 0.0067,46.2870 0.0067,46.5420 C0.0067,51.3487 6.7950,55.2450 15.1695,55.2450 C19.3590,55.2450 23.0812,54.6248 25.8247,53.0467 C26.0505,52.9177 26.1165,52.8765 26.3535,52.7392 C26.0152,51.7050 23.4367,45.7275 21.2220,42.3480 C17.8162,37.1498 15.9307,35.8942 14.7592,34.2195 Z" style="fill-rule: evenodd; fill: url(#grad5593); "/>
    <path xmlns="http://www.w3.org/2000/svg" d="  M1.3320,46.1055 C1.3320,47.6483 2.1127,49.0860 3.4545,50.2980 C2.9347,48.8018 2.8507,47.0813 2.8507,45.4305 C2.8507,45.2003 2.7015,37.7588 7.0095,34.6140 C7.4677,34.2795 8.4727,33.5948 9.7882,32.8178 C10.6995,32.2800 10.4242,31.9815 9.8700,32.3145 C7.9057,33.4988 6.2505,34.4828 5.6355,34.9312 C1.3282,38.0768 1.3320,45.8753 1.3320,46.1055 Z" style="fill-rule: evenodd; fill: #a58fc4; "/>
    <path xmlns="http://www.w3.org/2000/svg" d="  M11.6100,15.2295 C12.4830,14.7150 13.9028,15.5565 14.7818,17.1083 C15.6593,18.6600 15.6638,20.3348 14.7908,20.8493 C13.9178,21.3638 12.4980,20.5223 11.6190,18.9705 C10.7400,17.4188 10.7370,15.7440 11.6100,15.2295 Z" style="fill-rule: evenodd; fill: #c6a27e; "/>
    <defs xmlns="http://www.w3.org/2000/svg">
      <radialGradient id="grad5594" cx="50.0000%" cy="50.0000%" r="100.0000%">
        <stop offset="0%" stop-color="#6f4923" stop-opacity="1.0000"/>
        <stop offset="100%" stop-color="#e5c2a0" stop-opacity="1.0000"/>
      </radialGradient>
    </defs>
    <path xmlns="http://www.w3.org/2000/svg" d="  M11.6100,16.0822 C12.4830,15.5685 13.9028,16.4100 14.7818,17.9610 C15.6593,19.5128 15.6638,21.1883 14.7908,21.7020 C13.9178,22.2158 12.4980,21.3750 11.6190,19.8240 C10.7393,18.2715 10.7370,16.5968 11.6100,16.0822 Z" style="fill-rule: evenodd; fill: url(#grad5594); "/>
    <path xmlns="http://www.w3.org/2000/svg" d="  M30.5032,17.1735 C30.5017,17.2065 30.5017,17.2388 30.5017,17.2725 C30.4283,20.9618 29.4352,24.2888 27.8092,26.6498 C28.1685,27.0563 28.3867,27.5880 28.3867,28.1730 C28.3867,28.6440 28.2457,29.0813 28.0027,29.4465 C30.6075,29.2305 32.6655,26.6295 32.6655,23.4435 C32.6655,21.3968 31.8068,18.8400 30.5032,17.1735 Z" style="fill-rule: evenodd; fill: #543715; "/>
    <defs xmlns="http://www.w3.org/2000/svg">
      <radialGradient id="grad5595" cx="50.0000%" cy="50.0000%" r="100.0000%">
        <stop offset="0%" stop-color="#ebc8a7" stop-opacity="1.0000"/>
        <stop offset="100%" stop-color="#805a34" stop-opacity="1.0000"/>
      </radialGradient>
    </defs>
    <path xmlns="http://www.w3.org/2000/svg" d="  M13.3545,17.5230 C13.3545,24.6818 16.8157,30.2340 21.7860,30.2340 C26.7593,30.2340 30.3615,24.4290 30.5017,17.2718 C30.6675,8.7660 29.3565,4.7018 21.7860,4.3088 C16.8217,4.0523 13.3545,10.3643 13.3545,17.5230 Z" style="fill-rule: evenodd; fill: url(#grad5595); "/>
    <path xmlns="http://www.w3.org/2000/svg" d="  M21.9090,29.8365 C21.8693,29.8365 21.8310,29.8410 21.7935,29.8410 C17.1045,29.8410 13.8308,24.6398 13.7850,17.9085 C14.4323,23.1338 17.9513,29.0167 21.9090,29.8365 Z" style="fill-rule: evenodd; fill: #ac8660; "/>
    <defs xmlns="http://www.w3.org/2000/svg">
      <radialGradient id="grad5596" cx="50.0000%" cy="50.0000%" r="100.0000%">
        <stop offset="0%" stop-color="#72572b" stop-opacity="1.0000"/>
        <stop offset="100%" stop-color="#543715" stop-opacity="1.0000"/>
      </radialGradient>
    </defs>
    <path xmlns="http://www.w3.org/2000/svg" d="  M32.8350,4.2825 C32.7547,2.0678 27.4680,0.0000 22.1317,0.0803 C18.2453,0.1395 15.0172,1.3658 12.8738,3.1080 C12.7290,3.2093 12.6030,3.3023 12.4943,3.3825 C11.7660,3.9203 10.6425,5.1795 10.6425,5.1795 C8.5598,7.7258 5.7795,14.6175 6.9172,21.1185 C8.4683,29.9850 13.6980,30.3592 17.8860,29.6160 C17.8860,29.6160 14.5492,26.7083 13.7993,21.7957 C13.0432,21.5520 12.2497,20.9400 11.6183,19.8248 C11.0850,18.8813 10.8758,17.8943 10.9883,17.1488 C10.8773,16.2750 11.0820,15.5407 11.6092,15.2303 C12.1117,14.9348 12.7928,15.0892 13.4505,15.5663 C13.4692,15.3045 13.4385,14.4465 13.8315,13.3148 C14.0483,13.0643 14.3400,12.8753 14.7397,12.8100 C15.4455,12.6960 17.3707,14.0138 19.3627,13.4820 C21.4095,12.9360 21.6862,11.7652 26.1802,9.7388 C29.0310,8.4533 29.6445,9.0795 29.6445,9.0795 C29.6445,9.0795 29.9700,8.7668 31.1618,7.5360 C32.6805,5.9663 32.8343,4.3590 32.8343,4.3590 C32.8343,4.3590 32.8252,4.3598 32.8208,4.3598 C32.8268,4.3335 32.8350,4.3065 32.8350,4.2825 Z" style="fill-rule: evenodd; fill: url(#grad5596); "/>
    <defs xmlns="http://www.w3.org/2000/svg">
      <radialGradient id="grad5597" cx="50.0000%" cy="50.0000%" r="100.0000%">
        <stop offset="0%" stop-color="#876d4b" stop-opacity="1.0000"/>
        <stop offset="100%" stop-color="#72572b" stop-opacity="1.0000"/>
      </radialGradient>
    </defs>
    <path xmlns="http://www.w3.org/2000/svg" d="  M32.6115,3.5333 C31.5248,1.6365 26.8590,0.0090 22.1318,0.0803 C15.8917,0.1748 11.3430,3.2798 10.2683,6.6975 C9.6075,8.7983 10.9155,10.1708 12.3383,10.9350 C13.7603,11.6993 18.6368,12.5325 22.7723,9.7388 C23.7772,9.0593 25.9012,7.8263 26.9078,7.2240 C29.5320,5.6535 33.2205,4.5975 32.6115,3.5333 Z" style="fill-rule: evenodd; fill: url(#grad5597); "/>
    <!--converted by libvisio2svg-->
  </g>
</svg>
