<svg xmlns="http://www.w3.org/2000/svg" xmlns:xlink="http://www.w3.org/1999/xlink" version="1.1" width="0.4948000000" height="0.7673000000" viewBox="0 0 35.6220 55.2465">
  <title><![CDATA[User 1 Right]]></title>
  <g transform=" scale(1.000000) ">
    <path xmlns="http://www.w3.org/2000/svg" d="  M0.0000,43.7422 C0.0000,46.0530 1.5690,48.1522 4.1288,49.7100 C5.1548,50.3340 6.8513,51.3270 8.1795,52.1010 C8.1817,52.1062 8.1825,52.1092 8.1825,52.1092 L9.3008,52.7610 L9.3015,52.7595 C9.5100,52.8810 9.5858,52.9267 9.7980,53.0482 C12.5415,54.6262 16.2637,55.2465 20.4533,55.2465 C28.8277,55.2465 35.6160,51.3502 35.6160,46.5435 C35.6160,46.2885 35.6220,37.6222 30.8340,34.1288 C29.7435,33.3315 26.6250,31.1452 22.5405,29.6153 C25.2713,28.9365 27.7237,26.7278 28.7047,21.1193 C29.8440,14.6190 27.0638,7.7257 24.9788,5.1803 C24.9788,5.1803 23.8568,3.9210 23.1278,3.3832 C23.0190,3.3030 22.8930,3.2100 22.7483,3.1088 C20.6055,1.3665 17.3768,0.1403 13.4902,0.0810 C8.1548,0.0000 2.8673,2.0677 2.7870,4.2832 C2.7870,4.3080 2.7960,4.3350 2.7998,4.3605 C2.7967,4.3605 2.7870,4.3598 2.7870,4.3598 C2.7870,4.3598 2.9407,5.9670 4.4595,7.5368 C5.5440,8.6565 5.9085,9.0127 5.9655,9.0682 C5.2298,11.1075 5.0535,13.8247 5.1203,17.2725 C5.1195,17.2395 5.1195,17.2073 5.1188,17.1735 C3.8153,18.8407 2.9565,21.3975 2.9565,23.4427 C2.9565,26.6288 5.0145,29.2297 7.6192,29.4458 C7.3763,29.0812 7.2352,28.6432 7.2352,28.1722 C7.2352,27.5880 7.4535,27.0562 7.8127,26.6490 C8.4503,27.5752 9.1868,28.3508 10.0020,28.9432 C6.3105,30.0727 2.7120,32.2673 1.3387,35.7967 C0.5595,37.8000 0.2265,40.9162 0.0022,43.5937 C0.0023,43.6432 0.0000,43.6957 0.0000,43.7422 Z M22.2968,29.6730 C22.3005,29.7240 22.3043,29.7772 22.3065,29.8298 C22.3028,29.7818 22.2990,29.7285 22.2952,29.6730 C22.2952,29.6730 22.2960,29.6730 22.2968,29.6730 Z" style="stroke-width: 1.5000; stroke: #8d98b5; stroke-dasharray: none; stroke-linecap: butt; stroke-linejoin: miter; fill: none; "/>
    <path xmlns="http://www.w3.org/2000/svg" d="  M9.3008,52.7617 C9.3008,52.7617 12.9533,46.0088 15.3503,42.3495 C18.7553,37.1513 19.8780,36.2850 21.1313,34.6725 C22.7078,32.6468 21.5288,30.2258 20.6933,29.9070 C19.2915,29.3730 17.9655,28.8158 15.5760,29.2935 C12.9885,29.8103 10.7220,31.8195 9.7215,34.2713 C7.2525,40.3252 7.5345,47.2583 7.8098,49.9627 C7.9740,51.5723 8.1818,52.1100 8.1818,52.1100 L9.3008,52.7617 Z" style="fill-rule: evenodd; fill: #d0e9dc; "/>
    <defs xmlns="http://www.w3.org/2000/svg">
      <radialGradient id="grad5574" cx="50.0000%" cy="50.0000%" r="100.0000%">
        <stop offset="0%" stop-color="#a2c475" stop-opacity="1.0000"/>
        <stop offset="100%" stop-color="#688843" stop-opacity="1.0000"/>
      </radialGradient>
    </defs>
    <path xmlns="http://www.w3.org/2000/svg" d="  M0.0030,43.5945 C0.2273,40.9178 0.5603,37.8007 1.3395,35.7975 C3.4193,30.4470 10.6155,28.1633 15.4950,28.0088 C13.1543,29.2208 11.5208,31.5008 10.6920,33.5340 C8.2223,39.5865 8.7555,52.1437 8.8658,52.5007 C7.4963,51.7035 5.3408,50.4480 4.1288,49.7100 C1.5690,48.1522 0.0000,46.0530 0.0000,43.7423 C0.0000,43.6957 0.0023,43.6433 0.0030,43.5945 Z" style="fill-rule: evenodd; fill: url(#grad5574); "/>
    <path xmlns="http://www.w3.org/2000/svg" d="  M8.8658,52.5007 C8.8658,52.5007 6.9570,46.7265 7.9628,40.5007 C8.7330,35.7247 11.4300,29.4750 11.4300,29.4750 L11.9108,29.2447 C11.9108,29.2447 9.0570,39.6600 8.8695,41.1570 C8.4630,44.4090 8.8658,52.5007 8.8658,52.5007 Z" style="fill-rule: evenodd; fill: #bfc5ce; "/>
    <path xmlns="http://www.w3.org/2000/svg" d="  M8.8658,52.5007 C8.8658,52.5007 7.9643,44.5672 8.4270,41.3227 C9.2093,35.8440 11.6408,29.8455 11.6408,29.8455 C11.6408,29.8455 9.6450,37.7137 9.2235,41.3032 C8.6820,45.9105 8.8658,52.5007 8.8658,52.5007 Z" style="fill-rule: evenodd; fill: #727376; "/>
    <defs xmlns="http://www.w3.org/2000/svg">
      <radialGradient id="grad5575" cx="50.0000%" cy="50.0000%" r="100.0000%">
        <stop offset="0%" stop-color="#ebc8a7" stop-opacity="1.0000"/>
        <stop offset="100%" stop-color="#805a34" stop-opacity="1.0000"/>
      </radialGradient>
    </defs>
    <path xmlns="http://www.w3.org/2000/svg" d="  M22.3448,30.2437 C22.2833,30.0090 21.8273,21.6240 21.7913,21.2827 C21.6068,19.4610 20.1068,18.8722 17.0993,18.8722 C14.0917,18.8722 10.8705,20.0242 10.8705,21.7507 C10.8705,22.0935 11.0242,32.4292 10.8517,32.9805 C9.1808,38.3175 13.0493,40.1497 17.2133,38.8095 C20.2643,37.9927 22.8135,31.9942 22.3448,30.2437 Z" style="fill-rule: evenodd; fill: url(#grad5575); "/>
    <defs xmlns="http://www.w3.org/2000/svg">
      <radialGradient id="grad5576" cx="50.0000%" cy="50.0000%" r="100.0000%">
        <stop offset="0%" stop-color="#a2c475" stop-opacity="1.0000"/>
        <stop offset="100%" stop-color="#688843" stop-opacity="1.0000"/>
      </radialGradient>
    </defs>
    <path xmlns="http://www.w3.org/2000/svg" d="  M20.8635,34.2210 C21.8888,32.7540 22.4618,30.7965 22.2870,29.5192 C26.4968,31.0522 29.7195,33.3158 30.8340,34.1287 C35.6220,37.6222 35.6160,46.2885 35.6160,46.5435 C35.6160,51.3502 28.8278,55.2465 20.4533,55.2465 C16.2638,55.2465 12.5415,54.6262 9.7980,53.0482 C9.5730,52.9192 9.5063,52.8780 9.2685,52.7407 C9.6090,51.7065 12.1875,45.7290 14.4008,42.3495 C17.8065,37.1513 19.6928,35.8957 20.8635,34.2210 Z" style="fill-rule: evenodd; fill: url(#grad5576); "/>
    <path xmlns="http://www.w3.org/2000/svg" d="  M24.0128,15.2310 C23.1398,14.7165 21.7200,15.5580 20.8410,17.1098 C19.9635,18.6615 19.9583,20.3363 20.8320,20.8508 C21.7050,21.3653 23.1248,20.5238 24.0038,18.9720 C24.8827,17.4203 24.8865,15.7455 24.0128,15.2310 Z" style="fill-rule: evenodd; fill: #ebc8a7; "/>
    <defs xmlns="http://www.w3.org/2000/svg">
      <radialGradient id="grad5577" cx="50.0000%" cy="50.0000%" r="100.0000%">
        <stop offset="0%" stop-color="#6f4923" stop-opacity="1.0000"/>
        <stop offset="100%" stop-color="#e5c2a0" stop-opacity="1.0000"/>
      </radialGradient>
    </defs>
    <path xmlns="http://www.w3.org/2000/svg" d="  M24.0128,16.0845 C23.1398,15.5700 21.7200,16.4115 20.8410,17.9632 C19.9635,19.5150 19.9583,21.1897 20.8320,21.7042 C21.7050,22.2187 23.1248,21.3772 24.0038,19.8262 C24.8827,18.2730 24.8865,16.5982 24.0128,16.0845 Z" style="fill-rule: evenodd; fill: url(#grad5577); "/>
    <defs xmlns="http://www.w3.org/2000/svg">
      <radialGradient id="grad5578" cx="0.0000%" cy="0.0000%" r="100.0000%">
        <stop offset="0%" stop-color="#e1d6aa" stop-opacity="1.0000"/>
        <stop offset="100%" stop-color="#7a6637" stop-opacity="1.0000"/>
      </radialGradient>
    </defs>
    <path xmlns="http://www.w3.org/2000/svg" d="  M5.1195,17.1750 C5.1203,17.2080 5.1203,17.2403 5.1210,17.2740 C5.1945,20.9633 6.1875,24.2903 7.8135,26.6513 C7.4543,27.0577 7.2360,27.5895 7.2360,28.1745 C7.2360,28.6455 7.3770,29.0828 7.6200,29.4480 C5.0153,29.2320 2.9573,26.6310 2.9573,23.4450 C2.9573,21.3983 3.8160,18.8415 5.1195,17.1750 Z" style="fill-rule: evenodd; fill: url(#grad5578); "/>
    <defs xmlns="http://www.w3.org/2000/svg">
      <radialGradient id="grad5579" cx="50.0000%" cy="50.0000%" r="100.0000%">
        <stop offset="0%" stop-color="#fee8c5" stop-opacity="1.0000"/>
        <stop offset="100%" stop-color="#ebc8a7" stop-opacity="1.0000"/>
      </radialGradient>
    </defs>
    <path xmlns="http://www.w3.org/2000/svg" d="  M22.2683,17.5245 C22.2683,24.6833 18.8070,30.2355 13.8360,30.2355 C8.8643,30.2355 5.2613,24.4305 5.1210,17.2733 C4.9553,8.7675 6.2663,4.7033 13.8360,4.3103 C18.8003,4.0538 22.2683,10.3658 22.2683,17.5245 Z" style="fill-rule: evenodd; fill: url(#grad5579); "/>
    <path xmlns="http://www.w3.org/2000/svg" d="  M13.7145,29.8380 C13.7535,29.8387 13.7918,29.8425 13.8293,29.8425 C18.5198,29.8425 21.7920,24.6412 21.8378,17.9100 C21.1905,23.1353 17.6708,29.0182 13.7145,29.8380 Z" style="fill-rule: evenodd; fill: #fee8c5; "/>
    <defs xmlns="http://www.w3.org/2000/svg" xmlns:xlink="http://www.w3.org/1999/xlink">
      <linearGradient id="grad5580">
        <stop offset="0%" stop-color="#7a6637" stop-opacity="1.0000"/>
        <stop offset="100%" stop-color="#b5a362" stop-opacity="1.0000"/>
      </linearGradient>
      <linearGradient xlink:href="#grad5580" id="grad5581" x1="0" y1="0" x2="0" y2="1" gradientTransform="rotate(90 .5 .5)" gradientUnits="objectBoundingBox">
  </linearGradient>
    </defs>
    <path xmlns="http://www.w3.org/2000/svg" d="  M2.7878,4.2840 C2.8680,2.0693 8.1555,0.0015 13.4910,0.0818 C17.3775,0.1403 20.6055,1.3673 22.7490,3.1095 C22.8930,3.2108 23.0198,3.3038 23.1285,3.3840 C23.8575,3.9218 24.9795,5.1810 24.9795,5.1810 C27.0638,7.7265 29.8440,14.6190 28.7055,21.1200 C27.1545,29.9865 21.9248,30.3607 17.7360,29.6167 C17.7360,29.6167 21.0735,26.7097 21.8235,21.7965 C22.5795,21.5527 23.3730,20.9407 24.0045,19.8263 C24.5377,18.8828 24.7365,18.0210 24.6345,17.1502 C24.6608,16.0628 24.5407,15.5422 24.0135,15.2318 C23.5118,14.9355 22.8293,15.0900 22.1723,15.5678 C22.1535,15.3060 22.0987,14.5178 21.7912,13.3162 C21.5745,13.0658 21.2827,12.8767 20.8830,12.8115 C20.1772,12.6975 18.2520,14.0153 16.2600,13.4835 C14.2133,12.9375 13.9365,11.7660 9.4425,9.7395 C6.5925,8.4547 5.9783,9.0810 5.9783,9.0810 C5.9783,9.0810 5.6520,8.7683 4.4610,7.5375 C2.9423,5.9678 2.7885,4.3605 2.7885,4.3605 C2.7885,4.3605 2.7983,4.3605 2.8013,4.3613 C2.7960,4.3350 2.7878,4.3080 2.7878,4.2840 Z" style="fill-rule: evenodd; fill: url(#grad5581); "/>
    <defs xmlns="http://www.w3.org/2000/svg">
      <radialGradient id="grad5582" cx="50.0000%" cy="50.0000%" r="100.0000%">
        <stop offset="0%" stop-color="#b5a362" stop-opacity="1.0000"/>
        <stop offset="100%" stop-color="#7a6637" stop-opacity="1.0000"/>
      </radialGradient>
    </defs>
    <path xmlns="http://www.w3.org/2000/svg" d="  M24.7110,8.7420 C24.7110,8.7420 26.7090,12.5655 27.0570,16.1273 C27.4042,19.6898 26.7112,22.6448 25.5967,24.4643 C24.4402,26.3505 24.1702,25.0523 24.3352,24.5228 C24.6315,23.5770 25.9477,21.1785 25.5832,16.4715 C25.3942,14.0445 23.0400,10.1100 23.0400,10.1100 L24.7110,8.7420 Z" style="fill-rule: evenodd; fill: url(#grad5582); "/>
    <defs xmlns="http://www.w3.org/2000/svg">
      <radialGradient id="grad5583" cx="100.0000%" cy="0.0000%" r="100.0000%">
        <stop offset="0%" stop-color="#e1d6aa" stop-opacity="1.0000"/>
        <stop offset="100%" stop-color="#b5a362" stop-opacity="1.0000"/>
      </radialGradient>
    </defs>
    <path xmlns="http://www.w3.org/2000/svg" d="  M3.0112,3.5340 C4.0980,1.6373 8.7637,0.0098 13.4910,0.0818 C19.7318,0.1763 24.2790,3.2813 25.3545,6.6983 C26.0152,8.7998 24.7073,10.1715 23.2845,10.9358 C21.8625,11.7000 16.9860,12.5333 12.8505,9.7395 C11.8455,9.0608 9.7222,7.8270 8.7150,7.2248 C6.0907,5.6550 2.4022,4.5990 3.0112,3.5340 Z" style="fill-rule: evenodd; fill: url(#grad5583); "/>
    <!--converted by libvisio2svg-->
  </g>
</svg>
