<svg xmlns="http://www.w3.org/2000/svg" xmlns:xlink="http://www.w3.org/1999/xlink" version="1.1" width="0.8445000000" height="0.8472000000" viewBox="0 0 60.8040 61.0012">
  <title><![CDATA[User 6 Right]]></title>
  <g transform=" scale(1.000000) ">
    <path xmlns="http://www.w3.org/2000/svg" d="  M60.8040,14.8500 C60.8040,6.6488 52.0328,0.0000 41.2102,0.0000 C30.3892,0.0000 21.6165,6.6495 21.6165,14.8500 C21.6165,22.4618 29.1735,28.7318 38.9122,29.5950 L38.9122,33.2175 C38.9122,33.5595 39.1860,33.8362 39.5280,33.8362 C39.6915,33.8362 39.8393,33.7733 39.9495,33.6705 L43.8900,29.5583 C53.4435,28.5683 60.8040,22.3620 60.8040,14.8500 Z" style="stroke-width: 1.5000; stroke: #8d98b5; stroke-dasharray: none; stroke-linecap: butt; stroke-linejoin: miter; fill: none; "/>
    <path xmlns="http://www.w3.org/2000/svg" d="  M40.9200,48.9930 C39.8220,43.4917 38.1188,35.5395 28.2720,31.7528 C27.6510,31.5135 26.9880,31.3132 26.3010,31.1415 C26.2605,30.9000 26.0490,29.6318 25.8097,28.1880 C25.8593,28.0755 26.4953,26.6685 27.5355,25.6582 C29.1075,24.1298 30.8738,21.7538 31.8435,19.0545 C33.4973,14.4525 32.9453,7.4182 27.6135,3.9075 C27.1620,3.5437 26.6775,3.2122 26.1510,2.9250 C25.2143,2.4127 23.8530,1.4760 20.5538,1.0980 C16.4123,0.5160 11.3790,1.1040 8.2358,3.0150 C5.8515,4.4647 5.1233,5.2807 4.6403,6.1290 C2.3783,9.4620 7.2353,11.0955 7.3193,11.1240 C6.9225,13.0837 6.8108,15.3300 6.8108,17.7615 C6.8108,23.7915 9.1635,28.9463 12.7177,31.0455 C12.7177,31.2218 12.7177,31.3957 12.7185,31.5615 C10.9170,32.0460 9.1433,32.6850 7.4708,33.5107 C5.7255,34.3710 4.2210,35.8305 3.0938,37.7370 C3.0458,37.9365 0.6548,42.3765 0.9045,46.9695 C1.0117,48.9337 2.3468,50.5980 4.5278,51.7815 C4.5383,51.7867 4.5480,51.7920 4.5578,51.7972 L4.5570,51.7972 L11.8800,56.0250 L11.8808,56.0310 L12.5798,56.4217 L15.1590,57.9180 C20.4975,61.0005 29.8238,60.6142 35.9880,57.0547 C39.9675,54.7583 41.4683,51.7448 40.9200,48.9930 Z M26.3033,31.1467 C26.3025,31.1460 26.3010,31.1438 26.3003,31.1430 C26.3003,31.1423 26.3003,31.1415 26.3003,31.1407 C26.3010,31.1430 26.3025,31.1445 26.3033,31.1467 Z" style="stroke-width: 1.5000; stroke: #8d98b5; stroke-dasharray: none; stroke-linecap: butt; stroke-linejoin: miter; fill: none; "/>
    <defs xmlns="http://www.w3.org/2000/svg">
      <radialGradient id="grad5619" cx="50.0000%" cy="50.0000%" r="100.0000%">
        <stop offset="0%" stop-color="#fcd57a" stop-opacity="1.0000"/>
        <stop offset="100%" stop-color="#dfc487" stop-opacity="1.0000"/>
      </radialGradient>
    </defs>
    <path xmlns="http://www.w3.org/2000/svg" d="  M60.8040,14.8500 C60.8040,6.6488 52.0328,0.0000 41.2102,0.0000 C30.3892,0.0000 21.6165,6.6495 21.6165,14.8500 C21.6165,22.4618 29.1735,28.7318 38.9122,29.5950 L38.9122,33.2175 C38.9122,33.5595 39.1860,33.8362 39.5280,33.8362 C39.6915,33.8362 39.8393,33.7733 39.9495,33.6705 L43.8900,29.5583 C53.4435,28.5683 60.8040,22.3620 60.8040,14.8500 Z" style="fill-rule: evenodd; fill: url(#grad5619); "/>
    <defs xmlns="http://www.w3.org/2000/svg">
      <radialGradient id="grad5620" cx="50.0000%" cy="50.0000%" r="100.0000%">
        <stop offset="0%" stop-color="#fff8aa" stop-opacity="1.0000"/>
        <stop offset="100%" stop-color="#ffe28c" stop-opacity="1.0000"/>
      </radialGradient>
    </defs>
    <path xmlns="http://www.w3.org/2000/svg" d="  M39.7365,32.7000 L39.7365,29.5957 L39.7365,28.8413 L38.9842,28.7738 C29.5530,27.9367 22.4408,21.9510 22.4408,14.8500 C22.4408,7.1168 30.8610,0.8250 41.2095,0.8250 C51.5580,0.8250 59.9775,7.1168 59.9775,14.8500 C59.9775,21.8108 53.0243,27.7815 43.8038,28.7370 L43.5023,28.7685 L43.2930,28.9867 L39.7365,32.7000 Z" style="fill-rule: evenodd; fill: url(#grad5620); "/>
    <defs xmlns="http://www.w3.org/2000/svg">
      <radialGradient id="grad5621" cx="50.0000%" cy="50.0000%" r="100.0000%">
        <stop offset="0%" stop-color="#fdf8ea" stop-opacity="1.0000"/>
        <stop offset="100%" stop-color="#ffe28c" stop-opacity="1.0000"/>
      </radialGradient>
    </defs>
    <path xmlns="http://www.w3.org/2000/svg" d="  M23.0655,11.2620 C25.1925,5.2613 32.5208,0.8250 41.2103,0.8250 C51.5595,0.8250 59.9790,7.1175 59.9790,14.8500 C59.9145,17.6595 48.8783,12.6630 40.8615,12.6630 C32.9550,12.6638 20.2590,19.1535 23.0655,11.2620 Z" style="fill-rule: evenodd; fill: url(#grad5621); "/>
    <path xmlns="http://www.w3.org/2000/svg" d="  M12.5797,56.4217 C15.2925,47.6745 16.1760,45.9697 18.7882,41.9092 C22.4962,36.1477 23.9182,36.3705 25.3012,34.5922 C27.2842,32.0452 26.6490,30.8010 24.9007,30.1357 C23.3550,29.5462 19.5862,28.6657 16.9515,29.1922 C14.0970,29.7637 11.8762,33.2385 11.3227,37.1377 C10.1542,45.3720 11.5350,53.7405 11.5350,53.7405 L11.8807,56.0310 L12.5797,56.4217 Z" style="fill-rule: evenodd; fill: #dae3f9; "/>
    <defs xmlns="http://www.w3.org/2000/svg">
      <radialGradient id="grad5622" cx="50.0000%" cy="50.0000%" r="100.0000%">
        <stop offset="0%" stop-color="#91c4ab" stop-opacity="1.0000"/>
        <stop offset="100%" stop-color="#60ab86" stop-opacity="1.0000"/>
      </radialGradient>
    </defs>
    <path xmlns="http://www.w3.org/2000/svg" d="  M11.3227,37.1385 C11.6422,34.8885 12.5183,32.7840 13.7490,31.2930 C11.5935,31.7962 9.4628,32.5290 7.4708,33.5115 C5.7255,34.3717 4.2210,35.8312 3.0937,37.7377 C3.0457,37.9372 0.6547,42.3772 0.9045,46.9702 C1.0117,48.9345 2.3467,50.5987 4.5277,51.7822 C4.5382,51.7875 4.5480,51.7927 4.5577,51.7980 L4.5570,51.7980 L11.8800,56.0257 L11.5350,53.7412 C11.5350,53.7405 10.1542,45.3727 11.3227,37.1385 Z" style="fill-rule: evenodd; fill: url(#grad5622); "/>
    <path xmlns="http://www.w3.org/2000/svg" d="  M12.8460,32.7368 C12.8460,32.7368 11.5605,34.2015 10.8652,42.3068 C10.5442,46.0478 11.8755,56.0168 11.8755,56.0168 L11.6640,55.8915 C11.6640,55.8915 9.5805,48.3075 9.6307,41.6115 C9.6547,38.3610 10.3252,34.2015 13.1295,30.9330 L12.8460,32.7368 Z" style="fill-rule: evenodd; fill: #dae3f9; "/>
    <path xmlns="http://www.w3.org/2000/svg" d="  M11.3610,42.5077 C11.2148,50.8200 11.8808,56.0310 11.8808,56.0310 C11.8808,56.0310 10.5030,47.4067 10.4018,43.3102 C10.2923,38.7975 11.3280,33.2760 13.9515,29.9962 C13.9523,29.9962 11.5140,33.8707 11.3610,42.5077 Z" style="fill-rule: evenodd; fill: #727376; "/>
    <defs xmlns="http://www.w3.org/2000/svg">
      <radialGradient id="grad5623" cx="50.0000%" cy="50.0000%" r="100.0000%">
        <stop offset="0%" stop-color="#6f4923" stop-opacity="1.0000"/>
        <stop offset="100%" stop-color="#ebc8a7" stop-opacity="1.0000"/>
      </radialGradient>
    </defs>
    <path xmlns="http://www.w3.org/2000/svg" d="  M26.6408,31.7452 C26.5800,31.1565 26.3085,31.1872 26.3085,31.1872 C26.3085,31.1872 25.0740,23.7975 25.0388,23.4503 C24.8100,21.2175 23.0685,20.4960 19.3838,20.4960 C15.6990,20.4960 12.7118,22.2105 12.7118,24.3263 C12.7118,24.7462 12.7193,32.9212 12.7253,33.6277 C12.7710,39.1282 17.4413,41.7472 22.4430,37.3290 C25.0965,34.9830 26.5545,33.6502 26.6408,31.7452 Z" style="fill-rule: evenodd; fill: url(#grad5623); "/>
    <defs xmlns="http://www.w3.org/2000/svg">
      <radialGradient id="grad5624" cx="50.0000%" cy="50.0000%" r="100.0000%">
        <stop offset="0%" stop-color="#91c4ab" stop-opacity="1.0000"/>
        <stop offset="100%" stop-color="#60ab86" stop-opacity="1.0000"/>
      </radialGradient>
    </defs>
    <path xmlns="http://www.w3.org/2000/svg" d="  M15.1590,57.9187 C20.4975,61.0013 29.8238,60.6150 35.9880,57.0555 C39.9675,54.7583 41.4683,51.7455 40.9192,48.9937 C39.8212,43.4925 38.1180,35.5403 28.2713,31.7535 C27.6503,31.5143 26.9872,31.3140 26.3002,31.1423 C26.7593,31.8945 26.5748,32.9183 25.3208,34.5300 C23.9377,36.3090 22.4955,36.1500 18.7875,41.9115 C16.1753,45.9720 15.2918,47.6768 12.5790,56.4240 L15.1590,57.9187 Z" style="fill-rule: evenodd; fill: url(#grad5624); "/>
    <defs xmlns="http://www.w3.org/2000/svg">
      <radialGradient id="grad5625" cx="50.0000%" cy="50.0000%" r="100.0000%">
        <stop offset="0%" stop-color="#6f4923" stop-opacity="1.0000"/>
        <stop offset="100%" stop-color="#ebc8a7" stop-opacity="1.0000"/>
      </radialGradient>
    </defs>
    <path xmlns="http://www.w3.org/2000/svg" d="  M28.4422,15.4155 C27.3720,14.7848 25.6320,15.8153 24.5557,17.7165 C23.4795,19.6178 23.4742,21.6698 24.5437,22.2998 C25.6147,22.9298 27.3532,21.8993 28.4302,19.9988 C29.5065,18.0975 29.5117,16.0455 28.4422,15.4155 Z" style="fill-rule: evenodd; fill: url(#grad5625); "/>
    <defs xmlns="http://www.w3.org/2000/svg">
      <radialGradient id="grad5626" cx="50.0000%" cy="50.0000%" r="100.0000%">
        <stop offset="0%" stop-color="#6f4923" stop-opacity="1.0000"/>
        <stop offset="100%" stop-color="#e5c2a0" stop-opacity="1.0000"/>
      </radialGradient>
    </defs>
    <path xmlns="http://www.w3.org/2000/svg" d="  M28.4422,16.4595 C27.3720,15.8287 25.6320,16.8600 24.5557,18.7605 C23.4795,20.6625 23.4742,22.7145 24.5437,23.3445 C25.6147,23.9745 27.3532,22.9432 28.4302,21.0427 C29.5065,19.1407 29.5117,17.0895 28.4422,16.4595 Z" style="fill-rule: evenodd; fill: url(#grad5626); "/>
    <defs xmlns="http://www.w3.org/2000/svg">
      <radialGradient id="grad5627" cx="50.0000%" cy="50.0000%" r="100.0000%">
        <stop offset="0%" stop-color="#ebc8a7" stop-opacity="1.0000"/>
        <stop offset="100%" stop-color="#976d3d" stop-opacity="1.0000"/>
      </radialGradient>
    </defs>
    <path xmlns="http://www.w3.org/2000/svg" d="  M25.6193,18.0390 C25.6193,25.9320 21.8025,32.0550 16.3215,32.0550 C10.8390,32.0550 6.8108,25.6568 6.8108,17.7622 C6.8108,9.8692 7.9748,3.9030 16.3215,3.4687 C21.7958,3.1852 25.6193,10.1437 25.6193,18.0390 Z" style="fill-rule: evenodd; fill: url(#grad5627); "/>
    <path xmlns="http://www.w3.org/2000/svg" d="  M15.8655,31.4400 C15.9082,31.4408 15.9502,31.4453 15.9922,31.4453 C21.1635,31.4453 24.7725,25.7108 24.8227,18.2880 C24.1095,24.0480 20.2282,30.5348 15.8655,31.4400 Z" style="fill-rule: evenodd; fill: #a17c57; "/>
    <path xmlns="http://www.w3.org/2000/svg" d="  M27.6127,3.9075 C27.1613,3.5437 26.6767,3.2122 26.1503,2.9250 C25.2135,2.4127 23.8522,1.4760 20.5530,1.0980 C16.4115,0.5160 11.3782,1.1040 8.2350,3.0150 C5.8507,4.4647 5.1225,5.2807 4.6395,6.1290 C2.3580,9.4912 7.3222,11.1247 7.3222,11.1247 L7.5967,10.1295 C7.5967,10.1295 9.0975,9.7035 12.4012,10.6042 C16.1228,11.6197 19.0628,14.3077 22.7265,13.5652 C24.5753,13.4002 25.2757,15.3930 25.4805,16.1760 C25.5015,16.3710 25.5098,16.4872 25.5098,16.4872 C25.5098,16.4872 25.5225,16.4692 25.5420,16.4430 C25.5465,16.4700 25.5503,16.4872 25.5503,16.4872 C25.5503,16.4872 26.2530,15.4162 27.4860,15.3487 C27.7725,15.3330 28.0852,15.3705 28.4235,15.4882 C29.6070,15.8955 29.1427,18.9172 29.1128,19.2592 C29.1150,19.2585 29.1187,19.2607 29.1218,19.2607 C28.9950,19.8367 28.7670,20.4465 28.4302,21.0420 C27.4830,22.7137 26.0242,23.7120 24.9570,23.4990 L25.8038,28.1977 C25.8038,28.1977 26.4503,26.7105 27.5347,25.6567 C29.1068,24.1282 30.8730,21.7522 31.8427,19.0530 C33.4965,14.4532 32.9445,7.4190 27.6127,3.9075 Z" style="fill-rule: evenodd; fill: #3d3d3d; "/>
    <defs xmlns="http://www.w3.org/2000/svg">
      <radialGradient id="grad5628" cx="50.0000%" cy="50.0000%" r="100.0000%">
        <stop offset="0%" stop-color="#8e8e8e" stop-opacity="1.0000"/>
        <stop offset="100%" stop-color="#4f4f4f" stop-opacity="1.0000"/>
      </radialGradient>
    </defs>
    <path xmlns="http://www.w3.org/2000/svg" d="  M25.0800,11.3835 C21.5910,13.5488 13.2743,9.2040 11.1030,8.6528 C8.3347,7.9492 0.0000,8.0227 8.2357,3.0150 C12.7905,0.2460 21.3195,0.2535 25.3440,2.5755 C29.3662,4.8990 28.9102,9.0053 25.0800,11.3835 Z" style="fill-rule: evenodd; fill: url(#grad5628); "/>
    <defs xmlns="http://www.w3.org/2000/svg" xmlns:xlink="http://www.w3.org/1999/xlink">
      <linearGradient id="grad5629">
        <stop offset="0%" stop-color="#7f8787" stop-opacity="1.0000"/>
        <stop offset="100%" stop-color="#dae1e1" stop-opacity="1.0000"/>
      </linearGradient>
      <linearGradient xlink:href="#grad5629" id="grad5630" x1="0" y1="0" x2="0" y2="1" gradientTransform="rotate(135 .5 .5)" gradientUnits="objectBoundingBox">
  </linearGradient>
    </defs>
    <path xmlns="http://www.w3.org/2000/svg" d="  M11.5117,8.3827 C9.5505,7.8848 4.5765,7.8743 4.8990,6.0743 C4.9500,5.7863 5.1112,5.5155 5.1112,5.5155 C3.0480,8.1120 8.8800,8.0888 11.1030,8.6535 C13.2742,9.2040 21.5902,13.5488 25.0800,11.3843 C25.2195,11.2973 25.3530,11.2080 25.4835,11.1165 C21.9930,13.2750 13.6815,8.9333 11.5117,8.3827 Z" style="fill-rule: evenodd; fill: url(#grad5630); "/>
    <!--converted by libvisio2svg-->
  </g>
</svg>
