<svg xmlns="http://www.w3.org/2000/svg" xmlns:xlink="http://www.w3.org/1999/xlink" version="1.1" width="0.5544000000" height="0.8265000000" viewBox="0 0 39.9157 59.5050">
  <title><![CDATA[User 4 Right]]></title>
  <g transform=" scale(1.000000) ">
    <path xmlns="http://www.w3.org/2000/svg" d="  M0.0030,46.4475 C0.2535,43.4475 0.6285,39.9563 1.5000,37.7115 C2.9723,33.9270 6.7298,31.5120 10.6740,30.2018 C7.3432,27.8302 5.0520,22.8915 5.0520,17.1787 C5.0520,14.0767 5.2935,11.2710 6.0772,8.9670 C5.4240,8.1600 5.0565,7.2607 5.0565,6.3112 C5.0565,2.8268 9.9788,0.0023 16.0485,0.0023 C16.9125,0.0023 17.7517,0.0615 18.5580,0.1695 C22.6725,0.5355 24.7733,1.9530 25.7092,2.6115 C28.8510,4.8225 30.6765,11.7120 28.2465,18.2528 C28.2713,17.9655 28.1085,19.3388 27.4440,20.5140 C26.5080,22.1670 25.0800,23.1682 24.0060,23.0235 C24.1103,23.7300 25.0403,28.8367 25.3972,30.7238 C29.6175,32.4713 33.4170,35.0153 34.5495,35.8418 C39.9150,39.7575 39.9083,49.4670 39.9083,49.7528 C39.9083,55.1393 32.3010,59.5050 22.9192,59.5050 C18.2243,59.5050 14.0543,58.8105 10.9792,57.0435 C9.7065,56.3115 8.2178,55.4460 6.8048,54.6083 L6.7927,54.6023 L6.7927,54.6015 C6.0337,54.1508 5.2957,53.7098 4.6260,53.3018 C1.7580,51.5565 0.0000,49.2045 0.0000,46.6155 C0.0008,46.5600 0.0015,46.5015 0.0030,46.4475 Z" style="stroke-width: 1.5000; stroke: #8d98b5; stroke-dasharray: none; stroke-linecap: butt; stroke-linejoin: miter; fill: none; "/>
    <path xmlns="http://www.w3.org/2000/svg" d="  M39.9083,49.7513 C39.9083,49.4655 39.9157,39.7560 34.5495,35.8402 C32.7975,34.5607 24.6600,29.1682 18.4613,28.9807 C13.0440,28.8165 3.9930,31.3005 1.5000,37.7115 C0.6285,39.9562 0.2535,43.4475 0.0030,46.4475 C0.0015,46.5015 0.0000,46.5600 0.0000,46.6140 C0.0000,49.2030 1.7580,51.5550 4.6260,53.3003 C6.5453,54.4687 9.0172,55.9155 10.9793,57.0420 C14.0542,58.8090 18.2243,59.5035 22.9192,59.5035 C32.3018,59.5035 39.9083,55.1377 39.9083,49.7513 Z" style="fill-rule: evenodd; fill: #d0e9de; "/>
    <defs xmlns="http://www.w3.org/2000/svg">
      <radialGradient id="grad5598" cx="0.0000%" cy="0.0000%" r="100.0000%">
        <stop offset="0%" stop-color="#edd13d" stop-opacity="1.0000"/>
        <stop offset="100%" stop-color="#b69b0a" stop-opacity="1.0000"/>
      </radialGradient>
    </defs>
    <path xmlns="http://www.w3.org/2000/svg" d="  M9.1455,35.5320 C10.2660,32.7847 14.2373,29.8417 17.1375,29.2620 C17.7998,29.1292 18.4500,29.0512 19.0800,29.0167 C18.8723,29.0002 18.6668,28.9875 18.4620,28.9807 C13.0448,28.8165 3.9938,31.3005 1.5008,37.7115 C0.6293,39.9562 0.2543,43.4475 0.0038,46.4475 C0.0023,46.5015 0.0008,46.5600 0.0008,46.6140 C0.0008,49.2030 1.7588,51.5550 4.6268,53.3003 C5.4795,53.8185 6.4403,54.3930 7.4175,54.9690 C7.4018,54.7463 7.3575,54.1913 7.2285,52.8165 C7.3553,54.1740 8.1698,37.9237 9.1455,35.5320 Z" style="fill-rule: evenodd; fill: url(#grad5598); "/>
    <path xmlns="http://www.w3.org/2000/svg" d="  M11.6063,32.3962 C11.6063,32.3962 9.2535,33.8872 8.0498,43.3260 C7.5660,47.1113 7.4168,54.9675 7.4168,54.9675 L7.2158,54.8610 C7.2158,54.8610 6.6795,46.5533 6.9653,43.2187 C7.3575,38.6490 7.9485,35.5035 11.8943,30.5625 L11.6063,32.3962 Z" style="fill-rule: evenodd; fill: #ffe886; "/>
    <path xmlns="http://www.w3.org/2000/svg" d="  M12.1275,32.4225 C12.1275,32.4225 9.3720,36.5798 8.6235,43.1640 C8.1930,46.9560 7.4310,54.9848 7.4310,54.9848 C7.4310,54.9848 7.1392,47.2928 7.4865,43.2465 C7.8788,38.6760 8.7832,34.5518 12.7305,29.6108 L12.1275,32.4225 Z" style="fill-rule: evenodd; fill: #727376; "/>
    <defs xmlns="http://www.w3.org/2000/svg">
      <radialGradient id="grad5599" cx="50.0000%" cy="50.0000%" r="100.0000%">
        <stop offset="0%" stop-color="#805a34" stop-opacity="1.0000"/>
        <stop offset="100%" stop-color="#ebc8a7" stop-opacity="1.0000"/>
      </radialGradient>
    </defs>
    <path xmlns="http://www.w3.org/2000/svg" d="  M25.6252,31.3890 C25.5652,30.7897 25.3995,30.7230 25.3995,30.7230 C25.3995,30.7230 24.0345,23.3122 23.9977,22.9575 C23.7645,20.6895 21.9952,19.9560 18.2497,19.9560 C14.5057,19.9560 11.4690,21.6982 11.4690,23.8477 C11.4690,24.2745 11.7930,32.6940 11.7765,33.4125 C11.6857,37.5375 15.3510,40.4205 20.9550,36.9907 C24.0270,35.1120 25.5382,33.3247 25.6252,31.3890 Z" style="fill-rule: evenodd; fill: url(#grad5599); "/>
    <path xmlns="http://www.w3.org/2000/svg" d="  M27.5160,14.7592 C26.4293,14.1187 24.5655,15.2002 23.4727,17.1315 C22.3785,19.0642 22.3725,21.1492 23.4607,21.7897 C24.5475,22.4302 26.5838,21.5827 27.6780,19.6500 C28.7715,17.7180 28.6028,15.3997 27.5160,14.7592 Z" style="fill-rule: evenodd; fill: #e0b897; "/>
    <defs xmlns="http://www.w3.org/2000/svg">
      <radialGradient id="grad5600" cx="0.0000%" cy="100.0000%" r="100.0000%">
        <stop offset="0%" stop-color="#ebc8a7" stop-opacity="1.0000"/>
        <stop offset="100%" stop-color="#c18b5d" stop-opacity="1.0000"/>
      </radialGradient>
    </defs>
    <path xmlns="http://www.w3.org/2000/svg" d="  M27.4575,15.8543 C26.3692,15.2138 24.6007,16.2615 23.5065,18.1943 C22.4137,20.1263 22.4077,22.2112 23.4945,22.8518 C24.5827,23.4922 26.3497,22.4445 27.4440,20.5133 C28.5382,18.5805 28.5442,16.4948 27.4575,15.8543 Z" style="fill-rule: evenodd; fill: url(#grad5600); "/>
    <defs xmlns="http://www.w3.org/2000/svg">
      <radialGradient id="grad5601" cx="50.0000%" cy="50.0000%" r="100.0000%">
        <stop offset="0%" stop-color="#fee8c5" stop-opacity="1.0000"/>
        <stop offset="100%" stop-color="#d0a481" stop-opacity="1.0000"/>
      </radialGradient>
    </defs>
    <path xmlns="http://www.w3.org/2000/svg" d="  M24.5895,17.4592 C24.5895,25.4805 20.7090,31.7025 15.1395,31.7025 C9.5670,31.7025 5.0527,25.1992 5.0527,17.1780 C5.0527,9.1560 6.6570,3.0922 15.1395,2.6528 C20.7015,2.3640 24.5895,9.4372 24.5895,17.4592 Z" style="fill-rule: evenodd; fill: url(#grad5601); "/>
    <path xmlns="http://www.w3.org/2000/svg" d="  M14.6767,31.0785 C14.7195,31.0792 14.7615,31.0830 14.8042,31.0830 C20.0587,31.0830 23.7277,25.2548 23.7795,17.7128 C23.0527,23.5665 19.1092,30.1583 14.6767,31.0785 Z" style="fill-rule: evenodd; fill: #e0b897; "/>
    <path xmlns="http://www.w3.org/2000/svg" d="  M27.4387,14.8680 C28.6417,15.2820 28.2765,17.9047 28.2472,18.2520 C30.6772,11.7105 28.8525,4.8217 25.7100,2.6107 C24.6817,1.8870 22.2570,0.2452 17.2927,0.0900 C22.2187,2.6107 23.2777,10.9200 22.1722,11.5417 C24.1545,11.1960 24.4762,15.8842 24.4762,15.8842 C24.4762,15.8842 25.5997,14.2357 27.4387,14.8680 Z" style="fill-rule: evenodd; fill: #815032; "/>
    <defs xmlns="http://www.w3.org/2000/svg">
      <radialGradient id="grad5602" cx="0.0000%" cy="0.0000%" r="100.0000%">
        <stop offset="0%" stop-color="#e0b897" stop-opacity="1.0000"/>
        <stop offset="100%" stop-color="#96613c" stop-opacity="1.0000"/>
      </radialGradient>
    </defs>
    <path xmlns="http://www.w3.org/2000/svg" d="  M27.0413,6.3105 A10.9920,6.3105 180.0000 1,1 16.0493,0.0000 A10.9920,6.3105 180.0000 0,1 27.0413,6.3105 Z" style="fill-rule: evenodd; fill: url(#grad5602); "/>
    <path xmlns="http://www.w3.org/2000/svg" d="  M23.4337,12.1432 C23.4292,12.1432 22.8652,11.0152 21.6892,11.1045 C20.5147,11.1937 18.8565,11.6947 15.5032,11.5650 C10.3410,11.5612 6.3600,9.6870 5.2387,6.9285 C5.2155,6.8745 5.2417,6.8137 5.2957,6.7912 C5.3497,6.7695 5.4112,6.7957 5.4337,6.8497 C6.4867,9.4732 11.4352,10.6800 14.9227,10.8772 C17.5875,11.0280 20.1915,10.6702 21.5730,10.7355 C22.9575,10.8015 23.4337,12.1432 23.4337,12.1432 Z" style="fill-rule: evenodd; fill: #d0a481; "/>
    <defs xmlns="http://www.w3.org/2000/svg">
      <radialGradient id="grad5603" cx="50.0000%" cy="50.0000%" r="100.0000%">
        <stop offset="0%" stop-color="#edd13d" stop-opacity="1.0000"/>
        <stop offset="100%" stop-color="#b69b0a" stop-opacity="1.0000"/>
      </radialGradient>
    </defs>
    <path xmlns="http://www.w3.org/2000/svg" d="  M34.5502,35.8402 C33.4095,35.0062 29.6595,32.4705 25.3980,30.7222 C25.4873,31.7880 25.2600,32.3700 23.9640,34.0372 C22.5593,35.8440 18.4268,37.6582 14.6108,43.4827 C12.9832,45.9675 12.2827,48.3892 8.7615,55.7565 C9.5318,56.2072 10.2878,56.6452 10.9793,57.0420 C14.0543,58.8090 18.2243,59.5035 22.9192,59.5035 C32.3017,59.5035 39.9083,55.1377 39.9083,49.7512 C39.9082,49.4655 39.9157,39.7560 34.5502,35.8402 Z" style="fill-rule: evenodd; fill: url(#grad5603); "/>
    <!--converted by libvisio2svg-->
  </g>
</svg>
