<svg xmlns="http://www.w3.org/2000/svg" xmlns:xlink="http://www.w3.org/1999/xlink" version="1.1" width="0.5621000000" height="0.8334000000" viewBox="0 0 40.4678 60.0015">
  <title><![CDATA[User 5 Right]]></title>
  <g transform=" scale(1.000000) ">
    <path xmlns="http://www.w3.org/2000/svg" d="  M0.2205,46.8360 C0.2198,46.8908 0.2175,46.9493 0.2175,47.0040 C0.2175,49.6140 1.9905,51.9863 4.8825,53.7465 C6.8175,54.9240 9.3113,56.3835 11.2890,57.5183 C14.3887,59.3010 18.5940,60.0015 23.3288,60.0015 C32.7900,60.0015 40.4602,55.5998 40.4602,50.1683 C40.4602,49.8795 40.4678,40.0890 35.0580,36.1410 C33.9158,35.3070 30.0832,32.7428 25.8285,30.9803 C25.5870,29.7075 25.0883,26.9858 24.7522,25.1070 C26.1150,25.1730 27.8587,23.8995 29.0175,21.8535 C30.2985,19.5892 30.4170,17.1675 29.3775,16.1227 C30.7080,10.2735 28.9463,4.6057 26.1428,2.6325 C25.1985,1.9680 23.0813,0.5392 18.9323,0.1702 C18.1185,0.0607 17.2725,0.0015 16.4018,0.0015 C10.2803,0.0015 5.3183,2.8500 5.3183,6.3630 C5.3183,7.3200 5.6888,8.2267 6.3480,9.0412 C5.5568,11.3647 5.3123,14.1945 5.3123,17.3220 C5.3123,20.8410 6.1778,24.0645 7.6140,26.5890 L6.1500,25.7543 C6.2550,25.3868 6.2018,25.0553 5.9918,24.9315 C5.9918,24.9315 5.3190,24.1403 4.8908,23.8298 C4.4738,23.5282 2.5028,22.2420 2.5028,22.2420 C2.5028,22.2420 1.8068,22.0935 1.7288,22.0860 C1.3140,22.0463 0.7755,22.4332 0.4185,23.0617 C0.0315,23.7465 0.0008,24.4748 0.3180,24.7853 L0.7238,25.1393 C0.7688,25.1933 0.8198,25.2390 0.8790,25.2743 C0.8790,25.2743 2.9318,26.3633 3.4050,26.5605 C3.8273,26.7368 4.9688,26.7390 4.9688,26.7390 C5.1630,26.8538 5.4405,26.7555 5.6872,26.5208 C6.3480,26.8957 7.5885,27.6000 7.5885,27.6000 C7.9080,27.7875 8.2455,27.9450 8.5920,28.0838 C9.3023,29.0273 10.1055,29.8305 10.9815,30.4545 C7.0028,31.7760 3.2160,34.2113 1.7310,38.0273 C0.8498,40.2900 0.4725,43.8113 0.2205,46.8360 Z" style="stroke-width: 1.5000; stroke: #8d98b5; stroke-dasharray: none; stroke-linecap: butt; stroke-linejoin: miter; fill: none; "/>
    <defs xmlns="http://www.w3.org/2000/svg">
      <radialGradient id="grad5604" cx="50.0000%" cy="50.0000%" r="100.0000%">
        <stop offset="0%" stop-color="#a6d6f5" stop-opacity="1.0000"/>
        <stop offset="100%" stop-color="#6c90b4" stop-opacity="1.0000"/>
      </radialGradient>
    </defs>
    <path xmlns="http://www.w3.org/2000/svg" d="  M40.4595,50.1675 C40.4595,49.8788 40.4670,40.0883 35.0573,36.1403 C33.2903,34.8495 25.0837,29.4120 18.8340,29.2230 C13.3718,29.0573 4.2450,31.5615 1.7303,38.0265 C0.8498,40.2908 0.4725,43.8113 0.2198,46.8360 C0.2190,46.8908 0.2168,46.9493 0.2168,47.0040 C0.2168,49.6140 1.9898,51.9863 4.8818,53.7465 C6.8167,54.9240 9.3105,56.3835 11.2883,57.5183 C14.3880,59.3010 18.5933,60.0015 23.3280,60.0015 C32.7892,60.0008 40.4595,55.5990 40.4595,50.1675 Z" style="fill-rule: evenodd; fill: url(#grad5604); "/>
    <path xmlns="http://www.w3.org/2000/svg" d="  M8.9992,56.3332 C12.5970,48.8160 13.3005,46.3650 14.9505,43.8465 C18.7988,37.9732 23.3722,36.4162 24.7882,34.5930 C26.8192,31.9822 26.0850,30.5947 24.2932,29.9122 C22.7100,29.3085 20.1975,28.9672 17.4982,29.5065 C14.5733,30.0915 10.5697,33.0585 9.4395,35.8282 C8.4555,38.2410 7.6343,54.6262 7.5060,53.2567 C7.7063,55.4002 7.7063,55.5742 7.7063,55.5742 L8.9992,56.3332 Z" style="fill-rule: evenodd; fill: #dae3f9; "/>
    <path xmlns="http://www.w3.org/2000/svg" d="  M11.9212,32.6670 C11.9212,32.6670 9.5482,34.1715 8.3340,43.6882 C7.8465,47.5057 7.6995,55.5592 7.6995,55.5592 L7.4970,55.4520 C7.4970,55.4520 6.9525,46.9425 7.2413,43.5810 C7.6357,38.9722 8.2320,35.8005 12.2115,30.8182 L11.9212,32.6670 Z" style="fill-rule: evenodd; fill: #dae3f9; "/>
    <path xmlns="http://www.w3.org/2000/svg" d="  M12.4470,32.6932 C12.4470,32.6932 9.6668,36.8850 8.9123,43.5240 C8.4788,47.3475 7.7055,55.5735 7.7055,55.5735 C7.7055,55.5735 7.4168,47.6865 7.7670,43.6065 C8.1623,38.9985 9.0743,34.8405 13.0545,29.8575 L12.4470,32.6932 Z" style="fill-rule: evenodd; fill: #727376; "/>
    <defs xmlns="http://www.w3.org/2000/svg">
      <radialGradient id="grad5605" cx="50.0000%" cy="50.0000%" r="100.0000%">
        <stop offset="0%" stop-color="#6f4923" stop-opacity="1.0000"/>
        <stop offset="100%" stop-color="#e5c2a0" stop-opacity="1.0000"/>
      </radialGradient>
    </defs>
    <path xmlns="http://www.w3.org/2000/svg" d="  M26.0572,31.6522 C25.9958,31.0470 25.8285,30.9802 25.8285,30.9802 C25.8285,30.9802 24.4515,23.5080 24.4148,23.1502 C24.1807,20.8635 22.3958,20.1232 18.6187,20.1232 C14.8433,20.1232 11.7818,21.8805 11.7818,24.0480 C11.7818,24.4785 11.7038,33.4335 11.6880,34.1580 C11.5958,38.3175 15.6952,40.7595 21.3473,37.3005 C24.4440,35.4052 25.9695,33.6030 26.0572,31.6522 Z" style="fill-rule: evenodd; fill: url(#grad5605); "/>
    <path xmlns="http://www.w3.org/2000/svg" d="  M27.9037,14.9167 C26.8072,14.2710 25.0237,15.3270 23.9212,17.2755 C22.8187,19.2240 22.8120,21.3270 23.9085,21.9727 C25.0057,22.6185 26.7877,21.5625 27.8917,19.6140 C28.9942,17.6655 28.9995,15.5617 27.9037,14.9167 Z" style="fill-rule: evenodd; fill: #c6a27e; "/>
    <defs xmlns="http://www.w3.org/2000/svg">
      <radialGradient id="grad5606" cx="50.0000%" cy="50.0000%" r="100.0000%">
        <stop offset="0%" stop-color="#6f4923" stop-opacity="1.0000"/>
        <stop offset="100%" stop-color="#e5c2a0" stop-opacity="1.0000"/>
      </radialGradient>
    </defs>
    <path xmlns="http://www.w3.org/2000/svg" d="  M27.9037,15.9870 C26.8072,15.3412 25.0237,16.3972 23.9212,18.3457 C22.8187,20.2942 22.8120,22.3972 23.9085,23.0430 C25.0057,23.6887 26.7877,22.6327 27.8917,20.6842 C28.9942,18.7350 28.9995,16.6327 27.9037,15.9870 Z" style="fill-rule: evenodd; fill: url(#grad5606); "/>
    <defs xmlns="http://www.w3.org/2000/svg">
      <radialGradient id="grad5607" cx="50.0000%" cy="50.0000%" r="100.0000%">
        <stop offset="0%" stop-color="#ebc8a7" stop-opacity="1.0000"/>
        <stop offset="100%" stop-color="#805a34" stop-opacity="1.0000"/>
      </radialGradient>
    </defs>
    <path xmlns="http://www.w3.org/2000/svg" d="  M25.0110,17.6055 C25.0110,25.6942 21.0998,31.9680 15.4830,31.9680 C9.8648,31.9680 5.3108,25.4100 5.3108,17.3213 C5.3108,9.2317 6.9293,3.1177 15.4830,2.6745 C21.0930,2.3842 25.0110,9.5160 25.0110,17.6055 Z" style="fill-rule: evenodd; fill: url(#grad5607); "/>
    <path xmlns="http://www.w3.org/2000/svg" d="  M15.0165,31.3380 C15.0600,31.3387 15.1027,31.3432 15.1455,31.3432 C20.4435,31.3432 24.1433,25.4662 24.1950,17.8605 C23.4630,23.7637 19.4865,30.4102 15.0165,31.3380 Z" style="fill-rule: evenodd; fill: #a17c57; "/>
    <path xmlns="http://www.w3.org/2000/svg" d="  M27.8850,14.9925 C29.0977,15.4095 28.7302,18.0547 28.6995,18.4042 C31.1520,11.8087 29.3100,4.8615 26.1420,2.6317 C25.1047,1.9020 22.6612,0.2460 17.6542,0.0892 C22.6222,2.6317 23.6902,11.0100 22.5757,11.6362 C24.5737,11.2875 24.8992,16.0147 24.8992,16.0147 C24.8992,16.0147 26.0310,14.3550 27.8850,14.9925 Z" style="fill-rule: evenodd; fill: #3d3d3d; "/>
    <defs xmlns="http://www.w3.org/2000/svg">
      <radialGradient id="grad5608" cx="50.0000%" cy="50.0000%" r="100.0000%">
        <stop offset="0%" stop-color="#8e8e8e" stop-opacity="1.0000"/>
        <stop offset="100%" stop-color="#4f4f4f" stop-opacity="1.0000"/>
      </radialGradient>
    </defs>
    <path xmlns="http://www.w3.org/2000/svg" d="  M27.4853,6.3630 A11.0842,6.3630 180.0000 1,1 16.4010,0.0000 A11.0842,6.3630 180.0000 0,1 27.4853,6.3630 Z" style="fill-rule: evenodd; fill: url(#grad5608); "/>
    <defs xmlns="http://www.w3.org/2000/svg" xmlns:xlink="http://www.w3.org/1999/xlink">
      <linearGradient id="grad5609">
        <stop offset="0%" stop-color="#7f8787" stop-opacity="1.0000"/>
        <stop offset="100%" stop-color="#dae1e1" stop-opacity="1.0000"/>
      </linearGradient>
      <linearGradient xlink:href="#grad5609" id="grad5610" x1="0" y1="0" x2="0" y2="1" gradientTransform="rotate(135 .5 .5)" gradientUnits="objectBoundingBox">
  </linearGradient>
    </defs>
    <path xmlns="http://www.w3.org/2000/svg" d="  M24.1252,12.6615 C24.1207,12.6615 23.5515,11.5237 22.3657,11.6145 C21.1815,11.7045 19.5082,12.2092 16.1280,12.0787 C10.9237,12.0750 6.9083,10.1857 5.7773,7.4040 C5.7548,7.3492 5.7818,7.2877 5.8358,7.2652 C5.8898,7.2435 5.9528,7.2697 5.9753,7.3245 C7.0365,9.9705 12.0255,11.1870 15.5437,11.3857 C18.2310,11.5380 20.8567,11.1765 22.2495,11.2425 C23.6437,11.3077 24.1252,12.6615 24.1252,12.6615 Z" style="fill-rule: evenodd; fill: url(#grad5610); "/>
    <defs xmlns="http://www.w3.org/2000/svg" xmlns:xlink="http://www.w3.org/1999/xlink">
      <linearGradient id="grad5611">
        <stop offset="0%" stop-color="#080808" stop-opacity="1.0000"/>
        <stop offset="100%" stop-color="#c4c5c6" stop-opacity="1.0000"/>
      </linearGradient>
      <linearGradient xlink:href="#grad5611" id="grad5612" x1="0" y1="0" x2="0" y2="1" gradientTransform="rotate(315 .5 .5)" gradientUnits="objectBoundingBox">
  </linearGradient>
    </defs>
    <path xmlns="http://www.w3.org/2000/svg" d="  M4.8900,23.8290 C4.4730,23.5275 2.5020,22.2412 2.5020,22.2412 C2.5020,22.2412 1.8060,22.0927 1.7280,22.0852 C1.3132,22.0455 0.7747,22.4325 0.4177,23.0610 C0.0307,23.7457 0.0000,24.4740 0.3172,24.7845 L0.8782,25.2735 C0.8782,25.2735 2.9310,26.3625 3.4042,26.5597 C3.8265,26.7360 4.9680,26.7382 4.9680,26.7382 L5.9902,24.9307 C5.9910,24.9315 5.3175,24.1395 4.8900,23.8290 Z" style="fill-rule: evenodd; fill: url(#grad5612); "/>
    <g xmlns="http://www.w3.org/2000/svg" id="Layer1161">
      <path d="  M1.2382,23.4765 C1.6590,22.7325 2.3137,22.3020 2.7787,22.4265 C2.7510,22.4025 2.5995,22.3110 2.5680,22.2915 C2.1037,22.0193 1.3507,22.4647 0.8842,23.2890 C0.4185,24.1132 0.4155,25.0020 0.8790,25.2742 C0.9240,25.3005 1.1002,25.3770 1.1490,25.3905 C0.7770,25.0597 0.8032,24.2437 1.2382,23.4765 Z" style="stroke-width: 0.0196; stroke-linecap: butt; stroke-linejoin: miter; fill-rule: evenodd; fill: #cdcfcf; "/>
      <path d="  M1.2382,23.4765 C1.6590,22.7325 2.3137,22.3020 2.7787,22.4265 C2.7510,22.4025 2.5995,22.3110 2.5680,22.2915 C2.1037,22.0193 1.3507,22.4647 0.8842,23.2890 C0.4185,24.1132 0.4155,25.0020 0.8790,25.2742 C0.9240,25.3005 1.1002,25.3770 1.1490,25.3905 C0.7770,25.0597 0.8032,24.2437 1.2382,23.4765 Z" style="stroke-width: 0.0196; stroke: #000000; stroke-dasharray: none; stroke-linecap: butt; stroke-linejoin: miter; fill: none; "/>
    </g>
    <path xmlns="http://www.w3.org/2000/svg" d="  M5.9910,24.9315 C5.7105,24.7665 5.2537,25.0372 4.9725,25.5360 C4.6890,26.0355 4.6882,26.5740 4.9687,26.7390 C5.2492,26.9040 5.7045,26.6340 5.9880,26.1352 C6.2715,25.6357 6.2730,25.0972 5.9910,24.9315 Z" style="fill-rule: evenodd; fill: #333333; "/>
    <defs xmlns="http://www.w3.org/2000/svg" xmlns:xlink="http://www.w3.org/1999/xlink">
      <linearGradient id="grad5613">
        <stop offset="0%" stop-color="#080808" stop-opacity="1.0000"/>
        <stop offset="100%" stop-color="#c4c5c6" stop-opacity="1.0000"/>
      </linearGradient>
      <linearGradient xlink:href="#grad5613" id="grad5614" x1="0" y1="0" x2="0" y2="1" gradientTransform="rotate(90 .5 .5)" gradientUnits="objectBoundingBox">
  </linearGradient>
    </defs>
    <path xmlns="http://www.w3.org/2000/svg" d="  M29.0325,15.8460 C27.6293,15.0202 25.3500,16.3710 23.9385,18.8625 C22.5285,21.3540 22.5218,24.0427 23.9243,24.8692 C25.3260,25.6950 27.6060,24.3442 29.0167,21.8535 C30.4267,19.3605 30.4335,16.6717 29.0325,15.8460 Z" style="fill-rule: evenodd; fill: url(#grad5614); "/>
    <defs xmlns="http://www.w3.org/2000/svg">
      <radialGradient id="grad5615" cx="50.0000%" cy="50.0000%" r="100.0000%">
        <stop offset="0%" stop-color="#ffffff" stop-opacity="1.0000"/>
        <stop offset="100%" stop-color="#669999" stop-opacity="1.0000"/>
      </radialGradient>
    </defs>
    <path xmlns="http://www.w3.org/2000/svg" d="  M28.4648,16.8488 C27.3743,16.2067 25.6005,17.2567 24.5033,19.1947 C23.4060,21.1320 23.4015,23.2245 24.4920,23.8665 C25.5825,24.5085 27.3548,23.4585 28.4520,21.5205 C29.5493,19.5825 29.5545,17.4908 28.4648,16.8488 Z" style="fill-rule: evenodd; fill: url(#grad5615); "/>
    <defs xmlns="http://www.w3.org/2000/svg">
      <linearGradient id="grad5616">
        <stop offset="0%" stop-color="#080808" stop-opacity="1.0000"/>
        <stop offset="100%" stop-color="#c4c5c6" stop-opacity="1.0000"/>
      </linearGradient>
    </defs>
    <path xmlns="http://www.w3.org/2000/svg" d="  M27.3105,19.6868 C27.2385,19.6448 27.1455,19.6560 27.0518,19.7078 L27.0518,19.7070 L27.0450,19.7108 C27.0398,19.7138 27.0338,19.7168 27.0293,19.7205 L26.1908,20.2073 L26.1900,20.2125 C26.0798,20.2665 25.9650,20.3760 25.8803,20.5260 C25.7280,20.7945 25.7273,21.0840 25.8773,21.1725 C25.9508,21.2160 26.0460,21.2033 26.1420,21.1493 L26.1420,21.1515 L27.0330,20.6310 L27.0330,20.6295 C27.1328,20.5703 27.2325,20.4675 27.3083,20.3325 C27.4605,20.0648 27.4613,19.7753 27.3105,19.6868 Z" style="fill-rule: evenodd; fill: url(#grad5616); "/>
    <defs xmlns="http://www.w3.org/2000/svg" xmlns:xlink="http://www.w3.org/1999/xlink">
      <linearGradient id="grad5617">
        <stop offset="0%" stop-color="#ffffff" stop-opacity="1.0000"/>
        <stop offset="100%" stop-color="#669999" stop-opacity="1.0000"/>
      </linearGradient>
      <linearGradient xlink:href="#grad5617" id="grad5618" x1="0" y1="0" x2="0" y2="1" gradientTransform="rotate(90 .5 .5)" gradientUnits="objectBoundingBox">
  </linearGradient>
    </defs>
    <path xmlns="http://www.w3.org/2000/svg" d="  M24.8535,22.5308 C24.6188,22.3928 24.2385,22.6185 24.0030,23.0340 C23.9692,23.0940 23.9415,23.1540 23.9175,23.2140 C24.0532,23.4930 24.2423,23.7188 24.4920,23.8658 C24.5115,23.8785 24.5355,23.8853 24.5565,23.8965 C24.6645,23.8043 24.7673,23.6813 24.8513,23.5328 C25.0868,23.1180 25.0875,22.6688 24.8535,22.5308 Z" style="fill-rule: evenodd; fill: url(#grad5618); "/>
    <path xmlns="http://www.w3.org/2000/svg" d="  M24.5993,22.6493 C24.4898,22.5848 24.3375,22.6268 24.1965,22.7430 L17.0558,26.8740 C16.0988,27.4320 14.3093,27.8760 12.4560,27.8723 C10.8938,27.8730 9.2820,27.5640 8.0340,26.8283 L5.7330,25.5158 C5.7300,25.5150 5.7293,25.5113 5.7270,25.5098 C5.6063,25.4385 5.4083,25.5555 5.2860,25.7708 C5.1638,25.9875 5.1638,26.2200 5.2838,26.2913 C5.2920,26.2958 7.5870,27.5993 7.5870,27.5993 C9.0240,28.4430 10.7798,28.7618 12.4553,28.7633 C14.4495,28.7595 16.3290,28.3163 17.5020,27.6450 L24.0083,23.8830 C24.2993,23.6933 24.5145,23.5358 24.5963,23.3910 C24.7710,23.0835 24.7718,22.7513 24.5993,22.6493 Z" style="fill-rule: evenodd; fill: #333333; "/>
    <!--converted by libvisio2svg-->
  </g>
</svg>
