<svg xmlns="http://www.w3.org/2000/svg" xmlns:xlink="http://www.w3.org/1999/xlink" version="1.1" width="0.8162000000" height="0.8435000000" viewBox="0 0 58.7685 60.7343">
  <title><![CDATA[User Services]]></title>
  <g transform=" scale(1.000000) ">
    <path xmlns="http://www.w3.org/2000/svg" d="  M0.0038,46.8360 C0.2565,43.8113 0.6338,40.2900 1.5143,38.0265 C2.9985,34.2105 6.7860,31.7753 10.7648,30.4538 C7.4055,28.0628 5.0948,23.0820 5.0948,17.3220 C5.0948,14.1945 5.3393,11.3648 6.1305,9.0413 C5.4713,8.2275 5.1007,7.3208 5.1007,6.3630 C5.1007,2.8500 10.0628,0.0015 16.1843,0.0015 C17.0550,0.0015 17.9010,0.0608 18.7148,0.1703 C22.8637,0.5393 24.9810,1.9680 25.9252,2.6325 C29.0940,4.8623 30.9352,11.8088 28.4828,18.4050 C28.5082,18.1155 28.3440,19.5000 27.6750,20.6850 C26.7307,22.3523 25.2900,23.3618 24.2070,23.2155 C24.3120,23.9288 25.2503,29.0775 25.6110,30.9803 C29.8658,32.7428 33.6975,35.3070 34.8405,36.1410 C40.2503,40.0890 40.2428,49.8795 40.2428,50.1683 C40.2428,55.5998 32.5725,60.0015 23.1113,60.0015 C18.3765,60.0015 14.1713,59.3010 11.0715,57.5183 C9.7875,56.7818 8.2867,55.9087 6.8618,55.0635 L6.8497,55.0575 L6.8497,55.0560 C6.0840,54.6030 5.3393,54.1568 4.6650,53.7465 C1.7738,51.9855 0.0000,49.6140 0.0000,47.0040 C0.0008,46.9492 0.0030,46.8907 0.0038,46.8360 Z" style="stroke-width: 1.5000; stroke: #8d98b5; stroke-dasharray: none; stroke-linecap: butt; stroke-linejoin: miter; fill: none; "/>
    <path xmlns="http://www.w3.org/2000/svg" d="  M57.7950,54.9300 L57.8055,54.9240 L57.7328,54.8377 C57.6907,54.7807 57.6428,54.7222 57.5963,54.6652 L57.5415,54.6075 L56.5410,53.4082 C56.9445,53.1360 58.6162,51.9697 58.6808,51.9450 C58.7340,51.9255 58.7670,51.8782 58.7670,51.8062 L58.7670,48.3112 C58.7670,48.2370 58.7310,48.1492 58.6740,48.0645 L58.6927,48.0525 C58.5210,47.7322 56.4090,46.5600 56.4090,46.5600 C56.4090,46.5600 56.4060,46.5615 56.4053,46.5630 L56.3812,46.5480 C56.3055,46.0207 56.2568,45.7687 56.1323,45.2355 C56.6070,45.0127 57.7552,44.1105 57.7687,44.1007 C57.8595,44.0362 57.8918,43.9155 57.8408,43.7827 L56.3258,39.8827 C56.2575,39.7042 56.0618,39.5722 55.8810,39.5775 L55.9005,39.5670 L54.1778,39.6337 L54.0930,39.6367 C53.7263,38.9250 53.3243,38.2282 52.8907,37.5547 L53.8260,36.0555 C53.8462,36.0255 53.8597,35.9910 53.8703,35.9550 C53.8793,35.9295 53.8845,35.9047 53.8875,35.8770 C53.8875,35.8762 53.8875,35.8762 53.8875,35.8762 C53.9063,35.7457 53.8777,35.6017 53.7945,35.4983 L51.1733,32.2365 C51.0810,32.1217 50.9535,32.0910 50.8508,32.1450 C50.8373,32.1525 49.2060,33.1058 49.1895,33.0900 C48.8175,32.7465 48.4365,32.4210 48.0480,32.1157 L48.0473,32.0842 L47.9760,29.7705 C47.9760,29.5222 47.8582,29.2545 47.7157,29.1705 L44.6400,27.2910 C44.5860,27.2595 44.5358,27.2595 44.4945,27.2835 C44.4683,27.2992 42.7500,28.2968 42.3068,28.5503 L41.6655,27.0135 C41.6272,26.9205 41.6010,26.8568 41.5913,26.8343 C41.5492,26.7503 41.4968,26.6857 41.4592,26.6452 C41.3798,26.5493 41.2958,26.4900 41.2305,26.4960 L38.7120,26.7195 C38.5972,26.7353 38.4757,26.8125 38.4757,26.8125 C38.4757,26.8125 36.5302,27.6870 36.1275,27.8948 C36.0690,27.9097 36.0150,27.9382 35.9722,27.9818 C35.5222,28.2397 33.6548,29.3108 33.6248,29.3175 C33.6240,29.3175 33.6255,29.3220 33.6285,29.3295 C33.5670,29.3520 33.5130,29.3902 33.4733,29.4450 L31.9598,31.5990 C31.8000,31.8263 31.9538,32.2080 32.1728,32.4810 L33.2693,33.9075 C32.7000,34.1700 31.2083,34.8360 31.1498,34.8697 C31.1498,34.8697 31.1513,34.8720 31.1520,34.8735 C31.0530,34.9410 30.9900,35.0535 30.9900,35.1900 L30.9900,38.6857 C30.9900,38.9730 31.2450,39.2685 31.4910,39.4102 L33.3938,40.5885 C33.4815,41.1787 33.6015,41.7795 33.7500,42.3802 L32.9813,42.4928 C32.9325,42.4973 32.8920,42.5145 32.8568,42.5385 L32.3370,42.6143 C32.1788,42.6293 32.0423,42.7102 31.9650,42.8363 C31.8825,42.9683 31.8713,43.1363 31.9343,43.2983 L33.4478,47.1990 C33.5498,47.4637 33.8243,47.6550 34.1018,47.6550 C34.1190,47.6550 34.1378,47.6535 34.1415,47.6528 L35.7578,47.5965 C36.0863,48.2235 36.4440,48.8437 36.8243,49.4453 L35.9738,50.8057 C35.8058,51.0473 35.8237,51.4080 36.0143,51.6435 L38.6362,54.9060 C38.7405,55.0365 38.8868,55.1100 39.0360,55.1100 C39.1283,55.1100 39.2145,55.0800 39.2895,55.0320 L39.2880,55.0342 C39.3855,54.9765 40.2240,54.4785 40.7438,54.1635 C41.0603,54.4522 41.3813,54.7335 41.7120,54.9953 L41.7810,57.2265 C41.7810,57.5168 41.9115,57.8858 42.1590,58.0275 L45.1860,59.7758 C45.2505,59.8133 45.3180,59.8320 45.3863,59.8320 C45.4358,59.8320 45.4853,59.8208 45.5310,59.8005 C45.5287,59.8043 45.5265,59.8103 45.5235,59.8118 C45.6203,59.7645 46.8697,58.8308 47.4368,58.4453 L48.1230,60.1035 C48.2348,60.3953 48.4672,60.7343 48.7507,60.7343 L48.7710,60.7335 L48.7815,60.7328 L51.4035,60.4988 C51.4680,60.4928 51.5265,60.4665 51.5753,60.4268 C51.6818,60.3773 53.0873,59.3805 53.6048,59.0123 C53.6768,59.0505 53.7525,59.0775 53.8320,59.0775 C53.8920,59.0775 53.9475,59.0618 53.9970,59.0340 C54.0052,59.0363 54.0098,59.0378 54.0098,59.0393 C54.2235,58.9283 56.2875,57.4718 56.3258,57.4155 L57.8408,55.2630 C57.8760,55.2127 57.8715,55.1212 57.8348,55.0140 C57.8257,54.9870 57.8122,54.9585 57.7950,54.9300 Z M49.7632,47.7772 C49.7632,49.0650 49.4595,50.1105 48.9105,50.8357 C48.0855,50.8282 47.1592,50.5605 46.1767,49.9935 C42.7485,48.0127 39.9690,43.1992 39.9690,39.2415 C39.9690,38.0992 40.2037,37.1565 40.6148,36.4365 C40.7460,36.4207 40.8788,36.4117 41.0167,36.4117 C41.8410,36.4117 42.7335,36.6855 43.6718,37.2277 C47.0317,39.1657 49.7632,43.8982 49.7632,47.7772 Z M40.1580,53.9775 L40.3200,53.7727 C40.3200,53.7727 40.3223,53.7757 40.3237,53.7765 C40.2765,53.8342 40.2195,53.9025 40.1580,53.9775 Z M51.5827,60.4222 C51.5887,60.4170 51.5947,60.4132 51.6000,60.4080 C51.5955,60.4155 51.5887,60.4185 51.5827,60.4222 Z" style="stroke-width: 1.5000; stroke: #8d98b5; stroke-dasharray: none; stroke-linecap: butt; stroke-linejoin: miter; fill: none; "/>
    <defs xmlns="http://www.w3.org/2000/svg">
      <radialGradient id="grad5631" cx="50.0000%" cy="50.0000%" r="100.0000%">
        <stop offset="0%" stop-color="#a6d6f5" stop-opacity="1.0000"/>
        <stop offset="100%" stop-color="#6c90b4" stop-opacity="1.0000"/>
      </radialGradient>
    </defs>
    <path xmlns="http://www.w3.org/2000/svg" d="  M40.2435,50.1675 C40.2435,49.8788 40.2510,40.0883 34.8413,36.1403 C33.0743,34.8495 24.8678,29.4120 18.6180,29.2230 C13.1558,29.0573 4.0290,31.5615 1.5143,38.0265 C0.6338,40.2908 0.2565,43.8113 0.0038,46.8360 C0.0030,46.8908 0.0008,46.9493 0.0008,47.0040 C0.0008,49.6140 1.7738,51.9863 4.6658,53.7465 C6.6007,54.9240 9.0945,56.3835 11.0723,57.5183 C14.1720,59.3010 18.3773,60.0015 23.1120,60.0015 C32.5732,60.0008 40.2435,55.5990 40.2435,50.1675 Z" style="fill-rule: evenodd; fill: url(#grad5631); "/>
    <path xmlns="http://www.w3.org/2000/svg" d="  M8.7825,56.3332 C12.3803,48.8160 13.0838,46.3650 14.7338,43.8465 C18.5820,37.9732 23.1555,36.4162 24.5715,34.5930 C26.6025,31.9822 25.8683,30.5947 24.0765,29.9122 C22.4933,29.3085 19.9808,28.9672 17.2815,29.5065 C14.3565,30.0915 10.3530,33.0585 9.2228,35.8282 C8.2388,38.2410 7.4175,54.6262 7.2893,53.2567 C7.4895,55.4002 7.4895,55.5742 7.4895,55.5742 L8.7825,56.3332 Z" style="fill-rule: evenodd; fill: #dae3f9; "/>
    <path xmlns="http://www.w3.org/2000/svg" d="  M11.7052,32.6670 C11.7052,32.6670 9.3322,34.1715 8.1180,43.6883 C7.6305,47.5057 7.4835,55.5592 7.4835,55.5592 L7.2810,55.4520 C7.2810,55.4520 6.7365,46.9425 7.0252,43.5810 C7.4197,38.9722 8.0160,35.8005 11.9955,30.8182 L11.7052,32.6670 Z" style="fill-rule: evenodd; fill: #dae3f9; "/>
    <path xmlns="http://www.w3.org/2000/svg" d="  M12.2310,32.6932 C12.2310,32.6932 9.4508,36.8850 8.6963,43.5240 C8.2628,47.3475 7.4895,55.5735 7.4895,55.5735 C7.4895,55.5735 7.2008,47.6865 7.5510,43.6065 C7.9463,38.9985 8.8583,34.8405 12.8385,29.8575 L12.2310,32.6932 Z" style="fill-rule: evenodd; fill: #727376; "/>
    <defs xmlns="http://www.w3.org/2000/svg">
      <radialGradient id="grad5632" cx="50.0000%" cy="50.0000%" r="100.0000%">
        <stop offset="0%" stop-color="#6f4923" stop-opacity="1.0000"/>
        <stop offset="100%" stop-color="#e5c2a0" stop-opacity="1.0000"/>
      </radialGradient>
    </defs>
    <path xmlns="http://www.w3.org/2000/svg" d="  M25.8412,31.6522 C25.7797,31.0477 25.6125,30.9802 25.6125,30.9802 C25.6125,30.9802 24.2355,23.5073 24.1987,23.1502 C23.9647,20.8635 22.1798,20.1232 18.4027,20.1232 C14.6273,20.1232 11.5658,21.8805 11.5658,24.0480 C11.5658,24.4785 11.4878,33.4335 11.4720,34.1580 C11.3798,38.3175 15.4792,40.7595 21.1313,37.3005 C24.2280,35.4052 25.7528,33.6030 25.8412,31.6522 Z" style="fill-rule: evenodd; fill: url(#grad5632); "/>
    <path xmlns="http://www.w3.org/2000/svg" d="  M27.6878,14.9167 C26.5913,14.2710 24.8078,15.3270 23.7053,17.2755 C22.6028,19.2240 22.5960,21.3270 23.6925,21.9727 C24.7898,22.6185 26.5718,21.5625 27.6758,19.6140 C28.7783,17.6655 28.7827,15.5617 27.6878,14.9167 Z" style="fill-rule: evenodd; fill: #c6a27e; "/>
    <defs xmlns="http://www.w3.org/2000/svg">
      <radialGradient id="grad5633" cx="50.0000%" cy="50.0000%" r="100.0000%">
        <stop offset="0%" stop-color="#6f4923" stop-opacity="1.0000"/>
        <stop offset="100%" stop-color="#e5c2a0" stop-opacity="1.0000"/>
      </radialGradient>
    </defs>
    <path xmlns="http://www.w3.org/2000/svg" d="  M27.6878,15.9870 C26.5913,15.3412 24.8078,16.3972 23.7053,18.3457 C22.6028,20.2942 22.5960,22.3972 23.6925,23.0430 C24.7898,23.6887 26.5718,22.6327 27.6758,20.6842 C28.7783,18.7350 28.7827,16.6327 27.6878,15.9870 Z" style="fill-rule: evenodd; fill: url(#grad5633); "/>
    <defs xmlns="http://www.w3.org/2000/svg">
      <radialGradient id="grad5634" cx="50.0000%" cy="50.0000%" r="100.0000%">
        <stop offset="0%" stop-color="#ebc8a7" stop-opacity="1.0000"/>
        <stop offset="100%" stop-color="#805a34" stop-opacity="1.0000"/>
      </radialGradient>
    </defs>
    <path xmlns="http://www.w3.org/2000/svg" d="  M24.7950,17.6055 C24.7950,25.6942 20.8838,31.9680 15.2670,31.9680 C9.6488,31.9680 5.0948,25.4100 5.0948,17.3212 C5.0948,9.2317 6.7133,3.1177 15.2670,2.6745 C20.8762,2.3842 24.7950,9.5160 24.7950,17.6055 Z" style="fill-rule: evenodd; fill: url(#grad5634); "/>
    <path xmlns="http://www.w3.org/2000/svg" d="  M14.8005,31.3380 C14.8440,31.3387 14.8867,31.3425 14.9295,31.3425 C20.2275,31.3425 23.9273,25.4662 23.9790,17.8597 C23.2470,23.7637 19.2705,30.4102 14.8005,31.3380 Z" style="fill-rule: evenodd; fill: #a17c57; "/>
    <path xmlns="http://www.w3.org/2000/svg" d="  M27.6690,14.9925 C28.8817,15.4095 28.5142,18.0547 28.4835,18.4042 C30.9360,11.8087 29.0940,4.8615 25.9260,2.6317 C24.8887,1.9020 22.4452,0.2460 17.4382,0.0892 C22.4062,2.6317 23.4742,11.0100 22.3597,11.6362 C24.3577,11.2875 24.6832,16.0147 24.6832,16.0147 C24.6832,16.0147 25.8142,14.3550 27.6690,14.9925 Z" style="fill-rule: evenodd; fill: #3d3d3d; "/>
    <defs xmlns="http://www.w3.org/2000/svg">
      <radialGradient id="grad5635" cx="50.0000%" cy="50.0000%" r="100.0000%">
        <stop offset="0%" stop-color="#8e8e8e" stop-opacity="1.0000"/>
        <stop offset="100%" stop-color="#4f4f4f" stop-opacity="1.0000"/>
      </radialGradient>
    </defs>
    <path xmlns="http://www.w3.org/2000/svg" d="  M27.2693,6.3630 A11.0842,6.3630 180.0000 1,1 16.1850,0.0000 A11.0842,6.3630 180.0000 0,1 27.2693,6.3630 Z" style="fill-rule: evenodd; fill: url(#grad5635); "/>
    <defs xmlns="http://www.w3.org/2000/svg" xmlns:xlink="http://www.w3.org/1999/xlink">
      <linearGradient id="grad5636">
        <stop offset="0%" stop-color="#7f8787" stop-opacity="1.0000"/>
        <stop offset="100%" stop-color="#dae1e1" stop-opacity="1.0000"/>
      </linearGradient>
      <linearGradient xlink:href="#grad5636" id="grad5637" x1="0" y1="0" x2="0" y2="1" gradientTransform="rotate(135 .5 .5)" gradientUnits="objectBoundingBox">
  </linearGradient>
    </defs>
    <path xmlns="http://www.w3.org/2000/svg" d="  M23.9085,12.6615 C23.9040,12.6615 23.3348,11.5237 22.1490,11.6145 C20.9648,11.7045 19.2915,12.2092 15.9113,12.0787 C10.7070,12.0750 6.6915,10.1857 5.5605,7.4040 C5.5380,7.3492 5.5650,7.2877 5.6190,7.2652 C5.6730,7.2435 5.7360,7.2697 5.7585,7.3245 C6.8198,9.9705 11.8088,11.1870 15.3270,11.3857 C18.0143,11.5380 20.6400,11.1765 22.0327,11.2425 C23.4278,11.3077 23.9085,12.6615 23.9085,12.6615 Z" style="fill-rule: evenodd; fill: url(#grad5637); "/>
    <path xmlns="http://www.w3.org/2000/svg" d="  M33.4882,33.8055 C33.3915,33.8610 31.2225,34.8292 31.1513,34.8705 C31.1483,34.8712 31.3155,35.0535 31.3140,35.0542 C31.3853,35.0272 31.4925,35.0445 31.6155,35.1150 L33.6105,36.1845 C33.7133,35.5897 33.8595,35.0385 34.0492,34.5360 L33.4882,33.8055 Z" style="fill-rule: evenodd; fill: #bdd1dd; "/>
    <defs xmlns="http://www.w3.org/2000/svg" xmlns:xlink="http://www.w3.org/1999/xlink">
      <linearGradient id="grad5638">
        <stop offset="0%" stop-color="#bdd1dd" stop-opacity="0.9882"/>
        <stop offset="100%" stop-color="#f3f9f7" stop-opacity="0.9882"/>
      </linearGradient>
      <linearGradient xlink:href="#grad5638" id="grad5639" x1="0" y1="0" x2="0" y2="1" gradientTransform="rotate(90 .5 .5)" gradientUnits="objectBoundingBox">
  </linearGradient>
    </defs>
    <path xmlns="http://www.w3.org/2000/svg" d="  M33.9210,42.0847 C33.9240,42.1155 33.9300,42.1477 33.9427,42.1800 L33.9488,42.1957 C33.9608,42.2460 33.9735,42.2970 33.9855,42.3465 L32.9820,42.4927 C32.8192,42.5077 32.7285,42.6337 32.7562,42.7897 L34.0492,42.6007 C34.0042,42.4290 33.9615,42.2558 33.9210,42.0833 L33.9210,42.0847 Z" style="fill-rule: evenodd; fill: url(#grad5639); "/>
    <defs xmlns="http://www.w3.org/2000/svg" xmlns:xlink="http://www.w3.org/1999/xlink">
      <linearGradient id="grad5640">
        <stop offset="0%" stop-color="#646c6b" stop-opacity="1.0000"/>
        <stop offset="100%" stop-color="#dae1e1" stop-opacity="1.0000"/>
      </linearGradient>
      <linearGradient xlink:href="#grad5640" id="grad5641" x1="0" y1="0" x2="0" y2="1" gradientTransform="rotate(135 .5 .5)" gradientUnits="objectBoundingBox">
  </linearGradient>
    </defs>
    <path xmlns="http://www.w3.org/2000/svg" d="  M36.1358,28.1542 C36.1343,28.1557 36.1313,28.1572 36.1313,28.1580 L36.0705,27.9270 C36.0705,27.9270 33.6600,29.3115 33.6255,29.3182 C33.6232,29.3190 33.7185,29.5470 33.7170,29.5477 C33.8115,29.5215 33.9795,29.6242 34.1333,29.8147 L35.8988,31.9147 C36.2663,31.6260 36.6690,31.3935 37.1025,31.2187 L36.1665,28.6410 C36.0818,28.4205 36.0735,28.2292 36.1358,28.1542 Z" style="fill-rule: evenodd; fill: url(#grad5641); "/>
    <defs xmlns="http://www.w3.org/2000/svg" xmlns:xlink="http://www.w3.org/1999/xlink">
      <linearGradient id="grad5642">
        <stop offset="0%" stop-color="#080808" stop-opacity="1.0000"/>
        <stop offset="100%" stop-color="#dae1e1" stop-opacity="1.0000"/>
      </linearGradient>
      <linearGradient xlink:href="#grad5642" id="grad5643" x1="0" y1="0" x2="0" y2="1" gradientTransform="rotate(135 .5 .5)" gradientUnits="objectBoundingBox">
  </linearGradient>
    </defs>
    <path xmlns="http://www.w3.org/2000/svg" d="  M58.3777,47.7855 L56.3812,46.5480 C56.3055,46.0207 56.2568,45.7687 56.1322,45.2355 C56.6070,45.0127 57.7553,44.1105 57.7687,44.1008 C57.8595,44.0363 57.8917,43.9155 57.8407,43.7828 L56.3258,39.8827 C56.2553,39.6968 56.0460,39.5603 55.8600,39.5768 L54.0937,39.6367 C53.7270,38.9250 53.3250,38.2282 52.8915,37.5548 L53.8267,36.0555 C53.9340,35.9033 53.9198,35.6535 53.7952,35.4990 L51.1740,32.2373 C51.0818,32.1225 50.9542,32.0917 50.8515,32.1457 C50.8380,32.1533 49.2068,33.1065 49.1903,33.0907 C48.8183,32.7472 48.4373,32.4218 48.0488,32.1165 L47.9768,29.7713 C47.9768,29.5230 47.8590,29.2552 47.7165,29.1712 L44.6408,27.2918 C44.5868,27.2602 44.5365,27.2602 44.4953,27.2842 C44.4690,27.3000 42.7508,28.2975 42.3075,28.5510 L41.6505,26.9782 C41.5433,26.7015 41.3558,26.4855 41.2313,26.4968 L38.7128,26.7203 C38.5980,26.7360 38.4765,26.8133 38.4765,26.8133 C38.4765,26.8133 36.2813,27.7995 36.0705,27.9263 C36.0743,27.9255 36.2880,28.1108 36.2925,28.1100 L38.8185,27.8850 C38.9438,27.8737 39.1313,28.0890 39.2385,28.3665 L40.2975,30.9285 C40.8278,31.0155 41.3783,31.1640 41.9438,31.3732 L42.0165,29.1105 C42.0165,28.8615 42.1328,28.7280 42.2768,28.8113 L45.3037,30.5587 C45.4470,30.6420 45.5648,30.9105 45.5648,31.1580 L45.6375,33.5033 C46.2023,33.9480 46.7520,34.4340 47.2823,34.9583 L48.3420,33.6202 C48.4500,33.4673 48.6375,33.4688 48.7620,33.6240 L51.3832,36.8850 C51.5070,37.0403 51.5220,37.2892 51.4147,37.4415 L50.4795,38.9415 C50.9123,39.6150 51.3142,40.3118 51.6817,41.0235 L53.4480,40.9642 C53.6340,40.9470 53.8433,41.0835 53.9138,41.2688 L55.4287,45.1695 C55.5008,45.3548 55.4077,45.5183 55.2225,45.5347 L53.5335,45.7830 C53.7217,46.5037 53.8687,47.2230 53.9700,47.9348 L55.9665,49.1708 C56.1810,49.2953 56.3550,49.5300 56.3550,49.6965 L56.3550,53.1915 C56.3550,53.3573 56.1817,53.3910 55.9665,53.2673 L53.9700,52.1993 C53.8687,52.7933 53.7217,53.3438 53.5335,53.8455 L55.2225,56.0453 C55.4077,56.2770 55.5008,56.5470 55.4287,56.6490 L53.8282,58.9800 C53.8267,58.9823 54.0120,59.0348 54.0105,59.0378 C54.2242,58.9268 56.2882,57.4703 56.3265,57.4140 L57.8415,55.2615 C57.8768,55.2113 57.8722,55.1198 57.8355,55.0125 C57.7987,54.9023 57.6922,54.7800 57.5977,54.6623 L56.4563,53.4630 C56.5605,53.4030 58.6103,51.9690 58.6822,51.9420 C58.7355,51.9225 58.7685,51.8753 58.7685,51.8033 L58.7685,48.3083 C58.7670,48.1448 58.5930,47.9093 58.3777,47.7855 Z" style="fill-rule: evenodd; fill: url(#grad5643); "/>
    <defs xmlns="http://www.w3.org/2000/svg" xmlns:xlink="http://www.w3.org/1999/xlink">
      <linearGradient id="grad5644">
        <stop offset="0%" stop-color="#646c6b" stop-opacity="1.0000"/>
        <stop offset="100%" stop-color="#ffffff" stop-opacity="1.0000"/>
      </linearGradient>
      <linearGradient xlink:href="#grad5644" id="grad5645" x1="0" y1="0" x2="0" y2="1" gradientTransform="rotate(315 .5 .5)" gradientUnits="objectBoundingBox">
  </linearGradient>
    </defs>
    <path xmlns="http://www.w3.org/2000/svg" d="  M46.1775,49.9935 C42.7492,48.0127 39.9697,43.1992 39.9697,39.2415 C39.9697,37.9627 40.2615,36.9315 40.7692,36.1860 C38.8695,36.3142 37.5825,37.9162 37.5825,40.6080 C37.5825,44.5672 40.3620,49.3807 43.7895,51.3600 C46.1130,52.7017 48.1365,52.3957 49.2015,50.8290 C48.3067,50.8905 47.2762,50.6272 46.1775,49.9935 Z" style="fill-rule: evenodd; fill: url(#grad5645); "/>
    <defs xmlns="http://www.w3.org/2000/svg" xmlns:xlink="http://www.w3.org/1999/xlink">
      <linearGradient id="grad5646">
        <stop offset="0%" stop-color="#bdd1dd" stop-opacity="0.9882"/>
        <stop offset="100%" stop-color="#f3f9f7" stop-opacity="0.9882"/>
      </linearGradient>
      <linearGradient xlink:href="#grad5646" id="grad5647" x1="0" y1="0" x2="0" y2="1" gradientTransform="rotate(90 .5 .5)" gradientUnits="objectBoundingBox">
  </linearGradient>
    </defs>
    <path xmlns="http://www.w3.org/2000/svg" d="  M45.4058,59.5965 C45.4058,59.5965 45.4080,59.5950 45.4087,59.5950 C45.4012,59.5965 45.3937,59.5950 45.3870,59.5950 C45.3922,59.5950 45.3997,59.5965 45.4058,59.5965 Z" style="fill-rule: evenodd; fill: url(#grad5647); "/>
    <defs xmlns="http://www.w3.org/2000/svg" xmlns:xlink="http://www.w3.org/1999/xlink">
      <linearGradient id="grad5648">
        <stop offset="0%" stop-color="#080808" stop-opacity="1.0000"/>
        <stop offset="100%" stop-color="#dae1e1" stop-opacity="1.0000"/>
      </linearGradient>
      <linearGradient xlink:href="#grad5648" id="grad5649" x1="0" y1="0" x2="0" y2="1" gradientTransform="rotate(315 .5 .5)" gradientUnits="objectBoundingBox">
  </linearGradient>
    </defs>
    <path xmlns="http://www.w3.org/2000/svg" d="  M53.4473,58.5705 L51.6818,56.4720 C51.3150,56.7592 50.9123,56.9910 50.4788,57.1650 L51.4140,59.7442 C51.5213,60.0210 51.6893,60.4207 51.5663,60.4327 C51.6203,60.4275 53.7953,58.8772 53.7953,58.8772 C53.8095,58.8675 53.8163,58.8540 53.8283,58.8420 C53.7300,58.8397 53.5830,58.7385 53.4473,58.5705 Z" style="fill-rule: evenodd; fill: url(#grad5649); "/>
    <defs xmlns="http://www.w3.org/2000/svg" xmlns:xlink="http://www.w3.org/1999/xlink">
      <linearGradient id="grad5650">
        <stop offset="0%" stop-color="#bdd1dd" stop-opacity="0.9882"/>
        <stop offset="100%" stop-color="#f3f9f7" stop-opacity="0.9882"/>
      </linearGradient>
      <linearGradient xlink:href="#grad5650" id="grad5651" x1="0" y1="0" x2="0" y2="1" gradientTransform="rotate(90 .5 .5)" gradientUnits="objectBoundingBox">
  </linearGradient>
    </defs>
    <path xmlns="http://www.w3.org/2000/svg" d="  M53.8372,58.8427 L53.8365,58.8427 L53.8372,58.8427 Z" style="fill-rule: evenodd; fill: url(#grad5651); "/>
    <defs xmlns="http://www.w3.org/2000/svg" xmlns:xlink="http://www.w3.org/1999/xlink">
      <linearGradient id="grad5652">
        <stop offset="0%" stop-color="#080808" stop-opacity="1.0000"/>
        <stop offset="100%" stop-color="#dae1e1" stop-opacity="1.0000"/>
      </linearGradient>
      <linearGradient xlink:href="#grad5652" id="grad5653" x1="0" y1="0" x2="0" y2="1" gradientTransform="rotate(135 .5 .5)" gradientUnits="objectBoundingBox">
  </linearGradient>
    </defs>
    <path xmlns="http://www.w3.org/2000/svg" d="  M45.6375,57.0120 L45.5640,59.2747 C45.5640,59.4240 45.5887,59.7682 45.5235,59.8125 C45.6330,59.7585 47.2620,58.5382 47.6355,58.3155 L48.3405,60.0187 L47.2807,57.4560 C46.7520,57.3690 46.2022,57.2205 45.6375,57.0120 Z" style="fill-rule: evenodd; fill: url(#grad5653); "/>
    <defs xmlns="http://www.w3.org/2000/svg" xmlns:xlink="http://www.w3.org/1999/xlink">
      <linearGradient id="grad5654">
        <stop offset="0%" stop-color="#bdd1dd" stop-opacity="0.9882"/>
        <stop offset="100%" stop-color="#f3f9f7" stop-opacity="0.9882"/>
      </linearGradient>
      <linearGradient xlink:href="#grad5654" id="grad5655" x1="0" y1="0" x2="0" y2="1" gradientTransform="rotate(90 .5 .5)" gradientUnits="objectBoundingBox">
  </linearGradient>
    </defs>
    <path xmlns="http://www.w3.org/2000/svg" d="  M39.0630,54.8753 C39.0645,54.8745 39.0683,54.8723 39.0698,54.8723 C39.0630,54.8730 39.0570,54.8738 39.0510,54.8745 C39.0548,54.8745 39.0593,54.8753 39.0630,54.8753 Z" style="fill-rule: evenodd; fill: url(#grad5655); "/>
    <defs xmlns="http://www.w3.org/2000/svg" xmlns:xlink="http://www.w3.org/1999/xlink">
      <linearGradient id="grad5656">
        <stop offset="0%" stop-color="#080808" stop-opacity="1.0000"/>
        <stop offset="100%" stop-color="#dae1e1" stop-opacity="1.0000"/>
      </linearGradient>
      <linearGradient xlink:href="#grad5656" id="grad5657" x1="0" y1="0" x2="0" y2="1" gradientTransform="rotate(45 .5 .5)" gradientUnits="objectBoundingBox">
  </linearGradient>
    </defs>
    <path xmlns="http://www.w3.org/2000/svg" d="  M52.8915,37.5548 L53.8267,36.0555 C53.8620,36.0045 53.8792,35.9430 53.8882,35.8770 L51.4710,37.3140 C51.4590,37.3613 51.4403,37.4055 51.4140,37.4430 L50.4788,38.9430 C50.5027,38.9798 50.5237,39.0188 50.5470,39.0555 C50.5470,39.0555 52.9042,37.5735 52.8915,37.5548 Z" style="fill-rule: evenodd; fill: url(#grad5657); "/>
    <path xmlns="http://www.w3.org/2000/svg" d="  M41.9438,31.3732 C41.9438,31.3732 42.7013,29.5327 42.7110,29.4675 L40.2923,30.9052 L41.9438,31.3732 Z" style="fill-rule: evenodd; fill: #333333; fill-opacity: 0.9882; "/>
    <defs xmlns="http://www.w3.org/2000/svg" xmlns:xlink="http://www.w3.org/1999/xlink">
      <linearGradient id="grad5658">
        <stop offset="0%" stop-color="#bdd1dd" stop-opacity="0.9882"/>
        <stop offset="100%" stop-color="#f3f9f7" stop-opacity="0.9882"/>
      </linearGradient>
      <linearGradient xlink:href="#grad5658" id="grad5659" x1="0" y1="0" x2="0" y2="1" gradientTransform="rotate(90 .5 .5)" gradientUnits="objectBoundingBox">
  </linearGradient>
    </defs>
    <path xmlns="http://www.w3.org/2000/svg" d="  M54.0848,39.6383 L55.9013,39.5670 L53.3220,40.9725 L51.6728,41.0250 C51.6720,41.0258 54.0960,39.6563 54.0848,39.6383 Z" style="fill-rule: evenodd; fill: url(#grad5659); "/>
    <defs xmlns="http://www.w3.org/2000/svg" xmlns:xlink="http://www.w3.org/1999/xlink">
      <linearGradient id="grad5660">
        <stop offset="0%" stop-color="#85919c" stop-opacity="0.9882"/>
        <stop offset="100%" stop-color="#bdd1dd" stop-opacity="0.9882"/>
      </linearGradient>
      <linearGradient xlink:href="#grad5660" id="grad5661" x1="0" y1="0" x2="0" y2="1" gradientTransform="rotate(315 .5 .5)" gradientUnits="objectBoundingBox">
  </linearGradient>
    </defs>
    <path xmlns="http://www.w3.org/2000/svg" d="  M56.4090,46.5600 C56.4090,46.5600 58.5210,47.7323 58.6928,48.0525 L56.3048,49.4798 L53.9962,47.9468 C53.9970,47.9468 56.4210,46.5788 56.4090,46.5600 Z" style="fill-rule: evenodd; fill: url(#grad5661); "/>
    <defs xmlns="http://www.w3.org/2000/svg" xmlns:xlink="http://www.w3.org/1999/xlink">
      <linearGradient id="grad5662">
        <stop offset="0%" stop-color="#85919c" stop-opacity="0.9882"/>
        <stop offset="100%" stop-color="#bdd1dd" stop-opacity="0.9882"/>
      </linearGradient>
      <linearGradient xlink:href="#grad5662" id="grad5663" x1="0" y1="0" x2="0" y2="1" gradientTransform="rotate(315 .5 .5)" gradientUnits="objectBoundingBox">
  </linearGradient>
    </defs>
    <path xmlns="http://www.w3.org/2000/svg" d="  M56.4083,53.2492 L57.8048,54.9240 L55.3860,56.2845 L53.5463,53.8410 C53.5470,53.8417 56.4210,53.2680 56.4083,53.2492 Z" style="fill-rule: evenodd; fill: url(#grad5663); "/>
    <defs xmlns="http://www.w3.org/2000/svg" xmlns:xlink="http://www.w3.org/1999/xlink">
      <linearGradient id="grad5664">
        <stop offset="0%" stop-color="#080808" stop-opacity="1.0000"/>
        <stop offset="100%" stop-color="#dae1e1" stop-opacity="1.0000"/>
      </linearGradient>
      <linearGradient xlink:href="#grad5664" id="grad5665" x1="0" y1="0" x2="0" y2="1" gradientTransform="rotate(-0 .5 .5)" gradientUnits="objectBoundingBox">
  </linearGradient>
    </defs>
    <path xmlns="http://www.w3.org/2000/svg" d="  M47.9123,29.4457 L45.4988,30.8325 C45.5385,30.9330 45.5640,31.0477 45.5640,31.1587 L45.6353,33.4980 L48.0480,32.0850 L47.9768,29.7712 C47.9768,29.6595 47.9513,29.5462 47.9123,29.4457 Z" style="fill-rule: evenodd; fill: url(#grad5665); "/>
    <defs xmlns="http://www.w3.org/2000/svg" xmlns:xlink="http://www.w3.org/1999/xlink">
      <linearGradient id="grad5666">
        <stop offset="0%" stop-color="#646c6b" stop-opacity="1.0000"/>
        <stop offset="100%" stop-color="#dae1e1" stop-opacity="1.0000"/>
      </linearGradient>
      <linearGradient xlink:href="#grad5666" id="grad5667" x1="0" y1="0" x2="0" y2="1" gradientTransform="rotate(135 .5 .5)" gradientUnits="objectBoundingBox">
  </linearGradient>
    </defs>
    <path xmlns="http://www.w3.org/2000/svg" d="  M39.0083,27.9862 L40.2773,30.9413 L42.7095,29.5305 C42.7095,29.5305 41.6625,27.0075 41.5920,26.8357 C41.5223,26.6962 41.4165,26.6010 41.4165,26.6010 L39.0083,27.9862 Z" style="fill-rule: evenodd; fill: url(#grad5667); "/>
    <path xmlns="http://www.w3.org/2000/svg" d="  M39.2880,55.0342 C39.3983,54.9690 40.9523,54.0322 40.9523,54.0322 L40.4685,53.5987 C40.4693,53.5987 39.2970,55.0245 39.2880,55.0342 Z" style="fill-rule: evenodd; fill: #333333; fill-opacity: 0.9882; "/>
    <defs xmlns="http://www.w3.org/2000/svg" xmlns:xlink="http://www.w3.org/1999/xlink">
      <linearGradient id="grad5668">
        <stop offset="0%" stop-color="#080808" stop-opacity="1.0000"/>
        <stop offset="100%" stop-color="#ffffff" stop-opacity="1.0000"/>
      </linearGradient>
      <linearGradient xlink:href="#grad5668" id="grad5669" x1="0" y1="0" x2="0" y2="1" gradientTransform="rotate(135 .5 .5)" gradientUnits="objectBoundingBox">
  </linearGradient>
    </defs>
    <path xmlns="http://www.w3.org/2000/svg" d="  M48.7508,60.7342 C48.4673,60.7342 48.2348,60.3952 48.1230,60.1035 L47.1143,57.6645 C46.7070,57.5910 46.2870,57.4815 45.8603,57.3390 L45.7972,59.2815 C45.7980,59.6595 45.5910,59.8320 45.3855,59.8320 C45.3173,59.8320 45.2498,59.8132 45.1853,59.7757 L42.1583,58.0275 C41.9108,57.8857 41.7803,57.5160 41.7803,57.2265 L41.7113,54.9953 C41.2320,54.6143 40.7655,54.2040 40.3193,53.7720 L39.4223,54.9075 C39.3345,55.0328 39.1905,55.1108 39.0353,55.1108 C38.8860,55.1108 38.7390,55.0365 38.6355,54.9067 L36.0135,51.6442 C35.8230,51.4087 35.8058,51.0480 35.9730,50.8065 L36.8235,49.4460 C36.4433,48.8445 36.0863,48.2242 35.7570,47.5973 L34.1408,47.6535 C34.1370,47.6543 34.1190,47.6557 34.1010,47.6557 C33.8235,47.6557 33.5490,47.4638 33.4470,47.1998 L31.9335,43.2990 C31.8705,43.1370 31.8818,42.9690 31.9643,42.8370 C32.0423,42.7110 32.1780,42.6300 32.3363,42.6150 L33.7560,42.4080 C33.6052,41.7982 33.4838,41.1885 33.3945,40.5900 L31.4918,39.4117 C31.2458,39.2707 30.9908,38.9745 30.9908,38.6872 L30.9908,35.1915 C30.9908,34.9680 31.1565,34.8067 31.3815,34.8067 C31.4910,34.8067 31.6118,34.8435 31.7318,34.9140 L33.4388,35.8282 C33.5288,35.3858 33.6443,34.9672 33.7838,34.5773 L32.1735,32.4825 C31.9545,32.2095 31.8008,31.8278 31.9605,31.6005 L33.4740,29.4465 C33.5370,29.3587 33.6367,29.3077 33.7470,29.3077 C33.9983,29.3077 34.2293,29.5590 34.3162,29.6677 L35.9340,31.5938 C36.2078,31.3980 36.5002,31.2293 36.8062,31.0905 L35.9460,28.7212 C35.8973,28.5930 35.7915,28.2600 35.9265,28.0425 C35.9820,27.9517 36.0735,27.8947 36.1770,27.8858 L38.7983,27.6510 L38.8095,27.6502 L38.8283,27.6502 C39.1110,27.6502 39.3442,27.9900 39.4582,28.2817 L40.4648,30.7192 C40.8705,30.7927 41.2920,30.9023 41.7202,31.0455 L41.7825,29.1038 C41.7818,28.7250 41.9895,28.5525 42.1950,28.5525 C42.2625,28.5525 42.3307,28.5712 42.3945,28.6087 L45.4215,30.3563 C45.6698,30.5003 45.7995,30.8693 45.7995,31.1587 L45.8678,33.3878 C46.3440,33.7665 46.8112,34.1760 47.2598,34.6110 L48.1583,33.4755 C48.2445,33.3510 48.3885,33.2730 48.5438,33.2730 C48.6938,33.2730 48.8408,33.3480 48.9450,33.4778 L51.5655,36.7387 C51.7575,36.9773 51.7733,37.3380 51.6060,37.5772 L50.7563,38.9400 C51.1365,39.5392 51.4943,40.1587 51.8220,40.7850 L53.4398,40.7302 C53.4435,40.7287 53.4608,40.7280 53.4788,40.7280 C53.7563,40.7280 54.0308,40.9207 54.1335,41.1855 L55.6470,45.0848 C55.7100,45.2460 55.6980,45.4147 55.6162,45.5467 C55.5375,45.6735 55.4010,45.7537 55.2427,45.7687 L53.8245,45.9772 C53.9745,46.5847 54.0968,47.1937 54.1860,47.7930 L56.0888,48.9720 C56.3340,49.1138 56.5883,49.4100 56.5883,49.6965 L56.5883,53.1923 C56.5883,53.3047 56.5470,53.4052 56.4720,53.4757 C56.4008,53.5417 56.3055,53.5770 56.1990,53.5770 C56.0895,53.5770 55.9688,53.5403 55.8488,53.4705 L54.1410,52.5578 C54.0518,52.9987 53.9370,53.4172 53.7975,53.8058 L55.4078,55.9020 C55.6260,56.1743 55.7797,56.5553 55.6200,56.7840 L54.1050,58.9372 C54.0450,59.0250 53.9445,59.0767 53.8328,59.0767 C53.5823,59.0767 53.3520,58.8247 53.2643,58.7167 L51.6450,56.7907 C51.3713,56.9872 51.0803,57.1545 50.7750,57.2932 L51.6345,59.6640 C51.6840,59.7915 51.7898,60.1230 51.6540,60.3412 C51.5993,60.4312 51.5070,60.4890 51.4043,60.4980 L48.7823,60.7320 L48.7718,60.7327 L48.7508,60.7342 Z M41.0175,36.4110 C39.0435,36.4110 37.8165,38.0198 37.8165,40.6080 C37.8165,44.4855 40.5495,49.2180 43.9065,51.1575 C44.8455,51.6990 45.7388,51.9735 46.5630,51.9735 C48.5370,51.9735 49.7633,50.3647 49.7633,47.7765 C49.7633,43.8975 47.0310,39.1658 43.6725,37.2270 C42.7343,36.6855 41.8418,36.4110 41.0175,36.4110 Z" style="fill-rule: evenodd; fill: url(#grad5669); "/>
    <defs xmlns="http://www.w3.org/2000/svg">
      <radialGradient id="grad5670" cx="50.0000%" cy="50.0000%" r="100.0000%">
        <stop offset="0%" stop-color="#7f8787" stop-opacity="0.9882"/>
        <stop offset="100%" stop-color="#bdd1dd" stop-opacity="0.9882"/>
      </radialGradient>
    </defs>
    <path xmlns="http://www.w3.org/2000/svg" d="  M55.9658,49.1730 L53.9693,47.9370 C53.8680,47.2252 53.7210,46.5060 53.5328,45.7852 L55.2218,45.5370 C55.4070,45.5205 55.5000,45.3570 55.4280,45.1717 L53.9130,41.2710 C53.8425,41.0857 53.6333,40.9485 53.4473,40.9665 L51.6810,41.0257 C51.3143,40.3140 50.9123,39.6172 50.4788,38.9437 L51.4140,37.4437 C51.5213,37.2915 51.5063,37.0425 51.3825,36.8872 L48.7613,33.6262 C48.6368,33.4710 48.4493,33.4695 48.3413,33.6225 L47.2815,34.9605 C46.7513,34.4362 46.2015,33.9495 45.6368,33.5055 L45.5640,31.1602 C45.5640,30.9120 45.4470,30.6442 45.3030,30.5610 L42.2760,28.8135 C42.1328,28.7302 42.0158,28.8637 42.0158,29.1127 L41.9430,31.3755 C41.3775,31.1662 40.8270,31.0170 40.2968,30.9307 L39.2378,28.3687 C39.1305,28.0920 38.9430,27.8760 38.8178,27.8872 L36.1965,28.1212 C36.0720,28.1325 36.0585,28.3657 36.1658,28.6425 L37.1018,31.2202 C36.6683,31.3942 36.2655,31.6275 35.8980,31.9162 L34.1325,29.8162 C33.9465,29.5845 33.7373,29.4802 33.6653,29.5822 L32.1518,31.7355 C32.0798,31.8375 32.1720,32.1075 32.3580,32.3392 L34.0478,34.5375 C33.8580,35.0400 33.7118,35.5912 33.6090,36.1860 L31.6140,35.1165 C31.3988,34.9927 31.2240,35.0272 31.2240,35.1930 L31.2240,38.6880 C31.2248,38.8537 31.3980,39.0892 31.6140,39.2130 L33.6090,40.4482 C33.7118,41.1600 33.8580,41.8807 34.0478,42.6022 L32.3580,42.8490 C32.1720,42.8655 32.0798,43.0290 32.1518,43.2142 L33.6653,47.1157 C33.7373,47.3002 33.9465,47.4367 34.1325,47.4202 L35.8980,47.3587 C36.2655,48.0720 36.6683,48.7695 37.1018,49.4437 L36.1658,50.9415 C36.0585,51.0945 36.0720,51.3442 36.1965,51.4980 L38.8178,54.7605 C38.9430,54.9150 39.1305,54.9165 39.2378,54.7635 L40.2968,53.4240 C40.8263,53.9490 41.3760,54.4357 41.9423,54.8797 L42.0158,57.2272 C42.0158,57.4747 42.1320,57.7432 42.2760,57.8265 L45.3030,59.5740 C45.4463,59.6565 45.5640,59.5230 45.5640,59.2755 L45.6375,57.0127 C46.2023,57.2212 46.7520,57.3697 47.2815,57.4567 L48.3413,60.0195 C48.4493,60.2962 48.6368,60.5115 48.7613,60.5002 L51.3825,60.2662 C51.5063,60.2550 51.5213,60.0225 51.4140,59.7457 L50.4788,57.1665 C50.9115,56.9932 51.3143,56.7607 51.6818,56.4735 L53.4473,58.5720 C53.6333,58.8030 53.8425,58.9080 53.9130,58.8060 L55.4280,56.6527 C55.5000,56.5507 55.4070,56.2807 55.2218,56.0490 L53.5328,53.8492 C53.7210,53.3475 53.8680,52.7970 53.9693,52.2030 L55.9658,53.2710 C56.1803,53.3947 56.3543,53.3610 56.3543,53.1952 L56.3543,49.7002 C56.3535,49.5315 56.1803,49.2975 55.9658,49.1730 Z M43.7895,51.3600 C40.3620,49.3807 37.5825,44.5672 37.5825,40.6080 C37.5825,36.6495 40.3620,35.0445 43.7895,37.0245 C47.2185,39.0045 49.9973,43.8180 49.9973,47.7772 C49.9980,51.7350 47.2193,53.3400 43.7895,51.3600 Z" style="fill-rule: evenodd; fill: url(#grad5670); "/>
    <defs xmlns="http://www.w3.org/2000/svg" xmlns:xlink="http://www.w3.org/1999/xlink">
      <linearGradient id="grad5671">
        <stop offset="0%" stop-color="#bdd1dd" stop-opacity="1.0000"/>
        <stop offset="100%" stop-color="#f3f9f7" stop-opacity="1.0000"/>
      </linearGradient>
      <linearGradient xlink:href="#grad5671" id="grad5672" x1="0" y1="0" x2="0" y2="1" gradientTransform="rotate(90 .5 .5)" gradientUnits="objectBoundingBox">
  </linearGradient>
    </defs>
    <path xmlns="http://www.w3.org/2000/svg" d="  M43.7895,37.0245 C40.3620,35.0445 37.5825,36.6495 37.5825,40.6080 C37.5825,44.5672 40.3620,49.3807 43.7895,51.3600 C47.2185,53.3400 49.9973,51.7350 49.9973,47.7773 C49.9980,43.8173 47.2193,39.0038 43.7895,37.0245 Z M46.5630,51.9735 C45.7388,51.9735 44.8455,51.6990 43.9065,51.1575 C40.5488,49.2172 37.8157,44.4855 37.8157,40.6080 C37.8157,38.0197 39.0435,36.4110 41.0183,36.4110 C41.8418,36.4110 42.7350,36.6848 43.6725,37.2270 C47.0318,39.1665 49.7633,43.8990 49.7633,47.7765 C49.7633,50.3655 48.5370,51.9735 46.5630,51.9735 Z" style="fill-rule: evenodd; fill: url(#grad5672); "/>
    <path xmlns="http://www.w3.org/2000/svg" d="  M44.0220,35.4502 C43.9080,35.4502 43.7903,35.4150 43.6733,35.3475 C43.3170,35.1427 43.0380,34.6590 43.0380,34.2487 C43.0380,33.8925 43.2525,33.6443 43.5593,33.6443 C43.6725,33.6443 43.7903,33.6788 43.9073,33.7463 C44.2628,33.9510 44.5425,34.4348 44.5425,34.8458 C44.5425,35.2012 44.3280,35.4502 44.0220,35.4502 Z" style="fill-rule: evenodd; fill: #3f3f3f; "/>
    <defs xmlns="http://www.w3.org/2000/svg" xmlns:xlink="http://www.w3.org/1999/xlink">
      <linearGradient id="grad5673">
        <stop offset="0%" stop-color="#646c6b" stop-opacity="1.0000"/>
        <stop offset="100%" stop-color="#dae1e1" stop-opacity="1.0000"/>
      </linearGradient>
      <linearGradient xlink:href="#grad5673" id="grad5674" x1="0" y1="0" x2="0" y2="1" gradientTransform="rotate(315 .5 .5)" gradientUnits="objectBoundingBox">
  </linearGradient>
    </defs>
    <path xmlns="http://www.w3.org/2000/svg" d="  M44.3078,34.8458 C44.3078,35.1758 44.0760,35.3093 43.7903,35.1435 C43.5045,34.9793 43.2735,34.5780 43.2735,34.2488 C43.2735,33.9188 43.5053,33.7845 43.7903,33.9503 C44.0760,34.1145 44.3078,34.5158 44.3078,34.8458 Z" style="fill-rule: evenodd; fill: url(#grad5674); "/>
    <path xmlns="http://www.w3.org/2000/svg" d="  M43.7895,34.8030 C43.6680,34.7325 43.5683,34.5608 43.5683,34.4190 C43.5683,34.2780 43.6680,34.2203 43.7895,34.2908 C43.9125,34.3620 44.0123,34.5345 44.0123,34.6755 C44.0123,34.8165 43.9125,34.8743 43.7895,34.8030 Z" style="fill-rule: evenodd; fill: #333333; "/>
    <path xmlns="http://www.w3.org/2000/svg" d="  M44.0213,54.7958 C43.9080,54.7958 43.7903,54.7613 43.6740,54.6938 C43.3170,54.4883 43.0380,54.0053 43.0380,53.5935 C43.0380,53.2388 43.2525,52.9898 43.5593,52.9898 C43.6725,52.9898 43.7903,53.0250 43.9073,53.0925 C44.2628,53.2973 44.5425,53.7795 44.5425,54.1913 C44.5425,54.5475 44.3280,54.7958 44.0213,54.7958 Z" style="fill-rule: evenodd; fill: #3f3f3f; "/>
    <defs xmlns="http://www.w3.org/2000/svg" xmlns:xlink="http://www.w3.org/1999/xlink">
      <linearGradient id="grad5675">
        <stop offset="0%" stop-color="#080808" stop-opacity="1.0000"/>
        <stop offset="100%" stop-color="#c4c5c6" stop-opacity="1.0000"/>
      </linearGradient>
      <linearGradient xlink:href="#grad5675" id="grad5676" x1="0" y1="0" x2="0" y2="1" gradientTransform="rotate(315 .5 .5)" gradientUnits="objectBoundingBox">
  </linearGradient>
    </defs>
    <path xmlns="http://www.w3.org/2000/svg" d="  M44.3078,54.1913 C44.3078,54.5205 44.0760,54.6548 43.7903,54.4898 C43.5045,54.3248 43.2735,53.9228 43.2735,53.5935 C43.2735,53.2643 43.5053,53.1308 43.7903,53.2958 C44.0760,53.4608 44.3078,53.8620 44.3078,54.1913 Z" style="fill-rule: evenodd; fill: url(#grad5676); "/>
    <path xmlns="http://www.w3.org/2000/svg" d="  M43.7895,54.1493 C43.6680,54.0788 43.5683,53.9063 43.5683,53.7653 C43.5683,53.6243 43.6680,53.5658 43.7895,53.6363 C43.9125,53.7075 44.0123,53.8793 44.0123,54.0210 C44.0123,54.1628 43.9125,54.2198 43.7895,54.1493 Z" style="fill-rule: evenodd; fill: #333333; "/>
    <path xmlns="http://www.w3.org/2000/svg" d="  M35.6445,40.2855 C35.5313,40.2855 35.4135,40.2517 35.2965,40.1842 C34.9395,39.9780 34.6605,39.4942 34.6605,39.0840 C34.6605,38.7285 34.8750,38.4802 35.1818,38.4802 C35.2958,38.4802 35.4135,38.5147 35.5298,38.5815 C35.8860,38.7870 36.1658,39.2700 36.1658,39.6817 C36.1658,40.0380 35.9513,40.2855 35.6445,40.2855 Z" style="fill-rule: evenodd; fill: #3f3f3f; "/>
    <defs xmlns="http://www.w3.org/2000/svg" xmlns:xlink="http://www.w3.org/1999/xlink">
      <linearGradient id="grad5677">
        <stop offset="0%" stop-color="#646c6b" stop-opacity="1.0000"/>
        <stop offset="100%" stop-color="#dae1e1" stop-opacity="1.0000"/>
      </linearGradient>
      <linearGradient xlink:href="#grad5677" id="grad5678" x1="0" y1="0" x2="0" y2="1" gradientTransform="rotate(-0 .5 .5)" gradientUnits="objectBoundingBox">
  </linearGradient>
    </defs>
    <path xmlns="http://www.w3.org/2000/svg" d="  M35.4128,38.7855 C35.6993,38.9513 35.9303,39.3525 35.9303,39.6818 C35.9303,40.0110 35.6985,40.1453 35.4128,39.9803 C35.1270,39.8145 34.8953,39.4140 34.8953,39.0840 C34.8953,38.7548 35.1270,38.6220 35.4128,38.7855 Z" style="fill-rule: evenodd; fill: url(#grad5678); "/>
    <path xmlns="http://www.w3.org/2000/svg" d="  M35.4128,39.6397 C35.2905,39.5692 35.1908,39.3967 35.1908,39.2550 C35.1908,39.1133 35.2905,39.0562 35.4128,39.1267 C35.5350,39.1972 35.6348,39.3697 35.6348,39.5115 C35.6348,39.6532 35.5350,39.7102 35.4128,39.6397 Z" style="fill-rule: evenodd; fill: #333333; "/>
    <path xmlns="http://www.w3.org/2000/svg" d="  M52.3987,49.9597 C52.2855,49.9597 52.1670,49.9245 52.0500,49.8570 C51.6937,49.6522 51.4155,49.1685 51.4155,48.7575 C51.4155,48.4020 51.6293,48.1537 51.9352,48.1537 C52.0492,48.1537 52.1670,48.1882 52.2840,48.2557 C52.6402,48.4620 52.9185,48.9443 52.9185,49.3553 C52.9185,49.7108 52.7047,49.9597 52.3987,49.9597 Z" style="fill-rule: evenodd; fill: #3f3f3f; "/>
    <defs xmlns="http://www.w3.org/2000/svg" xmlns:xlink="http://www.w3.org/1999/xlink">
      <linearGradient id="grad5679">
        <stop offset="0%" stop-color="#080808" stop-opacity="1.0000"/>
        <stop offset="100%" stop-color="#c4c5c6" stop-opacity="1.0000"/>
      </linearGradient>
      <linearGradient xlink:href="#grad5679" id="grad5680" x1="0" y1="0" x2="0" y2="1" gradientTransform="rotate(315 .5 .5)" gradientUnits="objectBoundingBox">
  </linearGradient>
    </defs>
    <path xmlns="http://www.w3.org/2000/svg" d="  M52.1670,48.4598 C52.4527,48.6248 52.6837,49.0260 52.6837,49.3560 C52.6837,49.6853 52.4520,49.8188 52.1670,49.6538 C51.8820,49.4887 51.6502,49.0875 51.6502,48.7583 C51.6502,48.4283 51.8812,48.2940 52.1670,48.4598 Z" style="fill-rule: evenodd; fill: url(#grad5680); "/>
    <path xmlns="http://www.w3.org/2000/svg" d="  M52.1670,49.3118 C52.0447,49.2413 51.9457,49.0703 51.9457,48.9285 C51.9457,48.7868 52.0447,48.7290 52.1670,48.8003 C52.2900,48.8708 52.3897,49.0433 52.3897,49.1843 C52.3897,49.3260 52.2892,49.3823 52.1670,49.3118 Z" style="fill-rule: evenodd; fill: #333333; "/>
    <defs xmlns="http://www.w3.org/2000/svg" xmlns:xlink="http://www.w3.org/1999/xlink">
      <linearGradient id="grad5681">
        <stop offset="0%" stop-color="#333333" stop-opacity="1.0000"/>
        <stop offset="100%" stop-color="#dae1e1" stop-opacity="1.0000"/>
      </linearGradient>
      <linearGradient xlink:href="#grad5681" id="grad5682" x1="0" y1="0" x2="0" y2="1" gradientTransform="rotate(315 .5 .5)" gradientUnits="objectBoundingBox">
  </linearGradient>
    </defs>
    <path xmlns="http://www.w3.org/2000/svg" d="  M38.7098,47.0827 C37.3320,44.6737 36.6405,42.1695 36.6398,40.0590 C36.6398,37.9680 37.3223,36.2482 38.7225,35.4300 C39.2813,35.1030 39.9113,34.9492 40.5773,34.9492 C43.2533,34.9560 46.5293,37.4032 48.7290,41.2440 C50.1060,43.6530 50.7975,46.1572 50.7975,48.2677 C50.7990,50.3595 50.1165,52.0777 48.7163,52.8967 C48.1568,53.2237 47.5283,53.3775 46.8615,53.3775 C44.1848,53.3700 40.9088,50.9220 38.7098,47.0827 Z M36.8745,40.0590 C36.8745,42.1185 37.5525,44.5890 38.9130,46.9657 C41.0798,50.7615 44.3280,53.1487 46.8623,53.1420 C47.4923,53.1420 48.0780,52.9980 48.5978,52.6942 C49.8968,51.9382 50.5635,50.3138 50.5635,48.2677 C50.5643,46.2082 49.8863,43.7370 48.5258,41.3610 C46.3590,37.5637 43.1100,35.1772 40.5773,35.1840 C39.9473,35.1840 39.3615,35.3287 38.8418,35.6325 C37.5405,36.3877 36.8753,38.0122 36.8745,40.0590 Z" style="fill-rule: evenodd; fill: url(#grad5682); "/>
    <path xmlns="http://www.w3.org/2000/svg" d="  M45.4298,59.6085 C45.3645,59.6055 45.3150,59.5515 45.3165,59.4870 L45.4043,57.0502 C45.4065,56.9850 45.4613,56.9355 45.5258,56.9377 C45.5903,56.9400 45.6413,56.9940 45.6383,57.0585 L45.5505,59.4960 C45.5490,59.5590 45.4965,59.6085 45.4335,59.6085 C45.4320,59.6085 45.4312,59.6085 45.4298,59.6085 Z" style="fill-rule: evenodd; fill: #ffffff; "/>
    <path xmlns="http://www.w3.org/2000/svg" d="  M51.3008,60.1725 L50.3003,57.3315 C50.2793,57.2707 50.3115,57.2032 50.3723,57.1815 C50.4330,57.1612 50.5005,57.1927 50.5208,57.2535 L51.5213,60.0952 C51.5430,60.1567 51.5108,60.2242 51.4493,60.2445 C51.4373,60.2490 51.4238,60.2520 51.4110,60.2520 C51.3630,60.2512 51.3173,60.2205 51.3008,60.1725 Z" style="fill-rule: evenodd; fill: #ffffff; "/>
    <path xmlns="http://www.w3.org/2000/svg" d="  M55.2150,56.4765 L53.4300,54.0697 C53.3918,54.0172 53.4023,53.9437 53.4548,53.9055 C53.5058,53.8657 53.5793,53.8777 53.6190,53.9295 L55.4032,56.3355 C55.4430,56.3880 55.4310,56.4615 55.3793,56.4997 C55.3583,56.5155 55.3335,56.5230 55.3095,56.5230 C55.2735,56.5237 55.2383,56.5072 55.2150,56.4765 Z" style="fill-rule: evenodd; fill: #ffffff; "/>
    <defs xmlns="http://www.w3.org/2000/svg" xmlns:xlink="http://www.w3.org/1999/xlink">
      <linearGradient id="grad5683">
        <stop offset="0%" stop-color="#bdd1dd" stop-opacity="0.9882"/>
        <stop offset="100%" stop-color="#f3f9f7" stop-opacity="0.9882"/>
      </linearGradient>
      <linearGradient xlink:href="#grad5683" id="grad5684" x1="0" y1="0" x2="0" y2="1" gradientTransform="rotate(90 .5 .5)" gradientUnits="objectBoundingBox">
  </linearGradient>
    </defs>
    <path xmlns="http://www.w3.org/2000/svg" d="  M56.0595,53.1907 L56.0595,49.5517 L53.9453,48.1500 C53.8920,48.1147 53.8770,48.0412 53.9123,47.9872 C53.9475,47.9340 54.0210,47.9182 54.0750,47.9542 L56.2418,49.3912 C56.2755,49.4122 56.2943,49.4490 56.2943,49.4887 L56.2943,53.1907 C56.2943,53.2552 56.2418,53.3077 56.1773,53.3077 C56.1120,53.3085 56.0595,53.2552 56.0595,53.1907 Z" style="fill-rule: evenodd; fill: url(#grad5684); "/>
    <!--converted by libvisio2svg-->
  </g>
</svg>
