<svg xmlns="http://www.w3.org/2000/svg" xmlns:xlink="http://www.w3.org/1999/xlink" version="1.1" width="0.4948000000" height="0.7673000000" viewBox="0 0 35.6235 55.2458">
  <title><![CDATA[User 1 Left]]></title>
  <g transform=" scale(1.000000) ">
    <path xmlns="http://www.w3.org/2000/svg" d="  M35.6212,43.5945 C35.3970,40.9177 35.0640,37.8008 34.2848,35.7975 C32.9122,32.2680 29.3122,30.0735 25.6215,28.9433 C26.4368,28.3515 27.1725,27.5768 27.8107,26.6497 C28.1700,27.0562 28.3882,27.5880 28.3882,28.1723 C28.3882,28.6432 28.2472,29.0812 28.0035,29.4458 C30.6090,29.2298 32.6670,26.6288 32.6670,23.4427 C32.6670,21.3975 31.8083,18.8400 30.5040,17.1735 C30.5033,17.2065 30.5033,17.2388 30.5025,17.2725 C30.5692,13.8255 30.3937,11.1075 29.6573,9.0682 C29.7143,9.0128 30.0795,8.6565 31.1640,7.5368 C32.6828,5.9670 32.8365,4.3590 32.8365,4.3590 C32.8365,4.3590 32.8268,4.3598 32.8237,4.3605 C32.8275,4.3342 32.8373,4.3073 32.8365,4.2825 C32.7570,2.0678 27.4688,0.0000 22.1325,0.0803 C18.2453,0.1387 15.0180,1.3657 12.8745,3.1080 C12.7305,3.2092 12.6045,3.3023 12.4950,3.3825 C11.7668,3.9202 10.6440,5.1795 10.6440,5.1795 C8.5598,7.7250 5.7787,14.6175 6.9165,21.1178 C7.8990,26.7263 10.3523,28.9350 13.0830,29.6137 C8.9977,31.1437 5.8793,33.3300 4.7880,34.1272 C0.0000,37.6207 0.0068,46.2863 0.0068,46.5412 C0.0068,51.3487 6.7942,55.2442 15.1695,55.2442 C19.3597,55.2442 23.0805,54.6247 25.8248,53.0467 C26.0377,52.9252 26.1135,52.8787 26.3212,52.7580 L26.3227,52.7587 L27.4403,52.1077 C27.4403,52.1077 27.4410,52.1047 27.4440,52.0987 C28.7723,51.3255 30.4688,50.3325 31.4940,49.7077 C34.0545,48.1500 35.6227,46.0500 35.6227,43.7400 C35.6235,43.6958 35.6220,43.6433 35.6212,43.5945 Z M13.3282,29.6730 C13.3252,29.7285 13.3215,29.7818 13.3170,29.8297 C13.3193,29.7772 13.3230,29.7232 13.3268,29.6730 C13.3275,29.6730 13.3282,29.6730 13.3282,29.6730 Z" style="stroke-width: 1.5000; stroke: #8d98b5; stroke-dasharray: none; stroke-linecap: butt; stroke-linejoin: miter; fill: none; "/>
    <path xmlns="http://www.w3.org/2000/svg" d="  M26.3235,52.7610 C26.3235,52.7610 22.6695,46.0087 20.2733,42.3487 C16.8690,37.1512 15.7455,36.2850 14.4923,34.6725 C12.9158,32.6467 14.0948,30.2265 14.9302,29.9070 C16.3320,29.3730 17.6587,28.8157 20.0475,29.2935 C22.6350,29.8102 24.9015,31.8202 25.9020,34.2712 C28.3717,40.3252 28.0897,47.2582 27.8137,49.9627 C27.6502,51.5722 27.4417,52.1100 27.4417,52.1100 L26.3235,52.7610 Z" style="fill-rule: evenodd; fill: #d0e9dc; "/>
    <defs xmlns="http://www.w3.org/2000/svg">
      <radialGradient id="grad5564" cx="50.0000%" cy="50.0000%" r="100.0000%">
        <stop offset="0%" stop-color="#a2c475" stop-opacity="1.0000"/>
        <stop offset="100%" stop-color="#688843" stop-opacity="1.0000"/>
      </radialGradient>
    </defs>
    <path xmlns="http://www.w3.org/2000/svg" d="  M35.6213,43.5945 C35.3970,40.9178 35.0640,37.8007 34.2847,35.7975 C32.2050,30.4478 25.0080,28.1633 20.1285,28.0088 C22.4685,29.2200 24.1027,31.5008 24.9315,33.5340 C27.4013,39.5865 26.8680,52.1437 26.7585,52.5007 C28.1272,51.7035 30.2835,50.4472 31.4947,49.7100 C34.0552,48.1522 35.6235,46.0522 35.6235,43.7423 C35.6235,43.6957 35.6220,43.6433 35.6213,43.5945 Z" style="fill-rule: evenodd; fill: url(#grad5564); "/>
    <path xmlns="http://www.w3.org/2000/svg" d="  M26.7585,52.5007 C26.7585,52.5007 28.6665,46.7265 27.6608,40.5007 C26.8905,35.7248 24.1943,29.4750 24.1943,29.4750 L23.7128,29.2440 C23.7128,29.2440 26.5673,39.6600 26.7548,41.1570 C27.1613,44.4090 26.7585,52.5007 26.7585,52.5007 Z" style="fill-rule: evenodd; fill: #bfc5ce; "/>
    <path xmlns="http://www.w3.org/2000/svg" d="  M26.7585,52.5008 C26.7585,52.5008 27.6592,44.5665 27.1965,41.3228 C26.4150,35.8440 23.9820,29.8455 23.9820,29.8455 C23.9820,29.8455 25.9793,37.7130 26.4007,41.3033 C26.9415,45.9105 26.7585,52.5008 26.7585,52.5008 Z" style="fill-rule: evenodd; fill: #727376; "/>
    <defs xmlns="http://www.w3.org/2000/svg">
      <radialGradient id="grad5565" cx="100.0000%" cy="100.0000%" r="100.0000%">
        <stop offset="0%" stop-color="#ebc8a7" stop-opacity="1.0000"/>
        <stop offset="100%" stop-color="#805a34" stop-opacity="1.0000"/>
      </radialGradient>
    </defs>
    <path xmlns="http://www.w3.org/2000/svg" d="  M13.2787,30.2438 C13.3410,30.0090 13.7970,21.6233 13.8322,21.2828 C14.0175,19.4610 15.5167,18.8723 18.5243,18.8723 C21.5318,18.8723 24.7530,20.0243 24.7530,21.7508 C24.7530,22.0943 24.5992,32.4293 24.7710,32.9805 C26.4428,38.3168 22.5743,40.1498 18.4103,38.8095 C15.3592,37.9928 12.8100,31.9943 13.2787,30.2438 Z" style="fill-rule: evenodd; fill: url(#grad5565); "/>
    <defs xmlns="http://www.w3.org/2000/svg">
      <radialGradient id="grad5566" cx="50.0000%" cy="50.0000%" r="100.0000%">
        <stop offset="0%" stop-color="#a2c475" stop-opacity="1.0000"/>
        <stop offset="100%" stop-color="#688843" stop-opacity="1.0000"/>
      </radialGradient>
    </defs>
    <path xmlns="http://www.w3.org/2000/svg" d="  M14.7600,34.2210 C13.7347,32.7540 13.1625,30.7965 13.3365,29.5193 C9.1260,31.0523 5.9025,33.3158 4.7895,34.1288 C0.0015,37.6223 0.0082,46.2878 0.0082,46.5428 C0.0082,51.3503 6.7957,55.2458 15.1710,55.2458 C19.3612,55.2458 23.0820,54.6263 25.8262,53.0483 C26.0520,52.9193 26.1180,52.8780 26.3565,52.7408 C26.0160,51.7065 23.4375,45.7283 21.2235,42.3488 C17.8170,37.1513 15.9307,35.8958 14.7600,34.2210 Z" style="fill-rule: evenodd; fill: url(#grad5566); "/>
    <path xmlns="http://www.w3.org/2000/svg" d="  M11.6108,15.2310 C12.4845,14.7165 13.9043,15.5580 14.7825,17.1097 C15.6608,18.6615 15.6653,20.3362 14.7923,20.8507 C13.9193,21.3652 12.7785,20.3287 11.6205,18.9720 C10.6530,17.8417 10.7370,15.7455 11.6108,15.2310 Z" style="fill-rule: evenodd; fill: #ebc8a7; "/>
    <defs xmlns="http://www.w3.org/2000/svg">
      <radialGradient id="grad5567" cx="100.0000%" cy="0.0000%" r="100.0000%">
        <stop offset="0%" stop-color="#6f4923" stop-opacity="1.0000"/>
        <stop offset="100%" stop-color="#e5c2a0" stop-opacity="1.0000"/>
      </radialGradient>
    </defs>
    <path xmlns="http://www.w3.org/2000/svg" d="  M11.6108,16.0845 C12.4845,15.5700 13.9043,16.4115 14.7825,17.9633 C15.6607,19.5150 15.6652,21.1898 14.7923,21.7043 C13.9193,22.2188 12.4995,21.3765 11.6205,19.8255 C10.7408,18.2730 10.7370,16.5983 11.6108,16.0845 Z" style="fill-rule: evenodd; fill: url(#grad5567); "/>
    <defs xmlns="http://www.w3.org/2000/svg">
      <radialGradient id="grad5568" cx="100.0000%" cy="0.0000%" r="100.0000%">
        <stop offset="0%" stop-color="#e1d6aa" stop-opacity="1.0000"/>
        <stop offset="100%" stop-color="#7a6637" stop-opacity="1.0000"/>
      </radialGradient>
    </defs>
    <path xmlns="http://www.w3.org/2000/svg" d="  M30.5040,17.1750 C30.5032,17.2080 30.5032,17.2402 30.5025,17.2740 C30.4297,20.9632 29.4367,24.2902 27.8107,26.6512 C28.1700,27.0577 28.3882,27.5895 28.3882,28.1737 C28.3882,28.6447 28.2472,29.0827 28.0035,29.4472 C30.6090,29.2312 32.6670,26.6302 32.6670,23.4442 C32.6670,21.3990 31.8082,18.8415 30.5040,17.1750 Z" style="fill-rule: evenodd; fill: url(#grad5568); "/>
    <defs xmlns="http://www.w3.org/2000/svg">
      <radialGradient id="grad5569" cx="50.0000%" cy="50.0000%" r="100.0000%">
        <stop offset="0%" stop-color="#fee8c5" stop-opacity="1.0000"/>
        <stop offset="100%" stop-color="#ebc8a7" stop-opacity="1.0000"/>
      </radialGradient>
    </defs>
    <path xmlns="http://www.w3.org/2000/svg" d="  M13.3552,17.5245 C13.3552,24.6832 16.8165,30.2347 21.7875,30.2347 C26.7600,30.2347 30.3630,24.4305 30.5025,17.2732 C30.6690,8.7675 29.3580,4.7032 21.7875,4.3102 C16.8232,4.0537 13.3552,10.3657 13.3552,17.5245 Z" style="fill-rule: evenodd; fill: url(#grad5569); "/>
    <path xmlns="http://www.w3.org/2000/svg" d="  M21.9090,29.8380 C21.8700,29.8380 21.8325,29.8417 21.7943,29.8417 C17.1045,29.8417 13.8323,24.6412 13.7858,17.9100 C14.4338,23.1352 17.9528,29.0175 21.9090,29.8380 Z" style="fill-rule: evenodd; fill: #fee8c5; "/>
    <defs xmlns="http://www.w3.org/2000/svg" xmlns:xlink="http://www.w3.org/1999/xlink">
      <linearGradient id="grad5570">
        <stop offset="0%" stop-color="#7a6637" stop-opacity="1.0000"/>
        <stop offset="100%" stop-color="#b5a362" stop-opacity="1.0000"/>
      </linearGradient>
      <linearGradient xlink:href="#grad5570" id="grad5571" x1="0" y1="0" x2="0" y2="1" gradientTransform="rotate(90 .5 .5)" gradientUnits="objectBoundingBox">
  </linearGradient>
    </defs>
    <path xmlns="http://www.w3.org/2000/svg" d="  M32.8365,4.2840 C32.7570,2.0692 27.4688,0.0015 22.1325,0.0817 C18.2453,0.1402 15.0180,1.3672 12.8745,3.1095 C12.7305,3.2107 12.6045,3.3037 12.4950,3.3840 C11.7668,3.9217 10.6440,5.1810 10.6440,5.1810 C8.5597,7.7265 5.7787,14.6190 6.9165,21.1192 C8.4683,29.9857 13.6995,30.3607 17.8875,29.6160 C17.8875,29.6160 14.5500,26.7082 13.8007,21.7965 C13.0440,21.5527 12.2513,20.9407 11.6197,19.8255 C11.0858,18.8820 10.9605,18.0307 10.9447,17.1562 C10.9020,16.2517 11.0835,15.5415 11.6107,15.2310 C12.1132,14.9355 12.7950,15.0900 13.4520,15.5670 C13.4708,15.3052 13.4835,14.5162 13.8330,13.3155 C14.0505,13.0642 14.3415,12.8752 14.7412,12.8107 C15.4470,12.6960 17.3722,14.0137 19.3642,13.4827 C21.4110,12.9367 21.6877,11.7652 26.1817,9.7387 C29.0325,8.4540 29.6467,9.0802 29.6467,9.0802 C29.6467,9.0802 29.9722,8.7675 31.1640,7.5367 C32.6827,5.9670 32.8365,4.3590 32.8365,4.3590 C32.8365,4.3590 32.8267,4.3597 32.8238,4.3605 C32.8282,4.3350 32.8372,4.3080 32.8365,4.2840 Z" style="fill-rule: evenodd; fill: url(#grad5571); "/>
    <defs xmlns="http://www.w3.org/2000/svg">
      <radialGradient id="grad5572" cx="100.0000%" cy="0.0000%" r="100.0000%">
        <stop offset="0%" stop-color="#e1d6aa" stop-opacity="1.0000"/>
        <stop offset="100%" stop-color="#b5a362" stop-opacity="1.0000"/>
      </radialGradient>
    </defs>
    <path xmlns="http://www.w3.org/2000/svg" d="  M10.3733,7.8217 C10.3733,7.8217 7.6148,11.8432 7.3283,16.1272 C7.0898,19.6980 7.6733,22.6447 8.7885,24.4642 C9.9450,26.3497 9.7343,25.1835 9.5685,24.6540 C9.2723,23.7082 8.4360,21.1777 8.8028,16.4707 C8.9910,14.0437 11.3468,10.1092 11.3468,10.1092 L10.3733,7.8217 Z" style="fill-rule: evenodd; fill: url(#grad5572); "/>
    <defs xmlns="http://www.w3.org/2000/svg">
      <radialGradient id="grad5573" cx="100.0000%" cy="0.0000%" r="100.0000%">
        <stop offset="0%" stop-color="#e1d6aa" stop-opacity="1.0000"/>
        <stop offset="100%" stop-color="#b5a362" stop-opacity="1.0000"/>
      </radialGradient>
    </defs>
    <path xmlns="http://www.w3.org/2000/svg" d="  M32.6122,3.5340 C31.5255,1.6372 26.8590,0.0105 22.1318,0.0817 C15.8910,0.1762 11.3438,3.2812 10.2690,6.6990 C9.6075,8.7997 10.9163,10.1722 12.3390,10.9357 C13.7610,11.7000 18.6375,12.5332 22.7723,9.7395 C23.7772,9.0607 25.9013,7.8277 26.9077,7.2247 C29.5335,5.6550 33.2227,4.5990 32.6122,3.5340 Z" style="fill-rule: evenodd; fill: url(#grad5573); "/>
    <!--converted by libvisio2svg-->
  </g>
</svg>
