<svg xmlns="http://www.w3.org/2000/svg" xmlns:xlink="http://www.w3.org/1999/xlink" version="1.1" width="0.7181000000" height="0.8418000000" viewBox="0 0 51.7020 60.6112">
  <title><![CDATA[User Store]]></title>
  <g transform=" scale(1.000000) ">
    <path xmlns="http://www.w3.org/2000/svg" d="  M34.2323,9.8325 C34.2232,4.4138 26.5568,0.0210 17.1135,0.0210 C7.6657,0.0210 0.0060,4.4167 0.0060,9.8393 C0.0060,9.8970 0.0082,9.9652 0.0097,10.0222 L0.0142,42.2880 C0.0142,42.3000 0.0127,42.3127 0.0127,42.3247 C0.0127,42.3368 0.0142,42.3480 0.0142,42.3615 L0.0142,42.3892 L0.0157,42.3892 C0.0757,47.7810 7.7100,52.1422 17.1195,52.1422 C26.5298,52.1422 34.1632,47.7817 34.2232,42.3892 L34.2338,42.3892 L34.2338,9.8317 L34.2203,9.8317" style="stroke-width: 1.5000; stroke: #8d98b5; stroke-dasharray: none; stroke-linecap: butt; stroke-linejoin: miter; fill: none; "/>
    <path xmlns="http://www.w3.org/2000/svg" d="  M51.3210,52.2585 C50.5560,48.4320 49.3710,42.9007 42.5242,40.2675 C42.0908,40.1018 41.6310,39.9630 41.1517,39.8430 C41.1255,39.6743 40.9778,38.7930 40.8105,37.7895 C40.8443,37.7107 41.2882,36.7320 42.0105,36.0300 C43.1047,34.9665 44.3340,33.3142 45.0075,31.4377 C46.1572,28.2360 45.7732,23.3445 42.0660,20.9025 C41.7510,20.6498 41.4142,20.4195 41.0483,20.2192 C40.3980,19.8638 39.4500,19.2120 37.1550,18.9488 C34.2750,18.5445 30.7755,18.9532 28.5885,20.2822 C26.9318,21.2903 26.4248,21.8588 26.0895,22.4483 C24.5160,24.7657 27.8940,25.9020 27.9525,25.9223 C27.6757,27.2850 27.5977,28.8472 27.5977,30.5385 C27.5977,34.7325 29.2342,38.3167 31.7070,39.7770 C31.7070,39.9000 31.7070,40.0200 31.7070,40.1363 C30.4545,40.4730 29.2215,40.9170 28.0583,41.4915 C26.8440,42.0907 25.7977,43.1040 25.0132,44.4300 C24.9802,44.5695 23.3175,47.6572 23.4915,50.8523 C23.5650,52.2188 24.4942,53.3760 26.0107,54.1995 C26.0182,54.2025 26.0257,54.2055 26.0310,54.2100 L31.1242,57.1500 L31.1242,57.1545 L31.6102,57.4267 L33.4050,58.4670 C37.1167,60.6112 43.6035,60.3420 47.8905,57.8662 C50.6580,56.2680 51.7020,54.1718 51.3210,52.2585 Z M41.1555,39.8467 L41.1540,39.8437 C41.1540,39.8437 41.1525,39.8437 41.1525,39.8423 C41.1540,39.8437 41.1555,39.8453 41.1555,39.8467 Z" style="stroke-width: 1.5000; stroke: #8d98b5; stroke-dasharray: none; stroke-linecap: butt; stroke-linejoin: miter; fill: none; "/>
    <defs xmlns="http://www.w3.org/2000/svg" xmlns:xlink="http://www.w3.org/1999/xlink">
      <linearGradient id="grad5685">
        <stop offset="0%" stop-color="#f9c33c" stop-opacity="1.0000"/>
        <stop offset="100%" stop-color="#f9c33c" stop-opacity="1.0000"/>
      </linearGradient>
      <linearGradient xlink:href="#grad5685" id="grad5686" x1="0" y1="0" x2="0" y2="1" gradientTransform="rotate(90 .5 .5)" gradientUnits="objectBoundingBox">
  </linearGradient>
    </defs>
    <path xmlns="http://www.w3.org/2000/svg" d="  M34.2135,9.8093 C34.2135,9.8115 34.2150,9.8145 34.2150,9.8168 C34.2150,15.2392 26.5552,19.6350 17.1067,19.6350 C7.7595,19.6350 0.1687,15.3308 0.0082,9.9878 L0.0082,42.2648 C0.0082,42.2783 0.0060,42.2895 0.0060,42.3015 C0.0060,42.3150 0.0082,42.3263 0.0082,42.3383 L0.0082,42.3675 L0.0097,42.3675 C0.0705,47.7600 7.7032,52.1205 17.1127,52.1205 C26.5222,52.1205 34.1557,47.7600 34.2172,42.3675 L34.2262,42.3675 L34.2262,9.8093 L34.2135,9.8093 Z" style="fill-rule: evenodd; fill: url(#grad5686); "/>
    <defs xmlns="http://www.w3.org/2000/svg" xmlns:xlink="http://www.w3.org/1999/xlink">
      <linearGradient id="grad5687">
        <stop offset="0%" stop-color="#f9c33c" stop-opacity="1.0000"/>
        <stop offset="100%" stop-color="#fffce3" stop-opacity="1.0000"/>
      </linearGradient>
      <linearGradient xlink:href="#grad5687" id="grad5688" x1="0" y1="0" x2="0" y2="1" gradientTransform="rotate(-0 .5 .5)" gradientUnits="objectBoundingBox">
  </linearGradient>
    </defs>
    <path xmlns="http://www.w3.org/2000/svg" d="  M17.1067,19.6357 C26.5552,19.6357 34.2150,15.2400 34.2150,9.8175 C34.2150,9.8152 34.2135,9.8122 34.2135,9.8100 C34.2060,4.3912 26.5507,0.0000 17.1067,0.0000 C7.6590,0.0000 0.0000,4.3957 0.0000,9.8175 C0.0000,9.8752 0.0060,9.9315 0.0082,9.9892 C0.1687,15.3315 7.7595,19.6357 17.1067,19.6357 Z" style="fill-rule: evenodd; fill: url(#grad5688); "/>
    <path xmlns="http://www.w3.org/2000/svg" d="  M31.6103,57.4252 C33.4973,51.3420 34.1108,50.1570 35.9288,47.3325 C38.5073,43.3245 39.4958,43.4797 40.4580,42.2437 C41.8365,40.4715 41.3955,39.6067 40.1798,39.1440 C39.1043,38.7338 36.4823,38.1217 34.6515,38.4877 C32.6655,38.8845 31.1213,41.3017 30.7358,44.0130 C29.9228,49.7407 30.8835,55.5600 30.8835,55.5600 L31.1235,57.1522 L31.6103,57.4252 Z" style="fill-rule: evenodd; fill: #dae3f9; "/>
    <defs xmlns="http://www.w3.org/2000/svg">
      <radialGradient id="grad5689" cx="50.0000%" cy="50.0000%" r="100.0000%">
        <stop offset="0%" stop-color="#91c4ab" stop-opacity="1.0000"/>
        <stop offset="100%" stop-color="#60ab86" stop-opacity="1.0000"/>
      </radialGradient>
    </defs>
    <path xmlns="http://www.w3.org/2000/svg" d="  M30.7357,44.0130 C30.9585,42.4485 31.5675,40.9852 32.4232,39.9480 C30.9247,40.2982 29.4420,40.8075 28.0583,41.4907 C26.8440,42.0900 25.7978,43.1032 25.0133,44.4292 C24.9802,44.5687 23.3175,47.6565 23.4915,50.8515 C23.5650,52.2180 24.4943,53.3752 26.0107,54.1987 C26.0182,54.2018 26.0258,54.2048 26.0310,54.2093 L31.1242,57.1493 L30.8842,55.5615 C30.8835,55.5600 29.9228,49.7400 30.7357,44.0130 Z" style="fill-rule: evenodd; fill: url(#grad5689); "/>
    <path xmlns="http://www.w3.org/2000/svg" d="  M31.7947,40.9530 C31.7947,40.9530 30.9030,41.9708 30.4177,47.6077 C30.1950,50.2110 31.1212,57.1440 31.1212,57.1440 L30.9735,57.0563 C30.9735,57.0563 29.5245,51.7815 29.5597,47.1247 C29.5770,44.8642 30.0435,41.9715 31.9927,39.6982 L31.7947,40.9530 Z" style="fill-rule: evenodd; fill: #dae3f9; "/>
    <path xmlns="http://www.w3.org/2000/svg" d="  M30.7635,47.7480 C30.6607,53.5282 31.1235,57.1523 31.1235,57.1523 C31.1235,57.1523 30.1657,51.1553 30.0952,48.3060 C30.0187,45.1665 30.7395,41.3273 32.5650,39.0450 C32.5650,39.0458 30.8692,41.7405 30.7635,47.7480 Z" style="fill-rule: evenodd; fill: #727376; "/>
    <defs xmlns="http://www.w3.org/2000/svg">
      <radialGradient id="grad5690" cx="50.0000%" cy="50.0000%" r="100.0000%">
        <stop offset="0%" stop-color="#6f4923" stop-opacity="1.0000"/>
        <stop offset="100%" stop-color="#ebc8a7" stop-opacity="1.0000"/>
      </radialGradient>
    </defs>
    <path xmlns="http://www.w3.org/2000/svg" d="  M41.3895,40.2630 C41.3467,39.8528 41.1577,39.8745 41.1577,39.8745 C41.1577,39.8745 40.2990,34.7340 40.2742,34.4925 C40.1160,32.9400 38.9047,32.4390 36.3428,32.4390 C33.7778,32.4390 31.7010,33.6300 31.7010,35.1023 C31.7010,35.3955 31.7070,41.0805 31.7115,41.5725 C31.7423,45.3975 34.9897,47.2192 38.4705,44.1450 C40.3155,42.5145 41.3295,41.5883 41.3895,40.2630 Z" style="fill-rule: evenodd; fill: url(#grad5690); "/>
    <defs xmlns="http://www.w3.org/2000/svg">
      <radialGradient id="grad5691" cx="50.0000%" cy="50.0000%" r="100.0000%">
        <stop offset="0%" stop-color="#91c4ab" stop-opacity="1.0000"/>
        <stop offset="100%" stop-color="#60ab86" stop-opacity="1.0000"/>
      </radialGradient>
    </defs>
    <path xmlns="http://www.w3.org/2000/svg" d="  M33.4050,58.4647 C37.1168,60.6090 43.6035,60.3398 47.8905,57.8640 C50.6573,56.2672 51.7020,54.1710 51.3210,52.2577 C50.5560,48.4312 49.3710,42.9000 42.5243,40.2667 C42.0908,40.1010 41.6310,39.9622 41.1518,39.8422 C41.4713,40.3650 41.3438,41.0768 40.4722,42.1980 C39.5100,43.4355 38.5065,43.3245 35.9280,47.3325 C34.1100,50.1570 33.4965,51.3420 31.6095,57.4252 L33.4050,58.4647 Z" style="fill-rule: evenodd; fill: url(#grad5691); "/>
    <defs xmlns="http://www.w3.org/2000/svg">
      <radialGradient id="grad5692" cx="50.0000%" cy="50.0000%" r="100.0000%">
        <stop offset="0%" stop-color="#6f4923" stop-opacity="1.0000"/>
        <stop offset="100%" stop-color="#ebc8a7" stop-opacity="1.0000"/>
      </radialGradient>
    </defs>
    <path xmlns="http://www.w3.org/2000/svg" d="  M42.6420,28.9050 C41.8980,28.4663 40.6882,29.1833 39.9405,30.5055 C39.1920,31.8285 39.1875,33.2550 39.9300,33.6930 C40.6755,34.1310 41.8852,33.4148 42.6337,32.0933 C43.3815,30.7710 43.3860,29.3438 42.6420,28.9050 Z" style="fill-rule: evenodd; fill: url(#grad5692); "/>
    <defs xmlns="http://www.w3.org/2000/svg">
      <radialGradient id="grad5693" cx="50.0000%" cy="50.0000%" r="100.0000%">
        <stop offset="0%" stop-color="#6f4923" stop-opacity="1.0000"/>
        <stop offset="100%" stop-color="#e5c2a0" stop-opacity="1.0000"/>
      </radialGradient>
    </defs>
    <path xmlns="http://www.w3.org/2000/svg" d="  M42.6420,29.6310 C41.8980,29.1930 40.6882,29.9093 39.9405,31.2315 C39.1920,32.5545 39.1875,33.9810 39.9300,34.4205 C40.6755,34.8585 41.8852,34.1408 42.6337,32.8193 C43.3815,31.4970 43.3860,30.0690 42.6420,29.6310 Z" style="fill-rule: evenodd; fill: url(#grad5693); "/>
    <defs xmlns="http://www.w3.org/2000/svg">
      <radialGradient id="grad5694" cx="50.0000%" cy="50.0000%" r="100.0000%">
        <stop offset="0%" stop-color="#ebc8a7" stop-opacity="1.0000"/>
        <stop offset="100%" stop-color="#976d3d" stop-opacity="1.0000"/>
      </radialGradient>
    </defs>
    <path xmlns="http://www.w3.org/2000/svg" d="  M40.6793,30.7297 C40.6793,36.2198 38.0250,40.4767 34.2135,40.4767 C30.4005,40.4767 27.5985,36.0277 27.5985,30.5377 C27.5985,25.0477 28.4085,20.8980 34.2135,20.5965 C38.0190,20.3992 40.6793,25.2390 40.6793,30.7297 Z" style="fill-rule: evenodd; fill: url(#grad5694); "/>
    <path xmlns="http://www.w3.org/2000/svg" d="  M33.8970,40.0508 C33.9248,40.0508 33.9555,40.0538 33.9833,40.0538 C37.5810,40.0538 40.0905,36.0653 40.1250,30.9030 C39.6285,34.9103 36.9308,39.4208 33.8970,40.0508 Z" style="fill-rule: evenodd; fill: #a17c57; "/>
    <path xmlns="http://www.w3.org/2000/svg" d="  M42.0660,20.9017 C41.7510,20.6490 41.4142,20.4187 41.0483,20.2185 C40.3980,19.8630 39.4500,19.2112 37.1550,18.9480 C34.2750,18.5437 30.7755,18.9525 28.5885,20.2815 C26.9317,21.2895 26.4247,21.8580 26.0895,22.4475 C24.5017,24.7860 27.9555,25.9215 27.9555,25.9215 L28.1460,25.2292 C28.1460,25.2292 29.1892,24.9322 31.4872,25.5592 C34.0755,26.2650 36.1207,28.1355 38.6677,27.6187 C39.9540,27.5040 40.4415,28.8900 40.5840,29.4345 C40.5990,29.5702 40.6027,29.6512 40.6027,29.6512 C40.6027,29.6512 40.6117,29.6385 40.6245,29.6205 C40.6275,29.6392 40.6305,29.6512 40.6305,29.6512 C40.6305,29.6512 41.1195,28.9065 41.9768,28.8600 C42.1763,28.8487 42.3945,28.8750 42.6300,28.9560 C43.4535,29.2395 43.1295,31.3417 43.1093,31.5787 C43.1107,31.5787 43.1137,31.5802 43.1153,31.5802 C43.0275,31.9800 42.8693,32.4052 42.6345,32.8192 C41.9752,33.9810 40.9620,34.6755 40.2188,34.5270 L40.8060,37.7947 C40.8060,37.7947 41.2575,36.7605 42.0098,36.0285 C43.1040,34.9650 44.3332,33.3127 45.0068,31.4362 C46.1580,28.2360 45.7740,23.3437 42.0660,20.9017 Z" style="fill-rule: evenodd; fill: #3d3d3d; "/>
    <defs xmlns="http://www.w3.org/2000/svg">
      <radialGradient id="grad5695" cx="50.0000%" cy="50.0000%" r="100.0000%">
        <stop offset="0%" stop-color="#8e8e8e" stop-opacity="1.0000"/>
        <stop offset="100%" stop-color="#4f4f4f" stop-opacity="1.0000"/>
      </radialGradient>
    </defs>
    <path xmlns="http://www.w3.org/2000/svg" d="  M40.3043,26.1008 C37.8773,27.6068 32.0925,24.5850 30.5835,24.2025 C28.6590,23.7135 22.8615,23.7645 28.5885,20.2815 C31.7573,18.3555 37.6898,18.3615 40.4873,19.9763 C43.2848,21.5918 42.9690,24.4470 40.3043,26.1008 Z" style="fill-rule: evenodd; fill: url(#grad5695); "/>
    <defs xmlns="http://www.w3.org/2000/svg" xmlns:xlink="http://www.w3.org/1999/xlink">
      <linearGradient id="grad5696">
        <stop offset="0%" stop-color="#7f8787" stop-opacity="1.0000"/>
        <stop offset="100%" stop-color="#dae1e1" stop-opacity="1.0000"/>
      </linearGradient>
      <linearGradient xlink:href="#grad5696" id="grad5697" x1="0" y1="0" x2="0" y2="1" gradientTransform="rotate(135 .5 .5)" gradientUnits="objectBoundingBox">
  </linearGradient>
    </defs>
    <path xmlns="http://www.w3.org/2000/svg" d="  M30.8678,24.0142 C29.5043,23.6677 26.0438,23.6610 26.2680,22.4085 C26.3048,22.2082 26.4158,22.0200 26.4158,22.0200 C24.9810,23.8260 29.0378,23.8095 30.5835,24.2025 C32.0925,24.5857 37.8773,27.6075 40.3043,26.1007 C40.4010,26.0400 40.4933,25.9785 40.5855,25.9147 C38.1570,27.4170 32.3768,24.3967 30.8678,24.0142 Z" style="fill-rule: evenodd; fill: url(#grad5697); "/>
    <!--converted by libvisio2svg-->
  </g>
</svg>
