<svg xmlns="http://www.w3.org/2000/svg" xmlns:xlink="http://www.w3.org/1999/xlink" version="1.1" width="0.5590000000" height="0.8334000000" viewBox="0 0 40.2510 60.0022">
  <title><![CDATA[User 2 Right]]></title>
  <g transform=" scale(1.000000) ">
    <path xmlns="http://www.w3.org/2000/svg" d="  M0.0037,46.8360 C0.2565,43.8113 0.6337,40.2900 1.5142,38.0265 C2.9985,34.2105 6.7860,31.7752 10.7648,30.4537 C7.4055,28.0628 5.0948,23.0820 5.0948,17.3220 C5.0948,14.1945 5.3393,11.3647 6.1305,9.0412 C5.4713,8.2275 5.1007,7.3207 5.1007,6.3630 C5.1007,2.8500 10.0627,0.0015 16.1843,0.0015 C17.0550,0.0015 17.9010,0.0607 18.7148,0.1703 C22.8637,0.5392 24.9810,1.9680 25.9252,2.6325 C29.0940,4.8623 30.9352,11.8088 28.4827,18.4050 C28.5082,18.1155 28.3440,19.5000 27.6750,20.6850 C26.7307,22.3523 25.2900,23.3617 24.2070,23.2155 C24.3120,23.9288 25.2503,29.0775 25.6110,30.9810 C29.8658,32.7435 33.6975,35.3077 34.8405,36.1417 C40.2503,40.0898 40.2428,49.8802 40.2428,50.1690 C40.2428,55.6005 32.5725,60.0023 23.1112,60.0023 C18.3765,60.0023 14.1712,59.3017 11.0715,57.5190 C9.7875,56.7825 8.2867,55.9095 6.8618,55.0643 L6.8497,55.0583 L6.8497,55.0567 C6.0840,54.6038 5.3393,54.1575 4.6650,53.7472 C1.7737,51.9863 0.0000,49.6148 0.0000,47.0047 C0.0008,46.9493 0.0030,46.8908 0.0037,46.8360 Z" style="stroke-width: 1.5000; stroke: #8d98b5; stroke-dasharray: none; stroke-linecap: butt; stroke-linejoin: miter; fill: none; "/>
    <defs xmlns="http://www.w3.org/2000/svg">
      <radialGradient id="grad5584" cx="50.0000%" cy="50.0000%" r="100.0000%">
        <stop offset="0%" stop-color="#a6d6f5" stop-opacity="1.0000"/>
        <stop offset="100%" stop-color="#6c90b4" stop-opacity="1.0000"/>
      </radialGradient>
    </defs>
    <path xmlns="http://www.w3.org/2000/svg" d="  M40.2435,50.1675 C40.2435,49.8788 40.2510,40.0883 34.8413,36.1403 C33.0743,34.8495 24.8677,29.4120 18.6180,29.2230 C13.1557,29.0573 4.0290,31.5615 1.5142,38.0265 C0.6337,40.2908 0.2565,43.8113 0.0037,46.8360 C0.0030,46.8908 0.0007,46.9493 0.0007,47.0040 C0.0007,49.6140 1.7737,51.9863 4.6657,53.7465 C6.6007,54.9240 9.0945,56.3835 11.0723,57.5183 C14.1720,59.3010 18.3772,60.0015 23.1120,60.0015 C32.5732,60.0008 40.2435,55.5990 40.2435,50.1675 Z" style="fill-rule: evenodd; fill: url(#grad5584); "/>
    <path xmlns="http://www.w3.org/2000/svg" d="  M8.7825,56.3332 C12.3803,48.8160 13.0838,46.3650 14.7338,43.8465 C18.5820,37.9732 23.1555,36.4162 24.5715,34.5930 C26.6025,31.9822 25.8683,30.5947 24.0765,29.9122 C22.4932,29.3085 19.9808,28.9672 17.2815,29.5065 C14.3565,30.0915 10.3530,33.0585 9.2228,35.8282 C8.2388,38.2410 7.4175,54.6262 7.2893,53.2567 C7.4895,55.4002 7.4895,55.5742 7.4895,55.5742 L8.7825,56.3332 Z" style="fill-rule: evenodd; fill: #dae3f9; "/>
    <path xmlns="http://www.w3.org/2000/svg" d="  M11.7052,32.6670 C11.7052,32.6670 9.3322,34.1715 8.1180,43.6882 C7.6305,47.5057 7.4835,55.5592 7.4835,55.5592 L7.2810,55.4520 C7.2810,55.4520 6.7365,46.9425 7.0252,43.5810 C7.4197,38.9722 8.0160,35.8005 11.9955,30.8182 L11.7052,32.6670 Z" style="fill-rule: evenodd; fill: #dae3f9; "/>
    <path xmlns="http://www.w3.org/2000/svg" d="  M12.2310,32.6932 C12.2310,32.6932 9.4508,36.8850 8.6962,43.5240 C8.2627,47.3475 7.4895,55.5735 7.4895,55.5735 C7.4895,55.5735 7.2007,47.6865 7.5510,43.6065 C7.9462,38.9985 8.8582,34.8405 12.8385,29.8575 L12.2310,32.6932 Z" style="fill-rule: evenodd; fill: #727376; "/>
    <defs xmlns="http://www.w3.org/2000/svg">
      <radialGradient id="grad5585" cx="50.0000%" cy="50.0000%" r="100.0000%">
        <stop offset="0%" stop-color="#6f4923" stop-opacity="1.0000"/>
        <stop offset="100%" stop-color="#e5c2a0" stop-opacity="1.0000"/>
      </radialGradient>
    </defs>
    <path xmlns="http://www.w3.org/2000/svg" d="  M25.8412,31.6522 C25.7797,31.0470 25.6125,30.9802 25.6125,30.9802 C25.6125,30.9802 24.2355,23.5080 24.1987,23.1502 C23.9647,20.8635 22.1797,20.1232 18.4027,20.1232 C14.6272,20.1232 11.5657,21.8805 11.5657,24.0480 C11.5657,24.4785 11.4877,33.4335 11.4720,34.1580 C11.3797,38.3175 15.4792,40.7595 21.1312,37.3005 C24.2280,35.4052 25.7527,33.6030 25.8412,31.6522 Z" style="fill-rule: evenodd; fill: url(#grad5585); "/>
    <path xmlns="http://www.w3.org/2000/svg" d="  M27.6877,14.9167 C26.5912,14.2710 24.8077,15.3270 23.7052,17.2755 C22.6027,19.2240 22.5960,21.3270 23.6925,21.9727 C24.7897,22.6185 26.5717,21.5625 27.6757,19.6140 C28.7782,17.6655 28.7827,15.5617 27.6877,14.9167 Z" style="fill-rule: evenodd; fill: #c6a27e; "/>
    <defs xmlns="http://www.w3.org/2000/svg">
      <radialGradient id="grad5586" cx="50.0000%" cy="50.0000%" r="100.0000%">
        <stop offset="0%" stop-color="#6f4923" stop-opacity="1.0000"/>
        <stop offset="100%" stop-color="#e5c2a0" stop-opacity="1.0000"/>
      </radialGradient>
    </defs>
    <path xmlns="http://www.w3.org/2000/svg" d="  M27.6877,15.9870 C26.5912,15.3412 24.8077,16.3972 23.7052,18.3457 C22.6027,20.2942 22.5960,22.3972 23.6925,23.0430 C24.7897,23.6887 26.5717,22.6327 27.6757,20.6842 C28.7782,18.7350 28.7827,16.6327 27.6877,15.9870 Z" style="fill-rule: evenodd; fill: url(#grad5586); "/>
    <defs xmlns="http://www.w3.org/2000/svg">
      <radialGradient id="grad5587" cx="50.0000%" cy="50.0000%" r="100.0000%">
        <stop offset="0%" stop-color="#ebc8a7" stop-opacity="1.0000"/>
        <stop offset="100%" stop-color="#805a34" stop-opacity="1.0000"/>
      </radialGradient>
    </defs>
    <path xmlns="http://www.w3.org/2000/svg" d="  M24.7950,17.6055 C24.7950,25.6942 20.8837,31.9680 15.2670,31.9680 C9.6488,31.9680 5.0947,25.4100 5.0947,17.3213 C5.0947,9.2317 6.7132,3.1177 15.2670,2.6745 C20.8762,2.3842 24.7950,9.5160 24.7950,17.6055 Z" style="fill-rule: evenodd; fill: url(#grad5587); "/>
    <path xmlns="http://www.w3.org/2000/svg" d="  M14.8005,31.3380 C14.8440,31.3387 14.8868,31.3432 14.9295,31.3432 C20.2275,31.3432 23.9273,25.4662 23.9790,17.8605 C23.2470,23.7637 19.2705,30.4102 14.8005,31.3380 Z" style="fill-rule: evenodd; fill: #a17c57; "/>
    <path xmlns="http://www.w3.org/2000/svg" d="  M27.6690,14.9925 C28.8817,15.4095 28.5142,18.0547 28.4835,18.4042 C30.9360,11.8087 29.0940,4.8615 25.9260,2.6317 C24.8887,1.9020 22.4452,0.2460 17.4382,0.0892 C22.4062,2.6317 23.4742,11.0100 22.3597,11.6362 C24.3577,11.2875 24.6832,16.0147 24.6832,16.0147 C24.6832,16.0147 25.8142,14.3550 27.6690,14.9925 Z" style="fill-rule: evenodd; fill: #3d3d3d; "/>
    <defs xmlns="http://www.w3.org/2000/svg">
      <radialGradient id="grad5588" cx="50.0000%" cy="50.0000%" r="100.0000%">
        <stop offset="0%" stop-color="#8e8e8e" stop-opacity="1.0000"/>
        <stop offset="100%" stop-color="#4f4f4f" stop-opacity="1.0000"/>
      </radialGradient>
    </defs>
    <path xmlns="http://www.w3.org/2000/svg" d="  M27.2693,6.3630 A11.0843,6.3630 180.0000 1,1 16.1850,0.0000 A11.0843,6.3630 180.0000 0,1 27.2693,6.3630 Z" style="fill-rule: evenodd; fill: url(#grad5588); "/>
    <defs xmlns="http://www.w3.org/2000/svg" xmlns:xlink="http://www.w3.org/1999/xlink">
      <linearGradient id="grad5589">
        <stop offset="0%" stop-color="#7f8787" stop-opacity="1.0000"/>
        <stop offset="100%" stop-color="#dae1e1" stop-opacity="1.0000"/>
      </linearGradient>
      <linearGradient xlink:href="#grad5589" id="grad5590" x1="0" y1="0" x2="0" y2="1" gradientTransform="rotate(135 .5 .5)" gradientUnits="objectBoundingBox">
  </linearGradient>
    </defs>
    <path xmlns="http://www.w3.org/2000/svg" d="  M23.9085,12.6615 C23.9040,12.6615 23.3348,11.5237 22.1490,11.6145 C20.9648,11.7045 19.2915,12.2092 15.9113,12.0787 C10.7070,12.0750 6.6915,10.1857 5.5605,7.4040 C5.5380,7.3492 5.5650,7.2877 5.6190,7.2652 C5.6730,7.2435 5.7360,7.2697 5.7585,7.3245 C6.8198,9.9705 11.8088,11.1870 15.3270,11.3857 C18.0143,11.5380 20.6400,11.1765 22.0327,11.2425 C23.4277,11.3077 23.9085,12.6615 23.9085,12.6615 Z" style="fill-rule: evenodd; fill: url(#grad5590); "/>
    <!--converted by libvisio2svg-->
  </g>
</svg>
