<svg xmlns="http://www.w3.org/2000/svg" xmlns:xlink="http://www.w3.org/1999/xlink" version="1.1" width="0.7164000000" height="0.7879000000" viewBox="0 0 51.5828 56.7300">
  <title><![CDATA[Video Workload]]></title>
  <g transform=" scale(1.000000) ">
    <path xmlns="http://www.w3.org/2000/svg" d="  M33.0000,6.2347 L22.6275,0.0000 L0.0000,13.0065 L0.0000,45.5768 L0.5025,45.8715 C1.8473,47.5913 4.6335,49.2308 7.7093,50.1037 L11.7172,52.4580 L33.0000,40.2338 L33.0000,37.8270 L33.0000,37.7977 L32.5372,37.5780 L33.0000,37.3118 L33.0000,35.3550 L33.0000,35.3242 L32.5372,35.1045 L33.0000,34.8390 L33.0000,32.8823 L33.0000,32.8515 L32.5695,32.6482 L33.0000,32.4022 L33.0000,6.2663 L33.0000,6.2347 Z" style="stroke-width: 1.5000; stroke: #8d98b5; stroke-dasharray: none; stroke-linecap: butt; stroke-linejoin: miter; fill: none; "/>
    <path xmlns="http://www.w3.org/2000/svg" d="  M49.5397,15.0668 C49.5397,13.7513 48.6172,12.1507 47.4765,11.4938 C46.8810,11.1503 46.3462,11.1338 45.9697,11.3827 L45.9668,11.3783 L42.7523,13.2345 L36.6195,16.7760 C36.6518,16.7550 36.6885,16.7393 36.7238,16.7220 L8.6445,32.9175 C8.6445,32.9175 3.4882,38.0662 3.4710,38.0798 C3.4695,38.0752 3.4650,38.0693 3.4650,38.0693 L2.2410,39.3473 C2.2410,39.3473 2.2343,39.3555 2.2305,39.3585 L2.2110,39.3788 L2.2110,39.3803 C2.1683,39.4290 2.0880,39.5250 2.0438,39.6090 C1.8150,40.0388 2.1548,40.3912 2.5665,40.3838 C2.5770,40.3830 2.6063,40.3778 2.6445,40.3703 L2.6505,40.3838 C2.6505,40.3838 2.7953,40.3455 3.0428,40.2810 C3.5962,40.1498 4.4355,39.9382 4.4753,39.9195 C4.4775,39.9180 4.4753,39.9105 4.4753,39.9060 C6.7792,39.3045 10.4910,38.3340 10.8945,38.2245 C11.4833,38.0633 12.3787,37.6620 12.3787,37.6620 C12.1485,37.6980 39.8190,21.6000 39.8190,21.6000 C39.7357,21.6952 39.6398,21.7740 39.5310,21.8310 L44.5087,18.9577 L44.5095,18.9577 L48.8850,16.4310 L48.8828,16.4272 C49.2862,16.2255 49.5397,15.7545 49.5397,15.0668 Z" style="stroke-width: 1.5000; stroke: #8d98b5; stroke-dasharray: none; stroke-linecap: butt; stroke-linejoin: miter; fill: none; "/>
    <path xmlns="http://www.w3.org/2000/svg" d="  M24.7695,56.7300 L51.5820,56.7300 L51.5820,27.4425 L24.7695,27.4425 L24.7695,56.7300 Z" style="stroke-width: 1.5000; stroke: #8d98b5; stroke-dasharray: none; stroke-linecap: butt; stroke-linejoin: miter; fill: none; "/>
    <path xmlns="http://www.w3.org/2000/svg" d="  M20.0573,40.3193 L33.0000,32.8515 L32.5695,32.6483 L20.0573,39.7935 L20.0573,40.3193 Z" style="fill-rule: evenodd; fill: #3f3f3f; "/>
    <path xmlns="http://www.w3.org/2000/svg" d="  M20.0573,42.7912 L33.0000,35.3243 L32.5373,35.1045 L20.0573,42.2662 L20.0573,42.7912 Z" style="fill-rule: evenodd; fill: #3f3f3f; "/>
    <path xmlns="http://www.w3.org/2000/svg" d="  M20.0573,45.2633 L33.0000,37.7970 L32.5373,37.5772 L20.0573,44.7375 L20.0573,45.2633 Z" style="fill-rule: evenodd; fill: #3f3f3f; "/>
    <defs xmlns="http://www.w3.org/2000/svg" xmlns:xlink="http://www.w3.org/1999/xlink">
      <linearGradient id="grad5698">
        <stop offset="0%" stop-color="#646c6b" stop-opacity="1.0000"/>
        <stop offset="100%" stop-color="#dae1e1" stop-opacity="1.0000"/>
      </linearGradient>
      <linearGradient xlink:href="#grad5698" id="grad5699" x1="0" y1="0" x2="0" y2="1" gradientTransform="rotate(90 .5 .5)" gradientUnits="objectBoundingBox">
  </linearGradient>
    </defs>
    <path xmlns="http://www.w3.org/2000/svg" d="  M11.7172,18.7043 L0.0000,13.0065 L0.0000,45.5767 L0.5025,45.8715 C0.3937,45.7335 0.2932,45.5940 0.2055,45.4552 L0.2055,31.2847 L0.2055,28.1250 L0.2055,21.3623 L0.2055,14.5440 L10.7962,19.7797 C10.7962,19.7797 10.8360,19.7843 10.8577,19.7858 L10.8577,26.6505 L10.8577,33.3660 L10.8577,36.7245 L10.8577,50.6970 C9.8047,50.6032 8.7412,50.3962 7.7100,50.1037 L11.7180,52.4580 L11.7180,18.7043 L11.7172,18.7043 Z" style="fill-rule: evenodd; fill: url(#grad5699); "/>
    <defs xmlns="http://www.w3.org/2000/svg" xmlns:xlink="http://www.w3.org/1999/xlink">
      <linearGradient id="grad5700">
        <stop offset="0%" stop-color="#85919c" stop-opacity="0.9882"/>
        <stop offset="100%" stop-color="#dadfe1" stop-opacity="0.9882"/>
      </linearGradient>
      <linearGradient xlink:href="#grad5700" id="grad5701" x1="0" y1="0" x2="0" y2="1" gradientTransform="rotate(90 .5 .5)" gradientUnits="objectBoundingBox">
  </linearGradient>
    </defs>
    <path xmlns="http://www.w3.org/2000/svg" d="  M10.4092,36.7193 C10.4092,36.7710 10.3477,36.8160 10.2675,36.8160 C10.2600,36.8160 10.2457,36.8160 10.2457,36.8160 C7.0845,36.8632 2.9610,35.4255 0.6292,31.8623 C0.4710,31.6695 0.3277,31.4767 0.2062,31.2847 L0.2062,45.4560 C0.2940,45.5947 0.3952,45.7342 0.5032,45.8722 C1.8480,47.5920 4.6342,49.2315 7.7100,50.1045 C8.7412,50.3970 9.8047,50.6040 10.8577,50.6977 L10.8577,36.7253 C10.7025,36.7117 10.5487,36.6945 10.3935,36.6765 C10.4032,36.6885 10.4092,36.7027 10.4092,36.7193 Z M10.0927,48.9382 C9.9210,49.4812 9.0247,49.6807 8.0917,49.3860 C7.1572,49.0897 6.5392,48.4102 6.7102,47.8672 C6.8827,47.3250 7.7797,47.1247 8.7127,47.4202 C9.6480,47.7157 10.2645,48.3952 10.0927,48.9382 Z M10.2675,46.7655 C10.2600,46.7655 10.2457,46.7655 10.2457,46.7655 C6.9660,46.8142 2.6505,45.2677 0.3757,41.4052 C0.2115,41.1330 0.4080,41.1585 0.4080,41.1585 C1.8480,43.5937 6.0930,46.1505 10.1887,46.5615 C10.2060,46.5645 10.2667,46.5682 10.2735,46.5682 C10.3522,46.5682 10.4100,46.6170 10.4100,46.6695 C10.4100,46.7220 10.3477,46.7655 10.2675,46.7655 Z M10.2675,43.4482 C10.2600,43.4482 10.2457,43.4482 10.2457,43.4482 C6.9660,43.4977 2.6505,41.9512 0.3757,38.0887 C0.2115,37.8165 0.4080,37.8412 0.4080,37.8412 C1.8480,40.2772 6.0930,42.8332 10.1887,43.2450 C10.2060,43.2465 10.2667,43.2510 10.2735,43.2510 C10.3522,43.2510 10.4100,43.2990 10.4100,43.3522 C10.4100,43.4055 10.3477,43.4482 10.2675,43.4482 Z M10.2675,40.1317 C10.2600,40.1317 10.2457,40.1317 10.2457,40.1317 C6.9660,40.1805 2.6505,38.6332 0.3757,34.7722 C0.2115,34.4992 0.4080,34.5248 0.4080,34.5248 C1.8480,36.9600 6.0930,39.5167 10.1887,39.9285 C10.2060,39.9300 10.2667,39.9345 10.2735,39.9345 C10.3522,39.9345 10.4100,39.9832 10.4100,40.0357 C10.4100,40.0882 10.3477,40.1317 10.2675,40.1317 Z" style="fill-rule: evenodd; fill: url(#grad5701); "/>
    <defs xmlns="http://www.w3.org/2000/svg" xmlns:xlink="http://www.w3.org/1999/xlink">
      <linearGradient id="grad5702">
        <stop offset="0%" stop-color="#85919c" stop-opacity="0.9882"/>
        <stop offset="100%" stop-color="#dadfe1" stop-opacity="0.9882"/>
      </linearGradient>
      <linearGradient xlink:href="#grad5702" id="grad5703" x1="0" y1="0" x2="0" y2="1" gradientTransform="rotate(90 .5 .5)" gradientUnits="objectBoundingBox">
  </linearGradient>
    </defs>
    <path xmlns="http://www.w3.org/2000/svg" d="  M10.1880,26.6618 C10.2052,26.6633 10.2660,26.6678 10.2727,26.6678 C10.3515,26.6678 10.4092,26.7165 10.4092,26.7690 C10.4092,26.8215 10.3477,26.8650 10.2675,26.8650 C10.2600,26.8650 10.2457,26.8658 10.2457,26.8658 C7.1287,26.9123 3.0780,25.5158 0.7312,22.0620 C0.5287,21.8302 0.3532,21.5962 0.2055,21.3623 L0.2055,28.1250 C0.4410,28.4940 0.7477,28.8623 1.1137,29.2223 C0.8497,28.8840 0.6022,28.5225 0.3757,28.1385 C0.2115,27.8663 0.4080,27.8918 0.4080,27.8918 C1.3927,29.5560 3.6877,31.2773 6.3495,32.3318 C7.6035,32.7908 8.9377,33.1313 10.2697,33.3008 C10.2697,33.3008 10.2727,33.3015 10.2742,33.3015 C10.2802,33.3015 10.2862,33.3030 10.2915,33.3030 C10.4602,33.3248 10.6282,33.3443 10.7970,33.3600 C10.8172,33.3615 10.8367,33.3645 10.8585,33.3660 L10.8585,26.6505 C8.4930,26.4383 6.0697,25.6530 4.0852,24.5918 C5.8815,25.6500 8.0542,26.4473 10.1880,26.6618 Z M10.2675,30.1815 C10.2600,30.1815 10.2457,30.1830 10.2457,30.1830 C6.9660,30.2310 2.6505,28.6838 0.3757,24.8220 C0.2115,24.5490 0.4080,24.5745 0.4080,24.5745 C1.8480,27.0097 6.0930,29.5658 10.1887,29.9775 C10.2060,29.9798 10.2667,29.9835 10.2735,29.9835 C10.3522,29.9835 10.4100,30.0330 10.4100,30.0848 C10.4092,30.1373 10.3477,30.1815 10.2675,30.1815 Z" style="fill-rule: evenodd; fill: url(#grad5703); "/>
    <defs xmlns="http://www.w3.org/2000/svg" xmlns:xlink="http://www.w3.org/1999/xlink">
      <linearGradient id="grad5704">
        <stop offset="0%" stop-color="#c8d8dd" stop-opacity="0.9882"/>
        <stop offset="100%" stop-color="#f3f9f7" stop-opacity="0.9882"/>
      </linearGradient>
      <linearGradient xlink:href="#grad5704" id="grad5705" x1="0" y1="0" x2="0" y2="1" gradientTransform="rotate(90 .5 .5)" gradientUnits="objectBoundingBox">
  </linearGradient>
    </defs>
    <path xmlns="http://www.w3.org/2000/svg" d="  M10.7962,33.3600 C10.6275,33.3443 10.4595,33.3248 10.2907,33.3030 C10.3612,33.3113 10.4092,33.3540 10.4092,33.4028 C10.4092,33.4538 10.3477,33.4995 10.2675,33.4995 C10.2600,33.4995 10.2457,33.4995 10.2457,33.4995 C7.2922,33.5438 3.5002,32.2920 1.1137,29.2223 C0.7477,28.8623 0.4417,28.4940 0.2055,28.1250 L0.2055,31.2848 C0.3270,31.4768 0.4710,31.6695 0.6285,31.8623 C0.5422,31.7288 0.4567,31.5945 0.3750,31.4558 C0.2107,31.1835 0.4072,31.2090 0.4072,31.2090 C1.2682,32.6648 3.1320,34.1633 5.3655,35.2223 C6.4365,35.7285 7.5907,36.1343 8.7607,36.3855 C9.2355,36.4875 9.7132,36.5648 10.1872,36.6135 C10.2045,36.6150 10.2652,36.6195 10.2720,36.6195 C10.3275,36.6195 10.3717,36.6443 10.3920,36.6765 C10.5472,36.6945 10.7010,36.7125 10.8562,36.7253 L10.8562,33.3668 C10.8360,33.3645 10.8165,33.3615 10.7962,33.3600 Z" style="fill-rule: evenodd; fill: url(#grad5705); "/>
    <defs xmlns="http://www.w3.org/2000/svg" xmlns:xlink="http://www.w3.org/1999/xlink">
      <linearGradient id="grad5706">
        <stop offset="0%" stop-color="#bdd1dd" stop-opacity="0.9882"/>
        <stop offset="100%" stop-color="#f3f9f7" stop-opacity="0.9882"/>
      </linearGradient>
      <linearGradient xlink:href="#grad5706" id="grad5707" x1="0" y1="0" x2="0" y2="1" gradientTransform="rotate(90 .5 .5)" gradientUnits="objectBoundingBox">
  </linearGradient>
    </defs>
    <path xmlns="http://www.w3.org/2000/svg" d="  M10.7963,19.7797 L0.2055,14.5433 L0.2055,21.3615 C0.3533,21.5963 0.5295,21.8303 0.7313,22.0613 C0.6083,21.8813 0.4883,21.6968 0.3750,21.5048 C0.2108,21.2325 0.4073,21.2580 0.4073,21.2580 C1.0958,22.4243 2.4315,23.6183 4.0838,24.5917 C6.0683,25.6530 8.4915,26.4383 10.8570,26.6505 L10.8570,19.7858 C10.8360,19.7843 10.7963,19.7797 10.7963,19.7797 Z M0.5640,15.4492 L10.5338,20.3782 C5.5898,23.1113 0.7530,18.7043 0.5640,15.4492 Z" style="fill-rule: evenodd; fill: url(#grad5707); "/>
    <path xmlns="http://www.w3.org/2000/svg" d="  M10.2735,46.5682 C10.2660,46.5682 10.2060,46.5645 10.1888,46.5615 C6.0930,46.1505 1.8480,43.5937 0.4080,41.1585 C0.4080,41.1585 0.2115,41.1330 0.3758,41.4052 C2.6505,45.2677 6.9660,46.8150 10.2458,46.7655 C10.2458,46.7655 10.2608,46.7655 10.2675,46.7655 C10.3478,46.7655 10.4093,46.7205 10.4093,46.6687 C10.4093,46.6170 10.3523,46.5682 10.2735,46.5682 Z" style="fill-rule: evenodd; fill: #000000; "/>
    <path xmlns="http://www.w3.org/2000/svg" d="  M10.2735,43.2510 C10.2660,43.2510 10.2060,43.2465 10.1888,43.2450 C6.0930,42.8332 1.8480,40.2772 0.4080,37.8412 C0.4080,37.8412 0.2115,37.8165 0.3758,38.0887 C2.6505,41.9512 6.9660,43.4985 10.2458,43.4482 C10.2458,43.4482 10.2608,43.4482 10.2675,43.4482 C10.3478,43.4482 10.4093,43.4040 10.4093,43.3515 C10.4093,43.2990 10.3523,43.2510 10.2735,43.2510 Z" style="fill-rule: evenodd; fill: #000000; "/>
    <path xmlns="http://www.w3.org/2000/svg" d="  M10.2735,39.9345 C10.2660,39.9345 10.2060,39.9300 10.1888,39.9285 C6.0930,39.5167 1.8480,36.9600 0.4080,34.5247 C0.4080,34.5247 0.2115,34.4992 0.3758,34.7722 C2.6505,38.6332 6.9660,40.1812 10.2458,40.1317 C10.2458,40.1317 10.2608,40.1317 10.2675,40.1317 C10.3478,40.1317 10.4093,40.0867 10.4093,40.0350 C10.4093,39.9832 10.3523,39.9345 10.2735,39.9345 Z" style="fill-rule: evenodd; fill: #000000; "/>
    <path xmlns="http://www.w3.org/2000/svg" d="  M10.3935,36.6750 C9.8482,36.6082 9.3038,36.5100 8.7615,36.3840 C7.5908,36.1327 6.4365,35.7270 5.3663,35.2207 C3.1320,34.1625 1.2690,32.6640 0.4080,31.2075 C0.4080,31.2075 0.2115,31.1820 0.3758,31.4542 C0.4575,31.5930 0.5430,31.7272 0.6293,31.8607 C2.9610,35.4247 7.0845,36.8617 10.2458,36.8145 C10.2458,36.8145 10.2608,36.8145 10.2675,36.8145 C10.3478,36.8145 10.4093,36.7695 10.4093,36.7177 C10.4093,36.7027 10.4033,36.6885 10.3935,36.6750 Z" style="fill-rule: evenodd; fill: #000000; "/>
    <path xmlns="http://www.w3.org/2000/svg" d="  M10.2907,33.3030 C10.2833,33.3030 10.2758,33.3015 10.2690,33.3007 C10.2555,33.3000 10.2060,33.2970 10.1888,33.2947 C8.8920,33.1642 7.5810,32.8192 6.3495,32.3317 C3.6878,31.2772 1.3928,29.5560 0.4080,27.8917 C0.4080,27.8917 0.2115,27.8662 0.3758,28.1385 C0.6030,28.5232 0.8505,28.8840 1.1138,29.2222 C3.5003,32.2920 7.2923,33.5437 10.2458,33.4995 C10.2458,33.4995 10.2608,33.4995 10.2675,33.4995 C10.3478,33.4995 10.4093,33.4537 10.4093,33.4027 C10.4093,33.3540 10.3613,33.3112 10.2907,33.3030 Z" style="fill-rule: evenodd; fill: #000000; "/>
    <path xmlns="http://www.w3.org/2000/svg" d="  M10.2735,26.6677 C10.2660,26.6677 10.2060,26.6640 10.1887,26.6617 C8.0543,26.4472 5.8823,25.6500 4.0845,24.5917 C2.4323,23.6190 1.0965,22.4242 0.4080,21.2580 C0.4080,21.2580 0.2115,21.2317 0.3758,21.5047 C0.4883,21.6967 0.6090,21.8812 0.7320,22.0612 C3.0788,25.5150 7.1288,26.9115 10.2465,26.8650 C10.2465,26.8650 10.2615,26.8642 10.2682,26.8642 C10.3485,26.8642 10.4100,26.8207 10.4100,26.7682 C10.4100,26.7157 10.3522,26.6677 10.2735,26.6677 Z" style="fill-rule: evenodd; fill: #000000; "/>
    <path xmlns="http://www.w3.org/2000/svg" d="  M10.2735,29.9835 C10.2660,29.9835 10.2060,29.9797 10.1888,29.9775 C6.0930,29.5657 1.8480,27.0090 0.4080,24.5745 C0.4080,24.5745 0.2115,24.5490 0.3758,24.8220 C2.6505,28.6837 6.9660,30.2310 10.2458,30.1830 C10.2458,30.1830 10.2608,30.1815 10.2675,30.1815 C10.3478,30.1815 10.4093,30.1372 10.4093,30.0847 C10.4093,30.0337 10.3523,29.9835 10.2735,29.9835 Z" style="fill-rule: evenodd; fill: #000000; "/>
    <defs xmlns="http://www.w3.org/2000/svg">
      <linearGradient id="grad5708">
        <stop offset="0%" stop-color="#646c6b" stop-opacity="1.0000"/>
        <stop offset="100%" stop-color="#dae1e1" stop-opacity="1.0000"/>
      </linearGradient>
    </defs>
    <path xmlns="http://www.w3.org/2000/svg" d="  M8.7135,47.4195 C7.7805,47.1233 6.8843,47.3243 6.7110,47.8665 C6.5393,48.4103 7.1580,49.0898 8.0925,49.3853 C9.0255,49.6808 9.9218,49.4805 10.0935,48.9375 C10.2653,48.3945 9.6480,47.7158 8.7135,47.4195 Z M9.4178,49.2345 C9.0720,49.5623 8.4713,49.4880 8.0790,49.0703 C7.9530,48.9352 7.8638,48.7807 7.8128,48.6225 C7.7790,48.5198 7.7618,48.4163 7.7603,48.3143 C7.7573,48.0885 7.8353,47.8748 7.9973,47.7233 C8.3430,47.3970 8.9438,47.4713 9.3360,47.8883 C9.7283,48.3060 9.7650,48.9090 9.4178,49.2345 Z" style="fill-rule: evenodd; fill: url(#grad5708); "/>
    <path xmlns="http://www.w3.org/2000/svg" d="  M7.9965,47.7240 C7.8338,47.8755 7.7565,48.0892 7.7595,48.3150 C7.7655,48.1538 7.8270,48.0045 7.9425,47.8943 C8.0363,47.8073 8.1533,47.7570 8.2793,47.7435 C8.5298,47.6805 8.8268,47.7668 9.0383,47.9917 C9.3270,48.2985 9.3503,48.7455 9.0968,49.0035 C9.0810,49.0237 9.0615,49.0455 9.0428,49.0650 C8.7735,49.3162 8.3100,49.2600 8.0070,48.9360 C7.9178,48.8423 7.8533,48.7335 7.8120,48.6233 C7.8630,48.7815 7.9530,48.9360 8.0783,49.0710 C8.4705,49.4888 9.0713,49.5623 9.4170,49.2353 C9.7643,48.9090 9.7275,48.3068 9.3353,47.8890 C8.9430,47.4720 8.3423,47.3977 7.9965,47.7240 Z" style="fill-rule: evenodd; fill: #000000; "/>
    <defs xmlns="http://www.w3.org/2000/svg">
      <radialGradient id="grad5709" cx="0.0000%" cy="100.0000%" r="100.0000%">
        <stop offset="0%" stop-color="#ccff66" stop-opacity="1.0000"/>
        <stop offset="100%" stop-color="#7ab04a" stop-opacity="1.0000"/>
      </radialGradient>
    </defs>
    <path xmlns="http://www.w3.org/2000/svg" d="  M9.0428,49.0650 C9.0615,49.0455 9.0810,49.0237 9.0968,49.0035 C9.3503,48.7455 9.3270,48.2992 9.0383,47.9918 C8.8275,47.7668 8.5298,47.6805 8.2793,47.7435 C8.1533,47.7577 8.0363,47.8072 7.9425,47.8942 C7.8270,48.0037 7.7655,48.1537 7.7595,48.3150 C7.7610,48.4170 7.7783,48.5205 7.8120,48.6232 C7.8533,48.7335 7.9178,48.8422 8.0070,48.9360 C8.3100,49.2592 8.7735,49.3162 9.0428,49.0650 Z" style="fill-rule: evenodd; fill: url(#grad5709); "/>
    <defs xmlns="http://www.w3.org/2000/svg" xmlns:xlink="http://www.w3.org/1999/xlink">
      <linearGradient id="grad5710">
        <stop offset="0%" stop-color="#7f8787" stop-opacity="1.0000"/>
        <stop offset="100%" stop-color="#f3f9f7" stop-opacity="1.0000"/>
      </linearGradient>
      <linearGradient xlink:href="#grad5710" id="grad5711" x1="0" y1="0" x2="0" y2="1" gradientTransform="rotate(315 .5 .5)" gradientUnits="objectBoundingBox">
  </linearGradient>
    </defs>
    <path xmlns="http://www.w3.org/2000/svg" d="  M0.5640,15.4493 C0.7530,18.7035 5.5898,23.1112 10.5338,20.3783 L0.5640,15.4493 Z M2.4743,16.5195 L8.8493,19.6433 C5.6265,21.2422 2.5575,18.5010 2.4743,16.5195 Z" style="fill-rule: evenodd; fill: url(#grad5711); "/>
    <defs xmlns="http://www.w3.org/2000/svg">
      <radialGradient id="grad5712" cx="0.0000%" cy="100.0000%" r="100.0000%">
        <stop offset="0%" stop-color="#a7e968" stop-opacity="1.0000"/>
        <stop offset="100%" stop-color="#000000" stop-opacity="1.0000"/>
      </radialGradient>
    </defs>
    <path xmlns="http://www.w3.org/2000/svg" d="  M2.4742,16.5195 C2.5575,18.5010 5.6265,21.2422 8.8492,19.6432 L2.4742,16.5195 Z" style="fill-rule: evenodd; fill: url(#grad5712); "/>
    <defs xmlns="http://www.w3.org/2000/svg" xmlns:xlink="http://www.w3.org/1999/xlink">
      <linearGradient id="grad5713">
        <stop offset="0%" stop-color="#7f8787" stop-opacity="1.0000"/>
        <stop offset="100%" stop-color="#dae1e1" stop-opacity="1.0000"/>
      </linearGradient>
      <linearGradient xlink:href="#grad5713" id="grad5714" x1="0" y1="0" x2="0" y2="1" gradientTransform="rotate(45 .5 .5)" gradientUnits="objectBoundingBox">
  </linearGradient>
    </defs>
    <path xmlns="http://www.w3.org/2000/svg" d="  M11.7442,18.6773 L11.7262,18.6675 L11.7262,52.2420 L33.0000,40.2330 L33.0000,37.8262 L20.0572,45.2633 L20.0572,44.7375 L32.5372,37.5773 L33.0000,37.3110 L33.0000,35.3550 L20.0572,42.7913 L20.0572,42.2663 L32.5372,35.1045 L33.0000,34.8398 L33.0000,32.8823 L20.0572,40.3193 L20.0572,39.7935 L32.5695,32.6483 L33.0000,32.4023 L33.0000,6.2663 L30.1455,7.9058 L11.7442,18.6773 Z" style="fill-rule: evenodd; fill: url(#grad5714); "/>
    <defs xmlns="http://www.w3.org/2000/svg" xmlns:xlink="http://www.w3.org/1999/xlink">
      <linearGradient id="grad5715">
        <stop offset="0%" stop-color="#7f8787" stop-opacity="1.0000"/>
        <stop offset="100%" stop-color="#f3f9f7" stop-opacity="1.0000"/>
      </linearGradient>
      <linearGradient xlink:href="#grad5715" id="grad5716" x1="0" y1="0" x2="0" y2="1" gradientTransform="rotate(90 .5 .5)" gradientUnits="objectBoundingBox">
  </linearGradient>
    </defs>
    <path xmlns="http://www.w3.org/2000/svg" d="  M22.6275,0.0000 L0.1102,12.9990 L11.7262,18.6675 L33.0000,6.2348 L22.6275,0.0000 Z" style="fill-rule: evenodd; fill: url(#grad5716); "/>
    <defs xmlns="http://www.w3.org/2000/svg" xmlns:xlink="http://www.w3.org/1999/xlink">
      <linearGradient id="grad5717">
        <stop offset="0%" stop-color="#fcd67d" stop-opacity="1.0000"/>
        <stop offset="100%" stop-color="#fcf4b8" stop-opacity="1.0000"/>
      </linearGradient>
      <linearGradient xlink:href="#grad5717" id="grad5718" x1="0" y1="0" x2="0" y2="1" gradientTransform="rotate(180 .5 .5)" gradientUnits="objectBoundingBox">
  </linearGradient>
    </defs>
    <path xmlns="http://www.w3.org/2000/svg" d="  M45.4800,18.3525 L10.9335,38.1683 L7.7498,33.8685 L8.6400,32.9205 L42.7913,13.2233 L45.4800,18.3525 Z" style="fill-rule: evenodd; fill: url(#grad5718); "/>
    <path xmlns="http://www.w3.org/2000/svg" d="  M43.2105,18.3495 L10.1408,37.6387 L10.7168,38.0475 L12.3210,37.6792 L43.7790,19.3350 L43.2105,18.3495 Z" style="fill-rule: evenodd; fill: #ac8344; "/>
    <defs xmlns="http://www.w3.org/2000/svg" xmlns:xlink="http://www.w3.org/1999/xlink">
      <linearGradient id="grad5719">
        <stop offset="0%" stop-color="#fcd67d" stop-opacity="1.0000"/>
        <stop offset="100%" stop-color="#ca9747" stop-opacity="1.0000"/>
      </linearGradient>
      <linearGradient xlink:href="#grad5719" id="grad5720" x1="0" y1="0" x2="0" y2="1" gradientTransform="rotate(45 .5 .5)" gradientUnits="objectBoundingBox">
  </linearGradient>
    </defs>
    <path xmlns="http://www.w3.org/2000/svg" d="  M40.2600,14.6835 L8.6460,32.8950 C8.6460,32.8950 8.0475,33.7365 8.2912,34.1453 C8.5357,34.5540 9.0075,34.5293 9.0075,34.5293 L41.0527,16.0553 L40.2600,14.6835 Z" style="fill-rule: evenodd; fill: url(#grad5720); "/>
    <defs xmlns="http://www.w3.org/2000/svg" xmlns:xlink="http://www.w3.org/1999/xlink">
      <linearGradient id="grad5721">
        <stop offset="0%" stop-color="#f38484" stop-opacity="1.0000"/>
        <stop offset="100%" stop-color="#993333" stop-opacity="1.0000"/>
      </linearGradient>
      <linearGradient xlink:href="#grad5721" id="grad5722" x1="0" y1="0" x2="0" y2="1" gradientTransform="rotate(315 .5 .5)" gradientUnits="objectBoundingBox">
  </linearGradient>
    </defs>
    <path xmlns="http://www.w3.org/2000/svg" d="  M47.4765,11.4937 C46.8810,11.1502 46.3463,11.1337 45.9698,11.3827 L45.9668,11.3782 L41.5913,13.9050 L44.5095,18.9585 L48.8850,16.4317 L48.8828,16.4280 C49.2863,16.2262 49.5398,15.7552 49.5398,15.0675 C49.5398,13.7512 48.6173,12.1507 47.4765,11.4937 Z" style="fill-rule: evenodd; fill: url(#grad5722); "/>
    <defs xmlns="http://www.w3.org/2000/svg" xmlns:xlink="http://www.w3.org/1999/xlink">
      <linearGradient id="grad5723">
        <stop offset="0%" stop-color="#7f8787" stop-opacity="1.0000"/>
        <stop offset="100%" stop-color="#f3f9f7" stop-opacity="1.0000"/>
      </linearGradient>
      <linearGradient xlink:href="#grad5723" id="grad5724" x1="0" y1="0" x2="0" y2="1" gradientTransform="rotate(135 .5 .5)" gradientUnits="objectBoundingBox">
  </linearGradient>
    </defs>
    <path xmlns="http://www.w3.org/2000/svg" d="  M46.3253,16.9230 C46.3253,15.6075 45.4020,14.0070 44.2620,13.3500 C43.6658,13.0065 43.1310,12.9900 42.7545,13.2390 L42.7523,13.2353 L36.6195,16.7768 C36.9945,16.5420 37.5218,16.5668 38.1060,16.9043 C39.2460,17.5620 40.1693,19.1618 40.1693,20.4773 C40.1693,21.1553 39.9240,21.6255 39.5303,21.8318 L45.6690,18.2888 L45.6675,18.2843 C46.0710,18.0818 46.3253,17.6108 46.3253,16.9230 Z" style="fill-rule: evenodd; fill: url(#grad5724); "/>
    <defs xmlns="http://www.w3.org/2000/svg" xmlns:xlink="http://www.w3.org/1999/xlink">
      <linearGradient id="grad5725">
        <stop offset="0%" stop-color="#ffffff" stop-opacity="1.0000"/>
        <stop offset="100%" stop-color="#7f8787" stop-opacity="1.0000"/>
      </linearGradient>
      <linearGradient xlink:href="#grad5725" id="grad5726" x1="0" y1="0" x2="0" y2="1" gradientTransform="rotate(135 .5 .5)" gradientUnits="objectBoundingBox">
  </linearGradient>
    </defs>
    <path xmlns="http://www.w3.org/2000/svg" d="  M45.6682,18.2835 C46.0710,18.0817 46.3252,17.6107 46.3252,16.9230 C46.3252,16.8097 46.3155,16.6935 46.3027,16.5772 L40.1475,20.1315 C40.1617,20.2478 40.1700,20.3640 40.1700,20.4765 C40.1700,21.1545 39.9247,21.6248 39.5310,21.8310 L45.6697,18.2880 L45.6682,18.2835 Z" style="fill-rule: evenodd; fill: url(#grad5726); "/>
    <defs xmlns="http://www.w3.org/2000/svg" xmlns:xlink="http://www.w3.org/1999/xlink">
      <linearGradient id="grad5727">
        <stop offset="0%" stop-color="#185927" stop-opacity="1.0000"/>
        <stop offset="100%" stop-color="#367c3c" stop-opacity="1.0000"/>
      </linearGradient>
      <linearGradient xlink:href="#grad5727" id="grad5728" x1="0" y1="0" x2="0" y2="1" gradientTransform="rotate(135 .5 .5)" gradientUnits="objectBoundingBox">
  </linearGradient>
    </defs>
    <path xmlns="http://www.w3.org/2000/svg" d="  M41.8297,14.7540 C41.2530,14.4210 40.7325,14.3932 40.3582,14.6182 C40.0942,14.7772 39.0810,15.3525 38.8095,15.5115 C39.1822,15.2940 39.6997,15.3247 40.2705,15.6540 C41.4112,16.3117 42.3345,17.9115 42.3345,19.2270 C42.3345,19.8847 42.1035,20.3467 41.7307,20.5627 C42.0015,20.4060 43.0132,19.8180 43.2832,19.6642 C43.6597,19.4505 43.8930,18.9877 43.8930,18.3270 C43.8930,17.0107 42.9697,15.4117 41.8297,14.7540 Z" style="fill-rule: evenodd; fill: url(#grad5728); "/>
    <defs xmlns="http://www.w3.org/2000/svg" xmlns:xlink="http://www.w3.org/1999/xlink">
      <linearGradient id="grad5729">
        <stop offset="0%" stop-color="#ac562d" stop-opacity="1.0000"/>
        <stop offset="100%" stop-color="#ebc8a7" stop-opacity="1.0000"/>
      </linearGradient>
      <linearGradient xlink:href="#grad5729" id="grad5730" x1="0" y1="0" x2="0" y2="1" gradientTransform="rotate(135 .5 .5)" gradientUnits="objectBoundingBox">
  </linearGradient>
    </defs>
    <path xmlns="http://www.w3.org/2000/svg" d="  M12.3780,37.6620 C11.5673,37.7895 11.3827,37.4085 11.2425,36.9413 C11.0535,36.3113 12.2077,35.4053 11.8342,34.7588 C11.4615,34.1115 10.1490,34.1430 9.1665,34.0958 C8.5320,34.0658 8.4517,33.2423 8.6580,32.8815 L2.2095,39.3788 L2.6490,40.3838 C2.6490,40.3838 10.3042,38.3858 10.8930,38.2245 C11.4818,38.0633 12.3780,37.6620 12.3780,37.6620 Z" style="fill-rule: evenodd; fill: url(#grad5730); "/>
    <path xmlns="http://www.w3.org/2000/svg" d="  M4.7670,39.3892 C4.7670,38.9160 4.4355,38.3422 4.0260,38.1060 C3.8047,37.9770 3.6067,37.9785 3.4710,38.0797 C3.4695,38.0752 3.4650,38.0692 3.4650,38.0692 L2.2410,39.3472 C2.2410,39.3472 2.1052,39.4920 2.0437,39.6090 C1.8150,40.0387 2.1547,40.3912 2.5665,40.3837 C2.6753,40.3807 4.4175,39.9465 4.4752,39.9195 C4.4797,39.9172 4.4790,39.9075 4.4767,39.8962 C4.6522,39.8407 4.7670,39.6645 4.7670,39.3892 Z" style="fill-rule: evenodd; fill: #333333; "/>
    <defs xmlns="http://www.w3.org/2000/svg" xmlns:xlink="http://www.w3.org/1999/xlink">
      <linearGradient id="grad5731">
        <stop offset="0%" stop-color="#080808" stop-opacity="1.0000"/>
        <stop offset="100%" stop-color="#7f8787" stop-opacity="1.0000"/>
      </linearGradient>
      <linearGradient xlink:href="#grad5731" id="grad5732" x1="0" y1="0" x2="0" y2="1" gradientTransform="rotate(90 .5 .5)" gradientUnits="objectBoundingBox">
  </linearGradient>
    </defs>
    <path xmlns="http://www.w3.org/2000/svg" d="  M47.8702,27.4425 L47.8702,56.7300 L51.5820,56.7300 L51.5820,27.4425 L47.8702,27.4425 Z M50.8612,54.6457 C50.8612,54.8715 50.6752,55.0560 50.4457,55.0560 L49.0072,55.0560 C48.7777,55.0560 48.5925,54.8715 48.5925,54.6457 L48.5925,53.6100 C48.5925,53.3828 48.7777,53.1997 49.0072,53.1997 L50.4457,53.1997 C50.6752,53.1997 50.8612,53.3828 50.8612,53.6100 L50.8612,54.6457 Z M50.8612,51.1095 C50.8612,51.3360 50.6752,51.5198 50.4457,51.5198 L49.0072,51.5198 C48.7777,51.5198 48.5925,51.3360 48.5925,51.1095 L48.5925,50.0737 C48.5925,49.8472 48.7777,49.6635 49.0072,49.6635 L50.4457,49.6635 C50.6752,49.6635 50.8612,49.8472 50.8612,50.0737 L50.8612,51.1095 Z M50.8612,47.5732 C50.8612,47.8005 50.6752,47.9842 50.4457,47.9842 L49.0072,47.9842 C48.7777,47.9842 48.5925,47.8005 48.5925,47.5732 L48.5925,46.5383 C48.5925,46.3118 48.7777,46.1280 49.0072,46.1280 L50.4457,46.1280 C50.6752,46.1280 50.8612,46.3118 50.8612,46.5383 L50.8612,47.5732 Z M50.8612,44.0385 C50.8612,44.2643 50.6752,44.4488 50.4457,44.4488 L49.0072,44.4488 C48.7777,44.4488 48.5925,44.2643 48.5925,44.0385 L48.5925,43.0028 C48.5925,42.7755 48.7777,42.5925 49.0072,42.5925 L50.4457,42.5925 C50.6752,42.5925 50.8612,42.7755 50.8612,43.0028 L50.8612,44.0385 Z M50.8612,40.5030 C50.8612,40.7287 50.6752,40.9133 50.4457,40.9133 L49.0072,40.9133 C48.7777,40.9133 48.5925,40.7287 48.5925,40.5030 L48.5925,39.4672 C48.5925,39.2400 48.7777,39.0570 49.0072,39.0570 L50.4457,39.0570 C50.6752,39.0570 50.8612,39.2400 50.8612,39.4672 L50.8612,40.5030 Z M50.8612,36.9667 C50.8612,37.1933 50.6752,37.3770 50.4457,37.3770 L49.0072,37.3770 C48.7777,37.3770 48.5925,37.1933 48.5925,36.9667 L48.5925,35.9310 C48.5925,35.7045 48.7777,35.5208 49.0072,35.5208 L50.4457,35.5208 C50.6752,35.5208 50.8612,35.7045 50.8612,35.9310 L50.8612,36.9667 Z M50.8612,33.4313 C50.8612,33.6578 50.6752,33.8415 50.4457,33.8415 L49.0072,33.8415 C48.7777,33.8415 48.5925,33.6578 48.5925,33.4313 L48.5925,32.3955 C48.5925,32.1690 48.7777,31.9852 49.0072,31.9852 L50.4457,31.9852 C50.6752,31.9852 50.8612,32.1690 50.8612,32.3955 L50.8612,33.4313 Z M50.8612,29.8957 C50.8612,30.1222 50.6752,30.3060 50.4457,30.3060 L49.0072,30.3060 C48.7777,30.3060 48.5925,30.1222 48.5925,29.8957 L48.5925,28.8600 C48.5925,28.6335 48.7777,28.4498 49.0072,28.4498 L50.4457,28.4498 C50.6752,28.4498 50.8612,28.6335 50.8612,28.8600 L50.8612,29.8957 Z" style="fill-rule: evenodd; fill: url(#grad5732); "/>
    <defs xmlns="http://www.w3.org/2000/svg" xmlns:xlink="http://www.w3.org/1999/xlink">
      <linearGradient id="grad5733">
        <stop offset="0%" stop-color="#080808" stop-opacity="1.0000"/>
        <stop offset="100%" stop-color="#7f8787" stop-opacity="1.0000"/>
      </linearGradient>
      <linearGradient xlink:href="#grad5733" id="grad5734" x1="0" y1="0" x2="0" y2="1" gradientTransform="rotate(90 .5 .5)" gradientUnits="objectBoundingBox">
  </linearGradient>
    </defs>
    <path xmlns="http://www.w3.org/2000/svg" d="  M24.7702,27.4425 L24.7702,56.7300 L28.4820,56.7300 L28.4820,27.4425 L24.7702,27.4425 Z M27.7613,54.6457 C27.7613,54.8715 27.5753,55.0560 27.3450,55.0560 L25.9072,55.0560 C25.6777,55.0560 25.4917,54.8715 25.4917,54.6457 L25.4917,53.6100 C25.4917,53.3828 25.6777,53.1997 25.9072,53.1997 L27.3450,53.1997 C27.5753,53.1997 27.7613,53.3828 27.7613,53.6100 L27.7613,54.6457 Z M27.7613,51.1095 C27.7613,51.3360 27.5753,51.5198 27.3450,51.5198 L25.9072,51.5198 C25.6777,51.5198 25.4917,51.3360 25.4917,51.1095 L25.4917,50.0737 C25.4917,49.8472 25.6777,49.6635 25.9072,49.6635 L27.3450,49.6635 C27.5753,49.6635 27.7613,49.8472 27.7613,50.0737 L27.7613,51.1095 Z M27.7613,47.5732 C27.7613,47.8005 27.5753,47.9842 27.3450,47.9842 L25.9072,47.9842 C25.6777,47.9842 25.4917,47.8005 25.4917,47.5732 L25.4917,46.5383 C25.4917,46.3118 25.6777,46.1280 25.9072,46.1280 L27.3450,46.1280 C27.5753,46.1280 27.7613,46.3118 27.7613,46.5383 L27.7613,47.5732 Z M27.7613,44.0385 C27.7613,44.2643 27.5753,44.4488 27.3450,44.4488 L25.9072,44.4488 C25.6777,44.4488 25.4917,44.2643 25.4917,44.0385 L25.4917,43.0028 C25.4917,42.7755 25.6777,42.5925 25.9072,42.5925 L27.3450,42.5925 C27.5753,42.5925 27.7613,42.7755 27.7613,43.0028 L27.7613,44.0385 Z M27.7613,40.5030 C27.7613,40.7287 27.5753,40.9133 27.3450,40.9133 L25.9072,40.9133 C25.6777,40.9133 25.4917,40.7287 25.4917,40.5030 L25.4917,39.4672 C25.4917,39.2400 25.6777,39.0570 25.9072,39.0570 L27.3450,39.0570 C27.5753,39.0570 27.7613,39.2400 27.7613,39.4672 L27.7613,40.5030 Z M27.7613,36.9667 C27.7613,37.1933 27.5753,37.3770 27.3450,37.3770 L25.9072,37.3770 C25.6777,37.3770 25.4917,37.1933 25.4917,36.9667 L25.4917,35.9310 C25.4917,35.7045 25.6777,35.5208 25.9072,35.5208 L27.3450,35.5208 C27.5753,35.5208 27.7613,35.7045 27.7613,35.9310 L27.7613,36.9667 Z M27.7613,33.4313 C27.7613,33.6578 27.5753,33.8415 27.3450,33.8415 L25.9072,33.8415 C25.6777,33.8415 25.4917,33.6578 25.4917,33.4313 L25.4917,32.3955 C25.4917,32.1690 25.6777,31.9852 25.9072,31.9852 L27.3450,31.9852 C27.5753,31.9852 27.7613,32.1690 27.7613,32.3955 L27.7613,33.4313 Z M27.7613,29.8957 C27.7613,30.1222 27.5753,30.3060 27.3450,30.3060 L25.9072,30.3060 C25.6777,30.3060 25.4917,30.1222 25.4917,29.8957 L25.4917,28.8600 C25.4917,28.6335 25.6777,28.4498 25.9072,28.4498 L27.3450,28.4498 C27.5753,28.4498 27.7613,28.6335 27.7613,28.8600 L27.7613,29.8957 Z" style="fill-rule: evenodd; fill: url(#grad5734); "/>
    <defs xmlns="http://www.w3.org/2000/svg" xmlns:xlink="http://www.w3.org/1999/xlink">
      <linearGradient id="grad5735">
        <stop offset="0%" stop-color="#2e4495" stop-opacity="1.0000"/>
        <stop offset="100%" stop-color="#66ffff" stop-opacity="1.0000"/>
      </linearGradient>
      <linearGradient xlink:href="#grad5735" id="grad5736" x1="0" y1="0" x2="0" y2="1" gradientTransform="rotate(-0 .5 .5)" gradientUnits="objectBoundingBox">
  </linearGradient>
    </defs>
    <path xmlns="http://www.w3.org/2000/svg" d="  M32.3437,32.6272 L32.3430,32.6183 C32.3430,32.6183 32.3505,32.6175 32.3580,32.6167 L32.3595,32.6167 C32.3610,32.6167 32.3610,32.6160 32.3625,32.6160 C32.3685,32.6160 32.3730,32.6175 32.3782,32.6175 C32.4052,32.6175 32.4300,32.6212 32.4562,32.6220 C32.4810,32.6212 32.5035,32.6183 32.5282,32.6183 C32.5327,32.6183 32.5372,32.6167 32.5432,32.6167 C32.5462,32.6167 32.5462,32.6175 32.5477,32.6175 L32.5485,32.6175 C32.5537,32.6175 32.5605,32.6175 32.5605,32.6175 L32.5612,32.6265 C33.3532,32.6527 34.0477,32.8358 34.6410,33.1507 C35.0872,33.3248 35.5087,33.5475 35.8995,33.8145 L35.9070,33.8167 C35.9152,33.8220 35.9220,33.8288 35.9295,33.8333 C36.0600,33.9232 36.1867,34.0178 36.3082,34.1175 C36.3915,34.1842 36.4702,34.2563 36.5497,34.3268 C36.5977,34.3710 36.6487,34.4145 36.6960,34.4602 C36.7860,34.5465 36.8730,34.6358 36.9585,34.7265 C36.9847,34.7558 37.0117,34.7850 37.0387,34.8150 C37.1317,34.9200 37.2232,35.0258 37.3095,35.1367 L37.3065,35.1353 C37.9087,35.8987 38.3377,36.8040 38.5327,37.7940 C38.5350,37.8030 38.5357,37.8113 38.5372,37.8202 C38.5740,38.0093 38.6032,38.2013 38.6220,38.3955 C38.6422,38.5995 38.6535,38.8065 38.6535,39.0157 C38.6535,39.6045 38.4727,40.3320 38.1772,41.1293 L38.1780,41.1300 C38.1742,41.1397 38.1697,41.1503 38.1660,41.1600 C38.1217,41.2762 38.0782,41.3932 38.0295,41.5117 L47.0445,41.5117 L47.0445,28.7242 L30.5445,28.7242 L30.5445,32.9933 C30.6090,32.9737 30.6712,32.9535 30.7357,32.9362 C31.2165,32.7532 31.7535,32.6467 32.3437,32.6272 Z" style="fill-rule: evenodd; fill: url(#grad5736); "/>
    <path xmlns="http://www.w3.org/2000/svg" d="  M30.5445,34.2608 L30.5445,34.2488 C30.5422,34.2548 30.5400,34.2593 30.5370,34.2645 L30.5445,34.2608 Z" style="fill-rule: evenodd; fill: #f1df4d; "/>
    <path xmlns="http://www.w3.org/2000/svg" d="  M30.7357,32.9370 C30.6712,32.9543 30.6090,32.9745 30.5445,32.9940 L30.5445,33.0128 C30.6075,32.9858 30.6712,32.9618 30.7357,32.9370 Z" style="fill-rule: evenodd; fill: #f1df4d; "/>
    <path xmlns="http://www.w3.org/2000/svg" d="  M31.2592,32.9865 C31.0080,33.0525 30.7672,33.1313 30.5445,33.2340 L30.5445,33.7838 C30.7320,33.4538 30.9667,33.1845 31.2592,32.9865 Z" style="fill-rule: evenodd; fill: #f1df4d; "/>
    <path xmlns="http://www.w3.org/2000/svg" d="  M34.6582,34.4730 L34.7625,34.5375 L35.1705,33.7388 C34.7400,33.3900 34.2285,33.1388 33.6457,32.9873 C34.1212,33.3075 34.4437,33.8228 34.6582,34.4730 Z" style="fill-rule: evenodd; fill: #f1df4d; "/>
    <path xmlns="http://www.w3.org/2000/svg" d="  M35.8988,33.8145 C35.5080,33.5483 35.0865,33.3255 34.6403,33.1508 C34.9065,33.2925 35.1548,33.4583 35.3783,33.6518 L35.8988,33.8145 Z" style="fill-rule: evenodd; fill: #f1df4d; "/>
    <path xmlns="http://www.w3.org/2000/svg" d="  M34.3837,34.3020 C34.0320,33.4260 33.4747,32.8958 32.5275,32.8350 L32.5275,33.1538 L34.3837,34.3020 Z" style="fill-rule: evenodd; fill: #f1df4d; "/>
    <path xmlns="http://www.w3.org/2000/svg" d="  M32.3212,33.2340 L32.3212,32.8395 C31.4280,32.9160 30.8902,33.4230 30.5445,34.2495 L30.5445,34.2615 L32.3212,33.2340 Z" style="fill-rule: evenodd; fill: #f1df4d; "/>
    <path xmlns="http://www.w3.org/2000/svg" d="  M32.5275,41.5118 L32.6010,41.5118 L32.5275,41.4375 L32.5275,41.5118 Z" style="fill-rule: evenodd; fill: #606aa3; "/>
    <path xmlns="http://www.w3.org/2000/svg" d="  M32.2260,41.5118 L32.3212,41.5118 L32.3212,41.4098 L32.2260,41.5118 Z" style="fill-rule: evenodd; fill: #606aa3; "/>
    <path xmlns="http://www.w3.org/2000/svg" d="  M36.4552,41.5500 L36.4650,41.5500 L36.4582,41.5410 L36.4552,41.5500 Z" style="fill-rule: evenodd; fill: #606aa3; "/>
    <path xmlns="http://www.w3.org/2000/svg" d="  M38.3445,39.5453 L37.1752,38.0768 C37.1797,38.2073 37.1872,38.3355 37.1872,38.4675 C37.1872,38.8440 37.1685,39.2325 37.1287,39.6308 C37.1235,39.6803 37.1145,39.7350 37.1085,39.7868 L38.1772,41.1293 C38.4727,40.3320 38.6535,39.6045 38.6535,39.0158 C38.6535,39.1448 38.6422,39.2820 38.6265,39.4230 L38.3445,39.5453 Z" style="fill-rule: evenodd; fill: #d8123d; "/>
    <path xmlns="http://www.w3.org/2000/svg" d="  M35.0325,39.5490 C35.0077,40.1723 34.9440,40.8338 34.8517,41.5118 L35.0662,41.5118 L36.9255,39.5805 C36.9622,39.1980 36.9810,38.8268 36.9810,38.4683 C36.9802,38.2410 36.9705,38.0183 36.9562,37.8015 L36.8475,37.6650 L35.0325,39.5490 Z" style="fill-rule: evenodd; fill: #d8123d; "/>
    <path xmlns="http://www.w3.org/2000/svg" d="  M32.3212,37.6088 L30.5445,39.1290 L30.5445,41.2823 L32.3212,39.7613 L32.3212,37.6088 Z" style="fill-rule: evenodd; fill: #d8123d; "/>
    <path xmlns="http://www.w3.org/2000/svg" d="  M32.5275,37.6313 L32.5275,39.8108 L34.5937,41.5118 L34.6425,41.5118 C34.7377,40.8240 34.8030,40.1543 34.8270,39.5258 L32.5275,37.6313 Z" style="fill-rule: evenodd; fill: #d8123d; "/>
    <path xmlns="http://www.w3.org/2000/svg" d="  M36.5962,35.9115 C36.4305,35.4150 36.2115,34.9673 35.9385,34.5780 L34.9522,35.8673 C35.0227,36.4418 35.0527,37.0643 35.0602,37.7115 L36.5962,35.9115 Z" style="fill-rule: evenodd; fill: #5d6aac; "/>
    <path xmlns="http://www.w3.org/2000/svg" d="  M36.8490,36.0158 L38.5320,37.7940 C38.3370,36.8040 37.9080,35.8988 37.3057,35.1353 L36.2092,34.6080 C36.4785,35.0258 36.6915,35.4983 36.8490,36.0158 Z" style="fill-rule: evenodd; fill: #5d6aac; "/>
    <path xmlns="http://www.w3.org/2000/svg" d="  M32.3212,34.5698 L30.5445,35.7113 L30.5445,37.5000 L32.3212,35.9790 L32.3212,34.5698 Z" style="fill-rule: evenodd; fill: #5d6aac; "/>
    <path xmlns="http://www.w3.org/2000/svg" d="  M34.8555,37.9455 C34.8547,37.2300 34.8270,36.5475 34.7542,35.9280 L32.5275,34.4790 L32.5275,36.0293 L34.8555,37.9455 Z" style="fill-rule: evenodd; fill: #5d6aac; "/>
    <path xmlns="http://www.w3.org/2000/svg" d="  M32.5275,41.4375 L32.6010,41.5118 L34.5937,41.5118 L32.5275,39.8115 L32.5275,41.4375 Z" style="fill-rule: evenodd; fill: #e57132; "/>
    <path xmlns="http://www.w3.org/2000/svg" d="  M36.5077,41.5118 C36.7200,40.8090 36.8692,40.1603 36.9232,39.6105 C36.9240,39.6000 36.9255,39.5910 36.9255,39.5805 L35.0663,41.5118 L36.5077,41.5118 Z" style="fill-rule: evenodd; fill: #e57132; "/>
    <path xmlns="http://www.w3.org/2000/svg" d="  M38.1772,41.1300 L37.1085,39.7875 C37.0432,40.2998 36.9090,40.8810 36.7245,41.5050 L36.7320,41.5125 L38.0265,41.5125 C38.0737,41.3955 38.1232,41.2770 38.1667,41.1608 C38.1697,41.1503 38.1735,41.1398 38.1772,41.1300 Z" style="fill-rule: evenodd; fill: #e57132; "/>
    <path xmlns="http://www.w3.org/2000/svg" d="  M32.3212,39.7613 L30.5445,41.2823 L30.5445,41.5118 L32.2260,41.5118 L32.3212,41.4098 L32.3212,39.7613 Z" style="fill-rule: evenodd; fill: #e57132; "/>
    <path xmlns="http://www.w3.org/2000/svg" d="  M35.0595,37.7108 C35.0602,37.8135 35.0617,37.9140 35.0625,38.0168 C35.0625,38.4638 35.0527,38.9220 35.0400,39.3848 C35.0385,39.4388 35.0355,39.4943 35.0325,39.5490 L36.8475,37.6650 L36.9563,37.8015 C36.9090,37.1145 36.7860,36.4815 36.5970,35.9108 L35.0595,37.7108 Z" style="fill-rule: evenodd; fill: #55007f; "/>
    <path xmlns="http://www.w3.org/2000/svg" d="  M30.5445,37.5000 L30.5445,39.1290 L32.3212,37.6088 L32.3212,35.9790 L30.5445,37.5000 Z" style="fill-rule: evenodd; fill: #55007f; "/>
    <path xmlns="http://www.w3.org/2000/svg" d="  M37.1760,38.0768 L38.3452,39.5453 L38.6265,39.4230 C38.6422,39.2820 38.6535,39.1448 38.6535,39.0158 C38.6535,38.8065 38.6422,38.5995 38.6220,38.3955 C38.6032,38.2013 38.5740,38.0093 38.5372,37.8203 C38.5350,37.8113 38.5342,37.8030 38.5327,37.7940 L36.8497,36.0158 C37.0395,36.6413 37.1475,37.3343 37.1760,38.0768 Z" style="fill-rule: evenodd; fill: #55007f; "/>
    <path xmlns="http://www.w3.org/2000/svg" d="  M32.5275,37.6313 L34.8270,39.5250 C34.8300,39.4770 34.8322,39.4268 34.8337,39.3788 C34.8465,38.9168 34.8562,38.4600 34.8562,38.0168 C34.8562,37.9935 34.8547,37.9695 34.8547,37.9455 L32.5267,36.0293 L32.5267,37.6313 L32.5275,37.6313 Z" style="fill-rule: evenodd; fill: #55007f; "/>
    <path xmlns="http://www.w3.org/2000/svg" d="  M32.3212,34.5698 L32.3212,33.2340 L30.5445,34.2608 L30.5445,35.7113 L32.3212,34.5698 Z" style="fill-rule: evenodd; fill: #00a0c6; "/>
    <path xmlns="http://www.w3.org/2000/svg" d="  M32.5275,34.4790 L34.7542,35.9280 C34.6822,35.3213 34.5682,34.7745 34.3897,34.3185 C34.3882,34.3125 34.3852,34.3080 34.3837,34.3028 L32.5275,33.1545 L32.5275,34.4790 Z" style="fill-rule: evenodd; fill: #00a0c6; "/>
    <path xmlns="http://www.w3.org/2000/svg" d="  M35.9760,34.2713 C36.0585,34.3785 36.1357,34.4925 36.2100,34.6080 L37.3065,35.1353 C37.2210,35.0258 37.1318,34.9185 37.0388,34.8150 C37.0118,34.7850 36.9848,34.7558 36.9585,34.7265 C36.8738,34.6358 36.7868,34.5465 36.6960,34.4603 C36.6487,34.4145 36.5978,34.3710 36.5498,34.3268 C36.4703,34.2555 36.3915,34.1843 36.3082,34.1175 C36.1867,34.0178 36.0600,33.9233 35.9295,33.8333 C35.9197,33.8265 35.9092,33.8205 35.8995,33.8145 L35.3797,33.6518 C35.5965,33.8370 35.7975,34.0418 35.9760,34.2713 Z" style="fill-rule: evenodd; fill: #00a0c6; "/>
    <path xmlns="http://www.w3.org/2000/svg" d="  M34.6582,34.4730 C34.7955,34.8893 34.8908,35.3588 34.9522,35.8665 L35.9385,34.5773 C35.7165,34.2593 35.4630,33.9750 35.1705,33.7380 L34.7625,34.5368 L34.6582,34.4730 Z" style="fill-rule: evenodd; fill: #00a0c6; "/>
    <path xmlns="http://www.w3.org/2000/svg" d="  M37.1760,38.0768 C37.1475,37.3343 37.0395,36.6413 36.8490,36.0158 C36.6915,35.4983 36.4785,35.0258 36.2092,34.6080 C36.1350,34.4925 36.0585,34.3778 35.9752,34.2713 C35.7967,34.0418 35.5957,33.8370 35.3775,33.6518 C35.1532,33.4583 34.9057,33.2925 34.6395,33.1508 C34.0462,32.8358 33.3510,32.6528 32.5597,32.6265 L32.5597,32.6175 C32.5597,32.6175 32.5522,32.6175 32.5470,32.6175 L32.5462,32.6175 C32.5447,32.6175 32.5447,32.6168 32.5417,32.6168 C32.5357,32.6168 32.5312,32.6183 32.5267,32.6183 C32.5020,32.6183 32.4795,32.6213 32.4547,32.6220 C32.4285,32.6213 32.4037,32.6175 32.3767,32.6175 C32.3715,32.6175 32.3670,32.6160 32.3610,32.6160 C32.3595,32.6160 32.3595,32.6168 32.3580,32.6168 L32.3565,32.6168 C32.3490,32.6175 32.3422,32.6183 32.3422,32.6183 L32.3422,32.6273 C31.7520,32.6468 31.2150,32.7533 30.7335,32.9370 C30.6690,32.9618 30.6052,32.9858 30.5422,33.0135 L30.5422,33.2348 C30.7650,33.1320 31.0057,33.0533 31.2570,32.9873 C30.9645,33.1853 30.7297,33.4545 30.5422,33.7845 L30.5422,34.2495 C30.8880,33.4230 31.4257,32.9160 32.3190,32.8395 L32.3190,41.5118 L32.5252,41.5118 L32.5252,32.8350 C33.4725,32.8958 34.0297,33.4260 34.3815,34.3020 C34.3830,34.3080 34.3860,34.3125 34.3875,34.3178 C34.5660,34.7738 34.6807,35.3213 34.7520,35.9273 C34.8247,36.5468 34.8525,37.2293 34.8532,37.9448 C34.8532,37.9688 34.8547,37.9920 34.8547,38.0160 C34.8547,38.4600 34.8442,38.9160 34.8322,39.3780 C34.8307,39.4260 34.8285,39.4763 34.8255,39.5243 C34.8015,40.1535 34.7362,40.8225 34.6410,41.5103 L34.8495,41.5103 C34.9417,40.8323 35.0055,40.1708 35.0302,39.5475 C35.0332,39.4935 35.0362,39.4380 35.0377,39.3833 C35.0512,38.9205 35.0602,38.4615 35.0602,38.0153 C35.0595,37.9125 35.0580,37.8120 35.0572,37.7093 C35.0497,37.0620 35.0197,36.4395 34.9492,35.8650 C34.8877,35.3565 34.7925,34.8870 34.6552,34.4715 C34.4407,33.8220 34.1182,33.3060 33.6420,32.9858 C34.2247,33.1373 34.7362,33.3885 35.1667,33.7373 C35.4600,33.9743 35.7135,34.2585 35.9347,34.5765 C36.2077,34.9665 36.4267,35.4135 36.5925,35.9100 C36.7822,36.4808 36.9052,37.1130 36.9517,37.8008 C36.9667,38.0175 36.9757,38.2403 36.9765,38.4675 C36.9765,38.8268 36.9577,39.1980 36.9210,39.5798 C36.9210,39.5903 36.9195,39.5993 36.9187,39.6098 C36.8655,40.1595 36.7155,40.8090 36.5032,41.5110 L36.7170,41.5110 C36.7177,41.5080 36.7185,41.5058 36.7200,41.5035 C36.9045,40.8795 37.0387,40.2983 37.1040,39.7860 C37.1107,39.7343 37.1197,39.6795 37.1242,39.6300 C37.1640,39.2318 37.1827,38.8433 37.1827,38.4668 C37.1872,38.3355 37.1805,38.2073 37.1760,38.0768 Z" style="fill-rule: evenodd; fill: #333333; "/>
    <defs xmlns="http://www.w3.org/2000/svg">
      <radialGradient id="grad5737" cx="100.0000%" cy="0.0000%" r="100.0000%">
        <stop offset="0%" stop-color="#d8123d" stop-opacity="1.0000"/>
        <stop offset="100%" stop-color="#993333" stop-opacity="1.0000"/>
      </radialGradient>
    </defs>
    <path xmlns="http://www.w3.org/2000/svg" d="  M42.8347,37.5750 L45.0157,39.1680 L46.2292,38.1180 C46.5997,37.4400 46.8877,36.7905 47.0122,36.2482 L46.7647,36.0607 L45.2722,37.6995 L42.9367,35.9925 L40.9065,37.7550 L39.3975,36.1012 L38.8507,36.5700 C38.9925,37.0050 39.2212,37.4917 39.5002,37.9965 L41.0595,39.1132 L42.8347,37.5750 Z" style="fill-rule: evenodd; fill: url(#grad5737); "/>
    <defs xmlns="http://www.w3.org/2000/svg">
      <radialGradient id="grad5738" cx="50.0000%" cy="50.0000%" r="100.0000%">
        <stop offset="0%" stop-color="#d8123d" stop-opacity="1.0000"/>
        <stop offset="100%" stop-color="#993333" stop-opacity="1.0000"/>
      </radialGradient>
    </defs>
    <path xmlns="http://www.w3.org/2000/svg" d="  M41.0602,35.3422 L42.8340,33.8040 L45.0150,35.3970 L46.4887,33.7807 C45.7560,32.6603 44.4187,31.9073 42.8835,31.9073 C41.2117,31.9073 39.7725,32.8005 39.0982,34.0905 L39.5580,33.6960 L41.0602,35.3422 Z" style="fill-rule: evenodd; fill: url(#grad5738); "/>
    <defs xmlns="http://www.w3.org/2000/svg">
      <radialGradient id="grad5739" cx="50.0000%" cy="50.0000%" r="100.0000%">
        <stop offset="0%" stop-color="#f1df4d" stop-opacity="1.0000"/>
        <stop offset="100%" stop-color="#ca9747" stop-opacity="1.0000"/>
      </radialGradient>
    </defs>
    <path xmlns="http://www.w3.org/2000/svg" d="  M40.9065,37.7550 L42.9367,35.9925 L45.2715,37.6987 L46.7640,36.0600 L47.0115,36.2475 C47.0527,36.0615 47.0790,35.8867 47.0790,35.7293 C47.0790,35.0168 46.8607,34.3515 46.4887,33.7800 L45.0150,35.3963 L42.8340,33.8033 L41.0602,35.3415 L39.5587,33.6953 L39.0990,34.0898 C38.8395,34.5870 38.6902,35.1413 38.6902,35.7293 C38.6902,35.9745 38.7495,36.2595 38.8515,36.5692 L39.3982,36.1005 L40.9065,37.7550 Z" style="fill-rule: evenodd; fill: url(#grad5739); "/>
    <defs xmlns="http://www.w3.org/2000/svg">
      <radialGradient id="grad5740" cx="50.0000%" cy="50.0000%" r="100.0000%">
        <stop offset="0%" stop-color="#f1df4d" stop-opacity="1.0000"/>
        <stop offset="100%" stop-color="#ca9747" stop-opacity="1.0000"/>
      </radialGradient>
    </defs>
    <path xmlns="http://www.w3.org/2000/svg" d="  M45.0157,39.1680 L42.8347,37.5750 L41.0610,39.1132 L39.5017,37.9965 C39.9802,38.8612 40.6050,39.7777 41.1915,40.5787 L42.9450,39.2557 L44.6962,40.5360 C45.2272,39.7830 45.7860,38.9310 46.2300,38.1172 L45.0157,39.1680 Z" style="fill-rule: evenodd; fill: url(#grad5740); "/>
    <defs xmlns="http://www.w3.org/2000/svg">
      <radialGradient id="grad5741" cx="100.0000%" cy="0.0000%" r="100.0000%">
        <stop offset="0%" stop-color="#d8123d" stop-opacity="1.0000"/>
        <stop offset="100%" stop-color="#993333" stop-opacity="1.0000"/>
      </radialGradient>
    </defs>
    <path xmlns="http://www.w3.org/2000/svg" d="  M43.9567,41.5117 L44.6955,40.5367 L42.9442,39.2557 L41.1907,40.5787 L41.9250,41.5117 L43.9567,41.5117 Z" style="fill-rule: evenodd; fill: url(#grad5741); "/>
    <defs xmlns="http://www.w3.org/2000/svg">
      <radialGradient id="grad5742" cx="100.0000%" cy="0.0000%" r="100.0000%">
        <stop offset="0%" stop-color="#8d98b5" stop-opacity="1.0000"/>
        <stop offset="100%" stop-color="#080808" stop-opacity="1.0000"/>
      </radialGradient>
    </defs>
    <path xmlns="http://www.w3.org/2000/svg" d="  M41.5012,40.9845 C41.5012,40.9845 41.6797,41.2147 41.9122,41.5117 L43.9845,41.5117 L44.3872,40.9845 L43.9492,40.9845 C44.9197,39.0315 45.8872,36.7222 45.8872,35.2687 C45.8872,32.3505 43.8847,32.0205 43.8847,32.0205 C43.8847,32.0205 44.4885,32.2762 44.4885,35.1937 C44.4885,36.6555 43.8607,39.0037 43.2345,40.9845 L42.6592,40.9845 C42.1440,39.0712 41.6085,36.7132 41.6085,35.1937 C41.6085,32.2755 42.2445,31.9492 42.2445,31.9492 C42.2445,31.9492 40.2097,32.3505 40.2097,35.2687 C40.2097,36.7800 41.1150,39.0975 41.9880,40.9845 L41.5012,40.9845 Z" style="fill-rule: evenodd; fill: url(#grad5742); "/>
    <defs xmlns="http://www.w3.org/2000/svg" xmlns:xlink="http://www.w3.org/1999/xlink">
      <linearGradient id="grad5743">
        <stop offset="0%" stop-color="#2e4495" stop-opacity="1.0000"/>
        <stop offset="100%" stop-color="#66ffff" stop-opacity="1.0000"/>
      </linearGradient>
      <linearGradient xlink:href="#grad5743" id="grad5744" x1="0" y1="0" x2="0" y2="1" gradientTransform="rotate(-0 .5 .5)" gradientUnits="objectBoundingBox">
  </linearGradient>
    </defs>
    <path xmlns="http://www.w3.org/2000/svg" d="  M30.5445,55.5090 L47.0445,55.5090 L47.0445,42.7223 L30.5445,42.7223 L30.5445,55.5090 Z" style="fill-rule: evenodd; fill: url(#grad5744); "/>
    <path xmlns="http://www.w3.org/2000/svg" d="  M37.5360,47.3610 L37.9327,47.3610 L37.9327,47.0790 L37.5360,47.0790 L37.5360,47.3610 Z" style="fill-rule: evenodd; fill: #ffffff; "/>
    <defs xmlns="http://www.w3.org/2000/svg">
      <radialGradient id="grad5745" cx="50.0000%" cy="50.0000%" r="100.0000%">
        <stop offset="0%" stop-color="#d8123d" stop-opacity="1.0000"/>
        <stop offset="100%" stop-color="#993333" stop-opacity="1.0000"/>
      </radialGradient>
    </defs>
    <path xmlns="http://www.w3.org/2000/svg" d="  M38.8485,44.6955 C38.6167,44.3048 38.1922,44.0430 37.7062,44.0430 C37.1760,44.0430 36.7192,44.3543 36.5047,44.8035 C36.4230,44.9760 36.3750,45.1695 36.3750,45.3735 C36.3750,45.9653 37.5450,46.9560 37.5450,46.9560 L37.9027,46.9560 C37.9027,46.9560 39.0367,45.8783 39.0367,45.3735 C39.0360,45.1260 38.9670,44.8943 38.8485,44.6955 Z" style="fill-rule: evenodd; fill: url(#grad5745); "/>
    <path xmlns="http://www.w3.org/2000/svg" d="  M46.6162,55.4400 L46.5585,55.5083 L46.7002,55.5083 L46.6162,55.4400 Z" style="fill-rule: evenodd; fill: #d8123d; "/>
    <path xmlns="http://www.w3.org/2000/svg" d="  M42.5573,55.3605 L42.4020,55.5083 L42.7440,55.5083 L42.5573,55.3605 Z" style="fill-rule: evenodd; fill: #d8123d; "/>
    <path xmlns="http://www.w3.org/2000/svg" d="  M38.8065,55.4865 L38.7817,55.5083 L38.8252,55.5083 L38.8065,55.4865 Z" style="fill-rule: evenodd; fill: #d8123d; "/>
    <defs xmlns="http://www.w3.org/2000/svg">
      <radialGradient id="grad5746" cx="50.0000%" cy="50.0000%" r="100.0000%">
        <stop offset="0%" stop-color="#d8123d" stop-opacity="1.0000"/>
        <stop offset="100%" stop-color="#993333" stop-opacity="1.0000"/>
      </radialGradient>
    </defs>
    <path xmlns="http://www.w3.org/2000/svg" d="  M41.1532,54.0465 L42.4492,52.8128 L44.2012,54.2175 C44.1750,51.1838 43.6230,50.7727 43.5690,50.7412 C43.2270,50.6565 42.8707,50.6055 42.5017,50.6055 C42.2685,50.6055 42.0405,50.6242 41.8177,50.6587 C41.7577,50.7022 41.2012,51.1755 41.1532,54.0465 Z" style="fill-rule: evenodd; fill: url(#grad5746); "/>
    <defs xmlns="http://www.w3.org/2000/svg">
      <radialGradient id="grad5747" cx="50.0000%" cy="50.0000%" r="100.0000%">
        <stop offset="0%" stop-color="#d8123d" stop-opacity="1.0000"/>
        <stop offset="100%" stop-color="#993333" stop-opacity="1.0000"/>
      </radialGradient>
    </defs>
    <path xmlns="http://www.w3.org/2000/svg" d="  M45.6262,53.6273 L46.3237,52.7873 C45.7320,51.7920 44.7637,51.0487 43.6155,50.7510 C43.8937,50.8230 45.3247,51.3112 45.6262,53.6273 Z" style="fill-rule: evenodd; fill: url(#grad5747); "/>
    <defs xmlns="http://www.w3.org/2000/svg">
      <radialGradient id="grad5748" cx="50.0000%" cy="50.0000%" r="100.0000%">
        <stop offset="0%" stop-color="#d8123d" stop-opacity="1.0000"/>
        <stop offset="100%" stop-color="#993333" stop-opacity="1.0000"/>
      </radialGradient>
    </defs>
    <path xmlns="http://www.w3.org/2000/svg" d="  M39.7320,53.5958 C40.0515,51.2513 41.5440,50.7345 41.7870,50.6663 C40.3260,50.9033 39.1057,51.8535 38.4900,53.1480 L38.9767,52.6883 L39.7320,53.5958 Z" style="fill-rule: evenodd; fill: url(#grad5748); "/>
    <defs xmlns="http://www.w3.org/2000/svg">
      <radialGradient id="grad5749" cx="50.0000%" cy="50.0000%" r="100.0000%">
        <stop offset="0%" stop-color="#f1df4d" stop-opacity="1.0000"/>
        <stop offset="100%" stop-color="#ca9747" stop-opacity="1.0000"/>
      </radialGradient>
    </defs>
    <path xmlns="http://www.w3.org/2000/svg" d="  M45.6855,54.5183 C45.6855,54.8183 45.6517,55.1528 45.5925,55.5083 L46.5585,55.5083 L46.6155,55.4393 L46.6995,55.5083 L46.9027,55.5083 C46.9290,55.3485 46.9492,55.1933 46.9492,55.0545 C46.9492,54.2258 46.7182,53.4510 46.3230,52.7873 L45.6255,53.6273 C45.6615,53.9003 45.6855,54.1920 45.6855,54.5183 Z" style="fill-rule: evenodd; fill: url(#grad5749); "/>
    <defs xmlns="http://www.w3.org/2000/svg">
      <radialGradient id="grad5750" cx="50.0000%" cy="50.0000%" r="100.0000%">
        <stop offset="0%" stop-color="#f1df4d" stop-opacity="1.0000"/>
        <stop offset="100%" stop-color="#ca9747" stop-opacity="1.0000"/>
      </radialGradient>
    </defs>
    <path xmlns="http://www.w3.org/2000/svg" d="  M41.2087,55.5083 L42.4027,55.5083 L42.5580,55.3605 L42.7440,55.5083 L44.1345,55.5083 C44.1795,55.1183 44.2028,54.7553 44.2028,54.4305 C44.2028,54.3548 44.2013,54.2895 44.2013,54.2175 L42.4492,52.8128 L41.1532,54.0465 C41.1517,54.1725 41.1480,54.2955 41.1480,54.4313 C41.1487,54.7568 41.1735,55.1258 41.2087,55.5083 Z" style="fill-rule: evenodd; fill: url(#grad5750); "/>
    <defs xmlns="http://www.w3.org/2000/svg">
      <radialGradient id="grad5751" cx="50.0000%" cy="50.0000%" r="100.0000%">
        <stop offset="0%" stop-color="#f1df4d" stop-opacity="1.0000"/>
        <stop offset="100%" stop-color="#ca9747" stop-opacity="1.0000"/>
      </radialGradient>
    </defs>
    <path xmlns="http://www.w3.org/2000/svg" d="  M38.8065,55.4865 L38.8252,55.5083 L39.7552,55.5083 C39.7035,55.1580 39.6660,54.8198 39.6660,54.5183 C39.6660,54.1800 39.6930,53.8778 39.7320,53.5958 L38.9767,52.6875 L38.4900,53.1473 C38.2147,53.7255 38.0550,54.3713 38.0550,55.0545 C38.0550,55.1955 38.0707,55.3478 38.1000,55.5083 L38.7825,55.5083 L38.8065,55.4865 Z" style="fill-rule: evenodd; fill: url(#grad5751); "/>
    <defs xmlns="http://www.w3.org/2000/svg">
      <radialGradient id="grad5752" cx="0.0000%" cy="100.0000%" r="100.0000%">
        <stop offset="0%" stop-color="#8d98b5" stop-opacity="1.0000"/>
        <stop offset="100%" stop-color="#080808" stop-opacity="1.0000"/>
      </radialGradient>
    </defs>
    <path xmlns="http://www.w3.org/2000/svg" d="  M43.5637,50.7390 C43.5637,50.7390 43.5652,50.7405 43.5690,50.7420 C43.5847,50.7457 43.5997,50.7472 43.6155,50.7510 C43.5847,50.7435 43.5637,50.7390 43.5637,50.7390 Z" style="fill-rule: evenodd; fill: url(#grad5752); "/>
    <defs xmlns="http://www.w3.org/2000/svg">
      <radialGradient id="grad5753" cx="100.0000%" cy="100.0000%" r="100.0000%">
        <stop offset="0%" stop-color="#8d98b5" stop-opacity="1.0000"/>
        <stop offset="100%" stop-color="#080808" stop-opacity="1.0000"/>
      </radialGradient>
    </defs>
    <path xmlns="http://www.w3.org/2000/svg" d="  M41.8237,50.6565 C41.8237,50.6565 41.8087,50.6602 41.7870,50.6662 C41.7975,50.6647 41.8072,50.6617 41.8177,50.6602 C41.8207,50.6587 41.8237,50.6565 41.8237,50.6565 Z" style="fill-rule: evenodd; fill: url(#grad5753); "/>
    <path xmlns="http://www.w3.org/2000/svg" d="  M39.7320,53.5958 L40.5690,54.6038 L41.1532,54.0473 C41.2005,51.1762 41.7577,50.7030 41.8177,50.6602 C41.8072,50.6617 41.7975,50.6647 41.7870,50.6662 C41.5440,50.7338 40.0515,51.2512 39.7320,53.5958 Z" style="fill-rule: evenodd; fill: #d8123d; "/>
    <path xmlns="http://www.w3.org/2000/svg" d="  M44.2012,54.2183 L44.7615,54.6675 L45.6262,53.6273 C45.3247,51.3113 43.8930,50.8238 43.6147,50.7510 C43.5990,50.7473 43.5840,50.7458 43.5682,50.7420 C43.6222,50.7735 44.1750,51.1845 44.2012,54.2183 Z" style="fill-rule: evenodd; fill: #d8123d; "/>
    <path xmlns="http://www.w3.org/2000/svg" d="  M41.1487,54.4313 C41.1487,54.2955 41.1525,54.1725 41.1540,54.0465 L40.5697,54.6030 L39.7327,53.5950 C39.6937,53.8778 39.6667,54.1793 39.6667,54.5175 C39.6667,54.8190 39.7042,55.1580 39.7560,55.5075 L41.2095,55.5075 C41.1735,55.1258 41.1487,54.7568 41.1487,54.4313 Z" style="fill-rule: evenodd; fill: #f1df4d; "/>
    <defs xmlns="http://www.w3.org/2000/svg">
      <radialGradient id="grad5754" cx="100.0000%" cy="0.0000%" r="100.0000%">
        <stop offset="0%" stop-color="#8d98b5" stop-opacity="1.0000"/>
        <stop offset="100%" stop-color="#080808" stop-opacity="1.0000"/>
      </radialGradient>
    </defs>
    <path xmlns="http://www.w3.org/2000/svg" d="  M41.8177,50.6602 C41.8072,50.6617 41.7975,50.6647 41.7870,50.6663 C41.5440,50.7345 40.0515,51.2513 39.7320,53.5958 C39.6930,53.8785 39.6660,54.1800 39.6660,54.5183 C39.6660,54.8198 39.7035,55.1588 39.7553,55.5083 L41.2088,55.5083 C41.1735,55.1250 41.1487,54.7568 41.1487,54.4305 C41.1487,54.2948 41.1525,54.1718 41.1540,54.0458 C41.2013,51.1755 41.7577,50.7022 41.8177,50.6602 Z" style="fill-rule: evenodd; fill: url(#grad5754); "/>
    <path xmlns="http://www.w3.org/2000/svg" d="  M44.1345,55.5083 L45.5925,55.5083 C45.6518,55.1520 45.6855,54.8183 45.6855,54.5183 C45.6855,54.1913 45.6615,53.9003 45.6263,53.6273 L44.7615,54.6675 L44.2012,54.2183 C44.2012,54.2903 44.2027,54.3563 44.2027,54.4313 C44.2028,54.7560 44.1795,55.1190 44.1345,55.5083 Z" style="fill-rule: evenodd; fill: #f1df4d; "/>
    <defs xmlns="http://www.w3.org/2000/svg">
      <radialGradient id="grad5755" cx="0.0000%" cy="0.0000%" r="100.0000%">
        <stop offset="0%" stop-color="#8d98b5" stop-opacity="1.0000"/>
        <stop offset="100%" stop-color="#080808" stop-opacity="1.0000"/>
      </radialGradient>
    </defs>
    <path xmlns="http://www.w3.org/2000/svg" d="  M45.6263,53.6273 C45.3248,51.3113 43.8930,50.8237 43.6147,50.7510 C43.5990,50.7472 43.5840,50.7457 43.5682,50.7420 C43.6215,50.7735 44.1743,51.1845 44.2005,54.2183 C44.2005,54.2903 44.2020,54.3563 44.2020,54.4313 C44.2020,54.7560 44.1787,55.1190 44.1337,55.5090 L45.5918,55.5090 C45.6510,55.1528 45.6848,54.8190 45.6848,54.5190 C45.6855,54.1920 45.6615,53.9003 45.6263,53.6273 Z" style="fill-rule: evenodd; fill: url(#grad5755); "/>
    <path xmlns="http://www.w3.org/2000/svg" d="  M31.3050,51.8940 L31.3050,51.4988 C31.0148,51.5235 30.7658,51.5978 30.5445,51.7088 L30.5445,52.3328 L31.3050,51.8940 Z" style="fill-rule: evenodd; fill: #f1df4d; "/>
    <path xmlns="http://www.w3.org/2000/svg" d="  M34.8818,52.4738 C34.4895,52.2060 34.0650,51.9833 33.6158,51.8070 C33.8850,51.9487 34.1355,52.1168 34.3628,52.3110 L34.8818,52.4738 Z" style="fill-rule: evenodd; fill: #f1df4d; "/>
    <path xmlns="http://www.w3.org/2000/svg" d="  M34.1498,52.4063 C33.7193,52.0575 33.2130,51.7980 32.6295,51.6458 C33.1043,51.9668 33.4238,52.4835 33.6390,53.1300 L33.7463,53.1960 L34.1498,52.4063 Z" style="fill-rule: evenodd; fill: #f1df4d; "/>
    <path xmlns="http://www.w3.org/2000/svg" d="  M31.5112,51.4943 L31.5112,51.8137 L33.3667,52.9612 C33.0150,52.0845 32.4585,51.5550 31.5112,51.4943 Z" style="fill-rule: evenodd; fill: #f1df4d; "/>
    <path xmlns="http://www.w3.org/2000/svg" d="  M31.3050,54.6383 L31.3050,53.2290 L30.5445,53.7172 L30.5445,55.2885 L31.3050,54.6383 Z" style="fill-rule: evenodd; fill: #5d6aac; "/>
    <path xmlns="http://www.w3.org/2000/svg" d="  M33.5093,56.3340 L33.8370,56.3340 C33.8295,55.7175 33.8010,55.1280 33.7380,54.5873 L31.5113,53.1383 L31.5113,54.6885 L33.5093,56.3340 Z" style="fill-rule: evenodd; fill: #5d6aac; "/>
    <path xmlns="http://www.w3.org/2000/svg" d="  M35.1930,53.2672 C35.4615,53.6850 35.6745,54.1575 35.8328,54.6750 L37.4033,56.3340 L37.4880,56.3340 C37.2833,55.3905 36.8670,54.5272 36.2895,53.7945 L35.1930,53.2672 Z" style="fill-rule: evenodd; fill: #5d6aac; "/>
    <path xmlns="http://www.w3.org/2000/svg" d="  M34.0433,56.3340 L34.0733,56.3340 L35.5808,54.5693 C35.4143,54.0743 35.1953,53.6258 34.9223,53.2358 L33.9353,54.5273 C34.0043,55.0905 34.0350,55.6995 34.0433,56.3340 Z" style="fill-rule: evenodd; fill: #5d6aac; "/>
    <path xmlns="http://www.w3.org/2000/svg" d="  M30.5445,55.2885 L30.5445,56.3340 L31.3050,56.3340 L31.3050,54.6382 L30.5445,55.2885 Z" style="fill-rule: evenodd; fill: #55007f; "/>
    <path xmlns="http://www.w3.org/2000/svg" d="  M35.9280,56.3340 C35.8755,55.6957 35.7593,55.1047 35.5808,54.5692 L34.0733,56.3340 L35.9280,56.3340 Z" style="fill-rule: evenodd; fill: #55007f; "/>
    <path xmlns="http://www.w3.org/2000/svg" d="  M37.4025,56.3340 L35.8320,54.6750 C35.9873,55.1865 36.0885,55.7422 36.1350,56.3340 L37.4025,56.3340 Z" style="fill-rule: evenodd; fill: #55007f; "/>
    <path xmlns="http://www.w3.org/2000/svg" d="  M31.5112,54.6893 L31.5112,56.3340 L33.5093,56.3340 L31.5112,54.6893 Z" style="fill-rule: evenodd; fill: #55007f; "/>
    <path xmlns="http://www.w3.org/2000/svg" d="  M30.5445,53.7172 L31.3050,53.2290 L31.3050,51.8940 L30.5445,52.3328 L30.5445,53.7172 Z" style="fill-rule: evenodd; fill: #00a0c6; "/>
    <path xmlns="http://www.w3.org/2000/svg" d="  M34.9223,53.2358 C34.7003,52.9193 34.4415,52.6425 34.1497,52.4063 L33.7455,53.1960 L33.6382,53.1300 C33.7778,53.5470 33.8730,54.0180 33.9353,54.5272 L34.9223,53.2358 Z" style="fill-rule: evenodd; fill: #00a0c6; "/>
    <path xmlns="http://www.w3.org/2000/svg" d="  M33.7380,54.5873 C33.6660,53.9805 33.5520,53.4338 33.3735,52.9778 C33.3720,52.9718 33.3690,52.9673 33.3668,52.9620 L31.5112,51.8145 L31.5112,53.1398 L33.7380,54.5873 Z" style="fill-rule: evenodd; fill: #00a0c6; "/>
    <path xmlns="http://www.w3.org/2000/svg" d="  M34.9598,52.9305 C35.0415,53.0385 35.1188,53.1518 35.1938,53.2672 L36.2903,53.7945 C36.2048,53.6850 36.1148,53.5777 36.0218,53.4742 C35.9955,53.4442 35.9685,53.4150 35.9415,53.3857 C35.8575,53.2950 35.7698,53.2057 35.6798,53.1195 C35.6318,53.0737 35.5815,53.0302 35.5335,52.9860 C35.4540,52.9140 35.3753,52.8428 35.2920,52.7768 C35.1705,52.6770 35.0430,52.5825 34.9133,52.4925 C34.9035,52.4858 34.8938,52.4798 34.8833,52.4738 L34.3650,52.3110 C34.5818,52.4962 34.7805,52.7018 34.9598,52.9305 Z" style="fill-rule: evenodd; fill: #00a0c6; "/>
    <path xmlns="http://www.w3.org/2000/svg" d="  M35.8328,54.6750 C35.6745,54.1575 35.4623,53.6850 35.1930,53.2672 C35.1180,53.1518 35.0415,53.0377 34.9590,52.9305 C34.7805,52.7018 34.5810,52.4962 34.3628,52.3110 C34.1355,52.1167 33.8850,51.9495 33.6158,51.8070 C33.0225,51.4965 32.3310,51.3120 31.5413,51.2858 L31.5428,51.2768 C31.5413,51.2768 31.3425,51.2760 31.3403,51.2760 C31.3403,51.2760 30.7935,51.3293 30.5430,51.3743 L30.5430,51.7088 C30.7643,51.5978 31.0133,51.5235 31.3035,51.4988 L31.3035,56.3340 L31.5098,56.3340 L31.5098,51.4943 C32.4570,51.5550 33.0135,52.0845 33.3653,52.9612 C33.3675,52.9673 33.3705,52.9718 33.3720,52.9770 C33.5505,53.4330 33.6653,53.9805 33.7365,54.5865 C33.7995,55.1272 33.8280,55.7168 33.8355,56.3332 L34.0418,56.3332 C34.0335,55.6988 34.0028,55.0897 33.9330,54.5265 C33.8708,54.0165 33.7755,53.5455 33.6360,53.1292 C33.4208,52.4835 33.1013,51.9660 32.6265,51.6450 C33.2100,51.7973 33.7163,52.0568 34.1468,52.4055 C34.4393,52.6417 34.6973,52.9193 34.9193,53.2350 C35.1923,53.6258 35.4113,54.0735 35.5778,54.5685 C35.7563,55.1040 35.8725,55.6950 35.9250,56.3332 L36.1328,56.3332 C36.0885,55.7422 35.9880,55.1865 35.8328,54.6750 Z" style="fill-rule: evenodd; fill: #333333; "/>
    <path xmlns="http://www.w3.org/2000/svg" d="  M43.1857,41.8950 L43.9320,45.7718 L44.2260,45.7718 L43.8525,41.8950 L43.1857,41.8950 Z" style="fill-rule: evenodd; fill: #5d6aac; "/>
    <path xmlns="http://www.w3.org/2000/svg" d="  M40.1257,41.8950 L43.1062,45.7718 L43.4010,45.7718 L40.7925,41.8950 L40.1257,41.8950 Z" style="fill-rule: evenodd; fill: #ba052d; "/>
    <path xmlns="http://www.w3.org/2000/svg" d="  M41.6557,41.8950 L43.5187,45.7718 L43.8127,45.7718 L42.3232,41.8950 L41.6557,41.8950 Z" style="fill-rule: evenodd; fill: #b28e3b; "/>
    <path xmlns="http://www.w3.org/2000/svg" d="  M44.7165,41.8950 L44.3430,45.7718 L44.6377,45.7718 L45.3832,41.8950 L44.7165,41.8950 Z" style="fill-rule: evenodd; fill: #367c3c; "/>
    <path xmlns="http://www.w3.org/2000/svg" d="  M45.3832,41.8950 L44.6377,45.7718 L44.7562,45.7718 L46.2457,41.8950 L45.3832,41.8950 Z" style="fill-rule: evenodd; fill: #333333; "/>
    <path xmlns="http://www.w3.org/2000/svg" d="  M43.8525,41.8950 L44.2260,45.7718 L44.3430,45.7718 L44.7165,41.8950 L43.8525,41.8950 Z" style="fill-rule: evenodd; fill: #333333; "/>
    <path xmlns="http://www.w3.org/2000/svg" d="  M42.3232,41.8950 L43.8127,45.7718 L43.9320,45.7718 L43.1857,41.8950 L42.3232,41.8950 Z" style="fill-rule: evenodd; fill: #333333; "/>
    <path xmlns="http://www.w3.org/2000/svg" d="  M40.7925,41.8950 L43.4010,45.7718 L43.5187,45.7718 L41.6557,41.8950 L40.7925,41.8950 Z" style="fill-rule: evenodd; fill: #333333; "/>
    <path xmlns="http://www.w3.org/2000/svg" d="  M39.2632,41.8950 L42.9885,45.7718 L43.1062,45.7718 L40.1257,41.8950 L39.2632,41.8950 Z" style="fill-rule: evenodd; fill: #333333; "/>
    <path xmlns="http://www.w3.org/2000/svg" d="  M43.7190,47.5807 L44.1907,47.5807 L44.1907,47.0108 L44.3737,47.0108 L44.3737,47.5807 L44.8612,47.5807 L44.8612,47.0078 L43.7190,47.0078 L43.7190,47.5807 Z" style="fill-rule: evenodd; fill: #ffffff; "/>
    <path xmlns="http://www.w3.org/2000/svg" d="  M44.1907,47.5808 L44.3737,47.5808 L44.3737,47.0108 L44.1907,47.0108 L44.1907,47.5808 Z" style="fill-rule: evenodd; fill: #ac562d; "/>
    <path xmlns="http://www.w3.org/2000/svg" d="  M43.7190,47.6685 L44.1907,47.6685 L44.1907,47.5807 L43.7190,47.5807 L43.7190,47.6685 Z" style="fill-rule: evenodd; fill: #ffffff; "/>
    <path xmlns="http://www.w3.org/2000/svg" d="  M44.3737,47.6685 L44.8605,47.6685 L44.8605,47.5807 L44.3737,47.5807 L44.3737,47.6685 Z" style="fill-rule: evenodd; fill: #ffffff; "/>
    <defs xmlns="http://www.w3.org/2000/svg" xmlns:xlink="http://www.w3.org/1999/xlink">
      <linearGradient id="grad5756">
        <stop offset="0%" stop-color="#080808" stop-opacity="1.0000"/>
        <stop offset="100%" stop-color="#ac562d" stop-opacity="1.0000"/>
      </linearGradient>
      <linearGradient xlink:href="#grad5756" id="grad5757" x1="0" y1="0" x2="0" y2="1" gradientTransform="rotate(90 .5 .5)" gradientUnits="objectBoundingBox">
  </linearGradient>
    </defs>
    <path xmlns="http://www.w3.org/2000/svg" d="  M43.7190,48.4935 L44.8605,48.4935 L44.8605,47.5808 L43.7190,47.5808 L43.7190,48.4935 Z" style="fill-rule: evenodd; fill: url(#grad5757); "/>
    <path xmlns="http://www.w3.org/2000/svg" d="  M42.9885,45.7748 L43.6898,47.0078 L44.8763,47.0078 L45.5790,45.7748 L42.9885,45.7748 Z" style="fill-rule: evenodd; fill: #333333; "/>
    <path xmlns="http://www.w3.org/2000/svg" d="  M47.0505,42.9743 L45.1688,45.7718 L45.4635,45.7718 L47.0505,43.7063 L47.0505,42.9743 Z" style="fill-rule: evenodd; fill: #e57132; "/>
    <path xmlns="http://www.w3.org/2000/svg" d="  M46.2458,41.8950 L44.7562,45.7718 L45.0510,45.7718 L46.9133,41.8950 L46.2458,41.8950 Z" style="fill-rule: evenodd; fill: #fede12; "/>
    <path xmlns="http://www.w3.org/2000/svg" d="  M47.0505,41.8950 L46.9133,41.8950 L45.0510,45.7718 L45.1687,45.7718 L47.0505,42.9743 L47.0505,41.8950 Z" style="fill-rule: evenodd; fill: #333333; "/>
    <path xmlns="http://www.w3.org/2000/svg" d="  M45.4635,45.7718 L45.5812,45.7718 L47.0505,44.2425 L47.0505,43.7063 L45.4635,45.7718 Z" style="fill-rule: evenodd; fill: #333333; "/>
    <path xmlns="http://www.w3.org/2000/svg" d="  M28.4820,27.4425 L28.4820,56.7300 L47.8702,56.7300 L47.8702,27.4425 L28.4820,27.4425 Z M46.6320,55.5083 L30.9577,55.5083 L30.9577,42.7222 L46.6320,42.7222 L46.6320,55.5083 Z M46.6320,41.5117 L30.9577,41.5117 L30.9577,28.7242 L46.6320,28.7242 L46.6320,41.5117 Z" style="fill-rule: evenodd; fill: #333333; "/>
    <path xmlns="http://www.w3.org/2000/svg" d="  M29.4645,56.7270 C29.4645,56.7270 29.6182,56.5995 29.6670,56.5658 C29.7390,56.5185 29.7682,56.4953 29.7795,56.4750 C29.7780,56.4728 29.7765,56.4705 29.7750,56.4690 C29.7457,56.4345 29.6970,56.3895 29.6445,56.3400 C29.5462,56.2283 29.3970,56.1578 29.3722,55.8570 C29.4000,55.5795 29.5215,55.5420 29.6055,55.4393 C29.6565,55.3943 29.7082,55.3432 29.7435,55.3035 C29.7255,55.2930 29.7045,55.2818 29.6835,55.2705 C29.5980,55.2052 29.4247,55.1993 29.3895,54.8708 C29.4142,54.5963 29.5365,54.5475 29.6220,54.4470 C29.6835,54.3923 29.7450,54.3300 29.7802,54.2903 C29.7525,54.2565 29.7082,54.2138 29.6617,54.1703 C29.5665,54.0562 29.4217,54.0120 29.3902,53.7060 C29.4082,53.4600 29.5095,53.3730 29.5935,53.2320 C29.6677,53.1285 29.7442,53.0168 29.7750,52.9560 C29.7735,52.9545 29.7720,52.9530 29.7720,52.9515 C29.7450,52.9170 29.6970,52.8713 29.6460,52.8232 C29.5500,52.7085 29.4075,52.6703 29.3737,52.3635 C29.3955,52.0920 29.5200,52.0328 29.6062,51.9338 C29.6670,51.8783 29.7300,51.8168 29.7652,51.7770 C29.7390,51.7440 29.6932,51.7005 29.6467,51.6555 C29.5515,51.5392 29.4112,51.5123 29.3745,51.2025 C29.3932,50.9348 29.5192,50.8583 29.6062,50.7585 C29.6797,50.6910 29.7547,50.6175 29.7855,50.5823 C29.7727,50.5200 29.7247,50.4360 29.6452,50.3355 C29.5597,50.2133 29.4180,50.0858 29.4082,49.7978 C29.4157,49.5225 29.5695,49.4145 29.6550,49.3508 C29.7405,49.2960 29.8057,49.2383 29.8200,49.2173 C29.8185,49.2143 29.8155,49.2090 29.8102,49.2030 C29.7907,49.1805 29.7472,49.1467 29.6962,49.1108 C29.6062,49.0395 29.4225,48.9533 29.4082,48.6352 C29.4000,48.3967 29.5755,48.2745 29.6497,48.2738 C29.6865,48.2670 29.7217,48.2618 29.7495,48.2580 C29.7270,48.2393 29.6970,48.2153 29.6625,48.1928 C29.5725,48.1215 29.3895,48.0353 29.3745,47.7172 C29.3820,47.4405 29.5357,47.3347 29.6220,47.2702 C29.6527,47.2515 29.6805,47.2305 29.7037,47.2117 C29.6947,47.2117 29.6850,47.2125 29.6737,47.2125 C29.6272,47.2110 29.5740,47.2117 29.5087,47.1638 C29.4382,47.1195 29.3857,46.9808 29.3917,46.8720 C29.3977,46.5997 29.5470,46.4880 29.6332,46.4197 C29.7097,46.3695 29.7742,46.3133 29.7975,46.2878 C29.7975,46.2863 29.7960,46.2855 29.7952,46.2840 C29.7750,46.2608 29.7300,46.2270 29.6775,46.1902 C29.5852,46.1153 29.4052,46.0260 29.3917,45.7095 C29.4030,45.4275 29.5342,45.2790 29.6287,45.1223 C29.7255,44.9872 29.7862,44.8500 29.7885,44.8208 C29.7870,44.8185 29.7840,44.8118 29.7765,44.8042 C29.7570,44.7803 29.7135,44.7473 29.6617,44.7120 C29.5717,44.6408 29.3887,44.5545 29.3737,44.2365 C29.3812,43.9613 29.5350,43.8540 29.6212,43.7895 C29.7060,43.7340 29.7720,43.6763 29.7862,43.6560 C29.7847,43.6530 29.7810,43.6485 29.7765,43.6425 C29.7570,43.6192 29.7127,43.5855 29.6617,43.5502 C29.5717,43.4797 29.3887,43.3935 29.3737,43.0748 C29.3872,42.7868 29.5230,42.6255 29.6287,42.4395 C29.7345,42.2827 29.8080,42.1117 29.8110,42.0810 C29.8095,42.0788 29.8057,42.0720 29.7982,42.0638 C29.7795,42.0413 29.7360,42.0075 29.6842,41.9715 C29.5935,41.9018 29.4105,41.8162 29.3970,41.4975 C29.3947,41.4210 29.4135,41.3205 29.4690,41.2545 C29.5117,41.2035 29.5567,41.1885 29.5927,41.1840 C29.4997,41.1157 29.3857,41.0085 29.3737,40.7595 C29.3812,40.4827 29.5357,40.3770 29.6212,40.3125 C29.7060,40.2585 29.7720,40.2015 29.7862,40.1805 C29.7840,40.1775 29.7810,40.1722 29.7765,40.1662 C29.7570,40.1438 29.7127,40.1100 29.6617,40.0740 C29.5717,40.0043 29.3887,39.9165 29.3737,39.5985 C29.3812,39.3218 29.5357,39.2160 29.6212,39.1522 C29.7060,39.0975 29.7720,39.0405 29.7855,39.0195 C29.7840,39.0165 29.7810,39.0120 29.7765,39.0060 C29.7577,38.9835 29.7135,38.9505 29.6617,38.9137 C29.5717,38.8440 29.3887,38.7585 29.3737,38.4405 C29.3737,38.1712 29.5627,38.0760 29.6400,38.0745 C29.6872,38.0670 29.7337,38.0602 29.7697,38.0542 C29.7480,38.0363 29.7180,38.0130 29.6842,37.9913 C29.5935,37.9207 29.4105,37.8360 29.3970,37.5165 C29.4082,37.2300 29.5462,37.0950 29.6377,36.9615 C29.7322,36.8460 29.7840,36.7373 29.7877,36.7125 C29.7855,36.7095 29.7817,36.7035 29.7757,36.6968 C29.7570,36.6735 29.7127,36.6397 29.6610,36.6045 C29.5710,36.5340 29.3880,36.4493 29.3730,36.1312 C29.3805,35.8545 29.5342,35.7480 29.6205,35.6842 C29.7045,35.6295 29.7697,35.5717 29.7847,35.5507 C29.7832,35.5477 29.7802,35.5433 29.7757,35.5380 C29.7562,35.5155 29.7127,35.4817 29.6610,35.4457 C29.5710,35.3745 29.3880,35.2897 29.3730,34.9710 C29.3685,34.8608 29.4202,34.7287 29.4840,34.6830 C29.5470,34.6320 29.5995,34.6260 29.6482,34.6193 C29.6805,34.6170 29.7135,34.6162 29.7420,34.6148 C29.7232,34.5998 29.7007,34.5840 29.6775,34.5675 C29.5867,34.4962 29.4037,34.4100 29.3895,34.0920 C29.3962,33.8153 29.5507,33.7095 29.6362,33.6450 C29.7210,33.5902 29.7870,33.5333 29.8012,33.5130 C29.7997,33.5092 29.7960,33.5048 29.7915,33.4988 C29.7727,33.4763 29.7285,33.4425 29.6775,33.4065 C29.5867,33.3368 29.4037,33.2505 29.3895,32.9318 C29.4015,32.6467 29.5357,32.5035 29.6302,32.3565 C29.7345,32.2170 29.7937,32.0827 29.7870,32.0723 C29.7915,32.0618 29.7487,31.9672 29.6467,31.8540 C29.5590,31.7385 29.4165,31.6103 29.4060,31.3222 C29.4142,31.0455 29.5672,30.9398 29.6542,30.8752 C29.7382,30.8213 29.8035,30.7642 29.8192,30.7433 C29.8162,30.7403 29.8132,30.7357 29.8080,30.7297 C29.7892,30.7073 29.7457,30.6742 29.6947,30.6375 C29.6040,30.5670 29.4210,30.4822 29.4060,30.1627 C29.4015,29.9310 29.5537,29.8027 29.6302,29.7848 C29.6865,29.7630 29.7390,29.7480 29.7712,29.7367 C29.7495,29.7135 29.7082,29.6820 29.6610,29.6490 C29.5710,29.5785 29.3880,29.4922 29.3730,29.1743 C29.3805,28.8975 29.5350,28.7917 29.6205,28.7273 C29.7052,28.6718 29.7712,28.6147 29.7855,28.5952 C29.7832,28.5922 29.7802,28.5870 29.7757,28.5818 C29.7562,28.5585 29.7127,28.5255 29.6610,28.4895 C29.5710,28.4198 29.3880,28.3343 29.3730,28.0148 C29.3805,27.7388 29.5350,27.6323 29.6205,27.5692 C29.7112,27.5107 29.7960,27.4365 29.7960,27.4365 L30.0750,27.4365 C30.0667,27.7133 29.9137,27.8190 29.8282,27.8827 C29.7435,27.9368 29.6790,27.9937 29.6632,28.0148 C29.6655,28.0178 29.6685,28.0222 29.6730,28.0275 C29.6917,28.0515 29.7360,28.0845 29.7870,28.1198 C29.8777,28.1902 30.0607,28.2765 30.0750,28.5952 C30.0675,28.8720 29.9137,28.9770 29.8282,29.0415 C29.7435,29.0955 29.6782,29.1533 29.6625,29.1735 C29.6647,29.1773 29.6685,29.1825 29.6730,29.1885 C29.6917,29.2102 29.7360,29.2440 29.7870,29.2800 C29.8777,29.3497 30.0607,29.4360 30.0750,29.7548 C30.0802,29.9873 29.9280,30.1155 29.8515,30.1335 C29.7952,30.1553 29.7427,30.1703 29.7112,30.1815 C29.7322,30.2048 29.7735,30.2355 29.8207,30.2677 C29.9115,30.3397 30.0945,30.4245 30.1095,30.7433 C30.1020,31.0192 29.9482,31.1258 29.8620,31.1895 C29.7712,31.2480 29.7037,31.3095 29.6947,31.3260 C29.6962,31.3440 29.7390,31.4347 29.8342,31.5397 C29.9220,31.6568 30.0660,31.7842 30.0750,32.0730 C30.0637,32.3573 29.9280,32.5005 29.8342,32.6475 C29.7375,32.7758 29.6797,32.9010 29.6775,32.9280 C29.6790,32.9303 29.6827,32.9362 29.6910,32.9445 C29.7090,32.9678 29.7525,33.0015 29.8042,33.0360 C29.8942,33.1073 30.0772,33.1935 30.0922,33.5115 C30.0840,33.7882 29.9310,33.8940 29.8447,33.9585 C29.7600,34.0125 29.6947,34.0703 29.6797,34.0913 C29.6820,34.0943 29.6850,34.0995 29.6910,34.1055 C29.7090,34.1280 29.7525,34.1610 29.8042,34.1970 C29.8942,34.2675 30.0772,34.3530 30.0922,34.6725 C30.0975,34.7828 30.0442,34.9140 29.9812,34.9612 C29.9182,35.0115 29.8650,35.0183 29.8170,35.0243 C29.7847,35.0257 29.7517,35.0273 29.7232,35.0288 C29.7420,35.0438 29.7645,35.0588 29.7877,35.0760 C29.8785,35.1465 30.0615,35.2320 30.0757,35.5507 C30.0675,35.8267 29.9145,35.9340 29.8290,35.9977 C29.7442,36.0518 29.6797,36.1087 29.6640,36.1290 C29.6655,36.1328 29.6692,36.1365 29.6730,36.1418 C29.6925,36.1650 29.7367,36.1987 29.7877,36.2340 C29.8777,36.3045 30.0615,36.3900 30.0757,36.7088 C30.0645,36.9945 29.9257,37.1310 29.8350,37.2638 C29.7382,37.3807 29.6880,37.4902 29.6857,37.5135 C29.6872,37.5172 29.6902,37.5218 29.6970,37.5292 C29.7165,37.5525 29.7600,37.5862 29.8117,37.6215 C29.9017,37.6920 30.0847,37.7768 30.0990,38.0963 C30.0990,38.3640 29.9115,38.4593 29.8327,38.4607 C29.7855,38.4683 29.7390,38.4750 29.7022,38.4810 C29.7255,38.4998 29.7547,38.5222 29.7885,38.5447 C29.8785,38.6145 30.0622,38.7008 30.0765,39.0195 C30.0690,39.2947 29.9152,39.4028 29.8297,39.4657 C29.7442,39.5212 29.6790,39.5783 29.6640,39.5985 C29.6662,39.6022 29.6700,39.6068 29.6745,39.6128 C29.6932,39.6360 29.7375,39.6690 29.7885,39.7050 C29.8792,39.7755 30.0622,39.8618 30.0765,40.1805 C30.0690,40.4565 29.9152,40.5637 29.8297,40.6268 C29.7450,40.6822 29.6797,40.7393 29.6640,40.7603 C29.6662,40.7633 29.6700,40.7677 29.6745,40.7738 C29.6932,40.7962 29.7375,40.8293 29.7885,40.8652 C29.8792,40.9357 30.0622,41.0213 30.0765,41.3392 C30.0787,41.4158 30.0585,41.5178 30.0037,41.5815 C29.9595,41.6325 29.9145,41.6483 29.8785,41.6513 C29.9715,41.7202 30.0885,41.8260 30.0990,42.0772 C30.0847,42.3660 29.9497,42.5272 29.8455,42.7132 C29.7397,42.8700 29.6655,43.0403 29.6617,43.0710 C29.6640,43.0740 29.6670,43.0800 29.6745,43.0882 C29.6932,43.1115 29.7375,43.1460 29.7885,43.1805 C29.8792,43.2518 30.0622,43.3372 30.0765,43.6567 C30.0690,43.9320 29.9152,44.0393 29.8297,44.1030 C29.7450,44.1578 29.6797,44.2155 29.6640,44.2365 C29.6662,44.2402 29.6700,44.2448 29.6745,44.2508 C29.6932,44.2732 29.7375,44.3063 29.7885,44.3422 C29.8792,44.4135 30.0622,44.4983 30.0765,44.8178 C30.0652,45.0998 29.9340,45.2490 29.8395,45.4050 C29.7420,45.5415 29.6805,45.6795 29.6797,45.7072 C29.6805,45.7095 29.6850,45.7170 29.6940,45.7268 C29.7127,45.7515 29.7570,45.7853 29.8080,45.8220 C29.8942,45.8955 30.0682,45.9630 30.0922,46.2660 L30.0930,46.2660 L30.0952,46.2818 L30.0937,46.2990 C30.0832,46.5292 29.9632,46.6350 29.8867,46.6973 C29.8395,46.7340 29.7937,46.7663 29.7570,46.7948 C29.7690,46.7940 29.7810,46.7940 29.7937,46.7940 C29.8410,46.7955 29.8950,46.7948 29.9610,46.8435 C30.0315,46.8892 30.0840,47.0265 30.0772,47.1367 C30.0697,47.4127 29.9160,47.5192 29.8305,47.5830 C29.7457,47.6378 29.6805,47.6955 29.6647,47.7158 C29.6670,47.7195 29.6707,47.7248 29.6752,47.7300 C29.6940,47.7540 29.7382,47.7863 29.7892,47.8222 C29.8800,47.8935 30.0630,47.9798 30.0772,48.2977 C30.0855,48.5370 29.9100,48.6593 29.8357,48.6593 C29.7990,48.6667 29.7637,48.6713 29.7352,48.6750 C29.7585,48.6937 29.7892,48.7178 29.8230,48.7402 C29.9137,48.8115 30.0967,48.8978 30.1102,49.2157 C30.1042,49.4925 29.9490,49.5997 29.8642,49.6635 C29.7712,49.7228 29.7015,49.7873 29.6962,49.8022 C29.6985,49.8225 29.7435,49.9148 29.8395,50.0310 C29.9325,50.1570 30.0735,50.3257 30.0765,50.6220 C30.0442,50.9040 29.9265,50.9242 29.8425,51.0285 C29.7795,51.0848 29.7165,51.1500 29.6835,51.1912 C29.7120,51.2243 29.7570,51.2662 29.8042,51.3113 C29.9010,51.4230 30.0472,51.4808 30.0757,51.7845 C30.0502,52.0597 29.9272,52.1032 29.8425,52.2038 C29.7817,52.2585 29.7202,52.3207 29.6850,52.3612 C29.7127,52.3935 29.7570,52.4355 29.8035,52.4790 C29.8987,52.5930 30.0435,52.6395 30.0750,52.9447 C30.0570,53.1915 29.9557,53.2755 29.8717,53.4165 C29.7982,53.5207 29.7210,53.6332 29.6902,53.6940 C29.6910,53.6947 29.6917,53.6963 29.6932,53.6977 C29.7202,53.7322 29.7682,53.7780 29.8192,53.8268 C29.9145,53.9422 30.0592,53.9835 30.0915,54.2895 C30.0682,54.5617 29.9452,54.6180 29.8582,54.7177 C29.8087,54.7635 29.7570,54.8137 29.7202,54.8520 C29.7390,54.8625 29.7600,54.8737 29.7817,54.8850 C29.8642,54.9547 30.0330,54.9405 30.0742,55.2750 C30.0532,55.5442 29.9287,55.6095 29.8425,55.7107 C29.7802,55.7670 29.7165,55.8292 29.6805,55.8690 C29.6940,55.8862 29.7112,55.9065 29.7315,55.9275 C29.7960,55.9950 29.8822,56.0647 29.9557,56.1487 C30.0007,56.2087 30.0652,56.2687 30.0735,56.4390 C30.0757,56.5530 30.0052,56.7292 30.0052,56.7292 L29.4645,56.7270 Z M29.7877,52.9290 Z" style="fill-rule: evenodd; fill: #737373; "/>
    <path xmlns="http://www.w3.org/2000/svg" d="  M24.7702,27.4425 L24.7702,38.4750 C25.3740,38.1150 25.9935,37.7775 26.6280,37.4670 L26.8245,37.3763 L25.9080,37.3763 C25.6785,37.3763 25.4925,37.1925 25.4925,36.9660 L25.4925,35.9302 C25.4925,35.7038 25.6785,35.5200 25.9080,35.5200 L27.3457,35.5200 C27.5760,35.5200 27.7620,35.7038 27.7620,35.9302 L27.7620,36.9473 C30.8850,35.6018 34.3245,34.8525 37.9410,34.8525 C41.7727,34.8525 45.4057,35.6970 48.6750,37.1978 C48.6277,37.1310 48.5940,37.0537 48.5940,36.9652 L48.5940,35.9295 C48.5940,35.7030 48.7792,35.5193 49.0087,35.5193 L50.4472,35.5193 C50.6768,35.5193 50.8627,35.7030 50.8627,35.9295 L50.8627,36.9652 C50.8627,37.1918 50.6768,37.3755 50.4472,37.3755 L49.0642,37.3755 C49.6807,37.6890 51.0172,38.4098 51.5820,38.7645 L51.5820,27.4425 L24.7702,27.4425 Z M27.7612,33.4312 C27.7612,33.6578 27.5752,33.8415 27.3450,33.8415 L25.9072,33.8415 C25.6777,33.8415 25.4917,33.6578 25.4917,33.4312 L25.4917,32.3955 C25.4917,32.1690 25.6777,31.9852 25.9072,31.9852 L27.3450,31.9852 C27.5752,31.9852 27.7612,32.1690 27.7612,32.3955 L27.7612,33.4312 Z M27.7612,29.8957 C27.7612,30.1222 27.5752,30.3060 27.3450,30.3060 L25.9072,30.3060 C25.6777,30.3060 25.4917,30.1222 25.4917,29.8957 L25.4917,28.8600 C25.4917,28.6335 25.6777,28.4497 25.9072,28.4497 L27.3450,28.4497 C27.5752,28.4497 27.7612,28.6335 27.7612,28.8600 L27.7612,29.8957 Z M50.8612,33.4312 C50.8612,33.6578 50.6752,33.8415 50.4457,33.8415 L49.0072,33.8415 C48.7777,33.8415 48.5925,33.6578 48.5925,33.4312 L48.5925,32.3955 C48.5925,32.1690 48.7777,31.9852 49.0072,31.9852 L50.4457,31.9852 C50.6752,31.9852 50.8612,32.1690 50.8612,32.3955 L50.8612,33.4312 Z M50.8612,29.8957 C50.8612,30.1222 50.6752,30.3060 50.4457,30.3060 L49.0072,30.3060 C48.7777,30.3060 48.5925,30.1222 48.5925,29.8957 L48.5925,28.8600 C48.5925,28.6335 48.7777,28.4497 49.0072,28.4497 L50.4457,28.4497 C50.6752,28.4497 50.8612,28.6335 50.8612,28.8600 L50.8612,29.8957 Z" style="fill-rule: evenodd; fill: #ffffff; fill-opacity: 0.2510; "/>
    <path xmlns="http://www.w3.org/2000/svg" d="  M24.7702,27.4425 L24.7702,56.7300 L51.5828,56.7300 L51.5828,27.4425 L24.7702,27.4425 Z M51.3757,56.5238 L24.9765,56.5238 L24.9765,27.6488 L51.3757,27.6488 L51.3757,56.5238 Z" style="fill-rule: evenodd; fill: #333333; fill-opacity: 0.8000; "/>
    <!--converted by libvisio2svg-->
  </g>
</svg>
