<svg xmlns="http://www.w3.org/2000/svg" xmlns:xlink="http://www.w3.org/1999/xlink" version="1.1" width="0.8292000000" height="0.8384000000" viewBox="0 0 59.7008 60.3615">
  <title><![CDATA[Visual Studio Workstation]]></title>
  <g transform=" scale(1.000000) ">
    <path xmlns="http://www.w3.org/2000/svg" d="  M57.9533,41.1945 C56.6752,38.9460 54.8618,37.3215 52.7640,36.1860 C52.7595,36.1830 52.7558,36.1800 52.7505,36.1755 C52.7182,36.1598 52.6845,36.1433 52.6530,36.1260 C52.5240,36.0585 52.3950,35.9925 52.2660,35.9295 C52.1962,35.8943 52.1280,35.8605 52.0590,35.8267 C51.9248,35.7637 51.7898,35.7023 51.6532,35.6422 C51.5858,35.6130 51.5175,35.5807 51.4500,35.5515 C51.3067,35.4915 51.1613,35.4330 51.0173,35.3760 C50.9542,35.3512 50.8920,35.3265 50.8297,35.3010 C50.6235,35.2230 50.4143,35.1472 50.2043,35.0767 C48.4815,34.4940 45.8318,34.2637 43.8202,34.5375 C43.5622,34.5728 43.3065,34.6155 43.0530,34.6635 C42.9735,34.6792 42.8933,34.6987 42.8153,34.7145 C42.6412,34.7513 42.4680,34.7880 42.2970,34.8300 C42.2025,34.8518 42.1102,34.8780 42.0158,34.9035 C41.8605,34.9447 41.7053,34.9868 41.5507,35.0340 C41.4532,35.0633 41.3550,35.0940 41.2590,35.1263 C41.1098,35.1735 40.9620,35.2245 40.8150,35.2755 C40.7167,35.3108 40.6192,35.3460 40.5217,35.3827 C40.3763,35.4383 40.2308,35.4967 40.0867,35.5552 C39.9923,35.5950 39.8970,35.6333 39.8040,35.6737 C39.6540,35.7382 39.5063,35.8072 39.3577,35.8763 C39.2723,35.9175 39.1853,35.9565 39.0990,35.9977 C38.9265,36.0825 38.7555,36.1717 38.5845,36.2633 C38.5260,36.2940 38.4683,36.3232 38.4105,36.3540 C38.1870,36.4770 37.9657,36.6045 37.7468,36.7365 C37.6673,36.7838 37.5878,36.8362 37.5083,36.8858 C37.3680,36.9720 37.2277,37.0597 37.0882,37.1520 C36.9922,37.2150 36.8985,37.2810 36.8040,37.3455 C36.6833,37.4272 36.5610,37.5128 36.4417,37.5975 C36.3427,37.6680 36.2452,37.7407 36.1470,37.8142 C36.0337,37.8990 35.9198,37.9845 35.8080,38.0707 C35.7098,38.1488 35.6123,38.2245 35.5140,38.3025 C35.4037,38.3917 35.2935,38.4825 35.1848,38.5748 C35.0888,38.6535 34.9935,38.7330 34.9005,38.8148 C34.7887,38.9115 34.6778,39.0097 34.5682,39.1080 C34.4790,39.1882 34.3897,39.2677 34.3012,39.3495 C34.1797,39.4605 34.0620,39.5768 33.9420,39.6908 C33.8670,39.7628 33.7920,39.8325 33.7177,39.9060 C33.7110,39.9120 33.7050,39.9180 33.6990,39.9247 C33.7005,39.9232 33.7012,39.9232 33.7020,39.9232 C33.6495,39.9757 33.5963,40.0305 33.5438,40.0845 C33.5115,40.1152 33.4785,40.1460 33.4470,40.1753 C33.4560,40.1693 33.4635,40.1618 33.4725,40.1565 C33.1605,40.4730 32.8530,40.7955 32.5537,41.1307 C32.5335,41.1540 32.5117,41.1780 32.4908,41.2012 C32.5297,41.1540 32.5523,41.1263 32.5523,41.1263 C31.5877,42.2070 30.4770,43.4685 29.2943,44.7607 C29.2508,44.7052 29.2065,44.6482 29.1615,44.5905 C29.0670,44.4675 28.9688,44.3445 28.8683,44.2200 C28.8248,44.1705 28.7842,44.1173 28.7415,44.0663 C28.6133,43.9125 28.4775,43.7587 28.3395,43.6050 C28.2855,43.5435 28.2300,43.4835 28.1730,43.4220 C28.0297,43.2652 27.8805,43.1085 27.7260,42.9517 C27.6750,42.8993 27.6195,42.8460 27.5670,42.7935 C27.4357,42.6645 27.3015,42.5355 27.1643,42.4065 C27.1080,42.3555 27.0540,42.3023 26.9955,42.2498 C26.8898,42.1530 26.7795,42.0562 26.6685,41.9595 C26.6670,41.9580 26.6647,41.9565 26.6632,41.9550 C26.6580,41.9490 26.6520,41.9445 26.6467,41.9400 C26.6460,41.9385 26.6453,41.9385 26.6445,41.9370 C26.6168,41.9138 26.5905,41.8890 26.5613,41.8635 C26.5545,41.8575 26.5470,41.8500 26.5410,41.8448 C26.4323,41.7495 26.3228,41.6543 26.2110,41.5620 C26.1787,41.5357 26.1473,41.5080 26.1157,41.4818 C26.0977,41.4682 26.0797,41.4540 26.0625,41.4390 C25.9148,41.3205 25.7655,41.2035 25.6110,41.0888 C24.6990,40.4153 23.7630,39.8745 22.8502,39.4980 C22.6807,39.4275 22.5120,39.3645 22.3433,39.3030 C22.2975,39.2872 22.2518,39.2707 22.2045,39.2550 C22.1700,39.2430 22.1355,39.2317 22.1010,39.2197 C22.0065,39.1875 21.9135,39.1583 21.8190,39.1290 C21.7718,39.1140 21.7215,39.0982 21.6735,39.0833 C21.6195,39.0675 21.5647,39.0525 21.5107,39.0375 C21.4635,39.0240 21.4178,39.0113 21.3705,38.9993 C21.3188,38.9842 21.2647,38.9700 21.2138,38.9565 C21.1065,38.9303 21.0023,38.9085 20.8973,38.8830 C20.8320,38.8695 20.7667,38.8538 20.7030,38.8403 C20.5245,38.8020 20.3482,38.7713 20.1727,38.7420 C20.1750,38.7435 20.1765,38.7435 20.1780,38.7435 C20.1488,38.7375 20.1218,38.7330 20.0925,38.7285 C20.0940,38.7285 20.0963,38.7285 20.0992,38.7300 C20.0768,38.7255 20.0535,38.7225 20.0317,38.7195 C19.2795,38.5920 18.6570,38.5553 18.0337,38.5410 C17.2290,38.5223 15.9420,38.7068 15.1830,38.9250 L15.1342,38.9385 C12.2745,39.7620 10.0380,41.7015 9.0375,44.4945 C8.8335,45.0615 8.5650,46.0387 8.5043,46.9553 C8.4998,47.0198 8.4960,47.0888 8.4930,47.1577 C8.4930,47.1622 8.4923,47.1668 8.4923,47.1713 C8.4908,47.1915 8.4908,47.2140 8.4900,47.2358 C8.4885,47.2740 8.4870,47.3123 8.4870,47.3513 C8.4863,47.3647 8.4848,47.3775 8.4848,47.3910 C8.4848,47.4405 8.4833,47.4893 8.4833,47.5403 C8.4833,47.5575 8.4833,47.5785 8.4833,47.5957 C8.4833,47.6250 8.4848,47.6558 8.4863,47.6850 C8.4870,47.7450 8.4885,47.8050 8.4908,47.8680 C8.4923,47.9047 8.4945,47.9415 8.4968,47.9790 C8.4990,48.0262 8.5020,48.0743 8.5058,48.1237 C8.5073,48.1485 8.5088,48.1717 8.5103,48.1972 C8.5118,48.2107 8.5133,48.2250 8.5148,48.2400 C8.5178,48.2752 8.5223,48.3120 8.5253,48.3473 C8.5283,48.3795 8.5313,48.4103 8.5350,48.4425 C8.5418,48.4965 8.5463,48.5513 8.5523,48.6083 C8.5620,48.6848 8.5740,48.7650 8.5853,48.8452 C8.5943,48.9022 8.6010,48.9578 8.6100,49.0170 C8.6153,49.0507 8.6235,49.0845 8.6288,49.1182 C8.6318,49.1340 8.6325,49.1520 8.6355,49.1677 C8.6408,49.1970 8.6483,49.2248 8.6535,49.2540 C8.6648,49.3170 8.6745,49.3785 8.6880,49.4430 C8.6918,49.4602 8.6963,49.4783 8.7000,49.4955 C8.7173,49.5803 8.7293,49.6335 8.7293,49.6335 C8.7353,49.6597 8.7420,49.6860 8.7473,49.7115 C8.7480,49.7130 8.7480,49.7130 8.7480,49.7130 C8.7555,49.7482 8.7638,49.7820 8.7720,49.8157 C8.7780,49.8405 8.7840,49.8653 8.7893,49.8892 C8.7923,49.9028 8.7953,49.9125 8.7983,49.9260 C8.8013,49.9380 8.8050,49.9507 8.8080,49.9627 C8.8343,50.0670 8.8628,50.1705 8.8935,50.2778 C8.9033,50.3100 8.9123,50.3408 8.9220,50.3745 C8.9318,50.4038 8.9400,50.4345 8.9490,50.4652 C8.9745,50.5500 9.0023,50.6355 9.0308,50.7202 C9.0405,50.7480 9.0487,50.7757 9.0577,50.8035 C9.0698,50.8342 9.0795,50.8650 9.0915,50.8957 C9.1035,50.9310 9.1162,50.9662 9.1290,51.0015 C9.1538,51.0705 9.1792,51.1395 9.2070,51.2092 C9.2213,51.2475 9.2370,51.2857 9.2527,51.3232 C9.2700,51.3690 9.2873,51.4140 9.3053,51.4598 C9.3105,51.4702 9.3157,51.4815 9.3202,51.4920 C9.3465,51.5565 9.3750,51.6210 9.4027,51.6855 C9.4140,51.7118 9.4245,51.7365 9.4358,51.7635 C9.4620,51.8220 9.4905,51.8820 9.5183,51.9420 C9.5340,51.9757 9.5490,52.0080 9.5655,52.0417 C9.5888,52.0897 9.6128,52.1385 9.6368,52.1865 C9.6547,52.2247 9.6750,52.2645 9.6953,52.3020 C9.6990,52.3095 9.7020,52.3155 9.7050,52.3223 C9.7365,52.3837 9.7688,52.4452 9.8025,52.5068 C9.8190,52.5405 9.8385,52.5727 9.8565,52.6065 C9.8723,52.6357 9.8873,52.6650 9.9038,52.6942 C9.9150,52.7130 9.9248,52.7325 9.9353,52.7512 C10.0005,52.8652 10.0680,52.9815 10.1385,53.0955 C10.1423,53.1015 10.1460,53.1075 10.1498,53.1127 C10.1655,53.1375 10.1813,53.1623 10.1970,53.1878 C10.2150,53.2170 10.2330,53.2462 10.2510,53.2755 C10.2518,53.2755 10.2518,53.2770 10.2525,53.2770 C10.2578,53.2860 10.2638,53.2943 10.2698,53.3032 C10.3313,53.4000 10.3950,53.4968 10.4617,53.5935 C10.4828,53.6258 10.5045,53.6580 10.5270,53.6902 C10.5353,53.7008 10.5428,53.7120 10.5510,53.7240 C10.5578,53.7345 10.5637,53.7443 10.5713,53.7547 C10.6680,53.8927 10.7715,54.0300 10.8773,54.1680 C10.8930,54.1882 10.9080,54.2093 10.9245,54.2280 C10.9448,54.2557 10.9680,54.2820 10.9890,54.3098 C11.1075,54.4590 11.2305,54.6083 11.3603,54.7582 C11.6062,55.0395 11.8823,55.3237 12.1808,55.6020 C12.2348,55.6530 12.2910,55.7032 12.3473,55.7528 C12.4328,55.8307 12.5183,55.9080 12.6067,55.9845 C12.6825,56.0490 12.7590,56.1120 12.8370,56.1765 C12.9172,56.2410 12.9975,56.3070 13.0793,56.3715 C13.1445,56.4210 13.2098,56.4712 13.2758,56.5192 C13.3860,56.6025 13.4985,56.6865 13.6133,56.7652 C13.6410,56.7855 13.6680,56.8035 13.6957,56.8237 C14.1225,57.1200 14.5718,57.3968 15.0367,57.6367 C15.7980,58.0320 16.5615,58.3252 17.3115,58.5465 C17.3940,58.5697 17.4765,58.5960 17.5590,58.6200 C17.6610,58.6462 17.7623,58.6710 17.8620,58.6950 C17.9475,58.7167 18.0330,58.7422 18.1185,58.7595 C18.1387,58.7640 18.1590,58.7670 18.1785,58.7715 C18.3053,58.8007 18.4305,58.8225 18.5550,58.8465 C18.6240,58.8600 18.6915,58.8742 18.7597,58.8847 C18.9127,58.9110 19.0650,58.9327 19.2157,58.9537 C19.2540,58.9582 19.2915,58.9657 19.3282,58.9710 C19.3440,58.9725 19.3583,58.9740 19.3747,58.9755 C19.4505,58.9845 19.5240,58.9927 19.6005,59.0002 C19.7122,59.0122 19.8247,59.0220 19.9380,59.0310 C19.9762,59.0340 20.0160,59.0385 20.0550,59.0430 C20.2553,59.0565 20.4878,59.0565 20.7420,59.0460 C20.7592,59.0460 20.7757,59.0445 20.7937,59.0445 C21.1703,59.0272 21.5925,58.9875 22.0485,58.9215 C22.0522,58.9200 22.0568,58.9200 22.0612,58.9185 C23.4097,58.7235 25.0147,58.3102 26.3565,57.6847 C26.5380,57.5985 26.7248,57.5048 26.9137,57.4065 C27.0150,57.3555 27.1170,57.2992 27.2190,57.2438 C27.2813,57.2100 27.3435,57.1748 27.4058,57.1395 C28.5428,56.5095 29.7540,55.6980 30.9630,54.8175 C30.9450,54.8325 30.9330,54.8422 30.9330,54.8422 C31.5405,54.4072 32.1945,53.9152 32.8710,53.3932 C32.8800,53.4067 32.8883,53.4195 32.8973,53.4330 C32.9737,53.5485 33.0540,53.6647 33.1327,53.7787 C33.1867,53.8575 33.2408,53.9370 33.2963,54.0157 C33.3773,54.1297 33.4612,54.2415 33.5445,54.3540 C33.6015,54.4305 33.6562,54.5078 33.7140,54.5828 C33.8010,54.6952 33.8895,54.8055 33.9780,54.9150 C34.0372,54.9885 34.0943,55.0627 34.1550,55.1347 C34.2458,55.2443 34.3395,55.3515 34.4333,55.4587 C34.4940,55.5277 34.5533,55.5998 34.6147,55.6680 C34.7115,55.7722 34.8097,55.8742 34.9080,55.9770 L34.9072,55.9755 L34.9057,55.9770 C34.9268,56.0003 34.9507,56.0212 34.9718,56.0445 C35.0145,56.0888 35.0543,56.1323 35.0978,56.1750 C35.1457,56.2230 35.1953,56.2687 35.2432,56.3160 C35.3122,56.3835 35.3820,56.4495 35.4518,56.5140 C35.5020,56.5620 35.5508,56.6107 35.6025,56.6572 C35.6340,56.6850 35.6655,56.7113 35.6970,56.7390 C35.7915,56.8237 35.8905,56.9047 35.9887,56.9865 C36.0368,57.0262 36.0833,57.0682 36.1320,57.1080 C36.1462,57.1200 36.1605,57.1312 36.1747,57.1418 C36.3420,57.2753 36.5115,57.4043 36.6848,57.5257 C36.8723,57.6578 37.0605,57.7837 37.2510,57.9067 C37.3125,57.9465 37.3755,57.9832 37.4370,58.0207 C37.5667,58.1010 37.6950,58.1805 37.8247,58.2562 C37.9020,58.3005 37.9793,58.3425 38.0573,58.3867 C38.1728,58.4512 38.2883,58.5142 38.4060,58.5742 C38.4900,58.6200 38.5748,58.6605 38.6587,58.7032 C38.7097,58.7280 38.7608,58.7557 38.8110,58.7797 L38.8140,58.7767 C38.9265,58.8307 39.0405,58.8877 39.1545,58.9380 C40.8382,59.6805 42.5588,60.0472 44.1142,60.1890 C45.6757,60.3322 47.6933,60.1875 49.6598,59.6557 C51.2550,59.2237 52.7992,58.5157 54.0855,57.5550 C55.7715,56.2950 57.1335,54.8025 58.0230,53.2485 C58.1122,53.0918 58.1955,52.9350 58.2758,52.7767 C58.3125,52.7033 58.3455,52.6305 58.3800,52.5570 C58.4205,52.4722 58.4618,52.3868 58.4993,52.3020 C58.5367,52.2187 58.5690,52.1347 58.6028,52.0530 C58.6335,51.9765 58.6658,51.9007 58.6957,51.8227 C58.7288,51.7365 58.7595,51.6503 58.7888,51.5618 C58.8158,51.4882 58.8428,51.4155 58.8667,51.3405 C58.8960,51.2527 58.9215,51.1650 58.9485,51.0750 C58.9695,51.0015 58.9928,50.9287 59.0137,50.8537 C59.0385,50.7660 59.0610,50.6783 59.0835,50.5883 C59.1015,50.5133 59.1217,50.4390 59.1390,50.3625 C59.1592,50.2762 59.1780,50.1885 59.1960,50.1000 C59.2125,50.0220 59.2290,49.9447 59.2440,49.8667 C59.2583,49.7948 59.2710,49.7220 59.2845,49.6485 C59.2987,49.5682 59.3130,49.4857 59.3250,49.4040 C59.3332,49.3583 59.3408,49.3133 59.3483,49.2675 C59.3460,49.2750 59.3430,49.2825 59.3400,49.2892 C59.3460,49.2495 59.3490,49.2113 59.3542,49.1738 C59.3595,49.1430 59.3648,49.1137 59.3685,49.0845 C59.3685,49.0995 59.3685,49.1137 59.3685,49.1302 C59.6138,47.7990 59.6917,44.2500 57.9533,41.1945 Z M40.8968,47.0242 C42.7335,45.6945 44.7833,44.3242 46.1505,43.5143 C46.8938,43.0732 47.6730,42.7088 48.4013,42.4305 C49.3590,44.1090 49.8607,46.0470 49.8600,47.9250 C49.8607,51.5182 48.4312,54.7673 45.8753,56.4930 C45.8700,56.4915 45.8648,56.4915 45.8595,56.4900 C44.0700,56.2192 42.0907,55.8322 40.2758,55.0687 C38.3482,54.2603 36.9570,53.5103 36.0502,52.9650 C35.5972,52.6927 35.2635,52.4715 35.0452,52.3177 C34.9358,52.2413 34.8495,52.1888 34.7963,52.1490 C34.7632,52.1242 34.6778,52.0710 34.6125,52.0275 C34.5713,52.0613 34.5307,52.0935 34.4902,52.1258 C34.4895,52.1258 34.4895,52.1258 34.4895,52.1258 C37.0095,50.1240 39.5520,48.0000 40.8968,47.0242 Z M20.7015,44.1195 C20.7195,44.1195 20.7375,44.1195 20.7548,44.1195 C20.7937,44.1210 20.8328,44.1195 20.8717,44.1210 C21.0952,44.1240 21.3157,44.1360 21.5333,44.1532 C21.5880,44.1577 21.6427,44.1638 21.6975,44.1690 C21.8970,44.1892 22.0928,44.2162 22.2878,44.2477 C22.3342,44.2552 22.3792,44.2612 22.4250,44.2695 C22.5330,44.2883 22.6372,44.3153 22.7437,44.3385 C24.8678,44.8582 26.0617,45.7433 27.4177,46.7557 C27.0135,47.1750 26.6055,47.5890 26.1945,47.9918 C23.8702,50.2710 21.4703,52.2263 19.4580,52.9268 C18.4110,53.2912 17.4112,53.4367 16.5375,53.4742 C15.2407,53.5283 13.9980,53.2852 13.1040,52.9672 C13.0718,52.8630 13.0410,52.7580 13.0140,52.6507 C13.0133,52.6478 13.0125,52.6463 13.0125,52.6432 C13.0102,52.6297 13.0088,52.6283 13.0073,52.6215 C13.0057,52.6185 13.0050,52.6155 13.0050,52.6140 C12.8678,52.0777 12.7980,51.5288 12.7980,50.9775 C12.7980,50.3317 12.8947,49.6800 13.1003,49.0410 C13.1557,48.8685 13.2210,48.6997 13.2900,48.5355 C13.3102,48.4860 13.3320,48.4387 13.3530,48.3908 C13.4070,48.2708 13.4632,48.1537 13.5233,48.0390 C13.5465,47.9932 13.5705,47.9483 13.5945,47.9025 C13.6777,47.7518 13.7662,47.6040 13.8600,47.4615 C13.8645,47.4555 13.8690,47.4480 13.8742,47.4427 C13.9642,47.3063 14.0610,47.1765 14.1608,47.0490 C14.1922,47.0092 14.2253,46.9703 14.2575,46.9305 C14.3355,46.8337 14.4180,46.7400 14.5020,46.6492 C14.5350,46.6125 14.5672,46.5758 14.6017,46.5405 C14.7165,46.4205 14.8350,46.3050 14.9588,46.1933 C14.9685,46.1842 14.9783,46.1775 14.9888,46.1685 C15.1035,46.0657 15.2227,45.9675 15.3450,45.8722 C15.3840,45.8415 15.4245,45.8123 15.4650,45.7815 C15.5648,45.7065 15.6652,45.6353 15.7680,45.5663 C15.8077,45.5400 15.8460,45.5138 15.8843,45.4875 C16.0253,45.3982 16.1663,45.3120 16.3103,45.2295 C16.3237,45.2235 16.3358,45.2160 16.3485,45.2108 C16.4827,45.1357 16.6185,45.0660 16.7572,45.0000 C16.8007,44.9797 16.8435,44.9587 16.8855,44.9400 C17.0032,44.8860 17.1225,44.8343 17.2418,44.7862 C17.2800,44.7705 17.3190,44.7540 17.3565,44.7382 C18.2017,44.4090 19.0943,44.2110 19.9710,44.1435 C19.9582,44.1450 19.9463,44.1465 19.9327,44.1465 C19.9463,44.1450 19.9575,44.1435 19.9703,44.1435 C20.2185,44.1255 20.4615,44.1210 20.7015,44.1195 Z" style="stroke-width: 1.5000; stroke: #8d98b5; stroke-dasharray: none; stroke-linecap: butt; stroke-linejoin: miter; fill: none; "/>
    <path xmlns="http://www.w3.org/2000/svg" d="  M4.2142,36.9697 L4.2022,36.9757 C4.2022,36.9757 4.2067,36.9757 4.2142,36.9697 Z" style="stroke-width: 1.5000; stroke: #8d98b5; stroke-dasharray: none; stroke-linecap: butt; stroke-linejoin: miter; fill: none; "/>
    <path xmlns="http://www.w3.org/2000/svg" d="  M45.0585,18.0832 C45.0615,17.8973 45.0142,17.7870 44.7930,17.6325 C44.7930,17.6325 15.0945,0.6255 14.5582,0.3428 C13.9073,0.0000 13.8375,0.2055 13.5637,0.3600 C13.3365,0.4875 11.6587,1.4228 11.6587,1.4228 C11.5508,1.4587 11.4930,1.5870 11.4982,1.7925 C11.5013,1.8923 11.5013,4.1063 11.5013,7.1925 L0.3712,13.4902 L0.4335,13.4550 C0.3435,13.5143 0.2820,13.5938 0.2565,13.6965 C0.2565,13.6965 0.0435,19.8270 0.0225,23.7743 C0.0000,28.1685 0.2850,34.7460 0.2850,34.7460 C0.3247,35.8005 0.4905,36.3135 1.7565,36.9758 C2.5028,37.3643 3.8137,37.3042 4.2232,36.9607 C4.2323,36.9518 4.2412,36.9420 4.2495,36.9300 C4.2352,36.9518 4.2232,36.9637 4.2135,36.9697 L4.3732,36.8835 L7.2487,35.2560 C7.9350,35.6573 8.5605,36.0233 8.5605,36.0233 C8.6310,36.0645 8.7045,36.0998 8.7810,36.1305 C9.0870,36.2505 9.4087,36.3105 9.7350,36.3105 C10.2300,36.3105 10.7310,36.1687 11.1862,35.8973 L17.0895,32.4885 C17.6482,32.1982 18.0488,31.6875 18.1988,31.1175 C19.3560,31.7872 20.6205,32.5193 21.9450,33.2857 C21.0675,33.5392 20.2935,33.9037 19.6507,34.3740 C19.5945,34.4122 19.5622,34.4370 19.5622,34.4370 C19.5622,34.4370 19.5652,34.4370 19.5690,34.4385 C18.9315,34.9230 18.4260,35.5095 18.0825,36.1875 C18.0450,36.2595 18.0128,36.3337 17.9798,36.4102 C17.9610,36.4440 17.9415,36.4748 17.9250,36.5085 C16.1708,39.9712 19.1925,44.7188 24.6772,47.1142 C30.1605,49.5075 36.0270,48.6405 37.7820,45.1792 C38.1660,44.4203 38.3827,43.6238 38.4150,42.8137 C40.5030,44.0220 41.8305,44.7900 41.8305,44.7900 C42.1860,44.9280 42.4312,44.7457 42.4432,44.7375 L44.8215,43.3770 C44.9843,43.3020 45.0577,43.1865 45.0682,43.0388 L45.0585,18.0832 Z M4.3867,15.4792 C4.3800,15.4057 4.3650,15.3315 4.3380,15.2595 C4.3830,15.3622 4.3920,15.4365 4.3935,15.4763 L4.3867,15.4792 Z M4.3785,36.4582 C4.3875,36.3690 4.3927,36.2842 4.3950,36.2182 C4.3950,36.2708 4.3942,36.3015 4.3942,36.3045 C4.3897,36.3615 4.3845,36.4117 4.3785,36.4582 Z" style="stroke-width: 1.5000; stroke: #8d98b5; stroke-dasharray: none; stroke-linecap: butt; stroke-linejoin: miter; fill: none; "/>
    <defs xmlns="http://www.w3.org/2000/svg" xmlns:xlink="http://www.w3.org/1999/xlink">
      <linearGradient id="grad6564">
        <stop offset="0%" stop-color="#5e5e5e" stop-opacity="1.0000"/>
        <stop offset="100%" stop-color="#9a9a9a" stop-opacity="1.0000"/>
      </linearGradient>
      <linearGradient xlink:href="#grad6564" id="grad6565" x1="0" y1="0" x2="0" y2="1" gradientTransform="rotate(315 .5 .5)" gradientUnits="objectBoundingBox">
  </linearGradient>
    </defs>
    <path xmlns="http://www.w3.org/2000/svg" d="  M16.2795,30.1455 L13.1550,28.6612 C12.7800,28.4422 12.3795,28.6590 12.1545,28.7865 L6.4200,31.9117 C5.7165,32.3955 6.0293,32.7075 6.3105,32.8800 L9.3578,34.6612 C9.7178,34.8022 10.0770,34.7227 10.3898,34.5352 L16.3425,31.0987 C16.7010,30.9262 16.9200,30.4582 16.2795,30.1455 Z M16.2443,30.9277 L10.2878,34.3665 C10.1018,34.4790 9.9158,34.5352 9.7365,34.5352 C9.6375,34.5352 9.5393,34.5180 9.4433,34.4827 L6.4140,32.7120 C6.2723,32.6242 6.1928,32.5380 6.1905,32.4690 C6.1883,32.4217 6.2183,32.2920 6.5235,32.0790 L12.2520,28.9575 C12.3705,28.8900 12.5918,28.7647 12.8063,28.7647 C12.8970,28.7647 12.9780,28.7865 13.0710,28.8390 L16.1933,30.3225 C16.3860,30.4162 16.4918,30.5272 16.4903,30.6345 C16.4903,30.7372 16.3935,30.8550 16.2443,30.9277 Z" style="fill-rule: evenodd; fill: url(#grad6565); "/>
    <defs xmlns="http://www.w3.org/2000/svg" xmlns:xlink="http://www.w3.org/1999/xlink">
      <linearGradient id="grad6566">
        <stop offset="0%" stop-color="#848484" stop-opacity="1.0000"/>
        <stop offset="100%" stop-color="#9a9a9a" stop-opacity="1.0000"/>
      </linearGradient>
      <linearGradient xlink:href="#grad6566" id="grad6567" x1="0" y1="0" x2="0" y2="1" gradientTransform="rotate(90 .5 .5)" gradientUnits="objectBoundingBox">
  </linearGradient>
    </defs>
    <path xmlns="http://www.w3.org/2000/svg" d="  M13.6770,28.1760 C13.2210,27.9105 12.7343,28.1730 12.4613,28.3282 L5.4945,32.1255 C4.6388,32.7127 5.0190,33.0937 5.3618,33.3015 L9.0638,35.4668 C9.5003,35.6385 9.9375,35.5433 10.3163,35.3145 L17.5500,31.1385 C17.9873,30.9300 18.2528,30.3600 17.4735,29.9805 L13.6770,28.1760 Z M16.3418,31.0987 L10.3890,34.5353 C10.0763,34.7228 9.7170,34.8015 9.3570,34.6613 L6.3098,32.8800 C6.0285,32.7075 5.7165,32.3955 6.4193,31.9117 L12.1538,28.7865 C12.3788,28.6590 12.7793,28.4430 13.1543,28.6612 L16.2788,30.1455 C16.9200,30.4582 16.7010,30.9262 16.3418,31.0987 Z" style="fill-rule: evenodd; fill: url(#grad6567); "/>
    <defs xmlns="http://www.w3.org/2000/svg" xmlns:xlink="http://www.w3.org/1999/xlink">
      <linearGradient id="grad6568">
        <stop offset="0%" stop-color="#848484" stop-opacity="1.0000"/>
        <stop offset="100%" stop-color="#9a9a9a" stop-opacity="1.0000"/>
      </linearGradient>
      <linearGradient xlink:href="#grad6568" id="grad6569" x1="0" y1="0" x2="0" y2="1" gradientTransform="rotate(90 .5 .5)" gradientUnits="objectBoundingBox">
  </linearGradient>
    </defs>
    <path xmlns="http://www.w3.org/2000/svg" d="  M16.9568,28.7197 L13.8788,27.2572 C13.5502,27.0817 13.1790,26.9887 12.8063,26.9887 C12.1222,26.9887 11.5867,27.2932 11.3880,27.4057 L5.6648,30.5250 C5.6168,30.5512 5.5695,30.5790 5.5238,30.6112 C4.5810,31.2607 4.3995,32.0047 4.4145,32.5162 C4.4243,32.9175 4.5788,33.6720 5.4908,34.2285 C5.4983,34.2330 8.5605,36.0232 8.5605,36.0232 C8.6310,36.0645 8.7045,36.0997 8.7810,36.1305 C9.0870,36.2505 9.4088,36.3105 9.7350,36.3105 C10.2300,36.3105 10.7310,36.1687 11.1863,35.8972 L17.0895,32.4885 C17.8005,32.1195 18.2625,31.3942 18.2655,30.6405 C18.2678,30.2557 18.1440,29.2987 16.9568,28.7197 Z M16.9988,32.3145 L11.0888,35.7262 C10.6620,35.9812 10.1948,36.1147 9.7358,36.1147 C9.4343,36.1147 9.1373,36.0577 8.8530,35.9460 C8.7870,35.9212 8.7225,35.8905 8.6610,35.8537 C8.6610,35.8537 5.5980,34.0620 5.5913,34.0590 C4.7633,33.5520 4.6208,32.8710 4.6110,32.5110 C4.5983,32.0497 4.7655,31.3725 5.6355,30.7740 C5.6760,30.7470 5.7158,30.7222 5.7578,30.6982 L11.4818,27.5790 C11.6985,27.4567 12.1845,27.1860 12.8055,27.1860 C13.1475,27.1860 13.4850,27.2707 13.7858,27.4320 L16.8720,28.8982 C17.9565,29.4277 18.0698,30.2925 18.0683,30.6405 C18.0675,31.3267 17.6490,31.9762 16.9988,32.3145 Z" style="fill-rule: evenodd; fill: url(#grad6569); "/>
    <path xmlns="http://www.w3.org/2000/svg" d="  M16.9568,28.7197 L13.8788,27.2572 C13.5502,27.0817 13.1790,26.9887 12.8063,26.9887 C12.1222,26.9887 11.5867,27.2932 11.3880,27.4057 L5.6648,30.5250 C5.6168,30.5512 5.5695,30.5790 5.5238,30.6112 C4.5810,31.2607 4.3995,32.0047 4.4145,32.5162 C4.4243,32.9175 4.5788,33.6720 5.4908,34.2285 C5.4983,34.2330 8.5605,36.0232 8.5605,36.0232 C8.6310,36.0645 8.7045,36.0997 8.7810,36.1305 C9.0870,36.2505 9.4088,36.3105 9.7350,36.3105 C10.2300,36.3105 10.7310,36.1687 11.1863,35.8972 L17.0895,32.4885 C17.8005,32.1195 18.2625,31.3942 18.2655,30.6405 C18.2678,30.2557 18.1440,29.2987 16.9568,28.7197 Z M16.9988,32.3145 L11.0888,35.7262 C10.6620,35.9812 10.1948,36.1147 9.7358,36.1147 C9.4343,36.1147 9.1373,36.0577 8.8530,35.9460 C8.7870,35.9212 8.7225,35.8905 8.6610,35.8537 C8.6610,35.8537 5.5980,34.0620 5.5913,34.0590 C4.7633,33.5520 4.6208,32.8710 4.6110,32.5110 C4.5983,32.0497 4.7655,31.3725 5.6355,30.7740 C5.6760,30.7470 5.7158,30.7222 5.7578,30.6982 L11.4818,27.5790 C11.6985,27.4567 12.1845,27.1860 12.8055,27.1860 C13.1475,27.1860 13.4850,27.2707 13.7858,27.4320 L16.8720,28.8982 C17.9565,29.4277 18.0698,30.2925 18.0683,30.6405 C18.0675,31.3267 17.6490,31.9762 16.9988,32.3145 Z" style="fill-rule: evenodd; fill: #5e5e5e; "/>
    <defs xmlns="http://www.w3.org/2000/svg" xmlns:xlink="http://www.w3.org/1999/xlink">
      <linearGradient id="grad6570">
        <stop offset="0%" stop-color="#848484" stop-opacity="1.0000"/>
        <stop offset="100%" stop-color="#9a9a9a" stop-opacity="1.0000"/>
      </linearGradient>
      <linearGradient xlink:href="#grad6570" id="grad6571" x1="0" y1="0" x2="0" y2="1" gradientTransform="rotate(90 .5 .5)" gradientUnits="objectBoundingBox">
  </linearGradient>
    </defs>
    <path xmlns="http://www.w3.org/2000/svg" d="  M16.8728,28.8982 L13.7865,27.4320 C13.4865,27.2715 13.1483,27.1860 12.8063,27.1860 C12.1853,27.1860 11.6993,27.4567 11.4825,27.5790 L5.7585,30.6982 C5.7165,30.7215 5.6768,30.7462 5.6363,30.7740 C4.7663,31.3732 4.5990,32.0497 4.6118,32.5110 C4.6215,32.8710 4.7633,33.5527 5.5920,34.0590 C5.5988,34.0620 8.6618,35.8538 8.6618,35.8538 C8.7233,35.8905 8.7878,35.9213 8.8538,35.9460 C9.1380,36.0570 9.4343,36.1148 9.7365,36.1148 C10.1948,36.1148 10.6620,35.9813 11.0895,35.7263 L16.9995,32.3145 C17.6498,31.9762 18.0683,31.3275 18.0698,30.6405 C18.0705,30.2925 17.9573,29.4277 16.8728,28.8982 Z M17.5493,31.1377 L10.3155,35.3138 C9.9368,35.5425 9.4995,35.6378 9.0630,35.4660 L5.3610,33.3008 C5.0183,33.0930 4.6380,32.7120 5.4938,32.1247 L12.4605,28.3275 C12.7335,28.1722 13.2203,27.9097 13.6763,28.1752 L17.4728,29.9790 C18.2520,30.3592 17.9865,30.9292 17.5493,31.1377 Z" style="fill-rule: evenodd; fill: url(#grad6571); "/>
    <defs xmlns="http://www.w3.org/2000/svg">
      <radialGradient id="grad6572" cx="50.0000%" cy="50.0000%" r="100.0000%">
        <stop offset="0%" stop-color="#dae1e1" stop-opacity="1.0000"/>
        <stop offset="100%" stop-color="#7f8787" stop-opacity="1.0000"/>
      </radialGradient>
    </defs>
    <path xmlns="http://www.w3.org/2000/svg" d="  M13.6770,28.1760 C13.2210,27.9105 12.7343,28.1730 12.4613,28.3282 L5.4945,32.1255 C4.6388,32.7127 5.0190,33.0937 5.3618,33.3015 L9.0638,35.4668 C9.5003,35.6385 9.9375,35.5433 10.3163,35.3145 L17.5500,31.1385 C17.9873,30.9300 18.2528,30.3600 17.4735,29.9805 L13.6770,28.1760 Z M16.3418,31.0987 L10.3890,34.5353 C10.0763,34.7228 9.7170,34.8015 9.3570,34.6613 L6.3098,32.8800 C6.0285,32.7075 5.7165,32.3955 6.4193,31.9117 L12.1538,28.7865 C12.3788,28.6590 12.7793,28.4430 13.1543,28.6612 L16.2788,30.1455 C16.9200,30.4582 16.7010,30.9262 16.3418,31.0987 Z" style="fill-rule: evenodd; fill: url(#grad6572); "/>
    <defs xmlns="http://www.w3.org/2000/svg">
      <radialGradient id="grad6573" cx="50.0000%" cy="50.0000%" r="100.0000%">
        <stop offset="0%" stop-color="#dae1e1" stop-opacity="1.0000"/>
        <stop offset="100%" stop-color="#7f8787" stop-opacity="1.0000"/>
      </radialGradient>
    </defs>
    <path xmlns="http://www.w3.org/2000/svg" d="  M16.8728,28.8982 L13.7865,27.4320 C13.4865,27.2715 13.1483,27.1860 12.8063,27.1860 C12.1853,27.1860 11.6993,27.4567 11.4825,27.5790 L5.7585,30.6982 C5.7165,30.7215 5.6768,30.7462 5.6363,30.7740 C4.7663,31.3732 4.5990,32.0497 4.6118,32.5110 C4.6215,32.8710 4.7633,33.5527 5.5920,34.0590 C5.5988,34.0620 8.6618,35.8538 8.6618,35.8538 C8.7233,35.8905 8.7878,35.9213 8.8538,35.9460 C9.1380,36.0570 9.4343,36.1148 9.7365,36.1148 C10.1948,36.1148 10.6620,35.9813 11.0895,35.7263 L16.9995,32.3145 C17.6498,31.9762 18.0683,31.3275 18.0698,30.6405 C18.0705,30.2925 17.9573,29.4277 16.8728,28.8982 Z M17.5493,31.1377 L10.3155,35.3138 C9.9368,35.5425 9.4995,35.6378 9.0630,35.4660 L5.3610,33.3008 C5.0183,33.0930 4.6380,32.7120 5.4938,32.1247 L12.4605,28.3275 C12.7335,28.1722 13.2203,27.9097 13.6763,28.1752 L17.4728,29.9790 C18.2520,30.3592 17.9865,30.9292 17.5493,31.1377 Z" style="fill-rule: evenodd; fill: url(#grad6573); "/>
    <path xmlns="http://www.w3.org/2000/svg" d="  M16.8728,28.8982 L13.7865,27.4320 C13.4865,27.2715 13.1483,27.1860 12.8063,27.1860 C12.1852,27.1860 11.6993,27.4567 11.4825,27.5790 L5.7585,30.6982 C5.7165,30.7215 5.6768,30.7462 5.6363,30.7740 C4.7663,31.3732 4.5990,32.0497 4.6118,32.5110 C4.6215,32.8710 4.7633,33.5527 5.5920,34.0590 C5.5988,34.0620 8.6618,35.8538 8.6618,35.8538 C8.7233,35.8905 8.7877,35.9213 8.8538,35.9460 C9.1380,36.0570 9.4342,36.1148 9.7365,36.1148 C10.1947,36.1148 10.6620,35.9813 11.0895,35.7263 L16.9995,32.3145 C17.6498,31.9762 18.0683,31.3275 18.0698,30.6405 C18.0705,30.2925 17.9573,29.4277 16.8728,28.8982 Z M17.1442,31.5570 L10.6673,35.3145 C10.1280,35.5560 9.3690,35.6738 8.8305,35.3235 L8.4075,35.0670 C8.4075,35.0670 8.2890,34.8607 8.4203,34.5982 C8.5523,34.3357 8.8043,34.3328 8.8043,34.3328 L6.6195,33.0540 C6.6195,33.0540 5.2178,32.5575 6.4613,31.9012 L12.3862,28.6665 C12.7778,28.4610 13.1303,28.6530 13.1303,28.6530 C14.7698,29.4457 15.7140,29.8822 16.2930,30.1582 C16.2930,30.1582 16.0748,29.9190 16.3485,29.5155 C16.7805,28.8802 17.3145,29.1877 17.3145,29.1877 C18.1208,29.6827 17.9790,30.9375 17.1442,31.5570 Z" style="fill-rule: evenodd; fill: #000000; fill-opacity: 0.3412; "/>
    <defs xmlns="http://www.w3.org/2000/svg" xmlns:xlink="http://www.w3.org/1999/xlink">
      <linearGradient id="grad6574">
        <stop offset="0%" stop-color="#7c7c7c" stop-opacity="1.0000"/>
        <stop offset="100%" stop-color="#bcbcbc" stop-opacity="1.0000"/>
      </linearGradient>
      <linearGradient xlink:href="#grad6574" id="grad6575" x1="0" y1="0" x2="0" y2="1" gradientTransform="rotate(225 .5 .5)" gradientUnits="objectBoundingBox">
  </linearGradient>
    </defs>
    <path xmlns="http://www.w3.org/2000/svg" d="  M18.6413,27.9007 C18.6413,28.6320 18.0180,29.1592 17.8642,29.2477 L4.3740,36.8835 L4.2023,36.9757 C4.2023,36.9757 4.3403,36.9450 4.3943,36.3045 C4.4025,36.2137 4.3808,15.4815 4.3808,15.4815 L18.6135,7.5255 L18.6413,27.9007 Z" style="fill-rule: evenodd; fill: url(#grad6575); "/>
    <defs xmlns="http://www.w3.org/2000/svg" xmlns:xlink="http://www.w3.org/1999/xlink">
      <linearGradient id="grad6576">
        <stop offset="0%" stop-color="#dfddda" stop-opacity="1.0000"/>
        <stop offset="100%" stop-color="#eaeae7" stop-opacity="1.0000"/>
      </linearGradient>
      <linearGradient xlink:href="#grad6576" id="grad6577" x1="0" y1="0" x2="0" y2="1" gradientTransform="rotate(180 .5 .5)" gradientUnits="objectBoundingBox">
  </linearGradient>
    </defs>
    <path xmlns="http://www.w3.org/2000/svg" d="  M16.3328,5.6880 C18.6413,6.6937 18.6188,7.5315 18.6188,7.5315 L4.3920,15.5092 C4.3920,15.5092 4.5240,14.6895 2.0948,13.6057 C0.8153,13.0350 0.3720,13.4902 0.3720,13.4902 L14.2965,5.6100 C14.2965,5.6100 15.3570,5.2627 16.3328,5.6880 Z" style="fill-rule: evenodd; fill: url(#grad6577); "/>
    <defs xmlns="http://www.w3.org/2000/svg" xmlns:xlink="http://www.w3.org/1999/xlink">
      <linearGradient id="grad6578">
        <stop offset="0%" stop-color="#b4b4b4" stop-opacity="1.0000"/>
        <stop offset="100%" stop-color="#f7f7f7" stop-opacity="1.0000"/>
      </linearGradient>
      <linearGradient xlink:href="#grad6578" id="grad6579" x1="0" y1="0" x2="0" y2="1" gradientTransform="rotate(180 .5 .5)" gradientUnits="objectBoundingBox">
  </linearGradient>
    </defs>
    <path xmlns="http://www.w3.org/2000/svg" d="  M4.6058,25.4055 C4.6058,29.4382 4.4003,36.0862 4.4003,36.0862 C4.4003,36.0862 4.4010,36.8115 4.2248,36.9607 C3.8153,37.3035 2.5043,37.3635 1.7580,36.9757 C0.4920,36.3135 0.3263,35.8012 0.2865,34.7460 C0.2865,34.7460 0.0015,28.1677 0.0240,23.7742 C0.0443,19.8270 0.2580,13.6965 0.2580,13.6965 C0.3630,13.2540 1.1580,13.2292 1.8735,13.5262 C2.8965,13.8922 4.3928,14.6880 4.3928,15.5400 C4.3920,15.5392 4.6058,21.3412 4.6058,25.4055 Z" style="fill-rule: evenodd; fill: url(#grad6579); "/>
    <defs xmlns="http://www.w3.org/2000/svg" xmlns:xlink="http://www.w3.org/1999/xlink">
      <linearGradient id="grad6580">
        <stop offset="0%" stop-color="#626262" stop-opacity="1.0000"/>
        <stop offset="100%" stop-color="#212121" stop-opacity="1.0000"/>
      </linearGradient>
      <linearGradient xlink:href="#grad6580" id="grad6581" x1="0" y1="0" x2="0" y2="1" gradientTransform="rotate(180 .5 .5)" gradientUnits="objectBoundingBox">
  </linearGradient>
    </defs>
    <path xmlns="http://www.w3.org/2000/svg" d="  M4.1670,25.4835 C4.1490,27.7890 3.9788,36.1627 3.9788,36.1627 C3.9413,37.3065 2.0738,36.7470 1.7078,36.5595 C1.3425,36.3735 0.6293,35.8522 0.6075,35.0167 C0.4845,29.4292 0.4778,28.9620 0.4343,24.0367 C0.4088,21.1432 0.6503,14.6947 0.6503,14.6947 C0.6503,14.1007 0.5925,13.5667 1.2083,13.7475 C1.2083,13.7475 1.2870,13.7370 1.7775,13.9215 C2.9055,14.3460 3.9285,15.0600 3.9765,15.5902 C3.9765,15.5902 4.1925,22.1040 4.1670,25.4835 Z" style="fill-rule: evenodd; fill: url(#grad6581); "/>
    <defs xmlns="http://www.w3.org/2000/svg" xmlns:xlink="http://www.w3.org/1999/xlink">
      <linearGradient id="grad6582">
        <stop offset="0%" stop-color="#acacb0" stop-opacity="1.0000"/>
        <stop offset="100%" stop-color="#b6b6bd" stop-opacity="1.0000"/>
      </linearGradient>
      <linearGradient xlink:href="#grad6582" id="grad6583" x1="0" y1="0" x2="0" y2="1" gradientTransform="rotate(180 .5 .5)" gradientUnits="objectBoundingBox">
  </linearGradient>
    </defs>
    <path xmlns="http://www.w3.org/2000/svg" d="  M3.8393,25.0620 L3.6548,35.9490 C3.6548,35.9490 3.6143,36.9022 1.9073,36.1875 C0.9150,35.7697 0.9878,34.9860 0.9878,34.9860 C0.9878,34.9860 0.7830,27.0705 0.7980,23.7667 C0.8123,20.4622 0.9998,14.8882 0.9998,14.8882 C0.9998,14.8882 1.0163,14.4285 1.4693,14.5762 C3.6743,15.2962 3.6435,16.1295 3.6435,16.1295 L3.8393,25.0620 Z" style="fill-rule: evenodd; fill: url(#grad6583); "/>
    <defs xmlns="http://www.w3.org/2000/svg" xmlns:xlink="http://www.w3.org/1999/xlink">
      <linearGradient id="grad6584">
        <stop offset="0%" stop-color="#848484" stop-opacity="1.0000"/>
        <stop offset="100%" stop-color="#9a9a9a" stop-opacity="1.0000"/>
      </linearGradient>
      <linearGradient xlink:href="#grad6584" id="grad6585" x1="0" y1="0" x2="0" y2="1" gradientTransform="rotate(90 .5 .5)" gradientUnits="objectBoundingBox">
  </linearGradient>
    </defs>
    <path xmlns="http://www.w3.org/2000/svg" d="  M15.2130,28.8847 C15.0420,28.8847 14.8755,28.7812 14.7758,28.6147 C14.6340,28.3725 14.6865,28.0747 14.8950,27.9502 C14.9550,27.9157 15.0240,27.8970 15.0952,27.8970 C15.2670,27.8970 15.4335,28.0005 15.5325,28.1670 C15.6098,28.2952 15.6322,28.4460 15.5992,28.5780 C15.5707,28.6875 15.5055,28.7767 15.4140,28.8300 C15.3547,28.8667 15.2857,28.8847 15.2130,28.8847 Z" style="fill-rule: evenodd; fill: url(#grad6585); "/>
    <defs xmlns="http://www.w3.org/2000/svg">
      <radialGradient id="grad6586" cx="0.0000%" cy="0.0000%" r="100.0000%">
        <stop offset="0%" stop-color="#e8ff66" stop-opacity="1.0000"/>
        <stop offset="100%" stop-color="#079948" stop-opacity="1.0000"/>
      </radialGradient>
    </defs>
    <path xmlns="http://www.w3.org/2000/svg" d="  M15.4073,28.2405 C15.5108,28.4145 15.4808,28.6230 15.3398,28.7055 C15.2003,28.7887 15.0030,28.7137 14.9018,28.5405 C14.7990,28.3665 14.8290,28.1587 14.9693,28.0755 C15.1088,27.9937 15.3053,28.0672 15.4073,28.2405 Z" style="fill-rule: evenodd; fill: url(#grad6586); "/>
    <path xmlns="http://www.w3.org/2000/svg" d="  M3.3728,19.2202 C3.3563,19.5555 2.9940,19.3762 2.9940,19.3762 L1.3800,18.4380 C1.3800,18.4380 1.1565,18.3510 1.1513,18.0337 C1.1423,17.5567 1.2090,15.2812 1.2090,15.2812 C1.2090,15.2812 1.1805,14.8192 1.4865,14.9130 C3.4762,15.5257 3.3472,16.2930 3.3555,16.5772 C3.3690,17.0152 3.3893,18.8850 3.3728,19.2202 Z" style="fill-rule: evenodd; fill: #000000; "/>
    <defs xmlns="http://www.w3.org/2000/svg">
      <radialGradient id="grad6587" cx="50.0000%" cy="50.0000%" r="100.0000%">
        <stop offset="0%" stop-color="#e8ff66" stop-opacity="1.0000"/>
        <stop offset="100%" stop-color="#079948" stop-opacity="1.0000"/>
      </radialGradient>
    </defs>
    <path xmlns="http://www.w3.org/2000/svg" d="  M2.8928,18.5220 C3.0698,18.7567 2.9340,18.8917 2.5883,18.8242 C2.2463,18.7582 1.8248,18.5137 1.6508,18.2812 C1.4768,18.0480 1.6110,17.9115 1.9553,17.9790 C2.2980,18.0450 2.7188,18.2887 2.8928,18.5220 Z" style="fill-rule: evenodd; fill: url(#grad6587); "/>
    <path xmlns="http://www.w3.org/2000/svg" d="  M2.1540,14.7652 C2.1540,14.5222 2.2778,14.4390 2.3700,14.4682 C2.5853,14.5357 2.6123,14.8470 2.6123,14.9137 L2.5988,17.8050 C2.5988,17.8717 2.5440,18.0892 2.3835,18.0345 C2.2350,17.9842 2.1675,17.9130 2.1540,17.6295 L2.1540,14.7652 Z" style="fill-rule: evenodd; fill: #000000; "/>
    <defs xmlns="http://www.w3.org/2000/svg">
      <linearGradient id="grad6588">
        <stop offset="0%" stop-color="#8999b6" stop-opacity="1.0000"/>
        <stop offset="100%" stop-color="#a7aebf" stop-opacity="1.0000"/>
      </linearGradient>
    </defs>
    <path xmlns="http://www.w3.org/2000/svg" d="  M1.9800,14.6160 C1.9800,14.3730 2.1038,14.2897 2.1953,14.3190 C2.4128,14.3857 2.4390,14.6977 2.4390,14.7645 L2.4248,17.6550 C2.4248,17.7217 2.3693,17.9400 2.2088,17.8845 C2.0603,17.8342 1.9935,17.7630 1.9793,17.4795 L1.9793,14.6160 L1.9800,14.6160 Z" style="fill-rule: evenodd; fill: url(#grad6588); "/>
    <defs xmlns="http://www.w3.org/2000/svg" xmlns:xlink="http://www.w3.org/1999/xlink">
      <linearGradient id="grad6589">
        <stop offset="0%" stop-color="#626262" stop-opacity="1.0000"/>
        <stop offset="100%" stop-color="#3d3d3d" stop-opacity="1.0000"/>
      </linearGradient>
      <linearGradient xlink:href="#grad6589" id="grad6590" x1="0" y1="0" x2="0" y2="1" gradientTransform="rotate(180 .5 .5)" gradientUnits="objectBoundingBox">
  </linearGradient>
    </defs>
    <path xmlns="http://www.w3.org/2000/svg" d="  M2.2575,36.3307 L1.9223,36.2107 L1.9140,19.5157 L2.2703,19.7242 L2.2575,36.3307 Z" style="fill-rule: evenodd; fill: url(#grad6590); "/>
    <defs xmlns="http://www.w3.org/2000/svg">
      <radialGradient id="grad6591" cx="50.0000%" cy="50.0000%" r="100.0000%">
        <stop offset="0%" stop-color="#bcbcbc" stop-opacity="1.0000"/>
        <stop offset="100%" stop-color="#7c7c7c" stop-opacity="1.0000"/>
      </radialGradient>
    </defs>
    <path xmlns="http://www.w3.org/2000/svg" d="  M17.1938,28.2435 C18.1395,27.7147 18.5790,27.7732 18.5835,28.0125 C18.5910,28.4347 18.1763,28.7655 17.6408,29.0812 L5.8350,35.7247 C5.1615,36.0630 4.5803,36.2902 4.5893,35.8860 C4.5953,35.4892 4.9493,35.1285 6.0390,34.4857 L17.1938,28.2435 Z" style="fill-rule: evenodd; fill: url(#grad6591); "/>
    <defs xmlns="http://www.w3.org/2000/svg">
      <radialGradient id="grad6592" cx="0.0000%" cy="0.0000%" r="100.0000%">
        <stop offset="0%" stop-color="#bcbcbc" stop-opacity="1.0000"/>
        <stop offset="100%" stop-color="#7c7c7c" stop-opacity="1.0000"/>
      </radialGradient>
    </defs>
    <path xmlns="http://www.w3.org/2000/svg" d="  M17.1577,26.7585 C18.0915,26.2365 18.5265,26.2965 18.5325,26.5357 C18.5430,26.9572 18.1343,27.2842 17.6047,27.5955 L5.9513,34.1542 C5.2860,34.4880 4.7138,34.7107 4.7175,34.3080 C4.7235,33.9127 5.0708,33.5550 6.1448,32.9190 L17.1577,26.7585 Z" style="fill-rule: evenodd; fill: url(#grad6592); "/>
    <defs xmlns="http://www.w3.org/2000/svg">
      <radialGradient id="grad6593" cx="100.0000%" cy="100.0000%" r="100.0000%">
        <stop offset="0%" stop-color="#eaeae7" stop-opacity="0.4510"/>
        <stop offset="100%" stop-color="#dfddda" stop-opacity="0.4510"/>
      </radialGradient>
    </defs>
    <path xmlns="http://www.w3.org/2000/svg" d="  M17.1968,26.7255 C18.1193,26.2095 18.5048,26.1892 18.4748,26.3610 C18.4215,26.6647 18.0030,26.9625 17.4780,27.2662 L5.9603,33.7350 C5.3078,34.0747 4.7565,34.3207 4.8195,34.0282 C4.8825,33.7410 5.2508,33.4305 6.3173,32.8125 L17.1968,26.7255 Z" style="fill-rule: evenodd; fill: url(#grad6593); "/>
    <defs xmlns="http://www.w3.org/2000/svg">
      <radialGradient id="grad6594" cx="100.0000%" cy="100.0000%" r="100.0000%">
        <stop offset="0%" stop-color="#eaeae7" stop-opacity="0.4510"/>
        <stop offset="100%" stop-color="#dfddda" stop-opacity="0.4510"/>
      </radialGradient>
    </defs>
    <path xmlns="http://www.w3.org/2000/svg" d="  M17.2005,28.2435 C18.1245,27.7260 18.5100,27.7050 18.4800,27.8775 C18.4268,28.1812 18.0060,28.4797 17.4810,28.7835 L5.9303,35.2702 C5.2778,35.6115 4.7250,35.8575 4.7895,35.5650 C4.8525,35.2762 5.2215,34.9657 6.2910,34.3462 L17.2005,28.2435 Z" style="fill-rule: evenodd; fill: url(#grad6594); "/>
    <defs xmlns="http://www.w3.org/2000/svg" xmlns:xlink="http://www.w3.org/1999/xlink">
      <linearGradient id="grad6595">
        <stop offset="0%" stop-color="#848484" stop-opacity="1.0000"/>
        <stop offset="100%" stop-color="#9a9a9a" stop-opacity="1.0000"/>
      </linearGradient>
      <linearGradient xlink:href="#grad6595" id="grad6596" x1="0" y1="0" x2="0" y2="1" gradientTransform="rotate(180 .5 .5)" gradientUnits="objectBoundingBox">
  </linearGradient>
    </defs>
    <path xmlns="http://www.w3.org/2000/svg" d="  M17.9258,36.5085 C19.6785,33.0473 25.5353,32.2065 31.0305,34.5750 C37.7910,37.4888 39.5355,41.7158 37.7827,45.1793 C36.0278,48.6405 30.1613,49.5075 24.6780,47.1142 C19.1940,44.7188 16.1715,39.9713 17.9258,36.5085 Z" style="fill-rule: evenodd; fill: url(#grad6596); "/>
    <defs xmlns="http://www.w3.org/2000/svg">
      <radialGradient id="grad6597" cx="100.0000%" cy="100.0000%" r="100.0000%">
        <stop offset="0%" stop-color="#d0d0d0" stop-opacity="1.0000"/>
        <stop offset="100%" stop-color="#e0e0e0" stop-opacity="1.0000"/>
      </radialGradient>
    </defs>
    <path xmlns="http://www.w3.org/2000/svg" d="  M18.0833,36.1875 C19.0470,34.2833 21.2760,33.0878 24.1965,32.9063 C26.3700,32.7713 28.7948,33.2272 31.0267,34.1910 C34.6245,35.7405 36.9953,37.7843 37.8847,40.1003 C38.4735,41.6295 38.3850,43.2278 37.6283,44.7202 C36.6600,46.6305 34.4258,47.8298 31.4993,48.0120 C29.3250,48.1455 26.9033,47.6850 24.6825,46.7168 C19.2945,44.3625 16.3343,39.6383 18.0833,36.1875 Z" style="fill-rule: evenodd; fill: url(#grad6597); "/>
    <defs xmlns="http://www.w3.org/2000/svg">
      <radialGradient id="grad6598" cx="100.0000%" cy="100.0000%" r="100.0000%">
        <stop offset="0%" stop-color="#e0e0e0" stop-opacity="1.0000"/>
        <stop offset="100%" stop-color="#b7b7b7" stop-opacity="1.0000"/>
      </radialGradient>
    </defs>
    <path xmlns="http://www.w3.org/2000/svg" d="  M18.2498,36.2595 C19.9568,32.8860 25.6335,32.0543 30.9495,34.3463 C37.4925,37.1663 39.1725,41.2748 37.4632,44.6483 C35.7555,48.0203 30.0682,48.8760 24.7612,46.5615 C19.4558,44.2440 16.5405,39.6330 18.2498,36.2595 Z" style="fill-rule: evenodd; fill: url(#grad6598); "/>
    <path xmlns="http://www.w3.org/2000/svg" d="  M19.5637,34.4370 C19.5637,34.4370 24.0045,31.0770 31.0590,34.1970 C41.8455,38.9662 37.3245,45.2842 37.3245,45.2842 C37.3245,45.2842 34.1205,40.7347 27.7882,37.7168 C22.5720,35.2305 19.5637,34.4370 19.5637,34.4370 Z" style="fill-rule: evenodd; fill: #000000; fill-opacity: 0.1686; "/>
    <defs xmlns="http://www.w3.org/2000/svg" xmlns:xlink="http://www.w3.org/1999/xlink">
      <linearGradient id="grad6599">
        <stop offset="0%" stop-color="#b7b7b7" stop-opacity="0.5216"/>
        <stop offset="100%" stop-color="#e0e0e0" stop-opacity="0.5216"/>
      </linearGradient>
      <linearGradient xlink:href="#grad6599" id="grad6600" x1="0" y1="0" x2="0" y2="1" gradientTransform="rotate(-0 .5 .5)" gradientUnits="objectBoundingBox">
  </linearGradient>
    </defs>
    <path xmlns="http://www.w3.org/2000/svg" d="  M30.2603,47.8477 C30.2603,47.8477 30.5648,44.7082 30.6195,43.0560 C30.7013,40.6080 30.6225,39.6165 30.6225,39.6165 C30.6225,39.6165 31.6463,41.6498 31.9913,42.9592 C32.3925,44.4795 32.9573,47.7127 32.9573,47.7127 C32.9573,47.7127 32.5733,47.8605 31.6095,47.8845 C30.7463,47.9062 30.2603,47.8477 30.2603,47.8477 Z" style="fill-rule: evenodd; fill: url(#grad6600); "/>
    <defs xmlns="http://www.w3.org/2000/svg" xmlns:xlink="http://www.w3.org/1999/xlink">
      <linearGradient id="grad6601">
        <stop offset="0%" stop-color="#b7b7b7" stop-opacity="0.4980"/>
        <stop offset="100%" stop-color="#e0e0e0" stop-opacity="0.4980"/>
      </linearGradient>
      <linearGradient xlink:href="#grad6601" id="grad6602" x1="0" y1="0" x2="0" y2="1" gradientTransform="rotate(315 .5 .5)" gradientUnits="objectBoundingBox">
  </linearGradient>
    </defs>
    <path xmlns="http://www.w3.org/2000/svg" d="  M34.3455,47.2222 C34.3455,47.2222 34.1475,45.1027 33.3765,43.2953 C32.8417,42.0488 32.1210,40.6545 32.1210,40.6545 C32.1210,40.6545 33.2670,41.8703 34.0222,43.0703 C34.9042,44.4690 35.5282,46.6807 35.5282,46.6807 C35.5282,46.6807 35.3557,46.8435 34.8510,47.0467 C34.3987,47.2297 34.3455,47.2222 34.3455,47.2222 Z" style="fill-rule: evenodd; fill: url(#grad6602); "/>
    <defs xmlns="http://www.w3.org/2000/svg" xmlns:xlink="http://www.w3.org/1999/xlink">
      <linearGradient id="grad6603">
        <stop offset="0%" stop-color="#cdcdcd" stop-opacity="1.0000"/>
        <stop offset="100%" stop-color="#ffffff" stop-opacity="1.0000"/>
      </linearGradient>
      <linearGradient xlink:href="#grad6603" id="grad6604" x1="0" y1="0" x2="0" y2="1" gradientTransform="rotate(135 .5 .5)" gradientUnits="objectBoundingBox">
  </linearGradient>
    </defs>
    <path xmlns="http://www.w3.org/2000/svg" d="  M13.5645,0.3600 C13.8383,0.2055 13.9080,0.0000 14.5590,0.3427 C15.0953,0.6248 44.7937,17.6325 44.7937,17.6325 C45.0150,17.7870 45.0045,17.8298 45.0045,17.8298 L42.6030,19.2218 L11.6460,1.4153 C11.6460,1.4153 13.3373,0.4875 13.5645,0.3600 Z" style="fill-rule: evenodd; fill: url(#grad6604); "/>
    <defs xmlns="http://www.w3.org/2000/svg" xmlns:xlink="http://www.w3.org/1999/xlink">
      <linearGradient id="grad6605">
        <stop offset="0%" stop-color="#a9a9a9" stop-opacity="1.0000"/>
        <stop offset="100%" stop-color="#9a9a9a" stop-opacity="1.0000"/>
      </linearGradient>
      <linearGradient xlink:href="#grad6605" id="grad6606" x1="0" y1="0" x2="0" y2="1" gradientTransform="rotate(225 .5 .5)" gradientUnits="objectBoundingBox">
  </linearGradient>
    </defs>
    <path xmlns="http://www.w3.org/2000/svg" d="  M45.0690,43.0372 C45.0585,43.1850 44.9850,43.3012 44.8223,43.3755 L42.3780,44.7742 C42.3780,44.7742 42.4838,44.4435 42.4838,44.2530 L42.5647,19.4205 C42.5798,19.3065 42.5393,19.2532 42.5393,19.2532 L45.0075,17.8327 C45.0075,17.8327 45.0615,17.8972 45.0585,18.0832 L45.0690,43.0372 Z" style="fill-rule: evenodd; fill: url(#grad6606); "/>
    <defs xmlns="http://www.w3.org/2000/svg" xmlns:xlink="http://www.w3.org/1999/xlink">
      <linearGradient id="grad6607">
        <stop offset="0%" stop-color="#666666" stop-opacity="1.0000"/>
        <stop offset="100%" stop-color="#eeeeee" stop-opacity="1.0000"/>
      </linearGradient>
      <linearGradient xlink:href="#grad6607" id="grad6608" x1="0" y1="0" x2="0" y2="1" gradientTransform="rotate(225 .5 .5)" gradientUnits="objectBoundingBox">
  </linearGradient>
    </defs>
    <path xmlns="http://www.w3.org/2000/svg" d="  M11.4938,26.5290 C11.4938,22.1678 11.5065,2.0977 11.4990,1.7925 C11.4915,1.4497 11.6535,1.3170 11.9400,1.4798 C15.7170,3.6278 42.4838,18.8520 42.4912,18.8558 C42.6953,18.9510 42.8003,19.1498 42.7950,19.4505 L42.7103,44.2815 C42.6795,44.5748 42.4538,44.8425 42.0825,44.8425 C42.0127,44.8425 41.9415,44.8305 41.8710,44.8058 C41.8575,44.8013 41.8433,44.7953 41.8305,44.7885 C41.8305,44.7885 12.2640,27.6855 12.0450,27.5543 C11.6138,27.2955 11.4938,27.0255 11.4938,26.5290 Z" style="fill-rule: evenodd; fill: url(#grad6608); "/>
    <path xmlns="http://www.w3.org/2000/svg" d="  M41.1675,40.9995 C41.1533,41.0932 41.0220,41.3085 40.7835,41.2312 L13.8802,25.7145 C13.8007,25.6725 13.8007,25.6020 13.8120,25.4940 L13.8165,4.9358 C13.8592,4.8562 13.9575,4.8255 14.0377,4.8675 L40.9755,20.1285 C41.1082,20.2305 41.1398,20.2995 41.1285,20.3835 L41.1675,40.9995 Z" style="fill-rule: evenodd; fill: #04096c; "/>
    <defs xmlns="http://www.w3.org/2000/svg" xmlns:xlink="http://www.w3.org/1999/xlink">
      <linearGradient id="grad6609">
        <stop offset="0%" stop-color="#f9f9f9" stop-opacity="1.0000"/>
        <stop offset="100%" stop-color="#656565" stop-opacity="1.0000"/>
      </linearGradient>
      <linearGradient xlink:href="#grad6609" id="grad6610" x1="0" y1="0" x2="0" y2="1" gradientTransform="rotate(45 .5 .5)" gradientUnits="objectBoundingBox">
  </linearGradient>
    </defs>
    <path xmlns="http://www.w3.org/2000/svg" d="  M42.3952,19.0275 C42.3952,19.0275 12.5025,1.9920 12.1560,1.8075 C11.7818,1.6072 11.6685,1.5015 11.6828,2.0497 C11.6963,2.5447 11.6963,22.6912 11.6993,26.6273 C11.7105,26.9183 11.7758,27.1125 12.0450,27.2962 C12.3728,27.5182 41.9850,44.5567 41.9850,44.5567 C42.3188,44.6662 42.5055,44.4015 42.5235,44.2312 L42.6105,19.3875 C42.5955,19.2292 42.5813,19.1715 42.3952,19.0275 Z M40.0867,40.6950 L14.4330,25.9988 C14.0025,25.7715 13.8323,25.5420 13.8323,25.1715 L13.8105,5.5545 C13.8240,4.9658 13.9545,5.0700 14.3865,5.3062 L40.0867,20.0332 C40.5885,20.3220 40.7490,20.4952 40.7490,20.9355 L40.7603,40.0230 C40.7490,40.8570 40.5840,40.9995 40.0867,40.6950 Z" style="fill-rule: evenodd; fill: url(#grad6610); "/>
    <path xmlns="http://www.w3.org/2000/svg" d="  M40.7632,40.2202 C40.7632,40.2202 40.6732,40.7580 40.2690,40.5120 C39.9810,40.3365 14.4675,25.7610 14.4675,25.7610 C14.4675,25.7610 14.2012,25.6065 14.1323,25.4347 C14.0738,25.2885 14.0640,25.0867 14.0640,25.0867 L14.0490,5.1382 C14.0490,5.1382 13.9463,5.0632 13.8735,5.1630 C13.8323,5.2200 13.8135,5.4352 13.8135,5.4352 L13.8323,25.1295 C13.8323,25.1295 13.8030,25.3200 13.9163,25.5442 C14.0490,25.8052 14.3115,25.9350 14.3115,25.9350 L39.8490,40.6087 C39.8490,40.6087 40.3590,40.8712 40.4482,40.8637 C40.5630,40.8555 40.7632,40.7445 40.7632,40.2202 Z" style="fill-rule: evenodd; fill: #ffffff; "/>
    <defs xmlns="http://www.w3.org/2000/svg" xmlns:xlink="http://www.w3.org/1999/xlink">
      <linearGradient id="grad6611">
        <stop offset="0%" stop-color="#000d91" stop-opacity="1.0000"/>
        <stop offset="100%" stop-color="#001bbf" stop-opacity="1.0000"/>
      </linearGradient>
      <linearGradient xlink:href="#grad6611" id="grad6612" x1="0" y1="0" x2="0" y2="1" gradientTransform="rotate(135 .5 .5)" gradientUnits="objectBoundingBox">
  </linearGradient>
    </defs>
    <path xmlns="http://www.w3.org/2000/svg" d="  M40.4610,39.7485 C40.4475,39.8332 40.3282,40.0297 40.1122,39.9577 L14.9617,25.8412 C14.8897,25.8030 14.4690,25.6440 14.4937,25.0027 L14.4975,5.9265 C14.5372,5.8545 14.6265,5.8267 14.6992,5.8642 L40.1017,20.4810 C40.3230,20.6130 40.4550,20.8020 40.4385,21.1552 L40.4610,39.7485 Z" style="fill-rule: evenodd; fill: url(#grad6612); "/>
    <path xmlns="http://www.w3.org/2000/svg" d="  M40.4408,26.8200 L14.5028,17.0670 L14.4908,6.2273 C14.4908,5.8058 14.5560,5.7983 14.7345,5.9018 L39.9038,20.3835 C40.3717,20.6138 40.4625,20.7938 40.4303,21.3293 L40.4408,26.8200 Z" style="fill-rule: evenodd; fill: #0025e7; fill-opacity: 0.5686; "/>
    <defs xmlns="http://www.w3.org/2000/svg" xmlns:xlink="http://www.w3.org/1999/xlink">
      <linearGradient id="grad6613">
        <stop offset="0%" stop-color="#ffffff" stop-opacity="0.5686"/>
        <stop offset="100%" stop-color="#ffffff" stop-opacity="0.5686"/>
      </linearGradient>
      <linearGradient xlink:href="#grad6613" id="grad6614" x1="0" y1="0" x2="0" y2="1" gradientTransform="rotate(180 .5 .5)" gradientUnits="objectBoundingBox">
  </linearGradient>
    </defs>
    <path xmlns="http://www.w3.org/2000/svg" d="  M40.1858,43.7302 L32.3813,39.3892 C32.3813,39.3892 31.4273,29.2972 30.5738,24.6577 C29.7218,20.0250 27.1943,15.6090 27.0210,15.0892 C26.3318,13.0170 28.0080,13.9050 28.0080,13.9050 L39.9390,20.7150 C40.2135,20.8590 40.1850,21.1537 40.1850,21.4140 L40.1858,43.7302 Z" style="fill-rule: evenodd; fill: url(#grad6614); "/>
    <defs xmlns="http://www.w3.org/2000/svg" xmlns:xlink="http://www.w3.org/1999/xlink">
      <linearGradient id="grad6615">
        <stop offset="0%" stop-color="#ffffff" stop-opacity="0.4980"/>
        <stop offset="100%" stop-color="#ffffff" stop-opacity="0.4980"/>
      </linearGradient>
      <linearGradient xlink:href="#grad6615" id="grad6616" x1="0" y1="0" x2="0" y2="1" gradientTransform="rotate(180 .5 .5)" gradientUnits="objectBoundingBox">
  </linearGradient>
    </defs>
    <path xmlns="http://www.w3.org/2000/svg" d="  M15.1245,15.5745 L23.8905,34.4168 L16.7602,30.2618 L14.6632,24.5040 L14.6302,15.4418 C14.6302,15.4418 14.6302,15.4478 14.6302,14.7375 C14.6310,14.4225 15.1245,15.5745 15.1245,15.5745 Z" style="fill-rule: evenodd; fill: url(#grad6616); "/>
    <path xmlns="http://www.w3.org/2000/svg" d="  M13.8773,26.6820 C14.0513,26.5793 14.3348,26.7465 14.5095,27.0563 C14.6850,27.3660 14.6850,27.6998 14.5118,27.8018 C14.3378,27.9053 14.0543,27.7373 13.8788,27.4275 C13.7033,27.1178 13.7025,26.7840 13.8773,26.6820 Z" style="fill-rule: evenodd; fill: #333333; "/>
    <defs xmlns="http://www.w3.org/2000/svg">
      <radialGradient id="grad6617" cx="50.0000%" cy="50.0000%" r="100.0000%">
        <stop offset="0%" stop-color="#ccff66" stop-opacity="1.0000"/>
        <stop offset="100%" stop-color="#7ab04a" stop-opacity="1.0000"/>
      </radialGradient>
    </defs>
    <path xmlns="http://www.w3.org/2000/svg" d="  M14.0955,26.9100 C14.2170,26.8388 14.4150,26.9565 14.5372,27.1725 C14.6602,27.3900 14.6602,27.6233 14.5395,27.6945 C14.4172,27.7673 14.2185,27.6488 14.0962,27.4328 C13.9740,27.2168 13.9740,26.9820 14.0955,26.9100 Z" style="fill-rule: evenodd; fill: url(#grad6617); "/>
    <path xmlns="http://www.w3.org/2000/svg" d="  M27.7868,46.5787 L24.6413,49.6635 C22.8743,51.2805 21.1140,52.5817 19.5323,53.1352 C16.7010,54.1222 13.8263,53.6145 12.3090,52.8172 C10.8443,52.1212 9.5768,50.9498 9.1403,49.6485 C8.7038,48.3495 8.6918,48.2820 8.5095,47.6723 C8.4795,48.1102 8.5830,48.8017 8.6543,49.2247 C8.6993,49.4812 8.7405,49.6627 8.7405,49.6627 C9.0803,51.1800 9.8340,53.0257 11.3723,54.7852 C12.2902,55.8383 13.5968,56.9137 15.0465,57.6652 C16.7753,58.5615 18.5213,58.9642 20.0662,59.0685 C21.4462,59.1607 24.2377,58.7055 26.3663,57.7102 C28.8862,56.5342 32.0258,54.0712 34.6222,51.9825 C33.5385,51.2475 31.7205,49.7400 30.9840,49.1317 C29.9407,48.2692 27.7868,46.5787 27.7868,46.5787 Z" style="fill-rule: evenodd; fill: #ffffff; fill-opacity: 0.4980; "/>
    <defs xmlns="http://www.w3.org/2000/svg" xmlns:xlink="http://www.w3.org/1999/xlink">
      <linearGradient id="grad6618">
        <stop offset="0%" stop-color="#6f0f82" stop-opacity="1.0000"/>
        <stop offset="100%" stop-color="#4ebdd7" stop-opacity="1.0000"/>
      </linearGradient>
      <linearGradient xlink:href="#grad6618" id="grad6619" x1="0" y1="0" x2="0" y2="1" gradientTransform="rotate(135 .5 .5)" gradientUnits="objectBoundingBox">
  </linearGradient>
    </defs>
    <path xmlns="http://www.w3.org/2000/svg" d="  M18.5280,58.4753 C15.5768,57.5145 13.4850,55.2645 12.8340,52.7093 C12.8370,52.7093 12.8310,52.6935 12.8310,52.6935 C12.5258,51.4950 12.5363,50.2328 12.9293,49.0140 C13.9538,45.8295 16.8308,44.3955 19.9793,44.1713 C24.4883,43.8503 27.6008,46.4505 31.9695,50.2238 C31.4033,48.8670 29.5710,44.0378 25.6215,41.1180 C24.7103,40.4445 23.7743,39.9037 22.8600,39.5273 C19.8323,38.2793 16.9493,38.5238 15.1590,39.0412 C11.7608,40.0200 9.1223,42.7110 8.5763,46.4888 C8.5403,46.7348 8.5155,46.9545 8.5028,47.2020 C8.4968,47.3340 8.4945,47.4953 8.4945,47.6265 C8.5080,49.2420 9.0368,52.1160 11.3715,54.7867 C12.2895,55.8397 13.5960,56.9152 15.0458,57.6668 C16.7745,58.5630 18.5205,58.9658 20.0655,59.0700 C20.7473,59.1158 21.7755,59.0258 22.8960,58.8045 C21.5123,59.0475 20.0093,58.9583 18.5280,58.4753 Z" style="fill-rule: evenodd; fill: url(#grad6619); "/>
    <path xmlns="http://www.w3.org/2000/svg" d="  M25.6223,41.1180 C24.7110,40.4445 23.7750,39.9038 22.8608,39.5273 C21.9188,39.1373 20.9903,38.8943 20.1045,38.7600 C20.1338,38.7645 20.1615,38.7690 20.1908,38.7750 C18.0548,38.5170 16.5278,38.7615 15.2378,39.1703 C13.6403,39.6773 12.0923,40.6073 10.9935,41.8845 C10.2848,42.7095 9.7980,43.6395 9.4215,44.6768 C9.1568,45.4020 8.9093,46.5548 8.8875,47.3108 C8.8568,48.4268 9.1223,49.4805 9.6615,50.3168 C10.5360,51.6720 11.4945,52.2750 12.5783,52.7835 C12.6743,52.8293 12.7793,52.8728 12.8903,52.9170 C12.8708,52.8480 12.8513,52.7790 12.8333,52.7108 C12.8363,52.7108 12.8303,52.6950 12.8303,52.6950 C12.5250,51.4965 12.5355,50.2343 12.9285,49.0155 C13.9530,45.8310 16.8300,44.3970 19.9785,44.1728 C22.8428,43.9695 25.1445,44.9445 27.5610,46.6500 C28.1183,46.0718 28.6673,45.4853 29.2005,44.9055 C28.2735,43.5615 27.0953,42.2063 25.6223,41.1180 Z" style="fill-rule: evenodd; fill: #b3e3ee; "/>
    <defs xmlns="http://www.w3.org/2000/svg" xmlns:xlink="http://www.w3.org/1999/xlink">
      <linearGradient id="grad6620">
        <stop offset="0%" stop-color="#341c89" stop-opacity="1.0000"/>
        <stop offset="100%" stop-color="#4ebdd7" stop-opacity="1.0000"/>
      </linearGradient>
      <linearGradient xlink:href="#grad6620" id="grad6621" x1="0" y1="0" x2="0" y2="1" gradientTransform="rotate(135 .5 .5)" gradientUnits="objectBoundingBox">
  </linearGradient>
    </defs>
    <path xmlns="http://www.w3.org/2000/svg" d="  M58.0343,53.2778 C58.7723,51.9885 59.1548,50.6618 59.3603,49.2990 C58.7573,50.7113 58.5300,52.6650 56.0640,54.8055 C55.0643,55.5600 53.5208,56.4780 52.0395,56.7435 C48.9143,57.3000 45.3503,56.8155 41.7908,55.7843 C37.6815,54.5933 33.9908,52.0710 30.4237,48.8978 C31.7842,51.8175 33.7275,55.4573 36.6975,57.5550 C37.4940,58.1160 38.3257,58.5967 39.1658,58.9672 C40.8488,59.7097 42.5715,60.0765 44.1270,60.2182 C45.6885,60.3615 47.7053,60.2167 49.6725,59.6850 C51.2663,59.2515 52.8112,58.5443 54.0967,57.5843 C55.7835,56.3243 57.1463,54.8318 58.0343,53.2778 Z" style="fill-rule: evenodd; fill: url(#grad6621); "/>
    <defs xmlns="http://www.w3.org/2000/svg" xmlns:xlink="http://www.w3.org/1999/xlink">
      <linearGradient id="grad6622">
        <stop offset="0%" stop-color="#4a0d81" stop-opacity="1.0000"/>
        <stop offset="100%" stop-color="#4a83bb" stop-opacity="1.0000"/>
      </linearGradient>
      <linearGradient xlink:href="#grad6622" id="grad6623" x1="0" y1="0" x2="0" y2="1" gradientTransform="rotate(-0 .5 .5)" gradientUnits="objectBoundingBox">
  </linearGradient>
    </defs>
    <path xmlns="http://www.w3.org/2000/svg" d="  M54.7950,41.9077 C53.1308,41.5125 50.9595,41.3055 49.1903,41.9265 C48.9555,42.0083 48.7200,42.0983 48.4853,42.1942 C49.5248,43.9418 50.0625,45.9795 50.0625,47.9512 C50.0625,51.6165 48.5978,54.9503 45.9458,56.7128 C48.0720,57.0353 50.1375,57.0833 52.0395,56.7435 C53.5215,56.4780 55.0643,55.5600 56.0640,54.8055 C58.5120,52.6830 58.7535,50.7420 59.3468,49.3328 C59.3588,49.2577 59.3700,49.1835 59.3805,49.1085 C59.5058,45.9142 57.6870,42.6007 54.7950,41.9077 Z" style="fill-rule: evenodd; fill: url(#grad6623); "/>
    <defs xmlns="http://www.w3.org/2000/svg" xmlns:xlink="http://www.w3.org/1999/xlink">
      <linearGradient id="grad6624">
        <stop offset="0%" stop-color="#13007c" stop-opacity="0.6980"/>
        <stop offset="100%" stop-color="#07002c" stop-opacity="0.6980"/>
      </linearGradient>
      <linearGradient xlink:href="#grad6624" id="grad6625" x1="0" y1="0" x2="0" y2="1" gradientTransform="rotate(180 .5 .5)" gradientUnits="objectBoundingBox">
  </linearGradient>
    </defs>
    <path xmlns="http://www.w3.org/2000/svg" d="  M54.7950,41.9077 C53.1308,41.5125 50.9595,41.3055 49.1903,41.9265 C48.9555,42.0083 48.7200,42.0983 48.4853,42.1942 C49.5248,43.9418 50.0625,45.9795 50.0625,47.9512 C50.0625,51.6165 48.5978,54.9503 45.9458,56.7128 C48.0720,57.0353 50.1375,57.0833 52.0395,56.7435 C53.5215,56.4780 55.0643,55.5600 56.0640,54.8055 C58.5120,52.6830 58.7535,50.7420 59.3468,49.3328 C59.3588,49.2577 59.3700,49.1835 59.3805,49.1085 C59.5058,45.9142 57.6870,42.6007 54.7950,41.9077 Z" style="fill-rule: evenodd; fill: url(#grad6625); "/>
    <defs xmlns="http://www.w3.org/2000/svg" xmlns:xlink="http://www.w3.org/1999/xlink">
      <linearGradient id="grad6626">
        <stop offset="0%" stop-color="#363a97" stop-opacity="1.0000"/>
        <stop offset="100%" stop-color="#6b3c99" stop-opacity="1.0000"/>
      </linearGradient>
      <linearGradient xlink:href="#grad6626" id="grad6627" x1="0" y1="0" x2="0" y2="1" gradientTransform="rotate(180 .5 .5)" gradientUnits="objectBoundingBox">
  </linearGradient>
    </defs>
    <path xmlns="http://www.w3.org/2000/svg" d="  M56.0640,54.8055 C55.0642,55.5600 53.5207,56.4780 52.0395,56.7435 C50.1375,57.0832 48.0720,57.0352 45.9457,56.7127 C44.8095,57.4672 43.4587,57.9360 41.9100,58.0162 C38.8290,58.1790 36.6472,57.7702 34.9192,56.0047 L34.9177,56.0062 C35.4660,56.5792 36.0585,57.1035 36.6975,57.5542 C37.4940,58.1152 38.3257,58.5960 39.1657,58.9665 C40.8487,59.7090 42.5715,60.0757 44.1270,60.2175 C45.6885,60.3607 47.7052,60.2160 49.6725,59.6842 C51.2662,59.2507 52.8112,58.5435 54.0967,57.5835 C55.7835,56.3235 57.1462,54.8310 58.0342,53.2770 C58.7370,52.0477 59.1172,50.7870 59.3287,49.4932 C59.3370,49.4347 59.3445,49.3777 59.3520,49.3192 C58.7550,50.7300 58.5187,52.6755 56.0640,54.8055 Z" style="fill-rule: evenodd; fill: url(#grad6627); "/>
    <defs xmlns="http://www.w3.org/2000/svg" xmlns:xlink="http://www.w3.org/1999/xlink">
      <linearGradient id="grad6628">
        <stop offset="0%" stop-color="#510e81" stop-opacity="1.0000"/>
        <stop offset="100%" stop-color="#4ebdd7" stop-opacity="1.0000"/>
      </linearGradient>
      <linearGradient xlink:href="#grad6628" id="grad6629" x1="0" y1="0" x2="0" y2="1" gradientTransform="rotate(-0 .5 .5)" gradientUnits="objectBoundingBox">
  </linearGradient>
    </defs>
    <path xmlns="http://www.w3.org/2000/svg" d="  M57.9638,41.2208 C56.1900,38.1023 53.3873,36.1740 50.2147,35.1053 C48.4927,34.5225 45.8423,34.2923 43.8307,34.5660 C39.4718,35.1578 35.6603,37.6875 32.5642,41.1593 C29.0160,45.1320 23.6677,51.6900 19.5323,53.1360 C16.7010,54.1230 14.1638,53.7188 12.6457,52.9238 C10.1392,51.7343 8.3580,49.8038 8.7285,46.5795 C8.8065,45.9000 8.8410,45.2333 9.0502,44.6063 C8.8343,45.1995 8.6730,45.8265 8.5770,46.4888 C8.5410,46.7348 8.5163,46.9545 8.5035,47.2020 C8.4248,48.6960 8.8170,51.8633 11.3723,54.7868 C12.2903,55.8398 13.5968,56.9153 15.0465,57.6668 C16.7752,58.5630 18.5213,58.9658 20.0663,59.0700 C21.4462,59.1623 24.2378,58.7070 26.3662,57.7118 C29.7742,56.1225 34.2240,52.3298 37.0853,50.0348 C40.1153,47.6003 44.6707,43.5090 49.1895,41.9265 C50.9580,41.3055 53.1300,41.5118 54.7943,41.9078 C57.7013,42.6038 59.5260,45.9510 59.3775,49.1618 C59.6242,47.8268 59.7008,44.2778 57.9638,41.2208 Z" style="fill-rule: evenodd; fill: url(#grad6629); "/>
    <path xmlns="http://www.w3.org/2000/svg" d="  M57.9637,41.2208 C56.1900,38.1023 53.3872,36.1740 50.2147,35.1053 C48.4927,34.5225 45.8422,34.2923 43.8307,34.5660 C39.4717,35.1578 35.6602,37.6875 32.5642,41.1593 C29.0160,45.1320 23.6677,51.6900 19.5322,53.1360 C16.7010,54.1230 14.0963,53.7218 12.5790,52.9268 C10.0725,51.7373 8.5102,49.6500 8.7285,46.5795 C8.7772,45.8970 8.8410,45.2333 9.0502,44.6063 C8.8342,45.1995 8.6730,45.8265 8.5770,46.4888 C8.5410,46.7348 8.5162,46.9545 8.5035,47.2020 C8.4247,48.6960 8.8170,51.8633 11.3722,54.7868 C12.2902,55.8398 13.5967,56.9153 15.0465,57.6668 C16.7752,58.5630 18.5212,58.9658 20.0662,59.0700 C21.4462,59.1623 24.2377,58.7070 26.3663,57.7118 C29.7742,56.1225 34.2240,52.3298 37.0852,50.0348 C40.1152,47.6003 44.6707,43.5090 49.1895,41.9265 C50.9580,41.3055 53.1300,41.5118 54.7942,41.9078 C57.7012,42.6038 59.5260,45.9510 59.3775,49.1618 C59.6242,47.8268 59.7007,44.2778 57.9637,41.2208 Z" style="fill-rule: evenodd; fill: #40017d; "/>
    <defs xmlns="http://www.w3.org/2000/svg" xmlns:xlink="http://www.w3.org/1999/xlink">
      <linearGradient id="grad6630">
        <stop offset="0%" stop-color="#383796" stop-opacity="0.6980"/>
        <stop offset="100%" stop-color="#32489e" stop-opacity="0.6980"/>
      </linearGradient>
      <linearGradient xlink:href="#grad6630" id="grad6631" x1="0" y1="0" x2="0" y2="1" gradientTransform="rotate(135 .5 .5)" gradientUnits="objectBoundingBox">
  </linearGradient>
    </defs>
    <path xmlns="http://www.w3.org/2000/svg" d="  M29.2252,44.9370 C28.7025,45.5197 28.1655,46.1092 27.6202,46.6905 C28.9897,47.6632 30.3982,48.8670 31.9702,50.2237 C31.6170,49.3785 30.7702,47.1795 29.2252,44.9370 Z" style="fill-rule: evenodd; fill: url(#grad6631); "/>
    <defs xmlns="http://www.w3.org/2000/svg" xmlns:xlink="http://www.w3.org/1999/xlink">
      <linearGradient id="grad6632">
        <stop offset="0%" stop-color="#213494" stop-opacity="0.6000"/>
        <stop offset="100%" stop-color="#465ca8" stop-opacity="0.6000"/>
      </linearGradient>
      <linearGradient xlink:href="#grad6632" id="grad6633" x1="0" y1="0" x2="0" y2="1" gradientTransform="rotate(135 .5 .5)" gradientUnits="objectBoundingBox">
  </linearGradient>
    </defs>
    <path xmlns="http://www.w3.org/2000/svg" d="  M30.4230,48.8977 C31.0845,50.3197 31.8863,51.9112 32.8763,53.4127 C33.4253,52.9867 33.9623,52.5585 34.4813,52.1415 C33.1013,51.1740 31.7535,50.0812 30.4230,48.8977 Z" style="fill-rule: evenodd; fill: url(#grad6633); "/>
    <defs xmlns="http://www.w3.org/2000/svg" xmlns:xlink="http://www.w3.org/1999/xlink">
      <linearGradient id="grad6634">
        <stop offset="0%" stop-color="#31007c" stop-opacity="1.0000"/>
        <stop offset="100%" stop-color="#28007c" stop-opacity="1.0000"/>
      </linearGradient>
      <linearGradient xlink:href="#grad6634" id="grad6635" x1="0" y1="0" x2="0" y2="1" gradientTransform="rotate(90 .5 .5)" gradientUnits="objectBoundingBox">
  </linearGradient>
    </defs>
    <path xmlns="http://www.w3.org/2000/svg" d="  M50.2147,35.1052 C48.4927,34.5225 45.8422,34.2922 43.8307,34.5660 C39.9952,35.0857 36.5835,37.1092 33.7087,39.9525 C33.7147,39.9495 33.7222,39.9450 33.7275,39.9420 C34.9965,38.6467 36.7522,37.7625 38.9902,37.5353 C43.4895,37.0800 46.7152,39.2168 48.4852,42.1950 C48.7200,42.0982 48.9555,42.0090 49.1902,41.9273 C50.9587,41.3062 53.1307,41.5125 54.7950,41.9085 C57.7020,42.6045 59.5267,45.9517 59.3782,49.1625 C59.6235,47.8282 59.7007,44.2785 57.9630,41.2215 C56.1900,38.1023 53.3880,36.1740 50.2147,35.1052 Z" style="fill-rule: evenodd; fill: url(#grad6635); "/>
    <defs xmlns="http://www.w3.org/2000/svg" xmlns:xlink="http://www.w3.org/1999/xlink">
      <linearGradient id="grad6636">
        <stop offset="0%" stop-color="#2d72b2" stop-opacity="1.0000"/>
        <stop offset="100%" stop-color="#4f97c5" stop-opacity="1.0000"/>
      </linearGradient>
      <linearGradient xlink:href="#grad6636" id="grad6637" x1="0" y1="0" x2="0" y2="1" gradientTransform="rotate(180 .5 .5)" gradientUnits="objectBoundingBox">
  </linearGradient>
    </defs>
    <path xmlns="http://www.w3.org/2000/svg" d="  M20.3205,59.0798 C20.6205,59.0873 20.9295,59.0678 21.2302,59.0445 C21.7927,58.9988 22.3492,58.9125 22.8990,58.8045 C19.8457,59.3408 16.5570,58.1948 14.5170,55.8570 C14.0857,55.3620 13.7115,54.8168 13.4115,54.2325 C13.2652,53.9468 13.1370,53.6528 13.0275,53.3505 C12.9757,53.2073 12.9660,53.2170 12.9225,53.0708 C12.9022,52.9973 12.4365,52.9140 12.3472,52.8675 C11.1457,52.2203 10.0747,51.3015 9.3802,50.1210 C8.4615,48.5625 8.4750,46.3268 9.0502,44.6055 C8.5080,46.0853 8.3692,47.6483 8.6475,49.1978 C8.9107,50.6580 9.4680,52.0560 10.2630,53.3070 C12.0300,56.0843 14.9250,58.0710 18.1297,58.7888 C18.5272,58.8780 18.9330,58.9470 19.3410,58.9995 C19.6680,59.0408 19.9957,59.0738 20.3205,59.0798 Z" style="fill-rule: evenodd; fill: url(#grad6637); "/>
    <path xmlns="http://www.w3.org/2000/svg" d="  M40.1820,37.6657 C39.8017,37.6657 37.2142,37.1925 33.4567,40.2045 C34.7325,38.9550 36.6697,37.5780 38.9715,37.3447 C39.3855,37.3020 39.7890,37.2817 40.1820,37.2817 C44.1315,37.2802 47.0137,39.3397 48.6502,42.0967 L48.3210,42.2932 C46.7355,39.6330 43.9935,37.6672 40.1820,37.6657 Z" style="fill-rule: evenodd; fill: #400a7f; "/>
    <defs xmlns="http://www.w3.org/2000/svg" xmlns:xlink="http://www.w3.org/1999/xlink">
      <linearGradient id="grad6638">
        <stop offset="0%" stop-color="#4668ae" stop-opacity="1.0000"/>
        <stop offset="100%" stop-color="#440d81" stop-opacity="1.0000"/>
      </linearGradient>
      <linearGradient xlink:href="#grad6638" id="grad6639" x1="0" y1="0" x2="0" y2="1" gradientTransform="rotate(180 .5 .5)" gradientUnits="objectBoundingBox">
  </linearGradient>
    </defs>
    <path xmlns="http://www.w3.org/2000/svg" d="  M45.8393,56.5545 C48.4238,54.8377 49.8713,51.5685 49.8705,47.9512 C49.8713,46.0133 49.3418,44.0078 48.3210,42.2925 L48.6495,42.0960 C49.7063,43.8758 50.2530,45.9428 50.2530,47.9512 C50.2530,51.6660 48.7695,55.0628 46.0515,56.8725 L45.8393,56.5545 Z" style="fill-rule: evenodd; fill: url(#grad6639); "/>
    <defs xmlns="http://www.w3.org/2000/svg" xmlns:xlink="http://www.w3.org/1999/xlink">
      <linearGradient id="grad6640">
        <stop offset="0%" stop-color="#3a3695" stop-opacity="1.0000"/>
        <stop offset="100%" stop-color="#383e9a" stop-opacity="1.0000"/>
      </linearGradient>
      <linearGradient xlink:href="#grad6640" id="grad6641" x1="0" y1="0" x2="0" y2="1" gradientTransform="rotate(90 .5 .5)" gradientUnits="objectBoundingBox">
  </linearGradient>
    </defs>
    <path xmlns="http://www.w3.org/2000/svg" d="  M45.6135,56.6985 C44.5545,57.3503 43.3140,57.7515 41.8995,57.8265 C41.5597,57.8438 41.2320,57.8528 40.9162,57.8528 C38.4000,57.8498 36.6037,57.5010 34.9890,56.0670 C36.4777,57.6180 38.3377,58.2368 40.8975,58.2368 L40.9162,58.2368 C41.2395,58.2368 41.5732,58.2263 41.9197,58.2090 C43.5000,58.1258 44.8875,57.6465 46.0515,56.8733 C46.0515,56.8725 45.6900,56.6528 45.6135,56.6985 Z" style="fill-rule: evenodd; fill: url(#grad6641); "/>
    <defs xmlns="http://www.w3.org/2000/svg" xmlns:xlink="http://www.w3.org/1999/xlink">
      <linearGradient id="grad6642">
        <stop offset="0%" stop-color="#42489f" stop-opacity="1.0000"/>
        <stop offset="100%" stop-color="#0e2e91" stop-opacity="1.0000"/>
      </linearGradient>
      <linearGradient xlink:href="#grad6642" id="grad6643" x1="0" y1="0" x2="0" y2="1" gradientTransform="rotate(90 .5 .5)" gradientUnits="objectBoundingBox">
  </linearGradient>
    </defs>
    <path xmlns="http://www.w3.org/2000/svg" d="  M31.9762,50.1592 C31.9380,50.0227 31.8952,49.8735 31.8450,49.7137 C31.2457,47.7862 29.7818,44.3025 25.6223,41.1195 C29.5020,44.4037 30.6075,47.1532 31.5465,49.7460 C31.5802,49.8367 31.8682,50.2350 31.9762,50.1592 Z" style="fill-rule: evenodd; fill: url(#grad6643); "/>
    <defs xmlns="http://www.w3.org/2000/svg" xmlns:xlink="http://www.w3.org/1999/xlink">
      <linearGradient id="grad6644">
        <stop offset="0%" stop-color="#317ab6" stop-opacity="1.0000"/>
        <stop offset="100%" stop-color="#a6cfe4" stop-opacity="1.0000"/>
      </linearGradient>
      <linearGradient xlink:href="#grad6644" id="grad6645" x1="0" y1="0" x2="0" y2="1" gradientTransform="rotate(180 .5 .5)" gradientUnits="objectBoundingBox">
  </linearGradient>
    </defs>
    <path xmlns="http://www.w3.org/2000/svg" d="  M18.4965,58.5832 C15.6180,57.6675 13.3193,55.3800 12.6488,52.7557 L12.5888,52.5173 L12.5933,52.5173 C12.4830,52.0207 12.4260,51.5152 12.4260,51.0053 C12.4260,50.3212 12.5295,49.6297 12.7470,48.9547 C13.7985,45.6825 17.1000,44.2657 19.9808,44.1720 C17.1330,44.3887 14.1090,45.9765 13.1115,49.0702 C12.9068,49.7092 12.8085,50.3595 12.8085,51.0053 C12.8085,51.5572 12.8805,52.1070 13.0170,52.6432 C13.0170,52.6447 13.0178,52.6477 13.0185,52.6507 C13.0200,52.6598 13.0215,52.6583 13.0238,52.6770 C13.5210,54.6120 14.8193,56.3115 16.8143,57.5040 C18.8108,58.6965 20.9130,59.0362 22.8960,58.8030 C22.4213,58.8982 20.3955,59.1870 18.4965,58.5832 Z M12.6480,52.7490 Z" style="fill-rule: evenodd; fill: url(#grad6645); "/>
    <defs xmlns="http://www.w3.org/2000/svg" xmlns:xlink="http://www.w3.org/1999/xlink">
      <linearGradient id="grad6646">
        <stop offset="0%" stop-color="#0c3f99" stop-opacity="1.0000"/>
        <stop offset="100%" stop-color="#0f0a6d" stop-opacity="1.0000"/>
      </linearGradient>
      <linearGradient xlink:href="#grad6646" id="grad6647" x1="0" y1="0" x2="0" y2="1" gradientTransform="rotate(135 .5 .5)" gradientUnits="objectBoundingBox">
  </linearGradient>
    </defs>
    <path xmlns="http://www.w3.org/2000/svg" d="  M40.9950,55.5337 C38.7158,54.7688 36.5610,53.6003 34.4805,52.1415 C33.9623,52.5593 33.4253,52.9868 32.8755,53.4128 C33.9195,54.9960 35.1728,56.4787 36.6968,57.5550 C37.3845,58.0395 38.0978,58.4647 38.8223,58.8090 L40.9950,55.5337 Z" style="fill-rule: evenodd; fill: url(#grad6647); "/>
    <path xmlns="http://www.w3.org/2000/svg" d="  M43.8308,34.5660 C39.4718,35.1577 35.6603,37.6875 32.5643,41.1592 C31.3013,42.5730 29.8118,44.3130 28.2293,46.0342 C28.1400,46.2832 28.1115,46.5570 28.1355,46.8457 C28.6515,47.2515 30.4965,48.7650 31.9155,49.9072 C32.8575,50.6677 33.6113,51.2475 33.6593,51.2857 C33.6705,51.2932 33.6743,51.2797 33.6825,51.2707 C35.4330,49.6185 40.7333,45.3967 43.2683,43.6920 C46.0358,41.8305 49.4400,40.4857 51.2700,40.5720 C53.4383,40.6732 54.9945,37.8472 52.7610,36.2040 C51.9495,35.7675 51.0968,35.4030 50.2140,35.1052 C48.4928,34.5217 45.8423,34.2922 43.8308,34.5660 Z" style="fill-rule: evenodd; fill: #f781bf; fill-opacity: 0.2000; "/>
    <path xmlns="http://www.w3.org/2000/svg" d="  M57.9637,41.2207 C56.1900,38.1023 53.3872,36.1740 50.2147,35.1052 C48.4927,34.5225 45.8422,34.2922 43.8307,34.5660 C39.4717,35.1578 35.6602,37.6875 32.5642,41.1593 C31.7535,42.0660 30.1972,43.8953 29.2350,44.9813 C29.2350,44.9813 29.8230,45.8175 30.3315,46.8622 C30.5377,47.2882 30.9922,48.1838 31.4662,49.5428 C32.1667,50.1420 34.5990,51.9922 34.5990,51.9922 C35.9077,50.9565 36.0637,50.8567 37.0875,50.0355 C40.1175,47.6010 44.6730,43.5098 49.1917,41.9272 C50.9602,41.3063 53.1322,41.5125 54.7965,41.9085 C57.7035,42.6045 59.5282,45.9517 59.3797,49.1625 C59.6242,47.8267 59.7007,44.2777 57.9637,41.2207 Z" style="fill-rule: evenodd; fill: #a31989; fill-opacity: 0.4000; "/>
    <path xmlns="http://www.w3.org/2000/svg" d="  M54.7950,41.9077 C53.1308,41.5125 50.9595,41.3055 49.1903,41.9265 C48.9555,42.0083 48.7200,42.0983 48.4853,42.1942 C49.5248,43.9418 50.0625,45.9795 50.0625,47.9512 C50.0625,51.6165 48.5978,54.9503 45.9458,56.7128 C48.0720,57.0353 50.1375,57.0833 52.0395,56.7435 C53.5215,56.4780 55.0643,55.5600 56.0640,54.8055 C58.5120,52.6830 58.7535,50.7420 59.3468,49.3328 C59.3588,49.2577 59.3700,49.1835 59.3805,49.1085 C59.5058,45.9142 57.6870,42.6007 54.7950,41.9077 Z" style="fill-rule: evenodd; fill: #b3cde3; fill-opacity: 0.4980; "/>
    <defs xmlns="http://www.w3.org/2000/svg" xmlns:xlink="http://www.w3.org/1999/xlink">
      <linearGradient id="grad6648">
        <stop offset="0%" stop-color="#4578b6" stop-opacity="1.0000"/>
        <stop offset="100%" stop-color="#320c6d" stop-opacity="1.0000"/>
      </linearGradient>
      <linearGradient xlink:href="#grad6648" id="grad6649" x1="0" y1="0" x2="0" y2="1" gradientTransform="rotate(180 .5 .5)" gradientUnits="objectBoundingBox">
  </linearGradient>
    </defs>
    <path xmlns="http://www.w3.org/2000/svg" d="  M45.8393,56.5545 C48.4238,54.8377 49.8713,51.5685 49.8705,47.9512 C49.8713,46.0133 49.3418,44.0078 48.3210,42.2925 L48.6495,42.0960 C49.7063,43.8758 50.2530,45.9428 50.2530,47.9512 C50.2530,51.6660 48.7695,55.0628 46.0515,56.8725 L45.8393,56.5545 Z" style="fill-rule: evenodd; fill: url(#grad6649); "/>
    <defs xmlns="http://www.w3.org/2000/svg" xmlns:xlink="http://www.w3.org/1999/xlink">
      <linearGradient id="grad6650">
        <stop offset="0%" stop-color="#a450a4" stop-opacity="1.0000"/>
        <stop offset="100%" stop-color="#4ebdd7" stop-opacity="1.0000"/>
      </linearGradient>
      <linearGradient xlink:href="#grad6650" id="grad6651" x1="0" y1="0" x2="0" y2="1" gradientTransform="rotate(45 .5 .5)" gradientUnits="objectBoundingBox">
  </linearGradient>
    </defs>
    <path xmlns="http://www.w3.org/2000/svg" d="  M59.4000,47.2590 L59.0250,47.3032 C59.2822,49.4947 58.4752,51.9600 56.8987,53.7150 C55.8405,54.8910 54.7215,55.5225 53.1427,56.1435 C52.3628,56.4510 51.2287,56.7105 49.9492,56.7735 C48.5985,56.8395 47.1622,56.7135 45.8700,56.5185 C44.0820,56.2478 42.1020,55.8593 40.2870,55.0972 C38.3595,54.2872 36.9683,53.5387 36.0615,52.9935 C35.6078,52.7212 35.2747,52.4985 35.0565,52.3447 C34.9470,52.2698 34.8600,52.2172 34.8067,52.1775 C34.7738,52.1527 34.6890,52.0995 34.6238,52.0560 C34.5255,52.1340 34.4265,52.2127 34.3290,52.2908 L34.5323,52.4355 C34.5458,52.4475 36.2482,53.8170 40.1393,55.4505 C41.5605,56.0453 43.1265,56.4263 44.5455,56.6940 C46.3650,57.0368 47.5387,57.1380 49.0230,57.1785 C49.7640,57.1988 50.9707,57.1140 51.7552,56.9483 C56.8222,55.8773 59.4360,52.0822 59.4487,48.0712 C59.4480,47.8005 59.4322,47.5297 59.4000,47.2590 Z" style="fill-rule: evenodd; fill: url(#grad6651); "/>
    <path xmlns="http://www.w3.org/2000/svg" d="  M40.4505,55.1632 C40.3965,55.1415 40.3410,55.1190 40.2870,55.0972 C38.3595,54.2872 36.9683,53.5387 36.0615,52.9935 C35.6078,52.7213 35.2748,52.4985 35.0565,52.3448 C34.9470,52.2698 34.8600,52.2173 34.8068,52.1775 C34.7738,52.1528 34.6890,52.0995 34.6238,52.0560 C34.5255,52.1340 34.4265,52.2128 34.3290,52.2908 L34.5323,52.4355 C34.5458,52.4475 36.2483,53.8170 40.1393,55.4505 C40.2420,55.4932 40.3463,55.5322 40.4505,55.5735 L40.4505,55.1632 Z" style="fill-rule: evenodd; fill: #2d549e; "/>
    <defs xmlns="http://www.w3.org/2000/svg">
      <linearGradient id="grad6652">
        <stop offset="0%" stop-color="#0a50a1" stop-opacity="1.0000"/>
        <stop offset="100%" stop-color="#0f0a6d" stop-opacity="1.0000"/>
      </linearGradient>
    </defs>
    <path xmlns="http://www.w3.org/2000/svg" d="  M29.3288,44.8215 C28.6118,43.8668 27.7103,42.8730 26.5733,41.8935 C26.2703,41.6243 25.9538,41.3633 25.6215,41.1188 C24.7103,40.4453 23.7743,39.9045 22.8600,39.5280 C22.3088,39.2992 21.7613,39.1222 21.2243,38.9872 L20.4675,44.1480 C23.1300,44.0820 25.3193,45.0578 27.6180,46.6913 C28.1640,46.1100 28.6995,45.5205 29.2238,44.9378 L29.3288,44.8215 Z" style="fill-rule: evenodd; fill: url(#grad6652); "/>
    <defs xmlns="http://www.w3.org/2000/svg" xmlns:xlink="http://www.w3.org/1999/xlink">
      <linearGradient id="grad6653">
        <stop offset="0%" stop-color="#384f9c" stop-opacity="1.0000"/>
        <stop offset="100%" stop-color="#538dc0" stop-opacity="1.0000"/>
      </linearGradient>
      <linearGradient xlink:href="#grad6653" id="grad6654" x1="0" y1="0" x2="0" y2="1" gradientTransform="rotate(90 .5 .5)" gradientUnits="objectBoundingBox">
  </linearGradient>
    </defs>
    <path xmlns="http://www.w3.org/2000/svg" d="  M27.7320,46.5338 L27.5100,46.8458 C26.0318,45.7425 24.7725,44.7833 22.3365,44.2718 C24.6728,44.5808 25.8803,45.3248 27.7320,46.5338 Z" style="fill-rule: evenodd; fill: url(#grad6654); "/>
    <defs xmlns="http://www.w3.org/2000/svg" xmlns:xlink="http://www.w3.org/1999/xlink">
      <linearGradient id="grad6655">
        <stop offset="0%" stop-color="#48a1c9" stop-opacity="1.0000"/>
        <stop offset="100%" stop-color="#284b8d" stop-opacity="1.0000"/>
      </linearGradient>
      <linearGradient xlink:href="#grad6655" id="grad6656" x1="0" y1="0" x2="0" y2="1" gradientTransform="rotate(-0 .5 .5)" gradientUnits="objectBoundingBox">
  </linearGradient>
    </defs>
    <path xmlns="http://www.w3.org/2000/svg" d="  M8.8777,45.1290 C8.9152,45.0030 8.9565,44.8815 8.9977,44.7585 C8.9557,44.8815 8.9145,45.0060 8.8777,45.1290 Z M9.0255,44.6790 C9.0307,44.6655 9.0375,44.6512 9.0420,44.6362 C9.0457,44.6257 9.0472,44.6160 9.0502,44.6055 C9.0427,44.6310 9.0337,44.6557 9.0255,44.6790 Z M17.7668,44.5035 L10.4295,42.1507 C9.8467,42.8820 9.3772,43.7152 9.0420,44.6362 C8.4780,46.3485 8.4427,48.4770 9.3562,50.0280 C10.0530,51.2070 11.1495,52.2337 12.3510,52.8802 C12.3660,52.8877 13.2353,53.4060 13.1505,53.1397 C13.0657,52.8735 13.0155,52.6447 13.0155,52.6432 C12.8783,52.1070 12.8070,51.5580 12.8070,51.0052 C12.8070,50.3595 12.9053,49.7085 13.1100,49.0702 C13.8548,46.7587 15.7320,45.2880 17.8208,44.6010 C18.5295,44.3700 18.5033,44.3025 17.7668,44.5035 Z" style="fill-rule: evenodd; fill: url(#grad6656); "/>
    <path xmlns="http://www.w3.org/2000/svg" d="  M30.9270,49.5877 C29.9850,48.8010 29.1293,48.1140 28.5083,47.6250 C27.8880,47.1360 27.5048,46.8427 27.5040,46.8427 L27.7358,46.5382 C27.7373,46.5398 29.2830,47.7157 31.1723,49.2952 C32.1128,50.0820 32.9543,50.7443 33.5610,51.2085 C34.1670,51.6727 34.5353,51.9397 34.5360,51.9397 L34.3118,52.2502 C34.3095,52.2480 32.8193,51.1695 30.9270,49.5877 Z" style="fill-rule: evenodd; fill: #4664ac; "/>
    <defs xmlns="http://www.w3.org/2000/svg" xmlns:xlink="http://www.w3.org/1999/xlink">
      <linearGradient id="grad6657">
        <stop offset="0%" stop-color="#a450a4" stop-opacity="1.0000"/>
        <stop offset="100%" stop-color="#4ebdd7" stop-opacity="1.0000"/>
      </linearGradient>
      <linearGradient xlink:href="#grad6657" id="grad6658" x1="0" y1="0" x2="0" y2="1" gradientTransform="rotate(45 .5 .5)" gradientUnits="objectBoundingBox">
  </linearGradient>
    </defs>
    <path xmlns="http://www.w3.org/2000/svg" d="  M56.9843,42.9255 C55.6695,41.8867 53.9370,41.3070 52.0365,41.3070 C50.5305,41.3070 48.7500,41.7435 46.9838,42.6120 C45.5888,43.2975 42.4268,45.4140 40.6388,46.7940 C38.6003,48.3675 33.9683,52.3927 33.3420,52.9095 C32.7150,53.4240 30.9458,54.8707 30.9458,54.8707 C34.2285,52.5195 38.9003,48.5062 40.9073,47.0512 C42.7440,45.7200 44.7945,44.3512 46.1618,43.5397 C47.4383,42.7837 48.8303,42.2422 49.8690,41.9955 C54.4710,40.9057 58.5518,43.2525 59.0250,47.3010 L59.4000,47.2567 C59.1915,45.4657 58.2998,43.9642 56.9843,42.9255 Z" style="fill-rule: evenodd; fill: url(#grad6658); "/>
    <defs xmlns="http://www.w3.org/2000/svg" xmlns:xlink="http://www.w3.org/1999/xlink">
      <linearGradient id="grad6659">
        <stop offset="0%" stop-color="#2f58a5" stop-opacity="1.0000"/>
        <stop offset="100%" stop-color="#9cdae9" stop-opacity="1.0000"/>
      </linearGradient>
      <linearGradient xlink:href="#grad6659" id="grad6660" x1="0" y1="0" x2="0" y2="1" gradientTransform="rotate(90 .5 .5)" gradientUnits="objectBoundingBox">
  </linearGradient>
    </defs>
    <path xmlns="http://www.w3.org/2000/svg" d="  M9.3285,50.5402 C8.4803,49.1850 8.4563,47.8860 8.5163,46.9867 C8.5778,46.0695 8.8448,45.0930 9.0488,44.5245 C10.0500,41.7322 12.2865,39.7912 15.1463,38.9700 L15.1943,38.9550 C15.9533,38.7367 17.2410,38.5537 18.0450,38.5725 C18.7110,38.5882 19.3680,38.6235 20.1908,38.7750 C18.0548,38.5170 16.5278,38.7615 15.2378,39.1702 C13.6403,39.6773 12.0923,40.6073 10.9935,41.8845 C10.2848,42.7095 9.7980,43.6395 9.4215,44.6768 C9.1568,45.4020 8.9093,46.5547 8.8875,47.3107 C8.8568,48.4268 9.1223,49.4805 9.6615,50.3167 C10.5360,51.6720 11.4945,52.2750 12.5783,52.7835 C13.4603,53.1967 14.9685,53.5702 16.5480,53.5027 C17.4203,53.4660 18.4200,53.3212 19.4678,52.9552 C21.4808,52.2548 23.8808,50.2995 26.2035,48.0217 C28.5293,45.7425 30.7868,43.1437 32.5620,41.1562 C32.5620,41.1562 28.5180,46.0808 26.3753,48.2212 C24.2325,50.3640 21.7170,52.5720 19.5938,53.3160 C18.5078,53.6955 17.6595,53.8462 16.5300,53.8725 C15.0360,53.9092 13.8030,53.6835 12.5970,53.1975 C11.5643,52.7797 10.2113,51.9547 9.3285,50.5402 Z" style="fill-rule: evenodd; fill: url(#grad6660); "/>
    <!--converted by libvisio2svg-->
  </g>
</svg>
