<svg xmlns="http://www.w3.org/2000/svg" xmlns:xlink="http://www.w3.org/1999/xlink" version="1.1" width="0.6881000000" height="0.8241000000" viewBox="0 0 49.5412 59.3340">
  <title><![CDATA[Voice Mail Workload]]></title>
  <g transform=" scale(1.000000) ">
    <path xmlns="http://www.w3.org/2000/svg" d="  M33.0000,6.2348 L22.6275,0.0000 L0.0000,13.0065 L0.0000,45.5768 L0.5025,45.8715 C1.8473,47.5897 4.6335,49.2308 7.7093,50.1037 L11.7172,52.4565 L33.0000,40.2323 L33.0000,37.8270 L33.0000,37.7963 L32.5372,37.5765 L33.0000,37.3110 L33.0000,35.3535 L33.0000,35.3243 L32.5372,35.1045 L33.0000,34.8382 L33.0000,32.8815 L33.0000,32.8522 L32.5695,32.6475 L33.0000,32.4030 L33.0000,6.2655 L33.0000,6.2348 Z" style="stroke-width: 1.5000; stroke: #8d98b5; stroke-dasharray: none; stroke-linecap: butt; stroke-linejoin: miter; fill: none; "/>
    <path xmlns="http://www.w3.org/2000/svg" d="  M49.5412,10.9417 C49.5412,9.6263 48.6173,8.0257 47.4772,7.3687 C46.8825,7.0252 46.3463,7.0087 45.9713,7.2578 L45.9682,7.2540 L42.7530,9.1102 L36.6195,12.6517 C36.6533,12.6308 36.6885,12.6150 36.7252,12.5977 C36.7252,12.5977 8.6527,28.7685 8.6603,28.7572 L3.4717,33.9555 L2.2410,35.2222 C2.2410,35.2222 2.2335,35.2313 2.2305,35.2342 L2.2102,35.2545 L2.2117,35.2560 C2.1690,35.3040 2.0887,35.4007 2.0430,35.4847 C1.8157,35.9137 2.1555,36.2670 2.5657,36.2595 C2.5777,36.2595 2.6070,36.2535 2.6445,36.2460 L2.6505,36.2595 C2.6505,36.2595 2.7952,36.2212 3.0427,36.1568 C3.5962,36.0247 4.4340,35.8125 4.4737,35.7952 C4.4767,35.7937 4.4752,35.7862 4.4752,35.7817 C6.7777,35.1795 10.4903,34.2098 10.8930,34.1003 C11.4817,33.9390 12.3780,33.5378 12.3780,33.5378 C12.1478,33.5730 39.8190,17.4750 39.8190,17.4750 C39.7343,17.5703 39.6390,17.6490 39.5303,17.7060 L44.5080,14.8327 L48.8850,12.3060 L48.8820,12.3022 C49.2862,12.1005 49.5412,11.6295 49.5412,10.9417 Z" style="stroke-width: 1.5000; stroke: #8d98b5; stroke-dasharray: none; stroke-linecap: butt; stroke-linejoin: miter; fill: none; "/>
    <path xmlns="http://www.w3.org/2000/svg" d="  M47.2575,29.7345 C47.2575,28.3402 47.1255,27.1140 46.9268,26.3985 L46.9268,24.8505 C46.9268,20.5995 44.3430,15.6607 41.1540,13.8195 L35.9580,10.8203 C34.4460,9.9472 33.0720,9.9285 32.0423,10.6013 L30.0720,11.7405 C28.7227,12.3705 27.8557,14.0610 27.8557,16.5232 L27.8557,43.4640 C27.8557,47.7150 30.4395,52.6530 33.6285,54.4927 L38.8245,57.4927 C40.2630,58.3245 41.5785,58.3822 42.5903,57.8048 L44.9767,56.4307 C46.1738,55.7115 46.9267,54.0855 46.9267,51.7897 L46.9267,33.0713 C47.1255,32.3550 47.2575,31.1287 47.2575,29.7345 Z" style="stroke-width: 1.5000; stroke: #8d98b5; stroke-dasharray: none; stroke-linecap: butt; stroke-linejoin: miter; fill: none; "/>
    <path xmlns="http://www.w3.org/2000/svg" d="  M20.0573,40.3193 L33.0000,32.8515 L32.5695,32.6467 L20.0573,39.7920 L20.0573,40.3193 Z" style="fill-rule: evenodd; fill: #3f3f3f; "/>
    <path xmlns="http://www.w3.org/2000/svg" d="  M20.0573,42.7905 L33.0000,35.3243 L32.5372,35.1045 L20.0573,42.2648 L20.0573,42.7905 Z" style="fill-rule: evenodd; fill: #3f3f3f; "/>
    <path xmlns="http://www.w3.org/2000/svg" d="  M20.0573,45.2633 L33.0000,37.7955 L32.5372,37.5758 L20.0573,44.7375 L20.0573,45.2633 Z" style="fill-rule: evenodd; fill: #3f3f3f; "/>
    <defs xmlns="http://www.w3.org/2000/svg" xmlns:xlink="http://www.w3.org/1999/xlink">
      <linearGradient id="grad6661">
        <stop offset="0%" stop-color="#646c6b" stop-opacity="1.0000"/>
        <stop offset="100%" stop-color="#dae1e1" stop-opacity="1.0000"/>
      </linearGradient>
      <linearGradient xlink:href="#grad6661" id="grad6662" x1="0" y1="0" x2="0" y2="1" gradientTransform="rotate(90 .5 .5)" gradientUnits="objectBoundingBox">
  </linearGradient>
    </defs>
    <path xmlns="http://www.w3.org/2000/svg" d="  M11.7180,18.7035 L0.0008,13.0065 L0.0008,45.5767 L0.5033,45.8715 C0.3945,45.7335 0.2940,45.5932 0.2063,45.4537 L0.2063,31.2840 L0.2063,28.1235 L0.2063,21.3607 L0.2063,14.5425 L10.7970,19.7783 C10.7970,19.7783 10.8382,19.7827 10.8585,19.7842 L10.8585,26.6490 L10.8585,33.3652 L10.8585,36.7230 L10.8585,50.6962 C9.8055,50.6025 8.7420,50.3947 7.7107,50.1030 L11.7187,52.4557 L11.7187,18.7035 L11.7180,18.7035 Z" style="fill-rule: evenodd; fill: url(#grad6662); "/>
    <defs xmlns="http://www.w3.org/2000/svg" xmlns:xlink="http://www.w3.org/1999/xlink">
      <linearGradient id="grad6663">
        <stop offset="0%" stop-color="#85919c" stop-opacity="0.9882"/>
        <stop offset="100%" stop-color="#dadfe1" stop-opacity="0.9882"/>
      </linearGradient>
      <linearGradient xlink:href="#grad6663" id="grad6664" x1="0" y1="0" x2="0" y2="1" gradientTransform="rotate(90 .5 .5)" gradientUnits="objectBoundingBox">
  </linearGradient>
    </defs>
    <path xmlns="http://www.w3.org/2000/svg" d="  M10.4092,36.7192 C10.4092,36.7702 10.3477,36.8160 10.2675,36.8160 C10.2600,36.8160 10.2457,36.8160 10.2457,36.8160 C7.0845,36.8632 2.9610,35.4255 0.6307,31.8622 C0.4710,31.6687 0.3278,31.4767 0.2063,31.2847 L0.2063,45.4545 C0.2940,45.5940 0.3952,45.7342 0.5033,45.8722 C1.8480,47.5905 4.6342,49.2315 7.7100,50.1045 C8.7412,50.3962 9.8047,50.6040 10.8577,50.6977 L10.8577,36.7230 C10.7025,36.7095 10.5487,36.6922 10.3935,36.6735 C10.4040,36.6885 10.4092,36.7027 10.4092,36.7192 Z M10.0935,48.9375 C9.9217,49.4812 9.0255,49.6800 8.0925,49.3860 C7.1580,49.0897 6.5415,48.4087 6.7125,47.8672 C6.8842,47.3235 7.7805,47.1247 8.7150,47.4202 C9.6480,47.7157 10.2660,48.3952 10.0935,48.9375 Z M10.2675,46.7647 C10.2600,46.7647 10.2457,46.7647 10.2457,46.7647 C6.9660,46.8142 2.6520,45.2677 0.3758,41.4052 C0.2130,41.1330 0.4080,41.1577 0.4080,41.1577 C1.8480,43.5937 6.0930,46.1497 10.1887,46.5615 C10.2075,46.5630 10.2667,46.5675 10.2735,46.5675 C10.3537,46.5675 10.4100,46.6155 10.4100,46.6687 C10.4100,46.7220 10.3477,46.7647 10.2675,46.7647 Z M10.2675,43.4482 C10.2600,43.4482 10.2457,43.4482 10.2457,43.4482 C6.9660,43.4977 2.6520,41.9497 0.3758,38.0887 C0.2130,37.8150 0.4080,37.8412 0.4080,37.8412 C1.8480,40.2757 6.0930,42.8332 10.1887,43.2450 C10.2075,43.2465 10.2667,43.2510 10.2735,43.2510 C10.3537,43.2510 10.4100,43.2990 10.4100,43.3522 C10.4092,43.4032 10.3477,43.4482 10.2675,43.4482 Z M10.2675,40.1302 C10.2600,40.1302 10.2457,40.1317 10.2457,40.1317 C6.9660,40.1797 2.6520,38.6332 0.3758,34.7707 C0.2130,34.4985 0.4080,34.5247 0.4080,34.5247 C1.8480,36.9592 6.0930,39.5167 10.1887,39.9270 C10.2075,39.9300 10.2667,39.9345 10.2735,39.9345 C10.3537,39.9345 10.4100,39.9825 10.4100,40.0342 C10.4092,40.0867 10.3477,40.1302 10.2675,40.1302 Z" style="fill-rule: evenodd; fill: url(#grad6664); "/>
    <defs xmlns="http://www.w3.org/2000/svg" xmlns:xlink="http://www.w3.org/1999/xlink">
      <linearGradient id="grad6665">
        <stop offset="0%" stop-color="#85919c" stop-opacity="0.9882"/>
        <stop offset="100%" stop-color="#dadfe1" stop-opacity="0.9882"/>
      </linearGradient>
      <linearGradient xlink:href="#grad6665" id="grad6666" x1="0" y1="0" x2="0" y2="1" gradientTransform="rotate(90 .5 .5)" gradientUnits="objectBoundingBox">
  </linearGradient>
    </defs>
    <path xmlns="http://www.w3.org/2000/svg" d="  M10.1880,26.6610 C10.2067,26.6625 10.2660,26.6670 10.2727,26.6670 C10.3530,26.6670 10.4092,26.7157 10.4092,26.7682 C10.4092,26.8207 10.3477,26.8642 10.2675,26.8642 C10.2600,26.8642 10.2457,26.8650 10.2457,26.8650 C7.1302,26.9115 3.0780,25.5150 0.7312,22.0612 C0.5302,21.8295 0.3532,21.5955 0.2055,21.3615 L0.2055,28.1242 C0.4410,28.4932 0.7492,28.8622 1.1137,29.2222 C0.8497,28.8825 0.6022,28.5225 0.3757,28.1377 C0.2130,27.8655 0.4080,27.8910 0.4080,27.8910 C1.3927,29.5560 3.6877,31.2772 6.3495,32.3302 C7.6035,32.7900 8.9377,33.1297 10.2697,33.3000 C10.2697,33.3000 10.2727,33.3000 10.2742,33.3000 C10.2802,33.3000 10.2862,33.3030 10.2915,33.3030 C10.4617,33.3232 10.6282,33.3442 10.7970,33.3600 C10.8172,33.3615 10.8382,33.3630 10.8585,33.3660 L10.8585,26.6497 C8.4930,26.4375 6.0697,25.6522 4.0867,24.5910 C5.8815,25.6500 8.0557,26.4465 10.1880,26.6610 Z M10.2675,30.1815 C10.2600,30.1815 10.2457,30.1815 10.2457,30.1815 C6.9660,30.2295 2.6520,28.6837 0.3757,24.8220 C0.2130,24.5490 0.4080,24.5745 0.4080,24.5745 C1.8480,27.0097 6.0930,29.5665 10.1887,29.9782 C10.2075,29.9797 10.2667,29.9842 10.2735,29.9842 C10.3537,29.9842 10.4100,30.0322 10.4100,30.0855 C10.4092,30.1357 10.3477,30.1815 10.2675,30.1815 Z" style="fill-rule: evenodd; fill: url(#grad6666); "/>
    <defs xmlns="http://www.w3.org/2000/svg" xmlns:xlink="http://www.w3.org/1999/xlink">
      <linearGradient id="grad6667">
        <stop offset="0%" stop-color="#c8d8dd" stop-opacity="0.9882"/>
        <stop offset="100%" stop-color="#f3f9f7" stop-opacity="0.9882"/>
      </linearGradient>
      <linearGradient xlink:href="#grad6667" id="grad6668" x1="0" y1="0" x2="0" y2="1" gradientTransform="rotate(90 .5 .5)" gradientUnits="objectBoundingBox">
  </linearGradient>
    </defs>
    <path xmlns="http://www.w3.org/2000/svg" d="  M10.7963,33.3600 C10.6275,33.3442 10.4610,33.3232 10.2908,33.3030 C10.3613,33.3105 10.4093,33.3525 10.4093,33.4012 C10.4093,33.4537 10.3478,33.4980 10.2675,33.4980 C10.2600,33.4980 10.2458,33.4980 10.2458,33.4980 C7.2923,33.5422 3.5003,32.2912 1.1137,29.2222 C0.7492,28.8622 0.4417,28.4932 0.2055,28.1242 L0.2055,31.2847 C0.3270,31.4767 0.4710,31.6687 0.6300,31.8622 C0.5422,31.7287 0.4575,31.5945 0.3750,31.4550 C0.2122,31.1827 0.4072,31.2090 0.4072,31.2090 C1.2682,32.6632 3.1320,34.1625 5.3670,35.2215 C6.4365,35.7285 7.5908,36.1327 8.7623,36.3847 C9.2355,36.4875 9.7133,36.5632 10.1873,36.6120 C10.2060,36.6150 10.2653,36.6195 10.2720,36.6195 C10.3275,36.6195 10.3718,36.6427 10.3920,36.6750 C10.5473,36.6937 10.7010,36.7117 10.8563,36.7245 L10.8563,33.3660 C10.8375,33.3630 10.8165,33.3615 10.7963,33.3600 Z" style="fill-rule: evenodd; fill: url(#grad6668); "/>
    <defs xmlns="http://www.w3.org/2000/svg" xmlns:xlink="http://www.w3.org/1999/xlink">
      <linearGradient id="grad6669">
        <stop offset="0%" stop-color="#bdd1dd" stop-opacity="0.9882"/>
        <stop offset="100%" stop-color="#f3f9f7" stop-opacity="0.9882"/>
      </linearGradient>
      <linearGradient xlink:href="#grad6669" id="grad6670" x1="0" y1="0" x2="0" y2="1" gradientTransform="rotate(90 .5 .5)" gradientUnits="objectBoundingBox">
  </linearGradient>
    </defs>
    <path xmlns="http://www.w3.org/2000/svg" d="  M10.7962,19.7790 L0.2055,14.5432 L0.2055,21.3615 C0.3532,21.5963 0.5310,21.8302 0.7312,22.0612 C0.6082,21.8812 0.4882,21.6967 0.3750,21.5048 C0.2122,21.2325 0.4072,21.2580 0.4072,21.2580 C1.0972,22.4242 2.4315,23.6183 4.0852,24.5917 C6.0690,25.6530 8.4915,26.4383 10.8570,26.6505 L10.8570,19.7857 C10.8375,19.7835 10.7962,19.7790 10.7962,19.7790 Z M0.5640,15.4492 L10.5352,20.3782 C5.5905,23.1113 0.7530,18.7035 0.5640,15.4492 Z" style="fill-rule: evenodd; fill: url(#grad6670); "/>
    <path xmlns="http://www.w3.org/2000/svg" d="  M10.2735,46.5667 C10.2660,46.5667 10.2075,46.5622 10.1888,46.5607 C6.0930,46.1490 1.8480,43.5930 0.4080,41.1570 C0.4080,41.1570 0.2130,41.1323 0.3758,41.4045 C2.6520,45.2670 6.9660,46.8142 10.2458,46.7640 C10.2458,46.7640 10.2608,46.7640 10.2675,46.7640 C10.3478,46.7640 10.4093,46.7197 10.4093,46.6672 C10.4093,46.6147 10.3538,46.5667 10.2735,46.5667 Z" style="fill-rule: evenodd; fill: #000000; "/>
    <path xmlns="http://www.w3.org/2000/svg" d="  M10.2735,43.2510 C10.2660,43.2510 10.2075,43.2465 10.1888,43.2450 C6.0930,42.8332 1.8480,40.2757 0.4080,37.8413 C0.4080,37.8413 0.2130,37.8150 0.3758,38.0888 C2.6520,41.9497 6.9660,43.4985 10.2458,43.4482 C10.2458,43.4482 10.2608,43.4482 10.2675,43.4482 C10.3478,43.4482 10.4093,43.4025 10.4093,43.3515 C10.4093,43.2990 10.3538,43.2510 10.2735,43.2510 Z" style="fill-rule: evenodd; fill: #000000; "/>
    <path xmlns="http://www.w3.org/2000/svg" d="  M10.2735,39.9345 C10.2660,39.9345 10.2075,39.9300 10.1888,39.9270 C6.0930,39.5167 1.8480,36.9592 0.4080,34.5248 C0.4080,34.5248 0.2130,34.4985 0.3758,34.7708 C2.6520,38.6332 6.9660,40.1805 10.2458,40.1317 C10.2458,40.1317 10.2608,40.1302 10.2675,40.1302 C10.3478,40.1302 10.4093,40.0860 10.4093,40.0335 C10.4093,39.9825 10.3538,39.9345 10.2735,39.9345 Z" style="fill-rule: evenodd; fill: #000000; "/>
    <path xmlns="http://www.w3.org/2000/svg" d="  M10.3935,36.6735 C9.8483,36.6075 9.3038,36.5092 8.7630,36.3832 C7.5908,36.1312 6.4365,35.7270 5.3678,35.2200 C3.1328,34.1610 1.2690,32.6625 0.4080,31.2075 C0.4080,31.2075 0.2130,31.1812 0.3758,31.4535 C0.4575,31.5930 0.5430,31.7272 0.6308,31.8607 C2.9610,35.4247 7.0845,36.8617 10.2458,36.8145 C10.2458,36.8145 10.2608,36.8145 10.2675,36.8145 C10.3478,36.8145 10.4093,36.7687 10.4093,36.7177 C10.4093,36.7027 10.4040,36.6885 10.3935,36.6735 Z" style="fill-rule: evenodd; fill: #000000; "/>
    <path xmlns="http://www.w3.org/2000/svg" d="  M10.2908,33.3030 C10.2847,33.3030 10.2758,33.3015 10.2690,33.3000 C10.2555,33.3000 10.2060,33.2955 10.1888,33.2940 C8.8935,33.1635 7.5825,32.8177 6.3495,32.3302 C3.6878,31.2772 1.3928,29.5560 0.4080,27.8910 C0.4080,27.8910 0.2130,27.8655 0.3758,28.1377 C0.6030,28.5225 0.8505,28.8825 1.1138,29.2222 C3.5003,32.2912 7.2923,33.5423 10.2458,33.4980 C10.2458,33.4980 10.2608,33.4980 10.2675,33.4980 C10.3478,33.4980 10.4093,33.4538 10.4093,33.4013 C10.4093,33.3525 10.3613,33.3105 10.2908,33.3030 Z" style="fill-rule: evenodd; fill: #000000; "/>
    <path xmlns="http://www.w3.org/2000/svg" d="  M10.2735,26.6670 C10.2660,26.6670 10.2075,26.6633 10.1887,26.6610 C8.0558,26.4465 5.8823,25.6493 4.0860,24.5910 C2.4323,23.6183 1.0980,22.4235 0.4080,21.2573 C0.4080,21.2573 0.2130,21.2310 0.3758,21.5040 C0.4883,21.6960 0.6090,21.8805 0.7320,22.0605 C3.0788,25.5143 7.1302,26.9108 10.2465,26.8643 C10.2465,26.8643 10.2615,26.8635 10.2683,26.8635 C10.3485,26.8635 10.4100,26.8200 10.4100,26.7675 C10.4100,26.7150 10.3538,26.6670 10.2735,26.6670 Z" style="fill-rule: evenodd; fill: #000000; "/>
    <path xmlns="http://www.w3.org/2000/svg" d="  M10.2735,29.9835 C10.2660,29.9835 10.2075,29.9790 10.1888,29.9775 C6.0930,29.5657 1.8480,27.0090 0.4080,24.5737 C0.4080,24.5737 0.2130,24.5482 0.3758,24.8212 C2.6520,28.6830 6.9660,30.2295 10.2458,30.1807 C10.2458,30.1807 10.2608,30.1807 10.2675,30.1807 C10.3478,30.1807 10.4093,30.1350 10.4093,30.0840 C10.4093,30.0322 10.3538,29.9835 10.2735,29.9835 Z" style="fill-rule: evenodd; fill: #000000; "/>
    <defs xmlns="http://www.w3.org/2000/svg">
      <linearGradient id="grad6671">
        <stop offset="0%" stop-color="#646c6b" stop-opacity="1.0000"/>
        <stop offset="100%" stop-color="#dae1e1" stop-opacity="1.0000"/>
      </linearGradient>
    </defs>
    <path xmlns="http://www.w3.org/2000/svg" d="  M8.7150,47.4195 C7.7805,47.1232 6.8842,47.3227 6.7125,47.8665 C6.5407,48.4088 7.1580,49.0898 8.0925,49.3853 C9.0255,49.6800 9.9217,49.4805 10.0935,48.9368 C10.2660,48.3953 9.6480,47.7157 8.7150,47.4195 Z M9.4192,49.2345 C9.0720,49.5615 8.4727,49.4880 8.0805,49.0703 C7.9530,48.9338 7.8637,48.7800 7.8127,48.6218 C7.7790,48.5190 7.7617,48.4155 7.7602,48.3143 C7.7587,48.0870 7.8352,47.8748 7.9972,47.7225 C8.3445,47.3955 8.9437,47.4705 9.3360,47.8883 C9.7282,48.3060 9.7665,48.9083 9.4192,49.2345 Z" style="fill-rule: evenodd; fill: url(#grad6671); "/>
    <path xmlns="http://www.w3.org/2000/svg" d="  M7.9972,47.7225 C7.8345,47.8748 7.7587,48.0870 7.7602,48.3143 C7.7677,48.1530 7.8277,48.0023 7.9432,47.8935 C8.0370,47.8058 8.1540,47.7555 8.2800,47.7413 C8.5305,47.6783 8.8275,47.7645 9.0390,47.9903 C9.3292,48.2978 9.3510,48.7448 9.0975,49.0013 C9.0817,49.0230 9.0637,49.0440 9.0435,49.0627 C8.7757,49.3147 8.3107,49.2577 8.0077,48.9352 C7.9185,48.8400 7.8540,48.7327 7.8127,48.6217 C7.8637,48.7800 7.9537,48.9337 8.0805,49.0702 C8.4727,49.4880 9.0720,49.5607 9.4192,49.2345 C9.7665,48.9082 9.7282,48.3060 9.3360,47.8882 C8.9437,47.4705 8.3437,47.3963 7.9972,47.7225 Z" style="fill-rule: evenodd; fill: #000000; "/>
    <defs xmlns="http://www.w3.org/2000/svg">
      <radialGradient id="grad6672" cx="0.0000%" cy="100.0000%" r="100.0000%">
        <stop offset="0%" stop-color="#ccff66" stop-opacity="1.0000"/>
        <stop offset="100%" stop-color="#7ab04a" stop-opacity="1.0000"/>
      </radialGradient>
    </defs>
    <path xmlns="http://www.w3.org/2000/svg" d="  M9.0428,49.0635 C9.0630,49.0447 9.0810,49.0237 9.0968,49.0020 C9.3503,48.7455 9.3285,48.2985 9.0383,47.9910 C8.8275,47.7652 8.5298,47.6790 8.2793,47.7420 C8.1533,47.7570 8.0363,47.8065 7.9425,47.8942 C7.8270,48.0030 7.7670,48.1537 7.7595,48.3150 C7.7610,48.4163 7.7783,48.5197 7.8120,48.6225 C7.8533,48.7335 7.9178,48.8407 8.0070,48.9360 C8.3108,49.2578 8.7750,49.3155 9.0428,49.0635 Z" style="fill-rule: evenodd; fill: url(#grad6672); "/>
    <defs xmlns="http://www.w3.org/2000/svg" xmlns:xlink="http://www.w3.org/1999/xlink">
      <linearGradient id="grad6673">
        <stop offset="0%" stop-color="#7f8787" stop-opacity="1.0000"/>
        <stop offset="100%" stop-color="#f3f9f7" stop-opacity="1.0000"/>
      </linearGradient>
      <linearGradient xlink:href="#grad6673" id="grad6674" x1="0" y1="0" x2="0" y2="1" gradientTransform="rotate(315 .5 .5)" gradientUnits="objectBoundingBox">
  </linearGradient>
    </defs>
    <path xmlns="http://www.w3.org/2000/svg" d="  M0.5640,15.4493 C0.7530,18.7035 5.5898,23.1113 10.5352,20.3783 L0.5640,15.4493 Z M2.4743,16.5188 L8.8493,19.6425 C5.6265,21.2423 2.5583,18.5010 2.4743,16.5188 Z" style="fill-rule: evenodd; fill: url(#grad6674); "/>
    <defs xmlns="http://www.w3.org/2000/svg">
      <radialGradient id="grad6675" cx="0.0000%" cy="100.0000%" r="100.0000%">
        <stop offset="0%" stop-color="#a7e968" stop-opacity="1.0000"/>
        <stop offset="100%" stop-color="#000000" stop-opacity="1.0000"/>
      </radialGradient>
    </defs>
    <path xmlns="http://www.w3.org/2000/svg" d="  M2.4743,16.5188 C2.5575,18.5003 5.6265,21.2415 8.8493,19.6425 L2.4743,16.5188 Z" style="fill-rule: evenodd; fill: url(#grad6675); "/>
    <defs xmlns="http://www.w3.org/2000/svg" xmlns:xlink="http://www.w3.org/1999/xlink">
      <linearGradient id="grad6676">
        <stop offset="0%" stop-color="#7f8787" stop-opacity="1.0000"/>
        <stop offset="100%" stop-color="#dae1e1" stop-opacity="1.0000"/>
      </linearGradient>
      <linearGradient xlink:href="#grad6676" id="grad6677" x1="0" y1="0" x2="0" y2="1" gradientTransform="rotate(45 .5 .5)" gradientUnits="objectBoundingBox">
  </linearGradient>
    </defs>
    <path xmlns="http://www.w3.org/2000/svg" d="  M11.7457,18.6772 L11.7262,18.6675 L11.7262,52.2405 L33.0000,40.2315 L33.0000,37.8263 L20.0572,45.2633 L20.0572,44.7375 L32.5373,37.5758 L33.0000,37.3110 L33.0000,35.3535 L20.0572,42.7905 L20.0572,42.2648 L32.5373,35.1045 L33.0000,34.8383 L33.0000,32.8808 L20.0572,40.3193 L20.0572,39.7920 L32.5695,32.6468 L33.0000,32.4023 L33.0000,6.2655 L30.1470,7.9058 L11.7457,18.6772 Z" style="fill-rule: evenodd; fill: url(#grad6677); "/>
    <defs xmlns="http://www.w3.org/2000/svg" xmlns:xlink="http://www.w3.org/1999/xlink">
      <linearGradient id="grad6678">
        <stop offset="0%" stop-color="#7f8787" stop-opacity="1.0000"/>
        <stop offset="100%" stop-color="#f3f9f7" stop-opacity="1.0000"/>
      </linearGradient>
      <linearGradient xlink:href="#grad6678" id="grad6679" x1="0" y1="0" x2="0" y2="1" gradientTransform="rotate(90 .5 .5)" gradientUnits="objectBoundingBox">
  </linearGradient>
    </defs>
    <path xmlns="http://www.w3.org/2000/svg" d="  M22.6275,0.0000 L0.1103,12.9982 L11.7263,18.6675 L33.0000,6.2347 L22.6275,0.0000 Z" style="fill-rule: evenodd; fill: url(#grad6679); "/>
    <defs xmlns="http://www.w3.org/2000/svg" xmlns:xlink="http://www.w3.org/1999/xlink">
      <linearGradient id="grad6680">
        <stop offset="0%" stop-color="#fcd67d" stop-opacity="1.0000"/>
        <stop offset="100%" stop-color="#fcf4b8" stop-opacity="1.0000"/>
      </linearGradient>
      <linearGradient xlink:href="#grad6680" id="grad6681" x1="0" y1="0" x2="0" y2="1" gradientTransform="rotate(180 .5 .5)" gradientUnits="objectBoundingBox">
  </linearGradient>
    </defs>
    <path xmlns="http://www.w3.org/2000/svg" d="  M45.4808,14.2275 L10.9358,34.0425 L7.7505,29.7435 L8.6400,28.7962 L42.7913,9.0975 L45.4808,14.2275 Z" style="fill-rule: evenodd; fill: url(#grad6681); "/>
    <path xmlns="http://www.w3.org/2000/svg" d="  M43.2120,14.2245 L10.1415,33.5137 L10.7182,33.9225 L12.3225,33.5535 L43.7805,15.2100 L43.2120,14.2245 Z" style="fill-rule: evenodd; fill: #ac8344; "/>
    <defs xmlns="http://www.w3.org/2000/svg" xmlns:xlink="http://www.w3.org/1999/xlink">
      <linearGradient id="grad6682">
        <stop offset="0%" stop-color="#fcd67d" stop-opacity="1.0000"/>
        <stop offset="100%" stop-color="#ca9747" stop-opacity="1.0000"/>
      </linearGradient>
      <linearGradient xlink:href="#grad6682" id="grad6683" x1="0" y1="0" x2="0" y2="1" gradientTransform="rotate(45 .5 .5)" gradientUnits="objectBoundingBox">
  </linearGradient>
    </defs>
    <path xmlns="http://www.w3.org/2000/svg" d="  M40.2615,10.5585 L8.6475,28.7692 C8.6475,28.7692 8.0483,29.6100 8.2928,30.0195 C8.5358,30.4282 9.0090,30.4035 9.0090,30.4035 L41.0528,11.9295 L40.2615,10.5585 Z" style="fill-rule: evenodd; fill: url(#grad6683); "/>
    <defs xmlns="http://www.w3.org/2000/svg" xmlns:xlink="http://www.w3.org/1999/xlink">
      <linearGradient id="grad6684">
        <stop offset="0%" stop-color="#f38484" stop-opacity="1.0000"/>
        <stop offset="100%" stop-color="#993333" stop-opacity="1.0000"/>
      </linearGradient>
      <linearGradient xlink:href="#grad6684" id="grad6685" x1="0" y1="0" x2="0" y2="1" gradientTransform="rotate(315 .5 .5)" gradientUnits="objectBoundingBox">
  </linearGradient>
    </defs>
    <path xmlns="http://www.w3.org/2000/svg" d="  M47.4773,7.3688 C46.8825,7.0253 46.3463,7.0088 45.9713,7.2578 L45.9683,7.2540 L41.5928,9.7808 L44.5095,14.8343 L48.8865,12.3075 L48.8835,12.3038 C49.2863,12.1020 49.5413,11.6310 49.5413,10.9433 C49.5413,9.6263 48.6173,8.0258 47.4773,7.3688 Z" style="fill-rule: evenodd; fill: url(#grad6685); "/>
    <defs xmlns="http://www.w3.org/2000/svg" xmlns:xlink="http://www.w3.org/1999/xlink">
      <linearGradient id="grad6686">
        <stop offset="0%" stop-color="#7f8787" stop-opacity="1.0000"/>
        <stop offset="100%" stop-color="#f3f9f7" stop-opacity="1.0000"/>
      </linearGradient>
      <linearGradient xlink:href="#grad6686" id="grad6687" x1="0" y1="0" x2="0" y2="1" gradientTransform="rotate(135 .5 .5)" gradientUnits="objectBoundingBox">
  </linearGradient>
    </defs>
    <path xmlns="http://www.w3.org/2000/svg" d="  M46.3260,12.7980 C46.3260,11.4825 45.4035,9.8820 44.2635,9.2250 C43.6672,8.8815 43.1325,8.8650 42.7560,9.1140 L42.7530,9.1103 L36.6195,12.6518 C36.9945,12.4170 37.5232,12.4418 38.1075,12.7793 C39.2475,13.4370 40.1700,15.0368 40.1700,16.3523 C40.1700,17.0303 39.9255,17.5005 39.5310,17.7068 L45.6705,14.1638 L45.6675,14.1593 C46.0725,13.9568 46.3260,13.4858 46.3260,12.7980 Z" style="fill-rule: evenodd; fill: url(#grad6687); "/>
    <defs xmlns="http://www.w3.org/2000/svg" xmlns:xlink="http://www.w3.org/1999/xlink">
      <linearGradient id="grad6688">
        <stop offset="0%" stop-color="#ffffff" stop-opacity="1.0000"/>
        <stop offset="100%" stop-color="#7f8787" stop-opacity="1.0000"/>
      </linearGradient>
      <linearGradient xlink:href="#grad6688" id="grad6689" x1="0" y1="0" x2="0" y2="1" gradientTransform="rotate(135 .5 .5)" gradientUnits="objectBoundingBox">
  </linearGradient>
    </defs>
    <path xmlns="http://www.w3.org/2000/svg" d="  M45.6682,14.1585 C46.0725,13.9567 46.3260,13.4857 46.3260,12.7980 C46.3260,12.6847 46.3170,12.5685 46.3042,12.4522 L40.1490,16.0065 C40.1625,16.1228 40.1707,16.2390 40.1707,16.3515 C40.1707,17.0295 39.9262,17.4998 39.5317,17.7060 L45.6712,14.1630 L45.6682,14.1585 Z" style="fill-rule: evenodd; fill: url(#grad6689); "/>
    <defs xmlns="http://www.w3.org/2000/svg" xmlns:xlink="http://www.w3.org/1999/xlink">
      <linearGradient id="grad6690">
        <stop offset="0%" stop-color="#185927" stop-opacity="1.0000"/>
        <stop offset="100%" stop-color="#367c3c" stop-opacity="1.0000"/>
      </linearGradient>
      <linearGradient xlink:href="#grad6690" id="grad6691" x1="0" y1="0" x2="0" y2="1" gradientTransform="rotate(135 .5 .5)" gradientUnits="objectBoundingBox">
  </linearGradient>
    </defs>
    <path xmlns="http://www.w3.org/2000/svg" d="  M41.8305,10.6283 C41.2545,10.2953 40.7333,10.2675 40.3598,10.4925 C40.0958,10.6515 39.0825,11.2268 38.8103,11.3858 C39.1838,11.1683 39.7013,11.1990 40.2720,11.5283 C41.4120,12.1860 42.3345,13.7858 42.3345,15.1013 C42.3345,15.7590 42.1043,16.2210 41.7308,16.4370 C42.0015,16.2803 43.0140,15.6923 43.2848,15.5385 C43.6613,15.3247 43.8945,14.8620 43.8945,14.2013 C43.8945,12.8858 42.9698,11.2860 41.8305,10.6283 Z" style="fill-rule: evenodd; fill: url(#grad6691); "/>
    <defs xmlns="http://www.w3.org/2000/svg" xmlns:xlink="http://www.w3.org/1999/xlink">
      <linearGradient id="grad6692">
        <stop offset="0%" stop-color="#ac562d" stop-opacity="1.0000"/>
        <stop offset="100%" stop-color="#ebc8a7" stop-opacity="1.0000"/>
      </linearGradient>
      <linearGradient xlink:href="#grad6692" id="grad6693" x1="0" y1="0" x2="0" y2="1" gradientTransform="rotate(135 .5 .5)" gradientUnits="objectBoundingBox">
  </linearGradient>
    </defs>
    <path xmlns="http://www.w3.org/2000/svg" d="  M12.3795,33.5370 C11.5680,33.6645 11.3835,33.2835 11.2425,32.8162 C11.0535,32.1862 12.2077,31.2795 11.8357,30.6337 C11.4622,29.9865 10.1497,30.0172 9.1680,29.9700 C8.5335,29.9407 8.4533,29.1180 8.6595,28.7557 L2.2095,35.2537 L2.6505,36.2587 C2.6505,36.2587 10.3057,34.2607 10.8930,34.0995 C11.4832,33.9390 12.3795,33.5370 12.3795,33.5370 Z" style="fill-rule: evenodd; fill: url(#grad6693); "/>
    <path xmlns="http://www.w3.org/2000/svg" d="  M4.7685,35.2642 C4.7685,34.7910 4.4362,34.2173 4.0275,33.9810 C3.8047,33.8520 3.6082,33.8535 3.4725,33.9547 C3.4695,33.9503 3.4650,33.9427 3.4650,33.9427 L2.2417,35.2215 C2.2417,35.2215 2.1052,35.3663 2.0437,35.4840 C1.8165,35.9130 2.1562,36.2663 2.5665,36.2588 C2.6752,36.2558 4.4182,35.8208 4.4752,35.7945 C4.4812,35.7915 4.4797,35.7825 4.4782,35.7713 C4.6530,35.7158 4.7685,35.5395 4.7685,35.2642 Z" style="fill-rule: evenodd; fill: #333333; "/>
    <defs xmlns="http://www.w3.org/2000/svg" xmlns:xlink="http://www.w3.org/1999/xlink">
      <linearGradient id="grad6694">
        <stop offset="0%" stop-color="#f3f9f7" stop-opacity="1.0000"/>
        <stop offset="100%" stop-color="#656d6d" stop-opacity="1.0000"/>
      </linearGradient>
      <linearGradient xlink:href="#grad6694" id="grad6695" x1="0" y1="0" x2="0" y2="1" gradientTransform="rotate(-0 .5 .5)" gradientUnits="objectBoundingBox">
  </linearGradient>
    </defs>
    <path xmlns="http://www.w3.org/2000/svg" d="  M41.1540,13.8195 L35.9580,10.8203 C34.4460,9.9472 33.0720,9.9285 32.0422,10.6013 L30.0720,11.7405 C28.7227,12.3705 27.8558,14.0610 27.8558,16.5232 L27.8558,43.4640 C27.8558,47.7150 30.4395,52.6530 33.6285,54.4927 L38.8245,57.4927 C40.2630,58.3245 41.5785,58.3822 42.5902,57.8047 L44.9767,56.4307 C46.1737,55.7115 46.9267,54.0855 46.9267,51.7897 L46.9267,24.8498 C46.9267,20.5987 44.3430,15.6607 41.1540,13.8195 Z" style="fill-rule: evenodd; fill: url(#grad6695); "/>
    <defs xmlns="http://www.w3.org/2000/svg" xmlns:xlink="http://www.w3.org/1999/xlink">
      <linearGradient id="grad6696">
        <stop offset="0%" stop-color="#ededed" stop-opacity="1.0000"/>
        <stop offset="100%" stop-color="#7f8787" stop-opacity="1.0000"/>
      </linearGradient>
      <linearGradient xlink:href="#grad6696" id="grad6697" x1="0" y1="0" x2="0" y2="1" gradientTransform="rotate(135 .5 .5)" gradientUnits="objectBoundingBox">
  </linearGradient>
    </defs>
    <path xmlns="http://www.w3.org/2000/svg" d="  M44.5972,53.1293 C44.5972,57.3802 42.0120,59.3340 38.8245,57.4928 L33.6285,54.4928 C30.4395,52.6530 27.8557,47.7150 27.8557,43.4640 L27.8557,16.5240 C27.8557,12.2730 30.4395,10.3193 33.6285,12.1598 L38.8245,15.1597 C42.0120,17.0010 44.5972,21.9390 44.5972,26.1907 L44.5972,53.1293 Z" style="fill-rule: evenodd; fill: url(#grad6697); "/>
    <path xmlns="http://www.w3.org/2000/svg" d="  M32.9767,35.8958 C32.9767,36.5333 32.3955,36.7148 31.6777,36.3000 C30.9615,35.8868 30.3787,35.0340 30.3787,34.3958 C30.3787,33.7583 30.9615,33.5768 31.6777,33.9915 C32.3955,34.4063 32.9767,35.2583 32.9767,35.8958 Z" style="fill-rule: evenodd; fill: #333333; "/>
    <defs xmlns="http://www.w3.org/2000/svg">
      <radialGradient id="grad6698" cx="0.0000%" cy="0.0000%" r="100.0000%">
        <stop offset="0%" stop-color="#669999" stop-opacity="1.0000"/>
        <stop offset="100%" stop-color="#ffffff" stop-opacity="1.0000"/>
      </radialGradient>
    </defs>
    <path xmlns="http://www.w3.org/2000/svg" d="  M31.6777,35.9910 C31.1550,35.6895 30.7267,35.0640 30.7267,34.5968 C30.7267,34.1310 31.1542,33.9990 31.6777,34.3005 C32.2020,34.6035 32.6302,35.2290 32.6302,35.6948 C32.6302,36.1605 32.2020,36.2940 31.6777,35.9910 Z" style="fill-rule: evenodd; fill: url(#grad6698); "/>
    <path xmlns="http://www.w3.org/2000/svg" d="  M42.0750,41.1488 C42.0735,41.7863 41.4922,41.9678 40.7760,41.5530 C40.0582,41.1383 39.4770,40.2863 39.4770,39.6488 C39.4770,39.0113 40.0582,38.8298 40.7760,39.2430 C41.4922,39.6578 42.0750,40.5098 42.0750,41.1488 Z" style="fill-rule: evenodd; fill: #333333; "/>
    <defs xmlns="http://www.w3.org/2000/svg">
      <radialGradient id="grad6699" cx="0.0000%" cy="0.0000%" r="100.0000%">
        <stop offset="0%" stop-color="#669999" stop-opacity="1.0000"/>
        <stop offset="100%" stop-color="#ffffff" stop-opacity="1.0000"/>
      </radialGradient>
    </defs>
    <path xmlns="http://www.w3.org/2000/svg" d="  M40.7760,41.2440 C40.2517,40.9410 39.8250,40.3170 39.8250,39.8498 C39.8250,39.3840 40.2510,39.2520 40.7760,39.5535 C41.3002,39.8565 41.7270,40.4805 41.7270,40.9463 C41.7262,41.4135 41.3002,41.5455 40.7760,41.2440 Z" style="fill-rule: evenodd; fill: url(#grad6699); "/>
    <path xmlns="http://www.w3.org/2000/svg" d="  M33.5542,38.9235 C33.5542,39.5610 32.9730,39.7425 32.2552,39.3278 C31.5375,38.9130 30.9562,38.0610 30.9562,37.4235 C30.9562,36.7860 31.5375,36.6045 32.2552,37.0193 C32.9722,37.4325 33.5542,38.2860 33.5542,38.9235 Z" style="fill-rule: evenodd; fill: #333333; "/>
    <defs xmlns="http://www.w3.org/2000/svg">
      <radialGradient id="grad6700" cx="0.0000%" cy="0.0000%" r="100.0000%">
        <stop offset="0%" stop-color="#669999" stop-opacity="1.0000"/>
        <stop offset="100%" stop-color="#ffffff" stop-opacity="1.0000"/>
      </radialGradient>
    </defs>
    <path xmlns="http://www.w3.org/2000/svg" d="  M32.2545,39.0188 C31.7302,38.7173 31.3035,38.0903 31.3035,37.6245 C31.3035,37.1588 31.7295,37.0253 32.2545,37.3283 C32.7795,37.6313 33.2070,38.2568 33.2070,38.7210 C33.2070,39.1890 32.7795,39.3218 32.2545,39.0188 Z" style="fill-rule: evenodd; fill: url(#grad6700); "/>
    <path xmlns="http://www.w3.org/2000/svg" d="  M41.4967,43.5083 C41.4967,44.1473 40.9155,44.3273 40.1992,43.9140 C39.4815,43.4993 38.9002,42.6473 38.9002,42.0083 C38.9002,41.3708 39.4815,41.1908 40.1977,41.6040 C40.9147,42.0188 41.4967,42.8715 41.4967,43.5083 Z" style="fill-rule: evenodd; fill: #333333; "/>
    <defs xmlns="http://www.w3.org/2000/svg">
      <radialGradient id="grad6701" cx="0.0000%" cy="0.0000%" r="100.0000%">
        <stop offset="0%" stop-color="#669999" stop-opacity="1.0000"/>
        <stop offset="100%" stop-color="#ffffff" stop-opacity="1.0000"/>
      </radialGradient>
    </defs>
    <path xmlns="http://www.w3.org/2000/svg" d="  M40.1985,43.6035 C39.6742,43.3020 39.2475,42.6765 39.2475,42.2108 C39.2475,41.7450 39.6735,41.6115 40.1985,41.9145 C40.7212,42.2175 41.1480,42.8415 41.1480,43.3073 C41.1480,43.7730 40.7212,43.9073 40.1985,43.6035 Z" style="fill-rule: evenodd; fill: url(#grad6701); "/>
    <path xmlns="http://www.w3.org/2000/svg" d="  M38.2477,40.5818 C38.2477,42.0698 37.3425,42.7538 36.2265,42.1095 C35.1120,41.4653 34.2067,39.7365 34.2067,38.2500 C34.2067,36.7620 35.1120,36.0780 36.2265,36.7223 C37.3425,37.3665 38.2477,39.0953 38.2477,40.5818 Z" style="fill-rule: evenodd; fill: #333333; "/>
    <defs xmlns="http://www.w3.org/2000/svg">
      <radialGradient id="grad6702" cx="100.0000%" cy="100.0000%" r="100.0000%">
        <stop offset="0%" stop-color="#669999" stop-opacity="1.0000"/>
        <stop offset="100%" stop-color="#ffffff" stop-opacity="1.0000"/>
      </radialGradient>
    </defs>
    <path xmlns="http://www.w3.org/2000/svg" d="  M36.2257,41.7240 C35.2725,41.1735 34.4940,39.6878 34.4940,38.4150 C34.4940,37.1423 35.2717,36.5550 36.2257,37.1070 C37.1805,37.6575 37.9590,39.1433 37.9590,40.4160 C37.9590,41.6888 37.1812,42.2768 36.2257,41.7240 Z" style="fill-rule: evenodd; fill: url(#grad6702); "/>
    <path xmlns="http://www.w3.org/2000/svg" d="  M36.2257,40.2450 C35.8845,40.0470 35.6047,39.5138 35.6047,39.0570 C35.6047,38.6003 35.8845,38.3888 36.2257,38.5883 C36.5700,38.7863 36.8482,39.3180 36.8482,39.7748 C36.8482,40.2315 36.5700,40.4423 36.2257,40.2450 Z" style="fill-rule: evenodd; fill: #ffffff; "/>
    <path xmlns="http://www.w3.org/2000/svg" d="  M36.6510,38.3933 L35.8027,37.9043 L36.2242,37.4018 L36.6510,38.3933 Z" style="fill-rule: evenodd; fill: #333333; "/>
    <path xmlns="http://www.w3.org/2000/svg" d="  M36.6945,40.8105 L35.8462,40.3208 L36.2700,41.3115 L36.6945,40.8105 Z" style="fill-rule: evenodd; fill: #333333; "/>
    <path xmlns="http://www.w3.org/2000/svg" d="  M35.3527,38.3040 L35.3512,39.4350 L34.7917,38.5470 L35.3527,38.3040 Z" style="fill-rule: evenodd; fill: #333333; "/>
    <path xmlns="http://www.w3.org/2000/svg" d="  M37.1445,39.2798 L37.1460,40.4115 L37.7055,40.1715 L37.1445,39.2798 Z" style="fill-rule: evenodd; fill: #333333; "/>
    <path xmlns="http://www.w3.org/2000/svg" d="  M42.2873,37.2525 C42.2873,38.5282 41.5125,39.1140 40.5555,38.5620 L31.8968,33.5625 C30.9405,33.0105 30.1650,31.5292 30.1650,30.2535 L30.1650,16.3980 C30.1650,15.1230 30.9383,14.5365 31.8968,15.0885 L40.5555,20.0880 C41.5118,20.6408 42.2873,22.1220 42.2873,23.3977 L42.2873,37.2525 Z" style="fill-rule: evenodd; fill: #ffffff; "/>
    <defs xmlns="http://www.w3.org/2000/svg" xmlns:xlink="http://www.w3.org/1999/xlink">
      <linearGradient id="grad6703">
        <stop offset="0%" stop-color="#66ccff" stop-opacity="1.0000"/>
        <stop offset="100%" stop-color="#1e729f" stop-opacity="1.0000"/>
      </linearGradient>
      <linearGradient xlink:href="#grad6703" id="grad6704" x1="0" y1="0" x2="0" y2="1" gradientTransform="rotate(-0 .5 .5)" gradientUnits="objectBoundingBox">
  </linearGradient>
    </defs>
    <path xmlns="http://www.w3.org/2000/svg" d="  M40.5563,37.7925 L31.8960,32.7930 C31.2600,32.4255 30.7418,31.4347 30.7418,30.5857 L30.7418,16.7317 C30.7418,15.8820 31.2600,15.4905 31.8975,15.8580 L40.5563,20.8575 C41.1938,21.2250 41.7105,22.2157 41.7105,23.0647 L41.7105,36.9195 C41.7105,37.7677 41.1930,38.1600 40.5563,37.7925 Z" style="fill-rule: evenodd; fill: url(#grad6704); "/>
    <defs xmlns="http://www.w3.org/2000/svg" xmlns:xlink="http://www.w3.org/1999/xlink">
      <linearGradient id="grad6705">
        <stop offset="0%" stop-color="#66ccff" stop-opacity="0.8980"/>
        <stop offset="100%" stop-color="#1e729f" stop-opacity="0.8980"/>
      </linearGradient>
      <linearGradient xlink:href="#grad6705" id="grad6706" x1="0" y1="0" x2="0" y2="1" gradientTransform="rotate(225 .5 .5)" gradientUnits="objectBoundingBox">
  </linearGradient>
    </defs>
    <path xmlns="http://www.w3.org/2000/svg" d="  M31.8960,32.7930 L40.5563,37.7925 C41.1938,38.1600 41.7105,37.7678 41.7105,36.9195 L41.7105,23.0648 C41.7105,22.2150 41.1938,21.2250 40.5563,20.8575 L39.3930,20.1863 C35.9085,20.9850 32.9535,22.9065 30.7418,25.8360 L30.7418,30.5858 C30.7418,31.4355 31.2600,32.4255 31.8960,32.7930 Z" style="fill-rule: evenodd; fill: url(#grad6706); "/>
    <path xmlns="http://www.w3.org/2000/svg" d="  M42.2655,45.8167 L30.1875,38.8455 C30.0278,38.7533 29.8988,38.8500 29.8988,39.0622 L29.8988,44.9393 C29.8988,47.5995 31.7108,50.8087 33.7058,51.9600 L38.7465,54.8692 C40.7400,56.0220 42.5535,54.9045 42.5535,52.2442 L42.5535,46.3687 C42.5543,46.1572 42.4253,45.9090 42.2655,45.8167 Z" style="fill-rule: evenodd; fill: #7f8787; "/>
    <path xmlns="http://www.w3.org/2000/svg" d="  M38.1870,48.5182 C38.1855,48.7072 38.0610,48.7890 37.9073,48.6997 L34.5473,46.7587 C34.3920,46.6710 34.2675,46.4452 34.2675,46.2547 L34.2675,44.5440 C34.2675,44.3535 34.3920,44.2732 34.5473,44.3625 L37.9065,46.3020 C38.0618,46.3912 38.1878,46.6170 38.1878,46.8060 L38.1878,48.5182 L38.1870,48.5182 Z" style="fill-rule: evenodd; fill: #ffffff; "/>
    <path xmlns="http://www.w3.org/2000/svg" d="  M33.9863,46.0942 C33.9863,46.2832 33.8618,46.3650 33.7065,46.2742 L30.3465,44.3347 C30.1928,44.2455 30.0668,44.0197 30.0683,43.8307 L30.0668,42.1185 C30.0668,41.9295 30.1928,41.8492 30.3465,41.9385 L33.7065,43.8780 C33.8618,43.9672 33.9863,44.1930 33.9863,44.3820 L33.9863,46.0942 Z" style="fill-rule: evenodd; fill: #ffffff; "/>
    <path xmlns="http://www.w3.org/2000/svg" d="  M42.3870,50.9437 C42.3855,51.1327 42.2610,51.2130 42.1057,51.1237 L38.7465,49.1842 C38.5913,49.0950 38.4653,48.8692 38.4653,48.6787 L38.4653,46.9680 C38.4653,46.7775 38.5913,46.6972 38.7465,46.7865 L42.1057,48.7260 C42.2610,48.8152 42.3855,49.0425 42.3870,49.2315 L42.3870,50.9437 Z" style="fill-rule: evenodd; fill: #ffffff; "/>
    <path xmlns="http://www.w3.org/2000/svg" d="  M38.1870,51.2047 C38.1855,51.3922 38.0610,51.4740 37.9073,51.3847 L34.5473,49.4452 C34.3920,49.3560 34.2675,49.1302 34.2675,48.9412 L34.2675,47.2290 C34.2675,47.0400 34.3920,46.9582 34.5473,47.0475 L37.9073,48.9885 C38.0610,49.0777 38.1855,49.3035 38.1855,49.4910 L38.1870,51.2047 Z" style="fill-rule: evenodd; fill: #ffffff; "/>
    <path xmlns="http://www.w3.org/2000/svg" d="  M33.7065,46.5630 L30.3465,44.6235 C30.2310,44.5560 30.1328,44.5852 30.0885,44.6835 L30.0885,44.7405 C30.0885,45.5055 30.2280,46.3080 30.4665,47.0902 L33.7065,48.9592 C33.8617,49.0500 33.9862,48.9682 33.9862,48.7792 L33.9862,47.0670 C33.9862,46.8780 33.8617,46.6522 33.7065,46.5630 Z" style="fill-rule: evenodd; fill: #ffffff; "/>
    <path xmlns="http://www.w3.org/2000/svg" d="  M41.9872,53.7405 C42.2258,53.2350 42.3637,52.5922 42.3637,51.8272 L42.3637,51.7687 C42.3210,51.6225 42.2220,51.4785 42.1058,51.4125 L38.7465,49.4730 C38.5913,49.3837 38.4653,49.4640 38.4653,49.6530 L38.4653,51.3652 C38.4653,51.5542 38.5913,51.7800 38.7465,51.8692 L41.9872,53.7405 Z" style="fill-rule: evenodd; fill: #ffffff; "/>
    <path xmlns="http://www.w3.org/2000/svg" d="  M38.1870,53.8897 C38.1855,54.0787 38.0610,54.1590 37.9073,54.0697 L34.5473,52.1302 C34.3920,52.0410 34.2675,51.8152 34.2675,51.6262 L34.2675,49.9140 C34.2675,49.7250 34.3920,49.6432 34.5473,49.7325 L37.9065,51.6720 C38.0618,51.7612 38.1863,51.9885 38.1878,52.1775 L38.1878,53.8897 L38.1870,53.8897 Z" style="fill-rule: evenodd; fill: #ffffff; "/>
    <path xmlns="http://www.w3.org/2000/svg" d="  M42.3855,48.2572 C42.3855,48.4477 42.2610,48.5280 42.1058,48.4387 L38.7465,46.4992 C38.5913,46.4100 38.4653,46.1842 38.4653,45.9937 L38.4653,44.2830 C38.4653,44.0925 38.5913,44.0122 38.7465,44.1015 L42.1058,46.0410 C42.2610,46.1302 42.3855,46.3560 42.3855,46.5465 L42.3855,48.2572 Z" style="fill-rule: evenodd; fill: #ffffff; "/>
    <path xmlns="http://www.w3.org/2000/svg" d="  M33.9863,43.4092 C33.9863,43.5982 33.8618,43.6785 33.7065,43.5892 L30.3465,41.6497 C30.1928,41.5605 30.0683,41.3347 30.0668,41.1457 L30.0668,39.4335 C30.0668,39.2445 30.1928,39.1627 30.3465,39.2535 L33.7065,41.1930 C33.8618,41.2822 33.9863,41.5080 33.9863,41.6970 L33.9863,43.4092 Z" style="fill-rule: evenodd; fill: #ffffff; "/>
    <path xmlns="http://www.w3.org/2000/svg" d="  M38.1870,45.8332 C38.1855,46.0222 38.0610,46.1025 37.9073,46.0147 L34.5473,44.0737 C34.3920,43.9845 34.2675,43.7587 34.2675,43.5697 L34.2675,41.8575 C34.2675,41.6685 34.3920,41.5882 34.5473,41.6775 L37.9073,43.6170 C38.0610,43.7062 38.1855,43.9320 38.1855,44.1210 L38.1870,45.8332 Z" style="fill-rule: evenodd; fill: #ffffff; "/>
    <path xmlns="http://www.w3.org/2000/svg" d="  M41.8673,53.9602 L38.7473,52.1587 C38.5920,52.0695 38.4660,52.1497 38.4660,52.3387 L38.4660,54.0510 C38.4660,54.2400 38.5920,54.4657 38.7473,54.5550 C40.0770,55.3237 41.2403,55.0282 41.8673,53.9602 Z" style="fill-rule: evenodd; fill: #ffffff; "/>
    <path xmlns="http://www.w3.org/2000/svg" d="  M33.7065,49.2480 L30.5820,47.4450 C31.1925,49.1940 32.3123,50.7907 33.6008,51.5850 L33.7065,51.6450 C33.8618,51.7357 33.9863,51.6540 33.9863,51.4650 L33.9863,49.7542 C33.9863,49.5630 33.8618,49.3372 33.7065,49.2480 Z" style="fill-rule: evenodd; fill: #ffffff; "/>
    <defs xmlns="http://www.w3.org/2000/svg" xmlns:xlink="http://www.w3.org/1999/xlink">
      <linearGradient id="grad6707">
        <stop offset="0%" stop-color="#ededed" stop-opacity="1.0000"/>
        <stop offset="100%" stop-color="#7f8787" stop-opacity="1.0000"/>
      </linearGradient>
      <linearGradient xlink:href="#grad6707" id="grad6708" x1="0" y1="0" x2="0" y2="1" gradientTransform="rotate(225 .5 .5)" gradientUnits="objectBoundingBox">
  </linearGradient>
    </defs>
    <path xmlns="http://www.w3.org/2000/svg" d="  M37.8990,48.3105 L34.5548,46.3792 L34.5548,44.7532 L37.8990,46.6815 L37.8990,48.3105 Z" style="fill-rule: evenodd; fill: url(#grad6708); "/>
    <defs xmlns="http://www.w3.org/2000/svg" xmlns:xlink="http://www.w3.org/1999/xlink">
      <linearGradient id="grad6709">
        <stop offset="0%" stop-color="#ededed" stop-opacity="1.0000"/>
        <stop offset="100%" stop-color="#7f8787" stop-opacity="1.0000"/>
      </linearGradient>
      <linearGradient xlink:href="#grad6709" id="grad6710" x1="0" y1="0" x2="0" y2="1" gradientTransform="rotate(225 .5 .5)" gradientUnits="objectBoundingBox">
  </linearGradient>
    </defs>
    <path xmlns="http://www.w3.org/2000/svg" d="  M33.6975,45.8842 L30.3563,43.9552 L30.3563,42.3277 L33.6975,44.2567 L33.6975,45.8842 Z" style="fill-rule: evenodd; fill: url(#grad6710); "/>
    <defs xmlns="http://www.w3.org/2000/svg" xmlns:xlink="http://www.w3.org/1999/xlink">
      <linearGradient id="grad6711">
        <stop offset="0%" stop-color="#ededed" stop-opacity="1.0000"/>
        <stop offset="100%" stop-color="#7f8787" stop-opacity="1.0000"/>
      </linearGradient>
      <linearGradient xlink:href="#grad6711" id="grad6712" x1="0" y1="0" x2="0" y2="1" gradientTransform="rotate(225 .5 .5)" gradientUnits="objectBoundingBox">
  </linearGradient>
    </defs>
    <path xmlns="http://www.w3.org/2000/svg" d="  M42.0968,50.7345 L38.7540,48.8055 L38.7540,47.1780 L42.0968,49.1055 L42.0968,50.7345 Z" style="fill-rule: evenodd; fill: url(#grad6712); "/>
    <defs xmlns="http://www.w3.org/2000/svg" xmlns:xlink="http://www.w3.org/1999/xlink">
      <linearGradient id="grad6713">
        <stop offset="0%" stop-color="#ededed" stop-opacity="1.0000"/>
        <stop offset="100%" stop-color="#7f8787" stop-opacity="1.0000"/>
      </linearGradient>
      <linearGradient xlink:href="#grad6713" id="grad6714" x1="0" y1="0" x2="0" y2="1" gradientTransform="rotate(225 .5 .5)" gradientUnits="objectBoundingBox">
  </linearGradient>
    </defs>
    <path xmlns="http://www.w3.org/2000/svg" d="  M37.8990,50.9955 L34.5548,49.0650 L34.5548,47.4390 L37.8990,49.3680 L37.8990,50.9955 Z" style="fill-rule: evenodd; fill: url(#grad6714); "/>
    <defs xmlns="http://www.w3.org/2000/svg" xmlns:xlink="http://www.w3.org/1999/xlink">
      <linearGradient id="grad6715">
        <stop offset="0%" stop-color="#ededed" stop-opacity="1.0000"/>
        <stop offset="100%" stop-color="#7f8787" stop-opacity="1.0000"/>
      </linearGradient>
      <linearGradient xlink:href="#grad6715" id="grad6716" x1="0" y1="0" x2="0" y2="1" gradientTransform="rotate(225 .5 .5)" gradientUnits="objectBoundingBox">
  </linearGradient>
    </defs>
    <path xmlns="http://www.w3.org/2000/svg" d="  M33.6975,48.5707 L30.6503,46.8097 C30.4800,46.1872 30.3878,45.5835 30.3780,45.0127 L33.6975,46.9417 L33.6975,48.5707 Z" style="fill-rule: evenodd; fill: url(#grad6716); "/>
    <defs xmlns="http://www.w3.org/2000/svg" xmlns:xlink="http://www.w3.org/1999/xlink">
      <linearGradient id="grad6717">
        <stop offset="0%" stop-color="#ededed" stop-opacity="1.0000"/>
        <stop offset="100%" stop-color="#7f8787" stop-opacity="1.0000"/>
      </linearGradient>
      <linearGradient xlink:href="#grad6717" id="grad6718" x1="0" y1="0" x2="0" y2="1" gradientTransform="rotate(225 .5 .5)" gradientUnits="objectBoundingBox">
  </linearGradient>
    </defs>
    <path xmlns="http://www.w3.org/2000/svg" d="  M41.8013,53.2500 L38.7555,51.4905 L38.7555,49.8645 L42.0735,51.7792 C42.0623,52.3328 41.9708,52.8263 41.8013,53.2500 Z" style="fill-rule: evenodd; fill: url(#grad6718); "/>
    <defs xmlns="http://www.w3.org/2000/svg" xmlns:xlink="http://www.w3.org/1999/xlink">
      <linearGradient id="grad6719">
        <stop offset="0%" stop-color="#ededed" stop-opacity="1.0000"/>
        <stop offset="100%" stop-color="#7f8787" stop-opacity="1.0000"/>
      </linearGradient>
      <linearGradient xlink:href="#grad6719" id="grad6720" x1="0" y1="0" x2="0" y2="1" gradientTransform="rotate(225 .5 .5)" gradientUnits="objectBoundingBox">
  </linearGradient>
    </defs>
    <path xmlns="http://www.w3.org/2000/svg" d="  M37.8990,53.6805 L34.5548,51.7515 L34.5548,50.1240 L37.8990,52.0530 L37.8990,53.6805 Z" style="fill-rule: evenodd; fill: url(#grad6720); "/>
    <defs xmlns="http://www.w3.org/2000/svg" xmlns:xlink="http://www.w3.org/1999/xlink">
      <linearGradient id="grad6721">
        <stop offset="0%" stop-color="#ededed" stop-opacity="1.0000"/>
        <stop offset="100%" stop-color="#7f8787" stop-opacity="1.0000"/>
      </linearGradient>
      <linearGradient xlink:href="#grad6721" id="grad6722" x1="0" y1="0" x2="0" y2="1" gradientTransform="rotate(225 .5 .5)" gradientUnits="objectBoundingBox">
  </linearGradient>
    </defs>
    <path xmlns="http://www.w3.org/2000/svg" d="  M42.0983,48.0495 L38.7540,46.1190 L38.7555,44.4930 L42.0968,46.4205 L42.0983,48.0495 Z" style="fill-rule: evenodd; fill: url(#grad6722); "/>
    <defs xmlns="http://www.w3.org/2000/svg" xmlns:xlink="http://www.w3.org/1999/xlink">
      <linearGradient id="grad6723">
        <stop offset="0%" stop-color="#ededed" stop-opacity="1.0000"/>
        <stop offset="100%" stop-color="#7f8787" stop-opacity="1.0000"/>
      </linearGradient>
      <linearGradient xlink:href="#grad6723" id="grad6724" x1="0" y1="0" x2="0" y2="1" gradientTransform="rotate(225 .5 .5)" gradientUnits="objectBoundingBox">
  </linearGradient>
    </defs>
    <path xmlns="http://www.w3.org/2000/svg" d="  M33.6975,43.1992 L30.3563,41.2687 L30.3563,39.6428 L33.6975,41.5717 L33.6975,43.1992 Z" style="fill-rule: evenodd; fill: url(#grad6724); "/>
    <defs xmlns="http://www.w3.org/2000/svg" xmlns:xlink="http://www.w3.org/1999/xlink">
      <linearGradient id="grad6725">
        <stop offset="0%" stop-color="#ededed" stop-opacity="1.0000"/>
        <stop offset="100%" stop-color="#7f8787" stop-opacity="1.0000"/>
      </linearGradient>
      <linearGradient xlink:href="#grad6725" id="grad6726" x1="0" y1="0" x2="0" y2="1" gradientTransform="rotate(225 .5 .5)" gradientUnits="objectBoundingBox">
  </linearGradient>
    </defs>
    <path xmlns="http://www.w3.org/2000/svg" d="  M37.8990,45.6255 L34.5548,43.6943 L34.5548,42.0683 L37.8990,43.9980 L37.8990,45.6255 Z" style="fill-rule: evenodd; fill: url(#grad6726); "/>
    <defs xmlns="http://www.w3.org/2000/svg" xmlns:xlink="http://www.w3.org/1999/xlink">
      <linearGradient id="grad6727">
        <stop offset="0%" stop-color="#ededed" stop-opacity="1.0000"/>
        <stop offset="100%" stop-color="#7f8787" stop-opacity="1.0000"/>
      </linearGradient>
      <linearGradient xlink:href="#grad6727" id="grad6728" x1="0" y1="0" x2="0" y2="1" gradientTransform="rotate(225 .5 .5)" gradientUnits="objectBoundingBox">
  </linearGradient>
    </defs>
    <path xmlns="http://www.w3.org/2000/svg" d="  M38.7540,54.1755 L38.7555,52.5495 L41.3160,54.0262 C40.6890,54.6795 39.7493,54.7470 38.7540,54.1755 Z" style="fill-rule: evenodd; fill: url(#grad6728); "/>
    <defs xmlns="http://www.w3.org/2000/svg" xmlns:xlink="http://www.w3.org/1999/xlink">
      <linearGradient id="grad6729">
        <stop offset="0%" stop-color="#ededed" stop-opacity="1.0000"/>
        <stop offset="100%" stop-color="#7f8787" stop-opacity="1.0000"/>
      </linearGradient>
      <linearGradient xlink:href="#grad6729" id="grad6730" x1="0" y1="0" x2="0" y2="1" gradientTransform="rotate(225 .5 .5)" gradientUnits="objectBoundingBox">
  </linearGradient>
    </defs>
    <path xmlns="http://www.w3.org/2000/svg" d="  M33.6975,51.2542 L33.6008,51.1988 C32.6310,50.6010 31.7378,49.4895 31.1310,48.1447 L33.6975,49.6275 L33.6975,51.2542 Z" style="fill-rule: evenodd; fill: url(#grad6730); "/>
    <path xmlns="http://www.w3.org/2000/svg" d="  M46.5225,25.7348 C46.4347,25.7348 46.1107,25.7348 46.0230,25.7348 C45.6172,25.7348 45.2880,27.5258 45.2880,29.7345 C45.2880,31.9432 45.6172,33.7335 46.0230,33.7335 C46.1107,33.7335 46.4347,33.7335 46.5225,33.7335 C46.9282,33.7335 47.2575,31.9432 47.2575,29.7345 C47.2575,27.5258 46.9282,25.7348 46.5225,25.7348 Z" style="fill-rule: evenodd; fill: #4d4d4d; "/>
    <defs xmlns="http://www.w3.org/2000/svg">
      <linearGradient id="grad6731">
        <stop offset="0%" stop-color="#ededed" stop-opacity="1.0000"/>
        <stop offset="100%" stop-color="#7f8787" stop-opacity="1.0000"/>
      </linearGradient>
    </defs>
    <path xmlns="http://www.w3.org/2000/svg" d="  M47.2575,29.7345 A0.7343,3.9990 180.0000 1,1 46.5232,25.7355 A0.7343,3.9990 180.0000 0,1 47.2575,29.7345 Z" style="fill-rule: evenodd; fill: url(#grad6731); "/>
    <!--converted by libvisio2svg-->
  </g>
</svg>
