<svg xmlns="http://www.w3.org/2000/svg" xmlns:xlink="http://www.w3.org/1999/xlink" version="1.1" width="0.8223000000" height="0.8190000000" viewBox="0 0 59.2072 58.9665">
  <title><![CDATA[Voice Workload]]></title>
  <g transform=" scale(1.000000) ">
    <path xmlns="http://www.w3.org/2000/svg" d="  M50.1000,4.9883 L41.8020,0.0000 L23.6985,10.4063 L23.6985,36.4620 L24.1005,36.6975 C25.1760,38.0730 27.4057,39.3855 29.8657,40.0830 L33.0727,41.9670 L50.1000,32.1877 L50.1000,30.2632 L50.1000,30.2385 L49.7295,30.0630 L50.1000,29.8500 L50.1000,28.2855 L50.1000,28.2607 L49.7295,28.0853 L50.1000,27.8730 L50.1000,26.3077 L50.1000,26.2837 L49.7557,26.1202 L50.1000,25.9237 L50.1000,5.0130 L50.1000,4.9883 Z" style="stroke-width: 1.5000; stroke: #8d98b5; stroke-dasharray: none; stroke-linecap: butt; stroke-linejoin: miter; fill: none; "/>
    <path xmlns="http://www.w3.org/2000/svg" d="  M59.2072,8.7540 C59.2072,7.7017 58.4678,6.4215 57.5565,5.8950 C57.0802,5.6198 56.6527,5.6070 56.3512,5.8057 L56.3498,5.8028 L53.7772,7.2878 L48.8715,10.1205 C48.8963,10.1040 48.9255,10.0912 48.9547,10.0778 C48.9547,10.0778 26.4968,23.0145 26.5012,23.0055 L22.3515,27.1635 L21.3667,28.1775 C21.3667,28.1775 21.3607,28.1835 21.3585,28.1865 L21.3427,28.2023 L21.3435,28.2030 C21.3090,28.2420 21.2445,28.3192 21.2085,28.3867 C21.0270,28.7302 21.2992,29.0122 21.6277,29.0055 C21.6368,29.0055 21.6600,29.0010 21.6908,28.9950 L21.6952,29.0055 C21.6952,29.0055 21.8107,28.9755 22.0088,28.9245 C22.4527,28.8188 23.1233,28.6492 23.1547,28.6342 C23.1570,28.6342 23.1555,28.6283 23.1555,28.6238 C24.9983,28.1422 27.9675,27.3667 28.2900,27.2782 C28.7610,27.1492 29.4780,26.8282 29.4780,26.8282 C29.2935,26.8575 51.4305,13.9785 51.4305,13.9785 C51.3630,14.0550 51.2873,14.1180 51.2003,14.1630 L55.1820,11.8650 L55.1835,11.8650 L58.6830,9.8437 L58.6808,9.8430 C59.0032,9.6810 59.2072,9.3045 59.2072,8.7540 Z" style="stroke-width: 1.5000; stroke: #8d98b5; stroke-dasharray: none; stroke-linecap: butt; stroke-linejoin: miter; fill: none; "/>
    <path xmlns="http://www.w3.org/2000/svg" d="  M36.4680,41.6767 C36.4853,41.5935 36.5047,41.5125 36.5205,41.4292 C36.5205,41.4262 36.5220,41.4248 36.5220,41.4217 C36.6975,40.4888 36.7898,39.4898 36.7973,38.4405 C36.7973,38.4375 36.7973,38.4345 36.7973,38.4315 C36.8295,34.0897 35.4307,28.8855 32.5972,23.8815 C27.0577,14.0940 18.1282,8.7600 12.5700,11.8778 C12.0487,12.0368 11.5462,12.2520 11.0700,12.5325 C8.2297,14.2073 6.8362,17.7368 6.8370,22.0560 C6.8378,25.3747 7.6612,29.1735 9.2992,32.9978 C8.9557,33.4590 8.6303,33.9555 8.3295,34.4857 C6.1005,38.4232 6.0900,42.6743 8.3062,43.9793 C8.4532,44.0655 8.6055,44.1360 8.7637,44.1915 C8.7727,44.1975 8.7795,44.2050 8.7885,44.2103 C8.9085,44.2808 9.0330,44.3393 9.1620,44.3903 C9.3233,44.5500 9.4958,44.6963 9.6915,44.8125 C11.4105,45.8235 13.9613,44.7668 16.0613,42.4058 C16.6575,41.7742 17.2155,41.0228 17.6985,40.1708 C17.9565,39.7155 18.1755,39.2565 18.3630,38.7983 C19.9410,35.2463 19.7475,31.7197 17.7637,30.5513 C17.6437,30.4808 17.5192,30.4223 17.3918,30.3713 C17.2305,30.2115 17.0580,30.0653 16.8608,29.9490 C16.7152,29.8635 16.5630,29.7930 16.4063,29.7368 C16.3965,29.7308 16.3890,29.7225 16.3785,29.7173 C14.7945,28.7857 12.5025,29.6100 10.5097,31.5938 C10.4595,31.4707 10.4048,31.3477 10.3568,31.2248 C7.3095,23.4878 7.6530,16.0312 11.3902,12.7230 C12.4320,12.1470 13.5922,11.8680 14.8350,11.8680 C20.0790,11.8590 26.7548,16.8285 31.2120,24.7132 C34.0073,29.6528 35.4045,34.7872 35.4045,39.0735 C35.4045,39.6465 35.3767,40.2030 35.3265,40.7422 C35.3003,40.7250 35.2755,40.7040 35.2477,40.6883 C34.9800,40.5300 34.6928,40.4243 34.3890,40.3642 C34.3102,40.3043 34.2338,40.2427 34.1490,40.1917 C34.0462,40.1318 33.9397,40.0822 33.8325,40.0365 C33.8123,40.0275 33.7913,40.0177 33.7710,40.0103 C33.6637,39.9675 33.5558,39.9323 33.4440,39.9030 C33.4267,39.8985 33.4088,39.8955 33.3930,39.8910 C33.2775,39.8647 33.1598,39.8430 33.0398,39.8295 C33.0383,39.8295 33.0383,39.8280 33.0367,39.8280 C32.1840,39.7140 30.2805,40.1123 30.1020,40.1565 C28.4715,40.5728 26.6392,42.1372 25.3478,44.4180 C24.2212,46.4070 23.7630,48.4920 23.9707,50.0872 C24.0278,50.5253 24.5745,52.6935 24.8730,53.0550 C24.8730,53.0565 24.8745,53.0580 24.8745,53.0595 C24.9420,53.2057 25.0155,53.3467 25.0980,53.4787 C25.1130,53.5020 25.1310,53.5230 25.1460,53.5463 C25.1985,53.6265 25.2525,53.7060 25.3118,53.7810 L20.2177,56.7285 C19.0837,57.3892 16.9628,57.9165 14.7660,57.9105 C12.9128,57.9120 11.0018,57.5460 9.5243,56.6745 L7.2893,55.4002 C7.4115,54.9638 7.3508,54.5715 7.1018,54.4245 C7.1018,54.4245 6.3037,53.4855 5.7968,53.1180 C5.3032,52.7603 2.9670,51.2355 2.9670,51.2355 C2.9670,51.2355 2.1420,51.0600 2.0483,51.0510 C1.5578,51.0053 0.9172,51.4643 0.4958,52.2083 C0.0382,53.0175 0.0000,53.8800 0.3772,54.2498 L0.8580,54.6690 C0.9105,54.7320 0.9720,54.7875 1.0425,54.8288 C1.0425,54.8288 3.4755,56.1195 4.0365,56.3535 C4.5367,56.5627 5.8905,56.5657 5.8905,56.5657 C6.1215,56.7022 6.4507,56.5845 6.7433,56.3063 C7.5247,56.7518 8.9955,57.5865 8.9955,57.5865 C10.6988,58.5855 12.7808,58.9635 14.7675,58.9665 C17.1323,58.9605 19.3583,58.4362 20.7487,57.6405 L26.1735,54.5040 C26.4135,54.6315 26.6685,54.7238 26.9370,54.7763 C27.0150,54.8347 27.0907,54.8978 27.1763,54.9480 C27.1875,54.9555 27.1995,54.9600 27.2108,54.9667 C27.3690,55.1205 27.5370,55.2615 27.7275,55.3740 C29.9422,56.6790 33.5460,54.5438 35.7757,50.6063 C37.7482,47.1188 37.9800,43.3905 36.4680,41.6767 Z" style="stroke-width: 1.5000; stroke: #8d98b5; stroke-dasharray: none; stroke-linecap: butt; stroke-linejoin: miter; fill: none; "/>
    <path xmlns="http://www.w3.org/2000/svg" d="  M39.7432,32.2560 L50.1000,26.2823 L49.7558,26.1188 L39.7432,31.8360 L39.7432,32.2560 Z" style="fill-rule: evenodd; fill: #3f3f3f; "/>
    <path xmlns="http://www.w3.org/2000/svg" d="  M39.7432,34.2337 L50.1000,28.2600 L49.7295,28.0845 L39.7432,33.8130 L39.7432,34.2337 Z" style="fill-rule: evenodd; fill: #3f3f3f; "/>
    <path xmlns="http://www.w3.org/2000/svg" d="  M39.7432,36.2115 L50.1000,30.2377 L49.7295,30.0622 L39.7432,35.7907 L39.7432,36.2115 Z" style="fill-rule: evenodd; fill: #3f3f3f; "/>
    <defs xmlns="http://www.w3.org/2000/svg" xmlns:xlink="http://www.w3.org/1999/xlink">
      <linearGradient id="grad6732">
        <stop offset="0%" stop-color="#646c6b" stop-opacity="1.0000"/>
        <stop offset="100%" stop-color="#dae1e1" stop-opacity="1.0000"/>
      </linearGradient>
      <linearGradient xlink:href="#grad6732" id="grad6733" x1="0" y1="0" x2="0" y2="1" gradientTransform="rotate(90 .5 .5)" gradientUnits="objectBoundingBox">
  </linearGradient>
    </defs>
    <path xmlns="http://www.w3.org/2000/svg" d="  M33.0727,14.9640 L23.6985,10.4063 L23.6985,36.4620 L24.1005,36.6975 C24.0135,36.5880 23.9332,36.4747 23.8627,36.3652 L23.8627,25.0283 L23.8627,22.5000 L23.8627,17.0902 L23.8627,11.6355 L32.3355,15.8235 C32.3355,15.8235 32.3677,15.8272 32.3850,15.8287 L32.3850,21.3202 L32.3850,26.6933 L32.3850,29.3797 L32.3850,40.5592 C31.5412,40.4828 30.6915,40.3177 29.8650,40.0830 L33.0720,41.9670 L33.0720,14.9640 L33.0727,14.9640 Z" style="fill-rule: evenodd; fill: url(#grad6733); "/>
    <defs xmlns="http://www.w3.org/2000/svg" xmlns:xlink="http://www.w3.org/1999/xlink">
      <linearGradient id="grad6734">
        <stop offset="0%" stop-color="#85919c" stop-opacity="0.9882"/>
        <stop offset="100%" stop-color="#dadfe1" stop-opacity="0.9882"/>
      </linearGradient>
      <linearGradient xlink:href="#grad6734" id="grad6735" x1="0" y1="0" x2="0" y2="1" gradientTransform="rotate(90 .5 .5)" gradientUnits="objectBoundingBox">
  </linearGradient>
    </defs>
    <path xmlns="http://www.w3.org/2000/svg" d="  M32.0265,29.3760 C32.0265,29.4173 31.9770,29.4533 31.9125,29.4533 C31.9080,29.4533 31.8952,29.4533 31.8952,29.4533 C29.3662,29.4915 26.0677,28.3417 24.2032,25.4903 C24.0757,25.3365 23.9610,25.1820 23.8635,25.0290 L23.8635,36.3660 C23.9347,36.4755 24.0142,36.5888 24.1012,36.6983 C25.1767,38.0738 27.4065,39.3863 29.8665,40.0838 C30.6930,40.3185 31.5427,40.4835 32.3865,40.5600 L32.3865,29.3798 C32.2620,29.3685 32.1390,29.3557 32.0145,29.3400 C32.0212,29.3513 32.0265,29.3633 32.0265,29.3760 Z M31.7730,39.1515 C31.6365,39.5865 30.9187,39.7448 30.1710,39.5093 C29.4240,39.2738 28.9297,38.7285 29.0677,38.2950 C29.2050,37.8600 29.9227,37.7002 30.6697,37.9373 C31.4175,38.1728 31.9110,38.7180 31.7730,39.1515 Z M31.9125,37.4122 C31.9080,37.4122 31.8952,37.4122 31.8952,37.4122 C29.2710,37.4520 25.8202,36.2153 23.9992,33.1245 C23.8687,32.9062 24.0240,32.9265 24.0240,32.9265 C25.1767,34.8750 28.5727,36.9195 31.8495,37.2495 C31.8645,37.2510 31.9125,37.2540 31.9185,37.2540 C31.9815,37.2540 32.0272,37.2938 32.0272,37.3358 C32.0265,37.3770 31.9770,37.4122 31.9125,37.4122 Z M31.9125,34.7595 C31.9080,34.7595 31.8952,34.7595 31.8952,34.7595 C29.2710,34.7993 25.8202,33.5610 23.9992,30.4717 C23.8687,30.2535 24.0240,30.2738 24.0240,30.2738 C25.1767,32.2222 28.5727,34.2668 31.8495,34.5968 C31.8645,34.5982 31.9125,34.6012 31.9185,34.6012 C31.9815,34.6012 32.0272,34.6410 32.0272,34.6815 C32.0265,34.7243 31.9770,34.7595 31.9125,34.7595 Z M31.9125,32.1068 C31.9080,32.1068 31.8952,32.1068 31.8952,32.1068 C29.2710,32.1450 25.8202,30.9083 23.9992,27.8175 C23.8687,27.5993 24.0240,27.6203 24.0240,27.6203 C25.1767,29.5673 28.5727,31.6140 31.8495,31.9425 C31.8645,31.9455 31.9125,31.9485 31.9185,31.9485 C31.9815,31.9485 32.0272,31.9883 32.0272,32.0288 C32.0272,32.0693 31.9770,32.1068 31.9125,32.1068 Z" style="fill-rule: evenodd; fill: url(#grad6735); "/>
    <defs xmlns="http://www.w3.org/2000/svg" xmlns:xlink="http://www.w3.org/1999/xlink">
      <linearGradient id="grad6736">
        <stop offset="0%" stop-color="#85919c" stop-opacity="0.9882"/>
        <stop offset="100%" stop-color="#dadfe1" stop-opacity="0.9882"/>
      </linearGradient>
      <linearGradient xlink:href="#grad6736" id="grad6737" x1="0" y1="0" x2="0" y2="1" gradientTransform="rotate(90 .5 .5)" gradientUnits="objectBoundingBox">
  </linearGradient>
    </defs>
    <path xmlns="http://www.w3.org/2000/svg" d="  M31.8495,21.3300 C31.8645,21.3307 31.9125,21.3345 31.9185,21.3345 C31.9815,21.3345 32.0272,21.3735 32.0272,21.4155 C32.0272,21.4575 31.9777,21.4920 31.9132,21.4920 C31.9087,21.4920 31.8960,21.4927 31.8960,21.4927 C29.4030,21.5295 26.1622,20.4127 24.2842,17.6497 C24.1237,17.4645 23.9827,17.2770 23.8635,17.0895 L23.8635,22.4992 C24.0525,22.7947 24.2977,23.0895 24.5902,23.3775 C24.3795,23.1060 24.1815,22.8180 24.0000,22.5105 C23.8695,22.2923 24.0247,22.3132 24.0247,22.3132 C24.8130,23.6445 26.6497,25.0215 28.7790,25.8645 C29.7817,26.2320 30.8497,26.5050 31.9147,26.6400 C31.9162,26.6400 31.9177,26.6400 31.9192,26.6400 C31.9237,26.6400 31.9282,26.6415 31.9327,26.6422 C32.0692,26.6587 32.2020,26.6745 32.3370,26.6873 C32.3527,26.6880 32.3692,26.6902 32.3865,26.6917 L32.3865,21.3187 C30.4935,21.1492 28.5555,20.5208 26.9677,19.6717 C28.4040,20.5208 30.1425,21.1582 31.8495,21.3300 Z M31.9125,24.1462 C31.9080,24.1462 31.8952,24.1462 31.8952,24.1462 C29.2710,24.1852 25.8202,22.9470 23.9992,19.8578 C23.8687,19.6395 24.0240,19.6597 24.0240,19.6597 C25.1767,21.6075 28.5727,23.6535 31.8495,23.9827 C31.8645,23.9842 31.9125,23.9880 31.9185,23.9880 C31.9815,23.9880 32.0272,24.0262 32.0272,24.0682 C32.0265,24.1102 31.9770,24.1462 31.9125,24.1462 Z" style="fill-rule: evenodd; fill: url(#grad6737); "/>
    <defs xmlns="http://www.w3.org/2000/svg" xmlns:xlink="http://www.w3.org/1999/xlink">
      <linearGradient id="grad6738">
        <stop offset="0%" stop-color="#c8d8dd" stop-opacity="0.9882"/>
        <stop offset="100%" stop-color="#f3f9f7" stop-opacity="0.9882"/>
      </linearGradient>
      <linearGradient xlink:href="#grad6738" id="grad6739" x1="0" y1="0" x2="0" y2="1" gradientTransform="rotate(90 .5 .5)" gradientUnits="objectBoundingBox">
  </linearGradient>
    </defs>
    <path xmlns="http://www.w3.org/2000/svg" d="  M32.3355,26.6887 C32.2005,26.6760 32.0678,26.6602 31.9313,26.6437 C31.9883,26.6490 32.0265,26.6842 32.0265,26.7217 C32.0265,26.7637 31.9770,26.7990 31.9125,26.7990 C31.9080,26.7990 31.8953,26.7990 31.8953,26.7990 C29.5335,26.8342 26.4983,25.8337 24.5895,23.3775 C24.2970,23.0895 24.0518,22.7947 23.8628,22.4992 L23.8628,25.0275 C23.9603,25.1812 24.0750,25.3350 24.2025,25.4887 C24.1328,25.3822 24.0645,25.2742 23.9993,25.1632 C23.8688,24.9450 24.0240,24.9660 24.0240,24.9660 C24.7140,26.1307 26.2043,27.3292 27.9923,28.1767 C28.8488,28.5817 29.7720,28.9065 30.7088,29.1067 C31.0883,29.1885 31.4708,29.2500 31.8495,29.2882 C31.8645,29.2897 31.9125,29.2935 31.9185,29.2935 C31.9628,29.2935 31.9973,29.3130 32.0138,29.3392 C32.1383,29.3550 32.2613,29.3677 32.3858,29.3790 L32.3858,26.6925 C32.3678,26.6917 32.3520,26.6895 32.3355,26.6887 Z" style="fill-rule: evenodd; fill: url(#grad6739); "/>
    <defs xmlns="http://www.w3.org/2000/svg" xmlns:xlink="http://www.w3.org/1999/xlink">
      <linearGradient id="grad6740">
        <stop offset="0%" stop-color="#bdd1dd" stop-opacity="0.9882"/>
        <stop offset="100%" stop-color="#f3f9f7" stop-opacity="0.9882"/>
      </linearGradient>
      <linearGradient xlink:href="#grad6740" id="grad6741" x1="0" y1="0" x2="0" y2="1" gradientTransform="rotate(90 .5 .5)" gradientUnits="objectBoundingBox">
  </linearGradient>
    </defs>
    <path xmlns="http://www.w3.org/2000/svg" d="  M32.3355,15.8242 L23.8628,11.6355 L23.8628,17.0895 C23.9813,17.2770 24.1230,17.4645 24.2835,17.6497 C24.1853,17.5057 24.0900,17.3580 23.9993,17.2042 C23.8688,16.9860 24.0240,17.0070 24.0240,17.0070 C24.5760,17.9400 25.6440,18.8955 26.9670,19.6740 C28.5548,20.5230 30.4928,21.1515 32.3858,21.3210 L32.3858,15.8295 C32.3678,15.8280 32.3355,15.8242 32.3355,15.8242 Z M24.1500,12.3600 L32.1263,16.3035 C28.1708,18.4897 24.3015,14.9640 24.1500,12.3600 Z" style="fill-rule: evenodd; fill: url(#grad6741); "/>
    <path xmlns="http://www.w3.org/2000/svg" d="  M31.9185,37.2540 C31.9125,37.2540 31.8645,37.2510 31.8495,37.2495 C28.5727,36.9202 25.1767,34.8750 24.0240,32.9265 C24.0240,32.9265 23.8687,32.9062 23.9992,33.1245 C25.8202,36.2152 29.2710,37.4520 31.8952,37.4122 C31.8952,37.4122 31.9087,37.4122 31.9125,37.4122 C31.9770,37.4122 32.0265,37.3770 32.0265,37.3357 C32.0265,37.2937 31.9815,37.2540 31.9185,37.2540 Z" style="fill-rule: evenodd; fill: #000000; "/>
    <path xmlns="http://www.w3.org/2000/svg" d="  M31.9185,34.6012 C31.9125,34.6012 31.8645,34.5982 31.8495,34.5967 C28.5727,34.2675 25.1767,32.2222 24.0240,30.2737 C24.0240,30.2737 23.8687,30.2535 23.9992,30.4717 C25.8202,33.5610 29.2710,34.7992 31.8952,34.7595 C31.8952,34.7595 31.9087,34.7595 31.9125,34.7595 C31.9770,34.7595 32.0265,34.7242 32.0265,34.6815 C32.0265,34.6410 31.9815,34.6012 31.9185,34.6012 Z" style="fill-rule: evenodd; fill: #000000; "/>
    <path xmlns="http://www.w3.org/2000/svg" d="  M31.9185,31.9485 C31.9125,31.9485 31.8645,31.9455 31.8495,31.9425 C28.5727,31.6140 25.1767,29.5672 24.0240,27.6202 C24.0240,27.6202 23.8687,27.5992 23.9992,27.8175 C25.8202,30.9082 29.2710,32.1450 31.8952,32.1067 C31.8952,32.1067 31.9087,32.1067 31.9125,32.1067 C31.9770,32.1067 32.0265,32.0700 32.0265,32.0287 C32.0265,31.9875 31.9815,31.9485 31.9185,31.9485 Z" style="fill-rule: evenodd; fill: #000000; "/>
    <path xmlns="http://www.w3.org/2000/svg" d="  M32.0137,29.3400 C31.5787,29.2875 31.1422,29.2087 30.7087,29.1075 C29.7720,28.9065 28.8487,28.5825 27.9922,28.1775 C26.2042,27.3307 24.7140,26.1315 24.0240,24.9667 C24.0240,24.9667 23.8687,24.9457 23.9992,25.1640 C24.0652,25.2750 24.1335,25.3830 24.2025,25.4895 C26.0670,28.3410 29.3662,29.4907 31.8945,29.4525 C31.8945,29.4525 31.9080,29.4525 31.9117,29.4525 C31.9762,29.4525 32.0257,29.4165 32.0257,29.3752 C32.0265,29.3632 32.0212,29.3512 32.0137,29.3400 Z" style="fill-rule: evenodd; fill: #000000; "/>
    <path xmlns="http://www.w3.org/2000/svg" d="  M31.9312,26.6437 C31.9267,26.6430 31.9192,26.6422 31.9140,26.6415 C31.9035,26.6407 31.8630,26.6385 31.8495,26.6370 C30.8122,26.5327 29.7637,26.2567 28.7782,25.8660 C26.6490,25.0222 24.8122,23.6460 24.0240,22.3147 C24.0240,22.3147 23.8687,22.2937 23.9992,22.5120 C24.1807,22.8195 24.3787,23.1075 24.5895,23.3790 C26.4982,25.8345 29.5335,26.8357 31.8952,26.8005 C31.8952,26.8005 31.9087,26.8005 31.9125,26.8005 C31.9770,26.8005 32.0265,26.7652 32.0265,26.7232 C32.0265,26.6842 31.9890,26.6490 31.9312,26.6437 Z" style="fill-rule: evenodd; fill: #000000; "/>
    <path xmlns="http://www.w3.org/2000/svg" d="  M31.9185,21.3345 C31.9125,21.3345 31.8645,21.3315 31.8495,21.3300 C30.1425,21.1582 28.4040,20.5207 26.9670,19.6740 C25.6440,18.8955 24.5760,17.9400 24.0240,17.0070 C24.0240,17.0070 23.8687,16.9860 23.9992,17.2042 C24.0900,17.3580 24.1852,17.5050 24.2835,17.6497 C26.1615,20.4127 29.4022,21.5295 31.8952,21.4927 C31.8952,21.4927 31.9087,21.4920 31.9125,21.4920 C31.9770,21.4920 32.0265,21.4575 32.0265,21.4155 C32.0265,21.3735 31.9815,21.3345 31.9185,21.3345 Z" style="fill-rule: evenodd; fill: #000000; "/>
    <path xmlns="http://www.w3.org/2000/svg" d="  M31.9185,23.9880 C31.9125,23.9880 31.8645,23.9842 31.8495,23.9827 C28.5727,23.6535 25.1767,21.6075 24.0240,19.6597 C24.0240,19.6597 23.8687,19.6395 23.9992,19.8577 C25.8202,22.9470 29.2710,24.1852 31.8952,24.1462 C31.8952,24.1462 31.9087,24.1462 31.9125,24.1462 C31.9770,24.1462 32.0265,24.1102 32.0265,24.0690 C32.0265,24.0270 31.9815,23.9880 31.9185,23.9880 Z" style="fill-rule: evenodd; fill: #000000; "/>
    <defs xmlns="http://www.w3.org/2000/svg">
      <linearGradient id="grad6742">
        <stop offset="0%" stop-color="#646c6b" stop-opacity="1.0000"/>
        <stop offset="100%" stop-color="#dae1e1" stop-opacity="1.0000"/>
      </linearGradient>
    </defs>
    <path xmlns="http://www.w3.org/2000/svg" d="  M30.6705,37.9372 C29.9228,37.7002 29.2050,37.8592 29.0685,38.2950 C28.9305,38.7285 29.4255,39.2737 30.1718,39.5092 C30.9195,39.7447 31.6373,39.5872 31.7738,39.1515 C31.9110,38.7180 31.4175,38.1727 30.6705,37.9372 Z M31.2345,39.3885 C30.9563,39.6510 30.4763,39.5910 30.1628,39.2565 C30.0615,39.1477 29.9903,39.0247 29.9483,38.8987 C29.9213,38.8170 29.9078,38.7330 29.9063,38.6527 C29.9040,38.4712 29.9663,38.3010 30.0945,38.1795 C30.3728,37.9170 30.8528,37.9770 31.1663,38.3115 C31.4820,38.6460 31.5113,39.1275 31.2345,39.3885 Z" style="fill-rule: evenodd; fill: url(#grad6742); "/>
    <path xmlns="http://www.w3.org/2000/svg" d="  M30.0953,38.1802 C29.9670,38.3017 29.9048,38.4720 29.9070,38.6535 C29.9123,38.5245 29.9603,38.4045 30.0533,38.3167 C30.1283,38.2462 30.2220,38.2072 30.3225,38.1952 C30.5243,38.1457 30.7613,38.2140 30.9300,38.3947 C31.1618,38.6407 31.1805,38.9985 30.9773,39.2032 C30.9653,39.2205 30.9495,39.2370 30.9330,39.2527 C30.7193,39.4552 30.3480,39.4080 30.1050,39.1500 C30.0338,39.0735 29.9820,38.9872 29.9490,38.8995 C29.9910,39.0255 30.0623,39.1485 30.1635,39.2572 C30.4770,39.5910 30.9570,39.6510 31.2353,39.3892 C31.5120,39.1282 31.4828,38.6467 31.1678,38.3122 C30.8535,37.9777 30.3735,37.9177 30.0953,38.1802 Z" style="fill-rule: evenodd; fill: #000000; "/>
    <defs xmlns="http://www.w3.org/2000/svg">
      <radialGradient id="grad6743" cx="0.0000%" cy="100.0000%" r="100.0000%">
        <stop offset="0%" stop-color="#ccff66" stop-opacity="1.0000"/>
        <stop offset="100%" stop-color="#7ab04a" stop-opacity="1.0000"/>
      </radialGradient>
    </defs>
    <path xmlns="http://www.w3.org/2000/svg" d="  M30.9322,39.2520 C30.9480,39.2362 30.9645,39.2197 30.9765,39.2025 C31.1797,38.9977 31.1610,38.6400 30.9292,38.3940 C30.7605,38.2140 30.5235,38.1450 30.3217,38.1945 C30.2205,38.2065 30.1267,38.2455 30.0525,38.3160 C29.9595,38.4037 29.9115,38.5237 29.9062,38.6527 C29.9077,38.7330 29.9212,38.8170 29.9482,38.8987 C29.9812,38.9865 30.0322,39.0727 30.1042,39.1492 C30.3472,39.4072 30.7185,39.4545 30.9322,39.2520 Z" style="fill-rule: evenodd; fill: url(#grad6743); "/>
    <defs xmlns="http://www.w3.org/2000/svg" xmlns:xlink="http://www.w3.org/1999/xlink">
      <linearGradient id="grad6744">
        <stop offset="0%" stop-color="#7f8787" stop-opacity="1.0000"/>
        <stop offset="100%" stop-color="#f3f9f7" stop-opacity="1.0000"/>
      </linearGradient>
      <linearGradient xlink:href="#grad6744" id="grad6745" x1="0" y1="0" x2="0" y2="1" gradientTransform="rotate(315 .5 .5)" gradientUnits="objectBoundingBox">
  </linearGradient>
    </defs>
    <path xmlns="http://www.w3.org/2000/svg" d="  M24.1500,12.3600 C24.3015,14.9640 28.1707,18.4898 32.1262,16.3035 L24.1500,12.3600 Z M25.6792,13.2165 L30.7785,15.7155 C28.2000,16.9950 25.7452,14.8012 25.6792,13.2165 Z" style="fill-rule: evenodd; fill: url(#grad6745); "/>
    <defs xmlns="http://www.w3.org/2000/svg">
      <radialGradient id="grad6746" cx="0.0000%" cy="100.0000%" r="100.0000%">
        <stop offset="0%" stop-color="#a7e968" stop-opacity="1.0000"/>
        <stop offset="100%" stop-color="#000000" stop-opacity="1.0000"/>
      </radialGradient>
    </defs>
    <path xmlns="http://www.w3.org/2000/svg" d="  M25.6792,13.2165 C25.7452,14.8012 28.2000,16.9950 30.7785,15.7155 L25.6792,13.2165 Z" style="fill-rule: evenodd; fill: url(#grad6746); "/>
    <defs xmlns="http://www.w3.org/2000/svg" xmlns:xlink="http://www.w3.org/1999/xlink">
      <linearGradient id="grad6747">
        <stop offset="0%" stop-color="#7f8787" stop-opacity="1.0000"/>
        <stop offset="100%" stop-color="#dae1e1" stop-opacity="1.0000"/>
      </linearGradient>
      <linearGradient xlink:href="#grad6747" id="grad6748" x1="0" y1="0" x2="0" y2="1" gradientTransform="rotate(45 .5 .5)" gradientUnits="objectBoundingBox">
  </linearGradient>
    </defs>
    <path xmlns="http://www.w3.org/2000/svg" d="  M33.0945,14.9422 L33.0802,14.9347 L33.0802,41.7937 L50.1000,32.1877 L50.1000,30.2625 L39.7432,36.2115 L39.7432,35.7907 L49.7295,30.0622 L50.1000,29.8492 L50.1000,28.2847 L39.7432,34.2337 L39.7432,33.8130 L49.7295,28.0845 L50.1000,27.8722 L50.1000,26.3062 L39.7432,32.2560 L39.7432,31.8360 L49.7557,26.1187 L50.1000,25.9222 L50.1000,5.0130 L47.8162,6.3255 L33.0945,14.9422 Z" style="fill-rule: evenodd; fill: url(#grad6748); "/>
    <defs xmlns="http://www.w3.org/2000/svg" xmlns:xlink="http://www.w3.org/1999/xlink">
      <linearGradient id="grad6749">
        <stop offset="0%" stop-color="#7f8787" stop-opacity="1.0000"/>
        <stop offset="100%" stop-color="#f3f9f7" stop-opacity="1.0000"/>
      </linearGradient>
      <linearGradient xlink:href="#grad6749" id="grad6750" x1="0" y1="0" x2="0" y2="1" gradientTransform="rotate(90 .5 .5)" gradientUnits="objectBoundingBox">
  </linearGradient>
    </defs>
    <path xmlns="http://www.w3.org/2000/svg" d="  M41.8020,0.0000 L23.7870,10.3995 L33.0803,14.9348 L50.1000,4.9883 L41.8020,0.0000 Z" style="fill-rule: evenodd; fill: url(#grad6750); "/>
    <defs xmlns="http://www.w3.org/2000/svg" xmlns:xlink="http://www.w3.org/1999/xlink">
      <linearGradient id="grad6751">
        <stop offset="0%" stop-color="#fcd67d" stop-opacity="1.0000"/>
        <stop offset="100%" stop-color="#fcf4b8" stop-opacity="1.0000"/>
      </linearGradient>
      <linearGradient xlink:href="#grad6751" id="grad6752" x1="0" y1="0" x2="0" y2="1" gradientTransform="rotate(180 .5 .5)" gradientUnits="objectBoundingBox">
  </linearGradient>
    </defs>
    <path xmlns="http://www.w3.org/2000/svg" d="  M55.9597,11.3828 L28.3215,27.2355 L25.7745,23.7952 L26.4863,23.0377 L53.8073,7.2795 L55.9597,11.3828 Z" style="fill-rule: evenodd; fill: url(#grad6752); "/>
    <path xmlns="http://www.w3.org/2000/svg" d="  M54.1432,11.3805 L27.6863,26.8125 L28.1490,27.1395 L29.4308,26.8440 L54.5985,12.1687 L54.1432,11.3805 Z" style="fill-rule: evenodd; fill: #ac8344; "/>
    <defs xmlns="http://www.w3.org/2000/svg" xmlns:xlink="http://www.w3.org/1999/xlink">
      <linearGradient id="grad6753">
        <stop offset="0%" stop-color="#fcd67d" stop-opacity="1.0000"/>
        <stop offset="100%" stop-color="#ca9747" stop-opacity="1.0000"/>
      </linearGradient>
      <linearGradient xlink:href="#grad6753" id="grad6754" x1="0" y1="0" x2="0" y2="1" gradientTransform="rotate(45 .5 .5)" gradientUnits="objectBoundingBox">
  </linearGradient>
    </defs>
    <path xmlns="http://www.w3.org/2000/svg" d="  M51.7830,8.4480 L26.4915,23.0168 C26.4915,23.0168 26.0123,23.6895 26.2080,24.0173 C26.4030,24.3443 26.7810,24.3240 26.7810,24.3240 L52.4160,9.5445 L51.7830,8.4480 Z" style="fill-rule: evenodd; fill: url(#grad6754); "/>
    <defs xmlns="http://www.w3.org/2000/svg" xmlns:xlink="http://www.w3.org/1999/xlink">
      <linearGradient id="grad6755">
        <stop offset="0%" stop-color="#f38484" stop-opacity="1.0000"/>
        <stop offset="100%" stop-color="#993333" stop-opacity="1.0000"/>
      </linearGradient>
      <linearGradient xlink:href="#grad6755" id="grad6756" x1="0" y1="0" x2="0" y2="1" gradientTransform="rotate(315 .5 .5)" gradientUnits="objectBoundingBox">
  </linearGradient>
    </defs>
    <path xmlns="http://www.w3.org/2000/svg" d="  M57.5558,5.8957 C57.0795,5.6205 56.6520,5.6078 56.3505,5.8065 L56.3490,5.8035 L52.8480,7.8248 L55.1828,11.8673 L58.6822,9.8460 L58.6807,9.8430 C59.0033,9.6810 59.2065,9.3045 59.2065,8.7540 C59.2072,7.7018 58.4670,6.4215 57.5558,5.8957 Z" style="fill-rule: evenodd; fill: url(#grad6756); "/>
    <defs xmlns="http://www.w3.org/2000/svg" xmlns:xlink="http://www.w3.org/1999/xlink">
      <linearGradient id="grad6757">
        <stop offset="0%" stop-color="#7f8787" stop-opacity="1.0000"/>
        <stop offset="100%" stop-color="#f3f9f7" stop-opacity="1.0000"/>
      </linearGradient>
      <linearGradient xlink:href="#grad6757" id="grad6758" x1="0" y1="0" x2="0" y2="1" gradientTransform="rotate(135 .5 .5)" gradientUnits="objectBoundingBox">
  </linearGradient>
    </defs>
    <path xmlns="http://www.w3.org/2000/svg" d="  M56.6347,10.2390 C56.6347,9.1868 55.8967,7.9065 54.9840,7.3800 C54.5077,7.1048 54.0802,7.0920 53.7787,7.2908 L53.7772,7.2878 L48.8715,10.1205 C49.1700,9.9330 49.5937,9.9525 50.0610,10.2225 C50.9722,10.7490 51.7117,12.0285 51.7117,13.0815 C51.7117,13.6237 51.5137,14.0002 51.2002,14.1645 L56.1105,11.3303 L56.1090,11.3273 C56.4322,11.1668 56.6347,10.7895 56.6347,10.2390 Z" style="fill-rule: evenodd; fill: url(#grad6758); "/>
    <defs xmlns="http://www.w3.org/2000/svg" xmlns:xlink="http://www.w3.org/1999/xlink">
      <linearGradient id="grad6759">
        <stop offset="0%" stop-color="#ffffff" stop-opacity="1.0000"/>
        <stop offset="100%" stop-color="#7f8787" stop-opacity="1.0000"/>
      </linearGradient>
      <linearGradient xlink:href="#grad6759" id="grad6760" x1="0" y1="0" x2="0" y2="1" gradientTransform="rotate(135 .5 .5)" gradientUnits="objectBoundingBox">
  </linearGradient>
    </defs>
    <path xmlns="http://www.w3.org/2000/svg" d="  M56.1090,11.3280 C56.4330,11.1668 56.6348,10.7895 56.6348,10.2390 C56.6348,10.1483 56.6273,10.0553 56.6175,9.9622 L51.6930,12.8055 C51.7050,12.8993 51.7118,12.9915 51.7118,13.0823 C51.7118,13.6245 51.5138,14.0010 51.2003,14.1653 L56.1105,11.3310 L56.1090,11.3280 Z" style="fill-rule: evenodd; fill: url(#grad6760); "/>
    <defs xmlns="http://www.w3.org/2000/svg" xmlns:xlink="http://www.w3.org/1999/xlink">
      <linearGradient id="grad6761">
        <stop offset="0%" stop-color="#185927" stop-opacity="1.0000"/>
        <stop offset="100%" stop-color="#367c3c" stop-opacity="1.0000"/>
      </linearGradient>
      <linearGradient xlink:href="#grad6761" id="grad6762" x1="0" y1="0" x2="0" y2="1" gradientTransform="rotate(135 .5 .5)" gradientUnits="objectBoundingBox">
  </linearGradient>
    </defs>
    <path xmlns="http://www.w3.org/2000/svg" d="  M53.0385,8.5035 C52.5772,8.2373 52.1610,8.2148 51.8610,8.3948 C51.6503,8.5215 50.8403,8.9828 50.6235,9.1095 C50.9205,8.9355 51.3338,8.9603 51.7927,9.2235 C52.7040,9.7500 53.4435,11.0295 53.4435,12.0825 C53.4435,12.6090 53.2590,12.9780 52.9597,13.1513 C53.1765,13.0260 53.9850,12.5550 54.2017,12.4320 C54.5032,12.2610 54.6892,11.8905 54.6892,11.3625 C54.6892,10.3095 53.9512,9.0300 53.0385,8.5035 Z" style="fill-rule: evenodd; fill: url(#grad6762); "/>
    <defs xmlns="http://www.w3.org/2000/svg" xmlns:xlink="http://www.w3.org/1999/xlink">
      <linearGradient id="grad6763">
        <stop offset="0%" stop-color="#ac562d" stop-opacity="1.0000"/>
        <stop offset="100%" stop-color="#ebc8a7" stop-opacity="1.0000"/>
      </linearGradient>
      <linearGradient xlink:href="#grad6763" id="grad6764" x1="0" y1="0" x2="0" y2="1" gradientTransform="rotate(135 .5 .5)" gradientUnits="objectBoundingBox">
  </linearGradient>
    </defs>
    <path xmlns="http://www.w3.org/2000/svg" d="  M29.4772,26.8305 C28.8285,26.9333 28.6800,26.6280 28.5675,26.2545 C28.4167,25.7513 29.3407,25.0252 29.0422,24.5085 C28.7437,23.9910 27.6937,24.0157 26.9077,23.9775 C26.4007,23.9535 26.3362,23.2950 26.5005,23.0062 L21.3420,28.2038 L21.6945,29.0070 C21.6945,29.0070 27.8182,27.4087 28.2892,27.2798 C28.7602,27.1515 29.4772,26.8305 29.4772,26.8305 Z" style="fill-rule: evenodd; fill: url(#grad6764); "/>
    <path xmlns="http://www.w3.org/2000/svg" d="  M23.3880,28.2120 C23.3880,27.8340 23.1225,27.3742 22.7948,27.1853 C22.6178,27.0825 22.4595,27.0840 22.3508,27.1642 C22.3493,27.1612 22.3447,27.1552 22.3447,27.1552 L21.3660,28.1782 C21.3660,28.1782 21.2573,28.2945 21.2078,28.3882 C21.0263,28.7317 21.2985,29.0137 21.6270,29.0070 C21.7133,29.0047 23.1083,28.6575 23.1540,28.6357 C23.1578,28.6342 23.1578,28.6267 23.1555,28.6170 C23.2957,28.5735 23.3880,28.4325 23.3880,28.2120 Z" style="fill-rule: evenodd; fill: #333333; "/>
    <defs xmlns="http://www.w3.org/2000/svg" xmlns:xlink="http://www.w3.org/1999/xlink">
      <linearGradient id="grad6765">
        <stop offset="0%" stop-color="#080808" stop-opacity="1.0000"/>
        <stop offset="100%" stop-color="#c4c5c6" stop-opacity="1.0000"/>
      </linearGradient>
      <linearGradient xlink:href="#grad6765" id="grad6766" x1="0" y1="0" x2="0" y2="1" gradientTransform="rotate(315 .5 .5)" gradientUnits="objectBoundingBox">
  </linearGradient>
    </defs>
    <path xmlns="http://www.w3.org/2000/svg" d="  M5.7967,53.1157 C5.3032,52.7580 2.9670,51.2332 2.9670,51.2332 C2.9670,51.2332 2.1420,51.0577 2.0483,51.0487 C1.5578,51.0030 0.9173,51.4620 0.4958,52.2060 C0.0383,53.0175 0.0000,53.8800 0.3773,54.2497 L1.0425,54.8280 C1.0425,54.8280 3.4755,56.1187 4.0365,56.3527 C4.5367,56.5620 5.8905,56.5650 5.8905,56.5650 L7.1025,54.4222 C7.1017,54.4222 6.3037,53.4832 5.7967,53.1157 Z" style="fill-rule: evenodd; fill: url(#grad6766); "/>
    <g xmlns="http://www.w3.org/2000/svg" id="Layer1162">
      <path d="  M1.4685,52.6980 C1.9673,51.8145 2.7428,51.3052 3.2940,51.4530 C3.2618,51.4237 3.0818,51.3150 3.0443,51.2932 C2.4945,50.9692 1.6013,51.4980 1.0485,52.4752 C0.4965,53.4510 0.4935,54.5055 1.0425,54.8280 C1.0950,54.8602 1.3050,54.9495 1.3628,54.9660 C0.9218,54.5745 0.9533,53.6062 1.4685,52.6980 Z" style="stroke-width: 0.0358; stroke-linecap: butt; stroke-linejoin: miter; fill-rule: evenodd; fill: #cdcfcf; "/>
      <path d="  M1.4685,52.6980 C1.9673,51.8145 2.7428,51.3052 3.2940,51.4530 C3.2618,51.4237 3.0818,51.3150 3.0443,51.2932 C2.4945,50.9692 1.6013,51.4980 1.0485,52.4752 C0.4965,53.4510 0.4935,54.5055 1.0425,54.8280 C1.0950,54.8602 1.3050,54.9495 1.3628,54.9660 C0.9218,54.5745 0.9533,53.6062 1.4685,52.6980 Z" style="stroke-width: 0.0358; stroke: #000000; stroke-dasharray: none; stroke-linecap: butt; stroke-linejoin: miter; fill: none; "/>
    </g>
    <path xmlns="http://www.w3.org/2000/svg" d="  M7.1017,54.4222 C6.7695,54.2257 6.2272,54.5467 5.8935,55.1385 C5.5582,55.7302 5.5567,56.3692 5.8897,56.5650 C6.2220,56.7615 6.7635,56.4405 7.0987,55.8487 C7.4340,55.2570 7.4355,54.6187 7.1017,54.4222 Z" style="fill-rule: evenodd; fill: #333333; "/>
    <defs xmlns="http://www.w3.org/2000/svg">
      <radialGradient id="grad6767" cx="50.0000%" cy="50.0000%" r="100.0000%">
        <stop offset="0%" stop-color="#c4c5c6" stop-opacity="1.0000"/>
        <stop offset="100%" stop-color="#080808" stop-opacity="1.0000"/>
      </radialGradient>
    </defs>
    <path xmlns="http://www.w3.org/2000/svg" d="  M34.1490,40.1910 C31.9327,38.8860 28.3290,41.0212 26.0992,44.9587 C23.8702,48.8977 23.8597,53.1472 26.0767,54.4522 C28.2922,55.7572 31.8960,53.6235 34.1257,49.6845 C36.3555,45.7477 36.3660,41.4967 34.1490,40.1910 Z" style="fill-rule: evenodd; fill: url(#grad6767); "/>
    <path xmlns="http://www.w3.org/2000/svg" d="  M34.1490,40.1910 C33.6952,39.9247 33.1822,39.8010 32.6340,39.8085 C31.9365,39.7380 30.2415,40.1190 30.0420,40.1715 C28.4250,40.6110 26.6235,42.1635 25.3478,44.4165 C24.2213,46.4055 23.7630,48.4905 23.9708,50.0857 C24.0488,50.6835 24.5243,52.4955 24.8730,53.0535 C25.2240,53.6175 25.5458,54.1402 26.0760,54.4522 C28.2915,55.7572 31.8952,53.6235 34.1250,49.6845 C36.3555,45.7477 36.3660,41.4967 34.1490,40.1910 Z" style="fill-rule: evenodd; fill: #333333; "/>
    <path xmlns="http://www.w3.org/2000/svg" d="  M35.2477,40.6875 C33.0315,39.3825 29.4277,41.5162 27.1980,45.4537 C24.9697,49.3927 24.9600,53.6422 27.1755,54.9472 C29.3910,56.2522 32.9947,54.1185 35.2245,50.1810 C37.4527,46.2427 37.4640,41.9917 35.2477,40.6875 Z" style="fill-rule: evenodd; fill: #cdcfcf; "/>
    <defs xmlns="http://www.w3.org/2000/svg" xmlns:xlink="http://www.w3.org/1999/xlink">
      <linearGradient id="grad6768">
        <stop offset="0%" stop-color="#080808" stop-opacity="1.0000"/>
        <stop offset="100%" stop-color="#c4c5c6" stop-opacity="1.0000"/>
      </linearGradient>
      <linearGradient xlink:href="#grad6768" id="grad6769" x1="0" y1="0" x2="0" y2="1" gradientTransform="rotate(90 .5 .5)" gradientUnits="objectBoundingBox">
  </linearGradient>
    </defs>
    <path xmlns="http://www.w3.org/2000/svg" d="  M35.7990,41.1127 C33.5828,39.8077 29.9790,41.9430 27.7493,45.8805 C25.5210,49.8180 25.5113,54.0690 27.7275,55.3740 C29.9423,56.6790 33.5460,54.5437 35.7757,50.6062 C38.0033,46.6687 38.0153,42.4177 35.7990,41.1127 Z" style="fill-rule: evenodd; fill: url(#grad6769); "/>
    <defs xmlns="http://www.w3.org/2000/svg">
      <radialGradient id="grad6770" cx="50.0000%" cy="50.0000%" r="100.0000%">
        <stop offset="0%" stop-color="#ffffff" stop-opacity="1.0000"/>
        <stop offset="100%" stop-color="#669999" stop-opacity="1.0000"/>
      </radialGradient>
    </defs>
    <path xmlns="http://www.w3.org/2000/svg" d="  M34.5870,43.2525 C33.0360,42.3382 30.5130,43.8322 28.9530,46.5892 C27.3930,49.3462 27.3847,52.3215 28.9372,53.2335 C30.4882,54.1477 33.0112,52.6537 34.5712,49.8967 C36.1312,47.1397 36.1387,44.1652 34.5870,43.2525 Z" style="fill-rule: evenodd; fill: url(#grad6770); "/>
    <defs xmlns="http://www.w3.org/2000/svg">
      <linearGradient id="grad6771">
        <stop offset="0%" stop-color="#080808" stop-opacity="1.0000"/>
        <stop offset="100%" stop-color="#c4c5c6" stop-opacity="1.0000"/>
      </linearGradient>
    </defs>
    <path xmlns="http://www.w3.org/2000/svg" d="  M32.9467,47.2882 C32.8440,47.2282 32.7120,47.2455 32.5792,47.3190 L32.5792,47.3175 L31.3545,48.0382 C31.1962,48.1147 31.0320,48.2700 30.9120,48.4837 C30.6952,48.8662 30.6937,49.2780 30.9090,49.4040 C31.0132,49.4655 31.1475,49.4482 31.2825,49.3717 L31.2825,49.3732 L32.5522,48.6337 L32.5522,48.6322 C32.6932,48.5490 32.8350,48.4005 32.9430,48.2092 C33.1605,47.8275 33.1605,47.4157 32.9467,47.2882 Z" style="fill-rule: evenodd; fill: url(#grad6771); "/>
    <defs xmlns="http://www.w3.org/2000/svg" xmlns:xlink="http://www.w3.org/1999/xlink">
      <linearGradient id="grad6772">
        <stop offset="0%" stop-color="#ffffff" stop-opacity="1.0000"/>
        <stop offset="100%" stop-color="#669999" stop-opacity="1.0000"/>
      </linearGradient>
      <linearGradient xlink:href="#grad6772" id="grad6773" x1="0" y1="0" x2="0" y2="1" gradientTransform="rotate(90 .5 .5)" gradientUnits="objectBoundingBox">
  </linearGradient>
    </defs>
    <path xmlns="http://www.w3.org/2000/svg" d="  M29.4510,51.3345 C29.1187,51.1395 28.5772,51.4605 28.2427,52.0522 C28.1947,52.1355 28.1557,52.2225 28.1212,52.3072 C28.3132,52.7055 28.5825,53.0265 28.9372,53.2342 C28.9665,53.2515 28.9987,53.2635 29.0287,53.2785 C29.1817,53.1480 29.3295,52.9725 29.4487,52.7617 C29.7840,52.1692 29.7847,51.5310 29.4510,51.3345 Z" style="fill-rule: evenodd; fill: url(#grad6773); "/>
    <path xmlns="http://www.w3.org/2000/svg" d="  M29.1592,51.7170 C29.0302,51.6405 28.8502,51.6922 28.6837,51.8280 L20.2185,56.7262 C19.0845,57.3870 16.9635,57.9142 14.7667,57.9082 C12.9135,57.9097 11.0025,57.5437 9.5250,56.6722 L6.7957,55.1167 C6.7942,55.1152 6.7927,55.1107 6.7897,55.1092 C6.6465,55.0245 6.4117,55.1617 6.2670,55.4182 C6.1222,55.6747 6.1222,55.9500 6.2655,56.0347 C6.2745,56.0407 8.9947,57.5857 8.9947,57.5857 C10.6980,58.5847 12.7800,58.9627 14.7667,58.9657 C17.1315,58.9597 19.3575,58.4355 20.7480,57.6397 L28.4610,53.1795 C28.8045,52.9552 29.0595,52.7692 29.1570,52.5982 C29.3632,52.2322 29.3647,51.8385 29.1592,51.7170 Z" style="fill-rule: evenodd; fill: #333333; "/>
    <defs xmlns="http://www.w3.org/2000/svg" xmlns:xlink="http://www.w3.org/1999/xlink">
      <linearGradient id="grad6774">
        <stop offset="0%" stop-color="#080808" stop-opacity="1.0000"/>
        <stop offset="100%" stop-color="#ffffff" stop-opacity="1.0000"/>
      </linearGradient>
      <linearGradient xlink:href="#grad6774" id="grad6775" x1="0" y1="0" x2="0" y2="1" gradientTransform="rotate(90 .5 .5)" gradientUnits="objectBoundingBox">
  </linearGradient>
    </defs>
    <path xmlns="http://www.w3.org/2000/svg" d="  M12.4448,11.9445 C17.9933,8.6768 27.0173,14.0213 32.5987,23.8823 C38.1795,33.7433 38.2065,44.3858 32.6572,47.6535 L31.3170,48.4943 C36.8655,45.2250 36.8408,34.5825 31.2585,24.7215 C25.6763,14.8605 16.6530,9.5160 11.1038,12.7838 L12.4448,11.9445 Z" style="fill-rule: evenodd; fill: url(#grad6775); "/>
    <defs xmlns="http://www.w3.org/2000/svg" xmlns:xlink="http://www.w3.org/1999/xlink">
      <linearGradient id="grad6776">
        <stop offset="0%" stop-color="#ffffff" stop-opacity="1.0000"/>
        <stop offset="100%" stop-color="#669999" stop-opacity="1.0000"/>
      </linearGradient>
      <linearGradient xlink:href="#grad6776" id="grad6777" x1="0" y1="0" x2="0" y2="1" gradientTransform="rotate(-0 .5 .5)" gradientUnits="objectBoundingBox">
  </linearGradient>
    </defs>
    <path xmlns="http://www.w3.org/2000/svg" d="  M35.4592,39.1980 C35.4442,43.4445 34.0665,46.8750 31.3170,48.4943 L32.6572,47.6535 C35.3910,46.0448 36.7672,42.6435 36.7980,38.4323 L35.4592,39.1980 Z" style="fill-rule: evenodd; fill: url(#grad6777); "/>
    <defs xmlns="http://www.w3.org/2000/svg" xmlns:xlink="http://www.w3.org/1999/xlink">
      <linearGradient id="grad6778">
        <stop offset="0%" stop-color="#080808" stop-opacity="1.0000"/>
        <stop offset="100%" stop-color="#c4c5c6" stop-opacity="1.0000"/>
      </linearGradient>
      <linearGradient xlink:href="#grad6778" id="grad6779" x1="0" y1="0" x2="0" y2="1" gradientTransform="rotate(315 .5 .5)" gradientUnits="objectBoundingBox">
  </linearGradient>
    </defs>
    <path xmlns="http://www.w3.org/2000/svg" d="  M12.4447,11.9445 C6.8955,15.2115 6.9217,25.8548 12.5032,35.7165 L11.1630,36.5558 C5.5815,26.6948 5.5552,16.0523 11.1045,12.7845 L12.4447,11.9445 Z" style="fill-rule: evenodd; fill: url(#grad6779); "/>
    <defs xmlns="http://www.w3.org/2000/svg" xmlns:xlink="http://www.w3.org/1999/xlink">
      <linearGradient id="grad6780">
        <stop offset="0%" stop-color="#ffffff" stop-opacity="1.0000"/>
        <stop offset="100%" stop-color="#669999" stop-opacity="1.0000"/>
      </linearGradient>
      <linearGradient xlink:href="#grad6780" id="grad6781" x1="0" y1="0" x2="0" y2="1" gradientTransform="rotate(90 .5 .5)" gradientUnits="objectBoundingBox">
  </linearGradient>
    </defs>
    <path xmlns="http://www.w3.org/2000/svg" d="  M11.1630,36.5558 L12.5032,35.7165 C11.6595,34.2270 10.9462,32.7195 10.3560,31.2210 L8.9925,32.0033 C9.5857,33.5205 10.3087,35.0468 11.1630,36.5558 Z" style="fill-rule: evenodd; fill: url(#grad6781); "/>
    <path xmlns="http://www.w3.org/2000/svg" d="  M31.2727,48.5423 C31.2270,48.4658 31.2540,48.3683 31.3297,48.3225 C34.0298,46.7348 35.4053,43.3335 35.4053,39.0735 C35.4053,34.7872 34.0080,29.6528 31.2127,24.7132 C26.7548,16.8285 20.0790,11.8590 14.8350,11.8680 C13.5300,11.8680 12.3143,12.1710 11.2328,12.8077 C8.5313,14.3955 7.1573,17.7960 7.1573,22.0552 C7.1565,26.3423 8.5530,31.4775 11.3498,36.4155 C11.3940,36.4935 11.3655,36.5910 11.2898,36.6338 C11.2118,36.6780 11.1143,36.6495 11.0715,36.5738 C8.2515,31.5915 6.8378,26.4105 6.8370,22.0552 C6.8363,17.7360 8.2290,14.2065 11.0700,12.5317 C12.2040,11.8635 13.4797,11.5470 14.8350,11.5477 C20.2770,11.5560 26.9872,16.6102 31.4910,24.5557 C34.3110,29.5365 35.7247,34.7183 35.7247,39.0727 C35.7263,43.3927 34.3320,46.9230 31.4925,48.5985 C31.4662,48.6135 31.4385,48.6203 31.4123,48.6203 C31.3560,48.6218 31.3020,48.5925 31.2727,48.5423 Z" style="fill-rule: evenodd; fill: #cdcfcf; "/>
    <path xmlns="http://www.w3.org/2000/svg" d="  M16.3793,29.7173 C14.1630,28.4130 10.5600,30.5467 8.3310,34.4858 C6.1020,38.4233 6.0915,42.6743 8.3077,43.9793 C10.5240,45.2828 14.1270,43.1505 16.3560,39.2115 C18.5850,35.2740 18.5955,31.0230 16.3793,29.7173 Z" style="fill-rule: evenodd; fill: #cdcfcf; "/>
    <defs xmlns="http://www.w3.org/2000/svg">
      <radialGradient id="grad6782" cx="50.0000%" cy="50.0000%" r="100.0000%">
        <stop offset="0%" stop-color="#7f8787" stop-opacity="1.0000"/>
        <stop offset="100%" stop-color="#080808" stop-opacity="1.0000"/>
      </radialGradient>
    </defs>
    <path xmlns="http://www.w3.org/2000/svg" d="  M16.8615,29.9490 C14.6460,28.6440 11.0422,30.7793 8.8132,34.7168 C6.5850,38.6543 6.5745,42.9053 8.7900,44.2103 C11.0055,45.5138 14.6100,43.3815 16.8390,39.4425 C19.0673,35.5050 19.0778,31.2540 16.8615,29.9490 Z" style="fill-rule: evenodd; fill: url(#grad6782); "/>
    <defs xmlns="http://www.w3.org/2000/svg">
      <radialGradient id="grad6783" cx="100.0000%" cy="100.0000%" r="100.0000%">
        <stop offset="0%" stop-color="#080808" stop-opacity="1.0000"/>
        <stop offset="100%" stop-color="#c4c5c6" stop-opacity="1.0000"/>
      </radialGradient>
    </defs>
    <path xmlns="http://www.w3.org/2000/svg" d="  M17.7645,30.5513 C15.5483,29.2463 11.9452,31.3800 9.7155,35.3190 C7.4872,39.2565 7.4767,43.5060 9.6930,44.8125 C11.9092,46.1160 15.5123,43.9823 17.7412,40.0448 C19.9703,36.1058 19.9808,31.8563 17.7645,30.5513 Z" style="fill-rule: evenodd; fill: url(#grad6783); "/>
    <path xmlns="http://www.w3.org/2000/svg" d="  M17.7195,32.1008 C15.8355,30.9915 12.7725,32.8050 10.8787,36.1523 C8.9835,39.5010 8.9745,43.1130 10.8592,44.2223 C12.7425,45.3315 15.8055,43.5180 17.7000,40.1708 C19.5945,36.8235 19.6028,33.2100 17.7195,32.1008 Z" style="fill-rule: evenodd; fill: #333333; "/>
    <!--converted by libvisio2svg-->
  </g>
</svg>
