<svg xmlns="http://www.w3.org/2000/svg" xmlns:xlink="http://www.w3.org/1999/xlink" version="1.1" width="0.8448000000" height="0.5837000000" viewBox="0 0 60.8242 42.0270">
  <title><![CDATA[XMPP Gateway]]></title>
  <g transform=" scale(1.000000) ">
    <path xmlns="http://www.w3.org/2000/svg" d="  M46.8893,12.0668 L46.3733,11.7720 L45.9263,12.0090 L46.3763,11.7675 L26.6287,0.4125 C26.6287,0.4125 26.0318,0.0000 25.2480,0.0000 C24.5385,0.0000 23.9393,0.4125 23.9393,0.4125 L2.4217,12.8003 C2.3858,12.8167 2.1630,12.9503 2.0737,13.2180 C1.0898,13.5892 0.2603,14.2980 0.1463,14.4623 C0.0623,14.5643 0.0120,14.6730 0.0053,14.7705 C0.0053,14.7727 0.0053,14.7757 0.0053,14.7772 C0.0045,14.7810 0.0038,14.7855 0.0038,14.7900 L0.0038,14.7952 C0.0023,14.8080 0.0008,14.8207 0.0008,14.8328 L0.0008,20.8950 C0.0008,21.0637 0.0270,21.2212 0.0825,21.3682 C0.1500,21.6127 0.2708,21.8175 0.4838,21.9435 L0.6600,22.0418 C0.7815,22.1235 0.9225,22.2015 1.0823,22.2765 L2.9190,23.2987 L20.1368,32.9107 C20.5268,33.1920 20.8830,33.2625 21.1575,33.2565 C21.1747,33.2565 21.1935,33.2550 21.2123,33.2550 C21.2445,33.2520 21.2745,33.2490 21.3053,33.2460 C21.3202,33.2445 21.3368,33.2430 21.3525,33.2400 L21.4748,33.3105 C21.8115,33.4523 22.1265,33.5213 22.4242,33.5010 C22.4378,33.5010 22.4512,33.5010 22.4640,33.4995 C22.4873,33.4980 22.5120,33.4920 22.5367,33.4890 C22.5765,33.4830 22.6155,33.4770 22.6582,33.4688 C22.6740,33.4627 22.6898,33.4567 22.7062,33.4530 C22.7490,33.4395 22.7925,33.4282 22.8360,33.4102 C22.8982,33.3855 22.9583,33.3577 23.0183,33.3225 C23.1218,33.2655 23.2192,33.2130 23.3130,33.1627 L23.3130,33.1642 L23.3243,33.1582 C23.3865,33.1245 23.4480,33.0922 23.5057,33.0585 C23.5725,33.0218 23.6348,32.9835 23.6970,32.9445 L26.6190,31.2660 L26.6190,39.9540 C26.6190,41.0962 27.5482,42.0270 28.6913,42.0270 L43.3613,42.0270 C44.5035,42.0270 45.4328,41.0970 45.4328,39.9540 L45.4328,30.6653 L60.8243,30.6653 L60.8243,30.5610 L60.8243,12.0668 L46.8893,12.0668 Z" style="stroke-width: 1.5000; stroke: #8d98b5; stroke-dasharray: none; stroke-linecap: butt; stroke-linejoin: miter; fill: none; "/>
    <defs xmlns="http://www.w3.org/2000/svg" xmlns:xlink="http://www.w3.org/1999/xlink">
      <linearGradient id="grad9802">
        <stop offset="0%" stop-color="#515872" stop-opacity="1.0000"/>
        <stop offset="100%" stop-color="#95a8c2" stop-opacity="1.0000"/>
      </linearGradient>
      <linearGradient xlink:href="#grad9802" id="grad9803" x1="0" y1="0" x2="0" y2="1" gradientTransform="rotate(180 .5 .5)" gradientUnits="objectBoundingBox">
  </linearGradient>
    </defs>
    <path xmlns="http://www.w3.org/2000/svg" d="  M26.5005,0.3705 C26.5005,0.3705 25.7093,0.0428 25.2345,0.0570 C24.8423,0.0690 24.1545,0.3555 24.1545,0.3555 L2.4953,12.8310 L22.4603,24.6113 L46.3763,11.7683 L26.5005,0.3705 Z" style="fill-rule: evenodd; fill: url(#grad9803); "/>
    <defs xmlns="http://www.w3.org/2000/svg" xmlns:xlink="http://www.w3.org/1999/xlink">
      <linearGradient id="grad9804">
        <stop offset="0%" stop-color="#7f7f7f" stop-opacity="1.0000"/>
        <stop offset="100%" stop-color="#0c0c0c" stop-opacity="1.0000"/>
      </linearGradient>
      <linearGradient xlink:href="#grad9804" id="grad9805" x1="0" y1="0" x2="0" y2="1" gradientTransform="rotate(180 .5 .5)" gradientUnits="objectBoundingBox">
  </linearGradient>
    </defs>
    <path xmlns="http://www.w3.org/2000/svg" d="  M23.3033,29.9932 L23.3130,33.1650 L47.5005,19.2832 C47.9910,19.0035 48.0480,18.8407 48.0413,18.1627 C48.0397,18.1050 48.0397,16.1782 48.0397,16.1782 L23.3033,29.9932 Z" style="fill-rule: evenodd; fill: url(#grad9805); "/>
    <defs xmlns="http://www.w3.org/2000/svg" xmlns:xlink="http://www.w3.org/1999/xlink">
      <linearGradient id="grad9806">
        <stop offset="0%" stop-color="#858273" stop-opacity="1.0000"/>
        <stop offset="100%" stop-color="#6e7488" stop-opacity="1.0000"/>
      </linearGradient>
      <linearGradient xlink:href="#grad9806" id="grad9807" x1="0" y1="0" x2="0" y2="1" gradientTransform="rotate(180 .5 .5)" gradientUnits="objectBoundingBox">
  </linearGradient>
    </defs>
    <path xmlns="http://www.w3.org/2000/svg" d="  M26.6287,0.4133 C26.6287,0.4133 26.0317,0.0008 25.2480,0.0008 C24.5385,0.0008 23.9392,0.4133 23.9392,0.4133 L2.4180,12.7988 L22.4610,24.6113 L46.3762,11.7683 L26.6287,0.4133 Z" style="fill-rule: evenodd; fill: url(#grad9807); "/>
    <defs xmlns="http://www.w3.org/2000/svg" xmlns:xlink="http://www.w3.org/1999/xlink">
      <linearGradient id="grad9808">
        <stop offset="0%" stop-color="#ffffff" stop-opacity="0.3804"/>
        <stop offset="100%" stop-color="#ffffff" stop-opacity="0.3804"/>
      </linearGradient>
      <linearGradient xlink:href="#grad9808" id="grad9809" x1="0" y1="0" x2="0" y2="1" gradientTransform="rotate(180 .5 .5)" gradientUnits="objectBoundingBox">
  </linearGradient>
    </defs>
    <path xmlns="http://www.w3.org/2000/svg" d="  M26.6287,0.4133 C26.6287,0.4133 26.0317,0.0008 25.2480,0.0008 C24.5385,0.0008 23.9392,0.4133 23.9392,0.4133 L2.4180,12.7987 L23.1090,24.1838 L46.3762,11.7683 L26.6287,0.4133 Z" style="fill-rule: evenodd; fill: url(#grad9809); "/>
    <defs xmlns="http://www.w3.org/2000/svg" xmlns:xlink="http://www.w3.org/1999/xlink">
      <linearGradient id="grad9810">
        <stop offset="0%" stop-color="#858273" stop-opacity="1.0000"/>
        <stop offset="100%" stop-color="#616766" stop-opacity="1.0000"/>
      </linearGradient>
      <linearGradient xlink:href="#grad9810" id="grad9811" x1="0" y1="0" x2="0" y2="1" gradientTransform="rotate(-0 .5 .5)" gradientUnits="objectBoundingBox">
  </linearGradient>
    </defs>
    <path xmlns="http://www.w3.org/2000/svg" d="  M23.7727,25.0605 C23.7727,26.7990 23.8095,29.8283 23.8095,29.8283 L48.0397,16.1768 C48.0397,16.1768 48.0382,13.3928 48.0352,13.3418 C48.0135,12.6593 47.5005,12.4170 47.5005,12.4170 L46.3740,11.7713 L23.0550,24.1568 C23.0550,24.1568 23.7727,24.3053 23.7727,25.0605 Z" style="fill-rule: evenodd; fill: url(#grad9811); "/>
    <defs xmlns="http://www.w3.org/2000/svg" xmlns:xlink="http://www.w3.org/1999/xlink">
      <linearGradient id="grad9812">
        <stop offset="0%" stop-color="#ffffff" stop-opacity="0.6706"/>
        <stop offset="100%" stop-color="#ffffff" stop-opacity="0.6706"/>
      </linearGradient>
      <linearGradient xlink:href="#grad9812" id="grad9813" x1="0" y1="0" x2="0" y2="1" gradientTransform="rotate(-0 .5 .5)" gradientUnits="objectBoundingBox">
  </linearGradient>
    </defs>
    <path xmlns="http://www.w3.org/2000/svg" d="  M23.7727,25.0605 C23.7727,26.7990 23.8095,29.8283 23.8095,29.8283 L48.0397,16.1768 C48.0397,16.1768 48.0382,13.3928 48.0352,13.3418 C48.0135,12.6593 47.5005,12.4170 47.5005,12.4170 L46.3740,11.7713 L23.0550,24.1568 C23.0550,24.1568 23.7727,24.3053 23.7727,25.0605 Z" style="fill-rule: evenodd; fill: url(#grad9813); "/>
    <path xmlns="http://www.w3.org/2000/svg" d="  M24.1958,25.4243 C24.1613,24.8693 23.7893,24.4988 23.3505,24.2243 C23.3505,24.2243 3.7043,13.1453 3.3413,12.9488 C3.0863,12.8122 2.9048,12.7058 2.6318,12.7388 C2.3085,12.7898 2.2418,12.9323 2.1585,13.1002 C2.0738,13.2683 1.9875,13.6358 1.9898,13.9643 L2.0055,21.3098 C2.0055,21.9135 2.3145,22.2338 2.8868,22.5885 L21.4748,33.2858 C22.0448,33.5228 22.5038,33.6143 23.0183,33.3225 C23.4848,33.0570 23.8680,32.9258 24.0878,32.5268 C24.2145,32.2995 24.1838,31.9793 24.1838,31.9793 L24.1958,25.4243 Z" style="fill-rule: evenodd; fill: #c9c8c9; "/>
    <defs xmlns="http://www.w3.org/2000/svg" xmlns:xlink="http://www.w3.org/1999/xlink">
      <linearGradient id="grad9814">
        <stop offset="0%" stop-color="#7f7f7f" stop-opacity="1.0000"/>
        <stop offset="100%" stop-color="#0c0c0c" stop-opacity="1.0000"/>
      </linearGradient>
      <linearGradient xlink:href="#grad9814" id="grad9815" x1="0" y1="0" x2="0" y2="1" gradientTransform="rotate(-0 .5 .5)" gradientUnits="objectBoundingBox">
  </linearGradient>
    </defs>
    <path xmlns="http://www.w3.org/2000/svg" d="  M24.1778,29.6048 L1.9830,17.9655 C1.9830,17.9655 1.7302,21.7568 2.3025,22.1115 L21.4747,33.3105 C22.0447,33.5490 22.5510,33.5903 23.0183,33.3225 C23.4833,33.0563 23.9002,32.9123 24.1200,32.5155 C24.2460,32.2853 24.2152,31.9665 24.2152,31.9665 L24.1778,29.6048 Z" style="fill-rule: evenodd; fill: url(#grad9815); "/>
    <path xmlns="http://www.w3.org/2000/svg" d="  M23.6033,25.5900 C23.5665,25.0448 23.1968,24.6817 22.7588,24.4125 C22.7588,24.4125 3.1740,13.3155 3.0210,13.2330 C2.7593,13.0913 2.5718,13.0860 2.4150,13.1663 C1.9905,13.3830 1.1970,13.7888 1.1490,13.8323 C0.8685,14.0325 0.4170,14.4143 0.4200,14.7375 L0.4200,20.8635 C0.4200,21.4553 0.7215,21.9022 1.5683,22.2855 L20.4143,32.8455 C21.2903,33.4755 22.0013,33.0653 22.0013,33.0653 C22.0013,33.0653 23.0505,32.5185 23.3625,32.2800 C23.6318,32.0738 23.6025,31.6020 23.6025,31.6020 L23.6033,25.5900 Z" style="fill-rule: evenodd; fill: #000000; "/>
    <defs xmlns="http://www.w3.org/2000/svg" xmlns:xlink="http://www.w3.org/1999/xlink">
      <linearGradient id="grad9816">
        <stop offset="0%" stop-color="#6c6d69" stop-opacity="1.0000"/>
        <stop offset="100%" stop-color="#6e7488" stop-opacity="1.0000"/>
      </linearGradient>
      <linearGradient xlink:href="#grad9816" id="grad9817" x1="0" y1="0" x2="0" y2="1" gradientTransform="rotate(135 .5 .5)" gradientUnits="objectBoundingBox">
  </linearGradient>
    </defs>
    <path xmlns="http://www.w3.org/2000/svg" d="  M23.2913,25.7303 C23.2560,25.1910 22.8900,24.8325 22.4565,24.5670 C22.4565,24.5670 2.7120,13.4063 2.5613,13.3253 C2.3010,13.1843 2.1173,13.1798 1.9613,13.2593 C1.5413,13.4730 0.7560,13.8758 0.7080,13.9178 C0.4298,14.1158 0.0000,14.5140 0.0015,14.8328 L0.0015,20.8950 C0.0015,21.4808 0.2985,21.9233 1.1385,22.3020 L20.1368,32.9108 C21.0030,33.5333 21.7065,33.1275 21.7065,33.1275 C21.7065,33.1275 22.7460,32.5883 23.0558,32.3513 C23.3220,32.1480 23.2935,31.6800 23.2935,31.6800 L23.2913,25.7303 Z" style="fill-rule: evenodd; fill: url(#grad9817); "/>
    <path xmlns="http://www.w3.org/2000/svg" d="  M22.0447,32.2605 C22.0642,33.0210 21.4245,33.5025 20.6040,33.1305 L0.4845,21.9435 C0.0900,21.7088 0.0037,21.2070 0.0037,20.6715 L0.0037,14.7900 C0.0037,14.4075 0.7207,13.8330 1.4242,14.1863 L21.2347,25.4812 C21.7350,25.8023 22.0447,26.2650 22.0447,26.7337 L22.0447,32.2605 Z" style="fill-rule: evenodd; fill: #4f4f4f; "/>
    <defs xmlns="http://www.w3.org/2000/svg">
      <radialGradient id="grad9818" cx="50.0000%" cy="50.0000%" r="100.0000%">
        <stop offset="0%" stop-color="#929292" stop-opacity="1.0000"/>
        <stop offset="100%" stop-color="#252425" stop-opacity="1.0000"/>
      </radialGradient>
    </defs>
    <path xmlns="http://www.w3.org/2000/svg" d="  M21.4620,31.9882 C21.4620,32.7135 20.7645,33.1147 19.1340,32.0280 L1.1655,22.0312 C1.0410,21.9645 0.2790,21.5295 0.2265,20.9010 L0.2835,15.3743 C0.3262,15.0638 0.7462,14.5770 1.2240,14.7885 L20.7915,25.9095 C21.1418,26.1232 21.3998,26.4165 21.4253,27.1132 L21.4620,31.9882 Z" style="fill-rule: evenodd; fill: url(#grad9818); "/>
    <defs xmlns="http://www.w3.org/2000/svg" xmlns:xlink="http://www.w3.org/1999/xlink">
      <linearGradient id="grad9819">
        <stop offset="0%" stop-color="#7f7f7f" stop-opacity="1.0000"/>
        <stop offset="100%" stop-color="#0c0c0c" stop-opacity="1.0000"/>
      </linearGradient>
      <linearGradient xlink:href="#grad9819" id="grad9820" x1="0" y1="0" x2="0" y2="1" gradientTransform="rotate(180 .5 .5)" gradientUnits="objectBoundingBox">
  </linearGradient>
    </defs>
    <path xmlns="http://www.w3.org/2000/svg" d="  M20.8732,31.8412 C20.8703,32.6205 20.9040,33.1642 19.3747,32.2162 L0.8595,21.8377 C0.7350,21.7695 0.2423,21.4770 0.2318,20.8477 L0.2805,15.6015 C0.2805,15.2910 0.2940,14.7825 1.1220,15.1747 L20.3137,26.2267 C20.6625,26.4420 20.8658,26.6235 20.8658,27.0045 L20.8732,31.8412 Z" style="fill-rule: evenodd; fill: url(#grad9820); "/>
    <defs xmlns="http://www.w3.org/2000/svg" xmlns:xlink="http://www.w3.org/1999/xlink">
      <linearGradient id="grad9821">
        <stop offset="0%" stop-color="#7f7f7f" stop-opacity="0.3686"/>
        <stop offset="100%" stop-color="#ffffff" stop-opacity="0.3686"/>
      </linearGradient>
      <linearGradient xlink:href="#grad9821" id="grad9822" x1="0" y1="0" x2="0" y2="1" gradientTransform="rotate(90 .5 .5)" gradientUnits="objectBoundingBox">
  </linearGradient>
    </defs>
    <path xmlns="http://www.w3.org/2000/svg" d="  M2.5478,22.7475 L0.8820,21.8168 C0.7583,21.7500 0.2655,21.4575 0.2543,20.8305 L0.3000,15.6083 C0.3000,15.2985 0.3135,14.7908 1.1408,15.1830 L8.4975,19.4640 L2.5478,22.7475 Z" style="fill-rule: evenodd; fill: url(#grad9822); "/>
    <defs xmlns="http://www.w3.org/2000/svg">
      <linearGradient id="grad9823">
        <stop offset="0%" stop-color="#ffffff" stop-opacity="1.0000"/>
        <stop offset="100%" stop-color="#000000" stop-opacity="1.0000"/>
      </linearGradient>
    </defs>
    <path xmlns="http://www.w3.org/2000/svg" d="  M26.8110,3.9322 C26.4728,3.9285 26.1945,4.1197 26.1923,4.3582 C26.1893,4.5967 26.4615,4.7932 26.8020,4.7962 C27.1425,4.7992 27.4200,4.6095 27.4230,4.3702 C27.4253,4.1317 27.1515,3.9360 26.8110,3.9322 Z" style="fill-rule: evenodd; fill: url(#grad9823); "/>
    <path xmlns="http://www.w3.org/2000/svg" d="  M26.8463,3.9480 C26.5403,3.9442 26.2913,4.1168 26.2875,4.3312 C26.2860,4.5457 26.5313,4.7205 26.8380,4.7235 C27.1410,4.7272 27.3900,4.5562 27.3930,4.3417 C27.3960,4.1265 27.1500,3.9510 26.8463,3.9480 Z" style="fill-rule: evenodd; fill: #44494f; "/>
    <defs xmlns="http://www.w3.org/2000/svg">
      <linearGradient id="grad9824">
        <stop offset="0%" stop-color="#ffffff" stop-opacity="1.0000"/>
        <stop offset="100%" stop-color="#000000" stop-opacity="1.0000"/>
      </linearGradient>
    </defs>
    <path xmlns="http://www.w3.org/2000/svg" d="  M29.7960,5.6108 C29.4555,5.6078 29.1788,5.7990 29.1758,6.0383 C29.1735,6.2760 29.4458,6.4733 29.7878,6.4755 C30.1260,6.4800 30.4043,6.2888 30.4058,6.0503 C30.4095,5.8110 30.1358,5.6153 29.7960,5.6108 Z" style="fill-rule: evenodd; fill: url(#grad9824); "/>
    <path xmlns="http://www.w3.org/2000/svg" d="  M29.8295,5.6264 A0.3877,0.5520 90.7563 1,1 29.2724,6.0069 A0.3877,0.5520 90.7563 0,1 29.8295,5.6264 Z" style="fill-rule: evenodd; fill: #44494f; "/>
    <defs xmlns="http://www.w3.org/2000/svg">
      <linearGradient id="grad9825">
        <stop offset="0%" stop-color="#ffffff" stop-opacity="1.0000"/>
        <stop offset="100%" stop-color="#000000" stop-opacity="1.0000"/>
      </linearGradient>
    </defs>
    <path xmlns="http://www.w3.org/2000/svg" d="  M32.6535,7.2840 C32.3138,7.2803 32.0355,7.4715 32.0325,7.7100 C32.0310,7.9493 32.3033,8.1450 32.6445,8.1480 C32.9843,8.1518 33.2610,7.9613 33.2625,7.7228 C33.2663,7.4835 32.9933,7.2885 32.6535,7.2840 Z" style="fill-rule: evenodd; fill: url(#grad9825); "/>
    <path xmlns="http://www.w3.org/2000/svg" d="  M33.2333,7.6875 A0.5512,0.3878 180.0000 1,1 32.6820,7.2998 A0.5512,0.3878 180.0000 0,1 33.2333,7.6875 Z" style="fill-rule: evenodd; fill: #44494f; "/>
    <defs xmlns="http://www.w3.org/2000/svg">
      <linearGradient id="grad9826">
        <stop offset="0%" stop-color="#ffffff" stop-opacity="1.0000"/>
        <stop offset="100%" stop-color="#000000" stop-opacity="1.0000"/>
      </linearGradient>
    </defs>
    <path xmlns="http://www.w3.org/2000/svg" d="  M35.5718,9.0067 C35.2320,9.0037 34.9553,9.1942 34.9508,9.4335 C34.9493,9.6712 35.2215,9.8677 35.5628,9.8707 C35.9025,9.8745 36.1808,9.6847 36.1823,9.4455 C36.1853,9.2062 35.9115,9.0112 35.5718,9.0067 Z" style="fill-rule: evenodd; fill: url(#grad9826); "/>
    <path xmlns="http://www.w3.org/2000/svg" d="  M35.6070,9.0225 C35.3010,9.0187 35.0520,9.1912 35.0490,9.4050 C35.0475,9.6187 35.2905,9.7950 35.5980,9.7972 C35.9010,9.8002 36.1500,9.6300 36.1530,9.4155 C36.1545,9.2010 35.9100,9.0262 35.6070,9.0225 Z" style="fill-rule: evenodd; fill: #44494f; "/>
    <defs xmlns="http://www.w3.org/2000/svg">
      <linearGradient id="grad9827">
        <stop offset="0%" stop-color="#ffffff" stop-opacity="1.0000"/>
        <stop offset="100%" stop-color="#000000" stop-opacity="1.0000"/>
      </linearGradient>
    </defs>
    <path xmlns="http://www.w3.org/2000/svg" d="  M38.5103,10.6898 C38.1690,10.6860 37.8923,10.8773 37.8893,11.1158 C37.8863,11.3543 38.1585,11.5515 38.5013,11.5538 C38.8410,11.5575 39.1178,11.3670 39.1208,11.1278 C39.1223,10.8893 38.8500,10.6935 38.5103,10.6898 Z" style="fill-rule: evenodd; fill: url(#grad9827); "/>
    <path xmlns="http://www.w3.org/2000/svg" d="  M39.0900,11.0925 A0.5512,0.3878 180.0000 1,1 38.5388,10.7048 A0.5512,0.3878 180.0000 0,1 39.0900,11.0925 Z" style="fill-rule: evenodd; fill: #44494f; "/>
    <defs xmlns="http://www.w3.org/2000/svg">
      <linearGradient id="grad9828">
        <stop offset="0%" stop-color="#ffffff" stop-opacity="1.0000"/>
        <stop offset="100%" stop-color="#000000" stop-opacity="1.0000"/>
      </linearGradient>
    </defs>
    <path xmlns="http://www.w3.org/2000/svg" d="  M24.2175,5.4878 C23.8778,5.4848 23.6003,5.6760 23.5973,5.9145 C23.5950,6.1530 23.8673,6.3495 24.2078,6.3525 C24.5490,6.3570 24.8258,6.1665 24.8280,5.9273 C24.8310,5.6873 24.5558,5.4923 24.2175,5.4878 Z" style="fill-rule: evenodd; fill: url(#grad9828); "/>
    <path xmlns="http://www.w3.org/2000/svg" d="  M24.2519,5.5044 A0.3877,0.5542 90.5959 1,1 23.6936,5.8864 A0.3877,0.5542 90.5959 0,1 24.2519,5.5044 Z" style="fill-rule: evenodd; fill: #44494f; "/>
    <defs xmlns="http://www.w3.org/2000/svg">
      <linearGradient id="grad9829">
        <stop offset="0%" stop-color="#ffffff" stop-opacity="1.0000"/>
        <stop offset="100%" stop-color="#000000" stop-opacity="1.0000"/>
      </linearGradient>
    </defs>
    <path xmlns="http://www.w3.org/2000/svg" d="  M27.2018,7.1662 C26.8613,7.1632 26.5845,7.3545 26.5815,7.5930 C26.5800,7.8315 26.8515,8.0280 27.1935,8.0310 C27.5318,8.0347 27.8093,7.8442 27.8115,7.6057 C27.8138,7.3665 27.5415,7.1707 27.2018,7.1662 Z" style="fill-rule: evenodd; fill: url(#grad9829); "/>
    <path xmlns="http://www.w3.org/2000/svg" d="  M27.2336,7.1825 A0.3877,0.5520 90.6475 1,1 26.6773,7.5640 A0.3877,0.5520 90.6475 0,1 27.2336,7.1825 Z" style="fill-rule: evenodd; fill: #44494f; "/>
    <defs xmlns="http://www.w3.org/2000/svg">
      <linearGradient id="grad9830">
        <stop offset="0%" stop-color="#ffffff" stop-opacity="1.0000"/>
        <stop offset="100%" stop-color="#000000" stop-opacity="1.0000"/>
      </linearGradient>
    </defs>
    <path xmlns="http://www.w3.org/2000/svg" d="  M30.0585,8.8395 C29.7188,8.8357 29.4420,9.0270 29.4390,9.2655 C29.4368,9.5047 29.7083,9.7012 30.0488,9.7042 C30.3885,9.7080 30.6668,9.5175 30.6683,9.2782 C30.6713,9.0397 30.3983,8.8440 30.0585,8.8395 Z" style="fill-rule: evenodd; fill: url(#grad9830); "/>
    <path xmlns="http://www.w3.org/2000/svg" d="  M30.0911,8.8560 A0.3877,0.5535 90.6475 1,1 29.5332,9.2374 A0.3877,0.5535 90.6475 0,1 30.0911,8.8560 Z" style="fill-rule: evenodd; fill: #44494f; "/>
    <defs xmlns="http://www.w3.org/2000/svg">
      <linearGradient id="grad9831">
        <stop offset="0%" stop-color="#ffffff" stop-opacity="1.0000"/>
        <stop offset="100%" stop-color="#000000" stop-opacity="1.0000"/>
      </linearGradient>
    </defs>
    <path xmlns="http://www.w3.org/2000/svg" d="  M32.9775,10.5622 C32.6378,10.5585 32.3595,10.7505 32.3565,10.9882 C32.3550,11.2275 32.6273,11.4240 32.9685,11.4262 C33.3068,11.4307 33.5850,11.2402 33.5880,11.0017 C33.5910,10.7625 33.3173,10.5667 32.9775,10.5622 Z" style="fill-rule: evenodd; fill: url(#grad9831); "/>
    <path xmlns="http://www.w3.org/2000/svg" d="  M33.0113,10.5780 C32.7068,10.5750 32.4593,10.7460 32.4548,10.9605 C32.4518,11.1750 32.6978,11.3505 33.0038,11.3527 C33.3068,11.3565 33.5558,11.1855 33.5588,10.9710 C33.5603,10.7572 33.3158,10.5817 33.0113,10.5780 Z" style="fill-rule: evenodd; fill: #44494f; "/>
    <defs xmlns="http://www.w3.org/2000/svg">
      <linearGradient id="grad9832">
        <stop offset="0%" stop-color="#ffffff" stop-opacity="1.0000"/>
        <stop offset="100%" stop-color="#000000" stop-opacity="1.0000"/>
      </linearGradient>
    </defs>
    <path xmlns="http://www.w3.org/2000/svg" d="  M35.9160,12.2452 C35.5748,12.2422 35.2965,12.4327 35.2950,12.6727 C35.2920,12.9112 35.5643,13.1070 35.9070,13.1100 C36.2453,13.1137 36.5235,12.9232 36.5265,12.6840 C36.5280,12.4455 36.2558,12.2490 35.9160,12.2452 Z" style="fill-rule: evenodd; fill: url(#grad9832); "/>
    <path xmlns="http://www.w3.org/2000/svg" d="  M35.9457,12.2611 A0.3877,0.5505 90.6475 1,1 35.3909,12.6426 A0.3877,0.5505 90.6475 0,1 35.9457,12.2611 Z" style="fill-rule: evenodd; fill: #44494f; "/>
    <defs xmlns="http://www.w3.org/2000/svg">
      <linearGradient id="grad9833">
        <stop offset="0%" stop-color="#ffffff" stop-opacity="1.0000"/>
        <stop offset="100%" stop-color="#000000" stop-opacity="1.0000"/>
      </linearGradient>
    </defs>
    <path xmlns="http://www.w3.org/2000/svg" d="  M21.4440,7.0185 C21.1035,7.0147 20.8268,7.2060 20.8230,7.4445 C20.8215,7.6837 21.0938,7.8802 21.4343,7.8832 C21.7733,7.8870 22.0523,7.6965 22.0538,7.4572 C22.0568,7.2180 21.7830,7.0222 21.4440,7.0185 Z" style="fill-rule: evenodd; fill: url(#grad9833); "/>
    <path xmlns="http://www.w3.org/2000/svg" d="  M21.4765,7.0344 A0.3877,0.5527 90.5959 1,1 20.9198,7.4164 A0.3877,0.5527 90.5959 0,1 21.4765,7.0344 Z" style="fill-rule: evenodd; fill: #44494f; "/>
    <defs xmlns="http://www.w3.org/2000/svg">
      <linearGradient id="grad9834">
        <stop offset="0%" stop-color="#ffffff" stop-opacity="1.0000"/>
        <stop offset="100%" stop-color="#000000" stop-opacity="1.0000"/>
      </linearGradient>
    </defs>
    <path xmlns="http://www.w3.org/2000/svg" d="  M24.4283,8.6962 C24.0885,8.6932 23.8095,8.8845 23.8080,9.1237 C23.8065,9.3622 24.0765,9.5587 24.4193,9.5610 C24.7590,9.5662 25.0358,9.3750 25.0388,9.1365 C25.0403,8.8965 24.7680,8.7000 24.4283,8.6962 Z" style="fill-rule: evenodd; fill: url(#grad9834); "/>
    <path xmlns="http://www.w3.org/2000/svg" d="  M24.4596,8.7143 A0.3870,0.5512 90.5959 1,1 23.9044,9.0956 A0.3870,0.5512 90.5959 0,1 24.4596,8.7143 Z" style="fill-rule: evenodd; fill: #44494f; "/>
    <defs xmlns="http://www.w3.org/2000/svg">
      <linearGradient id="grad9835">
        <stop offset="0%" stop-color="#ffffff" stop-opacity="1.0000"/>
        <stop offset="100%" stop-color="#000000" stop-opacity="1.0000"/>
      </linearGradient>
    </defs>
    <path xmlns="http://www.w3.org/2000/svg" d="  M27.2850,10.3695 C26.9445,10.3665 26.6670,10.5570 26.6640,10.7962 C26.6618,11.0347 26.9340,11.2312 27.2753,11.2342 C27.6158,11.2380 27.8933,11.0475 27.8955,10.8090 C27.8978,10.5697 27.6248,10.3732 27.2850,10.3695 Z" style="fill-rule: evenodd; fill: url(#grad9835); "/>
    <path xmlns="http://www.w3.org/2000/svg" d="  M27.8655,10.7730 A0.5520,0.3878 180.0000 1,1 27.3135,10.3852 A0.5520,0.3878 180.0000 0,1 27.8655,10.7730 Z" style="fill-rule: evenodd; fill: #44494f; "/>
    <defs xmlns="http://www.w3.org/2000/svg">
      <linearGradient id="grad9836">
        <stop offset="0%" stop-color="#ffffff" stop-opacity="1.0000"/>
        <stop offset="100%" stop-color="#000000" stop-opacity="1.0000"/>
      </linearGradient>
    </defs>
    <path xmlns="http://www.w3.org/2000/svg" d="  M30.2033,12.0922 C29.8643,12.0892 29.5853,12.2797 29.5838,12.5197 C29.5808,12.7575 29.8530,12.9547 30.1935,12.9570 C30.5333,12.9615 30.8108,12.7702 30.8138,12.5310 C30.8168,12.2925 30.5430,12.0967 30.2033,12.0922 Z" style="fill-rule: evenodd; fill: url(#grad9836); "/>
    <path xmlns="http://www.w3.org/2000/svg" d="  M30.2370,12.1080 C29.9310,12.1042 29.6820,12.2767 29.6798,12.4905 C29.6775,12.7050 29.9228,12.8805 30.2288,12.8835 C30.5318,12.8872 30.7815,12.7162 30.7845,12.5017 C30.7875,12.2872 30.5415,12.1117 30.2370,12.1080 Z" style="fill-rule: evenodd; fill: #44494f; "/>
    <defs xmlns="http://www.w3.org/2000/svg">
      <linearGradient id="grad9837">
        <stop offset="0%" stop-color="#ffffff" stop-opacity="1.0000"/>
        <stop offset="100%" stop-color="#000000" stop-opacity="1.0000"/>
      </linearGradient>
    </defs>
    <path xmlns="http://www.w3.org/2000/svg" d="  M33.1433,13.7752 C32.8005,13.7722 32.5238,13.9635 32.5208,14.2020 C32.5193,14.4405 32.7915,14.6370 33.1328,14.6392 C33.4710,14.6437 33.7508,14.4540 33.7523,14.2140 C33.7553,13.9755 33.4815,13.7790 33.1433,13.7752 Z" style="fill-rule: evenodd; fill: url(#grad9837); "/>
    <path xmlns="http://www.w3.org/2000/svg" d="  M33.1731,13.7910 A0.3877,0.5520 90.6475 1,1 32.6168,14.1725 A0.3877,0.5520 90.6475 0,1 33.1731,13.7910 Z" style="fill-rule: evenodd; fill: #44494f; "/>
    <defs xmlns="http://www.w3.org/2000/svg">
      <linearGradient id="grad9838">
        <stop offset="0%" stop-color="#ffffff" stop-opacity="1.0000"/>
        <stop offset="100%" stop-color="#000000" stop-opacity="1.0000"/>
      </linearGradient>
    </defs>
    <path xmlns="http://www.w3.org/2000/svg" d="  M18.8498,8.5740 C18.5100,8.5702 18.2318,8.7615 18.2295,9.0007 C18.2265,9.2392 18.4995,9.4357 18.8400,9.4387 C19.1790,9.4425 19.4580,9.2520 19.4595,9.0127 C19.4618,8.7735 19.1888,8.5770 18.8498,8.5740 Z" style="fill-rule: evenodd; fill: url(#grad9838); "/>
    <path xmlns="http://www.w3.org/2000/svg" d="  M18.8814,8.5895 A0.3877,0.5520 90.6475 1,1 18.3251,8.9710 A0.3877,0.5520 90.6475 0,1 18.8814,8.5895 Z" style="fill-rule: evenodd; fill: #44494f; "/>
    <defs xmlns="http://www.w3.org/2000/svg">
      <linearGradient id="grad9839">
        <stop offset="0%" stop-color="#ffffff" stop-opacity="1.0000"/>
        <stop offset="100%" stop-color="#000000" stop-opacity="1.0000"/>
      </linearGradient>
    </defs>
    <path xmlns="http://www.w3.org/2000/svg" d="  M21.8333,10.2525 C21.4935,10.2487 21.2160,10.4407 21.2138,10.6792 C21.2115,10.9177 21.4830,11.1142 21.8243,11.1165 C22.1648,11.1210 22.4415,10.9305 22.4445,10.6912 C22.4460,10.4520 22.1738,10.2570 21.8333,10.2525 Z" style="fill-rule: evenodd; fill: url(#grad9839); "/>
    <path xmlns="http://www.w3.org/2000/svg" d="  M21.8669,10.2693 A0.3877,0.5527 90.5959 1,1 21.3101,10.6513 A0.3877,0.5527 90.5959 0,1 21.8669,10.2693 Z" style="fill-rule: evenodd; fill: #44494f; "/>
    <defs xmlns="http://www.w3.org/2000/svg">
      <linearGradient id="grad9840">
        <stop offset="0%" stop-color="#ffffff" stop-opacity="1.0000"/>
        <stop offset="100%" stop-color="#000000" stop-opacity="1.0000"/>
      </linearGradient>
    </defs>
    <path xmlns="http://www.w3.org/2000/svg" d="  M24.6908,11.9250 C24.3503,11.9220 24.0720,12.1132 24.0690,12.3517 C24.0668,12.5910 24.3405,12.7875 24.6810,12.7897 C25.0208,12.7942 25.2975,12.6037 25.3005,12.3645 C25.3035,12.1252 25.0298,11.9302 24.6908,11.9250 Z" style="fill-rule: evenodd; fill: url(#grad9840); "/>
    <path xmlns="http://www.w3.org/2000/svg" d="  M25.2713,12.3292 A0.5520,0.3878 180.0000 1,1 24.7193,11.9415 A0.5520,0.3878 180.0000 0,1 25.2713,12.3292 Z" style="fill-rule: evenodd; fill: #44494f; "/>
    <defs xmlns="http://www.w3.org/2000/svg">
      <linearGradient id="grad9841">
        <stop offset="0%" stop-color="#ffffff" stop-opacity="1.0000"/>
        <stop offset="100%" stop-color="#000000" stop-opacity="1.0000"/>
      </linearGradient>
    </defs>
    <path xmlns="http://www.w3.org/2000/svg" d="  M27.6098,13.6485 C27.2685,13.6455 26.9910,13.8360 26.9895,14.0752 C26.9865,14.3137 27.2580,14.5102 27.6000,14.5125 C27.9390,14.5170 28.2165,14.3265 28.2195,14.0872 C28.2210,13.8480 27.9488,13.6530 27.6098,13.6485 Z" style="fill-rule: evenodd; fill: url(#grad9841); "/>
    <path xmlns="http://www.w3.org/2000/svg" d="  M27.6428,13.6642 C27.3368,13.6605 27.0885,13.8322 27.0863,14.0460 C27.0840,14.2605 27.3270,14.4367 27.6345,14.4390 C27.9375,14.4427 28.1865,14.2725 28.1903,14.0572 C28.1918,13.8427 27.9473,13.6680 27.6428,13.6642 Z" style="fill-rule: evenodd; fill: #44494f; "/>
    <defs xmlns="http://www.w3.org/2000/svg">
      <linearGradient id="grad9842">
        <stop offset="0%" stop-color="#ffffff" stop-opacity="1.0000"/>
        <stop offset="100%" stop-color="#000000" stop-opacity="1.0000"/>
      </linearGradient>
    </defs>
    <path xmlns="http://www.w3.org/2000/svg" d="  M30.5468,15.3307 C30.2063,15.3277 29.9295,15.5182 29.9265,15.7575 C29.9250,15.9960 30.1965,16.1925 30.5378,16.1955 C30.8783,16.1992 31.1550,16.0087 31.1580,15.7695 C31.1595,15.5310 30.8873,15.3345 30.5468,15.3307 Z" style="fill-rule: evenodd; fill: url(#grad9842); "/>
    <path xmlns="http://www.w3.org/2000/svg" d="  M30.5805,15.3465 C30.2753,15.3435 30.0263,15.5145 30.0240,15.7282 C30.0203,15.9427 30.2663,16.1190 30.5723,16.1212 C30.8783,16.1250 31.1258,15.9540 31.1273,15.7402 C31.1318,15.5257 30.8858,15.3510 30.5805,15.3465 Z" style="fill-rule: evenodd; fill: #44494f; "/>
    <defs xmlns="http://www.w3.org/2000/svg">
      <radialGradient id="grad9843" cx="0.0000%" cy="100.0000%" r="100.0000%">
        <stop offset="0%" stop-color="#e8ff66" stop-opacity="1.0000"/>
        <stop offset="100%" stop-color="#079948" stop-opacity="1.0000"/>
      </radialGradient>
    </defs>
    <path xmlns="http://www.w3.org/2000/svg" d="  M4.6065,20.4862 C4.8413,20.9407 4.7438,21.4560 4.3913,21.6375 C4.0388,21.8182 3.5618,21.5977 3.3293,21.1432 C3.0960,20.6880 3.1928,20.1735 3.5460,19.9920 C3.8985,19.8105 4.3740,20.0325 4.6065,20.4862 Z" style="fill-rule: evenodd; fill: url(#grad9843); "/>
    <defs xmlns="http://www.w3.org/2000/svg">
      <radialGradient id="grad9844" cx="0.0000%" cy="100.0000%" r="100.0000%">
        <stop offset="0%" stop-color="#ffffff" stop-opacity="1.0000"/>
        <stop offset="100%" stop-color="#62d839" stop-opacity="1.0000"/>
      </radialGradient>
    </defs>
    <path xmlns="http://www.w3.org/2000/svg" d="  M3.7740,20.5470 C3.8903,20.4750 4.0830,20.5867 4.2045,20.7952 C4.3260,21.0030 4.3283,21.2280 4.2128,21.3000 C4.0950,21.3705 3.9023,21.2595 3.7808,21.0510 C3.6608,20.8432 3.6570,20.6175 3.7740,20.5470 Z" style="fill-rule: evenodd; fill: url(#grad9844); "/>
    <defs xmlns="http://www.w3.org/2000/svg">
      <radialGradient id="grad9845" cx="0.0000%" cy="100.0000%" r="100.0000%">
        <stop offset="0%" stop-color="#ffffff" stop-opacity="1.0000"/>
        <stop offset="100%" stop-color="#62d839" stop-opacity="1.0000"/>
      </radialGradient>
    </defs>
    <path xmlns="http://www.w3.org/2000/svg" d="  M15.1875,27.0720 C15.3038,27.0015 15.4973,27.1132 15.6195,27.3210 C15.7403,27.5287 15.7433,27.7545 15.6270,27.8265 C15.5093,27.8985 15.3165,27.7852 15.1958,27.5775 C15.0743,27.3697 15.0713,27.1440 15.1875,27.0720 Z" style="fill-rule: evenodd; fill: url(#grad9845); "/>
    <defs xmlns="http://www.w3.org/2000/svg">
      <radialGradient id="grad9846" cx="0.0000%" cy="100.0000%" r="100.0000%">
        <stop offset="0%" stop-color="#e8ff66" stop-opacity="1.0000"/>
        <stop offset="100%" stop-color="#079948" stop-opacity="1.0000"/>
      </radialGradient>
    </defs>
    <path xmlns="http://www.w3.org/2000/svg" d="  M16.0590,27.1627 C16.2923,27.6180 16.1955,28.1325 15.8423,28.3155 C15.4905,28.4955 15.0143,28.2742 14.7803,27.8205 C14.5478,27.3667 14.6438,26.8507 14.9970,26.6692 C15.3495,26.4877 15.8250,26.7105 16.0590,27.1627 Z" style="fill-rule: evenodd; fill: url(#grad9846); "/>
    <defs xmlns="http://www.w3.org/2000/svg">
      <radialGradient id="grad9847" cx="0.0000%" cy="100.0000%" r="100.0000%">
        <stop offset="0%" stop-color="#ffffff" stop-opacity="1.0000"/>
        <stop offset="100%" stop-color="#62d839" stop-opacity="1.0000"/>
      </radialGradient>
    </defs>
    <path xmlns="http://www.w3.org/2000/svg" d="  M15.1875,27.0720 C15.3038,27.0015 15.4973,27.1132 15.6195,27.3210 C15.7403,27.5287 15.7433,27.7545 15.6270,27.8265 C15.5093,27.8985 15.3165,27.7852 15.1958,27.5775 C15.0743,27.3697 15.0713,27.1440 15.1875,27.0720 Z" style="fill-rule: evenodd; fill: url(#grad9847); "/>
    <defs xmlns="http://www.w3.org/2000/svg">
      <radialGradient id="grad9848" cx="0.0000%" cy="100.0000%" r="100.0000%">
        <stop offset="0%" stop-color="#e8ff66" stop-opacity="1.0000"/>
        <stop offset="100%" stop-color="#079948" stop-opacity="1.0000"/>
      </radialGradient>
    </defs>
    <path xmlns="http://www.w3.org/2000/svg" d="  M15.9075,26.9370 C16.1408,27.3907 16.0448,27.9067 15.6908,28.0882 C15.3383,28.2697 14.8628,28.0470 14.6295,27.5932 C14.3963,27.1395 14.4930,26.6235 14.8470,26.4420 C15.1988,26.2620 15.6743,26.4832 15.9075,26.9370 Z" style="fill-rule: evenodd; fill: url(#grad9848); "/>
    <defs xmlns="http://www.w3.org/2000/svg">
      <radialGradient id="grad9849" cx="0.0000%" cy="100.0000%" r="100.0000%">
        <stop offset="0%" stop-color="#ffffff" stop-opacity="1.0000"/>
        <stop offset="100%" stop-color="#62d839" stop-opacity="1.0000"/>
      </radialGradient>
    </defs>
    <path xmlns="http://www.w3.org/2000/svg" d="  M12.8453,25.6890 C12.9623,25.6170 13.1558,25.7302 13.2765,25.9380 C13.3980,26.1457 13.4018,26.3715 13.2848,26.4435 C13.1678,26.5140 12.9750,26.4022 12.8528,26.1945 C12.7328,25.9867 12.7298,25.7610 12.8453,25.6890 Z" style="fill-rule: evenodd; fill: url(#grad9849); "/>
    <defs xmlns="http://www.w3.org/2000/svg">
      <radialGradient id="grad9850" cx="0.0000%" cy="100.0000%" r="100.0000%">
        <stop offset="0%" stop-color="#e8ff66" stop-opacity="1.0000"/>
        <stop offset="100%" stop-color="#079948" stop-opacity="1.0000"/>
      </radialGradient>
    </defs>
    <path xmlns="http://www.w3.org/2000/svg" d="  M13.6215,25.6117 C13.8548,26.0647 13.7588,26.5815 13.4063,26.7615 C13.0523,26.9430 12.5775,26.7217 12.3443,26.2665 C12.1110,25.8127 12.2078,25.2967 12.5610,25.1167 C12.9128,24.9345 13.3890,25.1557 13.6215,25.6117 Z" style="fill-rule: evenodd; fill: url(#grad9850); "/>
    <defs xmlns="http://www.w3.org/2000/svg">
      <radialGradient id="grad9851" cx="0.0000%" cy="100.0000%" r="100.0000%">
        <stop offset="0%" stop-color="#ffffff" stop-opacity="1.0000"/>
        <stop offset="100%" stop-color="#62d839" stop-opacity="1.0000"/>
      </radialGradient>
    </defs>
    <path xmlns="http://www.w3.org/2000/svg" d="  M10.6658,24.5317 C10.7820,24.4612 10.9755,24.5730 11.0970,24.7807 C11.2178,24.9885 11.2208,25.2142 11.1053,25.2847 C10.9868,25.3552 10.7940,25.2450 10.6740,25.0372 C10.5525,24.8280 10.5495,24.6022 10.6658,24.5317 Z" style="fill-rule: evenodd; fill: url(#grad9851); "/>
    <defs xmlns="http://www.w3.org/2000/svg">
      <radialGradient id="grad9852" cx="0.0000%" cy="100.0000%" r="100.0000%">
        <stop offset="0%" stop-color="#e8ff66" stop-opacity="1.0000"/>
        <stop offset="100%" stop-color="#079948" stop-opacity="1.0000"/>
      </radialGradient>
    </defs>
    <path xmlns="http://www.w3.org/2000/svg" d="  M11.4608,24.5100 C11.6948,24.9637 11.5973,25.4797 11.2448,25.6597 C10.8908,25.8412 10.4160,25.6200 10.1828,25.1662 C9.9488,24.7125 10.0463,24.1965 10.3988,24.0150 C10.7513,23.8350 11.2275,24.0562 11.4608,24.5100 Z" style="fill-rule: evenodd; fill: url(#grad9852); "/>
    <defs xmlns="http://www.w3.org/2000/svg">
      <radialGradient id="grad9853" cx="0.0000%" cy="100.0000%" r="100.0000%">
        <stop offset="0%" stop-color="#ffffff" stop-opacity="1.0000"/>
        <stop offset="100%" stop-color="#62d839" stop-opacity="1.0000"/>
      </radialGradient>
    </defs>
    <path xmlns="http://www.w3.org/2000/svg" d="  M17.5553,28.4490 C17.6723,28.3785 17.8658,28.4902 17.9873,28.6980 C18.1080,28.9057 18.1103,29.1315 17.9948,29.2035 C17.8778,29.2740 17.6843,29.1622 17.5643,28.9545 C17.4435,28.7467 17.4398,28.5210 17.5553,28.4490 Z" style="fill-rule: evenodd; fill: url(#grad9853); "/>
    <defs xmlns="http://www.w3.org/2000/svg">
      <radialGradient id="grad9854" cx="0.0000%" cy="100.0000%" r="100.0000%">
        <stop offset="0%" stop-color="#e8ff66" stop-opacity="1.0000"/>
        <stop offset="100%" stop-color="#079948" stop-opacity="1.0000"/>
      </radialGradient>
    </defs>
    <path xmlns="http://www.w3.org/2000/svg" d="  M18.4275,28.5397 C18.6608,28.9950 18.5648,29.5095 18.2115,29.6910 C17.8590,29.8725 17.3828,29.6497 17.1488,29.1960 C16.9170,28.7422 17.0130,28.2262 17.3670,28.0462 C17.7195,27.8647 18.1943,28.0860 18.4275,28.5397 Z" style="fill-rule: evenodd; fill: url(#grad9854); "/>
    <defs xmlns="http://www.w3.org/2000/svg">
      <radialGradient id="grad9855" cx="0.0000%" cy="100.0000%" r="100.0000%">
        <stop offset="0%" stop-color="#ffffff" stop-opacity="1.0000"/>
        <stop offset="100%" stop-color="#62d839" stop-opacity="1.0000"/>
      </radialGradient>
    </defs>
    <path xmlns="http://www.w3.org/2000/svg" d="  M17.5553,28.4490 C17.6723,28.3785 17.8658,28.4902 17.9873,28.6980 C18.1080,28.9057 18.1103,29.1315 17.9948,29.2035 C17.8778,29.2740 17.6843,29.1622 17.5643,28.9545 C17.4435,28.7467 17.4398,28.5210 17.5553,28.4490 Z" style="fill-rule: evenodd; fill: url(#grad9855); "/>
    <defs xmlns="http://www.w3.org/2000/svg">
      <radialGradient id="grad9856" cx="0.0000%" cy="100.0000%" r="100.0000%">
        <stop offset="0%" stop-color="#e8ff66" stop-opacity="1.0000"/>
        <stop offset="100%" stop-color="#079948" stop-opacity="1.0000"/>
      </radialGradient>
    </defs>
    <path xmlns="http://www.w3.org/2000/svg" d="  M18.3330,28.2765 C18.5662,28.7302 18.4710,29.2462 18.1170,29.4277 C17.7630,29.6077 17.2883,29.3865 17.0558,28.9327 C16.8218,28.4775 16.9193,27.9630 17.2725,27.7815 C17.6243,27.5992 18.0998,27.8205 18.3330,28.2765 Z" style="fill-rule: evenodd; fill: url(#grad9856); "/>
    <defs xmlns="http://www.w3.org/2000/svg">
      <radialGradient id="grad9857" cx="0.0000%" cy="100.0000%" r="100.0000%">
        <stop offset="0%" stop-color="#ffffff" stop-opacity="1.0000"/>
        <stop offset="100%" stop-color="#62d839" stop-opacity="1.0000"/>
      </radialGradient>
    </defs>
    <path xmlns="http://www.w3.org/2000/svg" d="  M5.9543,21.7035 C6.0713,21.6337 6.2648,21.7447 6.3855,21.9525 C6.5063,22.1602 6.5100,22.3860 6.3938,22.4565 C6.2760,22.5285 6.0833,22.4167 5.9625,22.2090 C5.8418,22.0012 5.8380,21.7755 5.9543,21.7035 Z" style="fill-rule: evenodd; fill: url(#grad9857); "/>
    <defs xmlns="http://www.w3.org/2000/svg">
      <radialGradient id="grad9858" cx="0.0000%" cy="100.0000%" r="100.0000%">
        <stop offset="0%" stop-color="#e8ff66" stop-opacity="1.0000"/>
        <stop offset="100%" stop-color="#079948" stop-opacity="1.0000"/>
      </radialGradient>
    </defs>
    <path xmlns="http://www.w3.org/2000/svg" d="  M6.7305,21.6442 C6.9638,22.0987 6.8685,22.6140 6.5145,22.7947 C6.1605,22.9762 5.6865,22.7550 5.4533,22.3012 C5.2185,21.8452 5.3168,21.3307 5.6693,21.1500 C6.0218,20.9685 6.4973,21.1905 6.7305,21.6442 Z" style="fill-rule: evenodd; fill: url(#grad9858); "/>
    <defs xmlns="http://www.w3.org/2000/svg">
      <radialGradient id="grad9859" cx="0.0000%" cy="100.0000%" r="100.0000%">
        <stop offset="0%" stop-color="#ffffff" stop-opacity="1.0000"/>
        <stop offset="100%" stop-color="#62d839" stop-opacity="1.0000"/>
      </radialGradient>
    </defs>
    <path xmlns="http://www.w3.org/2000/svg" d="  M8.2973,23.0880 C8.4128,23.0160 8.6055,23.1277 8.7285,23.3355 C8.8493,23.5432 8.8523,23.7705 8.7345,23.8410 C8.6175,23.9115 8.4248,23.8012 8.3040,23.5935 C8.1833,23.3857 8.1795,23.1577 8.2973,23.0880 Z" style="fill-rule: evenodd; fill: url(#grad9859); "/>
    <defs xmlns="http://www.w3.org/2000/svg">
      <radialGradient id="grad9860" cx="0.0000%" cy="100.0000%" r="100.0000%">
        <stop offset="0%" stop-color="#e8ff66" stop-opacity="1.0000"/>
        <stop offset="100%" stop-color="#079948" stop-opacity="1.0000"/>
      </radialGradient>
    </defs>
    <path xmlns="http://www.w3.org/2000/svg" d="  M9.1665,23.1787 C9.4005,23.6325 9.3045,24.1485 8.9513,24.3300 C8.5973,24.5100 8.1225,24.2887 7.8893,23.8350 C7.6560,23.3812 7.7528,22.8652 8.1060,22.6852 C8.4585,22.5030 8.9333,22.7242 9.1665,23.1787 Z" style="fill-rule: evenodd; fill: url(#grad9860); "/>
    <defs xmlns="http://www.w3.org/2000/svg">
      <radialGradient id="grad9861" cx="0.0000%" cy="100.0000%" r="100.0000%">
        <stop offset="0%" stop-color="#ffffff" stop-opacity="1.0000"/>
        <stop offset="100%" stop-color="#62d839" stop-opacity="1.0000"/>
      </radialGradient>
    </defs>
    <path xmlns="http://www.w3.org/2000/svg" d="  M8.2973,23.0880 C8.4128,23.0160 8.6055,23.1277 8.7285,23.3355 C8.8493,23.5432 8.8523,23.7705 8.7345,23.8410 C8.6175,23.9115 8.4248,23.8012 8.3040,23.5935 C8.1833,23.3857 8.1795,23.1577 8.2973,23.0880 Z" style="fill-rule: evenodd; fill: url(#grad9861); "/>
    <defs xmlns="http://www.w3.org/2000/svg">
      <radialGradient id="grad9862" cx="0.0000%" cy="100.0000%" r="100.0000%">
        <stop offset="0%" stop-color="#e8ff66" stop-opacity="1.0000"/>
        <stop offset="100%" stop-color="#079948" stop-opacity="1.0000"/>
      </radialGradient>
    </defs>
    <path xmlns="http://www.w3.org/2000/svg" d="  M9.0923,23.0280 C9.3248,23.4817 9.2288,23.9977 8.8755,24.1792 C8.5230,24.3592 8.0475,24.1380 7.8135,23.6842 C7.5803,23.2305 7.6778,22.7145 8.0303,22.5330 C8.3828,22.3522 8.8590,22.5735 9.0923,23.0280 Z" style="fill-rule: evenodd; fill: url(#grad9862); "/>
    <defs xmlns="http://www.w3.org/2000/svg" xmlns:xlink="http://www.w3.org/1999/xlink">
      <linearGradient id="grad9863">
        <stop offset="0%" stop-color="#ddd5d8" stop-opacity="1.0000"/>
        <stop offset="100%" stop-color="#f9f9fc" stop-opacity="1.0000"/>
      </linearGradient>
      <linearGradient xlink:href="#grad9863" id="grad9864" x1="0" y1="0" x2="0" y2="1" gradientTransform="rotate(135 .5 .5)" gradientUnits="objectBoundingBox">
  </linearGradient>
    </defs>
    <path xmlns="http://www.w3.org/2000/svg" d="  M34.5375,30.5550 L60.4770,30.5550 L60.4770,12.2865 L34.5375,12.2865 L34.5375,30.5550 Z" style="fill-rule: evenodd; fill: url(#grad9864); "/>
    <defs xmlns="http://www.w3.org/2000/svg" xmlns:xlink="http://www.w3.org/1999/xlink">
      <linearGradient id="grad9865">
        <stop offset="0%" stop-color="#000000" stop-opacity="0.7608"/>
        <stop offset="100%" stop-color="#848484" stop-opacity="0.7608"/>
      </linearGradient>
      <linearGradient xlink:href="#grad9865" id="grad9866" x1="0" y1="0" x2="0" y2="1" gradientTransform="rotate(180 .5 .5)" gradientUnits="objectBoundingBox">
  </linearGradient>
    </defs>
    <path xmlns="http://www.w3.org/2000/svg" d="  M43.5960,22.1002 L56.1495,22.1002 L56.1495,21.5452 L43.5960,21.5452 L43.5960,22.1002 Z" style="fill-rule: evenodd; fill: url(#grad9866); "/>
    <defs xmlns="http://www.w3.org/2000/svg" xmlns:xlink="http://www.w3.org/1999/xlink">
      <linearGradient id="grad9867">
        <stop offset="0%" stop-color="#cbcbc1" stop-opacity="0.7608"/>
        <stop offset="100%" stop-color="#f3f9f7" stop-opacity="0.7608"/>
      </linearGradient>
      <linearGradient xlink:href="#grad9867" id="grad9868" x1="0" y1="0" x2="0" y2="1" gradientTransform="rotate(180 .5 .5)" gradientUnits="objectBoundingBox">
  </linearGradient>
    </defs>
    <path xmlns="http://www.w3.org/2000/svg" d="  M43.5930,22.3402 L56.1480,22.3402 L56.1480,21.7860 L43.5930,21.7860 L43.5930,22.3402 Z" style="fill-rule: evenodd; fill: url(#grad9868); "/>
    <defs xmlns="http://www.w3.org/2000/svg" xmlns:xlink="http://www.w3.org/1999/xlink">
      <linearGradient id="grad9869">
        <stop offset="0%" stop-color="#000000" stop-opacity="0.7608"/>
        <stop offset="100%" stop-color="#848484" stop-opacity="0.7608"/>
      </linearGradient>
      <linearGradient xlink:href="#grad9869" id="grad9870" x1="0" y1="0" x2="0" y2="1" gradientTransform="rotate(180 .5 .5)" gradientUnits="objectBoundingBox">
  </linearGradient>
    </defs>
    <path xmlns="http://www.w3.org/2000/svg" d="  M43.6035,24.2610 L56.1570,24.2610 L56.1570,23.7075 L43.6035,23.7075 L43.6035,24.2610 Z" style="fill-rule: evenodd; fill: url(#grad9870); "/>
    <defs xmlns="http://www.w3.org/2000/svg" xmlns:xlink="http://www.w3.org/1999/xlink">
      <linearGradient id="grad9871">
        <stop offset="0%" stop-color="#cbcbc1" stop-opacity="0.7608"/>
        <stop offset="100%" stop-color="#f3f9f7" stop-opacity="0.7608"/>
      </linearGradient>
      <linearGradient xlink:href="#grad9871" id="grad9872" x1="0" y1="0" x2="0" y2="1" gradientTransform="rotate(180 .5 .5)" gradientUnits="objectBoundingBox">
  </linearGradient>
    </defs>
    <path xmlns="http://www.w3.org/2000/svg" d="  M43.6005,24.5025 L56.1555,24.5025 L56.1555,23.9475 L43.6005,23.9475 L43.6005,24.5025 Z" style="fill-rule: evenodd; fill: url(#grad9872); "/>
    <defs xmlns="http://www.w3.org/2000/svg" xmlns:xlink="http://www.w3.org/1999/xlink">
      <linearGradient id="grad9873">
        <stop offset="0%" stop-color="#000000" stop-opacity="0.7608"/>
        <stop offset="100%" stop-color="#848484" stop-opacity="0.7608"/>
      </linearGradient>
      <linearGradient xlink:href="#grad9873" id="grad9874" x1="0" y1="0" x2="0" y2="1" gradientTransform="rotate(180 .5 .5)" gradientUnits="objectBoundingBox">
  </linearGradient>
    </defs>
    <path xmlns="http://www.w3.org/2000/svg" d="  M43.5915,26.3362 L56.1450,26.3362 L56.1450,25.7827 L43.5915,25.7827 L43.5915,26.3362 Z" style="fill-rule: evenodd; fill: url(#grad9874); "/>
    <defs xmlns="http://www.w3.org/2000/svg" xmlns:xlink="http://www.w3.org/1999/xlink">
      <linearGradient id="grad9875">
        <stop offset="0%" stop-color="#cbcbc1" stop-opacity="0.7608"/>
        <stop offset="100%" stop-color="#f3f9f7" stop-opacity="0.7608"/>
      </linearGradient>
      <linearGradient xlink:href="#grad9875" id="grad9876" x1="0" y1="0" x2="0" y2="1" gradientTransform="rotate(180 .5 .5)" gradientUnits="objectBoundingBox">
  </linearGradient>
    </defs>
    <path xmlns="http://www.w3.org/2000/svg" d="  M43.5885,26.5785 L56.1435,26.5785 L56.1435,26.0235 L43.5885,26.0235 L43.5885,26.5785 Z" style="fill-rule: evenodd; fill: url(#grad9876); "/>
    <defs xmlns="http://www.w3.org/2000/svg" xmlns:xlink="http://www.w3.org/1999/xlink">
      <linearGradient id="grad9877">
        <stop offset="0%" stop-color="#85919c" stop-opacity="1.0000"/>
        <stop offset="100%" stop-color="#ffffff" stop-opacity="1.0000"/>
      </linearGradient>
      <linearGradient xlink:href="#grad9877" id="grad9878" x1="0" y1="0" x2="0" y2="1" gradientTransform="rotate(135 .5 .5)" gradientUnits="objectBoundingBox">
  </linearGradient>
    </defs>
    <path xmlns="http://www.w3.org/2000/svg" d="  M34.3350,30.6652 L34.3350,12.0667 L60.8243,12.0667 L60.8243,30.5610 L60.8243,30.6652 L34.3350,30.6652 Z M60.7185,30.5610 L60.7185,30.4567 L60.7185,30.5610 Z M34.5450,30.4575 L60.6150,30.4575 L60.6150,12.2760 L34.5450,12.2760 L34.5450,30.4575 Z" style="fill-rule: evenodd; fill: url(#grad9878); "/>
    <defs xmlns="http://www.w3.org/2000/svg" xmlns:xlink="http://www.w3.org/1999/xlink">
      <linearGradient id="grad9879">
        <stop offset="0%" stop-color="#cbcbc1" stop-opacity="1.0000"/>
        <stop offset="100%" stop-color="#f3f9f7" stop-opacity="1.0000"/>
      </linearGradient>
      <linearGradient xlink:href="#grad9879" id="grad9880" x1="0" y1="0" x2="0" y2="1" gradientTransform="rotate(315 .5 .5)" gradientUnits="objectBoundingBox">
  </linearGradient>
    </defs>
    <path xmlns="http://www.w3.org/2000/svg" d="  M34.5608,30.4672 L34.5608,12.2347 L60.6292,12.2347 L60.6292,30.3630 L60.6292,30.4672 L34.5608,30.4672 Z M60.5250,30.3637 L60.5250,30.2610 L60.5250,30.3637 Z M34.7678,30.2610 L60.4245,30.2610 L60.4215,12.4403 L34.7678,12.4403 L34.7678,30.2610 Z" style="fill-rule: evenodd; fill: url(#grad9880); "/>
    <path xmlns="http://www.w3.org/2000/svg" d="  M58.4805,18.5272 C58.4603,18.5107 58.4498,18.4770 58.4498,18.4267 L58.4498,18.4260 C58.4498,18.3757 58.4603,18.3420 58.4805,18.3255 C58.4925,18.3142 58.5053,18.3142 58.5098,18.3142 L58.5570,18.3142 L58.5570,18.1267 L58.5098,18.1267 C58.5053,18.1282 58.4925,18.1282 58.4805,18.1162 C58.4603,18.1005 58.4498,18.0660 58.4498,18.0157 L58.4498,18.0150 C58.4498,17.9640 58.4603,17.9310 58.4805,17.9137 C58.4925,17.9025 58.5053,17.9025 58.5098,17.9032 L58.5570,17.9032 L58.5570,17.7157 L58.5098,17.7157 C58.5053,17.7172 58.4925,17.7172 58.4805,17.7052 C58.4603,17.6895 58.4498,17.6550 58.4498,17.6055 L58.4498,17.6047 L58.4498,17.6032 C58.4498,17.5530 58.4603,17.5185 58.4805,17.5027 C58.4925,17.4922 58.5053,17.4922 58.5098,17.4922 L58.5570,17.4922 L58.5570,17.3047 L58.5098,17.3047 C58.5053,17.3055 58.4925,17.3055 58.4805,17.2942 C58.4603,17.2785 58.4498,17.2440 58.4498,17.1937 L58.4498,17.1908 C58.4498,17.1405 58.4603,17.1060 58.4805,17.0902 C58.4925,17.0797 58.5053,17.0797 58.5098,17.0797 L58.5570,17.0797 L58.5570,16.8922 L58.5098,16.8922 C58.5053,16.8922 58.4925,16.8922 58.4805,16.8817 C58.4603,16.8652 58.4498,16.8315 58.4498,16.7813 L58.4498,16.7805 L58.4498,16.7797 C58.4498,16.7295 58.4603,16.6958 58.4805,16.6792 C58.4925,16.6680 58.5053,16.6680 58.5098,16.6688 L58.5570,16.6688 L58.5570,16.4812 L58.5098,16.4812 C58.5053,16.4820 58.4925,16.4820 58.4805,16.4708 C58.4603,16.4542 58.4498,16.4205 58.4498,16.3695 L58.4498,16.3687 C58.4498,16.3185 58.4603,16.2848 58.4805,16.2675 C58.4925,16.2570 58.5053,16.2570 58.5098,16.2578 L58.5570,16.2578 L58.5570,16.0703 L58.5098,16.0703 C58.5053,16.0710 58.4925,16.0710 58.4805,16.0598 C58.4603,16.0440 58.4498,16.0095 58.4498,15.9593 L58.4498,15.9577 L58.4498,15.9570 C58.4498,15.9075 58.4603,15.8738 58.4805,15.8573 C58.4925,15.8460 58.5053,15.8460 58.5098,15.8468 L58.5570,15.8468 L58.5570,15.6593 L58.5098,15.6593 C58.5053,15.6593 58.4925,15.6593 58.4805,15.6488 C58.4603,15.6323 58.4498,15.5985 58.4498,15.5483 L58.4498,15.5475 L58.4498,15.5468 C58.4498,15.4965 58.4603,15.4628 58.4805,15.4463 C58.4925,15.4350 58.5053,15.4350 58.5098,15.4350 L58.5570,15.4350 L58.5570,15.2483 L58.5098,15.2483 C58.5053,15.2483 58.4925,15.2483 58.4805,15.2378 C58.4603,15.2213 58.4498,15.1875 58.4498,15.1365 L58.4498,15.1358 L58.4498,15.1350 C58.4498,15.0855 58.4603,15.0510 58.4805,15.0345 C58.4925,15.0225 58.5053,15.0225 58.5098,15.0233 L58.5570,15.0233 L58.5570,14.8358 L58.5098,14.8358 C58.5053,14.8365 58.4925,14.8365 58.4805,14.8253 C58.4603,14.8095 58.4498,14.7750 58.4498,14.7255 L58.4498,14.7248 L58.4498,14.7233 C58.4498,14.6738 58.4603,14.6400 58.4805,14.6228 C58.4925,14.6123 58.5053,14.6123 58.5098,14.6123 L58.5570,14.6123 L58.5570,14.4060 L58.3590,14.4060 L58.3590,14.4533 C58.3605,14.4593 58.3605,14.4720 58.3485,14.4863 C58.3335,14.5065 58.3013,14.5170 58.2533,14.5178 L58.2518,14.5178 C58.2038,14.5178 58.1730,14.5065 58.1550,14.4863 C58.1445,14.4720 58.1445,14.4585 58.1445,14.4533 L58.1445,14.4060 L57.9660,14.4060 L57.9660,14.4533 C57.9660,14.4593 57.9660,14.4720 57.9555,14.4863 C57.9398,14.5065 57.9075,14.5170 57.8588,14.5178 L57.8573,14.5178 C57.8100,14.5178 57.7770,14.5065 57.7620,14.4863 C57.7515,14.4720 57.7515,14.4585 57.7515,14.4533 L57.7515,14.4060 L57.5715,14.4060 L57.5715,14.4533 C57.5715,14.4593 57.5715,14.4720 57.5625,14.4863 C57.5468,14.5065 57.5145,14.5170 57.4658,14.5178 L57.4643,14.5178 L57.4628,14.5178 C57.4155,14.5178 57.3840,14.5065 57.3690,14.4863 C57.3570,14.4720 57.3570,14.4585 57.3570,14.4533 L57.3570,14.4060 L57.1793,14.4060 L57.1793,14.4533 C57.1793,14.4593 57.1793,14.4720 57.1688,14.4863 C57.1530,14.5065 57.1208,14.5170 57.0720,14.5178 L57.0705,14.5178 C57.0233,14.5178 56.9918,14.5065 56.9753,14.4863 C56.9633,14.4720 56.9633,14.4585 56.9648,14.4533 L56.9648,14.4060 L56.7848,14.4060 L56.7848,14.4533 C56.7848,14.4593 56.7848,14.4720 56.7743,14.4863 C56.7585,14.5065 56.7263,14.5170 56.6790,14.5178 L56.6775,14.5178 C56.6295,14.5178 56.5973,14.5065 56.5808,14.4863 C56.5688,14.4720 56.5688,14.4585 56.5688,14.4533 L56.5688,14.4060 L56.3918,14.4060 L56.3918,14.4533 C56.3918,14.4593 56.3918,14.4720 56.3813,14.4863 C56.3655,14.5065 56.3333,14.5170 56.2845,14.5178 L56.2815,14.5178 C56.2358,14.5178 56.2035,14.5065 56.1878,14.4863 C56.1758,14.4720 56.1758,14.4585 56.1773,14.4533 L56.1773,14.4060 L55.9973,14.4060 L55.9973,14.4533 C55.9988,14.4593 55.9988,14.4720 55.9868,14.4863 C55.9718,14.5065 55.9388,14.5170 55.8915,14.5178 L55.8885,14.5178 C55.8413,14.5178 55.8105,14.5065 55.7933,14.4863 C55.7828,14.4720 55.7828,14.4585 55.7828,14.4533 L55.7828,14.4060 L55.6043,14.4060 L55.6043,14.4533 C55.6043,14.4593 55.6043,14.4720 55.5938,14.4863 C55.5780,14.5065 55.5458,14.5170 55.4970,14.5178 L55.4955,14.5178 C55.4475,14.5178 55.4153,14.5065 55.3988,14.4863 C55.3883,14.4720 55.3883,14.4585 55.3883,14.4533 L55.3883,14.4060 L55.2098,14.4060 L55.2098,14.4533 C55.2098,14.4593 55.2098,14.4720 55.1993,14.4863 C55.1835,14.5065 55.1513,14.5170 55.1040,14.5178 L55.1025,14.5178 C55.0545,14.5178 55.0223,14.5065 55.0058,14.4863 C54.9938,14.4720 54.9938,14.4585 54.9953,14.4533 L54.9953,14.4060 L54.8168,14.4060 L54.8168,14.4533 C54.8168,14.4593 54.8168,14.4720 54.8063,14.4863 C54.7905,14.5065 54.7583,14.5170 54.7095,14.5178 L54.7080,14.5178 C54.6600,14.5178 54.6278,14.5065 54.6113,14.4863 C54.6008,14.4720 54.6008,14.4585 54.6008,14.4533 L54.6008,14.4060 L54.4043,14.4060 L54.4043,14.6123 L54.4500,14.6123 C54.4545,14.6123 54.4673,14.6123 54.4808,14.6228 C54.5010,14.6400 54.5115,14.6738 54.5115,14.7233 L54.5130,14.7233 L54.5115,14.7248 L54.5130,14.7255 L54.5115,14.7255 C54.5115,14.7750 54.5010,14.8095 54.4808,14.8253 C54.4673,14.8373 54.4545,14.8373 54.4500,14.8358 L54.4043,14.8358 L54.4043,15.0233 L54.4500,15.0233 C54.4545,15.0225 54.4673,15.0225 54.4808,15.0345 C54.5010,15.0510 54.5115,15.0848 54.5115,15.1350 L54.5130,15.1350 L54.5115,15.1358 L54.5130,15.1365 L54.5115,15.1365 C54.5115,15.1868 54.5010,15.2205 54.4808,15.2378 C54.4673,15.2490 54.4545,15.2490 54.4500,15.2483 L54.4043,15.2483 L54.4043,15.4350 L54.4500,15.4350 C54.4545,15.4350 54.4673,15.4350 54.4808,15.4463 C54.5010,15.4628 54.5115,15.4965 54.5115,15.5468 L54.5130,15.5468 L54.5115,15.5475 L54.5130,15.5483 L54.5115,15.5483 C54.5115,15.5985 54.5010,15.6323 54.4808,15.6488 C54.4673,15.6600 54.4545,15.6600 54.4500,15.6593 L54.4043,15.6593 L54.4043,15.8468 L54.4500,15.8468 C54.4545,15.8468 54.4673,15.8468 54.4808,15.8573 C54.5010,15.8738 54.5115,15.9075 54.5115,15.9570 L54.5130,15.9570 L54.5115,15.9577 L54.5130,15.9593 L54.5115,15.9593 C54.5115,16.0088 54.5010,16.0433 54.4808,16.0598 C54.4673,16.0710 54.4545,16.0710 54.4500,16.0703 L54.4043,16.0703 L54.4043,16.2578 L54.4500,16.2578 C54.4545,16.2570 54.4673,16.2570 54.4808,16.2675 C54.5010,16.2848 54.5115,16.3185 54.5115,16.3687 L54.5130,16.3687 L54.5115,16.3695 L54.5130,16.3695 L54.5115,16.3695 C54.5115,16.4198 54.5010,16.4535 54.4808,16.4708 C54.4673,16.4820 54.4545,16.4820 54.4500,16.4812 L54.4043,16.4812 L54.4043,16.6688 L54.4500,16.6688 C54.4545,16.6680 54.4673,16.6680 54.4808,16.6792 C54.5010,16.6958 54.5115,16.7295 54.5115,16.7797 L54.5130,16.7797 L54.5115,16.7805 L54.5130,16.7813 L54.5115,16.7813 C54.5115,16.8315 54.5010,16.8652 54.4808,16.8817 C54.4673,16.8922 54.4545,16.8922 54.4500,16.8922 L54.4043,16.8922 L54.4043,17.0797 L54.4500,17.0797 C54.4545,17.0797 54.4673,17.0797 54.4808,17.0902 C54.5010,17.1060 54.5115,17.1405 54.5115,17.1908 L54.5130,17.1908 L54.5115,17.1915 L54.5130,17.1915 L54.5115,17.1915 C54.5115,17.2410 54.5010,17.2755 54.4808,17.2920 C54.4673,17.3040 54.4545,17.3040 54.4500,17.3025 L54.4043,17.3025 L54.4043,17.4900 L54.4500,17.4900 C54.4545,17.4900 54.4673,17.4900 54.4808,17.5005 C54.5010,17.5162 54.5115,17.5507 54.5115,17.6010 L54.5130,17.6010 L54.5115,17.6025 L54.5130,17.6032 L54.5115,17.6032 C54.5115,17.6527 54.5010,17.6865 54.4808,17.7030 C54.4673,17.7150 54.4545,17.7150 54.4500,17.7135 L54.4043,17.7135 L54.4043,17.9010 L54.4500,17.9010 C54.4545,17.9002 54.4673,17.9002 54.4808,17.9115 C54.5010,17.9287 54.5115,17.9618 54.5115,18.0127 L54.5130,18.0127 L54.5115,18.0127 L54.5130,18.0135 L54.5115,18.0135 C54.5115,18.0630 54.5010,18.0975 54.4808,18.1140 C54.4673,18.1260 54.4545,18.1260 54.4500,18.1245 L54.4043,18.1245 L54.4043,18.3120 L54.4500,18.3120 C54.4545,18.3120 54.4673,18.3120 54.4808,18.3232 C54.5010,18.3397 54.5115,18.3735 54.5115,18.4237 L54.5130,18.4237 L54.5115,18.4245 L54.5130,18.4245 L54.5115,18.4245 C54.5115,18.4747 54.5010,18.5085 54.4808,18.5250 C54.4673,18.5362 54.4545,18.5362 54.4500,18.5362 L54.4043,18.5362 L54.4043,18.7425 L54.6008,18.7425 L54.6008,18.6937 C54.6008,18.6885 54.6008,18.6757 54.6113,18.6615 C54.6270,18.6412 54.6593,18.6300 54.7080,18.6300 L54.7095,18.6300 C54.7575,18.6300 54.7898,18.6412 54.8063,18.6615 C54.8168,18.6757 54.8168,18.6885 54.8168,18.6937 L54.8168,18.7425 L54.9953,18.7425 L54.9953,18.6937 C54.9938,18.6885 54.9938,18.6757 55.0058,18.6615 C55.0215,18.6412 55.0538,18.6300 55.1025,18.6300 L55.1040,18.6300 C55.1513,18.6300 55.1828,18.6412 55.1993,18.6615 C55.2098,18.6757 55.2098,18.6885 55.2098,18.6937 L55.2098,18.7425 L55.3883,18.7425 L55.3883,18.6937 C55.3883,18.6885 55.3883,18.6757 55.3988,18.6615 C55.4145,18.6412 55.4468,18.6300 55.4955,18.6300 L55.4970,18.6300 C55.5450,18.6300 55.5773,18.6412 55.5938,18.6615 C55.6043,18.6757 55.6043,18.6885 55.6043,18.6937 L55.6043,18.7425 L55.7828,18.7425 L55.7828,18.6937 C55.7828,18.6885 55.7828,18.6757 55.7933,18.6615 C55.8105,18.6412 55.8413,18.6300 55.8885,18.6300 L55.8915,18.6300 C55.9388,18.6300 55.9718,18.6412 55.9868,18.6615 C55.9988,18.6757 55.9988,18.6885 55.9973,18.6937 L55.9973,18.7425 L56.1773,18.7425 L56.1773,18.6937 C56.1758,18.6885 56.1758,18.6757 56.1878,18.6615 C56.2035,18.6412 56.2358,18.6300 56.2815,18.6300 L56.2845,18.6300 C56.3325,18.6300 56.3648,18.6412 56.3813,18.6615 C56.3918,18.6757 56.3918,18.6885 56.3918,18.6937 L56.3918,18.7425 L56.5688,18.7425 L56.5688,18.6937 C56.5688,18.6885 56.5688,18.6757 56.5808,18.6615 C56.5965,18.6412 56.6288,18.6300 56.6775,18.6300 L56.6790,18.6300 C56.7263,18.6300 56.7578,18.6412 56.7743,18.6615 C56.7848,18.6757 56.7848,18.6885 56.7848,18.6937 L56.7848,18.7425 L56.9648,18.7425 L56.9648,18.6937 C56.9633,18.6885 56.9633,18.6757 56.9753,18.6615 C56.9910,18.6412 57.0233,18.6300 57.0705,18.6300 L57.0720,18.6300 C57.1200,18.6300 57.1523,18.6412 57.1688,18.6615 C57.1793,18.6757 57.1793,18.6885 57.1793,18.6937 L57.1793,18.7425 L57.3578,18.7425 L57.3578,18.6937 C57.3578,18.6885 57.3578,18.6757 57.3698,18.6615 C57.3848,18.6412 57.4170,18.6300 57.4635,18.6300 L57.4650,18.6300 L57.4665,18.6300 C57.5145,18.6300 57.5468,18.6412 57.5633,18.6615 C57.5723,18.6757 57.5723,18.6885 57.5723,18.6937 L57.5723,18.7425 L57.7523,18.7425 L57.7523,18.6937 C57.7523,18.6885 57.7523,18.6757 57.7628,18.6615 C57.7778,18.6412 57.8108,18.6300 57.8580,18.6300 L57.8595,18.6300 C57.9075,18.6300 57.9398,18.6412 57.9563,18.6615 C57.9668,18.6757 57.9668,18.6885 57.9668,18.6937 L57.9668,18.7425 L58.1453,18.7425 L58.1453,18.6937 C58.1453,18.6885 58.1453,18.6757 58.1558,18.6615 C58.1730,18.6412 58.2038,18.6300 58.2525,18.6300 L58.2540,18.6300 C58.3020,18.6300 58.3343,18.6412 58.3493,18.6615 C58.3613,18.6757 58.3613,18.6885 58.3598,18.6937 L58.3598,18.7425 L58.5578,18.7425 L58.5578,18.5362 L58.5105,18.5362 C58.5053,18.5385 58.4918,18.5385 58.4805,18.5272 Z" style="fill-rule: evenodd; fill: #ffffff; "/>
    <defs xmlns="http://www.w3.org/2000/svg" xmlns:xlink="http://www.w3.org/1999/xlink">
      <linearGradient id="grad9881">
        <stop offset="0%" stop-color="#e91d1d" stop-opacity="1.0000"/>
        <stop offset="100%" stop-color="#ffcccd" stop-opacity="1.0000"/>
      </linearGradient>
      <linearGradient xlink:href="#grad9881" id="grad9882" x1="0" y1="0" x2="0" y2="1" gradientTransform="rotate(135 .5 .5)" gradientUnits="objectBoundingBox">
  </linearGradient>
    </defs>
    <path xmlns="http://www.w3.org/2000/svg" d="  M54.6953,18.4395 L58.2728,18.4395 L58.2728,14.6985 L54.6953,14.6985 L54.6953,18.4395 Z" style="fill-rule: evenodd; fill: url(#grad9882); "/>
    <defs xmlns="http://www.w3.org/2000/svg" xmlns:xlink="http://www.w3.org/1999/xlink">
      <linearGradient id="grad9883">
        <stop offset="0%" stop-color="#36b51d" stop-opacity="1.0000"/>
        <stop offset="100%" stop-color="#2bb111" stop-opacity="1.0000"/>
      </linearGradient>
      <linearGradient xlink:href="#grad9883" id="grad9884" x1="0" y1="0" x2="0" y2="1" gradientTransform="rotate(90 .5 .5)" gradientUnits="objectBoundingBox">
  </linearGradient>
    </defs>
    <path xmlns="http://www.w3.org/2000/svg" d="  M28.6905,42.0270 C27.5482,42.0270 26.6182,41.0970 26.6182,39.9540 L26.6182,25.2862 C26.6182,24.1425 27.5475,23.2133 28.6905,23.2133 L43.3605,23.2133 C44.5028,23.2133 45.4320,24.1417 45.4320,25.2862 L45.4320,39.9540 C45.4320,41.0962 44.5035,42.0270 43.3605,42.0270 L28.6905,42.0270 Z" style="fill-rule: evenodd; fill: url(#grad9884); "/>
    <defs xmlns="http://www.w3.org/2000/svg" xmlns:xlink="http://www.w3.org/1999/xlink">
      <linearGradient id="grad9885">
        <stop offset="0%" stop-color="#cbfc9f" stop-opacity="1.0000"/>
        <stop offset="100%" stop-color="#dafea7" stop-opacity="1.0000"/>
      </linearGradient>
      <linearGradient xlink:href="#grad9885" id="grad9886" x1="0" y1="0" x2="0" y2="1" gradientTransform="rotate(135 .5 .5)" gradientUnits="objectBoundingBox">
  </linearGradient>
    </defs>
    <path xmlns="http://www.w3.org/2000/svg" d="  M28.6905,41.7075 C27.7230,41.7075 26.9363,40.9207 26.9363,39.9540 L26.9363,25.2863 C26.9363,24.3195 27.7230,23.5328 28.6905,23.5328 L43.3605,23.5328 C44.3272,23.5328 45.1140,24.3195 45.1140,25.2863 L45.1140,39.9540 C45.1140,40.9207 44.3272,41.7075 43.3605,41.7075 L28.6905,41.7075 Z" style="fill-rule: evenodd; fill: url(#grad9886); "/>
    <defs xmlns="http://www.w3.org/2000/svg" xmlns:xlink="http://www.w3.org/1999/xlink">
      <linearGradient id="grad9887">
        <stop offset="0%" stop-color="#a1e47a" stop-opacity="1.0000"/>
        <stop offset="100%" stop-color="#b6ea88" stop-opacity="1.0000"/>
      </linearGradient>
      <linearGradient xlink:href="#grad9887" id="grad9888" x1="0" y1="0" x2="0" y2="1" gradientTransform="rotate(135 .5 .5)" gradientUnits="objectBoundingBox">
  </linearGradient>
    </defs>
    <path xmlns="http://www.w3.org/2000/svg" d="  M28.6905,41.0700 C28.0755,41.0700 27.5737,40.5705 27.5737,39.9540 L27.5737,25.2862 C27.5737,24.6712 28.0755,24.1702 28.6905,24.1702 L43.3605,24.1702 C43.9740,24.1702 44.4765,24.6712 44.4765,25.2862 L44.4765,39.9540 C44.4765,40.5705 43.9740,41.0700 43.3605,41.0700 L28.6905,41.0700 Z" style="fill-rule: evenodd; fill: url(#grad9888); "/>
    <defs xmlns="http://www.w3.org/2000/svg" xmlns:xlink="http://www.w3.org/1999/xlink">
      <linearGradient id="grad9889">
        <stop offset="0%" stop-color="#96df6f" stop-opacity="1.0000"/>
        <stop offset="100%" stop-color="#dafea7" stop-opacity="1.0000"/>
      </linearGradient>
      <linearGradient xlink:href="#grad9889" id="grad9890" x1="0" y1="0" x2="0" y2="1" gradientTransform="rotate(135 .5 .5)" gradientUnits="objectBoundingBox">
  </linearGradient>
    </defs>
    <path xmlns="http://www.w3.org/2000/svg" d="  M43.9972,39.9540 C43.9972,40.3058 43.7100,40.5915 43.3598,40.5915 L28.6897,40.5915 C28.3380,40.5915 28.0522,40.3058 28.0522,39.9540 L28.0522,25.2863 C28.0522,24.9330 28.3380,24.6473 28.6897,24.6473 L43.3598,24.6473 C43.7100,24.6473 43.9972,24.9330 43.9972,25.2863 L43.9972,39.9540 Z" style="fill-rule: evenodd; fill: url(#grad9890); "/>
    <!--converted by libvisio2svg-->
  </g>
</svg>
